<svg xmlns="http://www.w3.org/2000/svg" xmlns:xlink="http://www.w3.org/1999/xlink" version="1.1" x="0" y="0" height="230" width="800" viewBox="0 0 800 230" preserveAspectRatio="none"  >
<g label="Query sequence" class="clusterblast-cluster"  >
<text x="5" y="20" class="clusterblast-acc"  >
Query sequence</text>
<line x1="10" y1="35" x2="778.0" y2="35" style="stroke-width:1; stroke:grey; "  />
<polygon points="0,35 5,30 17,30 17,40 5,40 0,35 " style="fill:white; stroke-width:1; stroke:black; " description="&lt;b&gt;ctg1_2859&lt;/b&gt;&lt;br&gt;ctg1 2859&lt;br&gt;Location: 3023914 - 3024589" locus_tag="ctg1_2859" class="clusterblast-orf" id="dummy-17_q0_0_all"  />
<polygon points="16,35 21,30 27,30 27,40 21,40 16,35 " style="fill:white; stroke-width:1; stroke:black; " description="&lt;b&gt;ctg1_2860&lt;/b&gt;&lt;br&gt;ctg1 2860&lt;br&gt;Location: 3024585 - 3025020" locus_tag="ctg1_2860" class="clusterblast-orf" id="dummy-17_q1_0_all"  />
<polygon points="28,35 33,30 59,30 59,40 33,40 28,35 " style="fill:white; stroke-width:1; stroke:black; " description="&lt;b&gt;ctg1_2861&lt;/b&gt;&lt;br&gt;ctg1 2861&lt;br&gt;Location: 3025044 - 3026304" locus_tag="ctg1_2861" class="clusterblast-orf" id="dummy-17_q2_0_all"  />
<polygon points="64,35 69,30 86,30 86,40 69,40 64,35 " style="fill:white; stroke-width:1; stroke:black; " description="&lt;b&gt;ctg1_2862&lt;/b&gt;&lt;br&gt;ctg1 2862&lt;br&gt;Location: 3026472 - 3027387" locus_tag="ctg1_2862" class="clusterblast-orf" id="dummy-17_q3_0_all"  />
<polygon points="99,40 132,40 137,35 132,30 99,30 99,40 " style="fill:white; stroke-width:1; stroke:black; " description="&lt;b&gt;ctg1_2863&lt;/b&gt;&lt;br&gt;ctg1 2863&lt;br&gt;Location: 3027875 - 3029396" locus_tag="ctg1_2863" class="clusterblast-orf" id="dummy-17_q4_0_all"  />
<polygon points="137,40 154,40 159,35 154,30 137,30 137,40 " style="fill:white; stroke-width:1; stroke:black; " description="&lt;b&gt;ctg1_2864&lt;/b&gt;&lt;br&gt;ctg1 2864&lt;br&gt;Location: 3029422 - 3030295" locus_tag="ctg1_2864" class="clusterblast-orf" id="dummy-17_q5_0_all"  />
<polygon points="160,40 175,40 180,35 175,30 160,30 160,40 " style="fill:white; stroke-width:1; stroke:black; " description="&lt;b&gt;ctg1_2865&lt;/b&gt;&lt;br&gt;ctg1 2865&lt;br&gt;Location: 3030318 - 3031149" locus_tag="ctg1_2865" class="clusterblast-orf" id="dummy-17_q6_0_all"  />
<polygon points="180,40 194,40 199,35 194,30 180,30 180,40 " style="fill:white; stroke-width:1; stroke:black; " description="&lt;b&gt;ctg1_2866&lt;/b&gt;&lt;br&gt;ctg1 2866&lt;br&gt;Location: 3031154 - 3031886" locus_tag="ctg1_2866" class="clusterblast-orf" id="dummy-17_q7_0_all"  />
<polygon points="199,35 204,30 221,30 221,40 204,40 199,35 " style="fill:white; stroke-width:1; stroke:black; " description="&lt;b&gt;ctg1_2867&lt;/b&gt;&lt;br&gt;ctg1 2867&lt;br&gt;Location: 3031903 - 3032794" locus_tag="ctg1_2867" class="clusterblast-orf" id="dummy-17_q8_0_all"  />
<polygon points="224,35 229,30 262,30 262,40 229,40 224,35 " style="fill:white; stroke-width:1; stroke:black; " description="&lt;b&gt;ctg1_2868&lt;/b&gt;&lt;br&gt;ctg1 2868&lt;br&gt;Location: 3032918 - 3034418" locus_tag="ctg1_2868" class="clusterblast-orf" id="dummy-17_q9_0_all"  />
<polygon points="268,40 285,40 290,35 285,30 268,30 268,40 " style="fill:white; stroke-width:1; stroke:black; " description="&lt;b&gt;ctg1_2869&lt;/b&gt;&lt;br&gt;ctg1 2869&lt;br&gt;Location: 3034653 - 3035556" locus_tag="ctg1_2869" class="clusterblast-orf" id="dummy-17_q10_0_all"  />
<polygon points="290,35 295,30 298,30 298,40 295,40 290,35 " style="fill:white; stroke-width:1; stroke:black; " description="&lt;b&gt;ctg1_2870&lt;/b&gt;&lt;br&gt;ctg1 2870&lt;br&gt;Location: 3035556 - 3035880" locus_tag="ctg1_2870" class="clusterblast-orf" id="dummy-17_q11_0_all"  />
<polygon points="299,35 303,30 303,40 299,35 " style="fill:white; stroke-width:1; stroke:black; " description="&lt;b&gt;ctg1_2871&lt;/b&gt;&lt;br&gt;ctg1 2871&lt;br&gt;Location: 3035887 - 3036073" locus_tag="ctg1_2871" class="clusterblast-orf" id="dummy-17_q12_0_all"  />
<polygon points="303,35 308,30 369,30 369,40 308,40 303,35 " style="fill:white; stroke-width:1; stroke:black; " description="&lt;b&gt;ctg1_2872&lt;/b&gt;&lt;br&gt;ctg1 2872&lt;br&gt;Location: 3036069 - 3038709" locus_tag="ctg1_2872" class="clusterblast-orf" id="dummy-17_q13_0_all"  />
<polygon points="374,40 382,40 387,35 382,30 374,30 374,40 " style="fill:white; stroke-width:1; stroke:black; " description="&lt;b&gt;ctg1_2873&lt;/b&gt;&lt;br&gt;ctg1 2873&lt;br&gt;Location: 3038915 - 3039416" locus_tag="ctg1_2873" class="clusterblast-orf" id="dummy-17_q14_0_all"  />
<polygon points="390,40 410,40 415,35 410,30 390,30 390,40 " style="fill:white; stroke-width:1; stroke:black; " description="&lt;b&gt;ctg1_2874&lt;/b&gt;&lt;br&gt;ctg1 2874&lt;br&gt;Location: 3039563 - 3040553" locus_tag="ctg1_2874" class="clusterblast-orf" id="dummy-17_q15_0_all"  />
<polygon points="418,40 424,40 429,35 424,30 418,30 418,40 " style="fill:white; stroke-width:1; stroke:black; " description="&lt;b&gt;ctg1_2875&lt;/b&gt;&lt;br&gt;ctg1 2875&lt;br&gt;Location: 3040675 - 3041116" locus_tag="ctg1_2875" class="clusterblast-orf" id="dummy-17_q16_0_all"  />
<polygon points="430,35 435,30 437,30 437,40 435,40 430,35 " style="fill:white; stroke-width:1; stroke:black; " description="&lt;b&gt;ctg1_2876&lt;/b&gt;&lt;br&gt;ctg1 2876&lt;br&gt;Location: 3041161 - 3041425" locus_tag="ctg1_2876" class="clusterblast-orf" id="dummy-17_q17_0_all"  />
<polygon points="446,40 529,40 534,35 529,30 446,30 446,40 " style="fill:#d81515; stroke-width:1; stroke:black; " description="&lt;b&gt;ctg1_2877&lt;/b&gt;&lt;br&gt;ctg1 2877&lt;br&gt;Location: 3041787 - 3045315" locus_tag="ctg1_2877" class="clusterblast-orf" id="dummy-17_q18_0_all"  />
<polygon points="543,40 566,40 571,35 566,30 543,30 543,40 " style="fill:white; stroke-width:1; stroke:black; " description="&lt;b&gt;ctg1_2878&lt;/b&gt;&lt;br&gt;ctg1 2878&lt;br&gt;Location: 3045673 - 3046798" locus_tag="ctg1_2878" class="clusterblast-orf" id="dummy-17_q19_0_all"  />
<polygon points="574,40 575,40 580,35 575,30 574,30 574,40 " style="fill:white; stroke-width:1; stroke:black; " description="&lt;b&gt;ctg1_2879&lt;/b&gt;&lt;br&gt;ctg1 2879&lt;br&gt;Location: 3046942 - 3047155" locus_tag="ctg1_2879" class="clusterblast-orf" id="dummy-17_q20_0_all"  />
<polygon points="582,40 588,40 593,35 588,30 582,30 582,40 " style="fill:white; stroke-width:1; stroke:black; " description="&lt;b&gt;ctg1_2880&lt;/b&gt;&lt;br&gt;ctg1 2880&lt;br&gt;Location: 3047237 - 3047672" locus_tag="ctg1_2880" class="clusterblast-orf" id="dummy-17_q21_0_all"  />
<polygon points="598,40 617,40 622,35 617,30 598,30 598,40 " style="fill:white; stroke-width:1; stroke:black; " description="&lt;b&gt;ctg1_2881&lt;/b&gt;&lt;br&gt;ctg1 2881&lt;br&gt;Location: 3047903 - 3048839" locus_tag="ctg1_2881" class="clusterblast-orf" id="dummy-17_q22_0_all"  />
<polygon points="623,35 628,30 657,30 657,40 628,40 623,35 " style="fill:white; stroke-width:1; stroke:black; " description="&lt;b&gt;ctg1_2882&lt;/b&gt;&lt;br&gt;ctg1 2882&lt;br&gt;Location: 3048884 - 3050258" locus_tag="ctg1_2882" class="clusterblast-orf" id="dummy-17_q23_0_all"  />
<polygon points="670,35 675,30 695,30 695,40 675,40 670,35 " style="fill:white; stroke-width:1; stroke:black; " description="&lt;b&gt;ctg1_2883&lt;/b&gt;&lt;br&gt;ctg1 2883&lt;br&gt;Location: 3050783 - 3051767" locus_tag="ctg1_2883" class="clusterblast-orf" id="dummy-17_q24_0_all"  />
<polygon points="702,40 715,40 720,35 715,30 702,30 702,40 " style="fill:white; stroke-width:1; stroke:black; " description="&lt;b&gt;ctg1_2884&lt;/b&gt;&lt;br&gt;ctg1 2884&lt;br&gt;Location: 3052045 - 3052789" locus_tag="ctg1_2884" class="clusterblast-orf" id="dummy-17_q25_0_all"  />
<polygon points="719,40 742,40 747,35 742,30 719,30 719,40 " style="fill:white; stroke-width:1; stroke:black; " description="&lt;b&gt;ctg1_2885&lt;/b&gt;&lt;br&gt;ctg1 2885&lt;br&gt;Location: 3052751 - 3053870" locus_tag="ctg1_2885" class="clusterblast-orf" id="dummy-17_q26_0_all"  />
<polygon points="753,40 753,40 758,35 753,30 753,30 753,40 " style="fill:white; stroke-width:1; stroke:black; " description="&lt;b&gt;ctg1_2886&lt;/b&gt;&lt;br&gt;ctg1 2886&lt;br&gt;Location: 3054106 - 3054301" locus_tag="ctg1_2886" class="clusterblast-orf" id="dummy-17_q27_0_all"  />
<polygon points="761,35 766,30 780,30 780,40 766,40 761,35 " style="fill:white; stroke-width:1; stroke:black; " description="&lt;b&gt;ctg1_2887&lt;/b&gt;&lt;br&gt;ctg1 2887&lt;br&gt;Location: 3054416 - 3055166" locus_tag="ctg1_2887" class="clusterblast-orf" id="dummy-17_q28_0_all"  />
</g>
<g label="MGC00000033" description="MGC00000033_c1: PFOR II pathway B. thetaiotaomicron (100% of genes show similarity), PFORII" class="clusterblast-cluster"  >
<text x="5" y="70" class="clusterblast-acc"  >
MGC00000033_c1: PFOR II pathway B. thetaiotaomicron (100% of genes show similarity), PFORII</text>
<line x1="10" y1="85" x2="778.0" y2="85" style="stroke-width:1; stroke:grey; "  />
</g>
<g id="a17_000"  >
<polygon points="345,90 429,90 434,85 429,80 345,80 345,90 " style="fill:#d81515; stroke-width:1; stroke:black; " description="&lt;b&gt;BT_1747&lt;/b&gt;&lt;br&gt;pyruvate-flavodoxin oxidoreductase&lt;br&gt;Location: 10000 - 13558&lt;br&gt;&lt;br&gt;&lt;b&gt;BlastP hit with ctg1_2877&lt;/b&gt;&lt;br&gt;Percentage identity: 48&lt;br&gt;Percentage coverage: 101&lt;br&gt;BLAST bit score: 1043&lt;br&gt;E-value: 0.0" locus_tag="BT_1747" class="clusterblast-orf" id="dummy-17_h17_1_0"  />
</g>
</svg>
