<svg xmlns="http://www.w3.org/2000/svg" xmlns:xlink="http://www.w3.org/1999/xlink" version="1.1" x="0" y="0" height="50" width="800" viewBox="0 0 800 50" preserveAspectRatio="none"  >
<g label="Query sequence" class="clusterblast-cluster"  >
<text x="5" y="20" class="clusterblast-acc"  >
Query sequence</text>
<line x1="10" y1="35" x2="778.0" y2="35" style="stroke-width:1; stroke:grey; "  />
<polygon points="0,35 5,30 29,30 29,40 5,40 0,35 " style="fill:white; stroke-width:1; stroke:black; " description="&lt;b&gt;ctg1_1308&lt;/b&gt;&lt;br&gt;ctg1 1308&lt;br&gt;Location: 1392069 - 1393266" locus_tag="ctg1_1308" class="clusterblast-orf" id="knownclusterblast-8_q0_0_all"  />
<polygon points="29,35 34,30 41,30 41,40 34,40 29,35 " style="fill:white; stroke-width:1; stroke:black; " description="&lt;b&gt;ctg1_1309&lt;/b&gt;&lt;br&gt;ctg1 1309&lt;br&gt;Location: 1393262 - 1393721" locus_tag="ctg1_1309" class="clusterblast-orf" id="knownclusterblast-8_q1_0_all"  />
<polygon points="44,40 62,40 67,35 62,30 44,30 44,40 " style="fill:white; stroke-width:1; stroke:black; " description="&lt;b&gt;ctg1_1310&lt;/b&gt;&lt;br&gt;ctg1 1310&lt;br&gt;Location: 1393853 - 1394795" locus_tag="ctg1_1310" class="clusterblast-orf" id="knownclusterblast-8_q2_0_all"  />
<polygon points="67,35 72,30 89,30 89,40 72,40 67,35 " style="fill:white; stroke-width:1; stroke:black; " description="&lt;b&gt;ctg1_1311&lt;/b&gt;&lt;br&gt;ctg1 1311&lt;br&gt;Location: 1394791 - 1395652" locus_tag="ctg1_1311" class="clusterblast-orf" id="knownclusterblast-8_q3_0_all"  />
<polygon points="98,35 103,30 110,30 110,40 103,40 98,35 " style="fill:white; stroke-width:1; stroke:black; " description="&lt;b&gt;ctg1_1312&lt;/b&gt;&lt;br&gt;ctg1 1312&lt;br&gt;Location: 1396027 - 1396510" locus_tag="ctg1_1312" class="clusterblast-orf" id="knownclusterblast-8_q4_0_all"  />
<polygon points="120,35 125,30 143,30 143,40 125,40 120,35 " style="fill:white; stroke-width:1; stroke:black; " description="&lt;b&gt;ctg1_1313&lt;/b&gt;&lt;br&gt;ctg1 1313&lt;br&gt;Location: 1396923 - 1397853" locus_tag="ctg1_1313" class="clusterblast-orf" id="knownclusterblast-8_q5_0_all"  />
<polygon points="151,40 165,40 170,35 165,30 151,30 151,40 " style="fill:white; stroke-width:1; stroke:black; " description="&lt;b&gt;ctg1_1314&lt;/b&gt;&lt;br&gt;ctg1 1314&lt;br&gt;Location: 1398142 - 1398904" locus_tag="ctg1_1314" class="clusterblast-orf" id="knownclusterblast-8_q6_0_all"  />
<polygon points="171,35 176,30 204,30 204,40 176,40 171,35 " style="fill:white; stroke-width:1; stroke:black; " description="&lt;b&gt;ctg1_1315&lt;/b&gt;&lt;br&gt;ctg1 1315&lt;br&gt;Location: 1398965 - 1400288" locus_tag="ctg1_1315" class="clusterblast-orf" id="knownclusterblast-8_q7_0_all"  />
<polygon points="213,40 215,40 220,35 215,30 213,30 213,40 " style="fill:white; stroke-width:1; stroke:black; " description="&lt;b&gt;ctg1_1316&lt;/b&gt;&lt;br&gt;ctg1 1316&lt;br&gt;Location: 1400661 - 1400946" locus_tag="ctg1_1316" class="clusterblast-orf" id="knownclusterblast-8_q8_0_all"  />
<polygon points="224,40 252,40 257,35 252,30 224,30 224,40 " style="fill:white; stroke-width:1; stroke:black; " description="&lt;b&gt;ctg1_1317&lt;/b&gt;&lt;br&gt;ctg1 1317&lt;br&gt;Location: 1401103 - 1402414" locus_tag="ctg1_1317" class="clusterblast-orf" id="knownclusterblast-8_q9_0_all"  />
<polygon points="257,40 305,40 310,35 305,30 257,30 257,40 " style="fill:white; stroke-width:1; stroke:black; " description="&lt;b&gt;ctg1_1318&lt;/b&gt;&lt;br&gt;ctg1 1318&lt;br&gt;Location: 1402413 - 1404558" locus_tag="ctg1_1318" class="clusterblast-orf" id="knownclusterblast-8_q10_0_all"  />
<polygon points="318,40 322,40 327,35 322,30 318,30 318,40 " style="fill:white; stroke-width:1; stroke:black; " description="&lt;b&gt;ctg1_1319&lt;/b&gt;&lt;br&gt;ctg1 1319&lt;br&gt;Location: 1404866 - 1405253" locus_tag="ctg1_1319" class="clusterblast-orf" id="knownclusterblast-8_q11_0_all"  />
<polygon points="328,35 333,30 341,30 341,40 333,40 328,35 " style="fill:white; stroke-width:1; stroke:black; " description="&lt;b&gt;ctg1_1320&lt;/b&gt;&lt;br&gt;ctg1 1320&lt;br&gt;Location: 1405271 - 1405823" locus_tag="ctg1_1320" class="clusterblast-orf" id="knownclusterblast-8_q12_0_all"  />
<polygon points="346,40 364,40 369,35 364,30 346,30 346,40 " style="fill:white; stroke-width:1; stroke:black; " description="&lt;b&gt;ctg1_1321&lt;/b&gt;&lt;br&gt;ctg1 1321&lt;br&gt;Location: 1405990 - 1406923" locus_tag="ctg1_1321" class="clusterblast-orf" id="knownclusterblast-8_q13_0_all"  />
<polygon points="370,40 392,40 397,35 392,30 370,30 370,40 " style="fill:white; stroke-width:1; stroke:black; " description="&lt;b&gt;ctg1_1322&lt;/b&gt;&lt;br&gt;ctg1 1322&lt;br&gt;Location: 1406964 - 1408050" locus_tag="ctg1_1322" class="clusterblast-orf" id="knownclusterblast-8_q14_0_all"  />
<polygon points="397,40 412,40 417,35 412,30 397,30 397,40 " style="fill:white; stroke-width:1; stroke:black; " description="&lt;b&gt;ctg1_1323&lt;/b&gt;&lt;br&gt;ctg1 1323&lt;br&gt;Location: 1408052 - 1408877" locus_tag="ctg1_1323" class="clusterblast-orf" id="knownclusterblast-8_q15_0_all"  />
<polygon points="417,40 432,40 437,35 432,30 417,30 417,40 " style="fill:white; stroke-width:1; stroke:black; " description="&lt;b&gt;ctg1_1324&lt;/b&gt;&lt;br&gt;ctg1 1324&lt;br&gt;Location: 1408876 - 1409686" locus_tag="ctg1_1324" class="clusterblast-orf" id="knownclusterblast-8_q16_0_all"  />
<polygon points="437,40 446,40 451,35 446,30 437,30 437,40 " style="fill:white; stroke-width:1; stroke:black; " description="&lt;b&gt;ctg1_1325&lt;/b&gt;&lt;br&gt;ctg1 1325&lt;br&gt;Location: 1409685 - 1410234" locus_tag="ctg1_1325" class="clusterblast-orf" id="knownclusterblast-8_q17_0_all"  />
<polygon points="452,40 454,40 459,35 454,30 452,30 452,40 " style="fill:white; stroke-width:1; stroke:black; " description="&lt;b&gt;ctg1_1326&lt;/b&gt;&lt;br&gt;ctg1 1326&lt;br&gt;Location: 1410265 - 1410547" locus_tag="ctg1_1326" class="clusterblast-orf" id="knownclusterblast-8_q18_0_all"  />
<polygon points="460,35 465,30 510,30 510,40 465,40 460,35 " style="fill:white; stroke-width:1; stroke:black; " description="&lt;b&gt;ctg1_1327&lt;/b&gt;&lt;br&gt;ctg1 1327&lt;br&gt;Location: 1410608 - 1412597" locus_tag="ctg1_1327" class="clusterblast-orf" id="knownclusterblast-8_q19_0_all"  />
<polygon points="514,40 539,40 544,35 539,30 514,30 514,40 " style="fill:white; stroke-width:1; stroke:black; " description="&lt;b&gt;ctg1_1328&lt;/b&gt;&lt;br&gt;ctg1 1328&lt;br&gt;Location: 1412755 - 1413976" locus_tag="ctg1_1328" class="clusterblast-orf" id="knownclusterblast-8_q20_0_all"  />
<polygon points="549,40 574,40 579,35 574,30 549,30 549,40 " style="fill:white; stroke-width:1; stroke:black; " description="&lt;b&gt;ctg1_1329&lt;/b&gt;&lt;br&gt;ctg1 1329&lt;br&gt;Location: 1414185 - 1415367" locus_tag="ctg1_1329" class="clusterblast-orf" id="knownclusterblast-8_q21_0_all"  />
<polygon points="579,35 584,30 597,30 597,40 584,40 579,35 " style="fill:white; stroke-width:1; stroke:black; " description="&lt;b&gt;ctg1_1330&lt;/b&gt;&lt;br&gt;ctg1 1330&lt;br&gt;Location: 1415368 - 1416106" locus_tag="ctg1_1330" class="clusterblast-orf" id="knownclusterblast-8_q22_0_all"  />
<polygon points="602,40 605,40 610,35 605,30 602,30 602,40 " style="fill:white; stroke-width:1; stroke:black; " description="&lt;b&gt;ctg1_1331&lt;/b&gt;&lt;br&gt;ctg1 1331&lt;br&gt;Location: 1416301 - 1416616" locus_tag="ctg1_1331" class="clusterblast-orf" id="knownclusterblast-8_q23_0_all"  />
<polygon points="612,40 641,40 646,35 641,30 612,30 612,40 " style="fill:white; stroke-width:1; stroke:black; " description="&lt;b&gt;ctg1_1332&lt;/b&gt;&lt;br&gt;ctg1 1332&lt;br&gt;Location: 1416724 - 1418071" locus_tag="ctg1_1332" class="clusterblast-orf" id="knownclusterblast-8_q24_0_all"  />
<polygon points="645,40 648,40 653,35 648,30 645,30 645,40 " style="fill:white; stroke-width:1; stroke:black; " description="&lt;b&gt;ctg1_1333&lt;/b&gt;&lt;br&gt;ctg1 1333&lt;br&gt;Location: 1418057 - 1418369" locus_tag="ctg1_1333" class="clusterblast-orf" id="knownclusterblast-8_q25_0_all"  />
<polygon points="655,40 691,40 696,35 691,30 655,30 655,40 " style="fill:white; stroke-width:1; stroke:black; " description="&lt;b&gt;ctg1_1334&lt;/b&gt;&lt;br&gt;ctg1 1334&lt;br&gt;Location: 1418429 - 1420103" locus_tag="ctg1_1334" class="clusterblast-orf" id="knownclusterblast-8_q26_0_all"  />
<polygon points="698,35 703,30 722,30 722,40 703,40 698,35 " style="fill:white; stroke-width:1; stroke:black; " description="&lt;b&gt;ctg1_1335&lt;/b&gt;&lt;br&gt;ctg1 1335&lt;br&gt;Location: 1420161 - 1421142" locus_tag="ctg1_1335" class="clusterblast-orf" id="knownclusterblast-8_q27_0_all"  />
<polygon points="725,40 748,40 753,35 748,30 725,30 725,40 " style="fill:white; stroke-width:1; stroke:black; " description="&lt;b&gt;ctg1_1336&lt;/b&gt;&lt;br&gt;ctg1 1336&lt;br&gt;Location: 1421252 - 1422389" locus_tag="ctg1_1336" class="clusterblast-orf" id="knownclusterblast-8_q28_0_all"  />
<polygon points="755,40 775,40 780,35 775,30 755,30 755,40 " style="fill:white; stroke-width:1; stroke:black; " description="&lt;b&gt;ctg1_1337&lt;/b&gt;&lt;br&gt;ctg1 1337&lt;br&gt;Location: 1422452 - 1423466" locus_tag="ctg1_1337" class="clusterblast-orf" id="knownclusterblast-8_q29_0_all"  />
</g>
</svg>
