<svg xmlns="http://www.w3.org/2000/svg" xmlns:xlink="http://www.w3.org/1999/xlink" version="1.1" x="0" y="0" height="50" width="800" viewBox="0 0 800 50" preserveAspectRatio="none"  >
<g label="Query sequence" class="clusterblast-cluster"  >
<text x="5" y="20" class="clusterblast-acc"  >
Query sequence</text>
<line x1="10" y1="35" x2="778.0" y2="35" style="stroke-width:1; stroke:grey; "  />
<polygon points="0,40 10,40 15,35 10,30 0,30 0,40 " style="fill:white; stroke-width:1; stroke:black; " description="&lt;b&gt;ctg1_2163&lt;/b&gt;&lt;br&gt;ctg1 2163&lt;br&gt;Location: 2319463 - 2320018" locus_tag="ctg1_2163" class="clusterblast-orf" id="knownclusterblast-13_q0_0_all"  />
<polygon points="15,40 22,40 27,35 22,30 15,30 15,40 " style="fill:white; stroke-width:1; stroke:black; " description="&lt;b&gt;ctg1_2164&lt;/b&gt;&lt;br&gt;ctg1 2164&lt;br&gt;Location: 2320017 - 2320476" locus_tag="ctg1_2164" class="clusterblast-orf" id="knownclusterblast-13_q1_0_all"  />
<polygon points="27,40 45,40 50,35 45,30 27,30 27,40 " style="fill:white; stroke-width:1; stroke:black; " description="&lt;b&gt;ctg1_2165&lt;/b&gt;&lt;br&gt;ctg1 2165&lt;br&gt;Location: 2320472 - 2321315" locus_tag="ctg1_2165" class="clusterblast-orf" id="knownclusterblast-13_q2_0_all"  />
<polygon points="57,35 62,30 71,30 71,40 62,40 57,35 " style="fill:white; stroke-width:1; stroke:black; " description="&lt;b&gt;ctg1_2166&lt;/b&gt;&lt;br&gt;ctg1 2166&lt;br&gt;Location: 2321580 - 2322099" locus_tag="ctg1_2166" class="clusterblast-orf" id="knownclusterblast-13_q3_0_all"  />
<polygon points="72,35 77,30 85,30 85,40 77,40 72,35 " style="fill:white; stroke-width:1; stroke:black; " description="&lt;b&gt;ctg1_2167&lt;/b&gt;&lt;br&gt;ctg1 2167&lt;br&gt;Location: 2322125 - 2322587" locus_tag="ctg1_2167" class="clusterblast-orf" id="knownclusterblast-13_q4_0_all"  />
<polygon points="86,35 91,30 103,30 103,40 91,40 86,35 " style="fill:white; stroke-width:1; stroke:black; " description="&lt;b&gt;ctg1_2168&lt;/b&gt;&lt;br&gt;ctg1 2168&lt;br&gt;Location: 2322649 - 2323252" locus_tag="ctg1_2168" class="clusterblast-orf" id="knownclusterblast-13_q5_0_all"  />
<polygon points="104,40 118,40 123,35 118,30 104,30 104,40 " style="fill:white; stroke-width:1; stroke:black; " description="&lt;b&gt;ctg1_2169&lt;/b&gt;&lt;br&gt;ctg1 2169&lt;br&gt;Location: 2323295 - 2323991" locus_tag="ctg1_2169" class="clusterblast-orf" id="knownclusterblast-13_q6_0_all"  />
<polygon points="126,40 132,40 137,35 132,30 126,30 126,40 " style="fill:white; stroke-width:1; stroke:black; " description="&lt;b&gt;ctg1_2170&lt;/b&gt;&lt;br&gt;ctg1 2170&lt;br&gt;Location: 2324122 - 2324527" locus_tag="ctg1_2170" class="clusterblast-orf" id="knownclusterblast-13_q7_0_all"  />
<polygon points="143,40 148,40 153,35 148,30 143,30 143,40 " style="fill:white; stroke-width:1; stroke:black; " description="&lt;b&gt;ctg1_2171&lt;/b&gt;&lt;br&gt;ctg1 2171&lt;br&gt;Location: 2324722 - 2325085" locus_tag="ctg1_2171" class="clusterblast-orf" id="knownclusterblast-13_q8_0_all"  />
<polygon points="157,40 181,40 186,35 181,30 157,30 157,40 " style="fill:white; stroke-width:1; stroke:black; " description="&lt;b&gt;ctg1_2172&lt;/b&gt;&lt;br&gt;ctg1 2172&lt;br&gt;Location: 2325263 - 2326301" locus_tag="ctg1_2172" class="clusterblast-orf" id="knownclusterblast-13_q9_0_all"  />
<polygon points="209,40 234,40 239,35 234,30 209,30 209,40 " style="fill:white; stroke-width:1; stroke:black; " description="&lt;b&gt;ctg1_2173&lt;/b&gt;&lt;br&gt;ctg1 2173&lt;br&gt;Location: 2327149 - 2328277" locus_tag="ctg1_2173" class="clusterblast-orf" id="knownclusterblast-13_q10_0_all"  />
<polygon points="242,35 247,30 263,30 263,40 247,40 242,35 " style="fill:white; stroke-width:1; stroke:black; " description="&lt;b&gt;ctg1_2174&lt;/b&gt;&lt;br&gt;ctg1 2174&lt;br&gt;Location: 2328372 - 2329143" locus_tag="ctg1_2174" class="clusterblast-orf" id="knownclusterblast-13_q11_0_all"  />
<polygon points="263,35 268,30 309,30 309,40 268,40 263,35 " style="fill:white; stroke-width:1; stroke:black; " description="&lt;b&gt;ctg1_2175&lt;/b&gt;&lt;br&gt;ctg1 2175&lt;br&gt;Location: 2329166 - 2330846" locus_tag="ctg1_2175" class="clusterblast-orf" id="knownclusterblast-13_q12_0_all"  />
<polygon points="309,35 314,30 330,30 330,40 314,40 309,35 " style="fill:white; stroke-width:1; stroke:black; " description="&lt;b&gt;ctg1_2176&lt;/b&gt;&lt;br&gt;ctg1 2176&lt;br&gt;Location: 2330855 - 2331635" locus_tag="ctg1_2176" class="clusterblast-orf" id="knownclusterblast-13_q13_0_all"  />
<polygon points="333,40 352,40 357,35 352,30 333,30 333,40 " style="fill:white; stroke-width:1; stroke:black; " description="&lt;b&gt;ctg1_2177&lt;/b&gt;&lt;br&gt;ctg1 2177&lt;br&gt;Location: 2331741 - 2332614" locus_tag="ctg1_2177" class="clusterblast-orf" id="knownclusterblast-13_q14_0_all"  />
<polygon points="358,35 363,30 379,30 379,40 363,40 358,35 " style="fill:white; stroke-width:1; stroke:black; " description="&lt;b&gt;ctg1_2178&lt;/b&gt;&lt;br&gt;ctg1 2178&lt;br&gt;Location: 2332633 - 2333404" locus_tag="ctg1_2178" class="clusterblast-orf" id="knownclusterblast-13_q15_0_all"  />
<polygon points="379,35 384,30 417,30 417,40 384,40 379,35 " style="fill:white; stroke-width:1; stroke:black; " description="&lt;b&gt;ctg1_2179&lt;/b&gt;&lt;br&gt;ctg1 2179&lt;br&gt;Location: 2333427 - 2334819" locus_tag="ctg1_2179" class="clusterblast-orf" id="knownclusterblast-13_q16_0_all"  />
<polygon points="418,35 423,30 443,30 443,40 423,40 418,35 " style="fill:white; stroke-width:1; stroke:black; " description="&lt;b&gt;ctg1_2180&lt;/b&gt;&lt;br&gt;ctg1 2180&lt;br&gt;Location: 2334866 - 2335790" locus_tag="ctg1_2180" class="clusterblast-orf" id="knownclusterblast-13_q17_0_all"  />
<polygon points="444,35 449,30 476,30 476,40 449,40 444,35 " style="fill:white; stroke-width:1; stroke:black; " description="&lt;b&gt;ctg1_2181&lt;/b&gt;&lt;br&gt;ctg1 2181&lt;br&gt;Location: 2335801 - 2336983" locus_tag="ctg1_2181" class="clusterblast-orf" id="knownclusterblast-13_q18_0_all"  />
<polygon points="476,35 481,30 494,30 494,40 481,40 476,35 " style="fill:white; stroke-width:1; stroke:black; " description="&lt;b&gt;ctg1_2182&lt;/b&gt;&lt;br&gt;ctg1 2182&lt;br&gt;Location: 2336992 - 2337649" locus_tag="ctg1_2182" class="clusterblast-orf" id="knownclusterblast-13_q19_0_all"  />
<polygon points="494,35 499,30 513,30 513,40 499,40 494,35 " style="fill:white; stroke-width:1; stroke:black; " description="&lt;b&gt;ctg1_2183&lt;/b&gt;&lt;br&gt;ctg1 2183&lt;br&gt;Location: 2337650 - 2338358" locus_tag="ctg1_2183" class="clusterblast-orf" id="knownclusterblast-13_q20_0_all"  />
<polygon points="517,40 536,40 541,35 536,30 517,30 517,40 " style="fill:white; stroke-width:1; stroke:black; " description="&lt;b&gt;ctg1_2184&lt;/b&gt;&lt;br&gt;ctg1 2184&lt;br&gt;Location: 2338498 - 2339389" locus_tag="ctg1_2184" class="clusterblast-orf" id="knownclusterblast-13_q21_0_all"  />
<polygon points="542,35 546,30 546,40 542,35 " style="fill:white; stroke-width:1; stroke:black; " description="&lt;b&gt;ctg1_2185&lt;/b&gt;&lt;br&gt;ctg1 2185&lt;br&gt;Location: 2339436 - 2339577" locus_tag="ctg1_2185" class="clusterblast-orf" id="knownclusterblast-13_q22_0_all"  />
<polygon points="547,35 551,30 551,40 547,35 " style="fill:white; stroke-width:1; stroke:black; " description="&lt;b&gt;ctg1_2186&lt;/b&gt;&lt;br&gt;ctg1 2186&lt;br&gt;Location: 2339600 - 2339747" locus_tag="ctg1_2186" class="clusterblast-orf" id="knownclusterblast-13_q23_0_all"  />
<polygon points="554,40 574,40 579,35 574,30 554,30 554,40 " style="fill:white; stroke-width:1; stroke:black; " description="&lt;b&gt;ctg1_2187&lt;/b&gt;&lt;br&gt;ctg1 2187&lt;br&gt;Location: 2339867 - 2340776" locus_tag="ctg1_2187" class="clusterblast-orf" id="knownclusterblast-13_q24_0_all"  />
<polygon points="581,35 586,30 614,30 614,40 586,40 581,35 " style="fill:white; stroke-width:1; stroke:black; " description="&lt;b&gt;ctg1_2188&lt;/b&gt;&lt;br&gt;ctg1 2188&lt;br&gt;Location: 2340858 - 2342076" locus_tag="ctg1_2188" class="clusterblast-orf" id="knownclusterblast-13_q25_0_all"  />
<polygon points="619,35 624,30 632,30 632,40 624,40 619,35 " style="fill:white; stroke-width:1; stroke:black; " description="&lt;b&gt;ctg1_2189&lt;/b&gt;&lt;br&gt;ctg1 2189&lt;br&gt;Location: 2342253 - 2342715" locus_tag="ctg1_2189" class="clusterblast-orf" id="knownclusterblast-13_q26_0_all"  />
<polygon points="633,40 635,40 640,35 635,30 633,30 633,40 " style="fill:white; stroke-width:1; stroke:black; " description="&lt;b&gt;ctg1_2190&lt;/b&gt;&lt;br&gt;ctg1 2190&lt;br&gt;Location: 2342775 - 2343024" locus_tag="ctg1_2190" class="clusterblast-orf" id="knownclusterblast-13_q27_0_all"  />
<polygon points="645,40 672,40 677,35 672,30 645,30 645,40 " style="fill:white; stroke-width:1; stroke:black; " description="&lt;b&gt;ctg1_2191&lt;/b&gt;&lt;br&gt;ctg1 2191&lt;br&gt;Location: 2343225 - 2344404" locus_tag="ctg1_2191" class="clusterblast-orf" id="knownclusterblast-13_q28_0_all"  />
<polygon points="681,40 702,40 707,35 702,30 681,30 681,40 " style="fill:white; stroke-width:1; stroke:black; " description="&lt;b&gt;ctg1_2192&lt;/b&gt;&lt;br&gt;ctg1 2192&lt;br&gt;Location: 2344532 - 2345492" locus_tag="ctg1_2192" class="clusterblast-orf" id="knownclusterblast-13_q29_0_all"  />
<polygon points="706,40 738,40 743,35 738,30 706,30 706,40 " style="fill:white; stroke-width:1; stroke:black; " description="&lt;b&gt;ctg1_2193&lt;/b&gt;&lt;br&gt;ctg1 2193&lt;br&gt;Location: 2345460 - 2346828" locus_tag="ctg1_2193" class="clusterblast-orf" id="knownclusterblast-13_q30_0_all"  />
<polygon points="746,35 751,30 755,30 755,40 751,40 746,35 " style="fill:white; stroke-width:1; stroke:black; " description="&lt;b&gt;ctg1_2194&lt;/b&gt;&lt;br&gt;ctg1 2194&lt;br&gt;Location: 2346918 - 2347257" locus_tag="ctg1_2194" class="clusterblast-orf" id="knownclusterblast-13_q31_0_all"  />
<polygon points="755,35 760,30 766,30 766,40 760,40 755,35 " style="fill:white; stroke-width:1; stroke:black; " description="&lt;b&gt;ctg1_2195&lt;/b&gt;&lt;br&gt;ctg1 2195&lt;br&gt;Location: 2347253 - 2347682" locus_tag="ctg1_2195" class="clusterblast-orf" id="knownclusterblast-13_q32_0_all"  />
<polygon points="766,35 771,30 780,30 780,40 771,40 766,35 " style="fill:white; stroke-width:1; stroke:black; " description="&lt;b&gt;ctg1_2196&lt;/b&gt;&lt;br&gt;ctg1 2196&lt;br&gt;Location: 2347683 - 2348172" locus_tag="ctg1_2196" class="clusterblast-orf" id="knownclusterblast-13_q33_0_all"  />
</g>
</svg>
