<svg xmlns="http://www.w3.org/2000/svg" xmlns:xlink="http://www.w3.org/1999/xlink" version="1.1" x="0" y="0" height="250" width="800" viewBox="0 0 800 250" preserveAspectRatio="none"  >
<g label="Query sequence" class="clusterblast-cluster"  >
<text x="5" y="20" class="clusterblast-acc"  >
Query sequence</text>
<line x1="10" y1="35" x2="778.0" y2="35" style="stroke-width:1; stroke:grey; "  />
<polygon points="0,35 5,30 17,30 17,40 5,40 0,35 " style="fill:white; stroke-width:1; stroke:black; " description="&lt;b&gt;ctg1_1359&lt;/b&gt;&lt;br&gt;ctg1 1359&lt;br&gt;Location: 1442628 - 1443831" locus_tag="ctg1_1359" class="clusterblast-orf" id="knownclusterblast-9_q0_0_all"  />
<polygon points="22,40 24,40 29,35 24,30 22,30 22,40 " style="fill:white; stroke-width:1; stroke:black; " description="&lt;b&gt;ctg1_1360&lt;/b&gt;&lt;br&gt;ctg1 1360&lt;br&gt;Location: 1444169 - 1444625" locus_tag="ctg1_1360" class="clusterblast-orf" id="knownclusterblast-9_q1_0_all"  />
<polygon points="30,40 33,40 38,35 33,30 30,30 30,40 " style="fill:white; stroke-width:1; stroke:black; " description="&lt;b&gt;ctg1_1361&lt;/b&gt;&lt;br&gt;ctg1 1361&lt;br&gt;Location: 1444712 - 1445207" locus_tag="ctg1_1361" class="clusterblast-orf" id="knownclusterblast-9_q2_0_all"  />
<polygon points="38,40 42,40 47,35 42,30 38,30 38,40 " style="fill:white; stroke-width:1; stroke:black; " description="&lt;b&gt;ctg1_1362&lt;/b&gt;&lt;br&gt;ctg1 1362&lt;br&gt;Location: 1445218 - 1445878" locus_tag="ctg1_1362" class="clusterblast-orf" id="knownclusterblast-9_q3_0_all"  />
<polygon points="49,40 70,40 75,35 70,30 49,30 49,40 " style="fill:white; stroke-width:1; stroke:black; " description="&lt;b&gt;ctg1_1363&lt;/b&gt;&lt;br&gt;ctg1 1363&lt;br&gt;Location: 1445954 - 1447787" locus_tag="ctg1_1363" class="clusterblast-orf" id="knownclusterblast-9_q4_0_all"  />
<polygon points="76,35 81,30 85,30 85,40 81,40 76,35 " style="fill:white; stroke-width:1; stroke:black; " description="&lt;b&gt;ctg1_1364&lt;/b&gt;&lt;br&gt;ctg1 1364&lt;br&gt;Location: 1447832 - 1448432" locus_tag="ctg1_1364" class="clusterblast-orf" id="knownclusterblast-9_q5_0_all"  />
<polygon points="86,35 91,30 104,30 104,40 91,40 86,35 " style="fill:white; stroke-width:1; stroke:black; " description="&lt;b&gt;ctg1_1365&lt;/b&gt;&lt;br&gt;ctg1 1365&lt;br&gt;Location: 1448513 - 1449731" locus_tag="ctg1_1365" class="clusterblast-orf" id="knownclusterblast-9_q6_0_all"  />
<polygon points="117,40 126,40 131,35 126,30 117,30 117,40 " style="fill:white; stroke-width:1; stroke:black; " description="&lt;b&gt;ctg1_1366&lt;/b&gt;&lt;br&gt;ctg1 1366&lt;br&gt;Location: 1450607 - 1451534" locus_tag="ctg1_1366" class="clusterblast-orf" id="knownclusterblast-9_q7_0_all"  />
<polygon points="141,40 142,40 147,35 142,30 141,30 141,40 " style="fill:#d81515; stroke-width:1; stroke:black; " description="&lt;b&gt;ctg1_1367&lt;/b&gt;&lt;br&gt;ctg1 1367&lt;br&gt;Location: 1452269 - 1452629" locus_tag="ctg1_1367" class="clusterblast-orf" id="knownclusterblast-9_q8_0_all"  />
<polygon points="147,40 152,40 157,35 152,30 147,30 147,40 " style="fill:#77d815; stroke-width:1; stroke:black; " description="&lt;b&gt;ctg1_1368&lt;/b&gt;&lt;br&gt;ctg1 1368&lt;br&gt;Location: 1452644 - 1453319" locus_tag="ctg1_1368" class="clusterblast-orf" id="knownclusterblast-9_q9_0_all"  />
<polygon points="158,40 180,40 185,35 180,30 158,30 158,40 " style="fill:#15d8d8; stroke-width:1; stroke:black; " description="&lt;b&gt;ctg1_1369&lt;/b&gt;&lt;br&gt;ctg1 1369&lt;br&gt;Location: 1453406 - 1455215" locus_tag="ctg1_1369" class="clusterblast-orf" id="knownclusterblast-9_q10_0_all"  />
<polygon points="185,40 187,40 192,35 187,30 185,30 185,40 " style="fill:#7715d8; stroke-width:1; stroke:black; " description="&lt;b&gt;ctg1_1370&lt;/b&gt;&lt;br&gt;ctg1 1370&lt;br&gt;Location: 1455217 - 1455718" locus_tag="ctg1_1370" class="clusterblast-orf" id="knownclusterblast-9_q11_0_all"  />
<polygon points="192,40 207,40 212,35 207,30 192,30 192,40 " style="fill:#d85e15; stroke-width:1; stroke:black; " description="&lt;b&gt;ctg1_1371&lt;/b&gt;&lt;br&gt;ctg1 1371&lt;br&gt;Location: 1455714 - 1457052" locus_tag="ctg1_1371" class="clusterblast-orf" id="knownclusterblast-9_q12_0_all"  />
<polygon points="212,40 247,40 252,35 247,30 212,30 212,40 " style="fill:#2ed815; stroke-width:1; stroke:black; " description="&lt;b&gt;ctg1_1372&lt;/b&gt;&lt;br&gt;ctg1 1372&lt;br&gt;Location: 1457083 - 1459810" locus_tag="ctg1_1372" class="clusterblast-orf" id="knownclusterblast-9_q13_0_all"  />
<polygon points="252,40 261,40 266,35 261,30 252,30 252,40 " style="fill:#158fd8; stroke-width:1; stroke:black; " description="&lt;b&gt;ctg1_1373&lt;/b&gt;&lt;br&gt;ctg1 1373&lt;br&gt;Location: 1459806 - 1460784" locus_tag="ctg1_1373" class="clusterblast-orf" id="knownclusterblast-9_q14_0_all"  />
<polygon points="267,40 270,40 275,35 270,30 267,30 267,40 " style="fill:#c015d8; stroke-width:1; stroke:black; " description="&lt;b&gt;ctg1_1374&lt;/b&gt;&lt;br&gt;ctg1 1374&lt;br&gt;Location: 1460798 - 1461341" locus_tag="ctg1_1374" class="clusterblast-orf" id="knownclusterblast-9_q15_0_all"  />
<polygon points="275,40 278,40 283,35 278,30 275,30 275,40 " style="fill:#d8a715; stroke-width:1; stroke:black; " description="&lt;b&gt;ctg1_1375&lt;/b&gt;&lt;br&gt;ctg1 1375&lt;br&gt;Location: 1461351 - 1461906" locus_tag="ctg1_1375" class="clusterblast-orf" id="knownclusterblast-9_q16_0_all"  />
<polygon points="283,40 287,35 283,30 283,40 " style="fill:#15d846; stroke-width:1; stroke:black; " description="&lt;b&gt;ctg1_1376&lt;/b&gt;&lt;br&gt;ctg1 1376&lt;br&gt;Location: 1461902 - 1462205" locus_tag="ctg1_1376" class="clusterblast-orf" id="knownclusterblast-9_q17_0_all"  />
<polygon points="287,40 309,40 314,35 309,30 287,30 287,40 " style="fill:#1546d8; stroke-width:1; stroke:black; " description="&lt;b&gt;ctg1_1377&lt;/b&gt;&lt;br&gt;ctg1 1377&lt;br&gt;Location: 1462201 - 1464043" locus_tag="ctg1_1377" class="clusterblast-orf" id="knownclusterblast-9_q18_0_all"  />
<polygon points="319,40 336,40 341,35 336,30 319,30 319,40 " style="fill:#d815a7; stroke-width:1; stroke:black; " description="&lt;b&gt;ctg1_1378&lt;/b&gt;&lt;br&gt;ctg1 1378&lt;br&gt;Location: 1464344 - 1465874" locus_tag="ctg1_1378" class="clusterblast-orf" id="knownclusterblast-9_q19_0_all"  />
<polygon points="341,40 358,40 363,35 358,30 341,30 341,40 " style="fill:#c0d815; stroke-width:1; stroke:black; " description="&lt;b&gt;ctg1_1379&lt;/b&gt;&lt;br&gt;ctg1 1379&lt;br&gt;Location: 1465880 - 1467338" locus_tag="ctg1_1379" class="clusterblast-orf" id="knownclusterblast-9_q20_0_all"  />
<polygon points="364,35 369,30 377,30 377,40 369,40 364,35 " style="fill:white; stroke-width:1; stroke:black; " description="&lt;b&gt;ctg1_1380&lt;/b&gt;&lt;br&gt;ctg1 1380&lt;br&gt;Location: 1467391 - 1468312" locus_tag="ctg1_1380" class="clusterblast-orf" id="knownclusterblast-9_q21_0_all"  />
<polygon points="378,40 380,40 385,35 380,30 378,30 378,40 " style="fill:white; stroke-width:1; stroke:black; " description="&lt;b&gt;ctg1_1381&lt;/b&gt;&lt;br&gt;ctg1 1381&lt;br&gt;Location: 1468372 - 1468831" locus_tag="ctg1_1381" class="clusterblast-orf" id="knownclusterblast-9_q22_0_all"  />
<polygon points="387,40 401,40 406,35 401,30 387,30 387,40 " style="fill:white; stroke-width:1; stroke:black; " description="&lt;b&gt;ctg1_1382&lt;/b&gt;&lt;br&gt;ctg1 1382&lt;br&gt;Location: 1468966 - 1470256" locus_tag="ctg1_1382" class="clusterblast-orf" id="knownclusterblast-9_q23_0_all"  />
<polygon points="407,40 426,40 431,35 426,30 407,30 407,40 " style="fill:white; stroke-width:1; stroke:black; " description="&lt;b&gt;ctg1_1383&lt;/b&gt;&lt;br&gt;ctg1 1383&lt;br&gt;Location: 1470338 - 1472009" locus_tag="ctg1_1383" class="clusterblast-orf" id="knownclusterblast-9_q24_0_all"  />
<polygon points="431,40 438,40 443,35 438,30 431,30 431,40 " style="fill:white; stroke-width:1; stroke:black; " description="&lt;b&gt;ctg1_1384&lt;/b&gt;&lt;br&gt;ctg1 1384&lt;br&gt;Location: 1472005 - 1472764" locus_tag="ctg1_1384" class="clusterblast-orf" id="knownclusterblast-9_q25_0_all"  />
<polygon points="443,40 450,40 455,35 450,30 443,30 443,40 " style="fill:white; stroke-width:1; stroke:black; " description="&lt;b&gt;ctg1_1385&lt;/b&gt;&lt;br&gt;ctg1 1385&lt;br&gt;Location: 1472778 - 1473636" locus_tag="ctg1_1385" class="clusterblast-orf" id="knownclusterblast-9_q26_0_all"  />
<polygon points="455,40 465,40 470,35 465,30 455,30 455,40 " style="fill:white; stroke-width:1; stroke:black; " description="&lt;b&gt;ctg1_1386&lt;/b&gt;&lt;br&gt;ctg1 1386&lt;br&gt;Location: 1473635 - 1474601" locus_tag="ctg1_1386" class="clusterblast-orf" id="knownclusterblast-9_q27_0_all"  />
<polygon points="470,40 485,40 490,35 485,30 470,30 470,40 " style="fill:white; stroke-width:1; stroke:black; " description="&lt;b&gt;ctg1_1387&lt;/b&gt;&lt;br&gt;ctg1 1387&lt;br&gt;Location: 1474600 - 1475974" locus_tag="ctg1_1387" class="clusterblast-orf" id="knownclusterblast-9_q28_0_all"  />
<polygon points="491,35 496,30 497,30 497,40 496,40 491,35 " style="fill:white; stroke-width:1; stroke:black; " description="&lt;b&gt;ctg1_1388&lt;/b&gt;&lt;br&gt;ctg1 1388&lt;br&gt;Location: 1476029 - 1476455" locus_tag="ctg1_1388" class="clusterblast-orf" id="knownclusterblast-9_q29_0_all"  />
<polygon points="499,40 507,40 512,35 507,30 499,30 499,40 " style="fill:white; stroke-width:1; stroke:black; " description="&lt;b&gt;ctg1_1389&lt;/b&gt;&lt;br&gt;ctg1 1389&lt;br&gt;Location: 1476588 - 1477518" locus_tag="ctg1_1389" class="clusterblast-orf" id="knownclusterblast-9_q30_0_all"  />
<polygon points="516,40 519,40 524,35 519,30 516,30 516,40 " style="fill:white; stroke-width:1; stroke:black; " description="&lt;b&gt;ctg1_1390&lt;/b&gt;&lt;br&gt;ctg1 1390&lt;br&gt;Location: 1477792 - 1478335" locus_tag="ctg1_1390" class="clusterblast-orf" id="knownclusterblast-9_q31_0_all"  />
<polygon points="526,40 539,40 544,35 539,30 526,30 526,40 " style="fill:white; stroke-width:1; stroke:black; " description="&lt;b&gt;ctg1_1391&lt;/b&gt;&lt;br&gt;ctg1 1391&lt;br&gt;Location: 1478437 - 1479634" locus_tag="ctg1_1391" class="clusterblast-orf" id="knownclusterblast-9_q32_0_all"  />
<polygon points="547,40 553,40 558,35 553,30 547,30 547,40 " style="fill:white; stroke-width:1; stroke:black; " description="&lt;b&gt;ctg1_1392&lt;/b&gt;&lt;br&gt;ctg1 1392&lt;br&gt;Location: 1479839 - 1480625" locus_tag="ctg1_1392" class="clusterblast-orf" id="knownclusterblast-9_q33_0_all"  />
<polygon points="558,40 571,40 576,35 571,30 558,30 558,40 " style="fill:white; stroke-width:1; stroke:black; " description="&lt;b&gt;ctg1_1393&lt;/b&gt;&lt;br&gt;ctg1 1393&lt;br&gt;Location: 1480635 - 1481841" locus_tag="ctg1_1393" class="clusterblast-orf" id="knownclusterblast-9_q34_0_all"  />
<polygon points="577,40 591,40 596,35 591,30 577,30 577,40 " style="fill:white; stroke-width:1; stroke:black; " description="&lt;b&gt;ctg1_1394&lt;/b&gt;&lt;br&gt;ctg1 1394&lt;br&gt;Location: 1481880 - 1483173" locus_tag="ctg1_1394" class="clusterblast-orf" id="knownclusterblast-9_q35_0_all"  />
<polygon points="596,40 603,40 608,35 603,30 596,30 596,40 " style="fill:white; stroke-width:1; stroke:black; " description="&lt;b&gt;ctg1_1395&lt;/b&gt;&lt;br&gt;ctg1 1395&lt;br&gt;Location: 1483187 - 1483991" locus_tag="ctg1_1395" class="clusterblast-orf" id="knownclusterblast-9_q36_0_all"  />
<polygon points="608,35 613,30 625,30 625,40 613,40 608,35 " style="fill:#15d88f; stroke-width:1; stroke:black; " description="&lt;b&gt;ctg1_1396&lt;/b&gt;&lt;br&gt;ctg1 1396&lt;br&gt;Location: 1484019 - 1485198" locus_tag="ctg1_1396" class="clusterblast-orf" id="knownclusterblast-9_q37_0_all"  />
<polygon points="625,35 630,30 644,30 644,40 630,40 625,35 " style="fill:#2e15d8; stroke-width:1; stroke:black; " description="&lt;b&gt;ctg1_1397&lt;/b&gt;&lt;br&gt;ctg1 1397&lt;br&gt;Location: 1485194 - 1486454" locus_tag="ctg1_1397" class="clusterblast-orf" id="knownclusterblast-9_q38_0_all"  />
<polygon points="644,35 649,30 667,30 667,40 649,40 644,35 " style="fill:#d8155e; stroke-width:1; stroke:black; " description="&lt;b&gt;ctg1_1398&lt;/b&gt;&lt;br&gt;ctg1 1398&lt;br&gt;Location: 1486443 - 1488066" locus_tag="ctg1_1398" class="clusterblast-orf" id="knownclusterblast-9_q39_0_all"  />
<polygon points="671,40 686,40 691,35 686,30 671,30 671,40 " style="fill:white; stroke-width:1; stroke:black; " description="&lt;b&gt;ctg1_1399&lt;/b&gt;&lt;br&gt;ctg1 1399&lt;br&gt;Location: 1488337 - 1489684" locus_tag="ctg1_1399" class="clusterblast-orf" id="knownclusterblast-9_q40_0_all"  />
<polygon points="691,40 702,40 707,35 702,30 691,30 691,40 " style="fill:white; stroke-width:1; stroke:black; " description="&lt;b&gt;ctg1_1400&lt;/b&gt;&lt;br&gt;ctg1 1400&lt;br&gt;Location: 1489693 - 1490761" locus_tag="ctg1_1400" class="clusterblast-orf" id="knownclusterblast-9_q41_0_all"  />
<polygon points="708,35 712,30 712,40 708,35 " style="fill:white; stroke-width:1; stroke:black; " description="&lt;b&gt;ctg1_1401&lt;/b&gt;&lt;br&gt;ctg1 1401&lt;br&gt;Location: 1490854 - 1491109" locus_tag="ctg1_1401" class="clusterblast-orf" id="knownclusterblast-9_q42_0_all"  />
<polygon points="712,35 717,30 729,30 729,40 717,40 712,35 " style="fill:white; stroke-width:1; stroke:black; " description="&lt;b&gt;ctg1_1402&lt;/b&gt;&lt;br&gt;ctg1 1402&lt;br&gt;Location: 1491108 - 1492239" locus_tag="ctg1_1402" class="clusterblast-orf" id="knownclusterblast-9_q43_0_all"  />
<polygon points="730,35 735,30 764,30 764,40 735,40 730,35 " style="fill:white; stroke-width:1; stroke:black; " description="&lt;b&gt;ctg1_1403&lt;/b&gt;&lt;br&gt;ctg1 1403&lt;br&gt;Location: 1492340 - 1494626" locus_tag="ctg1_1403" class="clusterblast-orf" id="knownclusterblast-9_q44_0_all"  />
<polygon points="769,35 774,30 780,30 780,40 774,40 769,35 " style="fill:white; stroke-width:1; stroke:black; " description="&lt;b&gt;ctg1_1404&lt;/b&gt;&lt;br&gt;ctg1 1404&lt;br&gt;Location: 1494970 - 1495699" locus_tag="ctg1_1404" class="clusterblast-orf" id="knownclusterblast-9_q45_0_all"  />
</g>
<g label="MGC00000048" description="MGC00000048_c1: NADH dehydrogenase I E. coli (100% of genes show similarity), NADHD" class="clusterblast-cluster"  >
<text x="5" y="70" class="clusterblast-acc"  >
MGC00000048_c1: NADH dehydrogenase I E. coli (100% of genes show similarity), NADHD</text>
<line x1="10" y1="85" x2="778.0" y2="85" style="stroke-width:1; stroke:grey; "  />
</g>
<g id="a9_000"  >
<polygon points="279,90 281,90 286,85 281,80 279,80 279,90 " style="fill:#d81515; stroke-width:1; stroke:black; " description="&lt;b&gt;b2288&lt;/b&gt;&lt;br&gt;NADH:quinone oxidoreductase subunit A&lt;br&gt;Location: 25025 - 24581&lt;br&gt;&lt;br&gt;&lt;b&gt;BlastP hit with ctg1_1367&lt;/b&gt;&lt;br&gt;Percentage identity: 91&lt;br&gt;Percentage coverage: 97&lt;br&gt;BLAST bit score: 207&lt;br&gt;E-value: 2.54e-72" locus_tag="b2288" class="clusterblast-orf" id="knownclusterblast-9_all_9_1_0"  />
</g>
<g id="a9_001"  >
<polygon points="286,90 291,90 296,85 291,80 286,80 286,90 " style="fill:#77d815; stroke-width:1; stroke:black; " description="&lt;b&gt;b2287&lt;/b&gt;&lt;br&gt;NADH:quinone oxidoreductase subunit B&lt;br&gt;Location: 24566 - 23903&lt;br&gt;&lt;br&gt;&lt;b&gt;BlastP hit with ctg1_1368&lt;/b&gt;&lt;br&gt;Percentage identity: 97&lt;br&gt;Percentage coverage: 100&lt;br&gt;BLAST bit score: 440&lt;br&gt;E-value: 9.58e-162" locus_tag="b2287" class="clusterblast-orf" id="knownclusterblast-9_all_9_1_1"  />
</g>
<g id="a9_002"  >
<polygon points="297,90 318,90 323,85 318,80 297,80 297,90 " style="fill:#15d8d8; stroke-width:1; stroke:black; " description="&lt;b&gt;b2286&lt;/b&gt;&lt;br&gt;NADH:quinone oxidoreductase subunit CD&lt;br&gt;Location: 23798 - 22007&lt;br&gt;&lt;br&gt;&lt;b&gt;BlastP hit with ctg1_1369&lt;/b&gt;&lt;br&gt;Percentage identity: 95&lt;br&gt;Percentage coverage: 99&lt;br&gt;BLAST bit score: 1174&lt;br&gt;E-value: 0.0" locus_tag="b2286" class="clusterblast-orf" id="knownclusterblast-9_all_9_1_2"  />
</g>
<g id="a9_003"  >
<polygon points="323,90 326,90 331,85 326,80 323,80 323,90 " style="fill:#7715d8; stroke-width:1; stroke:black; " description="&lt;b&gt;b2285&lt;/b&gt;&lt;br&gt;NADH:quinone oxidoreductase subunit E&lt;br&gt;Location: 22005 - 21504&lt;br&gt;&lt;br&gt;&lt;b&gt;BlastP hit with ctg1_1370&lt;/b&gt;&lt;br&gt;Percentage identity: 95&lt;br&gt;Percentage coverage: 100&lt;br&gt;BLAST bit score: 328&lt;br&gt;E-value: 3.12e-119" locus_tag="b2285" class="clusterblast-orf" id="knownclusterblast-9_all_9_1_3"  />
</g>
<g id="a9_004"  >
<polygon points="331,90 345,90 350,85 345,80 331,80 331,90 " style="fill:#d85e15; stroke-width:1; stroke:black; " description="&lt;b&gt;b2284&lt;/b&gt;&lt;br&gt;NADH:quinone oxidoreductase subunit F&lt;br&gt;Location: 21508 - 20170&lt;br&gt;&lt;br&gt;&lt;b&gt;BlastP hit with ctg1_1371&lt;/b&gt;&lt;br&gt;Percentage identity: 96&lt;br&gt;Percentage coverage: 100&lt;br&gt;BLAST bit score: 890&lt;br&gt;E-value: 0.0" locus_tag="b2284" class="clusterblast-orf" id="knownclusterblast-9_all_9_1_4"  />
</g>
<g id="a9_005"  >
<polygon points="351,90 386,90 391,85 386,80 351,80 351,90 " style="fill:#2ed815; stroke-width:1; stroke:black; " description="&lt;b&gt;b2283&lt;/b&gt;&lt;br&gt;NADH:quinone oxidoreductase subunit G&lt;br&gt;Location: 20118 - 17391&lt;br&gt;&lt;br&gt;&lt;b&gt;BlastP hit with ctg1_1372&lt;/b&gt;&lt;br&gt;Percentage identity: 91&lt;br&gt;Percentage coverage: 100&lt;br&gt;BLAST bit score: 1689&lt;br&gt;E-value: 0.0" locus_tag="b2283" class="clusterblast-orf" id="knownclusterblast-9_all_9_1_5"  />
</g>
<g id="a9_006"  >
<polygon points="391,90 401,90 406,85 401,80 391,80 391,90 " style="fill:#158fd8; stroke-width:1; stroke:black; " description="&lt;b&gt;b2282&lt;/b&gt;&lt;br&gt;NADH:quinone oxidoreductase subunit H&lt;br&gt;Location: 17395 - 16417&lt;br&gt;&lt;br&gt;&lt;b&gt;BlastP hit with ctg1_1373&lt;/b&gt;&lt;br&gt;Percentage identity: 95&lt;br&gt;Percentage coverage: 100&lt;br&gt;BLAST bit score: 618&lt;br&gt;E-value: 1.44e-228" locus_tag="b2282" class="clusterblast-orf" id="knownclusterblast-9_all_9_1_6"  />
</g>
<g id="a9_007"  >
<polygon points="406,90 409,90 414,85 409,80 406,80 406,90 " style="fill:#c015d8; stroke-width:1; stroke:black; " description="&lt;b&gt;b2281&lt;/b&gt;&lt;br&gt;NADH:quinone oxidoreductase subunit I&lt;br&gt;Location: 16403 - 15860&lt;br&gt;&lt;br&gt;&lt;b&gt;BlastP hit with ctg1_1374&lt;/b&gt;&lt;br&gt;Percentage identity: 99&lt;br&gt;Percentage coverage: 100&lt;br&gt;BLAST bit score: 338&lt;br&gt;E-value: 6.88e-123" locus_tag="b2281" class="clusterblast-orf" id="knownclusterblast-9_all_9_1_7"  />
</g>
<g id="a9_008"  >
<polygon points="414,90 417,90 422,85 417,80 414,80 414,90 " style="fill:#d8a715; stroke-width:1; stroke:black; " description="&lt;b&gt;b2280&lt;/b&gt;&lt;br&gt;NADH:quinone oxidoreductase subunit J&lt;br&gt;Location: 15849 - 15294&lt;br&gt;&lt;br&gt;&lt;b&gt;BlastP hit with ctg1_1375&lt;/b&gt;&lt;br&gt;Percentage identity: 90&lt;br&gt;Percentage coverage: 100&lt;br&gt;BLAST bit score: 311&lt;br&gt;E-value: 8.78e-112" locus_tag="b2280" class="clusterblast-orf" id="knownclusterblast-9_all_9_1_8"  />
</g>
<g id="a9_009"  >
<polygon points="422,90 422,90 427,85 422,80 422,80 422,90 " style="fill:#15d846; stroke-width:1; stroke:black; " description="&lt;b&gt;b2279&lt;/b&gt;&lt;br&gt;NADH:quinone oxidoreductase subunit K&lt;br&gt;Location: 15298 - 14995&lt;br&gt;&lt;br&gt;&lt;b&gt;BlastP hit with ctg1_1376&lt;/b&gt;&lt;br&gt;Percentage identity: 94&lt;br&gt;Percentage coverage: 100&lt;br&gt;BLAST bit score: 168&lt;br&gt;E-value: 4.55e-58" locus_tag="b2279" class="clusterblast-orf" id="knownclusterblast-9_all_9_1_9"  />
</g>
<g id="a9_0010"  >
<polygon points="426,90 449,90 454,85 449,80 426,80 426,90 " style="fill:#1546d8; stroke-width:1; stroke:black; " description="&lt;b&gt;b2278&lt;/b&gt;&lt;br&gt;NADH:quinone oxidoreductase subunit L&lt;br&gt;Location: 14999 - 13157&lt;br&gt;&lt;br&gt;&lt;b&gt;BlastP hit with ctg1_1377&lt;/b&gt;&lt;br&gt;Percentage identity: 93&lt;br&gt;Percentage coverage: 100&lt;br&gt;BLAST bit score: 1122&lt;br&gt;E-value: 0.0" locus_tag="b2278" class="clusterblast-orf" id="knownclusterblast-9_all_9_1_10"  />
</g>
<g id="a9_0011"  >
<polygon points="456,90 473,90 478,85 473,80 456,80 456,90 " style="fill:#d815a7; stroke-width:1; stroke:black; " description="&lt;b&gt;b2277&lt;/b&gt;&lt;br&gt;NADH:quinone oxidoreductase subunit M&lt;br&gt;Location: 12994 - 11464&lt;br&gt;&lt;br&gt;&lt;b&gt;BlastP hit with ctg1_1378&lt;/b&gt;&lt;br&gt;Percentage identity: 94&lt;br&gt;Percentage coverage: 100&lt;br&gt;BLAST bit score: 954&lt;br&gt;E-value: 0.0" locus_tag="b2277" class="clusterblast-orf" id="knownclusterblast-9_all_9_1_11"  />
</g>
<g id="a9_0012"  >
<polygon points="478,90 495,90 500,85 495,80 478,80 478,90 " style="fill:#c0d815; stroke-width:1; stroke:black; " description="&lt;b&gt;b2276&lt;/b&gt;&lt;br&gt;NADH:quinone oxidoreductase subunit N&lt;br&gt;Location: 11458 - 10000&lt;br&gt;&lt;br&gt;&lt;b&gt;BlastP hit with ctg1_1379&lt;/b&gt;&lt;br&gt;Percentage identity: 93&lt;br&gt;Percentage coverage: 100&lt;br&gt;BLAST bit score: 846&lt;br&gt;E-value: 2.2e-313" locus_tag="b2276" class="clusterblast-orf" id="knownclusterblast-9_all_9_1_12"  />
</g>
<g label="MGC00000056" description="MGC00000056_c1: NADH dehydrogenase I Bacteroides sp. (33% of genes show similarity), NADHD" class="clusterblast-cluster"  >
<text x="5" y="120" class="clusterblast-acc"  >
MGC00000056_c1: NADH dehydrogenase I Bacteroides sp. (33% of genes show similarity), NADHD</text>
<line x1="10" y1="135" x2="778.0" y2="135" style="stroke-width:1; stroke:grey; "  />
</g>
<g id="a9_000"  >
<polygon points="193,135 198,130 202,130 202,140 198,140 193,135 " style="fill:white; stroke-width:1; stroke:black; " description="&lt;b&gt;BSHG_0769&lt;/b&gt;&lt;br&gt;HAD hydrolase, family IA&lt;br&gt;Location: 28407 - 27759" locus_tag="BSHG_0769" class="clusterblast-orf" id="knownclusterblast-9_all_9_2_0"  />
</g>
<g id="a9_001"  >
<polygon points="205,140 209,135 205,130 205,140 " style="fill:white; stroke-width:1; stroke:black; " description="&lt;b&gt;BSHG_0770&lt;/b&gt;&lt;br&gt;hypothetical protein&lt;br&gt;Location: 27584 - 27257" locus_tag="BSHG_0770" class="clusterblast-orf" id="knownclusterblast-9_all_9_2_1"  />
</g>
<g id="a9_002"  >
<polygon points="209,140 224,140 229,135 224,130 209,130 209,140 " style="fill:white; stroke-width:1; stroke:black; " description="&lt;b&gt;BSHG_0771&lt;/b&gt;&lt;br&gt;hypothetical protein&lt;br&gt;Location: 27261 - 25917" locus_tag="BSHG_0771" class="clusterblast-orf" id="knownclusterblast-9_all_9_2_2"  />
</g>
<g id="a9_003"  >
<polygon points="236,140 260,140 265,135 260,130 236,130 236,140 " style="fill:white; stroke-width:1; stroke:black; " description="&lt;b&gt;BSHG_0773&lt;/b&gt;&lt;br&gt;1-deoxy-D-xylulose-5-phosphate synthase&lt;br&gt;Location: 25426 - 23479" locus_tag="BSHG_0773" class="clusterblast-orf" id="knownclusterblast-9_all_9_2_3"  />
</g>
<g id="a9_004"  >
<polygon points="266,140 280,140 285,135 280,130 266,130 266,140 " style="fill:white; stroke-width:1; stroke:black; " description="&lt;b&gt;BSHG_0774&lt;/b&gt;&lt;br&gt;hypothetical protein&lt;br&gt;Location: 23441 - 22100" locus_tag="BSHG_0774" class="clusterblast-orf" id="knownclusterblast-9_all_9_2_4"  />
</g>
<g id="a9_005"  >
<polygon points="285,140 302,140 307,135 302,130 285,130 285,140 " style="fill:white; stroke-width:1; stroke:black; " description="&lt;b&gt;BSHG_0775&lt;/b&gt;&lt;br&gt;TrkH family potassium uptake protein&lt;br&gt;Location: 22096 - 20644" locus_tag="BSHG_0775" class="clusterblast-orf" id="knownclusterblast-9_all_9_2_5"  />
</g>
<g id="a9_006"  >
<polygon points="309,140 310,140 315,135 310,130 309,130 309,140 " style="fill:white; stroke-width:1; stroke:black; " description="&lt;b&gt;BSHG_0776&lt;/b&gt;&lt;br&gt;hypothetical protein&lt;br&gt;Location: 20458 - 20080" locus_tag="BSHG_0776" class="clusterblast-orf" id="knownclusterblast-9_all_9_2_6"  />
</g>
<g id="a9_007"  >
<polygon points="317,140 317,140 322,135 317,130 317,130 317,140 " style="fill:#d81515; stroke-width:1; stroke:black; " description="&lt;b&gt;BSHG_0777&lt;/b&gt;&lt;br&gt;NADH-quinone oxidoreductase subunit A&lt;br&gt;Location: 19937 - 19586&lt;br&gt;&lt;br&gt;&lt;b&gt;BlastP hit with ctg1_1367&lt;/b&gt;&lt;br&gt;Percentage identity: 34&lt;br&gt;Percentage coverage: 72&lt;br&gt;BLAST bit score: 59&lt;br&gt;E-value: 1.79e-14" locus_tag="BSHG_0777" class="clusterblast-orf" id="knownclusterblast-9_all_9_2_7"  />
</g>
<g id="a9_008"  >
<polygon points="322,140 326,140 331,135 326,130 322,130 322,140 " style="fill:#77d815; stroke-width:1; stroke:black; " description="&lt;b&gt;BSHG_0778&lt;/b&gt;&lt;br&gt;NADH-quinone oxidoreductase subunit B&lt;br&gt;Location: 19587 - 19005&lt;br&gt;&lt;br&gt;&lt;b&gt;BlastP hit with ctg1_1368&lt;/b&gt;&lt;br&gt;Percentage identity: 55&lt;br&gt;Percentage coverage: 67&lt;br&gt;BLAST bit score: 174&lt;br&gt;E-value: 6.76e-57" locus_tag="BSHG_0778" class="clusterblast-orf" id="knownclusterblast-9_all_9_2_8"  />
</g>
<g id="a9_009"  >
<polygon points="331,140 349,140 354,135 349,130 331,130 331,140 " style="fill:#15d8d8; stroke-width:1; stroke:black; " description="&lt;b&gt;BSHG_0779&lt;/b&gt;&lt;br&gt;NADH-quinone oxidoreductase subunit C/D&lt;br&gt;Location: 18984 - 17391&lt;br&gt;&lt;br&gt;&lt;b&gt;BlastP hit with ctg1_1369&lt;/b&gt;&lt;br&gt;Percentage identity: 31&lt;br&gt;Percentage coverage: 90&lt;br&gt;BLAST bit score: 258&lt;br&gt;E-value: 1.26e-80" locus_tag="BSHG_0779" class="clusterblast-orf" id="knownclusterblast-9_all_9_2_9"  />
</g>
<g id="a9_0010"  >
<polygon points="356,140 366,140 371,135 366,130 356,130 356,140 " style="fill:#158fd8; stroke-width:1; stroke:black; " description="&lt;b&gt;BSHG_0780&lt;/b&gt;&lt;br&gt;NADH-quinone oxidoreductase subunit H&lt;br&gt;Location: 17312 - 16235&lt;br&gt;&lt;br&gt;&lt;b&gt;BlastP hit with ctg1_1373&lt;/b&gt;&lt;br&gt;Percentage identity: 41&lt;br&gt;Percentage coverage: 94&lt;br&gt;BLAST bit score: 243&lt;br&gt;E-value: 3.3e-80" locus_tag="BSHG_0780" class="clusterblast-orf" id="knownclusterblast-9_all_9_2_10"  />
</g>
<g id="a9_0011"  >
<polygon points="372,140 374,140 379,135 374,130 372,130 372,140 " style="fill:white; stroke-width:1; stroke:black; " description="&lt;b&gt;BSHG_0781&lt;/b&gt;&lt;br&gt;NADH-quinone oxidoreductase, chain I&lt;br&gt;Location: 16219 - 15739" locus_tag="BSHG_0781" class="clusterblast-orf" id="knownclusterblast-9_all_9_2_11"  />
</g>
<g id="a9_0012"  >
<polygon points="379,140 381,140 386,135 381,130 379,130 379,140 " style="fill:#d8a715; stroke-width:1; stroke:black; " description="&lt;b&gt;BSHG_0782&lt;/b&gt;&lt;br&gt;hypothetical protein&lt;br&gt;Location: 15733 - 15220&lt;br&gt;&lt;br&gt;&lt;b&gt;BlastP hit with ctg1_1375&lt;/b&gt;&lt;br&gt;Percentage identity: 31&lt;br&gt;Percentage coverage: 88&lt;br&gt;BLAST bit score: 57&lt;br&gt;E-value: 1.92e-12" locus_tag="BSHG_0782" class="clusterblast-orf" id="knownclusterblast-9_all_9_2_12"  />
</g>
<g id="a9_0013"  >
<polygon points="386,140 386,140 391,135 386,130 386,130 386,140 " style="fill:white; stroke-width:1; stroke:black; " description="&lt;b&gt;BSHG_0783&lt;/b&gt;&lt;br&gt;hypothetical protein&lt;br&gt;Location: 15214 - 14902" locus_tag="BSHG_0783" class="clusterblast-orf" id="knownclusterblast-9_all_9_2_13"  />
</g>
<g id="a9_0014"  >
<polygon points="392,140 415,140 420,135 415,130 392,130 392,140 " style="fill:#1546d8; stroke-width:1; stroke:black; " description="&lt;b&gt;BSHG_0784&lt;/b&gt;&lt;br&gt;proton-translocating NADH-quinone oxidoreductase, chain L&lt;br&gt;Location: 14866 - 12955&lt;br&gt;&lt;br&gt;&lt;b&gt;BlastP hit with ctg1_1377&lt;/b&gt;&lt;br&gt;Percentage identity: 39&lt;br&gt;Percentage coverage: 92&lt;br&gt;BLAST bit score: 312&lt;br&gt;E-value: 5.01e-100" locus_tag="BSHG_0784" class="clusterblast-orf" id="knownclusterblast-9_all_9_2_14"  />
</g>
<g id="a9_0015"  >
<polygon points="420,140 437,140 442,135 437,130 420,130 420,140 " style="fill:white; stroke-width:1; stroke:black; " description="&lt;b&gt;BSHG_0785&lt;/b&gt;&lt;br&gt;proton-translocating NADH-quinone oxidoreductase, chain M&lt;br&gt;Location: 12943 - 11458" locus_tag="BSHG_0785" class="clusterblast-orf" id="knownclusterblast-9_all_9_2_15"  />
</g>
<g id="a9_0016"  >
<polygon points="442,140 458,140 463,135 458,130 442,130 442,140 " style="fill:#c0d815; stroke-width:1; stroke:black; " description="&lt;b&gt;BSHG_0786&lt;/b&gt;&lt;br&gt;NADH-quinone oxidoreductase subunit N&lt;br&gt;Location: 11452 - 10000&lt;br&gt;&lt;br&gt;&lt;b&gt;BlastP hit with ctg1_1379&lt;/b&gt;&lt;br&gt;Percentage identity: 33&lt;br&gt;Percentage coverage: 80&lt;br&gt;BLAST bit score: 196&lt;br&gt;E-value: 6.51e-59" locus_tag="BSHG_0786" class="clusterblast-orf" id="knownclusterblast-9_all_9_2_16"  />
</g>
<g id="a9_0017"  >
<polygon points="465,135 470,130 506,130 506,140 470,140 465,135 " style="fill:white; stroke-width:1; stroke:black; " description="&lt;b&gt;BSHG_0787&lt;/b&gt;&lt;br&gt;hypothetical protein&lt;br&gt;Location: 9904 - 7114" locus_tag="BSHG_0787" class="clusterblast-orf" id="knownclusterblast-9_all_9_2_17"  />
</g>
<g id="a9_0018"  >
<polygon points="509,140 544,140 549,135 544,130 509,130 509,140 " style="fill:white; stroke-width:1; stroke:black; " description="&lt;b&gt;BSHG_0789&lt;/b&gt;&lt;br&gt;hypothetical protein&lt;br&gt;Location: 6877 - 4177" locus_tag="BSHG_0789" class="clusterblast-orf" id="knownclusterblast-9_all_9_2_18"  />
</g>
<g id="a9_0019"  >
<polygon points="550,140 563,140 568,135 563,130 550,130 550,140 " style="fill:white; stroke-width:1; stroke:black; " description="&lt;b&gt;BSHG_0790&lt;/b&gt;&lt;br&gt;hypothetical protein&lt;br&gt;Location: 4109 - 2834" locus_tag="BSHG_0790" class="clusterblast-orf" id="knownclusterblast-9_all_9_2_19"  />
</g>
<g id="a9_0020"  >
<polygon points="570,140 581,140 586,135 581,130 570,130 570,140 " style="fill:white; stroke-width:1; stroke:black; " description="&lt;b&gt;BSHG_0791&lt;/b&gt;&lt;br&gt;hypothetical protein&lt;br&gt;Location: 2732 - 1613" locus_tag="BSHG_0791" class="clusterblast-orf" id="knownclusterblast-9_all_9_2_20"  />
</g>
<g label="MGC00000047" description="MGC00000047_c1: GlycerolP to glyceroneP E. coli (100% of genes show similarity), GLYP" class="clusterblast-cluster"  >
<text x="5" y="170" class="clusterblast-acc"  >
MGC00000047_c1: GlycerolP to glyceroneP E. coli (100% of genes show similarity), GLYP</text>
<line x1="10" y1="185" x2="778.0" y2="185" style="stroke-width:1; stroke:grey; "  />
</g>
<g id="a9_000"  >
<polygon points="360,185 365,180 377,180 377,190 365,190 360,185 " style="fill:#15d88f; stroke-width:1; stroke:black; " description="&lt;b&gt;b2243&lt;/b&gt;&lt;br&gt;anaerobic glycerol-3-phosphate dehydrogenase subunit C&lt;br&gt;Location: 14065 - 12874&lt;br&gt;&lt;br&gt;&lt;b&gt;BlastP hit with ctg1_1396&lt;/b&gt;&lt;br&gt;Percentage identity: 79&lt;br&gt;Percentage coverage: 101&lt;br&gt;BLAST bit score: 654&lt;br&gt;E-value: 9.82e-241" locus_tag="b2243" class="clusterblast-orf" id="knownclusterblast-9_all_9_3_0"  />
</g>
<g id="a9_001"  >
<polygon points="377,185 382,180 396,180 396,190 382,190 377,185 " style="fill:#2e15d8; stroke-width:1; stroke:black; " description="&lt;b&gt;b2242&lt;/b&gt;&lt;br&gt;anaerobic glycerol-3-phosphate dehydrogenase subunit B&lt;br&gt;Location: 12878 - 11618&lt;br&gt;&lt;br&gt;&lt;b&gt;BlastP hit with ctg1_1397&lt;/b&gt;&lt;br&gt;Percentage identity: 62&lt;br&gt;Percentage coverage: 100&lt;br&gt;BLAST bit score: 519&lt;br&gt;E-value: 1.61e-186" locus_tag="b2242" class="clusterblast-orf" id="knownclusterblast-9_all_9_3_1"  />
</g>
<g id="a9_002"  >
<polygon points="395,185 400,180 419,180 419,190 400,190 395,185 " style="fill:#d8155e; stroke-width:1; stroke:black; " description="&lt;b&gt;b2241&lt;/b&gt;&lt;br&gt;anaerobic glycerol-3-phosphate dehydrogenase subunit A&lt;br&gt;Location: 11629 - 10000&lt;br&gt;&lt;br&gt;&lt;b&gt;BlastP hit with ctg1_1398&lt;/b&gt;&lt;br&gt;Percentage identity: 80&lt;br&gt;Percentage coverage: 99&lt;br&gt;BLAST bit score: 875&lt;br&gt;E-value: 0.0" locus_tag="b2241" class="clusterblast-orf" id="knownclusterblast-9_all_9_3_2"  />
</g>
<g label="MGC00000036" description="MGC00000036_c1: Ech complex T. phaeum (28% of genes show similarity), ECH" class="clusterblast-cluster"  >
<text x="5" y="220" class="clusterblast-acc"  >
MGC00000036_c1: Ech complex T. phaeum (28% of genes show similarity), ECH</text>
<line x1="10" y1="235" x2="778.0" y2="235" style="stroke-width:1; stroke:grey; "  />
</g>
<g id="a9_000"  >
<polygon points="279,240 303,240 308,235 303,230 279,230 279,240 " style="fill:#1546d8; stroke-width:1; stroke:black; " description="&lt;b&gt;Tph_c21360&lt;/b&gt;&lt;br&gt;putative ech hydrogenase subunit A&lt;br&gt;Location: 15027 - 13041&lt;br&gt;&lt;br&gt;&lt;b&gt;BlastP hit with ctg1_1377&lt;/b&gt;&lt;br&gt;Percentage identity: 35&lt;br&gt;Percentage coverage: 52&lt;br&gt;BLAST bit score: 135&lt;br&gt;E-value: 2.59e-35" locus_tag="Tph_c21360" class="clusterblast-orf" id="knownclusterblast-9_all_9_4_0"  />
</g>
<g id="a9_001"  >
<polygon points="308,240 316,240 321,235 316,230 308,230 308,240 " style="fill:white; stroke-width:1; stroke:black; " description="&lt;b&gt;Tph_c21350&lt;/b&gt;&lt;br&gt;putative ech hydrogenase subunit B&lt;br&gt;Location: 13045 - 12184" locus_tag="Tph_c21350" class="clusterblast-orf" id="knownclusterblast-9_all_9_4_1"  />
</g>
<g id="a9_002"  >
<polygon points="321,240 322,240 327,235 322,230 321,230 321,240 " style="fill:#77d815; stroke-width:1; stroke:black; " description="&lt;b&gt;Tph_c21340&lt;/b&gt;&lt;br&gt;putative ech hydrogenase subunit C&lt;br&gt;Location: 12184 - 11746&lt;br&gt;&lt;br&gt;&lt;b&gt;BlastP hit with ctg1_1368&lt;/b&gt;&lt;br&gt;Percentage identity: 41&lt;br&gt;Percentage coverage: 58&lt;br&gt;BLAST bit score: 101&lt;br&gt;E-value: 4.17e-29" locus_tag="Tph_c21340" class="clusterblast-orf" id="knownclusterblast-9_all_9_4_2"  />
</g>
<g id="a9_003"  >
<polygon points="327,240 328,240 333,235 328,230 327,230 327,240 " style="fill:white; stroke-width:1; stroke:black; " description="&lt;b&gt;Tph_c21330&lt;/b&gt;&lt;br&gt;putative ech hydrogenase subunit D&lt;br&gt;Location: 11750 - 11372" locus_tag="Tph_c21330" class="clusterblast-orf" id="knownclusterblast-9_all_9_4_3"  />
</g>
<g id="a9_004"  >
<polygon points="333,240 344,240 349,235 344,230 333,230 333,240 " style="fill:white; stroke-width:1; stroke:black; " description="&lt;b&gt;Tph_c21320&lt;/b&gt;&lt;br&gt;putative ech hydrogenase subunit E&lt;br&gt;Location: 11372 - 10289" locus_tag="Tph_c21320" class="clusterblast-orf" id="knownclusterblast-9_all_9_4_4"  />
</g>
<g id="a9_005"  >
<polygon points="349,240 349,240 354,235 349,230 349,230 349,240 " style="fill:white; stroke-width:1; stroke:black; " description="&lt;b&gt;Tph_c21310&lt;/b&gt;&lt;br&gt;putative ech hydrogenase subunit F&lt;br&gt;Location: 10260 - 9909" locus_tag="Tph_c21310" class="clusterblast-orf" id="knownclusterblast-9_all_9_4_5"  />
</g>
<g id="a9_006"  >
<polygon points="486,240 495,240 500,235 495,230 486,230 486,240 " style="fill:white; stroke-width:1; stroke:black; " description="&lt;b&gt;Tph_c21210&lt;/b&gt;&lt;br&gt;stage II sporulation protein P&lt;br&gt;Location: 966 - 0" locus_tag="Tph_c21210" class="clusterblast-orf" id="knownclusterblast-9_all_9_4_6"  />
</g>
</svg>
