<svg xmlns="http://www.w3.org/2000/svg" xmlns:xlink="http://www.w3.org/1999/xlink" version="1.1" x="0" y="0" height="100" width="800" viewBox="0 0 800 100" preserveAspectRatio="none"  >
<g label="Query sequence" class="clusterblast-cluster"  >
<text x="5" y="20" class="clusterblast-acc"  >
Query sequence</text>
<line x1="10" y1="35" x2="778.0" y2="35" style="stroke-width:1; stroke:grey; "  />
<polygon points="0,35 5,30 15,30 15,40 5,40 0,35 " style="fill:white; stroke-width:1; stroke:black; " description="&lt;b&gt;ctg1_2286&lt;/b&gt;&lt;br&gt;ctg1 2286&lt;br&gt;Location: 2433564 - 2434032" locus_tag="ctg1_2286" class="clusterblast-orf" id="knownclusterblast-14_q0_0_all"  />
<polygon points="24,40 57,40 62,35 57,30 24,30 24,40 " style="fill:white; stroke-width:1; stroke:black; " description="&lt;b&gt;ctg1_2287&lt;/b&gt;&lt;br&gt;ctg1 2287&lt;br&gt;Location: 2434300 - 2435425" locus_tag="ctg1_2287" class="clusterblast-orf" id="knownclusterblast-14_q1_0_all"  />
<polygon points="64,40 71,40 76,35 71,30 64,30 64,40 " style="fill:white; stroke-width:1; stroke:black; " description="&lt;b&gt;ctg1_2288&lt;/b&gt;&lt;br&gt;ctg1 2288&lt;br&gt;Location: 2435490 - 2435841" locus_tag="ctg1_2288" class="clusterblast-orf" id="knownclusterblast-14_q2_0_all"  />
<polygon points="78,40 95,40 100,35 95,30 78,30 78,40 " style="fill:white; stroke-width:1; stroke:black; " description="&lt;b&gt;ctg1_2289&lt;/b&gt;&lt;br&gt;ctg1 2289&lt;br&gt;Location: 2435892 - 2436555" locus_tag="ctg1_2289" class="clusterblast-orf" id="knownclusterblast-14_q3_0_all"  />
<polygon points="104,40 141,40 146,35 141,30 104,30 104,40 " style="fill:white; stroke-width:1; stroke:black; " description="&lt;b&gt;ctg1_2290&lt;/b&gt;&lt;br&gt;ctg1 2290&lt;br&gt;Location: 2436679 - 2437954" locus_tag="ctg1_2290" class="clusterblast-orf" id="knownclusterblast-14_q4_0_all"  />
<polygon points="148,40 172,40 177,35 172,30 148,30 148,40 " style="fill:white; stroke-width:1; stroke:black; " description="&lt;b&gt;ctg1_2291&lt;/b&gt;&lt;br&gt;ctg1 2291&lt;br&gt;Location: 2438014 - 2438875" locus_tag="ctg1_2291" class="clusterblast-orf" id="knownclusterblast-14_q5_0_all"  />
<polygon points="178,35 183,30 199,30 199,40 183,40 178,35 " style="fill:white; stroke-width:1; stroke:black; " description="&lt;b&gt;ctg1_2292&lt;/b&gt;&lt;br&gt;ctg1 2292&lt;br&gt;Location: 2438917 - 2439523" locus_tag="ctg1_2292" class="clusterblast-orf" id="knownclusterblast-14_q6_0_all"  />
<polygon points="202,35 207,30 253,30 253,40 207,40 202,35 " style="fill:white; stroke-width:1; stroke:black; " description="&lt;b&gt;ctg1_2293&lt;/b&gt;&lt;br&gt;ctg1 2293&lt;br&gt;Location: 2439633 - 2441139" locus_tag="ctg1_2293" class="clusterblast-orf" id="knownclusterblast-14_q7_0_all"  />
<polygon points="273,35 278,30 294,30 294,40 278,40 273,35 " style="fill:white; stroke-width:1; stroke:black; " description="&lt;b&gt;ctg1_2294&lt;/b&gt;&lt;br&gt;ctg1 2294&lt;br&gt;Location: 2441740 - 2442376" locus_tag="ctg1_2294" class="clusterblast-orf" id="knownclusterblast-14_q8_0_all"  />
<polygon points="294,35 299,30 317,30 317,40 299,40 294,35 " style="fill:#d81515; stroke-width:1; stroke:black; " description="&lt;b&gt;ctg1_2295&lt;/b&gt;&lt;br&gt;ctg1 2295&lt;br&gt;Location: 2442377 - 2443076" locus_tag="ctg1_2295" class="clusterblast-orf" id="knownclusterblast-14_q9_0_all"  />
<polygon points="317,35 322,30 338,30 338,40 322,40 317,35 " style="fill:white; stroke-width:1; stroke:black; " description="&lt;b&gt;ctg1_2296&lt;/b&gt;&lt;br&gt;ctg1 2296&lt;br&gt;Location: 2443078 - 2443702" locus_tag="ctg1_2296" class="clusterblast-orf" id="knownclusterblast-14_q10_0_all"  />
<polygon points="338,35 343,30 374,30 374,40 343,40 338,35 " style="fill:white; stroke-width:1; stroke:black; " description="&lt;b&gt;ctg1_2297&lt;/b&gt;&lt;br&gt;ctg1 2297&lt;br&gt;Location: 2443709 - 2444762" locus_tag="ctg1_2297" class="clusterblast-orf" id="knownclusterblast-14_q11_0_all"  />
<polygon points="374,35 379,30 446,30 446,40 379,40 374,35 " style="fill:#15d815; stroke-width:1; stroke:black; " description="&lt;b&gt;ctg1_2298&lt;/b&gt;&lt;br&gt;ctg1 2298&lt;br&gt;Location: 2444762 - 2446922" locus_tag="ctg1_2298" class="clusterblast-orf" id="knownclusterblast-14_q12_0_all"  />
<polygon points="445,35 450,30 465,30 465,40 450,40 445,35 " style="fill:#1515d8; stroke-width:1; stroke:black; " description="&lt;b&gt;ctg1_2299&lt;/b&gt;&lt;br&gt;ctg1 2299&lt;br&gt;Location: 2446914 - 2447493" locus_tag="ctg1_2299" class="clusterblast-orf" id="knownclusterblast-14_q13_0_all"  />
<polygon points="465,35 470,30 484,30 484,40 470,40 465,35 " style="fill:#d81515; stroke-width:1; stroke:black; " description="&lt;b&gt;ctg1_2300&lt;/b&gt;&lt;br&gt;ctg1 2300&lt;br&gt;Location: 2447492 - 2448074" locus_tag="ctg1_2300" class="clusterblast-orf" id="knownclusterblast-14_q14_0_all"  />
<polygon points="487,35 492,30 501,30 501,40 492,40 487,35 " style="fill:white; stroke-width:1; stroke:black; " description="&lt;b&gt;ctg1_2301&lt;/b&gt;&lt;br&gt;ctg1 2301&lt;br&gt;Location: 2448152 - 2448593" locus_tag="ctg1_2301" class="clusterblast-orf" id="knownclusterblast-14_q15_0_all"  />
<polygon points="504,35 509,30 511,30 511,40 509,40 504,35 " style="fill:white; stroke-width:1; stroke:black; " description="&lt;b&gt;ctg1_2302&lt;/b&gt;&lt;br&gt;ctg1 2302&lt;br&gt;Location: 2448668 - 2448884" locus_tag="ctg1_2302" class="clusterblast-orf" id="knownclusterblast-14_q16_0_all"  />
<polygon points="518,35 523,30 564,30 564,40 523,40 518,35 " style="fill:white; stroke-width:1; stroke:black; " description="&lt;b&gt;ctg1_2303&lt;/b&gt;&lt;br&gt;ctg1 2303&lt;br&gt;Location: 2449102 - 2450473" locus_tag="ctg1_2303" class="clusterblast-orf" id="knownclusterblast-14_q17_0_all"  />
<polygon points="568,35 573,30 573,30 573,40 573,40 568,35 " style="fill:white; stroke-width:1; stroke:black; " description="&lt;b&gt;ctg1_2304&lt;/b&gt;&lt;br&gt;ctg1 2304&lt;br&gt;Location: 2450588 - 2450726" locus_tag="ctg1_2304" class="clusterblast-orf" id="knownclusterblast-14_q18_0_all"  />
<polygon points="579,40 609,40 614,35 609,30 579,30 579,40 " style="fill:white; stroke-width:1; stroke:black; " description="&lt;b&gt;ctg1_2305&lt;/b&gt;&lt;br&gt;ctg1 2305&lt;br&gt;Location: 2450916 - 2451957" locus_tag="ctg1_2305" class="clusterblast-orf" id="knownclusterblast-14_q19_0_all"  />
<polygon points="615,35 620,30 648,30 648,40 620,40 615,35 " style="fill:white; stroke-width:1; stroke:black; " description="&lt;b&gt;ctg1_2306&lt;/b&gt;&lt;br&gt;ctg1 2306&lt;br&gt;Location: 2451992 - 2452994" locus_tag="ctg1_2306" class="clusterblast-orf" id="knownclusterblast-14_q20_0_all"  />
<polygon points="653,35 658,30 694,30 694,40 658,40 653,35 " style="fill:white; stroke-width:1; stroke:black; " description="&lt;b&gt;ctg1_2307&lt;/b&gt;&lt;br&gt;ctg1 2307&lt;br&gt;Location: 2453151 - 2454363" locus_tag="ctg1_2307" class="clusterblast-orf" id="knownclusterblast-14_q21_0_all"  />
<polygon points="698,40 709,40 714,35 709,30 698,30 698,40 " style="fill:white; stroke-width:1; stroke:black; " description="&lt;b&gt;ctg1_2308&lt;/b&gt;&lt;br&gt;ctg1 2308&lt;br&gt;Location: 2454494 - 2454959" locus_tag="ctg1_2308" class="clusterblast-orf" id="knownclusterblast-14_q22_0_all"  />
<polygon points="722,40 723,40 728,35 723,30 722,30 722,40 " style="fill:white; stroke-width:1; stroke:black; " description="&lt;b&gt;ctg1_2309&lt;/b&gt;&lt;br&gt;ctg1 2309&lt;br&gt;Location: 2455201 - 2455387" locus_tag="ctg1_2309" class="clusterblast-orf" id="knownclusterblast-14_q23_0_all"  />
<polygon points="728,35 733,30 741,30 741,40 733,40 728,35 " style="fill:white; stroke-width:1; stroke:black; " description="&lt;b&gt;ctg1_2310&lt;/b&gt;&lt;br&gt;ctg1 2310&lt;br&gt;Location: 2455396 - 2455765" locus_tag="ctg1_2310" class="clusterblast-orf" id="knownclusterblast-14_q24_0_all"  />
<polygon points="749,40 762,40 767,35 762,30 749,30 749,40 " style="fill:white; stroke-width:1; stroke:black; " description="&lt;b&gt;ctg1_2311&lt;/b&gt;&lt;br&gt;ctg1 2311&lt;br&gt;Location: 2456027 - 2456555" locus_tag="ctg1_2311" class="clusterblast-orf" id="knownclusterblast-14_q25_0_all"  />
<polygon points="771,40 775,40 780,35 775,30 771,30 771,40 " style="fill:white; stroke-width:1; stroke:black; " description="&lt;b&gt;ctg1_2312&lt;/b&gt;&lt;br&gt;ctg1 2312&lt;br&gt;Location: 2456661 - 2456937" locus_tag="ctg1_2312" class="clusterblast-orf" id="knownclusterblast-14_q26_0_all"  />
</g>
<g label="MGC00000037" description="MGC00000037_c1: Rnf complex C. sporogenes (66% of genes show similarity), RNF" class="clusterblast-cluster"  >
<text x="5" y="70" class="clusterblast-acc"  >
MGC00000037_c1: Rnf complex C. sporogenes (66% of genes show similarity), RNF</text>
<line x1="10" y1="85" x2="778.0" y2="85" style="stroke-width:1; stroke:grey; "  />
</g>
<g id="a14_000"  >
<polygon points="307,85 312,80 335,80 335,90 312,90 307,85 " style="fill:#1515d8; stroke-width:1; stroke:black; " description="&lt;b&gt;CLOSPO_00568&lt;/b&gt;&lt;br&gt;electron transport complex, RnfABCDGE type, B subunit&lt;br&gt;Location: 10000 - 10834&lt;br&gt;&lt;br&gt;&lt;b&gt;BlastP hit with ctg1_2299&lt;/b&gt;&lt;br&gt;Percentage identity: 33&lt;br&gt;Percentage coverage: 83&lt;br&gt;BLAST bit score: 86&lt;br&gt;E-value: 1.61e-22" locus_tag="CLOSPO_00568" class="clusterblast-orf" id="knownclusterblast-14_all_14_1_0"  />
</g>
<g id="a14_001"  >
<polygon points="335,85 340,80 355,80 355,90 340,90 335,85 " style="fill:#d81515; stroke-width:1; stroke:black; " description="&lt;b&gt;CLOSPO_00569&lt;/b&gt;&lt;br&gt;electron transport complex, RnfABCDGE type, A subunit&lt;br&gt;Location: 10847 - 11438&lt;br&gt;&lt;br&gt;&lt;b&gt;BlastP hit with ctg1_2295&lt;/b&gt;&lt;br&gt;Percentage identity: 33&lt;br&gt;Percentage coverage: 65&lt;br&gt;BLAST bit score: 64&lt;br&gt;E-value: 1.43e-14&lt;br&gt;&lt;br&gt;&lt;b&gt;BlastP hit with ctg1_2300&lt;/b&gt;&lt;br&gt;Percentage identity: 57&lt;br&gt;Percentage coverage: 96&lt;br&gt;BLAST bit score: 195&lt;br&gt;E-value: 1.15e-65" locus_tag="CLOSPO_00569" class="clusterblast-orf" id="knownclusterblast-14_all_14_1_1"  />
</g>
<g id="a14_002"  >
<polygon points="356,85 361,80 376,80 376,90 361,90 356,85 " style="fill:#d81515; stroke-width:1; stroke:black; " description="&lt;b&gt;CLOSPO_00570&lt;/b&gt;&lt;br&gt;electron transport complex, RnfABCDGE type, E subunit&lt;br&gt;Location: 11480 - 12080&lt;br&gt;&lt;br&gt;&lt;b&gt;BlastP hit with ctg1_2295&lt;/b&gt;&lt;br&gt;Percentage identity: 44&lt;br&gt;Percentage coverage: 87&lt;br&gt;BLAST bit score: 152&lt;br&gt;E-value: 2.96e-48" locus_tag="CLOSPO_00570" class="clusterblast-orf" id="knownclusterblast-14_all_14_1_2"  />
</g>
<g id="a14_003"  >
<polygon points="376,85 381,80 395,80 395,90 381,90 376,85 " style="fill:white; stroke-width:1; stroke:black; " description="&lt;b&gt;CLOSPO_00571&lt;/b&gt;&lt;br&gt;electron transport complex, RnfABCDGE type, G subunit&lt;br&gt;Location: 12079 - 12652" locus_tag="CLOSPO_00571" class="clusterblast-orf" id="knownclusterblast-14_all_14_1_3"  />
</g>
<g id="a14_004"  >
<polygon points="395,85 400,80 426,80 426,90 400,90 395,85 " style="fill:white; stroke-width:1; stroke:black; " description="&lt;b&gt;CLOSPO_00572&lt;/b&gt;&lt;br&gt;electron transport complex, RnfABCDGE type, D subunit&lt;br&gt;Location: 12651 - 13584" locus_tag="CLOSPO_00572" class="clusterblast-orf" id="knownclusterblast-14_all_14_1_4"  />
</g>
<g id="a14_005"  >
<polygon points="427,85 432,80 472,80 472,90 432,90 427,85 " style="fill:#15d815; stroke-width:1; stroke:black; " description="&lt;b&gt;CLOSPO_00573&lt;/b&gt;&lt;br&gt;electron transport complex, RnfABCDGE type, C subunit&lt;br&gt;Location: 13606 - 14950&lt;br&gt;&lt;br&gt;&lt;b&gt;BlastP hit with ctg1_2298&lt;/b&gt;&lt;br&gt;Percentage identity: 41&lt;br&gt;Percentage coverage: 53&lt;br&gt;BLAST bit score: 280&lt;br&gt;E-value: 1.31e-88" locus_tag="CLOSPO_00573" class="clusterblast-orf" id="knownclusterblast-14_all_14_1_5"  />
</g>
</svg>
