<svg xmlns="http://www.w3.org/2000/svg" xmlns:xlink="http://www.w3.org/1999/xlink" version="1.1" x="0" y="0" height="50" width="800" viewBox="0 0 800 50" preserveAspectRatio="none"  >
<g label="Query sequence" class="clusterblast-cluster"  >
<text x="5" y="20" class="clusterblast-acc"  >
Query sequence</text>
<line x1="10" y1="35" x2="778.0" y2="35" style="stroke-width:1; stroke:grey; "  />
<polygon points="0,35 5,30 72,30 72,40 5,40 0,35 " style="fill:white; stroke-width:1; stroke:black; " description="&lt;b&gt;ctg1_1150&lt;/b&gt;&lt;br&gt;ctg1 1150&lt;br&gt;Location: 1214615 - 1217267" locus_tag="ctg1_1150" class="clusterblast-orf" id="knownclusterblast-6_q0_0_all"  />
<polygon points="73,35 78,30 92,30 92,40 78,40 73,35 " style="fill:white; stroke-width:1; stroke:black; " description="&lt;b&gt;ctg1_1151&lt;/b&gt;&lt;br&gt;ctg1 1151&lt;br&gt;Location: 1217301 - 1218000" locus_tag="ctg1_1151" class="clusterblast-orf" id="knownclusterblast-6_q1_0_all"  />
<polygon points="94,35 99,30 106,30 106,40 99,40 94,35 " style="fill:white; stroke-width:1; stroke:black; " description="&lt;b&gt;ctg1_1152&lt;/b&gt;&lt;br&gt;ctg1 1152&lt;br&gt;Location: 1218069 - 1218495" locus_tag="ctg1_1152" class="clusterblast-orf" id="knownclusterblast-6_q2_0_all"  />
<polygon points="111,40 136,40 141,35 136,30 111,30 111,40 " style="fill:white; stroke-width:1; stroke:black; " description="&lt;b&gt;ctg1_1153&lt;/b&gt;&lt;br&gt;ctg1 1153&lt;br&gt;Location: 1218698 - 1219784" locus_tag="ctg1_1153" class="clusterblast-orf" id="knownclusterblast-6_q3_0_all"  />
<polygon points="143,35 148,30 162,30 162,40 148,40 143,35 " style="fill:white; stroke-width:1; stroke:black; " description="&lt;b&gt;ctg1_1154&lt;/b&gt;&lt;br&gt;ctg1 1154&lt;br&gt;Location: 1219840 - 1220530" locus_tag="ctg1_1154" class="clusterblast-orf" id="knownclusterblast-6_q4_0_all"  />
<polygon points="170,40 176,40 181,35 176,30 170,30 170,40 " style="fill:white; stroke-width:1; stroke:black; " description="&lt;b&gt;ctg1_1155&lt;/b&gt;&lt;br&gt;ctg1 1155&lt;br&gt;Location: 1220841 - 1221225" locus_tag="ctg1_1155" class="clusterblast-orf" id="knownclusterblast-6_q5_0_all"  />
<polygon points="182,35 187,30 218,30 218,40 187,40 182,35 " style="fill:white; stroke-width:1; stroke:black; " description="&lt;b&gt;ctg1_1156&lt;/b&gt;&lt;br&gt;ctg1 1156&lt;br&gt;Location: 1221270 - 1222602" locus_tag="ctg1_1156" class="clusterblast-orf" id="knownclusterblast-6_q6_0_all"  />
<polygon points="222,40 237,40 242,35 237,30 222,30 222,40 " style="fill:white; stroke-width:1; stroke:black; " description="&lt;b&gt;ctg1_1157&lt;/b&gt;&lt;br&gt;ctg1 1157&lt;br&gt;Location: 1222732 - 1223470" locus_tag="ctg1_1157" class="clusterblast-orf" id="knownclusterblast-6_q7_0_all"  />
<polygon points="242,35 247,30 286,30 286,40 247,40 242,35 " style="fill:white; stroke-width:1; stroke:black; " description="&lt;b&gt;ctg1_1158&lt;/b&gt;&lt;br&gt;ctg1 1158&lt;br&gt;Location: 1223454 - 1225074" locus_tag="ctg1_1158" class="clusterblast-orf" id="knownclusterblast-6_q8_0_all"  />
<polygon points="297,40 308,40 313,35 308,30 297,30 297,40 " style="fill:white; stroke-width:1; stroke:black; " description="&lt;b&gt;ctg1_1159&lt;/b&gt;&lt;br&gt;ctg1 1159&lt;br&gt;Location: 1225494 - 1226070" locus_tag="ctg1_1159" class="clusterblast-orf" id="knownclusterblast-6_q9_0_all"  />
<polygon points="314,40 327,40 332,35 327,30 314,30 314,40 " style="fill:white; stroke-width:1; stroke:black; " description="&lt;b&gt;ctg1_1160&lt;/b&gt;&lt;br&gt;ctg1 1160&lt;br&gt;Location: 1226102 - 1226753" locus_tag="ctg1_1160" class="clusterblast-orf" id="knownclusterblast-6_q10_0_all"  />
<polygon points="332,40 353,40 358,35 353,30 332,30 332,40 " style="fill:white; stroke-width:1; stroke:black; " description="&lt;b&gt;ctg1_1161&lt;/b&gt;&lt;br&gt;ctg1 1161&lt;br&gt;Location: 1226752 - 1227709" locus_tag="ctg1_1161" class="clusterblast-orf" id="knownclusterblast-6_q11_0_all"  />
<polygon points="358,40 366,40 371,35 366,30 358,30 358,40 " style="fill:white; stroke-width:1; stroke:black; " description="&lt;b&gt;ctg1_1162&lt;/b&gt;&lt;br&gt;ctg1 1162&lt;br&gt;Location: 1227705 - 1228185" locus_tag="ctg1_1162" class="clusterblast-orf" id="knownclusterblast-6_q12_0_all"  />
<polygon points="376,40 420,40 425,35 420,30 376,30 376,40 " style="fill:white; stroke-width:1; stroke:black; " description="&lt;b&gt;ctg1_1163&lt;/b&gt;&lt;br&gt;ctg1 1163&lt;br&gt;Location: 1228370 - 1230170" locus_tag="ctg1_1163" class="clusterblast-orf" id="knownclusterblast-6_q13_0_all"  />
<polygon points="426,40 447,40 452,35 447,30 426,30 426,40 " style="fill:white; stroke-width:1; stroke:black; " description="&lt;b&gt;ctg1_1164&lt;/b&gt;&lt;br&gt;ctg1 1164&lt;br&gt;Location: 1230183 - 1231158" locus_tag="ctg1_1164" class="clusterblast-orf" id="knownclusterblast-6_q14_0_all"  />
<polygon points="459,40 473,40 478,35 473,30 459,30 459,40 " style="fill:white; stroke-width:1; stroke:black; " description="&lt;b&gt;ctg1_1165&lt;/b&gt;&lt;br&gt;ctg1 1165&lt;br&gt;Location: 1231407 - 1232088" locus_tag="ctg1_1165" class="clusterblast-orf" id="knownclusterblast-6_q15_0_all"  />
<polygon points="478,40 497,40 502,35 497,30 478,30 478,40 " style="fill:white; stroke-width:1; stroke:black; " description="&lt;b&gt;ctg1_1166&lt;/b&gt;&lt;br&gt;ctg1 1166&lt;br&gt;Location: 1232084 - 1232990" locus_tag="ctg1_1166" class="clusterblast-orf" id="knownclusterblast-6_q16_0_all"  />
<polygon points="503,40 518,40 523,35 518,30 503,30 503,40 " style="fill:white; stroke-width:1; stroke:black; " description="&lt;b&gt;ctg1_1167&lt;/b&gt;&lt;br&gt;ctg1 1167&lt;br&gt;Location: 1233001 - 1233739" locus_tag="ctg1_1167" class="clusterblast-orf" id="knownclusterblast-6_q17_0_all"  />
<polygon points="523,40 538,40 543,35 538,30 523,30 523,40 " style="fill:white; stroke-width:1; stroke:black; " description="&lt;b&gt;ctg1_1168&lt;/b&gt;&lt;br&gt;ctg1 1168&lt;br&gt;Location: 1233750 - 1234482" locus_tag="ctg1_1168" class="clusterblast-orf" id="knownclusterblast-6_q18_0_all"  />
<polygon points="543,40 548,40 553,35 548,30 543,30 543,40 " style="fill:white; stroke-width:1; stroke:black; " description="&lt;b&gt;ctg1_1169&lt;/b&gt;&lt;br&gt;ctg1 1169&lt;br&gt;Location: 1234481 - 1234862" locus_tag="ctg1_1169" class="clusterblast-orf" id="knownclusterblast-6_q19_0_all"  />
<polygon points="554,35 559,30 561,30 561,40 559,40 554,35 " style="fill:white; stroke-width:1; stroke:black; " description="&lt;b&gt;ctg1_1170&lt;/b&gt;&lt;br&gt;ctg1 1170&lt;br&gt;Location: 1234874 - 1235135" locus_tag="ctg1_1170" class="clusterblast-orf" id="knownclusterblast-6_q20_0_all"  />
<polygon points="562,35 567,30 586,30 586,40 567,40 562,35 " style="fill:white; stroke-width:1; stroke:black; " description="&lt;b&gt;ctg1_1171&lt;/b&gt;&lt;br&gt;ctg1 1171&lt;br&gt;Location: 1235191 - 1236040" locus_tag="ctg1_1171" class="clusterblast-orf" id="knownclusterblast-6_q21_0_all"  />
<polygon points="592,40 604,40 609,35 604,30 592,30 592,40 " style="fill:white; stroke-width:1; stroke:black; " description="&lt;b&gt;ctg1_1172&lt;/b&gt;&lt;br&gt;ctg1 1172&lt;br&gt;Location: 1236252 - 1236888" locus_tag="ctg1_1172" class="clusterblast-orf" id="knownclusterblast-6_q22_0_all"  />
<polygon points="611,40 620,40 625,35 620,30 611,30 611,40 " style="fill:white; stroke-width:1; stroke:black; " description="&lt;b&gt;ctg1_1173&lt;/b&gt;&lt;br&gt;ctg1 1173&lt;br&gt;Location: 1236950 - 1237460" locus_tag="ctg1_1173" class="clusterblast-orf" id="knownclusterblast-6_q23_0_all"  />
<polygon points="624,35 629,30 669,30 669,40 629,40 624,35 " style="fill:white; stroke-width:1; stroke:black; " description="&lt;b&gt;ctg1_1174&lt;/b&gt;&lt;br&gt;ctg1 1174&lt;br&gt;Location: 1237456 - 1239073" locus_tag="ctg1_1174" class="clusterblast-orf" id="knownclusterblast-6_q24_0_all"  />
<polygon points="673,40 775,40 780,35 775,30 673,30 673,40 " style="fill:white; stroke-width:1; stroke:black; " description="&lt;b&gt;ctg1_1175&lt;/b&gt;&lt;br&gt;ctg1 1175&lt;br&gt;Location: 1239248 - 1243136" locus_tag="ctg1_1175" class="clusterblast-orf" id="knownclusterblast-6_q25_0_all"  />
</g>
</svg>
