<svg xmlns="http://www.w3.org/2000/svg" xmlns:xlink="http://www.w3.org/1999/xlink" version="1.1" x="0" y="0" height="100" width="800" viewBox="0 0 800 100" preserveAspectRatio="none"  >
<g label="Query sequence" class="clusterblast-cluster"  >
<text x="5" y="20" class="clusterblast-acc"  >
Query sequence</text>
<line x1="10" y1="35" x2="778.0" y2="35" style="stroke-width:1; stroke:grey; "  />
<polygon points="0,40 21,40 26,35 21,30 0,30 0,40 " style="fill:white; stroke-width:1; stroke:black; " description="&lt;b&gt;ctg1_4635&lt;/b&gt;&lt;br&gt;ctg1 4635&lt;br&gt;Location: 4981591 - 4982323" locus_tag="ctg1_4635" class="clusterblast-orf" id="knownclusterblast-24_q0_0_all"  />
<polygon points="28,35 33,30 47,30 47,40 33,40 28,35 " style="fill:white; stroke-width:1; stroke:black; " description="&lt;b&gt;ctg1_4636&lt;/b&gt;&lt;br&gt;ctg1 4636&lt;br&gt;Location: 4982363 - 4982909" locus_tag="ctg1_4636" class="clusterblast-orf" id="knownclusterblast-24_q1_0_all"  />
<polygon points="51,40 84,40 89,35 84,30 51,30 51,40 " style="fill:white; stroke-width:1; stroke:black; " description="&lt;b&gt;ctg1_4637&lt;/b&gt;&lt;br&gt;ctg1 4637&lt;br&gt;Location: 4983003 - 4984065" locus_tag="ctg1_4637" class="clusterblast-orf" id="knownclusterblast-24_q2_0_all"  />
<polygon points="95,40 125,40 130,35 125,30 95,30 95,40 " style="fill:white; stroke-width:1; stroke:black; " description="&lt;b&gt;ctg1_4638&lt;/b&gt;&lt;br&gt;ctg1 4638&lt;br&gt;Location: 4984225 - 4985188" locus_tag="ctg1_4638" class="clusterblast-orf" id="knownclusterblast-24_q3_0_all"  />
<polygon points="131,40 246,40 251,35 246,30 131,30 131,40 " style="fill:white; stroke-width:1; stroke:black; " description="&lt;b&gt;ctg1_4639&lt;/b&gt;&lt;br&gt;ctg1 4639&lt;br&gt;Location: 4985212 - 4988542" locus_tag="ctg1_4639" class="clusterblast-orf" id="knownclusterblast-24_q4_0_all"  />
<polygon points="252,35 257,30 306,30 306,40 257,40 252,35 " style="fill:white; stroke-width:1; stroke:black; " description="&lt;b&gt;ctg1_4640&lt;/b&gt;&lt;br&gt;ctg1 4640&lt;br&gt;Location: 4988579 - 4990082" locus_tag="ctg1_4640" class="clusterblast-orf" id="knownclusterblast-24_q5_0_all"  />
<polygon points="313,35 318,30 348,30 348,40 318,40 313,35 " style="fill:white; stroke-width:1; stroke:black; " description="&lt;b&gt;ctg1_4641&lt;/b&gt;&lt;br&gt;ctg1 4641&lt;br&gt;Location: 4990270 - 4991248" locus_tag="ctg1_4641" class="clusterblast-orf" id="knownclusterblast-24_q6_0_all"  />
<polygon points="358,40 418,40 423,35 418,30 358,30 358,40 " style="fill:#d81515; stroke-width:1; stroke:black; " description="&lt;b&gt;ctg1_4642&lt;/b&gt;&lt;br&gt;ctg1 4642&lt;br&gt;Location: 4991523 - 4993314" locus_tag="ctg1_4642" class="clusterblast-orf" id="knownclusterblast-24_q7_0_all"  />
<polygon points="423,40 444,40 449,35 444,30 423,30 423,40 " style="fill:#15d8d8; stroke-width:1; stroke:black; " description="&lt;b&gt;ctg1_4643&lt;/b&gt;&lt;br&gt;ctg1 4643&lt;br&gt;Location: 4993306 - 4994041" locus_tag="ctg1_4643" class="clusterblast-orf" id="knownclusterblast-24_q8_0_all"  />
<polygon points="450,40 459,40 464,35 459,30 450,30 450,40 " style="fill:white; stroke-width:1; stroke:black; " description="&lt;b&gt;ctg1_4644&lt;/b&gt;&lt;br&gt;ctg1 4644&lt;br&gt;Location: 4994051 - 4994447" locus_tag="ctg1_4644" class="clusterblast-orf" id="knownclusterblast-24_q9_0_all"  />
<polygon points="464,40 472,40 477,35 472,30 464,30 464,40 " style="fill:white; stroke-width:1; stroke:black; " description="&lt;b&gt;ctg1_4645&lt;/b&gt;&lt;br&gt;ctg1 4645&lt;br&gt;Location: 4994457 - 4994817" locus_tag="ctg1_4645" class="clusterblast-orf" id="knownclusterblast-24_q10_0_all"  />
<polygon points="481,40 496,40 501,35 496,30 481,30 481,40 " style="fill:white; stroke-width:1; stroke:black; " description="&lt;b&gt;ctg1_4646&lt;/b&gt;&lt;br&gt;ctg1 4646&lt;br&gt;Location: 4994930 - 4995464" locus_tag="ctg1_4646" class="clusterblast-orf" id="knownclusterblast-24_q11_0_all"  />
<polygon points="500,35 505,30 512,30 512,40 505,40 500,35 " style="fill:white; stroke-width:1; stroke:black; " description="&lt;b&gt;ctg1_4647&lt;/b&gt;&lt;br&gt;ctg1 4647&lt;br&gt;Location: 4995460 - 4995778" locus_tag="ctg1_4647" class="clusterblast-orf" id="knownclusterblast-24_q12_0_all"  />
<polygon points="535,35 540,30 556,30 556,40 540,40 535,35 " style="fill:white; stroke-width:1; stroke:black; " description="&lt;b&gt;ctg1_4648&lt;/b&gt;&lt;br&gt;ctg1 4648&lt;br&gt;Location: 4996430 - 4996997" locus_tag="ctg1_4648" class="clusterblast-orf" id="knownclusterblast-24_q13_0_all"  />
<polygon points="557,40 589,40 594,35 589,30 557,30 557,40 " style="fill:white; stroke-width:1; stroke:black; " description="&lt;b&gt;ctg1_4649&lt;/b&gt;&lt;br&gt;ctg1 4649&lt;br&gt;Location: 4997038 - 4998067" locus_tag="ctg1_4649" class="clusterblast-orf" id="knownclusterblast-24_q14_0_all"  />
<polygon points="599,35 604,30 622,30 622,40 604,40 599,35 " style="fill:white; stroke-width:1; stroke:black; " description="&lt;b&gt;ctg1_4650&lt;/b&gt;&lt;br&gt;ctg1 4650&lt;br&gt;Location: 4998192 - 4998837" locus_tag="ctg1_4650" class="clusterblast-orf" id="knownclusterblast-24_q15_0_all"  />
<polygon points="640,40 655,40 660,35 655,30 640,30 640,40 " style="fill:white; stroke-width:1; stroke:black; " description="&lt;b&gt;ctg1_4651&lt;/b&gt;&lt;br&gt;ctg1 4651&lt;br&gt;Location: 4999315 - 4999879" locus_tag="ctg1_4651" class="clusterblast-orf" id="knownclusterblast-24_q16_0_all"  />
<polygon points="662,40 682,40 687,35 682,30 662,30 662,40 " style="fill:white; stroke-width:1; stroke:black; " description="&lt;b&gt;ctg1_4652&lt;/b&gt;&lt;br&gt;ctg1 4652&lt;br&gt;Location: 4999937 - 5000624" locus_tag="ctg1_4652" class="clusterblast-orf" id="knownclusterblast-24_q17_0_all"  />
<polygon points="688,40 775,40 780,35 775,30 688,30 688,40 " style="fill:white; stroke-width:1; stroke:black; " description="&lt;b&gt;ctg1_4653&lt;/b&gt;&lt;br&gt;ctg1 4653&lt;br&gt;Location: 5000659 - 5003203" locus_tag="ctg1_4653" class="clusterblast-orf" id="knownclusterblast-24_q18_0_all"  />
</g>
<g label="MGC00000057" description="MGC00000057_c1: Fumarate2succinate fum red E. coli (100% of genes show similarity), SUC" class="clusterblast-cluster"  >
<text x="5" y="70" class="clusterblast-acc"  >
MGC00000057_c1: Fumarate2succinate fum red E. coli (100% of genes show similarity), SUC</text>
<line x1="10" y1="85" x2="778.0" y2="85" style="stroke-width:1; stroke:grey; "  />
</g>
<g id="a24_000"  >
<polygon points="344,90 404,90 409,85 404,80 344,80 344,90 " style="fill:#d81515; stroke-width:1; stroke:black; " description="&lt;b&gt;HMPREF9550_01586&lt;/b&gt;&lt;br&gt;fumarate reductase, flavoprotein subunit&lt;br&gt;Location: 12536 - 10727&lt;br&gt;&lt;br&gt;&lt;b&gt;BlastP hit with ctg1_4642&lt;/b&gt;&lt;br&gt;Percentage identity: 93&lt;br&gt;Percentage coverage: 100&lt;br&gt;BLAST bit score: 1130&lt;br&gt;E-value: 0.0" locus_tag="HMPREF9550_01586" class="clusterblast-orf" id="knownclusterblast-24_all_24_1_0"  />
</g>
<g id="a24_001"  >
<polygon points="409,90 430,90 435,85 430,80 409,80 409,90 " style="fill:#15d8d8; stroke-width:1; stroke:black; " description="&lt;b&gt;HMPREF9550_01585&lt;/b&gt;&lt;br&gt;fumarate reductase iron-sulfur subunit&lt;br&gt;Location: 10735 - 10000&lt;br&gt;&lt;br&gt;&lt;b&gt;BlastP hit with ctg1_4643&lt;/b&gt;&lt;br&gt;Percentage identity: 95&lt;br&gt;Percentage coverage: 100&lt;br&gt;BLAST bit score: 488&lt;br&gt;E-value: 9.11e-180" locus_tag="HMPREF9550_01585" class="clusterblast-orf" id="knownclusterblast-24_all_24_1_1"  />
</g>
</svg>
