<svg xmlns="http://www.w3.org/2000/svg" xmlns:xlink="http://www.w3.org/1999/xlink" version="1.1" x="0" y="0" height="230" width="800" viewBox="0 0 800 230" preserveAspectRatio="none"  >
<g label="Query sequence" class="clusterblast-cluster"  >
<text x="5" y="20" class="clusterblast-acc"  >
Query sequence</text>
<line x1="10" y1="35" x2="778.0" y2="35" style="stroke-width:1; stroke:grey; "  />
<polygon points="0,40 43,40 48,35 43,30 0,30 0,40 " style="fill:white; stroke-width:1; stroke:black; " description="&lt;b&gt;ctg1_1246&lt;/b&gt;&lt;br&gt;ctg1 1246&lt;br&gt;Location: 1325116 - 1327099" locus_tag="ctg1_1246" class="clusterblast-orf" id="dummy-7_q0_0_all"  />
<polygon points="49,40 58,40 63,35 58,30 49,30 49,40 " style="fill:white; stroke-width:1; stroke:black; " description="&lt;b&gt;ctg1_1247&lt;/b&gt;&lt;br&gt;ctg1 1247&lt;br&gt;Location: 1327157 - 1327754" locus_tag="ctg1_1247" class="clusterblast-orf" id="dummy-7_q1_0_all"  />
<polygon points="65,40 85,40 90,35 85,30 65,30 65,40 " style="fill:white; stroke-width:1; stroke:black; " description="&lt;b&gt;ctg1_1248&lt;/b&gt;&lt;br&gt;ctg1 1248&lt;br&gt;Location: 1327817 - 1328864" locus_tag="ctg1_1248" class="clusterblast-orf" id="dummy-7_q2_0_all"  />
<polygon points="90,35 95,30 138,30 138,40 95,40 90,35 " style="fill:white; stroke-width:1; stroke:black; " description="&lt;b&gt;ctg1_1249&lt;/b&gt;&lt;br&gt;ctg1 1249&lt;br&gt;Location: 1328853 - 1330848" locus_tag="ctg1_1249" class="clusterblast-orf" id="dummy-7_q3_0_all"  />
<polygon points="139,35 144,30 162,30 162,40 144,40 139,35 " style="fill:white; stroke-width:1; stroke:black; " description="&lt;b&gt;ctg1_1250&lt;/b&gt;&lt;br&gt;ctg1 1250&lt;br&gt;Location: 1330864 - 1331821" locus_tag="ctg1_1250" class="clusterblast-orf" id="dummy-7_q4_0_all"  />
<polygon points="169,40 219,40 224,35 219,30 169,30 169,40 " style="fill:#d81515; stroke-width:1; stroke:black; " description="&lt;b&gt;ctg1_1251&lt;/b&gt;&lt;br&gt;ctg1 1251&lt;br&gt;Location: 1332115 - 1334395" locus_tag="ctg1_1251" class="clusterblast-orf" id="dummy-7_q5_0_all"  />
<polygon points="229,40 232,40 237,35 232,30 229,30 229,40 " style="fill:#77d815; stroke-width:1; stroke:black; " description="&lt;b&gt;ctg1_1252&lt;/b&gt;&lt;br&gt;ctg1 1252&lt;br&gt;Location: 1334613 - 1334949" locus_tag="ctg1_1252" class="clusterblast-orf" id="dummy-7_q6_0_all"  />
<polygon points="238,40 244,40 249,35 244,30 238,30 238,40 " style="fill:#15d8d8; stroke-width:1; stroke:black; " description="&lt;b&gt;ctg1_1253&lt;/b&gt;&lt;br&gt;ctg1 1253&lt;br&gt;Location: 1334961 - 1335441" locus_tag="ctg1_1253" class="clusterblast-orf" id="dummy-7_q7_0_all"  />
<polygon points="249,40 260,40 265,35 260,30 249,30 249,40 " style="fill:#7715d8; stroke-width:1; stroke:black; " description="&lt;b&gt;ctg1_1254&lt;/b&gt;&lt;br&gt;ctg1 1254&lt;br&gt;Location: 1335418 - 1336108" locus_tag="ctg1_1254" class="clusterblast-orf" id="dummy-7_q8_0_all"  />
<polygon points="265,40 280,40 285,35 280,30 265,30 265,40 " style="fill:#d85e15; stroke-width:1; stroke:black; " description="&lt;b&gt;ctg1_1255&lt;/b&gt;&lt;br&gt;ctg1 1255&lt;br&gt;Location: 1336104 - 1336914" locus_tag="ctg1_1255" class="clusterblast-orf" id="dummy-7_q9_0_all"  />
<polygon points="285,40 304,40 309,35 304,30 285,30 285,40 " style="fill:#d81515; stroke-width:1; stroke:black; " description="&lt;b&gt;ctg1_1256&lt;/b&gt;&lt;br&gt;ctg1 1256&lt;br&gt;Location: 1336903 - 1337920" locus_tag="ctg1_1256" class="clusterblast-orf" id="dummy-7_q10_0_all"  />
<polygon points="310,40 312,40 317,35 312,30 310,30 310,40 " style="fill:#2ed815; stroke-width:1; stroke:black; " description="&lt;b&gt;ctg1_1257&lt;/b&gt;&lt;br&gt;ctg1 1257&lt;br&gt;Location: 1337958 - 1338249" locus_tag="ctg1_1257" class="clusterblast-orf" id="dummy-7_q11_0_all"  />
<polygon points="320,40 322,40 327,35 322,30 320,30 320,40 " style="fill:#158fd8; stroke-width:1; stroke:black; " description="&lt;b&gt;ctg1_1258&lt;/b&gt;&lt;br&gt;ctg1 1258&lt;br&gt;Location: 1338377 - 1338665" locus_tag="ctg1_1258" class="clusterblast-orf" id="dummy-7_q12_0_all"  />
<polygon points="327,40 356,40 361,35 356,30 327,30 327,40 " style="fill:#c015d8; stroke-width:1; stroke:black; " description="&lt;b&gt;ctg1_1259&lt;/b&gt;&lt;br&gt;ctg1 1259&lt;br&gt;Location: 1338676 - 1340080" locus_tag="ctg1_1259" class="clusterblast-orf" id="dummy-7_q13_0_all"  />
<polygon points="362,40 377,40 382,35 377,30 362,30 362,40 " style="fill:#d8a715; stroke-width:1; stroke:black; " description="&lt;b&gt;ctg1_1260&lt;/b&gt;&lt;br&gt;ctg1 1260&lt;br&gt;Location: 1340089 - 1340929" locus_tag="ctg1_1260" class="clusterblast-orf" id="dummy-7_q14_0_all"  />
<polygon points="382,40 405,40 410,35 405,30 382,30 382,40 " style="fill:#15d846; stroke-width:1; stroke:black; " description="&lt;b&gt;ctg1_1261&lt;/b&gt;&lt;br&gt;ctg1 1261&lt;br&gt;Location: 1340918 - 1342106" locus_tag="ctg1_1261" class="clusterblast-orf" id="dummy-7_q15_0_all"  />
<polygon points="415,40 440,40 445,35 440,30 415,30 415,40 " style="fill:#1546d8; stroke-width:1; stroke:black; " description="&lt;b&gt;ctg1_1262&lt;/b&gt;&lt;br&gt;ctg1 1262&lt;br&gt;Location: 1342305 - 1343538" locus_tag="ctg1_1262" class="clusterblast-orf" id="dummy-7_q16_0_all"  />
<polygon points="445,40 474,40 479,35 474,30 445,30 445,40 " style="fill:#d815a7; stroke-width:1; stroke:black; " description="&lt;b&gt;ctg1_1263&lt;/b&gt;&lt;br&gt;ctg1 1263&lt;br&gt;Location: 1343534 - 1344938" locus_tag="ctg1_1263" class="clusterblast-orf" id="dummy-7_q17_0_all"  />
<polygon points="479,40 507,40 512,35 507,30 479,30 479,40 " style="fill:#c0d815; stroke-width:1; stroke:black; " description="&lt;b&gt;ctg1_1264&lt;/b&gt;&lt;br&gt;ctg1 1264&lt;br&gt;Location: 1344949 - 1346311" locus_tag="ctg1_1264" class="clusterblast-orf" id="dummy-7_q18_0_all"  />
<polygon points="512,40 529,40 534,35 529,30 512,30 512,40 " style="fill:#15d88f; stroke-width:1; stroke:black; " description="&lt;b&gt;ctg1_1265&lt;/b&gt;&lt;br&gt;ctg1 1265&lt;br&gt;Location: 1346331 - 1347234" locus_tag="ctg1_1265" class="clusterblast-orf" id="dummy-7_q19_0_all"  />
<polygon points="534,40 545,40 550,35 545,30 534,30 534,40 " style="fill:#2e15d8; stroke-width:1; stroke:black; " description="&lt;b&gt;ctg1_1266&lt;/b&gt;&lt;br&gt;ctg1 1266&lt;br&gt;Location: 1347243 - 1347903" locus_tag="ctg1_1266" class="clusterblast-orf" id="dummy-7_q20_0_all"  />
<polygon points="551,40 557,40 562,35 557,30 551,30 551,40 " style="fill:#2ed815; stroke-width:1; stroke:black; " description="&lt;b&gt;ctg1_1267&lt;/b&gt;&lt;br&gt;ctg1 1267&lt;br&gt;Location: 1347914 - 1348400" locus_tag="ctg1_1267" class="clusterblast-orf" id="dummy-7_q21_0_all"  />
<polygon points="563,40 584,40 589,35 584,30 563,30 563,40 " style="fill:#d8155e; stroke-width:1; stroke:black; " description="&lt;b&gt;ctg1_1268&lt;/b&gt;&lt;br&gt;ctg1 1268&lt;br&gt;Location: 1348445 - 1349498" locus_tag="ctg1_1268" class="clusterblast-orf" id="dummy-7_q22_0_all"  />
<polygon points="590,35 595,30 612,30 612,40 595,40 590,35 " style="fill:white; stroke-width:1; stroke:black; " description="&lt;b&gt;ctg1_1269&lt;/b&gt;&lt;br&gt;ctg1 1269&lt;br&gt;Location: 1349541 - 1350441" locus_tag="ctg1_1269" class="clusterblast-orf" id="dummy-7_q23_0_all"  />
<polygon points="612,35 617,30 633,30 633,40 617,40 612,35 " style="fill:white; stroke-width:1; stroke:black; " description="&lt;b&gt;ctg1_1270&lt;/b&gt;&lt;br&gt;ctg1 1270&lt;br&gt;Location: 1350440 - 1351313" locus_tag="ctg1_1270" class="clusterblast-orf" id="dummy-7_q24_0_all"  />
<polygon points="638,40 643,40 648,35 643,30 638,30 638,40 " style="fill:white; stroke-width:1; stroke:black; " description="&lt;b&gt;ctg1_1271&lt;/b&gt;&lt;br&gt;ctg1 1271&lt;br&gt;Location: 1351524 - 1351950" locus_tag="ctg1_1271" class="clusterblast-orf" id="dummy-7_q25_0_all"  />
<polygon points="648,40 654,40 659,35 654,30 648,30 648,40 " style="fill:white; stroke-width:1; stroke:black; " description="&lt;b&gt;ctg1_1272&lt;/b&gt;&lt;br&gt;ctg1 1272&lt;br&gt;Location: 1351936 - 1352386" locus_tag="ctg1_1272" class="clusterblast-orf" id="dummy-7_q26_0_all"  />
<polygon points="660,40 669,40 674,35 669,30 660,30 660,40 " style="fill:white; stroke-width:1; stroke:black; " description="&lt;b&gt;ctg1_1273&lt;/b&gt;&lt;br&gt;ctg1 1273&lt;br&gt;Location: 1352447 - 1353023" locus_tag="ctg1_1273" class="clusterblast-orf" id="dummy-7_q27_0_all"  />
<polygon points="676,40 693,40 698,35 693,30 676,30 676,40 " style="fill:white; stroke-width:1; stroke:black; " description="&lt;b&gt;ctg1_1274&lt;/b&gt;&lt;br&gt;ctg1 1274&lt;br&gt;Location: 1353117 - 1354017" locus_tag="ctg1_1274" class="clusterblast-orf" id="dummy-7_q28_0_all"  />
<polygon points="714,40 733,40 738,35 733,30 714,30 714,40 " style="fill:white; stroke-width:1; stroke:black; " description="&lt;b&gt;ctg1_1275&lt;/b&gt;&lt;br&gt;ctg1 1275&lt;br&gt;Location: 1354674 - 1355691" locus_tag="ctg1_1275" class="clusterblast-orf" id="dummy-7_q29_0_all"  />
<polygon points="738,40 754,40 759,35 754,30 738,30 738,40 " style="fill:white; stroke-width:1; stroke:black; " description="&lt;b&gt;ctg1_1276&lt;/b&gt;&lt;br&gt;ctg1 1276&lt;br&gt;Location: 1355690 - 1356524" locus_tag="ctg1_1276" class="clusterblast-orf" id="dummy-7_q30_0_all"  />
<polygon points="759,40 775,40 780,35 775,30 759,30 759,40 " style="fill:white; stroke-width:1; stroke:black; " description="&lt;b&gt;ctg1_1277&lt;/b&gt;&lt;br&gt;ctg1 1277&lt;br&gt;Location: 1356523 - 1357399" locus_tag="ctg1_1277" class="clusterblast-orf" id="dummy-7_q31_0_all"  />
</g>
<g label="MGC0000001" description="MGC0000001_c1: Trimethylamine synthesis C. sporogenes (33% of genes show similarity), TMA" class="clusterblast-cluster"  >
<text x="5" y="70" class="clusterblast-acc"  >
MGC0000001_c1: Trimethylamine synthesis C. sporogenes (33% of genes show similarity), TMA</text>
<line x1="10" y1="85" x2="778.0" y2="85" style="stroke-width:1; stroke:grey; "  />
</g>
<g id="a7_000"  >
<polygon points="321,90 321,85 321,80 321,90 " style="fill:#2ed815; stroke-width:1; stroke:black; " description="&lt;b&gt;CLOSPO_RS07620&lt;/b&gt;&lt;br&gt;hypothetical protein&lt;br&gt;Location: 0 - 4&lt;br&gt;&lt;br&gt;&lt;b&gt;BlastP hit with ctg1_1257&lt;/b&gt;&lt;br&gt;Percentage identity: 55&lt;br&gt;Percentage coverage: 90&lt;br&gt;BLAST bit score: 83&lt;br&gt;E-value: 3.68e-24&lt;br&gt;&lt;br&gt;&lt;b&gt;BlastP hit with ctg1_1267&lt;/b&gt;&lt;br&gt;Percentage identity: 43&lt;br&gt;Percentage coverage: 54&lt;br&gt;BLAST bit score: 64&lt;br&gt;E-value: 4.81e-16" locus_tag="CLOSPO_RS07620" class="clusterblast-orf" id="dummy-7_h7_3_0"  />
</g>
<g id="a7_001"  >
<polygon points="322,90 352,90 357,85 352,80 322,80 322,90 " style="fill:white; stroke-width:1; stroke:black; " description="&lt;b&gt;CLOSPO_RS07625&lt;/b&gt;&lt;br&gt;acetaldehyde dehydrogenase&lt;br&gt;Location: 41 - 1523" locus_tag="CLOSPO_RS07625" class="clusterblast-orf" id="dummy-7_h7_3_1"  />
</g>
<g id="a7_002"  >
<polygon points="359,90 415,90 420,85 415,80 359,80 359,90 " style="fill:white; stroke-width:1; stroke:black; " description="&lt;b&gt;CLOSPO_RS07630&lt;/b&gt;&lt;br&gt;choline trimethylamine-lyase&lt;br&gt;Location: 1572 - 4113" locus_tag="CLOSPO_RS07630" class="clusterblast-orf" id="dummy-7_h7_3_2"  />
</g>
<g id="a7_003"  >
<polygon points="424,90 442,90 447,85 442,80 424,80 424,90 " style="fill:white; stroke-width:1; stroke:black; " description="&lt;b&gt;CLOSPO_RS07635&lt;/b&gt;&lt;br&gt;choline TMA-lyase-activating enzyme&lt;br&gt;Location: 4294 - 5248" locus_tag="CLOSPO_RS07635" class="clusterblast-orf" id="dummy-7_h7_3_3"  />
</g>
<g id="a7_004"  >
<polygon points="448,90 452,90 457,85 452,80 448,80 448,90 " style="fill:#77d815; stroke-width:1; stroke:black; " description="&lt;b&gt;CLOSPO_RS07640&lt;/b&gt;&lt;br&gt;propanediol utilization protein PduU&lt;br&gt;Location: 5287 - 5641&lt;br&gt;&lt;br&gt;&lt;b&gt;BlastP hit with ctg1_1252&lt;/b&gt;&lt;br&gt;Percentage identity: 51&lt;br&gt;Percentage coverage: 97&lt;br&gt;BLAST bit score: 114&lt;br&gt;E-value: 3.52e-36" locus_tag="CLOSPO_RS07640" class="clusterblast-orf" id="dummy-7_h7_3_4"  />
</g>
<g id="a7_005"  >
<polygon points="457,90 458,85 457,80 457,90 " style="fill:white; stroke-width:1; stroke:black; " description="&lt;b&gt;CLOSPO_RS07645&lt;/b&gt;&lt;br&gt;hypothetical protein&lt;br&gt;Location: 5637 - 5704" locus_tag="CLOSPO_RS07645" class="clusterblast-orf" id="dummy-7_h7_3_5"  />
</g>
</svg>
