<svg xmlns="http://www.w3.org/2000/svg" xmlns:xlink="http://www.w3.org/1999/xlink" version="1.1" x="0" y="0" height="100" width="800" viewBox="0 0 800 100" preserveAspectRatio="none"  >
<g label="Query sequence" class="clusterblast-cluster"  >
<text x="5" y="20" class="clusterblast-acc"  >
Query sequence</text>
<line x1="10" y1="35" x2="778.0" y2="35" style="stroke-width:1; stroke:grey; "  />
<polygon points="0,40 22,40 27,35 22,30 0,30 0,40 " style="fill:white; stroke-width:1; stroke:black; " description="&lt;b&gt;ctg1_2723&lt;/b&gt;&lt;br&gt;ctg1 2723&lt;br&gt;Location: 2873561 - 2874311" locus_tag="ctg1_2723" class="clusterblast-orf" id="knownclusterblast-16_q0_0_all"  />
<polygon points="31,40 51,40 56,35 51,30 31,30 31,40 " style="fill:white; stroke-width:1; stroke:black; " description="&lt;b&gt;ctg1_2724&lt;/b&gt;&lt;br&gt;ctg1 2724&lt;br&gt;Location: 2874402 - 2875089" locus_tag="ctg1_2724" class="clusterblast-orf" id="knownclusterblast-16_q1_0_all"  />
<polygon points="57,35 62,30 73,30 73,40 62,40 57,35 " style="fill:white; stroke-width:1; stroke:black; " description="&lt;b&gt;ctg1_2725&lt;/b&gt;&lt;br&gt;ctg1 2725&lt;br&gt;Location: 2875140 - 2875572" locus_tag="ctg1_2725" class="clusterblast-orf" id="knownclusterblast-16_q2_0_all"  />
<polygon points="83,35 88,30 136,30 136,40 88,40 83,35 " style="fill:white; stroke-width:1; stroke:black; " description="&lt;b&gt;ctg1_2726&lt;/b&gt;&lt;br&gt;ctg1 2726&lt;br&gt;Location: 2875836 - 2877300" locus_tag="ctg1_2726" class="clusterblast-orf" id="knownclusterblast-16_q3_0_all"  />
<polygon points="147,35 152,30 194,30 194,40 152,40 147,35 " style="fill:white; stroke-width:1; stroke:black; " description="&lt;b&gt;ctg1_2727&lt;/b&gt;&lt;br&gt;ctg1 2727&lt;br&gt;Location: 2877586 - 2878870" locus_tag="ctg1_2727" class="clusterblast-orf" id="knownclusterblast-16_q4_0_all"  />
<polygon points="198,35 203,30 210,30 210,40 203,40 198,35 " style="fill:white; stroke-width:1; stroke:black; " description="&lt;b&gt;ctg1_2728&lt;/b&gt;&lt;br&gt;ctg1 2728&lt;br&gt;Location: 2878984 - 2879311" locus_tag="ctg1_2728" class="clusterblast-orf" id="knownclusterblast-16_q5_0_all"  />
<polygon points="215,40 222,40 227,35 222,30 215,30 215,40 " style="fill:white; stroke-width:1; stroke:black; " description="&lt;b&gt;ctg1_2729&lt;/b&gt;&lt;br&gt;ctg1 2729&lt;br&gt;Location: 2879455 - 2879797" locus_tag="ctg1_2729" class="clusterblast-orf" id="knownclusterblast-16_q6_0_all"  />
<polygon points="230,40 246,40 251,35 246,30 230,30 230,40 " style="fill:white; stroke-width:1; stroke:black; " description="&lt;b&gt;ctg1_2730&lt;/b&gt;&lt;br&gt;ctg1 2730&lt;br&gt;Location: 2879875 - 2880436" locus_tag="ctg1_2730" class="clusterblast-orf" id="knownclusterblast-16_q7_0_all"  />
<polygon points="250,35 255,30 276,30 276,40 255,40 250,35 " style="fill:white; stroke-width:1; stroke:black; " description="&lt;b&gt;ctg1_2731&lt;/b&gt;&lt;br&gt;ctg1 2731&lt;br&gt;Location: 2880429 - 2881140" locus_tag="ctg1_2731" class="clusterblast-orf" id="knownclusterblast-16_q8_0_all"  />
<polygon points="280,40 285,40 290,35 285,30 280,30 280,40 " style="fill:white; stroke-width:1; stroke:black; " description="&lt;b&gt;ctg1_2732&lt;/b&gt;&lt;br&gt;ctg1 2732&lt;br&gt;Location: 2881241 - 2881511" locus_tag="ctg1_2732" class="clusterblast-orf" id="knownclusterblast-16_q9_0_all"  />
<polygon points="295,40 379,40 384,35 379,30 295,30 295,40 " style="fill:#d81515; stroke-width:1; stroke:black; " description="&lt;b&gt;ctg1_2733&lt;/b&gt;&lt;br&gt;ctg1 2733&lt;br&gt;Location: 2881661 - 2884097" locus_tag="ctg1_2733" class="clusterblast-orf" id="knownclusterblast-16_q10_0_all"  />
<polygon points="385,40 402,40 407,35 402,30 385,30 385,40 " style="fill:#15d815; stroke-width:1; stroke:black; " description="&lt;b&gt;ctg1_2734&lt;/b&gt;&lt;br&gt;ctg1 2734&lt;br&gt;Location: 2884107 - 2884725" locus_tag="ctg1_2734" class="clusterblast-orf" id="knownclusterblast-16_q11_0_all"  />
<polygon points="407,40 433,40 438,35 433,30 407,30 407,40 " style="fill:#1515d8; stroke-width:1; stroke:black; " description="&lt;b&gt;ctg1_2735&lt;/b&gt;&lt;br&gt;ctg1 2735&lt;br&gt;Location: 2884726 - 2885584" locus_tag="ctg1_2735" class="clusterblast-orf" id="knownclusterblast-16_q12_0_all"  />
<polygon points="440,40 457,40 462,35 457,30 440,30 440,40 " style="fill:white; stroke-width:1; stroke:black; " description="&lt;b&gt;ctg1_2736&lt;/b&gt;&lt;br&gt;ctg1 2736&lt;br&gt;Location: 2885625 - 2886234" locus_tag="ctg1_2736" class="clusterblast-orf" id="knownclusterblast-16_q13_0_all"  />
<polygon points="467,40 509,40 514,35 509,30 467,30 467,40 " style="fill:white; stroke-width:1; stroke:black; " description="&lt;b&gt;ctg1_2737&lt;/b&gt;&lt;br&gt;ctg1 2737&lt;br&gt;Location: 2886367 - 2887663" locus_tag="ctg1_2737" class="clusterblast-orf" id="knownclusterblast-16_q14_0_all"  />
<polygon points="512,35 517,30 538,30 538,40 517,40 512,35 " style="fill:white; stroke-width:1; stroke:black; " description="&lt;b&gt;ctg1_2738&lt;/b&gt;&lt;br&gt;ctg1 2738&lt;br&gt;Location: 2887615 - 2888311" locus_tag="ctg1_2738" class="clusterblast-orf" id="knownclusterblast-16_q15_0_all"  />
<polygon points="543,35 548,30 587,30 587,40 548,40 543,35 " style="fill:white; stroke-width:1; stroke:black; " description="&lt;b&gt;ctg1_2739&lt;/b&gt;&lt;br&gt;ctg1 2739&lt;br&gt;Location: 2888438 - 2889662" locus_tag="ctg1_2739" class="clusterblast-orf" id="knownclusterblast-16_q16_0_all"  />
<polygon points="592,35 597,30 625,30 625,40 597,40 592,35 " style="fill:white; stroke-width:1; stroke:black; " description="&lt;b&gt;ctg1_2740&lt;/b&gt;&lt;br&gt;ctg1 2740&lt;br&gt;Location: 2889783 - 2890686" locus_tag="ctg1_2740" class="clusterblast-orf" id="knownclusterblast-16_q17_0_all"  />
<polygon points="629,40 670,40 675,35 670,30 629,30 629,40 " style="fill:white; stroke-width:1; stroke:black; " description="&lt;b&gt;ctg1_2741&lt;/b&gt;&lt;br&gt;ctg1 2741&lt;br&gt;Location: 2890816 - 2892067" locus_tag="ctg1_2741" class="clusterblast-orf" id="knownclusterblast-16_q18_0_all"  />
<polygon points="687,40 737,40 742,35 737,30 687,30 687,40 " style="fill:white; stroke-width:1; stroke:black; " description="&lt;b&gt;ctg1_2742&lt;/b&gt;&lt;br&gt;ctg1 2742&lt;br&gt;Location: 2892406 - 2893894" locus_tag="ctg1_2742" class="clusterblast-orf" id="knownclusterblast-16_q19_0_all"  />
<polygon points="748,35 753,30 762,30 762,40 753,40 748,35 " style="fill:white; stroke-width:1; stroke:black; " description="&lt;b&gt;ctg1_2743&lt;/b&gt;&lt;br&gt;ctg1 2743&lt;br&gt;Location: 2894081 - 2894453" locus_tag="ctg1_2743" class="clusterblast-orf" id="knownclusterblast-16_q20_0_all"  />
<polygon points="776,35 780,30 780,40 776,35 " style="fill:white; stroke-width:1; stroke:black; " description="&lt;b&gt;ctg1_2744&lt;/b&gt;&lt;br&gt;ctg1 2744&lt;br&gt;Location: 2894840 - 2894945" locus_tag="ctg1_2744" class="clusterblast-orf" id="knownclusterblast-16_q21_0_all"  />
</g>
<g label="MGC00000046" description="MGC00000046_c1: DMSO-TMAO reducatse E. coli (100% of genes show similarity), DMSAO-TMAO" class="clusterblast-cluster"  >
<text x="5" y="70" class="clusterblast-acc"  >
MGC00000046_c1: DMSO-TMAO reducatse E. coli (100% of genes show similarity), DMSAO-TMAO</text>
<line x1="10" y1="85" x2="778.0" y2="85" style="stroke-width:1; stroke:grey; "  />
</g>
<g id="a16_000"  >
<polygon points="273,90 356,90 361,85 356,80 273,80 273,90 " style="fill:#d81515; stroke-width:1; stroke:black; " description="&lt;b&gt;b1587&lt;/b&gt;&lt;br&gt;putative selenate reductase YnfE&lt;br&gt;Location: 10000 - 12427&lt;br&gt;&lt;br&gt;&lt;b&gt;BlastP hit with ctg1_2733&lt;/b&gt;&lt;br&gt;Percentage identity: 86&lt;br&gt;Percentage coverage: 100&lt;br&gt;BLAST bit score: 1441&lt;br&gt;E-value: 0.0" locus_tag="b1587" class="clusterblast-orf" id="knownclusterblast-16_all_16_1_0"  />
</g>
<g id="a16_001"  >
<polygon points="364,90 447,90 452,85 447,80 364,80 364,90 " style="fill:#d81515; stroke-width:1; stroke:black; " description="&lt;b&gt;b1588&lt;/b&gt;&lt;br&gt;putative selenate reductase YnfF&lt;br&gt;Location: 12487 - 14911&lt;br&gt;&lt;br&gt;&lt;b&gt;BlastP hit with ctg1_2733&lt;/b&gt;&lt;br&gt;Percentage identity: 70&lt;br&gt;Percentage coverage: 99&lt;br&gt;BLAST bit score: 1181&lt;br&gt;E-value: 0.0" locus_tag="b1588" class="clusterblast-orf" id="knownclusterblast-16_all_16_1_1"  />
</g>
<g id="a16_002"  >
<polygon points="452,90 470,90 475,85 470,80 452,80 452,90 " style="fill:#15d815; stroke-width:1; stroke:black; " description="&lt;b&gt;b1589&lt;/b&gt;&lt;br&gt;putative oxidoreductase YnfG&lt;br&gt;Location: 14921 - 15539&lt;br&gt;&lt;br&gt;&lt;b&gt;BlastP hit with ctg1_2734&lt;/b&gt;&lt;br&gt;Percentage identity: 88&lt;br&gt;Percentage coverage: 100&lt;br&gt;BLAST bit score: 406&lt;br&gt;E-value: 6.74e-149" locus_tag="b1589" class="clusterblast-orf" id="knownclusterblast-16_all_16_1_2"  />
</g>
<g id="a16_003"  >
<polygon points="475,90 501,90 506,85 501,80 475,80 475,90 " style="fill:#1515d8; stroke-width:1; stroke:black; " description="&lt;b&gt;b1590&lt;/b&gt;&lt;br&gt;putative menaquinol dehydrogenase&lt;br&gt;Location: 15540 - 16395&lt;br&gt;&lt;br&gt;&lt;b&gt;BlastP hit with ctg1_2735&lt;/b&gt;&lt;br&gt;Percentage identity: 68&lt;br&gt;Percentage coverage: 100&lt;br&gt;BLAST bit score: 392&lt;br&gt;E-value: 1.67e-140" locus_tag="b1590" class="clusterblast-orf" id="knownclusterblast-16_all_16_1_3"  />
</g>
</svg>
