<svg xmlns="http://www.w3.org/2000/svg" xmlns:xlink="http://www.w3.org/1999/xlink" version="1.1" x="0" y="0" height="200" width="800" viewBox="0 0 800 200" preserveAspectRatio="none"  >
<g label="Query sequence" class="clusterblast-cluster"  >
<text x="5" y="20" class="clusterblast-acc"  >
Query sequence</text>
<line x1="10" y1="35" x2="778.0" y2="35" style="stroke-width:1; stroke:grey; "  />
<polygon points="0,40 43,40 48,35 43,30 0,30 0,40 " style="fill:white; stroke-width:1; stroke:black; " description="&lt;b&gt;ctg1_1246&lt;/b&gt;&lt;br&gt;ctg1 1246&lt;br&gt;Location: 1325116 - 1327099" locus_tag="ctg1_1246" class="clusterblast-orf" id="knownclusterblast-7_q0_0_all"  />
<polygon points="49,40 58,40 63,35 58,30 49,30 49,40 " style="fill:white; stroke-width:1; stroke:black; " description="&lt;b&gt;ctg1_1247&lt;/b&gt;&lt;br&gt;ctg1 1247&lt;br&gt;Location: 1327157 - 1327754" locus_tag="ctg1_1247" class="clusterblast-orf" id="knownclusterblast-7_q1_0_all"  />
<polygon points="65,40 85,40 90,35 85,30 65,30 65,40 " style="fill:white; stroke-width:1; stroke:black; " description="&lt;b&gt;ctg1_1248&lt;/b&gt;&lt;br&gt;ctg1 1248&lt;br&gt;Location: 1327817 - 1328864" locus_tag="ctg1_1248" class="clusterblast-orf" id="knownclusterblast-7_q2_0_all"  />
<polygon points="90,35 95,30 138,30 138,40 95,40 90,35 " style="fill:white; stroke-width:1; stroke:black; " description="&lt;b&gt;ctg1_1249&lt;/b&gt;&lt;br&gt;ctg1 1249&lt;br&gt;Location: 1328853 - 1330848" locus_tag="ctg1_1249" class="clusterblast-orf" id="knownclusterblast-7_q3_0_all"  />
<polygon points="139,35 144,30 162,30 162,40 144,40 139,35 " style="fill:white; stroke-width:1; stroke:black; " description="&lt;b&gt;ctg1_1250&lt;/b&gt;&lt;br&gt;ctg1 1250&lt;br&gt;Location: 1330864 - 1331821" locus_tag="ctg1_1250" class="clusterblast-orf" id="knownclusterblast-7_q4_0_all"  />
<polygon points="169,40 219,40 224,35 219,30 169,30 169,40 " style="fill:#d81515; stroke-width:1; stroke:black; " description="&lt;b&gt;ctg1_1251&lt;/b&gt;&lt;br&gt;ctg1 1251&lt;br&gt;Location: 1332115 - 1334395" locus_tag="ctg1_1251" class="clusterblast-orf" id="knownclusterblast-7_q5_0_all"  />
<polygon points="229,40 232,40 237,35 232,30 229,30 229,40 " style="fill:#77d815; stroke-width:1; stroke:black; " description="&lt;b&gt;ctg1_1252&lt;/b&gt;&lt;br&gt;ctg1 1252&lt;br&gt;Location: 1334613 - 1334949" locus_tag="ctg1_1252" class="clusterblast-orf" id="knownclusterblast-7_q6_0_all"  />
<polygon points="238,40 244,40 249,35 244,30 238,30 238,40 " style="fill:#15d8d8; stroke-width:1; stroke:black; " description="&lt;b&gt;ctg1_1253&lt;/b&gt;&lt;br&gt;ctg1 1253&lt;br&gt;Location: 1334961 - 1335441" locus_tag="ctg1_1253" class="clusterblast-orf" id="knownclusterblast-7_q7_0_all"  />
<polygon points="249,40 260,40 265,35 260,30 249,30 249,40 " style="fill:#7715d8; stroke-width:1; stroke:black; " description="&lt;b&gt;ctg1_1254&lt;/b&gt;&lt;br&gt;ctg1 1254&lt;br&gt;Location: 1335418 - 1336108" locus_tag="ctg1_1254" class="clusterblast-orf" id="knownclusterblast-7_q8_0_all"  />
<polygon points="265,40 280,40 285,35 280,30 265,30 265,40 " style="fill:#d85e15; stroke-width:1; stroke:black; " description="&lt;b&gt;ctg1_1255&lt;/b&gt;&lt;br&gt;ctg1 1255&lt;br&gt;Location: 1336104 - 1336914" locus_tag="ctg1_1255" class="clusterblast-orf" id="knownclusterblast-7_q9_0_all"  />
<polygon points="285,40 304,40 309,35 304,30 285,30 285,40 " style="fill:#d81515; stroke-width:1; stroke:black; " description="&lt;b&gt;ctg1_1256&lt;/b&gt;&lt;br&gt;ctg1 1256&lt;br&gt;Location: 1336903 - 1337920" locus_tag="ctg1_1256" class="clusterblast-orf" id="knownclusterblast-7_q10_0_all"  />
<polygon points="310,40 312,40 317,35 312,30 310,30 310,40 " style="fill:#2ed815; stroke-width:1; stroke:black; " description="&lt;b&gt;ctg1_1257&lt;/b&gt;&lt;br&gt;ctg1 1257&lt;br&gt;Location: 1337958 - 1338249" locus_tag="ctg1_1257" class="clusterblast-orf" id="knownclusterblast-7_q11_0_all"  />
<polygon points="320,40 322,40 327,35 322,30 320,30 320,40 " style="fill:#158fd8; stroke-width:1; stroke:black; " description="&lt;b&gt;ctg1_1258&lt;/b&gt;&lt;br&gt;ctg1 1258&lt;br&gt;Location: 1338377 - 1338665" locus_tag="ctg1_1258" class="clusterblast-orf" id="knownclusterblast-7_q12_0_all"  />
<polygon points="327,40 356,40 361,35 356,30 327,30 327,40 " style="fill:#c015d8; stroke-width:1; stroke:black; " description="&lt;b&gt;ctg1_1259&lt;/b&gt;&lt;br&gt;ctg1 1259&lt;br&gt;Location: 1338676 - 1340080" locus_tag="ctg1_1259" class="clusterblast-orf" id="knownclusterblast-7_q13_0_all"  />
<polygon points="362,40 377,40 382,35 377,30 362,30 362,40 " style="fill:#d8a715; stroke-width:1; stroke:black; " description="&lt;b&gt;ctg1_1260&lt;/b&gt;&lt;br&gt;ctg1 1260&lt;br&gt;Location: 1340089 - 1340929" locus_tag="ctg1_1260" class="clusterblast-orf" id="knownclusterblast-7_q14_0_all"  />
<polygon points="382,40 405,40 410,35 405,30 382,30 382,40 " style="fill:#15d846; stroke-width:1; stroke:black; " description="&lt;b&gt;ctg1_1261&lt;/b&gt;&lt;br&gt;ctg1 1261&lt;br&gt;Location: 1340918 - 1342106" locus_tag="ctg1_1261" class="clusterblast-orf" id="knownclusterblast-7_q15_0_all"  />
<polygon points="415,40 440,40 445,35 440,30 415,30 415,40 " style="fill:#1546d8; stroke-width:1; stroke:black; " description="&lt;b&gt;ctg1_1262&lt;/b&gt;&lt;br&gt;ctg1 1262&lt;br&gt;Location: 1342305 - 1343538" locus_tag="ctg1_1262" class="clusterblast-orf" id="knownclusterblast-7_q16_0_all"  />
<polygon points="445,40 474,40 479,35 474,30 445,30 445,40 " style="fill:#d815a7; stroke-width:1; stroke:black; " description="&lt;b&gt;ctg1_1263&lt;/b&gt;&lt;br&gt;ctg1 1263&lt;br&gt;Location: 1343534 - 1344938" locus_tag="ctg1_1263" class="clusterblast-orf" id="knownclusterblast-7_q17_0_all"  />
<polygon points="479,40 507,40 512,35 507,30 479,30 479,40 " style="fill:#c0d815; stroke-width:1; stroke:black; " description="&lt;b&gt;ctg1_1264&lt;/b&gt;&lt;br&gt;ctg1 1264&lt;br&gt;Location: 1344949 - 1346311" locus_tag="ctg1_1264" class="clusterblast-orf" id="knownclusterblast-7_q18_0_all"  />
<polygon points="512,40 529,40 534,35 529,30 512,30 512,40 " style="fill:#15d88f; stroke-width:1; stroke:black; " description="&lt;b&gt;ctg1_1265&lt;/b&gt;&lt;br&gt;ctg1 1265&lt;br&gt;Location: 1346331 - 1347234" locus_tag="ctg1_1265" class="clusterblast-orf" id="knownclusterblast-7_q19_0_all"  />
<polygon points="534,40 545,40 550,35 545,30 534,30 534,40 " style="fill:#2e15d8; stroke-width:1; stroke:black; " description="&lt;b&gt;ctg1_1266&lt;/b&gt;&lt;br&gt;ctg1 1266&lt;br&gt;Location: 1347243 - 1347903" locus_tag="ctg1_1266" class="clusterblast-orf" id="knownclusterblast-7_q20_0_all"  />
<polygon points="551,40 557,40 562,35 557,30 551,30 551,40 " style="fill:#2ed815; stroke-width:1; stroke:black; " description="&lt;b&gt;ctg1_1267&lt;/b&gt;&lt;br&gt;ctg1 1267&lt;br&gt;Location: 1347914 - 1348400" locus_tag="ctg1_1267" class="clusterblast-orf" id="knownclusterblast-7_q21_0_all"  />
<polygon points="563,40 584,40 589,35 584,30 563,30 563,40 " style="fill:#d8155e; stroke-width:1; stroke:black; " description="&lt;b&gt;ctg1_1268&lt;/b&gt;&lt;br&gt;ctg1 1268&lt;br&gt;Location: 1348445 - 1349498" locus_tag="ctg1_1268" class="clusterblast-orf" id="knownclusterblast-7_q22_0_all"  />
<polygon points="590,35 595,30 612,30 612,40 595,40 590,35 " style="fill:white; stroke-width:1; stroke:black; " description="&lt;b&gt;ctg1_1269&lt;/b&gt;&lt;br&gt;ctg1 1269&lt;br&gt;Location: 1349541 - 1350441" locus_tag="ctg1_1269" class="clusterblast-orf" id="knownclusterblast-7_q23_0_all"  />
<polygon points="612,35 617,30 633,30 633,40 617,40 612,35 " style="fill:white; stroke-width:1; stroke:black; " description="&lt;b&gt;ctg1_1270&lt;/b&gt;&lt;br&gt;ctg1 1270&lt;br&gt;Location: 1350440 - 1351313" locus_tag="ctg1_1270" class="clusterblast-orf" id="knownclusterblast-7_q24_0_all"  />
<polygon points="638,40 643,40 648,35 643,30 638,30 638,40 " style="fill:white; stroke-width:1; stroke:black; " description="&lt;b&gt;ctg1_1271&lt;/b&gt;&lt;br&gt;ctg1 1271&lt;br&gt;Location: 1351524 - 1351950" locus_tag="ctg1_1271" class="clusterblast-orf" id="knownclusterblast-7_q25_0_all"  />
<polygon points="648,40 654,40 659,35 654,30 648,30 648,40 " style="fill:white; stroke-width:1; stroke:black; " description="&lt;b&gt;ctg1_1272&lt;/b&gt;&lt;br&gt;ctg1 1272&lt;br&gt;Location: 1351936 - 1352386" locus_tag="ctg1_1272" class="clusterblast-orf" id="knownclusterblast-7_q26_0_all"  />
<polygon points="660,40 669,40 674,35 669,30 660,30 660,40 " style="fill:white; stroke-width:1; stroke:black; " description="&lt;b&gt;ctg1_1273&lt;/b&gt;&lt;br&gt;ctg1 1273&lt;br&gt;Location: 1352447 - 1353023" locus_tag="ctg1_1273" class="clusterblast-orf" id="knownclusterblast-7_q27_0_all"  />
<polygon points="676,40 693,40 698,35 693,30 676,30 676,40 " style="fill:white; stroke-width:1; stroke:black; " description="&lt;b&gt;ctg1_1274&lt;/b&gt;&lt;br&gt;ctg1 1274&lt;br&gt;Location: 1353117 - 1354017" locus_tag="ctg1_1274" class="clusterblast-orf" id="knownclusterblast-7_q28_0_all"  />
<polygon points="714,40 733,40 738,35 733,30 714,30 714,40 " style="fill:white; stroke-width:1; stroke:black; " description="&lt;b&gt;ctg1_1275&lt;/b&gt;&lt;br&gt;ctg1 1275&lt;br&gt;Location: 1354674 - 1355691" locus_tag="ctg1_1275" class="clusterblast-orf" id="knownclusterblast-7_q29_0_all"  />
<polygon points="738,40 754,40 759,35 754,30 738,30 738,40 " style="fill:white; stroke-width:1; stroke:black; " description="&lt;b&gt;ctg1_1276&lt;/b&gt;&lt;br&gt;ctg1 1276&lt;br&gt;Location: 1355690 - 1356524" locus_tag="ctg1_1276" class="clusterblast-orf" id="knownclusterblast-7_q30_0_all"  />
<polygon points="759,40 775,40 780,35 775,30 759,30 759,40 " style="fill:white; stroke-width:1; stroke:black; " description="&lt;b&gt;ctg1_1277&lt;/b&gt;&lt;br&gt;ctg1 1277&lt;br&gt;Location: 1356523 - 1357399" locus_tag="ctg1_1277" class="clusterblast-orf" id="knownclusterblast-7_q31_0_all"  />
</g>
<g label="MGC0000003" description="MGC0000003_c1: Ethanolamine degradation S. typhimurium (94% of genes show similarity), EUT" class="clusterblast-cluster"  >
<text x="5" y="70" class="clusterblast-acc"  >
MGC0000003_c1: Ethanolamine degradation S. typhimurium (94% of genes show similarity), EUT</text>
<line x1="10" y1="85" x2="778.0" y2="85" style="stroke-width:1; stroke:grey; "  />
</g>
<g id="a7_000"  >
<polygon points="170,90 220,90 225,85 220,80 170,80 170,90 " style="fill:#d81515; stroke-width:1; stroke:black; " description="&lt;b&gt;STM2472&lt;/b&gt;&lt;br&gt;malic enzyme&lt;br&gt;Location: 18301 - 16021&lt;br&gt;&lt;br&gt;&lt;b&gt;BlastP hit with ctg1_1251&lt;/b&gt;&lt;br&gt;Percentage identity: 93&lt;br&gt;Percentage coverage: 100&lt;br&gt;BLAST bit score: 1375&lt;br&gt;E-value: 0.0&lt;br&gt;&lt;br&gt;&lt;b&gt;BlastP hit with ctg1_1256&lt;/b&gt;&lt;br&gt;Percentage identity: 33&lt;br&gt;Percentage coverage: 98&lt;br&gt;BLAST bit score: 137&lt;br&gt;E-value: 9.43e-38" locus_tag="STM2472" class="clusterblast-orf" id="knownclusterblast-7_all_7_1_0"  />
</g>
<g id="a7_001"  >
<polygon points="229,90 235,90 240,85 235,80 229,80 229,90 " style="fill:white; stroke-width:1; stroke:black; " description="&lt;b&gt;STM2471&lt;/b&gt;&lt;br&gt;insertion sequence element IS200 transposase&lt;br&gt;Location: 15832 - 15373" locus_tag="STM2471" class="clusterblast-orf" id="knownclusterblast-7_all_7_1_1"  />
</g>
<g id="a7_002"  >
<polygon points="252,90 255,90 260,85 255,80 252,80 252,90 " style="fill:#77d815; stroke-width:1; stroke:black; " description="&lt;b&gt;STM2470&lt;/b&gt;&lt;br&gt;carboxysome structural protein EutS&lt;br&gt;Location: 14893 - 14557&lt;br&gt;&lt;br&gt;&lt;b&gt;BlastP hit with ctg1_1252&lt;/b&gt;&lt;br&gt;Percentage identity: 93&lt;br&gt;Percentage coverage: 100&lt;br&gt;BLAST bit score: 207&lt;br&gt;E-value: 5.65e-73" locus_tag="STM2470" class="clusterblast-orf" id="knownclusterblast-7_all_7_1_2"  />
</g>
<g id="a7_003"  >
<polygon points="260,90 267,90 272,85 267,80 260,80 260,90 " style="fill:#15d8d8; stroke-width:1; stroke:black; " description="&lt;b&gt;STM2469&lt;/b&gt;&lt;br&gt;ethanolamine utilization protein EutP&lt;br&gt;Location: 14545 - 14065&lt;br&gt;&lt;br&gt;&lt;b&gt;BlastP hit with ctg1_1253&lt;/b&gt;&lt;br&gt;Percentage identity: 77&lt;br&gt;Percentage coverage: 99&lt;br&gt;BLAST bit score: 249&lt;br&gt;E-value: 3.29e-88" locus_tag="STM2469" class="clusterblast-orf" id="knownclusterblast-7_all_7_1_3"  />
</g>
<g id="a7_004"  >
<polygon points="271,90 283,90 288,85 283,80 271,80 271,90 " style="fill:#7715d8; stroke-width:1; stroke:black; " description="&lt;b&gt;STM2468&lt;/b&gt;&lt;br&gt;ethanolamine utilization protein EutQ&lt;br&gt;Location: 14088 - 13398&lt;br&gt;&lt;br&gt;&lt;b&gt;BlastP hit with ctg1_1254&lt;/b&gt;&lt;br&gt;Percentage identity: 87&lt;br&gt;Percentage coverage: 100&lt;br&gt;BLAST bit score: 395&lt;br&gt;E-value: 1.57e-143" locus_tag="STM2468" class="clusterblast-orf" id="knownclusterblast-7_all_7_1_4"  />
</g>
<g id="a7_005"  >
<polygon points="288,90 302,90 307,85 302,80 288,80 288,90 " style="fill:#d85e15; stroke-width:1; stroke:black; " description="&lt;b&gt;STM2467&lt;/b&gt;&lt;br&gt;cobalamin adenosyltransferase EutT&lt;br&gt;Location: 13402 - 12598&lt;br&gt;&lt;br&gt;&lt;b&gt;BlastP hit with ctg1_1255&lt;/b&gt;&lt;br&gt;Percentage identity: 80&lt;br&gt;Percentage coverage: 98&lt;br&gt;BLAST bit score: 421&lt;br&gt;E-value: 1.32e-152" locus_tag="STM2467" class="clusterblast-orf" id="knownclusterblast-7_all_7_1_5"  />
</g>
<g id="a7_006"  >
<polygon points="307,90 327,90 332,85 327,80 307,80 307,90 " style="fill:#d81515; stroke-width:1; stroke:black; " description="&lt;b&gt;STM2466&lt;/b&gt;&lt;br&gt;phosphotransacetylase EutD&lt;br&gt;Location: 12602 - 11585&lt;br&gt;&lt;br&gt;&lt;b&gt;BlastP hit with ctg1_1251&lt;/b&gt;&lt;br&gt;Percentage identity: 32&lt;br&gt;Percentage coverage: 43&lt;br&gt;BLAST bit score: 150&lt;br&gt;E-value: 8.02e-42&lt;br&gt;&lt;br&gt;&lt;b&gt;BlastP hit with ctg1_1256&lt;/b&gt;&lt;br&gt;Percentage identity: 81&lt;br&gt;Percentage coverage: 100&lt;br&gt;BLAST bit score: 537&lt;br&gt;E-value: 3.84e-196" locus_tag="STM2466" class="clusterblast-orf" id="knownclusterblast-7_all_7_1_6"  />
</g>
<g id="a7_007"  >
<polygon points="333,90 335,90 340,85 335,80 333,80 333,90 " style="fill:#2ed815; stroke-width:1; stroke:black; " description="&lt;b&gt;STM2465&lt;/b&gt;&lt;br&gt;carboxysome structural protein EutM&lt;br&gt;Location: 11545 - 11254&lt;br&gt;&lt;br&gt;&lt;b&gt;BlastP hit with ctg1_1257&lt;/b&gt;&lt;br&gt;Percentage identity: 99&lt;br&gt;Percentage coverage: 100&lt;br&gt;BLAST bit score: 174&lt;br&gt;E-value: 1.24e-60&lt;br&gt;&lt;br&gt;&lt;b&gt;BlastP hit with ctg1_1267&lt;/b&gt;&lt;br&gt;Percentage identity: 44&lt;br&gt;Percentage coverage: 53&lt;br&gt;BLAST bit score: 73&lt;br&gt;E-value: 1.55e-19" locus_tag="STM2465" class="clusterblast-orf" id="knownclusterblast-7_all_7_1_7"  />
</g>
<g id="a7_008"  >
<polygon points="343,90 345,90 350,85 345,80 343,80 343,90 " style="fill:#158fd8; stroke-width:1; stroke:black; " description="&lt;b&gt;STM2464&lt;/b&gt;&lt;br&gt;microcompartment shell protein EutN&lt;br&gt;Location: 11142 - 10854&lt;br&gt;&lt;br&gt;&lt;b&gt;BlastP hit with ctg1_1258&lt;/b&gt;&lt;br&gt;Percentage identity: 81&lt;br&gt;Percentage coverage: 100&lt;br&gt;BLAST bit score: 158&lt;br&gt;E-value: 2.93e-54" locus_tag="STM2464" class="clusterblast-orf" id="knownclusterblast-7_all_7_1_8"  />
</g>
<g id="a7_009"  >
<polygon points="350,90 379,90 384,85 379,80 350,80 350,90 " style="fill:#c015d8; stroke-width:1; stroke:black; " description="&lt;b&gt;STM2463&lt;/b&gt;&lt;br&gt;aldehyde oxidoreductase EutE&lt;br&gt;Location: 10843 - 9439&lt;br&gt;&lt;br&gt;&lt;b&gt;BlastP hit with ctg1_1259&lt;/b&gt;&lt;br&gt;Percentage identity: 95&lt;br&gt;Percentage coverage: 100&lt;br&gt;BLAST bit score: 834&lt;br&gt;E-value: 2.88e-309" locus_tag="STM2463" class="clusterblast-orf" id="knownclusterblast-7_all_7_1_9"  />
</g>
<g id="a7_0010"  >
<polygon points="384,90 399,90 404,85 399,80 384,80 384,90 " style="fill:#d8a715; stroke-width:1; stroke:black; " description="&lt;b&gt;STM2462&lt;/b&gt;&lt;br&gt;ethanolamine utilization protein EutJ&lt;br&gt;Location: 9429 - 8589&lt;br&gt;&lt;br&gt;&lt;b&gt;BlastP hit with ctg1_1260&lt;/b&gt;&lt;br&gt;Percentage identity: 90&lt;br&gt;Percentage coverage: 100&lt;br&gt;BLAST bit score: 509&lt;br&gt;E-value: 2.77e-187" locus_tag="STM2462" class="clusterblast-orf" id="knownclusterblast-7_all_7_1_10"  />
</g>
<g id="a7_0011"  >
<polygon points="404,90 428,90 433,85 428,80 404,80 404,90 " style="fill:#15d846; stroke-width:1; stroke:black; " description="&lt;b&gt;STM2461&lt;/b&gt;&lt;br&gt;ethanol dehydrogenase EutG&lt;br&gt;Location: 8600 - 7412&lt;br&gt;&lt;br&gt;&lt;b&gt;BlastP hit with ctg1_1261&lt;/b&gt;&lt;br&gt;Percentage identity: 86&lt;br&gt;Percentage coverage: 100&lt;br&gt;BLAST bit score: 649&lt;br&gt;E-value: 1.44e-238" locus_tag="STM2461" class="clusterblast-orf" id="knownclusterblast-7_all_7_1_11"  />
</g>
<g id="a7_0012"  >
<polygon points="436,90 460,90 465,85 460,80 436,80 436,90 " style="fill:#1546d8; stroke-width:1; stroke:black; " description="&lt;b&gt;STM2460&lt;/b&gt;&lt;br&gt;ethanolamine transporter EutH&lt;br&gt;Location: 7293 - 6066&lt;br&gt;&lt;br&gt;&lt;b&gt;BlastP hit with ctg1_1262&lt;/b&gt;&lt;br&gt;Percentage identity: 93&lt;br&gt;Percentage coverage: 100&lt;br&gt;BLAST bit score: 721&lt;br&gt;E-value: 9.85e-267" locus_tag="STM2460" class="clusterblast-orf" id="knownclusterblast-7_all_7_1_12"  />
</g>
<g id="a7_0013"  >
<polygon points="465,90 494,90 499,85 494,80 465,80 465,90 " style="fill:#d815a7; stroke-width:1; stroke:black; " description="&lt;b&gt;STM2459&lt;/b&gt;&lt;br&gt;ethanolamine utilization protein EutA&lt;br&gt;Location: 6070 - 4666&lt;br&gt;&lt;br&gt;&lt;b&gt;BlastP hit with ctg1_1263&lt;/b&gt;&lt;br&gt;Percentage identity: 89&lt;br&gt;Percentage coverage: 100&lt;br&gt;BLAST bit score: 796&lt;br&gt;E-value: 2.44e-294" locus_tag="STM2459" class="clusterblast-orf" id="knownclusterblast-7_all_7_1_13"  />
</g>
<g id="a7_0014"  >
<polygon points="499,90 527,90 532,85 527,80 499,80 499,90 " style="fill:#c0d815; stroke-width:1; stroke:black; " description="&lt;b&gt;STM2458&lt;/b&gt;&lt;br&gt;ethanolamine ammonia-lyase large subunit EutB&lt;br&gt;Location: 4655 - 3293&lt;br&gt;&lt;br&gt;&lt;b&gt;BlastP hit with ctg1_1264&lt;/b&gt;&lt;br&gt;Percentage identity: 96&lt;br&gt;Percentage coverage: 100&lt;br&gt;BLAST bit score: 870&lt;br&gt;E-value: 0.0" locus_tag="STM2458" class="clusterblast-orf" id="knownclusterblast-7_all_7_1_14"  />
</g>
<g id="a7_0015"  >
<polygon points="533,90 549,90 554,85 549,80 533,80 533,90 " style="fill:#15d88f; stroke-width:1; stroke:black; " description="&lt;b&gt;STM2457&lt;/b&gt;&lt;br&gt;ethanolamine ammonia-lyase small subunit EutC&lt;br&gt;Location: 3275 - 2378&lt;br&gt;&lt;br&gt;&lt;b&gt;BlastP hit with ctg1_1265&lt;/b&gt;&lt;br&gt;Percentage identity: 89&lt;br&gt;Percentage coverage: 100&lt;br&gt;BLAST bit score: 509&lt;br&gt;E-value: 1.83e-186" locus_tag="STM2457" class="clusterblast-orf" id="knownclusterblast-7_all_7_1_15"  />
</g>
<g id="a7_0016"  >
<polygon points="555,90 566,90 571,85 566,80 555,80 555,90 " style="fill:#2e15d8; stroke-width:1; stroke:black; " description="&lt;b&gt;STM2456&lt;/b&gt;&lt;br&gt;carboxysome structural protein EutL&lt;br&gt;Location: 2369 - 1709&lt;br&gt;&lt;br&gt;&lt;b&gt;BlastP hit with ctg1_1266&lt;/b&gt;&lt;br&gt;Percentage identity: 96&lt;br&gt;Percentage coverage: 100&lt;br&gt;BLAST bit score: 403&lt;br&gt;E-value: 3.26e-147" locus_tag="STM2456" class="clusterblast-orf" id="knownclusterblast-7_all_7_1_16"  />
</g>
<g id="a7_0017"  >
<polygon points="571,90 578,90 583,85 578,80 571,80 571,90 " style="fill:#2ed815; stroke-width:1; stroke:black; " description="&lt;b&gt;STM2455&lt;/b&gt;&lt;br&gt;carboxysome structural protein EutK&lt;br&gt;Location: 1697 - 1202&lt;br&gt;&lt;br&gt;&lt;b&gt;BlastP hit with ctg1_1257&lt;/b&gt;&lt;br&gt;Percentage identity: 48&lt;br&gt;Percentage coverage: 86&lt;br&gt;BLAST bit score: 73&lt;br&gt;E-value: 1.39e-19&lt;br&gt;&lt;br&gt;&lt;b&gt;BlastP hit with ctg1_1267&lt;/b&gt;&lt;br&gt;Percentage identity: 82&lt;br&gt;Percentage coverage: 102&lt;br&gt;BLAST bit score: 242&lt;br&gt;E-value: 3.31e-85" locus_tag="STM2455" class="clusterblast-orf" id="knownclusterblast-7_all_7_1_17"  />
</g>
<g id="a7_0018"  >
<polygon points="584,90 604,90 609,85 604,80 584,80 584,90 " style="fill:#d8155e; stroke-width:1; stroke:black; " description="&lt;b&gt;STM2454&lt;/b&gt;&lt;br&gt;HTH-type transcriptional regulator EutR&lt;br&gt;Location: 1155 - 102&lt;br&gt;&lt;br&gt;&lt;b&gt;BlastP hit with ctg1_1268&lt;/b&gt;&lt;br&gt;Percentage identity: 87&lt;br&gt;Percentage coverage: 100&lt;br&gt;BLAST bit score: 627&lt;br&gt;E-value: 1.54e-231" locus_tag="STM2454" class="clusterblast-orf" id="knownclusterblast-7_all_7_1_18"  />
</g>
<g label="MGC00000010" description="MGC00000010_c1: Propanediol degradation S. enterica (25% of genes show similarity), PDU" class="clusterblast-cluster"  >
<text x="5" y="120" class="clusterblast-acc"  >
MGC00000010_c1: Propanediol degradation S. enterica (25% of genes show similarity), PDU</text>
<line x1="10" y1="135" x2="778.0" y2="135" style="stroke-width:1; stroke:grey; "  />
</g>
<g id="a7_000"  >
<polygon points="155,135 160,130 177,130 177,140 160,140 155,135 " style="fill:white; stroke-width:1; stroke:black; " description="&lt;b&gt;STM2036&lt;/b&gt;&lt;br&gt;transcriptional regulator PocR&lt;br&gt;Location: 221 - 1133" locus_tag="STM2036" class="clusterblast-orf" id="knownclusterblast-7_all_7_2_0"  />
</g>
<g id="a7_001"  >
<polygon points="182,135 187,130 201,130 201,140 187,140 182,135 " style="fill:white; stroke-width:1; stroke:black; " description="&lt;b&gt;STM2037&lt;/b&gt;&lt;br&gt;propanediol diffusion facilitator&lt;br&gt;Location: 1349 - 2144" locus_tag="STM2037" class="clusterblast-orf" id="knownclusterblast-7_all_7_2_1"  />
</g>
<g id="a7_002"  >
<polygon points="214,140 216,140 221,135 216,130 214,130 214,140 " style="fill:#2ed815; stroke-width:1; stroke:black; " description="&lt;b&gt;STM2038&lt;/b&gt;&lt;br&gt;propanediol utilization polyhedral body protein PduA&lt;br&gt;Location: 2668 - 2953&lt;br&gt;&lt;br&gt;&lt;b&gt;BlastP hit with ctg1_1257&lt;/b&gt;&lt;br&gt;Percentage identity: 69&lt;br&gt;Percentage coverage: 90&lt;br&gt;BLAST bit score: 112&lt;br&gt;E-value: 4.08e-36&lt;br&gt;&lt;br&gt;&lt;b&gt;BlastP hit with ctg1_1267&lt;/b&gt;&lt;br&gt;Percentage identity: 44&lt;br&gt;Percentage coverage: 53&lt;br&gt;BLAST bit score: 72&lt;br&gt;E-value: 2.93e-19" locus_tag="STM2038" class="clusterblast-orf" id="knownclusterblast-7_all_7_2_2"  />
</g>
<g id="a7_003"  >
<polygon points="221,140 235,140 240,135 235,130 221,130 221,140 " style="fill:white; stroke-width:1; stroke:black; " description="&lt;b&gt;STM2039&lt;/b&gt;&lt;br&gt;propanediol utilization polyhedral body protein PduB&lt;br&gt;Location: 2949 - 3762" locus_tag="STM2039" class="clusterblast-orf" id="knownclusterblast-7_all_7_2_3"  />
</g>
<g id="a7_004"  >
<polygon points="241,140 276,140 281,135 276,130 241,130 241,140 " style="fill:white; stroke-width:1; stroke:black; " description="&lt;b&gt;STM2040&lt;/b&gt;&lt;br&gt;propanediol dehydratase large subunit&lt;br&gt;Location: 3780 - 5445" locus_tag="STM2040" class="clusterblast-orf" id="knownclusterblast-7_all_7_2_4"  />
</g>
<g id="a7_005"  >
<polygon points="281,140 293,140 298,135 293,130 281,130 281,140 " style="fill:white; stroke-width:1; stroke:black; " description="&lt;b&gt;STM2041&lt;/b&gt;&lt;br&gt;propanediol dehydratase medium subunit&lt;br&gt;Location: 5455 - 6130" locus_tag="STM2041" class="clusterblast-orf" id="knownclusterblast-7_all_7_2_5"  />
</g>
<g id="a7_006"  >
<polygon points="298,140 306,140 311,135 306,130 298,130 298,140 " style="fill:white; stroke-width:1; stroke:black; " description="&lt;b&gt;STM2042&lt;/b&gt;&lt;br&gt;propanediol dehydratase small subunit&lt;br&gt;Location: 6144 - 6666" locus_tag="STM2042" class="clusterblast-orf" id="knownclusterblast-7_all_7_2_6"  />
</g>
<g id="a7_007"  >
<polygon points="311,140 350,140 355,135 350,130 311,130 311,140 " style="fill:white; stroke-width:1; stroke:black; " description="&lt;b&gt;STM2043&lt;/b&gt;&lt;br&gt;propanediol dehydratase reactivation protein&lt;br&gt;Location: 6675 - 8508" locus_tag="STM2043" class="clusterblast-orf" id="knownclusterblast-7_all_7_2_7"  />
</g>
<g id="a7_008"  >
<polygon points="355,140 358,140 363,135 358,130 355,130 355,140 " style="fill:white; stroke-width:1; stroke:black; " description="&lt;b&gt;STM2044&lt;/b&gt;&lt;br&gt;propanediol dehydratase reactivation protein&lt;br&gt;Location: 8497 - 8848" locus_tag="STM2044" class="clusterblast-orf" id="knownclusterblast-7_all_7_2_8"  />
</g>
<g id="a7_009"  >
<polygon points="364,140 365,140 370,135 365,130 364,130 364,140 " style="fill:#2ed815; stroke-width:1; stroke:black; " description="&lt;b&gt;STM2045&lt;/b&gt;&lt;br&gt;propanediol utilization polyhedral body protein PduJ&lt;br&gt;Location: 8866 - 9142&lt;br&gt;&lt;br&gt;&lt;b&gt;BlastP hit with ctg1_1257&lt;/b&gt;&lt;br&gt;Percentage identity: 66&lt;br&gt;Percentage coverage: 91&lt;br&gt;BLAST bit score: 107&lt;br&gt;E-value: 7.19e-34&lt;br&gt;&lt;br&gt;&lt;b&gt;BlastP hit with ctg1_1267&lt;/b&gt;&lt;br&gt;Percentage identity: 48&lt;br&gt;Percentage coverage: 54&lt;br&gt;BLAST bit score: 79&lt;br&gt;E-value: 1.09e-21" locus_tag="STM2045" class="clusterblast-orf" id="knownclusterblast-7_all_7_2_9"  />
</g>
<g id="a7_0010"  >
<polygon points="371,140 377,140 382,135 377,130 371,130 371,140 " style="fill:white; stroke-width:1; stroke:black; " description="&lt;b&gt;STM2046&lt;/b&gt;&lt;br&gt;propanediol utilization polyhedral body protein PduK&lt;br&gt;Location: 9166 - 9628" locus_tag="STM2046" class="clusterblast-orf" id="knownclusterblast-7_all_7_2_10"  />
</g>
<g id="a7_0011"  >
<polygon points="382,140 392,140 397,135 392,130 382,130 382,140 " style="fill:white; stroke-width:1; stroke:black; " description="&lt;b&gt;STM2047&lt;/b&gt;&lt;br&gt;phosphate propanoyltransferase&lt;br&gt;Location: 9627 - 10260" locus_tag="STM2047" class="clusterblast-orf" id="knownclusterblast-7_all_7_2_11"  />
</g>
<g id="a7_0012"  >
<polygon points="397,140 404,140 409,135 404,130 397,130 397,140 " style="fill:white; stroke-width:1; stroke:black; " description="&lt;b&gt;STM2048&lt;/b&gt;&lt;br&gt;propanediol utilization protein PduM&lt;br&gt;Location: 10256 - 10748" locus_tag="STM2048" class="clusterblast-orf" id="knownclusterblast-7_all_7_2_12"  />
</g>
<g id="a7_0013"  >
<polygon points="409,140 411,140 416,135 411,130 409,130 409,140 " style="fill:#158fd8; stroke-width:1; stroke:black; " description="&lt;b&gt;STM2049&lt;/b&gt;&lt;br&gt;propanediol utilization polyhedral body protein PduN&lt;br&gt;Location: 10751 - 11027&lt;br&gt;&lt;br&gt;&lt;b&gt;BlastP hit with ctg1_1258&lt;/b&gt;&lt;br&gt;Percentage identity: 47&lt;br&gt;Percentage coverage: 92&lt;br&gt;BLAST bit score: 64&lt;br&gt;E-value: 4.99e-17" locus_tag="STM2049" class="clusterblast-orf" id="knownclusterblast-7_all_7_2_13"  />
</g>
<g id="a7_0014"  >
<polygon points="416,140 436,140 441,135 436,130 416,130 416,140 " style="fill:white; stroke-width:1; stroke:black; " description="&lt;b&gt;STM2050&lt;/b&gt;&lt;br&gt;propanediol utilization protein PduO&lt;br&gt;Location: 11036 - 12047" locus_tag="STM2050" class="clusterblast-orf" id="knownclusterblast-7_all_7_2_14"  />
</g>
<g id="a7_0015"  >
<polygon points="441,140 469,140 474,135 469,130 441,130 441,140 " style="fill:#c015d8; stroke-width:1; stroke:black; " description="&lt;b&gt;STM2051&lt;/b&gt;&lt;br&gt;CoA-dependent propionaldehyde dehydrogenase&lt;br&gt;Location: 12043 - 13438&lt;br&gt;&lt;br&gt;&lt;b&gt;BlastP hit with ctg1_1259&lt;/b&gt;&lt;br&gt;Percentage identity: 45&lt;br&gt;Percentage coverage: 101&lt;br&gt;BLAST bit score: 367&lt;br&gt;E-value: 3.69e-125" locus_tag="STM2051" class="clusterblast-orf" id="knownclusterblast-7_all_7_2_15"  />
</g>
<g id="a7_0016"  >
<polygon points="475,140 496,140 501,135 496,130 475,130 475,140 " style="fill:#15d846; stroke-width:1; stroke:black; " description="&lt;b&gt;STM2052&lt;/b&gt;&lt;br&gt;propanol dehydrogenase&lt;br&gt;Location: 13449 - 14562&lt;br&gt;&lt;br&gt;&lt;b&gt;BlastP hit with ctg1_1261&lt;/b&gt;&lt;br&gt;Percentage identity: 39&lt;br&gt;Percentage coverage: 90&lt;br&gt;BLAST bit score: 189&lt;br&gt;E-value: 2.01e-58" locus_tag="STM2052" class="clusterblast-orf" id="knownclusterblast-7_all_7_2_16"  />
</g>
<g id="a7_0017"  >
<polygon points="501,140 529,140 534,135 529,130 501,130 501,140 " style="fill:white; stroke-width:1; stroke:black; " description="&lt;b&gt;STM2053&lt;/b&gt;&lt;br&gt;propanediol utilization polyhedral body protein PduS&lt;br&gt;Location: 14558 - 15914" locus_tag="STM2053" class="clusterblast-orf" id="knownclusterblast-7_all_7_2_17"  />
</g>
<g id="a7_0018"  >
<polygon points="534,140 543,140 548,135 543,130 534,130 534,140 " style="fill:white; stroke-width:1; stroke:black; " description="&lt;b&gt;STM2054&lt;/b&gt;&lt;br&gt;propanediol utilization polyhedral body protein PduT&lt;br&gt;Location: 15916 - 16471" locus_tag="STM2054" class="clusterblast-orf" id="knownclusterblast-7_all_7_2_18"  />
</g>
<g id="a7_0019"  >
<polygon points="548,140 551,140 556,135 551,130 548,130 548,140 " style="fill:#77d815; stroke-width:1; stroke:black; " description="&lt;b&gt;STM2055&lt;/b&gt;&lt;br&gt;propanediol utilization polyhedral body protein PduU&lt;br&gt;Location: 16470 - 16821&lt;br&gt;&lt;br&gt;&lt;b&gt;BlastP hit with ctg1_1252&lt;/b&gt;&lt;br&gt;Percentage identity: 55&lt;br&gt;Percentage coverage: 98&lt;br&gt;BLAST bit score: 122&lt;br&gt;E-value: 1.55e-39" locus_tag="STM2055" class="clusterblast-orf" id="knownclusterblast-7_all_7_2_19"  />
</g>
<g id="a7_0020"  >
<polygon points="556,140 562,140 567,135 562,130 556,130 556,140 " style="fill:white; stroke-width:1; stroke:black; " description="&lt;b&gt;STM2056&lt;/b&gt;&lt;br&gt;propanediol utilization protein PduV&lt;br&gt;Location: 16825 - 17278" locus_tag="STM2056" class="clusterblast-orf" id="knownclusterblast-7_all_7_2_20"  />
</g>
<g id="a7_0021"  >
<polygon points="567,140 591,140 596,135 591,130 567,130 567,140 " style="fill:white; stroke-width:1; stroke:black; " description="&lt;b&gt;STM2057&lt;/b&gt;&lt;br&gt;propionate kinase&lt;br&gt;Location: 17262 - 18477" locus_tag="STM2057" class="clusterblast-orf" id="knownclusterblast-7_all_7_2_21"  />
</g>
<g id="a7_0022"  >
<polygon points="597,140 614,140 619,135 614,130 597,130 597,140 " style="fill:white; stroke-width:1; stroke:black; " description="&lt;b&gt;STM2058&lt;/b&gt;&lt;br&gt;L-threonine kinase&lt;br&gt;Location: 18534 - 19437" locus_tag="STM2058" class="clusterblast-orf" id="knownclusterblast-7_all_7_2_22"  />
</g>
<g id="a7_0023"  >
<polygon points="620,135 624,130 624,140 620,135 " style="fill:white; stroke-width:1; stroke:black; " description="&lt;b&gt;STM2059&lt;/b&gt;&lt;br&gt;hypothetical protein&lt;br&gt;Location: 19470 - 19638" locus_tag="STM2059" class="clusterblast-orf" id="knownclusterblast-7_all_7_2_23"  />
</g>
<g label="MGC0000001" description="MGC0000001_c1: Trimethylamine synthesis C. sporogenes (33% of genes show similarity), TMA" class="clusterblast-cluster"  >
<text x="5" y="170" class="clusterblast-acc"  >
MGC0000001_c1: Trimethylamine synthesis C. sporogenes (33% of genes show similarity), TMA</text>
<line x1="10" y1="185" x2="778.0" y2="185" style="stroke-width:1; stroke:grey; "  />
</g>
<g id="a7_000"  >
<polygon points="321,190 321,185 321,180 321,190 " style="fill:#2ed815; stroke-width:1; stroke:black; " description="&lt;b&gt;CLOSPO_RS07620&lt;/b&gt;&lt;br&gt;hypothetical protein&lt;br&gt;Location: 0 - 4&lt;br&gt;&lt;br&gt;&lt;b&gt;BlastP hit with ctg1_1257&lt;/b&gt;&lt;br&gt;Percentage identity: 55&lt;br&gt;Percentage coverage: 90&lt;br&gt;BLAST bit score: 83&lt;br&gt;E-value: 3.68e-24&lt;br&gt;&lt;br&gt;&lt;b&gt;BlastP hit with ctg1_1267&lt;/b&gt;&lt;br&gt;Percentage identity: 43&lt;br&gt;Percentage coverage: 54&lt;br&gt;BLAST bit score: 64&lt;br&gt;E-value: 4.81e-16" locus_tag="CLOSPO_RS07620" class="clusterblast-orf" id="knownclusterblast-7_all_7_3_0"  />
</g>
<g id="a7_001"  >
<polygon points="322,190 352,190 357,185 352,180 322,180 322,190 " style="fill:white; stroke-width:1; stroke:black; " description="&lt;b&gt;CLOSPO_RS07625&lt;/b&gt;&lt;br&gt;acetaldehyde dehydrogenase&lt;br&gt;Location: 41 - 1523" locus_tag="CLOSPO_RS07625" class="clusterblast-orf" id="knownclusterblast-7_all_7_3_1"  />
</g>
<g id="a7_002"  >
<polygon points="359,190 415,190 420,185 415,180 359,180 359,190 " style="fill:white; stroke-width:1; stroke:black; " description="&lt;b&gt;CLOSPO_RS07630&lt;/b&gt;&lt;br&gt;choline trimethylamine-lyase&lt;br&gt;Location: 1572 - 4113" locus_tag="CLOSPO_RS07630" class="clusterblast-orf" id="knownclusterblast-7_all_7_3_2"  />
</g>
<g id="a7_003"  >
<polygon points="424,190 442,190 447,185 442,180 424,180 424,190 " style="fill:white; stroke-width:1; stroke:black; " description="&lt;b&gt;CLOSPO_RS07635&lt;/b&gt;&lt;br&gt;choline TMA-lyase-activating enzyme&lt;br&gt;Location: 4294 - 5248" locus_tag="CLOSPO_RS07635" class="clusterblast-orf" id="knownclusterblast-7_all_7_3_3"  />
</g>
<g id="a7_004"  >
<polygon points="448,190 452,190 457,185 452,180 448,180 448,190 " style="fill:#77d815; stroke-width:1; stroke:black; " description="&lt;b&gt;CLOSPO_RS07640&lt;/b&gt;&lt;br&gt;propanediol utilization protein PduU&lt;br&gt;Location: 5287 - 5641&lt;br&gt;&lt;br&gt;&lt;b&gt;BlastP hit with ctg1_1252&lt;/b&gt;&lt;br&gt;Percentage identity: 51&lt;br&gt;Percentage coverage: 97&lt;br&gt;BLAST bit score: 114&lt;br&gt;E-value: 3.52e-36" locus_tag="CLOSPO_RS07640" class="clusterblast-orf" id="knownclusterblast-7_all_7_3_4"  />
</g>
<g id="a7_005"  >
<polygon points="457,190 458,185 457,180 457,190 " style="fill:white; stroke-width:1; stroke:black; " description="&lt;b&gt;CLOSPO_RS07645&lt;/b&gt;&lt;br&gt;hypothetical protein&lt;br&gt;Location: 5637 - 5704" locus_tag="CLOSPO_RS07645" class="clusterblast-orf" id="knownclusterblast-7_all_7_3_5"  />
</g>
</svg>
