<svg xmlns="http://www.w3.org/2000/svg" xmlns:xlink="http://www.w3.org/1999/xlink" version="1.1" x="0" y="0" height="230" width="800" viewBox="0 0 800 230" preserveAspectRatio="none"  >
<g label="Query sequence" class="clusterblast-cluster"  >
<text x="5" y="20" class="clusterblast-acc"  >
Query sequence</text>
<line x1="10" y1="35" x2="778.0" y2="35" style="stroke-width:1; stroke:grey; "  />
<polygon points="0,40 18,40 23,35 18,30 0,30 0,40 " style="fill:white; stroke-width:1; stroke:black; " description="&lt;b&gt;ctg1_3527&lt;/b&gt;&lt;br&gt;ctg1 3527&lt;br&gt;Location: 3749445 - 3750168" locus_tag="ctg1_3527" class="clusterblast-orf" id="dummy-19_q0_0_all"  />
<polygon points="21,35 26,30 44,30 44,40 26,40 21,35 " style="fill:white; stroke-width:1; stroke:black; " description="&lt;b&gt;ctg1_3528&lt;/b&gt;&lt;br&gt;ctg1 3528&lt;br&gt;Location: 3750109 - 3750832" locus_tag="ctg1_3528" class="clusterblast-orf" id="dummy-19_q1_0_all"  />
<polygon points="44,35 49,30 69,30 69,40 49,40 44,35 " style="fill:white; stroke-width:1; stroke:black; " description="&lt;b&gt;ctg1_3529&lt;/b&gt;&lt;br&gt;ctg1 3529&lt;br&gt;Location: 3750824 - 3751580" locus_tag="ctg1_3529" class="clusterblast-orf" id="dummy-19_q2_0_all"  />
<polygon points="68,35 73,30 105,30 105,40 73,40 68,35 " style="fill:white; stroke-width:1; stroke:black; " description="&lt;b&gt;ctg1_3530&lt;/b&gt;&lt;br&gt;ctg1 3530&lt;br&gt;Location: 3751563 - 3752721" locus_tag="ctg1_3530" class="clusterblast-orf" id="dummy-19_q3_0_all"  />
<polygon points="105,35 110,30 139,30 139,40 110,40 105,35 " style="fill:white; stroke-width:1; stroke:black; " description="&lt;b&gt;ctg1_3531&lt;/b&gt;&lt;br&gt;ctg1 3531&lt;br&gt;Location: 3752717 - 3753758" locus_tag="ctg1_3531" class="clusterblast-orf" id="dummy-19_q4_0_all"  />
<polygon points="141,40 178,40 183,35 178,30 141,30 141,40 " style="fill:white; stroke-width:1; stroke:black; " description="&lt;b&gt;ctg1_3532&lt;/b&gt;&lt;br&gt;ctg1 3532&lt;br&gt;Location: 3753843 - 3755133" locus_tag="ctg1_3532" class="clusterblast-orf" id="dummy-19_q5_0_all"  />
<polygon points="185,40 196,40 201,35 196,30 185,30 185,40 " style="fill:white; stroke-width:1; stroke:black; " description="&lt;b&gt;ctg1_3533&lt;/b&gt;&lt;br&gt;ctg1 3533&lt;br&gt;Location: 3755203 - 3755680" locus_tag="ctg1_3533" class="clusterblast-orf" id="dummy-19_q6_0_all"  />
<polygon points="217,35 222,30 262,30 262,40 222,40 217,35 " style="fill:white; stroke-width:1; stroke:black; " description="&lt;b&gt;ctg1_3534&lt;/b&gt;&lt;br&gt;ctg1 3534&lt;br&gt;Location: 3756193 - 3757576" locus_tag="ctg1_3534" class="clusterblast-orf" id="dummy-19_q7_0_all"  />
<polygon points="265,35 270,30 314,30 314,40 270,40 265,35 " style="fill:#d81515; stroke-width:1; stroke:black; " description="&lt;b&gt;ctg1_3535&lt;/b&gt;&lt;br&gt;ctg1 3535&lt;br&gt;Location: 3757674 - 3759201" locus_tag="ctg1_3535" class="clusterblast-orf" id="dummy-19_q8_0_all"  />
<polygon points="314,35 319,30 368,30 368,40 319,40 314,35 " style="fill:#15d863; stroke-width:1; stroke:black; " description="&lt;b&gt;ctg1_3536&lt;/b&gt;&lt;br&gt;ctg1 3536&lt;br&gt;Location: 3759197 - 3760886" locus_tag="ctg1_3536" class="clusterblast-orf" id="dummy-19_q9_0_all"  />
<polygon points="373,35 378,30 396,30 396,40 378,40 373,35 " style="fill:#1563d8; stroke-width:1; stroke:black; " description="&lt;b&gt;ctg1_3537&lt;/b&gt;&lt;br&gt;ctg1 3537&lt;br&gt;Location: 3761028 - 3761754" locus_tag="ctg1_3537" class="clusterblast-orf" id="dummy-19_q10_0_all"  />
<polygon points="398,35 403,30 429,30 429,40 403,40 398,35 " style="fill:#b115d8; stroke-width:1; stroke:black; " description="&lt;b&gt;ctg1_3538&lt;/b&gt;&lt;br&gt;ctg1 3538&lt;br&gt;Location: 3761815 - 3762772" locus_tag="ctg1_3538" class="clusterblast-orf" id="dummy-19_q11_0_all"  />
<polygon points="429,35 434,30 469,30 469,40 434,40 429,35 " style="fill:#b1d815; stroke-width:1; stroke:black; " description="&lt;b&gt;ctg1_3539&lt;/b&gt;&lt;br&gt;ctg1 3539&lt;br&gt;Location: 3762768 - 3764028" locus_tag="ctg1_3539" class="clusterblast-orf" id="dummy-19_q12_0_all"  />
<polygon points="476,40 513,40 518,35 513,30 476,30 476,40 " style="fill:white; stroke-width:1; stroke:black; " description="&lt;b&gt;ctg1_3540&lt;/b&gt;&lt;br&gt;ctg1 3540&lt;br&gt;Location: 3764242 - 3765526" locus_tag="ctg1_3540" class="clusterblast-orf" id="dummy-19_q13_0_all"  />
<polygon points="527,35 532,30 613,30 613,40 532,40 527,35 " style="fill:white; stroke-width:1; stroke:black; " description="&lt;b&gt;ctg1_3541&lt;/b&gt;&lt;br&gt;ctg1 3541&lt;br&gt;Location: 3765813 - 3768501" locus_tag="ctg1_3541" class="clusterblast-orf" id="dummy-19_q14_0_all"  />
<polygon points="615,35 620,30 629,30 629,40 620,40 615,35 " style="fill:white; stroke-width:1; stroke:black; " description="&lt;b&gt;ctg1_3542&lt;/b&gt;&lt;br&gt;ctg1 3542&lt;br&gt;Location: 3768552 - 3768984" locus_tag="ctg1_3542" class="clusterblast-orf" id="dummy-19_q15_0_all"  />
<polygon points="641,40 644,35 641,30 641,40 " style="fill:white; stroke-width:1; stroke:black; " description="&lt;b&gt;ctg1_3543&lt;/b&gt;&lt;br&gt;ctg1 3543&lt;br&gt;Location: 3769352 - 3769463" locus_tag="ctg1_3543" class="clusterblast-orf" id="dummy-19_q16_0_all"  />
<polygon points="646,40 676,40 681,35 676,30 646,30 646,40 " style="fill:white; stroke-width:1; stroke:black; " description="&lt;b&gt;ctg1_3544&lt;/b&gt;&lt;br&gt;ctg1 3544&lt;br&gt;Location: 3769517 - 3770603" locus_tag="ctg1_3544" class="clusterblast-orf" id="dummy-19_q17_0_all"  />
<polygon points="681,40 775,40 780,35 775,30 681,30 681,40 " style="fill:white; stroke-width:1; stroke:black; " description="&lt;b&gt;ctg1_3545&lt;/b&gt;&lt;br&gt;ctg1 3545&lt;br&gt;Location: 3770603 - 3773669" locus_tag="ctg1_3545" class="clusterblast-orf" id="dummy-19_q18_0_all"  />
</g>
<g label="MGC00000029" description="MGC00000029_c1: Histidine to glutamate K. pneumoniae (100% of genes show similarity), GLU" class="clusterblast-cluster"  >
<text x="5" y="70" class="clusterblast-acc"  >
MGC00000029_c1: Histidine to glutamate K. pneumoniae (100% of genes show similarity), GLU</text>
<line x1="10" y1="85" x2="778.0" y2="85" style="stroke-width:1; stroke:grey; "  />
</g>
<g id="a19_000"  >
<polygon points="288,85 293,80 337,80 337,90 293,90 288,85 " style="fill:#d81515; stroke-width:1; stroke:black; " description="&lt;b&gt;KPN_RS04290&lt;/b&gt;&lt;br&gt;histidine ammonia-lyase&lt;br&gt;Location: 16312 - 14785&lt;br&gt;&lt;br&gt;&lt;b&gt;BlastP hit with ctg1_3535&lt;/b&gt;&lt;br&gt;Percentage identity: 97&lt;br&gt;Percentage coverage: 100&lt;br&gt;BLAST bit score: 949&lt;br&gt;E-value: 0.0" locus_tag="KPN_RS04290" class="clusterblast-orf" id="dummy-19_h19_1_0"  />
</g>
<g id="a19_001"  >
<polygon points="337,85 342,80 391,80 391,90 342,90 337,85 " style="fill:#15d863; stroke-width:1; stroke:black; " description="&lt;b&gt;KPN_RS04285&lt;/b&gt;&lt;br&gt;urocanate hydratase&lt;br&gt;Location: 14789 - 13100&lt;br&gt;&lt;br&gt;&lt;b&gt;BlastP hit with ctg1_3536&lt;/b&gt;&lt;br&gt;Percentage identity: 99&lt;br&gt;Percentage coverage: 100&lt;br&gt;BLAST bit score: 1133&lt;br&gt;E-value: 0.0" locus_tag="KPN_RS04285" class="clusterblast-orf" id="dummy-19_h19_1_1"  />
</g>
<g id="a19_002"  >
<polygon points="396,85 401,80 419,80 419,90 401,90 396,85 " style="fill:#1563d8; stroke-width:1; stroke:black; " description="&lt;b&gt;KPN_RS04280&lt;/b&gt;&lt;br&gt;histidine utilization repressor&lt;br&gt;Location: 12958 - 12232&lt;br&gt;&lt;br&gt;&lt;b&gt;BlastP hit with ctg1_3537&lt;/b&gt;&lt;br&gt;Percentage identity: 91&lt;br&gt;Percentage coverage: 100&lt;br&gt;BLAST bit score: 431&lt;br&gt;E-value: 1.85e-157" locus_tag="KPN_RS04280" class="clusterblast-orf" id="dummy-19_h19_1_2"  />
</g>
<g id="a19_003"  >
<polygon points="421,85 426,80 452,80 452,90 426,90 421,85 " style="fill:#b115d8; stroke-width:1; stroke:black; " description="&lt;b&gt;KPN_RS04275&lt;/b&gt;&lt;br&gt;formimidoylglutamase&lt;br&gt;Location: 12171 - 11214&lt;br&gt;&lt;br&gt;&lt;b&gt;BlastP hit with ctg1_3538&lt;/b&gt;&lt;br&gt;Percentage identity: 94&lt;br&gt;Percentage coverage: 100&lt;br&gt;BLAST bit score: 604&lt;br&gt;E-value: 1.81e-223" locus_tag="KPN_RS04275" class="clusterblast-orf" id="dummy-19_h19_1_3"  />
</g>
<g id="a19_004"  >
<polygon points="452,85 457,80 491,80 491,90 457,90 452,85 " style="fill:#b1d815; stroke-width:1; stroke:black; " description="&lt;b&gt;KPN_RS04270&lt;/b&gt;&lt;br&gt;imidazolonepropionase&lt;br&gt;Location: 11218 - 10000&lt;br&gt;&lt;br&gt;&lt;b&gt;BlastP hit with ctg1_3539&lt;/b&gt;&lt;br&gt;Percentage identity: 95&lt;br&gt;Percentage coverage: 97&lt;br&gt;BLAST bit score: 766&lt;br&gt;E-value: 3.79e-284" locus_tag="KPN_RS04270" class="clusterblast-orf" id="dummy-19_h19_1_4"  />
</g>
</svg>
