<svg xmlns="http://www.w3.org/2000/svg" xmlns:xlink="http://www.w3.org/1999/xlink" version="1.1" x="0" y="0" height="230" width="800" viewBox="0 0 800 230" preserveAspectRatio="none"  >
<g label="Query sequence" class="clusterblast-cluster"  >
<text x="5" y="20" class="clusterblast-acc"  >
Query sequence</text>
<line x1="10" y1="35" x2="778.0" y2="35" style="stroke-width:1; stroke:grey; "  />
<polygon points="0,35 5,30 59,30 59,40 5,40 0,35 " style="fill:white; stroke-width:1; stroke:black; " description="&lt;b&gt;ctg1_3583&lt;/b&gt;&lt;br&gt;ctg1 3583&lt;br&gt;Location: 3807036 - 3808605" locus_tag="ctg1_3583" class="clusterblast-orf" id="dummy-20_q0_0_all"  />
<polygon points="90,35 95,30 123,30 123,40 95,40 90,35 " style="fill:white; stroke-width:1; stroke:black; " description="&lt;b&gt;ctg1_3584&lt;/b&gt;&lt;br&gt;ctg1 3584&lt;br&gt;Location: 3809432 - 3810302" locus_tag="ctg1_3584" class="clusterblast-orf" id="dummy-20_q1_0_all"  />
<polygon points="123,35 128,30 167,30 167,40 128,40 123,35 " style="fill:white; stroke-width:1; stroke:black; " description="&lt;b&gt;ctg1_3585&lt;/b&gt;&lt;br&gt;ctg1 3585&lt;br&gt;Location: 3810301 - 3811468" locus_tag="ctg1_3585" class="clusterblast-orf" id="dummy-20_q2_0_all"  />
<polygon points="167,35 171,30 171,40 167,35 " style="fill:white; stroke-width:1; stroke:black; " description="&lt;b&gt;ctg1_3586&lt;/b&gt;&lt;br&gt;ctg1 3586&lt;br&gt;Location: 3811464 - 3811572" locus_tag="ctg1_3586" class="clusterblast-orf" id="dummy-20_q3_0_all"  />
<polygon points="173,35 178,30 219,30 219,40 178,40 173,35 " style="fill:white; stroke-width:1; stroke:black; " description="&lt;b&gt;ctg1_3587&lt;/b&gt;&lt;br&gt;ctg1 3587&lt;br&gt;Location: 3811613 - 3812840" locus_tag="ctg1_3587" class="clusterblast-orf" id="dummy-20_q4_0_all"  />
<polygon points="219,35 224,30 325,30 325,40 224,40 219,35 " style="fill:white; stroke-width:1; stroke:black; " description="&lt;b&gt;ctg1_3588&lt;/b&gt;&lt;br&gt;ctg1 3588&lt;br&gt;Location: 3812854 - 3815662" locus_tag="ctg1_3588" class="clusterblast-orf" id="dummy-20_q5_0_all"  />
<polygon points="344,35 349,30 371,30 371,40 349,40 344,35 " style="fill:#d81515; stroke-width:1; stroke:black; " description="&lt;b&gt;ctg1_3589&lt;/b&gt;&lt;br&gt;ctg1 3589&lt;br&gt;Location: 3816167 - 3816884" locus_tag="ctg1_3589" class="clusterblast-orf" id="dummy-20_q6_0_all"  />
<polygon points="372,35 377,30 439,30 439,40 377,40 372,35 " style="fill:#15d8d8; stroke-width:1; stroke:black; " description="&lt;b&gt;ctg1_3590&lt;/b&gt;&lt;br&gt;ctg1 3590&lt;br&gt;Location: 3816899 - 3818666" locus_tag="ctg1_3590" class="clusterblast-orf" id="dummy-20_q7_0_all"  />
<polygon points="439,35 444,30 452,30 452,40 444,40 439,35 " style="fill:white; stroke-width:1; stroke:black; " description="&lt;b&gt;ctg1_3591&lt;/b&gt;&lt;br&gt;ctg1 3591&lt;br&gt;Location: 3818665 - 3819013" locus_tag="ctg1_3591" class="clusterblast-orf" id="dummy-20_q8_0_all"  />
<polygon points="451,35 456,30 467,30 467,40 456,40 451,35 " style="fill:white; stroke-width:1; stroke:black; " description="&lt;b&gt;ctg1_3592&lt;/b&gt;&lt;br&gt;ctg1 3592&lt;br&gt;Location: 3819006 - 3819411" locus_tag="ctg1_3592" class="clusterblast-orf" id="dummy-20_q9_0_all"  />
<polygon points="491,40 534,40 539,35 534,30 491,30 491,40 " style="fill:white; stroke-width:1; stroke:black; " description="&lt;b&gt;ctg1_3593&lt;/b&gt;&lt;br&gt;ctg1 3593&lt;br&gt;Location: 3820051 - 3821335" locus_tag="ctg1_3593" class="clusterblast-orf" id="dummy-20_q10_0_all"  />
<polygon points="542,35 547,30 572,30 572,40 547,40 542,35 " style="fill:white; stroke-width:1; stroke:black; " description="&lt;b&gt;ctg1_3594&lt;/b&gt;&lt;br&gt;ctg1 3594&lt;br&gt;Location: 3821401 - 3822193" locus_tag="ctg1_3594" class="clusterblast-orf" id="dummy-20_q11_0_all"  />
<polygon points="572,35 577,30 597,30 597,40 577,40 572,35 " style="fill:white; stroke-width:1; stroke:black; " description="&lt;b&gt;ctg1_3595&lt;/b&gt;&lt;br&gt;ctg1 3595&lt;br&gt;Location: 3822208 - 3822853" locus_tag="ctg1_3595" class="clusterblast-orf" id="dummy-20_q12_0_all"  />
<polygon points="598,35 603,30 626,30 626,40 603,40 598,35 " style="fill:white; stroke-width:1; stroke:black; " description="&lt;b&gt;ctg1_3596&lt;/b&gt;&lt;br&gt;ctg1 3596&lt;br&gt;Location: 3822882 - 3823635" locus_tag="ctg1_3596" class="clusterblast-orf" id="dummy-20_q13_0_all"  />
<polygon points="626,35 631,30 661,30 661,40 631,40 626,35 " style="fill:white; stroke-width:1; stroke:black; " description="&lt;b&gt;ctg1_3597&lt;/b&gt;&lt;br&gt;ctg1 3597&lt;br&gt;Location: 3823624 - 3824557" locus_tag="ctg1_3597" class="clusterblast-orf" id="dummy-20_q14_0_all"  />
<polygon points="661,35 666,30 685,30 685,40 666,40 661,35 " style="fill:white; stroke-width:1; stroke:black; " description="&lt;b&gt;ctg1_3598&lt;/b&gt;&lt;br&gt;ctg1 3598&lt;br&gt;Location: 3824550 - 3825207" locus_tag="ctg1_3598" class="clusterblast-orf" id="dummy-20_q15_0_all"  />
<polygon points="686,35 691,30 714,30 714,40 691,40 686,35 " style="fill:white; stroke-width:1; stroke:black; " description="&lt;b&gt;ctg1_3599&lt;/b&gt;&lt;br&gt;ctg1 3599&lt;br&gt;Location: 3825221 - 3825965" locus_tag="ctg1_3599" class="clusterblast-orf" id="dummy-20_q16_0_all"  />
<polygon points="724,40 775,40 780,35 775,30 724,30 724,40 " style="fill:white; stroke-width:1; stroke:black; " description="&lt;b&gt;ctg1_3600&lt;/b&gt;&lt;br&gt;ctg1 3600&lt;br&gt;Location: 3826233 - 3827712" locus_tag="ctg1_3600" class="clusterblast-orf" id="dummy-20_q17_0_all"  />
</g>
<g label="MGC00000058" description="MGC00000058_c1: Fumarate2succinate suc dh E. coli (100% of genes show similarity), SUC" class="clusterblast-cluster"  >
<text x="5" y="70" class="clusterblast-acc"  >
MGC00000058_c1: Fumarate2succinate suc dh E. coli (100% of genes show similarity), SUC</text>
<line x1="10" y1="85" x2="778.0" y2="85" style="stroke-width:1; stroke:grey; "  />
</g>
<g id="a20_000"  >
<polygon points="342,85 347,80 369,80 369,90 347,90 342,85 " style="fill:#d81515; stroke-width:1; stroke:black; " description="&lt;b&gt;HMPREF9550_01792&lt;/b&gt;&lt;br&gt;succinate dehydrogenase iron-sulfur subunit&lt;br&gt;Location: 10000 - 10717&lt;br&gt;&lt;br&gt;&lt;b&gt;BlastP hit with ctg1_3589&lt;/b&gt;&lt;br&gt;Percentage identity: 98&lt;br&gt;Percentage coverage: 100&lt;br&gt;BLAST bit score: 485&lt;br&gt;E-value: 4.71e-179" locus_tag="HMPREF9550_01792" class="clusterblast-orf" id="dummy-20_h20_1_0"  />
</g>
<g id="a20_001"  >
<polygon points="370,85 375,80 437,80 437,90 375,90 370,85 " style="fill:#15d8d8; stroke-width:1; stroke:black; " description="&lt;b&gt;HMPREF9550_01793&lt;/b&gt;&lt;br&gt;succinate dehydrogenase, flavoprotein subunit&lt;br&gt;Location: 10732 - 12499&lt;br&gt;&lt;br&gt;&lt;b&gt;BlastP hit with ctg1_3590&lt;/b&gt;&lt;br&gt;Percentage identity: 99&lt;br&gt;Percentage coverage: 100&lt;br&gt;BLAST bit score: 1168&lt;br&gt;E-value: 0.0" locus_tag="HMPREF9550_01793" class="clusterblast-orf" id="dummy-20_h20_1_1"  />
</g>
</svg>
