<svg xmlns="http://www.w3.org/2000/svg" xmlns:xlink="http://www.w3.org/1999/xlink" version="1.1" x="0" y="0" height="100" width="800" viewBox="0 0 800 100" preserveAspectRatio="none"  >
<g label="Query sequence" class="clusterblast-cluster"  >
<text x="5" y="20" class="clusterblast-acc"  >
Query sequence</text>
<line x1="10" y1="35" x2="778.0" y2="35" style="stroke-width:1; stroke:grey; "  />
<polygon points="0,35 5,30 25,30 25,40 5,40 0,35 " style="fill:white; stroke-width:1; stroke:black; " description="&lt;b&gt;ctg1_2876&lt;/b&gt;&lt;br&gt;ctg1 2876&lt;br&gt;Location: 3072631 - 3073345" locus_tag="ctg1_2876" class="clusterblast-orf" id="knownclusterblast-15_q0_0_all"  />
<polygon points="25,35 30,30 43,30 43,40 30,40 25,35 " style="fill:#d81515; stroke-width:1; stroke:black; " description="&lt;b&gt;ctg1_2877&lt;/b&gt;&lt;br&gt;ctg1 2877&lt;br&gt;Location: 3073341 - 3073851" locus_tag="ctg1_2877" class="clusterblast-orf" id="knownclusterblast-15_q1_0_all"  />
<polygon points="44,35 49,30 79,30 79,40 49,40 44,35 " style="fill:white; stroke-width:1; stroke:black; " description="&lt;b&gt;ctg1_2878&lt;/b&gt;&lt;br&gt;ctg1 2878&lt;br&gt;Location: 3073872 - 3074838" locus_tag="ctg1_2878" class="clusterblast-orf" id="knownclusterblast-15_q2_0_all"  />
<polygon points="79,35 84,30 124,30 124,40 84,40 79,35 " style="fill:white; stroke-width:1; stroke:black; " description="&lt;b&gt;ctg1_2879&lt;/b&gt;&lt;br&gt;ctg1 2879&lt;br&gt;Location: 3074834 - 3076112" locus_tag="ctg1_2879" class="clusterblast-orf" id="knownclusterblast-15_q3_0_all"  />
<polygon points="125,35 130,30 174,30 174,40 130,40 125,35 " style="fill:white; stroke-width:1; stroke:black; " description="&lt;b&gt;ctg1_2880&lt;/b&gt;&lt;br&gt;ctg1 2880&lt;br&gt;Location: 3076126 - 3077515" locus_tag="ctg1_2880" class="clusterblast-orf" id="knownclusterblast-15_q4_0_all"  />
<polygon points="175,35 180,30 191,30 191,40 180,40 175,35 " style="fill:white; stroke-width:1; stroke:black; " description="&lt;b&gt;ctg1_2881&lt;/b&gt;&lt;br&gt;ctg1 2881&lt;br&gt;Location: 3077542 - 3077986" locus_tag="ctg1_2881" class="clusterblast-orf" id="knownclusterblast-15_q5_0_all"  />
<polygon points="202,35 207,30 274,30 274,40 207,40 202,35 " style="fill:white; stroke-width:1; stroke:black; " description="&lt;b&gt;ctg1_2882&lt;/b&gt;&lt;br&gt;ctg1 2882&lt;br&gt;Location: 3078299 - 3080291" locus_tag="ctg1_2882" class="clusterblast-orf" id="knownclusterblast-15_q6_0_all"  />
<polygon points="283,40 306,40 311,35 306,30 283,30 283,40 " style="fill:white; stroke-width:1; stroke:black; " description="&lt;b&gt;ctg1_2883&lt;/b&gt;&lt;br&gt;ctg1 2883&lt;br&gt;Location: 3080568 - 3081327" locus_tag="ctg1_2883" class="clusterblast-orf" id="knownclusterblast-15_q7_0_all"  />
<polygon points="318,35 323,30 351,30 351,40 323,40 318,35 " style="fill:#15d815; stroke-width:1; stroke:black; " description="&lt;b&gt;ctg1_2884&lt;/b&gt;&lt;br&gt;ctg1 2884&lt;br&gt;Location: 3081532 - 3082453" locus_tag="ctg1_2884" class="clusterblast-orf" id="knownclusterblast-15_q8_0_all"  />
<polygon points="356,35 361,30 426,30 426,40 361,40 356,35 " style="fill:#1515d8; stroke-width:1; stroke:black; " description="&lt;b&gt;ctg1_2885&lt;/b&gt;&lt;br&gt;ctg1 2885&lt;br&gt;Location: 3082590 - 3084567" locus_tag="ctg1_2885" class="clusterblast-orf" id="knownclusterblast-15_q9_0_all"  />
<polygon points="444,35 449,30 453,30 453,40 449,40 444,35 " style="fill:white; stroke-width:1; stroke:black; " description="&lt;b&gt;ctg1_2886&lt;/b&gt;&lt;br&gt;ctg1 2886&lt;br&gt;Location: 3085054 - 3085306" locus_tag="ctg1_2886" class="clusterblast-orf" id="knownclusterblast-15_q10_0_all"  />
<polygon points="455,40 491,40 496,35 491,30 455,30 455,40 " style="fill:white; stroke-width:1; stroke:black; " description="&lt;b&gt;ctg1_2887&lt;/b&gt;&lt;br&gt;ctg1 2887&lt;br&gt;Location: 3085361 - 3086516" locus_tag="ctg1_2887" class="clusterblast-orf" id="knownclusterblast-15_q11_0_all"  />
<polygon points="511,40 556,40 561,35 556,30 511,30 511,40 " style="fill:white; stroke-width:1; stroke:black; " description="&lt;b&gt;ctg1_2888&lt;/b&gt;&lt;br&gt;ctg1 2888&lt;br&gt;Location: 3086939 - 3088334" locus_tag="ctg1_2888" class="clusterblast-orf" id="knownclusterblast-15_q12_0_all"  />
<polygon points="565,40 577,40 582,35 577,30 565,30 565,40 " style="fill:white; stroke-width:1; stroke:black; " description="&lt;b&gt;ctg1_2889&lt;/b&gt;&lt;br&gt;ctg1 2889&lt;br&gt;Location: 3088452 - 3088908" locus_tag="ctg1_2889" class="clusterblast-orf" id="knownclusterblast-15_q13_0_all"  />
<polygon points="585,40 605,40 610,35 605,30 585,30 585,40 " style="fill:white; stroke-width:1; stroke:black; " description="&lt;b&gt;ctg1_2890&lt;/b&gt;&lt;br&gt;ctg1 2890&lt;br&gt;Location: 3089002 - 3089710" locus_tag="ctg1_2890" class="clusterblast-orf" id="knownclusterblast-15_q14_0_all"  />
<polygon points="613,40 634,40 639,35 634,30 613,30 613,40 " style="fill:white; stroke-width:1; stroke:black; " description="&lt;b&gt;ctg1_2891&lt;/b&gt;&lt;br&gt;ctg1 2891&lt;br&gt;Location: 3089789 - 3090521" locus_tag="ctg1_2891" class="clusterblast-orf" id="knownclusterblast-15_q15_0_all"  />
<polygon points="640,40 669,40 674,35 669,30 640,30 640,40 " style="fill:white; stroke-width:1; stroke:black; " description="&lt;b&gt;ctg1_2892&lt;/b&gt;&lt;br&gt;ctg1 2892&lt;br&gt;Location: 3090533 - 3091484" locus_tag="ctg1_2892" class="clusterblast-orf" id="knownclusterblast-15_q16_0_all"  />
<polygon points="675,40 693,40 698,35 693,30 675,30 675,40 " style="fill:white; stroke-width:1; stroke:black; " description="&lt;b&gt;ctg1_2893&lt;/b&gt;&lt;br&gt;ctg1 2893&lt;br&gt;Location: 3091520 - 3092156" locus_tag="ctg1_2893" class="clusterblast-orf" id="knownclusterblast-15_q17_0_all"  />
<polygon points="698,40 707,40 712,35 707,30 698,30 698,40 " style="fill:white; stroke-width:1; stroke:black; " description="&lt;b&gt;ctg1_2894&lt;/b&gt;&lt;br&gt;ctg1 2894&lt;br&gt;Location: 3092155 - 3092572" locus_tag="ctg1_2894" class="clusterblast-orf" id="knownclusterblast-15_q18_0_all"  />
<polygon points="719,35 724,30 754,30 754,40 724,40 719,35 " style="fill:white; stroke-width:1; stroke:black; " description="&lt;b&gt;ctg1_2895&lt;/b&gt;&lt;br&gt;ctg1 2895&lt;br&gt;Location: 3092755 - 3093736" locus_tag="ctg1_2895" class="clusterblast-orf" id="knownclusterblast-15_q19_0_all"  />
<polygon points="755,40 775,40 780,35 775,30 755,30 755,40 " style="fill:white; stroke-width:1; stroke:black; " description="&lt;b&gt;ctg1_2896&lt;/b&gt;&lt;br&gt;ctg1 2896&lt;br&gt;Location: 3093753 - 3094458" locus_tag="ctg1_2896" class="clusterblast-orf" id="knownclusterblast-15_q20_0_all"  />
</g>
<g label="MGC00000052" description="MGC00000052_c1: Arginine2putrescine E. coli (75% of genes show similarity), PUTR" class="clusterblast-cluster"  >
<text x="5" y="70" class="clusterblast-acc"  >
MGC00000052_c1: Arginine2putrescine E. coli (75% of genes show similarity), PUTR</text>
<line x1="10" y1="85" x2="778.0" y2="85" style="stroke-width:1; stroke:grey; "  />
</g>
<g id="a15_000"  >
<polygon points="152,85 157,80 170,80 170,90 157,90 152,85 " style="fill:#d81515; stroke-width:1; stroke:black; " description="&lt;b&gt;E2348C_RS17060&lt;/b&gt;&lt;br&gt;mannitol repressor&lt;br&gt;Location: 0 - 510&lt;br&gt;&lt;br&gt;&lt;b&gt;BlastP hit with ctg1_2877&lt;/b&gt;&lt;br&gt;Percentage identity: 98&lt;br&gt;Percentage coverage: 100&lt;br&gt;BLAST bit score: 333&lt;br&gt;E-value: 4.07e-121" locus_tag="E2348C_RS17060" class="clusterblast-orf" id="knownclusterblast-15_all_15_1_0"  />
</g>
<g id="a15_001"  >
<polygon points="487,85 492,80 520,80 520,90 492,90 487,85 " style="fill:#15d815; stroke-width:1; stroke:black; " description="&lt;b&gt;E2348C_RS17100&lt;/b&gt;&lt;br&gt;agmatinase&lt;br&gt;Location: 9380 - 10301&lt;br&gt;&lt;br&gt;&lt;b&gt;BlastP hit with ctg1_2884&lt;/b&gt;&lt;br&gt;Percentage identity: 100&lt;br&gt;Percentage coverage: 100&lt;br&gt;BLAST bit score: 625&lt;br&gt;E-value: 4.16e-232" locus_tag="E2348C_RS17100" class="clusterblast-orf" id="knownclusterblast-15_all_15_1_1"  />
</g>
<g id="a15_002"  >
<polygon points="525,85 530,80 551,80 551,90 530,90 525,85 " style="fill:white; stroke-width:1; stroke:black; " description="&lt;b&gt;E2348C_RS17105&lt;/b&gt;&lt;br&gt;hypothetical protein&lt;br&gt;Location: 10436 - 11168" locus_tag="E2348C_RS17105" class="clusterblast-orf" id="knownclusterblast-15_all_15_1_2"  />
</g>
<g id="a15_003"  >
<polygon points="556,85 561,80 627,80 627,90 561,90 556,85 " style="fill:#1515d8; stroke-width:1; stroke:black; " description="&lt;b&gt;E2348C_RS17110&lt;/b&gt;&lt;br&gt;arginine decarboxylase&lt;br&gt;Location: 11313 - 13290&lt;br&gt;&lt;br&gt;&lt;b&gt;BlastP hit with ctg1_2885&lt;/b&gt;&lt;br&gt;Percentage identity: 100&lt;br&gt;Percentage coverage: 100&lt;br&gt;BLAST bit score: 1312&lt;br&gt;E-value: 0.0" locus_tag="E2348C_RS17110" class="clusterblast-orf" id="knownclusterblast-15_all_15_1_3"  />
</g>
</svg>
