<svg xmlns="http://www.w3.org/2000/svg" xmlns:xlink="http://www.w3.org/1999/xlink" version="1.1" x="0" y="0" height="50" width="800" viewBox="0 0 800 50" preserveAspectRatio="none"  >
<g label="Query sequence" class="clusterblast-cluster"  >
<text x="5" y="20" class="clusterblast-acc"  >
Query sequence</text>
<line x1="10" y1="35" x2="778.0" y2="35" style="stroke-width:1; stroke:grey; "  />
<polygon points="0,35 5,30 33,30 33,40 5,40 0,35 " style="fill:white; stroke-width:1; stroke:black; " description="&lt;b&gt;ctg1_3418&lt;/b&gt;&lt;br&gt;ctg1 3418&lt;br&gt;Location: 3667661 - 3668765" locus_tag="ctg1_3418" class="clusterblast-orf" id="knownclusterblast-18_q0_0_all"  />
<polygon points="33,35 38,30 40,30 40,40 38,40 33,35 " style="fill:white; stroke-width:1; stroke:black; " description="&lt;b&gt;ctg1_3419&lt;/b&gt;&lt;br&gt;ctg1 3419&lt;br&gt;Location: 3668776 - 3668995" locus_tag="ctg1_3419" class="clusterblast-orf" id="knownclusterblast-18_q1_0_all"  />
<polygon points="40,35 45,30 78,30 78,40 45,40 40,35 " style="fill:white; stroke-width:1; stroke:black; " description="&lt;b&gt;ctg1_3420&lt;/b&gt;&lt;br&gt;ctg1 3420&lt;br&gt;Location: 3669004 - 3670264" locus_tag="ctg1_3420" class="clusterblast-orf" id="knownclusterblast-18_q2_0_all"  />
<polygon points="88,35 93,30 97,30 97,40 93,40 88,35 " style="fill:white; stroke-width:1; stroke:black; " description="&lt;b&gt;ctg1_3421&lt;/b&gt;&lt;br&gt;ctg1 3421&lt;br&gt;Location: 3670590 - 3670920" locus_tag="ctg1_3421" class="clusterblast-orf" id="knownclusterblast-18_q3_0_all"  />
<polygon points="101,40 134,40 139,35 134,30 101,30 101,40 " style="fill:white; stroke-width:1; stroke:black; " description="&lt;b&gt;ctg1_3422&lt;/b&gt;&lt;br&gt;ctg1 3422&lt;br&gt;Location: 3671050 - 3672316" locus_tag="ctg1_3422" class="clusterblast-orf" id="knownclusterblast-18_q4_0_all"  />
<polygon points="143,40 183,40 188,35 183,30 143,30 143,40 " style="fill:white; stroke-width:1; stroke:black; " description="&lt;b&gt;ctg1_3423&lt;/b&gt;&lt;br&gt;ctg1 3423&lt;br&gt;Location: 3672451 - 3673936" locus_tag="ctg1_3423" class="clusterblast-orf" id="knownclusterblast-18_q5_0_all"  />
<polygon points="189,35 194,30 250,30 250,40 194,40 189,35 " style="fill:white; stroke-width:1; stroke:black; " description="&lt;b&gt;ctg1_3424&lt;/b&gt;&lt;br&gt;ctg1 3424&lt;br&gt;Location: 3673982 - 3676004" locus_tag="ctg1_3424" class="clusterblast-orf" id="knownclusterblast-18_q6_0_all"  />
<polygon points="256,40 258,40 263,35 258,30 256,30 256,40 " style="fill:white; stroke-width:1; stroke:black; " description="&lt;b&gt;ctg1_3425&lt;/b&gt;&lt;br&gt;ctg1 3425&lt;br&gt;Location: 3676220 - 3676439" locus_tag="ctg1_3425" class="clusterblast-orf" id="knownclusterblast-18_q7_0_all"  />
<polygon points="276,40 279,40 284,35 279,30 276,30 276,40 " style="fill:white; stroke-width:1; stroke:black; " description="&lt;b&gt;ctg1_3426&lt;/b&gt;&lt;br&gt;ctg1 3426&lt;br&gt;Location: 3676867 - 3677149" locus_tag="ctg1_3426" class="clusterblast-orf" id="knownclusterblast-18_q8_0_all"  />
<polygon points="287,35 292,30 331,30 331,40 292,40 287,35 " style="fill:white; stroke-width:1; stroke:black; " description="&lt;b&gt;ctg1_3427&lt;/b&gt;&lt;br&gt;ctg1 3427&lt;br&gt;Location: 3677235 - 3678711" locus_tag="ctg1_3427" class="clusterblast-orf" id="knownclusterblast-18_q9_0_all"  />
<polygon points="335,40 357,40 362,35 357,30 335,30 335,40 " style="fill:white; stroke-width:1; stroke:black; " description="&lt;b&gt;ctg1_3428&lt;/b&gt;&lt;br&gt;ctg1 3428&lt;br&gt;Location: 3678860 - 3679754" locus_tag="ctg1_3428" class="clusterblast-orf" id="knownclusterblast-18_q10_0_all"  />
<polygon points="364,35 369,30 410,30 410,40 369,40 364,35 " style="fill:white; stroke-width:1; stroke:black; " description="&lt;b&gt;ctg1_3429&lt;/b&gt;&lt;br&gt;ctg1 3429&lt;br&gt;Location: 3679805 - 3681350" locus_tag="ctg1_3429" class="clusterblast-orf" id="knownclusterblast-18_q11_0_all"  />
<polygon points="410,35 415,30 466,30 466,40 415,40 410,35 " style="fill:white; stroke-width:1; stroke:black; " description="&lt;b&gt;ctg1_3430&lt;/b&gt;&lt;br&gt;ctg1 3430&lt;br&gt;Location: 3681352 - 3683203" locus_tag="ctg1_3430" class="clusterblast-orf" id="knownclusterblast-18_q12_0_all"  />
<polygon points="468,35 473,30 495,30 495,40 473,40 468,35 " style="fill:white; stroke-width:1; stroke:black; " description="&lt;b&gt;ctg1_3431&lt;/b&gt;&lt;br&gt;ctg1 3431&lt;br&gt;Location: 3683267 - 3684197" locus_tag="ctg1_3431" class="clusterblast-orf" id="knownclusterblast-18_q13_0_all"  />
<polygon points="496,35 501,30 504,30 504,40 501,40 496,35 " style="fill:white; stroke-width:1; stroke:black; " description="&lt;b&gt;ctg1_3432&lt;/b&gt;&lt;br&gt;ctg1 3432&lt;br&gt;Location: 3684216 - 3684480" locus_tag="ctg1_3432" class="clusterblast-orf" id="knownclusterblast-18_q14_0_all"  />
<polygon points="504,35 509,30 520,30 520,40 509,40 504,35 " style="fill:white; stroke-width:1; stroke:black; " description="&lt;b&gt;ctg1_3433&lt;/b&gt;&lt;br&gt;ctg1 3433&lt;br&gt;Location: 3684476 - 3685013" locus_tag="ctg1_3433" class="clusterblast-orf" id="knownclusterblast-18_q15_0_all"  />
<polygon points="524,35 529,30 553,30 553,40 529,40 524,35 " style="fill:white; stroke-width:1; stroke:black; " description="&lt;b&gt;ctg1_3434&lt;/b&gt;&lt;br&gt;ctg1 3434&lt;br&gt;Location: 3685137 - 3686121" locus_tag="ctg1_3434" class="clusterblast-orf" id="knownclusterblast-18_q16_0_all"  />
<polygon points="563,35 566,30 566,40 563,35 " style="fill:white; stroke-width:1; stroke:black; " description="&lt;b&gt;ctg1_3435&lt;/b&gt;&lt;br&gt;ctg1 3435&lt;br&gt;Location: 3686467 - 3686557" locus_tag="ctg1_3435" class="clusterblast-orf" id="knownclusterblast-18_q17_0_all"  />
<polygon points="571,40 611,40 616,35 611,30 571,30 571,40 " style="fill:white; stroke-width:1; stroke:black; " description="&lt;b&gt;ctg1_3436&lt;/b&gt;&lt;br&gt;ctg1 3436&lt;br&gt;Location: 3686711 - 3688232" locus_tag="ctg1_3436" class="clusterblast-orf" id="knownclusterblast-18_q18_0_all"  />
<polygon points="617,35 622,30 627,30 627,40 622,40 617,35 " style="fill:white; stroke-width:1; stroke:black; " description="&lt;b&gt;ctg1_3437&lt;/b&gt;&lt;br&gt;ctg1 3437&lt;br&gt;Location: 3688256 - 3688595" locus_tag="ctg1_3437" class="clusterblast-orf" id="knownclusterblast-18_q19_0_all"  />
<polygon points="631,40 651,40 656,35 651,30 631,30 631,40 " style="fill:white; stroke-width:1; stroke:black; " description="&lt;b&gt;ctg1_3438&lt;/b&gt;&lt;br&gt;ctg1 3438&lt;br&gt;Location: 3688713 - 3689553" locus_tag="ctg1_3438" class="clusterblast-orf" id="knownclusterblast-18_q20_0_all"  />
<polygon points="772,35 777,30 780,30 780,40 777,40 772,35 " style="fill:white; stroke-width:1; stroke:black; " description="&lt;b&gt;ctg1_3439&lt;/b&gt;&lt;br&gt;ctg1 3439&lt;br&gt;Location: 3693431 - 3693686" locus_tag="ctg1_3439" class="clusterblast-orf" id="knownclusterblast-18_q21_0_all"  />
</g>
</svg>
