<svg xmlns="http://www.w3.org/2000/svg" xmlns:xlink="http://www.w3.org/1999/xlink" version="1.1" x="0" y="0" height="100" width="800" viewBox="0 0 800 100" preserveAspectRatio="none"  >
<g label="Query sequence" class="clusterblast-cluster"  >
<text x="5" y="20" class="clusterblast-acc"  >
Query sequence</text>
<line x1="10" y1="35" x2="778.0" y2="35" style="stroke-width:1; stroke:grey; "  />
<polygon points="0,35 5,30 18,30 18,40 5,40 0,35 " style="fill:white; stroke-width:1; stroke:black; " description="&lt;b&gt;ctg1_1598&lt;/b&gt;&lt;br&gt;ctg1 1598&lt;br&gt;Location: 1698175 - 1698754" locus_tag="ctg1_1598" class="clusterblast-orf" id="knownclusterblast-9_q0_0_all"  />
<polygon points="25,35 30,30 49,30 49,40 30,40 25,35 " style="fill:white; stroke-width:1; stroke:black; " description="&lt;b&gt;ctg1_1599&lt;/b&gt;&lt;br&gt;ctg1 1599&lt;br&gt;Location: 1698986 - 1699754" locus_tag="ctg1_1599" class="clusterblast-orf" id="knownclusterblast-9_q1_0_all"  />
<polygon points="53,35 58,30 85,30 85,40 58,40 53,35 " style="fill:white; stroke-width:1; stroke:black; " description="&lt;b&gt;ctg1_1600&lt;/b&gt;&lt;br&gt;ctg1 1600&lt;br&gt;Location: 1699865 - 1700894" locus_tag="ctg1_1600" class="clusterblast-orf" id="knownclusterblast-9_q2_0_all"  />
<polygon points="91,40 136,40 141,35 136,30 91,30 91,40 " style="fill:white; stroke-width:1; stroke:black; " description="&lt;b&gt;ctg1_1601&lt;/b&gt;&lt;br&gt;ctg1 1601&lt;br&gt;Location: 1701068 - 1702661" locus_tag="ctg1_1601" class="clusterblast-orf" id="knownclusterblast-9_q3_0_all"  />
<polygon points="141,40 173,40 178,35 173,30 141,30 141,40 " style="fill:white; stroke-width:1; stroke:black; " description="&lt;b&gt;ctg1_1602&lt;/b&gt;&lt;br&gt;ctg1 1602&lt;br&gt;Location: 1702670 - 1703843" locus_tag="ctg1_1602" class="clusterblast-orf" id="knownclusterblast-9_q4_0_all"  />
<polygon points="181,40 208,40 213,35 208,30 181,30 181,40 " style="fill:white; stroke-width:1; stroke:black; " description="&lt;b&gt;ctg1_1603&lt;/b&gt;&lt;br&gt;ctg1 1603&lt;br&gt;Location: 1703946 - 1704948" locus_tag="ctg1_1603" class="clusterblast-orf" id="knownclusterblast-9_q5_0_all"  />
<polygon points="214,35 219,30 247,30 247,40 219,40 214,35 " style="fill:white; stroke-width:1; stroke:black; " description="&lt;b&gt;ctg1_1604&lt;/b&gt;&lt;br&gt;ctg1 1604&lt;br&gt;Location: 1704981 - 1706022" locus_tag="ctg1_1604" class="clusterblast-orf" id="knownclusterblast-9_q6_0_all"  />
<polygon points="267,40 269,40 274,35 269,30 267,30 267,40 " style="fill:white; stroke-width:1; stroke:black; " description="&lt;b&gt;ctg1_1605&lt;/b&gt;&lt;br&gt;ctg1 1605&lt;br&gt;Location: 1706662 - 1706878" locus_tag="ctg1_1605" class="clusterblast-orf" id="knownclusterblast-9_q7_0_all"  />
<polygon points="276,40 285,40 290,35 285,30 276,30 276,40 " style="fill:white; stroke-width:1; stroke:black; " description="&lt;b&gt;ctg1_1606&lt;/b&gt;&lt;br&gt;ctg1 1606&lt;br&gt;Location: 1706963 - 1707404" locus_tag="ctg1_1606" class="clusterblast-orf" id="knownclusterblast-9_q8_0_all"  />
<polygon points="292,40 306,40 311,35 306,30 292,30 292,40 " style="fill:#d81515; stroke-width:1; stroke:black; " description="&lt;b&gt;ctg1_1607&lt;/b&gt;&lt;br&gt;ctg1 1607&lt;br&gt;Location: 1707480 - 1708062" locus_tag="ctg1_1607" class="clusterblast-orf" id="knownclusterblast-9_q9_0_all"  />
<polygon points="311,40 324,40 329,35 324,30 311,30 311,40 " style="fill:#15d815; stroke-width:1; stroke:black; " description="&lt;b&gt;ctg1_1608&lt;/b&gt;&lt;br&gt;ctg1 1608&lt;br&gt;Location: 1708061 - 1708640" locus_tag="ctg1_1608" class="clusterblast-orf" id="knownclusterblast-9_q10_0_all"  />
<polygon points="329,40 394,40 399,35 394,30 329,30 329,40 " style="fill:#1515d8; stroke-width:1; stroke:black; " description="&lt;b&gt;ctg1_1609&lt;/b&gt;&lt;br&gt;ctg1 1609&lt;br&gt;Location: 1708632 - 1710855" locus_tag="ctg1_1609" class="clusterblast-orf" id="knownclusterblast-9_q11_0_all"  />
<polygon points="399,40 427,40 432,35 427,30 399,30 399,40 " style="fill:white; stroke-width:1; stroke:black; " description="&lt;b&gt;ctg1_1610&lt;/b&gt;&lt;br&gt;ctg1 1610&lt;br&gt;Location: 1710855 - 1711914" locus_tag="ctg1_1610" class="clusterblast-orf" id="knownclusterblast-9_q12_0_all"  />
<polygon points="432,40 447,40 452,35 447,30 432,30 432,40 " style="fill:white; stroke-width:1; stroke:black; " description="&lt;b&gt;ctg1_1611&lt;/b&gt;&lt;br&gt;ctg1 1611&lt;br&gt;Location: 1711917 - 1712538" locus_tag="ctg1_1611" class="clusterblast-orf" id="knownclusterblast-9_q13_0_all"  />
<polygon points="452,40 469,40 474,35 469,30 452,30 452,40 " style="fill:#d81515; stroke-width:1; stroke:black; " description="&lt;b&gt;ctg1_1612&lt;/b&gt;&lt;br&gt;ctg1 1612&lt;br&gt;Location: 1712541 - 1713237" locus_tag="ctg1_1612" class="clusterblast-orf" id="knownclusterblast-9_q14_0_all"  />
<polygon points="474,40 489,40 494,35 489,30 474,30 474,40 " style="fill:white; stroke-width:1; stroke:black; " description="&lt;b&gt;ctg1_1613&lt;/b&gt;&lt;br&gt;ctg1 1613&lt;br&gt;Location: 1713236 - 1713872" locus_tag="ctg1_1613" class="clusterblast-orf" id="knownclusterblast-9_q15_0_all"  />
<polygon points="498,40 499,40 504,35 499,30 498,30 498,40 " style="fill:white; stroke-width:1; stroke:black; " description="&lt;b&gt;ctg1_1614&lt;/b&gt;&lt;br&gt;ctg1 1614&lt;br&gt;Location: 1713999 - 1714200" locus_tag="ctg1_1614" class="clusterblast-orf" id="knownclusterblast-9_q16_0_all"  />
<polygon points="513,40 555,40 560,35 555,30 513,30 513,40 " style="fill:white; stroke-width:1; stroke:black; " description="&lt;b&gt;ctg1_1615&lt;/b&gt;&lt;br&gt;ctg1 1615&lt;br&gt;Location: 1714482 - 1715985" locus_tag="ctg1_1615" class="clusterblast-orf" id="knownclusterblast-9_q17_0_all"  />
<polygon points="563,40 577,40 582,35 577,30 563,30 563,40 " style="fill:white; stroke-width:1; stroke:black; " description="&lt;b&gt;ctg1_1616&lt;/b&gt;&lt;br&gt;ctg1 1616&lt;br&gt;Location: 1716090 - 1716696" locus_tag="ctg1_1616" class="clusterblast-orf" id="knownclusterblast-9_q18_0_all"  />
<polygon points="584,35 589,30 611,30 611,40 589,40 584,35 " style="fill:white; stroke-width:1; stroke:black; " description="&lt;b&gt;ctg1_1617&lt;/b&gt;&lt;br&gt;ctg1 1617&lt;br&gt;Location: 1716739 - 1717600" locus_tag="ctg1_1617" class="clusterblast-orf" id="knownclusterblast-9_q19_0_all"  />
<polygon points="613,35 618,30 653,30 653,40 618,40 613,35 " style="fill:white; stroke-width:1; stroke:black; " description="&lt;b&gt;ctg1_1618&lt;/b&gt;&lt;br&gt;ctg1 1618&lt;br&gt;Location: 1717661 - 1718936" locus_tag="ctg1_1618" class="clusterblast-orf" id="knownclusterblast-9_q20_0_all"  />
<polygon points="657,35 662,30 677,30 677,40 662,40 657,35 " style="fill:white; stroke-width:1; stroke:black; " description="&lt;b&gt;ctg1_1619&lt;/b&gt;&lt;br&gt;ctg1 1619&lt;br&gt;Location: 1719064 - 1719721" locus_tag="ctg1_1619" class="clusterblast-orf" id="knownclusterblast-9_q21_0_all"  />
<polygon points="679,35 684,30 689,30 689,40 684,40 679,35 " style="fill:white; stroke-width:1; stroke:black; " description="&lt;b&gt;ctg1_1620&lt;/b&gt;&lt;br&gt;ctg1 1620&lt;br&gt;Location: 1719779 - 1720103" locus_tag="ctg1_1620" class="clusterblast-orf" id="knownclusterblast-9_q22_0_all"  />
<polygon points="693,35 698,30 728,30 728,40 698,40 693,35 " style="fill:white; stroke-width:1; stroke:black; " description="&lt;b&gt;ctg1_1621&lt;/b&gt;&lt;br&gt;ctg1 1621&lt;br&gt;Location: 1720206 - 1721316" locus_tag="ctg1_1621" class="clusterblast-orf" id="knownclusterblast-9_q23_0_all"  />
<polygon points="736,40 746,40 751,35 746,30 736,30 736,40 " style="fill:white; stroke-width:1; stroke:black; " description="&lt;b&gt;ctg1_1622&lt;/b&gt;&lt;br&gt;ctg1 1622&lt;br&gt;Location: 1721589 - 1722057" locus_tag="ctg1_1622" class="clusterblast-orf" id="knownclusterblast-9_q24_0_all"  />
<polygon points="752,35 757,30 766,30 766,40 757,40 752,35 " style="fill:white; stroke-width:1; stroke:black; " description="&lt;b&gt;ctg1_1623&lt;/b&gt;&lt;br&gt;ctg1 1623&lt;br&gt;Location: 1722103 - 1722538" locus_tag="ctg1_1623" class="clusterblast-orf" id="knownclusterblast-9_q25_0_all"  />
<polygon points="772,40 775,40 780,35 775,30 772,30 772,40 " style="fill:white; stroke-width:1; stroke:black; " description="&lt;b&gt;ctg1_1624&lt;/b&gt;&lt;br&gt;ctg1 1624&lt;br&gt;Location: 1722738 - 1722975" locus_tag="ctg1_1624" class="clusterblast-orf" id="knownclusterblast-9_q26_0_all"  />
</g>
<g label="MGC00000037" description="MGC00000037_c1: Rnf complex C. sporogenes (66% of genes show similarity), RNF" class="clusterblast-cluster"  >
<text x="5" y="70" class="clusterblast-acc"  >
MGC00000037_c1: Rnf complex C. sporogenes (66% of genes show similarity), RNF</text>
<line x1="10" y1="85" x2="778.0" y2="85" style="stroke-width:1; stroke:grey; "  />
</g>
<g id="a9_000"  >
<polygon points="312,90 349,90 354,85 349,80 312,80 312,90 " style="fill:#1515d8; stroke-width:1; stroke:black; " description="&lt;b&gt;CLOSPO_00573&lt;/b&gt;&lt;br&gt;electron transport complex, RnfABCDGE type, C subunit&lt;br&gt;Location: 14950 - 13606&lt;br&gt;&lt;br&gt;&lt;b&gt;BlastP hit with ctg1_1609&lt;/b&gt;&lt;br&gt;Percentage identity: 39&lt;br&gt;Percentage coverage: 52&lt;br&gt;BLAST bit score: 275&lt;br&gt;E-value: 1.64e-86" locus_tag="CLOSPO_00573" class="clusterblast-orf" id="knownclusterblast-9_all_9_1_0"  />
</g>
<g id="a9_001"  >
<polygon points="355,90 379,90 384,85 379,80 355,80 355,90 " style="fill:white; stroke-width:1; stroke:black; " description="&lt;b&gt;CLOSPO_00572&lt;/b&gt;&lt;br&gt;electron transport complex, RnfABCDGE type, D subunit&lt;br&gt;Location: 13584 - 12651" locus_tag="CLOSPO_00572" class="clusterblast-orf" id="knownclusterblast-9_all_9_1_1"  />
</g>
<g id="a9_002"  >
<polygon points="384,90 397,90 402,85 397,80 384,80 384,90 " style="fill:white; stroke-width:1; stroke:black; " description="&lt;b&gt;CLOSPO_00571&lt;/b&gt;&lt;br&gt;electron transport complex, RnfABCDGE type, G subunit&lt;br&gt;Location: 12652 - 12079" locus_tag="CLOSPO_00571" class="clusterblast-orf" id="knownclusterblast-9_all_9_1_2"  />
</g>
<g id="a9_003"  >
<polygon points="402,90 416,90 421,85 416,80 402,80 402,90 " style="fill:#d81515; stroke-width:1; stroke:black; " description="&lt;b&gt;CLOSPO_00570&lt;/b&gt;&lt;br&gt;electron transport complex, RnfABCDGE type, E subunit&lt;br&gt;Location: 12080 - 11480&lt;br&gt;&lt;br&gt;&lt;b&gt;BlastP hit with ctg1_1612&lt;/b&gt;&lt;br&gt;Percentage identity: 42&lt;br&gt;Percentage coverage: 92&lt;br&gt;BLAST bit score: 150&lt;br&gt;E-value: 1.62e-47" locus_tag="CLOSPO_00570" class="clusterblast-orf" id="knownclusterblast-9_all_9_1_3"  />
</g>
<g id="a9_004"  >
<polygon points="422,90 436,90 441,85 436,80 422,80 422,90 " style="fill:#d81515; stroke-width:1; stroke:black; " description="&lt;b&gt;CLOSPO_00569&lt;/b&gt;&lt;br&gt;electron transport complex, RnfABCDGE type, A subunit&lt;br&gt;Location: 11438 - 10847&lt;br&gt;&lt;br&gt;&lt;b&gt;BlastP hit with ctg1_1607&lt;/b&gt;&lt;br&gt;Percentage identity: 56&lt;br&gt;Percentage coverage: 96&lt;br&gt;BLAST bit score: 193&lt;br&gt;E-value: 6.59e-65&lt;br&gt;&lt;br&gt;&lt;b&gt;BlastP hit with ctg1_1612&lt;/b&gt;&lt;br&gt;Percentage identity: 32&lt;br&gt;Percentage coverage: 68&lt;br&gt;BLAST bit score: 68&lt;br&gt;E-value: 5.5e-16" locus_tag="CLOSPO_00569" class="clusterblast-orf" id="knownclusterblast-9_all_9_1_4"  />
</g>
<g id="a9_005"  >
<polygon points="441,90 462,90 467,85 462,80 441,80 441,90 " style="fill:#15d815; stroke-width:1; stroke:black; " description="&lt;b&gt;CLOSPO_00568&lt;/b&gt;&lt;br&gt;electron transport complex, RnfABCDGE type, B subunit&lt;br&gt;Location: 10834 - 10000&lt;br&gt;&lt;br&gt;&lt;b&gt;BlastP hit with ctg1_1608&lt;/b&gt;&lt;br&gt;Percentage identity: 35&lt;br&gt;Percentage coverage: 82&lt;br&gt;BLAST bit score: 89&lt;br&gt;E-value: 1.14e-23" locus_tag="CLOSPO_00568" class="clusterblast-orf" id="knownclusterblast-9_all_9_1_5"  />
</g>
</svg>
