<svg xmlns="http://www.w3.org/2000/svg" xmlns:xlink="http://www.w3.org/1999/xlink" version="1.1" x="0" y="0" height="100" width="800" viewBox="0 0 800 100" preserveAspectRatio="none"  >
<g label="Query sequence" class="clusterblast-cluster"  >
<text x="5" y="20" class="clusterblast-acc"  >
Query sequence</text>
<line x1="10" y1="35" x2="778.0" y2="35" style="stroke-width:1; stroke:grey; "  />
<polygon points="0,40 81,40 86,35 81,30 0,30 0,40 " style="fill:white; stroke-width:1; stroke:black; " description="&lt;b&gt;ctg1_2207&lt;/b&gt;&lt;br&gt;ctg1 2207&lt;br&gt;Location: 2349534 - 2351820" locus_tag="ctg1_2207" class="clusterblast-orf" id="knownclusterblast-10_q0_0_all"  />
<polygon points="95,40 132,40 137,35 132,30 95,30 95,40 " style="fill:white; stroke-width:1; stroke:black; " description="&lt;b&gt;ctg1_2208&lt;/b&gt;&lt;br&gt;ctg1 2208&lt;br&gt;Location: 2352053 - 2353184" locus_tag="ctg1_2208" class="clusterblast-orf" id="knownclusterblast-10_q1_0_all"  />
<polygon points="137,40 142,40 147,35 142,30 137,30 137,40 " style="fill:white; stroke-width:1; stroke:black; " description="&lt;b&gt;ctg1_2209&lt;/b&gt;&lt;br&gt;ctg1 2209&lt;br&gt;Location: 2353183 - 2353438" locus_tag="ctg1_2209" class="clusterblast-orf" id="knownclusterblast-10_q2_0_all"  />
<polygon points="149,35 154,30 173,30 173,40 154,40 149,35 " style="fill:white; stroke-width:1; stroke:black; " description="&lt;b&gt;ctg1_2210&lt;/b&gt;&lt;br&gt;ctg1 2210&lt;br&gt;Location: 2353491 - 2354142" locus_tag="ctg1_2210" class="clusterblast-orf" id="knownclusterblast-10_q3_0_all"  />
<polygon points="181,40 184,40 189,35 184,30 181,30 181,40 " style="fill:white; stroke-width:1; stroke:black; " description="&lt;b&gt;ctg1_2211&lt;/b&gt;&lt;br&gt;ctg1 2211&lt;br&gt;Location: 2354356 - 2354563" locus_tag="ctg1_2211" class="clusterblast-orf" id="knownclusterblast-10_q4_0_all"  />
<polygon points="190,35 195,30 231,30 231,40 195,40 190,35 " style="fill:white; stroke-width:1; stroke:black; " description="&lt;b&gt;ctg1_2212&lt;/b&gt;&lt;br&gt;ctg1 2212&lt;br&gt;Location: 2354604 - 2355681" locus_tag="ctg1_2212" class="clusterblast-orf" id="knownclusterblast-10_q5_0_all"  />
<polygon points="231,35 236,30 282,30 282,40 236,40 231,35 " style="fill:white; stroke-width:1; stroke:black; " description="&lt;b&gt;ctg1_2213&lt;/b&gt;&lt;br&gt;ctg1 2213&lt;br&gt;Location: 2355685 - 2357044" locus_tag="ctg1_2213" class="clusterblast-orf" id="knownclusterblast-10_q6_0_all"  />
<polygon points="292,40 349,40 354,35 349,30 292,30 292,40 " style="fill:#d81515; stroke-width:1; stroke:black; " description="&lt;b&gt;ctg1_2214&lt;/b&gt;&lt;br&gt;ctg1 2214&lt;br&gt;Location: 2357316 - 2358945" locus_tag="ctg1_2214" class="clusterblast-orf" id="knownclusterblast-10_q7_0_all"  />
<polygon points="353,40 395,40 400,35 395,30 353,30 353,40 " style="fill:#15d815; stroke-width:1; stroke:black; " description="&lt;b&gt;ctg1_2215&lt;/b&gt;&lt;br&gt;ctg1 2215&lt;br&gt;Location: 2358934 - 2360194" locus_tag="ctg1_2215" class="clusterblast-orf" id="knownclusterblast-10_q8_0_all"  />
<polygon points="400,40 440,40 445,35 440,30 400,30 400,40 " style="fill:#1515d8; stroke-width:1; stroke:black; " description="&lt;b&gt;ctg1_2216&lt;/b&gt;&lt;br&gt;ctg1 2216&lt;br&gt;Location: 2360190 - 2361381" locus_tag="ctg1_2216" class="clusterblast-orf" id="knownclusterblast-10_q9_0_all"  />
<polygon points="452,40 481,40 486,35 481,30 452,30 452,40 " style="fill:white; stroke-width:1; stroke:black; " description="&lt;b&gt;ctg1_2217&lt;/b&gt;&lt;br&gt;ctg1 2217&lt;br&gt;Location: 2361573 - 2362473" locus_tag="ctg1_2217" class="clusterblast-orf" id="knownclusterblast-10_q10_0_all"  />
<polygon points="487,40 489,40 494,35 489,30 487,30 487,40 " style="fill:white; stroke-width:1; stroke:black; " description="&lt;b&gt;ctg1_2218&lt;/b&gt;&lt;br&gt;ctg1 2218&lt;br&gt;Location: 2362485 - 2362671" locus_tag="ctg1_2218" class="clusterblast-orf" id="knownclusterblast-10_q11_0_all"  />
<polygon points="495,35 500,30 525,30 525,40 500,40 495,35 " style="fill:white; stroke-width:1; stroke:black; " description="&lt;b&gt;ctg1_2219&lt;/b&gt;&lt;br&gt;ctg1 2219&lt;br&gt;Location: 2362711 - 2363515" locus_tag="ctg1_2219" class="clusterblast-orf" id="knownclusterblast-10_q12_0_all"  />
<polygon points="526,35 531,30 574,30 574,40 531,40 526,35 " style="fill:white; stroke-width:1; stroke:black; " description="&lt;b&gt;ctg1_2220&lt;/b&gt;&lt;br&gt;ctg1 2220&lt;br&gt;Location: 2363532 - 2364822" locus_tag="ctg1_2220" class="clusterblast-orf" id="knownclusterblast-10_q13_0_all"  />
<polygon points="576,35 581,30 622,30 622,40 581,40 576,35 " style="fill:white; stroke-width:1; stroke:black; " description="&lt;b&gt;ctg1_2221&lt;/b&gt;&lt;br&gt;ctg1 2221&lt;br&gt;Location: 2364878 - 2366084" locus_tag="ctg1_2221" class="clusterblast-orf" id="knownclusterblast-10_q14_0_all"  />
<polygon points="622,35 627,30 652,30 652,40 627,40 622,35 " style="fill:white; stroke-width:1; stroke:black; " description="&lt;b&gt;ctg1_2222&lt;/b&gt;&lt;br&gt;ctg1 2222&lt;br&gt;Location: 2366098 - 2366881" locus_tag="ctg1_2222" class="clusterblast-orf" id="knownclusterblast-10_q15_0_all"  />
<polygon points="660,35 665,30 705,30 705,40 665,40 660,35 " style="fill:white; stroke-width:1; stroke:black; " description="&lt;b&gt;ctg1_2223&lt;/b&gt;&lt;br&gt;ctg1 2223&lt;br&gt;Location: 2367100 - 2368303" locus_tag="ctg1_2223" class="clusterblast-orf" id="knownclusterblast-10_q16_0_all"  />
<polygon points="709,35 714,30 729,30 729,40 714,40 709,35 " style="fill:white; stroke-width:1; stroke:black; " description="&lt;b&gt;ctg1_2224&lt;/b&gt;&lt;br&gt;ctg1 2224&lt;br&gt;Location: 2368402 - 2368945" locus_tag="ctg1_2224" class="clusterblast-orf" id="knownclusterblast-10_q17_0_all"  />
<polygon points="740,40 751,40 756,35 751,30 740,30 740,40 " style="fill:white; stroke-width:1; stroke:black; " description="&lt;b&gt;ctg1_2225&lt;/b&gt;&lt;br&gt;ctg1 2225&lt;br&gt;Location: 2369223 - 2369649" locus_tag="ctg1_2225" class="clusterblast-orf" id="knownclusterblast-10_q18_0_all"  />
<polygon points="757,35 762,30 780,30 780,40 762,40 757,35 " style="fill:white; stroke-width:1; stroke:black; " description="&lt;b&gt;ctg1_2226&lt;/b&gt;&lt;br&gt;ctg1 2226&lt;br&gt;Location: 2369687 - 2370290" locus_tag="ctg1_2226" class="clusterblast-orf" id="knownclusterblast-10_q19_0_all"  />
</g>
<g label="MGC00000047" description="MGC00000047_c1: GlycerolP to glyceroneP E. coli (100% of genes show similarity), GLYP" class="clusterblast-cluster"  >
<text x="5" y="70" class="clusterblast-acc"  >
MGC00000047_c1: GlycerolP to glyceroneP E. coli (100% of genes show similarity), GLYP</text>
<line x1="10" y1="85" x2="778.0" y2="85" style="stroke-width:1; stroke:grey; "  />
</g>
<g id="a10_000"  >
<polygon points="313,90 369,90 374,85 369,80 313,80 313,90 " style="fill:#d81515; stroke-width:1; stroke:black; " description="&lt;b&gt;b2241&lt;/b&gt;&lt;br&gt;anaerobic glycerol-3-phosphate dehydrogenase subunit A&lt;br&gt;Location: 10000 - 11629&lt;br&gt;&lt;br&gt;&lt;b&gt;BlastP hit with ctg1_2214&lt;/b&gt;&lt;br&gt;Percentage identity: 100&lt;br&gt;Percentage coverage: 100&lt;br&gt;BLAST bit score: 1076&lt;br&gt;E-value: 0.0" locus_tag="b2241" class="clusterblast-orf" id="knownclusterblast-10_all_10_1_0"  />
</g>
<g id="a10_001"  >
<polygon points="374,90 416,90 421,85 416,80 374,80 374,90 " style="fill:#15d815; stroke-width:1; stroke:black; " description="&lt;b&gt;b2242&lt;/b&gt;&lt;br&gt;anaerobic glycerol-3-phosphate dehydrogenase subunit B&lt;br&gt;Location: 11618 - 12878&lt;br&gt;&lt;br&gt;&lt;b&gt;BlastP hit with ctg1_2215&lt;/b&gt;&lt;br&gt;Percentage identity: 100&lt;br&gt;Percentage coverage: 100&lt;br&gt;BLAST bit score: 843&lt;br&gt;E-value: 1.05e-314" locus_tag="b2242" class="clusterblast-orf" id="knownclusterblast-10_all_10_1_1"  />
</g>
<g id="a10_002"  >
<polygon points="421,90 461,90 466,85 461,80 421,80 421,90 " style="fill:#1515d8; stroke-width:1; stroke:black; " description="&lt;b&gt;b2243&lt;/b&gt;&lt;br&gt;anaerobic glycerol-3-phosphate dehydrogenase subunit C&lt;br&gt;Location: 12874 - 14065&lt;br&gt;&lt;br&gt;&lt;b&gt;BlastP hit with ctg1_2216&lt;/b&gt;&lt;br&gt;Percentage identity: 100&lt;br&gt;Percentage coverage: 100&lt;br&gt;BLAST bit score: 787&lt;br&gt;E-value: 3.12e-293" locus_tag="b2243" class="clusterblast-orf" id="knownclusterblast-10_all_10_1_2"  />
</g>
</svg>
