<svg xmlns="http://www.w3.org/2000/svg" xmlns:xlink="http://www.w3.org/1999/xlink" version="1.1" x="0" y="0" height="200" width="800" viewBox="0 0 800 200" preserveAspectRatio="none"  >
<g label="Query sequence" class="clusterblast-cluster"  >
<text x="5" y="20" class="clusterblast-acc"  >
Query sequence</text>
<line x1="10" y1="35" x2="778.0" y2="35" style="stroke-width:1; stroke:grey; "  />
<polygon points="0,35 5,30 7,30 7,40 5,40 0,35 " style="fill:white; stroke-width:1; stroke:black; " description="&lt;b&gt;ctg1_2241&lt;/b&gt;&lt;br&gt;ctg1 2241&lt;br&gt;Location: 2385391 - 2385697" locus_tag="ctg1_2241" class="clusterblast-orf" id="knownclusterblast-11_q0_0_all"  />
<polygon points="8,35 13,30 19,30 19,40 13,40 8,35 " style="fill:white; stroke-width:1; stroke:black; " description="&lt;b&gt;ctg1_2242&lt;/b&gt;&lt;br&gt;ctg1 2242&lt;br&gt;Location: 2385751 - 2386213" locus_tag="ctg1_2242" class="clusterblast-orf" id="knownclusterblast-11_q1_0_all"  />
<polygon points="21,40 37,40 42,35 37,30 21,30 21,40 " style="fill:white; stroke-width:1; stroke:black; " description="&lt;b&gt;ctg1_2243&lt;/b&gt;&lt;br&gt;ctg1 2243&lt;br&gt;Location: 2386277 - 2387195" locus_tag="ctg1_2243" class="clusterblast-orf" id="knownclusterblast-11_q2_0_all"  />
<polygon points="47,40 70,40 75,35 70,30 47,30 47,40 " style="fill:white; stroke-width:1; stroke:black; " description="&lt;b&gt;ctg1_2244&lt;/b&gt;&lt;br&gt;ctg1 2244&lt;br&gt;Location: 2387385 - 2388594" locus_tag="ctg1_2244" class="clusterblast-orf" id="knownclusterblast-11_q3_0_all"  />
<polygon points="77,35 82,30 117,30 117,40 82,40 77,35 " style="fill:white; stroke-width:1; stroke:black; " description="&lt;b&gt;ctg1_2245&lt;/b&gt;&lt;br&gt;ctg1 2245&lt;br&gt;Location: 2388664 - 2390392" locus_tag="ctg1_2245" class="clusterblast-orf" id="knownclusterblast-11_q4_0_all"  />
<polygon points="120,40 138,40 143,35 138,30 120,30 120,40 " style="fill:white; stroke-width:1; stroke:black; " description="&lt;b&gt;ctg1_2246&lt;/b&gt;&lt;br&gt;ctg1 2246&lt;br&gt;Location: 2390529 - 2391501" locus_tag="ctg1_2246" class="clusterblast-orf" id="knownclusterblast-11_q5_0_all"  />
<polygon points="146,40 153,40 158,35 153,30 146,30 146,40 " style="fill:white; stroke-width:1; stroke:black; " description="&lt;b&gt;ctg1_2247&lt;/b&gt;&lt;br&gt;ctg1 2247&lt;br&gt;Location: 2391603 - 2392107" locus_tag="ctg1_2247" class="clusterblast-orf" id="knownclusterblast-11_q6_0_all"  />
<polygon points="164,35 169,30 181,30 181,40 169,40 164,35 " style="fill:white; stroke-width:1; stroke:black; " description="&lt;b&gt;ctg1_2248&lt;/b&gt;&lt;br&gt;ctg1 2248&lt;br&gt;Location: 2392379 - 2393096" locus_tag="ctg1_2248" class="clusterblast-orf" id="knownclusterblast-11_q7_0_all"  />
<polygon points="186,40 191,40 196,35 191,30 186,30 186,40 " style="fill:white; stroke-width:1; stroke:black; " description="&lt;b&gt;ctg1_2249&lt;/b&gt;&lt;br&gt;ctg1 2249&lt;br&gt;Location: 2393304 - 2393727" locus_tag="ctg1_2249" class="clusterblast-orf" id="knownclusterblast-11_q8_0_all"  />
<polygon points="197,40 212,40 217,35 212,30 197,30 197,40 " style="fill:white; stroke-width:1; stroke:black; " description="&lt;b&gt;ctg1_2250&lt;/b&gt;&lt;br&gt;ctg1 2250&lt;br&gt;Location: 2393785 - 2394634" locus_tag="ctg1_2250" class="clusterblast-orf" id="knownclusterblast-11_q9_0_all"  />
<polygon points="219,35 224,30 253,30 253,40 224,40 219,35 " style="fill:#d81515; stroke-width:1; stroke:black; " description="&lt;b&gt;ctg1_2251&lt;/b&gt;&lt;br&gt;ctg1 2251&lt;br&gt;Location: 2394717 - 2396175" locus_tag="ctg1_2251" class="clusterblast-orf" id="knownclusterblast-11_q10_0_all"  />
<polygon points="253,35 258,30 289,30 289,40 258,40 253,35 " style="fill:#33d815; stroke-width:1; stroke:black; " description="&lt;b&gt;ctg1_2252&lt;/b&gt;&lt;br&gt;ctg1 2252&lt;br&gt;Location: 2396181 - 2397711" locus_tag="ctg1_2252" class="clusterblast-orf" id="knownclusterblast-11_q11_0_all"  />
<polygon points="293,35 298,30 336,30 336,40 298,40 293,35 " style="fill:#15abd8; stroke-width:1; stroke:black; " description="&lt;b&gt;ctg1_2253&lt;/b&gt;&lt;br&gt;ctg1 2253&lt;br&gt;Location: 2397874 - 2399716" locus_tag="ctg1_2253" class="clusterblast-orf" id="knownclusterblast-11_q12_0_all"  />
<polygon points="336,35 341,30 343,30 343,40 341,40 336,35 " style="fill:#8d15d8; stroke-width:1; stroke:black; " description="&lt;b&gt;ctg1_2254&lt;/b&gt;&lt;br&gt;ctg1 2254&lt;br&gt;Location: 2399712 - 2400015" locus_tag="ctg1_2254" class="clusterblast-orf" id="knownclusterblast-11_q13_0_all"  />
<polygon points="343,35 348,30 356,30 356,40 348,40 343,35 " style="fill:#d86f15; stroke-width:1; stroke:black; " description="&lt;b&gt;ctg1_2255&lt;/b&gt;&lt;br&gt;ctg1 2255&lt;br&gt;Location: 2400011 - 2400566" locus_tag="ctg1_2255" class="clusterblast-orf" id="knownclusterblast-11_q14_0_all"  />
<polygon points="357,35 362,30 369,30 369,40 362,40 357,35 " style="fill:#15d851; stroke-width:1; stroke:black; " description="&lt;b&gt;ctg1_2256&lt;/b&gt;&lt;br&gt;ctg1 2256&lt;br&gt;Location: 2400577 - 2401120" locus_tag="ctg1_2256" class="clusterblast-orf" id="knownclusterblast-11_q15_0_all"  />
<polygon points="370,35 375,30 393,30 393,40 375,40 370,35 " style="fill:#1551d8; stroke-width:1; stroke:black; " description="&lt;b&gt;ctg1_2257&lt;/b&gt;&lt;br&gt;ctg1 2257&lt;br&gt;Location: 2401134 - 2402112" locus_tag="ctg1_2257" class="clusterblast-orf" id="knownclusterblast-11_q16_0_all"  />
<polygon points="393,35 398,30 457,30 457,40 398,40 393,35 " style="fill:#d815c9; stroke-width:1; stroke:black; " description="&lt;b&gt;ctg1_2258&lt;/b&gt;&lt;br&gt;ctg1 2258&lt;br&gt;Location: 2402108 - 2404835" locus_tag="ctg1_2258" class="clusterblast-orf" id="knownclusterblast-11_q17_0_all"  />
<polygon points="458,35 463,30 489,30 489,40 463,40 458,35 " style="fill:#d8c915; stroke-width:1; stroke:black; " description="&lt;b&gt;ctg1_2259&lt;/b&gt;&lt;br&gt;ctg1 2259&lt;br&gt;Location: 2404887 - 2406225" locus_tag="ctg1_2259" class="clusterblast-orf" id="knownclusterblast-11_q18_0_all"  />
<polygon points="489,35 494,30 501,30 501,40 494,40 489,35 " style="fill:#15d8ab; stroke-width:1; stroke:black; " description="&lt;b&gt;ctg1_2260&lt;/b&gt;&lt;br&gt;ctg1 2260&lt;br&gt;Location: 2406221 - 2406722" locus_tag="ctg1_2260" class="clusterblast-orf" id="knownclusterblast-11_q19_0_all"  />
<polygon points="501,35 506,30 544,30 544,40 506,40 501,35 " style="fill:#3315d8; stroke-width:1; stroke:black; " description="&lt;b&gt;ctg1_2261&lt;/b&gt;&lt;br&gt;ctg1 2261&lt;br&gt;Location: 2406724 - 2408527" locus_tag="ctg1_2261" class="clusterblast-orf" id="knownclusterblast-11_q20_0_all"  />
<polygon points="546,35 551,30 561,30 561,40 551,40 546,35 " style="fill:#d8156f; stroke-width:1; stroke:black; " description="&lt;b&gt;ctg1_2262&lt;/b&gt;&lt;br&gt;ctg1 2262&lt;br&gt;Location: 2408620 - 2409283" locus_tag="ctg1_2262" class="clusterblast-orf" id="knownclusterblast-11_q21_0_all"  />
<polygon points="562,35 567,30 572,30 572,40 567,40 562,35 " style="fill:#8dd815; stroke-width:1; stroke:black; " description="&lt;b&gt;ctg1_2263&lt;/b&gt;&lt;br&gt;ctg1 2263&lt;br&gt;Location: 2409298 - 2409742" locus_tag="ctg1_2263" class="clusterblast-orf" id="knownclusterblast-11_q22_0_all"  />
<polygon points="578,40 582,35 578,30 578,40 " style="fill:white; stroke-width:1; stroke:black; " description="&lt;b&gt;ctg1_2264&lt;/b&gt;&lt;br&gt;ctg1 2264&lt;br&gt;Location: 2410004 - 2410169" locus_tag="ctg1_2264" class="clusterblast-orf" id="knownclusterblast-11_q23_0_all"  />
<polygon points="587,35 592,30 609,30 609,40 592,40 587,35 " style="fill:white; stroke-width:1; stroke:black; " description="&lt;b&gt;ctg1_2265&lt;/b&gt;&lt;br&gt;ctg1 2265&lt;br&gt;Location: 2410372 - 2411311" locus_tag="ctg1_2265" class="clusterblast-orf" id="knownclusterblast-11_q24_0_all"  />
<polygon points="613,35 618,30 622,30 622,40 618,40 613,35 " style="fill:white; stroke-width:1; stroke:black; " description="&lt;b&gt;ctg1_2266&lt;/b&gt;&lt;br&gt;ctg1 2266&lt;br&gt;Location: 2411472 - 2411850" locus_tag="ctg1_2266" class="clusterblast-orf" id="knownclusterblast-11_q25_0_all"  />
<polygon points="623,35 628,30 629,30 629,40 628,40 623,35 " style="fill:white; stroke-width:1; stroke:black; " description="&lt;b&gt;ctg1_2267&lt;/b&gt;&lt;br&gt;ctg1 2267&lt;br&gt;Location: 2411894 - 2412170" locus_tag="ctg1_2267" class="clusterblast-orf" id="knownclusterblast-11_q26_0_all"  />
<polygon points="649,40 672,40 677,35 672,30 649,30 649,40 " style="fill:white; stroke-width:1; stroke:black; " description="&lt;b&gt;ctg1_2268&lt;/b&gt;&lt;br&gt;ctg1 2268&lt;br&gt;Location: 2413006 - 2414224" locus_tag="ctg1_2268" class="clusterblast-orf" id="knownclusterblast-11_q27_0_all"  />
<polygon points="679,40 688,40 693,35 688,30 679,30 679,40 " style="fill:white; stroke-width:1; stroke:black; " description="&lt;b&gt;ctg1_2269&lt;/b&gt;&lt;br&gt;ctg1 2269&lt;br&gt;Location: 2414307 - 2414907" locus_tag="ctg1_2269" class="clusterblast-orf" id="knownclusterblast-11_q28_0_all"  />
<polygon points="695,35 700,30 738,30 738,40 700,40 695,35 " style="fill:white; stroke-width:1; stroke:black; " description="&lt;b&gt;ctg1_2270&lt;/b&gt;&lt;br&gt;ctg1 2270&lt;br&gt;Location: 2414965 - 2416798" locus_tag="ctg1_2270" class="clusterblast-orf" id="knownclusterblast-11_q29_0_all"  />
<polygon points="740,35 745,30 755,30 755,40 745,40 740,35 " style="fill:white; stroke-width:1; stroke:black; " description="&lt;b&gt;ctg1_2271&lt;/b&gt;&lt;br&gt;ctg1 2271&lt;br&gt;Location: 2416884 - 2417535" locus_tag="ctg1_2271" class="clusterblast-orf" id="knownclusterblast-11_q30_0_all"  />
<polygon points="755,35 760,30 767,30 767,40 760,40 755,35 " style="fill:white; stroke-width:1; stroke:black; " description="&lt;b&gt;ctg1_2272&lt;/b&gt;&lt;br&gt;ctg1 2272&lt;br&gt;Location: 2417545 - 2418040" locus_tag="ctg1_2272" class="clusterblast-orf" id="knownclusterblast-11_q31_0_all"  />
<polygon points="769,35 774,30 780,30 780,40 774,40 769,35 " style="fill:white; stroke-width:1; stroke:black; " description="&lt;b&gt;ctg1_2273&lt;/b&gt;&lt;br&gt;ctg1 2273&lt;br&gt;Location: 2418122 - 2418578" locus_tag="ctg1_2273" class="clusterblast-orf" id="knownclusterblast-11_q32_0_all"  />
</g>
<g label="MGC00000048" description="MGC00000048_c1: NADH dehydrogenase I E. coli (100% of genes show similarity), NADHD" class="clusterblast-cluster"  >
<text x="5" y="70" class="clusterblast-acc"  >
MGC00000048_c1: NADH dehydrogenase I E. coli (100% of genes show similarity), NADHD</text>
<line x1="10" y1="85" x2="778.0" y2="85" style="stroke-width:1; stroke:grey; "  />
</g>
<g id="a11_000"  >
<polygon points="213,85 218,80 247,80 247,90 218,90 213,85 " style="fill:#d81515; stroke-width:1; stroke:black; " description="&lt;b&gt;b2276&lt;/b&gt;&lt;br&gt;NADH:quinone oxidoreductase subunit N&lt;br&gt;Location: 10000 - 11458&lt;br&gt;&lt;br&gt;&lt;b&gt;BlastP hit with ctg1_2251&lt;/b&gt;&lt;br&gt;Percentage identity: 100&lt;br&gt;Percentage coverage: 100&lt;br&gt;BLAST bit score: 914&lt;br&gt;E-value: 0.0" locus_tag="b2276" class="clusterblast-orf" id="knownclusterblast-11_all_11_1_0"  />
</g>
<g id="a11_001"  >
<polygon points="247,85 252,80 283,80 283,90 252,90 247,85 " style="fill:#33d815; stroke-width:1; stroke:black; " description="&lt;b&gt;b2277&lt;/b&gt;&lt;br&gt;NADH:quinone oxidoreductase subunit M&lt;br&gt;Location: 11464 - 12994&lt;br&gt;&lt;br&gt;&lt;b&gt;BlastP hit with ctg1_2252&lt;/b&gt;&lt;br&gt;Percentage identity: 100&lt;br&gt;Percentage coverage: 100&lt;br&gt;BLAST bit score: 997&lt;br&gt;E-value: 0.0" locus_tag="b2277" class="clusterblast-orf" id="knownclusterblast-11_all_11_1_1"  />
</g>
<g id="a11_002"  >
<polygon points="287,85 292,80 330,80 330,90 292,90 287,85 " style="fill:#15abd8; stroke-width:1; stroke:black; " description="&lt;b&gt;b2278&lt;/b&gt;&lt;br&gt;NADH:quinone oxidoreductase subunit L&lt;br&gt;Location: 13157 - 14999&lt;br&gt;&lt;br&gt;&lt;b&gt;BlastP hit with ctg1_2253&lt;/b&gt;&lt;br&gt;Percentage identity: 100&lt;br&gt;Percentage coverage: 100&lt;br&gt;BLAST bit score: 1188&lt;br&gt;E-value: 0.0" locus_tag="b2278" class="clusterblast-orf" id="knownclusterblast-11_all_11_1_2"  />
</g>
<g id="a11_003"  >
<polygon points="330,85 335,80 337,80 337,90 335,90 330,85 " style="fill:#8d15d8; stroke-width:1; stroke:black; " description="&lt;b&gt;b2279&lt;/b&gt;&lt;br&gt;NADH:quinone oxidoreductase subunit K&lt;br&gt;Location: 14995 - 15298&lt;br&gt;&lt;br&gt;&lt;b&gt;BlastP hit with ctg1_2254&lt;/b&gt;&lt;br&gt;Percentage identity: 100&lt;br&gt;Percentage coverage: 100&lt;br&gt;BLAST bit score: 179&lt;br&gt;E-value: 2.44e-62" locus_tag="b2279" class="clusterblast-orf" id="knownclusterblast-11_all_11_1_3"  />
</g>
<g id="a11_004"  >
<polygon points="337,85 342,80 350,80 350,90 342,90 337,85 " style="fill:#d86f15; stroke-width:1; stroke:black; " description="&lt;b&gt;b2280&lt;/b&gt;&lt;br&gt;NADH:quinone oxidoreductase subunit J&lt;br&gt;Location: 15294 - 15849&lt;br&gt;&lt;br&gt;&lt;b&gt;BlastP hit with ctg1_2255&lt;/b&gt;&lt;br&gt;Percentage identity: 100&lt;br&gt;Percentage coverage: 100&lt;br&gt;BLAST bit score: 335&lt;br&gt;E-value: 3.11e-121" locus_tag="b2280" class="clusterblast-orf" id="knownclusterblast-11_all_11_1_4"  />
</g>
<g id="a11_005"  >
<polygon points="351,85 356,80 363,80 363,90 356,90 351,85 " style="fill:#15d851; stroke-width:1; stroke:black; " description="&lt;b&gt;b2281&lt;/b&gt;&lt;br&gt;NADH:quinone oxidoreductase subunit I&lt;br&gt;Location: 15860 - 16403&lt;br&gt;&lt;br&gt;&lt;b&gt;BlastP hit with ctg1_2256&lt;/b&gt;&lt;br&gt;Percentage identity: 100&lt;br&gt;Percentage coverage: 100&lt;br&gt;BLAST bit score: 343&lt;br&gt;E-value: 1.02e-124" locus_tag="b2281" class="clusterblast-orf" id="knownclusterblast-11_all_11_1_5"  />
</g>
<g id="a11_006"  >
<polygon points="364,85 369,80 387,80 387,90 369,90 364,85 " style="fill:#1551d8; stroke-width:1; stroke:black; " description="&lt;b&gt;b2282&lt;/b&gt;&lt;br&gt;NADH:quinone oxidoreductase subunit H&lt;br&gt;Location: 16417 - 17395&lt;br&gt;&lt;br&gt;&lt;b&gt;BlastP hit with ctg1_2257&lt;/b&gt;&lt;br&gt;Percentage identity: 100&lt;br&gt;Percentage coverage: 100&lt;br&gt;BLAST bit score: 638&lt;br&gt;E-value: 1.7e-236" locus_tag="b2282" class="clusterblast-orf" id="knownclusterblast-11_all_11_1_6"  />
</g>
<g id="a11_007"  >
<polygon points="387,85 392,80 451,80 451,90 392,90 387,85 " style="fill:#d815c9; stroke-width:1; stroke:black; " description="&lt;b&gt;b2283&lt;/b&gt;&lt;br&gt;NADH:quinone oxidoreductase subunit G&lt;br&gt;Location: 17391 - 20118&lt;br&gt;&lt;br&gt;&lt;b&gt;BlastP hit with ctg1_2258&lt;/b&gt;&lt;br&gt;Percentage identity: 100&lt;br&gt;Percentage coverage: 100&lt;br&gt;BLAST bit score: 1840&lt;br&gt;E-value: 0.0" locus_tag="b2283" class="clusterblast-orf" id="knownclusterblast-11_all_11_1_7"  />
</g>
<g id="a11_008"  >
<polygon points="452,85 457,80 483,80 483,90 457,90 452,85 " style="fill:#d8c915; stroke-width:1; stroke:black; " description="&lt;b&gt;b2284&lt;/b&gt;&lt;br&gt;NADH:quinone oxidoreductase subunit F&lt;br&gt;Location: 20170 - 21508&lt;br&gt;&lt;br&gt;&lt;b&gt;BlastP hit with ctg1_2259&lt;/b&gt;&lt;br&gt;Percentage identity: 100&lt;br&gt;Percentage coverage: 100&lt;br&gt;BLAST bit score: 924&lt;br&gt;E-value: 0.0" locus_tag="b2284" class="clusterblast-orf" id="knownclusterblast-11_all_11_1_8"  />
</g>
<g id="a11_009"  >
<polygon points="483,85 488,80 495,80 495,90 488,90 483,85 " style="fill:#15d8ab; stroke-width:1; stroke:black; " description="&lt;b&gt;b2285&lt;/b&gt;&lt;br&gt;NADH:quinone oxidoreductase subunit E&lt;br&gt;Location: 21504 - 22005&lt;br&gt;&lt;br&gt;&lt;b&gt;BlastP hit with ctg1_2260&lt;/b&gt;&lt;br&gt;Percentage identity: 100&lt;br&gt;Percentage coverage: 100&lt;br&gt;BLAST bit score: 343&lt;br&gt;E-value: 4.99e-125" locus_tag="b2285" class="clusterblast-orf" id="knownclusterblast-11_all_11_1_9"  />
</g>
<g id="a11_0010"  >
<polygon points="495,85 500,80 537,80 537,90 500,90 495,85 " style="fill:#3315d8; stroke-width:1; stroke:black; " description="&lt;b&gt;b2286&lt;/b&gt;&lt;br&gt;NADH:quinone oxidoreductase subunit CD&lt;br&gt;Location: 22007 - 23798&lt;br&gt;&lt;br&gt;&lt;b&gt;BlastP hit with ctg1_2261&lt;/b&gt;&lt;br&gt;Percentage identity: 100&lt;br&gt;Percentage coverage: 99&lt;br&gt;BLAST bit score: 1222&lt;br&gt;E-value: 0.0" locus_tag="b2286" class="clusterblast-orf" id="knownclusterblast-11_all_11_1_10"  />
</g>
<g id="a11_0011"  >
<polygon points="540,85 545,80 555,80 555,90 545,90 540,85 " style="fill:#d8156f; stroke-width:1; stroke:black; " description="&lt;b&gt;b2287&lt;/b&gt;&lt;br&gt;NADH:quinone oxidoreductase subunit B&lt;br&gt;Location: 23903 - 24566&lt;br&gt;&lt;br&gt;&lt;b&gt;BlastP hit with ctg1_2262&lt;/b&gt;&lt;br&gt;Percentage identity: 100&lt;br&gt;Percentage coverage: 100&lt;br&gt;BLAST bit score: 452&lt;br&gt;E-value: 2.17e-166" locus_tag="b2287" class="clusterblast-orf" id="knownclusterblast-11_all_11_1_11"  />
</g>
<g id="a11_0012"  >
<polygon points="556,85 561,80 566,80 566,90 561,90 556,85 " style="fill:#8dd815; stroke-width:1; stroke:black; " description="&lt;b&gt;b2288&lt;/b&gt;&lt;br&gt;NADH:quinone oxidoreductase subunit A&lt;br&gt;Location: 24581 - 25025&lt;br&gt;&lt;br&gt;&lt;b&gt;BlastP hit with ctg1_2263&lt;/b&gt;&lt;br&gt;Percentage identity: 100&lt;br&gt;Percentage coverage: 100&lt;br&gt;BLAST bit score: 286&lt;br&gt;E-value: 3.12e-103" locus_tag="b2288" class="clusterblast-orf" id="knownclusterblast-11_all_11_1_12"  />
</g>
<g label="MGC00000056" description="MGC00000056_c1: NADH dehydrogenase I Bacteroides sp. (28% of genes show similarity), NADHD" class="clusterblast-cluster"  >
<text x="5" y="120" class="clusterblast-acc"  >
MGC00000056_c1: NADH dehydrogenase I Bacteroides sp. (28% of genes show similarity), NADHD</text>
<line x1="10" y1="135" x2="778.0" y2="135" style="stroke-width:1; stroke:grey; "  />
</g>
<g id="a11_000"  >
<polygon points="75,135 80,130 101,130 101,140 80,140 75,135 " style="fill:white; stroke-width:1; stroke:black; " description="&lt;b&gt;BSHG_0791&lt;/b&gt;&lt;br&gt;hypothetical protein&lt;br&gt;Location: 1613 - 2732" locus_tag="BSHG_0791" class="clusterblast-orf" id="knownclusterblast-11_all_11_2_0"  />
</g>
<g id="a11_001"  >
<polygon points="103,135 108,130 133,130 133,140 108,140 103,135 " style="fill:white; stroke-width:1; stroke:black; " description="&lt;b&gt;BSHG_0790&lt;/b&gt;&lt;br&gt;hypothetical protein&lt;br&gt;Location: 2834 - 4109" locus_tag="BSHG_0790" class="clusterblast-orf" id="knownclusterblast-11_all_11_2_1"  />
</g>
<g id="a11_002"  >
<polygon points="135,135 140,130 198,130 198,140 140,140 135,135 " style="fill:white; stroke-width:1; stroke:black; " description="&lt;b&gt;BSHG_0789&lt;/b&gt;&lt;br&gt;hypothetical protein&lt;br&gt;Location: 4177 - 6877" locus_tag="BSHG_0789" class="clusterblast-orf" id="knownclusterblast-11_all_11_2_2"  />
</g>
<g id="a11_003"  >
<polygon points="204,140 264,140 269,135 264,130 204,130 204,140 " style="fill:white; stroke-width:1; stroke:black; " description="&lt;b&gt;BSHG_0787&lt;/b&gt;&lt;br&gt;hypothetical protein&lt;br&gt;Location: 7114 - 9904" locus_tag="BSHG_0787" class="clusterblast-orf" id="knownclusterblast-11_all_11_2_3"  />
</g>
<g id="a11_004"  >
<polygon points="272,135 277,130 306,130 306,140 277,140 272,135 " style="fill:#d81515; stroke-width:1; stroke:black; " description="&lt;b&gt;BSHG_0786&lt;/b&gt;&lt;br&gt;NADH-quinone oxidoreductase subunit N&lt;br&gt;Location: 10000 - 11452&lt;br&gt;&lt;br&gt;&lt;b&gt;BlastP hit with ctg1_2251&lt;/b&gt;&lt;br&gt;Percentage identity: 34&lt;br&gt;Percentage coverage: 80&lt;br&gt;BLAST bit score: 204&lt;br&gt;E-value: 5.91e-62" locus_tag="BSHG_0786" class="clusterblast-orf" id="knownclusterblast-11_all_11_2_4"  />
</g>
<g id="a11_005"  >
<polygon points="306,135 311,130 341,130 341,140 311,140 306,135 " style="fill:white; stroke-width:1; stroke:black; " description="&lt;b&gt;BSHG_0785&lt;/b&gt;&lt;br&gt;proton-translocating NADH-quinone oxidoreductase, chain M&lt;br&gt;Location: 11458 - 12943" locus_tag="BSHG_0785" class="clusterblast-orf" id="knownclusterblast-11_all_11_2_5"  />
</g>
<g id="a11_006"  >
<polygon points="341,135 346,130 386,130 386,140 346,140 341,135 " style="fill:#15abd8; stroke-width:1; stroke:black; " description="&lt;b&gt;BSHG_0784&lt;/b&gt;&lt;br&gt;proton-translocating NADH-quinone oxidoreductase, chain L&lt;br&gt;Location: 12955 - 14866&lt;br&gt;&lt;br&gt;&lt;b&gt;BlastP hit with ctg1_2253&lt;/b&gt;&lt;br&gt;Percentage identity: 39&lt;br&gt;Percentage coverage: 90&lt;br&gt;BLAST bit score: 305&lt;br&gt;E-value: 2.22e-97" locus_tag="BSHG_0784" class="clusterblast-orf" id="knownclusterblast-11_all_11_2_6"  />
</g>
<g id="a11_007"  >
<polygon points="387,135 392,130 394,130 394,140 392,140 387,135 " style="fill:white; stroke-width:1; stroke:black; " description="&lt;b&gt;BSHG_0783&lt;/b&gt;&lt;br&gt;hypothetical protein&lt;br&gt;Location: 14902 - 15214" locus_tag="BSHG_0783" class="clusterblast-orf" id="knownclusterblast-11_all_11_2_7"  />
</g>
<g id="a11_008"  >
<polygon points="394,135 399,130 406,130 406,140 399,140 394,135 " style="fill:white; stroke-width:1; stroke:black; " description="&lt;b&gt;BSHG_0782&lt;/b&gt;&lt;br&gt;hypothetical protein&lt;br&gt;Location: 15220 - 15733" locus_tag="BSHG_0782" class="clusterblast-orf" id="knownclusterblast-11_all_11_2_8"  />
</g>
<g id="a11_009"  >
<polygon points="407,135 412,130 418,130 418,140 412,140 407,135 " style="fill:white; stroke-width:1; stroke:black; " description="&lt;b&gt;BSHG_0781&lt;/b&gt;&lt;br&gt;NADH-quinone oxidoreductase, chain I&lt;br&gt;Location: 15739 - 16219" locus_tag="BSHG_0781" class="clusterblast-orf" id="knownclusterblast-11_all_11_2_9"  />
</g>
<g id="a11_0010"  >
<polygon points="418,135 423,130 444,130 444,140 423,140 418,135 " style="fill:#1551d8; stroke-width:1; stroke:black; " description="&lt;b&gt;BSHG_0780&lt;/b&gt;&lt;br&gt;NADH-quinone oxidoreductase subunit H&lt;br&gt;Location: 16235 - 17312&lt;br&gt;&lt;br&gt;&lt;b&gt;BlastP hit with ctg1_2257&lt;/b&gt;&lt;br&gt;Percentage identity: 39&lt;br&gt;Percentage coverage: 107&lt;br&gt;BLAST bit score: 248&lt;br&gt;E-value: 3.68e-82" locus_tag="BSHG_0780" class="clusterblast-orf" id="knownclusterblast-11_all_11_2_10"  />
</g>
<g id="a11_0011"  >
<polygon points="445,135 450,130 483,130 483,140 450,140 445,135 " style="fill:#3315d8; stroke-width:1; stroke:black; " description="&lt;b&gt;BSHG_0779&lt;/b&gt;&lt;br&gt;NADH-quinone oxidoreductase subunit C/D&lt;br&gt;Location: 17391 - 18984&lt;br&gt;&lt;br&gt;&lt;b&gt;BlastP hit with ctg1_2261&lt;/b&gt;&lt;br&gt;Percentage identity: 32&lt;br&gt;Percentage coverage: 86&lt;br&gt;BLAST bit score: 258&lt;br&gt;E-value: 1.68e-80" locus_tag="BSHG_0779" class="clusterblast-orf" id="knownclusterblast-11_all_11_2_11"  />
</g>
<g id="a11_0012"  >
<polygon points="483,135 488,130 497,130 497,140 488,140 483,135 " style="fill:#d8156f; stroke-width:1; stroke:black; " description="&lt;b&gt;BSHG_0778&lt;/b&gt;&lt;br&gt;NADH-quinone oxidoreductase subunit B&lt;br&gt;Location: 19005 - 19587&lt;br&gt;&lt;br&gt;&lt;b&gt;BlastP hit with ctg1_2262&lt;/b&gt;&lt;br&gt;Percentage identity: 58&lt;br&gt;Percentage coverage: 66&lt;br&gt;BLAST bit score: 183&lt;br&gt;E-value: 1.38e-60" locus_tag="BSHG_0778" class="clusterblast-orf" id="knownclusterblast-11_all_11_2_12"  />
</g>
<g id="a11_0013"  >
<polygon points="497,135 502,130 505,130 505,140 502,140 497,135 " style="fill:#8dd815; stroke-width:1; stroke:black; " description="&lt;b&gt;BSHG_0777&lt;/b&gt;&lt;br&gt;NADH-quinone oxidoreductase subunit A&lt;br&gt;Location: 19586 - 19937&lt;br&gt;&lt;br&gt;&lt;b&gt;BlastP hit with ctg1_2263&lt;/b&gt;&lt;br&gt;Percentage identity: 31&lt;br&gt;Percentage coverage: 72&lt;br&gt;BLAST bit score: 62&lt;br&gt;E-value: 5.09e-15" locus_tag="BSHG_0777" class="clusterblast-orf" id="knownclusterblast-11_all_11_2_13"  />
</g>
<g id="a11_0014"  >
<polygon points="509,135 514,130 518,130 518,140 514,140 509,135 " style="fill:white; stroke-width:1; stroke:black; " description="&lt;b&gt;BSHG_0776&lt;/b&gt;&lt;br&gt;hypothetical protein&lt;br&gt;Location: 20080 - 20458" locus_tag="BSHG_0776" class="clusterblast-orf" id="knownclusterblast-11_all_11_2_14"  />
</g>
<g id="a11_0015"  >
<polygon points="522,135 527,130 556,130 556,140 527,140 522,135 " style="fill:white; stroke-width:1; stroke:black; " description="&lt;b&gt;BSHG_0775&lt;/b&gt;&lt;br&gt;TrkH family potassium uptake protein&lt;br&gt;Location: 20644 - 22096" locus_tag="BSHG_0775" class="clusterblast-orf" id="knownclusterblast-11_all_11_2_15"  />
</g>
<g id="a11_0016"  >
<polygon points="556,135 561,130 588,130 588,140 561,140 556,135 " style="fill:white; stroke-width:1; stroke:black; " description="&lt;b&gt;BSHG_0774&lt;/b&gt;&lt;br&gt;hypothetical protein&lt;br&gt;Location: 22100 - 23441" locus_tag="BSHG_0774" class="clusterblast-orf" id="knownclusterblast-11_all_11_2_16"  />
</g>
<g id="a11_0017"  >
<polygon points="589,135 594,130 634,130 634,140 594,140 589,135 " style="fill:white; stroke-width:1; stroke:black; " description="&lt;b&gt;BSHG_0773&lt;/b&gt;&lt;br&gt;1-deoxy-D-xylulose-5-phosphate synthase&lt;br&gt;Location: 23479 - 25426" locus_tag="BSHG_0773" class="clusterblast-orf" id="knownclusterblast-11_all_11_2_17"  />
</g>
<g id="a11_0018"  >
<polygon points="646,135 651,130 677,130 677,140 651,140 646,135 " style="fill:white; stroke-width:1; stroke:black; " description="&lt;b&gt;BSHG_0771&lt;/b&gt;&lt;br&gt;hypothetical protein&lt;br&gt;Location: 25917 - 27261" locus_tag="BSHG_0771" class="clusterblast-orf" id="knownclusterblast-11_all_11_2_18"  />
</g>
<g id="a11_0019"  >
<polygon points="677,135 682,130 685,130 685,140 682,140 677,135 " style="fill:white; stroke-width:1; stroke:black; " description="&lt;b&gt;BSHG_0770&lt;/b&gt;&lt;br&gt;hypothetical protein&lt;br&gt;Location: 27257 - 27584" locus_tag="BSHG_0770" class="clusterblast-orf" id="knownclusterblast-11_all_11_2_19"  />
</g>
<g id="a11_0020"  >
<polygon points="689,140 699,140 704,135 699,130 689,130 689,140 " style="fill:white; stroke-width:1; stroke:black; " description="&lt;b&gt;BSHG_0769&lt;/b&gt;&lt;br&gt;HAD hydrolase, family IA&lt;br&gt;Location: 27759 - 28407" locus_tag="BSHG_0769" class="clusterblast-orf" id="knownclusterblast-11_all_11_2_20"  />
</g>
<g label="MGC00000036" description="MGC00000036_c1: Ech complex T. phaeum (28% of genes show similarity), ECH" class="clusterblast-cluster"  >
<text x="5" y="170" class="clusterblast-acc"  >
MGC00000036_c1: Ech complex T. phaeum (28% of genes show similarity), ECH</text>
<line x1="10" y1="185" x2="778.0" y2="185" style="stroke-width:1; stroke:grey; "  />
</g>
<g id="a11_000"  >
<polygon points="213,185 218,180 236,180 236,190 218,190 213,185 " style="fill:white; stroke-width:1; stroke:black; " description="&lt;b&gt;Tph_c21210&lt;/b&gt;&lt;br&gt;stage II sporulation protein P&lt;br&gt;Location: 0 - 966" locus_tag="Tph_c21210" class="clusterblast-orf" id="knownclusterblast-11_all_11_3_0"  />
</g>
<g id="a11_001"  >
<polygon points="446,185 451,180 454,180 454,190 451,190 446,185 " style="fill:white; stroke-width:1; stroke:black; " description="&lt;b&gt;Tph_c21310&lt;/b&gt;&lt;br&gt;putative ech hydrogenase subunit F&lt;br&gt;Location: 9909 - 10260" locus_tag="Tph_c21310" class="clusterblast-orf" id="knownclusterblast-11_all_11_3_1"  />
</g>
<g id="a11_002"  >
<polygon points="455,185 460,180 480,180 480,190 460,190 455,185 " style="fill:white; stroke-width:1; stroke:black; " description="&lt;b&gt;Tph_c21320&lt;/b&gt;&lt;br&gt;putative ech hydrogenase subunit E&lt;br&gt;Location: 10289 - 11372" locus_tag="Tph_c21320" class="clusterblast-orf" id="knownclusterblast-11_all_11_3_2"  />
</g>
<g id="a11_003"  >
<polygon points="480,185 485,180 489,180 489,190 485,190 480,185 " style="fill:white; stroke-width:1; stroke:black; " description="&lt;b&gt;Tph_c21330&lt;/b&gt;&lt;br&gt;putative ech hydrogenase subunit D&lt;br&gt;Location: 11372 - 11750" locus_tag="Tph_c21330" class="clusterblast-orf" id="knownclusterblast-11_all_11_3_3"  />
</g>
<g id="a11_004"  >
<polygon points="489,185 494,180 499,180 499,190 494,190 489,185 " style="fill:#d8156f; stroke-width:1; stroke:black; " description="&lt;b&gt;Tph_c21340&lt;/b&gt;&lt;br&gt;putative ech hydrogenase subunit C&lt;br&gt;Location: 11746 - 12184&lt;br&gt;&lt;br&gt;&lt;b&gt;BlastP hit with ctg1_2262&lt;/b&gt;&lt;br&gt;Percentage identity: 41&lt;br&gt;Percentage coverage: 59&lt;br&gt;BLAST bit score: 101&lt;br&gt;E-value: 2.66e-29" locus_tag="Tph_c21340" class="clusterblast-orf" id="knownclusterblast-11_all_11_3_4"  />
</g>
<g id="a11_005"  >
<polygon points="499,185 504,180 520,180 520,190 504,190 499,185 " style="fill:white; stroke-width:1; stroke:black; " description="&lt;b&gt;Tph_c21350&lt;/b&gt;&lt;br&gt;putative ech hydrogenase subunit B&lt;br&gt;Location: 12184 - 13045" locus_tag="Tph_c21350" class="clusterblast-orf" id="knownclusterblast-11_all_11_3_5"  />
</g>
<g id="a11_006"  >
<polygon points="519,185 524,180 566,180 566,190 524,190 519,185 " style="fill:#15abd8; stroke-width:1; stroke:black; " description="&lt;b&gt;Tph_c21360&lt;/b&gt;&lt;br&gt;putative ech hydrogenase subunit A&lt;br&gt;Location: 13041 - 15027&lt;br&gt;&lt;br&gt;&lt;b&gt;BlastP hit with ctg1_2253&lt;/b&gt;&lt;br&gt;Percentage identity: 35&lt;br&gt;Percentage coverage: 53&lt;br&gt;BLAST bit score: 139&lt;br&gt;E-value: 1.83e-36" locus_tag="Tph_c21360" class="clusterblast-orf" id="knownclusterblast-11_all_11_3_6"  />
</g>
</svg>
