<svg xmlns="http://www.w3.org/2000/svg" xmlns:xlink="http://www.w3.org/1999/xlink" version="1.1" x="0" y="0" height="230" width="800" viewBox="0 0 800 230" preserveAspectRatio="none"  >
<g label="Query sequence" class="clusterblast-cluster"  >
<text x="5" y="20" class="clusterblast-acc"  >
Query sequence</text>
<line x1="10" y1="35" x2="778.0" y2="35" style="stroke-width:1; stroke:grey; "  />
<polygon points="0,35 5,30 21,30 21,40 5,40 0,35 " style="fill:white; stroke-width:1; stroke:black; " description="&lt;b&gt;ctg1_1348&lt;/b&gt;&lt;br&gt;ctg1 1348&lt;br&gt;Location: 1429459 - 1430440" locus_tag="ctg1_1348" class="clusterblast-orf" id="dummy-6_q0_0_all"  />
<polygon points="39,35 44,30 55,30 55,40 44,40 39,35 " style="fill:white; stroke-width:1; stroke:black; " description="&lt;b&gt;ctg1_1349&lt;/b&gt;&lt;br&gt;ctg1 1349&lt;br&gt;Location: 1431259 - 1431997" locus_tag="ctg1_1349" class="clusterblast-orf" id="dummy-6_q1_0_all"  />
<polygon points="58,40 97,40 102,35 97,30 58,30 58,40 " style="fill:white; stroke-width:1; stroke:black; " description="&lt;b&gt;ctg1_1350&lt;/b&gt;&lt;br&gt;ctg1 1350&lt;br&gt;Location: 1432127 - 1434125" locus_tag="ctg1_1350" class="clusterblast-orf" id="dummy-6_q2_0_all"  />
<polygon points="102,40 109,40 114,35 109,30 102,30 102,40 " style="fill:white; stroke-width:1; stroke:black; " description="&lt;b&gt;ctg1_1351&lt;/b&gt;&lt;br&gt;ctg1 1351&lt;br&gt;Location: 1434124 - 1434700" locus_tag="ctg1_1351" class="clusterblast-orf" id="dummy-6_q3_0_all"  />
<polygon points="116,35 121,30 129,30 129,40 121,40 116,35 " style="fill:white; stroke-width:1; stroke:black; " description="&lt;b&gt;ctg1_1352&lt;/b&gt;&lt;br&gt;ctg1 1352&lt;br&gt;Location: 1434797 - 1435388" locus_tag="ctg1_1352" class="clusterblast-orf" id="dummy-6_q4_0_all"  />
<polygon points="136,35 141,30 141,30 141,40 141,40 136,35 " style="fill:white; stroke-width:1; stroke:black; " description="&lt;b&gt;ctg1_1353&lt;/b&gt;&lt;br&gt;ctg1 1353&lt;br&gt;Location: 1435704 - 1435938" locus_tag="ctg1_1353" class="clusterblast-orf" id="dummy-6_q5_0_all"  />
<polygon points="162,35 167,30 172,30 172,40 167,40 162,35 " style="fill:white; stroke-width:1; stroke:black; " description="&lt;b&gt;ctg1_1354&lt;/b&gt;&lt;br&gt;ctg1 1354&lt;br&gt;Location: 1436898 - 1437333" locus_tag="ctg1_1354" class="clusterblast-orf" id="dummy-6_q6_0_all"  />
<polygon points="175,35 180,30 200,30 200,40 180,40 175,35 " style="fill:white; stroke-width:1; stroke:black; " description="&lt;b&gt;ctg1_1355&lt;/b&gt;&lt;br&gt;ctg1 1355&lt;br&gt;Location: 1437473 - 1438607" locus_tag="ctg1_1355" class="clusterblast-orf" id="dummy-6_q7_0_all"  />
<polygon points="208,35 213,30 285,30 285,40 213,40 208,35 " style="fill:#d81515; stroke-width:1; stroke:black; " description="&lt;b&gt;ctg1_1356&lt;/b&gt;&lt;br&gt;ctg1 1356&lt;br&gt;Location: 1438973 - 1442498" locus_tag="ctg1_1356" class="clusterblast-orf" id="dummy-6_q8_0_all"  />
<polygon points="291,40 291,40 296,35 291,30 291,30 291,40 " style="fill:white; stroke-width:1; stroke:black; " description="&lt;b&gt;ctg1_1357&lt;/b&gt;&lt;br&gt;ctg1 1357&lt;br&gt;Location: 1442771 - 1443038" locus_tag="ctg1_1357" class="clusterblast-orf" id="dummy-6_q9_0_all"  />
<polygon points="296,35 301,30 306,30 306,40 301,40 296,35 " style="fill:white; stroke-width:1; stroke:black; " description="&lt;b&gt;ctg1_1358&lt;/b&gt;&lt;br&gt;ctg1 1358&lt;br&gt;Location: 1443034 - 1443457" locus_tag="ctg1_1358" class="clusterblast-orf" id="dummy-6_q10_0_all"  />
<polygon points="308,35 313,30 330,30 330,40 313,40 308,35 " style="fill:white; stroke-width:1; stroke:black; " description="&lt;b&gt;ctg1_1359&lt;/b&gt;&lt;br&gt;ctg1 1359&lt;br&gt;Location: 1443567 - 1444557" locus_tag="ctg1_1359" class="clusterblast-orf" id="dummy-6_q11_0_all"  />
<polygon points="334,40 387,40 392,35 387,30 334,30 334,40 " style="fill:white; stroke-width:1; stroke:black; " description="&lt;b&gt;ctg1_1360&lt;/b&gt;&lt;br&gt;ctg1 1360&lt;br&gt;Location: 1444764 - 1447404" locus_tag="ctg1_1360" class="clusterblast-orf" id="dummy-6_q12_0_all"  />
<polygon points="392,40 396,35 392,30 392,40 " style="fill:white; stroke-width:1; stroke:black; " description="&lt;b&gt;ctg1_1361&lt;/b&gt;&lt;br&gt;ctg1 1361&lt;br&gt;Location: 1447400 - 1447586" locus_tag="ctg1_1361" class="clusterblast-orf" id="dummy-6_q13_0_all"  />
<polygon points="396,40 398,40 403,35 398,30 396,30 396,40 " style="fill:white; stroke-width:1; stroke:black; " description="&lt;b&gt;ctg1_1362&lt;/b&gt;&lt;br&gt;ctg1 1362&lt;br&gt;Location: 1447593 - 1447920" locus_tag="ctg1_1362" class="clusterblast-orf" id="dummy-6_q14_0_all"  />
<polygon points="407,35 412,30 427,30 427,40 412,40 407,35 " style="fill:white; stroke-width:1; stroke:black; " description="&lt;b&gt;ctg1_1363&lt;/b&gt;&lt;br&gt;ctg1 1363&lt;br&gt;Location: 1448091 - 1448997" locus_tag="ctg1_1363" class="clusterblast-orf" id="dummy-6_q15_0_all"  />
<polygon points="432,40 460,40 465,35 460,30 432,30 432,40 " style="fill:white; stroke-width:1; stroke:black; " description="&lt;b&gt;ctg1_1364&lt;/b&gt;&lt;br&gt;ctg1 1364&lt;br&gt;Location: 1449232 - 1450732" locus_tag="ctg1_1364" class="clusterblast-orf" id="dummy-6_q16_0_all"  />
<polygon points="466,35 471,30 516,30 516,40 471,40 466,35 " style="fill:white; stroke-width:1; stroke:black; " description="&lt;b&gt;ctg1_1365&lt;/b&gt;&lt;br&gt;ctg1 1365&lt;br&gt;Location: 1450789 - 1453063" locus_tag="ctg1_1365" class="clusterblast-orf" id="dummy-6_q17_0_all"  />
<polygon points="521,35 526,30 566,30 566,40 526,40 521,35 " style="fill:white; stroke-width:1; stroke:black; " description="&lt;b&gt;ctg1_1366&lt;/b&gt;&lt;br&gt;ctg1 1366&lt;br&gt;Location: 1453310 - 1455356" locus_tag="ctg1_1366" class="clusterblast-orf" id="dummy-6_q18_0_all"  />
<polygon points="572,40 587,40 592,35 587,30 572,30 572,40 " style="fill:white; stroke-width:1; stroke:black; " description="&lt;b&gt;ctg1_1367&lt;/b&gt;&lt;br&gt;ctg1 1367&lt;br&gt;Location: 1455640 - 1456570" locus_tag="ctg1_1367" class="clusterblast-orf" id="dummy-6_q19_0_all"  />
<polygon points="592,40 594,40 599,35 594,30 592,30 592,40 " style="fill:white; stroke-width:1; stroke:black; " description="&lt;b&gt;ctg1_1368&lt;/b&gt;&lt;br&gt;ctg1 1368&lt;br&gt;Location: 1456581 - 1456869" locus_tag="ctg1_1368" class="clusterblast-orf" id="dummy-6_q20_0_all"  />
<polygon points="599,40 610,40 615,35 610,30 599,30 599,40 " style="fill:white; stroke-width:1; stroke:black; " description="&lt;b&gt;ctg1_1369&lt;/b&gt;&lt;br&gt;ctg1 1369&lt;br&gt;Location: 1456877 - 1457624" locus_tag="ctg1_1369" class="clusterblast-orf" id="dummy-6_q21_0_all"  />
<polygon points="616,40 621,40 626,35 621,30 616,30 616,40 " style="fill:white; stroke-width:1; stroke:black; " description="&lt;b&gt;ctg1_1370&lt;/b&gt;&lt;br&gt;ctg1 1370&lt;br&gt;Location: 1457638 - 1458136" locus_tag="ctg1_1370" class="clusterblast-orf" id="dummy-6_q22_0_all"  />
<polygon points="627,40 645,40 650,35 645,30 627,30 627,40 " style="fill:white; stroke-width:1; stroke:black; " description="&lt;b&gt;ctg1_1371&lt;/b&gt;&lt;br&gt;ctg1 1371&lt;br&gt;Location: 1458143 - 1459214" locus_tag="ctg1_1371" class="clusterblast-orf" id="dummy-6_q23_0_all"  />
<polygon points="650,40 662,40 667,35 662,30 650,30 650,40 " style="fill:#77d815; stroke-width:1; stroke:black; " description="&lt;b&gt;ctg1_1372&lt;/b&gt;&lt;br&gt;ctg1 1372&lt;br&gt;Location: 1459210 - 1459978" locus_tag="ctg1_1372" class="clusterblast-orf" id="dummy-6_q24_0_all"  />
<polygon points="667,40 679,40 684,35 679,30 667,30 667,40 " style="fill:#77d815; stroke-width:1; stroke:black; " description="&lt;b&gt;ctg1_1373&lt;/b&gt;&lt;br&gt;ctg1 1373&lt;br&gt;Location: 1459977 - 1460766" locus_tag="ctg1_1373" class="clusterblast-orf" id="dummy-6_q25_0_all"  />
<polygon points="685,40 710,40 715,35 710,30 685,30 685,40 " style="fill:#15d8d8; stroke-width:1; stroke:black; " description="&lt;b&gt;ctg1_1374&lt;/b&gt;&lt;br&gt;ctg1 1374&lt;br&gt;Location: 1460812 - 1462195" locus_tag="ctg1_1374" class="clusterblast-orf" id="dummy-6_q26_0_all"  />
<polygon points="715,40 719,40 724,35 719,30 715,30 715,40 " style="fill:white; stroke-width:1; stroke:black; " description="&lt;b&gt;ctg1_1375&lt;/b&gt;&lt;br&gt;ctg1 1375&lt;br&gt;Location: 1462184 - 1462607" locus_tag="ctg1_1375" class="clusterblast-orf" id="dummy-6_q27_0_all"  />
<polygon points="724,40 745,40 750,35 745,30 724,30 724,40 " style="fill:#7715d8; stroke-width:1; stroke:black; " description="&lt;b&gt;ctg1_1376&lt;/b&gt;&lt;br&gt;ctg1 1376&lt;br&gt;Location: 1462606 - 1463812" locus_tag="ctg1_1376" class="clusterblast-orf" id="dummy-6_q28_0_all"  />
<polygon points="751,40 775,40 780,35 775,30 751,30 751,40 " style="fill:white; stroke-width:1; stroke:black; " description="&lt;b&gt;ctg1_1377&lt;/b&gt;&lt;br&gt;ctg1 1377&lt;br&gt;Location: 1463838 - 1465152" locus_tag="ctg1_1377" class="clusterblast-orf" id="dummy-6_q29_0_all"  />
</g>
<g label="MGC0000005" description="MGC0000005_c1: Acetate to butyrate C. sporogenes (50% of genes show similarity), BUT" class="clusterblast-cluster"  >
<text x="5" y="70" class="clusterblast-acc"  >
MGC0000005_c1: Acetate to butyrate C. sporogenes (50% of genes show similarity), BUT</text>
<line x1="10" y1="85" x2="778.0" y2="85" style="stroke-width:1; stroke:grey; "  />
</g>
<g id="a6_000"  >
<polygon points="324,90 336,90 341,85 336,80 324,80 324,90 " style="fill:#77d815; stroke-width:1; stroke:black; " description="&lt;b&gt;CLOSPO_RS02070&lt;/b&gt;&lt;br&gt;crotonase&lt;br&gt;Location: 60 - 843&lt;br&gt;&lt;br&gt;&lt;b&gt;BlastP hit with ctg1_1372&lt;/b&gt;&lt;br&gt;Percentage identity: 41&lt;br&gt;Percentage coverage: 98&lt;br&gt;BLAST bit score: 184&lt;br&gt;E-value: 1.24e-59&lt;br&gt;&lt;br&gt;&lt;b&gt;BlastP hit with ctg1_1373&lt;/b&gt;&lt;br&gt;Percentage identity: 34&lt;br&gt;Percentage coverage: 98&lt;br&gt;BLAST bit score: 136&lt;br&gt;E-value: 5.35e-41" locus_tag="CLOSPO_RS02070" class="clusterblast-orf" id="dummy-6_h6_1_0"  />
</g>
<g id="a6_001"  >
<polygon points="342,90 355,90 360,85 355,80 342,80 342,90 " style="fill:#15d8d8; stroke-width:1; stroke:black; " description="&lt;b&gt;CLOSPO_RS02075&lt;/b&gt;&lt;br&gt;3-hydroxybutyryl-CoA dehydrogenase&lt;br&gt;Location: 862 - 1693&lt;br&gt;&lt;br&gt;&lt;b&gt;BlastP hit with ctg1_1374&lt;/b&gt;&lt;br&gt;Percentage identity: 42&lt;br&gt;Percentage coverage: 59&lt;br&gt;BLAST bit score: 207&lt;br&gt;E-value: 8.95e-66" locus_tag="CLOSPO_RS02075" class="clusterblast-orf" id="dummy-6_h6_1_1"  />
</g>
<g id="a6_002"  >
<polygon points="360,90 381,90 386,85 381,80 360,80 360,90 " style="fill:#7715d8; stroke-width:1; stroke:black; " description="&lt;b&gt;CLOSPO_RS02080&lt;/b&gt;&lt;br&gt;acetyl-CoA acetyltransferase&lt;br&gt;Location: 1717 - 2896&lt;br&gt;&lt;br&gt;&lt;b&gt;BlastP hit with ctg1_1376&lt;/b&gt;&lt;br&gt;Percentage identity: 47&lt;br&gt;Percentage coverage: 100&lt;br&gt;BLAST bit score: 319&lt;br&gt;E-value: 1.94e-108" locus_tag="CLOSPO_RS02080" class="clusterblast-orf" id="dummy-6_h6_1_2"  />
</g>
<g id="a6_003"  >
<polygon points="390,90 410,90 415,85 410,80 390,80 390,90 " style="fill:white; stroke-width:1; stroke:black; " description="&lt;b&gt;CLOSPO_RS02085&lt;/b&gt;&lt;br&gt;acyl-CoA dehydrogenase&lt;br&gt;Location: 3089 - 4229" locus_tag="CLOSPO_RS02085" class="clusterblast-orf" id="dummy-6_h6_1_3"  />
</g>
<g id="a6_004"  >
<polygon points="415,90 428,90 433,85 428,80 415,80 415,90 " style="fill:white; stroke-width:1; stroke:black; " description="&lt;b&gt;CLOSPO_RS02090&lt;/b&gt;&lt;br&gt;electron transfer flavoprotein subunit beta&lt;br&gt;Location: 4240 - 5020" locus_tag="CLOSPO_RS02090" class="clusterblast-orf" id="dummy-6_h6_1_4"  />
</g>
<g id="a6_005"  >
<polygon points="433,90 450,90 455,85 450,80 433,80 433,90 " style="fill:white; stroke-width:1; stroke:black; " description="&lt;b&gt;CLOSPO_RS02095&lt;/b&gt;&lt;br&gt;electron transfer flavoprotein subunit alpha&lt;br&gt;Location: 5035 - 6040" locus_tag="CLOSPO_RS02095" class="clusterblast-orf" id="dummy-6_h6_1_5"  />
</g>
</svg>
