<svg xmlns="http://www.w3.org/2000/svg" xmlns:xlink="http://www.w3.org/1999/xlink" version="1.1" x="0" y="0" height="50" width="800" viewBox="0 0 800 50" preserveAspectRatio="none"  >
<g label="Query sequence" class="clusterblast-cluster"  >
<text x="5" y="20" class="clusterblast-acc"  >
Query sequence</text>
<line x1="10" y1="35" x2="778.0" y2="35" style="stroke-width:1; stroke:grey; "  />
<polygon points="0,35 5,30 32,30 32,40 5,40 0,35 " style="fill:white; stroke-width:1; stroke:black; " description="&lt;b&gt;ctg1_2308&lt;/b&gt;&lt;br&gt;ctg1 2308&lt;br&gt;Location: 2452953 - 2453886" locus_tag="ctg1_2308" class="clusterblast-orf" id="knownclusterblast-12_q0_0_all"  />
<polygon points="37,40 51,40 56,35 51,30 37,30 37,40 " style="fill:white; stroke-width:1; stroke:black; " description="&lt;b&gt;ctg1_2309&lt;/b&gt;&lt;br&gt;ctg1 2309&lt;br&gt;Location: 2454051 - 2454603" locus_tag="ctg1_2309" class="clusterblast-orf" id="knownclusterblast-12_q1_0_all"  />
<polygon points="58,35 63,30 86,30 86,40 63,40 58,35 " style="fill:white; stroke-width:1; stroke:black; " description="&lt;b&gt;ctg1_2310&lt;/b&gt;&lt;br&gt;ctg1 2310&lt;br&gt;Location: 2454673 - 2455495" locus_tag="ctg1_2310" class="clusterblast-orf" id="knownclusterblast-12_q2_0_all"  />
<polygon points="86,35 91,30 105,30 105,40 91,40 86,35 " style="fill:white; stroke-width:1; stroke:black; " description="&lt;b&gt;ctg1_2311&lt;/b&gt;&lt;br&gt;ctg1 2311&lt;br&gt;Location: 2455496 - 2456036" locus_tag="ctg1_2311" class="clusterblast-orf" id="knownclusterblast-12_q3_0_all"  />
<polygon points="104,35 109,30 121,30 121,40 109,40 104,35 " style="fill:white; stroke-width:1; stroke:black; " description="&lt;b&gt;ctg1_2312&lt;/b&gt;&lt;br&gt;ctg1 2312&lt;br&gt;Location: 2456032 - 2456521" locus_tag="ctg1_2312" class="clusterblast-orf" id="knownclusterblast-12_q4_0_all"  />
<polygon points="121,35 126,30 138,30 138,40 126,40 121,35 " style="fill:white; stroke-width:1; stroke:black; " description="&lt;b&gt;ctg1_2313&lt;/b&gt;&lt;br&gt;ctg1 2313&lt;br&gt;Location: 2456517 - 2457030" locus_tag="ctg1_2313" class="clusterblast-orf" id="knownclusterblast-12_q5_0_all"  />
<polygon points="138,35 143,30 164,30 164,40 143,40 138,35 " style="fill:white; stroke-width:1; stroke:black; " description="&lt;b&gt;ctg1_2314&lt;/b&gt;&lt;br&gt;ctg1 2314&lt;br&gt;Location: 2457029 - 2457782" locus_tag="ctg1_2314" class="clusterblast-orf" id="knownclusterblast-12_q6_0_all"  />
<polygon points="165,35 170,30 195,30 195,40 170,40 165,35 " style="fill:white; stroke-width:1; stroke:black; " description="&lt;b&gt;ctg1_2315&lt;/b&gt;&lt;br&gt;ctg1 2315&lt;br&gt;Location: 2457801 - 2458698" locus_tag="ctg1_2315" class="clusterblast-orf" id="knownclusterblast-12_q7_0_all"  />
<polygon points="195,35 200,30 254,30 254,40 200,40 195,35 " style="fill:white; stroke-width:1; stroke:black; " description="&lt;b&gt;ctg1_2316&lt;/b&gt;&lt;br&gt;ctg1 2316&lt;br&gt;Location: 2458710 - 2460447" locus_tag="ctg1_2316" class="clusterblast-orf" id="knownclusterblast-12_q8_0_all"  />
<polygon points="257,35 262,30 276,30 276,40 262,40 257,35 " style="fill:white; stroke-width:1; stroke:black; " description="&lt;b&gt;ctg1_2317&lt;/b&gt;&lt;br&gt;ctg1 2317&lt;br&gt;Location: 2460528 - 2461092" locus_tag="ctg1_2317" class="clusterblast-orf" id="knownclusterblast-12_q9_0_all"  />
<polygon points="300,35 305,30 316,30 316,40 305,40 300,35 " style="fill:white; stroke-width:1; stroke:black; " description="&lt;b&gt;ctg1_2318&lt;/b&gt;&lt;br&gt;ctg1 2318&lt;br&gt;Location: 2461772 - 2462258" locus_tag="ctg1_2318" class="clusterblast-orf" id="knownclusterblast-12_q10_0_all"  />
<polygon points="323,35 328,30 396,30 396,40 328,40 323,35 " style="fill:white; stroke-width:1; stroke:black; " description="&lt;b&gt;ctg1_2319&lt;/b&gt;&lt;br&gt;ctg1 2319&lt;br&gt;Location: 2462460 - 2464605" locus_tag="ctg1_2319" class="clusterblast-orf" id="knownclusterblast-12_q11_0_all"  />
<polygon points="396,35 401,30 440,30 440,40 401,40 396,35 " style="fill:white; stroke-width:1; stroke:black; " description="&lt;b&gt;ctg1_2320&lt;/b&gt;&lt;br&gt;ctg1 2320&lt;br&gt;Location: 2464604 - 2465915" locus_tag="ctg1_2320" class="clusterblast-orf" id="knownclusterblast-12_q12_0_all"  />
<polygon points="446,35 451,30 456,30 456,40 451,40 446,35 " style="fill:white; stroke-width:1; stroke:black; " description="&lt;b&gt;ctg1_2321&lt;/b&gt;&lt;br&gt;ctg1 2321&lt;br&gt;Location: 2466095 - 2466380" locus_tag="ctg1_2321" class="clusterblast-orf" id="knownclusterblast-12_q13_0_all"  />
<polygon points="469,40 509,40 514,35 509,30 469,30 469,40 " style="fill:white; stroke-width:1; stroke:black; " description="&lt;b&gt;ctg1_2322&lt;/b&gt;&lt;br&gt;ctg1 2322&lt;br&gt;Location: 2466751 - 2468092" locus_tag="ctg1_2322" class="clusterblast-orf" id="knownclusterblast-12_q14_0_all"  />
<polygon points="527,40 558,40 563,35 558,30 527,30 527,40 " style="fill:white; stroke-width:1; stroke:black; " description="&lt;b&gt;ctg1_2323&lt;/b&gt;&lt;br&gt;ctg1 2323&lt;br&gt;Location: 2468457 - 2469516" locus_tag="ctg1_2323" class="clusterblast-orf" id="knownclusterblast-12_q15_0_all"  />
<polygon points="569,35 574,30 594,30 594,40 574,40 569,35 " style="fill:white; stroke-width:1; stroke:black; " description="&lt;b&gt;ctg1_2324&lt;/b&gt;&lt;br&gt;ctg1 2324&lt;br&gt;Location: 2469697 - 2470453" locus_tag="ctg1_2324" class="clusterblast-orf" id="knownclusterblast-12_q16_0_all"  />
<polygon points="604,40 631,40 636,35 631,30 604,30 604,40 " style="fill:white; stroke-width:1; stroke:black; " description="&lt;b&gt;ctg1_2325&lt;/b&gt;&lt;br&gt;ctg1 2325&lt;br&gt;Location: 2470746 - 2471679" locus_tag="ctg1_2325" class="clusterblast-orf" id="knownclusterblast-12_q17_0_all"  />
<polygon points="647,40 681,40 686,35 681,30 647,30 647,40 " style="fill:white; stroke-width:1; stroke:black; " description="&lt;b&gt;ctg1_2326&lt;/b&gt;&lt;br&gt;ctg1 2326&lt;br&gt;Location: 2471990 - 2473148" locus_tag="ctg1_2326" class="clusterblast-orf" id="knownclusterblast-12_q18_0_all"  />
<polygon points="703,40 730,40 735,35 730,30 703,30 703,40 " style="fill:white; stroke-width:1; stroke:black; " description="&lt;b&gt;ctg1_2327&lt;/b&gt;&lt;br&gt;ctg1 2327&lt;br&gt;Location: 2473659 - 2474580" locus_tag="ctg1_2327" class="clusterblast-orf" id="knownclusterblast-12_q19_0_all"  />
<polygon points="735,40 775,40 780,35 775,30 735,30 735,40 " style="fill:white; stroke-width:1; stroke:black; " description="&lt;b&gt;ctg1_2328&lt;/b&gt;&lt;br&gt;ctg1 2328&lt;br&gt;Location: 2474576 - 2475908" locus_tag="ctg1_2328" class="clusterblast-orf" id="knownclusterblast-12_q20_0_all"  />
</g>
</svg>
