<svg xmlns="http://www.w3.org/2000/svg" xmlns:xlink="http://www.w3.org/1999/xlink" version="1.1" x="0" y="0" height="230" width="800" viewBox="0 0 800 230" preserveAspectRatio="none"  >
<g label="Query sequence" class="clusterblast-cluster"  >
<text x="5" y="20" class="clusterblast-acc"  >
Query sequence</text>
<line x1="10" y1="35" x2="778.0" y2="35" style="stroke-width:1; stroke:grey; "  />
<polygon points="0,40 15,40 20,35 15,30 0,30 0,40 " style="fill:white; stroke-width:1; stroke:black; " description="&lt;b&gt;ctg1_2400&lt;/b&gt;&lt;br&gt;ctg1 2400&lt;br&gt;Location: 2551218 - 2552115" locus_tag="ctg1_2400" class="clusterblast-orf" id="dummy-13_q0_0_all"  />
<polygon points="20,40 47,40 52,35 47,30 20,30 20,40 " style="fill:white; stroke-width:1; stroke:black; " description="&lt;b&gt;ctg1_2401&lt;/b&gt;&lt;br&gt;ctg1 2401&lt;br&gt;Location: 2552118 - 2553543" locus_tag="ctg1_2401" class="clusterblast-orf" id="dummy-13_q1_0_all"  />
<polygon points="52,40 76,40 81,35 76,30 52,30 52,40 " style="fill:white; stroke-width:1; stroke:black; " description="&lt;b&gt;ctg1_2402&lt;/b&gt;&lt;br&gt;ctg1 2402&lt;br&gt;Location: 2553547 - 2554852" locus_tag="ctg1_2402" class="clusterblast-orf" id="dummy-13_q2_0_all"  />
<polygon points="86,35 91,30 106,30 106,40 91,40 86,35 " style="fill:white; stroke-width:1; stroke:black; " description="&lt;b&gt;ctg1_2403&lt;/b&gt;&lt;br&gt;ctg1 2403&lt;br&gt;Location: 2555091 - 2555991" locus_tag="ctg1_2403" class="clusterblast-orf" id="dummy-13_q3_0_all"  />
<polygon points="109,35 114,30 122,30 122,40 114,40 109,35 " style="fill:white; stroke-width:1; stroke:black; " description="&lt;b&gt;ctg1_2404&lt;/b&gt;&lt;br&gt;ctg1 2404&lt;br&gt;Location: 2556086 - 2556662" locus_tag="ctg1_2404" class="clusterblast-orf" id="dummy-13_q4_0_all"  />
<polygon points="123,35 128,30 133,30 133,40 128,40 123,35 " style="fill:white; stroke-width:1; stroke:black; " description="&lt;b&gt;ctg1_2405&lt;/b&gt;&lt;br&gt;ctg1 2405&lt;br&gt;Location: 2556722 - 2557172" locus_tag="ctg1_2405" class="clusterblast-orf" id="dummy-13_q5_0_all"  />
<polygon points="133,35 138,30 142,30 142,40 138,40 133,35 " style="fill:white; stroke-width:1; stroke:black; " description="&lt;b&gt;ctg1_2406&lt;/b&gt;&lt;br&gt;ctg1 2406&lt;br&gt;Location: 2557158 - 2557584" locus_tag="ctg1_2406" class="clusterblast-orf" id="dummy-13_q6_0_all"  />
<polygon points="147,40 161,40 166,35 161,30 147,30 147,40 " style="fill:white; stroke-width:1; stroke:black; " description="&lt;b&gt;ctg1_2407&lt;/b&gt;&lt;br&gt;ctg1 2407&lt;br&gt;Location: 2557797 - 2558667" locus_tag="ctg1_2407" class="clusterblast-orf" id="dummy-13_q7_0_all"  />
<polygon points="166,40 182,40 187,35 182,30 166,30 166,40 " style="fill:white; stroke-width:1; stroke:black; " description="&lt;b&gt;ctg1_2408&lt;/b&gt;&lt;br&gt;ctg1 2408&lt;br&gt;Location: 2558670 - 2559570" locus_tag="ctg1_2408" class="clusterblast-orf" id="dummy-13_q8_0_all"  />
<polygon points="187,35 192,30 210,30 210,40 192,40 187,35 " style="fill:#d81515; stroke-width:1; stroke:black; " description="&lt;b&gt;ctg1_2409&lt;/b&gt;&lt;br&gt;ctg1 2409&lt;br&gt;Location: 2559575 - 2560628" locus_tag="ctg1_2409" class="clusterblast-orf" id="dummy-13_q9_0_all"  />
<polygon points="211,35 216,30 222,30 222,40 216,40 211,35 " style="fill:#77d815; stroke-width:1; stroke:black; " description="&lt;b&gt;ctg1_2410&lt;/b&gt;&lt;br&gt;ctg1 2410&lt;br&gt;Location: 2560673 - 2561174" locus_tag="ctg1_2410" class="clusterblast-orf" id="dummy-13_q10_0_all"  />
<polygon points="223,35 228,30 237,30 237,40 228,40 223,35 " style="fill:#15d8d8; stroke-width:1; stroke:black; " description="&lt;b&gt;ctg1_2411&lt;/b&gt;&lt;br&gt;ctg1 2411&lt;br&gt;Location: 2561186 - 2561846" locus_tag="ctg1_2411" class="clusterblast-orf" id="dummy-13_q11_0_all"  />
<polygon points="238,35 243,30 258,30 258,40 243,40 238,35 " style="fill:#7715d8; stroke-width:1; stroke:black; " description="&lt;b&gt;ctg1_2412&lt;/b&gt;&lt;br&gt;ctg1 2412&lt;br&gt;Location: 2561855 - 2562743" locus_tag="ctg1_2412" class="clusterblast-orf" id="dummy-13_q12_0_all"  />
<polygon points="258,35 263,30 288,30 288,40 263,40 258,35 " style="fill:#d85e15; stroke-width:1; stroke:black; " description="&lt;b&gt;ctg1_2413&lt;/b&gt;&lt;br&gt;ctg1 2413&lt;br&gt;Location: 2562763 - 2564125" locus_tag="ctg1_2413" class="clusterblast-orf" id="dummy-13_q13_0_all"  />
<polygon points="289,35 294,30 320,30 320,40 294,40 289,35 " style="fill:#2ed815; stroke-width:1; stroke:black; " description="&lt;b&gt;ctg1_2414&lt;/b&gt;&lt;br&gt;ctg1 2414&lt;br&gt;Location: 2564136 - 2565540" locus_tag="ctg1_2414" class="clusterblast-orf" id="dummy-13_q14_0_all"  />
<polygon points="320,35 325,30 347,30 347,40 325,40 320,35 " style="fill:#158fd8; stroke-width:1; stroke:black; " description="&lt;b&gt;ctg1_2415&lt;/b&gt;&lt;br&gt;ctg1 2415&lt;br&gt;Location: 2565536 - 2566763" locus_tag="ctg1_2415" class="clusterblast-orf" id="dummy-13_q15_0_all"  />
<polygon points="352,35 357,30 379,30 379,40 357,40 352,35 " style="fill:#c015d8; stroke-width:1; stroke:black; " description="&lt;b&gt;ctg1_2416&lt;/b&gt;&lt;br&gt;ctg1 2416&lt;br&gt;Location: 2566979 - 2568167" locus_tag="ctg1_2416" class="clusterblast-orf" id="dummy-13_q16_0_all"  />
<polygon points="379,35 384,30 397,30 397,40 384,40 379,35 " style="fill:#d8a715; stroke-width:1; stroke:black; " description="&lt;b&gt;ctg1_2417&lt;/b&gt;&lt;br&gt;ctg1 2417&lt;br&gt;Location: 2568156 - 2568993" locus_tag="ctg1_2417" class="clusterblast-orf" id="dummy-13_q17_0_all"  />
<polygon points="398,35 403,30 429,30 429,40 403,40 398,35 " style="fill:#15d846; stroke-width:1; stroke:black; " description="&lt;b&gt;ctg1_2418&lt;/b&gt;&lt;br&gt;ctg1 2418&lt;br&gt;Location: 2569003 - 2570407" locus_tag="ctg1_2418" class="clusterblast-orf" id="dummy-13_q18_0_all"  />
<polygon points="429,35 434,30 436,30 436,40 434,40 429,35 " style="fill:#1546d8; stroke-width:1; stroke:black; " description="&lt;b&gt;ctg1_2419&lt;/b&gt;&lt;br&gt;ctg1 2419&lt;br&gt;Location: 2570418 - 2570706" locus_tag="ctg1_2419" class="clusterblast-orf" id="dummy-13_q19_0_all"  />
<polygon points="438,35 443,30 445,30 445,40 443,40 438,35 " style="fill:#77d815; stroke-width:1; stroke:black; " description="&lt;b&gt;ctg1_2420&lt;/b&gt;&lt;br&gt;ctg1 2420&lt;br&gt;Location: 2570812 - 2571106" locus_tag="ctg1_2420" class="clusterblast-orf" id="dummy-13_q20_0_all"  />
<polygon points="445,35 450,30 468,30 468,40 450,40 445,35 " style="fill:#d815a7; stroke-width:1; stroke:black; " description="&lt;b&gt;ctg1_2421&lt;/b&gt;&lt;br&gt;ctg1 2421&lt;br&gt;Location: 2571144 - 2572161" locus_tag="ctg1_2421" class="clusterblast-orf" id="dummy-13_q21_0_all"  />
<polygon points="468,35 473,30 486,30 486,40 473,40 468,35 " style="fill:#c0d815; stroke-width:1; stroke:black; " description="&lt;b&gt;ctg1_2422&lt;/b&gt;&lt;br&gt;ctg1 2422&lt;br&gt;Location: 2572157 - 2572961" locus_tag="ctg1_2422" class="clusterblast-orf" id="dummy-13_q22_0_all"  />
<polygon points="486,35 491,30 502,30 502,40 491,40 486,35 " style="fill:#15d88f; stroke-width:1; stroke:black; " description="&lt;b&gt;ctg1_2423&lt;/b&gt;&lt;br&gt;ctg1 2423&lt;br&gt;Location: 2572957 - 2573659" locus_tag="ctg1_2423" class="clusterblast-orf" id="dummy-13_q23_0_all"  />
<polygon points="501,35 506,30 512,30 512,40 506,40 501,35 " style="fill:#2e15d8; stroke-width:1; stroke:black; " description="&lt;b&gt;ctg1_2424&lt;/b&gt;&lt;br&gt;ctg1 2424&lt;br&gt;Location: 2573633 - 2574113" locus_tag="ctg1_2424" class="clusterblast-orf" id="dummy-13_q24_0_all"  />
<polygon points="512,35 517,30 520,30 520,40 517,40 512,35 " style="fill:#d8155e; stroke-width:1; stroke:black; " description="&lt;b&gt;ctg1_2425&lt;/b&gt;&lt;br&gt;ctg1 2425&lt;br&gt;Location: 2574125 - 2574461" locus_tag="ctg1_2425" class="clusterblast-orf" id="dummy-13_q25_0_all"  />
<polygon points="526,35 531,30 577,30 577,40 531,40 526,35 " style="fill:#d815a7; stroke-width:1; stroke:black; " description="&lt;b&gt;ctg1_2426&lt;/b&gt;&lt;br&gt;ctg1 2426&lt;br&gt;Location: 2574753 - 2577033" locus_tag="ctg1_2426" class="clusterblast-orf" id="dummy-13_q26_0_all"  />
<polygon points="584,40 600,40 605,35 600,30 584,30 584,40 " style="fill:white; stroke-width:1; stroke:black; " description="&lt;b&gt;ctg1_2427&lt;/b&gt;&lt;br&gt;ctg1 2427&lt;br&gt;Location: 2577321 - 2578272" locus_tag="ctg1_2427" class="clusterblast-orf" id="dummy-13_q27_0_all"  />
<polygon points="605,40 645,40 650,35 645,30 605,30 605,40 " style="fill:white; stroke-width:1; stroke:black; " description="&lt;b&gt;ctg1_2428&lt;/b&gt;&lt;br&gt;ctg1 2428&lt;br&gt;Location: 2578291 - 2580295" locus_tag="ctg1_2428" class="clusterblast-orf" id="dummy-13_q28_0_all"  />
<polygon points="652,35 657,30 676,30 676,40 657,40 652,35 " style="fill:white; stroke-width:1; stroke:black; " description="&lt;b&gt;ctg1_2429&lt;/b&gt;&lt;br&gt;ctg1 2429&lt;br&gt;Location: 2580389 - 2581433" locus_tag="ctg1_2429" class="clusterblast-orf" id="dummy-13_q29_0_all"  />
<polygon points="678,35 683,30 691,30 691,40 683,40 678,35 " style="fill:white; stroke-width:1; stroke:black; " description="&lt;b&gt;ctg1_2430&lt;/b&gt;&lt;br&gt;ctg1 2430&lt;br&gt;Location: 2581558 - 2582134" locus_tag="ctg1_2430" class="clusterblast-orf" id="dummy-13_q30_0_all"  />
<polygon points="693,35 698,30 737,30 737,40 698,40 693,35 " style="fill:white; stroke-width:1; stroke:black; " description="&lt;b&gt;ctg1_2431&lt;/b&gt;&lt;br&gt;ctg1 2431&lt;br&gt;Location: 2582201 - 2584181" locus_tag="ctg1_2431" class="clusterblast-orf" id="dummy-13_q31_0_all"  />
<polygon points="742,40 775,40 780,35 775,30 742,30 742,40 " style="fill:white; stroke-width:1; stroke:black; " description="&lt;b&gt;ctg1_2432&lt;/b&gt;&lt;br&gt;ctg1 2432&lt;br&gt;Location: 2584386 - 2586087" locus_tag="ctg1_2432" class="clusterblast-orf" id="dummy-13_q32_0_all"  />
</g>
<g label="MGC00000010" description="MGC00000010_c1: Propanediol degradation S. enterica (25% of genes show similarity), PDU" class="clusterblast-cluster"  >
<text x="5" y="70" class="clusterblast-acc"  >
MGC00000010_c1: Propanediol degradation S. enterica (25% of genes show similarity), PDU</text>
<line x1="10" y1="85" x2="778.0" y2="85" style="stroke-width:1; stroke:grey; "  />
</g>
<g id="a13_000"  >
<polygon points="172,90 176,85 172,80 172,90 " style="fill:white; stroke-width:1; stroke:black; " description="&lt;b&gt;STM2059&lt;/b&gt;&lt;br&gt;hypothetical protein&lt;br&gt;Location: 19638 - 19470" locus_tag="STM2059" class="clusterblast-orf" id="dummy-13_h13_2_0"  />
</g>
<g id="a13_001"  >
<polygon points="177,85 182,80 197,80 197,90 182,90 177,85 " style="fill:white; stroke-width:1; stroke:black; " description="&lt;b&gt;STM2058&lt;/b&gt;&lt;br&gt;L-threonine kinase&lt;br&gt;Location: 19437 - 18534" locus_tag="STM2058" class="clusterblast-orf" id="dummy-13_h13_2_1"  />
</g>
<g id="a13_002"  >
<polygon points="198,85 203,80 225,80 225,90 203,90 198,85 " style="fill:white; stroke-width:1; stroke:black; " description="&lt;b&gt;STM2057&lt;/b&gt;&lt;br&gt;propionate kinase&lt;br&gt;Location: 18477 - 17262" locus_tag="STM2057" class="clusterblast-orf" id="dummy-13_h13_2_2"  />
</g>
<g id="a13_003"  >
<polygon points="225,85 230,80 235,80 235,90 230,90 225,85 " style="fill:white; stroke-width:1; stroke:black; " description="&lt;b&gt;STM2056&lt;/b&gt;&lt;br&gt;propanediol utilization protein PduV&lt;br&gt;Location: 17278 - 16825" locus_tag="STM2056" class="clusterblast-orf" id="dummy-13_h13_2_3"  />
</g>
<g id="a13_004"  >
<polygon points="235,85 240,80 243,80 243,90 240,90 235,85 " style="fill:#d8155e; stroke-width:1; stroke:black; " description="&lt;b&gt;STM2055&lt;/b&gt;&lt;br&gt;propanediol utilization polyhedral body protein PduU&lt;br&gt;Location: 16821 - 16470&lt;br&gt;&lt;br&gt;&lt;b&gt;BlastP hit with ctg1_2425&lt;/b&gt;&lt;br&gt;Percentage identity: 57&lt;br&gt;Percentage coverage: 98&lt;br&gt;BLAST bit score: 128&lt;br&gt;E-value: 8.08e-42" locus_tag="STM2055" class="clusterblast-orf" id="dummy-13_h13_2_4"  />
</g>
<g id="a13_005"  >
<polygon points="243,85 248,80 256,80 256,90 248,90 243,85 " style="fill:white; stroke-width:1; stroke:black; " description="&lt;b&gt;STM2054&lt;/b&gt;&lt;br&gt;propanediol utilization polyhedral body protein PduT&lt;br&gt;Location: 16471 - 15916" locus_tag="STM2054" class="clusterblast-orf" id="dummy-13_h13_2_5"  />
</g>
<g id="a13_006"  >
<polygon points="256,85 261,80 286,80 286,90 261,90 256,85 " style="fill:white; stroke-width:1; stroke:black; " description="&lt;b&gt;STM2053&lt;/b&gt;&lt;br&gt;propanediol utilization polyhedral body protein PduS&lt;br&gt;Location: 15914 - 14558" locus_tag="STM2053" class="clusterblast-orf" id="dummy-13_h13_2_6"  />
</g>
<g id="a13_007"  >
<polygon points="286,85 291,80 311,80 311,90 291,90 286,85 " style="fill:#c015d8; stroke-width:1; stroke:black; " description="&lt;b&gt;STM2052&lt;/b&gt;&lt;br&gt;propanol dehydrogenase&lt;br&gt;Location: 14562 - 13449&lt;br&gt;&lt;br&gt;&lt;b&gt;BlastP hit with ctg1_2416&lt;/b&gt;&lt;br&gt;Percentage identity: 38&lt;br&gt;Percentage coverage: 96&lt;br&gt;BLAST bit score: 193&lt;br&gt;E-value: 6.75e-60" locus_tag="STM2052" class="clusterblast-orf" id="dummy-13_h13_2_7"  />
</g>
<g id="a13_008"  >
<polygon points="311,85 316,80 342,80 342,90 316,90 311,85 " style="fill:#15d846; stroke-width:1; stroke:black; " description="&lt;b&gt;STM2051&lt;/b&gt;&lt;br&gt;CoA-dependent propionaldehyde dehydrogenase&lt;br&gt;Location: 13438 - 12043&lt;br&gt;&lt;br&gt;&lt;b&gt;BlastP hit with ctg1_2418&lt;/b&gt;&lt;br&gt;Percentage identity: 46&lt;br&gt;Percentage coverage: 101&lt;br&gt;BLAST bit score: 365&lt;br&gt;E-value: 1.48e-124" locus_tag="STM2051" class="clusterblast-orf" id="dummy-13_h13_2_8"  />
</g>
<g id="a13_009"  >
<polygon points="342,85 347,80 365,80 365,90 347,90 342,85 " style="fill:white; stroke-width:1; stroke:black; " description="&lt;b&gt;STM2050&lt;/b&gt;&lt;br&gt;propanediol utilization protein PduO&lt;br&gt;Location: 12047 - 11036" locus_tag="STM2050" class="clusterblast-orf" id="dummy-13_h13_2_9"  />
</g>
<g id="a13_0010"  >
<polygon points="365,85 370,80 371,80 371,90 370,90 365,85 " style="fill:#1546d8; stroke-width:1; stroke:black; " description="&lt;b&gt;STM2049&lt;/b&gt;&lt;br&gt;propanediol utilization polyhedral body protein PduN&lt;br&gt;Location: 11027 - 10751&lt;br&gt;&lt;br&gt;&lt;b&gt;BlastP hit with ctg1_2419&lt;/b&gt;&lt;br&gt;Percentage identity: 44&lt;br&gt;Percentage coverage: 92&lt;br&gt;BLAST bit score: 67&lt;br&gt;E-value: 6.17e-18" locus_tag="STM2049" class="clusterblast-orf" id="dummy-13_h13_2_10"  />
</g>
<g id="a13_0011"  >
<polygon points="371,85 376,80 382,80 382,90 376,90 371,85 " style="fill:white; stroke-width:1; stroke:black; " description="&lt;b&gt;STM2048&lt;/b&gt;&lt;br&gt;propanediol utilization protein PduM&lt;br&gt;Location: 10748 - 10256" locus_tag="STM2048" class="clusterblast-orf" id="dummy-13_h13_2_11"  />
</g>
<g id="a13_0012"  >
<polygon points="382,85 387,80 396,80 396,90 387,90 382,85 " style="fill:white; stroke-width:1; stroke:black; " description="&lt;b&gt;STM2047&lt;/b&gt;&lt;br&gt;phosphate propanoyltransferase&lt;br&gt;Location: 10260 - 9627" locus_tag="STM2047" class="clusterblast-orf" id="dummy-13_h13_2_12"  />
</g>
<g id="a13_0013"  >
<polygon points="396,85 401,80 407,80 407,90 401,90 396,85 " style="fill:white; stroke-width:1; stroke:black; " description="&lt;b&gt;STM2046&lt;/b&gt;&lt;br&gt;propanediol utilization polyhedral body protein PduK&lt;br&gt;Location: 9628 - 9166" locus_tag="STM2046" class="clusterblast-orf" id="dummy-13_h13_2_13"  />
</g>
<g id="a13_0014"  >
<polygon points="407,85 412,80 413,80 413,90 412,90 407,85 " style="fill:#77d815; stroke-width:1; stroke:black; " description="&lt;b&gt;STM2045&lt;/b&gt;&lt;br&gt;propanediol utilization polyhedral body protein PduJ&lt;br&gt;Location: 9142 - 8866&lt;br&gt;&lt;br&gt;&lt;b&gt;BlastP hit with ctg1_2410&lt;/b&gt;&lt;br&gt;Percentage identity: 49&lt;br&gt;Percentage coverage: 52&lt;br&gt;BLAST bit score: 78&lt;br&gt;E-value: 1.78e-21&lt;br&gt;&lt;br&gt;&lt;b&gt;BlastP hit with ctg1_2420&lt;/b&gt;&lt;br&gt;Percentage identity: 65&lt;br&gt;Percentage coverage: 88&lt;br&gt;BLAST bit score: 105&lt;br&gt;E-value: 3.04e-33" locus_tag="STM2045" class="clusterblast-orf" id="dummy-13_h13_2_14"  />
</g>
<g id="a13_0015"  >
<polygon points="414,85 419,80 422,80 422,90 419,90 414,85 " style="fill:white; stroke-width:1; stroke:black; " description="&lt;b&gt;STM2044&lt;/b&gt;&lt;br&gt;propanediol dehydratase reactivation protein&lt;br&gt;Location: 8848 - 8497" locus_tag="STM2044" class="clusterblast-orf" id="dummy-13_h13_2_15"  />
</g>
<g id="a13_0016"  >
<polygon points="421,85 426,80 462,80 462,90 426,90 421,85 " style="fill:white; stroke-width:1; stroke:black; " description="&lt;b&gt;STM2043&lt;/b&gt;&lt;br&gt;propanediol dehydratase reactivation protein&lt;br&gt;Location: 8508 - 6675" locus_tag="STM2043" class="clusterblast-orf" id="dummy-13_h13_2_16"  />
</g>
<g id="a13_0017"  >
<polygon points="463,85 468,80 474,80 474,90 468,90 463,85 " style="fill:white; stroke-width:1; stroke:black; " description="&lt;b&gt;STM2042&lt;/b&gt;&lt;br&gt;propanediol dehydratase small subunit&lt;br&gt;Location: 6666 - 6144" locus_tag="STM2042" class="clusterblast-orf" id="dummy-13_h13_2_17"  />
</g>
<g id="a13_0018"  >
<polygon points="474,85 479,80 490,80 490,90 479,90 474,85 " style="fill:white; stroke-width:1; stroke:black; " description="&lt;b&gt;STM2041&lt;/b&gt;&lt;br&gt;propanediol dehydratase medium subunit&lt;br&gt;Location: 6130 - 5455" locus_tag="STM2041" class="clusterblast-orf" id="dummy-13_h13_2_18"  />
</g>
<g id="a13_0019"  >
<polygon points="490,85 495,80 527,80 527,90 495,90 490,85 " style="fill:white; stroke-width:1; stroke:black; " description="&lt;b&gt;STM2040&lt;/b&gt;&lt;br&gt;propanediol dehydratase large subunit&lt;br&gt;Location: 5445 - 3780" locus_tag="STM2040" class="clusterblast-orf" id="dummy-13_h13_2_19"  />
</g>
<g id="a13_0020"  >
<polygon points="527,85 532,80 546,80 546,90 532,90 527,85 " style="fill:white; stroke-width:1; stroke:black; " description="&lt;b&gt;STM2039&lt;/b&gt;&lt;br&gt;propanediol utilization polyhedral body protein PduB&lt;br&gt;Location: 3762 - 2949" locus_tag="STM2039" class="clusterblast-orf" id="dummy-13_h13_2_20"  />
</g>
<g id="a13_0021"  >
<polygon points="546,85 551,80 552,80 552,90 551,90 546,85 " style="fill:#77d815; stroke-width:1; stroke:black; " description="&lt;b&gt;STM2038&lt;/b&gt;&lt;br&gt;propanediol utilization polyhedral body protein PduA&lt;br&gt;Location: 2953 - 2668&lt;br&gt;&lt;br&gt;&lt;b&gt;BlastP hit with ctg1_2410&lt;/b&gt;&lt;br&gt;Percentage identity: 46&lt;br&gt;Percentage coverage: 51&lt;br&gt;BLAST bit score: 74&lt;br&gt;E-value: 1.2e-19&lt;br&gt;&lt;br&gt;&lt;b&gt;BlastP hit with ctg1_2420&lt;/b&gt;&lt;br&gt;Percentage identity: 66&lt;br&gt;Percentage coverage: 92&lt;br&gt;BLAST bit score: 113&lt;br&gt;E-value: 2.1e-36" locus_tag="STM2038" class="clusterblast-orf" id="dummy-13_h13_2_21"  />
</g>
<g id="a13_0022"  >
<polygon points="564,90 576,90 581,85 576,80 564,80 564,90 " style="fill:white; stroke-width:1; stroke:black; " description="&lt;b&gt;STM2037&lt;/b&gt;&lt;br&gt;propanediol diffusion facilitator&lt;br&gt;Location: 2144 - 1349" locus_tag="STM2037" class="clusterblast-orf" id="dummy-13_h13_2_22"  />
</g>
<g id="a13_0023"  >
<polygon points="586,90 602,90 607,85 602,80 586,80 586,90 " style="fill:white; stroke-width:1; stroke:black; " description="&lt;b&gt;STM2036&lt;/b&gt;&lt;br&gt;transcriptional regulator PocR&lt;br&gt;Location: 1133 - 221" locus_tag="STM2036" class="clusterblast-orf" id="dummy-13_h13_2_23"  />
</g>
</svg>
