<svg xmlns="http://www.w3.org/2000/svg" xmlns:xlink="http://www.w3.org/1999/xlink" version="1.1" x="0" y="0" height="230" width="800" viewBox="0 0 800 230" preserveAspectRatio="none"  >
<g label="Query sequence" class="clusterblast-cluster"  >
<text x="5" y="20" class="clusterblast-acc"  >
Query sequence</text>
<line x1="10" y1="35" x2="778.0" y2="35" style="stroke-width:1; stroke:grey; "  />
<polygon points="0,40 9,40 14,35 9,30 0,30 0,40 " style="fill:white; stroke-width:1; stroke:black; " description="&lt;b&gt;ctg52_57&lt;/b&gt;&lt;br&gt;ctg52 57&lt;br&gt;Location: 61736 - 62231" locus_tag="ctg52_57" class="clusterblast-orf" id="dummy-1_q0_0_all"  />
<polygon points="17,40 26,40 31,35 26,30 17,30 17,40 " style="fill:white; stroke-width:1; stroke:black; " description="&lt;b&gt;ctg52_58&lt;/b&gt;&lt;br&gt;ctg52 58&lt;br&gt;Location: 62338 - 62788" locus_tag="ctg52_58" class="clusterblast-orf" id="dummy-1_q1_0_all"  />
<polygon points="31,40 53,40 58,35 53,30 31,30 31,40 " style="fill:white; stroke-width:1; stroke:black; " description="&lt;b&gt;ctg52_59&lt;/b&gt;&lt;br&gt;ctg52 59&lt;br&gt;Location: 62789 - 63740" locus_tag="ctg52_59" class="clusterblast-orf" id="dummy-1_q2_0_all"  />
<polygon points="60,40 82,40 87,35 82,30 60,30 60,40 " style="fill:white; stroke-width:1; stroke:black; " description="&lt;b&gt;ctg52_60&lt;/b&gt;&lt;br&gt;ctg52 60&lt;br&gt;Location: 63805 - 64720" locus_tag="ctg52_60" class="clusterblast-orf" id="dummy-1_q3_0_all"  />
<polygon points="92,40 111,40 116,35 111,30 92,30 92,40 " style="fill:white; stroke-width:1; stroke:black; " description="&lt;b&gt;ctg52_61&lt;/b&gt;&lt;br&gt;ctg52 61&lt;br&gt;Location: 64886 - 65708" locus_tag="ctg52_61" class="clusterblast-orf" id="dummy-1_q4_0_all"  />
<polygon points="129,40 158,40 163,35 158,30 129,30 129,40 " style="fill:white; stroke-width:1; stroke:black; " description="&lt;b&gt;ctg52_62&lt;/b&gt;&lt;br&gt;ctg52 62&lt;br&gt;Location: 66163 - 67312" locus_tag="ctg52_62" class="clusterblast-orf" id="dummy-1_q5_0_all"  />
<polygon points="163,40 216,40 221,35 216,30 163,30 163,40 " style="fill:white; stroke-width:1; stroke:black; " description="&lt;b&gt;ctg52_63&lt;/b&gt;&lt;br&gt;ctg52 63&lt;br&gt;Location: 67329 - 69318" locus_tag="ctg52_63" class="clusterblast-orf" id="dummy-1_q6_0_all"  />
<polygon points="222,40 256,40 261,35 256,30 222,30 222,40 " style="fill:white; stroke-width:1; stroke:black; " description="&lt;b&gt;ctg52_64&lt;/b&gt;&lt;br&gt;ctg52 64&lt;br&gt;Location: 69329 - 70676" locus_tag="ctg52_64" class="clusterblast-orf" id="dummy-1_q7_0_all"  />
<polygon points="268,40 275,40 280,35 275,30 268,30 268,40 " style="fill:white; stroke-width:1; stroke:black; " description="&lt;b&gt;ctg52_65&lt;/b&gt;&lt;br&gt;ctg52 65&lt;br&gt;Location: 70936 - 71332" locus_tag="ctg52_65" class="clusterblast-orf" id="dummy-1_q8_0_all"  />
<polygon points="283,35 288,30 301,30 301,40 288,40 283,35 " style="fill:#d81515; stroke-width:1; stroke:black; " description="&lt;b&gt;ctg52_66&lt;/b&gt;&lt;br&gt;ctg52 66&lt;br&gt;Location: 71450 - 72041" locus_tag="ctg52_66" class="clusterblast-orf" id="dummy-1_q9_0_all"  />
<polygon points="301,35 306,30 324,30 324,40 306,40 301,35 " style="fill:#15d815; stroke-width:1; stroke:black; " description="&lt;b&gt;ctg52_67&lt;/b&gt;&lt;br&gt;ctg52 67&lt;br&gt;Location: 72046 - 72832" locus_tag="ctg52_67" class="clusterblast-orf" id="dummy-1_q10_0_all"  />
<polygon points="327,35 332,30 372,30 372,40 332,40 327,35 " style="fill:#1515d8; stroke-width:1; stroke:black; " description="&lt;b&gt;ctg52_68&lt;/b&gt;&lt;br&gt;ctg52 68&lt;br&gt;Location: 72940 - 74494" locus_tag="ctg52_68" class="clusterblast-orf" id="dummy-1_q11_0_all"  />
<polygon points="374,35 379,30 410,30 410,40 379,40 374,35 " style="fill:#d815d8; stroke-width:1; stroke:black; " description="&lt;b&gt;ctg52_69&lt;/b&gt;&lt;br&gt;ctg52 69&lt;br&gt;Location: 74566 - 75784" locus_tag="ctg52_69" class="clusterblast-orf" id="dummy-1_q12_0_all"  />
<polygon points="413,35 418,30 447,30 447,40 418,40 413,35 " style="fill:#d8d815; stroke-width:1; stroke:black; " description="&lt;b&gt;ctg52_70&lt;/b&gt;&lt;br&gt;ctg52 70&lt;br&gt;Location: 75901 - 77044" locus_tag="ctg52_70" class="clusterblast-orf" id="dummy-1_q13_0_all"  />
<polygon points="448,35 453,30 492,30 492,40 453,40 448,35 " style="fill:#15d8d8; stroke-width:1; stroke:black; " description="&lt;b&gt;ctg52_71&lt;/b&gt;&lt;br&gt;ctg52 71&lt;br&gt;Location: 77074 - 78589" locus_tag="ctg52_71" class="clusterblast-orf" id="dummy-1_q14_0_all"  />
<polygon points="506,40 523,40 528,35 523,30 506,30 506,40 " style="fill:white; stroke-width:1; stroke:black; " description="&lt;b&gt;ctg52_72&lt;/b&gt;&lt;br&gt;ctg52 72&lt;br&gt;Location: 79061 - 79832" locus_tag="ctg52_72" class="clusterblast-orf" id="dummy-1_q15_0_all"  />
<polygon points="529,40 551,40 556,35 551,30 529,30 529,40 " style="fill:white; stroke-width:1; stroke:black; " description="&lt;b&gt;ctg52_73&lt;/b&gt;&lt;br&gt;ctg52 73&lt;br&gt;Location: 79846 - 80788" locus_tag="ctg52_73" class="clusterblast-orf" id="dummy-1_q16_0_all"  />
<polygon points="558,40 590,40 595,35 590,30 558,30 558,40 " style="fill:white; stroke-width:1; stroke:black; " description="&lt;b&gt;ctg52_74&lt;/b&gt;&lt;br&gt;ctg52 74&lt;br&gt;Location: 80838 - 82125" locus_tag="ctg52_74" class="clusterblast-orf" id="dummy-1_q17_0_all"  />
<polygon points="595,40 599,40 604,35 599,30 595,30 595,40 " style="fill:white; stroke-width:1; stroke:black; " description="&lt;b&gt;ctg52_75&lt;/b&gt;&lt;br&gt;ctg52 75&lt;br&gt;Location: 82121 - 82409" locus_tag="ctg52_75" class="clusterblast-orf" id="dummy-1_q18_0_all"  />
<polygon points="605,40 639,40 644,35 639,30 605,30 605,40 " style="fill:white; stroke-width:1; stroke:black; " description="&lt;b&gt;ctg52_76&lt;/b&gt;&lt;br&gt;ctg52 76&lt;br&gt;Location: 82467 - 83799" locus_tag="ctg52_76" class="clusterblast-orf" id="dummy-1_q19_0_all"  />
<polygon points="649,40 658,40 663,35 658,30 649,30 649,40 " style="fill:white; stroke-width:1; stroke:black; " description="&lt;b&gt;ctg52_77&lt;/b&gt;&lt;br&gt;ctg52 77&lt;br&gt;Location: 83963 - 84437" locus_tag="ctg52_77" class="clusterblast-orf" id="dummy-1_q20_0_all"  />
<polygon points="663,40 712,40 717,35 712,30 663,30 663,40 " style="fill:white; stroke-width:1; stroke:black; " description="&lt;b&gt;ctg52_78&lt;/b&gt;&lt;br&gt;ctg52 78&lt;br&gt;Location: 84429 - 86292" locus_tag="ctg52_78" class="clusterblast-orf" id="dummy-1_q21_0_all"  />
<polygon points="719,40 732,40 737,35 732,30 719,30 719,40 " style="fill:white; stroke-width:1; stroke:black; " description="&lt;b&gt;ctg52_79&lt;/b&gt;&lt;br&gt;ctg52 79&lt;br&gt;Location: 86372 - 86963" locus_tag="ctg52_79" class="clusterblast-orf" id="dummy-1_q22_0_all"  />
<polygon points="739,40 741,40 746,35 741,30 739,30 739,40 " style="fill:white; stroke-width:1; stroke:black; " description="&lt;b&gt;ctg52_80&lt;/b&gt;&lt;br&gt;ctg52 80&lt;br&gt;Location: 87048 - 87282" locus_tag="ctg52_80" class="clusterblast-orf" id="dummy-1_q23_0_all"  />
<polygon points="746,40 750,40 755,35 750,30 746,30 746,40 " style="fill:white; stroke-width:1; stroke:black; " description="&lt;b&gt;ctg52_81&lt;/b&gt;&lt;br&gt;ctg52 81&lt;br&gt;Location: 87284 - 87599" locus_tag="ctg52_81" class="clusterblast-orf" id="dummy-1_q24_0_all"  />
<polygon points="755,35 760,30 780,30 780,40 760,40 755,35 " style="fill:white; stroke-width:1; stroke:black; " description="&lt;b&gt;ctg52_82&lt;/b&gt;&lt;br&gt;ctg52 82&lt;br&gt;Location: 87595 - 88444" locus_tag="ctg52_82" class="clusterblast-orf" id="dummy-1_q25_0_all"  />
</g>
<g label="MGC00000018" description="MGC00000018_c1: Carnitine caiTABCDE E. coli (100% of genes show similarity), CAR" class="clusterblast-cluster"  >
<text x="5" y="70" class="clusterblast-acc"  >
MGC00000018_c1: Carnitine caiTABCDE E. coli (100% of genes show similarity), CAR</text>
<line x1="10" y1="85" x2="778.0" y2="85" style="stroke-width:1; stroke:grey; "  />
</g>
<g id="a1_000"  >
<polygon points="285,85 290,80 302,80 302,90 290,90 285,85 " style="fill:#d81515; stroke-width:1; stroke:black; " description="&lt;b&gt;C_RS00205&lt;/b&gt;&lt;br&gt;carnitine operon protein CaiE&lt;br&gt;Location: 10000 - 10591&lt;br&gt;&lt;br&gt;&lt;b&gt;BlastP hit with ctg52_66&lt;/b&gt;&lt;br&gt;Percentage identity: 99&lt;br&gt;Percentage coverage: 100&lt;br&gt;BLAST bit score: 377&lt;br&gt;E-value: 9.25e-138" locus_tag="C_RS00205" class="clusterblast-orf" id="dummy-1_h1_1_0"  />
</g>
<g id="a1_001"  >
<polygon points="302,85 307,80 325,80 325,90 307,90 302,85 " style="fill:#15d815; stroke-width:1; stroke:black; " description="&lt;b&gt;C_RS00210&lt;/b&gt;&lt;br&gt;carnitinyl-CoA dehydratase&lt;br&gt;Location: 10596 - 11382&lt;br&gt;&lt;br&gt;&lt;b&gt;BlastP hit with ctg52_67&lt;/b&gt;&lt;br&gt;Percentage identity: 100&lt;br&gt;Percentage coverage: 100&lt;br&gt;BLAST bit score: 515&lt;br&gt;E-value: 3.57e-190" locus_tag="C_RS00210" class="clusterblast-orf" id="dummy-1_h1_1_1"  />
</g>
<g id="a1_002"  >
<polygon points="329,85 334,80 374,80 374,90 334,90 329,85 " style="fill:#1515d8; stroke-width:1; stroke:black; " description="&lt;b&gt;C_RS00215&lt;/b&gt;&lt;br&gt;ATP-dependent acyl-CoA ligase&lt;br&gt;Location: 11490 - 13044&lt;br&gt;&lt;br&gt;&lt;b&gt;BlastP hit with ctg52_68&lt;/b&gt;&lt;br&gt;Percentage identity: 100&lt;br&gt;Percentage coverage: 100&lt;br&gt;BLAST bit score: 1056&lt;br&gt;E-value: 0.0" locus_tag="C_RS00215" class="clusterblast-orf" id="dummy-1_h1_1_2"  />
</g>
<g id="a1_003"  >
<polygon points="376,85 381,80 412,80 412,90 381,90 376,85 " style="fill:#d815d8; stroke-width:1; stroke:black; " description="&lt;b&gt;C_RS00220&lt;/b&gt;&lt;br&gt;L-carnitine CoA-transferase&lt;br&gt;Location: 13116 - 14334&lt;br&gt;&lt;br&gt;&lt;b&gt;BlastP hit with ctg52_69&lt;/b&gt;&lt;br&gt;Percentage identity: 100&lt;br&gt;Percentage coverage: 100&lt;br&gt;BLAST bit score: 838&lt;br&gt;E-value: 3.35e-313" locus_tag="C_RS00220" class="clusterblast-orf" id="dummy-1_h1_1_3"  />
</g>
<g id="a1_004"  >
<polygon points="415,85 420,80 449,80 449,90 420,90 415,85 " style="fill:#d8d815; stroke-width:1; stroke:black; " description="&lt;b&gt;C_RS00225&lt;/b&gt;&lt;br&gt;crotonobetainyl-CoA dehydrogenase&lt;br&gt;Location: 14461 - 15604&lt;br&gt;&lt;br&gt;&lt;b&gt;BlastP hit with ctg52_70&lt;/b&gt;&lt;br&gt;Percentage identity: 100&lt;br&gt;Percentage coverage: 100&lt;br&gt;BLAST bit score: 768&lt;br&gt;E-value: 5.29e-286" locus_tag="C_RS00225" class="clusterblast-orf" id="dummy-1_h1_1_4"  />
</g>
<g id="a1_005"  >
<polygon points="450,85 455,80 494,80 494,90 455,90 450,85 " style="fill:#15d8d8; stroke-width:1; stroke:black; " description="&lt;b&gt;C_RS00230&lt;/b&gt;&lt;br&gt;L-carnitine/gamma-butyrobetaine antiporter&lt;br&gt;Location: 15634 - 17149&lt;br&gt;&lt;br&gt;&lt;b&gt;BlastP hit with ctg52_71&lt;/b&gt;&lt;br&gt;Percentage identity: 100&lt;br&gt;Percentage coverage: 100&lt;br&gt;BLAST bit score: 1017&lt;br&gt;E-value: 0.0" locus_tag="C_RS00230" class="clusterblast-orf" id="dummy-1_h1_1_5"  />
</g>
</svg>
