<svg xmlns="http://www.w3.org/2000/svg" xmlns:xlink="http://www.w3.org/1999/xlink" version="1.1" x="0" y="0" height="230" width="800" viewBox="0 0 800 230" preserveAspectRatio="none"  >
<g label="Query sequence" class="clusterblast-cluster"  >
<text x="5" y="20" class="clusterblast-acc"  >
Query sequence</text>
<line x1="10" y1="35" x2="778.0" y2="35" style="stroke-width:1; stroke:grey; "  />
<polygon points="61,40 80,40 85,35 80,30 61,30 61,40 " style="fill:white; stroke-width:1; stroke:black; " description="&lt;b&gt;ctg64_1&lt;/b&gt;&lt;br&gt;ctg64 1&lt;br&gt;Location: 394 - 973" locus_tag="ctg64_1" class="clusterblast-orf" id="dummy-1_q0_0_all"  />
<polygon points="86,40 113,40 118,35 113,30 86,30 86,40 " style="fill:white; stroke-width:1; stroke:black; " description="&lt;b&gt;ctg64_2&lt;/b&gt;&lt;br&gt;ctg64 2&lt;br&gt;Location: 995 - 1814" locus_tag="ctg64_2" class="clusterblast-orf" id="dummy-1_q1_0_all"  />
<polygon points="118,40 134,40 139,35 134,30 118,30 118,40 " style="fill:white; stroke-width:1; stroke:black; " description="&lt;b&gt;ctg64_3&lt;/b&gt;&lt;br&gt;ctg64 3&lt;br&gt;Location: 1813 - 2332" locus_tag="ctg64_3" class="clusterblast-orf" id="dummy-1_q2_0_all"  />
<polygon points="160,40 166,40 171,35 166,30 160,30 160,40 " style="fill:#d81515; stroke-width:1; stroke:black; " description="&lt;b&gt;ctg64_4&lt;/b&gt;&lt;br&gt;ctg64 4&lt;br&gt;Location: 2851 - 3130" locus_tag="ctg64_4" class="clusterblast-orf" id="dummy-1_q3_0_all"  />
<polygon points="172,40 178,40 183,35 178,30 172,30 172,40 " style="fill:#d81515; stroke-width:1; stroke:black; " description="&lt;b&gt;ctg64_5&lt;/b&gt;&lt;br&gt;ctg64 5&lt;br&gt;Location: 3147 - 3432" locus_tag="ctg64_5" class="clusterblast-orf" id="dummy-1_q4_0_all"  />
<polygon points="184,40 190,40 195,35 190,30 184,30 184,40 " style="fill:#d81515; stroke-width:1; stroke:black; " description="&lt;b&gt;ctg64_6&lt;/b&gt;&lt;br&gt;ctg64 6&lt;br&gt;Location: 3446 - 3725" locus_tag="ctg64_6" class="clusterblast-orf" id="dummy-1_q5_0_all"  />
<polygon points="197,40 256,40 261,35 256,30 197,30 197,40 " style="fill:#4dd815; stroke-width:1; stroke:black; " description="&lt;b&gt;ctg64_7&lt;/b&gt;&lt;br&gt;ctg64 7&lt;br&gt;Location: 3778 - 5365" locus_tag="ctg64_7" class="clusterblast-orf" id="dummy-1_q6_0_all"  />
<polygon points="262,40 268,40 273,35 268,30 262,30 262,40 " style="fill:#1585d8; stroke-width:1; stroke:black; " description="&lt;b&gt;ctg64_8&lt;/b&gt;&lt;br&gt;ctg64 8&lt;br&gt;Location: 5391 - 5649" locus_tag="ctg64_8" class="clusterblast-orf" id="dummy-1_q7_0_all"  />
<polygon points="273,40 315,40 320,35 315,30 273,30 273,40 " style="fill:#d815bc; stroke-width:1; stroke:black; " description="&lt;b&gt;ctg64_9&lt;/b&gt;&lt;br&gt;ctg64 9&lt;br&gt;Location: 5664 - 6819" locus_tag="ctg64_9" class="clusterblast-orf" id="dummy-1_q8_0_all"  />
<polygon points="321,40 452,40 457,35 452,30 321,30 321,40 " style="fill:#d8bc15; stroke-width:1; stroke:black; " description="&lt;b&gt;ctg64_10&lt;/b&gt;&lt;br&gt;ctg64 10&lt;br&gt;Location: 6845 - 10232" locus_tag="ctg64_10" class="clusterblast-orf" id="dummy-1_q9_0_all"  />
<polygon points="459,40 492,40 497,35 492,30 459,30 459,40 " style="fill:#15d885; stroke-width:1; stroke:black; " description="&lt;b&gt;ctg64_11&lt;/b&gt;&lt;br&gt;ctg64 11&lt;br&gt;Location: 10283 - 11231" locus_tag="ctg64_11" class="clusterblast-orf" id="dummy-1_q10_0_all"  />
<polygon points="497,40 511,40 516,35 511,30 497,30 497,40 " style="fill:#d81515; stroke-width:1; stroke:black; " description="&lt;b&gt;ctg64_12&lt;/b&gt;&lt;br&gt;ctg64 12&lt;br&gt;Location: 11242 - 11707" locus_tag="ctg64_12" class="clusterblast-orf" id="dummy-1_q11_0_all"  />
<polygon points="516,40 536,40 541,35 536,30 516,30 516,40 " style="fill:#4d15d8; stroke-width:1; stroke:black; " description="&lt;b&gt;ctg64_13&lt;/b&gt;&lt;br&gt;ctg64 13&lt;br&gt;Location: 11703 - 12324" locus_tag="ctg64_13" class="clusterblast-orf" id="dummy-1_q12_0_all"  />
<polygon points="541,40 563,40 568,35 563,30 541,30 541,40 " style="fill:white; stroke-width:1; stroke:black; " description="&lt;b&gt;ctg64_14&lt;/b&gt;&lt;br&gt;ctg64 14&lt;br&gt;Location: 12335 - 13001" locus_tag="ctg64_14" class="clusterblast-orf" id="dummy-1_q13_0_all"  />
<polygon points="569,40 580,40 585,35 580,30 569,30 569,40 " style="fill:white; stroke-width:1; stroke:black; " description="&lt;b&gt;ctg64_15&lt;/b&gt;&lt;br&gt;ctg64 15&lt;br&gt;Location: 13033 - 13435" locus_tag="ctg64_15" class="clusterblast-orf" id="dummy-1_q14_0_all"  />
<polygon points="586,40 594,40 599,35 594,30 586,30 586,40 " style="fill:white; stroke-width:1; stroke:black; " description="&lt;b&gt;ctg64_16&lt;/b&gt;&lt;br&gt;ctg64 16&lt;br&gt;Location: 13450 - 13780" locus_tag="ctg64_16" class="clusterblast-orf" id="dummy-1_q15_0_all"  />
<polygon points="625,35 630,30 663,30 663,40 630,40 625,35 " style="fill:white; stroke-width:1; stroke:black; " description="&lt;b&gt;ctg64_17&lt;/b&gt;&lt;br&gt;ctg64 17&lt;br&gt;Location: 14432 - 15377" locus_tag="ctg64_17" class="clusterblast-orf" id="dummy-1_q16_0_all"  />
<polygon points="672,40 713,40 718,35 713,30 672,30 672,40 " style="fill:white; stroke-width:1; stroke:black; " description="&lt;b&gt;ctg64_18&lt;/b&gt;&lt;br&gt;ctg64 18&lt;br&gt;Location: 15594 - 16746" locus_tag="ctg64_18" class="clusterblast-orf" id="dummy-1_q17_0_all"  />
</g>
<g label="MGC00000010" description="MGC00000010_c1: Propanediol degradation S. enterica (25% of genes show similarity), PDU" class="clusterblast-cluster"  >
<text x="5" y="70" class="clusterblast-acc"  >
MGC00000010_c1: Propanediol degradation S. enterica (25% of genes show similarity), PDU</text>
<line x1="10" y1="85" x2="778.0" y2="85" style="stroke-width:1; stroke:grey; "  />
</g>
<g id="a1_000"  >
<polygon points="0,85 5,80 36,80 36,90 5,90 0,85 " style="fill:white; stroke-width:1; stroke:black; " description="&lt;b&gt;STM2036&lt;/b&gt;&lt;br&gt;transcriptional regulator PocR&lt;br&gt;Location: 221 - 1133" locus_tag="STM2036" class="clusterblast-orf" id="dummy-1_h1_2_0"  />
</g>
<g id="a1_001"  >
<polygon points="45,85 50,80 77,80 77,90 50,90 45,85 " style="fill:white; stroke-width:1; stroke:black; " description="&lt;b&gt;STM2037&lt;/b&gt;&lt;br&gt;propanediol diffusion facilitator&lt;br&gt;Location: 1349 - 2144" locus_tag="STM2037" class="clusterblast-orf" id="dummy-1_h1_2_1"  />
</g>
<g id="a1_002"  >
<polygon points="98,90 104,90 109,85 104,80 98,80 98,90 " style="fill:#d81515; stroke-width:1; stroke:black; " description="&lt;b&gt;STM2038&lt;/b&gt;&lt;br&gt;propanediol utilization polyhedral body protein PduA&lt;br&gt;Location: 2668 - 2953&lt;br&gt;&lt;br&gt;&lt;b&gt;BlastP hit with ctg64_4&lt;/b&gt;&lt;br&gt;Percentage identity: 64&lt;br&gt;Percentage coverage: 95&lt;br&gt;BLAST bit score: 109&lt;br&gt;E-value: 8.17e-35&lt;br&gt;&lt;br&gt;&lt;b&gt;BlastP hit with ctg64_5&lt;/b&gt;&lt;br&gt;Percentage identity: 64&lt;br&gt;Percentage coverage: 90&lt;br&gt;BLAST bit score: 106&lt;br&gt;E-value: 1.46e-33&lt;br&gt;&lt;br&gt;&lt;b&gt;BlastP hit with ctg64_6&lt;/b&gt;&lt;br&gt;Percentage identity: 67&lt;br&gt;Percentage coverage: 92&lt;br&gt;BLAST bit score: 110&lt;br&gt;E-value: 2.01e-35&lt;br&gt;&lt;br&gt;&lt;b&gt;BlastP hit with ctg64_12&lt;/b&gt;&lt;br&gt;Percentage identity: 45&lt;br&gt;Percentage coverage: 55&lt;br&gt;BLAST bit score: 66&lt;br&gt;E-value: 5.93e-17" locus_tag="STM2038" class="clusterblast-orf" id="dummy-1_h1_2_2"  />
</g>
<g id="a1_003"  >
<polygon points="109,90 137,90 142,85 137,80 109,80 109,90 " style="fill:white; stroke-width:1; stroke:black; " description="&lt;b&gt;STM2039&lt;/b&gt;&lt;br&gt;propanediol utilization polyhedral body protein PduB&lt;br&gt;Location: 2949 - 3762" locus_tag="STM2039" class="clusterblast-orf" id="dummy-1_h1_2_3"  />
</g>
<g id="a1_004"  >
<polygon points="142,90 204,90 209,85 204,80 142,80 142,90 " style="fill:white; stroke-width:1; stroke:black; " description="&lt;b&gt;STM2040&lt;/b&gt;&lt;br&gt;propanediol dehydratase large subunit&lt;br&gt;Location: 3780 - 5445" locus_tag="STM2040" class="clusterblast-orf" id="dummy-1_h1_2_4"  />
</g>
<g id="a1_005"  >
<polygon points="210,90 232,90 237,85 232,80 210,80 210,90 " style="fill:white; stroke-width:1; stroke:black; " description="&lt;b&gt;STM2041&lt;/b&gt;&lt;br&gt;propanediol dehydratase medium subunit&lt;br&gt;Location: 5455 - 6130" locus_tag="STM2041" class="clusterblast-orf" id="dummy-1_h1_2_5"  />
</g>
<g id="a1_006"  >
<polygon points="237,90 253,90 258,85 253,80 237,80 237,90 " style="fill:white; stroke-width:1; stroke:black; " description="&lt;b&gt;STM2042&lt;/b&gt;&lt;br&gt;propanediol dehydratase small subunit&lt;br&gt;Location: 6144 - 6666" locus_tag="STM2042" class="clusterblast-orf" id="dummy-1_h1_2_6"  />
</g>
<g id="a1_007"  >
<polygon points="259,90 327,90 332,85 327,80 259,80 259,90 " style="fill:white; stroke-width:1; stroke:black; " description="&lt;b&gt;STM2043&lt;/b&gt;&lt;br&gt;propanediol dehydratase reactivation protein&lt;br&gt;Location: 6675 - 8508" locus_tag="STM2043" class="clusterblast-orf" id="dummy-1_h1_2_7"  />
</g>
<g id="a1_008"  >
<polygon points="332,90 341,90 346,85 341,80 332,80 332,90 " style="fill:white; stroke-width:1; stroke:black; " description="&lt;b&gt;STM2044&lt;/b&gt;&lt;br&gt;propanediol dehydratase reactivation protein&lt;br&gt;Location: 8497 - 8848" locus_tag="STM2044" class="clusterblast-orf" id="dummy-1_h1_2_8"  />
</g>
<g id="a1_009"  >
<polygon points="347,90 353,90 358,85 353,80 347,80 347,90 " style="fill:#d81515; stroke-width:1; stroke:black; " description="&lt;b&gt;STM2045&lt;/b&gt;&lt;br&gt;propanediol utilization polyhedral body protein PduJ&lt;br&gt;Location: 8866 - 9142&lt;br&gt;&lt;br&gt;&lt;b&gt;BlastP hit with ctg64_4&lt;/b&gt;&lt;br&gt;Percentage identity: 66&lt;br&gt;Percentage coverage: 97&lt;br&gt;BLAST bit score: 112&lt;br&gt;E-value: 3.19e-36&lt;br&gt;&lt;br&gt;&lt;b&gt;BlastP hit with ctg64_5&lt;/b&gt;&lt;br&gt;Percentage identity: 66&lt;br&gt;Percentage coverage: 93&lt;br&gt;BLAST bit score: 109&lt;br&gt;E-value: 5.71e-35&lt;br&gt;&lt;br&gt;&lt;b&gt;BlastP hit with ctg64_6&lt;/b&gt;&lt;br&gt;Percentage identity: 67&lt;br&gt;Percentage coverage: 93&lt;br&gt;BLAST bit score: 110&lt;br&gt;E-value: 2.62e-35&lt;br&gt;&lt;br&gt;&lt;b&gt;BlastP hit with ctg64_12&lt;/b&gt;&lt;br&gt;Percentage identity: 49&lt;br&gt;Percentage coverage: 50&lt;br&gt;BLAST bit score: 72&lt;br&gt;E-value: 2.23e-19" locus_tag="STM2045" class="clusterblast-orf" id="dummy-1_h1_2_9"  />
</g>
<g id="a1_0010"  >
<polygon points="359,90 372,90 377,85 372,80 359,80 359,90 " style="fill:white; stroke-width:1; stroke:black; " description="&lt;b&gt;STM2046&lt;/b&gt;&lt;br&gt;propanediol utilization polyhedral body protein PduK&lt;br&gt;Location: 9166 - 9628" locus_tag="STM2046" class="clusterblast-orf" id="dummy-1_h1_2_10"  />
</g>
<g id="a1_0011"  >
<polygon points="377,90 398,90 403,85 398,80 377,80 377,90 " style="fill:#4d15d8; stroke-width:1; stroke:black; " description="&lt;b&gt;STM2047&lt;/b&gt;&lt;br&gt;phosphate propanoyltransferase&lt;br&gt;Location: 9627 - 10260&lt;br&gt;&lt;br&gt;&lt;b&gt;BlastP hit with ctg64_13&lt;/b&gt;&lt;br&gt;Percentage identity: 58&lt;br&gt;Percentage coverage: 87&lt;br&gt;BLAST bit score: 188&lt;br&gt;E-value: 1.54e-62" locus_tag="STM2047" class="clusterblast-orf" id="dummy-1_h1_2_11"  />
</g>
<g id="a1_0012"  >
<polygon points="403,90 417,90 422,85 417,80 403,80 403,90 " style="fill:white; stroke-width:1; stroke:black; " description="&lt;b&gt;STM2048&lt;/b&gt;&lt;br&gt;propanediol utilization protein PduM&lt;br&gt;Location: 10256 - 10748" locus_tag="STM2048" class="clusterblast-orf" id="dummy-1_h1_2_12"  />
</g>
<g id="a1_0013"  >
<polygon points="423,90 429,90 434,85 429,80 423,80 423,90 " style="fill:#1585d8; stroke-width:1; stroke:black; " description="&lt;b&gt;STM2049&lt;/b&gt;&lt;br&gt;propanediol utilization polyhedral body protein PduN&lt;br&gt;Location: 10751 - 11027&lt;br&gt;&lt;br&gt;&lt;b&gt;BlastP hit with ctg64_8&lt;/b&gt;&lt;br&gt;Percentage identity: 48&lt;br&gt;Percentage coverage: 71&lt;br&gt;BLAST bit score: 47&lt;br&gt;E-value: 3.03e-10" locus_tag="STM2049" class="clusterblast-orf" id="dummy-1_h1_2_13"  />
</g>
<g id="a1_0014"  >
<polygon points="434,90 470,90 475,85 470,80 434,80 434,90 " style="fill:white; stroke-width:1; stroke:black; " description="&lt;b&gt;STM2050&lt;/b&gt;&lt;br&gt;propanediol utilization protein PduO&lt;br&gt;Location: 11036 - 12047" locus_tag="STM2050" class="clusterblast-orf" id="dummy-1_h1_2_14"  />
</g>
<g id="a1_0015"  >
<polygon points="474,90 525,90 530,85 525,80 474,80 474,90 " style="fill:white; stroke-width:1; stroke:black; " description="&lt;b&gt;STM2051&lt;/b&gt;&lt;br&gt;CoA-dependent propionaldehyde dehydrogenase&lt;br&gt;Location: 12043 - 13438" locus_tag="STM2051" class="clusterblast-orf" id="dummy-1_h1_2_15"  />
</g>
<g id="a1_0016"  >
<polygon points="531,90 571,90 576,85 571,80 531,80 531,90 " style="fill:#d815bc; stroke-width:1; stroke:black; " description="&lt;b&gt;STM2052&lt;/b&gt;&lt;br&gt;propanol dehydrogenase&lt;br&gt;Location: 13449 - 14562&lt;br&gt;&lt;br&gt;&lt;b&gt;BlastP hit with ctg64_9&lt;/b&gt;&lt;br&gt;Percentage identity: 43&lt;br&gt;Percentage coverage: 98&lt;br&gt;BLAST bit score: 263&lt;br&gt;E-value: 5.13e-87" locus_tag="STM2052" class="clusterblast-orf" id="dummy-1_h1_2_16"  />
</g>
<g id="a1_0017"  >
<polygon points="575,90 625,90 630,85 625,80 575,80 575,90 " style="fill:white; stroke-width:1; stroke:black; " description="&lt;b&gt;STM2053&lt;/b&gt;&lt;br&gt;propanediol utilization polyhedral body protein PduS&lt;br&gt;Location: 14558 - 15914" locus_tag="STM2053" class="clusterblast-orf" id="dummy-1_h1_2_17"  />
</g>
<g id="a1_0018"  >
<polygon points="630,90 647,90 652,85 647,80 630,80 630,90 " style="fill:#d81515; stroke-width:1; stroke:black; " description="&lt;b&gt;STM2054&lt;/b&gt;&lt;br&gt;propanediol utilization polyhedral body protein PduT&lt;br&gt;Location: 15916 - 16471&lt;br&gt;&lt;br&gt;&lt;b&gt;BlastP hit with ctg64_4&lt;/b&gt;&lt;br&gt;Percentage identity: 41&lt;br&gt;Percentage coverage: 87&lt;br&gt;BLAST bit score: 46&lt;br&gt;E-value: 3.01e-09&lt;br&gt;&lt;br&gt;&lt;b&gt;BlastP hit with ctg64_5&lt;/b&gt;&lt;br&gt;Percentage identity: 41&lt;br&gt;Percentage coverage: 85&lt;br&gt;BLAST bit score: 42&lt;br&gt;E-value: 6.05e-08&lt;br&gt;&lt;br&gt;&lt;b&gt;BlastP hit with ctg64_6&lt;/b&gt;&lt;br&gt;Percentage identity: 42&lt;br&gt;Percentage coverage: 89&lt;br&gt;BLAST bit score: 46&lt;br&gt;E-value: 2.17e-09" locus_tag="STM2054" class="clusterblast-orf" id="dummy-1_h1_2_18"  />
</g>
<g id="a1_0019"  >
<polygon points="652,90 661,90 666,85 661,80 652,80 652,90 " style="fill:white; stroke-width:1; stroke:black; " description="&lt;b&gt;STM2055&lt;/b&gt;&lt;br&gt;propanediol utilization polyhedral body protein PduU&lt;br&gt;Location: 16470 - 16821" locus_tag="STM2055" class="clusterblast-orf" id="dummy-1_h1_2_19"  />
</g>
<g id="a1_0020"  >
<polygon points="666,90 680,90 685,85 680,80 666,80 666,90 " style="fill:white; stroke-width:1; stroke:black; " description="&lt;b&gt;STM2056&lt;/b&gt;&lt;br&gt;propanediol utilization protein PduV&lt;br&gt;Location: 16825 - 17278" locus_tag="STM2056" class="clusterblast-orf" id="dummy-1_h1_2_20"  />
</g>
<g id="a1_0021"  >
<polygon points="684,90 728,90 733,85 728,80 684,80 684,90 " style="fill:white; stroke-width:1; stroke:black; " description="&lt;b&gt;STM2057&lt;/b&gt;&lt;br&gt;propionate kinase&lt;br&gt;Location: 17262 - 18477" locus_tag="STM2057" class="clusterblast-orf" id="dummy-1_h1_2_21"  />
</g>
<g id="a1_0022"  >
<polygon points="735,90 766,90 771,85 766,80 735,80 735,90 " style="fill:white; stroke-width:1; stroke:black; " description="&lt;b&gt;STM2058&lt;/b&gt;&lt;br&gt;L-threonine kinase&lt;br&gt;Location: 18534 - 19437" locus_tag="STM2058" class="clusterblast-orf" id="dummy-1_h1_2_22"  />
</g>
<g id="a1_0023"  >
<polygon points="773,85 778,80 780,80 780,90 778,90 773,85 " style="fill:white; stroke-width:1; stroke:black; " description="&lt;b&gt;STM2059&lt;/b&gt;&lt;br&gt;hypothetical protein&lt;br&gt;Location: 19470 - 19638" locus_tag="STM2059" class="clusterblast-orf" id="dummy-1_h1_2_23"  />
</g>
</svg>
