<svg xmlns="http://www.w3.org/2000/svg" xmlns:xlink="http://www.w3.org/1999/xlink" version="1.1" x="0" y="0" height="50" width="800" viewBox="0 0 800 50" preserveAspectRatio="none"  >
<g label="Query sequence" class="clusterblast-cluster"  >
<text x="5" y="20" class="clusterblast-acc"  >
Query sequence</text>
<line x1="10" y1="35" x2="778.0" y2="35" style="stroke-width:1; stroke:grey; "  />
<polygon points="0,40 26,40 31,35 26,30 0,30 0,40 " style="fill:white; stroke-width:1; stroke:black; " description="&lt;b&gt;ctg19_21&lt;/b&gt;&lt;br&gt;ctg19 21&lt;br&gt;Location: 22133 - 22907" locus_tag="ctg19_21" class="clusterblast-orf" id="knownclusterblast-1_q0_0_all"  />
<polygon points="47,40 58,40 63,35 58,30 47,30 47,40 " style="fill:white; stroke-width:1; stroke:black; " description="&lt;b&gt;ctg19_22&lt;/b&gt;&lt;br&gt;ctg19 22&lt;br&gt;Location: 23320 - 23704" locus_tag="ctg19_22" class="clusterblast-orf" id="knownclusterblast-1_q1_0_all"  />
<polygon points="65,35 70,30 78,30 78,40 70,40 65,35 " style="fill:white; stroke-width:1; stroke:black; " description="&lt;b&gt;ctg19_23&lt;/b&gt;&lt;br&gt;ctg19 23&lt;br&gt;Location: 23751 - 24069" locus_tag="ctg19_23" class="clusterblast-orf" id="knownclusterblast-1_q2_0_all"  />
<polygon points="80,35 85,30 118,30 118,40 85,40 80,35 " style="fill:white; stroke-width:1; stroke:black; " description="&lt;b&gt;ctg19_24&lt;/b&gt;&lt;br&gt;ctg19 24&lt;br&gt;Location: 24129 - 25086" locus_tag="ctg19_24" class="clusterblast-orf" id="knownclusterblast-1_q3_0_all"  />
<polygon points="119,35 124,30 166,30 166,40 124,40 119,35 " style="fill:white; stroke-width:1; stroke:black; " description="&lt;b&gt;ctg19_25&lt;/b&gt;&lt;br&gt;ctg19 25&lt;br&gt;Location: 25105 - 26278" locus_tag="ctg19_25" class="clusterblast-orf" id="knownclusterblast-1_q4_0_all"  />
<polygon points="167,35 172,30 185,30 185,40 172,40 167,35 " style="fill:white; stroke-width:1; stroke:black; " description="&lt;b&gt;ctg19_26&lt;/b&gt;&lt;br&gt;ctg19 26&lt;br&gt;Location: 26290 - 26752" locus_tag="ctg19_26" class="clusterblast-orf" id="knownclusterblast-1_q5_0_all"  />
<polygon points="185,35 190,30 212,30 212,40 190,40 185,35 " style="fill:white; stroke-width:1; stroke:black; " description="&lt;b&gt;ctg19_27&lt;/b&gt;&lt;br&gt;ctg19 27&lt;br&gt;Location: 26748 - 27432" locus_tag="ctg19_27" class="clusterblast-orf" id="knownclusterblast-1_q6_0_all"  />
<polygon points="222,40 240,40 245,35 240,30 222,30 222,40 " style="fill:white; stroke-width:1; stroke:black; " description="&lt;b&gt;ctg19_28&lt;/b&gt;&lt;br&gt;ctg19 28&lt;br&gt;Location: 27681 - 28236" locus_tag="ctg19_28" class="clusterblast-orf" id="knownclusterblast-1_q7_0_all"  />
<polygon points="245,35 250,30 292,30 292,40 250,40 245,35 " style="fill:white; stroke-width:1; stroke:black; " description="&lt;b&gt;ctg19_29&lt;/b&gt;&lt;br&gt;ctg19 29&lt;br&gt;Location: 28248 - 29427" locus_tag="ctg19_29" class="clusterblast-orf" id="knownclusterblast-1_q8_0_all"  />
<polygon points="295,35 300,30 334,30 334,40 300,40 295,35 " style="fill:white; stroke-width:1; stroke:black; " description="&lt;b&gt;ctg19_30&lt;/b&gt;&lt;br&gt;ctg19 30&lt;br&gt;Location: 29494 - 30466" locus_tag="ctg19_30" class="clusterblast-orf" id="knownclusterblast-1_q9_0_all"  />
<polygon points="332,35 337,30 342,30 342,40 337,40 332,35 " style="fill:white; stroke-width:1; stroke:black; " description="&lt;b&gt;ctg19_31&lt;/b&gt;&lt;br&gt;ctg19 31&lt;br&gt;Location: 30419 - 30677" locus_tag="ctg19_31" class="clusterblast-orf" id="knownclusterblast-1_q10_0_all"  />
<polygon points="342,35 347,30 373,30 373,40 347,40 342,35 " style="fill:white; stroke-width:1; stroke:black; " description="&lt;b&gt;ctg19_32&lt;/b&gt;&lt;br&gt;ctg19 32&lt;br&gt;Location: 30673 - 31441" locus_tag="ctg19_32" class="clusterblast-orf" id="knownclusterblast-1_q11_0_all"  />
<polygon points="373,35 378,30 420,30 420,40 378,40 373,35 " style="fill:white; stroke-width:1; stroke:black; " description="&lt;b&gt;ctg19_33&lt;/b&gt;&lt;br&gt;ctg19 33&lt;br&gt;Location: 31450 - 32602" locus_tag="ctg19_33" class="clusterblast-orf" id="knownclusterblast-1_q12_0_all"  />
<polygon points="424,35 429,30 476,30 476,40 429,40 424,35 " style="fill:white; stroke-width:1; stroke:black; " description="&lt;b&gt;ctg19_34&lt;/b&gt;&lt;br&gt;ctg19 34&lt;br&gt;Location: 32717 - 33998" locus_tag="ctg19_34" class="clusterblast-orf" id="knownclusterblast-1_q13_0_all"  />
<polygon points="483,40 515,40 520,35 515,30 483,30 483,40 " style="fill:white; stroke-width:1; stroke:black; " description="&lt;b&gt;ctg19_35&lt;/b&gt;&lt;br&gt;ctg19 35&lt;br&gt;Location: 34182 - 35103" locus_tag="ctg19_35" class="clusterblast-orf" id="knownclusterblast-1_q14_0_all"  />
<polygon points="537,40 619,40 624,35 619,30 537,30 537,40 " style="fill:white; stroke-width:1; stroke:black; " description="&lt;b&gt;ctg19_36&lt;/b&gt;&lt;br&gt;ctg19 36&lt;br&gt;Location: 35543 - 37700" locus_tag="ctg19_36" class="clusterblast-orf" id="knownclusterblast-1_q15_0_all"  />
<polygon points="626,35 631,30 639,30 639,40 631,40 626,35 " style="fill:white; stroke-width:1; stroke:black; " description="&lt;b&gt;ctg19_37&lt;/b&gt;&lt;br&gt;ctg19 37&lt;br&gt;Location: 37746 - 38088" locus_tag="ctg19_37" class="clusterblast-orf" id="knownclusterblast-1_q16_0_all"  />
<polygon points="653,35 658,30 721,30 721,40 658,40 653,35 " style="fill:white; stroke-width:1; stroke:black; " description="&lt;b&gt;ctg19_38&lt;/b&gt;&lt;br&gt;ctg19 38&lt;br&gt;Location: 38415 - 40122" locus_tag="ctg19_38" class="clusterblast-orf" id="knownclusterblast-1_q17_0_all"  />
<polygon points="721,35 726,30 780,30 780,40 726,40 721,35 " style="fill:white; stroke-width:1; stroke:black; " description="&lt;b&gt;ctg19_39&lt;/b&gt;&lt;br&gt;ctg19 39&lt;br&gt;Location: 40121 - 41591" locus_tag="ctg19_39" class="clusterblast-orf" id="knownclusterblast-1_q18_0_all"  />
</g>
</svg>
