<svg xmlns="http://www.w3.org/2000/svg" xmlns:xlink="http://www.w3.org/1999/xlink" version="1.1" x="0" y="0" height="230" width="800" viewBox="0 0 800 230" preserveAspectRatio="none"  >
<g label="Query sequence" class="clusterblast-cluster"  >
<text x="5" y="20" class="clusterblast-acc"  >
Query sequence</text>
<line x1="10" y1="35" x2="778.0" y2="35" style="stroke-width:1; stroke:grey; "  />
<polygon points="0,40 28,40 33,35 28,30 0,30 0,40 " style="fill:white; stroke-width:1; stroke:black; " description="&lt;b&gt;ctg11_81&lt;/b&gt;&lt;br&gt;ctg11 81&lt;br&gt;Location: 85119 - 86100" locus_tag="ctg11_81" class="clusterblast-orf" id="dummy-1_q0_0_all"  />
<polygon points="39,35 44,30 53,30 53,40 44,40 39,35 " style="fill:white; stroke-width:1; stroke:black; " description="&lt;b&gt;ctg11_82&lt;/b&gt;&lt;br&gt;ctg11 82&lt;br&gt;Location: 86273 - 86690" locus_tag="ctg11_82" class="clusterblast-orf" id="dummy-1_q1_0_all"  />
<polygon points="53,35 58,30 75,30 75,40 58,40 53,35 " style="fill:white; stroke-width:1; stroke:black; " description="&lt;b&gt;ctg11_83&lt;/b&gt;&lt;br&gt;ctg11 83&lt;br&gt;Location: 86689 - 87325" locus_tag="ctg11_83" class="clusterblast-orf" id="dummy-1_q2_0_all"  />
<polygon points="76,35 81,30 109,30 109,40 81,40 76,35 " style="fill:white; stroke-width:1; stroke:black; " description="&lt;b&gt;ctg11_84&lt;/b&gt;&lt;br&gt;ctg11 84&lt;br&gt;Location: 87361 - 88312" locus_tag="ctg11_84" class="clusterblast-orf" id="dummy-1_q3_0_all"  />
<polygon points="109,35 114,30 134,30 134,40 114,40 109,35 " style="fill:white; stroke-width:1; stroke:black; " description="&lt;b&gt;ctg11_85&lt;/b&gt;&lt;br&gt;ctg11 85&lt;br&gt;Location: 88324 - 89056" locus_tag="ctg11_85" class="clusterblast-orf" id="dummy-1_q4_0_all"  />
<polygon points="141,35 146,30 165,30 165,40 146,40 141,35 " style="fill:white; stroke-width:1; stroke:black; " description="&lt;b&gt;ctg11_86&lt;/b&gt;&lt;br&gt;ctg11 86&lt;br&gt;Location: 89259 - 89967" locus_tag="ctg11_86" class="clusterblast-orf" id="dummy-1_q5_0_all"  />
<polygon points="168,35 173,30 185,30 185,40 173,40 168,35 " style="fill:white; stroke-width:1; stroke:black; " description="&lt;b&gt;ctg11_87&lt;/b&gt;&lt;br&gt;ctg11 87&lt;br&gt;Location: 90061 - 90559" locus_tag="ctg11_87" class="clusterblast-orf" id="dummy-1_q6_0_all"  />
<polygon points="191,35 196,30 239,30 239,40 196,40 191,35 " style="fill:white; stroke-width:1; stroke:black; " description="&lt;b&gt;ctg11_88&lt;/b&gt;&lt;br&gt;ctg11 88&lt;br&gt;Location: 90736 - 92131" locus_tag="ctg11_88" class="clusterblast-orf" id="dummy-1_q7_0_all"  />
<polygon points="253,35 258,30 293,30 293,40 258,40 253,35 " style="fill:white; stroke-width:1; stroke:black; " description="&lt;b&gt;ctg11_89&lt;/b&gt;&lt;br&gt;ctg11 89&lt;br&gt;Location: 92567 - 93722" locus_tag="ctg11_89" class="clusterblast-orf" id="dummy-1_q8_0_all"  />
<polygon points="320,40 382,40 387,35 382,30 320,30 320,40 " style="fill:#d81515; stroke-width:1; stroke:black; " description="&lt;b&gt;ctg11_90&lt;/b&gt;&lt;br&gt;ctg11 90&lt;br&gt;Location: 94516 - 96493" locus_tag="ctg11_90" class="clusterblast-orf" id="dummy-1_q9_0_all"  />
<polygon points="397,40 417,40 422,35 417,30 397,30 397,40 " style="fill:#77d815; stroke-width:1; stroke:black; " description="&lt;b&gt;ctg11_91&lt;/b&gt;&lt;br&gt;ctg11 91&lt;br&gt;Location: 96774 - 97506" locus_tag="ctg11_91" class="clusterblast-orf" id="dummy-1_q10_0_all"  />
<polygon points="426,40 453,40 458,35 453,30 426,30 426,40 " style="fill:#15d8d8; stroke-width:1; stroke:black; " description="&lt;b&gt;ctg11_92&lt;/b&gt;&lt;br&gt;ctg11 92&lt;br&gt;Location: 97641 - 98562" locus_tag="ctg11_92" class="clusterblast-orf" id="dummy-1_q11_0_all"  />
<polygon points="461,35 466,30 487,30 487,40 466,40 461,35 " style="fill:white; stroke-width:1; stroke:black; " description="&lt;b&gt;ctg11_93&lt;/b&gt;&lt;br&gt;ctg11 93&lt;br&gt;Location: 98652 - 99411" locus_tag="ctg11_93" class="clusterblast-orf" id="dummy-1_q12_0_all"  />
<polygon points="496,40 559,40 564,35 559,30 496,30 496,40 " style="fill:white; stroke-width:1; stroke:black; " description="&lt;b&gt;ctg11_94&lt;/b&gt;&lt;br&gt;ctg11 94&lt;br&gt;Location: 99688 - 101680" locus_tag="ctg11_94" class="clusterblast-orf" id="dummy-1_q13_0_all"  />
<polygon points="565,40 576,40 581,35 576,30 565,30 565,40 " style="fill:white; stroke-width:1; stroke:black; " description="&lt;b&gt;ctg11_95&lt;/b&gt;&lt;br&gt;ctg11 95&lt;br&gt;Location: 101711 - 102191" locus_tag="ctg11_95" class="clusterblast-orf" id="dummy-1_q14_0_all"  />
<polygon points="576,35 581,30 607,30 607,40 581,40 576,35 " style="fill:white; stroke-width:1; stroke:black; " description="&lt;b&gt;ctg11_96&lt;/b&gt;&lt;br&gt;ctg11 96&lt;br&gt;Location: 102032 - 102941" locus_tag="ctg11_96" class="clusterblast-orf" id="dummy-1_q15_0_all"  />
<polygon points="620,40 630,40 635,35 630,30 620,30 620,40 " style="fill:white; stroke-width:1; stroke:black; " description="&lt;b&gt;ctg11_97&lt;/b&gt;&lt;br&gt;ctg11 97&lt;br&gt;Location: 103318 - 103762" locus_tag="ctg11_97" class="clusterblast-orf" id="dummy-1_q16_0_all"  />
<polygon points="636,40 678,40 683,35 678,30 636,30 636,40 " style="fill:white; stroke-width:1; stroke:black; " description="&lt;b&gt;ctg11_98&lt;/b&gt;&lt;br&gt;ctg11 98&lt;br&gt;Location: 103789 - 105178" locus_tag="ctg11_98" class="clusterblast-orf" id="dummy-1_q17_0_all"  />
<polygon points="683,40 722,40 727,35 722,30 683,30 683,40 " style="fill:white; stroke-width:1; stroke:black; " description="&lt;b&gt;ctg11_99&lt;/b&gt;&lt;br&gt;ctg11 99&lt;br&gt;Location: 105192 - 106470" locus_tag="ctg11_99" class="clusterblast-orf" id="dummy-1_q18_0_all"  />
<polygon points="727,40 728,40 733,35 728,30 727,30 727,40 " style="fill:white; stroke-width:1; stroke:black; " description="&lt;b&gt;ctg11_100&lt;/b&gt;&lt;br&gt;ctg11 100&lt;br&gt;Location: 106466 - 106655" locus_tag="ctg11_100" class="clusterblast-orf" id="dummy-1_q19_0_all"  />
<polygon points="738,40 751,40 756,35 751,30 738,30 738,40 " style="fill:#7715d8; stroke-width:1; stroke:black; " description="&lt;b&gt;ctg11_101&lt;/b&gt;&lt;br&gt;ctg11 101&lt;br&gt;Location: 106803 - 107313" locus_tag="ctg11_101" class="clusterblast-orf" id="dummy-1_q20_0_all"  />
<polygon points="756,40 775,40 780,35 775,30 756,30 756,40 " style="fill:white; stroke-width:1; stroke:black; " description="&lt;b&gt;ctg11_102&lt;/b&gt;&lt;br&gt;ctg11 102&lt;br&gt;Location: 107309 - 108023" locus_tag="ctg11_102" class="clusterblast-orf" id="dummy-1_q21_0_all"  />
</g>
<g label="MGC00000052" description="MGC00000052_c1: Arginine2putrescine E. coli (100% of genes show similarity), PUTR" class="clusterblast-cluster"  >
<text x="5" y="70" class="clusterblast-acc"  >
MGC00000052_c1: Arginine2putrescine E. coli (100% of genes show similarity), PUTR</text>
<line x1="10" y1="85" x2="778.0" y2="85" style="stroke-width:1; stroke:grey; "  />
</g>
<g id="a1_000"  >
<polygon points="163,90 226,90 231,85 226,80 163,80 163,90 " style="fill:#d81515; stroke-width:1; stroke:black; " description="&lt;b&gt;E2348C_RS17110&lt;/b&gt;&lt;br&gt;arginine decarboxylase&lt;br&gt;Location: 13290 - 11313&lt;br&gt;&lt;br&gt;&lt;b&gt;BlastP hit with ctg11_90&lt;/b&gt;&lt;br&gt;Percentage identity: 100&lt;br&gt;Percentage coverage: 100&lt;br&gt;BLAST bit score: 1314&lt;br&gt;E-value: 0.0" locus_tag="E2348C_RS17110" class="clusterblast-orf" id="dummy-1_h1_1_0"  />
</g>
<g id="a1_001"  >
<polygon points="235,90 255,90 260,85 255,80 235,80 235,90 " style="fill:#77d815; stroke-width:1; stroke:black; " description="&lt;b&gt;E2348C_RS17105&lt;/b&gt;&lt;br&gt;hypothetical protein&lt;br&gt;Location: 11168 - 10436&lt;br&gt;&lt;br&gt;&lt;b&gt;BlastP hit with ctg11_91&lt;/b&gt;&lt;br&gt;Percentage identity: 99&lt;br&gt;Percentage coverage: 100&lt;br&gt;BLAST bit score: 475&lt;br&gt;E-value: 9.07e-175" locus_tag="E2348C_RS17105" class="clusterblast-orf" id="dummy-1_h1_1_1"  />
</g>
<g id="a1_002"  >
<polygon points="265,90 291,90 296,85 291,80 265,80 265,90 " style="fill:#15d8d8; stroke-width:1; stroke:black; " description="&lt;b&gt;E2348C_RS17100&lt;/b&gt;&lt;br&gt;agmatinase&lt;br&gt;Location: 10301 - 9380&lt;br&gt;&lt;br&gt;&lt;b&gt;BlastP hit with ctg11_92&lt;/b&gt;&lt;br&gt;Percentage identity: 100&lt;br&gt;Percentage coverage: 100&lt;br&gt;BLAST bit score: 625&lt;br&gt;E-value: 4.16e-232" locus_tag="E2348C_RS17100" class="clusterblast-orf" id="dummy-1_h1_1_2"  />
</g>
<g id="a1_003"  >
<polygon points="598,90 611,90 616,85 611,80 598,80 598,90 " style="fill:#7715d8; stroke-width:1; stroke:black; " description="&lt;b&gt;E2348C_RS17060&lt;/b&gt;&lt;br&gt;mannitol repressor&lt;br&gt;Location: 510 - 0&lt;br&gt;&lt;br&gt;&lt;b&gt;BlastP hit with ctg11_101&lt;/b&gt;&lt;br&gt;Percentage identity: 98&lt;br&gt;Percentage coverage: 100&lt;br&gt;BLAST bit score: 331&lt;br&gt;E-value: 2.36e-120" locus_tag="E2348C_RS17060" class="clusterblast-orf" id="dummy-1_h1_1_3"  />
</g>
</svg>
