<svg xmlns="http://www.w3.org/2000/svg" xmlns:xlink="http://www.w3.org/1999/xlink" version="1.1" x="0" y="0" height="150" width="800" viewBox="0 0 800 150" preserveAspectRatio="none"  >
<g label="Query sequence" class="clusterblast-cluster"  >
<text x="5" y="20" class="clusterblast-acc"  >
Query sequence</text>
<line x1="10" y1="35" x2="778.0" y2="35" style="stroke-width:1; stroke:grey; "  />
<polygon points="0,40 63,40 68,35 63,30 0,30 0,40 " style="fill:white; stroke-width:1; stroke:black; " description="&lt;b&gt;ctg84_4&lt;/b&gt;&lt;br&gt;ctg84 4&lt;br&gt;Location: 3675 - 6075" locus_tag="ctg84_4" class="clusterblast-orf" id="knownclusterblast-1_q0_0_all"  />
<polygon points="70,35 75,30 76,30 76,40 75,40 70,35 " style="fill:white; stroke-width:1; stroke:black; " description="&lt;b&gt;ctg84_5&lt;/b&gt;&lt;br&gt;ctg84 5&lt;br&gt;Location: 6127 - 6325" locus_tag="ctg84_5" class="clusterblast-orf" id="knownclusterblast-1_q1_0_all"  />
<polygon points="74,35 79,30 81,30 81,40 79,40 74,35 " style="fill:white; stroke-width:1; stroke:black; " description="&lt;b&gt;ctg84_6&lt;/b&gt;&lt;br&gt;ctg84 6&lt;br&gt;Location: 6264 - 6513" locus_tag="ctg84_6" class="clusterblast-orf" id="knownclusterblast-1_q2_0_all"  />
<polygon points="96,40 97,40 102,35 97,30 96,30 96,40 " style="fill:white; stroke-width:1; stroke:black; " description="&lt;b&gt;ctg84_7&lt;/b&gt;&lt;br&gt;ctg84 7&lt;br&gt;Location: 7040 - 7256" locus_tag="ctg84_7" class="clusterblast-orf" id="knownclusterblast-1_q3_0_all"  />
<polygon points="106,35 109,30 109,40 106,35 " style="fill:white; stroke-width:1; stroke:black; " description="&lt;b&gt;ctg84_8&lt;/b&gt;&lt;br&gt;ctg84 8&lt;br&gt;Location: 7380 - 7500" locus_tag="ctg84_8" class="clusterblast-orf" id="knownclusterblast-1_q4_0_all"  />
<polygon points="110,40 110,40 115,35 110,30 110,30 110,40 " style="fill:white; stroke-width:1; stroke:black; " description="&lt;b&gt;ctg84_9&lt;/b&gt;&lt;br&gt;ctg84 9&lt;br&gt;Location: 7515 - 7704" locus_tag="ctg84_9" class="clusterblast-orf" id="knownclusterblast-1_q5_0_all"  />
<polygon points="115,40 160,40 165,35 160,30 115,30 115,40 " style="fill:white; stroke-width:1; stroke:black; " description="&lt;b&gt;ctg84_10&lt;/b&gt;&lt;br&gt;ctg84 10&lt;br&gt;Location: 7716 - 9441" locus_tag="ctg84_10" class="clusterblast-orf" id="knownclusterblast-1_q6_0_all"  />
<polygon points="168,40 192,40 197,35 192,30 168,30 168,40 " style="fill:white; stroke-width:1; stroke:black; " description="&lt;b&gt;ctg84_11&lt;/b&gt;&lt;br&gt;ctg84 11&lt;br&gt;Location: 9574 - 10585" locus_tag="ctg84_11" class="clusterblast-orf" id="knownclusterblast-1_q7_0_all"  />
<polygon points="203,40 206,40 211,35 206,30 203,30 203,40 " style="fill:white; stroke-width:1; stroke:black; " description="&lt;b&gt;ctg84_12&lt;/b&gt;&lt;br&gt;ctg84 12&lt;br&gt;Location: 10776 - 11049" locus_tag="ctg84_12" class="clusterblast-orf" id="knownclusterblast-1_q8_0_all"  />
<polygon points="210,40 214,40 219,35 214,30 210,30 210,40 " style="fill:white; stroke-width:1; stroke:black; " description="&lt;b&gt;ctg84_13&lt;/b&gt;&lt;br&gt;ctg84 13&lt;br&gt;Location: 11048 - 11333" locus_tag="ctg84_13" class="clusterblast-orf" id="knownclusterblast-1_q9_0_all"  />
<polygon points="218,40 219,40 224,35 219,30 218,30 218,40 " style="fill:white; stroke-width:1; stroke:black; " description="&lt;b&gt;ctg84_14&lt;/b&gt;&lt;br&gt;ctg84 14&lt;br&gt;Location: 11298 - 11511" locus_tag="ctg84_14" class="clusterblast-orf" id="knownclusterblast-1_q10_0_all"  />
<polygon points="225,35 230,30 244,30 244,40 230,40 225,35 " style="fill:#d81515; stroke-width:1; stroke:black; " description="&lt;b&gt;ctg84_15&lt;/b&gt;&lt;br&gt;ctg84 15&lt;br&gt;Location: 11561 - 12215" locus_tag="ctg84_15" class="clusterblast-orf" id="knownclusterblast-1_q11_0_all"  />
<polygon points="244,35 249,30 269,30 269,40 249,40 244,35 " style="fill:#4dd815; stroke-width:1; stroke:black; " description="&lt;b&gt;ctg84_16&lt;/b&gt;&lt;br&gt;ctg84 16&lt;br&gt;Location: 12207 - 13092" locus_tag="ctg84_16" class="clusterblast-orf" id="knownclusterblast-1_q12_0_all"  />
<polygon points="269,35 274,30 338,30 338,40 274,40 269,35 " style="fill:#1585d8; stroke-width:1; stroke:black; " description="&lt;b&gt;ctg84_17&lt;/b&gt;&lt;br&gt;ctg84 17&lt;br&gt;Location: 13104 - 15516" locus_tag="ctg84_17" class="clusterblast-orf" id="knownclusterblast-1_q13_0_all"  />
<polygon points="340,35 345,30 356,30 356,40 345,40 340,35 " style="fill:#1585d8; stroke-width:1; stroke:black; " description="&lt;b&gt;ctg84_18&lt;/b&gt;&lt;br&gt;ctg84 18&lt;br&gt;Location: 15564 - 16152" locus_tag="ctg84_18" class="clusterblast-orf" id="knownclusterblast-1_q14_0_all"  />
<polygon points="365,40 383,40 388,35 383,30 365,30 365,40 " style="fill:white; stroke-width:1; stroke:black; " description="&lt;b&gt;ctg84_19&lt;/b&gt;&lt;br&gt;ctg84 19&lt;br&gt;Location: 16441 - 17266" locus_tag="ctg84_19" class="clusterblast-orf" id="knownclusterblast-1_q15_0_all"  />
<polygon points="409,40 431,40 436,35 431,30 409,30 409,40 " style="fill:white; stroke-width:1; stroke:black; " description="&lt;b&gt;ctg84_20&lt;/b&gt;&lt;br&gt;ctg84 20&lt;br&gt;Location: 17982 - 18927" locus_tag="ctg84_20" class="clusterblast-orf" id="knownclusterblast-1_q16_0_all"  />
<polygon points="438,40 540,40 545,35 540,30 438,30 438,40 " style="fill:#d815bc; stroke-width:1; stroke:black; " description="&lt;b&gt;ctg84_21&lt;/b&gt;&lt;br&gt;ctg84 21&lt;br&gt;Location: 19021 - 22762" locus_tag="ctg84_21" class="clusterblast-orf" id="knownclusterblast-1_q17_0_all"  />
<polygon points="545,40 584,40 589,35 584,30 545,30 545,40 " style="fill:#d8bc15; stroke-width:1; stroke:black; " description="&lt;b&gt;ctg84_22&lt;/b&gt;&lt;br&gt;ctg84 22&lt;br&gt;Location: 22758 - 24303" locus_tag="ctg84_22" class="clusterblast-orf" id="knownclusterblast-1_q18_0_all"  />
<polygon points="589,40 604,40 609,35 604,30 589,30 589,40 " style="fill:#15d885; stroke-width:1; stroke:black; " description="&lt;b&gt;ctg84_23&lt;/b&gt;&lt;br&gt;ctg84 23&lt;br&gt;Location: 24302 - 24998" locus_tag="ctg84_23" class="clusterblast-orf" id="knownclusterblast-1_q19_0_all"  />
<polygon points="609,40 624,40 629,35 624,30 609,30 609,40 " style="fill:#4d15d8; stroke-width:1; stroke:black; " description="&lt;b&gt;ctg84_24&lt;/b&gt;&lt;br&gt;ctg84 24&lt;br&gt;Location: 24994 - 25675" locus_tag="ctg84_24" class="clusterblast-orf" id="knownclusterblast-1_q20_0_all"  />
<polygon points="631,40 651,40 656,35 651,30 631,30 631,40 " style="fill:white; stroke-width:1; stroke:black; " description="&lt;b&gt;ctg84_25&lt;/b&gt;&lt;br&gt;ctg84 25&lt;br&gt;Location: 25754 - 26648" locus_tag="ctg84_25" class="clusterblast-orf" id="knownclusterblast-1_q21_0_all"  />
<polygon points="659,35 664,30 683,30 683,40 664,40 659,35 " style="fill:white; stroke-width:1; stroke:black; " description="&lt;b&gt;ctg84_26&lt;/b&gt;&lt;br&gt;ctg84 26&lt;br&gt;Location: 26743 - 27589" locus_tag="ctg84_26" class="clusterblast-orf" id="knownclusterblast-1_q22_0_all"  />
<polygon points="688,40 699,40 704,35 699,30 688,30 688,40 " style="fill:white; stroke-width:1; stroke:black; " description="&lt;b&gt;ctg84_27&lt;/b&gt;&lt;br&gt;ctg84 27&lt;br&gt;Location: 27763 - 28333" locus_tag="ctg84_27" class="clusterblast-orf" id="knownclusterblast-1_q23_0_all"  />
<polygon points="714,35 719,30 720,30 720,40 719,40 714,35 " style="fill:white; stroke-width:1; stroke:black; " description="&lt;b&gt;ctg84_28&lt;/b&gt;&lt;br&gt;ctg84 28&lt;br&gt;Location: 28649 - 28865" locus_tag="ctg84_28" class="clusterblast-orf" id="knownclusterblast-1_q24_0_all"  />
<polygon points="729,35 734,30 740,30 740,40 734,40 729,35 " style="fill:white; stroke-width:1; stroke:black; " description="&lt;b&gt;ctg84_29&lt;/b&gt;&lt;br&gt;ctg84 29&lt;br&gt;Location: 29198 - 29585" locus_tag="ctg84_29" class="clusterblast-orf" id="knownclusterblast-1_q25_0_all"  />
<polygon points="744,35 749,30 749,30 749,40 749,40 744,35 " style="fill:white; stroke-width:1; stroke:black; " description="&lt;b&gt;ctg84_30&lt;/b&gt;&lt;br&gt;ctg84 30&lt;br&gt;Location: 29719 - 29899" locus_tag="ctg84_30" class="clusterblast-orf" id="knownclusterblast-1_q26_0_all"  />
<polygon points="753,35 758,30 768,30 768,40 758,40 753,35 " style="fill:white; stroke-width:1; stroke:black; " description="&lt;b&gt;ctg84_31&lt;/b&gt;&lt;br&gt;ctg84 31&lt;br&gt;Location: 30034 - 30541" locus_tag="ctg84_31" class="clusterblast-orf" id="knownclusterblast-1_q27_0_all"  />
<polygon points="777,40 780,35 777,30 777,40 " style="fill:white; stroke-width:1; stroke:black; " description="&lt;b&gt;ctg84_32&lt;/b&gt;&lt;br&gt;ctg84 32&lt;br&gt;Location: 30854 - 30968" locus_tag="ctg84_32" class="clusterblast-orf" id="knownclusterblast-1_q28_0_all"  />
</g>
<g label="MGC00000045" description="MGC00000045_c1: Nitrate reductase E. coli (80% of genes show similarity), NIR" class="clusterblast-cluster"  >
<text x="5" y="70" class="clusterblast-acc"  >
MGC00000045_c1: Nitrate reductase E. coli (80% of genes show similarity), NIR</text>
<line x1="10" y1="85" x2="778.0" y2="85" style="stroke-width:1; stroke:grey; "  />
</g>
<g id="a1_000"  >
<polygon points="157,85 160,80 160,90 157,85 " style="fill:white; stroke-width:1; stroke:black; " description="&lt;b&gt;b4423&lt;/b&gt;&lt;br&gt;small toxic polypeptide LdrC&lt;br&gt;Location: 0 - 108" locus_tag="b4423" class="clusterblast-orf" id="knownclusterblast-1_all_1_1_0"  />
</g>
<g id="a1_001"  >
<polygon points="432,90 534,90 539,85 534,80 432,80 432,90 " style="fill:#d815bc; stroke-width:1; stroke:black; " description="&lt;b&gt;b1224&lt;/b&gt;&lt;br&gt;nitrate reductase A subunit alpha&lt;br&gt;Location: 9626 - 13370&lt;br&gt;&lt;br&gt;&lt;b&gt;BlastP hit with ctg84_21&lt;/b&gt;&lt;br&gt;Percentage identity: 79&lt;br&gt;Percentage coverage: 100&lt;br&gt;BLAST bit score: 2134&lt;br&gt;E-value: 0.0" locus_tag="b1224" class="clusterblast-orf" id="knownclusterblast-1_all_1_1_1"  />
</g>
<g id="a1_002"  >
<polygon points="539,90 578,90 583,85 578,80 539,80 539,90 " style="fill:#d8bc15; stroke-width:1; stroke:black; " description="&lt;b&gt;b1225&lt;/b&gt;&lt;br&gt;nitrate reductase A subunit beta&lt;br&gt;Location: 13366 - 14905&lt;br&gt;&lt;br&gt;&lt;b&gt;BlastP hit with ctg84_22&lt;/b&gt;&lt;br&gt;Percentage identity: 78&lt;br&gt;Percentage coverage: 98&lt;br&gt;BLAST bit score: 855&lt;br&gt;E-value: 4.24e-316" locus_tag="b1225" class="clusterblast-orf" id="knownclusterblast-1_all_1_1_2"  />
</g>
<g id="a1_003"  >
<polygon points="583,90 598,90 603,85 598,80 583,80 583,90 " style="fill:#15d885; stroke-width:1; stroke:black; " description="&lt;b&gt;b1226&lt;/b&gt;&lt;br&gt;nitrate reductase 1 molybdenum cofactor assembly chaperone&lt;br&gt;Location: 14901 - 15612&lt;br&gt;&lt;br&gt;&lt;b&gt;BlastP hit with ctg84_23&lt;/b&gt;&lt;br&gt;Percentage identity: 57&lt;br&gt;Percentage coverage: 101&lt;br&gt;BLAST bit score: 249&lt;br&gt;E-value: 9.92e-86" locus_tag="b1226" class="clusterblast-orf" id="knownclusterblast-1_all_1_1_3"  />
</g>
<g id="a1_004"  >
<polygon points="603,90 617,90 622,85 617,80 603,80 603,90 " style="fill:#4d15d8; stroke-width:1; stroke:black; " description="&lt;b&gt;b1227&lt;/b&gt;&lt;br&gt;nitrate reductase A subunit gamma&lt;br&gt;Location: 15611 - 16289&lt;br&gt;&lt;br&gt;&lt;b&gt;BlastP hit with ctg84_24&lt;/b&gt;&lt;br&gt;Percentage identity: 76&lt;br&gt;Percentage coverage: 99&lt;br&gt;BLAST bit score: 351&lt;br&gt;E-value: 2.82e-126" locus_tag="b1227" class="clusterblast-orf" id="knownclusterblast-1_all_1_1_4"  />
</g>
<g label="MGC00000049" description="MGC00000049_c1: Formate dehydrogenase E. coli (100% of genes show similarity), FORM" class="clusterblast-cluster"  >
<text x="5" y="120" class="clusterblast-acc"  >
MGC00000049_c1: Formate dehydrogenase E. coli (100% of genes show similarity), FORM</text>
<line x1="10" y1="135" x2="778.0" y2="135" style="stroke-width:1; stroke:grey; "  />
</g>
<g id="a1_000"  >
<polygon points="324,135 329,130 342,130 342,140 329,140 324,135 " style="fill:#d81515; stroke-width:1; stroke:black; " description="&lt;b&gt;b3892&lt;/b&gt;&lt;br&gt;formate dehydrogenase O subunit gamma&lt;br&gt;Location: 10000 - 10636&lt;br&gt;&lt;br&gt;&lt;b&gt;BlastP hit with ctg84_15&lt;/b&gt;&lt;br&gt;Percentage identity: 49&lt;br&gt;Percentage coverage: 97&lt;br&gt;BLAST bit score: 216&lt;br&gt;E-value: 2.05e-73" locus_tag="b3892" class="clusterblast-orf" id="knownclusterblast-1_all_1_2_0"  />
</g>
<g id="a1_001"  >
<polygon points="342,135 347,130 368,130 368,140 347,140 342,135 " style="fill:#4dd815; stroke-width:1; stroke:black; " description="&lt;b&gt;b3893&lt;/b&gt;&lt;br&gt;formate dehydrogenase O subunit beta&lt;br&gt;Location: 10632 - 11535&lt;br&gt;&lt;br&gt;&lt;b&gt;BlastP hit with ctg84_16&lt;/b&gt;&lt;br&gt;Percentage identity: 78&lt;br&gt;Percentage coverage: 100&lt;br&gt;BLAST bit score: 497&lt;br&gt;E-value: 8.16e-182" locus_tag="b3893" class="clusterblast-orf" id="knownclusterblast-1_all_1_2_1"  />
</g>
<g id="a1_002"  >
<polygon points="368,135 373,130 455,130 455,140 373,140 368,135 " style="fill:#1585d8; stroke-width:1; stroke:black; " description="&lt;b&gt;b3894&lt;/b&gt;&lt;br&gt;formate dehydrogenase O subunit alpha&lt;br&gt;Location: 11547 - 14598&lt;br&gt;&lt;br&gt;&lt;b&gt;BlastP hit with ctg84_17&lt;/b&gt;&lt;br&gt;Percentage identity: 75&lt;br&gt;Percentage coverage: 100&lt;br&gt;BLAST bit score: 1298&lt;br&gt;E-value: 0.0&lt;br&gt;&lt;br&gt;&lt;b&gt;BlastP hit with ctg84_18&lt;/b&gt;&lt;br&gt;Percentage identity: 82&lt;br&gt;Percentage coverage: 100&lt;br&gt;BLAST bit score: 344&lt;br&gt;E-value: 9.31e-115" locus_tag="b3894" class="clusterblast-orf" id="knownclusterblast-1_all_1_2_2"  />
</g>
</svg>
