<svg xmlns="http://www.w3.org/2000/svg" xmlns:xlink="http://www.w3.org/1999/xlink" version="1.1" x="0" y="0" height="50" width="800" viewBox="0 0 800 50" preserveAspectRatio="none"  >
<g label="Query sequence" class="clusterblast-cluster"  >
<text x="5" y="20" class="clusterblast-acc"  >
Query sequence</text>
<line x1="10" y1="35" x2="778.0" y2="35" style="stroke-width:1; stroke:grey; "  />
<polygon points="0,35 5,30 30,30 30,40 5,40 0,35 " style="fill:white; stroke-width:1; stroke:black; " description="&lt;b&gt;ctg68_1&lt;/b&gt;&lt;br&gt;ctg68 1&lt;br&gt;Location: 330 - 1170" locus_tag="ctg68_1" class="clusterblast-orf" id="knownclusterblast-1_q0_0_all"  />
<polygon points="34,40 41,40 46,35 41,30 34,30 34,40 " style="fill:white; stroke-width:1; stroke:black; " description="&lt;b&gt;ctg68_2&lt;/b&gt;&lt;br&gt;ctg68 2&lt;br&gt;Location: 1288 - 1627" locus_tag="ctg68_2" class="clusterblast-orf" id="knownclusterblast-1_q1_0_all"  />
<polygon points="47,35 52,30 100,30 100,40 52,40 47,35 " style="fill:white; stroke-width:1; stroke:black; " description="&lt;b&gt;ctg68_3&lt;/b&gt;&lt;br&gt;ctg68 3&lt;br&gt;Location: 1651 - 3172" locus_tag="ctg68_3" class="clusterblast-orf" id="knownclusterblast-1_q2_0_all"  />
<polygon points="121,40 174,40 179,35 174,30 121,30 121,40 " style="fill:white; stroke-width:1; stroke:black; " description="&lt;b&gt;ctg68_4&lt;/b&gt;&lt;br&gt;ctg68 4&lt;br&gt;Location: 3762 - 5409" locus_tag="ctg68_4" class="clusterblast-orf" id="knownclusterblast-1_q3_0_all"  />
<polygon points="179,40 183,40 188,35 183,30 179,30 179,40 " style="fill:white; stroke-width:1; stroke:black; " description="&lt;b&gt;ctg68_5&lt;/b&gt;&lt;br&gt;ctg68 5&lt;br&gt;Location: 5405 - 5669" locus_tag="ctg68_5" class="clusterblast-orf" id="knownclusterblast-1_q4_0_all"  />
<polygon points="189,40 217,40 222,35 217,30 189,30 189,40 " style="fill:white; stroke-width:1; stroke:black; " description="&lt;b&gt;ctg68_6&lt;/b&gt;&lt;br&gt;ctg68 6&lt;br&gt;Location: 5688 - 6618" locus_tag="ctg68_6" class="clusterblast-orf" id="knownclusterblast-1_q5_0_all"  />
<polygon points="224,40 285,40 290,35 285,30 224,30 224,40 " style="fill:white; stroke-width:1; stroke:black; " description="&lt;b&gt;ctg68_7&lt;/b&gt;&lt;br&gt;ctg68 7&lt;br&gt;Location: 6682 - 8533" locus_tag="ctg68_7" class="clusterblast-orf" id="knownclusterblast-1_q6_0_all"  />
<polygon points="290,40 339,40 344,35 339,30 290,30 290,40 " style="fill:white; stroke-width:1; stroke:black; " description="&lt;b&gt;ctg68_8&lt;/b&gt;&lt;br&gt;ctg68 8&lt;br&gt;Location: 8532 - 10080" locus_tag="ctg68_8" class="clusterblast-orf" id="knownclusterblast-1_q7_0_all"  />
<polygon points="344,35 349,30 376,30 376,40 349,40 344,35 " style="fill:white; stroke-width:1; stroke:black; " description="&lt;b&gt;ctg68_9&lt;/b&gt;&lt;br&gt;ctg68 9&lt;br&gt;Location: 10076 - 10967" locus_tag="ctg68_9" class="clusterblast-orf" id="knownclusterblast-1_q8_0_all"  />
<polygon points="381,40 428,40 433,35 428,30 381,30 381,40 " style="fill:white; stroke-width:1; stroke:black; " description="&lt;b&gt;ctg68_10&lt;/b&gt;&lt;br&gt;ctg68 10&lt;br&gt;Location: 11116 - 12592" locus_tag="ctg68_10" class="clusterblast-orf" id="knownclusterblast-1_q9_0_all"  />
<polygon points="435,35 440,30 445,30 445,40 440,40 435,35 " style="fill:white; stroke-width:1; stroke:black; " description="&lt;b&gt;ctg68_11&lt;/b&gt;&lt;br&gt;ctg68 11&lt;br&gt;Location: 12637 - 12919" locus_tag="ctg68_11" class="clusterblast-orf" id="knownclusterblast-1_q10_0_all"  />
<polygon points="448,40 514,40 519,35 514,30 448,30 448,40 " style="fill:white; stroke-width:1; stroke:black; " description="&lt;b&gt;ctg68_12&lt;/b&gt;&lt;br&gt;ctg68 12&lt;br&gt;Location: 13005 - 15027" locus_tag="ctg68_12" class="clusterblast-orf" id="knownclusterblast-1_q11_0_all"  />
<polygon points="521,35 526,30 573,30 573,40 526,40 521,35 " style="fill:white; stroke-width:1; stroke:black; " description="&lt;b&gt;ctg68_13&lt;/b&gt;&lt;br&gt;ctg68 13&lt;br&gt;Location: 15073 - 16558" locus_tag="ctg68_13" class="clusterblast-orf" id="knownclusterblast-1_q12_0_all"  />
<polygon points="578,35 583,30 623,30 623,40 583,40 578,35 " style="fill:white; stroke-width:1; stroke:black; " description="&lt;b&gt;ctg68_14&lt;/b&gt;&lt;br&gt;ctg68 14&lt;br&gt;Location: 16693 - 17959" locus_tag="ctg68_14" class="clusterblast-orf" id="knownclusterblast-1_q13_0_all"  />
<polygon points="627,40 634,40 639,35 634,30 627,30 627,40 " style="fill:white; stroke-width:1; stroke:black; " description="&lt;b&gt;ctg68_15&lt;/b&gt;&lt;br&gt;ctg68 15&lt;br&gt;Location: 18089 - 18419" locus_tag="ctg68_15" class="clusterblast-orf" id="knownclusterblast-1_q14_0_all"  />
<polygon points="651,40 690,40 695,35 690,30 651,30 651,40 " style="fill:white; stroke-width:1; stroke:black; " description="&lt;b&gt;ctg68_16&lt;/b&gt;&lt;br&gt;ctg68 16&lt;br&gt;Location: 18745 - 20005" locus_tag="ctg68_16" class="clusterblast-orf" id="knownclusterblast-1_q15_0_all"  />
<polygon points="703,40 737,40 742,35 737,30 703,30 703,40 " style="fill:white; stroke-width:1; stroke:black; " description="&lt;b&gt;ctg68_17&lt;/b&gt;&lt;br&gt;ctg68 17&lt;br&gt;Location: 20244 - 21348" locus_tag="ctg68_17" class="clusterblast-orf" id="knownclusterblast-1_q16_0_all"  />
<polygon points="743,40 775,40 780,35 775,30 743,30 743,40 " style="fill:white; stroke-width:1; stroke:black; " description="&lt;b&gt;ctg68_18&lt;/b&gt;&lt;br&gt;ctg68 18&lt;br&gt;Location: 21359 - 22406" locus_tag="ctg68_18" class="clusterblast-orf" id="knownclusterblast-1_q17_0_all"  />
</g>
</svg>
