<svg xmlns="http://www.w3.org/2000/svg" xmlns:xlink="http://www.w3.org/1999/xlink" version="1.1" x="0" y="0" height="100" width="800" viewBox="0 0 800 100" preserveAspectRatio="none"  >
<g label="Query sequence" class="clusterblast-cluster"  >
<text x="5" y="20" class="clusterblast-acc"  >
Query sequence</text>
<line x1="10" y1="35" x2="778.0" y2="35" style="stroke-width:1; stroke:grey; "  />
<polygon points="0,35 4,30 4,40 0,35 " style="fill:white; stroke-width:1; stroke:black; " description="&lt;b&gt;ctg50_7&lt;/b&gt;&lt;br&gt;ctg50 7&lt;br&gt;Location: 6778 - 6994" locus_tag="ctg50_7" class="clusterblast-orf" id="knownclusterblast-1_q0_0_all"  />
<polygon points="35,40 41,40 46,35 41,30 35,30 35,40 " style="fill:white; stroke-width:1; stroke:black; " description="&lt;b&gt;ctg50_8&lt;/b&gt;&lt;br&gt;ctg50 8&lt;br&gt;Location: 8437 - 8983" locus_tag="ctg50_8" class="clusterblast-orf" id="knownclusterblast-1_q1_0_all"  />
<polygon points="46,40 57,40 62,35 57,30 46,30 46,40 " style="fill:white; stroke-width:1; stroke:black; " description="&lt;b&gt;ctg50_9&lt;/b&gt;&lt;br&gt;ctg50 9&lt;br&gt;Location: 8979 - 9723" locus_tag="ctg50_9" class="clusterblast-orf" id="knownclusterblast-1_q2_0_all"  />
<polygon points="62,40 80,40 85,35 80,30 62,30 62,40 " style="fill:white; stroke-width:1; stroke:black; " description="&lt;b&gt;ctg50_10&lt;/b&gt;&lt;br&gt;ctg50 10&lt;br&gt;Location: 9734 - 10814" locus_tag="ctg50_10" class="clusterblast-orf" id="knownclusterblast-1_q3_0_all"  />
<polygon points="86,40 101,40 106,35 101,30 86,30 86,40 " style="fill:#d81515; stroke-width:1; stroke:black; " description="&lt;b&gt;ctg50_11&lt;/b&gt;&lt;br&gt;ctg50 11&lt;br&gt;Location: 10875 - 11811" locus_tag="ctg50_11" class="clusterblast-orf" id="knownclusterblast-1_q4_0_all"  />
<polygon points="107,40 111,35 107,30 107,40 " style="fill:white; stroke-width:1; stroke:black; " description="&lt;b&gt;ctg50_12&lt;/b&gt;&lt;br&gt;ctg50 12&lt;br&gt;Location: 11859 - 12087" locus_tag="ctg50_12" class="clusterblast-orf" id="knownclusterblast-1_q5_0_all"  />
<polygon points="112,40 116,40 121,35 116,30 112,30 112,40 " style="fill:white; stroke-width:1; stroke:black; " description="&lt;b&gt;ctg50_13&lt;/b&gt;&lt;br&gt;ctg50 13&lt;br&gt;Location: 12102 - 12528" locus_tag="ctg50_13" class="clusterblast-orf" id="knownclusterblast-1_q6_0_all"  />
<polygon points="127,35 132,30 137,30 137,40 132,40 127,35 " style="fill:white; stroke-width:1; stroke:black; " description="&lt;b&gt;ctg50_14&lt;/b&gt;&lt;br&gt;ctg50 14&lt;br&gt;Location: 12835 - 13279" locus_tag="ctg50_14" class="clusterblast-orf" id="knownclusterblast-1_q7_0_all"  />
<polygon points="139,35 144,30 145,30 145,40 144,40 139,35 " style="fill:white; stroke-width:1; stroke:black; " description="&lt;b&gt;ctg50_15&lt;/b&gt;&lt;br&gt;ctg50 15&lt;br&gt;Location: 13419 - 13686" locus_tag="ctg50_15" class="clusterblast-orf" id="knownclusterblast-1_q8_0_all"  />
<polygon points="148,35 153,30 164,30 164,40 153,40 148,35 " style="fill:white; stroke-width:1; stroke:black; " description="&lt;b&gt;ctg50_16&lt;/b&gt;&lt;br&gt;ctg50 16&lt;br&gt;Location: 13831 - 14566" locus_tag="ctg50_16" class="clusterblast-orf" id="knownclusterblast-1_q9_0_all"  />
<polygon points="164,35 168,30 168,40 164,35 " style="fill:#15d8d8; stroke-width:1; stroke:black; " description="&lt;b&gt;ctg50_17&lt;/b&gt;&lt;br&gt;ctg50 17&lt;br&gt;Location: 14566 - 14779" locus_tag="ctg50_17" class="clusterblast-orf" id="knownclusterblast-1_q10_0_all"  />
<polygon points="176,40 178,40 183,35 178,30 176,30 176,40 " style="fill:white; stroke-width:1; stroke:black; " description="&lt;b&gt;ctg50_18&lt;/b&gt;&lt;br&gt;ctg50 18&lt;br&gt;Location: 15172 - 15505" locus_tag="ctg50_18" class="clusterblast-orf" id="knownclusterblast-1_q11_0_all"  />
<polygon points="184,40 376,40 381,35 376,30 184,30 184,40 " style="fill:white; stroke-width:1; stroke:black; " description="&lt;b&gt;ctg50_19&lt;/b&gt;&lt;br&gt;ctg50 19&lt;br&gt;Location: 15554 - 24917" locus_tag="ctg50_19" class="clusterblast-orf" id="knownclusterblast-1_q12_0_all"  />
<polygon points="382,40 432,40 437,35 432,30 382,30 382,40 " style="fill:white; stroke-width:1; stroke:black; " description="&lt;b&gt;ctg50_20&lt;/b&gt;&lt;br&gt;ctg50 20&lt;br&gt;Location: 24957 - 27558" locus_tag="ctg50_20" class="clusterblast-orf" id="knownclusterblast-1_q13_0_all"  />
<polygon points="437,40 450,40 455,35 450,30 437,30 437,40 " style="fill:white; stroke-width:1; stroke:black; " description="&lt;b&gt;ctg50_21&lt;/b&gt;&lt;br&gt;ctg50 21&lt;br&gt;Location: 27567 - 28437" locus_tag="ctg50_21" class="clusterblast-orf" id="knownclusterblast-1_q14_0_all"  />
<polygon points="456,40 456,40 461,35 456,30 456,30 456,40 " style="fill:white; stroke-width:1; stroke:black; " description="&lt;b&gt;ctg50_22&lt;/b&gt;&lt;br&gt;ctg50 22&lt;br&gt;Location: 28466 - 28715" locus_tag="ctg50_22" class="clusterblast-orf" id="knownclusterblast-1_q15_0_all"  />
<polygon points="461,40 480,40 485,35 480,30 461,30 461,40 " style="fill:white; stroke-width:1; stroke:black; " description="&lt;b&gt;ctg50_23&lt;/b&gt;&lt;br&gt;ctg50 23&lt;br&gt;Location: 28718 - 29849" locus_tag="ctg50_23" class="clusterblast-orf" id="knownclusterblast-1_q16_0_all"  />
<polygon points="485,40 507,40 512,35 507,30 485,30 485,40 " style="fill:white; stroke-width:1; stroke:black; " description="&lt;b&gt;ctg50_24&lt;/b&gt;&lt;br&gt;ctg50 24&lt;br&gt;Location: 29845 - 31114" locus_tag="ctg50_24" class="clusterblast-orf" id="knownclusterblast-1_q17_0_all"  />
<polygon points="513,40 609,40 614,35 609,30 513,30 513,40 " style="fill:white; stroke-width:1; stroke:black; " description="&lt;b&gt;ctg50_25&lt;/b&gt;&lt;br&gt;ctg50 25&lt;br&gt;Location: 31161 - 35958" locus_tag="ctg50_25" class="clusterblast-orf" id="knownclusterblast-1_q18_0_all"  />
<polygon points="615,40 674,40 679,35 674,30 615,30 615,40 " style="fill:white; stroke-width:1; stroke:black; " description="&lt;b&gt;ctg50_26&lt;/b&gt;&lt;br&gt;ctg50 26&lt;br&gt;Location: 36007 - 39040" locus_tag="ctg50_26" class="clusterblast-orf" id="knownclusterblast-1_q19_0_all"  />
<polygon points="679,40 775,40 780,35 775,30 679,30 679,40 " style="fill:white; stroke-width:1; stroke:black; " description="&lt;b&gt;ctg50_27&lt;/b&gt;&lt;br&gt;ctg50 27&lt;br&gt;Location: 39083 - 43847" locus_tag="ctg50_27" class="clusterblast-orf" id="knownclusterblast-1_q20_0_all"  />
</g>
<g label="MGC00000042" description="MGC00000042_c1: Tetrathionate to thiosulfate S. enterica (10% of genes show similarity), THIOS" class="clusterblast-cluster"  >
<text x="5" y="70" class="clusterblast-acc"  >
MGC00000042_c1: Tetrathionate to thiosulfate S. enterica (10% of genes show similarity), THIOS</text>
<line x1="10" y1="85" x2="778.0" y2="85" style="stroke-width:1; stroke:grey; "  />
</g>
<g id="a1_000"  >
<polygon points="148,90 151,90 156,85 151,80 148,80 148,90 " style="fill:white; stroke-width:1; stroke:black; " description="&lt;b&gt;STM1374&lt;/b&gt;&lt;br&gt;cysteine desufuration protein SufE&lt;br&gt;Location: 0 - 417" locus_tag="STM1374" class="clusterblast-orf" id="knownclusterblast-1_all_1_1_0"  />
</g>
<g id="a1_001"  >
<polygon points="160,90 176,90 181,85 176,80 160,80 160,90 " style="fill:#d81515; stroke-width:1; stroke:black; " description="&lt;b&gt;STM1375&lt;/b&gt;&lt;br&gt;murein L,D-transpeptidase&lt;br&gt;Location: 571 - 1573&lt;br&gt;&lt;br&gt;&lt;b&gt;BlastP hit with ctg50_11&lt;/b&gt;&lt;br&gt;Percentage identity: 46&lt;br&gt;Percentage coverage: 95&lt;br&gt;BLAST bit score: 245&lt;br&gt;E-value: 1.22e-81" locus_tag="STM1375" class="clusterblast-orf" id="knownclusterblast-1_all_1_1_1"  />
</g>
<g id="a1_002"  >
<polygon points="182,85 187,80 187,80 187,90 187,90 182,85 " style="fill:white; stroke-width:1; stroke:black; " description="&lt;b&gt;STM1376&lt;/b&gt;&lt;br&gt;hypothetical protein&lt;br&gt;Location: 1639 - 1879" locus_tag="STM1376" class="clusterblast-orf" id="knownclusterblast-1_all_1_1_2"  />
</g>
<g id="a1_003"  >
<polygon points="189,85 194,80 194,80 194,90 194,90 189,85 " style="fill:white; stroke-width:1; stroke:black; " description="&lt;b&gt;STM1377&lt;/b&gt;&lt;br&gt;murein lipoprotein&lt;br&gt;Location: 1961 - 2198" locus_tag="STM1377" class="clusterblast-orf" id="knownclusterblast-1_all_1_1_3"  />
</g>
<g id="a1_004"  >
<polygon points="200,85 205,80 230,80 230,90 205,90 200,85 " style="fill:white; stroke-width:1; stroke:black; " description="&lt;b&gt;STM1378&lt;/b&gt;&lt;br&gt;pyruvate kinase&lt;br&gt;Location: 2508 - 3921" locus_tag="STM1378" class="clusterblast-orf" id="knownclusterblast-1_all_1_1_4"  />
</g>
<g id="a1_005"  >
<polygon points="239,85 244,80 267,80 267,90 244,90 239,85 " style="fill:white; stroke-width:1; stroke:black; " description="&lt;b&gt;STM1379&lt;/b&gt;&lt;br&gt;putative amino acid permease&lt;br&gt;Location: 4322 - 5666" locus_tag="STM1379" class="clusterblast-orf" id="knownclusterblast-1_all_1_1_5"  />
</g>
<g id="a1_006"  >
<polygon points="267,85 272,80 286,80 286,90 272,90 267,85 " style="fill:white; stroke-width:1; stroke:black; " description="&lt;b&gt;STM1380&lt;/b&gt;&lt;br&gt;hydrolase&lt;br&gt;Location: 5687 - 6581" locus_tag="STM1380" class="clusterblast-orf" id="knownclusterblast-1_all_1_1_6"  />
</g>
<g id="a1_007"  >
<polygon points="287,85 292,80 303,80 303,90 292,90 287,85 " style="fill:white; stroke-width:1; stroke:black; " description="&lt;b&gt;STM1381&lt;/b&gt;&lt;br&gt;hypothetical protein&lt;br&gt;Location: 6639 - 7377" locus_tag="STM1381" class="clusterblast-orf" id="knownclusterblast-1_all_1_1_7"  />
</g>
<g id="a1_008"  >
<polygon points="303,85 308,80 329,80 329,90 308,90 303,85 " style="fill:white; stroke-width:1; stroke:black; " description="&lt;b&gt;STM1382&lt;/b&gt;&lt;br&gt;hypothetical protein&lt;br&gt;Location: 7388 - 8615" locus_tag="STM1382" class="clusterblast-orf" id="knownclusterblast-1_all_1_1_8"  />
</g>
<g id="a1_009"  >
<polygon points="336,85 341,80 400,80 400,90 341,90 336,85 " style="fill:white; stroke-width:1; stroke:black; " description="&lt;b&gt;STM1383&lt;/b&gt;&lt;br&gt;tetrathionate reductase subunit A&lt;br&gt;Location: 8937 - 12000" locus_tag="STM1383" class="clusterblast-orf" id="knownclusterblast-1_all_1_1_9"  />
</g>
<g id="a1_0010"  >
<polygon points="400,85 405,80 422,80 422,90 405,90 400,85 " style="fill:white; stroke-width:1; stroke:black; " description="&lt;b&gt;STM1384&lt;/b&gt;&lt;br&gt;tetrathionate reductase subunit C&lt;br&gt;Location: 11992 - 13015" locus_tag="STM1384" class="clusterblast-orf" id="knownclusterblast-1_all_1_1_10"  />
</g>
<g id="a1_0011"  >
<polygon points="422,85 427,80 437,80 437,90 427,90 422,85 " style="fill:white; stroke-width:1; stroke:black; " description="&lt;b&gt;STM1385&lt;/b&gt;&lt;br&gt;tetrathionate reductase complex, subunit B&lt;br&gt;Location: 13015 - 13768" locus_tag="STM1385" class="clusterblast-orf" id="knownclusterblast-1_all_1_1_11"  />
</g>
<g id="a1_0012"  >
<polygon points="441,90 473,90 478,85 473,80 441,80 441,90 " style="fill:white; stroke-width:1; stroke:black; " description="&lt;b&gt;STM1386&lt;/b&gt;&lt;br&gt;tetrathionate reductase complex: sensory transduction histidine kinase&lt;br&gt;Location: 13931 - 15710" locus_tag="STM1386" class="clusterblast-orf" id="knownclusterblast-1_all_1_1_12"  />
</g>
<g id="a1_0013"  >
<polygon points="478,90 486,90 491,85 486,80 478,80 478,90 " style="fill:white; stroke-width:1; stroke:black; " description="&lt;b&gt;STM1387&lt;/b&gt;&lt;br&gt;DNA-binding response regulator&lt;br&gt;Location: 15684 - 16305" locus_tag="STM1387" class="clusterblast-orf" id="knownclusterblast-1_all_1_1_13"  />
</g>
<g id="a1_0014"  >
<polygon points="493,90 497,85 493,80 493,90 " style="fill:white; stroke-width:1; stroke:black; " description="&lt;b&gt;STM1388&lt;/b&gt;&lt;br&gt;hypothetical protein&lt;br&gt;Location: 16402 - 16615" locus_tag="STM1388" class="clusterblast-orf" id="knownclusterblast-1_all_1_1_14"  />
</g>
<g id="a1_0015"  >
<polygon points="499,85 504,80 520,80 520,90 504,90 499,85 " style="fill:white; stroke-width:1; stroke:black; " description="&lt;b&gt;STM1389&lt;/b&gt;&lt;br&gt;hypothetical protein&lt;br&gt;Location: 16710 - 17670" locus_tag="STM1389" class="clusterblast-orf" id="knownclusterblast-1_all_1_1_15"  />
</g>
<g id="a1_0016"  >
<polygon points="523,85 528,80 538,80 538,90 528,90 523,85 " style="fill:white; stroke-width:1; stroke:black; " description="&lt;b&gt;STM1390&lt;/b&gt;&lt;br&gt;helix-turn-helix-type transcriptional regulator&lt;br&gt;Location: 17842 - 18571" locus_tag="STM1390" class="clusterblast-orf" id="knownclusterblast-1_all_1_1_16"  />
</g>
<g id="a1_0017"  >
<polygon points="542,85 547,80 556,80 556,90 547,90 542,85 " style="fill:#15d8d8; stroke-width:1; stroke:black; " description="&lt;b&gt;STM1391&lt;/b&gt;&lt;br&gt;DNA-binding response regulator&lt;br&gt;Location: 18749 - 19388&lt;br&gt;&lt;br&gt;&lt;b&gt;BlastP hit with ctg50_17&lt;/b&gt;&lt;br&gt;Percentage identity: 39&lt;br&gt;Percentage coverage: 87&lt;br&gt;BLAST bit score: 42&lt;br&gt;E-value: 5.92e-08" locus_tag="STM1391" class="clusterblast-orf" id="knownclusterblast-1_all_1_1_17"  />
</g>
<g id="a1_0018"  >
<polygon points="556,85 561,80 614,80 614,90 561,90 556,85 " style="fill:white; stroke-width:1; stroke:black; " description="&lt;b&gt;STM1392&lt;/b&gt;&lt;br&gt;hybrid sensor histidine kinase/response regulator&lt;br&gt;Location: 19418 - 22181" locus_tag="STM1392" class="clusterblast-orf" id="knownclusterblast-1_all_1_1_18"  />
</g>
<g id="a1_0019"  >
<polygon points="623,90 626,90 631,85 626,80 623,80 623,90 " style="fill:white; stroke-width:1; stroke:black; " description="&lt;b&gt;STM1393&lt;/b&gt;&lt;br&gt;pathogenicity island chaperone protein SpiC&lt;br&gt;Location: 22581 - 22983" locus_tag="STM1393" class="clusterblast-orf" id="knownclusterblast-1_all_1_1_19"  />
</g>
</svg>
