<svg xmlns="http://www.w3.org/2000/svg" xmlns:xlink="http://www.w3.org/1999/xlink" version="1.1" x="0" y="0" height="200" width="800" viewBox="0 0 800 200" preserveAspectRatio="none"  >
<g label="Query sequence" class="clusterblast-cluster"  >
<text x="5" y="20" class="clusterblast-acc"  >
Query sequence</text>
<line x1="10" y1="35" x2="778.0" y2="35" style="stroke-width:1; stroke:grey; "  />
<polygon points="0,35 5,30 27,30 27,40 5,40 0,35 " style="fill:white; stroke-width:1; stroke:black; " description="&lt;b&gt;ctg61_18&lt;/b&gt;&lt;br&gt;ctg61 18&lt;br&gt;Location: 16511 - 17714" locus_tag="ctg61_18" class="clusterblast-orf" id="knownclusterblast-1_q0_0_all"  />
<polygon points="35,40 40,40 45,35 40,30 35,30 35,40 " style="fill:white; stroke-width:1; stroke:black; " description="&lt;b&gt;ctg61_19&lt;/b&gt;&lt;br&gt;ctg61 19&lt;br&gt;Location: 18051 - 18507" locus_tag="ctg61_19" class="clusterblast-orf" id="knownclusterblast-1_q1_0_all"  />
<polygon points="47,40 53,40 58,35 53,30 47,30 47,40 " style="fill:white; stroke-width:1; stroke:black; " description="&lt;b&gt;ctg61_20&lt;/b&gt;&lt;br&gt;ctg61 20&lt;br&gt;Location: 18589 - 19084" locus_tag="ctg61_20" class="clusterblast-orf" id="knownclusterblast-1_q2_0_all"  />
<polygon points="59,40 68,40 73,35 68,30 59,30 59,40 " style="fill:white; stroke-width:1; stroke:black; " description="&lt;b&gt;ctg61_21&lt;/b&gt;&lt;br&gt;ctg61 21&lt;br&gt;Location: 19094 - 19745" locus_tag="ctg61_21" class="clusterblast-orf" id="knownclusterblast-1_q3_0_all"  />
<polygon points="75,40 112,40 117,35 112,30 75,30 75,40 " style="fill:white; stroke-width:1; stroke:black; " description="&lt;b&gt;ctg61_22&lt;/b&gt;&lt;br&gt;ctg61 22&lt;br&gt;Location: 19831 - 21664" locus_tag="ctg61_22" class="clusterblast-orf" id="knownclusterblast-1_q4_0_all"  />
<polygon points="118,35 123,30 132,30 132,40 123,40 118,35 " style="fill:white; stroke-width:1; stroke:black; " description="&lt;b&gt;ctg61_23&lt;/b&gt;&lt;br&gt;ctg61 23&lt;br&gt;Location: 21722 - 22322" locus_tag="ctg61_23" class="clusterblast-orf" id="knownclusterblast-1_q5_0_all"  />
<polygon points="134,35 139,30 162,30 162,40 139,40 134,35 " style="fill:white; stroke-width:1; stroke:black; " description="&lt;b&gt;ctg61_24&lt;/b&gt;&lt;br&gt;ctg61 24&lt;br&gt;Location: 22405 - 23623" locus_tag="ctg61_24" class="clusterblast-orf" id="knownclusterblast-1_q6_0_all"  />
<polygon points="172,35 174,30 174,40 172,35 " style="fill:white; stroke-width:1; stroke:black; " description="&lt;b&gt;ctg61_25&lt;/b&gt;&lt;br&gt;ctg61 25&lt;br&gt;Location: 24071 - 24173" locus_tag="ctg61_25" class="clusterblast-orf" id="knownclusterblast-1_q7_0_all"  />
<polygon points="183,40 199,40 204,35 199,30 183,30 183,40 " style="fill:white; stroke-width:1; stroke:black; " description="&lt;b&gt;ctg61_26&lt;/b&gt;&lt;br&gt;ctg61 26&lt;br&gt;Location: 24542 - 25481" locus_tag="ctg61_26" class="clusterblast-orf" id="knownclusterblast-1_q8_0_all"  />
<polygon points="209,35 212,30 212,40 209,35 " style="fill:white; stroke-width:1; stroke:black; " description="&lt;b&gt;ctg61_27&lt;/b&gt;&lt;br&gt;ctg61 27&lt;br&gt;Location: 25683 - 25848" locus_tag="ctg61_27" class="clusterblast-orf" id="knownclusterblast-1_q9_0_all"  />
<polygon points="218,40 223,40 228,35 223,30 218,30 218,40 " style="fill:#d81515; stroke-width:1; stroke:black; " description="&lt;b&gt;ctg61_28&lt;/b&gt;&lt;br&gt;ctg61 28&lt;br&gt;Location: 26110 - 26554" locus_tag="ctg61_28" class="clusterblast-orf" id="knownclusterblast-1_q10_0_all"  />
<polygon points="229,40 239,40 244,35 239,30 229,30 229,40 " style="fill:#33d815; stroke-width:1; stroke:black; " description="&lt;b&gt;ctg61_29&lt;/b&gt;&lt;br&gt;ctg61 29&lt;br&gt;Location: 26569 - 27232" locus_tag="ctg61_29" class="clusterblast-orf" id="knownclusterblast-1_q11_0_all"  />
<polygon points="246,40 282,40 287,35 282,30 246,30 246,40 " style="fill:#15abd8; stroke-width:1; stroke:black; " description="&lt;b&gt;ctg61_30&lt;/b&gt;&lt;br&gt;ctg61 30&lt;br&gt;Location: 27325 - 29128" locus_tag="ctg61_30" class="clusterblast-orf" id="knownclusterblast-1_q12_0_all"  />
<polygon points="287,40 294,40 299,35 294,30 287,30 287,40 " style="fill:#8d15d8; stroke-width:1; stroke:black; " description="&lt;b&gt;ctg61_31&lt;/b&gt;&lt;br&gt;ctg61 31&lt;br&gt;Location: 29130 - 29631" locus_tag="ctg61_31" class="clusterblast-orf" id="knownclusterblast-1_q13_0_all"  />
<polygon points="298,40 324,40 329,35 324,30 298,30 298,40 " style="fill:#d86f15; stroke-width:1; stroke:black; " description="&lt;b&gt;ctg61_32&lt;/b&gt;&lt;br&gt;ctg61 32&lt;br&gt;Location: 29627 - 30965" locus_tag="ctg61_32" class="clusterblast-orf" id="knownclusterblast-1_q14_0_all"  />
<polygon points="330,40 387,40 392,35 387,30 330,30 330,40 " style="fill:#15d851; stroke-width:1; stroke:black; " description="&lt;b&gt;ctg61_33&lt;/b&gt;&lt;br&gt;ctg61 33&lt;br&gt;Location: 31017 - 33744" locus_tag="ctg61_33" class="clusterblast-orf" id="knownclusterblast-1_q15_0_all"  />
<polygon points="392,40 409,40 414,35 409,30 392,30 392,40 " style="fill:#1551d8; stroke-width:1; stroke:black; " description="&lt;b&gt;ctg61_34&lt;/b&gt;&lt;br&gt;ctg61 34&lt;br&gt;Location: 33740 - 34718" locus_tag="ctg61_34" class="clusterblast-orf" id="knownclusterblast-1_q16_0_all"  />
<polygon points="415,40 422,40 427,35 422,30 415,30 415,40 " style="fill:#d815c9; stroke-width:1; stroke:black; " description="&lt;b&gt;ctg61_35&lt;/b&gt;&lt;br&gt;ctg61 35&lt;br&gt;Location: 34732 - 35275" locus_tag="ctg61_35" class="clusterblast-orf" id="knownclusterblast-1_q17_0_all"  />
<polygon points="427,40 435,40 440,35 435,30 427,30 427,40 " style="fill:#d8c915; stroke-width:1; stroke:black; " description="&lt;b&gt;ctg61_36&lt;/b&gt;&lt;br&gt;ctg61 36&lt;br&gt;Location: 35286 - 35841" locus_tag="ctg61_36" class="clusterblast-orf" id="knownclusterblast-1_q18_0_all"  />
<polygon points="440,40 442,40 447,35 442,30 440,30 440,40 " style="fill:#15d8ab; stroke-width:1; stroke:black; " description="&lt;b&gt;ctg61_37&lt;/b&gt;&lt;br&gt;ctg61 37&lt;br&gt;Location: 35837 - 36140" locus_tag="ctg61_37" class="clusterblast-orf" id="knownclusterblast-1_q19_0_all"  />
<polygon points="447,40 484,40 489,35 484,30 447,30 447,40 " style="fill:#3315d8; stroke-width:1; stroke:black; " description="&lt;b&gt;ctg61_38&lt;/b&gt;&lt;br&gt;ctg61 38&lt;br&gt;Location: 36136 - 37978" locus_tag="ctg61_38" class="clusterblast-orf" id="knownclusterblast-1_q20_0_all"  />
<polygon points="492,40 522,40 527,35 522,30 492,30 492,40 " style="fill:#d8156f; stroke-width:1; stroke:black; " description="&lt;b&gt;ctg61_39&lt;/b&gt;&lt;br&gt;ctg61 39&lt;br&gt;Location: 38141 - 39671" locus_tag="ctg61_39" class="clusterblast-orf" id="knownclusterblast-1_q21_0_all"  />
<polygon points="527,40 555,40 560,35 555,30 527,30 527,40 " style="fill:#8dd815; stroke-width:1; stroke:black; " description="&lt;b&gt;ctg61_40&lt;/b&gt;&lt;br&gt;ctg61 40&lt;br&gt;Location: 39677 - 41135" locus_tag="ctg61_40" class="clusterblast-orf" id="knownclusterblast-1_q22_0_all"  />
<polygon points="564,35 569,30 576,30 576,40 569,40 564,35 " style="fill:white; stroke-width:1; stroke:black; " description="&lt;b&gt;ctg61_41&lt;/b&gt;&lt;br&gt;ctg61 41&lt;br&gt;Location: 41303 - 41807" locus_tag="ctg61_41" class="clusterblast-orf" id="knownclusterblast-1_q23_0_all"  />
<polygon points="578,35 583,30 600,30 600,40 583,40 578,35 " style="fill:white; stroke-width:1; stroke:black; " description="&lt;b&gt;ctg61_42&lt;/b&gt;&lt;br&gt;ctg61 42&lt;br&gt;Location: 41909 - 42881" locus_tag="ctg61_42" class="clusterblast-orf" id="knownclusterblast-1_q24_0_all"  />
<polygon points="601,35 604,30 604,40 601,35 " style="fill:white; stroke-width:1; stroke:black; " description="&lt;b&gt;ctg61_43&lt;/b&gt;&lt;br&gt;ctg61 43&lt;br&gt;Location: 42929 - 43046" locus_tag="ctg61_43" class="clusterblast-orf" id="knownclusterblast-1_q25_0_all"  />
<polygon points="608,35 613,30 629,30 629,40 613,40 608,35 " style="fill:white; stroke-width:1; stroke:black; " description="&lt;b&gt;ctg61_44&lt;/b&gt;&lt;br&gt;ctg61 44&lt;br&gt;Location: 43236 - 44154" locus_tag="ctg61_44" class="clusterblast-orf" id="knownclusterblast-1_q26_0_all"  />
<polygon points="631,40 636,40 641,35 636,30 631,30 631,40 " style="fill:white; stroke-width:1; stroke:black; " description="&lt;b&gt;ctg61_45&lt;/b&gt;&lt;br&gt;ctg61 45&lt;br&gt;Location: 44218 - 44680" locus_tag="ctg61_45" class="clusterblast-orf" id="knownclusterblast-1_q27_0_all"  />
<polygon points="642,40 644,40 649,35 644,30 642,30 642,40 " style="fill:white; stroke-width:1; stroke:black; " description="&lt;b&gt;ctg61_46&lt;/b&gt;&lt;br&gt;ctg61 46&lt;br&gt;Location: 44734 - 45040" locus_tag="ctg61_46" class="clusterblast-orf" id="knownclusterblast-1_q28_0_all"  />
<polygon points="651,40 676,40 681,35 676,30 651,30 651,40 " style="fill:white; stroke-width:1; stroke:black; " description="&lt;b&gt;ctg61_47&lt;/b&gt;&lt;br&gt;ctg61 47&lt;br&gt;Location: 45118 - 46414" locus_tag="ctg61_47" class="clusterblast-orf" id="knownclusterblast-1_q29_0_all"  />
<polygon points="683,40 716,40 721,35 716,30 683,30 683,40 " style="fill:white; stroke-width:1; stroke:black; " description="&lt;b&gt;ctg61_48&lt;/b&gt;&lt;br&gt;ctg61 48&lt;br&gt;Location: 46502 - 48173" locus_tag="ctg61_48" class="clusterblast-orf" id="knownclusterblast-1_q30_0_all"  />
<polygon points="721,40 733,40 738,35 733,30 721,30 721,40 " style="fill:white; stroke-width:1; stroke:black; " description="&lt;b&gt;ctg61_49&lt;/b&gt;&lt;br&gt;ctg61 49&lt;br&gt;Location: 48169 - 48928" locus_tag="ctg61_49" class="clusterblast-orf" id="knownclusterblast-1_q31_0_all"  />
<polygon points="738,40 753,40 758,35 753,30 738,30 738,40 " style="fill:white; stroke-width:1; stroke:black; " description="&lt;b&gt;ctg61_50&lt;/b&gt;&lt;br&gt;ctg61 50&lt;br&gt;Location: 48942 - 49800" locus_tag="ctg61_50" class="clusterblast-orf" id="knownclusterblast-1_q32_0_all"  />
<polygon points="758,40 775,40 780,35 775,30 758,30 758,40 " style="fill:white; stroke-width:1; stroke:black; " description="&lt;b&gt;ctg61_51&lt;/b&gt;&lt;br&gt;ctg61 51&lt;br&gt;Location: 49799 - 50762" locus_tag="ctg61_51" class="clusterblast-orf" id="knownclusterblast-1_q33_0_all"  />
</g>
<g label="MGC00000048" description="MGC00000048_c1: NADH dehydrogenase I E. coli (100% of genes show similarity), NADHD" class="clusterblast-cluster"  >
<text x="5" y="70" class="clusterblast-acc"  >
MGC00000048_c1: NADH dehydrogenase I E. coli (100% of genes show similarity), NADHD</text>
<line x1="10" y1="85" x2="778.0" y2="85" style="stroke-width:1; stroke:grey; "  />
</g>
<g id="a1_000"  >
<polygon points="218,90 224,90 229,85 224,80 218,80 218,90 " style="fill:#d81515; stroke-width:1; stroke:black; " description="&lt;b&gt;b2288&lt;/b&gt;&lt;br&gt;NADH:quinone oxidoreductase subunit A&lt;br&gt;Location: 25025 - 24581&lt;br&gt;&lt;br&gt;&lt;b&gt;BlastP hit with ctg61_28&lt;/b&gt;&lt;br&gt;Percentage identity: 100&lt;br&gt;Percentage coverage: 100&lt;br&gt;BLAST bit score: 286&lt;br&gt;E-value: 3.12e-103" locus_tag="b2288" class="clusterblast-orf" id="knownclusterblast-1_all_1_1_0"  />
</g>
<g id="a1_001"  >
<polygon points="229,90 239,90 244,85 239,80 229,80 229,90 " style="fill:#33d815; stroke-width:1; stroke:black; " description="&lt;b&gt;b2287&lt;/b&gt;&lt;br&gt;NADH:quinone oxidoreductase subunit B&lt;br&gt;Location: 24566 - 23903&lt;br&gt;&lt;br&gt;&lt;b&gt;BlastP hit with ctg61_29&lt;/b&gt;&lt;br&gt;Percentage identity: 100&lt;br&gt;Percentage coverage: 100&lt;br&gt;BLAST bit score: 452&lt;br&gt;E-value: 2.17e-166" locus_tag="b2287" class="clusterblast-orf" id="knownclusterblast-1_all_1_1_1"  />
</g>
<g id="a1_002"  >
<polygon points="246,90 282,90 287,85 282,80 246,80 246,90 " style="fill:#15abd8; stroke-width:1; stroke:black; " description="&lt;b&gt;b2286&lt;/b&gt;&lt;br&gt;NADH:quinone oxidoreductase subunit CD&lt;br&gt;Location: 23798 - 22007&lt;br&gt;&lt;br&gt;&lt;b&gt;BlastP hit with ctg61_30&lt;/b&gt;&lt;br&gt;Percentage identity: 100&lt;br&gt;Percentage coverage: 99&lt;br&gt;BLAST bit score: 1221&lt;br&gt;E-value: 0.0" locus_tag="b2286" class="clusterblast-orf" id="knownclusterblast-1_all_1_1_2"  />
</g>
<g id="a1_003"  >
<polygon points="287,90 294,90 299,85 294,80 287,80 287,90 " style="fill:#8d15d8; stroke-width:1; stroke:black; " description="&lt;b&gt;b2285&lt;/b&gt;&lt;br&gt;NADH:quinone oxidoreductase subunit E&lt;br&gt;Location: 22005 - 21504&lt;br&gt;&lt;br&gt;&lt;b&gt;BlastP hit with ctg61_31&lt;/b&gt;&lt;br&gt;Percentage identity: 100&lt;br&gt;Percentage coverage: 100&lt;br&gt;BLAST bit score: 343&lt;br&gt;E-value: 4.99e-125" locus_tag="b2285" class="clusterblast-orf" id="knownclusterblast-1_all_1_1_3"  />
</g>
<g id="a1_004"  >
<polygon points="299,90 324,90 329,85 324,80 299,80 299,90 " style="fill:#d86f15; stroke-width:1; stroke:black; " description="&lt;b&gt;b2284&lt;/b&gt;&lt;br&gt;NADH:quinone oxidoreductase subunit F&lt;br&gt;Location: 21508 - 20170&lt;br&gt;&lt;br&gt;&lt;b&gt;BlastP hit with ctg61_32&lt;/b&gt;&lt;br&gt;Percentage identity: 100&lt;br&gt;Percentage coverage: 100&lt;br&gt;BLAST bit score: 924&lt;br&gt;E-value: 0.0" locus_tag="b2284" class="clusterblast-orf" id="knownclusterblast-1_all_1_1_4"  />
</g>
<g id="a1_005"  >
<polygon points="330,90 387,90 392,85 387,80 330,80 330,90 " style="fill:#15d851; stroke-width:1; stroke:black; " description="&lt;b&gt;b2283&lt;/b&gt;&lt;br&gt;NADH:quinone oxidoreductase subunit G&lt;br&gt;Location: 20118 - 17391&lt;br&gt;&lt;br&gt;&lt;b&gt;BlastP hit with ctg61_33&lt;/b&gt;&lt;br&gt;Percentage identity: 99&lt;br&gt;Percentage coverage: 100&lt;br&gt;BLAST bit score: 1829&lt;br&gt;E-value: 0.0" locus_tag="b2283" class="clusterblast-orf" id="knownclusterblast-1_all_1_1_5"  />
</g>
<g id="a1_006"  >
<polygon points="392,90 409,90 414,85 409,80 392,80 392,90 " style="fill:#1551d8; stroke-width:1; stroke:black; " description="&lt;b&gt;b2282&lt;/b&gt;&lt;br&gt;NADH:quinone oxidoreductase subunit H&lt;br&gt;Location: 17395 - 16417&lt;br&gt;&lt;br&gt;&lt;b&gt;BlastP hit with ctg61_34&lt;/b&gt;&lt;br&gt;Percentage identity: 100&lt;br&gt;Percentage coverage: 100&lt;br&gt;BLAST bit score: 637&lt;br&gt;E-value: 2.42e-236" locus_tag="b2282" class="clusterblast-orf" id="knownclusterblast-1_all_1_1_6"  />
</g>
<g id="a1_007"  >
<polygon points="415,90 422,90 427,85 422,80 415,80 415,90 " style="fill:#d815c9; stroke-width:1; stroke:black; " description="&lt;b&gt;b2281&lt;/b&gt;&lt;br&gt;NADH:quinone oxidoreductase subunit I&lt;br&gt;Location: 16403 - 15860&lt;br&gt;&lt;br&gt;&lt;b&gt;BlastP hit with ctg61_35&lt;/b&gt;&lt;br&gt;Percentage identity: 100&lt;br&gt;Percentage coverage: 100&lt;br&gt;BLAST bit score: 343&lt;br&gt;E-value: 1.02e-124" locus_tag="b2281" class="clusterblast-orf" id="knownclusterblast-1_all_1_1_7"  />
</g>
<g id="a1_008"  >
<polygon points="427,90 435,90 440,85 435,80 427,80 427,90 " style="fill:#d8c915; stroke-width:1; stroke:black; " description="&lt;b&gt;b2280&lt;/b&gt;&lt;br&gt;NADH:quinone oxidoreductase subunit J&lt;br&gt;Location: 15849 - 15294&lt;br&gt;&lt;br&gt;&lt;b&gt;BlastP hit with ctg61_36&lt;/b&gt;&lt;br&gt;Percentage identity: 100&lt;br&gt;Percentage coverage: 100&lt;br&gt;BLAST bit score: 335&lt;br&gt;E-value: 3.11e-121" locus_tag="b2280" class="clusterblast-orf" id="knownclusterblast-1_all_1_1_8"  />
</g>
<g id="a1_009"  >
<polygon points="440,90 442,90 447,85 442,80 440,80 440,90 " style="fill:#15d8ab; stroke-width:1; stroke:black; " description="&lt;b&gt;b2279&lt;/b&gt;&lt;br&gt;NADH:quinone oxidoreductase subunit K&lt;br&gt;Location: 15298 - 14995&lt;br&gt;&lt;br&gt;&lt;b&gt;BlastP hit with ctg61_37&lt;/b&gt;&lt;br&gt;Percentage identity: 100&lt;br&gt;Percentage coverage: 100&lt;br&gt;BLAST bit score: 179&lt;br&gt;E-value: 2.44e-62" locus_tag="b2279" class="clusterblast-orf" id="knownclusterblast-1_all_1_1_9"  />
</g>
<g id="a1_0010"  >
<polygon points="447,90 484,90 489,85 484,80 447,80 447,90 " style="fill:#3315d8; stroke-width:1; stroke:black; " description="&lt;b&gt;b2278&lt;/b&gt;&lt;br&gt;NADH:quinone oxidoreductase subunit L&lt;br&gt;Location: 14999 - 13157&lt;br&gt;&lt;br&gt;&lt;b&gt;BlastP hit with ctg61_38&lt;/b&gt;&lt;br&gt;Percentage identity: 100&lt;br&gt;Percentage coverage: 100&lt;br&gt;BLAST bit score: 1185&lt;br&gt;E-value: 0.0" locus_tag="b2278" class="clusterblast-orf" id="knownclusterblast-1_all_1_1_10"  />
</g>
<g id="a1_0011"  >
<polygon points="492,90 522,90 527,85 522,80 492,80 492,90 " style="fill:#d8156f; stroke-width:1; stroke:black; " description="&lt;b&gt;b2277&lt;/b&gt;&lt;br&gt;NADH:quinone oxidoreductase subunit M&lt;br&gt;Location: 12994 - 11464&lt;br&gt;&lt;br&gt;&lt;b&gt;BlastP hit with ctg61_39&lt;/b&gt;&lt;br&gt;Percentage identity: 100&lt;br&gt;Percentage coverage: 100&lt;br&gt;BLAST bit score: 996&lt;br&gt;E-value: 0.0" locus_tag="b2277" class="clusterblast-orf" id="knownclusterblast-1_all_1_1_11"  />
</g>
<g id="a1_0012"  >
<polygon points="527,90 556,90 561,85 556,80 527,80 527,90 " style="fill:#8dd815; stroke-width:1; stroke:black; " description="&lt;b&gt;b2276&lt;/b&gt;&lt;br&gt;NADH:quinone oxidoreductase subunit N&lt;br&gt;Location: 11458 - 10000&lt;br&gt;&lt;br&gt;&lt;b&gt;BlastP hit with ctg61_40&lt;/b&gt;&lt;br&gt;Percentage identity: 100&lt;br&gt;Percentage coverage: 100&lt;br&gt;BLAST bit score: 909&lt;br&gt;E-value: 0.0" locus_tag="b2276" class="clusterblast-orf" id="knownclusterblast-1_all_1_1_12"  />
</g>
<g label="MGC00000056" description="MGC00000056_c1: NADH dehydrogenase I Bacteroides sp. (28% of genes show similarity), NADHD" class="clusterblast-cluster"  >
<text x="5" y="120" class="clusterblast-acc"  >
MGC00000056_c1: NADH dehydrogenase I Bacteroides sp. (28% of genes show similarity), NADHD</text>
<line x1="10" y1="135" x2="778.0" y2="135" style="stroke-width:1; stroke:grey; "  />
</g>
<g id="a1_000"  >
<polygon points="84,135 89,130 99,130 99,140 89,140 84,135 " style="fill:white; stroke-width:1; stroke:black; " description="&lt;b&gt;BSHG_0769&lt;/b&gt;&lt;br&gt;HAD hydrolase, family IA&lt;br&gt;Location: 28407 - 27759" locus_tag="BSHG_0769" class="clusterblast-orf" id="knownclusterblast-1_all_1_2_0"  />
</g>
<g id="a1_001"  >
<polygon points="103,140 106,140 111,135 106,130 103,130 103,140 " style="fill:white; stroke-width:1; stroke:black; " description="&lt;b&gt;BSHG_0770&lt;/b&gt;&lt;br&gt;hypothetical protein&lt;br&gt;Location: 27584 - 27257" locus_tag="BSHG_0770" class="clusterblast-orf" id="knownclusterblast-1_all_1_2_1"  />
</g>
<g id="a1_002"  >
<polygon points="110,140 136,140 141,135 136,130 110,130 110,140 " style="fill:white; stroke-width:1; stroke:black; " description="&lt;b&gt;BSHG_0771&lt;/b&gt;&lt;br&gt;hypothetical protein&lt;br&gt;Location: 27261 - 25917" locus_tag="BSHG_0771" class="clusterblast-orf" id="knownclusterblast-1_all_1_2_2"  />
</g>
<g id="a1_003"  >
<polygon points="152,140 192,140 197,135 192,130 152,130 152,140 " style="fill:white; stroke-width:1; stroke:black; " description="&lt;b&gt;BSHG_0773&lt;/b&gt;&lt;br&gt;1-deoxy-D-xylulose-5-phosphate synthase&lt;br&gt;Location: 25426 - 23479" locus_tag="BSHG_0773" class="clusterblast-orf" id="knownclusterblast-1_all_1_2_3"  />
</g>
<g id="a1_004"  >
<polygon points="197,140 223,140 228,135 223,130 197,130 197,140 " style="fill:white; stroke-width:1; stroke:black; " description="&lt;b&gt;BSHG_0774&lt;/b&gt;&lt;br&gt;hypothetical protein&lt;br&gt;Location: 23441 - 22100" locus_tag="BSHG_0774" class="clusterblast-orf" id="knownclusterblast-1_all_1_2_4"  />
</g>
<g id="a1_005"  >
<polygon points="228,140 256,140 261,135 256,130 228,130 228,140 " style="fill:white; stroke-width:1; stroke:black; " description="&lt;b&gt;BSHG_0775&lt;/b&gt;&lt;br&gt;TrkH family potassium uptake protein&lt;br&gt;Location: 22096 - 20644" locus_tag="BSHG_0775" class="clusterblast-orf" id="knownclusterblast-1_all_1_2_5"  />
</g>
<g id="a1_006"  >
<polygon points="265,140 269,140 274,135 269,130 265,130 265,140 " style="fill:white; stroke-width:1; stroke:black; " description="&lt;b&gt;BSHG_0776&lt;/b&gt;&lt;br&gt;hypothetical protein&lt;br&gt;Location: 20458 - 20080" locus_tag="BSHG_0776" class="clusterblast-orf" id="knownclusterblast-1_all_1_2_6"  />
</g>
<g id="a1_007"  >
<polygon points="277,140 280,140 285,135 280,130 277,130 277,140 " style="fill:#d81515; stroke-width:1; stroke:black; " description="&lt;b&gt;BSHG_0777&lt;/b&gt;&lt;br&gt;NADH-quinone oxidoreductase subunit A&lt;br&gt;Location: 19937 - 19586&lt;br&gt;&lt;br&gt;&lt;b&gt;BlastP hit with ctg61_28&lt;/b&gt;&lt;br&gt;Percentage identity: 31&lt;br&gt;Percentage coverage: 72&lt;br&gt;BLAST bit score: 62&lt;br&gt;E-value: 5.09e-15" locus_tag="BSHG_0777" class="clusterblast-orf" id="knownclusterblast-1_all_1_2_7"  />
</g>
<g id="a1_008"  >
<polygon points="285,140 294,140 299,135 294,130 285,130 285,140 " style="fill:#33d815; stroke-width:1; stroke:black; " description="&lt;b&gt;BSHG_0778&lt;/b&gt;&lt;br&gt;NADH-quinone oxidoreductase subunit B&lt;br&gt;Location: 19587 - 19005&lt;br&gt;&lt;br&gt;&lt;b&gt;BlastP hit with ctg61_29&lt;/b&gt;&lt;br&gt;Percentage identity: 58&lt;br&gt;Percentage coverage: 66&lt;br&gt;BLAST bit score: 183&lt;br&gt;E-value: 1.38e-60" locus_tag="BSHG_0778" class="clusterblast-orf" id="knownclusterblast-1_all_1_2_8"  />
</g>
<g id="a1_009"  >
<polygon points="299,140 330,140 335,135 330,130 299,130 299,140 " style="fill:#15abd8; stroke-width:1; stroke:black; " description="&lt;b&gt;BSHG_0779&lt;/b&gt;&lt;br&gt;NADH-quinone oxidoreductase subunit C/D&lt;br&gt;Location: 18984 - 17391&lt;br&gt;&lt;br&gt;&lt;b&gt;BlastP hit with ctg61_30&lt;/b&gt;&lt;br&gt;Percentage identity: 32&lt;br&gt;Percentage coverage: 86&lt;br&gt;BLAST bit score: 257&lt;br&gt;E-value: 2.35e-80" locus_tag="BSHG_0779" class="clusterblast-orf" id="knownclusterblast-1_all_1_2_9"  />
</g>
<g id="a1_0010"  >
<polygon points="337,140 357,140 362,135 357,130 337,130 337,140 " style="fill:#1551d8; stroke-width:1; stroke:black; " description="&lt;b&gt;BSHG_0780&lt;/b&gt;&lt;br&gt;NADH-quinone oxidoreductase subunit H&lt;br&gt;Location: 17312 - 16235&lt;br&gt;&lt;br&gt;&lt;b&gt;BlastP hit with ctg61_34&lt;/b&gt;&lt;br&gt;Percentage identity: 39&lt;br&gt;Percentage coverage: 107&lt;br&gt;BLAST bit score: 247&lt;br&gt;E-value: 5.2e-82" locus_tag="BSHG_0780" class="clusterblast-orf" id="knownclusterblast-1_all_1_2_10"  />
</g>
<g id="a1_0011"  >
<polygon points="362,140 368,140 373,135 368,130 362,130 362,140 " style="fill:white; stroke-width:1; stroke:black; " description="&lt;b&gt;BSHG_0781&lt;/b&gt;&lt;br&gt;NADH-quinone oxidoreductase, chain I&lt;br&gt;Location: 16219 - 15739" locus_tag="BSHG_0781" class="clusterblast-orf" id="knownclusterblast-1_all_1_2_11"  />
</g>
<g id="a1_0012"  >
<polygon points="373,140 380,140 385,135 380,130 373,130 373,140 " style="fill:white; stroke-width:1; stroke:black; " description="&lt;b&gt;BSHG_0782&lt;/b&gt;&lt;br&gt;hypothetical protein&lt;br&gt;Location: 15733 - 15220" locus_tag="BSHG_0782" class="clusterblast-orf" id="knownclusterblast-1_all_1_2_12"  />
</g>
<g id="a1_0013"  >
<polygon points="385,140 387,140 392,135 387,130 385,130 385,140 " style="fill:white; stroke-width:1; stroke:black; " description="&lt;b&gt;BSHG_0783&lt;/b&gt;&lt;br&gt;hypothetical protein&lt;br&gt;Location: 15214 - 14902" locus_tag="BSHG_0783" class="clusterblast-orf" id="knownclusterblast-1_all_1_2_13"  />
</g>
<g id="a1_0014"  >
<polygon points="393,140 431,140 436,135 431,130 393,130 393,140 " style="fill:#3315d8; stroke-width:1; stroke:black; " description="&lt;b&gt;BSHG_0784&lt;/b&gt;&lt;br&gt;proton-translocating NADH-quinone oxidoreductase, chain L&lt;br&gt;Location: 14866 - 12955&lt;br&gt;&lt;br&gt;&lt;b&gt;BlastP hit with ctg61_38&lt;/b&gt;&lt;br&gt;Percentage identity: 37&lt;br&gt;Percentage coverage: 105&lt;br&gt;BLAST bit score: 307&lt;br&gt;E-value: 5.74e-98" locus_tag="BSHG_0784" class="clusterblast-orf" id="knownclusterblast-1_all_1_2_14"  />
</g>
<g id="a1_0015"  >
<polygon points="437,140 465,140 470,135 465,130 437,130 437,140 " style="fill:white; stroke-width:1; stroke:black; " description="&lt;b&gt;BSHG_0785&lt;/b&gt;&lt;br&gt;proton-translocating NADH-quinone oxidoreductase, chain M&lt;br&gt;Location: 12943 - 11458" locus_tag="BSHG_0785" class="clusterblast-orf" id="knownclusterblast-1_all_1_2_15"  />
</g>
<g id="a1_0016"  >
<polygon points="471,140 499,140 504,135 499,130 471,130 471,140 " style="fill:#8dd815; stroke-width:1; stroke:black; " description="&lt;b&gt;BSHG_0786&lt;/b&gt;&lt;br&gt;NADH-quinone oxidoreductase subunit N&lt;br&gt;Location: 11452 - 10000&lt;br&gt;&lt;br&gt;&lt;b&gt;BlastP hit with ctg61_40&lt;/b&gt;&lt;br&gt;Percentage identity: 34&lt;br&gt;Percentage coverage: 80&lt;br&gt;BLAST bit score: 206&lt;br&gt;E-value: 7.94e-63" locus_tag="BSHG_0786" class="clusterblast-orf" id="knownclusterblast-1_all_1_2_16"  />
</g>
<g id="a1_0017"  >
<polygon points="506,135 511,130 569,130 569,140 511,140 506,135 " style="fill:white; stroke-width:1; stroke:black; " description="&lt;b&gt;BSHG_0787&lt;/b&gt;&lt;br&gt;hypothetical protein&lt;br&gt;Location: 9904 - 7114" locus_tag="BSHG_0787" class="clusterblast-orf" id="knownclusterblast-1_all_1_2_17"  />
</g>
<g id="a1_0018"  >
<polygon points="575,140 631,140 636,135 631,130 575,130 575,140 " style="fill:white; stroke-width:1; stroke:black; " description="&lt;b&gt;BSHG_0789&lt;/b&gt;&lt;br&gt;hypothetical protein&lt;br&gt;Location: 6877 - 4177" locus_tag="BSHG_0789" class="clusterblast-orf" id="knownclusterblast-1_all_1_2_18"  />
</g>
<g id="a1_0019"  >
<polygon points="638,140 662,140 667,135 662,130 638,130 638,140 " style="fill:white; stroke-width:1; stroke:black; " description="&lt;b&gt;BSHG_0790&lt;/b&gt;&lt;br&gt;hypothetical protein&lt;br&gt;Location: 4109 - 2834" locus_tag="BSHG_0790" class="clusterblast-orf" id="knownclusterblast-1_all_1_2_19"  />
</g>
<g id="a1_0020"  >
<polygon points="669,140 690,140 695,135 690,130 669,130 669,140 " style="fill:white; stroke-width:1; stroke:black; " description="&lt;b&gt;BSHG_0791&lt;/b&gt;&lt;br&gt;hypothetical protein&lt;br&gt;Location: 2732 - 1613" locus_tag="BSHG_0791" class="clusterblast-orf" id="knownclusterblast-1_all_1_2_20"  />
</g>
<g label="MGC00000036" description="MGC00000036_c1: Ech complex T. phaeum (28% of genes show similarity), ECH" class="clusterblast-cluster"  >
<text x="5" y="170" class="clusterblast-acc"  >
MGC00000036_c1: Ech complex T. phaeum (28% of genes show similarity), ECH</text>
<line x1="10" y1="185" x2="778.0" y2="185" style="stroke-width:1; stroke:grey; "  />
</g>
<g id="a1_000"  >
<polygon points="218,190 259,190 264,185 259,180 218,180 218,190 " style="fill:#3315d8; stroke-width:1; stroke:black; " description="&lt;b&gt;Tph_c21360&lt;/b&gt;&lt;br&gt;putative ech hydrogenase subunit A&lt;br&gt;Location: 15027 - 13041&lt;br&gt;&lt;br&gt;&lt;b&gt;BlastP hit with ctg61_38&lt;/b&gt;&lt;br&gt;Percentage identity: 35&lt;br&gt;Percentage coverage: 53&lt;br&gt;BLAST bit score: 139&lt;br&gt;E-value: 1.83e-36" locus_tag="Tph_c21360" class="clusterblast-orf" id="knownclusterblast-1_all_1_3_0"  />
</g>
<g id="a1_001"  >
<polygon points="264,190 278,190 283,185 278,180 264,180 264,190 " style="fill:white; stroke-width:1; stroke:black; " description="&lt;b&gt;Tph_c21350&lt;/b&gt;&lt;br&gt;putative ech hydrogenase subunit B&lt;br&gt;Location: 13045 - 12184" locus_tag="Tph_c21350" class="clusterblast-orf" id="knownclusterblast-1_all_1_3_1"  />
</g>
<g id="a1_002"  >
<polygon points="283,190 288,190 293,185 288,180 283,180 283,190 " style="fill:#33d815; stroke-width:1; stroke:black; " description="&lt;b&gt;Tph_c21340&lt;/b&gt;&lt;br&gt;putative ech hydrogenase subunit C&lt;br&gt;Location: 12184 - 11746&lt;br&gt;&lt;br&gt;&lt;b&gt;BlastP hit with ctg61_29&lt;/b&gt;&lt;br&gt;Percentage identity: 41&lt;br&gt;Percentage coverage: 59&lt;br&gt;BLAST bit score: 101&lt;br&gt;E-value: 2.66e-29" locus_tag="Tph_c21340" class="clusterblast-orf" id="knownclusterblast-1_all_1_3_2"  />
</g>
<g id="a1_003"  >
<polygon points="293,190 297,190 302,185 297,180 293,180 293,190 " style="fill:white; stroke-width:1; stroke:black; " description="&lt;b&gt;Tph_c21330&lt;/b&gt;&lt;br&gt;putative ech hydrogenase subunit D&lt;br&gt;Location: 11750 - 11372" locus_tag="Tph_c21330" class="clusterblast-orf" id="knownclusterblast-1_all_1_3_3"  />
</g>
<g id="a1_004"  >
<polygon points="302,190 321,190 326,185 321,180 302,180 302,190 " style="fill:white; stroke-width:1; stroke:black; " description="&lt;b&gt;Tph_c21320&lt;/b&gt;&lt;br&gt;putative ech hydrogenase subunit E&lt;br&gt;Location: 11372 - 10289" locus_tag="Tph_c21320" class="clusterblast-orf" id="knownclusterblast-1_all_1_3_4"  />
</g>
<g id="a1_005"  >
<polygon points="327,190 330,190 335,185 330,180 327,180 327,190 " style="fill:white; stroke-width:1; stroke:black; " description="&lt;b&gt;Tph_c21310&lt;/b&gt;&lt;br&gt;putative ech hydrogenase subunit F&lt;br&gt;Location: 10260 - 9909" locus_tag="Tph_c21310" class="clusterblast-orf" id="knownclusterblast-1_all_1_3_5"  />
</g>
<g id="a1_006"  >
<polygon points="539,190 556,190 561,185 556,180 539,180 539,190 " style="fill:white; stroke-width:1; stroke:black; " description="&lt;b&gt;Tph_c21210&lt;/b&gt;&lt;br&gt;stage II sporulation protein P&lt;br&gt;Location: 966 - 0" locus_tag="Tph_c21210" class="clusterblast-orf" id="knownclusterblast-1_all_1_3_6"  />
</g>
</svg>
