<svg xmlns="http://www.w3.org/2000/svg" xmlns:xlink="http://www.w3.org/1999/xlink" version="1.1" x="0" y="0" height="230" width="800" viewBox="0 0 800 230" preserveAspectRatio="none"  >
<g label="Query sequence" class="clusterblast-cluster"  >
<text x="5" y="20" class="clusterblast-acc"  >
Query sequence</text>
<line x1="10" y1="35" x2="778.0" y2="35" style="stroke-width:1; stroke:grey; "  />
<polygon points="0,35 5,30 17,30 17,40 5,40 0,35 " style="fill:white; stroke-width:1; stroke:black; " description="&lt;b&gt;ctg2_54&lt;/b&gt;&lt;br&gt;ctg2 54&lt;br&gt;Location: 62123 - 62915" locus_tag="ctg2_54" class="clusterblast-orf" id="dummy-1_q0_0_all"  />
<polygon points="24,40 39,40 44,35 39,30 24,30 24,40 " style="fill:white; stroke-width:1; stroke:black; " description="&lt;b&gt;ctg2_55&lt;/b&gt;&lt;br&gt;ctg2 55&lt;br&gt;Location: 63194 - 64091" locus_tag="ctg2_55" class="clusterblast-orf" id="dummy-1_q1_0_all"  />
<polygon points="44,40 71,40 76,35 71,30 44,30 44,40 " style="fill:white; stroke-width:1; stroke:black; " description="&lt;b&gt;ctg2_56&lt;/b&gt;&lt;br&gt;ctg2 56&lt;br&gt;Location: 64094 - 65519" locus_tag="ctg2_56" class="clusterblast-orf" id="dummy-1_q2_0_all"  />
<polygon points="80,35 85,30 100,30 100,40 85,40 80,35 " style="fill:white; stroke-width:1; stroke:black; " description="&lt;b&gt;ctg2_57&lt;/b&gt;&lt;br&gt;ctg2 57&lt;br&gt;Location: 65696 - 66596" locus_tag="ctg2_57" class="clusterblast-orf" id="dummy-1_q3_0_all"  />
<polygon points="102,35 107,30 115,30 115,40 107,40 102,35 " style="fill:white; stroke-width:1; stroke:black; " description="&lt;b&gt;ctg2_58&lt;/b&gt;&lt;br&gt;ctg2 58&lt;br&gt;Location: 66691 - 67267" locus_tag="ctg2_58" class="clusterblast-orf" id="dummy-1_q4_0_all"  />
<polygon points="116,35 121,30 126,30 126,40 121,40 116,35 " style="fill:white; stroke-width:1; stroke:black; " description="&lt;b&gt;ctg2_59&lt;/b&gt;&lt;br&gt;ctg2 59&lt;br&gt;Location: 67327 - 67777" locus_tag="ctg2_59" class="clusterblast-orf" id="dummy-1_q5_0_all"  />
<polygon points="126,35 131,30 134,30 134,40 131,40 126,35 " style="fill:white; stroke-width:1; stroke:black; " description="&lt;b&gt;ctg2_60&lt;/b&gt;&lt;br&gt;ctg2 60&lt;br&gt;Location: 67763 - 68123" locus_tag="ctg2_60" class="clusterblast-orf" id="dummy-1_q6_0_all"  />
<polygon points="140,40 155,40 160,35 155,30 140,30 140,40 " style="fill:white; stroke-width:1; stroke:black; " description="&lt;b&gt;ctg2_61&lt;/b&gt;&lt;br&gt;ctg2 61&lt;br&gt;Location: 68402 - 69272" locus_tag="ctg2_61" class="clusterblast-orf" id="dummy-1_q7_0_all"  />
<polygon points="160,40 175,40 180,35 175,30 160,30 160,40 " style="fill:white; stroke-width:1; stroke:black; " description="&lt;b&gt;ctg2_62&lt;/b&gt;&lt;br&gt;ctg2 62&lt;br&gt;Location: 69272 - 70175" locus_tag="ctg2_62" class="clusterblast-orf" id="dummy-1_q8_0_all"  />
<polygon points="180,35 185,30 204,30 204,40 185,40 180,35 " style="fill:#d81515; stroke-width:1; stroke:black; " description="&lt;b&gt;ctg2_63&lt;/b&gt;&lt;br&gt;ctg2 63&lt;br&gt;Location: 70180 - 71233" locus_tag="ctg2_63" class="clusterblast-orf" id="dummy-1_q9_0_all"  />
<polygon points="207,35 212,30 219,30 219,40 212,40 207,35 " style="fill:#77d815; stroke-width:1; stroke:black; " description="&lt;b&gt;ctg2_64&lt;/b&gt;&lt;br&gt;ctg2 64&lt;br&gt;Location: 71389 - 71890" locus_tag="ctg2_64" class="clusterblast-orf" id="dummy-1_q10_0_all"  />
<polygon points="219,35 224,30 234,30 234,40 224,40 219,35 " style="fill:#15d8d8; stroke-width:1; stroke:black; " description="&lt;b&gt;ctg2_65&lt;/b&gt;&lt;br&gt;ctg2 65&lt;br&gt;Location: 71902 - 72562" locus_tag="ctg2_65" class="clusterblast-orf" id="dummy-1_q11_0_all"  />
<polygon points="234,35 239,30 254,30 254,40 239,40 234,35 " style="fill:#7715d8; stroke-width:1; stroke:black; " description="&lt;b&gt;ctg2_66&lt;/b&gt;&lt;br&gt;ctg2 66&lt;br&gt;Location: 72571 - 73459" locus_tag="ctg2_66" class="clusterblast-orf" id="dummy-1_q12_0_all"  />
<polygon points="254,35 259,30 285,30 285,40 259,40 254,35 " style="fill:#d85e15; stroke-width:1; stroke:black; " description="&lt;b&gt;ctg2_67&lt;/b&gt;&lt;br&gt;ctg2 67&lt;br&gt;Location: 73479 - 74841" locus_tag="ctg2_67" class="clusterblast-orf" id="dummy-1_q13_0_all"  />
<polygon points="285,35 290,30 317,30 317,40 290,40 285,35 " style="fill:#2ed815; stroke-width:1; stroke:black; " description="&lt;b&gt;ctg2_68&lt;/b&gt;&lt;br&gt;ctg2 68&lt;br&gt;Location: 74852 - 76256" locus_tag="ctg2_68" class="clusterblast-orf" id="dummy-1_q14_0_all"  />
<polygon points="316,35 321,30 344,30 344,40 321,40 316,35 " style="fill:#158fd8; stroke-width:1; stroke:black; " description="&lt;b&gt;ctg2_69&lt;/b&gt;&lt;br&gt;ctg2 69&lt;br&gt;Location: 76252 - 77479" locus_tag="ctg2_69" class="clusterblast-orf" id="dummy-1_q15_0_all"  />
<polygon points="345,40 351,40 356,35 351,30 345,30 345,40 " style="fill:white; stroke-width:1; stroke:black; " description="&lt;b&gt;ctg2_70&lt;/b&gt;&lt;br&gt;ctg2 70&lt;br&gt;Location: 77522 - 78008" locus_tag="ctg2_70" class="clusterblast-orf" id="dummy-1_q16_0_all"  />
<polygon points="352,35 357,30 378,30 378,40 357,40 352,35 " style="fill:#c015d8; stroke-width:1; stroke:black; " description="&lt;b&gt;ctg2_71&lt;/b&gt;&lt;br&gt;ctg2 71&lt;br&gt;Location: 77826 - 79014" locus_tag="ctg2_71" class="clusterblast-orf" id="dummy-1_q17_0_all"  />
<polygon points="378,35 383,30 397,30 397,40 383,40 378,35 " style="fill:#d8a715; stroke-width:1; stroke:black; " description="&lt;b&gt;ctg2_72&lt;/b&gt;&lt;br&gt;ctg2 72&lt;br&gt;Location: 79003 - 79840" locus_tag="ctg2_72" class="clusterblast-orf" id="dummy-1_q18_0_all"  />
<polygon points="397,35 402,30 429,30 429,40 402,40 397,35 " style="fill:#15d846; stroke-width:1; stroke:black; " description="&lt;b&gt;ctg2_73&lt;/b&gt;&lt;br&gt;ctg2 73&lt;br&gt;Location: 79850 - 81254" locus_tag="ctg2_73" class="clusterblast-orf" id="dummy-1_q19_0_all"  />
<polygon points="429,35 434,30 435,30 435,40 434,40 429,35 " style="fill:#1546d8; stroke-width:1; stroke:black; " description="&lt;b&gt;ctg2_74&lt;/b&gt;&lt;br&gt;ctg2 74&lt;br&gt;Location: 81265 - 81553" locus_tag="ctg2_74" class="clusterblast-orf" id="dummy-1_q20_0_all"  />
<polygon points="438,35 443,30 444,30 444,40 443,40 438,35 " style="fill:#77d815; stroke-width:1; stroke:black; " description="&lt;b&gt;ctg2_75&lt;/b&gt;&lt;br&gt;ctg2 75&lt;br&gt;Location: 81659 - 81953" locus_tag="ctg2_75" class="clusterblast-orf" id="dummy-1_q21_0_all"  />
<polygon points="445,35 450,30 468,30 468,40 450,40 445,35 " style="fill:#d815a7; stroke-width:1; stroke:black; " description="&lt;b&gt;ctg2_76&lt;/b&gt;&lt;br&gt;ctg2 76&lt;br&gt;Location: 81991 - 83008" locus_tag="ctg2_76" class="clusterblast-orf" id="dummy-1_q22_0_all"  />
<polygon points="468,35 473,30 486,30 486,40 473,40 468,35 " style="fill:#c0d815; stroke-width:1; stroke:black; " description="&lt;b&gt;ctg2_77&lt;/b&gt;&lt;br&gt;ctg2 77&lt;br&gt;Location: 83004 - 83808" locus_tag="ctg2_77" class="clusterblast-orf" id="dummy-1_q23_0_all"  />
<polygon points="486,35 491,30 502,30 502,40 491,40 486,35 " style="fill:#15d88f; stroke-width:1; stroke:black; " description="&lt;b&gt;ctg2_78&lt;/b&gt;&lt;br&gt;ctg2 78&lt;br&gt;Location: 83804 - 84506" locus_tag="ctg2_78" class="clusterblast-orf" id="dummy-1_q24_0_all"  />
<polygon points="501,35 506,30 512,30 512,40 506,40 501,35 " style="fill:#2e15d8; stroke-width:1; stroke:black; " description="&lt;b&gt;ctg2_79&lt;/b&gt;&lt;br&gt;ctg2 79&lt;br&gt;Location: 84480 - 84960" locus_tag="ctg2_79" class="clusterblast-orf" id="dummy-1_q25_0_all"  />
<polygon points="512,35 517,30 519,30 519,40 517,40 512,35 " style="fill:#d8155e; stroke-width:1; stroke:black; " description="&lt;b&gt;ctg2_80&lt;/b&gt;&lt;br&gt;ctg2 80&lt;br&gt;Location: 84972 - 85308" locus_tag="ctg2_80" class="clusterblast-orf" id="dummy-1_q26_0_all"  />
<polygon points="526,35 531,30 577,30 577,40 531,40 526,35 " style="fill:#d815a7; stroke-width:1; stroke:black; " description="&lt;b&gt;ctg2_81&lt;/b&gt;&lt;br&gt;ctg2 81&lt;br&gt;Location: 85600 - 87880" locus_tag="ctg2_81" class="clusterblast-orf" id="dummy-1_q27_0_all"  />
<polygon points="584,40 600,40 605,35 600,30 584,30 584,40 " style="fill:white; stroke-width:1; stroke:black; " description="&lt;b&gt;ctg2_82&lt;/b&gt;&lt;br&gt;ctg2 82&lt;br&gt;Location: 88168 - 89119" locus_tag="ctg2_82" class="clusterblast-orf" id="dummy-1_q28_0_all"  />
<polygon points="605,40 645,40 650,35 645,30 605,30 605,40 " style="fill:white; stroke-width:1; stroke:black; " description="&lt;b&gt;ctg2_83&lt;/b&gt;&lt;br&gt;ctg2 83&lt;br&gt;Location: 89138 - 91142" locus_tag="ctg2_83" class="clusterblast-orf" id="dummy-1_q29_0_all"  />
<polygon points="652,35 657,30 674,30 674,40 657,40 652,35 " style="fill:white; stroke-width:1; stroke:black; " description="&lt;b&gt;ctg2_84&lt;/b&gt;&lt;br&gt;ctg2 84&lt;br&gt;Location: 91218 - 92217" locus_tag="ctg2_84" class="clusterblast-orf" id="dummy-1_q30_0_all"  />
<polygon points="678,35 683,30 691,30 691,40 683,40 678,35 " style="fill:white; stroke-width:1; stroke:black; " description="&lt;b&gt;ctg2_85&lt;/b&gt;&lt;br&gt;ctg2 85&lt;br&gt;Location: 92387 - 92963" locus_tag="ctg2_85" class="clusterblast-orf" id="dummy-1_q31_0_all"  />
<polygon points="693,35 698,30 737,30 737,40 698,40 693,35 " style="fill:white; stroke-width:1; stroke:black; " description="&lt;b&gt;ctg2_86&lt;/b&gt;&lt;br&gt;ctg2 86&lt;br&gt;Location: 93030 - 95010" locus_tag="ctg2_86" class="clusterblast-orf" id="dummy-1_q32_0_all"  />
<polygon points="742,40 775,40 780,35 775,30 742,30 742,40 " style="fill:white; stroke-width:1; stroke:black; " description="&lt;b&gt;ctg2_87&lt;/b&gt;&lt;br&gt;ctg2 87&lt;br&gt;Location: 95215 - 96916" locus_tag="ctg2_87" class="clusterblast-orf" id="dummy-1_q33_0_all"  />
</g>
<g label="MGC0000003" description="MGC0000003_c1: Ethanolamine degradation S. typhimurium (94% of genes show similarity), EUT" class="clusterblast-cluster"  >
<text x="5" y="70" class="clusterblast-acc"  >
MGC0000003_c1: Ethanolamine degradation S. typhimurium (94% of genes show similarity), EUT</text>
<line x1="10" y1="85" x2="778.0" y2="85" style="stroke-width:1; stroke:grey; "  />
</g>
<g id="a1_000"  >
<polygon points="186,85 191,80 209,80 209,90 191,90 186,85 " style="fill:#d81515; stroke-width:1; stroke:black; " description="&lt;b&gt;STM2454&lt;/b&gt;&lt;br&gt;HTH-type transcriptional regulator EutR&lt;br&gt;Location: 102 - 1155&lt;br&gt;&lt;br&gt;&lt;b&gt;BlastP hit with ctg2_63&lt;/b&gt;&lt;br&gt;Percentage identity: 92&lt;br&gt;Percentage coverage: 100&lt;br&gt;BLAST bit score: 659&lt;br&gt;E-value: 3.46e-244" locus_tag="STM2454" class="clusterblast-orf" id="dummy-1_h1_1_0"  />
</g>
<g id="a1_001"  >
<polygon points="210,85 215,80 221,80 221,90 215,90 210,85 " style="fill:#77d815; stroke-width:1; stroke:black; " description="&lt;b&gt;STM2455&lt;/b&gt;&lt;br&gt;carboxysome structural protein EutK&lt;br&gt;Location: 1202 - 1697&lt;br&gt;&lt;br&gt;&lt;b&gt;BlastP hit with ctg2_64&lt;/b&gt;&lt;br&gt;Percentage identity: 81&lt;br&gt;Percentage coverage: 99&lt;br&gt;BLAST bit score: 247&lt;br&gt;E-value: 4.23e-87&lt;br&gt;&lt;br&gt;&lt;b&gt;BlastP hit with ctg2_75&lt;/b&gt;&lt;br&gt;Percentage identity: 48&lt;br&gt;Percentage coverage: 86&lt;br&gt;BLAST bit score: 72&lt;br&gt;E-value: 2.04e-19" locus_tag="STM2455" class="clusterblast-orf" id="dummy-1_h1_1_1"  />
</g>
<g id="a1_002"  >
<polygon points="222,85 227,80 236,80 236,90 227,90 222,85 " style="fill:#15d8d8; stroke-width:1; stroke:black; " description="&lt;b&gt;STM2456&lt;/b&gt;&lt;br&gt;carboxysome structural protein EutL&lt;br&gt;Location: 1709 - 2369&lt;br&gt;&lt;br&gt;&lt;b&gt;BlastP hit with ctg2_65&lt;/b&gt;&lt;br&gt;Percentage identity: 96&lt;br&gt;Percentage coverage: 100&lt;br&gt;BLAST bit score: 404&lt;br&gt;E-value: 2.3e-147" locus_tag="STM2456" class="clusterblast-orf" id="dummy-1_h1_1_2"  />
</g>
<g id="a1_003"  >
<polygon points="237,85 242,80 257,80 257,90 242,90 237,85 " style="fill:#7715d8; stroke-width:1; stroke:black; " description="&lt;b&gt;STM2457&lt;/b&gt;&lt;br&gt;ethanolamine ammonia-lyase small subunit EutC&lt;br&gt;Location: 2378 - 3275&lt;br&gt;&lt;br&gt;&lt;b&gt;BlastP hit with ctg2_66&lt;/b&gt;&lt;br&gt;Percentage identity: 91&lt;br&gt;Percentage coverage: 101&lt;br&gt;BLAST bit score: 518&lt;br&gt;E-value: 4.69e-190" locus_tag="STM2457" class="clusterblast-orf" id="dummy-1_h1_1_3"  />
</g>
<g id="a1_004"  >
<polygon points="257,85 262,80 288,80 288,90 262,90 257,85 " style="fill:#d85e15; stroke-width:1; stroke:black; " description="&lt;b&gt;STM2458&lt;/b&gt;&lt;br&gt;ethanolamine ammonia-lyase large subunit EutB&lt;br&gt;Location: 3293 - 4655&lt;br&gt;&lt;br&gt;&lt;b&gt;BlastP hit with ctg2_67&lt;/b&gt;&lt;br&gt;Percentage identity: 98&lt;br&gt;Percentage coverage: 100&lt;br&gt;BLAST bit score: 886&lt;br&gt;E-value: 0.0" locus_tag="STM2458" class="clusterblast-orf" id="dummy-1_h1_1_4"  />
</g>
<g id="a1_005"  >
<polygon points="288,85 293,80 319,80 319,90 293,90 288,85 " style="fill:#2ed815; stroke-width:1; stroke:black; " description="&lt;b&gt;STM2459&lt;/b&gt;&lt;br&gt;ethanolamine utilization protein EutA&lt;br&gt;Location: 4666 - 6070&lt;br&gt;&lt;br&gt;&lt;b&gt;BlastP hit with ctg2_68&lt;/b&gt;&lt;br&gt;Percentage identity: 90&lt;br&gt;Percentage coverage: 100&lt;br&gt;BLAST bit score: 815&lt;br&gt;E-value: 5.9e-302" locus_tag="STM2459" class="clusterblast-orf" id="dummy-1_h1_1_5"  />
</g>
<g id="a1_006"  >
<polygon points="319,85 324,80 347,80 347,90 324,90 319,85 " style="fill:#158fd8; stroke-width:1; stroke:black; " description="&lt;b&gt;STM2460&lt;/b&gt;&lt;br&gt;ethanolamine transporter EutH&lt;br&gt;Location: 6066 - 7293&lt;br&gt;&lt;br&gt;&lt;b&gt;BlastP hit with ctg2_69&lt;/b&gt;&lt;br&gt;Percentage identity: 98&lt;br&gt;Percentage coverage: 100&lt;br&gt;BLAST bit score: 751&lt;br&gt;E-value: 1.19e-278" locus_tag="STM2460" class="clusterblast-orf" id="dummy-1_h1_1_6"  />
</g>
<g id="a1_007"  >
<polygon points="349,85 354,80 376,80 376,90 354,90 349,85 " style="fill:#c015d8; stroke-width:1; stroke:black; " description="&lt;b&gt;STM2461&lt;/b&gt;&lt;br&gt;ethanol dehydrogenase EutG&lt;br&gt;Location: 7412 - 8600&lt;br&gt;&lt;br&gt;&lt;b&gt;BlastP hit with ctg2_71&lt;/b&gt;&lt;br&gt;Percentage identity: 87&lt;br&gt;Percentage coverage: 100&lt;br&gt;BLAST bit score: 659&lt;br&gt;E-value: 1.12e-242" locus_tag="STM2461" class="clusterblast-orf" id="dummy-1_h1_1_7"  />
</g>
<g id="a1_008"  >
<polygon points="376,85 381,80 395,80 395,90 381,90 376,85 " style="fill:#d8a715; stroke-width:1; stroke:black; " description="&lt;b&gt;STM2462&lt;/b&gt;&lt;br&gt;ethanolamine utilization protein EutJ&lt;br&gt;Location: 8589 - 9429&lt;br&gt;&lt;br&gt;&lt;b&gt;BlastP hit with ctg2_72&lt;/b&gt;&lt;br&gt;Percentage identity: 89&lt;br&gt;Percentage coverage: 100&lt;br&gt;BLAST bit score: 501&lt;br&gt;E-value: 4.22e-184" locus_tag="STM2462" class="clusterblast-orf" id="dummy-1_h1_1_8"  />
</g>
<g id="a1_009"  >
<polygon points="395,85 400,80 426,80 426,90 400,90 395,85 " style="fill:#15d846; stroke-width:1; stroke:black; " description="&lt;b&gt;STM2463&lt;/b&gt;&lt;br&gt;aldehyde oxidoreductase EutE&lt;br&gt;Location: 9439 - 10843&lt;br&gt;&lt;br&gt;&lt;b&gt;BlastP hit with ctg2_73&lt;/b&gt;&lt;br&gt;Percentage identity: 94&lt;br&gt;Percentage coverage: 100&lt;br&gt;BLAST bit score: 827&lt;br&gt;E-value: 2.26e-306" locus_tag="STM2463" class="clusterblast-orf" id="dummy-1_h1_1_9"  />
</g>
<g id="a1_0010"  >
<polygon points="427,85 432,80 433,80 433,90 432,90 427,85 " style="fill:#1546d8; stroke-width:1; stroke:black; " description="&lt;b&gt;STM2464&lt;/b&gt;&lt;br&gt;microcompartment shell protein EutN&lt;br&gt;Location: 10854 - 11142&lt;br&gt;&lt;br&gt;&lt;b&gt;BlastP hit with ctg2_74&lt;/b&gt;&lt;br&gt;Percentage identity: 92&lt;br&gt;Percentage coverage: 100&lt;br&gt;BLAST bit score: 181&lt;br&gt;E-value: 4.16e-63" locus_tag="STM2464" class="clusterblast-orf" id="dummy-1_h1_1_10"  />
</g>
<g id="a1_0011"  >
<polygon points="436,85 441,80 442,80 442,90 441,90 436,85 " style="fill:#77d815; stroke-width:1; stroke:black; " description="&lt;b&gt;STM2465&lt;/b&gt;&lt;br&gt;carboxysome structural protein EutM&lt;br&gt;Location: 11254 - 11545&lt;br&gt;&lt;br&gt;&lt;b&gt;BlastP hit with ctg2_64&lt;/b&gt;&lt;br&gt;Percentage identity: 48&lt;br&gt;Percentage coverage: 50&lt;br&gt;BLAST bit score: 75&lt;br&gt;E-value: 4.5e-20&lt;br&gt;&lt;br&gt;&lt;b&gt;BlastP hit with ctg2_75&lt;/b&gt;&lt;br&gt;Percentage identity: 97&lt;br&gt;Percentage coverage: 98&lt;br&gt;BLAST bit score: 171&lt;br&gt;E-value: 2.14e-59" locus_tag="STM2465" class="clusterblast-orf" id="dummy-1_h1_1_11"  />
</g>
<g id="a1_0012"  >
<polygon points="443,85 448,80 466,80 466,90 448,90 443,85 " style="fill:#d815a7; stroke-width:1; stroke:black; " description="&lt;b&gt;STM2466&lt;/b&gt;&lt;br&gt;phosphotransacetylase EutD&lt;br&gt;Location: 11585 - 12602&lt;br&gt;&lt;br&gt;&lt;b&gt;BlastP hit with ctg2_76&lt;/b&gt;&lt;br&gt;Percentage identity: 89&lt;br&gt;Percentage coverage: 100&lt;br&gt;BLAST bit score: 584&lt;br&gt;E-value: 1.01e-214&lt;br&gt;&lt;br&gt;&lt;b&gt;BlastP hit with ctg2_81&lt;/b&gt;&lt;br&gt;Percentage identity: 35&lt;br&gt;Percentage coverage: 43&lt;br&gt;BLAST bit score: 166&lt;br&gt;E-value: 1.56e-47" locus_tag="STM2466" class="clusterblast-orf" id="dummy-1_h1_1_12"  />
</g>
<g id="a1_0013"  >
<polygon points="466,85 471,80 484,80 484,90 471,90 466,85 " style="fill:#c0d815; stroke-width:1; stroke:black; " description="&lt;b&gt;STM2467&lt;/b&gt;&lt;br&gt;cobalamin adenosyltransferase EutT&lt;br&gt;Location: 12598 - 13402&lt;br&gt;&lt;br&gt;&lt;b&gt;BlastP hit with ctg2_77&lt;/b&gt;&lt;br&gt;Percentage identity: 88&lt;br&gt;Percentage coverage: 99&lt;br&gt;BLAST bit score: 468&lt;br&gt;E-value: 3.17e-171" locus_tag="STM2467" class="clusterblast-orf" id="dummy-1_h1_1_13"  />
</g>
<g id="a1_0014"  >
<polygon points="484,85 489,80 499,80 499,90 489,90 484,85 " style="fill:#15d88f; stroke-width:1; stroke:black; " description="&lt;b&gt;STM2468&lt;/b&gt;&lt;br&gt;ethanolamine utilization protein EutQ&lt;br&gt;Location: 13398 - 14088&lt;br&gt;&lt;br&gt;&lt;b&gt;BlastP hit with ctg2_78&lt;/b&gt;&lt;br&gt;Percentage identity: 87&lt;br&gt;Percentage coverage: 100&lt;br&gt;BLAST bit score: 399&lt;br&gt;E-value: 5.53e-145" locus_tag="STM2468" class="clusterblast-orf" id="dummy-1_h1_1_14"  />
</g>
<g id="a1_0015"  >
<polygon points="499,85 504,80 509,80 509,90 504,90 499,85 " style="fill:#2e15d8; stroke-width:1; stroke:black; " description="&lt;b&gt;STM2469&lt;/b&gt;&lt;br&gt;ethanolamine utilization protein EutP&lt;br&gt;Location: 14065 - 14545&lt;br&gt;&lt;br&gt;&lt;b&gt;BlastP hit with ctg2_79&lt;/b&gt;&lt;br&gt;Percentage identity: 86&lt;br&gt;Percentage coverage: 100&lt;br&gt;BLAST bit score: 275&lt;br&gt;E-value: 2.88e-98" locus_tag="STM2469" class="clusterblast-orf" id="dummy-1_h1_1_15"  />
</g>
<g id="a1_0016"  >
<polygon points="510,85 515,80 517,80 517,90 515,90 510,85 " style="fill:#d8155e; stroke-width:1; stroke:black; " description="&lt;b&gt;STM2470&lt;/b&gt;&lt;br&gt;carboxysome structural protein EutS&lt;br&gt;Location: 14557 - 14893&lt;br&gt;&lt;br&gt;&lt;b&gt;BlastP hit with ctg2_80&lt;/b&gt;&lt;br&gt;Percentage identity: 95&lt;br&gt;Percentage coverage: 100&lt;br&gt;BLAST bit score: 211&lt;br&gt;E-value: 1.69e-74" locus_tag="STM2470" class="clusterblast-orf" id="dummy-1_h1_1_16"  />
</g>
<g id="a1_0017"  >
<polygon points="528,85 533,80 538,80 538,90 533,90 528,85 " style="fill:white; stroke-width:1; stroke:black; " description="&lt;b&gt;STM2471&lt;/b&gt;&lt;br&gt;insertion sequence element IS200 transposase&lt;br&gt;Location: 15373 - 15832" locus_tag="STM2471" class="clusterblast-orf" id="dummy-1_h1_1_17"  />
</g>
<g id="a1_0018"  >
<polygon points="542,85 547,80 593,80 593,90 547,90 542,85 " style="fill:#d815a7; stroke-width:1; stroke:black; " description="&lt;b&gt;STM2472&lt;/b&gt;&lt;br&gt;malic enzyme&lt;br&gt;Location: 16021 - 18301&lt;br&gt;&lt;br&gt;&lt;b&gt;BlastP hit with ctg2_76&lt;/b&gt;&lt;br&gt;Percentage identity: 32&lt;br&gt;Percentage coverage: 96&lt;br&gt;BLAST bit score: 141&lt;br&gt;E-value: 4.37e-39&lt;br&gt;&lt;br&gt;&lt;b&gt;BlastP hit with ctg2_81&lt;/b&gt;&lt;br&gt;Percentage identity: 94&lt;br&gt;Percentage coverage: 100&lt;br&gt;BLAST bit score: 1397&lt;br&gt;E-value: 0.0" locus_tag="STM2472" class="clusterblast-orf" id="dummy-1_h1_1_18"  />
</g>
</svg>
