<svg xmlns="http://www.w3.org/2000/svg" xmlns:xlink="http://www.w3.org/1999/xlink" version="1.1" x="0" y="0" height="100" width="800" viewBox="0 0 800 100" preserveAspectRatio="none"  >
<g label="Query sequence" class="clusterblast-cluster"  >
<text x="5" y="20" class="clusterblast-acc"  >
Query sequence</text>
<line x1="10" y1="35" x2="778.0" y2="35" style="stroke-width:1; stroke:grey; "  />
<polygon points="0,35 5,30 30,30 30,40 5,40 0,35 " style="fill:white; stroke-width:1; stroke:black; " description="&lt;b&gt;ctg40_12&lt;/b&gt;&lt;br&gt;ctg40 12&lt;br&gt;Location: 14937 - 15975" locus_tag="ctg40_12" class="clusterblast-orf" id="knownclusterblast-1_q0_0_all"  />
<polygon points="40,40 79,40 84,35 79,30 40,30 40,40 " style="fill:white; stroke-width:1; stroke:black; " description="&lt;b&gt;ctg40_13&lt;/b&gt;&lt;br&gt;ctg40 13&lt;br&gt;Location: 16304 - 17816" locus_tag="ctg40_13" class="clusterblast-orf" id="knownclusterblast-1_q1_0_all"  />
<polygon points="92,40 100,40 105,35 100,30 92,30 92,40 " style="fill:white; stroke-width:1; stroke:black; " description="&lt;b&gt;ctg40_14&lt;/b&gt;&lt;br&gt;ctg40 14&lt;br&gt;Location: 18073 - 18517" locus_tag="ctg40_14" class="clusterblast-orf" id="knownclusterblast-1_q2_0_all"  />
<polygon points="105,40 159,40 164,35 159,30 105,30 105,40 " style="fill:white; stroke-width:1; stroke:black; " description="&lt;b&gt;ctg40_15&lt;/b&gt;&lt;br&gt;ctg40 15&lt;br&gt;Location: 18516 - 20520" locus_tag="ctg40_15" class="clusterblast-orf" id="knownclusterblast-1_q3_0_all"  />
<polygon points="163,40 183,40 188,35 183,30 163,30 163,40 " style="fill:white; stroke-width:1; stroke:black; " description="&lt;b&gt;ctg40_16&lt;/b&gt;&lt;br&gt;ctg40 16&lt;br&gt;Location: 20516 - 21371" locus_tag="ctg40_16" class="clusterblast-orf" id="knownclusterblast-1_q4_0_all"  />
<polygon points="193,35 198,30 228,30 228,40 198,40 193,35 " style="fill:white; stroke-width:1; stroke:black; " description="&lt;b&gt;ctg40_17&lt;/b&gt;&lt;br&gt;ctg40 17&lt;br&gt;Location: 21533 - 22721" locus_tag="ctg40_17" class="clusterblast-orf" id="knownclusterblast-1_q5_0_all"  />
<polygon points="234,40 243,40 248,35 243,30 234,30 234,40 " style="fill:white; stroke-width:1; stroke:black; " description="&lt;b&gt;ctg40_18&lt;/b&gt;&lt;br&gt;ctg40 18&lt;br&gt;Location: 22913 - 23417" locus_tag="ctg40_18" class="clusterblast-orf" id="knownclusterblast-1_q6_0_all"  />
<polygon points="257,35 262,30 269,30 269,40 262,40 257,35 " style="fill:white; stroke-width:1; stroke:black; " description="&lt;b&gt;ctg40_19&lt;/b&gt;&lt;br&gt;ctg40 19&lt;br&gt;Location: 23716 - 24133" locus_tag="ctg40_19" class="clusterblast-orf" id="knownclusterblast-1_q7_0_all"  />
<polygon points="274,40 299,40 304,35 299,30 274,30 274,40 " style="fill:#d81515; stroke-width:1; stroke:black; " description="&lt;b&gt;ctg40_20&lt;/b&gt;&lt;br&gt;ctg40 20&lt;br&gt;Location: 24294 - 25299" locus_tag="ctg40_20" class="clusterblast-orf" id="knownclusterblast-1_q8_0_all"  />
<polygon points="305,35 310,30 318,30 318,40 310,40 305,35 " style="fill:white; stroke-width:1; stroke:black; " description="&lt;b&gt;ctg40_21&lt;/b&gt;&lt;br&gt;ctg40 21&lt;br&gt;Location: 25343 - 25796" locus_tag="ctg40_21" class="clusterblast-orf" id="knownclusterblast-1_q9_0_all"  />
<polygon points="338,40 369,40 374,35 369,30 338,30 338,40 " style="fill:#15d815; stroke-width:1; stroke:black; " description="&lt;b&gt;ctg40_22&lt;/b&gt;&lt;br&gt;ctg40 22&lt;br&gt;Location: 26473 - 27694" locus_tag="ctg40_22" class="clusterblast-orf" id="knownclusterblast-1_q10_0_all"  />
<polygon points="374,40 397,40 402,35 397,30 374,30 374,40 " style="fill:#1515d8; stroke-width:1; stroke:black; " description="&lt;b&gt;ctg40_23&lt;/b&gt;&lt;br&gt;ctg40 23&lt;br&gt;Location: 27704 - 28649" locus_tag="ctg40_23" class="clusterblast-orf" id="knownclusterblast-1_q11_0_all"  />
<polygon points="402,40 427,40 432,35 427,30 402,30 402,40 " style="fill:#d81515; stroke-width:1; stroke:black; " description="&lt;b&gt;ctg40_24&lt;/b&gt;&lt;br&gt;ctg40 24&lt;br&gt;Location: 28659 - 29664" locus_tag="ctg40_24" class="clusterblast-orf" id="knownclusterblast-1_q12_0_all"  />
<polygon points="433,40 470,40 475,35 470,30 433,30 433,40 " style="fill:white; stroke-width:1; stroke:black; " description="&lt;b&gt;ctg40_25&lt;/b&gt;&lt;br&gt;ctg40 25&lt;br&gt;Location: 29720 - 31124" locus_tag="ctg40_25" class="clusterblast-orf" id="knownclusterblast-1_q13_0_all"  />
<polygon points="478,40 487,40 492,35 487,30 478,30 478,40 " style="fill:white; stroke-width:1; stroke:black; " description="&lt;b&gt;ctg40_26&lt;/b&gt;&lt;br&gt;ctg40 26&lt;br&gt;Location: 31239 - 31728" locus_tag="ctg40_26" class="clusterblast-orf" id="knownclusterblast-1_q14_0_all"  />
<polygon points="495,40 497,40 502,35 497,30 495,30 495,40 " style="fill:white; stroke-width:1; stroke:black; " description="&lt;b&gt;ctg40_27&lt;/b&gt;&lt;br&gt;ctg40 27&lt;br&gt;Location: 31817 - 32075" locus_tag="ctg40_27" class="clusterblast-orf" id="knownclusterblast-1_q15_0_all"  />
<polygon points="502,40 525,40 530,35 525,30 502,30 502,40 " style="fill:white; stroke-width:1; stroke:black; " description="&lt;b&gt;ctg40_28&lt;/b&gt;&lt;br&gt;ctg40 28&lt;br&gt;Location: 32067 - 33003" locus_tag="ctg40_28" class="clusterblast-orf" id="knownclusterblast-1_q16_0_all"  />
<polygon points="530,40 539,40 544,35 539,30 530,30 530,40 " style="fill:white; stroke-width:1; stroke:black; " description="&lt;b&gt;ctg40_29&lt;/b&gt;&lt;br&gt;ctg40 29&lt;br&gt;Location: 33015 - 33477" locus_tag="ctg40_29" class="clusterblast-orf" id="knownclusterblast-1_q17_0_all"  />
<polygon points="549,40 556,40 561,35 556,30 549,30 549,40 " style="fill:white; stroke-width:1; stroke:black; " description="&lt;b&gt;ctg40_30&lt;/b&gt;&lt;br&gt;ctg40 30&lt;br&gt;Location: 33674 - 34061" locus_tag="ctg40_30" class="clusterblast-orf" id="knownclusterblast-1_q18_0_all"  />
<polygon points="567,35 572,30 646,30 646,40 572,40 567,35 " style="fill:white; stroke-width:1; stroke:black; " description="&lt;b&gt;ctg40_31&lt;/b&gt;&lt;br&gt;ctg40 31&lt;br&gt;Location: 34266 - 36963" locus_tag="ctg40_31" class="clusterblast-orf" id="knownclusterblast-1_q19_0_all"  />
<polygon points="657,40 680,40 685,35 680,30 657,30 657,40 " style="fill:white; stroke-width:1; stroke:black; " description="&lt;b&gt;ctg40_32&lt;/b&gt;&lt;br&gt;ctg40 32&lt;br&gt;Location: 37341 - 38289" locus_tag="ctg40_32" class="clusterblast-orf" id="knownclusterblast-1_q20_0_all"  />
<polygon points="688,40 725,40 730,35 725,30 688,30 688,40 " style="fill:white; stroke-width:1; stroke:black; " description="&lt;b&gt;ctg40_33&lt;/b&gt;&lt;br&gt;ctg40 33&lt;br&gt;Location: 38407 - 39829" locus_tag="ctg40_33" class="clusterblast-orf" id="knownclusterblast-1_q21_0_all"  />
<polygon points="731,40 775,40 780,35 775,30 731,30 731,40 " style="fill:white; stroke-width:1; stroke:black; " description="&lt;b&gt;ctg40_34&lt;/b&gt;&lt;br&gt;ctg40 34&lt;br&gt;Location: 39878 - 41534" locus_tag="ctg40_34" class="clusterblast-orf" id="knownclusterblast-1_q22_0_all"  />
</g>
<g label="MGC00000023" description="MGC00000023_c1: Arginine to hydrogen carbonate P. aeruginosa (100% of genes show similarity), ARG" class="clusterblast-cluster"  >
<text x="5" y="70" class="clusterblast-acc"  >
MGC00000023_c1: Arginine to hydrogen carbonate P. aeruginosa (100% of genes show similarity), ARG</text>
<line x1="10" y1="85" x2="778.0" y2="85" style="stroke-width:1; stroke:grey; "  />
</g>
<g id="a1_000"  >
<polygon points="341,90 372,90 377,85 372,80 341,80 341,90 " style="fill:#15d815; stroke-width:1; stroke:black; " description="&lt;b&gt;BGV84_RS26785&lt;/b&gt;&lt;br&gt;arginine deiminase&lt;br&gt;Location: 10000 - 11257&lt;br&gt;&lt;br&gt;&lt;b&gt;BlastP hit with ctg40_22&lt;/b&gt;&lt;br&gt;Percentage identity: 47&lt;br&gt;Percentage coverage: 100&lt;br&gt;BLAST bit score: 375&lt;br&gt;E-value: 3.41e-130" locus_tag="BGV84_RS26785" class="clusterblast-orf" id="knownclusterblast-1_all_1_1_0"  />
</g>
<g id="a1_001"  >
<polygon points="380,90 404,90 409,85 404,80 380,80 380,90 " style="fill:#d81515; stroke-width:1; stroke:black; " description="&lt;b&gt;BGV84_RS26790&lt;/b&gt;&lt;br&gt;ornithine carbamoyltransferase&lt;br&gt;Location: 11336 - 12347&lt;br&gt;&lt;br&gt;&lt;b&gt;BlastP hit with ctg40_20&lt;/b&gt;&lt;br&gt;Percentage identity: 60&lt;br&gt;Percentage coverage: 99&lt;br&gt;BLAST bit score: 398&lt;br&gt;E-value: 1.74e-141&lt;br&gt;&lt;br&gt;&lt;b&gt;BlastP hit with ctg40_24&lt;/b&gt;&lt;br&gt;Percentage identity: 63&lt;br&gt;Percentage coverage: 101&lt;br&gt;BLAST bit score: 439&lt;br&gt;E-value: 1.93e-157" locus_tag="BGV84_RS26790" class="clusterblast-orf" id="knownclusterblast-1_all_1_1_1"  />
</g>
<g id="a1_002"  >
<polygon points="411,90 433,90 438,85 433,80 411,80 411,90 " style="fill:#1515d8; stroke-width:1; stroke:black; " description="&lt;b&gt;BGV84_RS26795&lt;/b&gt;&lt;br&gt;carbamate kinase&lt;br&gt;Location: 12407 - 13340&lt;br&gt;&lt;br&gt;&lt;b&gt;BlastP hit with ctg40_23&lt;/b&gt;&lt;br&gt;Percentage identity: 54&lt;br&gt;Percentage coverage: 95&lt;br&gt;BLAST bit score: 312&lt;br&gt;E-value: 2.33e-108" locus_tag="BGV84_RS26795" class="clusterblast-orf" id="knownclusterblast-1_all_1_1_2"  />
</g>
</svg>
