<svg xmlns="http://www.w3.org/2000/svg" xmlns:xlink="http://www.w3.org/1999/xlink" version="1.1" x="0" y="0" height="100" width="800" viewBox="0 0 800 100" preserveAspectRatio="none"  >
<g label="Query sequence" class="clusterblast-cluster"  >
<text x="5" y="20" class="clusterblast-acc"  >
Query sequence</text>
<line x1="10" y1="35" x2="778.0" y2="35" style="stroke-width:1; stroke:grey; "  />
<polygon points="0,35 5,30 20,30 20,40 5,40 0,35 " style="fill:white; stroke-width:1; stroke:black; " description="&lt;b&gt;ctg9_1&lt;/b&gt;&lt;br&gt;ctg9 1&lt;br&gt;Location: 285 - 903" locus_tag="ctg9_1" class="clusterblast-orf" id="knownclusterblast-1_q0_0_all"  />
<polygon points="39,40 48,40 53,35 48,30 39,30 39,40 " style="fill:white; stroke-width:1; stroke:black; " description="&lt;b&gt;ctg9_2&lt;/b&gt;&lt;br&gt;ctg9 2&lt;br&gt;Location: 1506 - 1920" locus_tag="ctg9_2" class="clusterblast-orf" id="knownclusterblast-1_q1_0_all"  />
<polygon points="60,35 65,30 90,30 90,40 65,40 60,35 " style="fill:white; stroke-width:1; stroke:black; " description="&lt;b&gt;ctg9_3&lt;/b&gt;&lt;br&gt;ctg9 3&lt;br&gt;Location: 2167 - 3076" locus_tag="ctg9_3" class="clusterblast-orf" id="knownclusterblast-1_q2_0_all"  />
<polygon points="96,35 101,30 129,30 129,40 101,40 96,35 " style="fill:white; stroke-width:1; stroke:black; " description="&lt;b&gt;ctg9_4&lt;/b&gt;&lt;br&gt;ctg9 4&lt;br&gt;Location: 3277 - 4291" locus_tag="ctg9_4" class="clusterblast-orf" id="knownclusterblast-1_q3_0_all"  />
<polygon points="132,35 137,30 162,30 162,40 137,40 132,35 " style="fill:white; stroke-width:1; stroke:black; " description="&lt;b&gt;ctg9_5&lt;/b&gt;&lt;br&gt;ctg9 5&lt;br&gt;Location: 4382 - 5327" locus_tag="ctg9_5" class="clusterblast-orf" id="knownclusterblast-1_q4_0_all"  />
<polygon points="165,40 174,40 179,35 174,30 165,30 165,40 " style="fill:white; stroke-width:1; stroke:black; " description="&lt;b&gt;ctg9_6&lt;/b&gt;&lt;br&gt;ctg9 6&lt;br&gt;Location: 5400 - 5859" locus_tag="ctg9_6" class="clusterblast-orf" id="knownclusterblast-1_q5_0_all"  />
<polygon points="181,40 203,40 208,35 203,30 181,30 181,40 " style="fill:white; stroke-width:1; stroke:black; " description="&lt;b&gt;ctg9_7&lt;/b&gt;&lt;br&gt;ctg9 7&lt;br&gt;Location: 5908 - 6751" locus_tag="ctg9_7" class="clusterblast-orf" id="knownclusterblast-1_q6_0_all"  />
<polygon points="235,40 269,40 274,35 269,30 235,30 235,40 " style="fill:white; stroke-width:1; stroke:black; " description="&lt;b&gt;ctg9_8&lt;/b&gt;&lt;br&gt;ctg9 8&lt;br&gt;Location: 7576 - 8776" locus_tag="ctg9_8" class="clusterblast-orf" id="knownclusterblast-1_q7_0_all"  />
<polygon points="275,35 280,30 297,30 297,40 280,40 275,35 " style="fill:#d81515; stroke-width:1; stroke:black; " description="&lt;b&gt;ctg9_9&lt;/b&gt;&lt;br&gt;ctg9 9&lt;br&gt;Location: 8828 - 9506" locus_tag="ctg9_9" class="clusterblast-orf" id="knownclusterblast-1_q8_0_all"  />
<polygon points="297,35 302,30 320,30 320,40 302,40 297,35 " style="fill:#77d815; stroke-width:1; stroke:black; " description="&lt;b&gt;ctg9_10&lt;/b&gt;&lt;br&gt;ctg9 10&lt;br&gt;Location: 9505 - 10216" locus_tag="ctg9_10" class="clusterblast-orf" id="knownclusterblast-1_q9_0_all"  />
<polygon points="320,35 325,30 369,30 369,40 325,40 320,35 " style="fill:#15d8d8; stroke-width:1; stroke:black; " description="&lt;b&gt;ctg9_11&lt;/b&gt;&lt;br&gt;ctg9 11&lt;br&gt;Location: 10212 - 11751" locus_tag="ctg9_11" class="clusterblast-orf" id="knownclusterblast-1_q10_0_all"  />
<polygon points="369,35 374,30 490,30 490,40 374,40 369,35 " style="fill:#7715d8; stroke-width:1; stroke:black; " description="&lt;b&gt;ctg9_12&lt;/b&gt;&lt;br&gt;ctg9 12&lt;br&gt;Location: 11747 - 15491" locus_tag="ctg9_12" class="clusterblast-orf" id="knownclusterblast-1_q11_0_all"  />
<polygon points="503,35 508,30 547,30 547,40 508,40 503,35 " style="fill:white; stroke-width:1; stroke:black; " description="&lt;b&gt;ctg9_13&lt;/b&gt;&lt;br&gt;ctg9 13&lt;br&gt;Location: 15883 - 17275" locus_tag="ctg9_13" class="clusterblast-orf" id="knownclusterblast-1_q12_0_all"  />
<polygon points="551,35 556,30 558,30 558,40 556,40 551,35 " style="fill:white; stroke-width:1; stroke:black; " description="&lt;b&gt;ctg9_14&lt;/b&gt;&lt;br&gt;ctg9 14&lt;br&gt;Location: 17369 - 17588" locus_tag="ctg9_14" class="clusterblast-orf" id="knownclusterblast-1_q13_0_all"  />
<polygon points="558,40 611,40 616,35 611,30 558,30 558,40 " style="fill:white; stroke-width:1; stroke:black; " description="&lt;b&gt;ctg9_15&lt;/b&gt;&lt;br&gt;ctg9 15&lt;br&gt;Location: 17613 - 19410" locus_tag="ctg9_15" class="clusterblast-orf" id="knownclusterblast-1_q14_0_all"  />
<polygon points="616,40 632,40 637,35 632,30 616,30 616,40 " style="fill:white; stroke-width:1; stroke:black; " description="&lt;b&gt;ctg9_16&lt;/b&gt;&lt;br&gt;ctg9 16&lt;br&gt;Location: 19402 - 20053" locus_tag="ctg9_16" class="clusterblast-orf" id="knownclusterblast-1_q15_0_all"  />
<polygon points="637,35 642,30 682,30 682,40 642,40 637,35 " style="fill:white; stroke-width:1; stroke:black; " description="&lt;b&gt;ctg9_17&lt;/b&gt;&lt;br&gt;ctg9 17&lt;br&gt;Location: 20053 - 21448" locus_tag="ctg9_17" class="clusterblast-orf" id="knownclusterblast-1_q16_0_all"  />
<polygon points="688,40 694,40 699,35 694,30 688,30 688,40 " style="fill:white; stroke-width:1; stroke:black; " description="&lt;b&gt;ctg9_18&lt;/b&gt;&lt;br&gt;ctg9 18&lt;br&gt;Location: 21632 - 21986" locus_tag="ctg9_18" class="clusterblast-orf" id="knownclusterblast-1_q17_0_all"  />
<polygon points="701,35 706,30 724,30 724,40 706,40 701,35 " style="fill:white; stroke-width:1; stroke:black; " description="&lt;b&gt;ctg9_19&lt;/b&gt;&lt;br&gt;ctg9 19&lt;br&gt;Location: 22029 - 22746" locus_tag="ctg9_19" class="clusterblast-orf" id="knownclusterblast-1_q18_0_all"  />
<polygon points="728,35 733,30 736,30 736,40 733,40 728,35 " style="fill:white; stroke-width:1; stroke:black; " description="&lt;b&gt;ctg9_20&lt;/b&gt;&lt;br&gt;ctg9 20&lt;br&gt;Location: 22882 - 23113" locus_tag="ctg9_20" class="clusterblast-orf" id="knownclusterblast-1_q19_0_all"  />
<polygon points="744,40 775,40 780,35 775,30 744,30 744,40 " style="fill:white; stroke-width:1; stroke:black; " description="&lt;b&gt;ctg9_21&lt;/b&gt;&lt;br&gt;ctg9 21&lt;br&gt;Location: 23382 - 24483" locus_tag="ctg9_21" class="clusterblast-orf" id="knownclusterblast-1_q20_0_all"  />
</g>
<g label="MGC00000045" description="MGC00000045_c1: Nitrate reductase E. coli (80% of genes show similarity), NIR" class="clusterblast-cluster"  >
<text x="5" y="70" class="clusterblast-acc"  >
MGC00000045_c1: Nitrate reductase E. coli (80% of genes show similarity), NIR</text>
<line x1="10" y1="85" x2="778.0" y2="85" style="stroke-width:1; stroke:grey; "  />
</g>
<g id="a1_000"  >
<polygon points="127,85 132,80 149,80 149,90 132,90 127,85 " style="fill:#d81515; stroke-width:1; stroke:black; " description="&lt;b&gt;b1227&lt;/b&gt;&lt;br&gt;nitrate reductase A subunit gamma&lt;br&gt;Location: 16289 - 15611&lt;br&gt;&lt;br&gt;&lt;b&gt;BlastP hit with ctg9_9&lt;/b&gt;&lt;br&gt;Percentage identity: 100&lt;br&gt;Percentage coverage: 100&lt;br&gt;BLAST bit score: 449&lt;br&gt;E-value: 2.62e-165" locus_tag="b1227" class="clusterblast-orf" id="knownclusterblast-1_all_1_1_0"  />
</g>
<g id="a1_001"  >
<polygon points="149,85 154,80 172,80 172,90 154,90 149,85 " style="fill:#77d815; stroke-width:1; stroke:black; " description="&lt;b&gt;b1226&lt;/b&gt;&lt;br&gt;nitrate reductase 1 molybdenum cofactor assembly chaperone&lt;br&gt;Location: 15612 - 14901&lt;br&gt;&lt;br&gt;&lt;b&gt;BlastP hit with ctg9_10&lt;/b&gt;&lt;br&gt;Percentage identity: 100&lt;br&gt;Percentage coverage: 100&lt;br&gt;BLAST bit score: 460&lt;br&gt;E-value: 4.67e-169" locus_tag="b1226" class="clusterblast-orf" id="knownclusterblast-1_all_1_1_1"  />
</g>
<g id="a1_002"  >
<polygon points="172,85 177,80 221,80 221,90 177,90 172,85 " style="fill:#15d8d8; stroke-width:1; stroke:black; " description="&lt;b&gt;b1225&lt;/b&gt;&lt;br&gt;nitrate reductase A subunit beta&lt;br&gt;Location: 14905 - 13366&lt;br&gt;&lt;br&gt;&lt;b&gt;BlastP hit with ctg9_11&lt;/b&gt;&lt;br&gt;Percentage identity: 100&lt;br&gt;Percentage coverage: 100&lt;br&gt;BLAST bit score: 1067&lt;br&gt;E-value: 0.0" locus_tag="b1225" class="clusterblast-orf" id="knownclusterblast-1_all_1_1_2"  />
</g>
<g id="a1_003"  >
<polygon points="221,85 226,80 342,80 342,90 226,90 221,85 " style="fill:#7715d8; stroke-width:1; stroke:black; " description="&lt;b&gt;b1224&lt;/b&gt;&lt;br&gt;nitrate reductase A subunit alpha&lt;br&gt;Location: 13370 - 9626&lt;br&gt;&lt;br&gt;&lt;b&gt;BlastP hit with ctg9_12&lt;/b&gt;&lt;br&gt;Percentage identity: 100&lt;br&gt;Percentage coverage: 100&lt;br&gt;BLAST bit score: 2594&lt;br&gt;E-value: 0.0" locus_tag="b1224" class="clusterblast-orf" id="knownclusterblast-1_all_1_1_3"  />
</g>
<g id="a1_004"  >
<polygon points="649,90 652,85 649,80 649,90 " style="fill:white; stroke-width:1; stroke:black; " description="&lt;b&gt;b4423&lt;/b&gt;&lt;br&gt;small toxic polypeptide LdrC&lt;br&gt;Location: 108 - 0" locus_tag="b4423" class="clusterblast-orf" id="knownclusterblast-1_all_1_1_4"  />
</g>
</svg>
