<svg xmlns="http://www.w3.org/2000/svg" xmlns:xlink="http://www.w3.org/1999/xlink" version="1.1" x="0" y="0" height="230" width="800" viewBox="0 0 800 230" preserveAspectRatio="none"  >
<g label="Query sequence" class="clusterblast-cluster"  >
<text x="5" y="20" class="clusterblast-acc"  >
Query sequence</text>
<line x1="10" y1="35" x2="778.0" y2="35" style="stroke-width:1; stroke:grey; "  />
<polygon points="0,40 40,40 45,35 40,30 0,30 0,40 " style="fill:white; stroke-width:1; stroke:black; " description="&lt;b&gt;ctg47_26&lt;/b&gt;&lt;br&gt;ctg47 26&lt;br&gt;Location: 29324 - 30674" locus_tag="ctg47_26" class="clusterblast-orf" id="dummy-1_q0_0_all"  />
<polygon points="44,40 69,40 74,35 69,30 44,30 44,40 " style="fill:white; stroke-width:1; stroke:black; " description="&lt;b&gt;ctg47_27&lt;/b&gt;&lt;br&gt;ctg47 27&lt;br&gt;Location: 30663 - 31551" locus_tag="ctg47_27" class="clusterblast-orf" id="dummy-1_q1_0_all"  />
<polygon points="79,40 94,40 99,35 94,30 79,30 79,40 " style="fill:white; stroke-width:1; stroke:black; " description="&lt;b&gt;ctg47_28&lt;/b&gt;&lt;br&gt;ctg47 28&lt;br&gt;Location: 31691 - 32291" locus_tag="ctg47_28" class="clusterblast-orf" id="dummy-1_q2_0_all"  />
<polygon points="99,40 123,40 128,35 123,30 99,30 99,40 " style="fill:white; stroke-width:1; stroke:black; " description="&lt;b&gt;ctg47_29&lt;/b&gt;&lt;br&gt;ctg47 29&lt;br&gt;Location: 32284 - 33157" locus_tag="ctg47_29" class="clusterblast-orf" id="dummy-1_q3_0_all"  />
<polygon points="127,40 137,40 142,35 137,30 127,30 127,40 " style="fill:white; stroke-width:1; stroke:black; " description="&lt;b&gt;ctg47_30&lt;/b&gt;&lt;br&gt;ctg47 30&lt;br&gt;Location: 33153 - 33591" locus_tag="ctg47_30" class="clusterblast-orf" id="dummy-1_q4_0_all"  />
<polygon points="144,40 170,40 175,35 170,30 144,30 144,40 " style="fill:white; stroke-width:1; stroke:black; " description="&lt;b&gt;ctg47_31&lt;/b&gt;&lt;br&gt;ctg47 31&lt;br&gt;Location: 33635 - 34577" locus_tag="ctg47_31" class="clusterblast-orf" id="dummy-1_q5_0_all"  />
<polygon points="177,35 182,30 207,30 207,40 182,40 177,35 " style="fill:white; stroke-width:1; stroke:black; " description="&lt;b&gt;ctg47_32&lt;/b&gt;&lt;br&gt;ctg47 32&lt;br&gt;Location: 34640 - 35549" locus_tag="ctg47_32" class="clusterblast-orf" id="dummy-1_q6_0_all"  />
<polygon points="225,40 230,40 235,35 230,30 225,30 225,40 " style="fill:white; stroke-width:1; stroke:black; " description="&lt;b&gt;ctg47_33&lt;/b&gt;&lt;br&gt;ctg47 33&lt;br&gt;Location: 36089 - 36380" locus_tag="ctg47_33" class="clusterblast-orf" id="dummy-1_q7_0_all"  />
<polygon points="255,40 258,40 263,35 258,30 255,30 255,40 " style="fill:white; stroke-width:1; stroke:black; " description="&lt;b&gt;ctg47_34&lt;/b&gt;&lt;br&gt;ctg47 34&lt;br&gt;Location: 36984 - 37203" locus_tag="ctg47_34" class="clusterblast-orf" id="dummy-1_q8_0_all"  />
<polygon points="270,35 275,30 301,30 301,40 275,40 270,35 " style="fill:white; stroke-width:1; stroke:black; " description="&lt;b&gt;ctg47_35&lt;/b&gt;&lt;br&gt;ctg47 35&lt;br&gt;Location: 37417 - 38347" locus_tag="ctg47_35" class="clusterblast-orf" id="dummy-1_q9_0_all"  />
<polygon points="301,35 306,30 322,30 322,40 306,40 301,35 " style="fill:#d81515; stroke-width:1; stroke:black; " description="&lt;b&gt;ctg47_36&lt;/b&gt;&lt;br&gt;ctg47 36&lt;br&gt;Location: 38343 - 38979" locus_tag="ctg47_36" class="clusterblast-orf" id="dummy-1_q10_0_all"  />
<polygon points="322,35 327,30 355,30 355,40 327,40 322,35 " style="fill:#15d815; stroke-width:1; stroke:black; " description="&lt;b&gt;ctg47_37&lt;/b&gt;&lt;br&gt;ctg47 37&lt;br&gt;Location: 38975 - 39968" locus_tag="ctg47_37" class="clusterblast-orf" id="dummy-1_q11_0_all"  />
<polygon points="355,35 360,30 436,30 436,40 360,40 355,35 " style="fill:#1515d8; stroke-width:1; stroke:black; " description="&lt;b&gt;ctg47_38&lt;/b&gt;&lt;br&gt;ctg47 38&lt;br&gt;Location: 39980 - 42395" locus_tag="ctg47_38" class="clusterblast-orf" id="dummy-1_q12_0_all"  />
<polygon points="437,35 442,30 457,30 457,40 442,40 437,35 " style="fill:#1515d8; stroke-width:1; stroke:black; " description="&lt;b&gt;ctg47_39&lt;/b&gt;&lt;br&gt;ctg47 39&lt;br&gt;Location: 42443 - 43031" locus_tag="ctg47_39" class="clusterblast-orf" id="dummy-1_q13_0_all"  />
<polygon points="463,40 486,40 491,35 486,30 463,30 463,40 " style="fill:white; stroke-width:1; stroke:black; " description="&lt;b&gt;ctg47_40&lt;/b&gt;&lt;br&gt;ctg47 40&lt;br&gt;Location: 43224 - 44058" locus_tag="ctg47_40" class="clusterblast-orf" id="dummy-1_q14_0_all"  />
<polygon points="493,40 510,40 515,35 510,30 493,30 493,40 " style="fill:white; stroke-width:1; stroke:black; " description="&lt;b&gt;ctg47_41&lt;/b&gt;&lt;br&gt;ctg47 41&lt;br&gt;Location: 44107 - 44770" locus_tag="ctg47_41" class="clusterblast-orf" id="dummy-1_q15_0_all"  />
<polygon points="529,40 570,40 575,35 570,30 529,30 529,40 " style="fill:white; stroke-width:1; stroke:black; " description="&lt;b&gt;ctg47_42&lt;/b&gt;&lt;br&gt;ctg47 42&lt;br&gt;Location: 45190 - 46585" locus_tag="ctg47_42" class="clusterblast-orf" id="dummy-1_q16_0_all"  />
<polygon points="577,35 582,30 587,30 587,40 582,40 577,35 " style="fill:white; stroke-width:1; stroke:black; " description="&lt;b&gt;ctg47_43&lt;/b&gt;&lt;br&gt;ctg47 43&lt;br&gt;Location: 46625 - 46940" locus_tag="ctg47_43" class="clusterblast-orf" id="dummy-1_q17_0_all"  />
<polygon points="587,35 592,30 615,30 615,40 592,40 587,35 " style="fill:white; stroke-width:1; stroke:black; " description="&lt;b&gt;ctg47_44&lt;/b&gt;&lt;br&gt;ctg47 44&lt;br&gt;Location: 46949 - 47774" locus_tag="ctg47_44" class="clusterblast-orf" id="dummy-1_q18_0_all"  />
<polygon points="621,35 626,30 663,30 663,40 626,40 621,35 " style="fill:white; stroke-width:1; stroke:black; " description="&lt;b&gt;ctg47_45&lt;/b&gt;&lt;br&gt;ctg47 45&lt;br&gt;Location: 47948 - 49208" locus_tag="ctg47_45" class="clusterblast-orf" id="dummy-1_q19_0_all"  />
<polygon points="663,35 668,30 712,30 712,40 668,40 663,35 " style="fill:white; stroke-width:1; stroke:black; " description="&lt;b&gt;ctg47_46&lt;/b&gt;&lt;br&gt;ctg47 46&lt;br&gt;Location: 49204 - 50674" locus_tag="ctg47_46" class="clusterblast-orf" id="dummy-1_q20_0_all"  />
<polygon points="721,40 744,40 749,35 744,30 721,30 721,40 " style="fill:white; stroke-width:1; stroke:black; " description="&lt;b&gt;ctg47_47&lt;/b&gt;&lt;br&gt;ctg47 47&lt;br&gt;Location: 50961 - 51798" locus_tag="ctg47_47" class="clusterblast-orf" id="dummy-1_q21_0_all"  />
<polygon points="749,40 775,40 780,35 775,30 749,30 749,40 " style="fill:white; stroke-width:1; stroke:black; " description="&lt;b&gt;ctg47_48&lt;/b&gt;&lt;br&gt;ctg47 48&lt;br&gt;Location: 51781 - 52720" locus_tag="ctg47_48" class="clusterblast-orf" id="dummy-1_q22_0_all"  />
</g>
<g label="MGC00000049" description="MGC00000049_c1: Formate dehydrogenase E. coli (100% of genes show similarity), FORM" class="clusterblast-cluster"  >
<text x="5" y="70" class="clusterblast-acc"  >
MGC00000049_c1: Formate dehydrogenase E. coli (100% of genes show similarity), FORM</text>
<line x1="10" y1="85" x2="778.0" y2="85" style="stroke-width:1; stroke:grey; "  />
</g>
<g id="a1_000"  >
<polygon points="313,85 318,80 334,80 334,90 318,90 313,85 " style="fill:#d81515; stroke-width:1; stroke:black; " description="&lt;b&gt;b3892&lt;/b&gt;&lt;br&gt;formate dehydrogenase O subunit gamma&lt;br&gt;Location: 10000 - 10636&lt;br&gt;&lt;br&gt;&lt;b&gt;BlastP hit with ctg47_36&lt;/b&gt;&lt;br&gt;Percentage identity: 100&lt;br&gt;Percentage coverage: 100&lt;br&gt;BLAST bit score: 423&lt;br&gt;E-value: 2.96e-155" locus_tag="b3892" class="clusterblast-orf" id="dummy-1_h1_1_0"  />
</g>
<g id="a1_001"  >
<polygon points="334,85 339,80 364,80 364,90 339,90 334,85 " style="fill:#15d815; stroke-width:1; stroke:black; " description="&lt;b&gt;b3893&lt;/b&gt;&lt;br&gt;formate dehydrogenase O subunit beta&lt;br&gt;Location: 10632 - 11535&lt;br&gt;&lt;br&gt;&lt;b&gt;BlastP hit with ctg47_37&lt;/b&gt;&lt;br&gt;Percentage identity: 89&lt;br&gt;Percentage coverage: 100&lt;br&gt;BLAST bit score: 605&lt;br&gt;E-value: 5.22e-224" locus_tag="b3893" class="clusterblast-orf" id="dummy-1_h1_1_1"  />
</g>
<g id="a1_002"  >
<polygon points="364,85 369,80 466,80 466,90 369,90 364,85 " style="fill:#1515d8; stroke-width:1; stroke:black; " description="&lt;b&gt;b3894&lt;/b&gt;&lt;br&gt;formate dehydrogenase O subunit alpha&lt;br&gt;Location: 11547 - 14598&lt;br&gt;&lt;br&gt;&lt;b&gt;BlastP hit with ctg47_38&lt;/b&gt;&lt;br&gt;Percentage identity: 100&lt;br&gt;Percentage coverage: 100&lt;br&gt;BLAST bit score: 1676&lt;br&gt;E-value: 0.0&lt;br&gt;&lt;br&gt;&lt;b&gt;BlastP hit with ctg47_39&lt;/b&gt;&lt;br&gt;Percentage identity: 100&lt;br&gt;Percentage coverage: 100&lt;br&gt;BLAST bit score: 398&lt;br&gt;E-value: 1.62e-135" locus_tag="b3894" class="clusterblast-orf" id="dummy-1_h1_1_2"  />
</g>
</svg>
