<svg xmlns="http://www.w3.org/2000/svg" xmlns:xlink="http://www.w3.org/1999/xlink" version="1.1" x="0" y="0" height="100" width="800" viewBox="0 0 800 100" preserveAspectRatio="none"  >
<g label="Query sequence" class="clusterblast-cluster"  >
<text x="5" y="20" class="clusterblast-acc"  >
Query sequence</text>
<line x1="10" y1="35" x2="778.0" y2="35" style="stroke-width:1; stroke:grey; "  />
<polygon points="0,35 5,30 13,30 13,40 5,40 0,35 " style="fill:white; stroke-width:1; stroke:black; " description="&lt;b&gt;ctg77_52&lt;/b&gt;&lt;br&gt;ctg77 52&lt;br&gt;Location: 61325 - 61826" locus_tag="ctg77_52" class="clusterblast-orf" id="knownclusterblast-1_q0_0_all"  />
<polygon points="14,35 19,30 30,30 30,40 19,40 14,35 " style="fill:white; stroke-width:1; stroke:black; " description="&lt;b&gt;ctg77_53&lt;/b&gt;&lt;br&gt;ctg77 53&lt;br&gt;Location: 61855 - 62482" locus_tag="ctg77_53" class="clusterblast-orf" id="knownclusterblast-1_q1_0_all"  />
<polygon points="40,40 55,40 60,35 55,30 40,30 40,40 " style="fill:white; stroke-width:1; stroke:black; " description="&lt;b&gt;ctg77_54&lt;/b&gt;&lt;br&gt;ctg77 54&lt;br&gt;Location: 62865 - 63642" locus_tag="ctg77_54" class="clusterblast-orf" id="knownclusterblast-1_q2_0_all"  />
<polygon points="69,40 81,40 86,35 81,30 69,30 69,40 " style="fill:white; stroke-width:1; stroke:black; " description="&lt;b&gt;ctg77_55&lt;/b&gt;&lt;br&gt;ctg77 55&lt;br&gt;Location: 63986 - 64649" locus_tag="ctg77_55" class="clusterblast-orf" id="knownclusterblast-1_q3_0_all"  />
<polygon points="86,40 91,40 96,35 91,30 86,30 86,40 " style="fill:white; stroke-width:1; stroke:black; " description="&lt;b&gt;ctg77_56&lt;/b&gt;&lt;br&gt;ctg77 56&lt;br&gt;Location: 64652 - 65036" locus_tag="ctg77_56" class="clusterblast-orf" id="knownclusterblast-1_q4_0_all"  />
<polygon points="100,40 104,40 109,35 104,30 100,30 100,40 " style="fill:white; stroke-width:1; stroke:black; " description="&lt;b&gt;ctg77_57&lt;/b&gt;&lt;br&gt;ctg77 57&lt;br&gt;Location: 65182 - 65551" locus_tag="ctg77_57" class="clusterblast-orf" id="knownclusterblast-1_q5_0_all"  />
<polygon points="110,40 113,40 118,35 113,30 110,30 110,40 " style="fill:white; stroke-width:1; stroke:black; " description="&lt;b&gt;ctg77_58&lt;/b&gt;&lt;br&gt;ctg77 58&lt;br&gt;Location: 65588 - 65894" locus_tag="ctg77_58" class="clusterblast-orf" id="knownclusterblast-1_q6_0_all"  />
<polygon points="118,40 124,40 129,35 124,30 118,30 118,40 " style="fill:white; stroke-width:1; stroke:black; " description="&lt;b&gt;ctg77_59&lt;/b&gt;&lt;br&gt;ctg77 59&lt;br&gt;Location: 65896 - 66301" locus_tag="ctg77_59" class="clusterblast-orf" id="knownclusterblast-1_q7_0_all"  />
<polygon points="129,40 131,40 136,35 131,30 129,30 129,40 " style="fill:white; stroke-width:1; stroke:black; " description="&lt;b&gt;ctg77_60&lt;/b&gt;&lt;br&gt;ctg77 60&lt;br&gt;Location: 66290 - 66590" locus_tag="ctg77_60" class="clusterblast-orf" id="knownclusterblast-1_q8_0_all"  />
<polygon points="139,40 146,40 151,35 146,30 139,30 139,40 " style="fill:white; stroke-width:1; stroke:black; " description="&lt;b&gt;ctg77_61&lt;/b&gt;&lt;br&gt;ctg77 61&lt;br&gt;Location: 66686 - 67169" locus_tag="ctg77_61" class="clusterblast-orf" id="knownclusterblast-1_q9_0_all"  />
<polygon points="153,40 174,40 179,35 174,30 153,30 153,40 " style="fill:white; stroke-width:1; stroke:black; " description="&lt;b&gt;ctg77_62&lt;/b&gt;&lt;br&gt;ctg77 62&lt;br&gt;Location: 67238 - 68225" locus_tag="ctg77_62" class="clusterblast-orf" id="knownclusterblast-1_q10_0_all"  />
<polygon points="186,40 191,40 196,35 191,30 186,30 186,40 " style="fill:white; stroke-width:1; stroke:black; " description="&lt;b&gt;ctg77_63&lt;/b&gt;&lt;br&gt;ctg77 63&lt;br&gt;Location: 68507 - 68876" locus_tag="ctg77_63" class="clusterblast-orf" id="knownclusterblast-1_q11_0_all"  />
<polygon points="197,35 202,30 220,30 220,40 202,40 197,35 " style="fill:white; stroke-width:1; stroke:black; " description="&lt;b&gt;ctg77_64&lt;/b&gt;&lt;br&gt;ctg77 64&lt;br&gt;Location: 68909 - 69806" locus_tag="ctg77_64" class="clusterblast-orf" id="knownclusterblast-1_q12_0_all"  />
<polygon points="223,40 236,40 241,35 236,30 223,30 223,40 " style="fill:white; stroke-width:1; stroke:black; " description="&lt;b&gt;ctg77_65&lt;/b&gt;&lt;br&gt;ctg77 65&lt;br&gt;Location: 69910 - 70612" locus_tag="ctg77_65" class="clusterblast-orf" id="knownclusterblast-1_q13_0_all"  />
<polygon points="241,40 241,40 246,35 241,30 241,30 241,40 " style="fill:white; stroke-width:1; stroke:black; " description="&lt;b&gt;ctg77_66&lt;/b&gt;&lt;br&gt;ctg77 66&lt;br&gt;Location: 70634 - 70799" locus_tag="ctg77_66" class="clusterblast-orf" id="knownclusterblast-1_q14_0_all"  />
<polygon points="247,35 252,30 281,30 281,40 252,40 247,35 " style="fill:#d81515; stroke-width:1; stroke:black; " description="&lt;b&gt;ctg77_67&lt;/b&gt;&lt;br&gt;ctg77 67&lt;br&gt;Location: 70859 - 72170" locus_tag="ctg77_67" class="clusterblast-orf" id="knownclusterblast-1_q15_0_all"  />
<polygon points="282,35 287,30 317,30 317,40 287,40 282,35 " style="fill:#15d815; stroke-width:1; stroke:black; " description="&lt;b&gt;ctg77_68&lt;/b&gt;&lt;br&gt;ctg77 68&lt;br&gt;Location: 72197 - 73529" locus_tag="ctg77_68" class="clusterblast-orf" id="knownclusterblast-1_q16_0_all"  />
<polygon points="327,35 332,30 362,30 362,40 332,40 327,35 " style="fill:#1597d8; stroke-width:1; stroke:black; " description="&lt;b&gt;ctg77_69&lt;/b&gt;&lt;br&gt;ctg77 69&lt;br&gt;Location: 73911 - 75276" locus_tag="ctg77_69" class="clusterblast-orf" id="knownclusterblast-1_q17_0_all"  />
<polygon points="364,35 369,30 374,30 374,40 369,40 364,35 " style="fill:#9715d8; stroke-width:1; stroke:black; " description="&lt;b&gt;ctg77_70&lt;/b&gt;&lt;br&gt;ctg77 70&lt;br&gt;Location: 75347 - 75737" locus_tag="ctg77_70" class="clusterblast-orf" id="knownclusterblast-1_q18_0_all"  />
<polygon points="374,35 379,30 434,30 434,40 379,40 374,35 " style="fill:#d89715; stroke-width:1; stroke:black; " description="&lt;b&gt;ctg77_71&lt;/b&gt;&lt;br&gt;ctg77 71&lt;br&gt;Location: 75750 - 78045" locus_tag="ctg77_71" class="clusterblast-orf" id="knownclusterblast-1_q19_0_all"  />
<polygon points="435,35 440,30 466,30 466,40 440,40 435,35 " style="fill:#15d897; stroke-width:1; stroke:black; " description="&lt;b&gt;ctg77_72&lt;/b&gt;&lt;br&gt;ctg77 72&lt;br&gt;Location: 78078 - 79287" locus_tag="ctg77_72" class="clusterblast-orf" id="knownclusterblast-1_q20_0_all"  />
<polygon points="467,35 472,30 501,30 501,40 472,40 467,35 " style="fill:#1515d8; stroke-width:1; stroke:black; " description="&lt;b&gt;ctg77_73&lt;/b&gt;&lt;br&gt;ctg77 73&lt;br&gt;Location: 79312 - 80644" locus_tag="ctg77_73" class="clusterblast-orf" id="knownclusterblast-1_q21_0_all"  />
<polygon points="502,35 507,30 528,30 528,40 507,40 502,35 " style="fill:#d81597; stroke-width:1; stroke:black; " description="&lt;b&gt;ctg77_74&lt;/b&gt;&lt;br&gt;ctg77 74&lt;br&gt;Location: 80665 - 81655" locus_tag="ctg77_74" class="clusterblast-orf" id="knownclusterblast-1_q22_0_all"  />
<polygon points="530,35 535,30 555,30 555,40 535,40 530,35 " style="fill:#97d815; stroke-width:1; stroke:black; " description="&lt;b&gt;ctg77_75&lt;/b&gt;&lt;br&gt;ctg77 75&lt;br&gt;Location: 81753 - 82692" locus_tag="ctg77_75" class="clusterblast-orf" id="knownclusterblast-1_q23_0_all"  />
<polygon points="559,40 563,40 568,35 563,30 559,30 559,40 " style="fill:white; stroke-width:1; stroke:black; " description="&lt;b&gt;ctg77_76&lt;/b&gt;&lt;br&gt;ctg77 76&lt;br&gt;Location: 82880 - 83225" locus_tag="ctg77_76" class="clusterblast-orf" id="knownclusterblast-1_q24_0_all"  />
<polygon points="593,35 598,30 623,30 623,40 598,40 593,35 " style="fill:white; stroke-width:1; stroke:black; " description="&lt;b&gt;ctg77_77&lt;/b&gt;&lt;br&gt;ctg77 77&lt;br&gt;Location: 84190 - 85336" locus_tag="ctg77_77" class="clusterblast-orf" id="knownclusterblast-1_q25_0_all"  />
<polygon points="626,35 631,30 649,30 649,40 631,40 626,35 " style="fill:white; stroke-width:1; stroke:black; " description="&lt;b&gt;ctg77_78&lt;/b&gt;&lt;br&gt;ctg77 78&lt;br&gt;Location: 85432 - 86323" locus_tag="ctg77_78" class="clusterblast-orf" id="knownclusterblast-1_q26_0_all"  />
<polygon points="650,35 655,30 670,30 670,40 655,40 650,35 " style="fill:white; stroke-width:1; stroke:black; " description="&lt;b&gt;ctg77_79&lt;/b&gt;&lt;br&gt;ctg77 79&lt;br&gt;Location: 86352 - 87123" locus_tag="ctg77_79" class="clusterblast-orf" id="knownclusterblast-1_q27_0_all"  />
<polygon points="670,35 675,30 705,30 705,40 675,40 670,35 " style="fill:white; stroke-width:1; stroke:black; " description="&lt;b&gt;ctg77_80&lt;/b&gt;&lt;br&gt;ctg77 80&lt;br&gt;Location: 87138 - 88473" locus_tag="ctg77_80" class="clusterblast-orf" id="knownclusterblast-1_q28_0_all"  />
<polygon points="714,40 750,40 755,35 750,30 714,30 714,40 " style="fill:white; stroke-width:1; stroke:black; " description="&lt;b&gt;ctg77_81&lt;/b&gt;&lt;br&gt;ctg77 81&lt;br&gt;Location: 88847 - 90419" locus_tag="ctg77_81" class="clusterblast-orf" id="knownclusterblast-1_q29_0_all"  />
<polygon points="759,40 763,40 768,35 763,30 759,30 759,40 " style="fill:white; stroke-width:1; stroke:black; " description="&lt;b&gt;ctg77_82&lt;/b&gt;&lt;br&gt;ctg77 82&lt;br&gt;Location: 90567 - 90903" locus_tag="ctg77_82" class="clusterblast-orf" id="knownclusterblast-1_q30_0_all"  />
<polygon points="768,40 775,40 780,35 775,30 768,30 768,40 " style="fill:white; stroke-width:1; stroke:black; " description="&lt;b&gt;ctg77_83&lt;/b&gt;&lt;br&gt;ctg77 83&lt;br&gt;Location: 90902 - 91367" locus_tag="ctg77_83" class="clusterblast-orf" id="knownclusterblast-1_q31_0_all"  />
</g>
<g label="MGC00000030" description="MGC00000030_c1: Threonine to propionate E. coli (90% of genes show similarity), PROP" class="clusterblast-cluster"  >
<text x="5" y="70" class="clusterblast-acc"  >
MGC00000030_c1: Threonine to propionate E. coli (90% of genes show similarity), PROP</text>
<line x1="10" y1="85" x2="778.0" y2="85" style="stroke-width:1; stroke:grey; "  />
</g>
<g id="a1_000"  >
<polygon points="237,85 242,80 271,80 271,90 242,90 237,85 " style="fill:#d81515; stroke-width:1; stroke:black; " description="&lt;b&gt;L960_3808&lt;/b&gt;&lt;br&gt;hypothetical protein&lt;br&gt;Location: 21726 - 20415&lt;br&gt;&lt;br&gt;&lt;b&gt;BlastP hit with ctg77_67&lt;/b&gt;&lt;br&gt;Percentage identity: 99&lt;br&gt;Percentage coverage: 100&lt;br&gt;BLAST bit score: 808&lt;br&gt;E-value: 2.94e-300" locus_tag="L960_3808" class="clusterblast-orf" id="knownclusterblast-1_all_1_1_0"  />
</g>
<g id="a1_001"  >
<polygon points="272,85 277,80 307,80 307,90 277,90 272,85 " style="fill:#15d815; stroke-width:1; stroke:black; " description="&lt;b&gt;L960_3807&lt;/b&gt;&lt;br&gt;serine transporter family protein&lt;br&gt;Location: 20388 - 19056&lt;br&gt;&lt;br&gt;&lt;b&gt;BlastP hit with ctg77_68&lt;/b&gt;&lt;br&gt;Percentage identity: 100&lt;br&gt;Percentage coverage: 100&lt;br&gt;BLAST bit score: 830&lt;br&gt;E-value: 1.05e-308" locus_tag="L960_3807" class="clusterblast-orf" id="knownclusterblast-1_all_1_1_1"  />
</g>
<g id="a1_002"  >
<polygon points="314,85 319,80 347,80 347,90 319,90 314,85 " style="fill:#1597d8; stroke-width:1; stroke:black; " description="&lt;b&gt;L960_3806&lt;/b&gt;&lt;br&gt;L-serine dehydratase 3&lt;br&gt;Location: 18782 - 17483&lt;br&gt;&lt;br&gt;&lt;b&gt;BlastP hit with ctg77_69&lt;/b&gt;&lt;br&gt;Percentage identity: 100&lt;br&gt;Percentage coverage: 95&lt;br&gt;BLAST bit score: 851&lt;br&gt;E-value: 6.31e-317" locus_tag="L960_3806" class="clusterblast-orf" id="knownclusterblast-1_all_1_1_2"  />
</g>
<g id="a1_003"  >
<polygon points="351,85 356,80 361,80 361,90 356,90 351,85 " style="fill:#9715d8; stroke-width:1; stroke:black; " description="&lt;b&gt;L960_3805&lt;/b&gt;&lt;br&gt;hypothetical protein&lt;br&gt;Location: 17346 - 16956&lt;br&gt;&lt;br&gt;&lt;b&gt;BlastP hit with ctg77_70&lt;/b&gt;&lt;br&gt;Percentage identity: 100&lt;br&gt;Percentage coverage: 100&lt;br&gt;BLAST bit score: 252&lt;br&gt;E-value: 3.05e-90" locus_tag="L960_3805" class="clusterblast-orf" id="knownclusterblast-1_all_1_1_3"  />
</g>
<g id="a1_004"  >
<polygon points="361,85 366,80 421,80 421,90 366,90 361,85 " style="fill:#d89715; stroke-width:1; stroke:black; " description="&lt;b&gt;L960_3804&lt;/b&gt;&lt;br&gt;pyruvate formate-lyase 4/2-ketobutyrate formate-lyase&lt;br&gt;Location: 16943 - 14648&lt;br&gt;&lt;br&gt;&lt;b&gt;BlastP hit with ctg77_71&lt;/b&gt;&lt;br&gt;Percentage identity: 99&lt;br&gt;Percentage coverage: 100&lt;br&gt;BLAST bit score: 1513&lt;br&gt;E-value: 0.0" locus_tag="L960_3804" class="clusterblast-orf" id="knownclusterblast-1_all_1_1_4"  />
</g>
<g id="a1_005"  >
<polygon points="422,85 427,80 453,80 453,90 427,90 422,85 " style="fill:#15d897; stroke-width:1; stroke:black; " description="&lt;b&gt;L960_3803&lt;/b&gt;&lt;br&gt;propionate/acetate kinase&lt;br&gt;Location: 14615 - 13406&lt;br&gt;&lt;br&gt;&lt;b&gt;BlastP hit with ctg77_72&lt;/b&gt;&lt;br&gt;Percentage identity: 99&lt;br&gt;Percentage coverage: 100&lt;br&gt;BLAST bit score: 779&lt;br&gt;E-value: 1.12e-289" locus_tag="L960_3803" class="clusterblast-orf" id="knownclusterblast-1_all_1_1_5"  />
</g>
<g id="a1_006"  >
<polygon points="454,85 459,80 489,80 489,90 459,90 454,85 " style="fill:#1515d8; stroke-width:1; stroke:black; " description="&lt;b&gt;L960_3802&lt;/b&gt;&lt;br&gt;threonine/serine transporter TdcC&lt;br&gt;Location: 13381 - 12049&lt;br&gt;&lt;br&gt;&lt;b&gt;BlastP hit with ctg77_73&lt;/b&gt;&lt;br&gt;Percentage identity: 100&lt;br&gt;Percentage coverage: 100&lt;br&gt;BLAST bit score: 849&lt;br&gt;E-value: 5.06e-316" locus_tag="L960_3802" class="clusterblast-orf" id="knownclusterblast-1_all_1_1_6"  />
</g>
<g id="a1_007"  >
<polygon points="489,85 494,80 507,80 507,90 494,90 489,85 " style="fill:#d81597; stroke-width:1; stroke:black; " description="&lt;b&gt;L960_3801&lt;/b&gt;&lt;br&gt;tdcB&lt;br&gt;Location: 12028 - 11323&lt;br&gt;&lt;br&gt;&lt;b&gt;BlastP hit with ctg77_74&lt;/b&gt;&lt;br&gt;Percentage identity: 100&lt;br&gt;Percentage coverage: 71&lt;br&gt;BLAST bit score: 455&lt;br&gt;E-value: 1.66e-165" locus_tag="L960_3801" class="clusterblast-orf" id="knownclusterblast-1_all_1_1_7"  />
</g>
<g id="a1_008"  >
<polygon points="507,85 512,80 515,80 515,90 512,90 507,85 " style="fill:white; stroke-width:1; stroke:black; " description="&lt;b&gt;L960_3800&lt;/b&gt;&lt;br&gt;threonine ammonia-lyase&lt;br&gt;Location: 11343 - 11037" locus_tag="L960_3800" class="clusterblast-orf" id="knownclusterblast-1_all_1_1_8"  />
</g>
<g id="a1_009"  >
<polygon points="517,85 522,80 542,80 542,90 522,90 517,85 " style="fill:#97d815; stroke-width:1; stroke:black; " description="&lt;b&gt;L960_3799&lt;/b&gt;&lt;br&gt;DNA-binding transcriptional activator TdcA&lt;br&gt;Location: 10939 - 10000&lt;br&gt;&lt;br&gt;&lt;b&gt;BlastP hit with ctg77_75&lt;/b&gt;&lt;br&gt;Percentage identity: 100&lt;br&gt;Percentage coverage: 100&lt;br&gt;BLAST bit score: 596&lt;br&gt;E-value: 1.8e-220" locus_tag="L960_3799" class="clusterblast-orf" id="knownclusterblast-1_all_1_1_9"  />
</g>
</svg>
