<svg xmlns="http://www.w3.org/2000/svg" xmlns:xlink="http://www.w3.org/1999/xlink" version="1.1" x="0" y="0" height="230" width="800" viewBox="0 0 800 230" preserveAspectRatio="none"  >
<g label="Query sequence" class="clusterblast-cluster"  >
<text x="5" y="20" class="clusterblast-acc"  >
Query sequence</text>
<line x1="10" y1="35" x2="778.0" y2="35" style="stroke-width:1; stroke:grey; "  />
<polygon points="0,40 40,40 45,35 40,30 0,30 0,40 " style="fill:white; stroke-width:1; stroke:black; " description="&lt;b&gt;ctg1_32&lt;/b&gt;&lt;br&gt;ctg1 32&lt;br&gt;Location: 34483 - 36004" locus_tag="ctg1_32" class="clusterblast-orf" id="dummy-1_q0_0_all"  />
<polygon points="45,40 56,40 61,35 56,30 45,30 45,40 " style="fill:white; stroke-width:1; stroke:black; " description="&lt;b&gt;ctg1_33&lt;/b&gt;&lt;br&gt;ctg1 33&lt;br&gt;Location: 36003 - 36555" locus_tag="ctg1_33" class="clusterblast-orf" id="dummy-1_q1_0_all"  />
<polygon points="60,40 82,40 87,35 82,30 60,30 60,40 " style="fill:white; stroke-width:1; stroke:black; " description="&lt;b&gt;ctg1_34&lt;/b&gt;&lt;br&gt;ctg1 34&lt;br&gt;Location: 36532 - 37444" locus_tag="ctg1_34" class="clusterblast-orf" id="dummy-1_q2_0_all"  />
<polygon points="92,40 111,40 116,35 111,30 92,30 92,40 " style="fill:white; stroke-width:1; stroke:black; " description="&lt;b&gt;ctg1_35&lt;/b&gt;&lt;br&gt;ctg1 35&lt;br&gt;Location: 37602 - 38424" locus_tag="ctg1_35" class="clusterblast-orf" id="dummy-1_q3_0_all"  />
<polygon points="117,35 122,30 126,30 126,40 122,40 117,35 " style="fill:white; stroke-width:1; stroke:black; " description="&lt;b&gt;ctg1_36&lt;/b&gt;&lt;br&gt;ctg1 36&lt;br&gt;Location: 38449 - 38761" locus_tag="ctg1_36" class="clusterblast-orf" id="dummy-1_q4_0_all"  />
<polygon points="130,40 159,40 164,35 159,30 130,30 130,40 " style="fill:white; stroke-width:1; stroke:black; " description="&lt;b&gt;ctg1_37&lt;/b&gt;&lt;br&gt;ctg1 37&lt;br&gt;Location: 38878 - 40027" locus_tag="ctg1_37" class="clusterblast-orf" id="dummy-1_q5_0_all"  />
<polygon points="164,40 254,40 259,35 254,30 164,30 164,40 " style="fill:white; stroke-width:1; stroke:black; " description="&lt;b&gt;ctg1_38&lt;/b&gt;&lt;br&gt;ctg1 38&lt;br&gt;Location: 40044 - 43266" locus_tag="ctg1_38" class="clusterblast-orf" id="dummy-1_q6_0_all"  />
<polygon points="267,40 274,40 279,35 274,30 267,30 267,40 " style="fill:white; stroke-width:1; stroke:black; " description="&lt;b&gt;ctg1_39&lt;/b&gt;&lt;br&gt;ctg1 39&lt;br&gt;Location: 43526 - 43922" locus_tag="ctg1_39" class="clusterblast-orf" id="dummy-1_q7_0_all"  />
<polygon points="281,35 286,30 299,30 299,40 286,40 281,35 " style="fill:#d81515; stroke-width:1; stroke:black; " description="&lt;b&gt;ctg1_40&lt;/b&gt;&lt;br&gt;ctg1 40&lt;br&gt;Location: 44007 - 44598" locus_tag="ctg1_40" class="clusterblast-orf" id="dummy-1_q8_0_all"  />
<polygon points="299,35 304,30 322,30 322,40 304,40 299,35 " style="fill:#15d815; stroke-width:1; stroke:black; " description="&lt;b&gt;ctg1_41&lt;/b&gt;&lt;br&gt;ctg1 41&lt;br&gt;Location: 44603 - 45389" locus_tag="ctg1_41" class="clusterblast-orf" id="dummy-1_q9_0_all"  />
<polygon points="325,35 330,30 371,30 371,40 330,40 325,35 " style="fill:#1515d8; stroke-width:1; stroke:black; " description="&lt;b&gt;ctg1_42&lt;/b&gt;&lt;br&gt;ctg1 42&lt;br&gt;Location: 45498 - 47052" locus_tag="ctg1_42" class="clusterblast-orf" id="dummy-1_q10_0_all"  />
<polygon points="373,35 378,30 409,30 409,40 378,40 373,35 " style="fill:#d815d8; stroke-width:1; stroke:black; " description="&lt;b&gt;ctg1_43&lt;/b&gt;&lt;br&gt;ctg1 43&lt;br&gt;Location: 47124 - 48342" locus_tag="ctg1_43" class="clusterblast-orf" id="dummy-1_q11_0_all"  />
<polygon points="411,35 416,30 445,30 445,40 416,40 411,35 " style="fill:#d8d815; stroke-width:1; stroke:black; " description="&lt;b&gt;ctg1_44&lt;/b&gt;&lt;br&gt;ctg1 44&lt;br&gt;Location: 48412 - 49555" locus_tag="ctg1_44" class="clusterblast-orf" id="dummy-1_q12_0_all"  />
<polygon points="446,35 451,30 491,30 491,40 451,40 446,35 " style="fill:#15d8d8; stroke-width:1; stroke:black; " description="&lt;b&gt;ctg1_45&lt;/b&gt;&lt;br&gt;ctg1 45&lt;br&gt;Location: 49585 - 51100" locus_tag="ctg1_45" class="clusterblast-orf" id="dummy-1_q13_0_all"  />
<polygon points="505,40 523,40 528,35 523,30 505,30 505,40 " style="fill:white; stroke-width:1; stroke:black; " description="&lt;b&gt;ctg1_46&lt;/b&gt;&lt;br&gt;ctg1 46&lt;br&gt;Location: 51572 - 52343" locus_tag="ctg1_46" class="clusterblast-orf" id="dummy-1_q14_0_all"  />
<polygon points="528,40 551,40 556,35 551,30 528,30 528,40 " style="fill:white; stroke-width:1; stroke:black; " description="&lt;b&gt;ctg1_47&lt;/b&gt;&lt;br&gt;ctg1 47&lt;br&gt;Location: 52357 - 53299" locus_tag="ctg1_47" class="clusterblast-orf" id="dummy-1_q15_0_all"  />
<polygon points="557,40 590,40 595,35 590,30 557,30 557,40 " style="fill:white; stroke-width:1; stroke:black; " description="&lt;b&gt;ctg1_48&lt;/b&gt;&lt;br&gt;ctg1 48&lt;br&gt;Location: 53349 - 54636" locus_tag="ctg1_48" class="clusterblast-orf" id="dummy-1_q16_0_all"  />
<polygon points="595,40 599,40 604,35 599,30 595,30 595,40 " style="fill:white; stroke-width:1; stroke:black; " description="&lt;b&gt;ctg1_49&lt;/b&gt;&lt;br&gt;ctg1 49&lt;br&gt;Location: 54632 - 54920" locus_tag="ctg1_49" class="clusterblast-orf" id="dummy-1_q17_0_all"  />
<polygon points="605,40 640,40 645,35 640,30 605,30 605,40 " style="fill:white; stroke-width:1; stroke:black; " description="&lt;b&gt;ctg1_50&lt;/b&gt;&lt;br&gt;ctg1 50&lt;br&gt;Location: 54978 - 56310" locus_tag="ctg1_50" class="clusterblast-orf" id="dummy-1_q18_0_all"  />
<polygon points="648,40 659,40 664,35 659,30 648,30 648,40 " style="fill:white; stroke-width:1; stroke:black; " description="&lt;b&gt;ctg1_51&lt;/b&gt;&lt;br&gt;ctg1 51&lt;br&gt;Location: 56417 - 56948" locus_tag="ctg1_51" class="clusterblast-orf" id="dummy-1_q19_0_all"  />
<polygon points="663,40 714,40 719,35 714,30 663,30 663,40 " style="fill:white; stroke-width:1; stroke:black; " description="&lt;b&gt;ctg1_52&lt;/b&gt;&lt;br&gt;ctg1 52&lt;br&gt;Location: 56940 - 58803" locus_tag="ctg1_52" class="clusterblast-orf" id="dummy-1_q20_0_all"  />
<polygon points="724,40 733,40 738,35 733,30 724,30 724,40 " style="fill:white; stroke-width:1; stroke:black; " description="&lt;b&gt;ctg1_53&lt;/b&gt;&lt;br&gt;ctg1 53&lt;br&gt;Location: 58995 - 59475" locus_tag="ctg1_53" class="clusterblast-orf" id="dummy-1_q21_0_all"  />
<polygon points="748,35 753,30 761,30 761,40 753,40 748,35 " style="fill:white; stroke-width:1; stroke:black; " description="&lt;b&gt;ctg1_54&lt;/b&gt;&lt;br&gt;ctg1 54&lt;br&gt;Location: 59791 - 60241" locus_tag="ctg1_54" class="clusterblast-orf" id="dummy-1_q22_0_all"  />
<polygon points="762,35 767,30 780,30 780,40 767,40 762,35 " style="fill:white; stroke-width:1; stroke:black; " description="&lt;b&gt;ctg1_55&lt;/b&gt;&lt;br&gt;ctg1 55&lt;br&gt;Location: 60276 - 60876" locus_tag="ctg1_55" class="clusterblast-orf" id="dummy-1_q23_0_all"  />
</g>
<g label="MGC00000018" description="MGC00000018_c1: Carnitine caiTABCDE E. coli (100% of genes show similarity), CAR" class="clusterblast-cluster"  >
<text x="5" y="70" class="clusterblast-acc"  >
MGC00000018_c1: Carnitine caiTABCDE E. coli (100% of genes show similarity), CAR</text>
<line x1="10" y1="85" x2="778.0" y2="85" style="stroke-width:1; stroke:grey; "  />
</g>
<g id="a1_000"  >
<polygon points="284,85 289,80 301,80 301,90 289,90 284,85 " style="fill:#d81515; stroke-width:1; stroke:black; " description="&lt;b&gt;C_RS00205&lt;/b&gt;&lt;br&gt;carnitine operon protein CaiE&lt;br&gt;Location: 10000 - 10591&lt;br&gt;&lt;br&gt;&lt;b&gt;BlastP hit with ctg1_40&lt;/b&gt;&lt;br&gt;Percentage identity: 95&lt;br&gt;Percentage coverage: 100&lt;br&gt;BLAST bit score: 365&lt;br&gt;E-value: 7e-133" locus_tag="C_RS00205" class="clusterblast-orf" id="dummy-1_h1_1_0"  />
</g>
<g id="a1_001"  >
<polygon points="301,85 306,80 325,80 325,90 306,90 301,85 " style="fill:#15d815; stroke-width:1; stroke:black; " description="&lt;b&gt;C_RS00210&lt;/b&gt;&lt;br&gt;carnitinyl-CoA dehydratase&lt;br&gt;Location: 10596 - 11382&lt;br&gt;&lt;br&gt;&lt;b&gt;BlastP hit with ctg1_41&lt;/b&gt;&lt;br&gt;Percentage identity: 100&lt;br&gt;Percentage coverage: 100&lt;br&gt;BLAST bit score: 513&lt;br&gt;E-value: 2.07e-189" locus_tag="C_RS00210" class="clusterblast-orf" id="dummy-1_h1_1_1"  />
</g>
<g id="a1_002"  >
<polygon points="328,85 333,80 374,80 374,90 333,90 328,85 " style="fill:#1515d8; stroke-width:1; stroke:black; " description="&lt;b&gt;C_RS00215&lt;/b&gt;&lt;br&gt;ATP-dependent acyl-CoA ligase&lt;br&gt;Location: 11490 - 13044&lt;br&gt;&lt;br&gt;&lt;b&gt;BlastP hit with ctg1_42&lt;/b&gt;&lt;br&gt;Percentage identity: 96&lt;br&gt;Percentage coverage: 100&lt;br&gt;BLAST bit score: 1019&lt;br&gt;E-value: 0.0" locus_tag="C_RS00215" class="clusterblast-orf" id="dummy-1_h1_1_2"  />
</g>
<g id="a1_003"  >
<polygon points="376,85 381,80 412,80 412,90 381,90 376,85 " style="fill:#d815d8; stroke-width:1; stroke:black; " description="&lt;b&gt;C_RS00220&lt;/b&gt;&lt;br&gt;L-carnitine CoA-transferase&lt;br&gt;Location: 13116 - 14334&lt;br&gt;&lt;br&gt;&lt;b&gt;BlastP hit with ctg1_43&lt;/b&gt;&lt;br&gt;Percentage identity: 99&lt;br&gt;Percentage coverage: 100&lt;br&gt;BLAST bit score: 834&lt;br&gt;E-value: 1.59e-311" locus_tag="C_RS00220" class="clusterblast-orf" id="dummy-1_h1_1_3"  />
</g>
<g id="a1_004"  >
<polygon points="416,85 421,80 449,80 449,90 421,90 416,85 " style="fill:#d8d815; stroke-width:1; stroke:black; " description="&lt;b&gt;C_RS00225&lt;/b&gt;&lt;br&gt;crotonobetainyl-CoA dehydrogenase&lt;br&gt;Location: 14461 - 15604&lt;br&gt;&lt;br&gt;&lt;b&gt;BlastP hit with ctg1_44&lt;/b&gt;&lt;br&gt;Percentage identity: 100&lt;br&gt;Percentage coverage: 100&lt;br&gt;BLAST bit score: 769&lt;br&gt;E-value: 9.15e-287" locus_tag="C_RS00225" class="clusterblast-orf" id="dummy-1_h1_1_4"  />
</g>
<g id="a1_005"  >
<polygon points="450,85 455,80 495,80 495,90 455,90 450,85 " style="fill:#15d8d8; stroke-width:1; stroke:black; " description="&lt;b&gt;C_RS00230&lt;/b&gt;&lt;br&gt;L-carnitine/gamma-butyrobetaine antiporter&lt;br&gt;Location: 15634 - 17149&lt;br&gt;&lt;br&gt;&lt;b&gt;BlastP hit with ctg1_45&lt;/b&gt;&lt;br&gt;Percentage identity: 97&lt;br&gt;Percentage coverage: 100&lt;br&gt;BLAST bit score: 1002&lt;br&gt;E-value: 0.0" locus_tag="C_RS00230" class="clusterblast-orf" id="dummy-1_h1_1_5"  />
</g>
</svg>
