<svg xmlns="http://www.w3.org/2000/svg" xmlns:xlink="http://www.w3.org/1999/xlink" version="1.1" x="0" y="0" height="230" width="800" viewBox="0 0 800 230" preserveAspectRatio="none"  >
<g label="Query sequence" class="clusterblast-cluster"  >
<text x="5" y="20" class="clusterblast-acc"  >
Query sequence</text>
<line x1="10" y1="35" x2="778.0" y2="35" style="stroke-width:1; stroke:grey; "  />
<polygon points="0,40 20,40 25,35 20,30 0,30 0,40 " style="fill:white; stroke-width:1; stroke:black; " description="&lt;b&gt;ctg1_2682&lt;/b&gt;&lt;br&gt;ctg1 2682&lt;br&gt;Location: 2890038 - 2890974" locus_tag="ctg1_2682" class="clusterblast-orf" id="dummy-15_q0_0_all"  />
<polygon points="25,40 35,40 40,35 35,30 25,30 25,40 " style="fill:white; stroke-width:1; stroke:black; " description="&lt;b&gt;ctg1_2683&lt;/b&gt;&lt;br&gt;ctg1 2683&lt;br&gt;Location: 2890970 - 2891534" locus_tag="ctg1_2683" class="clusterblast-orf" id="dummy-15_q1_0_all"  />
<polygon points="42,40 52,40 57,35 52,30 42,30 42,40 " style="fill:white; stroke-width:1; stroke:black; " description="&lt;b&gt;ctg1_2684&lt;/b&gt;&lt;br&gt;ctg1 2684&lt;br&gt;Location: 2891621 - 2892170" locus_tag="ctg1_2684" class="clusterblast-orf" id="dummy-15_q2_0_all"  />
<polygon points="58,35 63,30 99,30 99,40 63,40 58,35 " style="fill:white; stroke-width:1; stroke:black; " description="&lt;b&gt;ctg1_2685&lt;/b&gt;&lt;br&gt;ctg1 2685&lt;br&gt;Location: 2892212 - 2893730" locus_tag="ctg1_2685" class="clusterblast-orf" id="dummy-15_q3_0_all"  />
<polygon points="99,35 104,30 123,30 123,40 104,40 99,35 " style="fill:white; stroke-width:1; stroke:black; " description="&lt;b&gt;ctg1_2686&lt;/b&gt;&lt;br&gt;ctg1 2686&lt;br&gt;Location: 2893739 - 2894621" locus_tag="ctg1_2686" class="clusterblast-orf" id="dummy-15_q4_0_all"  />
<polygon points="131,35 136,30 177,30 177,40 136,40 131,35 " style="fill:white; stroke-width:1; stroke:black; " description="&lt;b&gt;ctg1_2687&lt;/b&gt;&lt;br&gt;ctg1 2687&lt;br&gt;Location: 2894928 - 2896662" locus_tag="ctg1_2687" class="clusterblast-orf" id="dummy-15_q5_0_all"  />
<polygon points="177,35 182,30 197,30 197,40 182,40 177,35 " style="fill:white; stroke-width:1; stroke:black; " description="&lt;b&gt;ctg1_2688&lt;/b&gt;&lt;br&gt;ctg1 2688&lt;br&gt;Location: 2896667 - 2897378" locus_tag="ctg1_2688" class="clusterblast-orf" id="dummy-15_q6_0_all"  />
<polygon points="197,35 202,30 221,30 221,40 202,40 197,35 " style="fill:white; stroke-width:1; stroke:black; " description="&lt;b&gt;ctg1_2689&lt;/b&gt;&lt;br&gt;ctg1 2689&lt;br&gt;Location: 2897402 - 2898299" locus_tag="ctg1_2689" class="clusterblast-orf" id="dummy-15_q7_0_all"  />
<polygon points="224,40 233,40 238,35 233,30 224,30 224,40 " style="fill:white; stroke-width:1; stroke:black; " description="&lt;b&gt;ctg1_2690&lt;/b&gt;&lt;br&gt;ctg1 2690&lt;br&gt;Location: 2898410 - 2898932" locus_tag="ctg1_2690" class="clusterblast-orf" id="dummy-15_q8_0_all"  />
<polygon points="239,35 244,30 250,30 250,40 244,40 239,35 " style="fill:white; stroke-width:1; stroke:black; " description="&lt;b&gt;ctg1_2691&lt;/b&gt;&lt;br&gt;ctg1 2691&lt;br&gt;Location: 2898971 - 2899379" locus_tag="ctg1_2691" class="clusterblast-orf" id="dummy-15_q9_0_all"  />
<polygon points="250,35 255,30 257,30 257,40 255,40 250,35 " style="fill:white; stroke-width:1; stroke:black; " description="&lt;b&gt;ctg1_2692&lt;/b&gt;&lt;br&gt;ctg1 2692&lt;br&gt;Location: 2899359 - 2899626" locus_tag="ctg1_2692" class="clusterblast-orf" id="dummy-15_q10_0_all"  />
<polygon points="264,40 285,40 290,35 285,30 264,30 264,40 " style="fill:white; stroke-width:1; stroke:black; " description="&lt;b&gt;ctg1_2693&lt;/b&gt;&lt;br&gt;ctg1 2693&lt;br&gt;Location: 2899877 - 2900858" locus_tag="ctg1_2693" class="clusterblast-orf" id="dummy-15_q11_0_all"  />
<polygon points="292,35 297,30 310,30 310,40 297,40 292,35 " style="fill:white; stroke-width:1; stroke:black; " description="&lt;b&gt;ctg1_2694&lt;/b&gt;&lt;br&gt;ctg1 2694&lt;br&gt;Location: 2900934 - 2901594" locus_tag="ctg1_2694" class="clusterblast-orf" id="dummy-15_q12_0_all"  />
<polygon points="314,35 319,30 322,30 322,40 319,40 314,35 " style="fill:white; stroke-width:1; stroke:black; " description="&lt;b&gt;ctg1_2695&lt;/b&gt;&lt;br&gt;ctg1 2695&lt;br&gt;Location: 2901757 - 2902069" locus_tag="ctg1_2695" class="clusterblast-orf" id="dummy-15_q13_0_all"  />
<polygon points="323,40 357,40 362,35 357,30 323,30 323,40 " style="fill:white; stroke-width:1; stroke:black; " description="&lt;b&gt;ctg1_2696&lt;/b&gt;&lt;br&gt;ctg1 2696&lt;br&gt;Location: 2902113 - 2903547" locus_tag="ctg1_2696" class="clusterblast-orf" id="dummy-15_q14_0_all"  />
<polygon points="363,35 368,30 387,30 387,40 368,40 363,35 " style="fill:white; stroke-width:1; stroke:black; " description="&lt;b&gt;ctg1_2697&lt;/b&gt;&lt;br&gt;ctg1 2697&lt;br&gt;Location: 2903594 - 2904488" locus_tag="ctg1_2697" class="clusterblast-orf" id="dummy-15_q15_0_all"  />
<polygon points="399,35 404,30 476,30 476,40 404,40 399,35 " style="fill:#d81515; stroke-width:1; stroke:black; " description="&lt;b&gt;ctg1_2698&lt;/b&gt;&lt;br&gt;ctg1 2698&lt;br&gt;Location: 2904943 - 2907817" locus_tag="ctg1_2698" class="clusterblast-orf" id="dummy-15_q16_0_all"  />
<polygon points="480,35 485,30 490,30 490,40 485,40 480,35 " style="fill:#15d815; stroke-width:1; stroke:black; " description="&lt;b&gt;ctg1_2699&lt;/b&gt;&lt;br&gt;ctg1 2699&lt;br&gt;Location: 2907935 - 2908325" locus_tag="ctg1_2699" class="clusterblast-orf" id="dummy-15_q17_0_all"  />
<polygon points="491,35 496,30 520,30 520,40 496,40 491,35 " style="fill:#1515d8; stroke-width:1; stroke:black; " description="&lt;b&gt;ctg1_2700&lt;/b&gt;&lt;br&gt;ctg1 2700&lt;br&gt;Location: 2908347 - 2909442" locus_tag="ctg1_2700" class="clusterblast-orf" id="dummy-15_q18_0_all"  />
<polygon points="532,35 537,30 564,30 564,40 537,40 532,35 " style="fill:white; stroke-width:1; stroke:black; " description="&lt;b&gt;ctg1_2701&lt;/b&gt;&lt;br&gt;ctg1 2701&lt;br&gt;Location: 2909889 - 2911092" locus_tag="ctg1_2701" class="clusterblast-orf" id="dummy-15_q19_0_all"  />
<polygon points="565,35 570,30 596,30 596,40 570,40 565,35 " style="fill:white; stroke-width:1; stroke:black; " description="&lt;b&gt;ctg1_2702&lt;/b&gt;&lt;br&gt;ctg1 2702&lt;br&gt;Location: 2911114 - 2912293" locus_tag="ctg1_2702" class="clusterblast-orf" id="dummy-15_q20_0_all"  />
<polygon points="596,35 601,30 632,30 632,40 601,40 596,35 " style="fill:white; stroke-width:1; stroke:black; " description="&lt;b&gt;ctg1_2703&lt;/b&gt;&lt;br&gt;ctg1 2703&lt;br&gt;Location: 2912289 - 2913615" locus_tag="ctg1_2703" class="clusterblast-orf" id="dummy-15_q21_0_all"  />
<polygon points="633,35 638,30 648,30 648,40 638,40 633,35 " style="fill:white; stroke-width:1; stroke:black; " description="&lt;b&gt;ctg1_2704&lt;/b&gt;&lt;br&gt;ctg1 2704&lt;br&gt;Location: 2913640 - 2914219" locus_tag="ctg1_2704" class="clusterblast-orf" id="dummy-15_q22_0_all"  />
<polygon points="653,40 656,40 661,35 656,30 653,30 653,40 " style="fill:white; stroke-width:1; stroke:black; " description="&lt;b&gt;ctg1_2705&lt;/b&gt;&lt;br&gt;ctg1 2705&lt;br&gt;Location: 2914386 - 2914716" locus_tag="ctg1_2705" class="clusterblast-orf" id="dummy-15_q23_0_all"  />
<polygon points="668,40 679,40 684,35 679,30 668,30 668,40 " style="fill:white; stroke-width:1; stroke:black; " description="&lt;b&gt;ctg1_2706&lt;/b&gt;&lt;br&gt;ctg1 2706&lt;br&gt;Location: 2914961 - 2915558" locus_tag="ctg1_2706" class="clusterblast-orf" id="dummy-15_q24_0_all"  />
<polygon points="694,35 699,30 727,30 727,40 699,40 694,35 " style="fill:white; stroke-width:1; stroke:black; " description="&lt;b&gt;ctg1_2707&lt;/b&gt;&lt;br&gt;ctg1 2707&lt;br&gt;Location: 2915944 - 2917177" locus_tag="ctg1_2707" class="clusterblast-orf" id="dummy-15_q25_0_all"  />
<polygon points="734,35 739,30 752,30 752,40 739,40 734,35 " style="fill:white; stroke-width:1; stroke:black; " description="&lt;b&gt;ctg1_2708&lt;/b&gt;&lt;br&gt;ctg1 2708&lt;br&gt;Location: 2917419 - 2918079" locus_tag="ctg1_2708" class="clusterblast-orf" id="dummy-15_q26_0_all"  />
<polygon points="756,40 775,40 780,35 775,30 756,30 756,40 " style="fill:white; stroke-width:1; stroke:black; " description="&lt;b&gt;ctg1_2709&lt;/b&gt;&lt;br&gt;ctg1 2709&lt;br&gt;Location: 2918238 - 2919132" locus_tag="ctg1_2709" class="clusterblast-orf" id="dummy-15_q27_0_all"  />
</g>
<g label="MGC00000027" description="MGC00000027_c1: Glycine cleavage C. sticklandii (80% of genes show similarity), GLY" class="clusterblast-cluster"  >
<text x="5" y="70" class="clusterblast-acc"  >
MGC00000027_c1: Glycine cleavage C. sticklandii (80% of genes show similarity), GLY</text>
<line x1="10" y1="85" x2="778.0" y2="85" style="stroke-width:1; stroke:grey; "  />
</g>
<g id="a15_000"  >
<polygon points="314,90 341,90 346,85 341,80 314,80 314,90 " style="fill:white; stroke-width:1; stroke:black; " description="&lt;b&gt;CLOST_RS02280&lt;/b&gt;&lt;br&gt;pyridoxal phosphate-dependent aminotransferase&lt;br&gt;Location: 23799 - 22614" locus_tag="CLOST_RS02280" class="clusterblast-orf" id="dummy-15_h15_1_0"  />
</g>
<g id="a15_001"  >
<polygon points="347,85 352,80 386,80 386,90 352,90 347,85 " style="fill:#d81515; stroke-width:1; stroke:black; " description="&lt;b&gt;CLOST_RS02275&lt;/b&gt;&lt;br&gt;glycine dehydrogenase subunit 2&lt;br&gt;Location: 22559 - 21101&lt;br&gt;&lt;br&gt;&lt;b&gt;BlastP hit with ctg1_2698&lt;/b&gt;&lt;br&gt;Percentage identity: 40&lt;br&gt;Percentage coverage: 48&lt;br&gt;BLAST bit score: 311&lt;br&gt;E-value: 3.82e-98" locus_tag="CLOST_RS02275" class="clusterblast-orf" id="dummy-15_h15_1_1"  />
</g>
<g id="a15_002"  >
<polygon points="386,85 391,80 422,80 422,90 391,90 386,85 " style="fill:#d81515; stroke-width:1; stroke:black; " description="&lt;b&gt;CLOST_RS02270&lt;/b&gt;&lt;br&gt;aminomethyl-transferring glycine dehydrogenase&lt;br&gt;Location: 21105 - 19761&lt;br&gt;&lt;br&gt;&lt;b&gt;BlastP hit with ctg1_2698&lt;/b&gt;&lt;br&gt;Percentage identity: 32&lt;br&gt;Percentage coverage: 46&lt;br&gt;BLAST bit score: 190&lt;br&gt;E-value: 1.84e-54" locus_tag="CLOST_RS02270" class="clusterblast-orf" id="dummy-15_h15_1_2"  />
</g>
<g id="a15_003"  >
<polygon points="422,85 427,80 433,80 433,90 427,90 422,85 " style="fill:#15d815; stroke-width:1; stroke:black; " description="&lt;b&gt;CLOST_RS02265&lt;/b&gt;&lt;br&gt;glycine cleavage system protein H&lt;br&gt;Location: 19758 - 19377&lt;br&gt;&lt;br&gt;&lt;b&gt;BlastP hit with ctg1_2699&lt;/b&gt;&lt;br&gt;Percentage identity: 43&lt;br&gt;Percentage coverage: 96&lt;br&gt;BLAST bit score: 98&lt;br&gt;E-value: 2.06e-29" locus_tag="CLOST_RS02265" class="clusterblast-orf" id="dummy-15_h15_1_3"  />
</g>
<g id="a15_004"  >
<polygon points="436,85 441,80 465,80 465,90 441,90 436,85 " style="fill:#1515d8; stroke-width:1; stroke:black; " description="&lt;b&gt;CLOST_RS02260&lt;/b&gt;&lt;br&gt;glycine cleavage system protein T&lt;br&gt;Location: 19266 - 18168&lt;br&gt;&lt;br&gt;&lt;b&gt;BlastP hit with ctg1_2700&lt;/b&gt;&lt;br&gt;Percentage identity: 36&lt;br&gt;Percentage coverage: 101&lt;br&gt;BLAST bit score: 223&lt;br&gt;E-value: 6.2e-72" locus_tag="CLOST_RS02260" class="clusterblast-orf" id="dummy-15_h15_1_4"  />
</g>
</svg>
