<svg xmlns="http://www.w3.org/2000/svg" xmlns:xlink="http://www.w3.org/1999/xlink" version="1.1" x="0" y="0" height="230" width="800" viewBox="0 0 800 230" preserveAspectRatio="none"  >
<g label="Query sequence" class="clusterblast-cluster"  >
<text x="5" y="20" class="clusterblast-acc"  >
Query sequence</text>
<line x1="10" y1="35" x2="778.0" y2="35" style="stroke-width:1; stroke:grey; "  />
<polygon points="0,35 5,30 13,30 13,40 5,40 0,35 " style="fill:white; stroke-width:1; stroke:black; " description="&lt;b&gt;ctg1_3946&lt;/b&gt;&lt;br&gt;ctg1 3946&lt;br&gt;Location: 4281024 - 4281780" locus_tag="ctg1_3946" class="clusterblast-orf" id="dummy-20_q0_0_all"  />
<polygon points="23,35 28,30 34,30 34,40 28,40 23,35 " style="fill:white; stroke-width:1; stroke:black; " description="&lt;b&gt;ctg1_3947&lt;/b&gt;&lt;br&gt;ctg1 3947&lt;br&gt;Location: 4282320 - 4282947" locus_tag="ctg1_3947" class="clusterblast-orf" id="dummy-20_q1_0_all"  />
<polygon points="36,35 41,30 65,30 65,40 41,40 36,35 " style="fill:white; stroke-width:1; stroke:black; " description="&lt;b&gt;ctg1_3948&lt;/b&gt;&lt;br&gt;ctg1 3948&lt;br&gt;Location: 4283069 - 4284677" locus_tag="ctg1_3948" class="clusterblast-orf" id="dummy-20_q2_0_all"  />
<polygon points="67,35 72,30 91,30 91,40 72,40 67,35 " style="fill:white; stroke-width:1; stroke:black; " description="&lt;b&gt;ctg1_3949&lt;/b&gt;&lt;br&gt;ctg1 3949&lt;br&gt;Location: 4284793 - 4286134" locus_tag="ctg1_3949" class="clusterblast-orf" id="dummy-20_q3_0_all"  />
<polygon points="101,35 106,30 114,30 114,40 106,40 101,35 " style="fill:white; stroke-width:1; stroke:black; " description="&lt;b&gt;ctg1_3950&lt;/b&gt;&lt;br&gt;ctg1 3950&lt;br&gt;Location: 4286695 - 4287418" locus_tag="ctg1_3950" class="clusterblast-orf" id="dummy-20_q4_0_all"  />
<polygon points="114,35 119,30 143,30 143,40 119,40 114,35 " style="fill:white; stroke-width:1; stroke:black; " description="&lt;b&gt;ctg1_3951&lt;/b&gt;&lt;br&gt;ctg1 3951&lt;br&gt;Location: 4287414 - 4289046" locus_tag="ctg1_3951" class="clusterblast-orf" id="dummy-20_q5_0_all"  />
<polygon points="152,40 190,40 195,35 190,30 152,30 152,40 " style="fill:#d81515; stroke-width:1; stroke:black; " description="&lt;b&gt;ctg1_3952&lt;/b&gt;&lt;br&gt;ctg1 3952&lt;br&gt;Location: 4289537 - 4291964" locus_tag="ctg1_3952" class="clusterblast-orf" id="dummy-20_q6_0_all"  />
<polygon points="196,40 202,40 207,35 202,30 196,30 196,40 " style="fill:#77d815; stroke-width:1; stroke:black; " description="&lt;b&gt;ctg1_3953&lt;/b&gt;&lt;br&gt;ctg1 3953&lt;br&gt;Location: 4291977 - 4292604" locus_tag="ctg1_3953" class="clusterblast-orf" id="dummy-20_q7_0_all"  />
<polygon points="207,40 216,40 221,35 216,30 207,30 207,40 " style="fill:white; stroke-width:1; stroke:black; " description="&lt;b&gt;ctg1_3954&lt;/b&gt;&lt;br&gt;ctg1 3954&lt;br&gt;Location: 4292596 - 4293373" locus_tag="ctg1_3954" class="clusterblast-orf" id="dummy-20_q8_0_all"  />
<polygon points="222,40 227,40 232,35 227,30 222,30 222,40 " style="fill:white; stroke-width:1; stroke:black; " description="&lt;b&gt;ctg1_3955&lt;/b&gt;&lt;br&gt;ctg1 3955&lt;br&gt;Location: 4293427 - 4294024" locus_tag="ctg1_3955" class="clusterblast-orf" id="dummy-20_q9_0_all"  />
<polygon points="232,40 237,40 242,35 237,30 232,30 232,40 " style="fill:white; stroke-width:1; stroke:black; " description="&lt;b&gt;ctg1_3956&lt;/b&gt;&lt;br&gt;ctg1 3956&lt;br&gt;Location: 4294020 - 4294551" locus_tag="ctg1_3956" class="clusterblast-orf" id="dummy-20_q10_0_all"  />
<polygon points="256,35 260,30 260,40 256,35 " style="fill:white; stroke-width:1; stroke:black; " description="&lt;b&gt;ctg1_3957&lt;/b&gt;&lt;br&gt;ctg1 3957&lt;br&gt;Location: 4295330 - 4295588" locus_tag="ctg1_3957" class="clusterblast-orf" id="dummy-20_q11_0_all"  />
<polygon points="261,35 266,30 272,30 272,40 266,40 261,35 " style="fill:white; stroke-width:1; stroke:black; " description="&lt;b&gt;ctg1_3958&lt;/b&gt;&lt;br&gt;ctg1 3958&lt;br&gt;Location: 4295655 - 4296231" locus_tag="ctg1_3958" class="clusterblast-orf" id="dummy-20_q12_0_all"  />
<polygon points="272,35 277,30 303,30 303,40 277,40 272,35 " style="fill:white; stroke-width:1; stroke:black; " description="&lt;b&gt;ctg1_3959&lt;/b&gt;&lt;br&gt;ctg1 3959&lt;br&gt;Location: 4296267 - 4297962" locus_tag="ctg1_3959" class="clusterblast-orf" id="dummy-20_q13_0_all"  />
<polygon points="302,35 307,30 308,30 308,40 307,40 302,35 " style="fill:white; stroke-width:1; stroke:black; " description="&lt;b&gt;ctg1_3960&lt;/b&gt;&lt;br&gt;ctg1 3960&lt;br&gt;Location: 4297937 - 4298276" locus_tag="ctg1_3960" class="clusterblast-orf" id="dummy-20_q14_0_all"  />
<polygon points="310,35 315,30 334,30 334,40 315,40 310,35 " style="fill:white; stroke-width:1; stroke:black; " description="&lt;b&gt;ctg1_3961&lt;/b&gt;&lt;br&gt;ctg1 3961&lt;br&gt;Location: 4298391 - 4299693" locus_tag="ctg1_3961" class="clusterblast-orf" id="dummy-20_q15_0_all"  />
<polygon points="336,35 341,30 361,30 361,40 341,40 336,35 " style="fill:white; stroke-width:1; stroke:black; " description="&lt;b&gt;ctg1_3962&lt;/b&gt;&lt;br&gt;ctg1 3962&lt;br&gt;Location: 4299806 - 4301243" locus_tag="ctg1_3962" class="clusterblast-orf" id="dummy-20_q16_0_all"  />
<polygon points="367,40 371,40 376,35 371,30 367,30 367,40 " style="fill:white; stroke-width:1; stroke:black; " description="&lt;b&gt;ctg1_3963&lt;/b&gt;&lt;br&gt;ctg1 3963&lt;br&gt;Location: 4301579 - 4302056" locus_tag="ctg1_3963" class="clusterblast-orf" id="dummy-20_q17_0_all"  />
<polygon points="376,35 381,30 399,30 399,40 381,40 376,35 " style="fill:white; stroke-width:1; stroke:black; " description="&lt;b&gt;ctg1_3964&lt;/b&gt;&lt;br&gt;ctg1 3964&lt;br&gt;Location: 4302071 - 4303328" locus_tag="ctg1_3964" class="clusterblast-orf" id="dummy-20_q18_0_all"  />
<polygon points="404,40 404,40 409,35 404,30 404,30 404,40 " style="fill:white; stroke-width:1; stroke:black; " description="&lt;b&gt;ctg1_3965&lt;/b&gt;&lt;br&gt;ctg1 3965&lt;br&gt;Location: 4303603 - 4303897" locus_tag="ctg1_3965" class="clusterblast-orf" id="dummy-20_q19_0_all"  />
<polygon points="410,40 434,40 439,35 434,30 410,30 410,40 " style="fill:white; stroke-width:1; stroke:black; " description="&lt;b&gt;ctg1_3966&lt;/b&gt;&lt;br&gt;ctg1 3966&lt;br&gt;Location: 4303940 - 4305587" locus_tag="ctg1_3966" class="clusterblast-orf" id="dummy-20_q20_0_all"  />
<polygon points="441,40 443,40 448,35 443,30 441,30 441,40 " style="fill:white; stroke-width:1; stroke:black; " description="&lt;b&gt;ctg1_3967&lt;/b&gt;&lt;br&gt;ctg1 3967&lt;br&gt;Location: 4305721 - 4306075" locus_tag="ctg1_3967" class="clusterblast-orf" id="dummy-20_q21_0_all"  />
<polygon points="449,35 454,30 464,30 464,40 454,40 449,35 " style="fill:white; stroke-width:1; stroke:black; " description="&lt;b&gt;ctg1_3968&lt;/b&gt;&lt;br&gt;ctg1 3968&lt;br&gt;Location: 4306128 - 4306995" locus_tag="ctg1_3968" class="clusterblast-orf" id="dummy-20_q22_0_all"  />
<polygon points="471,35 476,30 489,30 489,40 476,40 471,35 " style="fill:white; stroke-width:1; stroke:black; " description="&lt;b&gt;ctg1_3969&lt;/b&gt;&lt;br&gt;ctg1 3969&lt;br&gt;Location: 4307369 - 4308398" locus_tag="ctg1_3969" class="clusterblast-orf" id="dummy-20_q23_0_all"  />
<polygon points="490,40 495,40 500,35 495,30 490,30 490,40 " style="fill:white; stroke-width:1; stroke:black; " description="&lt;b&gt;ctg1_3970&lt;/b&gt;&lt;br&gt;ctg1 3970&lt;br&gt;Location: 4308439 - 4309006" locus_tag="ctg1_3970" class="clusterblast-orf" id="dummy-20_q24_0_all"  />
<polygon points="505,40 508,35 505,30 505,40 " style="fill:white; stroke-width:1; stroke:black; " description="&lt;b&gt;ctg1_3971&lt;/b&gt;&lt;br&gt;ctg1 3971&lt;br&gt;Location: 4309293 - 4309440" locus_tag="ctg1_3971" class="clusterblast-orf" id="dummy-20_q25_0_all"  />
<polygon points="511,40 512,40 517,35 512,30 511,30 511,40 " style="fill:white; stroke-width:1; stroke:black; " description="&lt;b&gt;ctg1_3972&lt;/b&gt;&lt;br&gt;ctg1 3972&lt;br&gt;Location: 4309615 - 4309933" locus_tag="ctg1_3972" class="clusterblast-orf" id="dummy-20_q26_0_all"  />
<polygon points="517,35 522,30 526,30 526,40 522,40 517,35 " style="fill:white; stroke-width:1; stroke:black; " description="&lt;b&gt;ctg1_3973&lt;/b&gt;&lt;br&gt;ctg1 3973&lt;br&gt;Location: 4309929 - 4310463" locus_tag="ctg1_3973" class="clusterblast-orf" id="dummy-20_q27_0_all"  />
<polygon points="528,35 533,30 548,30 548,40 533,40 528,35 " style="fill:white; stroke-width:1; stroke:black; " description="&lt;b&gt;ctg1_3974&lt;/b&gt;&lt;br&gt;ctg1 3974&lt;br&gt;Location: 4310551 - 4311685" locus_tag="ctg1_3974" class="clusterblast-orf" id="dummy-20_q28_0_all"  />
<polygon points="549,35 554,30 556,30 556,40 554,40 549,35 " style="fill:white; stroke-width:1; stroke:black; " description="&lt;b&gt;ctg1_3975&lt;/b&gt;&lt;br&gt;ctg1 3975&lt;br&gt;Location: 4311747 - 4312107" locus_tag="ctg1_3975" class="clusterblast-orf" id="dummy-20_q29_0_all"  />
<polygon points="556,35 561,30 563,30 563,40 561,40 556,35 " style="fill:white; stroke-width:1; stroke:black; " description="&lt;b&gt;ctg1_3976&lt;/b&gt;&lt;br&gt;ctg1 3976&lt;br&gt;Location: 4312117 - 4312513" locus_tag="ctg1_3976" class="clusterblast-orf" id="dummy-20_q30_0_all"  />
<polygon points="563,35 568,30 576,30 576,40 568,40 563,35 " style="fill:#15d8d8; stroke-width:1; stroke:black; " description="&lt;b&gt;ctg1_3977&lt;/b&gt;&lt;br&gt;ctg1 3977&lt;br&gt;Location: 4312523 - 4313258" locus_tag="ctg1_3977" class="clusterblast-orf" id="dummy-20_q31_0_all"  />
<polygon points="576,35 581,30 609,30 609,40 581,40 576,35 " style="fill:#7715d8; stroke-width:1; stroke:black; " description="&lt;b&gt;ctg1_3978&lt;/b&gt;&lt;br&gt;ctg1 3978&lt;br&gt;Location: 4313250 - 4315059" locus_tag="ctg1_3978" class="clusterblast-orf" id="dummy-20_q32_0_all"  />
<polygon points="614,40 627,40 632,35 627,30 614,30 614,40 " style="fill:white; stroke-width:1; stroke:black; " description="&lt;b&gt;ctg1_3979&lt;/b&gt;&lt;br&gt;ctg1 3979&lt;br&gt;Location: 4315384 - 4316362" locus_tag="ctg1_3979" class="clusterblast-orf" id="dummy-20_q33_0_all"  />
<polygon points="634,40 658,40 663,35 658,30 634,30 634,40 " style="fill:white; stroke-width:1; stroke:black; " description="&lt;b&gt;ctg1_3980&lt;/b&gt;&lt;br&gt;ctg1 3980&lt;br&gt;Location: 4316501 - 4318082" locus_tag="ctg1_3980" class="clusterblast-orf" id="dummy-20_q34_0_all"  />
<polygon points="665,40 665,40 670,35 665,30 665,30 665,40 " style="fill:white; stroke-width:1; stroke:black; " description="&lt;b&gt;ctg1_3981&lt;/b&gt;&lt;br&gt;ctg1 3981&lt;br&gt;Location: 4318191 - 4318494" locus_tag="ctg1_3981" class="clusterblast-orf" id="dummy-20_q35_0_all"  />
<polygon points="671,35 676,30 730,30 730,40 676,40 671,35 " style="fill:white; stroke-width:1; stroke:black; " description="&lt;b&gt;ctg1_3982&lt;/b&gt;&lt;br&gt;ctg1 3982&lt;br&gt;Location: 4318524 - 4321848" locus_tag="ctg1_3982" class="clusterblast-orf" id="dummy-20_q36_0_all"  />
<polygon points="730,35 735,30 748,30 748,40 735,40 730,35 " style="fill:white; stroke-width:1; stroke:black; " description="&lt;b&gt;ctg1_3983&lt;/b&gt;&lt;br&gt;ctg1 3983&lt;br&gt;Location: 4321869 - 4322838" locus_tag="ctg1_3983" class="clusterblast-orf" id="dummy-20_q37_0_all"  />
<polygon points="749,35 754,30 768,30 768,40 754,40 749,35 " style="fill:white; stroke-width:1; stroke:black; " description="&lt;b&gt;ctg1_3984&lt;/b&gt;&lt;br&gt;ctg1 3984&lt;br&gt;Location: 4322934 - 4323987" locus_tag="ctg1_3984" class="clusterblast-orf" id="dummy-20_q38_0_all"  />
<polygon points="770,40 775,40 780,35 775,30 770,30 770,40 " style="fill:white; stroke-width:1; stroke:black; " description="&lt;b&gt;ctg1_3985&lt;/b&gt;&lt;br&gt;ctg1 3985&lt;br&gt;Location: 4324081 - 4324627" locus_tag="ctg1_3985" class="clusterblast-orf" id="dummy-20_q39_0_all"  />
</g>
<g label="MGC00000046" description="MGC00000046_c1: DMSO-TMAO reducatse E. coli (75% of genes show similarity), DMSAO-TMAO" class="clusterblast-cluster"  >
<text x="5" y="70" class="clusterblast-acc"  >
MGC00000046_c1: DMSO-TMAO reducatse E. coli (75% of genes show similarity), DMSAO-TMAO</text>
<line x1="10" y1="85" x2="778.0" y2="85" style="stroke-width:1; stroke:grey; "  />
</g>
<g id="a20_000"  >
<polygon points="332,90 371,90 376,85 371,80 332,80 332,90 " style="fill:#d81515; stroke-width:1; stroke:black; " description="&lt;b&gt;b1587&lt;/b&gt;&lt;br&gt;putative selenate reductase YnfE&lt;br&gt;Location: 10000 - 12427&lt;br&gt;&lt;br&gt;&lt;b&gt;BlastP hit with ctg1_3952&lt;/b&gt;&lt;br&gt;Percentage identity: 51&lt;br&gt;Percentage coverage: 100&lt;br&gt;BLAST bit score: 758&lt;br&gt;E-value: 1.38e-268" locus_tag="b1587" class="clusterblast-orf" id="dummy-20_h20_1_0"  />
</g>
<g id="a20_001"  >
<polygon points="377,90 415,90 420,85 415,80 377,80 377,90 " style="fill:#d81515; stroke-width:1; stroke:black; " description="&lt;b&gt;b1588&lt;/b&gt;&lt;br&gt;putative selenate reductase YnfF&lt;br&gt;Location: 12487 - 14911&lt;br&gt;&lt;br&gt;&lt;b&gt;BlastP hit with ctg1_3952&lt;/b&gt;&lt;br&gt;Percentage identity: 49&lt;br&gt;Percentage coverage: 100&lt;br&gt;BLAST bit score: 724&lt;br&gt;E-value: 2.63e-255" locus_tag="b1588" class="clusterblast-orf" id="dummy-20_h20_1_1"  />
</g>
<g id="a20_002"  >
<polygon points="420,90 426,90 431,85 426,80 420,80 420,90 " style="fill:#77d815; stroke-width:1; stroke:black; " description="&lt;b&gt;b1589&lt;/b&gt;&lt;br&gt;putative oxidoreductase YnfG&lt;br&gt;Location: 14921 - 15539&lt;br&gt;&lt;br&gt;&lt;b&gt;BlastP hit with ctg1_3953&lt;/b&gt;&lt;br&gt;Percentage identity: 60&lt;br&gt;Percentage coverage: 98&lt;br&gt;BLAST bit score: 283&lt;br&gt;E-value: 4.33e-100" locus_tag="b1589" class="clusterblast-orf" id="dummy-20_h20_1_2"  />
</g>
<g id="a20_003"  >
<polygon points="431,90 442,90 447,85 442,80 431,80 431,90 " style="fill:white; stroke-width:1; stroke:black; " description="&lt;b&gt;b1590&lt;/b&gt;&lt;br&gt;putative menaquinol dehydrogenase&lt;br&gt;Location: 15540 - 16395" locus_tag="b1590" class="clusterblast-orf" id="dummy-20_h20_1_3"  />
</g>
</svg>
