<svg xmlns="http://www.w3.org/2000/svg" xmlns:xlink="http://www.w3.org/1999/xlink" version="1.1" x="0" y="0" height="100" width="800" viewBox="0 0 800 100" preserveAspectRatio="none"  >
<g label="Query sequence" class="clusterblast-cluster"  >
<text x="5" y="20" class="clusterblast-acc"  >
Query sequence</text>
<line x1="10" y1="35" x2="778.0" y2="35" style="stroke-width:1; stroke:grey; "  />
<polygon points="0,35 5,30 12,30 12,40 5,40 0,35 " style="fill:white; stroke-width:1; stroke:black; " description="&lt;b&gt;ctg1_3662&lt;/b&gt;&lt;br&gt;ctg1 3662&lt;br&gt;Location: 3977613 - 3977946" locus_tag="ctg1_3662" class="clusterblast-orf" id="knownclusterblast-19_q0_0_all"  />
<polygon points="19,35 24,30 38,30 38,40 24,40 19,35 " style="fill:white; stroke-width:1; stroke:black; " description="&lt;b&gt;ctg1_3663&lt;/b&gt;&lt;br&gt;ctg1 3663&lt;br&gt;Location: 3978144 - 3978642" locus_tag="ctg1_3663" class="clusterblast-orf" id="knownclusterblast-19_q1_0_all"  />
<polygon points="45,35 50,30 130,30 130,40 50,40 45,35 " style="fill:white; stroke-width:1; stroke:black; " description="&lt;b&gt;ctg1_3664&lt;/b&gt;&lt;br&gt;ctg1 3664&lt;br&gt;Location: 3978837 - 3981144" locus_tag="ctg1_3664" class="clusterblast-orf" id="knownclusterblast-19_q2_0_all"  />
<polygon points="130,35 135,30 198,30 198,40 135,40 130,35 " style="fill:white; stroke-width:1; stroke:black; " description="&lt;b&gt;ctg1_3665&lt;/b&gt;&lt;br&gt;ctg1 3665&lt;br&gt;Location: 3981145 - 3982981" locus_tag="ctg1_3665" class="clusterblast-orf" id="knownclusterblast-19_q3_0_all"  />
<polygon points="209,35 214,30 240,30 240,40 214,40 209,35 " style="fill:white; stroke-width:1; stroke:black; " description="&lt;b&gt;ctg1_3666&lt;/b&gt;&lt;br&gt;ctg1 3666&lt;br&gt;Location: 3983291 - 3984128" locus_tag="ctg1_3666" class="clusterblast-orf" id="knownclusterblast-19_q4_0_all"  />
<polygon points="247,40 264,40 269,35 264,30 247,30 247,40 " style="fill:#d81515; stroke-width:1; stroke:black; " description="&lt;b&gt;ctg1_3667&lt;/b&gt;&lt;br&gt;ctg1 3667&lt;br&gt;Location: 3984321 - 3984909" locus_tag="ctg1_3667" class="clusterblast-orf" id="knownclusterblast-19_q5_0_all"  />
<polygon points="271,40 355,40 360,35 355,30 271,30 271,40 " style="fill:#d81515; stroke-width:1; stroke:black; " description="&lt;b&gt;ctg1_3668&lt;/b&gt;&lt;br&gt;ctg1 3668&lt;br&gt;Location: 3984957 - 3987372" locus_tag="ctg1_3668" class="clusterblast-orf" id="knownclusterblast-19_q6_0_all"  />
<polygon points="360,40 388,40 393,35 388,30 360,30 360,40 " style="fill:#15d815; stroke-width:1; stroke:black; " description="&lt;b&gt;ctg1_3669&lt;/b&gt;&lt;br&gt;ctg1 3669&lt;br&gt;Location: 3987384 - 3988287" locus_tag="ctg1_3669" class="clusterblast-orf" id="knownclusterblast-19_q7_0_all"  />
<polygon points="393,40 412,40 417,35 412,30 393,30 393,40 " style="fill:#1515d8; stroke-width:1; stroke:black; " description="&lt;b&gt;ctg1_3670&lt;/b&gt;&lt;br&gt;ctg1 3670&lt;br&gt;Location: 3988283 - 3988919" locus_tag="ctg1_3670" class="clusterblast-orf" id="knownclusterblast-19_q8_0_all"  />
<polygon points="416,40 446,40 451,35 446,30 416,30 416,40 " style="fill:white; stroke-width:1; stroke:black; " description="&lt;b&gt;ctg1_3671&lt;/b&gt;&lt;br&gt;ctg1 3671&lt;br&gt;Location: 3988915 - 3989845" locus_tag="ctg1_3671" class="clusterblast-orf" id="knownclusterblast-19_q9_0_all"  />
<polygon points="463,35 468,30 472,30 472,40 468,40 463,35 " style="fill:white; stroke-width:1; stroke:black; " description="&lt;b&gt;ctg1_3672&lt;/b&gt;&lt;br&gt;ctg1 3672&lt;br&gt;Location: 3990189 - 3990411" locus_tag="ctg1_3672" class="clusterblast-orf" id="knownclusterblast-19_q10_0_all"  />
<polygon points="487,35 492,30 497,30 497,40 492,40 487,35 " style="fill:white; stroke-width:1; stroke:black; " description="&lt;b&gt;ctg1_3673&lt;/b&gt;&lt;br&gt;ctg1 3673&lt;br&gt;Location: 3990825 - 3991104" locus_tag="ctg1_3673" class="clusterblast-orf" id="knownclusterblast-19_q11_0_all"  />
<polygon points="499,35 504,30 507,30 507,40 504,40 499,35 " style="fill:white; stroke-width:1; stroke:black; " description="&lt;b&gt;ctg1_3674&lt;/b&gt;&lt;br&gt;ctg1 3674&lt;br&gt;Location: 3991165 - 3991378" locus_tag="ctg1_3674" class="clusterblast-orf" id="knownclusterblast-19_q12_0_all"  />
<polygon points="513,35 518,30 548,30 548,40 518,40 513,35 " style="fill:white; stroke-width:1; stroke:black; " description="&lt;b&gt;ctg1_3675&lt;/b&gt;&lt;br&gt;ctg1 3675&lt;br&gt;Location: 3991546 - 3992488" locus_tag="ctg1_3675" class="clusterblast-orf" id="knownclusterblast-19_q13_0_all"  />
<polygon points="550,35 555,30 566,30 566,40 555,40 550,35 " style="fill:white; stroke-width:1; stroke:black; " description="&lt;b&gt;ctg1_3676&lt;/b&gt;&lt;br&gt;ctg1 3676&lt;br&gt;Location: 3992532 - 3992970" locus_tag="ctg1_3676" class="clusterblast-orf" id="knownclusterblast-19_q14_0_all"  />
<polygon points="566,35 571,30 598,30 598,40 571,40 566,35 " style="fill:white; stroke-width:1; stroke:black; " description="&lt;b&gt;ctg1_3677&lt;/b&gt;&lt;br&gt;ctg1 3677&lt;br&gt;Location: 3992966 - 3993839" locus_tag="ctg1_3677" class="clusterblast-orf" id="knownclusterblast-19_q15_0_all"  />
<polygon points="598,35 603,30 620,30 620,40 603,40 598,35 " style="fill:white; stroke-width:1; stroke:black; " description="&lt;b&gt;ctg1_3678&lt;/b&gt;&lt;br&gt;ctg1 3678&lt;br&gt;Location: 3993832 - 3994432" locus_tag="ctg1_3678" class="clusterblast-orf" id="knownclusterblast-19_q16_0_all"  />
<polygon points="633,40 659,40 664,35 659,30 633,30 633,40 " style="fill:white; stroke-width:1; stroke:black; " description="&lt;b&gt;ctg1_3679&lt;/b&gt;&lt;br&gt;ctg1 3679&lt;br&gt;Location: 3994784 - 3995630" locus_tag="ctg1_3679" class="clusterblast-orf" id="knownclusterblast-19_q17_0_all"  />
<polygon points="666,40 698,40 703,35 698,30 666,30 666,40 " style="fill:white; stroke-width:1; stroke:black; " description="&lt;b&gt;ctg1_3680&lt;/b&gt;&lt;br&gt;ctg1 3680&lt;br&gt;Location: 3995690 - 3996677" locus_tag="ctg1_3680" class="clusterblast-orf" id="knownclusterblast-19_q18_0_all"  />
<polygon points="702,40 729,40 734,35 729,30 702,30 702,40 " style="fill:white; stroke-width:1; stroke:black; " description="&lt;b&gt;ctg1_3681&lt;/b&gt;&lt;br&gt;ctg1 3681&lt;br&gt;Location: 3996669 - 3997542" locus_tag="ctg1_3681" class="clusterblast-orf" id="knownclusterblast-19_q19_0_all"  />
<polygon points="734,40 775,40 780,35 775,30 734,30 734,40 " style="fill:white; stroke-width:1; stroke:black; " description="&lt;b&gt;ctg1_3682&lt;/b&gt;&lt;br&gt;ctg1 3682&lt;br&gt;Location: 3997522 - 3998773" locus_tag="ctg1_3682" class="clusterblast-orf" id="knownclusterblast-19_q20_0_all"  />
</g>
<g label="MGC00000049" description="MGC00000049_c1: Formate dehydrogenase E. coli (100% of genes show similarity), FORM" class="clusterblast-cluster"  >
<text x="5" y="70" class="clusterblast-acc"  >
MGC00000049_c1: Formate dehydrogenase E. coli (100% of genes show similarity), FORM</text>
<line x1="10" y1="85" x2="778.0" y2="85" style="stroke-width:1; stroke:grey; "  />
</g>
<g id="a19_000"  >
<polygon points="305,90 412,90 417,85 412,80 305,80 305,90 " style="fill:#d81515; stroke-width:1; stroke:black; " description="&lt;b&gt;b3894&lt;/b&gt;&lt;br&gt;formate dehydrogenase O subunit alpha&lt;br&gt;Location: 14598 - 11547&lt;br&gt;&lt;br&gt;&lt;b&gt;BlastP hit with ctg1_3667&lt;/b&gt;&lt;br&gt;Percentage identity: 100&lt;br&gt;Percentage coverage: 100&lt;br&gt;BLAST bit score: 398&lt;br&gt;E-value: 1.62e-135&lt;br&gt;&lt;br&gt;&lt;b&gt;BlastP hit with ctg1_3668&lt;/b&gt;&lt;br&gt;Percentage identity: 100&lt;br&gt;Percentage coverage: 100&lt;br&gt;BLAST bit score: 1673&lt;br&gt;E-value: 0.0" locus_tag="b3894" class="clusterblast-orf" id="knownclusterblast-19_all_19_1_0"  />
</g>
<g id="a19_001"  >
<polygon points="418,90 446,90 451,85 446,80 418,80 418,90 " style="fill:#15d815; stroke-width:1; stroke:black; " description="&lt;b&gt;b3893&lt;/b&gt;&lt;br&gt;formate dehydrogenase O subunit beta&lt;br&gt;Location: 11535 - 10632&lt;br&gt;&lt;br&gt;&lt;b&gt;BlastP hit with ctg1_3669&lt;/b&gt;&lt;br&gt;Percentage identity: 100&lt;br&gt;Percentage coverage: 100&lt;br&gt;BLAST bit score: 634&lt;br&gt;E-value: 8.1e-236" locus_tag="b3893" class="clusterblast-orf" id="knownclusterblast-19_all_19_1_1"  />
</g>
<g id="a19_002"  >
<polygon points="451,90 469,90 474,85 469,80 451,80 451,90 " style="fill:#1515d8; stroke-width:1; stroke:black; " description="&lt;b&gt;b3892&lt;/b&gt;&lt;br&gt;formate dehydrogenase O subunit gamma&lt;br&gt;Location: 10636 - 10000&lt;br&gt;&lt;br&gt;&lt;b&gt;BlastP hit with ctg1_3670&lt;/b&gt;&lt;br&gt;Percentage identity: 100&lt;br&gt;Percentage coverage: 100&lt;br&gt;BLAST bit score: 423&lt;br&gt;E-value: 2.96e-155" locus_tag="b3892" class="clusterblast-orf" id="knownclusterblast-19_all_19_1_2"  />
</g>
</svg>
