<svg xmlns="http://www.w3.org/2000/svg" xmlns:xlink="http://www.w3.org/1999/xlink" version="1.1" x="0" y="0" height="230" width="800" viewBox="0 0 800 230" preserveAspectRatio="none"  >
<g label="Query sequence" class="clusterblast-cluster"  >
<text x="5" y="20" class="clusterblast-acc"  >
Query sequence</text>
<line x1="10" y1="35" x2="778.0" y2="35" style="stroke-width:1; stroke:grey; "  />
<polygon points="0,35 5,30 39,30 39,40 5,40 0,35 " style="fill:white; stroke-width:1; stroke:black; " description="&lt;b&gt;ctg1_651&lt;/b&gt;&lt;br&gt;ctg1 651&lt;br&gt;Location: 726769 - 728476" locus_tag="ctg1_651" class="clusterblast-orf" id="dummy-4_q0_0_all"  />
<polygon points="44,40 84,40 89,35 84,30 44,30 44,40 " style="fill:white; stroke-width:1; stroke:black; " description="&lt;b&gt;ctg1_652&lt;/b&gt;&lt;br&gt;ctg1 652&lt;br&gt;Location: 728695 - 730675" locus_tag="ctg1_652" class="clusterblast-orf" id="dummy-4_q1_0_all"  />
<polygon points="91,40 99,40 104,35 99,30 91,30 91,40 " style="fill:white; stroke-width:1; stroke:black; " description="&lt;b&gt;ctg1_653&lt;/b&gt;&lt;br&gt;ctg1 653&lt;br&gt;Location: 730742 - 731318" locus_tag="ctg1_653" class="clusterblast-orf" id="dummy-4_q2_0_all"  />
<polygon points="107,40 126,40 131,35 126,30 107,30 107,40 " style="fill:white; stroke-width:1; stroke:black; " description="&lt;b&gt;ctg1_654&lt;/b&gt;&lt;br&gt;ctg1 654&lt;br&gt;Location: 731440 - 732484" locus_tag="ctg1_654" class="clusterblast-orf" id="dummy-4_q3_0_all"  />
<polygon points="131,35 136,30 177,30 177,40 136,40 131,35 " style="fill:white; stroke-width:1; stroke:black; " description="&lt;b&gt;ctg1_655&lt;/b&gt;&lt;br&gt;ctg1 655&lt;br&gt;Location: 732502 - 734506" locus_tag="ctg1_655" class="clusterblast-orf" id="dummy-4_q4_0_all"  />
<polygon points="178,35 183,30 199,30 199,40 183,40 178,35 " style="fill:white; stroke-width:1; stroke:black; " description="&lt;b&gt;ctg1_656&lt;/b&gt;&lt;br&gt;ctg1 656&lt;br&gt;Location: 734528 - 735479" locus_tag="ctg1_656" class="clusterblast-orf" id="dummy-4_q5_0_all"  />
<polygon points="206,40 253,40 258,35 253,30 206,30 206,40 " style="fill:#d81515; stroke-width:1; stroke:black; " description="&lt;b&gt;ctg1_657&lt;/b&gt;&lt;br&gt;ctg1 657&lt;br&gt;Location: 735753 - 738033" locus_tag="ctg1_657" class="clusterblast-orf" id="dummy-4_q6_0_all"  />
<polygon points="265,40 267,40 272,35 267,30 265,30 265,40 " style="fill:#77d815; stroke-width:1; stroke:black; " description="&lt;b&gt;ctg1_658&lt;/b&gt;&lt;br&gt;ctg1 658&lt;br&gt;Location: 738327 - 738663" locus_tag="ctg1_658" class="clusterblast-orf" id="dummy-4_q7_0_all"  />
<polygon points="273,40 279,40 284,35 279,30 273,30 273,40 " style="fill:#15d8d8; stroke-width:1; stroke:black; " description="&lt;b&gt;ctg1_659&lt;/b&gt;&lt;br&gt;ctg1 659&lt;br&gt;Location: 738675 - 739155" locus_tag="ctg1_659" class="clusterblast-orf" id="dummy-4_q8_0_all"  />
<polygon points="283,40 294,40 299,35 294,30 283,30 283,40 " style="fill:#7715d8; stroke-width:1; stroke:black; " description="&lt;b&gt;ctg1_660&lt;/b&gt;&lt;br&gt;ctg1 660&lt;br&gt;Location: 739129 - 739831" locus_tag="ctg1_660" class="clusterblast-orf" id="dummy-4_q9_0_all"  />
<polygon points="299,40 313,40 318,35 313,30 299,30 299,40 " style="fill:#d85e15; stroke-width:1; stroke:black; " description="&lt;b&gt;ctg1_661&lt;/b&gt;&lt;br&gt;ctg1 661&lt;br&gt;Location: 739827 - 740631" locus_tag="ctg1_661" class="clusterblast-orf" id="dummy-4_q10_0_all"  />
<polygon points="317,40 336,40 341,35 336,30 317,30 317,40 " style="fill:#d81515; stroke-width:1; stroke:black; " description="&lt;b&gt;ctg1_662&lt;/b&gt;&lt;br&gt;ctg1 662&lt;br&gt;Location: 740627 - 741644" locus_tag="ctg1_662" class="clusterblast-orf" id="dummy-4_q11_0_all"  />
<polygon points="341,40 343,40 348,35 343,30 341,30 341,40 " style="fill:#2ed815; stroke-width:1; stroke:black; " description="&lt;b&gt;ctg1_663&lt;/b&gt;&lt;br&gt;ctg1 663&lt;br&gt;Location: 741640 - 741976" locus_tag="ctg1_663" class="clusterblast-orf" id="dummy-4_q12_0_all"  />
<polygon points="351,40 352,40 357,35 352,30 351,30 351,40 " style="fill:#158fd8; stroke-width:1; stroke:black; " description="&lt;b&gt;ctg1_664&lt;/b&gt;&lt;br&gt;ctg1 664&lt;br&gt;Location: 742082 - 742370" locus_tag="ctg1_664" class="clusterblast-orf" id="dummy-4_q13_0_all"  />
<polygon points="358,40 385,40 390,35 385,30 358,30 358,40 " style="fill:#c015d8; stroke-width:1; stroke:black; " description="&lt;b&gt;ctg1_665&lt;/b&gt;&lt;br&gt;ctg1 665&lt;br&gt;Location: 742381 - 743785" locus_tag="ctg1_665" class="clusterblast-orf" id="dummy-4_q14_0_all"  />
<polygon points="390,40 404,40 409,35 404,30 390,30 390,40 " style="fill:#d8a715; stroke-width:1; stroke:black; " description="&lt;b&gt;ctg1_666&lt;/b&gt;&lt;br&gt;ctg1 666&lt;br&gt;Location: 743795 - 744632" locus_tag="ctg1_666" class="clusterblast-orf" id="dummy-4_q15_0_all"  />
<polygon points="409,40 431,40 436,35 431,30 409,30 409,40 " style="fill:#15d846; stroke-width:1; stroke:black; " description="&lt;b&gt;ctg1_667&lt;/b&gt;&lt;br&gt;ctg1 667&lt;br&gt;Location: 744621 - 745809" locus_tag="ctg1_667" class="clusterblast-orf" id="dummy-4_q16_0_all"  />
<polygon points="439,40 462,40 467,35 462,30 439,30 439,40 " style="fill:#1546d8; stroke-width:1; stroke:black; " description="&lt;b&gt;ctg1_668&lt;/b&gt;&lt;br&gt;ctg1 668&lt;br&gt;Location: 745925 - 747152" locus_tag="ctg1_668" class="clusterblast-orf" id="dummy-4_q17_0_all"  />
<polygon points="467,40 494,40 499,35 494,30 467,30 467,40 " style="fill:#d815a7; stroke-width:1; stroke:black; " description="&lt;b&gt;ctg1_669&lt;/b&gt;&lt;br&gt;ctg1 669&lt;br&gt;Location: 747148 - 748552" locus_tag="ctg1_669" class="clusterblast-orf" id="dummy-4_q18_0_all"  />
<polygon points="499,40 526,40 531,35 526,30 499,30 499,40 " style="fill:#c0d815; stroke-width:1; stroke:black; " description="&lt;b&gt;ctg1_670&lt;/b&gt;&lt;br&gt;ctg1 670&lt;br&gt;Location: 748563 - 749925" locus_tag="ctg1_670" class="clusterblast-orf" id="dummy-4_q19_0_all"  />
<polygon points="531,40 547,40 552,35 547,30 531,30 531,40 " style="fill:#15d88f; stroke-width:1; stroke:black; " description="&lt;b&gt;ctg1_671&lt;/b&gt;&lt;br&gt;ctg1 671&lt;br&gt;Location: 749945 - 750833" locus_tag="ctg1_671" class="clusterblast-orf" id="dummy-4_q20_0_all"  />
<polygon points="552,40 562,40 567,35 562,30 552,30 552,40 " style="fill:#2e15d8; stroke-width:1; stroke:black; " description="&lt;b&gt;ctg1_672&lt;/b&gt;&lt;br&gt;ctg1 672&lt;br&gt;Location: 750842 - 751502" locus_tag="ctg1_672" class="clusterblast-orf" id="dummy-4_q21_0_all"  />
<polygon points="567,40 574,40 579,35 574,30 567,30 567,40 " style="fill:#2ed815; stroke-width:1; stroke:black; " description="&lt;b&gt;ctg1_673&lt;/b&gt;&lt;br&gt;ctg1 673&lt;br&gt;Location: 751514 - 752015" locus_tag="ctg1_673" class="clusterblast-orf" id="dummy-4_q22_0_all"  />
<polygon points="580,40 599,40 604,35 599,30 580,30 580,40 " style="fill:#d8155e; stroke-width:1; stroke:black; " description="&lt;b&gt;ctg1_674&lt;/b&gt;&lt;br&gt;ctg1 674&lt;br&gt;Location: 752060 - 753113" locus_tag="ctg1_674" class="clusterblast-orf" id="dummy-4_q23_0_all"  />
<polygon points="606,35 611,30 613,30 613,40 611,40 606,35 " style="fill:white; stroke-width:1; stroke:black; " description="&lt;b&gt;ctg1_675&lt;/b&gt;&lt;br&gt;ctg1 675&lt;br&gt;Location: 753189 - 753507" locus_tag="ctg1_675" class="clusterblast-orf" id="dummy-4_q24_0_all"  />
<polygon points="614,35 619,30 643,30 643,40 619,40 614,35 " style="fill:white; stroke-width:1; stroke:black; " description="&lt;b&gt;ctg1_676&lt;/b&gt;&lt;br&gt;ctg1 676&lt;br&gt;Location: 753545 - 754808" locus_tag="ctg1_676" class="clusterblast-orf" id="dummy-4_q25_0_all"  />
<polygon points="646,35 651,30 666,30 666,40 651,40 646,35 " style="fill:white; stroke-width:1; stroke:black; " description="&lt;b&gt;ctg1_677&lt;/b&gt;&lt;br&gt;ctg1 677&lt;br&gt;Location: 754945 - 755845" locus_tag="ctg1_677" class="clusterblast-orf" id="dummy-4_q26_0_all"  />
<polygon points="667,35 672,30 686,30 686,40 672,40 667,35 " style="fill:white; stroke-width:1; stroke:black; " description="&lt;b&gt;ctg1_678&lt;/b&gt;&lt;br&gt;ctg1 678&lt;br&gt;Location: 755848 - 756718" locus_tag="ctg1_678" class="clusterblast-orf" id="dummy-4_q27_0_all"  />
<polygon points="691,40 696,40 701,35 696,30 691,30 691,40 " style="fill:white; stroke-width:1; stroke:black; " description="&lt;b&gt;ctg1_679&lt;/b&gt;&lt;br&gt;ctg1 679&lt;br&gt;Location: 756930 - 757356" locus_tag="ctg1_679" class="clusterblast-orf" id="dummy-4_q28_0_all"  />
<polygon points="701,40 706,40 711,35 706,30 701,30 701,40 " style="fill:white; stroke-width:1; stroke:black; " description="&lt;b&gt;ctg1_680&lt;/b&gt;&lt;br&gt;ctg1 680&lt;br&gt;Location: 757342 - 757792" locus_tag="ctg1_680" class="clusterblast-orf" id="dummy-4_q29_0_all"  />
<polygon points="712,40 721,40 726,35 721,30 712,30 712,40 " style="fill:white; stroke-width:1; stroke:black; " description="&lt;b&gt;ctg1_681&lt;/b&gt;&lt;br&gt;ctg1 681&lt;br&gt;Location: 757852 - 758428" locus_tag="ctg1_681" class="clusterblast-orf" id="dummy-4_q30_0_all"  />
<polygon points="728,40 743,40 748,35 743,30 728,30 728,40 " style="fill:white; stroke-width:1; stroke:black; " description="&lt;b&gt;ctg1_682&lt;/b&gt;&lt;br&gt;ctg1 682&lt;br&gt;Location: 758523 - 759423" locus_tag="ctg1_682" class="clusterblast-orf" id="dummy-4_q31_0_all"  />
<polygon points="751,35 756,30 780,30 780,40 756,40 751,35 " style="fill:white; stroke-width:1; stroke:black; " description="&lt;b&gt;ctg1_683&lt;/b&gt;&lt;br&gt;ctg1 683&lt;br&gt;Location: 759519 - 760785" locus_tag="ctg1_683" class="clusterblast-orf" id="dummy-4_q32_0_all"  />
</g>
<g label="MGC00000010" description="MGC00000010_c1: Propanediol degradation S. enterica (25% of genes show similarity), PDU" class="clusterblast-cluster"  >
<text x="5" y="70" class="clusterblast-acc"  >
MGC00000010_c1: Propanediol degradation S. enterica (25% of genes show similarity), PDU</text>
<line x1="10" y1="85" x2="778.0" y2="85" style="stroke-width:1; stroke:grey; "  />
</g>
<g id="a4_000"  >
<polygon points="167,85 172,80 188,80 188,90 172,90 167,85 " style="fill:white; stroke-width:1; stroke:black; " description="&lt;b&gt;STM2036&lt;/b&gt;&lt;br&gt;transcriptional regulator PocR&lt;br&gt;Location: 221 - 1133" locus_tag="STM2036" class="clusterblast-orf" id="dummy-4_h4_2_0"  />
</g>
<g id="a4_001"  >
<polygon points="193,85 198,80 211,80 211,90 198,90 193,85 " style="fill:white; stroke-width:1; stroke:black; " description="&lt;b&gt;STM2037&lt;/b&gt;&lt;br&gt;propanediol diffusion facilitator&lt;br&gt;Location: 1349 - 2144" locus_tag="STM2037" class="clusterblast-orf" id="dummy-4_h4_2_1"  />
</g>
<g id="a4_002"  >
<polygon points="223,90 225,90 230,85 225,80 223,80 223,90 " style="fill:#2ed815; stroke-width:1; stroke:black; " description="&lt;b&gt;STM2038&lt;/b&gt;&lt;br&gt;propanediol utilization polyhedral body protein PduA&lt;br&gt;Location: 2668 - 2953&lt;br&gt;&lt;br&gt;&lt;b&gt;BlastP hit with ctg1_663&lt;/b&gt;&lt;br&gt;Percentage identity: 66&lt;br&gt;Percentage coverage: 80&lt;br&gt;BLAST bit score: 114&lt;br&gt;E-value: 1.27e-36&lt;br&gt;&lt;br&gt;&lt;b&gt;BlastP hit with ctg1_673&lt;/b&gt;&lt;br&gt;Percentage identity: 46&lt;br&gt;Percentage coverage: 51&lt;br&gt;BLAST bit score: 73&lt;br&gt;E-value: 2.38e-19" locus_tag="STM2038" class="clusterblast-orf" id="dummy-4_h4_2_2"  />
</g>
<g id="a4_003"  >
<polygon points="229,90 243,90 248,85 243,80 229,80 229,90 " style="fill:white; stroke-width:1; stroke:black; " description="&lt;b&gt;STM2039&lt;/b&gt;&lt;br&gt;propanediol utilization polyhedral body protein PduB&lt;br&gt;Location: 2949 - 3762" locus_tag="STM2039" class="clusterblast-orf" id="dummy-4_h4_2_3"  />
</g>
<g id="a4_004"  >
<polygon points="248,90 282,90 287,85 282,80 248,80 248,90 " style="fill:white; stroke-width:1; stroke:black; " description="&lt;b&gt;STM2040&lt;/b&gt;&lt;br&gt;propanediol dehydratase large subunit&lt;br&gt;Location: 3780 - 5445" locus_tag="STM2040" class="clusterblast-orf" id="dummy-4_h4_2_4"  />
</g>
<g id="a4_005"  >
<polygon points="287,90 297,90 302,85 297,80 287,80 287,90 " style="fill:white; stroke-width:1; stroke:black; " description="&lt;b&gt;STM2041&lt;/b&gt;&lt;br&gt;propanediol dehydratase medium subunit&lt;br&gt;Location: 5455 - 6130" locus_tag="STM2041" class="clusterblast-orf" id="dummy-4_h4_2_5"  />
</g>
<g id="a4_006"  >
<polygon points="303,90 310,90 315,85 310,80 303,80 303,90 " style="fill:white; stroke-width:1; stroke:black; " description="&lt;b&gt;STM2042&lt;/b&gt;&lt;br&gt;propanediol dehydratase small subunit&lt;br&gt;Location: 6144 - 6666" locus_tag="STM2042" class="clusterblast-orf" id="dummy-4_h4_2_6"  />
</g>
<g id="a4_007"  >
<polygon points="315,90 352,90 357,85 352,80 315,80 315,90 " style="fill:white; stroke-width:1; stroke:black; " description="&lt;b&gt;STM2043&lt;/b&gt;&lt;br&gt;propanediol dehydratase reactivation protein&lt;br&gt;Location: 6675 - 8508" locus_tag="STM2043" class="clusterblast-orf" id="dummy-4_h4_2_7"  />
</g>
<g id="a4_008"  >
<polygon points="357,90 360,90 365,85 360,80 357,80 357,90 " style="fill:white; stroke-width:1; stroke:black; " description="&lt;b&gt;STM2044&lt;/b&gt;&lt;br&gt;propanediol dehydratase reactivation protein&lt;br&gt;Location: 8497 - 8848" locus_tag="STM2044" class="clusterblast-orf" id="dummy-4_h4_2_8"  />
</g>
<g id="a4_009"  >
<polygon points="365,90 366,90 371,85 366,80 365,80 365,90 " style="fill:#2ed815; stroke-width:1; stroke:black; " description="&lt;b&gt;STM2045&lt;/b&gt;&lt;br&gt;propanediol utilization polyhedral body protein PduJ&lt;br&gt;Location: 8866 - 9142&lt;br&gt;&lt;br&gt;&lt;b&gt;BlastP hit with ctg1_663&lt;/b&gt;&lt;br&gt;Percentage identity: 65&lt;br&gt;Percentage coverage: 77&lt;br&gt;BLAST bit score: 106&lt;br&gt;E-value: 1.82e-33&lt;br&gt;&lt;br&gt;&lt;b&gt;BlastP hit with ctg1_673&lt;/b&gt;&lt;br&gt;Percentage identity: 48&lt;br&gt;Percentage coverage: 52&lt;br&gt;BLAST bit score: 77&lt;br&gt;E-value: 5e-21" locus_tag="STM2045" class="clusterblast-orf" id="dummy-4_h4_2_9"  />
</g>
<g id="a4_0010"  >
<polygon points="372,90 378,90 383,85 378,80 372,80 372,90 " style="fill:white; stroke-width:1; stroke:black; " description="&lt;b&gt;STM2046&lt;/b&gt;&lt;br&gt;propanediol utilization polyhedral body protein PduK&lt;br&gt;Location: 9166 - 9628" locus_tag="STM2046" class="clusterblast-orf" id="dummy-4_h4_2_10"  />
</g>
<g id="a4_0011"  >
<polygon points="383,90 392,90 397,85 392,80 383,80 383,90 " style="fill:white; stroke-width:1; stroke:black; " description="&lt;b&gt;STM2047&lt;/b&gt;&lt;br&gt;phosphate propanoyltransferase&lt;br&gt;Location: 9627 - 10260" locus_tag="STM2047" class="clusterblast-orf" id="dummy-4_h4_2_11"  />
</g>
<g id="a4_0012"  >
<polygon points="397,90 403,90 408,85 403,80 397,80 397,90 " style="fill:white; stroke-width:1; stroke:black; " description="&lt;b&gt;STM2048&lt;/b&gt;&lt;br&gt;propanediol utilization protein PduM&lt;br&gt;Location: 10256 - 10748" locus_tag="STM2048" class="clusterblast-orf" id="dummy-4_h4_2_12"  />
</g>
<g id="a4_0013"  >
<polygon points="408,90 410,90 415,85 410,80 408,80 408,90 " style="fill:#158fd8; stroke-width:1; stroke:black; " description="&lt;b&gt;STM2049&lt;/b&gt;&lt;br&gt;propanediol utilization polyhedral body protein PduN&lt;br&gt;Location: 10751 - 11027&lt;br&gt;&lt;br&gt;&lt;b&gt;BlastP hit with ctg1_664&lt;/b&gt;&lt;br&gt;Percentage identity: 44&lt;br&gt;Percentage coverage: 92&lt;br&gt;BLAST bit score: 67&lt;br&gt;E-value: 6.17e-18" locus_tag="STM2049" class="clusterblast-orf" id="dummy-4_h4_2_13"  />
</g>
<g id="a4_0014"  >
<polygon points="415,90 433,90 438,85 433,80 415,80 415,90 " style="fill:white; stroke-width:1; stroke:black; " description="&lt;b&gt;STM2050&lt;/b&gt;&lt;br&gt;propanediol utilization protein PduO&lt;br&gt;Location: 11036 - 12047" locus_tag="STM2050" class="clusterblast-orf" id="dummy-4_h4_2_14"  />
</g>
<g id="a4_0015"  >
<polygon points="438,90 465,90 470,85 465,80 438,80 438,90 " style="fill:#c015d8; stroke-width:1; stroke:black; " description="&lt;b&gt;STM2051&lt;/b&gt;&lt;br&gt;CoA-dependent propionaldehyde dehydrogenase&lt;br&gt;Location: 12043 - 13438&lt;br&gt;&lt;br&gt;&lt;b&gt;BlastP hit with ctg1_665&lt;/b&gt;&lt;br&gt;Percentage identity: 46&lt;br&gt;Percentage coverage: 101&lt;br&gt;BLAST bit score: 367&lt;br&gt;E-value: 2.61e-125" locus_tag="STM2051" class="clusterblast-orf" id="dummy-4_h4_2_15"  />
</g>
<g id="a4_0016"  >
<polygon points="470,90 491,90 496,85 491,80 470,80 470,90 " style="fill:#15d846; stroke-width:1; stroke:black; " description="&lt;b&gt;STM2052&lt;/b&gt;&lt;br&gt;propanol dehydrogenase&lt;br&gt;Location: 13449 - 14562&lt;br&gt;&lt;br&gt;&lt;b&gt;BlastP hit with ctg1_667&lt;/b&gt;&lt;br&gt;Percentage identity: 38&lt;br&gt;Percentage coverage: 96&lt;br&gt;BLAST bit score: 187&lt;br&gt;E-value: 1.1e-57" locus_tag="STM2052" class="clusterblast-orf" id="dummy-4_h4_2_16"  />
</g>
<g id="a4_0017"  >
<polygon points="496,90 522,90 527,85 522,80 496,80 496,90 " style="fill:white; stroke-width:1; stroke:black; " description="&lt;b&gt;STM2053&lt;/b&gt;&lt;br&gt;propanediol utilization polyhedral body protein PduS&lt;br&gt;Location: 14558 - 15914" locus_tag="STM2053" class="clusterblast-orf" id="dummy-4_h4_2_17"  />
</g>
<g id="a4_0018"  >
<polygon points="527,90 534,90 539,85 534,80 527,80 527,90 " style="fill:white; stroke-width:1; stroke:black; " description="&lt;b&gt;STM2054&lt;/b&gt;&lt;br&gt;propanediol utilization polyhedral body protein PduT&lt;br&gt;Location: 15916 - 16471" locus_tag="STM2054" class="clusterblast-orf" id="dummy-4_h4_2_18"  />
</g>
<g id="a4_0019"  >
<polygon points="539,90 543,90 548,85 543,80 539,80 539,90 " style="fill:#77d815; stroke-width:1; stroke:black; " description="&lt;b&gt;STM2055&lt;/b&gt;&lt;br&gt;propanediol utilization polyhedral body protein PduU&lt;br&gt;Location: 16470 - 16821&lt;br&gt;&lt;br&gt;&lt;b&gt;BlastP hit with ctg1_658&lt;/b&gt;&lt;br&gt;Percentage identity: 57&lt;br&gt;Percentage coverage: 98&lt;br&gt;BLAST bit score: 128&lt;br&gt;E-value: 8.08e-42" locus_tag="STM2055" class="clusterblast-orf" id="dummy-4_h4_2_19"  />
</g>
<g id="a4_0020"  >
<polygon points="548,90 553,90 558,85 553,80 548,80 548,90 " style="fill:white; stroke-width:1; stroke:black; " description="&lt;b&gt;STM2056&lt;/b&gt;&lt;br&gt;propanediol utilization protein PduV&lt;br&gt;Location: 16825 - 17278" locus_tag="STM2056" class="clusterblast-orf" id="dummy-4_h4_2_20"  />
</g>
<g id="a4_0021"  >
<polygon points="558,90 580,90 585,85 580,80 558,80 558,90 " style="fill:white; stroke-width:1; stroke:black; " description="&lt;b&gt;STM2057&lt;/b&gt;&lt;br&gt;propionate kinase&lt;br&gt;Location: 17262 - 18477" locus_tag="STM2057" class="clusterblast-orf" id="dummy-4_h4_2_21"  />
</g>
<g id="a4_0022"  >
<polygon points="587,90 602,90 607,85 602,80 587,80 587,90 " style="fill:white; stroke-width:1; stroke:black; " description="&lt;b&gt;STM2058&lt;/b&gt;&lt;br&gt;L-threonine kinase&lt;br&gt;Location: 18534 - 19437" locus_tag="STM2058" class="clusterblast-orf" id="dummy-4_h4_2_22"  />
</g>
<g id="a4_0023"  >
<polygon points="608,85 612,80 612,90 608,85 " style="fill:white; stroke-width:1; stroke:black; " description="&lt;b&gt;STM2059&lt;/b&gt;&lt;br&gt;hypothetical protein&lt;br&gt;Location: 19470 - 19638" locus_tag="STM2059" class="clusterblast-orf" id="dummy-4_h4_2_23"  />
</g>
</svg>
