<svg xmlns="http://www.w3.org/2000/svg" xmlns:xlink="http://www.w3.org/1999/xlink" version="1.1" x="0" y="0" height="230" width="800" viewBox="0 0 800 230" preserveAspectRatio="none"  >
<g label="Query sequence" class="clusterblast-cluster"  >
<text x="5" y="20" class="clusterblast-acc"  >
Query sequence</text>
<line x1="10" y1="35" x2="778.0" y2="35" style="stroke-width:1; stroke:grey; "  />
<polygon points="0,35 5,30 28,30 28,40 5,40 0,35 " style="fill:white; stroke-width:1; stroke:black; " description="&lt;b&gt;ctg1_1623&lt;/b&gt;&lt;br&gt;ctg1 1623&lt;br&gt;Location: 1769912 - 1770851" locus_tag="ctg1_1623" class="clusterblast-orf" id="dummy-12_q0_0_all"  />
<polygon points="30,40 39,40 44,35 39,30 30,30 30,40 " style="fill:white; stroke-width:1; stroke:black; " description="&lt;b&gt;ctg1_1624&lt;/b&gt;&lt;br&gt;ctg1 1624&lt;br&gt;Location: 1770931 - 1771390" locus_tag="ctg1_1624" class="clusterblast-orf" id="dummy-12_q1_0_all"  />
<polygon points="46,40 66,40 71,35 66,30 46,30 46,40 " style="fill:white; stroke-width:1; stroke:black; " description="&lt;b&gt;ctg1_1625&lt;/b&gt;&lt;br&gt;ctg1 1625&lt;br&gt;Location: 1771442 - 1772285" locus_tag="ctg1_1625" class="clusterblast-orf" id="dummy-12_q2_0_all"  />
<polygon points="88,35 93,30 120,30 120,40 93,40 88,35 " style="fill:white; stroke-width:1; stroke:black; " description="&lt;b&gt;ctg1_1626&lt;/b&gt;&lt;br&gt;ctg1 1626&lt;br&gt;Location: 1772843 - 1773935" locus_tag="ctg1_1626" class="clusterblast-orf" id="dummy-12_q3_0_all"  />
<polygon points="120,35 125,30 154,30 154,40 125,40 120,35 " style="fill:white; stroke-width:1; stroke:black; " description="&lt;b&gt;ctg1_1627&lt;/b&gt;&lt;br&gt;ctg1 1627&lt;br&gt;Location: 1773921 - 1775046" locus_tag="ctg1_1627" class="clusterblast-orf" id="dummy-12_q4_0_all"  />
<polygon points="153,35 158,30 172,30 172,40 158,40 153,35 " style="fill:white; stroke-width:1; stroke:black; " description="&lt;b&gt;ctg1_1628&lt;/b&gt;&lt;br&gt;ctg1 1628&lt;br&gt;Location: 1775038 - 1775641" locus_tag="ctg1_1628" class="clusterblast-orf" id="dummy-12_q5_0_all"  />
<polygon points="171,35 176,30 210,30 210,40 176,40 171,35 " style="fill:white; stroke-width:1; stroke:black; " description="&lt;b&gt;ctg1_1629&lt;/b&gt;&lt;br&gt;ctg1 1629&lt;br&gt;Location: 1775637 - 1776924" locus_tag="ctg1_1629" class="clusterblast-orf" id="dummy-12_q6_0_all"  />
<polygon points="210,35 215,30 234,30 234,40 215,40 210,35 " style="fill:white; stroke-width:1; stroke:black; " description="&lt;b&gt;ctg1_1630&lt;/b&gt;&lt;br&gt;ctg1 1630&lt;br&gt;Location: 1776920 - 1777727" locus_tag="ctg1_1630" class="clusterblast-orf" id="dummy-12_q7_0_all"  />
<polygon points="233,35 238,30 261,30 261,40 238,40 233,35 " style="fill:white; stroke-width:1; stroke:black; " description="&lt;b&gt;ctg1_1631&lt;/b&gt;&lt;br&gt;ctg1 1631&lt;br&gt;Location: 1777704 - 1778640" locus_tag="ctg1_1631" class="clusterblast-orf" id="dummy-12_q8_0_all"  />
<polygon points="264,35 269,30 294,30 294,40 269,40 264,35 " style="fill:white; stroke-width:1; stroke:black; " description="&lt;b&gt;ctg1_1632&lt;/b&gt;&lt;br&gt;ctg1 1632&lt;br&gt;Location: 1778717 - 1779725" locus_tag="ctg1_1632" class="clusterblast-orf" id="dummy-12_q9_0_all"  />
<polygon points="297,35 302,30 318,30 318,40 302,40 297,35 " style="fill:#d81515; stroke-width:1; stroke:black; " description="&lt;b&gt;ctg1_1633&lt;/b&gt;&lt;br&gt;ctg1 1633&lt;br&gt;Location: 1779836 - 1780514" locus_tag="ctg1_1633" class="clusterblast-orf" id="dummy-12_q10_0_all"  />
<polygon points="318,35 323,30 339,30 339,40 323,40 318,35 " style="fill:#77d815; stroke-width:1; stroke:black; " description="&lt;b&gt;ctg1_1634&lt;/b&gt;&lt;br&gt;ctg1 1634&lt;br&gt;Location: 1780513 - 1781224" locus_tag="ctg1_1634" class="clusterblast-orf" id="dummy-12_q11_0_all"  />
<polygon points="339,35 344,30 385,30 385,40 344,40 339,35 " style="fill:#15d8d8; stroke-width:1; stroke:black; " description="&lt;b&gt;ctg1_1635&lt;/b&gt;&lt;br&gt;ctg1 1635&lt;br&gt;Location: 1781220 - 1782759" locus_tag="ctg1_1635" class="clusterblast-orf" id="dummy-12_q12_0_all"  />
<polygon points="385,35 390,30 497,30 497,40 390,40 385,35 " style="fill:#7715d8; stroke-width:1; stroke:black; " description="&lt;b&gt;ctg1_1636&lt;/b&gt;&lt;br&gt;ctg1 1636&lt;br&gt;Location: 1782755 - 1786499" locus_tag="ctg1_1636" class="clusterblast-orf" id="dummy-12_q13_0_all"  />
<polygon points="509,35 514,30 551,30 551,40 514,40 509,35 " style="fill:white; stroke-width:1; stroke:black; " description="&lt;b&gt;ctg1_1637&lt;/b&gt;&lt;br&gt;ctg1 1637&lt;br&gt;Location: 1786891 - 1788283" locus_tag="ctg1_1637" class="clusterblast-orf" id="dummy-12_q14_0_all"  />
<polygon points="553,35 558,30 560,30 560,40 558,40 553,35 " style="fill:white; stroke-width:1; stroke:black; " description="&lt;b&gt;ctg1_1638&lt;/b&gt;&lt;br&gt;ctg1 1638&lt;br&gt;Location: 1788377 - 1788596" locus_tag="ctg1_1638" class="clusterblast-orf" id="dummy-12_q15_0_all"  />
<polygon points="561,40 610,40 615,35 610,30 561,30 561,40 " style="fill:white; stroke-width:1; stroke:black; " description="&lt;b&gt;ctg1_1639&lt;/b&gt;&lt;br&gt;ctg1 1639&lt;br&gt;Location: 1788621 - 1790418" locus_tag="ctg1_1639" class="clusterblast-orf" id="dummy-12_q16_0_all"  />
<polygon points="614,40 629,40 634,35 629,30 614,30 614,40 " style="fill:white; stroke-width:1; stroke:black; " description="&lt;b&gt;ctg1_1640&lt;/b&gt;&lt;br&gt;ctg1 1640&lt;br&gt;Location: 1790410 - 1791061" locus_tag="ctg1_1640" class="clusterblast-orf" id="dummy-12_q17_0_all"  />
<polygon points="634,35 639,30 676,30 676,40 639,40 634,35 " style="fill:white; stroke-width:1; stroke:black; " description="&lt;b&gt;ctg1_1641&lt;/b&gt;&lt;br&gt;ctg1 1641&lt;br&gt;Location: 1791061 - 1792453" locus_tag="ctg1_1641" class="clusterblast-orf" id="dummy-12_q18_0_all"  />
<polygon points="681,40 687,40 692,35 687,30 681,30 681,40 " style="fill:white; stroke-width:1; stroke:black; " description="&lt;b&gt;ctg1_1642&lt;/b&gt;&lt;br&gt;ctg1 1642&lt;br&gt;Location: 1792644 - 1792998" locus_tag="ctg1_1642" class="clusterblast-orf" id="dummy-12_q19_0_all"  />
<polygon points="694,35 699,30 714,30 714,40 699,40 694,35 " style="fill:white; stroke-width:1; stroke:black; " description="&lt;b&gt;ctg1_1643&lt;/b&gt;&lt;br&gt;ctg1 1643&lt;br&gt;Location: 1793050 - 1793746" locus_tag="ctg1_1643" class="clusterblast-orf" id="dummy-12_q20_0_all"  />
<polygon points="719,35 724,30 726,30 726,40 724,40 719,35 " style="fill:white; stroke-width:1; stroke:black; " description="&lt;b&gt;ctg1_1644&lt;/b&gt;&lt;br&gt;ctg1 1644&lt;br&gt;Location: 1793903 - 1794134" locus_tag="ctg1_1644" class="clusterblast-orf" id="dummy-12_q21_0_all"  />
<polygon points="734,40 762,40 767,35 762,30 734,30 734,40 " style="fill:white; stroke-width:1; stroke:black; " description="&lt;b&gt;ctg1_1645&lt;/b&gt;&lt;br&gt;ctg1 1645&lt;br&gt;Location: 1794404 - 1795505" locus_tag="ctg1_1645" class="clusterblast-orf" id="dummy-12_q22_0_all"  />
<polygon points="768,35 773,30 780,30 780,40 773,40 768,35 " style="fill:white; stroke-width:1; stroke:black; " description="&lt;b&gt;ctg1_1646&lt;/b&gt;&lt;br&gt;ctg1 1646&lt;br&gt;Location: 1795539 - 1795926" locus_tag="ctg1_1646" class="clusterblast-orf" id="dummy-12_q23_0_all"  />
</g>
<g label="MGC00000045" description="MGC00000045_c1: Nitrate reductase E. coli (80% of genes show similarity), NIR" class="clusterblast-cluster"  >
<text x="5" y="70" class="clusterblast-acc"  >
MGC00000045_c1: Nitrate reductase E. coli (80% of genes show similarity), NIR</text>
<line x1="10" y1="85" x2="778.0" y2="85" style="stroke-width:1; stroke:grey; "  />
</g>
<g id="a12_000"  >
<polygon points="145,85 150,80 166,80 166,90 150,90 145,85 " style="fill:#d81515; stroke-width:1; stroke:black; " description="&lt;b&gt;b1227&lt;/b&gt;&lt;br&gt;nitrate reductase A subunit gamma&lt;br&gt;Location: 16289 - 15611&lt;br&gt;&lt;br&gt;&lt;b&gt;BlastP hit with ctg1_1633&lt;/b&gt;&lt;br&gt;Percentage identity: 98&lt;br&gt;Percentage coverage: 100&lt;br&gt;BLAST bit score: 441&lt;br&gt;E-value: 5.93e-162" locus_tag="b1227" class="clusterblast-orf" id="dummy-12_h12_1_0"  />
</g>
<g id="a12_001"  >
<polygon points="166,85 171,80 187,80 187,90 171,90 166,85 " style="fill:#77d815; stroke-width:1; stroke:black; " description="&lt;b&gt;b1226&lt;/b&gt;&lt;br&gt;nitrate reductase 1 molybdenum cofactor assembly chaperone&lt;br&gt;Location: 15612 - 14901&lt;br&gt;&lt;br&gt;&lt;b&gt;BlastP hit with ctg1_1634&lt;/b&gt;&lt;br&gt;Percentage identity: 98&lt;br&gt;Percentage coverage: 100&lt;br&gt;BLAST bit score: 452&lt;br&gt;E-value: 5.23e-166" locus_tag="b1226" class="clusterblast-orf" id="dummy-12_h12_1_1"  />
</g>
<g id="a12_002"  >
<polygon points="187,85 192,80 233,80 233,90 192,90 187,85 " style="fill:#15d8d8; stroke-width:1; stroke:black; " description="&lt;b&gt;b1225&lt;/b&gt;&lt;br&gt;nitrate reductase A subunit beta&lt;br&gt;Location: 14905 - 13366&lt;br&gt;&lt;br&gt;&lt;b&gt;BlastP hit with ctg1_1635&lt;/b&gt;&lt;br&gt;Percentage identity: 100&lt;br&gt;Percentage coverage: 100&lt;br&gt;BLAST bit score: 1067&lt;br&gt;E-value: 0.0" locus_tag="b1225" class="clusterblast-orf" id="dummy-12_h12_1_2"  />
</g>
<g id="a12_003"  >
<polygon points="233,85 238,80 345,80 345,90 238,90 233,85 " style="fill:#7715d8; stroke-width:1; stroke:black; " description="&lt;b&gt;b1224&lt;/b&gt;&lt;br&gt;nitrate reductase A subunit alpha&lt;br&gt;Location: 13370 - 9626&lt;br&gt;&lt;br&gt;&lt;b&gt;BlastP hit with ctg1_1636&lt;/b&gt;&lt;br&gt;Percentage identity: 100&lt;br&gt;Percentage coverage: 100&lt;br&gt;BLAST bit score: 2591&lt;br&gt;E-value: 0.0" locus_tag="b1224" class="clusterblast-orf" id="dummy-12_h12_1_3"  />
</g>
<g id="a12_004"  >
<polygon points="630,90 634,85 630,80 630,90 " style="fill:white; stroke-width:1; stroke:black; " description="&lt;b&gt;b4423&lt;/b&gt;&lt;br&gt;small toxic polypeptide LdrC&lt;br&gt;Location: 108 - 0" locus_tag="b4423" class="clusterblast-orf" id="dummy-12_h12_1_4"  />
</g>
</svg>
