<svg xmlns="http://www.w3.org/2000/svg" xmlns:xlink="http://www.w3.org/1999/xlink" version="1.1" x="0" y="0" height="230" width="800" viewBox="0 0 800 230" preserveAspectRatio="none"  >
<g label="Query sequence" class="clusterblast-cluster"  >
<text x="5" y="20" class="clusterblast-acc"  >
Query sequence</text>
<line x1="10" y1="35" x2="778.0" y2="35" style="stroke-width:1; stroke:grey; "  />
<polygon points="0,35 5,30 28,30 28,40 5,40 0,35 " style="fill:white; stroke-width:1; stroke:black; " description="&lt;b&gt;ctg1_808&lt;/b&gt;&lt;br&gt;ctg1 808&lt;br&gt;Location: 886935 - 888138" locus_tag="ctg1_808" class="clusterblast-orf" id="dummy-6_q0_0_all"  />
<polygon points="36,40 42,40 47,35 42,30 36,30 36,40 " style="fill:white; stroke-width:1; stroke:black; " description="&lt;b&gt;ctg1_809&lt;/b&gt;&lt;br&gt;ctg1 809&lt;br&gt;Location: 888476 - 888932" locus_tag="ctg1_809" class="clusterblast-orf" id="dummy-6_q1_0_all"  />
<polygon points="49,40 56,40 61,35 56,30 49,30 49,40 " style="fill:white; stroke-width:1; stroke:black; " description="&lt;b&gt;ctg1_810&lt;/b&gt;&lt;br&gt;ctg1 810&lt;br&gt;Location: 889013 - 889511" locus_tag="ctg1_810" class="clusterblast-orf" id="dummy-6_q2_0_all"  />
<polygon points="61,40 71,40 76,35 71,30 61,30 61,40 " style="fill:white; stroke-width:1; stroke:black; " description="&lt;b&gt;ctg1_811&lt;/b&gt;&lt;br&gt;ctg1 811&lt;br&gt;Location: 889521 - 890172" locus_tag="ctg1_811" class="clusterblast-orf" id="dummy-6_q3_0_all"  />
<polygon points="78,40 117,40 122,35 117,30 78,30 78,40 " style="fill:white; stroke-width:1; stroke:black; " description="&lt;b&gt;ctg1_812&lt;/b&gt;&lt;br&gt;ctg1 812&lt;br&gt;Location: 890258 - 892091" locus_tag="ctg1_812" class="clusterblast-orf" id="dummy-6_q4_0_all"  />
<polygon points="123,35 128,30 137,30 137,40 128,40 123,35 " style="fill:white; stroke-width:1; stroke:black; " description="&lt;b&gt;ctg1_813&lt;/b&gt;&lt;br&gt;ctg1 813&lt;br&gt;Location: 892130 - 892730" locus_tag="ctg1_813" class="clusterblast-orf" id="dummy-6_q5_0_all"  />
<polygon points="139,35 144,30 168,30 168,40 144,40 139,35 " style="fill:white; stroke-width:1; stroke:black; " description="&lt;b&gt;ctg1_814&lt;/b&gt;&lt;br&gt;ctg1 814&lt;br&gt;Location: 892815 - 894033" locus_tag="ctg1_814" class="clusterblast-orf" id="dummy-6_q6_0_all"  />
<polygon points="190,40 207,40 212,35 207,30 190,30 190,40 " style="fill:white; stroke-width:1; stroke:black; " description="&lt;b&gt;ctg1_815&lt;/b&gt;&lt;br&gt;ctg1 815&lt;br&gt;Location: 894965 - 895904" locus_tag="ctg1_815" class="clusterblast-orf" id="dummy-6_q7_0_all"  />
<polygon points="226,40 232,40 237,35 232,30 226,30 226,40 " style="fill:#d81515; stroke-width:1; stroke:black; " description="&lt;b&gt;ctg1_816&lt;/b&gt;&lt;br&gt;ctg1 816&lt;br&gt;Location: 896520 - 896964" locus_tag="ctg1_816" class="clusterblast-orf" id="dummy-6_q8_0_all"  />
<polygon points="237,40 248,40 253,35 248,30 237,30 237,40 " style="fill:#33d815; stroke-width:1; stroke:black; " description="&lt;b&gt;ctg1_817&lt;/b&gt;&lt;br&gt;ctg1 817&lt;br&gt;Location: 896979 - 897642" locus_tag="ctg1_817" class="clusterblast-orf" id="dummy-6_q9_0_all"  />
<polygon points="255,40 293,40 298,35 293,30 255,30 255,40 " style="fill:#15abd8; stroke-width:1; stroke:black; " description="&lt;b&gt;ctg1_818&lt;/b&gt;&lt;br&gt;ctg1 818&lt;br&gt;Location: 897735 - 899538" locus_tag="ctg1_818" class="clusterblast-orf" id="dummy-6_q10_0_all"  />
<polygon points="298,40 305,40 310,35 305,30 298,30 298,40 " style="fill:#8d15d8; stroke-width:1; stroke:black; " description="&lt;b&gt;ctg1_819&lt;/b&gt;&lt;br&gt;ctg1 819&lt;br&gt;Location: 899540 - 900041" locus_tag="ctg1_819" class="clusterblast-orf" id="dummy-6_q11_0_all"  />
<polygon points="310,40 336,40 341,35 336,30 310,30 310,40 " style="fill:#d86f15; stroke-width:1; stroke:black; " description="&lt;b&gt;ctg1_820&lt;/b&gt;&lt;br&gt;ctg1 820&lt;br&gt;Location: 900037 - 901375" locus_tag="ctg1_820" class="clusterblast-orf" id="dummy-6_q12_0_all"  />
<polygon points="343,40 402,40 407,35 402,30 343,30 343,40 " style="fill:#15d851; stroke-width:1; stroke:black; " description="&lt;b&gt;ctg1_821&lt;/b&gt;&lt;br&gt;ctg1 821&lt;br&gt;Location: 901427 - 904154" locus_tag="ctg1_821" class="clusterblast-orf" id="dummy-6_q13_0_all"  />
<polygon points="407,40 425,40 430,35 425,30 407,30 407,40 " style="fill:#1551d8; stroke-width:1; stroke:black; " description="&lt;b&gt;ctg1_822&lt;/b&gt;&lt;br&gt;ctg1 822&lt;br&gt;Location: 904150 - 905128" locus_tag="ctg1_822" class="clusterblast-orf" id="dummy-6_q14_0_all"  />
<polygon points="430,40 438,40 443,35 438,30 430,30 430,40 " style="fill:#d815c9; stroke-width:1; stroke:black; " description="&lt;b&gt;ctg1_823&lt;/b&gt;&lt;br&gt;ctg1 823&lt;br&gt;Location: 905142 - 905685" locus_tag="ctg1_823" class="clusterblast-orf" id="dummy-6_q15_0_all"  />
<polygon points="444,40 452,40 457,35 452,30 444,30 444,40 " style="fill:#d8c915; stroke-width:1; stroke:black; " description="&lt;b&gt;ctg1_824&lt;/b&gt;&lt;br&gt;ctg1 824&lt;br&gt;Location: 905696 - 906251" locus_tag="ctg1_824" class="clusterblast-orf" id="dummy-6_q16_0_all"  />
<polygon points="457,40 459,40 464,35 459,30 457,30 457,40 " style="fill:#15d8ab; stroke-width:1; stroke:black; " description="&lt;b&gt;ctg1_825&lt;/b&gt;&lt;br&gt;ctg1 825&lt;br&gt;Location: 906247 - 906550" locus_tag="ctg1_825" class="clusterblast-orf" id="dummy-6_q17_0_all"  />
<polygon points="464,40 502,40 507,35 502,30 464,30 464,40 " style="fill:#3315d8; stroke-width:1; stroke:black; " description="&lt;b&gt;ctg1_826&lt;/b&gt;&lt;br&gt;ctg1 826&lt;br&gt;Location: 906546 - 908388" locus_tag="ctg1_826" class="clusterblast-orf" id="dummy-6_q18_0_all"  />
<polygon points="511,40 542,40 547,35 542,30 511,30 511,40 " style="fill:#d8156f; stroke-width:1; stroke:black; " description="&lt;b&gt;ctg1_827&lt;/b&gt;&lt;br&gt;ctg1 827&lt;br&gt;Location: 908551 - 910081" locus_tag="ctg1_827" class="clusterblast-orf" id="dummy-6_q19_0_all"  />
<polygon points="547,40 577,40 582,35 577,30 547,30 547,40 " style="fill:#8dd815; stroke-width:1; stroke:black; " description="&lt;b&gt;ctg1_828&lt;/b&gt;&lt;br&gt;ctg1 828&lt;br&gt;Location: 910087 - 911545" locus_tag="ctg1_828" class="clusterblast-orf" id="dummy-6_q20_0_all"  />
<polygon points="585,40 597,40 602,35 597,30 585,30 585,40 " style="fill:white; stroke-width:1; stroke:black; " description="&lt;b&gt;ctg1_829&lt;/b&gt;&lt;br&gt;ctg1 829&lt;br&gt;Location: 911687 - 912404" locus_tag="ctg1_829" class="clusterblast-orf" id="dummy-6_q21_0_all"  />
<polygon points="602,35 607,30 616,30 616,40 607,40 602,35 " style="fill:white; stroke-width:1; stroke:black; " description="&lt;b&gt;ctg1_830&lt;/b&gt;&lt;br&gt;ctg1 830&lt;br&gt;Location: 912398 - 912974" locus_tag="ctg1_830" class="clusterblast-orf" id="dummy-6_q22_0_all"  />
<polygon points="619,35 624,30 631,30 631,40 624,40 619,35 " style="fill:white; stroke-width:1; stroke:black; " description="&lt;b&gt;ctg1_831&lt;/b&gt;&lt;br&gt;ctg1 831&lt;br&gt;Location: 913125 - 913629" locus_tag="ctg1_831" class="clusterblast-orf" id="dummy-6_q23_0_all"  />
<polygon points="640,40 673,40 678,35 673,30 640,30 640,40 " style="fill:white; stroke-width:1; stroke:black; " description="&lt;b&gt;ctg1_832&lt;/b&gt;&lt;br&gt;ctg1 832&lt;br&gt;Location: 914021 - 915614" locus_tag="ctg1_832" class="clusterblast-orf" id="dummy-6_q24_0_all"  />
<polygon points="679,35 684,30 703,30 703,40 684,40 679,35 " style="fill:white; stroke-width:1; stroke:black; " description="&lt;b&gt;ctg1_833&lt;/b&gt;&lt;br&gt;ctg1 833&lt;br&gt;Location: 915670 - 916654" locus_tag="ctg1_833" class="clusterblast-orf" id="dummy-6_q25_0_all"  />
<polygon points="704,35 709,30 726,30 726,40 709,40 704,35 " style="fill:white; stroke-width:1; stroke:black; " description="&lt;b&gt;ctg1_834&lt;/b&gt;&lt;br&gt;ctg1 834&lt;br&gt;Location: 916716 - 917634" locus_tag="ctg1_834" class="clusterblast-orf" id="dummy-6_q26_0_all"  />
<polygon points="727,40 733,40 738,35 733,30 727,30 727,40 " style="fill:white; stroke-width:1; stroke:black; " description="&lt;b&gt;ctg1_835&lt;/b&gt;&lt;br&gt;ctg1 835&lt;br&gt;Location: 917699 - 918161" locus_tag="ctg1_835" class="clusterblast-orf" id="dummy-6_q27_0_all"  />
<polygon points="740,40 742,40 747,35 742,30 740,30 740,40 " style="fill:white; stroke-width:1; stroke:black; " description="&lt;b&gt;ctg1_836&lt;/b&gt;&lt;br&gt;ctg1 836&lt;br&gt;Location: 918215 - 918521" locus_tag="ctg1_836" class="clusterblast-orf" id="dummy-6_q28_0_all"  />
<polygon points="749,40 775,40 780,35 775,30 749,30 749,40 " style="fill:white; stroke-width:1; stroke:black; " description="&lt;b&gt;ctg1_837&lt;/b&gt;&lt;br&gt;ctg1 837&lt;br&gt;Location: 918614 - 919910" locus_tag="ctg1_837" class="clusterblast-orf" id="dummy-6_q29_0_all"  />
</g>
<g label="MGC00000036" description="MGC00000036_c1: Ech complex T. phaeum (28% of genes show similarity), ECH" class="clusterblast-cluster"  >
<text x="5" y="70" class="clusterblast-acc"  >
MGC00000036_c1: Ech complex T. phaeum (28% of genes show similarity), ECH</text>
<line x1="10" y1="85" x2="778.0" y2="85" style="stroke-width:1; stroke:grey; "  />
</g>
<g id="a6_000"  >
<polygon points="212,90 254,90 259,85 254,80 212,80 212,90 " style="fill:#3315d8; stroke-width:1; stroke:black; " description="&lt;b&gt;Tph_c21360&lt;/b&gt;&lt;br&gt;putative ech hydrogenase subunit A&lt;br&gt;Location: 15027 - 13041&lt;br&gt;&lt;br&gt;&lt;b&gt;BlastP hit with ctg1_826&lt;/b&gt;&lt;br&gt;Percentage identity: 35&lt;br&gt;Percentage coverage: 53&lt;br&gt;BLAST bit score: 139&lt;br&gt;E-value: 1.83e-36" locus_tag="Tph_c21360" class="clusterblast-orf" id="dummy-6_h6_3_0"  />
</g>
<g id="a6_001"  >
<polygon points="259,90 274,90 279,85 274,80 259,80 259,90 " style="fill:white; stroke-width:1; stroke:black; " description="&lt;b&gt;Tph_c21350&lt;/b&gt;&lt;br&gt;putative ech hydrogenase subunit B&lt;br&gt;Location: 13045 - 12184" locus_tag="Tph_c21350" class="clusterblast-orf" id="dummy-6_h6_3_1"  />
</g>
<g id="a6_002"  >
<polygon points="279,90 284,90 289,85 284,80 279,80 279,90 " style="fill:#33d815; stroke-width:1; stroke:black; " description="&lt;b&gt;Tph_c21340&lt;/b&gt;&lt;br&gt;putative ech hydrogenase subunit C&lt;br&gt;Location: 12184 - 11746&lt;br&gt;&lt;br&gt;&lt;b&gt;BlastP hit with ctg1_817&lt;/b&gt;&lt;br&gt;Percentage identity: 41&lt;br&gt;Percentage coverage: 59&lt;br&gt;BLAST bit score: 101&lt;br&gt;E-value: 2.66e-29" locus_tag="Tph_c21340" class="clusterblast-orf" id="dummy-6_h6_3_2"  />
</g>
<g id="a6_003"  >
<polygon points="289,90 293,90 298,85 293,80 289,80 289,90 " style="fill:white; stroke-width:1; stroke:black; " description="&lt;b&gt;Tph_c21330&lt;/b&gt;&lt;br&gt;putative ech hydrogenase subunit D&lt;br&gt;Location: 11750 - 11372" locus_tag="Tph_c21330" class="clusterblast-orf" id="dummy-6_h6_3_3"  />
</g>
<g id="a6_004"  >
<polygon points="298,90 319,90 324,85 319,80 298,80 298,90 " style="fill:white; stroke-width:1; stroke:black; " description="&lt;b&gt;Tph_c21320&lt;/b&gt;&lt;br&gt;putative ech hydrogenase subunit E&lt;br&gt;Location: 11372 - 10289" locus_tag="Tph_c21320" class="clusterblast-orf" id="dummy-6_h6_3_4"  />
</g>
<g id="a6_005"  >
<polygon points="325,90 328,90 333,85 328,80 325,80 325,90 " style="fill:white; stroke-width:1; stroke:black; " description="&lt;b&gt;Tph_c21310&lt;/b&gt;&lt;br&gt;putative ech hydrogenase subunit F&lt;br&gt;Location: 10260 - 9909" locus_tag="Tph_c21310" class="clusterblast-orf" id="dummy-6_h6_3_5"  />
</g>
<g id="a6_006"  >
<polygon points="544,90 562,90 567,85 562,80 544,80 544,90 " style="fill:white; stroke-width:1; stroke:black; " description="&lt;b&gt;Tph_c21210&lt;/b&gt;&lt;br&gt;stage II sporulation protein P&lt;br&gt;Location: 966 - 0" locus_tag="Tph_c21210" class="clusterblast-orf" id="dummy-6_h6_3_6"  />
</g>
</svg>
