<svg xmlns="http://www.w3.org/2000/svg" xmlns:xlink="http://www.w3.org/1999/xlink" version="1.1" x="0" y="0" height="300" width="800" viewBox="0 0 800 300" preserveAspectRatio="none"  >
<g label="Query sequence" class="clusterblast-cluster"  >
<text x="5" y="20" class="clusterblast-acc"  >
Query sequence</text>
<line x1="10" y1="35" x2="778.0" y2="35" style="stroke-width:1; stroke:grey; "  />
<polygon points="0,40 4,35 0,30 0,40 " style="fill:white; stroke-width:1; stroke:black; " description="&lt;b&gt;ctg1_1872&lt;/b&gt;&lt;br&gt;ctg1 1872&lt;br&gt;Location: 2036532 - 2036805" locus_tag="ctg1_1872" class="clusterblast-orf" id="knownclusterblast-13_q0_0_all"  />
<polygon points="8,40 11,40 16,35 11,30 8,30 8,40 " style="fill:white; stroke-width:1; stroke:black; " description="&lt;b&gt;ctg1_1873&lt;/b&gt;&lt;br&gt;ctg1 1873&lt;br&gt;Location: 2037055 - 2037565" locus_tag="ctg1_1873" class="clusterblast-orf" id="knownclusterblast-13_q1_0_all"  />
<polygon points="23,35 28,30 47,30 47,40 28,40 23,35 " style="fill:white; stroke-width:1; stroke:black; " description="&lt;b&gt;ctg1_1874&lt;/b&gt;&lt;br&gt;ctg1 1874&lt;br&gt;Location: 2037983 - 2039438" locus_tag="ctg1_1874" class="clusterblast-orf" id="knownclusterblast-13_q2_0_all"  />
<polygon points="49,35 54,30 70,30 70,40 54,40 49,35 " style="fill:white; stroke-width:1; stroke:black; " description="&lt;b&gt;ctg1_1875&lt;/b&gt;&lt;br&gt;ctg1 1875&lt;br&gt;Location: 2039565 - 2040870" locus_tag="ctg1_1875" class="clusterblast-orf" id="knownclusterblast-13_q3_0_all"  />
<polygon points="79,35 84,30 102,30 102,40 84,40 79,35 " style="fill:white; stroke-width:1; stroke:black; " description="&lt;b&gt;ctg1_1876&lt;/b&gt;&lt;br&gt;ctg1 1876&lt;br&gt;Location: 2041420 - 2042857" locus_tag="ctg1_1876" class="clusterblast-orf" id="knownclusterblast-13_q4_0_all"  />
<polygon points="111,40 116,40 121,35 116,30 111,30 111,40 " style="fill:white; stroke-width:1; stroke:black; " description="&lt;b&gt;ctg1_1877&lt;/b&gt;&lt;br&gt;ctg1 1877&lt;br&gt;Location: 2043438 - 2044017" locus_tag="ctg1_1877" class="clusterblast-orf" id="knownclusterblast-13_q5_0_all"  />
<polygon points="121,40 129,40 134,35 129,30 121,30 121,40 " style="fill:white; stroke-width:1; stroke:black; " description="&lt;b&gt;ctg1_1878&lt;/b&gt;&lt;br&gt;ctg1 1878&lt;br&gt;Location: 2044039 - 2044858" locus_tag="ctg1_1878" class="clusterblast-orf" id="knownclusterblast-13_q6_0_all"  />
<polygon points="134,40 138,40 143,35 138,30 134,30 134,40 " style="fill:white; stroke-width:1; stroke:black; " description="&lt;b&gt;ctg1_1879&lt;/b&gt;&lt;br&gt;ctg1 1879&lt;br&gt;Location: 2044857 - 2045376" locus_tag="ctg1_1879" class="clusterblast-orf" id="knownclusterblast-13_q7_0_all"  />
<polygon points="151,40 155,35 151,30 151,40 " style="fill:#d81515; stroke-width:1; stroke:black; " description="&lt;b&gt;ctg1_1880&lt;/b&gt;&lt;br&gt;ctg1 1880&lt;br&gt;Location: 2045895 - 2046174" locus_tag="ctg1_1880" class="clusterblast-orf" id="knownclusterblast-13_q8_0_all"  />
<polygon points="156,40 160,35 156,30 156,40 " style="fill:#d81515; stroke-width:1; stroke:black; " description="&lt;b&gt;ctg1_1881&lt;/b&gt;&lt;br&gt;ctg1 1881&lt;br&gt;Location: 2046191 - 2046476" locus_tag="ctg1_1881" class="clusterblast-orf" id="knownclusterblast-13_q9_0_all"  />
<polygon points="161,40 165,35 161,30 161,40 " style="fill:#d81515; stroke-width:1; stroke:black; " description="&lt;b&gt;ctg1_1882&lt;/b&gt;&lt;br&gt;ctg1 1882&lt;br&gt;Location: 2046490 - 2046769" locus_tag="ctg1_1882" class="clusterblast-orf" id="knownclusterblast-13_q10_0_all"  />
<polygon points="166,40 187,40 192,35 187,30 166,30 166,40 " style="fill:#77d815; stroke-width:1; stroke:black; " description="&lt;b&gt;ctg1_1883&lt;/b&gt;&lt;br&gt;ctg1 1883&lt;br&gt;Location: 2046822 - 2048409" locus_tag="ctg1_1883" class="clusterblast-orf" id="knownclusterblast-13_q11_0_all"  />
<polygon points="192,40 196,35 192,30 192,40 " style="fill:#15d8d8; stroke-width:1; stroke:black; " description="&lt;b&gt;ctg1_1884&lt;/b&gt;&lt;br&gt;ctg1 1884&lt;br&gt;Location: 2048435 - 2048693" locus_tag="ctg1_1884" class="clusterblast-orf" id="knownclusterblast-13_q12_0_all"  />
<polygon points="196,40 210,40 215,35 210,30 196,30 196,40 " style="fill:#7715d8; stroke-width:1; stroke:black; " description="&lt;b&gt;ctg1_1885&lt;/b&gt;&lt;br&gt;ctg1 1885&lt;br&gt;Location: 2048708 - 2049863" locus_tag="ctg1_1885" class="clusterblast-orf" id="knownclusterblast-13_q13_0_all"  />
<polygon points="216,40 265,40 270,35 265,30 216,30 216,40 " style="fill:#d84615; stroke-width:1; stroke:black; " description="&lt;b&gt;ctg1_1886&lt;/b&gt;&lt;br&gt;ctg1 1886&lt;br&gt;Location: 2049889 - 2053276" locus_tag="ctg1_1886" class="clusterblast-orf" id="knownclusterblast-13_q14_0_all"  />
<polygon points="271,40 281,40 286,35 281,30 271,30 271,40 " style="fill:#46d815; stroke-width:1; stroke:black; " description="&lt;b&gt;ctg1_1887&lt;/b&gt;&lt;br&gt;ctg1 1887&lt;br&gt;Location: 2053327 - 2054275" locus_tag="ctg1_1887" class="clusterblast-orf" id="knownclusterblast-13_q15_0_all"  />
<polygon points="287,40 289,40 294,35 289,30 287,30 287,40 " style="fill:#d81515; stroke-width:1; stroke:black; " description="&lt;b&gt;ctg1_1888&lt;/b&gt;&lt;br&gt;ctg1 1888&lt;br&gt;Location: 2054286 - 2054769" locus_tag="ctg1_1888" class="clusterblast-orf" id="knownclusterblast-13_q16_0_all"  />
<polygon points="294,40 299,40 304,35 299,30 294,30 294,40 " style="fill:#15a7d8; stroke-width:1; stroke:black; " description="&lt;b&gt;ctg1_1889&lt;/b&gt;&lt;br&gt;ctg1 1889&lt;br&gt;Location: 2054765 - 2055386" locus_tag="ctg1_1889" class="clusterblast-orf" id="knownclusterblast-13_q17_0_all"  />
<polygon points="305,40 310,40 315,35 310,30 305,30 305,40 " style="fill:white; stroke-width:1; stroke:black; " description="&lt;b&gt;ctg1_1890&lt;/b&gt;&lt;br&gt;ctg1 1890&lt;br&gt;Location: 2055397 - 2056063" locus_tag="ctg1_1890" class="clusterblast-orf" id="knownclusterblast-13_q18_0_all"  />
<polygon points="316,40 317,40 322,35 317,30 316,30 316,40 " style="fill:white; stroke-width:1; stroke:black; " description="&lt;b&gt;ctg1_1891&lt;/b&gt;&lt;br&gt;ctg1 1891&lt;br&gt;Location: 2056095 - 2056497" locus_tag="ctg1_1891" class="clusterblast-orf" id="knownclusterblast-13_q19_0_all"  />
<polygon points="323,40 323,40 328,35 323,30 323,30 323,40 " style="fill:white; stroke-width:1; stroke:black; " description="&lt;b&gt;ctg1_1892&lt;/b&gt;&lt;br&gt;ctg1 1892&lt;br&gt;Location: 2056512 - 2056842" locus_tag="ctg1_1892" class="clusterblast-orf" id="knownclusterblast-13_q20_0_all"  />
<polygon points="329,35 334,30 344,30 344,40 334,40 329,35 " style="fill:white; stroke-width:1; stroke:black; " description="&lt;b&gt;ctg1_1893&lt;/b&gt;&lt;br&gt;ctg1 1893&lt;br&gt;Location: 2056908 - 2057835" locus_tag="ctg1_1893" class="clusterblast-orf" id="knownclusterblast-13_q21_0_all"  />
<polygon points="347,35 352,30 355,30 355,40 352,40 347,35 " style="fill:white; stroke-width:1; stroke:black; " description="&lt;b&gt;ctg1_1894&lt;/b&gt;&lt;br&gt;ctg1 1894&lt;br&gt;Location: 2058049 - 2058520" locus_tag="ctg1_1894" class="clusterblast-orf" id="knownclusterblast-13_q22_0_all"  />
<polygon points="355,35 357,30 357,40 355,35 " style="fill:white; stroke-width:1; stroke:black; " description="&lt;b&gt;ctg1_1895&lt;/b&gt;&lt;br&gt;ctg1 1895&lt;br&gt;Location: 2058500 - 2058650" locus_tag="ctg1_1895" class="clusterblast-orf" id="knownclusterblast-13_q23_0_all"  />
<polygon points="363,35 368,30 378,30 378,40 368,40 363,35 " style="fill:#a715d8; stroke-width:1; stroke:black; " description="&lt;b&gt;ctg1_1896&lt;/b&gt;&lt;br&gt;ctg1 1896&lt;br&gt;Location: 2059034 - 2059952" locus_tag="ctg1_1896" class="clusterblast-orf" id="knownclusterblast-13_q24_0_all"  />
<polygon points="381,35 386,30 394,30 394,40 386,40 381,35 " style="fill:#d87715; stroke-width:1; stroke:black; " description="&lt;b&gt;ctg1_1897&lt;/b&gt;&lt;br&gt;ctg1 1897&lt;br&gt;Location: 2060146 - 2060941" locus_tag="ctg1_1897" class="clusterblast-orf" id="knownclusterblast-13_q25_0_all"  />
<polygon points="402,40 402,40 407,35 402,30 402,30 402,40 " style="fill:#d81515; stroke-width:1; stroke:black; " description="&lt;b&gt;ctg1_1898&lt;/b&gt;&lt;br&gt;ctg1 1898&lt;br&gt;Location: 2061442 - 2061727" locus_tag="ctg1_1898" class="clusterblast-orf" id="knownclusterblast-13_q26_0_all"  />
<polygon points="407,40 415,40 420,35 415,30 407,30 407,40 " style="fill:#15d815; stroke-width:1; stroke:black; " description="&lt;b&gt;ctg1_1899&lt;/b&gt;&lt;br&gt;ctg1 1899&lt;br&gt;Location: 2061723 - 2062533" locus_tag="ctg1_1899" class="clusterblast-orf" id="knownclusterblast-13_q27_0_all"  />
<polygon points="420,40 442,40 447,35 442,30 420,30 420,40 " style="fill:#1577d8; stroke-width:1; stroke:black; " description="&lt;b&gt;ctg1_1900&lt;/b&gt;&lt;br&gt;ctg1 1900&lt;br&gt;Location: 2062551 - 2064216" locus_tag="ctg1_1900" class="clusterblast-orf" id="knownclusterblast-13_q28_0_all"  />
<polygon points="447,40 453,40 458,35 453,30 447,30 447,40 " style="fill:#d815d8; stroke-width:1; stroke:black; " description="&lt;b&gt;ctg1_1901&lt;/b&gt;&lt;br&gt;ctg1 1901&lt;br&gt;Location: 2064226 - 2064889" locus_tag="ctg1_1901" class="clusterblast-orf" id="knownclusterblast-13_q29_0_all"  />
<polygon points="458,40 462,40 467,35 462,30 458,30 458,40 " style="fill:#d8a715; stroke-width:1; stroke:black; " description="&lt;b&gt;ctg1_1902&lt;/b&gt;&lt;br&gt;ctg1 1902&lt;br&gt;Location: 2064903 - 2065428" locus_tag="ctg1_1902" class="clusterblast-orf" id="knownclusterblast-13_q30_0_all"  />
<polygon points="467,40 491,40 496,35 491,30 467,30 467,40 " style="fill:#15d846; stroke-width:1; stroke:black; " description="&lt;b&gt;ctg1_1903&lt;/b&gt;&lt;br&gt;ctg1 1903&lt;br&gt;Location: 2065438 - 2067271" locus_tag="ctg1_1903" class="clusterblast-orf" id="knownclusterblast-13_q31_0_all"  />
<polygon points="496,40 497,40 502,35 497,30 496,30 496,40 " style="fill:#1546d8; stroke-width:1; stroke:black; " description="&lt;b&gt;ctg1_1904&lt;/b&gt;&lt;br&gt;ctg1 1904&lt;br&gt;Location: 2067260 - 2067611" locus_tag="ctg1_1904" class="clusterblast-orf" id="knownclusterblast-13_q32_0_all"  />
<polygon points="502,40 502,40 507,35 502,30 502,30 502,40 " style="fill:#d81515; stroke-width:1; stroke:black; " description="&lt;b&gt;ctg1_1905&lt;/b&gt;&lt;br&gt;ctg1 1905&lt;br&gt;Location: 2067630 - 2067906" locus_tag="ctg1_1905" class="clusterblast-orf" id="knownclusterblast-13_q33_0_all"  />
<polygon points="507,40 509,40 514,35 509,30 507,30 507,40 " style="fill:#d815a7; stroke-width:1; stroke:black; " description="&lt;b&gt;ctg1_1906&lt;/b&gt;&lt;br&gt;ctg1 1906&lt;br&gt;Location: 2067931 - 2068366" locus_tag="ctg1_1906" class="clusterblast-orf" id="knownclusterblast-13_q34_0_all"  />
<polygon points="514,40 519,40 524,35 519,30 514,30 514,40 " style="fill:#15a7d8; stroke-width:1; stroke:black; " description="&lt;b&gt;ctg1_1907&lt;/b&gt;&lt;br&gt;ctg1 1907&lt;br&gt;Location: 2068365 - 2068998" locus_tag="ctg1_1907" class="clusterblast-orf" id="knownclusterblast-13_q35_0_all"  />
<polygon points="524,40 527,40 532,35 527,30 524,30 524,40 " style="fill:#d8d815; stroke-width:1; stroke:black; " description="&lt;b&gt;ctg1_1908&lt;/b&gt;&lt;br&gt;ctg1 1908&lt;br&gt;Location: 2068994 - 2069486" locus_tag="ctg1_1908" class="clusterblast-orf" id="knownclusterblast-13_q36_0_all"  />
<polygon points="532,40 532,40 537,35 532,30 532,30 532,40 " style="fill:#15d8d8; stroke-width:1; stroke:black; " description="&lt;b&gt;ctg1_1909&lt;/b&gt;&lt;br&gt;ctg1 1909&lt;br&gt;Location: 2069489 - 2069765" locus_tag="ctg1_1909" class="clusterblast-orf" id="knownclusterblast-13_q37_0_all"  />
<polygon points="537,40 548,40 553,35 548,30 537,30 537,40 " style="fill:#15d877; stroke-width:1; stroke:black; " description="&lt;b&gt;ctg1_1910&lt;/b&gt;&lt;br&gt;ctg1 1910&lt;br&gt;Location: 2069775 - 2070783" locus_tag="ctg1_1910" class="clusterblast-orf" id="knownclusterblast-13_q38_0_all"  />
<polygon points="553,40 571,40 576,35 571,30 553,30 553,40 " style="fill:#1515d8; stroke-width:1; stroke:black; " description="&lt;b&gt;ctg1_1911&lt;/b&gt;&lt;br&gt;ctg1 1911&lt;br&gt;Location: 2070779 - 2072162" locus_tag="ctg1_1911" class="clusterblast-orf" id="knownclusterblast-13_q39_0_all"  />
<polygon points="576,40 589,40 594,35 589,30 576,30 576,40 " style="fill:#7715d8; stroke-width:1; stroke:black; " description="&lt;b&gt;ctg1_1912&lt;/b&gt;&lt;br&gt;ctg1 1912&lt;br&gt;Location: 2072172 - 2073285" locus_tag="ctg1_1912" class="clusterblast-orf" id="knownclusterblast-13_q40_0_all"  />
<polygon points="594,40 610,40 615,35 610,30 594,30 594,40 " style="fill:#d81577; stroke-width:1; stroke:black; " description="&lt;b&gt;ctg1_1913&lt;/b&gt;&lt;br&gt;ctg1 1913&lt;br&gt;Location: 2073281 - 2074622" locus_tag="ctg1_1913" class="clusterblast-orf" id="knownclusterblast-13_q41_0_all"  />
<polygon points="615,40 619,40 624,35 619,30 615,30 615,40 " style="fill:#d81515; stroke-width:1; stroke:black; " description="&lt;b&gt;ctg1_1914&lt;/b&gt;&lt;br&gt;ctg1 1914&lt;br&gt;Location: 2074624 - 2075179" locus_tag="ctg1_1914" class="clusterblast-orf" id="knownclusterblast-13_q42_0_all"  />
<polygon points="624,40 625,40 630,35 625,30 624,30 624,40 " style="fill:#a7d815; stroke-width:1; stroke:black; " description="&lt;b&gt;ctg1_1915&lt;/b&gt;&lt;br&gt;ctg1 1915&lt;br&gt;Location: 2075178 - 2075529" locus_tag="ctg1_1915" class="clusterblast-orf" id="knownclusterblast-13_q43_0_all"  />
<polygon points="630,40 632,40 637,35 632,30 630,30 630,40 " style="fill:#15d8a7; stroke-width:1; stroke:black; " description="&lt;b&gt;ctg1_1916&lt;/b&gt;&lt;br&gt;ctg1 1916&lt;br&gt;Location: 2075533 - 2075980" locus_tag="ctg1_1916" class="clusterblast-orf" id="knownclusterblast-13_q44_0_all"  />
<polygon points="637,40 652,40 657,35 652,30 637,30 637,40 " style="fill:#4615d8; stroke-width:1; stroke:black; " description="&lt;b&gt;ctg1_1917&lt;/b&gt;&lt;br&gt;ctg1 1917&lt;br&gt;Location: 2075969 - 2077184" locus_tag="ctg1_1917" class="clusterblast-orf" id="knownclusterblast-13_q45_0_all"  />
<polygon points="658,35 663,30 664,30 664,40 663,40 658,35 " style="fill:#d81546; stroke-width:1; stroke:black; " description="&lt;b&gt;ctg1_1918&lt;/b&gt;&lt;br&gt;ctg1 1918&lt;br&gt;Location: 2077293 - 2077629" locus_tag="ctg1_1918" class="clusterblast-orf" id="knownclusterblast-13_q46_0_all"  />
<polygon points="667,35 672,30 684,30 684,40 672,40 667,35 " style="fill:white; stroke-width:1; stroke:black; " description="&lt;b&gt;ctg1_1919&lt;/b&gt;&lt;br&gt;ctg1 1919&lt;br&gt;Location: 2077796 - 2078855" locus_tag="ctg1_1919" class="clusterblast-orf" id="knownclusterblast-13_q47_0_all"  />
<polygon points="685,35 690,30 693,30 693,40 690,40 685,35 " style="fill:white; stroke-width:1; stroke:black; " description="&lt;b&gt;ctg1_1920&lt;/b&gt;&lt;br&gt;ctg1 1920&lt;br&gt;Location: 2078961 - 2079429" locus_tag="ctg1_1920" class="clusterblast-orf" id="knownclusterblast-13_q48_0_all"  />
<polygon points="708,40 735,40 740,35 735,30 708,30 708,40 " style="fill:white; stroke-width:1; stroke:black; " description="&lt;b&gt;ctg1_1921&lt;/b&gt;&lt;br&gt;ctg1 1921&lt;br&gt;Location: 2080367 - 2082317" locus_tag="ctg1_1921" class="clusterblast-orf" id="knownclusterblast-13_q49_0_all"  />
<polygon points="740,35 745,30 780,30 780,40 745,40 740,35 " style="fill:white; stroke-width:1; stroke:black; " description="&lt;b&gt;ctg1_1922&lt;/b&gt;&lt;br&gt;ctg1 1922&lt;br&gt;Location: 2082355 - 2084794" locus_tag="ctg1_1922" class="clusterblast-orf" id="knownclusterblast-13_q50_0_all"  />
</g>
<g label="MGC00000010" description="MGC00000010_c1: Propanediol degradation S. enterica (95% of genes show similarity), PDU" class="clusterblast-cluster"  >
<text x="5" y="70" class="clusterblast-acc"  >
MGC00000010_c1: Propanediol degradation S. enterica (95% of genes show similarity), PDU</text>
<line x1="10" y1="85" x2="778.0" y2="85" style="stroke-width:1; stroke:grey; "  />
</g>
<g id="a13_000"  >
<polygon points="233,85 238,80 247,80 247,90 238,90 233,85 " style="fill:#a715d8; stroke-width:1; stroke:black; " description="&lt;b&gt;STM2036&lt;/b&gt;&lt;br&gt;transcriptional regulator PocR&lt;br&gt;Location: 221 - 1133&lt;br&gt;&lt;br&gt;&lt;b&gt;BlastP hit with ctg1_1896&lt;/b&gt;&lt;br&gt;Percentage identity: 85&lt;br&gt;Percentage coverage: 98&lt;br&gt;BLAST bit score: 520&lt;br&gt;E-value: 1.02e-190" locus_tag="STM2036" class="clusterblast-orf" id="knownclusterblast-13_all_13_1_0"  />
</g>
<g id="a13_001"  >
<polygon points="251,85 256,80 264,80 264,90 256,90 251,85 " style="fill:#d87715; stroke-width:1; stroke:black; " description="&lt;b&gt;STM2037&lt;/b&gt;&lt;br&gt;propanediol diffusion facilitator&lt;br&gt;Location: 1349 - 2144&lt;br&gt;&lt;br&gt;&lt;b&gt;BlastP hit with ctg1_1897&lt;/b&gt;&lt;br&gt;Percentage identity: 85&lt;br&gt;Percentage coverage: 99&lt;br&gt;BLAST bit score: 451&lt;br&gt;E-value: 8.98e-165" locus_tag="STM2037" class="clusterblast-orf" id="knownclusterblast-13_all_13_1_1"  />
</g>
<g id="a13_002"  >
<polygon points="272,90 272,90 277,85 272,80 272,80 272,90 " style="fill:#d81515; stroke-width:1; stroke:black; " description="&lt;b&gt;STM2038&lt;/b&gt;&lt;br&gt;propanediol utilization polyhedral body protein PduA&lt;br&gt;Location: 2668 - 2953&lt;br&gt;&lt;br&gt;&lt;b&gt;BlastP hit with ctg1_1880&lt;/b&gt;&lt;br&gt;Percentage identity: 64&lt;br&gt;Percentage coverage: 95&lt;br&gt;BLAST bit score: 109&lt;br&gt;E-value: 8.17e-35&lt;br&gt;&lt;br&gt;&lt;b&gt;BlastP hit with ctg1_1881&lt;/b&gt;&lt;br&gt;Percentage identity: 64&lt;br&gt;Percentage coverage: 90&lt;br&gt;BLAST bit score: 106&lt;br&gt;E-value: 1.46e-33&lt;br&gt;&lt;br&gt;&lt;b&gt;BlastP hit with ctg1_1882&lt;/b&gt;&lt;br&gt;Percentage identity: 67&lt;br&gt;Percentage coverage: 92&lt;br&gt;BLAST bit score: 110&lt;br&gt;E-value: 2.01e-35&lt;br&gt;&lt;br&gt;&lt;b&gt;BlastP hit with ctg1_1888&lt;/b&gt;&lt;br&gt;Percentage identity: 44&lt;br&gt;Percentage coverage: 53&lt;br&gt;BLAST bit score: 64&lt;br&gt;E-value: 5.42e-16&lt;br&gt;&lt;br&gt;&lt;b&gt;BlastP hit with ctg1_1898&lt;/b&gt;&lt;br&gt;Percentage identity: 96&lt;br&gt;Percentage coverage: 99&lt;br&gt;BLAST bit score: 166&lt;br&gt;E-value: 1.71e-57&lt;br&gt;&lt;br&gt;&lt;b&gt;BlastP hit with ctg1_1905&lt;/b&gt;&lt;br&gt;Percentage identity: 84&lt;br&gt;Percentage coverage: 95&lt;br&gt;BLAST bit score: 134&lt;br&gt;E-value: 1.39e-44" locus_tag="STM2038" class="clusterblast-orf" id="knownclusterblast-13_all_13_1_2"  />
</g>
<g id="a13_003"  >
<polygon points="277,90 285,90 290,85 285,80 277,80 277,90 " style="fill:#15d815; stroke-width:1; stroke:black; " description="&lt;b&gt;STM2039&lt;/b&gt;&lt;br&gt;propanediol utilization polyhedral body protein PduB&lt;br&gt;Location: 2949 - 3762&lt;br&gt;&lt;br&gt;&lt;b&gt;BlastP hit with ctg1_1899&lt;/b&gt;&lt;br&gt;Percentage identity: 91&lt;br&gt;Percentage coverage: 100&lt;br&gt;BLAST bit score: 457&lt;br&gt;E-value: 1e-166" locus_tag="STM2039" class="clusterblast-orf" id="knownclusterblast-13_all_13_1_3"  />
</g>
<g id="a13_004"  >
<polygon points="290,90 312,90 317,85 312,80 290,80 290,90 " style="fill:#1577d8; stroke-width:1; stroke:black; " description="&lt;b&gt;STM2040&lt;/b&gt;&lt;br&gt;propanediol dehydratase large subunit&lt;br&gt;Location: 3780 - 5445&lt;br&gt;&lt;br&gt;&lt;b&gt;BlastP hit with ctg1_1900&lt;/b&gt;&lt;br&gt;Percentage identity: 97&lt;br&gt;Percentage coverage: 100&lt;br&gt;BLAST bit score: 1055&lt;br&gt;E-value: 0.0" locus_tag="STM2040" class="clusterblast-orf" id="knownclusterblast-13_all_13_1_4"  />
</g>
<g id="a13_005"  >
<polygon points="317,90 323,90 328,85 323,80 317,80 317,90 " style="fill:#d815d8; stroke-width:1; stroke:black; " description="&lt;b&gt;STM2041&lt;/b&gt;&lt;br&gt;propanediol dehydratase medium subunit&lt;br&gt;Location: 5455 - 6130&lt;br&gt;&lt;br&gt;&lt;b&gt;BlastP hit with ctg1_1901&lt;/b&gt;&lt;br&gt;Percentage identity: 91&lt;br&gt;Percentage coverage: 102&lt;br&gt;BLAST bit score: 379&lt;br&gt;E-value: 1.62e-137" locus_tag="STM2041" class="clusterblast-orf" id="knownclusterblast-13_all_13_1_5"  />
</g>
<g id="a13_006"  >
<polygon points="328,90 332,90 337,85 332,80 328,80 328,90 " style="fill:#d8a715; stroke-width:1; stroke:black; " description="&lt;b&gt;STM2042&lt;/b&gt;&lt;br&gt;propanediol dehydratase small subunit&lt;br&gt;Location: 6144 - 6666&lt;br&gt;&lt;br&gt;&lt;b&gt;BlastP hit with ctg1_1902&lt;/b&gt;&lt;br&gt;Percentage identity: 87&lt;br&gt;Percentage coverage: 100&lt;br&gt;BLAST bit score: 290&lt;br&gt;E-value: 4.8e-104" locus_tag="STM2042" class="clusterblast-orf" id="knownclusterblast-13_all_13_1_6"  />
</g>
<g id="a13_007"  >
<polygon points="337,90 362,90 367,85 362,80 337,80 337,90 " style="fill:#15d846; stroke-width:1; stroke:black; " description="&lt;b&gt;STM2043&lt;/b&gt;&lt;br&gt;propanediol dehydratase reactivation protein&lt;br&gt;Location: 6675 - 8508&lt;br&gt;&lt;br&gt;&lt;b&gt;BlastP hit with ctg1_1903&lt;/b&gt;&lt;br&gt;Percentage identity: 88&lt;br&gt;Percentage coverage: 100&lt;br&gt;BLAST bit score: 1026&lt;br&gt;E-value: 0.0" locus_tag="STM2043" class="clusterblast-orf" id="knownclusterblast-13_all_13_1_7"  />
</g>
<g id="a13_008"  >
<polygon points="366,90 367,90 372,85 367,80 366,80 366,90 " style="fill:#1546d8; stroke-width:1; stroke:black; " description="&lt;b&gt;STM2044&lt;/b&gt;&lt;br&gt;propanediol dehydratase reactivation protein&lt;br&gt;Location: 8497 - 8848&lt;br&gt;&lt;br&gt;&lt;b&gt;BlastP hit with ctg1_1904&lt;/b&gt;&lt;br&gt;Percentage identity: 66&lt;br&gt;Percentage coverage: 100&lt;br&gt;BLAST bit score: 158&lt;br&gt;E-value: 1.86e-53" locus_tag="STM2044" class="clusterblast-orf" id="knownclusterblast-13_all_13_1_8"  />
</g>
<g id="a13_009"  >
<polygon points="372,90 372,90 377,85 372,80 372,80 372,90 " style="fill:#d81515; stroke-width:1; stroke:black; " description="&lt;b&gt;STM2045&lt;/b&gt;&lt;br&gt;propanediol utilization polyhedral body protein PduJ&lt;br&gt;Location: 8866 - 9142&lt;br&gt;&lt;br&gt;&lt;b&gt;BlastP hit with ctg1_1880&lt;/b&gt;&lt;br&gt;Percentage identity: 66&lt;br&gt;Percentage coverage: 97&lt;br&gt;BLAST bit score: 112&lt;br&gt;E-value: 3.19e-36&lt;br&gt;&lt;br&gt;&lt;b&gt;BlastP hit with ctg1_1881&lt;/b&gt;&lt;br&gt;Percentage identity: 66&lt;br&gt;Percentage coverage: 93&lt;br&gt;BLAST bit score: 109&lt;br&gt;E-value: 5.71e-35&lt;br&gt;&lt;br&gt;&lt;b&gt;BlastP hit with ctg1_1882&lt;/b&gt;&lt;br&gt;Percentage identity: 67&lt;br&gt;Percentage coverage: 93&lt;br&gt;BLAST bit score: 110&lt;br&gt;E-value: 2.62e-35&lt;br&gt;&lt;br&gt;&lt;b&gt;BlastP hit with ctg1_1888&lt;/b&gt;&lt;br&gt;Percentage identity: 48&lt;br&gt;Percentage coverage: 48&lt;br&gt;BLAST bit score: 71&lt;br&gt;E-value: 1.48e-18&lt;br&gt;&lt;br&gt;&lt;b&gt;BlastP hit with ctg1_1898&lt;/b&gt;&lt;br&gt;Percentage identity: 84&lt;br&gt;Percentage coverage: 93&lt;br&gt;BLAST bit score: 134&lt;br&gt;E-value: 1.43e-44&lt;br&gt;&lt;br&gt;&lt;b&gt;BlastP hit with ctg1_1905&lt;/b&gt;&lt;br&gt;Percentage identity: 98&lt;br&gt;Percentage coverage: 100&lt;br&gt;BLAST bit score: 165&lt;br&gt;E-value: 5.62e-57" locus_tag="STM2045" class="clusterblast-orf" id="knownclusterblast-13_all_13_1_9"  />
</g>
<g id="a13_0010"  >
<polygon points="377,90 380,90 385,85 380,80 377,80 377,90 " style="fill:#d815a7; stroke-width:1; stroke:black; " description="&lt;b&gt;STM2046&lt;/b&gt;&lt;br&gt;propanediol utilization polyhedral body protein PduK&lt;br&gt;Location: 9166 - 9628&lt;br&gt;&lt;br&gt;&lt;b&gt;BlastP hit with ctg1_1906&lt;/b&gt;&lt;br&gt;Percentage identity: 68&lt;br&gt;Percentage coverage: 106&lt;br&gt;BLAST bit score: 189&lt;br&gt;E-value: 1.21e-64" locus_tag="STM2046" class="clusterblast-orf" id="knownclusterblast-13_all_13_1_10"  />
</g>
<g id="a13_0011"  >
<polygon points="385,90 390,90 395,85 390,80 385,80 385,90 " style="fill:#15a7d8; stroke-width:1; stroke:black; " description="&lt;b&gt;STM2047&lt;/b&gt;&lt;br&gt;phosphate propanoyltransferase&lt;br&gt;Location: 9627 - 10260&lt;br&gt;&lt;br&gt;&lt;b&gt;BlastP hit with ctg1_1889&lt;/b&gt;&lt;br&gt;Percentage identity: 58&lt;br&gt;Percentage coverage: 87&lt;br&gt;BLAST bit score: 188&lt;br&gt;E-value: 1.54e-62&lt;br&gt;&lt;br&gt;&lt;b&gt;BlastP hit with ctg1_1907&lt;/b&gt;&lt;br&gt;Percentage identity: 81&lt;br&gt;Percentage coverage: 99&lt;br&gt;BLAST bit score: 336&lt;br&gt;E-value: 7.69e-121" locus_tag="STM2047" class="clusterblast-orf" id="knownclusterblast-13_all_13_1_11"  />
</g>
<g id="a13_0012"  >
<polygon points="395,90 398,90 403,85 398,80 395,80 395,90 " style="fill:#d8d815; stroke-width:1; stroke:black; " description="&lt;b&gt;STM2048&lt;/b&gt;&lt;br&gt;propanediol utilization protein PduM&lt;br&gt;Location: 10256 - 10748&lt;br&gt;&lt;br&gt;&lt;b&gt;BlastP hit with ctg1_1908&lt;/b&gt;&lt;br&gt;Percentage identity: 54&lt;br&gt;Percentage coverage: 101&lt;br&gt;BLAST bit score: 156&lt;br&gt;E-value: 2.81e-51" locus_tag="STM2048" class="clusterblast-orf" id="knownclusterblast-13_all_13_1_12"  />
</g>
<g id="a13_0013"  >
<polygon points="403,90 407,85 403,80 403,90 " style="fill:#15d8d8; stroke-width:1; stroke:black; " description="&lt;b&gt;STM2049&lt;/b&gt;&lt;br&gt;propanediol utilization polyhedral body protein PduN&lt;br&gt;Location: 10751 - 11027&lt;br&gt;&lt;br&gt;&lt;b&gt;BlastP hit with ctg1_1884&lt;/b&gt;&lt;br&gt;Percentage identity: 48&lt;br&gt;Percentage coverage: 71&lt;br&gt;BLAST bit score: 47&lt;br&gt;E-value: 3.03e-10&lt;br&gt;&lt;br&gt;&lt;b&gt;BlastP hit with ctg1_1909&lt;/b&gt;&lt;br&gt;Percentage identity: 82&lt;br&gt;Percentage coverage: 99&lt;br&gt;BLAST bit score: 141&lt;br&gt;E-value: 1.13e-47" locus_tag="STM2049" class="clusterblast-orf" id="knownclusterblast-13_all_13_1_13"  />
</g>
<g id="a13_0014"  >
<polygon points="407,90 419,90 424,85 419,80 407,80 407,90 " style="fill:#15d877; stroke-width:1; stroke:black; " description="&lt;b&gt;STM2050&lt;/b&gt;&lt;br&gt;propanediol utilization protein PduO&lt;br&gt;Location: 11036 - 12047&lt;br&gt;&lt;br&gt;&lt;b&gt;BlastP hit with ctg1_1910&lt;/b&gt;&lt;br&gt;Percentage identity: 75&lt;br&gt;Percentage coverage: 100&lt;br&gt;BLAST bit score: 472&lt;br&gt;E-value: 1.67e-170" locus_tag="STM2050" class="clusterblast-orf" id="knownclusterblast-13_all_13_1_14"  />
</g>
<g id="a13_0015"  >
<polygon points="424,90 441,90 446,85 441,80 424,80 424,90 " style="fill:#1515d8; stroke-width:1; stroke:black; " description="&lt;b&gt;STM2051&lt;/b&gt;&lt;br&gt;CoA-dependent propionaldehyde dehydrogenase&lt;br&gt;Location: 12043 - 13438&lt;br&gt;&lt;br&gt;&lt;b&gt;BlastP hit with ctg1_1911&lt;/b&gt;&lt;br&gt;Percentage identity: 87&lt;br&gt;Percentage coverage: 101&lt;br&gt;BLAST bit score: 772&lt;br&gt;E-value: 4.57e-285" locus_tag="STM2051" class="clusterblast-orf" id="knownclusterblast-13_all_13_1_15"  />
</g>
<g id="a13_0016"  >
<polygon points="446,90 459,90 464,85 459,80 446,80 446,90 " style="fill:#7715d8; stroke-width:1; stroke:black; " description="&lt;b&gt;STM2052&lt;/b&gt;&lt;br&gt;propanol dehydrogenase&lt;br&gt;Location: 13449 - 14562&lt;br&gt;&lt;br&gt;&lt;b&gt;BlastP hit with ctg1_1885&lt;/b&gt;&lt;br&gt;Percentage identity: 43&lt;br&gt;Percentage coverage: 98&lt;br&gt;BLAST bit score: 263&lt;br&gt;E-value: 5.13e-87&lt;br&gt;&lt;br&gt;&lt;b&gt;BlastP hit with ctg1_1912&lt;/b&gt;&lt;br&gt;Percentage identity: 81&lt;br&gt;Percentage coverage: 100&lt;br&gt;BLAST bit score: 582&lt;br&gt;E-value: 6.7e-213" locus_tag="STM2052" class="clusterblast-orf" id="knownclusterblast-13_all_13_1_16"  />
</g>
<g id="a13_0017"  >
<polygon points="464,90 481,90 486,85 481,80 464,80 464,90 " style="fill:#d81577; stroke-width:1; stroke:black; " description="&lt;b&gt;STM2053&lt;/b&gt;&lt;br&gt;propanediol utilization polyhedral body protein PduS&lt;br&gt;Location: 14558 - 15914&lt;br&gt;&lt;br&gt;&lt;b&gt;BlastP hit with ctg1_1913&lt;/b&gt;&lt;br&gt;Percentage identity: 82&lt;br&gt;Percentage coverage: 98&lt;br&gt;BLAST bit score: 697&lt;br&gt;E-value: 5.6e-256" locus_tag="STM2053" class="clusterblast-orf" id="knownclusterblast-13_all_13_1_17"  />
</g>
<g id="a13_0018"  >
<polygon points="486,90 490,90 495,85 490,80 486,80 486,90 " style="fill:#d81515; stroke-width:1; stroke:black; " description="&lt;b&gt;STM2054&lt;/b&gt;&lt;br&gt;propanediol utilization polyhedral body protein PduT&lt;br&gt;Location: 15916 - 16471&lt;br&gt;&lt;br&gt;&lt;b&gt;BlastP hit with ctg1_1880&lt;/b&gt;&lt;br&gt;Percentage identity: 41&lt;br&gt;Percentage coverage: 87&lt;br&gt;BLAST bit score: 46&lt;br&gt;E-value: 3.01e-09&lt;br&gt;&lt;br&gt;&lt;b&gt;BlastP hit with ctg1_1881&lt;/b&gt;&lt;br&gt;Percentage identity: 41&lt;br&gt;Percentage coverage: 85&lt;br&gt;BLAST bit score: 42&lt;br&gt;E-value: 6.05e-08&lt;br&gt;&lt;br&gt;&lt;b&gt;BlastP hit with ctg1_1882&lt;/b&gt;&lt;br&gt;Percentage identity: 42&lt;br&gt;Percentage coverage: 89&lt;br&gt;BLAST bit score: 46&lt;br&gt;E-value: 2.17e-09&lt;br&gt;&lt;br&gt;&lt;b&gt;BlastP hit with ctg1_1905&lt;/b&gt;&lt;br&gt;Percentage identity: 38&lt;br&gt;Percentage coverage: 70&lt;br&gt;BLAST bit score: 46&lt;br&gt;E-value: 2.1e-09&lt;br&gt;&lt;br&gt;&lt;b&gt;BlastP hit with ctg1_1914&lt;/b&gt;&lt;br&gt;Percentage identity: 90&lt;br&gt;Percentage coverage: 100&lt;br&gt;BLAST bit score: 321&lt;br&gt;E-value: 6.74e-116" locus_tag="STM2054" class="clusterblast-orf" id="knownclusterblast-13_all_13_1_18"  />
</g>
<g id="a13_0019"  >
<polygon points="495,90 496,90 501,85 496,80 495,80 495,90 " style="fill:#a7d815; stroke-width:1; stroke:black; " description="&lt;b&gt;STM2055&lt;/b&gt;&lt;br&gt;propanediol utilization polyhedral body protein PduU&lt;br&gt;Location: 16470 - 16821&lt;br&gt;&lt;br&gt;&lt;b&gt;BlastP hit with ctg1_1915&lt;/b&gt;&lt;br&gt;Percentage identity: 89&lt;br&gt;Percentage coverage: 100&lt;br&gt;BLAST bit score: 202&lt;br&gt;E-value: 7.84e-71" locus_tag="STM2055" class="clusterblast-orf" id="knownclusterblast-13_all_13_1_19"  />
</g>
<g id="a13_0020"  >
<polygon points="501,90 503,90 508,85 503,80 501,80 501,90 " style="fill:#15d8a7; stroke-width:1; stroke:black; " description="&lt;b&gt;STM2056&lt;/b&gt;&lt;br&gt;propanediol utilization protein PduV&lt;br&gt;Location: 16825 - 17278&lt;br&gt;&lt;br&gt;&lt;b&gt;BlastP hit with ctg1_1916&lt;/b&gt;&lt;br&gt;Percentage identity: 75&lt;br&gt;Percentage coverage: 95&lt;br&gt;BLAST bit score: 219&lt;br&gt;E-value: 8.45e-77" locus_tag="STM2056" class="clusterblast-orf" id="knownclusterblast-13_all_13_1_20"  />
</g>
<g id="a13_0021"  >
<polygon points="508,90 523,90 528,85 523,80 508,80 508,90 " style="fill:#4615d8; stroke-width:1; stroke:black; " description="&lt;b&gt;STM2057&lt;/b&gt;&lt;br&gt;propionate kinase&lt;br&gt;Location: 17262 - 18477&lt;br&gt;&lt;br&gt;&lt;b&gt;BlastP hit with ctg1_1917&lt;/b&gt;&lt;br&gt;Percentage identity: 82&lt;br&gt;Percentage coverage: 98&lt;br&gt;BLAST bit score: 663&lt;br&gt;E-value: 9.48e-244" locus_tag="STM2057" class="clusterblast-orf" id="knownclusterblast-13_all_13_1_21"  />
</g>
<g id="a13_0022"  >
<polygon points="529,90 538,90 543,85 538,80 529,80 529,90 " style="fill:white; stroke-width:1; stroke:black; " description="&lt;b&gt;STM2058&lt;/b&gt;&lt;br&gt;L-threonine kinase&lt;br&gt;Location: 18534 - 19437" locus_tag="STM2058" class="clusterblast-orf" id="knownclusterblast-13_all_13_1_22"  />
</g>
<g id="a13_0023"  >
<polygon points="544,85 546,80 546,90 544,85 " style="fill:#d81546; stroke-width:1; stroke:black; " description="&lt;b&gt;STM2059&lt;/b&gt;&lt;br&gt;hypothetical protein&lt;br&gt;Location: 19470 - 19638&lt;br&gt;&lt;br&gt;&lt;b&gt;BlastP hit with ctg1_1918&lt;/b&gt;&lt;br&gt;Percentage identity: 90&lt;br&gt;Percentage coverage: 100&lt;br&gt;BLAST bit score: 189&lt;br&gt;E-value: 5.86e-66" locus_tag="STM2059" class="clusterblast-orf" id="knownclusterblast-13_all_13_1_23"  />
</g>
<g label="MGC0000001" description="MGC0000001_c1: Trimethylamine synthesis C. sporogenes (100% of genes show similarity), TMA" class="clusterblast-cluster"  >
<text x="5" y="120" class="clusterblast-acc"  >
MGC0000001_c1: Trimethylamine synthesis C. sporogenes (100% of genes show similarity), TMA</text>
<line x1="10" y1="135" x2="778.0" y2="135" style="stroke-width:1; stroke:grey; "  />
</g>
<g id="a13_000"  >
<polygon points="343,140 343,135 343,130 343,140 " style="fill:#d81515; stroke-width:1; stroke:black; " description="&lt;b&gt;CLOSPO_RS07620&lt;/b&gt;&lt;br&gt;hypothetical protein&lt;br&gt;Location: 0 - 4&lt;br&gt;&lt;br&gt;&lt;b&gt;BlastP hit with ctg1_1880&lt;/b&gt;&lt;br&gt;Percentage identity: 56&lt;br&gt;Percentage coverage: 98&lt;br&gt;BLAST bit score: 99&lt;br&gt;E-value: 1.32e-30&lt;br&gt;&lt;br&gt;&lt;b&gt;BlastP hit with ctg1_1881&lt;/b&gt;&lt;br&gt;Percentage identity: 59&lt;br&gt;Percentage coverage: 100&lt;br&gt;BLAST bit score: 103&lt;br&gt;E-value: 1.5e-32&lt;br&gt;&lt;br&gt;&lt;b&gt;BlastP hit with ctg1_1882&lt;/b&gt;&lt;br&gt;Percentage identity: 60&lt;br&gt;Percentage coverage: 98&lt;br&gt;BLAST bit score: 98&lt;br&gt;E-value: 3.77e-30&lt;br&gt;&lt;br&gt;&lt;b&gt;BlastP hit with ctg1_1888&lt;/b&gt;&lt;br&gt;Percentage identity: 44&lt;br&gt;Percentage coverage: 49&lt;br&gt;BLAST bit score: 63&lt;br&gt;E-value: 1.84e-15&lt;br&gt;&lt;br&gt;&lt;b&gt;BlastP hit with ctg1_1898&lt;/b&gt;&lt;br&gt;Percentage identity: 60&lt;br&gt;Percentage coverage: 93&lt;br&gt;BLAST bit score: 92&lt;br&gt;E-value: 1.1e-27&lt;br&gt;&lt;br&gt;&lt;b&gt;BlastP hit with ctg1_1905&lt;/b&gt;&lt;br&gt;Percentage identity: 61&lt;br&gt;Percentage coverage: 99&lt;br&gt;BLAST bit score: 96&lt;br&gt;E-value: 1.47e-29" locus_tag="CLOSPO_RS07620" class="clusterblast-orf" id="knownclusterblast-13_all_13_2_0"  />
</g>
<g id="a13_001"  >
<polygon points="344,140 363,140 368,135 363,130 344,130 344,140 " style="fill:#77d815; stroke-width:1; stroke:black; " description="&lt;b&gt;CLOSPO_RS07625&lt;/b&gt;&lt;br&gt;acetaldehyde dehydrogenase&lt;br&gt;Location: 41 - 1523&lt;br&gt;&lt;br&gt;&lt;b&gt;BlastP hit with ctg1_1883&lt;/b&gt;&lt;br&gt;Percentage identity: 53&lt;br&gt;Percentage coverage: 86&lt;br&gt;BLAST bit score: 463&lt;br&gt;E-value: 1.04e-161" locus_tag="CLOSPO_RS07625" class="clusterblast-orf" id="knownclusterblast-13_all_13_2_1"  />
</g>
<g id="a13_002"  >
<polygon points="369,140 405,140 410,135 405,130 369,130 369,140 " style="fill:#d84615; stroke-width:1; stroke:black; " description="&lt;b&gt;CLOSPO_RS07630&lt;/b&gt;&lt;br&gt;choline trimethylamine-lyase&lt;br&gt;Location: 1572 - 4113&lt;br&gt;&lt;br&gt;&lt;b&gt;BlastP hit with ctg1_1886&lt;/b&gt;&lt;br&gt;Percentage identity: 62&lt;br&gt;Percentage coverage: 75&lt;br&gt;BLAST bit score: 1082&lt;br&gt;E-value: 0.0" locus_tag="CLOSPO_RS07630" class="clusterblast-orf" id="knownclusterblast-13_all_13_2_2"  />
</g>
<g id="a13_003"  >
<polygon points="413,140 423,140 428,135 423,130 413,130 413,140 " style="fill:#46d815; stroke-width:1; stroke:black; " description="&lt;b&gt;CLOSPO_RS07635&lt;/b&gt;&lt;br&gt;choline TMA-lyase-activating enzyme&lt;br&gt;Location: 4294 - 5248&lt;br&gt;&lt;br&gt;&lt;b&gt;BlastP hit with ctg1_1887&lt;/b&gt;&lt;br&gt;Percentage identity: 48&lt;br&gt;Percentage coverage: 98&lt;br&gt;BLAST bit score: 319&lt;br&gt;E-value: 5.72e-111" locus_tag="CLOSPO_RS07635" class="clusterblast-orf" id="knownclusterblast-13_all_13_2_3"  />
</g>
<g id="a13_004"  >
<polygon points="429,140 430,140 435,135 430,130 429,130 429,140 " style="fill:#a7d815; stroke-width:1; stroke:black; " description="&lt;b&gt;CLOSPO_RS07640&lt;/b&gt;&lt;br&gt;propanediol utilization protein PduU&lt;br&gt;Location: 5287 - 5641&lt;br&gt;&lt;br&gt;&lt;b&gt;BlastP hit with ctg1_1915&lt;/b&gt;&lt;br&gt;Percentage identity: 60&lt;br&gt;Percentage coverage: 94&lt;br&gt;BLAST bit score: 127&lt;br&gt;E-value: 2.04e-41" locus_tag="CLOSPO_RS07640" class="clusterblast-orf" id="knownclusterblast-13_all_13_2_4"  />
</g>
<g id="a13_005"  >
<polygon points="435,140 436,135 435,130 435,140 " style="fill:#15d8a7; stroke-width:1; stroke:black; " description="&lt;b&gt;CLOSPO_RS07645&lt;/b&gt;&lt;br&gt;hypothetical protein&lt;br&gt;Location: 5637 - 5704&lt;br&gt;&lt;br&gt;&lt;b&gt;BlastP hit with ctg1_1916&lt;/b&gt;&lt;br&gt;Percentage identity: 31&lt;br&gt;Percentage coverage: 95&lt;br&gt;BLAST bit score: 81&lt;br&gt;E-value: 2.87e-22" locus_tag="CLOSPO_RS07645" class="clusterblast-orf" id="knownclusterblast-13_all_13_2_5"  />
</g>
<g label="MGC0000003" description="MGC0000003_c1: Ethanolamine degradation S. typhimurium (31% of genes show similarity), EUT" class="clusterblast-cluster"  >
<text x="5" y="170" class="clusterblast-acc"  >
MGC0000003_c1: Ethanolamine degradation S. typhimurium (31% of genes show similarity), EUT</text>
<line x1="10" y1="185" x2="778.0" y2="185" style="stroke-width:1; stroke:grey; "  />
</g>
<g id="a13_000"  >
<polygon points="242,190 274,190 279,185 274,180 242,180 242,190 " style="fill:white; stroke-width:1; stroke:black; " description="&lt;b&gt;STM2472&lt;/b&gt;&lt;br&gt;malic enzyme&lt;br&gt;Location: 18301 - 16021" locus_tag="STM2472" class="clusterblast-orf" id="knownclusterblast-13_all_13_3_0"  />
</g>
<g id="a13_001"  >
<polygon points="282,190 285,190 290,185 285,180 282,180 282,190 " style="fill:white; stroke-width:1; stroke:black; " description="&lt;b&gt;STM2471&lt;/b&gt;&lt;br&gt;insertion sequence element IS200 transposase&lt;br&gt;Location: 15832 - 15373" locus_tag="STM2471" class="clusterblast-orf" id="knownclusterblast-13_all_13_3_1"  />
</g>
<g id="a13_002"  >
<polygon points="298,190 298,190 303,185 298,180 298,180 298,190 " style="fill:#a7d815; stroke-width:1; stroke:black; " description="&lt;b&gt;STM2470&lt;/b&gt;&lt;br&gt;carboxysome structural protein EutS&lt;br&gt;Location: 14893 - 14557&lt;br&gt;&lt;br&gt;&lt;b&gt;BlastP hit with ctg1_1915&lt;/b&gt;&lt;br&gt;Percentage identity: 57&lt;br&gt;Percentage coverage: 93&lt;br&gt;BLAST bit score: 122&lt;br&gt;E-value: 1.62e-39" locus_tag="STM2470" class="clusterblast-orf" id="knownclusterblast-13_all_13_3_2"  />
</g>
<g id="a13_003"  >
<polygon points="303,190 306,190 311,185 306,180 303,180 303,190 " style="fill:white; stroke-width:1; stroke:black; " description="&lt;b&gt;STM2469&lt;/b&gt;&lt;br&gt;ethanolamine utilization protein EutP&lt;br&gt;Location: 14545 - 14065" locus_tag="STM2469" class="clusterblast-orf" id="knownclusterblast-13_all_13_3_3"  />
</g>
<g id="a13_004"  >
<polygon points="311,190 317,190 322,185 317,180 311,180 311,190 " style="fill:white; stroke-width:1; stroke:black; " description="&lt;b&gt;STM2468&lt;/b&gt;&lt;br&gt;ethanolamine utilization protein EutQ&lt;br&gt;Location: 14088 - 13398" locus_tag="STM2468" class="clusterblast-orf" id="knownclusterblast-13_all_13_3_4"  />
</g>
<g id="a13_005"  >
<polygon points="322,190 330,190 335,185 330,180 322,180 322,190 " style="fill:white; stroke-width:1; stroke:black; " description="&lt;b&gt;STM2467&lt;/b&gt;&lt;br&gt;cobalamin adenosyltransferase EutT&lt;br&gt;Location: 13402 - 12598" locus_tag="STM2467" class="clusterblast-orf" id="knownclusterblast-13_all_13_3_5"  />
</g>
<g id="a13_006"  >
<polygon points="335,190 346,190 351,185 346,180 335,180 335,190 " style="fill:white; stroke-width:1; stroke:black; " description="&lt;b&gt;STM2466&lt;/b&gt;&lt;br&gt;phosphotransacetylase EutD&lt;br&gt;Location: 12602 - 11585" locus_tag="STM2466" class="clusterblast-orf" id="knownclusterblast-13_all_13_3_6"  />
</g>
<g id="a13_007"  >
<polygon points="352,190 356,185 352,180 352,190 " style="fill:#d81515; stroke-width:1; stroke:black; " description="&lt;b&gt;STM2465&lt;/b&gt;&lt;br&gt;carboxysome structural protein EutM&lt;br&gt;Location: 11545 - 11254&lt;br&gt;&lt;br&gt;&lt;b&gt;BlastP hit with ctg1_1880&lt;/b&gt;&lt;br&gt;Percentage identity: 56&lt;br&gt;Percentage coverage: 91&lt;br&gt;BLAST bit score: 94&lt;br&gt;E-value: 1.06e-28&lt;br&gt;&lt;br&gt;&lt;b&gt;BlastP hit with ctg1_1881&lt;/b&gt;&lt;br&gt;Percentage identity: 61&lt;br&gt;Percentage coverage: 89&lt;br&gt;BLAST bit score: 99&lt;br&gt;E-value: 1.2e-30&lt;br&gt;&lt;br&gt;&lt;b&gt;BlastP hit with ctg1_1882&lt;/b&gt;&lt;br&gt;Percentage identity: 62&lt;br&gt;Percentage coverage: 91&lt;br&gt;BLAST bit score: 100&lt;br&gt;E-value: 2.74e-31&lt;br&gt;&lt;br&gt;&lt;b&gt;BlastP hit with ctg1_1888&lt;/b&gt;&lt;br&gt;Percentage identity: 42&lt;br&gt;Percentage coverage: 49&lt;br&gt;BLAST bit score: 57&lt;br&gt;E-value: 2.62e-13&lt;br&gt;&lt;br&gt;&lt;b&gt;BlastP hit with ctg1_1898&lt;/b&gt;&lt;br&gt;Percentage identity: 66&lt;br&gt;Percentage coverage: 91&lt;br&gt;BLAST bit score: 110&lt;br&gt;E-value: 4.64e-35&lt;br&gt;&lt;br&gt;&lt;b&gt;BlastP hit with ctg1_1905&lt;/b&gt;&lt;br&gt;Percentage identity: 64&lt;br&gt;Percentage coverage: 96&lt;br&gt;BLAST bit score: 107&lt;br&gt;E-value: 6.81e-34" locus_tag="STM2465" class="clusterblast-orf" id="knownclusterblast-13_all_13_3_7"  />
</g>
<g id="a13_008"  >
<polygon points="358,190 358,190 363,185 358,180 358,180 358,190 " style="fill:#15d8d8; stroke-width:1; stroke:black; " description="&lt;b&gt;STM2464&lt;/b&gt;&lt;br&gt;microcompartment shell protein EutN&lt;br&gt;Location: 11142 - 10854&lt;br&gt;&lt;br&gt;&lt;b&gt;BlastP hit with ctg1_1909&lt;/b&gt;&lt;br&gt;Percentage identity: 48&lt;br&gt;Percentage coverage: 98&lt;br&gt;BLAST bit score: 71&lt;br&gt;E-value: 9e-20" locus_tag="STM2464" class="clusterblast-orf" id="knownclusterblast-13_all_13_3_8"  />
</g>
<g id="a13_009"  >
<polygon points="363,190 381,190 386,185 381,180 363,180 363,190 " style="fill:#1515d8; stroke-width:1; stroke:black; " description="&lt;b&gt;STM2463&lt;/b&gt;&lt;br&gt;aldehyde oxidoreductase EutE&lt;br&gt;Location: 10843 - 9439&lt;br&gt;&lt;br&gt;&lt;b&gt;BlastP hit with ctg1_1911&lt;/b&gt;&lt;br&gt;Percentage identity: 44&lt;br&gt;Percentage coverage: 102&lt;br&gt;BLAST bit score: 375&lt;br&gt;E-value: 2.2e-128" locus_tag="STM2463" class="clusterblast-orf" id="knownclusterblast-13_all_13_3_9"  />
</g>
<g id="a13_0010"  >
<polygon points="386,190 394,190 399,185 394,180 386,180 386,190 " style="fill:white; stroke-width:1; stroke:black; " description="&lt;b&gt;STM2462&lt;/b&gt;&lt;br&gt;ethanolamine utilization protein EutJ&lt;br&gt;Location: 9429 - 8589" locus_tag="STM2462" class="clusterblast-orf" id="knownclusterblast-13_all_13_3_10"  />
</g>
<g id="a13_0011"  >
<polygon points="399,190 413,190 418,185 413,180 399,180 399,190 " style="fill:#7715d8; stroke-width:1; stroke:black; " description="&lt;b&gt;STM2461&lt;/b&gt;&lt;br&gt;ethanol dehydrogenase EutG&lt;br&gt;Location: 8600 - 7412&lt;br&gt;&lt;br&gt;&lt;b&gt;BlastP hit with ctg1_1885&lt;/b&gt;&lt;br&gt;Percentage identity: 34&lt;br&gt;Percentage coverage: 93&lt;br&gt;BLAST bit score: 196&lt;br&gt;E-value: 4.41e-61&lt;br&gt;&lt;br&gt;&lt;b&gt;BlastP hit with ctg1_1912&lt;/b&gt;&lt;br&gt;Percentage identity: 36&lt;br&gt;Percentage coverage: 103&lt;br&gt;BLAST bit score: 194&lt;br&gt;E-value: 3.2e-60" locus_tag="STM2461" class="clusterblast-orf" id="knownclusterblast-13_all_13_3_11"  />
</g>
<g id="a13_0012"  >
<polygon points="420,190 435,190 440,185 435,180 420,180 420,190 " style="fill:white; stroke-width:1; stroke:black; " description="&lt;b&gt;STM2460&lt;/b&gt;&lt;br&gt;ethanolamine transporter EutH&lt;br&gt;Location: 7293 - 6066" locus_tag="STM2460" class="clusterblast-orf" id="knownclusterblast-13_all_13_3_12"  />
</g>
<g id="a13_0013"  >
<polygon points="440,190 458,190 463,185 458,180 440,180 440,190 " style="fill:white; stroke-width:1; stroke:black; " description="&lt;b&gt;STM2459&lt;/b&gt;&lt;br&gt;ethanolamine utilization protein EutA&lt;br&gt;Location: 6070 - 4666" locus_tag="STM2459" class="clusterblast-orf" id="knownclusterblast-13_all_13_3_13"  />
</g>
<g id="a13_0014"  >
<polygon points="463,190 480,190 485,185 480,180 463,180 463,190 " style="fill:white; stroke-width:1; stroke:black; " description="&lt;b&gt;STM2458&lt;/b&gt;&lt;br&gt;ethanolamine ammonia-lyase large subunit EutB&lt;br&gt;Location: 4655 - 3293" locus_tag="STM2458" class="clusterblast-orf" id="knownclusterblast-13_all_13_3_14"  />
</g>
<g id="a13_0015"  >
<polygon points="485,190 495,190 500,185 495,180 485,180 485,190 " style="fill:white; stroke-width:1; stroke:black; " description="&lt;b&gt;STM2457&lt;/b&gt;&lt;br&gt;ethanolamine ammonia-lyase small subunit EutC&lt;br&gt;Location: 3275 - 2378" locus_tag="STM2457" class="clusterblast-orf" id="knownclusterblast-13_all_13_3_15"  />
</g>
<g id="a13_0016"  >
<polygon points="500,190 506,190 511,185 506,180 500,180 500,190 " style="fill:white; stroke-width:1; stroke:black; " description="&lt;b&gt;STM2456&lt;/b&gt;&lt;br&gt;carboxysome structural protein EutL&lt;br&gt;Location: 2369 - 1709" locus_tag="STM2456" class="clusterblast-orf" id="knownclusterblast-13_all_13_3_16"  />
</g>
<g id="a13_0017"  >
<polygon points="511,190 514,190 519,185 514,180 511,180 511,190 " style="fill:#d81515; stroke-width:1; stroke:black; " description="&lt;b&gt;STM2455&lt;/b&gt;&lt;br&gt;carboxysome structural protein EutK&lt;br&gt;Location: 1697 - 1202&lt;br&gt;&lt;br&gt;&lt;b&gt;BlastP hit with ctg1_1881&lt;/b&gt;&lt;br&gt;Percentage identity: 43&lt;br&gt;Percentage coverage: 96&lt;br&gt;BLAST bit score: 74&lt;br&gt;E-value: 4.61e-20&lt;br&gt;&lt;br&gt;&lt;b&gt;BlastP hit with ctg1_1882&lt;/b&gt;&lt;br&gt;Percentage identity: 46&lt;br&gt;Percentage coverage: 91&lt;br&gt;BLAST bit score: 74&lt;br&gt;E-value: 6.04e-20&lt;br&gt;&lt;br&gt;&lt;b&gt;BlastP hit with ctg1_1898&lt;/b&gt;&lt;br&gt;Percentage identity: 45&lt;br&gt;Percentage coverage: 89&lt;br&gt;BLAST bit score: 71&lt;br&gt;E-value: 7.22e-19&lt;br&gt;&lt;br&gt;&lt;b&gt;BlastP hit with ctg1_1905&lt;/b&gt;&lt;br&gt;Percentage identity: 48&lt;br&gt;Percentage coverage: 96&lt;br&gt;BLAST bit score: 77&lt;br&gt;E-value: 2.62e-21" locus_tag="STM2455" class="clusterblast-orf" id="knownclusterblast-13_all_13_3_17"  />
</g>
<g id="a13_0018"  >
<polygon points="520,190 532,190 537,185 532,180 520,180 520,190 " style="fill:white; stroke-width:1; stroke:black; " description="&lt;b&gt;STM2454&lt;/b&gt;&lt;br&gt;HTH-type transcriptional regulator EutR&lt;br&gt;Location: 1155 - 102" locus_tag="STM2454" class="clusterblast-orf" id="knownclusterblast-13_all_13_3_18"  />
</g>
<g label="MGC00000039" description="MGC00000039_c1: Hydroxy-L-proline2proline C. difficile (66% of genes show similarity), PRO" class="clusterblast-cluster"  >
<text x="5" y="220" class="clusterblast-acc"  >
MGC00000039_c1: Hydroxy-L-proline2proline C. difficile (66% of genes show similarity), PRO</text>
<line x1="10" y1="235" x2="778.0" y2="235" style="stroke-width:1; stroke:grey; "  />
</g>
<g id="a13_000"  >
<polygon points="354,240 364,240 369,235 364,230 354,230 354,240 " style="fill:#46d815; stroke-width:1; stroke:black; " description="&lt;b&gt;ctg22_31&lt;/b&gt;&lt;br&gt;NA&lt;br&gt;Location: 10000 - 10909&lt;br&gt;&lt;br&gt;&lt;b&gt;BlastP hit with ctg1_1887&lt;/b&gt;&lt;br&gt;Percentage identity: 35&lt;br&gt;Percentage coverage: 97&lt;br&gt;BLAST bit score: 195&lt;br&gt;E-value: 1.3e-62" locus_tag="ctg22_31" class="clusterblast-orf" id="knownclusterblast-13_all_13_4_0"  />
</g>
<g id="a13_001"  >
<polygon points="369,240 402,240 407,235 402,230 369,230 369,240 " style="fill:#d84615; stroke-width:1; stroke:black; " description="&lt;b&gt;ctg22_32&lt;/b&gt;&lt;br&gt;NA&lt;br&gt;Location: 10913 - 13283&lt;br&gt;&lt;br&gt;&lt;b&gt;BlastP hit with ctg1_1886&lt;/b&gt;&lt;br&gt;Percentage identity: 34&lt;br&gt;Percentage coverage: 71&lt;br&gt;BLAST bit score: 388&lt;br&gt;E-value: 1.05e-121" locus_tag="ctg22_32" class="clusterblast-orf" id="knownclusterblast-13_all_13_4_1"  />
</g>
<g id="a13_002"  >
<polygon points="412,240 420,240 425,235 420,230 412,230 412,240 " style="fill:white; stroke-width:1; stroke:black; " description="&lt;b&gt;ctg22_33&lt;/b&gt;&lt;br&gt;NA&lt;br&gt;Location: 13607 - 14411" locus_tag="ctg22_33" class="clusterblast-orf" id="knownclusterblast-13_all_13_4_2"  />
</g>
<g label="MGC00000043" description="MGC00000043_c1: Phenylacetate to toluene Acidobacteria bacterium (100% of genes show similarity), TOL" class="clusterblast-cluster"  >
<text x="5" y="270" class="clusterblast-acc"  >
MGC00000043_c1: Phenylacetate to toluene Acidobacteria bacterium (100% of genes show similarity), TOL</text>
<line x1="10" y1="285" x2="778.0" y2="285" style="stroke-width:1; stroke:grey; "  />
</g>
<g id="a13_000"  >
<polygon points="360,290 396,290 401,285 396,280 360,280 360,290 " style="fill:#d84615; stroke-width:1; stroke:black; " description="&lt;b&gt;CXZ00_12390&lt;/b&gt;&lt;br&gt;Phenylacetate decarboxylase&lt;br&gt;Location: 13611 - 11091&lt;br&gt;&lt;br&gt;&lt;b&gt;BlastP hit with ctg1_1886&lt;/b&gt;&lt;br&gt;Percentage identity: 32&lt;br&gt;Percentage coverage: 54&lt;br&gt;BLAST bit score: 281&lt;br&gt;E-value: 3.03e-82" locus_tag="CXZ00_12390" class="clusterblast-orf" id="knownclusterblast-13_all_13_5_0"  />
</g>
<g id="a13_001"  >
<polygon points="403,290 414,290 419,285 414,280 403,280 403,290 " style="fill:#46d815; stroke-width:1; stroke:black; " description="&lt;b&gt;CXZ00_12385&lt;/b&gt;&lt;br&gt;Phenylacetate decarboxylase activating enzyme&lt;br&gt;Location: 10948 - 10000&lt;br&gt;&lt;br&gt;&lt;b&gt;BlastP hit with ctg1_1887&lt;/b&gt;&lt;br&gt;Percentage identity: 40&lt;br&gt;Percentage coverage: 97&lt;br&gt;BLAST bit score: 227&lt;br&gt;E-value: 9.56e-75" locus_tag="CXZ00_12385" class="clusterblast-orf" id="knownclusterblast-13_all_13_5_1"  />
</g>
</svg>
