<svg xmlns="http://www.w3.org/2000/svg" xmlns:xlink="http://www.w3.org/1999/xlink" version="1.1" x="0" y="0" height="50" width="800" viewBox="0 0 800 50" preserveAspectRatio="none"  >
<g label="Query sequence" class="clusterblast-cluster"  >
<text x="5" y="20" class="clusterblast-acc"  >
Query sequence</text>
<line x1="10" y1="35" x2="778.0" y2="35" style="stroke-width:1; stroke:grey; "  />
<polygon points="0,35 5,30 31,30 31,40 5,40 0,35 " style="fill:white; stroke-width:1; stroke:black; " description="&lt;b&gt;ctg1_3529&lt;/b&gt;&lt;br&gt;ctg1 3529&lt;br&gt;Location: 3813677 - 3814724" locus_tag="ctg1_3529" class="clusterblast-orf" id="knownclusterblast-18_q0_0_all"  />
<polygon points="31,35 36,30 64,30 64,40 36,40 31,35 " style="fill:white; stroke-width:1; stroke:black; " description="&lt;b&gt;ctg1_3530&lt;/b&gt;&lt;br&gt;ctg1 3530&lt;br&gt;Location: 3814735 - 3815839" locus_tag="ctg1_3530" class="clusterblast-orf" id="knownclusterblast-18_q1_0_all"  />
<polygon points="71,35 76,30 108,30 108,40 76,40 71,35 " style="fill:white; stroke-width:1; stroke:black; " description="&lt;b&gt;ctg1_3531&lt;/b&gt;&lt;br&gt;ctg1 3531&lt;br&gt;Location: 3816066 - 3817326" locus_tag="ctg1_3531" class="clusterblast-orf" id="knownclusterblast-18_q2_0_all"  />
<polygon points="110,40 114,35 110,30 110,40 " style="fill:white; stroke-width:1; stroke:black; " description="&lt;b&gt;ctg1_3532&lt;/b&gt;&lt;br&gt;ctg1 3532&lt;br&gt;Location: 3817396 - 3817519" locus_tag="ctg1_3532" class="clusterblast-orf" id="knownclusterblast-18_q3_0_all"  />
<polygon points="118,35 123,30 128,30 128,40 123,40 118,35 " style="fill:white; stroke-width:1; stroke:black; " description="&lt;b&gt;ctg1_3533&lt;/b&gt;&lt;br&gt;ctg1 3533&lt;br&gt;Location: 3817650 - 3817980" locus_tag="ctg1_3533" class="clusterblast-orf" id="knownclusterblast-18_q4_0_all"  />
<polygon points="132,40 164,40 169,35 164,30 132,30 132,40 " style="fill:white; stroke-width:1; stroke:black; " description="&lt;b&gt;ctg1_3534&lt;/b&gt;&lt;br&gt;ctg1 3534&lt;br&gt;Location: 3818110 - 3819376" locus_tag="ctg1_3534" class="clusterblast-orf" id="knownclusterblast-18_q5_0_all"  />
<polygon points="173,40 213,40 218,35 213,30 173,30 173,40 " style="fill:white; stroke-width:1; stroke:black; " description="&lt;b&gt;ctg1_3535&lt;/b&gt;&lt;br&gt;ctg1 3535&lt;br&gt;Location: 3819511 - 3820996" locus_tag="ctg1_3535" class="clusterblast-orf" id="knownclusterblast-18_q6_0_all"  />
<polygon points="219,35 224,30 279,30 279,40 224,40 219,35 " style="fill:white; stroke-width:1; stroke:black; " description="&lt;b&gt;ctg1_3536&lt;/b&gt;&lt;br&gt;ctg1 3536&lt;br&gt;Location: 3821043 - 3823065" locus_tag="ctg1_3536" class="clusterblast-orf" id="knownclusterblast-18_q7_0_all"  />
<polygon points="282,40 285,40 290,35 285,30 282,30 282,40 " style="fill:white; stroke-width:1; stroke:black; " description="&lt;b&gt;ctg1_3537&lt;/b&gt;&lt;br&gt;ctg1 3537&lt;br&gt;Location: 3823151 - 3823433" locus_tag="ctg1_3537" class="clusterblast-orf" id="knownclusterblast-18_q8_0_all"  />
<polygon points="292,35 297,30 335,30 335,40 297,40 292,35 " style="fill:white; stroke-width:1; stroke:black; " description="&lt;b&gt;ctg1_3538&lt;/b&gt;&lt;br&gt;ctg1 3538&lt;br&gt;Location: 3823478 - 3824954" locus_tag="ctg1_3538" class="clusterblast-orf" id="knownclusterblast-18_q9_0_all"  />
<polygon points="340,40 361,40 366,35 361,30 340,30 340,40 " style="fill:white; stroke-width:1; stroke:black; " description="&lt;b&gt;ctg1_3539&lt;/b&gt;&lt;br&gt;ctg1 3539&lt;br&gt;Location: 3825103 - 3825994" locus_tag="ctg1_3539" class="clusterblast-orf" id="knownclusterblast-18_q10_0_all"  />
<polygon points="366,35 371,30 412,30 412,40 371,40 366,35 " style="fill:white; stroke-width:1; stroke:black; " description="&lt;b&gt;ctg1_3540&lt;/b&gt;&lt;br&gt;ctg1 3540&lt;br&gt;Location: 3825990 - 3827538" locus_tag="ctg1_3540" class="clusterblast-orf" id="knownclusterblast-18_q11_0_all"  />
<polygon points="412,35 417,30 467,30 467,40 417,40 412,35 " style="fill:white; stroke-width:1; stroke:black; " description="&lt;b&gt;ctg1_3541&lt;/b&gt;&lt;br&gt;ctg1 3541&lt;br&gt;Location: 3827537 - 3829388" locus_tag="ctg1_3541" class="clusterblast-orf" id="knownclusterblast-18_q12_0_all"  />
<polygon points="469,35 474,30 497,30 497,40 474,40 469,35 " style="fill:white; stroke-width:1; stroke:black; " description="&lt;b&gt;ctg1_3542&lt;/b&gt;&lt;br&gt;ctg1 3542&lt;br&gt;Location: 3829452 - 3830382" locus_tag="ctg1_3542" class="clusterblast-orf" id="knownclusterblast-18_q13_0_all"  />
<polygon points="498,35 503,30 505,30 505,40 503,40 498,35 " style="fill:white; stroke-width:1; stroke:black; " description="&lt;b&gt;ctg1_3543&lt;/b&gt;&lt;br&gt;ctg1 3543&lt;br&gt;Location: 3830401 - 3830665" locus_tag="ctg1_3543" class="clusterblast-orf" id="knownclusterblast-18_q14_0_all"  />
<polygon points="505,35 510,30 554,30 554,40 510,40 505,35 " style="fill:white; stroke-width:1; stroke:black; " description="&lt;b&gt;ctg1_3544&lt;/b&gt;&lt;br&gt;ctg1 3544&lt;br&gt;Location: 3830661 - 3832308" locus_tag="ctg1_3544" class="clusterblast-orf" id="knownclusterblast-18_q15_0_all"  />
<polygon points="572,40 612,40 617,35 612,30 572,30 572,40 " style="fill:white; stroke-width:1; stroke:black; " description="&lt;b&gt;ctg1_3545&lt;/b&gt;&lt;br&gt;ctg1 3545&lt;br&gt;Location: 3832899 - 3834420" locus_tag="ctg1_3545" class="clusterblast-orf" id="knownclusterblast-18_q16_0_all"  />
<polygon points="618,35 623,30 628,30 628,40 623,40 618,35 " style="fill:white; stroke-width:1; stroke:black; " description="&lt;b&gt;ctg1_3546&lt;/b&gt;&lt;br&gt;ctg1 3546&lt;br&gt;Location: 3834444 - 3834783" locus_tag="ctg1_3546" class="clusterblast-orf" id="knownclusterblast-18_q17_0_all"  />
<polygon points="632,40 652,40 657,35 652,30 632,30 632,40 " style="fill:white; stroke-width:1; stroke:black; " description="&lt;b&gt;ctg1_3547&lt;/b&gt;&lt;br&gt;ctg1 3547&lt;br&gt;Location: 3834901 - 3835741" locus_tag="ctg1_3547" class="clusterblast-orf" id="knownclusterblast-18_q18_0_all"  />
<polygon points="772,35 777,30 780,30 780,40 777,40 772,35 " style="fill:white; stroke-width:1; stroke:black; " description="&lt;b&gt;ctg1_3548&lt;/b&gt;&lt;br&gt;ctg1 3548&lt;br&gt;Location: 3839626 - 3839881" locus_tag="ctg1_3548" class="clusterblast-orf" id="knownclusterblast-18_q19_0_all"  />
</g>
</svg>
