<svg xmlns="http://www.w3.org/2000/svg" xmlns:xlink="http://www.w3.org/1999/xlink" version="1.1" x="0" y="0" height="50" width="800" viewBox="0 0 800 50" preserveAspectRatio="none"  >
<g label="Query sequence" class="clusterblast-cluster"  >
<text x="5" y="20" class="clusterblast-acc"  >
Query sequence</text>
<line x1="10" y1="35" x2="778.0" y2="35" style="stroke-width:1; stroke:grey; "  />
<polygon points="0,35 5,30 14,30 14,40 5,40 0,35 " style="fill:white; stroke-width:1; stroke:black; " description="&lt;b&gt;ctg1_747&lt;/b&gt;&lt;br&gt;ctg1 747&lt;br&gt;Location: 828908 - 829292" locus_tag="ctg1_747" class="clusterblast-orf" id="knownclusterblast-5_q0_0_all"  />
<polygon points="14,35 19,30 24,30 24,40 19,40 14,35 " style="fill:white; stroke-width:1; stroke:black; " description="&lt;b&gt;ctg1_748&lt;/b&gt;&lt;br&gt;ctg1 748&lt;br&gt;Location: 829288 - 829573" locus_tag="ctg1_748" class="clusterblast-orf" id="knownclusterblast-5_q1_0_all"  />
<polygon points="25,35 30,30 38,30 38,40 30,40 25,35 " style="fill:white; stroke-width:1; stroke:black; " description="&lt;b&gt;ctg1_749&lt;/b&gt;&lt;br&gt;ctg1 749&lt;br&gt;Location: 829604 - 829964" locus_tag="ctg1_749" class="clusterblast-orf" id="knownclusterblast-5_q2_0_all"  />
<polygon points="38,35 43,30 44,30 44,40 43,40 38,35 " style="fill:white; stroke-width:1; stroke:black; " description="&lt;b&gt;ctg1_750&lt;/b&gt;&lt;br&gt;ctg1 750&lt;br&gt;Location: 829956 - 830133" locus_tag="ctg1_750" class="clusterblast-orf" id="knownclusterblast-5_q3_0_all"  />
<polygon points="57,35 62,30 65,30 65,40 62,40 57,35 " style="fill:white; stroke-width:1; stroke:black; " description="&lt;b&gt;ctg1_751&lt;/b&gt;&lt;br&gt;ctg1 751&lt;br&gt;Location: 830493 - 830709" locus_tag="ctg1_751" class="clusterblast-orf" id="knownclusterblast-5_q4_0_all"  />
<polygon points="68,35 73,30 100,30 100,40 73,40 68,35 " style="fill:white; stroke-width:1; stroke:black; " description="&lt;b&gt;ctg1_752&lt;/b&gt;&lt;br&gt;ctg1 752&lt;br&gt;Location: 830811 - 831693" locus_tag="ctg1_752" class="clusterblast-orf" id="knownclusterblast-5_q5_0_all"  />
<polygon points="101,35 106,30 147,30 147,40 106,40 101,35 " style="fill:white; stroke-width:1; stroke:black; " description="&lt;b&gt;ctg1_753&lt;/b&gt;&lt;br&gt;ctg1 753&lt;br&gt;Location: 831723 - 832998" locus_tag="ctg1_753" class="clusterblast-orf" id="knownclusterblast-5_q6_0_all"  />
<polygon points="159,35 164,30 193,30 193,40 164,40 159,35 " style="fill:white; stroke-width:1; stroke:black; " description="&lt;b&gt;ctg1_754&lt;/b&gt;&lt;br&gt;ctg1 754&lt;br&gt;Location: 833332 - 834274" locus_tag="ctg1_754" class="clusterblast-orf" id="knownclusterblast-5_q7_0_all"  />
<polygon points="203,40 226,40 231,35 226,30 203,30 203,40 " style="fill:white; stroke-width:1; stroke:black; " description="&lt;b&gt;ctg1_755&lt;/b&gt;&lt;br&gt;ctg1 755&lt;br&gt;Location: 834562 - 835318" locus_tag="ctg1_755" class="clusterblast-orf" id="knownclusterblast-5_q8_0_all"  />
<polygon points="233,35 238,30 282,30 282,40 238,40 233,35 " style="fill:white; stroke-width:1; stroke:black; " description="&lt;b&gt;ctg1_756&lt;/b&gt;&lt;br&gt;ctg1 756&lt;br&gt;Location: 835397 - 836738" locus_tag="ctg1_756" class="clusterblast-orf" id="knownclusterblast-5_q9_0_all"  />
<polygon points="295,40 300,40 305,35 300,30 295,30 295,40 " style="fill:white; stroke-width:1; stroke:black; " description="&lt;b&gt;ctg1_757&lt;/b&gt;&lt;br&gt;ctg1 757&lt;br&gt;Location: 837110 - 837395" locus_tag="ctg1_757" class="clusterblast-orf" id="knownclusterblast-5_q10_0_all"  />
<polygon points="317,40 360,40 365,35 360,30 317,30 317,40 " style="fill:white; stroke-width:1; stroke:black; " description="&lt;b&gt;ctg1_758&lt;/b&gt;&lt;br&gt;ctg1 758&lt;br&gt;Location: 837733 - 839044" locus_tag="ctg1_758" class="clusterblast-orf" id="knownclusterblast-5_q11_0_all"  />
<polygon points="365,40 437,40 442,35 437,30 365,30 365,40 " style="fill:white; stroke-width:1; stroke:black; " description="&lt;b&gt;ctg1_759&lt;/b&gt;&lt;br&gt;ctg1 759&lt;br&gt;Location: 839043 - 841188" locus_tag="ctg1_759" class="clusterblast-orf" id="knownclusterblast-5_q12_0_all"  />
<polygon points="449,40 462,40 467,35 462,30 449,30 449,40 " style="fill:white; stroke-width:1; stroke:black; " description="&lt;b&gt;ctg1_760&lt;/b&gt;&lt;br&gt;ctg1 760&lt;br&gt;Location: 841393 - 841879" locus_tag="ctg1_760" class="clusterblast-orf" id="knownclusterblast-5_q13_0_all"  />
<polygon points="487,40 502,40 507,35 502,30 487,30 487,40 " style="fill:white; stroke-width:1; stroke:black; " description="&lt;b&gt;ctg1_761&lt;/b&gt;&lt;br&gt;ctg1 761&lt;br&gt;Location: 842447 - 843008" locus_tag="ctg1_761" class="clusterblast-orf" id="knownclusterblast-5_q14_0_all"  />
<polygon points="510,40 600,40 605,35 600,30 510,30 510,40 " style="fill:white; stroke-width:1; stroke:black; " description="&lt;b&gt;ctg1_762&lt;/b&gt;&lt;br&gt;ctg1 762&lt;br&gt;Location: 843094 - 845731" locus_tag="ctg1_762" class="clusterblast-orf" id="knownclusterblast-5_q15_0_all"  />
<polygon points="606,40 628,40 633,35 628,30 606,30 606,40 " style="fill:white; stroke-width:1; stroke:black; " description="&lt;b&gt;ctg1_763&lt;/b&gt;&lt;br&gt;ctg1 763&lt;br&gt;Location: 845750 - 846503" locus_tag="ctg1_763" class="clusterblast-orf" id="knownclusterblast-5_q16_0_all"  />
<polygon points="634,40 647,40 652,35 647,30 634,30 634,40 " style="fill:white; stroke-width:1; stroke:black; " description="&lt;b&gt;ctg1_764&lt;/b&gt;&lt;br&gt;ctg1 764&lt;br&gt;Location: 846518 - 847034" locus_tag="ctg1_764" class="clusterblast-orf" id="knownclusterblast-5_q17_0_all"  />
<polygon points="652,40 665,40 670,35 665,30 652,30 652,40 " style="fill:white; stroke-width:1; stroke:black; " description="&lt;b&gt;ctg1_765&lt;/b&gt;&lt;br&gt;ctg1 765&lt;br&gt;Location: 847030 - 847519" locus_tag="ctg1_765" class="clusterblast-orf" id="knownclusterblast-5_q18_0_all"  />
<polygon points="669,40 684,40 689,35 684,30 669,30 669,40 " style="fill:white; stroke-width:1; stroke:black; " description="&lt;b&gt;ctg1_766&lt;/b&gt;&lt;br&gt;ctg1 766&lt;br&gt;Location: 847515 - 848055" locus_tag="ctg1_766" class="clusterblast-orf" id="knownclusterblast-5_q19_0_all"  />
<polygon points="689,40 714,40 719,35 714,30 689,30 689,40 " style="fill:white; stroke-width:1; stroke:black; " description="&lt;b&gt;ctg1_767&lt;/b&gt;&lt;br&gt;ctg1 767&lt;br&gt;Location: 848056 - 848881" locus_tag="ctg1_767" class="clusterblast-orf" id="knownclusterblast-5_q20_0_all"  />
<polygon points="721,35 726,30 740,30 740,40 726,40 721,35 " style="fill:white; stroke-width:1; stroke:black; " description="&lt;b&gt;ctg1_768&lt;/b&gt;&lt;br&gt;ctg1 768&lt;br&gt;Location: 848935 - 849487" locus_tag="ctg1_768" class="clusterblast-orf" id="knownclusterblast-5_q21_0_all"  />
<polygon points="746,40 775,40 780,35 775,30 746,30 746,40 " style="fill:white; stroke-width:1; stroke:black; " description="&lt;b&gt;ctg1_769&lt;/b&gt;&lt;br&gt;ctg1 769&lt;br&gt;Location: 849651 - 850584" locus_tag="ctg1_769" class="clusterblast-orf" id="knownclusterblast-5_q22_0_all"  />
</g>
</svg>
