<svg xmlns="http://www.w3.org/2000/svg" xmlns:xlink="http://www.w3.org/1999/xlink" version="1.1" x="0" y="0" height="50" width="800" viewBox="0 0 800 50" preserveAspectRatio="none"  >
<g label="Query sequence" class="clusterblast-cluster"  >
<text x="5" y="20" class="clusterblast-acc"  >
Query sequence</text>
<line x1="10" y1="35" x2="778.0" y2="35" style="stroke-width:1; stroke:grey; "  />
<polygon points="0,40 67,40 72,35 67,30 0,30 0,40 " style="fill:white; stroke-width:1; stroke:black; " description="&lt;b&gt;ctg1_130&lt;/b&gt;&lt;br&gt;ctg1 130&lt;br&gt;Location: 147603 - 149496" locus_tag="ctg1_130" class="clusterblast-orf" id="knownclusterblast-2_q0_0_all"  />
<polygon points="80,40 130,40 135,35 130,30 80,30 80,40 " style="fill:white; stroke-width:1; stroke:black; " description="&lt;b&gt;ctg1_131&lt;/b&gt;&lt;br&gt;ctg1 131&lt;br&gt;Location: 149703 - 151128" locus_tag="ctg1_131" class="clusterblast-orf" id="knownclusterblast-2_q1_0_all"  />
<polygon points="138,35 143,30 209,30 209,40 143,40 138,35 " style="fill:white; stroke-width:1; stroke:black; " description="&lt;b&gt;ctg1_132&lt;/b&gt;&lt;br&gt;ctg1 132&lt;br&gt;Location: 151198 - 153055" locus_tag="ctg1_132" class="clusterblast-orf" id="knownclusterblast-2_q2_0_all"  />
<polygon points="222,40 317,40 322,35 317,30 222,30 222,40 " style="fill:white; stroke-width:1; stroke:black; " description="&lt;b&gt;ctg1_133&lt;/b&gt;&lt;br&gt;ctg1 133&lt;br&gt;Location: 153409 - 156007" locus_tag="ctg1_133" class="clusterblast-orf" id="knownclusterblast-2_q3_0_all"  />
<polygon points="329,40 338,40 343,35 338,30 329,30 329,40 " style="fill:white; stroke-width:1; stroke:black; " description="&lt;b&gt;ctg1_134&lt;/b&gt;&lt;br&gt;ctg1 134&lt;br&gt;Location: 156203 - 156566" locus_tag="ctg1_134" class="clusterblast-orf" id="knownclusterblast-2_q4_0_all"  />
<polygon points="345,35 350,30 375,30 375,40 350,40 345,35 " style="fill:white; stroke-width:1; stroke:black; " description="&lt;b&gt;ctg1_135&lt;/b&gt;&lt;br&gt;ctg1 135&lt;br&gt;Location: 156603 - 157398" locus_tag="ctg1_135" class="clusterblast-orf" id="knownclusterblast-2_q5_0_all"  />
<polygon points="376,35 381,30 409,30 409,40 381,40 376,35 " style="fill:white; stroke-width:1; stroke:black; " description="&lt;b&gt;ctg1_136&lt;/b&gt;&lt;br&gt;ctg1 136&lt;br&gt;Location: 157413 - 158280" locus_tag="ctg1_136" class="clusterblast-orf" id="knownclusterblast-2_q6_0_all"  />
<polygon points="413,35 418,30 425,30 425,40 418,40 413,35 " style="fill:white; stroke-width:1; stroke:black; " description="&lt;b&gt;ctg1_137&lt;/b&gt;&lt;br&gt;ctg1 137&lt;br&gt;Location: 158385 - 158694" locus_tag="ctg1_137" class="clusterblast-orf" id="knownclusterblast-2_q7_0_all"  />
<polygon points="433,40 487,40 492,35 487,30 433,30 433,40 " style="fill:white; stroke-width:1; stroke:black; " description="&lt;b&gt;ctg1_138&lt;/b&gt;&lt;br&gt;ctg1 138&lt;br&gt;Location: 158898 - 160449" locus_tag="ctg1_138" class="clusterblast-orf" id="knownclusterblast-2_q8_0_all"  />
<polygon points="494,35 499,30 585,30 585,40 499,40 494,35 " style="fill:white; stroke-width:1; stroke:black; " description="&lt;b&gt;ctg1_139&lt;/b&gt;&lt;br&gt;ctg1 139&lt;br&gt;Location: 160495 - 162886" locus_tag="ctg1_139" class="clusterblast-orf" id="knownclusterblast-2_q9_0_all"  />
<polygon points="593,40 609,40 614,35 609,30 593,30 593,40 " style="fill:white; stroke-width:1; stroke:black; " description="&lt;b&gt;ctg1_140&lt;/b&gt;&lt;br&gt;ctg1 140&lt;br&gt;Location: 163091 - 163628" locus_tag="ctg1_140" class="clusterblast-orf" id="knownclusterblast-2_q10_0_all"  />
<polygon points="615,35 620,30 641,30 641,40 620,40 615,35 " style="fill:white; stroke-width:1; stroke:black; " description="&lt;b&gt;ctg1_141&lt;/b&gt;&lt;br&gt;ctg1 141&lt;br&gt;Location: 163668 - 164331" locus_tag="ctg1_141" class="clusterblast-orf" id="knownclusterblast-2_q11_0_all"  />
<polygon points="645,40 675,40 680,35 675,30 645,30 645,40 " style="fill:white; stroke-width:1; stroke:black; " description="&lt;b&gt;ctg1_142&lt;/b&gt;&lt;br&gt;ctg1 142&lt;br&gt;Location: 164439 - 165366" locus_tag="ctg1_142" class="clusterblast-orf" id="knownclusterblast-2_q12_0_all"  />
<polygon points="680,40 705,40 710,35 705,30 680,30 680,40 " style="fill:white; stroke-width:1; stroke:black; " description="&lt;b&gt;ctg1_143&lt;/b&gt;&lt;br&gt;ctg1 143&lt;br&gt;Location: 165362 - 166133" locus_tag="ctg1_143" class="clusterblast-orf" id="knownclusterblast-2_q13_0_all"  />
<polygon points="714,40 726,40 731,35 726,30 714,30 714,40 " style="fill:white; stroke-width:1; stroke:black; " description="&lt;b&gt;ctg1_144&lt;/b&gt;&lt;br&gt;ctg1 144&lt;br&gt;Location: 166237 - 166678" locus_tag="ctg1_144" class="clusterblast-orf" id="knownclusterblast-2_q14_0_all"  />
<polygon points="733,40 775,40 780,35 775,30 733,30 733,40 " style="fill:white; stroke-width:1; stroke:black; " description="&lt;b&gt;ctg1_145&lt;/b&gt;&lt;br&gt;ctg1 145&lt;br&gt;Location: 166734 - 167961" locus_tag="ctg1_145" class="clusterblast-orf" id="knownclusterblast-2_q15_0_all"  />
</g>
</svg>
