<svg xmlns="http://www.w3.org/2000/svg" xmlns:xlink="http://www.w3.org/1999/xlink" version="1.1" x="0" y="0" height="100" width="800" viewBox="0 0 800 100" preserveAspectRatio="none"  >
<g label="Query sequence" class="clusterblast-cluster"  >
<text x="5" y="20" class="clusterblast-acc"  >
Query sequence</text>
<line x1="10" y1="35" x2="778.0" y2="35" style="stroke-width:1; stroke:grey; "  />
<polygon points="0,40 2,40 7,35 2,30 0,30 0,40 " style="fill:white; stroke-width:1; stroke:black; " description="&lt;b&gt;ctg1_4083&lt;/b&gt;&lt;br&gt;ctg1 4083&lt;br&gt;Location: 4427302 - 4427545" locus_tag="ctg1_4083" class="clusterblast-orf" id="knownclusterblast-21_q0_0_all"  />
<polygon points="6,40 10,40 15,35 10,30 6,30 6,40 " style="fill:white; stroke-width:1; stroke:black; " description="&lt;b&gt;ctg1_4084&lt;/b&gt;&lt;br&gt;ctg1 4084&lt;br&gt;Location: 4427534 - 4427831" locus_tag="ctg1_4084" class="clusterblast-orf" id="knownclusterblast-21_q1_0_all"  />
<polygon points="15,35 20,30 28,30 28,40 20,40 15,35 " style="fill:white; stroke-width:1; stroke:black; " description="&lt;b&gt;ctg1_4085&lt;/b&gt;&lt;br&gt;ctg1 4085&lt;br&gt;Location: 4427827 - 4428292" locus_tag="ctg1_4085" class="clusterblast-orf" id="knownclusterblast-21_q2_0_all"  />
<polygon points="33,35 38,30 94,30 94,40 38,40 33,35 " style="fill:white; stroke-width:1; stroke:black; " description="&lt;b&gt;ctg1_4086&lt;/b&gt;&lt;br&gt;ctg1 4086&lt;br&gt;Location: 4428449 - 4430588" locus_tag="ctg1_4086" class="clusterblast-orf" id="knownclusterblast-21_q3_0_all"  />
<polygon points="102,40 104,35 102,30 102,40 " style="fill:white; stroke-width:1; stroke:black; " description="&lt;b&gt;ctg1_4087&lt;/b&gt;&lt;br&gt;ctg1 4087&lt;br&gt;Location: 4430858 - 4430954" locus_tag="ctg1_4087" class="clusterblast-orf" id="knownclusterblast-21_q4_0_all"  />
<polygon points="105,35 110,30 152,30 152,40 110,40 105,35 " style="fill:white; stroke-width:1; stroke:black; " description="&lt;b&gt;ctg1_4088&lt;/b&gt;&lt;br&gt;ctg1 4088&lt;br&gt;Location: 4430981 - 4432637" locus_tag="ctg1_4088" class="clusterblast-orf" id="knownclusterblast-21_q5_0_all"  />
<polygon points="154,35 159,30 194,30 194,40 159,40 154,35 " style="fill:white; stroke-width:1; stroke:black; " description="&lt;b&gt;ctg1_4089&lt;/b&gt;&lt;br&gt;ctg1 4089&lt;br&gt;Location: 4432687 - 4434109" locus_tag="ctg1_4089" class="clusterblast-orf" id="knownclusterblast-21_q6_0_all"  />
<polygon points="198,35 203,30 225,30 225,40 203,40 198,35 " style="fill:white; stroke-width:1; stroke:black; " description="&lt;b&gt;ctg1_4090&lt;/b&gt;&lt;br&gt;ctg1 4090&lt;br&gt;Location: 4434227 - 4435175" locus_tag="ctg1_4090" class="clusterblast-orf" id="knownclusterblast-21_q7_0_all"  />
<polygon points="228,35 233,30 242,30 242,40 233,40 228,35 " style="fill:white; stroke-width:1; stroke:black; " description="&lt;b&gt;ctg1_4091&lt;/b&gt;&lt;br&gt;ctg1 4091&lt;br&gt;Location: 4435297 - 4435753" locus_tag="ctg1_4091" class="clusterblast-orf" id="knownclusterblast-21_q8_0_all"  />
<polygon points="243,35 248,30 254,30 254,40 248,40 243,35 " style="fill:white; stroke-width:1; stroke:black; " description="&lt;b&gt;ctg1_4092&lt;/b&gt;&lt;br&gt;ctg1 4092&lt;br&gt;Location: 4435818 - 4436205" locus_tag="ctg1_4092" class="clusterblast-orf" id="knownclusterblast-21_q9_0_all"  />
<polygon points="256,35 261,30 270,30 270,40 261,40 256,35 " style="fill:white; stroke-width:1; stroke:black; " description="&lt;b&gt;ctg1_4093&lt;/b&gt;&lt;br&gt;ctg1 4093&lt;br&gt;Location: 4436276 - 4436738" locus_tag="ctg1_4093" class="clusterblast-orf" id="knownclusterblast-21_q10_0_all"  />
<polygon points="270,35 275,30 297,30 297,40 275,40 270,35 " style="fill:white; stroke-width:1; stroke:black; " description="&lt;b&gt;ctg1_4094&lt;/b&gt;&lt;br&gt;ctg1 4094&lt;br&gt;Location: 4436750 - 4437686" locus_tag="ctg1_4094" class="clusterblast-orf" id="knownclusterblast-21_q11_0_all"  />
<polygon points="298,35 301,30 301,40 298,35 " style="fill:white; stroke-width:1; stroke:black; " description="&lt;b&gt;ctg1_4095&lt;/b&gt;&lt;br&gt;ctg1 4095&lt;br&gt;Location: 4437721 - 4437823" locus_tag="ctg1_4095" class="clusterblast-orf" id="knownclusterblast-21_q12_0_all"  />
<polygon points="303,35 308,30 317,30 317,40 308,40 303,35 " style="fill:white; stroke-width:1; stroke:black; " description="&lt;b&gt;ctg1_4096&lt;/b&gt;&lt;br&gt;ctg1 4096&lt;br&gt;Location: 4437912 - 4438401" locus_tag="ctg1_4096" class="clusterblast-orf" id="knownclusterblast-21_q13_0_all"  />
<polygon points="321,35 326,30 361,30 361,40 326,40 321,35 " style="fill:white; stroke-width:1; stroke:black; " description="&lt;b&gt;ctg1_4097&lt;/b&gt;&lt;br&gt;ctg1 4097&lt;br&gt;Location: 4438526 - 4439930" locus_tag="ctg1_4097" class="clusterblast-orf" id="knownclusterblast-21_q14_0_all"  />
<polygon points="363,35 368,30 391,30 391,40 368,40 363,35 " style="fill:#d81515; stroke-width:1; stroke:black; " description="&lt;b&gt;ctg1_4098&lt;/b&gt;&lt;br&gt;ctg1 4098&lt;br&gt;Location: 4439986 - 4440991" locus_tag="ctg1_4098" class="clusterblast-orf" id="knownclusterblast-21_q15_0_all"  />
<polygon points="392,35 397,30 419,30 419,40 397,40 392,35 " style="fill:#15d815; stroke-width:1; stroke:black; " description="&lt;b&gt;ctg1_4099&lt;/b&gt;&lt;br&gt;ctg1 4099&lt;br&gt;Location: 4441014 - 4441947" locus_tag="ctg1_4099" class="clusterblast-orf" id="knownclusterblast-21_q16_0_all"  />
<polygon points="419,35 424,30 454,30 454,40 424,40 419,35 " style="fill:#1515d8; stroke-width:1; stroke:black; " description="&lt;b&gt;ctg1_4100&lt;/b&gt;&lt;br&gt;ctg1 4100&lt;br&gt;Location: 4441957 - 4443178" locus_tag="ctg1_4100" class="clusterblast-orf" id="knownclusterblast-21_q17_0_all"  />
<polygon points="473,40 481,40 486,35 481,30 473,30 473,40 " style="fill:white; stroke-width:1; stroke:black; " description="&lt;b&gt;ctg1_4101&lt;/b&gt;&lt;br&gt;ctg1 4101&lt;br&gt;Location: 4443854 - 4444307" locus_tag="ctg1_4101" class="clusterblast-orf" id="knownclusterblast-21_q18_0_all"  />
<polygon points="487,35 492,30 516,30 516,40 492,40 487,35 " style="fill:#d81515; stroke-width:1; stroke:black; " description="&lt;b&gt;ctg1_4102&lt;/b&gt;&lt;br&gt;ctg1 4102&lt;br&gt;Location: 4444351 - 4445356" locus_tag="ctg1_4102" class="clusterblast-orf" id="knownclusterblast-21_q19_0_all"  />
<polygon points="521,40 528,40 533,35 528,30 521,30 521,40 " style="fill:white; stroke-width:1; stroke:black; " description="&lt;b&gt;ctg1_4103&lt;/b&gt;&lt;br&gt;ctg1 4103&lt;br&gt;Location: 4445518 - 4445935" locus_tag="ctg1_4103" class="clusterblast-orf" id="knownclusterblast-21_q20_0_all"  />
<polygon points="534,35 539,30 548,30 548,40 539,40 534,35 " style="fill:white; stroke-width:1; stroke:black; " description="&lt;b&gt;ctg1_4104&lt;/b&gt;&lt;br&gt;ctg1 4104&lt;br&gt;Location: 4445981 - 4446485" locus_tag="ctg1_4104" class="clusterblast-orf" id="knownclusterblast-21_q21_0_all"  />
<polygon points="553,40 582,40 587,35 582,30 553,30 553,40 " style="fill:white; stroke-width:1; stroke:black; " description="&lt;b&gt;ctg1_4105&lt;/b&gt;&lt;br&gt;ctg1 4105&lt;br&gt;Location: 4446657 - 4447833" locus_tag="ctg1_4105" class="clusterblast-orf" id="knownclusterblast-21_q22_0_all"  />
<polygon points="589,35 594,30 670,30 670,40 594,40 589,35 " style="fill:white; stroke-width:1; stroke:black; " description="&lt;b&gt;ctg1_4106&lt;/b&gt;&lt;br&gt;ctg1 4106&lt;br&gt;Location: 4447891 - 4450747" locus_tag="ctg1_4106" class="clusterblast-orf" id="knownclusterblast-21_q23_0_all"  />
<polygon points="670,35 675,30 683,30 683,40 675,40 670,35 " style="fill:white; stroke-width:1; stroke:black; " description="&lt;b&gt;ctg1_4107&lt;/b&gt;&lt;br&gt;ctg1 4107&lt;br&gt;Location: 4450746 - 4451190" locus_tag="ctg1_4107" class="clusterblast-orf" id="knownclusterblast-21_q24_0_all"  />
<polygon points="685,35 690,30 697,30 697,40 690,40 685,35 " style="fill:white; stroke-width:1; stroke:black; " description="&lt;b&gt;ctg1_4108&lt;/b&gt;&lt;br&gt;ctg1 4108&lt;br&gt;Location: 4451255 - 4451672" locus_tag="ctg1_4108" class="clusterblast-orf" id="knownclusterblast-21_q25_0_all"  />
<polygon points="697,35 702,30 741,30 741,40 702,40 697,35 " style="fill:white; stroke-width:1; stroke:black; " description="&lt;b&gt;ctg1_4109&lt;/b&gt;&lt;br&gt;ctg1 4109&lt;br&gt;Location: 4451692 - 4453204" locus_tag="ctg1_4109" class="clusterblast-orf" id="knownclusterblast-21_q26_0_all"  />
<polygon points="749,40 775,40 780,35 775,30 749,30 749,40 " style="fill:white; stroke-width:1; stroke:black; " description="&lt;b&gt;ctg1_4110&lt;/b&gt;&lt;br&gt;ctg1 4110&lt;br&gt;Location: 4453491 - 4454571" locus_tag="ctg1_4110" class="clusterblast-orf" id="knownclusterblast-21_q27_0_all"  />
</g>
<g label="MGC00000023" description="MGC00000023_c1: Arginine to hydrogen carbonate P. aeruginosa (100% of genes show similarity), ARG" class="clusterblast-cluster"  >
<text x="5" y="70" class="clusterblast-acc"  >
MGC00000023_c1: Arginine to hydrogen carbonate P. aeruginosa (100% of genes show similarity), ARG</text>
<line x1="10" y1="85" x2="778.0" y2="85" style="stroke-width:1; stroke:grey; "  />
</g>
<g id="a21_000"  >
<polygon points="342,85 347,80 368,80 368,90 347,90 342,85 " style="fill:#15d815; stroke-width:1; stroke:black; " description="&lt;b&gt;BGV84_RS26795&lt;/b&gt;&lt;br&gt;carbamate kinase&lt;br&gt;Location: 13340 - 12407&lt;br&gt;&lt;br&gt;&lt;b&gt;BlastP hit with ctg1_4099&lt;/b&gt;&lt;br&gt;Percentage identity: 53&lt;br&gt;Percentage coverage: 96&lt;br&gt;BLAST bit score: 308&lt;br&gt;E-value: 6.61e-107" locus_tag="BGV84_RS26795" class="clusterblast-orf" id="knownclusterblast-21_all_21_1_0"  />
</g>
<g id="a21_001"  >
<polygon points="370,85 375,80 399,80 399,90 375,90 370,85 " style="fill:#d81515; stroke-width:1; stroke:black; " description="&lt;b&gt;BGV84_RS26790&lt;/b&gt;&lt;br&gt;ornithine carbamoyltransferase&lt;br&gt;Location: 12347 - 11336&lt;br&gt;&lt;br&gt;&lt;b&gt;BlastP hit with ctg1_4098&lt;/b&gt;&lt;br&gt;Percentage identity: 63&lt;br&gt;Percentage coverage: 101&lt;br&gt;BLAST bit score: 436&lt;br&gt;E-value: 3.18e-156&lt;br&gt;&lt;br&gt;&lt;b&gt;BlastP hit with ctg1_4102&lt;/b&gt;&lt;br&gt;Percentage identity: 61&lt;br&gt;Percentage coverage: 99&lt;br&gt;BLAST bit score: 404&lt;br&gt;E-value: 6.48e-144" locus_tag="BGV84_RS26790" class="clusterblast-orf" id="knownclusterblast-21_all_21_1_1"  />
</g>
<g id="a21_002"  >
<polygon points="401,85 406,80 437,80 437,90 406,90 401,85 " style="fill:#1515d8; stroke-width:1; stroke:black; " description="&lt;b&gt;BGV84_RS26785&lt;/b&gt;&lt;br&gt;arginine deiminase&lt;br&gt;Location: 11257 - 10000&lt;br&gt;&lt;br&gt;&lt;b&gt;BlastP hit with ctg1_4100&lt;/b&gt;&lt;br&gt;Percentage identity: 48&lt;br&gt;Percentage coverage: 100&lt;br&gt;BLAST bit score: 375&lt;br&gt;E-value: 3.41e-130" locus_tag="BGV84_RS26785" class="clusterblast-orf" id="knownclusterblast-21_all_21_1_2"  />
</g>
</svg>
