<svg xmlns="http://www.w3.org/2000/svg" xmlns:xlink="http://www.w3.org/1999/xlink" version="1.1" x="0" y="0" height="230" width="800" viewBox="0 0 800 230" preserveAspectRatio="none"  >
<g label="Query sequence" class="clusterblast-cluster"  >
<text x="5" y="20" class="clusterblast-acc"  >
Query sequence</text>
<line x1="10" y1="35" x2="778.0" y2="35" style="stroke-width:1; stroke:grey; "  />
<polygon points="0,35 5,30 28,30 28,40 5,40 0,35 " style="fill:white; stroke-width:1; stroke:black; " description="&lt;b&gt;ctg1_1503&lt;/b&gt;&lt;br&gt;ctg1 1503&lt;br&gt;Location: 1642683 - 1643997" locus_tag="ctg1_1503" class="clusterblast-orf" id="dummy-11_q0_0_all"  />
<polygon points="28,35 33,30 54,30 54,40 33,40 28,35 " style="fill:#d81515; stroke-width:1; stroke:black; " description="&lt;b&gt;ctg1_1504&lt;/b&gt;&lt;br&gt;ctg1 1504&lt;br&gt;Location: 1644023 - 1645229" locus_tag="ctg1_1504" class="clusterblast-orf" id="dummy-11_q1_0_all"  />
<polygon points="54,35 59,30 63,30 63,40 59,40 54,35 " style="fill:white; stroke-width:1; stroke:black; " description="&lt;b&gt;ctg1_1505&lt;/b&gt;&lt;br&gt;ctg1 1505&lt;br&gt;Location: 1645228 - 1645651" locus_tag="ctg1_1505" class="clusterblast-orf" id="dummy-11_q2_0_all"  />
<polygon points="63,35 68,30 92,30 92,40 68,40 63,35 " style="fill:#77d815; stroke-width:1; stroke:black; " description="&lt;b&gt;ctg1_1506&lt;/b&gt;&lt;br&gt;ctg1 1506&lt;br&gt;Location: 1645640 - 1647023" locus_tag="ctg1_1506" class="clusterblast-orf" id="dummy-11_q3_0_all"  />
<polygon points="93,35 98,30 110,30 110,40 98,40 93,35 " style="fill:white; stroke-width:1; stroke:black; " description="&lt;b&gt;ctg1_1507&lt;/b&gt;&lt;br&gt;ctg1 1507&lt;br&gt;Location: 1647069 - 1647858" locus_tag="ctg1_1507" class="clusterblast-orf" id="dummy-11_q4_0_all"  />
<polygon points="110,35 115,30 126,30 126,40 115,40 110,35 " style="fill:#15d8d8; stroke-width:1; stroke:black; " description="&lt;b&gt;ctg1_1508&lt;/b&gt;&lt;br&gt;ctg1 1508&lt;br&gt;Location: 1647857 - 1648625" locus_tag="ctg1_1508" class="clusterblast-orf" id="dummy-11_q5_0_all"  />
<polygon points="126,35 131,30 149,30 149,40 131,40 126,35 " style="fill:white; stroke-width:1; stroke:black; " description="&lt;b&gt;ctg1_1509&lt;/b&gt;&lt;br&gt;ctg1 1509&lt;br&gt;Location: 1648621 - 1649692" locus_tag="ctg1_1509" class="clusterblast-orf" id="dummy-11_q6_0_all"  />
<polygon points="149,35 154,30 159,30 159,40 154,40 149,35 " style="fill:white; stroke-width:1; stroke:black; " description="&lt;b&gt;ctg1_1510&lt;/b&gt;&lt;br&gt;ctg1 1510&lt;br&gt;Location: 1649699 - 1650197" locus_tag="ctg1_1510" class="clusterblast-orf" id="dummy-11_q7_0_all"  />
<polygon points="160,35 165,30 176,30 176,40 165,40 160,35 " style="fill:white; stroke-width:1; stroke:black; " description="&lt;b&gt;ctg1_1511&lt;/b&gt;&lt;br&gt;ctg1 1511&lt;br&gt;Location: 1650211 - 1650958" locus_tag="ctg1_1511" class="clusterblast-orf" id="dummy-11_q8_0_all"  />
<polygon points="176,35 181,30 182,30 182,40 181,40 176,35 " style="fill:white; stroke-width:1; stroke:black; " description="&lt;b&gt;ctg1_1512&lt;/b&gt;&lt;br&gt;ctg1 1512&lt;br&gt;Location: 1650966 - 1651254" locus_tag="ctg1_1512" class="clusterblast-orf" id="dummy-11_q9_0_all"  />
<polygon points="182,35 187,30 202,30 202,40 187,40 182,35 " style="fill:white; stroke-width:1; stroke:black; " description="&lt;b&gt;ctg1_1513&lt;/b&gt;&lt;br&gt;ctg1 1513&lt;br&gt;Location: 1651265 - 1652195" locus_tag="ctg1_1513" class="clusterblast-orf" id="dummy-11_q10_0_all"  />
<polygon points="203,40 204,40 209,35 204,30 203,30 203,40 " style="fill:white; stroke-width:1; stroke:black; " description="&lt;b&gt;ctg1_1514&lt;/b&gt;&lt;br&gt;ctg1 1514&lt;br&gt;Location: 1652256 - 1652535" locus_tag="ctg1_1514" class="clusterblast-orf" id="dummy-11_q11_0_all"  />
<polygon points="208,40 246,40 251,35 246,30 208,30 208,40 " style="fill:white; stroke-width:1; stroke:black; " description="&lt;b&gt;ctg1_1515&lt;/b&gt;&lt;br&gt;ctg1 1515&lt;br&gt;Location: 1652479 - 1654525" locus_tag="ctg1_1515" class="clusterblast-orf" id="dummy-11_q12_0_all"  />
<polygon points="257,40 300,40 305,35 300,30 257,30 257,40 " style="fill:white; stroke-width:1; stroke:black; " description="&lt;b&gt;ctg1_1516&lt;/b&gt;&lt;br&gt;ctg1 1516&lt;br&gt;Location: 1654772 - 1657046" locus_tag="ctg1_1516" class="clusterblast-orf" id="dummy-11_q13_0_all"  />
<polygon points="306,35 311,30 338,30 338,40 311,40 306,35 " style="fill:white; stroke-width:1; stroke:black; " description="&lt;b&gt;ctg1_1517&lt;/b&gt;&lt;br&gt;ctg1 1517&lt;br&gt;Location: 1657104 - 1658604" locus_tag="ctg1_1517" class="clusterblast-orf" id="dummy-11_q14_0_all"  />
<polygon points="343,40 357,40 362,35 357,30 343,30 343,40 " style="fill:white; stroke-width:1; stroke:black; " description="&lt;b&gt;ctg1_1518&lt;/b&gt;&lt;br&gt;ctg1 1518&lt;br&gt;Location: 1658839 - 1659745" locus_tag="ctg1_1518" class="clusterblast-orf" id="dummy-11_q15_0_all"  />
<polygon points="365,35 370,30 371,30 371,40 370,40 365,35 " style="fill:white; stroke-width:1; stroke:black; " description="&lt;b&gt;ctg1_1519&lt;/b&gt;&lt;br&gt;ctg1 1519&lt;br&gt;Location: 1659856 - 1660162" locus_tag="ctg1_1519" class="clusterblast-orf" id="dummy-11_q16_0_all"  />
<polygon points="373,35 378,30 380,30 380,40 378,40 373,35 " style="fill:white; stroke-width:1; stroke:black; " description="&lt;b&gt;ctg1_1520&lt;/b&gt;&lt;br&gt;ctg1 1520&lt;br&gt;Location: 1660233 - 1660557" locus_tag="ctg1_1520" class="clusterblast-orf" id="dummy-11_q17_0_all"  />
<polygon points="380,35 384,30 384,40 380,35 " style="fill:white; stroke-width:1; stroke:black; " description="&lt;b&gt;ctg1_1521&lt;/b&gt;&lt;br&gt;ctg1 1521&lt;br&gt;Location: 1660564 - 1660750" locus_tag="ctg1_1521" class="clusterblast-orf" id="dummy-11_q18_0_all"  />
<polygon points="384,35 389,30 440,30 440,40 389,40 384,35 " style="fill:white; stroke-width:1; stroke:black; " description="&lt;b&gt;ctg1_1522&lt;/b&gt;&lt;br&gt;ctg1 1522&lt;br&gt;Location: 1660746 - 1663386" locus_tag="ctg1_1522" class="clusterblast-orf" id="dummy-11_q19_0_all"  />
<polygon points="444,40 460,40 465,35 460,30 444,30 444,40 " style="fill:white; stroke-width:1; stroke:black; " description="&lt;b&gt;ctg1_1523&lt;/b&gt;&lt;br&gt;ctg1 1523&lt;br&gt;Location: 1663594 - 1664584" locus_tag="ctg1_1523" class="clusterblast-orf" id="dummy-11_q20_0_all"  />
<polygon points="467,40 471,40 476,35 471,30 467,30 467,40 " style="fill:white; stroke-width:1; stroke:black; " description="&lt;b&gt;ctg1_1524&lt;/b&gt;&lt;br&gt;ctg1 1524&lt;br&gt;Location: 1664685 - 1665108" locus_tag="ctg1_1524" class="clusterblast-orf" id="dummy-11_q21_0_all"  />
<polygon points="476,35 481,30 482,30 482,40 481,40 476,35 " style="fill:white; stroke-width:1; stroke:black; " description="&lt;b&gt;ctg1_1525&lt;/b&gt;&lt;br&gt;ctg1 1525&lt;br&gt;Location: 1665104 - 1665371" locus_tag="ctg1_1525" class="clusterblast-orf" id="dummy-11_q22_0_all"  />
<polygon points="488,40 504,40 509,35 504,30 488,30 488,40 " style="fill:white; stroke-width:1; stroke:black; " description="&lt;b&gt;ctg1_1526&lt;/b&gt;&lt;br&gt;ctg1 1526&lt;br&gt;Location: 1665651 - 1666635" locus_tag="ctg1_1526" class="clusterblast-orf" id="dummy-11_q23_0_all"  />
<polygon points="516,40 586,40 591,35 586,30 516,30 516,40 " style="fill:#7715d8; stroke-width:1; stroke:black; " description="&lt;b&gt;ctg1_1527&lt;/b&gt;&lt;br&gt;ctg1 1527&lt;br&gt;Location: 1666983 - 1670508" locus_tag="ctg1_1527" class="clusterblast-orf" id="dummy-11_q24_0_all"  />
<polygon points="599,40 618,40 623,35 618,30 599,30 599,40 " style="fill:white; stroke-width:1; stroke:black; " description="&lt;b&gt;ctg1_1528&lt;/b&gt;&lt;br&gt;ctg1 1528&lt;br&gt;Location: 1670849 - 1671983" locus_tag="ctg1_1528" class="clusterblast-orf" id="dummy-11_q25_0_all"  />
<polygon points="626,40 630,40 635,35 630,30 626,30 626,40 " style="fill:white; stroke-width:1; stroke:black; " description="&lt;b&gt;ctg1_1529&lt;/b&gt;&lt;br&gt;ctg1 1529&lt;br&gt;Location: 1672122 - 1672557" locus_tag="ctg1_1529" class="clusterblast-orf" id="dummy-11_q26_0_all"  />
<polygon points="641,40 655,40 660,35 655,30 641,30 641,40 " style="fill:white; stroke-width:1; stroke:black; " description="&lt;b&gt;ctg1_1530&lt;/b&gt;&lt;br&gt;ctg1 1530&lt;br&gt;Location: 1672826 - 1673762" locus_tag="ctg1_1530" class="clusterblast-orf" id="dummy-11_q27_0_all"  />
<polygon points="663,35 668,30 692,30 692,40 668,40 663,35 " style="fill:white; stroke-width:1; stroke:black; " description="&lt;b&gt;ctg1_1531&lt;/b&gt;&lt;br&gt;ctg1 1531&lt;br&gt;Location: 1673874 - 1675248" locus_tag="ctg1_1531" class="clusterblast-orf" id="dummy-11_q28_0_all"  />
<polygon points="693,35 696,30 696,40 693,35 " style="fill:white; stroke-width:1; stroke:black; " description="&lt;b&gt;ctg1_1532&lt;/b&gt;&lt;br&gt;ctg1 1532&lt;br&gt;Location: 1675276 - 1675450" locus_tag="ctg1_1532" class="clusterblast-orf" id="dummy-11_q29_0_all"  />
<polygon points="702,35 707,30 723,30 723,40 707,40 702,35 " style="fill:white; stroke-width:1; stroke:black; " description="&lt;b&gt;ctg1_1533&lt;/b&gt;&lt;br&gt;ctg1 1533&lt;br&gt;Location: 1675725 - 1676709" locus_tag="ctg1_1533" class="clusterblast-orf" id="dummy-11_q30_0_all"  />
<polygon points="728,40 749,40 754,35 749,30 728,30 728,40 " style="fill:white; stroke-width:1; stroke:black; " description="&lt;b&gt;ctg1_1534&lt;/b&gt;&lt;br&gt;ctg1 1534&lt;br&gt;Location: 1676947 - 1678180" locus_tag="ctg1_1534" class="clusterblast-orf" id="dummy-11_q31_0_all"  />
<polygon points="755,35 760,30 764,30 764,40 760,40 755,35 " style="fill:white; stroke-width:1; stroke:black; " description="&lt;b&gt;ctg1_1535&lt;/b&gt;&lt;br&gt;ctg1 1535&lt;br&gt;Location: 1678230 - 1678617" locus_tag="ctg1_1535" class="clusterblast-orf" id="dummy-11_q32_0_all"  />
<polygon points="763,35 768,30 780,30 780,40 768,40 763,35 " style="fill:white; stroke-width:1; stroke:black; " description="&lt;b&gt;ctg1_1536&lt;/b&gt;&lt;br&gt;ctg1 1536&lt;br&gt;Location: 1678606 - 1679371" locus_tag="ctg1_1536" class="clusterblast-orf" id="dummy-11_q33_0_all"  />
</g>
<g label="MGC0000005" description="MGC0000005_c1: Acetate to butyrate C. sporogenes (50% of genes show similarity), BUT" class="clusterblast-cluster"  >
<text x="5" y="70" class="clusterblast-acc"  >
MGC0000005_c1: Acetate to butyrate C. sporogenes (50% of genes show similarity), BUT</text>
<line x1="10" y1="85" x2="778.0" y2="85" style="stroke-width:1; stroke:grey; "  />
</g>
<g id="a11_000"  >
<polygon points="326,85 331,80 347,80 347,90 331,90 326,85 " style="fill:white; stroke-width:1; stroke:black; " description="&lt;b&gt;CLOSPO_RS02095&lt;/b&gt;&lt;br&gt;electron transfer flavoprotein subunit alpha&lt;br&gt;Location: 6040 - 5035" locus_tag="CLOSPO_RS02095" class="clusterblast-orf" id="dummy-11_h11_2_0"  />
</g>
<g id="a11_001"  >
<polygon points="348,85 353,80 364,80 364,90 353,90 348,85 " style="fill:white; stroke-width:1; stroke:black; " description="&lt;b&gt;CLOSPO_RS02090&lt;/b&gt;&lt;br&gt;electron transfer flavoprotein subunit beta&lt;br&gt;Location: 5020 - 4240" locus_tag="CLOSPO_RS02090" class="clusterblast-orf" id="dummy-11_h11_2_1"  />
</g>
<g id="a11_002"  >
<polygon points="364,85 369,80 389,80 389,90 369,90 364,85 " style="fill:white; stroke-width:1; stroke:black; " description="&lt;b&gt;CLOSPO_RS02085&lt;/b&gt;&lt;br&gt;acyl-CoA dehydrogenase&lt;br&gt;Location: 4229 - 3089" locus_tag="CLOSPO_RS02085" class="clusterblast-orf" id="dummy-11_h11_2_2"  />
</g>
<g id="a11_003"  >
<polygon points="393,85 398,80 418,80 418,90 398,90 393,85 " style="fill:#d81515; stroke-width:1; stroke:black; " description="&lt;b&gt;CLOSPO_RS02080&lt;/b&gt;&lt;br&gt;acetyl-CoA acetyltransferase&lt;br&gt;Location: 2896 - 1717&lt;br&gt;&lt;br&gt;&lt;b&gt;BlastP hit with ctg1_1504&lt;/b&gt;&lt;br&gt;Percentage identity: 46&lt;br&gt;Percentage coverage: 100&lt;br&gt;BLAST bit score: 318&lt;br&gt;E-value: 5.48e-108" locus_tag="CLOSPO_RS02080" class="clusterblast-orf" id="dummy-11_h11_2_3"  />
</g>
<g id="a11_004"  >
<polygon points="418,85 423,80 436,80 436,90 423,90 418,85 " style="fill:#77d815; stroke-width:1; stroke:black; " description="&lt;b&gt;CLOSPO_RS02075&lt;/b&gt;&lt;br&gt;3-hydroxybutyryl-CoA dehydrogenase&lt;br&gt;Location: 1693 - 862&lt;br&gt;&lt;br&gt;&lt;b&gt;BlastP hit with ctg1_1506&lt;/b&gt;&lt;br&gt;Percentage identity: 42&lt;br&gt;Percentage coverage: 59&lt;br&gt;BLAST bit score: 210&lt;br&gt;E-value: 8.19e-67" locus_tag="CLOSPO_RS02075" class="clusterblast-orf" id="dummy-11_h11_2_4"  />
</g>
<g id="a11_005"  >
<polygon points="436,85 441,80 453,80 453,90 441,90 436,85 " style="fill:#15d8d8; stroke-width:1; stroke:black; " description="&lt;b&gt;CLOSPO_RS02070&lt;/b&gt;&lt;br&gt;crotonase&lt;br&gt;Location: 843 - 60&lt;br&gt;&lt;br&gt;&lt;b&gt;BlastP hit with ctg1_1508&lt;/b&gt;&lt;br&gt;Percentage identity: 41&lt;br&gt;Percentage coverage: 98&lt;br&gt;BLAST bit score: 183&lt;br&gt;E-value: 2.48e-59" locus_tag="CLOSPO_RS02070" class="clusterblast-orf" id="dummy-11_h11_2_5"  />
</g>
</svg>
