<svg xmlns="http://www.w3.org/2000/svg" xmlns:xlink="http://www.w3.org/1999/xlink" version="1.1" x="0" y="0" height="230" width="800" viewBox="0 0 800 230" preserveAspectRatio="none"  >
<g label="Query sequence" class="clusterblast-cluster"  >
<text x="5" y="20" class="clusterblast-acc"  >
Query sequence</text>
<line x1="10" y1="35" x2="778.0" y2="35" style="stroke-width:1; stroke:grey; "  />
<polygon points="0,40 4,35 0,30 0,40 " style="fill:white; stroke-width:1; stroke:black; " description="&lt;b&gt;ctg1_1872&lt;/b&gt;&lt;br&gt;ctg1 1872&lt;br&gt;Location: 2036532 - 2036805" locus_tag="ctg1_1872" class="clusterblast-orf" id="dummy-13_q0_0_all"  />
<polygon points="8,40 11,40 16,35 11,30 8,30 8,40 " style="fill:white; stroke-width:1; stroke:black; " description="&lt;b&gt;ctg1_1873&lt;/b&gt;&lt;br&gt;ctg1 1873&lt;br&gt;Location: 2037055 - 2037565" locus_tag="ctg1_1873" class="clusterblast-orf" id="dummy-13_q1_0_all"  />
<polygon points="23,35 28,30 47,30 47,40 28,40 23,35 " style="fill:white; stroke-width:1; stroke:black; " description="&lt;b&gt;ctg1_1874&lt;/b&gt;&lt;br&gt;ctg1 1874&lt;br&gt;Location: 2037983 - 2039438" locus_tag="ctg1_1874" class="clusterblast-orf" id="dummy-13_q2_0_all"  />
<polygon points="49,35 54,30 70,30 70,40 54,40 49,35 " style="fill:white; stroke-width:1; stroke:black; " description="&lt;b&gt;ctg1_1875&lt;/b&gt;&lt;br&gt;ctg1 1875&lt;br&gt;Location: 2039565 - 2040870" locus_tag="ctg1_1875" class="clusterblast-orf" id="dummy-13_q3_0_all"  />
<polygon points="79,35 84,30 102,30 102,40 84,40 79,35 " style="fill:white; stroke-width:1; stroke:black; " description="&lt;b&gt;ctg1_1876&lt;/b&gt;&lt;br&gt;ctg1 1876&lt;br&gt;Location: 2041420 - 2042857" locus_tag="ctg1_1876" class="clusterblast-orf" id="dummy-13_q4_0_all"  />
<polygon points="111,40 116,40 121,35 116,30 111,30 111,40 " style="fill:white; stroke-width:1; stroke:black; " description="&lt;b&gt;ctg1_1877&lt;/b&gt;&lt;br&gt;ctg1 1877&lt;br&gt;Location: 2043438 - 2044017" locus_tag="ctg1_1877" class="clusterblast-orf" id="dummy-13_q5_0_all"  />
<polygon points="121,40 129,40 134,35 129,30 121,30 121,40 " style="fill:white; stroke-width:1; stroke:black; " description="&lt;b&gt;ctg1_1878&lt;/b&gt;&lt;br&gt;ctg1 1878&lt;br&gt;Location: 2044039 - 2044858" locus_tag="ctg1_1878" class="clusterblast-orf" id="dummy-13_q6_0_all"  />
<polygon points="134,40 138,40 143,35 138,30 134,30 134,40 " style="fill:white; stroke-width:1; stroke:black; " description="&lt;b&gt;ctg1_1879&lt;/b&gt;&lt;br&gt;ctg1 1879&lt;br&gt;Location: 2044857 - 2045376" locus_tag="ctg1_1879" class="clusterblast-orf" id="dummy-13_q7_0_all"  />
<polygon points="151,40 155,35 151,30 151,40 " style="fill:#d81515; stroke-width:1; stroke:black; " description="&lt;b&gt;ctg1_1880&lt;/b&gt;&lt;br&gt;ctg1 1880&lt;br&gt;Location: 2045895 - 2046174" locus_tag="ctg1_1880" class="clusterblast-orf" id="dummy-13_q8_0_all"  />
<polygon points="156,40 160,35 156,30 156,40 " style="fill:#d81515; stroke-width:1; stroke:black; " description="&lt;b&gt;ctg1_1881&lt;/b&gt;&lt;br&gt;ctg1 1881&lt;br&gt;Location: 2046191 - 2046476" locus_tag="ctg1_1881" class="clusterblast-orf" id="dummy-13_q9_0_all"  />
<polygon points="161,40 165,35 161,30 161,40 " style="fill:#d81515; stroke-width:1; stroke:black; " description="&lt;b&gt;ctg1_1882&lt;/b&gt;&lt;br&gt;ctg1 1882&lt;br&gt;Location: 2046490 - 2046769" locus_tag="ctg1_1882" class="clusterblast-orf" id="dummy-13_q10_0_all"  />
<polygon points="166,40 187,40 192,35 187,30 166,30 166,40 " style="fill:#77d815; stroke-width:1; stroke:black; " description="&lt;b&gt;ctg1_1883&lt;/b&gt;&lt;br&gt;ctg1 1883&lt;br&gt;Location: 2046822 - 2048409" locus_tag="ctg1_1883" class="clusterblast-orf" id="dummy-13_q11_0_all"  />
<polygon points="192,40 196,35 192,30 192,40 " style="fill:#15d8d8; stroke-width:1; stroke:black; " description="&lt;b&gt;ctg1_1884&lt;/b&gt;&lt;br&gt;ctg1 1884&lt;br&gt;Location: 2048435 - 2048693" locus_tag="ctg1_1884" class="clusterblast-orf" id="dummy-13_q12_0_all"  />
<polygon points="196,40 210,40 215,35 210,30 196,30 196,40 " style="fill:#7715d8; stroke-width:1; stroke:black; " description="&lt;b&gt;ctg1_1885&lt;/b&gt;&lt;br&gt;ctg1 1885&lt;br&gt;Location: 2048708 - 2049863" locus_tag="ctg1_1885" class="clusterblast-orf" id="dummy-13_q13_0_all"  />
<polygon points="216,40 265,40 270,35 265,30 216,30 216,40 " style="fill:#d84615; stroke-width:1; stroke:black; " description="&lt;b&gt;ctg1_1886&lt;/b&gt;&lt;br&gt;ctg1 1886&lt;br&gt;Location: 2049889 - 2053276" locus_tag="ctg1_1886" class="clusterblast-orf" id="dummy-13_q14_0_all"  />
<polygon points="271,40 281,40 286,35 281,30 271,30 271,40 " style="fill:#46d815; stroke-width:1; stroke:black; " description="&lt;b&gt;ctg1_1887&lt;/b&gt;&lt;br&gt;ctg1 1887&lt;br&gt;Location: 2053327 - 2054275" locus_tag="ctg1_1887" class="clusterblast-orf" id="dummy-13_q15_0_all"  />
<polygon points="287,40 289,40 294,35 289,30 287,30 287,40 " style="fill:#d81515; stroke-width:1; stroke:black; " description="&lt;b&gt;ctg1_1888&lt;/b&gt;&lt;br&gt;ctg1 1888&lt;br&gt;Location: 2054286 - 2054769" locus_tag="ctg1_1888" class="clusterblast-orf" id="dummy-13_q16_0_all"  />
<polygon points="294,40 299,40 304,35 299,30 294,30 294,40 " style="fill:#15a7d8; stroke-width:1; stroke:black; " description="&lt;b&gt;ctg1_1889&lt;/b&gt;&lt;br&gt;ctg1 1889&lt;br&gt;Location: 2054765 - 2055386" locus_tag="ctg1_1889" class="clusterblast-orf" id="dummy-13_q17_0_all"  />
<polygon points="305,40 310,40 315,35 310,30 305,30 305,40 " style="fill:white; stroke-width:1; stroke:black; " description="&lt;b&gt;ctg1_1890&lt;/b&gt;&lt;br&gt;ctg1 1890&lt;br&gt;Location: 2055397 - 2056063" locus_tag="ctg1_1890" class="clusterblast-orf" id="dummy-13_q18_0_all"  />
<polygon points="316,40 317,40 322,35 317,30 316,30 316,40 " style="fill:white; stroke-width:1; stroke:black; " description="&lt;b&gt;ctg1_1891&lt;/b&gt;&lt;br&gt;ctg1 1891&lt;br&gt;Location: 2056095 - 2056497" locus_tag="ctg1_1891" class="clusterblast-orf" id="dummy-13_q19_0_all"  />
<polygon points="323,40 323,40 328,35 323,30 323,30 323,40 " style="fill:white; stroke-width:1; stroke:black; " description="&lt;b&gt;ctg1_1892&lt;/b&gt;&lt;br&gt;ctg1 1892&lt;br&gt;Location: 2056512 - 2056842" locus_tag="ctg1_1892" class="clusterblast-orf" id="dummy-13_q20_0_all"  />
<polygon points="329,35 334,30 344,30 344,40 334,40 329,35 " style="fill:white; stroke-width:1; stroke:black; " description="&lt;b&gt;ctg1_1893&lt;/b&gt;&lt;br&gt;ctg1 1893&lt;br&gt;Location: 2056908 - 2057835" locus_tag="ctg1_1893" class="clusterblast-orf" id="dummy-13_q21_0_all"  />
<polygon points="347,35 352,30 355,30 355,40 352,40 347,35 " style="fill:white; stroke-width:1; stroke:black; " description="&lt;b&gt;ctg1_1894&lt;/b&gt;&lt;br&gt;ctg1 1894&lt;br&gt;Location: 2058049 - 2058520" locus_tag="ctg1_1894" class="clusterblast-orf" id="dummy-13_q22_0_all"  />
<polygon points="355,35 357,30 357,40 355,35 " style="fill:white; stroke-width:1; stroke:black; " description="&lt;b&gt;ctg1_1895&lt;/b&gt;&lt;br&gt;ctg1 1895&lt;br&gt;Location: 2058500 - 2058650" locus_tag="ctg1_1895" class="clusterblast-orf" id="dummy-13_q23_0_all"  />
<polygon points="363,35 368,30 378,30 378,40 368,40 363,35 " style="fill:#a715d8; stroke-width:1; stroke:black; " description="&lt;b&gt;ctg1_1896&lt;/b&gt;&lt;br&gt;ctg1 1896&lt;br&gt;Location: 2059034 - 2059952" locus_tag="ctg1_1896" class="clusterblast-orf" id="dummy-13_q24_0_all"  />
<polygon points="381,35 386,30 394,30 394,40 386,40 381,35 " style="fill:#d87715; stroke-width:1; stroke:black; " description="&lt;b&gt;ctg1_1897&lt;/b&gt;&lt;br&gt;ctg1 1897&lt;br&gt;Location: 2060146 - 2060941" locus_tag="ctg1_1897" class="clusterblast-orf" id="dummy-13_q25_0_all"  />
<polygon points="402,40 402,40 407,35 402,30 402,30 402,40 " style="fill:#d81515; stroke-width:1; stroke:black; " description="&lt;b&gt;ctg1_1898&lt;/b&gt;&lt;br&gt;ctg1 1898&lt;br&gt;Location: 2061442 - 2061727" locus_tag="ctg1_1898" class="clusterblast-orf" id="dummy-13_q26_0_all"  />
<polygon points="407,40 415,40 420,35 415,30 407,30 407,40 " style="fill:#15d815; stroke-width:1; stroke:black; " description="&lt;b&gt;ctg1_1899&lt;/b&gt;&lt;br&gt;ctg1 1899&lt;br&gt;Location: 2061723 - 2062533" locus_tag="ctg1_1899" class="clusterblast-orf" id="dummy-13_q27_0_all"  />
<polygon points="420,40 442,40 447,35 442,30 420,30 420,40 " style="fill:#1577d8; stroke-width:1; stroke:black; " description="&lt;b&gt;ctg1_1900&lt;/b&gt;&lt;br&gt;ctg1 1900&lt;br&gt;Location: 2062551 - 2064216" locus_tag="ctg1_1900" class="clusterblast-orf" id="dummy-13_q28_0_all"  />
<polygon points="447,40 453,40 458,35 453,30 447,30 447,40 " style="fill:#d815d8; stroke-width:1; stroke:black; " description="&lt;b&gt;ctg1_1901&lt;/b&gt;&lt;br&gt;ctg1 1901&lt;br&gt;Location: 2064226 - 2064889" locus_tag="ctg1_1901" class="clusterblast-orf" id="dummy-13_q29_0_all"  />
<polygon points="458,40 462,40 467,35 462,30 458,30 458,40 " style="fill:#d8a715; stroke-width:1; stroke:black; " description="&lt;b&gt;ctg1_1902&lt;/b&gt;&lt;br&gt;ctg1 1902&lt;br&gt;Location: 2064903 - 2065428" locus_tag="ctg1_1902" class="clusterblast-orf" id="dummy-13_q30_0_all"  />
<polygon points="467,40 491,40 496,35 491,30 467,30 467,40 " style="fill:#15d846; stroke-width:1; stroke:black; " description="&lt;b&gt;ctg1_1903&lt;/b&gt;&lt;br&gt;ctg1 1903&lt;br&gt;Location: 2065438 - 2067271" locus_tag="ctg1_1903" class="clusterblast-orf" id="dummy-13_q31_0_all"  />
<polygon points="496,40 497,40 502,35 497,30 496,30 496,40 " style="fill:#1546d8; stroke-width:1; stroke:black; " description="&lt;b&gt;ctg1_1904&lt;/b&gt;&lt;br&gt;ctg1 1904&lt;br&gt;Location: 2067260 - 2067611" locus_tag="ctg1_1904" class="clusterblast-orf" id="dummy-13_q32_0_all"  />
<polygon points="502,40 502,40 507,35 502,30 502,30 502,40 " style="fill:#d81515; stroke-width:1; stroke:black; " description="&lt;b&gt;ctg1_1905&lt;/b&gt;&lt;br&gt;ctg1 1905&lt;br&gt;Location: 2067630 - 2067906" locus_tag="ctg1_1905" class="clusterblast-orf" id="dummy-13_q33_0_all"  />
<polygon points="507,40 509,40 514,35 509,30 507,30 507,40 " style="fill:#d815a7; stroke-width:1; stroke:black; " description="&lt;b&gt;ctg1_1906&lt;/b&gt;&lt;br&gt;ctg1 1906&lt;br&gt;Location: 2067931 - 2068366" locus_tag="ctg1_1906" class="clusterblast-orf" id="dummy-13_q34_0_all"  />
<polygon points="514,40 519,40 524,35 519,30 514,30 514,40 " style="fill:#15a7d8; stroke-width:1; stroke:black; " description="&lt;b&gt;ctg1_1907&lt;/b&gt;&lt;br&gt;ctg1 1907&lt;br&gt;Location: 2068365 - 2068998" locus_tag="ctg1_1907" class="clusterblast-orf" id="dummy-13_q35_0_all"  />
<polygon points="524,40 527,40 532,35 527,30 524,30 524,40 " style="fill:#d8d815; stroke-width:1; stroke:black; " description="&lt;b&gt;ctg1_1908&lt;/b&gt;&lt;br&gt;ctg1 1908&lt;br&gt;Location: 2068994 - 2069486" locus_tag="ctg1_1908" class="clusterblast-orf" id="dummy-13_q36_0_all"  />
<polygon points="532,40 532,40 537,35 532,30 532,30 532,40 " style="fill:#15d8d8; stroke-width:1; stroke:black; " description="&lt;b&gt;ctg1_1909&lt;/b&gt;&lt;br&gt;ctg1 1909&lt;br&gt;Location: 2069489 - 2069765" locus_tag="ctg1_1909" class="clusterblast-orf" id="dummy-13_q37_0_all"  />
<polygon points="537,40 548,40 553,35 548,30 537,30 537,40 " style="fill:#15d877; stroke-width:1; stroke:black; " description="&lt;b&gt;ctg1_1910&lt;/b&gt;&lt;br&gt;ctg1 1910&lt;br&gt;Location: 2069775 - 2070783" locus_tag="ctg1_1910" class="clusterblast-orf" id="dummy-13_q38_0_all"  />
<polygon points="553,40 571,40 576,35 571,30 553,30 553,40 " style="fill:#1515d8; stroke-width:1; stroke:black; " description="&lt;b&gt;ctg1_1911&lt;/b&gt;&lt;br&gt;ctg1 1911&lt;br&gt;Location: 2070779 - 2072162" locus_tag="ctg1_1911" class="clusterblast-orf" id="dummy-13_q39_0_all"  />
<polygon points="576,40 589,40 594,35 589,30 576,30 576,40 " style="fill:#7715d8; stroke-width:1; stroke:black; " description="&lt;b&gt;ctg1_1912&lt;/b&gt;&lt;br&gt;ctg1 1912&lt;br&gt;Location: 2072172 - 2073285" locus_tag="ctg1_1912" class="clusterblast-orf" id="dummy-13_q40_0_all"  />
<polygon points="594,40 610,40 615,35 610,30 594,30 594,40 " style="fill:#d81577; stroke-width:1; stroke:black; " description="&lt;b&gt;ctg1_1913&lt;/b&gt;&lt;br&gt;ctg1 1913&lt;br&gt;Location: 2073281 - 2074622" locus_tag="ctg1_1913" class="clusterblast-orf" id="dummy-13_q41_0_all"  />
<polygon points="615,40 619,40 624,35 619,30 615,30 615,40 " style="fill:#d81515; stroke-width:1; stroke:black; " description="&lt;b&gt;ctg1_1914&lt;/b&gt;&lt;br&gt;ctg1 1914&lt;br&gt;Location: 2074624 - 2075179" locus_tag="ctg1_1914" class="clusterblast-orf" id="dummy-13_q42_0_all"  />
<polygon points="624,40 625,40 630,35 625,30 624,30 624,40 " style="fill:#a7d815; stroke-width:1; stroke:black; " description="&lt;b&gt;ctg1_1915&lt;/b&gt;&lt;br&gt;ctg1 1915&lt;br&gt;Location: 2075178 - 2075529" locus_tag="ctg1_1915" class="clusterblast-orf" id="dummy-13_q43_0_all"  />
<polygon points="630,40 632,40 637,35 632,30 630,30 630,40 " style="fill:#15d8a7; stroke-width:1; stroke:black; " description="&lt;b&gt;ctg1_1916&lt;/b&gt;&lt;br&gt;ctg1 1916&lt;br&gt;Location: 2075533 - 2075980" locus_tag="ctg1_1916" class="clusterblast-orf" id="dummy-13_q44_0_all"  />
<polygon points="637,40 652,40 657,35 652,30 637,30 637,40 " style="fill:#4615d8; stroke-width:1; stroke:black; " description="&lt;b&gt;ctg1_1917&lt;/b&gt;&lt;br&gt;ctg1 1917&lt;br&gt;Location: 2075969 - 2077184" locus_tag="ctg1_1917" class="clusterblast-orf" id="dummy-13_q45_0_all"  />
<polygon points="658,35 663,30 664,30 664,40 663,40 658,35 " style="fill:#d81546; stroke-width:1; stroke:black; " description="&lt;b&gt;ctg1_1918&lt;/b&gt;&lt;br&gt;ctg1 1918&lt;br&gt;Location: 2077293 - 2077629" locus_tag="ctg1_1918" class="clusterblast-orf" id="dummy-13_q46_0_all"  />
<polygon points="667,35 672,30 684,30 684,40 672,40 667,35 " style="fill:white; stroke-width:1; stroke:black; " description="&lt;b&gt;ctg1_1919&lt;/b&gt;&lt;br&gt;ctg1 1919&lt;br&gt;Location: 2077796 - 2078855" locus_tag="ctg1_1919" class="clusterblast-orf" id="dummy-13_q47_0_all"  />
<polygon points="685,35 690,30 693,30 693,40 690,40 685,35 " style="fill:white; stroke-width:1; stroke:black; " description="&lt;b&gt;ctg1_1920&lt;/b&gt;&lt;br&gt;ctg1 1920&lt;br&gt;Location: 2078961 - 2079429" locus_tag="ctg1_1920" class="clusterblast-orf" id="dummy-13_q48_0_all"  />
<polygon points="708,40 735,40 740,35 735,30 708,30 708,40 " style="fill:white; stroke-width:1; stroke:black; " description="&lt;b&gt;ctg1_1921&lt;/b&gt;&lt;br&gt;ctg1 1921&lt;br&gt;Location: 2080367 - 2082317" locus_tag="ctg1_1921" class="clusterblast-orf" id="dummy-13_q49_0_all"  />
<polygon points="740,35 745,30 780,30 780,40 745,40 740,35 " style="fill:white; stroke-width:1; stroke:black; " description="&lt;b&gt;ctg1_1922&lt;/b&gt;&lt;br&gt;ctg1 1922&lt;br&gt;Location: 2082355 - 2084794" locus_tag="ctg1_1922" class="clusterblast-orf" id="dummy-13_q50_0_all"  />
</g>
<g label="MGC00000043" description="MGC00000043_c1: Phenylacetate to toluene Acidobacteria bacterium (100% of genes show similarity), TOL" class="clusterblast-cluster"  >
<text x="5" y="70" class="clusterblast-acc"  >
MGC00000043_c1: Phenylacetate to toluene Acidobacteria bacterium (100% of genes show similarity), TOL</text>
<line x1="10" y1="85" x2="778.0" y2="85" style="stroke-width:1; stroke:grey; "  />
</g>
<g id="a13_000"  >
<polygon points="360,90 396,90 401,85 396,80 360,80 360,90 " style="fill:#d84615; stroke-width:1; stroke:black; " description="&lt;b&gt;CXZ00_12390&lt;/b&gt;&lt;br&gt;Phenylacetate decarboxylase&lt;br&gt;Location: 13611 - 11091&lt;br&gt;&lt;br&gt;&lt;b&gt;BlastP hit with ctg1_1886&lt;/b&gt;&lt;br&gt;Percentage identity: 32&lt;br&gt;Percentage coverage: 54&lt;br&gt;BLAST bit score: 281&lt;br&gt;E-value: 3.03e-82" locus_tag="CXZ00_12390" class="clusterblast-orf" id="dummy-13_h13_5_0"  />
</g>
<g id="a13_001"  >
<polygon points="403,90 414,90 419,85 414,80 403,80 403,90 " style="fill:#46d815; stroke-width:1; stroke:black; " description="&lt;b&gt;CXZ00_12385&lt;/b&gt;&lt;br&gt;Phenylacetate decarboxylase activating enzyme&lt;br&gt;Location: 10948 - 10000&lt;br&gt;&lt;br&gt;&lt;b&gt;BlastP hit with ctg1_1887&lt;/b&gt;&lt;br&gt;Percentage identity: 40&lt;br&gt;Percentage coverage: 97&lt;br&gt;BLAST bit score: 227&lt;br&gt;E-value: 9.56e-75" locus_tag="CXZ00_12385" class="clusterblast-orf" id="dummy-13_h13_5_1"  />
</g>
</svg>
