<svg xmlns="http://www.w3.org/2000/svg" xmlns:xlink="http://www.w3.org/1999/xlink" version="1.1" x="0" y="0" height="100" width="800" viewBox="0 0 800 100" preserveAspectRatio="none"  >
<g label="Query sequence" class="clusterblast-cluster"  >
<text x="5" y="20" class="clusterblast-acc"  >
Query sequence</text>
<line x1="10" y1="35" x2="778.0" y2="35" style="stroke-width:1; stroke:grey; "  />
<polygon points="0,35 5,30 30,30 30,40 5,40 0,35 " style="fill:white; stroke-width:1; stroke:black; " description="&lt;b&gt;ctg1_22&lt;/b&gt;&lt;br&gt;ctg1 22&lt;br&gt;Location: 21070 - 21823" locus_tag="ctg1_22" class="clusterblast-orf" id="knownclusterblast-1_q0_0_all"  />
<polygon points="37,35 42,30 58,30 58,40 42,40 37,35 " style="fill:white; stroke-width:1; stroke:black; " description="&lt;b&gt;ctg1_23&lt;/b&gt;&lt;br&gt;ctg1 23&lt;br&gt;Location: 22018 - 22534" locus_tag="ctg1_23" class="clusterblast-orf" id="knownclusterblast-1_q1_0_all"  />
<polygon points="68,40 85,40 90,35 85,30 68,30 68,40 " style="fill:white; stroke-width:1; stroke:black; " description="&lt;b&gt;ctg1_24&lt;/b&gt;&lt;br&gt;ctg1 24&lt;br&gt;Location: 22791 - 23355" locus_tag="ctg1_24" class="clusterblast-orf" id="knownclusterblast-1_q2_0_all"  />
<polygon points="107,40 147,40 152,35 147,30 107,30 107,40 " style="fill:white; stroke-width:1; stroke:black; " description="&lt;b&gt;ctg1_25&lt;/b&gt;&lt;br&gt;ctg1 25&lt;br&gt;Location: 23765 - 24920" locus_tag="ctg1_25" class="clusterblast-orf" id="knownclusterblast-1_q3_0_all"  />
<polygon points="158,40 192,40 197,35 192,30 158,30 158,40 " style="fill:white; stroke-width:1; stroke:black; " description="&lt;b&gt;ctg1_26&lt;/b&gt;&lt;br&gt;ctg1 26&lt;br&gt;Location: 25065 - 26049" locus_tag="ctg1_26" class="clusterblast-orf" id="knownclusterblast-1_q4_0_all"  />
<polygon points="216,40 266,40 271,35 266,30 216,30 216,40 " style="fill:white; stroke-width:1; stroke:black; " description="&lt;b&gt;ctg1_27&lt;/b&gt;&lt;br&gt;ctg1 27&lt;br&gt;Location: 26535 - 27909" locus_tag="ctg1_27" class="clusterblast-orf" id="knownclusterblast-1_q5_0_all"  />
<polygon points="273,35 278,30 310,30 310,40 278,40 273,35 " style="fill:white; stroke-width:1; stroke:black; " description="&lt;b&gt;ctg1_28&lt;/b&gt;&lt;br&gt;ctg1 28&lt;br&gt;Location: 27952 - 28888" locus_tag="ctg1_28" class="clusterblast-orf" id="knownclusterblast-1_q6_0_all"  />
<polygon points="324,40 332,40 337,35 332,30 324,30 324,40 " style="fill:white; stroke-width:1; stroke:black; " description="&lt;b&gt;ctg1_29&lt;/b&gt;&lt;br&gt;ctg1 29&lt;br&gt;Location: 29243 - 29582" locus_tag="ctg1_29" class="clusterblast-orf" id="knownclusterblast-1_q7_0_all"  />
<polygon points="339,35 344,30 356,30 356,40 344,40 339,35 " style="fill:white; stroke-width:1; stroke:black; " description="&lt;b&gt;ctg1_30&lt;/b&gt;&lt;br&gt;ctg1 30&lt;br&gt;Location: 29631 - 30066" locus_tag="ctg1_30" class="clusterblast-orf" id="knownclusterblast-1_q8_0_all"  />
<polygon points="375,35 380,30 515,30 515,40 380,40 375,35 " style="fill:#d81515; stroke-width:1; stroke:black; " description="&lt;b&gt;ctg1_31&lt;/b&gt;&lt;br&gt;ctg1 31&lt;br&gt;Location: 30547 - 34072" locus_tag="ctg1_31" class="clusterblast-orf" id="knownclusterblast-1_q9_0_all"  />
<polygon points="526,40 531,40 536,35 531,30 526,30 526,40 " style="fill:white; stroke-width:1; stroke:black; " description="&lt;b&gt;ctg1_32&lt;/b&gt;&lt;br&gt;ctg1 32&lt;br&gt;Location: 34347 - 34614" locus_tag="ctg1_32" class="clusterblast-orf" id="knownclusterblast-1_q10_0_all"  />
<polygon points="538,35 543,30 554,30 554,40 543,40 538,35 " style="fill:white; stroke-width:1; stroke:black; " description="&lt;b&gt;ctg1_33&lt;/b&gt;&lt;br&gt;ctg1 33&lt;br&gt;Location: 34657 - 35068" locus_tag="ctg1_33" class="clusterblast-orf" id="knownclusterblast-1_q11_0_all"  />
<polygon points="559,35 564,30 598,30 598,40 564,40 559,35 " style="fill:white; stroke-width:1; stroke:black; " description="&lt;b&gt;ctg1_34&lt;/b&gt;&lt;br&gt;ctg1 34&lt;br&gt;Location: 35178 - 36168" locus_tag="ctg1_34" class="clusterblast-orf" id="knownclusterblast-1_q12_0_all"  />
<polygon points="607,40 707,40 712,35 707,30 607,30 607,40 " style="fill:white; stroke-width:1; stroke:black; " description="&lt;b&gt;ctg1_35&lt;/b&gt;&lt;br&gt;ctg1 35&lt;br&gt;Location: 36407 - 39044" locus_tag="ctg1_35" class="clusterblast-orf" id="knownclusterblast-1_q13_0_all"  />
<polygon points="712,40 714,40 719,35 714,30 712,30 712,40 " style="fill:white; stroke-width:1; stroke:black; " description="&lt;b&gt;ctg1_36&lt;/b&gt;&lt;br&gt;ctg1 36&lt;br&gt;Location: 39043 - 39235" locus_tag="ctg1_36" class="clusterblast-orf" id="knownclusterblast-1_q14_0_all"  />
<polygon points="720,40 728,40 733,35 728,30 720,30 720,40 " style="fill:white; stroke-width:1; stroke:black; " description="&lt;b&gt;ctg1_37&lt;/b&gt;&lt;br&gt;ctg1 37&lt;br&gt;Location: 39242 - 39566" locus_tag="ctg1_37" class="clusterblast-orf" id="knownclusterblast-1_q15_0_all"  />
<polygon points="743,40 751,40 756,35 751,30 743,30 743,40 " style="fill:white; stroke-width:1; stroke:black; " description="&lt;b&gt;ctg1_38&lt;/b&gt;&lt;br&gt;ctg1 38&lt;br&gt;Location: 39837 - 40158" locus_tag="ctg1_38" class="clusterblast-orf" id="knownclusterblast-1_q16_0_all"  />
<polygon points="756,35 761,30 780,30 780,40 761,40 756,35 " style="fill:white; stroke-width:1; stroke:black; " description="&lt;b&gt;ctg1_39&lt;/b&gt;&lt;br&gt;ctg1 39&lt;br&gt;Location: 40154 - 40760" locus_tag="ctg1_39" class="clusterblast-orf" id="knownclusterblast-1_q17_0_all"  />
</g>
<g label="MGC00000033" description="MGC00000033_c1: PFOR II pathway B. thetaiotaomicron (100% of genes show similarity), PFORII" class="clusterblast-cluster"  >
<text x="5" y="70" class="clusterblast-acc"  >
MGC00000033_c1: PFOR II pathway B. thetaiotaomicron (100% of genes show similarity), PFORII</text>
<line x1="10" y1="85" x2="778.0" y2="85" style="stroke-width:1; stroke:grey; "  />
</g>
<g id="a1_000"  >
<polygon points="319,85 324,80 460,80 460,90 324,90 319,85 " style="fill:#d81515; stroke-width:1; stroke:black; " description="&lt;b&gt;BT_1747&lt;/b&gt;&lt;br&gt;pyruvate-flavodoxin oxidoreductase&lt;br&gt;Location: 13558 - 10000&lt;br&gt;&lt;br&gt;&lt;b&gt;BlastP hit with ctg1_31&lt;/b&gt;&lt;br&gt;Percentage identity: 48&lt;br&gt;Percentage coverage: 102&lt;br&gt;BLAST bit score: 1044&lt;br&gt;E-value: 0.0" locus_tag="BT_1747" class="clusterblast-orf" id="knownclusterblast-1_all_1_1_0"  />
</g>
</svg>
