<svg xmlns="http://www.w3.org/2000/svg" xmlns:xlink="http://www.w3.org/1999/xlink" version="1.1" x="0" y="0" height="230" width="800" viewBox="0 0 800 230" preserveAspectRatio="none"  >
<g label="Query sequence" class="clusterblast-cluster"  >
<text x="5" y="20" class="clusterblast-acc"  >
Query sequence</text>
<line x1="10" y1="35" x2="778.0" y2="35" style="stroke-width:1; stroke:grey; "  />
<polygon points="0,40 48,40 53,35 48,30 0,30 0,40 " style="fill:white; stroke-width:1; stroke:black; " description="&lt;b&gt;ctg43_181&lt;/b&gt;&lt;br&gt;ctg43 181&lt;br&gt;Location: 206646 - 208923" locus_tag="ctg43_181" class="clusterblast-orf" id="dummy-1_q0_0_all"  />
<polygon points="54,40 62,40 67,35 62,30 54,30 54,40 " style="fill:white; stroke-width:1; stroke:black; " description="&lt;b&gt;ctg43_182&lt;/b&gt;&lt;br&gt;ctg43 182&lt;br&gt;Location: 208937 - 209516" locus_tag="ctg43_182" class="clusterblast-orf" id="dummy-1_q1_0_all"  />
<polygon points="67,40 80,40 85,35 80,30 67,30 67,40 " style="fill:white; stroke-width:1; stroke:black; " description="&lt;b&gt;ctg43_183&lt;/b&gt;&lt;br&gt;ctg43 183&lt;br&gt;Location: 209512 - 210277" locus_tag="ctg43_183" class="clusterblast-orf" id="dummy-1_q2_0_all"  />
<polygon points="88,40 111,40 116,35 111,30 88,30 88,40 " style="fill:white; stroke-width:1; stroke:black; " description="&lt;b&gt;ctg43_184&lt;/b&gt;&lt;br&gt;ctg43 184&lt;br&gt;Location: 210400 - 211573" locus_tag="ctg43_184" class="clusterblast-orf" id="dummy-1_q3_0_all"  />
<polygon points="119,40 125,40 130,35 125,30 119,30 119,40 " style="fill:white; stroke-width:1; stroke:black; " description="&lt;b&gt;ctg43_185&lt;/b&gt;&lt;br&gt;ctg43 185&lt;br&gt;Location: 211725 - 212193" locus_tag="ctg43_185" class="clusterblast-orf" id="dummy-1_q4_0_all"  />
<polygon points="133,40 153,40 158,35 153,30 133,30 133,40 " style="fill:white; stroke-width:1; stroke:black; " description="&lt;b&gt;ctg43_186&lt;/b&gt;&lt;br&gt;ctg43 186&lt;br&gt;Location: 212311 - 213370" locus_tag="ctg43_186" class="clusterblast-orf" id="dummy-1_q5_0_all"  />
<polygon points="163,40 166,40 171,35 166,30 163,30 163,40 " style="fill:#d81515; stroke-width:1; stroke:black; " description="&lt;b&gt;ctg43_187&lt;/b&gt;&lt;br&gt;ctg43 187&lt;br&gt;Location: 213614 - 213950" locus_tag="ctg43_187" class="clusterblast-orf" id="dummy-1_q6_0_all"  />
<polygon points="172,35 177,30 193,30 193,40 177,40 172,35 " style="fill:#5cd815; stroke-width:1; stroke:black; " description="&lt;b&gt;ctg43_188&lt;/b&gt;&lt;br&gt;ctg43 188&lt;br&gt;Location: 213983 - 214850" locus_tag="ctg43_188" class="clusterblast-orf" id="dummy-1_q7_0_all"  />
<polygon points="195,35 200,30 223,30 223,40 200,40 195,35 " style="fill:#15a3d8; stroke-width:1; stroke:black; " description="&lt;b&gt;ctg43_189&lt;/b&gt;&lt;br&gt;ctg43 189&lt;br&gt;Location: 214943 - 216158" locus_tag="ctg43_189" class="clusterblast-orf" id="dummy-1_q8_0_all"  />
<polygon points="223,35 228,30 234,30 234,40 228,40 223,35 " style="fill:#9115d8; stroke-width:1; stroke:black; " description="&lt;b&gt;ctg43_190&lt;/b&gt;&lt;br&gt;ctg43 190&lt;br&gt;Location: 216142 - 216595" locus_tag="ctg43_190" class="clusterblast-orf" id="dummy-1_q9_0_all"  />
<polygon points="234,35 239,30 242,30 242,40 239,40 234,35 " style="fill:#d84a15; stroke-width:1; stroke:black; " description="&lt;b&gt;ctg43_191&lt;/b&gt;&lt;br&gt;ctg43 191&lt;br&gt;Location: 216599 - 216950" locus_tag="ctg43_191" class="clusterblast-orf" id="dummy-1_q10_0_all"  />
<polygon points="242,35 247,30 255,30 255,40 247,40 242,35 " style="fill:#27d815; stroke-width:1; stroke:black; " description="&lt;b&gt;ctg43_192&lt;/b&gt;&lt;br&gt;ctg43 192&lt;br&gt;Location: 216949 - 217504" locus_tag="ctg43_192" class="clusterblast-orf" id="dummy-1_q11_0_all"  />
<polygon points="255,35 260,30 287,30 287,40 260,40 255,35 " style="fill:#156ed8; stroke-width:1; stroke:black; " description="&lt;b&gt;ctg43_193&lt;/b&gt;&lt;br&gt;ctg43 193&lt;br&gt;Location: 217506 - 218862" locus_tag="ctg43_193" class="clusterblast-orf" id="dummy-1_q12_0_all"  />
<polygon points="287,35 292,30 313,30 313,40 292,40 287,35 " style="fill:#c715d8; stroke-width:1; stroke:black; " description="&lt;b&gt;ctg43_194&lt;/b&gt;&lt;br&gt;ctg43 194&lt;br&gt;Location: 218858 - 219971" locus_tag="ctg43_194" class="clusterblast-orf" id="dummy-1_q13_0_all"  />
<polygon points="313,35 318,30 346,30 346,40 318,40 313,35 " style="fill:#d88015; stroke-width:1; stroke:black; " description="&lt;b&gt;ctg43_195&lt;/b&gt;&lt;br&gt;ctg43 195&lt;br&gt;Location: 219982 - 221377" locus_tag="ctg43_195" class="clusterblast-orf" id="dummy-1_q14_0_all"  />
<polygon points="346,35 351,30 370,30 370,40 351,40 346,35 " style="fill:#15d839; stroke-width:1; stroke:black; " description="&lt;b&gt;ctg43_196&lt;/b&gt;&lt;br&gt;ctg43 196&lt;br&gt;Location: 221373 - 222384" locus_tag="ctg43_196" class="clusterblast-orf" id="dummy-1_q15_0_all"  />
<polygon points="370,35 375,30 376,30 376,40 375,40 370,35 " style="fill:#1539d8; stroke-width:1; stroke:black; " description="&lt;b&gt;ctg43_197&lt;/b&gt;&lt;br&gt;ctg43 197&lt;br&gt;Location: 222393 - 222669" locus_tag="ctg43_197" class="clusterblast-orf" id="dummy-1_q16_0_all"  />
<polygon points="376,35 381,30 388,30 388,40 381,40 376,35 " style="fill:#d815b5; stroke-width:1; stroke:black; " description="&lt;b&gt;ctg43_198&lt;/b&gt;&lt;br&gt;ctg43 198&lt;br&gt;Location: 222672 - 223164" locus_tag="ctg43_198" class="clusterblast-orf" id="dummy-1_q17_0_all"  />
<polygon points="388,35 393,30 403,30 403,40 393,40 388,35 " style="fill:#d8b515; stroke-width:1; stroke:black; " description="&lt;b&gt;ctg43_199&lt;/b&gt;&lt;br&gt;ctg43 199&lt;br&gt;Location: 223160 - 223793" locus_tag="ctg43_199" class="clusterblast-orf" id="dummy-1_q18_0_all"  />
<polygon points="403,35 408,30 414,30 414,40 408,40 403,35 " style="fill:#15d86e; stroke-width:1; stroke:black; " description="&lt;b&gt;ctg43_200&lt;/b&gt;&lt;br&gt;ctg43 200&lt;br&gt;Location: 223792 - 224254" locus_tag="ctg43_200" class="clusterblast-orf" id="dummy-1_q19_0_all"  />
<polygon points="414,35 419,30 421,30 421,40 419,40 414,35 " style="fill:#27d815; stroke-width:1; stroke:black; " description="&lt;b&gt;ctg43_201&lt;/b&gt;&lt;br&gt;ctg43 201&lt;br&gt;Location: 224278 - 224554" locus_tag="ctg43_201" class="clusterblast-orf" id="dummy-1_q20_0_all"  />
<polygon points="421,35 426,30 429,30 429,40 426,40 421,35 " style="fill:#2715d8; stroke-width:1; stroke:black; " description="&lt;b&gt;ctg43_202&lt;/b&gt;&lt;br&gt;ctg43 202&lt;br&gt;Location: 224572 - 224923" locus_tag="ctg43_202" class="clusterblast-orf" id="dummy-1_q21_0_all"  />
<polygon points="429,35 434,30 472,30 472,40 434,40 429,35 " style="fill:#d81580; stroke-width:1; stroke:black; " description="&lt;b&gt;ctg43_203&lt;/b&gt;&lt;br&gt;ctg43 203&lt;br&gt;Location: 224912 - 226745" locus_tag="ctg43_203" class="clusterblast-orf" id="dummy-1_q22_0_all"  />
<polygon points="472,35 477,30 485,30 485,40 477,40 472,35 " style="fill:#c7d815; stroke-width:1; stroke:black; " description="&lt;b&gt;ctg43_204&lt;/b&gt;&lt;br&gt;ctg43 204&lt;br&gt;Location: 226754 - 227276" locus_tag="ctg43_204" class="clusterblast-orf" id="dummy-1_q23_0_all"  />
<polygon points="485,35 490,30 501,30 501,40 490,40 485,35 " style="fill:#15d8a3; stroke-width:1; stroke:black; " description="&lt;b&gt;ctg43_205&lt;/b&gt;&lt;br&gt;ctg43 205&lt;br&gt;Location: 227290 - 227965" locus_tag="ctg43_205" class="clusterblast-orf" id="dummy-1_q24_0_all"  />
<polygon points="501,35 506,30 540,30 540,40 506,40 501,35 " style="fill:#5c15d8; stroke-width:1; stroke:black; " description="&lt;b&gt;ctg43_206&lt;/b&gt;&lt;br&gt;ctg43 206&lt;br&gt;Location: 227975 - 229640" locus_tag="ctg43_206" class="clusterblast-orf" id="dummy-1_q25_0_all"  />
<polygon points="541,35 546,30 560,30 560,40 546,40 541,35 " style="fill:#d8154a; stroke-width:1; stroke:black; " description="&lt;b&gt;ctg43_207&lt;/b&gt;&lt;br&gt;ctg43 207&lt;br&gt;Location: 229658 - 230471" locus_tag="ctg43_207" class="clusterblast-orf" id="dummy-1_q26_0_all"  />
<polygon points="560,35 565,30 566,30 566,40 565,40 560,35 " style="fill:#27d815; stroke-width:1; stroke:black; " description="&lt;b&gt;ctg43_208&lt;/b&gt;&lt;br&gt;ctg43 208&lt;br&gt;Location: 230467 - 230752" locus_tag="ctg43_208" class="clusterblast-orf" id="dummy-1_q27_0_all"  />
<polygon points="572,40 592,40 597,35 592,30 572,30 572,40 " style="fill:#91d815; stroke-width:1; stroke:black; " description="&lt;b&gt;ctg43_209&lt;/b&gt;&lt;br&gt;ctg43 209&lt;br&gt;Location: 230988 - 232071" locus_tag="ctg43_209" class="clusterblast-orf" id="dummy-1_q28_0_all"  />
<polygon points="602,40 619,40 624,35 619,30 602,30 602,40 " style="fill:#15d8d8; stroke-width:1; stroke:black; " description="&lt;b&gt;ctg43_210&lt;/b&gt;&lt;br&gt;ctg43 210&lt;br&gt;Location: 232287 - 233199" locus_tag="ctg43_210" class="clusterblast-orf" id="dummy-1_q29_0_all"  />
<polygon points="638,40 665,40 670,35 665,30 638,30 638,40 " style="fill:white; stroke-width:1; stroke:black; " description="&lt;b&gt;ctg43_211&lt;/b&gt;&lt;br&gt;ctg43 211&lt;br&gt;Location: 233796 - 235176" locus_tag="ctg43_211" class="clusterblast-orf" id="dummy-1_q30_0_all"  />
<polygon points="670,40 688,40 693,35 688,30 670,30 670,40 " style="fill:white; stroke-width:1; stroke:black; " description="&lt;b&gt;ctg43_212&lt;/b&gt;&lt;br&gt;ctg43 212&lt;br&gt;Location: 235172 - 236132" locus_tag="ctg43_212" class="clusterblast-orf" id="dummy-1_q31_0_all"  />
<polygon points="693,40 703,40 708,35 703,30 693,30 693,40 " style="fill:white; stroke-width:1; stroke:black; " description="&lt;b&gt;ctg43_213&lt;/b&gt;&lt;br&gt;ctg43 213&lt;br&gt;Location: 236142 - 236775" locus_tag="ctg43_213" class="clusterblast-orf" id="dummy-1_q32_0_all"  />
<polygon points="708,40 730,40 735,35 730,30 708,30 708,40 " style="fill:white; stroke-width:1; stroke:black; " description="&lt;b&gt;ctg43_214&lt;/b&gt;&lt;br&gt;ctg43 214&lt;br&gt;Location: 236774 - 237914" locus_tag="ctg43_214" class="clusterblast-orf" id="dummy-1_q33_0_all"  />
<polygon points="734,40 744,40 749,35 744,30 734,30 734,40 " style="fill:white; stroke-width:1; stroke:black; " description="&lt;b&gt;ctg43_215&lt;/b&gt;&lt;br&gt;ctg43 215&lt;br&gt;Location: 237907 - 238513" locus_tag="ctg43_215" class="clusterblast-orf" id="dummy-1_q34_0_all"  />
<polygon points="749,40 757,40 762,35 757,30 749,30 749,40 " style="fill:white; stroke-width:1; stroke:black; " description="&lt;b&gt;ctg43_216&lt;/b&gt;&lt;br&gt;ctg43 216&lt;br&gt;Location: 238541 - 239081" locus_tag="ctg43_216" class="clusterblast-orf" id="dummy-1_q35_0_all"  />
<polygon points="762,40 775,40 780,35 775,30 762,30 762,40 " style="fill:white; stroke-width:1; stroke:black; " description="&lt;b&gt;ctg43_217&lt;/b&gt;&lt;br&gt;ctg43 217&lt;br&gt;Location: 239064 - 239838" locus_tag="ctg43_217" class="clusterblast-orf" id="dummy-1_q36_0_all"  />
</g>
<g label="MGC00000010" description="MGC00000010_c1: Propanediol degradation S. enterica (100% of genes show similarity), PDU" class="clusterblast-cluster"  >
<text x="5" y="70" class="clusterblast-acc"  >
MGC00000010_c1: Propanediol degradation S. enterica (100% of genes show similarity), PDU</text>
<line x1="10" y1="85" x2="778.0" y2="85" style="stroke-width:1; stroke:grey; "  />
</g>
<g id="a1_000"  >
<polygon points="161,90 165,85 161,80 161,90 " style="fill:#d81515; stroke-width:1; stroke:black; " description="&lt;b&gt;STM2059&lt;/b&gt;&lt;br&gt;hypothetical protein&lt;br&gt;Location: 19638 - 19470&lt;br&gt;&lt;br&gt;&lt;b&gt;BlastP hit with ctg43_187&lt;/b&gt;&lt;br&gt;Percentage identity: 100&lt;br&gt;Percentage coverage: 100&lt;br&gt;BLAST bit score: 205&lt;br&gt;E-value: 3.27e-72" locus_tag="STM2059" class="clusterblast-orf" id="dummy-1_h1_1_0"  />
</g>
<g id="a1_001"  >
<polygon points="166,85 171,80 187,80 187,90 171,90 166,85 " style="fill:#5cd815; stroke-width:1; stroke:black; " description="&lt;b&gt;STM2058&lt;/b&gt;&lt;br&gt;L-threonine kinase&lt;br&gt;Location: 19437 - 18534&lt;br&gt;&lt;br&gt;&lt;b&gt;BlastP hit with ctg43_188&lt;/b&gt;&lt;br&gt;Percentage identity: 100&lt;br&gt;Percentage coverage: 100&lt;br&gt;BLAST bit score: 566&lt;br&gt;E-value: 2.39e-209" locus_tag="STM2058" class="clusterblast-orf" id="dummy-1_h1_1_1"  />
</g>
<g id="a1_002"  >
<polygon points="189,85 194,80 217,80 217,90 194,90 189,85 " style="fill:#15a3d8; stroke-width:1; stroke:black; " description="&lt;b&gt;STM2057&lt;/b&gt;&lt;br&gt;propionate kinase&lt;br&gt;Location: 18477 - 17262&lt;br&gt;&lt;br&gt;&lt;b&gt;BlastP hit with ctg43_189&lt;/b&gt;&lt;br&gt;Percentage identity: 100&lt;br&gt;Percentage coverage: 100&lt;br&gt;BLAST bit score: 799&lt;br&gt;E-value: 1.56e-297" locus_tag="STM2057" class="clusterblast-orf" id="dummy-1_h1_1_2"  />
</g>
<g id="a1_003"  >
<polygon points="217,85 222,80 227,80 227,90 222,90 217,85 " style="fill:#9115d8; stroke-width:1; stroke:black; " description="&lt;b&gt;STM2056&lt;/b&gt;&lt;br&gt;propanediol utilization protein PduV&lt;br&gt;Location: 17278 - 16825&lt;br&gt;&lt;br&gt;&lt;b&gt;BlastP hit with ctg43_190&lt;/b&gt;&lt;br&gt;Percentage identity: 100&lt;br&gt;Percentage coverage: 100&lt;br&gt;BLAST bit score: 303&lt;br&gt;E-value: 1.08e-109" locus_tag="STM2056" class="clusterblast-orf" id="dummy-1_h1_1_3"  />
</g>
<g id="a1_004"  >
<polygon points="228,85 233,80 236,80 236,90 233,90 228,85 " style="fill:#d84a15; stroke-width:1; stroke:black; " description="&lt;b&gt;STM2055&lt;/b&gt;&lt;br&gt;propanediol utilization polyhedral body protein PduU&lt;br&gt;Location: 16821 - 16470&lt;br&gt;&lt;br&gt;&lt;b&gt;BlastP hit with ctg43_191&lt;/b&gt;&lt;br&gt;Percentage identity: 100&lt;br&gt;Percentage coverage: 100&lt;br&gt;BLAST bit score: 224&lt;br&gt;E-value: 1.12e-79" locus_tag="STM2055" class="clusterblast-orf" id="dummy-1_h1_1_4"  />
</g>
<g id="a1_005"  >
<polygon points="236,85 241,80 249,80 249,90 241,90 236,85 " style="fill:#27d815; stroke-width:1; stroke:black; " description="&lt;b&gt;STM2054&lt;/b&gt;&lt;br&gt;propanediol utilization polyhedral body protein PduT&lt;br&gt;Location: 16471 - 15916&lt;br&gt;&lt;br&gt;&lt;b&gt;BlastP hit with ctg43_192&lt;/b&gt;&lt;br&gt;Percentage identity: 100&lt;br&gt;Percentage coverage: 100&lt;br&gt;BLAST bit score: 351&lt;br&gt;E-value: 8.66e-128&lt;br&gt;&lt;br&gt;&lt;b&gt;BlastP hit with ctg43_201&lt;/b&gt;&lt;br&gt;Percentage identity: 38&lt;br&gt;Percentage coverage: 70&lt;br&gt;BLAST bit score: 46&lt;br&gt;E-value: 2.92e-09" locus_tag="STM2054" class="clusterblast-orf" id="dummy-1_h1_1_5"  />
</g>
<g id="a1_006"  >
<polygon points="249,85 254,80 281,80 281,90 254,90 249,85 " style="fill:#156ed8; stroke-width:1; stroke:black; " description="&lt;b&gt;STM2053&lt;/b&gt;&lt;br&gt;propanediol utilization polyhedral body protein PduS&lt;br&gt;Location: 15914 - 14558&lt;br&gt;&lt;br&gt;&lt;b&gt;BlastP hit with ctg43_193&lt;/b&gt;&lt;br&gt;Percentage identity: 100&lt;br&gt;Percentage coverage: 100&lt;br&gt;BLAST bit score: 865&lt;br&gt;E-value: 0.0" locus_tag="STM2053" class="clusterblast-orf" id="dummy-1_h1_1_6"  />
</g>
<g id="a1_007"  >
<polygon points="281,85 286,80 307,80 307,90 286,90 281,85 " style="fill:#c715d8; stroke-width:1; stroke:black; " description="&lt;b&gt;STM2052&lt;/b&gt;&lt;br&gt;propanol dehydrogenase&lt;br&gt;Location: 14562 - 13449&lt;br&gt;&lt;br&gt;&lt;b&gt;BlastP hit with ctg43_194&lt;/b&gt;&lt;br&gt;Percentage identity: 100&lt;br&gt;Percentage coverage: 100&lt;br&gt;BLAST bit score: 717&lt;br&gt;E-value: 2.26e-266" locus_tag="STM2052" class="clusterblast-orf" id="dummy-1_h1_1_7"  />
</g>
<g id="a1_008"  >
<polygon points="307,85 312,80 340,80 340,90 312,90 307,85 " style="fill:#d88015; stroke-width:1; stroke:black; " description="&lt;b&gt;STM2051&lt;/b&gt;&lt;br&gt;CoA-dependent propionaldehyde dehydrogenase&lt;br&gt;Location: 13438 - 12043&lt;br&gt;&lt;br&gt;&lt;b&gt;BlastP hit with ctg43_195&lt;/b&gt;&lt;br&gt;Percentage identity: 100&lt;br&gt;Percentage coverage: 100&lt;br&gt;BLAST bit score: 885&lt;br&gt;E-value: 0.0" locus_tag="STM2051" class="clusterblast-orf" id="dummy-1_h1_1_8"  />
</g>
<g id="a1_009"  >
<polygon points="340,85 345,80 363,80 363,90 345,90 340,85 " style="fill:#15d839; stroke-width:1; stroke:black; " description="&lt;b&gt;STM2050&lt;/b&gt;&lt;br&gt;propanediol utilization protein PduO&lt;br&gt;Location: 12047 - 11036&lt;br&gt;&lt;br&gt;&lt;b&gt;BlastP hit with ctg43_196&lt;/b&gt;&lt;br&gt;Percentage identity: 100&lt;br&gt;Percentage coverage: 100&lt;br&gt;BLAST bit score: 644&lt;br&gt;E-value: 1.03e-238" locus_tag="STM2050" class="clusterblast-orf" id="dummy-1_h1_1_9"  />
</g>
<g id="a1_0010"  >
<polygon points="364,85 369,80 370,80 370,90 369,90 364,85 " style="fill:#1539d8; stroke-width:1; stroke:black; " description="&lt;b&gt;STM2049&lt;/b&gt;&lt;br&gt;propanediol utilization polyhedral body protein PduN&lt;br&gt;Location: 11027 - 10751&lt;br&gt;&lt;br&gt;&lt;b&gt;BlastP hit with ctg43_197&lt;/b&gt;&lt;br&gt;Percentage identity: 100&lt;br&gt;Percentage coverage: 100&lt;br&gt;BLAST bit score: 173&lt;br&gt;E-value: 3.51e-60" locus_tag="STM2049" class="clusterblast-orf" id="dummy-1_h1_1_10"  />
</g>
<g id="a1_0011"  >
<polygon points="370,85 375,80 382,80 382,90 375,90 370,85 " style="fill:#d815b5; stroke-width:1; stroke:black; " description="&lt;b&gt;STM2048&lt;/b&gt;&lt;br&gt;propanediol utilization protein PduM&lt;br&gt;Location: 10748 - 10256&lt;br&gt;&lt;br&gt;&lt;b&gt;BlastP hit with ctg43_198&lt;/b&gt;&lt;br&gt;Percentage identity: 100&lt;br&gt;Percentage coverage: 100&lt;br&gt;BLAST bit score: 313&lt;br&gt;E-value: 2.2e-113" locus_tag="STM2048" class="clusterblast-orf" id="dummy-1_h1_1_11"  />
</g>
<g id="a1_0012"  >
<polygon points="382,85 387,80 397,80 397,90 387,90 382,85 " style="fill:#d8b515; stroke-width:1; stroke:black; " description="&lt;b&gt;STM2047&lt;/b&gt;&lt;br&gt;phosphate propanoyltransferase&lt;br&gt;Location: 10260 - 9627&lt;br&gt;&lt;br&gt;&lt;b&gt;BlastP hit with ctg43_199&lt;/b&gt;&lt;br&gt;Percentage identity: 100&lt;br&gt;Percentage coverage: 100&lt;br&gt;BLAST bit score: 412&lt;br&gt;E-value: 7.25e-151" locus_tag="STM2047" class="clusterblast-orf" id="dummy-1_h1_1_12"  />
</g>
<g id="a1_0013"  >
<polygon points="397,85 402,80 407,80 407,90 402,90 397,85 " style="fill:#15d86e; stroke-width:1; stroke:black; " description="&lt;b&gt;STM2046&lt;/b&gt;&lt;br&gt;propanediol utilization polyhedral body protein PduK&lt;br&gt;Location: 9628 - 9166&lt;br&gt;&lt;br&gt;&lt;b&gt;BlastP hit with ctg43_200&lt;/b&gt;&lt;br&gt;Percentage identity: 99&lt;br&gt;Percentage coverage: 100&lt;br&gt;BLAST bit score: 288&lt;br&gt;E-value: 5.96e-104" locus_tag="STM2046" class="clusterblast-orf" id="dummy-1_h1_1_13"  />
</g>
<g id="a1_0014"  >
<polygon points="408,85 413,80 414,80 414,90 413,90 408,85 " style="fill:#27d815; stroke-width:1; stroke:black; " description="&lt;b&gt;STM2045&lt;/b&gt;&lt;br&gt;propanediol utilization polyhedral body protein PduJ&lt;br&gt;Location: 9142 - 8866&lt;br&gt;&lt;br&gt;&lt;b&gt;BlastP hit with ctg43_201&lt;/b&gt;&lt;br&gt;Percentage identity: 100&lt;br&gt;Percentage coverage: 100&lt;br&gt;BLAST bit score: 167&lt;br&gt;E-value: 4.8e-58&lt;br&gt;&lt;br&gt;&lt;b&gt;BlastP hit with ctg43_208&lt;/b&gt;&lt;br&gt;Percentage identity: 84&lt;br&gt;Percentage coverage: 93&lt;br&gt;BLAST bit score: 132&lt;br&gt;E-value: 8.3e-44" locus_tag="STM2045" class="clusterblast-orf" id="dummy-1_h1_1_14"  />
</g>
<g id="a1_0015"  >
<polygon points="415,85 420,80 423,80 423,90 420,90 415,85 " style="fill:#2715d8; stroke-width:1; stroke:black; " description="&lt;b&gt;STM2044&lt;/b&gt;&lt;br&gt;propanediol dehydratase reactivation protein&lt;br&gt;Location: 8848 - 8497&lt;br&gt;&lt;br&gt;&lt;b&gt;BlastP hit with ctg43_202&lt;/b&gt;&lt;br&gt;Percentage identity: 100&lt;br&gt;Percentage coverage: 100&lt;br&gt;BLAST bit score: 242&lt;br&gt;E-value: 7.53e-87" locus_tag="STM2044" class="clusterblast-orf" id="dummy-1_h1_1_15"  />
</g>
<g id="a1_0016"  >
<polygon points="423,85 428,80 466,80 466,90 428,90 423,85 " style="fill:#d81580; stroke-width:1; stroke:black; " description="&lt;b&gt;STM2043&lt;/b&gt;&lt;br&gt;propanediol dehydratase reactivation protein&lt;br&gt;Location: 8508 - 6675&lt;br&gt;&lt;br&gt;&lt;b&gt;BlastP hit with ctg43_203&lt;/b&gt;&lt;br&gt;Percentage identity: 100&lt;br&gt;Percentage coverage: 100&lt;br&gt;BLAST bit score: 1153&lt;br&gt;E-value: 0.0" locus_tag="STM2043" class="clusterblast-orf" id="dummy-1_h1_1_16"  />
</g>
<g id="a1_0017"  >
<polygon points="466,85 471,80 478,80 478,90 471,90 466,85 " style="fill:#c7d815; stroke-width:1; stroke:black; " description="&lt;b&gt;STM2042&lt;/b&gt;&lt;br&gt;propanediol dehydratase small subunit&lt;br&gt;Location: 6666 - 6144&lt;br&gt;&lt;br&gt;&lt;b&gt;BlastP hit with ctg43_204&lt;/b&gt;&lt;br&gt;Percentage identity: 100&lt;br&gt;Percentage coverage: 100&lt;br&gt;BLAST bit score: 330&lt;br&gt;E-value: 1.3e-119" locus_tag="STM2042" class="clusterblast-orf" id="dummy-1_h1_1_17"  />
</g>
<g id="a1_0018"  >
<polygon points="479,85 484,80 495,80 495,90 484,90 479,85 " style="fill:#15d8a3; stroke-width:1; stroke:black; " description="&lt;b&gt;STM2041&lt;/b&gt;&lt;br&gt;propanediol dehydratase medium subunit&lt;br&gt;Location: 6130 - 5455&lt;br&gt;&lt;br&gt;&lt;b&gt;BlastP hit with ctg43_205&lt;/b&gt;&lt;br&gt;Percentage identity: 100&lt;br&gt;Percentage coverage: 100&lt;br&gt;BLAST bit score: 427&lt;br&gt;E-value: 1.19e-156" locus_tag="STM2041" class="clusterblast-orf" id="dummy-1_h1_1_18"  />
</g>
<g id="a1_0019"  >
<polygon points="495,85 500,80 534,80 534,90 500,90 495,85 " style="fill:#5c15d8; stroke-width:1; stroke:black; " description="&lt;b&gt;STM2040&lt;/b&gt;&lt;br&gt;propanediol dehydratase large subunit&lt;br&gt;Location: 5445 - 3780&lt;br&gt;&lt;br&gt;&lt;b&gt;BlastP hit with ctg43_206&lt;/b&gt;&lt;br&gt;Percentage identity: 100&lt;br&gt;Percentage coverage: 100&lt;br&gt;BLAST bit score: 1087&lt;br&gt;E-value: 0.0" locus_tag="STM2040" class="clusterblast-orf" id="dummy-1_h1_1_19"  />
</g>
<g id="a1_0020"  >
<polygon points="534,85 539,80 554,80 554,90 539,90 534,85 " style="fill:#d8154a; stroke-width:1; stroke:black; " description="&lt;b&gt;STM2039&lt;/b&gt;&lt;br&gt;propanediol utilization polyhedral body protein PduB&lt;br&gt;Location: 3762 - 2949&lt;br&gt;&lt;br&gt;&lt;b&gt;BlastP hit with ctg43_207&lt;/b&gt;&lt;br&gt;Percentage identity: 100&lt;br&gt;Percentage coverage: 100&lt;br&gt;BLAST bit score: 503&lt;br&gt;E-value: 7.67e-185" locus_tag="STM2039" class="clusterblast-orf" id="dummy-1_h1_1_20"  />
</g>
<g id="a1_0021"  >
<polygon points="553,85 558,80 560,80 560,90 558,90 553,85 " style="fill:#27d815; stroke-width:1; stroke:black; " description="&lt;b&gt;STM2038&lt;/b&gt;&lt;br&gt;propanediol utilization polyhedral body protein PduA&lt;br&gt;Location: 2953 - 2668&lt;br&gt;&lt;br&gt;&lt;b&gt;BlastP hit with ctg43_201&lt;/b&gt;&lt;br&gt;Percentage identity: 85&lt;br&gt;Percentage coverage: 95&lt;br&gt;BLAST bit score: 134&lt;br&gt;E-value: 6.88e-45&lt;br&gt;&lt;br&gt;&lt;b&gt;BlastP hit with ctg43_208&lt;/b&gt;&lt;br&gt;Percentage identity: 100&lt;br&gt;Percentage coverage: 100&lt;br&gt;BLAST bit score: 170&lt;br&gt;E-value: 5.1e-59" locus_tag="STM2038" class="clusterblast-orf" id="dummy-1_h1_1_21"  />
</g>
<g id="a1_0022"  >
<polygon points="572,90 586,90 591,85 586,80 572,80 572,90 " style="fill:#91d815; stroke-width:1; stroke:black; " description="&lt;b&gt;STM2037&lt;/b&gt;&lt;br&gt;propanediol diffusion facilitator&lt;br&gt;Location: 2144 - 1349&lt;br&gt;&lt;br&gt;&lt;b&gt;BlastP hit with ctg43_209&lt;/b&gt;&lt;br&gt;Percentage identity: 100&lt;br&gt;Percentage coverage: 73&lt;br&gt;BLAST bit score: 533&lt;br&gt;E-value: 2e-195" locus_tag="STM2037" class="clusterblast-orf" id="dummy-1_h1_1_22"  />
</g>
<g id="a1_0023"  >
<polygon points="596,90 613,90 618,85 613,80 596,80 596,90 " style="fill:#15d8d8; stroke-width:1; stroke:black; " description="&lt;b&gt;STM2036&lt;/b&gt;&lt;br&gt;transcriptional regulator PocR&lt;br&gt;Location: 1133 - 221&lt;br&gt;&lt;br&gt;&lt;b&gt;BlastP hit with ctg43_210&lt;/b&gt;&lt;br&gt;Percentage identity: 100&lt;br&gt;Percentage coverage: 100&lt;br&gt;BLAST bit score: 612&lt;br&gt;E-value: 7.14e-227" locus_tag="STM2036" class="clusterblast-orf" id="dummy-1_h1_1_23"  />
</g>
</svg>
