<svg xmlns="http://www.w3.org/2000/svg" xmlns:xlink="http://www.w3.org/1999/xlink" version="1.1" x="0" y="0" height="100" width="800" viewBox="0 0 800 100" preserveAspectRatio="none"  >
<g label="Query sequence" class="clusterblast-cluster"  >
<text x="5" y="20" class="clusterblast-acc"  >
Query sequence</text>
<line x1="10" y1="35" x2="778.0" y2="35" style="stroke-width:1; stroke:grey; "  />
<polygon points="0,35 5,30 5,30 5,40 5,40 0,35 " style="fill:white; stroke-width:1; stroke:black; " description="&lt;b&gt;ctg13_9&lt;/b&gt;&lt;br&gt;ctg13 9&lt;br&gt;Location: 7216 - 7390" locus_tag="ctg13_9" class="clusterblast-orf" id="knownclusterblast-1_q0_0_all"  />
<polygon points="15,35 20,30 81,30 81,40 20,40 15,35 " style="fill:white; stroke-width:1; stroke:black; " description="&lt;b&gt;ctg13_10&lt;/b&gt;&lt;br&gt;ctg13 10&lt;br&gt;Location: 7698 - 9720" locus_tag="ctg13_10" class="clusterblast-orf" id="knownclusterblast-1_q1_0_all"  />
<polygon points="81,35 86,30 90,30 90,40 86,40 81,35 " style="fill:white; stroke-width:1; stroke:black; " description="&lt;b&gt;ctg13_11&lt;/b&gt;&lt;br&gt;ctg13 11&lt;br&gt;Location: 9716 - 9995" locus_tag="ctg13_11" class="clusterblast-orf" id="knownclusterblast-1_q2_0_all"  />
<polygon points="102,35 107,30 124,30 124,40 107,40 102,35 " style="fill:white; stroke-width:1; stroke:black; " description="&lt;b&gt;ctg13_12&lt;/b&gt;&lt;br&gt;ctg13 12&lt;br&gt;Location: 10370 - 11057" locus_tag="ctg13_12" class="clusterblast-orf" id="knownclusterblast-1_q3_0_all"  />
<polygon points="124,35 129,30 149,30 149,40 129,40 124,35 " style="fill:white; stroke-width:1; stroke:black; " description="&lt;b&gt;ctg13_13&lt;/b&gt;&lt;br&gt;ctg13 13&lt;br&gt;Location: 11049 - 11805" locus_tag="ctg13_13" class="clusterblast-orf" id="knownclusterblast-1_q4_0_all"  />
<polygon points="148,35 153,30 186,30 186,40 153,40 148,35 " style="fill:white; stroke-width:1; stroke:black; " description="&lt;b&gt;ctg13_14&lt;/b&gt;&lt;br&gt;ctg13 14&lt;br&gt;Location: 11788 - 12946" locus_tag="ctg13_14" class="clusterblast-orf" id="knownclusterblast-1_q5_0_all"  />
<polygon points="186,35 191,30 219,30 219,40 191,40 186,35 " style="fill:white; stroke-width:1; stroke:black; " description="&lt;b&gt;ctg13_15&lt;/b&gt;&lt;br&gt;ctg13 15&lt;br&gt;Location: 12942 - 13983" locus_tag="ctg13_15" class="clusterblast-orf" id="knownclusterblast-1_q6_0_all"  />
<polygon points="222,40 259,40 264,35 259,30 222,30 222,40 " style="fill:white; stroke-width:1; stroke:black; " description="&lt;b&gt;ctg13_16&lt;/b&gt;&lt;br&gt;ctg13 16&lt;br&gt;Location: 14069 - 15359" locus_tag="ctg13_16" class="clusterblast-orf" id="knownclusterblast-1_q7_0_all"  />
<polygon points="266,40 276,40 281,35 276,30 266,30 266,40 " style="fill:white; stroke-width:1; stroke:black; " description="&lt;b&gt;ctg13_17&lt;/b&gt;&lt;br&gt;ctg13 17&lt;br&gt;Location: 15416 - 15893" locus_tag="ctg13_17" class="clusterblast-orf" id="knownclusterblast-1_q8_0_all"  />
<polygon points="284,35 289,30 333,30 333,40 289,40 284,35 " style="fill:#d81515; stroke-width:1; stroke:black; " description="&lt;b&gt;ctg13_18&lt;/b&gt;&lt;br&gt;ctg13 18&lt;br&gt;Location: 15977 - 17498" locus_tag="ctg13_18" class="clusterblast-orf" id="knownclusterblast-1_q9_0_all"  />
<polygon points="333,35 338,30 388,30 388,40 338,40 333,35 " style="fill:#15d863; stroke-width:1; stroke:black; " description="&lt;b&gt;ctg13_19&lt;/b&gt;&lt;br&gt;ctg13 19&lt;br&gt;Location: 17499 - 19185" locus_tag="ctg13_19" class="clusterblast-orf" id="knownclusterblast-1_q10_0_all"  />
<polygon points="395,35 400,30 418,30 418,40 400,40 395,35 " style="fill:#1563d8; stroke-width:1; stroke:black; " description="&lt;b&gt;ctg13_20&lt;/b&gt;&lt;br&gt;ctg13 20&lt;br&gt;Location: 19381 - 20107" locus_tag="ctg13_20" class="clusterblast-orf" id="knownclusterblast-1_q11_0_all"  />
<polygon points="420,35 425,30 450,30 450,40 425,40 420,35 " style="fill:#b115d8; stroke-width:1; stroke:black; " description="&lt;b&gt;ctg13_21&lt;/b&gt;&lt;br&gt;ctg13 21&lt;br&gt;Location: 20151 - 21093" locus_tag="ctg13_21" class="clusterblast-orf" id="knownclusterblast-1_q12_0_all"  />
<polygon points="450,35 455,30 488,30 488,40 455,40 450,35 " style="fill:#b1d815; stroke-width:1; stroke:black; " description="&lt;b&gt;ctg13_22&lt;/b&gt;&lt;br&gt;ctg13 22&lt;br&gt;Location: 21089 - 22259" locus_tag="ctg13_22" class="clusterblast-orf" id="knownclusterblast-1_q13_0_all"  />
<polygon points="497,40 534,40 539,35 534,30 497,30 497,40 " style="fill:white; stroke-width:1; stroke:black; " description="&lt;b&gt;ctg13_23&lt;/b&gt;&lt;br&gt;ctg13 23&lt;br&gt;Location: 22550 - 23834" locus_tag="ctg13_23" class="clusterblast-orf" id="knownclusterblast-1_q14_0_all"  />
<polygon points="544,35 549,30 576,30 576,40 549,40 544,35 " style="fill:white; stroke-width:1; stroke:black; " description="&lt;b&gt;ctg13_24&lt;/b&gt;&lt;br&gt;ctg13 24&lt;br&gt;Location: 23977 - 24973" locus_tag="ctg13_24" class="clusterblast-orf" id="knownclusterblast-1_q15_0_all"  />
<polygon points="581,40 603,40 608,35 603,30 581,30 581,40 " style="fill:white; stroke-width:1; stroke:black; " description="&lt;b&gt;ctg13_25&lt;/b&gt;&lt;br&gt;ctg13 25&lt;br&gt;Location: 25136 - 25955" locus_tag="ctg13_25" class="clusterblast-orf" id="knownclusterblast-1_q16_0_all"  />
<polygon points="608,35 613,30 642,30 642,40 613,40 608,35 " style="fill:white; stroke-width:1; stroke:black; " description="&lt;b&gt;ctg13_26&lt;/b&gt;&lt;br&gt;ctg13 26&lt;br&gt;Location: 25955 - 27014" locus_tag="ctg13_26" class="clusterblast-orf" id="knownclusterblast-1_q17_0_all"  />
<polygon points="642,35 647,30 665,30 665,40 647,40 642,35 " style="fill:white; stroke-width:1; stroke:black; " description="&lt;b&gt;ctg13_27&lt;/b&gt;&lt;br&gt;ctg13 27&lt;br&gt;Location: 27016 - 27706" locus_tag="ctg13_27" class="clusterblast-orf" id="knownclusterblast-1_q18_0_all"  />
<polygon points="665,35 670,30 690,30 690,40 670,40 665,35 " style="fill:white; stroke-width:1; stroke:black; " description="&lt;b&gt;ctg13_28&lt;/b&gt;&lt;br&gt;ctg13 28&lt;br&gt;Location: 27705 - 28479" locus_tag="ctg13_28" class="clusterblast-orf" id="knownclusterblast-1_q19_0_all"  />
<polygon points="695,35 700,30 700,30 700,40 700,40 695,35 " style="fill:white; stroke-width:1; stroke:black; " description="&lt;b&gt;ctg13_29&lt;/b&gt;&lt;br&gt;ctg13 29&lt;br&gt;Location: 28645 - 28795" locus_tag="ctg13_29" class="clusterblast-orf" id="knownclusterblast-1_q20_0_all"  />
<polygon points="704,40 725,40 730,35 725,30 704,30 704,40 " style="fill:white; stroke-width:1; stroke:black; " description="&lt;b&gt;ctg13_30&lt;/b&gt;&lt;br&gt;ctg13 30&lt;br&gt;Location: 28923 - 29712" locus_tag="ctg13_30" class="clusterblast-orf" id="knownclusterblast-1_q21_0_all"  />
<polygon points="732,40 775,40 780,35 775,30 732,30 732,40 " style="fill:white; stroke-width:1; stroke:black; " description="&lt;b&gt;ctg13_31&lt;/b&gt;&lt;br&gt;ctg13 31&lt;br&gt;Location: 29779 - 31255" locus_tag="ctg13_31" class="clusterblast-orf" id="knownclusterblast-1_q22_0_all"  />
</g>
<g label="MGC00000029" description="MGC00000029_c1: Histidine to glutamate K. pneumoniae (100% of genes show similarity), GLU" class="clusterblast-cluster"  >
<text x="5" y="70" class="clusterblast-acc"  >
MGC00000029_c1: Histidine to glutamate K. pneumoniae (100% of genes show similarity), GLU</text>
<line x1="10" y1="85" x2="778.0" y2="85" style="stroke-width:1; stroke:grey; "  />
</g>
<g id="a1_000"  >
<polygon points="287,85 292,80 337,80 337,90 292,90 287,85 " style="fill:#d81515; stroke-width:1; stroke:black; " description="&lt;b&gt;KPN_RS04290&lt;/b&gt;&lt;br&gt;histidine ammonia-lyase&lt;br&gt;Location: 16312 - 14785&lt;br&gt;&lt;br&gt;&lt;b&gt;BlastP hit with ctg13_18&lt;/b&gt;&lt;br&gt;Percentage identity: 82&lt;br&gt;Percentage coverage: 100&lt;br&gt;BLAST bit score: 793&lt;br&gt;E-value: 8.67e-292" locus_tag="KPN_RS04290" class="clusterblast-orf" id="knownclusterblast-1_all_1_1_0"  />
</g>
<g id="a1_001"  >
<polygon points="336,85 341,80 391,80 391,90 341,90 336,85 " style="fill:#15d863; stroke-width:1; stroke:black; " description="&lt;b&gt;KPN_RS04285&lt;/b&gt;&lt;br&gt;urocanate hydratase&lt;br&gt;Location: 14789 - 13100&lt;br&gt;&lt;br&gt;&lt;b&gt;BlastP hit with ctg13_19&lt;/b&gt;&lt;br&gt;Percentage identity: 90&lt;br&gt;Percentage coverage: 100&lt;br&gt;BLAST bit score: 1038&lt;br&gt;E-value: 0.0" locus_tag="KPN_RS04285" class="clusterblast-orf" id="knownclusterblast-1_all_1_1_1"  />
</g>
<g id="a1_002"  >
<polygon points="396,85 401,80 419,80 419,90 401,90 396,85 " style="fill:#1563d8; stroke-width:1; stroke:black; " description="&lt;b&gt;KPN_RS04280&lt;/b&gt;&lt;br&gt;histidine utilization repressor&lt;br&gt;Location: 12958 - 12232&lt;br&gt;&lt;br&gt;&lt;b&gt;BlastP hit with ctg13_20&lt;/b&gt;&lt;br&gt;Percentage identity: 79&lt;br&gt;Percentage coverage: 99&lt;br&gt;BLAST bit score: 375&lt;br&gt;E-value: 3.25e-135" locus_tag="KPN_RS04280" class="clusterblast-orf" id="knownclusterblast-1_all_1_1_2"  />
</g>
<g id="a1_003"  >
<polygon points="421,85 426,80 452,80 452,90 426,90 421,85 " style="fill:#b115d8; stroke-width:1; stroke:black; " description="&lt;b&gt;KPN_RS04275&lt;/b&gt;&lt;br&gt;formimidoylglutamase&lt;br&gt;Location: 12171 - 11214&lt;br&gt;&lt;br&gt;&lt;b&gt;BlastP hit with ctg13_21&lt;/b&gt;&lt;br&gt;Percentage identity: 67&lt;br&gt;Percentage coverage: 102&lt;br&gt;BLAST bit score: 418&lt;br&gt;E-value: 7.42e-150" locus_tag="KPN_RS04275" class="clusterblast-orf" id="knownclusterblast-1_all_1_1_3"  />
</g>
<g id="a1_004"  >
<polygon points="452,85 457,80 492,80 492,90 457,90 452,85 " style="fill:#b1d815; stroke-width:1; stroke:black; " description="&lt;b&gt;KPN_RS04270&lt;/b&gt;&lt;br&gt;imidazolonepropionase&lt;br&gt;Location: 11218 - 10000&lt;br&gt;&lt;br&gt;&lt;b&gt;BlastP hit with ctg13_22&lt;/b&gt;&lt;br&gt;Percentage identity: 70&lt;br&gt;Percentage coverage: 100&lt;br&gt;BLAST bit score: 548&lt;br&gt;E-value: 1.23e-198" locus_tag="KPN_RS04270" class="clusterblast-orf" id="knownclusterblast-1_all_1_1_4"  />
</g>
</svg>
