<svg xmlns="http://www.w3.org/2000/svg" xmlns:xlink="http://www.w3.org/1999/xlink" version="1.1" x="0" y="0" height="230" width="800" viewBox="0 0 800 230" preserveAspectRatio="none"  >
<g label="Query sequence" class="clusterblast-cluster"  >
<text x="5" y="20" class="clusterblast-acc"  >
Query sequence</text>
<line x1="10" y1="35" x2="778.0" y2="35" style="stroke-width:1; stroke:grey; "  />
<polygon points="0,40 15,40 20,35 15,30 0,30 0,40 " style="fill:white; stroke-width:1; stroke:black; " description="&lt;b&gt;ctg1_175&lt;/b&gt;&lt;br&gt;ctg1 175&lt;br&gt;Location: 187523 - 188210" locus_tag="ctg1_175" class="clusterblast-orf" id="dummy-3_q0_0_all"  />
<polygon points="26,40 27,40 32,35 27,30 26,30 26,40 " style="fill:white; stroke-width:1; stroke:black; " description="&lt;b&gt;ctg1_176&lt;/b&gt;&lt;br&gt;ctg1 176&lt;br&gt;Location: 188390 - 188594" locus_tag="ctg1_176" class="clusterblast-orf" id="dummy-3_q1_0_all"  />
<polygon points="34,35 39,30 78,30 78,40 39,40 34,35 " style="fill:white; stroke-width:1; stroke:black; " description="&lt;b&gt;ctg1_177&lt;/b&gt;&lt;br&gt;ctg1 177&lt;br&gt;Location: 188660 - 190127" locus_tag="ctg1_177" class="clusterblast-orf" id="dummy-3_q2_0_all"  />
<polygon points="82,35 87,30 94,30 94,40 87,40 82,35 " style="fill:white; stroke-width:1; stroke:black; " description="&lt;b&gt;ctg1_178&lt;/b&gt;&lt;br&gt;ctg1 178&lt;br&gt;Location: 190270 - 190669" locus_tag="ctg1_178" class="clusterblast-orf" id="dummy-3_q3_0_all"  />
<polygon points="94,35 99,30 123,30 123,40 99,40 94,35 " style="fill:white; stroke-width:1; stroke:black; " description="&lt;b&gt;ctg1_179&lt;/b&gt;&lt;br&gt;ctg1 179&lt;br&gt;Location: 190672 - 191650" locus_tag="ctg1_179" class="clusterblast-orf" id="dummy-3_q4_0_all"  />
<polygon points="125,35 130,30 155,30 155,40 130,40 125,35 " style="fill:white; stroke-width:1; stroke:black; " description="&lt;b&gt;ctg1_180&lt;/b&gt;&lt;br&gt;ctg1 180&lt;br&gt;Location: 191703 - 192723" locus_tag="ctg1_180" class="clusterblast-orf" id="dummy-3_q5_0_all"  />
<polygon points="155,35 160,30 192,30 192,40 160,40 155,35 " style="fill:white; stroke-width:1; stroke:black; " description="&lt;b&gt;ctg1_181&lt;/b&gt;&lt;br&gt;ctg1 181&lt;br&gt;Location: 192733 - 193948" locus_tag="ctg1_181" class="clusterblast-orf" id="dummy-3_q6_0_all"  />
<polygon points="195,35 200,30 205,30 205,40 200,40 195,35 " style="fill:white; stroke-width:1; stroke:black; " description="&lt;b&gt;ctg1_182&lt;/b&gt;&lt;br&gt;ctg1 182&lt;br&gt;Location: 194069 - 194405" locus_tag="ctg1_182" class="clusterblast-orf" id="dummy-3_q7_0_all"  />
<polygon points="209,40 215,40 220,35 215,30 209,30 209,40 " style="fill:white; stroke-width:1; stroke:black; " description="&lt;b&gt;ctg1_183&lt;/b&gt;&lt;br&gt;ctg1 183&lt;br&gt;Location: 194548 - 194890" locus_tag="ctg1_183" class="clusterblast-orf" id="dummy-3_q8_0_all"  />
<polygon points="221,40 232,40 237,35 232,30 221,30 221,40 " style="fill:white; stroke-width:1; stroke:black; " description="&lt;b&gt;ctg1_184&lt;/b&gt;&lt;br&gt;ctg1 184&lt;br&gt;Location: 194925 - 195486" locus_tag="ctg1_184" class="clusterblast-orf" id="dummy-3_q9_0_all"  />
<polygon points="239,35 244,30 260,30 260,40 244,40 239,35 " style="fill:white; stroke-width:1; stroke:black; " description="&lt;b&gt;ctg1_185&lt;/b&gt;&lt;br&gt;ctg1 185&lt;br&gt;Location: 195526 - 196246" locus_tag="ctg1_185" class="clusterblast-orf" id="dummy-3_q10_0_all"  />
<polygon points="263,40 267,40 272,35 267,30 263,30 263,40 " style="fill:white; stroke-width:1; stroke:black; " description="&lt;b&gt;ctg1_186&lt;/b&gt;&lt;br&gt;ctg1 186&lt;br&gt;Location: 196343 - 196649" locus_tag="ctg1_186" class="clusterblast-orf" id="dummy-3_q11_0_all"  />
<polygon points="277,40 345,40 350,35 345,30 277,30 277,40 " style="fill:#d81515; stroke-width:1; stroke:black; " description="&lt;b&gt;ctg1_187&lt;/b&gt;&lt;br&gt;ctg1 187&lt;br&gt;Location: 196805 - 199244" locus_tag="ctg1_187" class="clusterblast-orf" id="dummy-3_q12_0_all"  />
<polygon points="353,40 420,40 425,35 420,30 353,30 353,40 " style="fill:#d81515; stroke-width:1; stroke:black; " description="&lt;b&gt;ctg1_188&lt;/b&gt;&lt;br&gt;ctg1 188&lt;br&gt;Location: 199342 - 201778" locus_tag="ctg1_188" class="clusterblast-orf" id="dummy-3_q13_0_all"  />
<polygon points="426,40 439,40 444,35 439,30 426,30 426,40 " style="fill:#15d815; stroke-width:1; stroke:black; " description="&lt;b&gt;ctg1_189&lt;/b&gt;&lt;br&gt;ctg1 189&lt;br&gt;Location: 201788 - 202406" locus_tag="ctg1_189" class="clusterblast-orf" id="dummy-3_q14_0_all"  />
<polygon points="444,40 465,40 470,35 465,30 444,30 444,40 " style="fill:#1515d8; stroke-width:1; stroke:black; " description="&lt;b&gt;ctg1_190&lt;/b&gt;&lt;br&gt;ctg1 190&lt;br&gt;Location: 202407 - 203265" locus_tag="ctg1_190" class="clusterblast-orf" id="dummy-3_q15_0_all"  />
<polygon points="471,40 484,40 489,35 484,30 471,30 471,40 " style="fill:white; stroke-width:1; stroke:black; " description="&lt;b&gt;ctg1_191&lt;/b&gt;&lt;br&gt;ctg1 191&lt;br&gt;Location: 203307 - 203922" locus_tag="ctg1_191" class="clusterblast-orf" id="dummy-3_q16_0_all"  />
<polygon points="498,40 515,40 520,35 515,30 498,30 498,40 " style="fill:white; stroke-width:1; stroke:black; " description="&lt;b&gt;ctg1_192&lt;/b&gt;&lt;br&gt;ctg1 192&lt;br&gt;Location: 204226 - 204937" locus_tag="ctg1_192" class="clusterblast-orf" id="dummy-3_q17_0_all"  />
<polygon points="520,40 542,40 547,35 542,30 520,30 520,40 " style="fill:white; stroke-width:1; stroke:black; " description="&lt;b&gt;ctg1_193&lt;/b&gt;&lt;br&gt;ctg1 193&lt;br&gt;Location: 204965 - 205868" locus_tag="ctg1_193" class="clusterblast-orf" id="dummy-3_q18_0_all"  />
<polygon points="548,40 562,40 567,35 562,30 548,30 548,40 " style="fill:white; stroke-width:1; stroke:black; " description="&lt;b&gt;ctg1_194&lt;/b&gt;&lt;br&gt;ctg1 194&lt;br&gt;Location: 205877 - 206525" locus_tag="ctg1_194" class="clusterblast-orf" id="dummy-3_q19_0_all"  />
<polygon points="567,40 596,40 601,35 596,30 567,30 567,40 " style="fill:white; stroke-width:1; stroke:black; " description="&lt;b&gt;ctg1_195&lt;/b&gt;&lt;br&gt;ctg1 195&lt;br&gt;Location: 206524 - 207673" locus_tag="ctg1_195" class="clusterblast-orf" id="dummy-3_q20_0_all"  />
<polygon points="606,40 639,40 644,35 639,30 606,30 606,40 " style="fill:white; stroke-width:1; stroke:black; " description="&lt;b&gt;ctg1_196&lt;/b&gt;&lt;br&gt;ctg1 196&lt;br&gt;Location: 207844 - 209098" locus_tag="ctg1_196" class="clusterblast-orf" id="dummy-3_q21_0_all"  />
<polygon points="642,35 647,30 663,30 663,40 647,40 642,35 " style="fill:white; stroke-width:1; stroke:black; " description="&lt;b&gt;ctg1_197&lt;/b&gt;&lt;br&gt;ctg1 197&lt;br&gt;Location: 209053 - 209749" locus_tag="ctg1_197" class="clusterblast-orf" id="dummy-3_q22_0_all"  />
<polygon points="667,35 672,30 703,30 703,40 672,40 667,35 " style="fill:white; stroke-width:1; stroke:black; " description="&lt;b&gt;ctg1_198&lt;/b&gt;&lt;br&gt;ctg1 198&lt;br&gt;Location: 209874 - 211095" locus_tag="ctg1_198" class="clusterblast-orf" id="dummy-3_q23_0_all"  />
<polygon points="707,35 712,30 734,30 734,40 712,40 707,35 " style="fill:white; stroke-width:1; stroke:black; " description="&lt;b&gt;ctg1_199&lt;/b&gt;&lt;br&gt;ctg1 199&lt;br&gt;Location: 211222 - 212122" locus_tag="ctg1_199" class="clusterblast-orf" id="dummy-3_q24_0_all"  />
<polygon points="738,40 770,40 775,35 770,30 738,30 738,40 " style="fill:white; stroke-width:1; stroke:black; " description="&lt;b&gt;ctg1_200&lt;/b&gt;&lt;br&gt;ctg1 200&lt;br&gt;Location: 212241 - 213495" locus_tag="ctg1_200" class="clusterblast-orf" id="dummy-3_q25_0_all"  />
<polygon points="777,35 780,30 780,40 777,35 " style="fill:white; stroke-width:1; stroke:black; " description="&lt;b&gt;ctg1_201&lt;/b&gt;&lt;br&gt;ctg1 201&lt;br&gt;Location: 213561 - 213654" locus_tag="ctg1_201" class="clusterblast-orf" id="dummy-3_q26_0_all"  />
</g>
<g label="MGC00000046" description="MGC00000046_c1: DMSO-TMAO reducatse E. coli (100% of genes show similarity), DMSAO-TMAO" class="clusterblast-cluster"  >
<text x="5" y="70" class="clusterblast-acc"  >
MGC00000046_c1: DMSO-TMAO reducatse E. coli (100% of genes show similarity), DMSAO-TMAO</text>
<line x1="10" y1="85" x2="778.0" y2="85" style="stroke-width:1; stroke:grey; "  />
</g>
<g id="a3_000"  >
<polygon points="294,90 362,90 367,85 362,80 294,80 294,90 " style="fill:#d81515; stroke-width:1; stroke:black; " description="&lt;b&gt;b1587&lt;/b&gt;&lt;br&gt;putative selenate reductase YnfE&lt;br&gt;Location: 10000 - 12427&lt;br&gt;&lt;br&gt;&lt;b&gt;BlastP hit with ctg1_187&lt;/b&gt;&lt;br&gt;Percentage identity: 87&lt;br&gt;Percentage coverage: 100&lt;br&gt;BLAST bit score: 1473&lt;br&gt;E-value: 0.0&lt;br&gt;&lt;br&gt;&lt;b&gt;BlastP hit with ctg1_188&lt;/b&gt;&lt;br&gt;Percentage identity: 71&lt;br&gt;Percentage coverage: 99&lt;br&gt;BLAST bit score: 1189&lt;br&gt;E-value: 0.0" locus_tag="b1587" class="clusterblast-orf" id="dummy-3_h3_1_0"  />
</g>
<g id="a3_001"  >
<polygon points="368,90 436,90 441,85 436,80 368,80 368,90 " style="fill:#d81515; stroke-width:1; stroke:black; " description="&lt;b&gt;b1588&lt;/b&gt;&lt;br&gt;putative selenate reductase YnfF&lt;br&gt;Location: 12487 - 14911&lt;br&gt;&lt;br&gt;&lt;b&gt;BlastP hit with ctg1_187&lt;/b&gt;&lt;br&gt;Percentage identity: 71&lt;br&gt;Percentage coverage: 99&lt;br&gt;BLAST bit score: 1207&lt;br&gt;E-value: 0.0&lt;br&gt;&lt;br&gt;&lt;b&gt;BlastP hit with ctg1_188&lt;/b&gt;&lt;br&gt;Percentage identity: 92&lt;br&gt;Percentage coverage: 100&lt;br&gt;BLAST bit score: 1533&lt;br&gt;E-value: 0.0" locus_tag="b1588" class="clusterblast-orf" id="dummy-3_h3_1_1"  />
</g>
<g id="a3_002"  >
<polygon points="441,90 454,90 459,85 454,80 441,80 441,90 " style="fill:#15d815; stroke-width:1; stroke:black; " description="&lt;b&gt;b1589&lt;/b&gt;&lt;br&gt;putative oxidoreductase YnfG&lt;br&gt;Location: 14921 - 15539&lt;br&gt;&lt;br&gt;&lt;b&gt;BlastP hit with ctg1_189&lt;/b&gt;&lt;br&gt;Percentage identity: 92&lt;br&gt;Percentage coverage: 100&lt;br&gt;BLAST bit score: 429&lt;br&gt;E-value: 6.78e-158" locus_tag="b1589" class="clusterblast-orf" id="dummy-3_h3_1_2"  />
</g>
<g id="a3_003"  >
<polygon points="459,90 480,90 485,85 480,80 459,80 459,90 " style="fill:#1515d8; stroke-width:1; stroke:black; " description="&lt;b&gt;b1590&lt;/b&gt;&lt;br&gt;putative menaquinol dehydrogenase&lt;br&gt;Location: 15540 - 16395&lt;br&gt;&lt;br&gt;&lt;b&gt;BlastP hit with ctg1_190&lt;/b&gt;&lt;br&gt;Percentage identity: 77&lt;br&gt;Percentage coverage: 100&lt;br&gt;BLAST bit score: 443&lt;br&gt;E-value: 6.72e-161" locus_tag="b1590" class="clusterblast-orf" id="dummy-3_h3_1_3"  />
</g>
</svg>
