<svg xmlns="http://www.w3.org/2000/svg" xmlns:xlink="http://www.w3.org/1999/xlink" version="1.1" x="0" y="0" height="230" width="800" viewBox="0 0 800 230" preserveAspectRatio="none"  >
<g label="Query sequence" class="clusterblast-cluster"  >
<text x="5" y="20" class="clusterblast-acc"  >
Query sequence</text>
<line x1="10" y1="35" x2="778.0" y2="35" style="stroke-width:1; stroke:grey; "  />
<polygon points="0,40 48,40 53,35 48,30 0,30 0,40 " style="fill:white; stroke-width:1; stroke:black; " description="&lt;b&gt;ctg43_181&lt;/b&gt;&lt;br&gt;ctg43 181&lt;br&gt;Location: 206646 - 208923" locus_tag="ctg43_181" class="clusterblast-orf" id="dummy-1_q0_0_all"  />
<polygon points="54,40 62,40 67,35 62,30 54,30 54,40 " style="fill:white; stroke-width:1; stroke:black; " description="&lt;b&gt;ctg43_182&lt;/b&gt;&lt;br&gt;ctg43 182&lt;br&gt;Location: 208937 - 209516" locus_tag="ctg43_182" class="clusterblast-orf" id="dummy-1_q1_0_all"  />
<polygon points="67,40 80,40 85,35 80,30 67,30 67,40 " style="fill:white; stroke-width:1; stroke:black; " description="&lt;b&gt;ctg43_183&lt;/b&gt;&lt;br&gt;ctg43 183&lt;br&gt;Location: 209512 - 210277" locus_tag="ctg43_183" class="clusterblast-orf" id="dummy-1_q2_0_all"  />
<polygon points="88,40 111,40 116,35 111,30 88,30 88,40 " style="fill:white; stroke-width:1; stroke:black; " description="&lt;b&gt;ctg43_184&lt;/b&gt;&lt;br&gt;ctg43 184&lt;br&gt;Location: 210400 - 211573" locus_tag="ctg43_184" class="clusterblast-orf" id="dummy-1_q3_0_all"  />
<polygon points="119,40 125,40 130,35 125,30 119,30 119,40 " style="fill:white; stroke-width:1; stroke:black; " description="&lt;b&gt;ctg43_185&lt;/b&gt;&lt;br&gt;ctg43 185&lt;br&gt;Location: 211725 - 212193" locus_tag="ctg43_185" class="clusterblast-orf" id="dummy-1_q4_0_all"  />
<polygon points="133,40 153,40 158,35 153,30 133,30 133,40 " style="fill:white; stroke-width:1; stroke:black; " description="&lt;b&gt;ctg43_186&lt;/b&gt;&lt;br&gt;ctg43 186&lt;br&gt;Location: 212311 - 213370" locus_tag="ctg43_186" class="clusterblast-orf" id="dummy-1_q5_0_all"  />
<polygon points="163,40 166,40 171,35 166,30 163,30 163,40 " style="fill:#d81515; stroke-width:1; stroke:black; " description="&lt;b&gt;ctg43_187&lt;/b&gt;&lt;br&gt;ctg43 187&lt;br&gt;Location: 213614 - 213950" locus_tag="ctg43_187" class="clusterblast-orf" id="dummy-1_q6_0_all"  />
<polygon points="172,35 177,30 193,30 193,40 177,40 172,35 " style="fill:#5cd815; stroke-width:1; stroke:black; " description="&lt;b&gt;ctg43_188&lt;/b&gt;&lt;br&gt;ctg43 188&lt;br&gt;Location: 213983 - 214850" locus_tag="ctg43_188" class="clusterblast-orf" id="dummy-1_q7_0_all"  />
<polygon points="195,35 200,30 223,30 223,40 200,40 195,35 " style="fill:#15a3d8; stroke-width:1; stroke:black; " description="&lt;b&gt;ctg43_189&lt;/b&gt;&lt;br&gt;ctg43 189&lt;br&gt;Location: 214943 - 216158" locus_tag="ctg43_189" class="clusterblast-orf" id="dummy-1_q8_0_all"  />
<polygon points="223,35 228,30 234,30 234,40 228,40 223,35 " style="fill:#9115d8; stroke-width:1; stroke:black; " description="&lt;b&gt;ctg43_190&lt;/b&gt;&lt;br&gt;ctg43 190&lt;br&gt;Location: 216142 - 216595" locus_tag="ctg43_190" class="clusterblast-orf" id="dummy-1_q9_0_all"  />
<polygon points="234,35 239,30 242,30 242,40 239,40 234,35 " style="fill:#d84a15; stroke-width:1; stroke:black; " description="&lt;b&gt;ctg43_191&lt;/b&gt;&lt;br&gt;ctg43 191&lt;br&gt;Location: 216599 - 216950" locus_tag="ctg43_191" class="clusterblast-orf" id="dummy-1_q10_0_all"  />
<polygon points="242,35 247,30 255,30 255,40 247,40 242,35 " style="fill:#27d815; stroke-width:1; stroke:black; " description="&lt;b&gt;ctg43_192&lt;/b&gt;&lt;br&gt;ctg43 192&lt;br&gt;Location: 216949 - 217504" locus_tag="ctg43_192" class="clusterblast-orf" id="dummy-1_q11_0_all"  />
<polygon points="255,35 260,30 287,30 287,40 260,40 255,35 " style="fill:#156ed8; stroke-width:1; stroke:black; " description="&lt;b&gt;ctg43_193&lt;/b&gt;&lt;br&gt;ctg43 193&lt;br&gt;Location: 217506 - 218862" locus_tag="ctg43_193" class="clusterblast-orf" id="dummy-1_q12_0_all"  />
<polygon points="287,35 292,30 313,30 313,40 292,40 287,35 " style="fill:#c715d8; stroke-width:1; stroke:black; " description="&lt;b&gt;ctg43_194&lt;/b&gt;&lt;br&gt;ctg43 194&lt;br&gt;Location: 218858 - 219971" locus_tag="ctg43_194" class="clusterblast-orf" id="dummy-1_q13_0_all"  />
<polygon points="313,35 318,30 346,30 346,40 318,40 313,35 " style="fill:#d88015; stroke-width:1; stroke:black; " description="&lt;b&gt;ctg43_195&lt;/b&gt;&lt;br&gt;ctg43 195&lt;br&gt;Location: 219982 - 221377" locus_tag="ctg43_195" class="clusterblast-orf" id="dummy-1_q14_0_all"  />
<polygon points="346,35 351,30 370,30 370,40 351,40 346,35 " style="fill:#15d839; stroke-width:1; stroke:black; " description="&lt;b&gt;ctg43_196&lt;/b&gt;&lt;br&gt;ctg43 196&lt;br&gt;Location: 221373 - 222384" locus_tag="ctg43_196" class="clusterblast-orf" id="dummy-1_q15_0_all"  />
<polygon points="370,35 375,30 376,30 376,40 375,40 370,35 " style="fill:#1539d8; stroke-width:1; stroke:black; " description="&lt;b&gt;ctg43_197&lt;/b&gt;&lt;br&gt;ctg43 197&lt;br&gt;Location: 222393 - 222669" locus_tag="ctg43_197" class="clusterblast-orf" id="dummy-1_q16_0_all"  />
<polygon points="376,35 381,30 388,30 388,40 381,40 376,35 " style="fill:#d815b5; stroke-width:1; stroke:black; " description="&lt;b&gt;ctg43_198&lt;/b&gt;&lt;br&gt;ctg43 198&lt;br&gt;Location: 222672 - 223164" locus_tag="ctg43_198" class="clusterblast-orf" id="dummy-1_q17_0_all"  />
<polygon points="388,35 393,30 403,30 403,40 393,40 388,35 " style="fill:#d8b515; stroke-width:1; stroke:black; " description="&lt;b&gt;ctg43_199&lt;/b&gt;&lt;br&gt;ctg43 199&lt;br&gt;Location: 223160 - 223793" locus_tag="ctg43_199" class="clusterblast-orf" id="dummy-1_q18_0_all"  />
<polygon points="403,35 408,30 414,30 414,40 408,40 403,35 " style="fill:#15d86e; stroke-width:1; stroke:black; " description="&lt;b&gt;ctg43_200&lt;/b&gt;&lt;br&gt;ctg43 200&lt;br&gt;Location: 223792 - 224254" locus_tag="ctg43_200" class="clusterblast-orf" id="dummy-1_q19_0_all"  />
<polygon points="414,35 419,30 421,30 421,40 419,40 414,35 " style="fill:#27d815; stroke-width:1; stroke:black; " description="&lt;b&gt;ctg43_201&lt;/b&gt;&lt;br&gt;ctg43 201&lt;br&gt;Location: 224278 - 224554" locus_tag="ctg43_201" class="clusterblast-orf" id="dummy-1_q20_0_all"  />
<polygon points="421,35 426,30 429,30 429,40 426,40 421,35 " style="fill:#2715d8; stroke-width:1; stroke:black; " description="&lt;b&gt;ctg43_202&lt;/b&gt;&lt;br&gt;ctg43 202&lt;br&gt;Location: 224572 - 224923" locus_tag="ctg43_202" class="clusterblast-orf" id="dummy-1_q21_0_all"  />
<polygon points="429,35 434,30 472,30 472,40 434,40 429,35 " style="fill:#d81580; stroke-width:1; stroke:black; " description="&lt;b&gt;ctg43_203&lt;/b&gt;&lt;br&gt;ctg43 203&lt;br&gt;Location: 224912 - 226745" locus_tag="ctg43_203" class="clusterblast-orf" id="dummy-1_q22_0_all"  />
<polygon points="472,35 477,30 485,30 485,40 477,40 472,35 " style="fill:#c7d815; stroke-width:1; stroke:black; " description="&lt;b&gt;ctg43_204&lt;/b&gt;&lt;br&gt;ctg43 204&lt;br&gt;Location: 226754 - 227276" locus_tag="ctg43_204" class="clusterblast-orf" id="dummy-1_q23_0_all"  />
<polygon points="485,35 490,30 501,30 501,40 490,40 485,35 " style="fill:#15d8a3; stroke-width:1; stroke:black; " description="&lt;b&gt;ctg43_205&lt;/b&gt;&lt;br&gt;ctg43 205&lt;br&gt;Location: 227290 - 227965" locus_tag="ctg43_205" class="clusterblast-orf" id="dummy-1_q24_0_all"  />
<polygon points="501,35 506,30 540,30 540,40 506,40 501,35 " style="fill:#5c15d8; stroke-width:1; stroke:black; " description="&lt;b&gt;ctg43_206&lt;/b&gt;&lt;br&gt;ctg43 206&lt;br&gt;Location: 227975 - 229640" locus_tag="ctg43_206" class="clusterblast-orf" id="dummy-1_q25_0_all"  />
<polygon points="541,35 546,30 560,30 560,40 546,40 541,35 " style="fill:#d8154a; stroke-width:1; stroke:black; " description="&lt;b&gt;ctg43_207&lt;/b&gt;&lt;br&gt;ctg43 207&lt;br&gt;Location: 229658 - 230471" locus_tag="ctg43_207" class="clusterblast-orf" id="dummy-1_q26_0_all"  />
<polygon points="560,35 565,30 566,30 566,40 565,40 560,35 " style="fill:#27d815; stroke-width:1; stroke:black; " description="&lt;b&gt;ctg43_208&lt;/b&gt;&lt;br&gt;ctg43 208&lt;br&gt;Location: 230467 - 230752" locus_tag="ctg43_208" class="clusterblast-orf" id="dummy-1_q27_0_all"  />
<polygon points="572,40 592,40 597,35 592,30 572,30 572,40 " style="fill:#91d815; stroke-width:1; stroke:black; " description="&lt;b&gt;ctg43_209&lt;/b&gt;&lt;br&gt;ctg43 209&lt;br&gt;Location: 230988 - 232071" locus_tag="ctg43_209" class="clusterblast-orf" id="dummy-1_q28_0_all"  />
<polygon points="602,40 619,40 624,35 619,30 602,30 602,40 " style="fill:#15d8d8; stroke-width:1; stroke:black; " description="&lt;b&gt;ctg43_210&lt;/b&gt;&lt;br&gt;ctg43 210&lt;br&gt;Location: 232287 - 233199" locus_tag="ctg43_210" class="clusterblast-orf" id="dummy-1_q29_0_all"  />
<polygon points="638,40 665,40 670,35 665,30 638,30 638,40 " style="fill:white; stroke-width:1; stroke:black; " description="&lt;b&gt;ctg43_211&lt;/b&gt;&lt;br&gt;ctg43 211&lt;br&gt;Location: 233796 - 235176" locus_tag="ctg43_211" class="clusterblast-orf" id="dummy-1_q30_0_all"  />
<polygon points="670,40 688,40 693,35 688,30 670,30 670,40 " style="fill:white; stroke-width:1; stroke:black; " description="&lt;b&gt;ctg43_212&lt;/b&gt;&lt;br&gt;ctg43 212&lt;br&gt;Location: 235172 - 236132" locus_tag="ctg43_212" class="clusterblast-orf" id="dummy-1_q31_0_all"  />
<polygon points="693,40 703,40 708,35 703,30 693,30 693,40 " style="fill:white; stroke-width:1; stroke:black; " description="&lt;b&gt;ctg43_213&lt;/b&gt;&lt;br&gt;ctg43 213&lt;br&gt;Location: 236142 - 236775" locus_tag="ctg43_213" class="clusterblast-orf" id="dummy-1_q32_0_all"  />
<polygon points="708,40 730,40 735,35 730,30 708,30 708,40 " style="fill:white; stroke-width:1; stroke:black; " description="&lt;b&gt;ctg43_214&lt;/b&gt;&lt;br&gt;ctg43 214&lt;br&gt;Location: 236774 - 237914" locus_tag="ctg43_214" class="clusterblast-orf" id="dummy-1_q33_0_all"  />
<polygon points="734,40 744,40 749,35 744,30 734,30 734,40 " style="fill:white; stroke-width:1; stroke:black; " description="&lt;b&gt;ctg43_215&lt;/b&gt;&lt;br&gt;ctg43 215&lt;br&gt;Location: 237907 - 238513" locus_tag="ctg43_215" class="clusterblast-orf" id="dummy-1_q34_0_all"  />
<polygon points="749,40 757,40 762,35 757,30 749,30 749,40 " style="fill:white; stroke-width:1; stroke:black; " description="&lt;b&gt;ctg43_216&lt;/b&gt;&lt;br&gt;ctg43 216&lt;br&gt;Location: 238541 - 239081" locus_tag="ctg43_216" class="clusterblast-orf" id="dummy-1_q35_0_all"  />
<polygon points="762,40 775,40 780,35 775,30 762,30 762,40 " style="fill:white; stroke-width:1; stroke:black; " description="&lt;b&gt;ctg43_217&lt;/b&gt;&lt;br&gt;ctg43 217&lt;br&gt;Location: 239064 - 239838" locus_tag="ctg43_217" class="clusterblast-orf" id="dummy-1_q36_0_all"  />
</g>
<g label="MGC0000001" description="MGC0000001_c1: Trimethylamine synthesis C. sporogenes (33% of genes show similarity), TMA" class="clusterblast-cluster"  >
<text x="5" y="70" class="clusterblast-acc"  >
MGC0000001_c1: Trimethylamine synthesis C. sporogenes (33% of genes show similarity), TMA</text>
<line x1="10" y1="85" x2="778.0" y2="85" style="stroke-width:1; stroke:grey; "  />
</g>
<g id="a1_000"  >
<polygon points="322,85 324,80 324,90 322,85 " style="fill:white; stroke-width:1; stroke:black; " description="&lt;b&gt;CLOSPO_RS07645&lt;/b&gt;&lt;br&gt;hypothetical protein&lt;br&gt;Location: 5704 - 5637" locus_tag="CLOSPO_RS07645" class="clusterblast-orf" id="dummy-1_h1_3_0"  />
</g>
<g id="a1_001"  >
<polygon points="324,85 329,80 332,80 332,90 329,90 324,85 " style="fill:#d84a15; stroke-width:1; stroke:black; " description="&lt;b&gt;CLOSPO_RS07640&lt;/b&gt;&lt;br&gt;propanediol utilization protein PduU&lt;br&gt;Location: 5641 - 5287&lt;br&gt;&lt;br&gt;&lt;b&gt;BlastP hit with ctg43_191&lt;/b&gt;&lt;br&gt;Percentage identity: 60&lt;br&gt;Percentage coverage: 93&lt;br&gt;BLAST bit score: 125&lt;br&gt;E-value: 1.17e-40" locus_tag="CLOSPO_RS07640" class="clusterblast-orf" id="dummy-1_h1_3_1"  />
</g>
<g id="a1_002"  >
<polygon points="333,85 338,80 356,80 356,90 338,90 333,85 " style="fill:white; stroke-width:1; stroke:black; " description="&lt;b&gt;CLOSPO_RS07635&lt;/b&gt;&lt;br&gt;choline TMA-lyase-activating enzyme&lt;br&gt;Location: 5248 - 4294" locus_tag="CLOSPO_RS07635" class="clusterblast-orf" id="dummy-1_h1_3_2"  />
</g>
<g id="a1_003"  >
<polygon points="360,85 365,80 420,80 420,90 365,90 360,85 " style="fill:white; stroke-width:1; stroke:black; " description="&lt;b&gt;CLOSPO_RS07630&lt;/b&gt;&lt;br&gt;choline trimethylamine-lyase&lt;br&gt;Location: 4113 - 1572" locus_tag="CLOSPO_RS07630" class="clusterblast-orf" id="dummy-1_h1_3_3"  />
</g>
<g id="a1_004"  >
<polygon points="421,85 426,80 456,80 456,90 426,90 421,85 " style="fill:white; stroke-width:1; stroke:black; " description="&lt;b&gt;CLOSPO_RS07625&lt;/b&gt;&lt;br&gt;acetaldehyde dehydrogenase&lt;br&gt;Location: 1523 - 41" locus_tag="CLOSPO_RS07625" class="clusterblast-orf" id="dummy-1_h1_3_4"  />
</g>
<g id="a1_005"  >
<polygon points="456,85 457,80 457,90 456,85 " style="fill:#27d815; stroke-width:1; stroke:black; " description="&lt;b&gt;CLOSPO_RS07620&lt;/b&gt;&lt;br&gt;hypothetical protein&lt;br&gt;Location: 4 - 0&lt;br&gt;&lt;br&gt;&lt;b&gt;BlastP hit with ctg43_201&lt;/b&gt;&lt;br&gt;Percentage identity: 60&lt;br&gt;Percentage coverage: 99&lt;br&gt;BLAST bit score: 96&lt;br&gt;E-value: 2.96e-29&lt;br&gt;&lt;br&gt;&lt;b&gt;BlastP hit with ctg43_208&lt;/b&gt;&lt;br&gt;Percentage identity: 59&lt;br&gt;Percentage coverage: 93&lt;br&gt;BLAST bit score: 91&lt;br&gt;E-value: 3.14e-27" locus_tag="CLOSPO_RS07620" class="clusterblast-orf" id="dummy-1_h1_3_5"  />
</g>
</svg>
