<svg xmlns="http://www.w3.org/2000/svg" xmlns:xlink="http://www.w3.org/1999/xlink" version="1.1" x="0" y="0" height="230" width="800" viewBox="0 0 800 230" preserveAspectRatio="none"  >
<g label="Query sequence" class="clusterblast-cluster"  >
<text x="5" y="20" class="clusterblast-acc"  >
Query sequence</text>
<line x1="10" y1="35" x2="778.0" y2="35" style="stroke-width:1; stroke:grey; "  />
<polygon points="0,40 16,40 21,35 16,30 0,30 0,40 " style="fill:white; stroke-width:1; stroke:black; " description="&lt;b&gt;ctg15_37&lt;/b&gt;&lt;br&gt;ctg15 37&lt;br&gt;Location: 37299 - 38133" locus_tag="ctg15_37" class="clusterblast-orf" id="dummy-1_q0_0_all"  />
<polygon points="22,40 41,40 46,35 41,30 22,30 22,40 " style="fill:white; stroke-width:1; stroke:black; " description="&lt;b&gt;ctg15_38&lt;/b&gt;&lt;br&gt;ctg15 38&lt;br&gt;Location: 38143 - 39091" locus_tag="ctg15_38" class="clusterblast-orf" id="dummy-1_q1_0_all"  />
<polygon points="53,35 58,30 93,30 93,40 58,40 53,35 " style="fill:white; stroke-width:1; stroke:black; " description="&lt;b&gt;ctg15_39&lt;/b&gt;&lt;br&gt;ctg15 39&lt;br&gt;Location: 39330 - 40902" locus_tag="ctg15_39" class="clusterblast-orf" id="dummy-1_q2_0_all"  />
<polygon points="107,40 122,40 127,35 122,30 107,30 107,40 " style="fill:white; stroke-width:1; stroke:black; " description="&lt;b&gt;ctg15_40&lt;/b&gt;&lt;br&gt;ctg15 40&lt;br&gt;Location: 41431 - 42202" locus_tag="ctg15_40" class="clusterblast-orf" id="dummy-1_q3_0_all"  />
<polygon points="128,40 146,40 151,35 146,30 128,30 128,40 " style="fill:white; stroke-width:1; stroke:black; " description="&lt;b&gt;ctg15_41&lt;/b&gt;&lt;br&gt;ctg15 41&lt;br&gt;Location: 42227 - 43118" locus_tag="ctg15_41" class="clusterblast-orf" id="dummy-1_q4_0_all"  />
<polygon points="154,40 178,40 183,35 178,30 154,30 154,40 " style="fill:white; stroke-width:1; stroke:black; " description="&lt;b&gt;ctg15_42&lt;/b&gt;&lt;br&gt;ctg15 42&lt;br&gt;Location: 43215 - 44361" locus_tag="ctg15_42" class="clusterblast-orf" id="dummy-1_q5_0_all"  />
<polygon points="184,35 189,30 198,30 198,40 189,40 184,35 " style="fill:white; stroke-width:1; stroke:black; " description="&lt;b&gt;ctg15_43&lt;/b&gt;&lt;br&gt;ctg15 43&lt;br&gt;Location: 44379 - 44940" locus_tag="ctg15_43" class="clusterblast-orf" id="dummy-1_q6_0_all"  />
<polygon points="230,40 250,40 255,35 250,30 230,30 230,40 " style="fill:#d81515; stroke-width:1; stroke:black; " description="&lt;b&gt;ctg15_44&lt;/b&gt;&lt;br&gt;ctg15 44&lt;br&gt;Location: 46159 - 47098" locus_tag="ctg15_44" class="clusterblast-orf" id="dummy-1_q7_0_all"  />
<polygon points="257,40 278,40 283,35 278,30 257,30 257,40 " style="fill:#77d815; stroke-width:1; stroke:black; " description="&lt;b&gt;ctg15_45&lt;/b&gt;&lt;br&gt;ctg15 45&lt;br&gt;Location: 47195 - 48185" locus_tag="ctg15_45" class="clusterblast-orf" id="dummy-1_q8_0_all"  />
<polygon points="283,40 313,40 318,35 313,30 283,30 283,40 " style="fill:#15d8d8; stroke-width:1; stroke:black; " description="&lt;b&gt;ctg15_46&lt;/b&gt;&lt;br&gt;ctg15 46&lt;br&gt;Location: 48205 - 49537" locus_tag="ctg15_46" class="clusterblast-orf" id="dummy-1_q9_0_all"  />
<polygon points="320,40 346,40 351,35 346,30 320,30 320,40 " style="fill:#7715d8; stroke-width:1; stroke:black; " description="&lt;b&gt;ctg15_47&lt;/b&gt;&lt;br&gt;ctg15 47&lt;br&gt;Location: 49602 - 50811" locus_tag="ctg15_47" class="clusterblast-orf" id="dummy-1_q10_0_all"  />
<polygon points="352,40 407,40 412,35 407,30 352,30 352,40 " style="fill:#d8a715; stroke-width:1; stroke:black; " description="&lt;b&gt;ctg15_48&lt;/b&gt;&lt;br&gt;ctg15 48&lt;br&gt;Location: 50844 - 53139" locus_tag="ctg15_48" class="clusterblast-orf" id="dummy-1_q11_0_all"  />
<polygon points="413,40 444,40 449,35 444,30 413,30 413,40 " style="fill:#15d846; stroke-width:1; stroke:black; " description="&lt;b&gt;ctg15_49&lt;/b&gt;&lt;br&gt;ctg15 49&lt;br&gt;Location: 53208 - 54573" locus_tag="ctg15_49" class="clusterblast-orf" id="dummy-1_q12_0_all"  />
<polygon points="457,40 487,40 492,35 487,30 457,30 457,40 " style="fill:#1546d8; stroke-width:1; stroke:black; " description="&lt;b&gt;ctg15_50&lt;/b&gt;&lt;br&gt;ctg15 50&lt;br&gt;Location: 54888 - 56220" locus_tag="ctg15_50" class="clusterblast-orf" id="dummy-1_q13_0_all"  />
<polygon points="492,40 522,40 527,35 522,30 492,30 492,40 " style="fill:#d815a7; stroke-width:1; stroke:black; " description="&lt;b&gt;ctg15_51&lt;/b&gt;&lt;br&gt;ctg15 51&lt;br&gt;Location: 56245 - 57556" locus_tag="ctg15_51" class="clusterblast-orf" id="dummy-1_q14_0_all"  />
<polygon points="529,35 534,30 534,30 534,40 534,40 529,35 " style="fill:white; stroke-width:1; stroke:black; " description="&lt;b&gt;ctg15_52&lt;/b&gt;&lt;br&gt;ctg15 52&lt;br&gt;Location: 57668 - 57833" locus_tag="ctg15_52" class="clusterblast-orf" id="dummy-1_q15_0_all"  />
<polygon points="534,35 539,30 553,30 553,40 539,40 534,35 " style="fill:white; stroke-width:1; stroke:black; " description="&lt;b&gt;ctg15_53&lt;/b&gt;&lt;br&gt;ctg15 53&lt;br&gt;Location: 57856 - 58558" locus_tag="ctg15_53" class="clusterblast-orf" id="dummy-1_q16_0_all"  />
<polygon points="555,40 574,40 579,35 574,30 555,30 555,40 " style="fill:white; stroke-width:1; stroke:black; " description="&lt;b&gt;ctg15_54&lt;/b&gt;&lt;br&gt;ctg15 54&lt;br&gt;Location: 58662 - 59559" locus_tag="ctg15_54" class="clusterblast-orf" id="dummy-1_q17_0_all"  />
<polygon points="580,35 585,30 589,30 589,40 585,40 580,35 " style="fill:white; stroke-width:1; stroke:black; " description="&lt;b&gt;ctg15_55&lt;/b&gt;&lt;br&gt;ctg15 55&lt;br&gt;Location: 59597 - 59963" locus_tag="ctg15_55" class="clusterblast-orf" id="dummy-1_q18_0_all"  />
<polygon points="592,35 597,30 618,30 618,40 597,40 592,35 " style="fill:white; stroke-width:1; stroke:black; " description="&lt;b&gt;ctg15_56&lt;/b&gt;&lt;br&gt;ctg15 56&lt;br&gt;Location: 60086 - 61073" locus_tag="ctg15_56" class="clusterblast-orf" id="dummy-1_q19_0_all"  />
<polygon points="620,35 625,30 632,30 632,40 625,40 620,35 " style="fill:white; stroke-width:1; stroke:black; " description="&lt;b&gt;ctg15_57&lt;/b&gt;&lt;br&gt;ctg15 57&lt;br&gt;Location: 61140 - 61626" locus_tag="ctg15_57" class="clusterblast-orf" id="dummy-1_q20_0_all"  />
<polygon points="636,35 641,30 644,30 644,40 641,40 636,35 " style="fill:white; stroke-width:1; stroke:black; " description="&lt;b&gt;ctg15_58&lt;/b&gt;&lt;br&gt;ctg15 58&lt;br&gt;Location: 61770 - 62070" locus_tag="ctg15_58" class="clusterblast-orf" id="dummy-1_q21_0_all"  />
<polygon points="644,35 649,30 654,30 654,40 649,40 644,35 " style="fill:white; stroke-width:1; stroke:black; " description="&lt;b&gt;ctg15_59&lt;/b&gt;&lt;br&gt;ctg15 59&lt;br&gt;Location: 62066 - 62465" locus_tag="ctg15_59" class="clusterblast-orf" id="dummy-1_q22_0_all"  />
<polygon points="654,35 659,30 662,30 662,40 659,40 654,35 " style="fill:white; stroke-width:1; stroke:black; " description="&lt;b&gt;ctg15_60&lt;/b&gt;&lt;br&gt;ctg15 60&lt;br&gt;Location: 62467 - 62773" locus_tag="ctg15_60" class="clusterblast-orf" id="dummy-1_q23_0_all"  />
<polygon points="663,35 668,30 673,30 673,40 668,40 663,35 " style="fill:white; stroke-width:1; stroke:black; " description="&lt;b&gt;ctg15_61&lt;/b&gt;&lt;br&gt;ctg15 61&lt;br&gt;Location: 62814 - 63183" locus_tag="ctg15_61" class="clusterblast-orf" id="dummy-1_q24_0_all"  />
<polygon points="677,35 682,30 687,30 687,40 682,40 677,35 " style="fill:white; stroke-width:1; stroke:black; " description="&lt;b&gt;ctg15_62&lt;/b&gt;&lt;br&gt;ctg15 62&lt;br&gt;Location: 63327 - 63711" locus_tag="ctg15_62" class="clusterblast-orf" id="dummy-1_q25_0_all"  />
<polygon points="687,35 692,30 704,30 704,40 692,40 687,35 " style="fill:white; stroke-width:1; stroke:black; " description="&lt;b&gt;ctg15_63&lt;/b&gt;&lt;br&gt;ctg15 63&lt;br&gt;Location: 63714 - 64377" locus_tag="ctg15_63" class="clusterblast-orf" id="dummy-1_q26_0_all"  />
<polygon points="716,35 721,30 748,30 748,40 721,40 716,35 " style="fill:white; stroke-width:1; stroke:black; " description="&lt;b&gt;ctg15_64&lt;/b&gt;&lt;br&gt;ctg15 64&lt;br&gt;Location: 64826 - 66071" locus_tag="ctg15_64" class="clusterblast-orf" id="dummy-1_q27_0_all"  />
<polygon points="755,35 760,30 780,30 780,40 760,40 755,35 " style="fill:white; stroke-width:1; stroke:black; " description="&lt;b&gt;ctg15_65&lt;/b&gt;&lt;br&gt;ctg15 65&lt;br&gt;Location: 66325 - 67294" locus_tag="ctg15_65" class="clusterblast-orf" id="dummy-1_q28_0_all"  />
</g>
<g label="MGC00000030" description="MGC00000030_c1: Threonine to propionate E. coli (80% of genes show similarity), PROP" class="clusterblast-cluster"  >
<text x="5" y="70" class="clusterblast-acc"  >
MGC00000030_c1: Threonine to propionate E. coli (80% of genes show similarity), PROP</text>
<line x1="10" y1="85" x2="778.0" y2="85" style="stroke-width:1; stroke:grey; "  />
</g>
<g id="a1_000"  >
<polygon points="237,90 256,90 261,85 256,80 237,80 237,90 " style="fill:#d81515; stroke-width:1; stroke:black; " description="&lt;b&gt;L960_3799&lt;/b&gt;&lt;br&gt;DNA-binding transcriptional activator TdcA&lt;br&gt;Location: 10000 - 10939&lt;br&gt;&lt;br&gt;&lt;b&gt;BlastP hit with ctg15_44&lt;/b&gt;&lt;br&gt;Percentage identity: 89&lt;br&gt;Percentage coverage: 100&lt;br&gt;BLAST bit score: 545&lt;br&gt;E-value: 3.34e-200" locus_tag="L960_3799" class="clusterblast-orf" id="dummy-1_h1_1_0"  />
</g>
<g id="a1_001"  >
<polygon points="264,90 267,90 272,85 267,80 264,80 264,90 " style="fill:white; stroke-width:1; stroke:black; " description="&lt;b&gt;L960_3800&lt;/b&gt;&lt;br&gt;threonine ammonia-lyase&lt;br&gt;Location: 11037 - 11343" locus_tag="L960_3800" class="clusterblast-orf" id="dummy-1_h1_1_1"  />
</g>
<g id="a1_002"  >
<polygon points="271,90 285,90 290,85 285,80 271,80 271,90 " style="fill:#77d815; stroke-width:1; stroke:black; " description="&lt;b&gt;L960_3801&lt;/b&gt;&lt;br&gt;tdcB&lt;br&gt;Location: 11323 - 12028&lt;br&gt;&lt;br&gt;&lt;b&gt;BlastP hit with ctg15_45&lt;/b&gt;&lt;br&gt;Percentage identity: 95&lt;br&gt;Percentage coverage: 71&lt;br&gt;BLAST bit score: 437&lt;br&gt;E-value: 2.38e-158" locus_tag="L960_3801" class="clusterblast-orf" id="dummy-1_h1_1_2"  />
</g>
<g id="a1_003"  >
<polygon points="290,90 320,90 325,85 320,80 290,80 290,90 " style="fill:#15d8d8; stroke-width:1; stroke:black; " description="&lt;b&gt;L960_3802&lt;/b&gt;&lt;br&gt;threonine/serine transporter TdcC&lt;br&gt;Location: 12049 - 13381&lt;br&gt;&lt;br&gt;&lt;b&gt;BlastP hit with ctg15_46&lt;/b&gt;&lt;br&gt;Percentage identity: 95&lt;br&gt;Percentage coverage: 100&lt;br&gt;BLAST bit score: 813&lt;br&gt;E-value: 5.29e-302" locus_tag="L960_3802" class="clusterblast-orf" id="dummy-1_h1_1_3"  />
</g>
<g id="a1_004"  >
<polygon points="326,90 352,90 357,85 352,80 326,80 326,90 " style="fill:#7715d8; stroke-width:1; stroke:black; " description="&lt;b&gt;L960_3803&lt;/b&gt;&lt;br&gt;propionate/acetate kinase&lt;br&gt;Location: 13406 - 14615&lt;br&gt;&lt;br&gt;&lt;b&gt;BlastP hit with ctg15_47&lt;/b&gt;&lt;br&gt;Percentage identity: 83&lt;br&gt;Percentage coverage: 100&lt;br&gt;BLAST bit score: 669&lt;br&gt;E-value: 2.1e-246" locus_tag="L960_3803" class="clusterblast-orf" id="dummy-1_h1_1_4"  />
</g>
<g id="a1_005"  >
<polygon points="358,90 413,90 418,85 413,80 358,80 358,90 " style="fill:#d8a715; stroke-width:1; stroke:black; " description="&lt;b&gt;L960_3804&lt;/b&gt;&lt;br&gt;pyruvate formate-lyase 4/2-ketobutyrate formate-lyase&lt;br&gt;Location: 14648 - 16943&lt;br&gt;&lt;br&gt;&lt;b&gt;BlastP hit with ctg15_48&lt;/b&gt;&lt;br&gt;Percentage identity: 94&lt;br&gt;Percentage coverage: 100&lt;br&gt;BLAST bit score: 1438&lt;br&gt;E-value: 0.0" locus_tag="L960_3804" class="clusterblast-orf" id="dummy-1_h1_1_5"  />
</g>
<g id="a1_006"  >
<polygon points="418,90 423,90 428,85 423,80 418,80 418,90 " style="fill:white; stroke-width:1; stroke:black; " description="&lt;b&gt;L960_3805&lt;/b&gt;&lt;br&gt;hypothetical protein&lt;br&gt;Location: 16956 - 17346" locus_tag="L960_3805" class="clusterblast-orf" id="dummy-1_h1_1_6"  />
</g>
<g id="a1_007"  >
<polygon points="432,90 460,90 465,85 460,80 432,80 432,90 " style="fill:#15d846; stroke-width:1; stroke:black; " description="&lt;b&gt;L960_3806&lt;/b&gt;&lt;br&gt;L-serine dehydratase 3&lt;br&gt;Location: 17483 - 18782&lt;br&gt;&lt;br&gt;&lt;b&gt;BlastP hit with ctg15_49&lt;/b&gt;&lt;br&gt;Percentage identity: 86&lt;br&gt;Percentage coverage: 95&lt;br&gt;BLAST bit score: 733&lt;br&gt;E-value: 2.62e-270" locus_tag="L960_3806" class="clusterblast-orf" id="dummy-1_h1_1_7"  />
</g>
<g id="a1_008"  >
<polygon points="473,90 502,90 507,85 502,80 473,80 473,90 " style="fill:#1546d8; stroke-width:1; stroke:black; " description="&lt;b&gt;L960_3807&lt;/b&gt;&lt;br&gt;serine transporter family protein&lt;br&gt;Location: 19056 - 20388&lt;br&gt;&lt;br&gt;&lt;b&gt;BlastP hit with ctg15_50&lt;/b&gt;&lt;br&gt;Percentage identity: 96&lt;br&gt;Percentage coverage: 100&lt;br&gt;BLAST bit score: 805&lt;br&gt;E-value: 1.69e-298" locus_tag="L960_3807" class="clusterblast-orf" id="dummy-1_h1_1_8"  />
</g>
<g id="a1_009"  >
<polygon points="508,90 537,90 542,85 537,80 508,80 508,90 " style="fill:#d815a7; stroke-width:1; stroke:black; " description="&lt;b&gt;L960_3808&lt;/b&gt;&lt;br&gt;hypothetical protein&lt;br&gt;Location: 20415 - 21726&lt;br&gt;&lt;br&gt;&lt;b&gt;BlastP hit with ctg15_51&lt;/b&gt;&lt;br&gt;Percentage identity: 84&lt;br&gt;Percentage coverage: 100&lt;br&gt;BLAST bit score: 684&lt;br&gt;E-value: 3.25e-251" locus_tag="L960_3808" class="clusterblast-orf" id="dummy-1_h1_1_9"  />
</g>
</svg>
