<svg xmlns="http://www.w3.org/2000/svg" xmlns:xlink="http://www.w3.org/1999/xlink" version="1.1" x="0" y="0" height="230" width="800" viewBox="0 0 800 230" preserveAspectRatio="none"  >
<g label="Query sequence" class="clusterblast-cluster"  >
<text x="5" y="20" class="clusterblast-acc"  >
Query sequence</text>
<line x1="10" y1="35" x2="778.0" y2="35" style="stroke-width:1; stroke:grey; "  />
<polygon points="0,35 5,30 19,30 19,40 5,40 0,35 " style="fill:white; stroke-width:1; stroke:black; " description="&lt;b&gt;ctg5_294&lt;/b&gt;&lt;br&gt;ctg5 294&lt;br&gt;Location: 326225 - 326771" locus_tag="ctg5_294" class="clusterblast-orf" id="dummy-2_q0_0_all"  />
<polygon points="23,40 55,40 60,35 55,30 23,30 23,40 " style="fill:white; stroke-width:1; stroke:black; " description="&lt;b&gt;ctg5_295&lt;/b&gt;&lt;br&gt;ctg5 295&lt;br&gt;Location: 326877 - 327930" locus_tag="ctg5_295" class="clusterblast-orf" id="dummy-2_q1_0_all"  />
<polygon points="63,40 93,40 98,35 93,30 63,30 63,40 " style="fill:white; stroke-width:1; stroke:black; " description="&lt;b&gt;ctg5_296&lt;/b&gt;&lt;br&gt;ctg5 296&lt;br&gt;Location: 328021 - 328990" locus_tag="ctg5_296" class="clusterblast-orf" id="dummy-2_q2_0_all"  />
<polygon points="98,40 211,40 216,35 211,30 98,30 98,40 " style="fill:white; stroke-width:1; stroke:black; " description="&lt;b&gt;ctg5_297&lt;/b&gt;&lt;br&gt;ctg5 297&lt;br&gt;Location: 329008 - 332335" locus_tag="ctg5_297" class="clusterblast-orf" id="dummy-2_q3_0_all"  />
<polygon points="218,35 223,30 229,30 229,40 223,40 218,35 " style="fill:white; stroke-width:1; stroke:black; " description="&lt;b&gt;ctg5_298&lt;/b&gt;&lt;br&gt;ctg5 298&lt;br&gt;Location: 332401 - 332716" locus_tag="ctg5_298" class="clusterblast-orf" id="dummy-2_q4_0_all"  />
<polygon points="231,35 236,30 284,30 284,40 236,40 231,35 " style="fill:white; stroke-width:1; stroke:black; " description="&lt;b&gt;ctg5_299&lt;/b&gt;&lt;br&gt;ctg5 299&lt;br&gt;Location: 332767 - 334270" locus_tag="ctg5_299" class="clusterblast-orf" id="dummy-2_q5_0_all"  />
<polygon points="292,35 297,30 326,30 326,40 297,40 292,35 " style="fill:white; stroke-width:1; stroke:black; " description="&lt;b&gt;ctg5_300&lt;/b&gt;&lt;br&gt;ctg5 300&lt;br&gt;Location: 334495 - 335473" locus_tag="ctg5_300" class="clusterblast-orf" id="dummy-2_q6_0_all"  />
<polygon points="338,40 396,40 401,35 396,30 338,30 338,40 " style="fill:#d81515; stroke-width:1; stroke:black; " description="&lt;b&gt;ctg5_301&lt;/b&gt;&lt;br&gt;ctg5 301&lt;br&gt;Location: 335795 - 337586" locus_tag="ctg5_301" class="clusterblast-orf" id="dummy-2_q7_0_all"  />
<polygon points="401,40 422,40 427,35 422,30 401,30 401,40 " style="fill:#15d8d8; stroke-width:1; stroke:black; " description="&lt;b&gt;ctg5_302&lt;/b&gt;&lt;br&gt;ctg5 302&lt;br&gt;Location: 337578 - 338313" locus_tag="ctg5_302" class="clusterblast-orf" id="dummy-2_q8_0_all"  />
<polygon points="427,40 436,40 441,35 436,30 427,30 427,40 " style="fill:white; stroke-width:1; stroke:black; " description="&lt;b&gt;ctg5_303&lt;/b&gt;&lt;br&gt;ctg5 303&lt;br&gt;Location: 338323 - 338719" locus_tag="ctg5_303" class="clusterblast-orf" id="dummy-2_q9_0_all"  />
<polygon points="441,40 449,40 454,35 449,30 441,30 441,40 " style="fill:white; stroke-width:1; stroke:black; " description="&lt;b&gt;ctg5_304&lt;/b&gt;&lt;br&gt;ctg5 304&lt;br&gt;Location: 338729 - 339089" locus_tag="ctg5_304" class="clusterblast-orf" id="dummy-2_q10_0_all"  />
<polygon points="458,40 472,40 477,35 472,30 458,30 458,40 " style="fill:white; stroke-width:1; stroke:black; " description="&lt;b&gt;ctg5_305&lt;/b&gt;&lt;br&gt;ctg5 305&lt;br&gt;Location: 339200 - 339734" locus_tag="ctg5_305" class="clusterblast-orf" id="dummy-2_q11_0_all"  />
<polygon points="478,35 483,30 489,30 489,40 483,40 478,35 " style="fill:white; stroke-width:1; stroke:black; " description="&lt;b&gt;ctg5_306&lt;/b&gt;&lt;br&gt;ctg5 306&lt;br&gt;Location: 339750 - 340068" locus_tag="ctg5_306" class="clusterblast-orf" id="dummy-2_q12_0_all"  />
<polygon points="498,40 514,40 519,35 514,30 498,30 498,40 " style="fill:white; stroke-width:1; stroke:black; " description="&lt;b&gt;ctg5_307&lt;/b&gt;&lt;br&gt;ctg5 307&lt;br&gt;Location: 340324 - 340912" locus_tag="ctg5_307" class="clusterblast-orf" id="dummy-2_q13_0_all"  />
<polygon points="529,35 534,30 535,30 535,40 534,40 529,35 " style="fill:white; stroke-width:1; stroke:black; " description="&lt;b&gt;ctg5_308&lt;/b&gt;&lt;br&gt;ctg5 308&lt;br&gt;Location: 341196 - 341370" locus_tag="ctg5_308" class="clusterblast-orf" id="dummy-2_q14_0_all"  />
<polygon points="535,35 540,30 555,30 555,40 540,40 535,35 " style="fill:white; stroke-width:1; stroke:black; " description="&lt;b&gt;ctg5_309&lt;/b&gt;&lt;br&gt;ctg5 309&lt;br&gt;Location: 341391 - 341958" locus_tag="ctg5_309" class="clusterblast-orf" id="dummy-2_q15_0_all"  />
<polygon points="557,40 588,40 593,35 588,30 557,30 557,40 " style="fill:white; stroke-width:1; stroke:black; " description="&lt;b&gt;ctg5_310&lt;/b&gt;&lt;br&gt;ctg5 310&lt;br&gt;Location: 341998 - 343027" locus_tag="ctg5_310" class="clusterblast-orf" id="dummy-2_q16_0_all"  />
<polygon points="603,40 628,40 633,35 628,30 603,30 603,40 " style="fill:white; stroke-width:1; stroke:black; " description="&lt;b&gt;ctg5_311&lt;/b&gt;&lt;br&gt;ctg5 311&lt;br&gt;Location: 343308 - 344166" locus_tag="ctg5_311" class="clusterblast-orf" id="dummy-2_q17_0_all"  />
<polygon points="635,35 640,30 648,30 648,40 640,40 635,35 " style="fill:white; stroke-width:1; stroke:black; " description="&lt;b&gt;ctg5_312&lt;/b&gt;&lt;br&gt;ctg5 312&lt;br&gt;Location: 344213 - 344567" locus_tag="ctg5_312" class="clusterblast-orf" id="dummy-2_q18_0_all"  />
<polygon points="656,35 661,30 714,30 714,40 661,40 656,35 " style="fill:white; stroke-width:1; stroke:black; " description="&lt;b&gt;ctg5_313&lt;/b&gt;&lt;br&gt;ctg5 313&lt;br&gt;Location: 344810 - 346457" locus_tag="ctg5_313" class="clusterblast-orf" id="dummy-2_q19_0_all"  />
<polygon points="716,35 721,30 726,30 726,40 721,40 716,35 " style="fill:white; stroke-width:1; stroke:black; " description="&lt;b&gt;ctg5_314&lt;/b&gt;&lt;br&gt;ctg5 314&lt;br&gt;Location: 346500 - 346794" locus_tag="ctg5_314" class="clusterblast-orf" id="dummy-2_q20_0_all"  />
<polygon points="735,40 775,40 780,35 775,30 735,30 735,40 " style="fill:white; stroke-width:1; stroke:black; " description="&lt;b&gt;ctg5_315&lt;/b&gt;&lt;br&gt;ctg5 315&lt;br&gt;Location: 347048 - 348311" locus_tag="ctg5_315" class="clusterblast-orf" id="dummy-2_q21_0_all"  />
</g>
<g label="MGC00000057" description="MGC00000057_c1: Fumarate2succinate fum red E. coli (100% of genes show similarity), SUC" class="clusterblast-cluster"  >
<text x="5" y="70" class="clusterblast-acc"  >
MGC00000057_c1: Fumarate2succinate fum red E. coli (100% of genes show similarity), SUC</text>
<line x1="10" y1="85" x2="778.0" y2="85" style="stroke-width:1; stroke:grey; "  />
</g>
<g id="a2_000"  >
<polygon points="345,90 404,90 409,85 404,80 345,80 345,90 " style="fill:#d81515; stroke-width:1; stroke:black; " description="&lt;b&gt;HMPREF9550_01586&lt;/b&gt;&lt;br&gt;fumarate reductase, flavoprotein subunit&lt;br&gt;Location: 12536 - 10727&lt;br&gt;&lt;br&gt;&lt;b&gt;BlastP hit with ctg5_301&lt;/b&gt;&lt;br&gt;Percentage identity: 95&lt;br&gt;Percentage coverage: 100&lt;br&gt;BLAST bit score: 1154&lt;br&gt;E-value: 0.0" locus_tag="HMPREF9550_01586" class="clusterblast-orf" id="dummy-2_h2_1_0"  />
</g>
<g id="a2_001"  >
<polygon points="408,90 429,90 434,85 429,80 408,80 408,90 " style="fill:#15d8d8; stroke-width:1; stroke:black; " description="&lt;b&gt;HMPREF9550_01585&lt;/b&gt;&lt;br&gt;fumarate reductase iron-sulfur subunit&lt;br&gt;Location: 10735 - 10000&lt;br&gt;&lt;br&gt;&lt;b&gt;BlastP hit with ctg5_302&lt;/b&gt;&lt;br&gt;Percentage identity: 96&lt;br&gt;Percentage coverage: 100&lt;br&gt;BLAST bit score: 494&lt;br&gt;E-value: 1.64e-182" locus_tag="HMPREF9550_01585" class="clusterblast-orf" id="dummy-2_h2_1_1"  />
</g>
</svg>
