<svg xmlns="http://www.w3.org/2000/svg" xmlns:xlink="http://www.w3.org/1999/xlink" version="1.1" x="0" y="0" height="230" width="800" viewBox="0 0 800 230" preserveAspectRatio="none"  >
<g label="Query sequence" class="clusterblast-cluster"  >
<text x="5" y="20" class="clusterblast-acc"  >
Query sequence</text>
<line x1="10" y1="35" x2="778.0" y2="35" style="stroke-width:1; stroke:grey; "  />
<polygon points="0,40 6,40 11,35 6,30 0,30 0,40 " style="fill:#d81515; stroke-width:1; stroke:black; " description="&lt;b&gt;ctg19_1&lt;/b&gt;&lt;br&gt;ctg19 1&lt;br&gt;Location: 389 - 725" locus_tag="ctg19_1" class="clusterblast-orf" id="dummy-1_q0_0_all"  />
<polygon points="11,40 22,40 27,35 22,30 11,30 11,40 " style="fill:#77d815; stroke-width:1; stroke:black; " description="&lt;b&gt;ctg19_2&lt;/b&gt;&lt;br&gt;ctg19 2&lt;br&gt;Location: 737 - 1217" locus_tag="ctg19_2" class="clusterblast-orf" id="dummy-1_q1_0_all"  />
<polygon points="27,40 45,40 50,35 45,30 27,30 27,40 " style="fill:#15d8d8; stroke-width:1; stroke:black; " description="&lt;b&gt;ctg19_3&lt;/b&gt;&lt;br&gt;ctg19 3&lt;br&gt;Location: 1194 - 1884" locus_tag="ctg19_3" class="clusterblast-orf" id="dummy-1_q2_0_all"  />
<polygon points="49,40 71,40 76,35 71,30 49,30 49,40 " style="fill:#7715d8; stroke-width:1; stroke:black; " description="&lt;b&gt;ctg19_4&lt;/b&gt;&lt;br&gt;ctg19 4&lt;br&gt;Location: 1880 - 2684" locus_tag="ctg19_4" class="clusterblast-orf" id="dummy-1_q3_0_all"  />
<polygon points="76,40 105,40 110,35 105,30 76,30 76,40 " style="fill:#d85e15; stroke-width:1; stroke:black; " description="&lt;b&gt;ctg19_5&lt;/b&gt;&lt;br&gt;ctg19 5&lt;br&gt;Location: 2680 - 3697" locus_tag="ctg19_5" class="clusterblast-orf" id="dummy-1_q4_0_all"  />
<polygon points="111,40 116,40 121,35 116,30 111,30 111,40 " style="fill:#2ed815; stroke-width:1; stroke:black; " description="&lt;b&gt;ctg19_6&lt;/b&gt;&lt;br&gt;ctg19 6&lt;br&gt;Location: 3737 - 4028" locus_tag="ctg19_6" class="clusterblast-orf" id="dummy-1_q5_0_all"  />
<polygon points="125,40 129,40 134,35 129,30 125,30 125,40 " style="fill:#158fd8; stroke-width:1; stroke:black; " description="&lt;b&gt;ctg19_7&lt;/b&gt;&lt;br&gt;ctg19 7&lt;br&gt;Location: 4140 - 4428" locus_tag="ctg19_7" class="clusterblast-orf" id="dummy-1_q6_0_all"  />
<polygon points="135,40 176,40 181,35 176,30 135,30 135,40 " style="fill:#c015d8; stroke-width:1; stroke:black; " description="&lt;b&gt;ctg19_8&lt;/b&gt;&lt;br&gt;ctg19 8&lt;br&gt;Location: 4439 - 5843" locus_tag="ctg19_8" class="clusterblast-orf" id="dummy-1_q7_0_all"  />
<polygon points="182,40 205,40 210,35 205,30 182,30 182,40 " style="fill:#d8a715; stroke-width:1; stroke:black; " description="&lt;b&gt;ctg19_9&lt;/b&gt;&lt;br&gt;ctg19 9&lt;br&gt;Location: 5853 - 6693" locus_tag="ctg19_9" class="clusterblast-orf" id="dummy-1_q8_0_all"  />
<polygon points="209,40 244,40 249,35 244,30 209,30 209,40 " style="fill:#15d846; stroke-width:1; stroke:black; " description="&lt;b&gt;ctg19_10&lt;/b&gt;&lt;br&gt;ctg19 10&lt;br&gt;Location: 6682 - 7870" locus_tag="ctg19_10" class="clusterblast-orf" id="dummy-1_q9_0_all"  />
<polygon points="253,40 289,40 294,35 289,30 253,30 253,40 " style="fill:#1546d8; stroke-width:1; stroke:black; " description="&lt;b&gt;ctg19_11&lt;/b&gt;&lt;br&gt;ctg19 11&lt;br&gt;Location: 7989 - 9216" locus_tag="ctg19_11" class="clusterblast-orf" id="dummy-1_q10_0_all"  />
<polygon points="294,40 335,40 340,35 335,30 294,30 294,40 " style="fill:#d815a7; stroke-width:1; stroke:black; " description="&lt;b&gt;ctg19_12&lt;/b&gt;&lt;br&gt;ctg19 12&lt;br&gt;Location: 9212 - 10616" locus_tag="ctg19_12" class="clusterblast-orf" id="dummy-1_q11_0_all"  />
<polygon points="341,40 381,40 386,35 381,30 341,30 341,40 " style="fill:#c0d815; stroke-width:1; stroke:black; " description="&lt;b&gt;ctg19_13&lt;/b&gt;&lt;br&gt;ctg19 13&lt;br&gt;Location: 10627 - 11989" locus_tag="ctg19_13" class="clusterblast-orf" id="dummy-1_q12_0_all"  />
<polygon points="387,40 412,40 417,35 412,30 387,30 387,40 " style="fill:#15d88f; stroke-width:1; stroke:black; " description="&lt;b&gt;ctg19_14&lt;/b&gt;&lt;br&gt;ctg19 14&lt;br&gt;Location: 12007 - 12904" locus_tag="ctg19_14" class="clusterblast-orf" id="dummy-1_q13_0_all"  />
<polygon points="417,40 434,40 439,35 434,30 417,30 417,40 " style="fill:#2e15d8; stroke-width:1; stroke:black; " description="&lt;b&gt;ctg19_15&lt;/b&gt;&lt;br&gt;ctg19 15&lt;br&gt;Location: 12913 - 13573" locus_tag="ctg19_15" class="clusterblast-orf" id="dummy-1_q14_0_all"  />
<polygon points="439,40 451,40 456,35 451,30 439,30 439,40 " style="fill:#2ed815; stroke-width:1; stroke:black; " description="&lt;b&gt;ctg19_16&lt;/b&gt;&lt;br&gt;ctg19 16&lt;br&gt;Location: 13585 - 14080" locus_tag="ctg19_16" class="clusterblast-orf" id="dummy-1_q15_0_all"  />
<polygon points="460,40 487,40 492,35 487,30 460,30 460,40 " style="fill:#d8155e; stroke-width:1; stroke:black; " description="&lt;b&gt;ctg19_17&lt;/b&gt;&lt;br&gt;ctg19 17&lt;br&gt;Location: 14211 - 15180" locus_tag="ctg19_17" class="clusterblast-orf" id="dummy-1_q16_0_all"  />
<polygon points="499,35 504,30 541,30 541,40 504,40 499,35 " style="fill:white; stroke-width:1; stroke:black; " description="&lt;b&gt;ctg19_18&lt;/b&gt;&lt;br&gt;ctg19 18&lt;br&gt;Location: 15379 - 16657" locus_tag="ctg19_18" class="clusterblast-orf" id="dummy-1_q17_0_all"  />
<polygon points="546,35 551,30 557,30 557,40 551,40 546,35 " style="fill:white; stroke-width:1; stroke:black; " description="&lt;b&gt;ctg19_19&lt;/b&gt;&lt;br&gt;ctg19 19&lt;br&gt;Location: 16785 - 17115" locus_tag="ctg19_19" class="clusterblast-orf" id="dummy-1_q18_0_all"  />
<polygon points="557,35 562,30 587,30 587,40 562,40 557,35 " style="fill:white; stroke-width:1; stroke:black; " description="&lt;b&gt;ctg19_20&lt;/b&gt;&lt;br&gt;ctg19 20&lt;br&gt;Location: 17135 - 18035" locus_tag="ctg19_20" class="clusterblast-orf" id="dummy-1_q19_0_all"  />
<polygon points="587,35 592,30 616,30 616,40 592,40 587,35 " style="fill:white; stroke-width:1; stroke:black; " description="&lt;b&gt;ctg19_21&lt;/b&gt;&lt;br&gt;ctg19 21&lt;br&gt;Location: 18037 - 18907" locus_tag="ctg19_21" class="clusterblast-orf" id="dummy-1_q20_0_all"  />
<polygon points="623,40 633,40 638,35 633,30 623,30 623,40 " style="fill:white; stroke-width:1; stroke:black; " description="&lt;b&gt;ctg19_22&lt;/b&gt;&lt;br&gt;ctg19 22&lt;br&gt;Location: 19119 - 19545" locus_tag="ctg19_22" class="clusterblast-orf" id="dummy-1_q21_0_all"  />
<polygon points="637,40 647,40 652,35 647,30 637,30 637,40 " style="fill:white; stroke-width:1; stroke:black; " description="&lt;b&gt;ctg19_23&lt;/b&gt;&lt;br&gt;ctg19 23&lt;br&gt;Location: 19531 - 19981" locus_tag="ctg19_23" class="clusterblast-orf" id="dummy-1_q22_0_all"  />
<polygon points="654,40 668,40 673,35 668,30 654,30 654,40 " style="fill:white; stroke-width:1; stroke:black; " description="&lt;b&gt;ctg19_24&lt;/b&gt;&lt;br&gt;ctg19 24&lt;br&gt;Location: 20042 - 20618" locus_tag="ctg19_24" class="clusterblast-orf" id="dummy-1_q23_0_all"  />
<polygon points="677,40 701,40 706,35 701,30 677,30 677,40 " style="fill:white; stroke-width:1; stroke:black; " description="&lt;b&gt;ctg19_25&lt;/b&gt;&lt;br&gt;ctg19 25&lt;br&gt;Location: 20712 - 21612" locus_tag="ctg19_25" class="clusterblast-orf" id="dummy-1_q24_0_all"  />
<polygon points="704,35 709,30 710,30 710,40 709,40 704,35 " style="fill:white; stroke-width:1; stroke:black; " description="&lt;b&gt;ctg19_26&lt;/b&gt;&lt;br&gt;ctg19 26&lt;br&gt;Location: 21547 - 21715" locus_tag="ctg19_26" class="clusterblast-orf" id="dummy-1_q25_0_all"  />
<polygon points="714,40 736,40 741,35 736,30 714,30 714,40 " style="fill:white; stroke-width:1; stroke:black; " description="&lt;b&gt;ctg19_27&lt;/b&gt;&lt;br&gt;ctg19 27&lt;br&gt;Location: 21849 - 22641" locus_tag="ctg19_27" class="clusterblast-orf" id="dummy-1_q26_0_all"  />
<polygon points="746,40 775,40 780,35 775,30 746,30 746,40 " style="fill:white; stroke-width:1; stroke:black; " description="&lt;b&gt;ctg19_28&lt;/b&gt;&lt;br&gt;ctg19 28&lt;br&gt;Location: 22798 - 23815" locus_tag="ctg19_28" class="clusterblast-orf" id="dummy-1_q27_0_all"  />
</g>
<g label="MGC0000003" description="MGC0000003_c1: Ethanolamine degradation S. typhimurium (94% of genes show similarity), EUT" class="clusterblast-cluster"  >
<text x="5" y="70" class="clusterblast-acc"  >
MGC0000003_c1: Ethanolamine degradation S. typhimurium (94% of genes show similarity), EUT</text>
<line x1="10" y1="85" x2="778.0" y2="85" style="stroke-width:1; stroke:grey; "  />
</g>
<g id="a1_000"  >
<polygon points="87,90 157,90 162,85 157,80 87,80 87,90 " style="fill:#d85e15; stroke-width:1; stroke:black; " description="&lt;b&gt;STM2472&lt;/b&gt;&lt;br&gt;malic enzyme&lt;br&gt;Location: 18301 - 16021&lt;br&gt;&lt;br&gt;&lt;b&gt;BlastP hit with ctg19_5&lt;/b&gt;&lt;br&gt;Percentage identity: 32&lt;br&gt;Percentage coverage: 96&lt;br&gt;BLAST bit score: 147&lt;br&gt;E-value: 3.13e-41" locus_tag="STM2472" class="clusterblast-orf" id="dummy-1_h1_1_0"  />
</g>
<g id="a1_001"  >
<polygon points="169,90 179,90 184,85 179,80 169,80 169,90 " style="fill:white; stroke-width:1; stroke:black; " description="&lt;b&gt;STM2471&lt;/b&gt;&lt;br&gt;insertion sequence element IS200 transposase&lt;br&gt;Location: 15832 - 15373" locus_tag="STM2471" class="clusterblast-orf" id="dummy-1_h1_1_1"  />
</g>
<g id="a1_002"  >
<polygon points="200,90 206,90 211,85 206,80 200,80 200,90 " style="fill:#d81515; stroke-width:1; stroke:black; " description="&lt;b&gt;STM2470&lt;/b&gt;&lt;br&gt;carboxysome structural protein EutS&lt;br&gt;Location: 14893 - 14557&lt;br&gt;&lt;br&gt;&lt;b&gt;BlastP hit with ctg19_1&lt;/b&gt;&lt;br&gt;Percentage identity: 100&lt;br&gt;Percentage coverage: 100&lt;br&gt;BLAST bit score: 219&lt;br&gt;E-value: 1.05e-77" locus_tag="STM2470" class="clusterblast-orf" id="dummy-1_h1_1_2"  />
</g>
<g id="a1_003"  >
<polygon points="212,90 223,90 228,85 223,80 212,80 212,90 " style="fill:#77d815; stroke-width:1; stroke:black; " description="&lt;b&gt;STM2469&lt;/b&gt;&lt;br&gt;ethanolamine utilization protein EutP&lt;br&gt;Location: 14545 - 14065&lt;br&gt;&lt;br&gt;&lt;b&gt;BlastP hit with ctg19_2&lt;/b&gt;&lt;br&gt;Percentage identity: 100&lt;br&gt;Percentage coverage: 100&lt;br&gt;BLAST bit score: 323&lt;br&gt;E-value: 1.76e-117" locus_tag="STM2469" class="clusterblast-orf" id="dummy-1_h1_1_3"  />
</g>
<g id="a1_004"  >
<polygon points="227,90 245,90 250,85 245,80 227,80 227,90 " style="fill:#15d8d8; stroke-width:1; stroke:black; " description="&lt;b&gt;STM2468&lt;/b&gt;&lt;br&gt;ethanolamine utilization protein EutQ&lt;br&gt;Location: 14088 - 13398&lt;br&gt;&lt;br&gt;&lt;b&gt;BlastP hit with ctg19_3&lt;/b&gt;&lt;br&gt;Percentage identity: 100&lt;br&gt;Percentage coverage: 100&lt;br&gt;BLAST bit score: 445&lt;br&gt;E-value: 1.69e-163" locus_tag="STM2468" class="clusterblast-orf" id="dummy-1_h1_1_4"  />
</g>
<g id="a1_005"  >
<polygon points="250,90 271,90 276,85 271,80 250,80 250,90 " style="fill:#7715d8; stroke-width:1; stroke:black; " description="&lt;b&gt;STM2467&lt;/b&gt;&lt;br&gt;cobalamin adenosyltransferase EutT&lt;br&gt;Location: 13402 - 12598&lt;br&gt;&lt;br&gt;&lt;b&gt;BlastP hit with ctg19_4&lt;/b&gt;&lt;br&gt;Percentage identity: 100&lt;br&gt;Percentage coverage: 100&lt;br&gt;BLAST bit score: 530&lt;br&gt;E-value: 9.14e-196" locus_tag="STM2467" class="clusterblast-orf" id="dummy-1_h1_1_5"  />
</g>
<g id="a1_006"  >
<polygon points="276,90 305,90 310,85 305,80 276,80 276,90 " style="fill:#d85e15; stroke-width:1; stroke:black; " description="&lt;b&gt;STM2466&lt;/b&gt;&lt;br&gt;phosphotransacetylase EutD&lt;br&gt;Location: 12602 - 11585&lt;br&gt;&lt;br&gt;&lt;b&gt;BlastP hit with ctg19_5&lt;/b&gt;&lt;br&gt;Percentage identity: 100&lt;br&gt;Percentage coverage: 100&lt;br&gt;BLAST bit score: 649&lt;br&gt;E-value: 1.25e-240" locus_tag="STM2466" class="clusterblast-orf" id="dummy-1_h1_1_6"  />
</g>
<g id="a1_007"  >
<polygon points="311,90 316,90 321,85 316,80 311,80 311,90 " style="fill:#2ed815; stroke-width:1; stroke:black; " description="&lt;b&gt;STM2465&lt;/b&gt;&lt;br&gt;carboxysome structural protein EutM&lt;br&gt;Location: 11545 - 11254&lt;br&gt;&lt;br&gt;&lt;b&gt;BlastP hit with ctg19_6&lt;/b&gt;&lt;br&gt;Percentage identity: 100&lt;br&gt;Percentage coverage: 100&lt;br&gt;BLAST bit score: 179&lt;br&gt;E-value: 2.59e-62&lt;br&gt;&lt;br&gt;&lt;b&gt;BlastP hit with ctg19_16&lt;/b&gt;&lt;br&gt;Percentage identity: 48&lt;br&gt;Percentage coverage: 51&lt;br&gt;BLAST bit score: 76&lt;br&gt;E-value: 1.07e-20" locus_tag="STM2465" class="clusterblast-orf" id="dummy-1_h1_1_7"  />
</g>
<g id="a1_008"  >
<polygon points="325,90 329,90 334,85 329,80 325,80 325,90 " style="fill:#158fd8; stroke-width:1; stroke:black; " description="&lt;b&gt;STM2464&lt;/b&gt;&lt;br&gt;microcompartment shell protein EutN&lt;br&gt;Location: 11142 - 10854&lt;br&gt;&lt;br&gt;&lt;b&gt;BlastP hit with ctg19_7&lt;/b&gt;&lt;br&gt;Percentage identity: 100&lt;br&gt;Percentage coverage: 100&lt;br&gt;BLAST bit score: 190&lt;br&gt;E-value: 9.06e-67" locus_tag="STM2464" class="clusterblast-orf" id="dummy-1_h1_1_8"  />
</g>
<g id="a1_009"  >
<polygon points="335,90 377,90 382,85 377,80 335,80 335,90 " style="fill:#c015d8; stroke-width:1; stroke:black; " description="&lt;b&gt;STM2463&lt;/b&gt;&lt;br&gt;aldehyde oxidoreductase EutE&lt;br&gt;Location: 10843 - 9439&lt;br&gt;&lt;br&gt;&lt;b&gt;BlastP hit with ctg19_8&lt;/b&gt;&lt;br&gt;Percentage identity: 100&lt;br&gt;Percentage coverage: 100&lt;br&gt;BLAST bit score: 884&lt;br&gt;E-value: 0.0" locus_tag="STM2463" class="clusterblast-orf" id="dummy-1_h1_1_9"  />
</g>
<g id="a1_0010"  >
<polygon points="382,90 405,90 410,85 405,80 382,80 382,90 " style="fill:#d8a715; stroke-width:1; stroke:black; " description="&lt;b&gt;STM2462&lt;/b&gt;&lt;br&gt;ethanolamine utilization protein EutJ&lt;br&gt;Location: 9429 - 8589&lt;br&gt;&lt;br&gt;&lt;b&gt;BlastP hit with ctg19_9&lt;/b&gt;&lt;br&gt;Percentage identity: 100&lt;br&gt;Percentage coverage: 100&lt;br&gt;BLAST bit score: 566&lt;br&gt;E-value: 7.61e-210" locus_tag="STM2462" class="clusterblast-orf" id="dummy-1_h1_1_10"  />
</g>
<g id="a1_0011"  >
<polygon points="410,90 444,90 449,85 444,80 410,80 410,90 " style="fill:#15d846; stroke-width:1; stroke:black; " description="&lt;b&gt;STM2461&lt;/b&gt;&lt;br&gt;ethanol dehydrogenase EutG&lt;br&gt;Location: 8600 - 7412&lt;br&gt;&lt;br&gt;&lt;b&gt;BlastP hit with ctg19_10&lt;/b&gt;&lt;br&gt;Percentage identity: 100&lt;br&gt;Percentage coverage: 100&lt;br&gt;BLAST bit score: 756&lt;br&gt;E-value: 4.5e-281" locus_tag="STM2461" class="clusterblast-orf" id="dummy-1_h1_1_11"  />
</g>
<g id="a1_0012"  >
<polygon points="453,90 489,90 494,85 489,80 453,80 453,90 " style="fill:#1546d8; stroke-width:1; stroke:black; " description="&lt;b&gt;STM2460&lt;/b&gt;&lt;br&gt;ethanolamine transporter EutH&lt;br&gt;Location: 7293 - 6066&lt;br&gt;&lt;br&gt;&lt;b&gt;BlastP hit with ctg19_11&lt;/b&gt;&lt;br&gt;Percentage identity: 100&lt;br&gt;Percentage coverage: 100&lt;br&gt;BLAST bit score: 765&lt;br&gt;E-value: 5.51e-284" locus_tag="STM2460" class="clusterblast-orf" id="dummy-1_h1_1_12"  />
</g>
<g id="a1_0013"  >
<polygon points="494,90 535,90 540,85 535,80 494,80 494,90 " style="fill:#d815a7; stroke-width:1; stroke:black; " description="&lt;b&gt;STM2459&lt;/b&gt;&lt;br&gt;ethanolamine utilization protein EutA&lt;br&gt;Location: 6070 - 4666&lt;br&gt;&lt;br&gt;&lt;b&gt;BlastP hit with ctg19_12&lt;/b&gt;&lt;br&gt;Percentage identity: 100&lt;br&gt;Percentage coverage: 100&lt;br&gt;BLAST bit score: 896&lt;br&gt;E-value: 0.0" locus_tag="STM2459" class="clusterblast-orf" id="dummy-1_h1_1_13"  />
</g>
<g id="a1_0014"  >
<polygon points="541,90 581,90 586,85 581,80 541,80 541,90 " style="fill:#c0d815; stroke-width:1; stroke:black; " description="&lt;b&gt;STM2458&lt;/b&gt;&lt;br&gt;ethanolamine ammonia-lyase large subunit EutB&lt;br&gt;Location: 4655 - 3293&lt;br&gt;&lt;br&gt;&lt;b&gt;BlastP hit with ctg19_13&lt;/b&gt;&lt;br&gt;Percentage identity: 100&lt;br&gt;Percentage coverage: 100&lt;br&gt;BLAST bit score: 902&lt;br&gt;E-value: 0.0" locus_tag="STM2458" class="clusterblast-orf" id="dummy-1_h1_1_14"  />
</g>
<g id="a1_0015"  >
<polygon points="587,90 612,90 617,85 612,80 587,80 587,90 " style="fill:#15d88f; stroke-width:1; stroke:black; " description="&lt;b&gt;STM2457&lt;/b&gt;&lt;br&gt;ethanolamine ammonia-lyase small subunit EutC&lt;br&gt;Location: 3275 - 2378&lt;br&gt;&lt;br&gt;&lt;b&gt;BlastP hit with ctg19_14&lt;/b&gt;&lt;br&gt;Percentage identity: 100&lt;br&gt;Percentage coverage: 100&lt;br&gt;BLAST bit score: 576&lt;br&gt;E-value: 7.29e-213" locus_tag="STM2457" class="clusterblast-orf" id="dummy-1_h1_1_15"  />
</g>
<g id="a1_0016"  >
<polygon points="617,90 634,90 639,85 634,80 617,80 617,90 " style="fill:#2e15d8; stroke-width:1; stroke:black; " description="&lt;b&gt;STM2456&lt;/b&gt;&lt;br&gt;carboxysome structural protein EutL&lt;br&gt;Location: 2369 - 1709&lt;br&gt;&lt;br&gt;&lt;b&gt;BlastP hit with ctg19_15&lt;/b&gt;&lt;br&gt;Percentage identity: 100&lt;br&gt;Percentage coverage: 100&lt;br&gt;BLAST bit score: 415&lt;br&gt;E-value: 8.71e-152" locus_tag="STM2456" class="clusterblast-orf" id="dummy-1_h1_1_16"  />
</g>
<g id="a1_0017"  >
<polygon points="639,90 651,90 656,85 651,80 639,80 639,90 " style="fill:#2ed815; stroke-width:1; stroke:black; " description="&lt;b&gt;STM2455&lt;/b&gt;&lt;br&gt;carboxysome structural protein EutK&lt;br&gt;Location: 1697 - 1202&lt;br&gt;&lt;br&gt;&lt;b&gt;BlastP hit with ctg19_6&lt;/b&gt;&lt;br&gt;Percentage identity: 48&lt;br&gt;Percentage coverage: 86&lt;br&gt;BLAST bit score: 72&lt;br&gt;E-value: 1.96e-19&lt;br&gt;&lt;br&gt;&lt;b&gt;BlastP hit with ctg19_16&lt;/b&gt;&lt;br&gt;Percentage identity: 100&lt;br&gt;Percentage coverage: 100&lt;br&gt;BLAST bit score: 309&lt;br&gt;E-value: 7.95e-112" locus_tag="STM2455" class="clusterblast-orf" id="dummy-1_h1_1_17"  />
</g>
<g id="a1_0018"  >
<polygon points="657,90 687,90 692,85 687,80 657,80 657,90 " style="fill:#d8155e; stroke-width:1; stroke:black; " description="&lt;b&gt;STM2454&lt;/b&gt;&lt;br&gt;HTH-type transcriptional regulator EutR&lt;br&gt;Location: 1155 - 102&lt;br&gt;&lt;br&gt;&lt;b&gt;BlastP hit with ctg19_17&lt;/b&gt;&lt;br&gt;Percentage identity: 100&lt;br&gt;Percentage coverage: 100&lt;br&gt;BLAST bit score: 649&lt;br&gt;E-value: 2.07e-240" locus_tag="STM2454" class="clusterblast-orf" id="dummy-1_h1_1_18"  />
</g>
</svg>
