<svg xmlns="http://www.w3.org/2000/svg" xmlns:xlink="http://www.w3.org/1999/xlink" version="1.1" x="0" y="0" height="50" width="800" viewBox="0 0 800 50" preserveAspectRatio="none"  >
<g label="Query sequence" class="clusterblast-cluster"  >
<text x="5" y="20" class="clusterblast-acc"  >
Query sequence</text>
<line x1="10" y1="35" x2="778.0" y2="35" style="stroke-width:1; stroke:grey; "  />
<polygon points="0,40 43,40 48,35 43,30 0,30 0,40 " style="fill:white; stroke-width:1; stroke:black; " description="&lt;b&gt;ctg5_347&lt;/b&gt;&lt;br&gt;ctg5 347&lt;br&gt;Location: 384829 - 386473" locus_tag="ctg5_347" class="clusterblast-orf" id="knownclusterblast-4_q0_0_all"  />
<polygon points="48,40 62,40 67,35 62,30 48,30 48,40 " style="fill:white; stroke-width:1; stroke:black; " description="&lt;b&gt;ctg5_348&lt;/b&gt;&lt;br&gt;ctg5 348&lt;br&gt;Location: 386469 - 387138" locus_tag="ctg5_348" class="clusterblast-orf" id="knownclusterblast-4_q1_0_all"  />
<polygon points="67,40 94,40 99,35 94,30 67,30 67,40 " style="fill:white; stroke-width:1; stroke:black; " description="&lt;b&gt;ctg5_349&lt;/b&gt;&lt;br&gt;ctg5 349&lt;br&gt;Location: 387138 - 388218" locus_tag="ctg5_349" class="clusterblast-orf" id="knownclusterblast-4_q2_0_all"  />
<polygon points="99,35 102,30 102,40 99,35 " style="fill:white; stroke-width:1; stroke:black; " description="&lt;b&gt;ctg5_350&lt;/b&gt;&lt;br&gt;ctg5 350&lt;br&gt;Location: 388225 - 388315" locus_tag="ctg5_350" class="clusterblast-orf" id="knownclusterblast-4_q3_0_all"  />
<polygon points="104,35 109,30 148,30 148,40 109,40 104,35 " style="fill:white; stroke-width:1; stroke:black; " description="&lt;b&gt;ctg5_351&lt;/b&gt;&lt;br&gt;ctg5 351&lt;br&gt;Location: 388384 - 389887" locus_tag="ctg5_351" class="clusterblast-orf" id="knownclusterblast-4_q4_0_all"  />
<polygon points="162,40 166,40 171,35 166,30 162,30 162,40 " style="fill:white; stroke-width:1; stroke:black; " description="&lt;b&gt;ctg5_352&lt;/b&gt;&lt;br&gt;ctg5 352&lt;br&gt;Location: 390354 - 390690" locus_tag="ctg5_352" class="clusterblast-orf" id="knownclusterblast-4_q5_0_all"  />
<polygon points="175,40 183,40 188,35 183,30 175,30 175,40 " style="fill:white; stroke-width:1; stroke:black; " description="&lt;b&gt;ctg5_353&lt;/b&gt;&lt;br&gt;ctg5 353&lt;br&gt;Location: 390809 - 391253" locus_tag="ctg5_353" class="clusterblast-orf" id="knownclusterblast-4_q6_0_all"  />
<polygon points="192,40 200,40 205,35 200,30 192,30 192,40 " style="fill:white; stroke-width:1; stroke:black; " description="&lt;b&gt;ctg5_354&lt;/b&gt;&lt;br&gt;ctg5 354&lt;br&gt;Location: 391404 - 391839" locus_tag="ctg5_354" class="clusterblast-orf" id="knownclusterblast-4_q7_0_all"  />
<polygon points="213,40 234,40 239,35 234,30 213,30 213,40 " style="fill:white; stroke-width:1; stroke:black; " description="&lt;b&gt;ctg5_355&lt;/b&gt;&lt;br&gt;ctg5 355&lt;br&gt;Location: 392096 - 393005" locus_tag="ctg5_355" class="clusterblast-orf" id="knownclusterblast-4_q8_0_all"  />
<polygon points="250,40 257,40 262,35 257,30 250,30 250,40 " style="fill:white; stroke-width:1; stroke:black; " description="&lt;b&gt;ctg5_356&lt;/b&gt;&lt;br&gt;ctg5 356&lt;br&gt;Location: 393359 - 393779" locus_tag="ctg5_356" class="clusterblast-orf" id="knownclusterblast-4_q9_0_all"  />
<polygon points="263,40 307,40 312,35 307,30 263,30 263,40 " style="fill:white; stroke-width:1; stroke:black; " description="&lt;b&gt;ctg5_357&lt;/b&gt;&lt;br&gt;ctg5 357&lt;br&gt;Location: 393827 - 395507" locus_tag="ctg5_357" class="clusterblast-orf" id="knownclusterblast-4_q10_0_all"  />
<polygon points="318,40 333,40 338,35 333,30 318,30 318,40 " style="fill:white; stroke-width:1; stroke:black; " description="&lt;b&gt;ctg5_358&lt;/b&gt;&lt;br&gt;ctg5 358&lt;br&gt;Location: 395683 - 396373" locus_tag="ctg5_358" class="clusterblast-orf" id="knownclusterblast-4_q11_0_all"  />
<polygon points="342,35 347,30 381,30 381,40 347,40 342,35 " style="fill:white; stroke-width:1; stroke:black; " description="&lt;b&gt;ctg5_359&lt;/b&gt;&lt;br&gt;ctg5 359&lt;br&gt;Location: 396530 - 397841" locus_tag="ctg5_359" class="clusterblast-orf" id="knownclusterblast-4_q12_0_all"  />
<polygon points="391,35 396,30 409,30 409,40 396,40 391,35 " style="fill:white; stroke-width:1; stroke:black; " description="&lt;b&gt;ctg5_360&lt;/b&gt;&lt;br&gt;ctg5 360&lt;br&gt;Location: 398185 - 398806" locus_tag="ctg5_360" class="clusterblast-orf" id="knownclusterblast-4_q13_0_all"  />
<polygon points="409,35 414,30 474,30 474,40 414,40 409,35 " style="fill:white; stroke-width:1; stroke:black; " description="&lt;b&gt;ctg5_361&lt;/b&gt;&lt;br&gt;ctg5 361&lt;br&gt;Location: 398802 - 401025" locus_tag="ctg5_361" class="clusterblast-orf" id="knownclusterblast-4_q14_0_all"  />
<polygon points="474,35 479,30 502,30 502,40 479,40 474,35 " style="fill:white; stroke-width:1; stroke:black; " description="&lt;b&gt;ctg5_362&lt;/b&gt;&lt;br&gt;ctg5 362&lt;br&gt;Location: 401017 - 401974" locus_tag="ctg5_362" class="clusterblast-orf" id="knownclusterblast-4_q15_0_all"  />
<polygon points="502,35 507,30 521,30 521,40 507,40 502,35 " style="fill:white; stroke-width:1; stroke:black; " description="&lt;b&gt;ctg5_363&lt;/b&gt;&lt;br&gt;ctg5 363&lt;br&gt;Location: 401970 - 402642" locus_tag="ctg5_363" class="clusterblast-orf" id="knownclusterblast-4_q16_0_all"  />
<polygon points="521,35 526,30 538,30 538,40 526,40 521,35 " style="fill:white; stroke-width:1; stroke:black; " description="&lt;b&gt;ctg5_364&lt;/b&gt;&lt;br&gt;ctg5 364&lt;br&gt;Location: 402638 - 403205" locus_tag="ctg5_364" class="clusterblast-orf" id="knownclusterblast-4_q17_0_all"  />
<polygon points="541,35 546,30 583,30 583,40 546,40 541,35 " style="fill:white; stroke-width:1; stroke:black; " description="&lt;b&gt;ctg5_365&lt;/b&gt;&lt;br&gt;ctg5 365&lt;br&gt;Location: 403316 - 404753" locus_tag="ctg5_365" class="clusterblast-orf" id="knownclusterblast-4_q18_0_all"  />
<polygon points="596,40 648,40 653,35 648,30 596,30 596,40 " style="fill:white; stroke-width:1; stroke:black; " description="&lt;b&gt;ctg5_366&lt;/b&gt;&lt;br&gt;ctg5 366&lt;br&gt;Location: 405184 - 407143" locus_tag="ctg5_366" class="clusterblast-orf" id="knownclusterblast-4_q19_0_all"  />
<polygon points="660,40 664,40 669,35 664,30 660,30 660,40 " style="fill:white; stroke-width:1; stroke:black; " description="&lt;b&gt;ctg5_367&lt;/b&gt;&lt;br&gt;ctg5 367&lt;br&gt;Location: 407388 - 407703" locus_tag="ctg5_367" class="clusterblast-orf" id="knownclusterblast-4_q20_0_all"  />
<polygon points="669,40 713,40 718,35 713,30 669,30 669,40 " style="fill:white; stroke-width:1; stroke:black; " description="&lt;b&gt;ctg5_368&lt;/b&gt;&lt;br&gt;ctg5 368&lt;br&gt;Location: 407699 - 409349" locus_tag="ctg5_368" class="clusterblast-orf" id="knownclusterblast-4_q21_0_all"  />
<polygon points="719,35 724,30 739,30 739,40 724,40 719,35 " style="fill:white; stroke-width:1; stroke:black; " description="&lt;b&gt;ctg5_369&lt;/b&gt;&lt;br&gt;ctg5 369&lt;br&gt;Location: 409387 - 410077" locus_tag="ctg5_369" class="clusterblast-orf" id="knownclusterblast-4_q22_0_all"  />
<polygon points="739,35 744,30 751,30 751,40 744,40 739,35 " style="fill:white; stroke-width:1; stroke:black; " description="&lt;b&gt;ctg5_370&lt;/b&gt;&lt;br&gt;ctg5 370&lt;br&gt;Location: 410069 - 410480" locus_tag="ctg5_370" class="clusterblast-orf" id="knownclusterblast-4_q23_0_all"  />
<polygon points="754,40 775,40 780,35 775,30 754,30 754,40 " style="fill:white; stroke-width:1; stroke:black; " description="&lt;b&gt;ctg5_371&lt;/b&gt;&lt;br&gt;ctg5 371&lt;br&gt;Location: 410583 - 411471" locus_tag="ctg5_371" class="clusterblast-orf" id="knownclusterblast-4_q24_0_all"  />
</g>
</svg>
