<svg xmlns="http://www.w3.org/2000/svg" xmlns:xlink="http://www.w3.org/1999/xlink" version="1.1" x="0" y="0" height="230" width="800" viewBox="0 0 800 230" preserveAspectRatio="none"  >
<g label="Query sequence" class="clusterblast-cluster"  >
<text x="5" y="20" class="clusterblast-acc"  >
Query sequence</text>
<line x1="10" y1="35" x2="778.0" y2="35" style="stroke-width:1; stroke:grey; "  />
<polygon points="0,35 5,30 18,30 18,40 5,40 0,35 " style="fill:white; stroke-width:1; stroke:black; " description="&lt;b&gt;ctg24_28&lt;/b&gt;&lt;br&gt;ctg24 28&lt;br&gt;Location: 34148 - 34832" locus_tag="ctg24_28" class="clusterblast-orf" id="dummy-1_q0_0_all"  />
<polygon points="23,35 28,30 43,30 43,40 28,40 23,35 " style="fill:white; stroke-width:1; stroke:black; " description="&lt;b&gt;ctg24_29&lt;/b&gt;&lt;br&gt;ctg24 29&lt;br&gt;Location: 35004 - 35766" locus_tag="ctg24_29" class="clusterblast-orf" id="dummy-1_q1_0_all"  />
<polygon points="47,35 52,30 82,30 82,40 52,40 47,35 " style="fill:white; stroke-width:1; stroke:black; " description="&lt;b&gt;ctg24_30&lt;/b&gt;&lt;br&gt;ctg24 30&lt;br&gt;Location: 35908 - 37192" locus_tag="ctg24_30" class="clusterblast-orf" id="dummy-1_q2_0_all"  />
<polygon points="84,35 89,30 113,30 113,40 89,40 84,35 " style="fill:white; stroke-width:1; stroke:black; " description="&lt;b&gt;ctg24_31&lt;/b&gt;&lt;br&gt;ctg24 31&lt;br&gt;Location: 37262 - 38351" locus_tag="ctg24_31" class="clusterblast-orf" id="dummy-1_q3_0_all"  />
<polygon points="118,35 123,30 137,30 137,40 123,40 118,35 " style="fill:white; stroke-width:1; stroke:black; " description="&lt;b&gt;ctg24_32&lt;/b&gt;&lt;br&gt;ctg24 32&lt;br&gt;Location: 38536 - 39229" locus_tag="ctg24_32" class="clusterblast-orf" id="dummy-1_q4_0_all"  />
<polygon points="138,40 183,40 188,35 183,30 138,30 138,40 " style="fill:white; stroke-width:1; stroke:black; " description="&lt;b&gt;ctg24_33&lt;/b&gt;&lt;br&gt;ctg24 33&lt;br&gt;Location: 39290 - 41126" locus_tag="ctg24_33" class="clusterblast-orf" id="dummy-1_q5_0_all"  />
<polygon points="195,40 217,40 222,35 217,30 195,30 195,40 " style="fill:white; stroke-width:1; stroke:black; " description="&lt;b&gt;ctg24_34&lt;/b&gt;&lt;br&gt;ctg24 34&lt;br&gt;Location: 41410 - 42388" locus_tag="ctg24_34" class="clusterblast-orf" id="dummy-1_q6_0_all"  />
<polygon points="223,40 280,40 285,35 280,30 223,30 223,40 " style="fill:#d81515; stroke-width:1; stroke:black; " description="&lt;b&gt;ctg24_35&lt;/b&gt;&lt;br&gt;ctg24 35&lt;br&gt;Location: 42447 - 44730" locus_tag="ctg24_35" class="clusterblast-orf" id="dummy-1_q7_0_all"  />
<polygon points="287,35 292,30 313,30 313,40 292,40 287,35 " style="fill:white; stroke-width:1; stroke:black; " description="&lt;b&gt;ctg24_36&lt;/b&gt;&lt;br&gt;ctg24 36&lt;br&gt;Location: 44805 - 45765" locus_tag="ctg24_36" class="clusterblast-orf" id="dummy-1_q8_0_all"  />
<polygon points="328,40 345,40 350,35 345,30 328,30 328,40 " style="fill:#15d863; stroke-width:1; stroke:black; " description="&lt;b&gt;ctg24_37&lt;/b&gt;&lt;br&gt;ctg24 37&lt;br&gt;Location: 46340 - 47138" locus_tag="ctg24_37" class="clusterblast-orf" id="dummy-1_q9_0_all"  />
<polygon points="357,35 362,30 396,30 396,40 362,40 357,35 " style="fill:white; stroke-width:1; stroke:black; " description="&lt;b&gt;ctg24_38&lt;/b&gt;&lt;br&gt;ctg24 38&lt;br&gt;Location: 47430 - 48852" locus_tag="ctg24_38" class="clusterblast-orf" id="dummy-1_q10_0_all"  />
<polygon points="402,35 407,30 433,30 433,40 407,40 402,35 " style="fill:white; stroke-width:1; stroke:black; " description="&lt;b&gt;ctg24_39&lt;/b&gt;&lt;br&gt;ctg24 39&lt;br&gt;Location: 49069 - 50218" locus_tag="ctg24_39" class="clusterblast-orf" id="dummy-1_q11_0_all"  />
<polygon points="442,35 447,30 465,30 465,40 447,40 442,35 " style="fill:#1563d8; stroke-width:1; stroke:black; " description="&lt;b&gt;ctg24_40&lt;/b&gt;&lt;br&gt;ctg24 40&lt;br&gt;Location: 50567 - 51431" locus_tag="ctg24_40" class="clusterblast-orf" id="dummy-1_q12_0_all"  />
<polygon points="465,35 470,30 482,30 482,40 470,40 465,35 " style="fill:#b115d8; stroke-width:1; stroke:black; " description="&lt;b&gt;ctg24_41&lt;/b&gt;&lt;br&gt;ctg24 41&lt;br&gt;Location: 51432 - 52050" locus_tag="ctg24_41" class="clusterblast-orf" id="dummy-1_q13_0_all"  />
<polygon points="482,35 487,30 548,30 548,40 487,40 482,35 " style="fill:#b1d815; stroke-width:1; stroke:black; " description="&lt;b&gt;ctg24_42&lt;/b&gt;&lt;br&gt;ctg24 42&lt;br&gt;Location: 52060 - 54505" locus_tag="ctg24_42" class="clusterblast-orf" id="dummy-1_q14_0_all"  />
<polygon points="554,35 559,30 589,30 589,40 559,40 554,35 " style="fill:white; stroke-width:1; stroke:black; " description="&lt;b&gt;ctg24_43&lt;/b&gt;&lt;br&gt;ctg24 43&lt;br&gt;Location: 54741 - 56034" locus_tag="ctg24_43" class="clusterblast-orf" id="dummy-1_q15_0_all"  />
<polygon points="596,35 601,30 632,30 632,40 601,40 596,35 " style="fill:white; stroke-width:1; stroke:black; " description="&lt;b&gt;ctg24_44&lt;/b&gt;&lt;br&gt;ctg24 44&lt;br&gt;Location: 56292 - 57636" locus_tag="ctg24_44" class="clusterblast-orf" id="dummy-1_q16_0_all"  />
<polygon points="632,35 637,30 649,30 649,40 637,40 632,35 " style="fill:white; stroke-width:1; stroke:black; " description="&lt;b&gt;ctg24_45&lt;/b&gt;&lt;br&gt;ctg24 45&lt;br&gt;Location: 57645 - 58257" locus_tag="ctg24_45" class="clusterblast-orf" id="dummy-1_q17_0_all"  />
<polygon points="653,35 658,30 763,30 763,40 658,40 653,35 " style="fill:white; stroke-width:1; stroke:black; " description="&lt;b&gt;ctg24_46&lt;/b&gt;&lt;br&gt;ctg24 46&lt;br&gt;Location: 58399 - 62485" locus_tag="ctg24_46" class="clusterblast-orf" id="dummy-1_q18_0_all"  />
<polygon points="766,35 771,30 780,30 780,40 771,40 766,35 " style="fill:white; stroke-width:1; stroke:black; " description="&lt;b&gt;ctg24_47&lt;/b&gt;&lt;br&gt;ctg24 47&lt;br&gt;Location: 62619 - 63114" locus_tag="ctg24_47" class="clusterblast-orf" id="dummy-1_q19_0_all"  />
</g>
<g label="MGC00000044" description="MGC00000044_c1: Pyruvate to acetate-formate E. coli (100% of genes show similarity), PFL_acetate" class="clusterblast-cluster"  >
<text x="5" y="70" class="clusterblast-acc"  >
MGC00000044_c1: Pyruvate to acetate-formate E. coli (100% of genes show similarity), PFL_acetate</text>
<line x1="10" y1="85" x2="778.0" y2="85" style="stroke-width:1; stroke:grey; "  />
</g>
<g id="a1_000"  >
<polygon points="346,90 403,90 408,85 403,80 346,80 346,90 " style="fill:#d81515; stroke-width:1; stroke:black; " description="&lt;b&gt;b0903&lt;/b&gt;&lt;br&gt;pyruvate formate-lyase&lt;br&gt;Location: 13215 - 10932&lt;br&gt;&lt;br&gt;&lt;b&gt;BlastP hit with ctg24_35&lt;/b&gt;&lt;br&gt;Percentage identity: 96&lt;br&gt;Percentage coverage: 100&lt;br&gt;BLAST bit score: 1468&lt;br&gt;E-value: 0.0" locus_tag="b0903" class="clusterblast-orf" id="dummy-1_h1_2_0"  />
</g>
<g id="a1_001"  >
<polygon points="413,90 428,90 433,85 428,80 413,80 413,90 " style="fill:#15d863; stroke-width:1; stroke:black; " description="&lt;b&gt;b0902&lt;/b&gt;&lt;br&gt;pyruvate formate-lyase activating enzyme&lt;br&gt;Location: 10741 - 10000&lt;br&gt;&lt;br&gt;&lt;b&gt;BlastP hit with ctg24_37&lt;/b&gt;&lt;br&gt;Percentage identity: 98&lt;br&gt;Percentage coverage: 92&lt;br&gt;BLAST bit score: 506&lt;br&gt;E-value: 7.77e-187" locus_tag="b0902" class="clusterblast-orf" id="dummy-1_h1_2_1"  />
</g>
</svg>
