<svg xmlns="http://www.w3.org/2000/svg" xmlns:xlink="http://www.w3.org/1999/xlink" version="1.1" x="0" y="0" height="50" width="800" viewBox="0 0 800 50" preserveAspectRatio="none"  >
<g label="Query sequence" class="clusterblast-cluster"  >
<text x="5" y="20" class="clusterblast-acc"  >
Query sequence</text>
<line x1="10" y1="35" x2="778.0" y2="35" style="stroke-width:1; stroke:grey; "  />
<polygon points="0,35 5,30 29,30 29,40 5,40 0,35 " style="fill:white; stroke-width:1; stroke:black; " description="&lt;b&gt;ctg4_1&lt;/b&gt;&lt;br&gt;ctg4 1&lt;br&gt;Location: 327 - 1164" locus_tag="ctg4_1" class="clusterblast-orf" id="knownclusterblast-1_q0_0_all"  />
<polygon points="33,40 39,40 44,35 39,30 33,30 33,40 " style="fill:white; stroke-width:1; stroke:black; " description="&lt;b&gt;ctg4_2&lt;/b&gt;&lt;br&gt;ctg4 2&lt;br&gt;Location: 1282 - 1621" locus_tag="ctg4_2" class="clusterblast-orf" id="knownclusterblast-1_q1_0_all"  />
<polygon points="45,35 50,30 98,30 98,40 50,40 45,35 " style="fill:white; stroke-width:1; stroke:black; " description="&lt;b&gt;ctg4_3&lt;/b&gt;&lt;br&gt;ctg4 3&lt;br&gt;Location: 1645 - 3166" locus_tag="ctg4_3" class="clusterblast-orf" id="knownclusterblast-1_q2_0_all"  />
<polygon points="118,40 170,40 175,35 170,30 118,30 118,40 " style="fill:white; stroke-width:1; stroke:black; " description="&lt;b&gt;ctg4_4&lt;/b&gt;&lt;br&gt;ctg4 4&lt;br&gt;Location: 3755 - 5402" locus_tag="ctg4_4" class="clusterblast-orf" id="knownclusterblast-1_q3_0_all"  />
<polygon points="175,40 179,40 184,35 179,30 175,30 175,40 " style="fill:white; stroke-width:1; stroke:black; " description="&lt;b&gt;ctg4_5&lt;/b&gt;&lt;br&gt;ctg4 5&lt;br&gt;Location: 5398 - 5662" locus_tag="ctg4_5" class="clusterblast-orf" id="knownclusterblast-1_q4_0_all"  />
<polygon points="184,40 211,40 216,35 211,30 184,30 184,40 " style="fill:white; stroke-width:1; stroke:black; " description="&lt;b&gt;ctg4_6&lt;/b&gt;&lt;br&gt;ctg4 6&lt;br&gt;Location: 5679 - 6609" locus_tag="ctg4_6" class="clusterblast-orf" id="knownclusterblast-1_q5_0_all"  />
<polygon points="222,40 281,40 286,35 281,30 222,30 222,40 " style="fill:white; stroke-width:1; stroke:black; " description="&lt;b&gt;ctg4_7&lt;/b&gt;&lt;br&gt;ctg4 7&lt;br&gt;Location: 6769 - 8620" locus_tag="ctg4_7" class="clusterblast-orf" id="knownclusterblast-1_q6_0_all"  />
<polygon points="286,40 334,40 339,35 334,30 286,30 286,40 " style="fill:white; stroke-width:1; stroke:black; " description="&lt;b&gt;ctg4_8&lt;/b&gt;&lt;br&gt;ctg4 8&lt;br&gt;Location: 8622 - 10167" locus_tag="ctg4_8" class="clusterblast-orf" id="knownclusterblast-1_q7_0_all"  />
<polygon points="349,40 355,40 360,35 355,30 349,30 349,40 " style="fill:white; stroke-width:1; stroke:black; " description="&lt;b&gt;ctg4_9&lt;/b&gt;&lt;br&gt;ctg4 9&lt;br&gt;Location: 10450 - 10768" locus_tag="ctg4_9" class="clusterblast-orf" id="knownclusterblast-1_q8_0_all"  />
<polygon points="360,40 366,40 371,35 366,30 360,30 360,40 " style="fill:white; stroke-width:1; stroke:black; " description="&lt;b&gt;ctg4_10&lt;/b&gt;&lt;br&gt;ctg4 10&lt;br&gt;Location: 10764 - 11106" locus_tag="ctg4_10" class="clusterblast-orf" id="knownclusterblast-1_q9_0_all"  />
<polygon points="371,35 376,30 402,30 402,40 376,40 371,35 " style="fill:white; stroke-width:1; stroke:black; " description="&lt;b&gt;ctg4_11&lt;/b&gt;&lt;br&gt;ctg4 11&lt;br&gt;Location: 11108 - 11996" locus_tag="ctg4_11" class="clusterblast-orf" id="knownclusterblast-1_q10_0_all"  />
<polygon points="408,40 453,40 458,35 453,30 408,30 408,40 " style="fill:white; stroke-width:1; stroke:black; " description="&lt;b&gt;ctg4_12&lt;/b&gt;&lt;br&gt;ctg4 12&lt;br&gt;Location: 12159 - 13635" locus_tag="ctg4_12" class="clusterblast-orf" id="knownclusterblast-1_q11_0_all"  />
<polygon points="462,35 467,30 471,30 471,40 467,40 462,35 " style="fill:white; stroke-width:1; stroke:black; " description="&lt;b&gt;ctg4_13&lt;/b&gt;&lt;br&gt;ctg4 13&lt;br&gt;Location: 13726 - 14008" locus_tag="ctg4_13" class="clusterblast-orf" id="knownclusterblast-1_q12_0_all"  />
<polygon points="475,40 478,40 483,35 478,30 475,30 475,40 " style="fill:white; stroke-width:1; stroke:black; " description="&lt;b&gt;ctg4_14&lt;/b&gt;&lt;br&gt;ctg4 14&lt;br&gt;Location: 14111 - 14360" locus_tag="ctg4_14" class="clusterblast-orf" id="knownclusterblast-1_q13_0_all"  />
<polygon points="490,40 555,40 560,35 555,30 490,30 490,40 " style="fill:white; stroke-width:1; stroke:black; " description="&lt;b&gt;ctg4_15&lt;/b&gt;&lt;br&gt;ctg4 15&lt;br&gt;Location: 14545 - 16570" locus_tag="ctg4_15" class="clusterblast-orf" id="knownclusterblast-1_q14_0_all"  />
<polygon points="561,35 566,30 612,30 612,40 566,40 561,35 " style="fill:white; stroke-width:1; stroke:black; " description="&lt;b&gt;ctg4_16&lt;/b&gt;&lt;br&gt;ctg4 16&lt;br&gt;Location: 16609 - 18091" locus_tag="ctg4_16" class="clusterblast-orf" id="knownclusterblast-1_q15_0_all"  />
<polygon points="616,35 621,30 660,30 660,40 621,40 616,35 " style="fill:white; stroke-width:1; stroke:black; " description="&lt;b&gt;ctg4_17&lt;/b&gt;&lt;br&gt;ctg4 17&lt;br&gt;Location: 18209 - 19475" locus_tag="ctg4_17" class="clusterblast-orf" id="knownclusterblast-1_q16_0_all"  />
<polygon points="665,40 671,40 676,35 671,30 665,30 665,40 " style="fill:white; stroke-width:1; stroke:black; " description="&lt;b&gt;ctg4_18&lt;/b&gt;&lt;br&gt;ctg4 18&lt;br&gt;Location: 19618 - 19948" locus_tag="ctg4_18" class="clusterblast-orf" id="knownclusterblast-1_q17_0_all"  />
<polygon points="690,40 729,40 734,35 729,30 690,30 690,40 " style="fill:white; stroke-width:1; stroke:black; " description="&lt;b&gt;ctg4_19&lt;/b&gt;&lt;br&gt;ctg4 19&lt;br&gt;Location: 20366 - 21626" locus_tag="ctg4_19" class="clusterblast-orf" id="knownclusterblast-1_q18_0_all"  />
<polygon points="742,40 775,40 780,35 775,30 742,30 742,40 " style="fill:white; stroke-width:1; stroke:black; " description="&lt;b&gt;ctg4_20&lt;/b&gt;&lt;br&gt;ctg4 20&lt;br&gt;Location: 21855 - 22959" locus_tag="ctg4_20" class="clusterblast-orf" id="knownclusterblast-1_q19_0_all"  />
</g>
</svg>
