<svg xmlns="http://www.w3.org/2000/svg" xmlns:xlink="http://www.w3.org/1999/xlink" version="1.1" x="0" y="0" height="50" width="800" viewBox="0 0 800 50" preserveAspectRatio="none"  >
<g label="Query sequence" class="clusterblast-cluster"  >
<text x="5" y="20" class="clusterblast-acc"  >
Query sequence</text>
<line x1="10" y1="35" x2="778.0" y2="35" style="stroke-width:1; stroke:grey; "  />
<polygon points="0,40 69,40 74,35 69,30 0,30 0,40 " style="fill:white; stroke-width:1; stroke:black; " description="&lt;b&gt;ctg4_71&lt;/b&gt;&lt;br&gt;ctg4 71&lt;br&gt;Location: 73440 - 75081" locus_tag="ctg4_71" class="clusterblast-orf" id="knownclusterblast-2_q0_0_all"  />
<polygon points="83,40 89,40 94,35 89,30 83,30 83,40 " style="fill:white; stroke-width:1; stroke:black; " description="&lt;b&gt;ctg4_72&lt;/b&gt;&lt;br&gt;ctg4 72&lt;br&gt;Location: 75286 - 75541" locus_tag="ctg4_72" class="clusterblast-orf" id="knownclusterblast-2_q1_0_all"  />
<polygon points="95,40 114,40 119,35 114,30 95,30 95,40 " style="fill:white; stroke-width:1; stroke:black; " description="&lt;b&gt;ctg4_73&lt;/b&gt;&lt;br&gt;ctg4 73&lt;br&gt;Location: 75544 - 76093" locus_tag="ctg4_73" class="clusterblast-orf" id="knownclusterblast-2_q2_0_all"  />
<polygon points="119,40 149,40 154,35 149,30 119,30 119,40 " style="fill:white; stroke-width:1; stroke:black; " description="&lt;b&gt;ctg4_74&lt;/b&gt;&lt;br&gt;ctg4 74&lt;br&gt;Location: 76095 - 76875" locus_tag="ctg4_74" class="clusterblast-orf" id="knownclusterblast-2_q3_0_all"  />
<polygon points="156,40 187,40 192,35 187,30 156,30 156,40 " style="fill:white; stroke-width:1; stroke:black; " description="&lt;b&gt;ctg4_75&lt;/b&gt;&lt;br&gt;ctg4 75&lt;br&gt;Location: 76904 - 77699" locus_tag="ctg4_75" class="clusterblast-orf" id="knownclusterblast-2_q4_0_all"  />
<polygon points="192,35 197,30 214,30 214,40 197,40 192,35 " style="fill:white; stroke-width:1; stroke:black; " description="&lt;b&gt;ctg4_76&lt;/b&gt;&lt;br&gt;ctg4 76&lt;br&gt;Location: 77706 - 78195" locus_tag="ctg4_76" class="clusterblast-orf" id="knownclusterblast-2_q5_0_all"  />
<polygon points="222,40 284,40 289,35 284,30 222,30 222,40 " style="fill:white; stroke-width:1; stroke:black; " description="&lt;b&gt;ctg4_77&lt;/b&gt;&lt;br&gt;ctg4 77&lt;br&gt;Location: 78380 - 79859" locus_tag="ctg4_77" class="clusterblast-orf" id="knownclusterblast-2_q6_0_all"  />
<polygon points="292,40 319,40 324,35 319,30 292,30 292,40 " style="fill:white; stroke-width:1; stroke:black; " description="&lt;b&gt;ctg4_78&lt;/b&gt;&lt;br&gt;ctg4 78&lt;br&gt;Location: 79944 - 80646" locus_tag="ctg4_78" class="clusterblast-orf" id="knownclusterblast-2_q7_0_all"  />
<polygon points="335,40 412,40 417,35 412,30 335,30 335,40 " style="fill:white; stroke-width:1; stroke:black; " description="&lt;b&gt;ctg4_79&lt;/b&gt;&lt;br&gt;ctg4 79&lt;br&gt;Location: 80899 - 82723" locus_tag="ctg4_79" class="clusterblast-orf" id="knownclusterblast-2_q8_0_all"  />
<polygon points="426,35 431,30 479,30 479,40 431,40 426,35 " style="fill:white; stroke-width:1; stroke:black; " description="&lt;b&gt;ctg4_80&lt;/b&gt;&lt;br&gt;ctg4 80&lt;br&gt;Location: 82919 - 84083" locus_tag="ctg4_80" class="clusterblast-orf" id="knownclusterblast-2_q9_0_all"  />
<polygon points="479,35 484,30 583,30 583,40 484,40 479,35 " style="fill:white; stroke-width:1; stroke:black; " description="&lt;b&gt;ctg4_81&lt;/b&gt;&lt;br&gt;ctg4 81&lt;br&gt;Location: 84092 - 86408" locus_tag="ctg4_81" class="clusterblast-orf" id="knownclusterblast-2_q10_0_all"  />
<polygon points="586,40 641,40 646,35 641,30 586,30 586,40 " style="fill:white; stroke-width:1; stroke:black; " description="&lt;b&gt;ctg4_82&lt;/b&gt;&lt;br&gt;ctg4 82&lt;br&gt;Location: 86471 - 87803" locus_tag="ctg4_82" class="clusterblast-orf" id="knownclusterblast-2_q11_0_all"  />
<polygon points="646,40 669,40 674,35 669,30 646,30 646,40 " style="fill:white; stroke-width:1; stroke:black; " description="&lt;b&gt;ctg4_83&lt;/b&gt;&lt;br&gt;ctg4 83&lt;br&gt;Location: 87802 - 88417" locus_tag="ctg4_83" class="clusterblast-orf" id="knownclusterblast-2_q12_0_all"  />
<polygon points="675,40 736,40 741,35 736,30 675,30 675,40 " style="fill:white; stroke-width:1; stroke:black; " description="&lt;b&gt;ctg4_84&lt;/b&gt;&lt;br&gt;ctg4 84&lt;br&gt;Location: 88455 - 89907" locus_tag="ctg4_84" class="clusterblast-orf" id="knownclusterblast-2_q13_0_all"  />
<polygon points="741,40 761,40 766,35 761,30 741,30 741,40 " style="fill:white; stroke-width:1; stroke:black; " description="&lt;b&gt;ctg4_85&lt;/b&gt;&lt;br&gt;ctg4 85&lt;br&gt;Location: 89918 - 90464" locus_tag="ctg4_85" class="clusterblast-orf" id="knownclusterblast-2_q14_0_all"  />
<polygon points="767,35 772,30 780,30 780,40 772,40 767,35 " style="fill:white; stroke-width:1; stroke:black; " description="&lt;b&gt;ctg4_86&lt;/b&gt;&lt;br&gt;ctg4 86&lt;br&gt;Location: 90488 - 90782" locus_tag="ctg4_86" class="clusterblast-orf" id="knownclusterblast-2_q15_0_all"  />
</g>
</svg>
