<svg xmlns="http://www.w3.org/2000/svg" xmlns:xlink="http://www.w3.org/1999/xlink" version="1.1" x="0" y="0" height="230" width="800" viewBox="0 0 800 230" preserveAspectRatio="none"  >
<g label="Query sequence" class="clusterblast-cluster"  >
<text x="5" y="20" class="clusterblast-acc"  >
Query sequence</text>
<line x1="10" y1="35" x2="778.0" y2="35" style="stroke-width:1; stroke:grey; "  />
<polygon points="0,35 5,30 18,30 18,40 5,40 0,35 " style="fill:white; stroke-width:1; stroke:black; " description="&lt;b&gt;ctg8_67&lt;/b&gt;&lt;br&gt;ctg8 67&lt;br&gt;Location: 69842 - 70460" locus_tag="ctg8_67" class="clusterblast-orf" id="dummy-1_q0_0_all"  />
<polygon points="38,40 45,40 50,35 45,30 38,30 38,40 " style="fill:white; stroke-width:1; stroke:black; " description="&lt;b&gt;ctg8_68&lt;/b&gt;&lt;br&gt;ctg8 68&lt;br&gt;Location: 71122 - 71536" locus_tag="ctg8_68" class="clusterblast-orf" id="dummy-1_q1_0_all"  />
<polygon points="54,35 59,30 81,30 81,40 59,40 54,35 " style="fill:white; stroke-width:1; stroke:black; " description="&lt;b&gt;ctg8_69&lt;/b&gt;&lt;br&gt;ctg8 69&lt;br&gt;Location: 71667 - 72576" locus_tag="ctg8_69" class="clusterblast-orf" id="dummy-1_q2_0_all"  />
<polygon points="88,35 93,30 118,30 118,40 93,40 88,35 " style="fill:white; stroke-width:1; stroke:black; " description="&lt;b&gt;ctg8_70&lt;/b&gt;&lt;br&gt;ctg8 70&lt;br&gt;Location: 72778 - 73792" locus_tag="ctg8_70" class="clusterblast-orf" id="dummy-1_q3_0_all"  />
<polygon points="121,35 126,30 147,30 147,40 126,40 121,35 " style="fill:white; stroke-width:1; stroke:black; " description="&lt;b&gt;ctg8_71&lt;/b&gt;&lt;br&gt;ctg8 71&lt;br&gt;Location: 73882 - 74779" locus_tag="ctg8_71" class="clusterblast-orf" id="dummy-1_q4_0_all"  />
<polygon points="151,40 160,40 165,35 160,30 151,30 151,40 " style="fill:white; stroke-width:1; stroke:black; " description="&lt;b&gt;ctg8_72&lt;/b&gt;&lt;br&gt;ctg8 72&lt;br&gt;Location: 74898 - 75357" locus_tag="ctg8_72" class="clusterblast-orf" id="dummy-1_q5_0_all"  />
<polygon points="166,40 186,40 191,35 186,30 166,30 166,40 " style="fill:white; stroke-width:1; stroke:black; " description="&lt;b&gt;ctg8_73&lt;/b&gt;&lt;br&gt;ctg8 73&lt;br&gt;Location: 75407 - 76250" locus_tag="ctg8_73" class="clusterblast-orf" id="dummy-1_q6_0_all"  />
<polygon points="231,35 236,30 276,30 276,40 236,40 231,35 " style="fill:white; stroke-width:1; stroke:black; " description="&lt;b&gt;ctg8_74&lt;/b&gt;&lt;br&gt;ctg8 74&lt;br&gt;Location: 77565 - 79095" locus_tag="ctg8_74" class="clusterblast-orf" id="dummy-1_q7_0_all"  />
<polygon points="283,35 288,30 304,30 304,40 288,40 283,35 " style="fill:#d81515; stroke-width:1; stroke:black; " description="&lt;b&gt;ctg8_75&lt;/b&gt;&lt;br&gt;ctg8 75&lt;br&gt;Location: 79336 - 80014" locus_tag="ctg8_75" class="clusterblast-orf" id="dummy-1_q8_0_all"  />
<polygon points="304,35 309,30 325,30 325,40 309,40 304,35 " style="fill:#77d815; stroke-width:1; stroke:black; " description="&lt;b&gt;ctg8_76&lt;/b&gt;&lt;br&gt;ctg8 76&lt;br&gt;Location: 80013 - 80724" locus_tag="ctg8_76" class="clusterblast-orf" id="dummy-1_q9_0_all"  />
<polygon points="325,35 330,30 371,30 371,40 330,40 325,35 " style="fill:#15d8d8; stroke-width:1; stroke:black; " description="&lt;b&gt;ctg8_77&lt;/b&gt;&lt;br&gt;ctg8 77&lt;br&gt;Location: 80720 - 82256" locus_tag="ctg8_77" class="clusterblast-orf" id="dummy-1_q10_0_all"  />
<polygon points="371,35 376,30 482,30 482,40 376,40 371,35 " style="fill:#7715d8; stroke-width:1; stroke:black; " description="&lt;b&gt;ctg8_78&lt;/b&gt;&lt;br&gt;ctg8 78&lt;br&gt;Location: 82252 - 85996" locus_tag="ctg8_78" class="clusterblast-orf" id="dummy-1_q11_0_all"  />
<polygon points="494,35 499,30 536,30 536,40 499,40 494,35 " style="fill:white; stroke-width:1; stroke:black; " description="&lt;b&gt;ctg8_79&lt;/b&gt;&lt;br&gt;ctg8 79&lt;br&gt;Location: 86383 - 87781" locus_tag="ctg8_79" class="clusterblast-orf" id="dummy-1_q12_0_all"  />
<polygon points="546,40 595,40 600,35 595,30 546,30 546,40 " style="fill:white; stroke-width:1; stroke:black; " description="&lt;b&gt;ctg8_80&lt;/b&gt;&lt;br&gt;ctg8 80&lt;br&gt;Location: 88121 - 89918" locus_tag="ctg8_80" class="clusterblast-orf" id="dummy-1_q13_0_all"  />
<polygon points="599,40 614,40 619,35 614,30 599,30 599,40 " style="fill:white; stroke-width:1; stroke:black; " description="&lt;b&gt;ctg8_81&lt;/b&gt;&lt;br&gt;ctg8 81&lt;br&gt;Location: 89910 - 90561" locus_tag="ctg8_81" class="clusterblast-orf" id="dummy-1_q14_0_all"  />
<polygon points="619,35 624,30 661,30 661,40 624,40 619,35 " style="fill:white; stroke-width:1; stroke:black; " description="&lt;b&gt;ctg8_82&lt;/b&gt;&lt;br&gt;ctg8 82&lt;br&gt;Location: 90561 - 91986" locus_tag="ctg8_82" class="clusterblast-orf" id="dummy-1_q15_0_all"  />
<polygon points="667,40 672,40 677,35 672,30 667,30 667,40 " style="fill:white; stroke-width:1; stroke:black; " description="&lt;b&gt;ctg8_83&lt;/b&gt;&lt;br&gt;ctg8 83&lt;br&gt;Location: 92162 - 92516" locus_tag="ctg8_83" class="clusterblast-orf" id="dummy-1_q16_0_all"  />
<polygon points="680,35 685,30 687,30 687,40 685,40 680,35 " style="fill:white; stroke-width:1; stroke:black; " description="&lt;b&gt;ctg8_84&lt;/b&gt;&lt;br&gt;ctg8 84&lt;br&gt;Location: 92595 - 92826" locus_tag="ctg8_84" class="clusterblast-orf" id="dummy-1_q17_0_all"  />
<polygon points="694,40 722,40 727,35 722,30 694,30 694,40 " style="fill:white; stroke-width:1; stroke:black; " description="&lt;b&gt;ctg8_85&lt;/b&gt;&lt;br&gt;ctg8 85&lt;br&gt;Location: 93092 - 94193" locus_tag="ctg8_85" class="clusterblast-orf" id="dummy-1_q18_0_all"  />
<polygon points="729,35 734,30 754,30 754,40 734,40 729,35 " style="fill:white; stroke-width:1; stroke:black; " description="&lt;b&gt;ctg8_86&lt;/b&gt;&lt;br&gt;ctg8 86&lt;br&gt;Location: 94246 - 95101" locus_tag="ctg8_86" class="clusterblast-orf" id="dummy-1_q19_0_all"  />
<polygon points="756,35 761,30 780,30 780,40 761,40 756,35 " style="fill:white; stroke-width:1; stroke:black; " description="&lt;b&gt;ctg8_87&lt;/b&gt;&lt;br&gt;ctg8 87&lt;br&gt;Location: 95138 - 95948" locus_tag="ctg8_87" class="clusterblast-orf" id="dummy-1_q20_0_all"  />
</g>
<g label="MGC00000045" description="MGC00000045_c1: Nitrate reductase E. coli (80% of genes show similarity), NIR" class="clusterblast-cluster"  >
<text x="5" y="70" class="clusterblast-acc"  >
MGC00000045_c1: Nitrate reductase E. coli (80% of genes show similarity), NIR</text>
<line x1="10" y1="85" x2="778.0" y2="85" style="stroke-width:1; stroke:grey; "  />
</g>
<g id="a1_000"  >
<polygon points="146,85 151,80 166,80 166,90 151,90 146,85 " style="fill:#d81515; stroke-width:1; stroke:black; " description="&lt;b&gt;b1227&lt;/b&gt;&lt;br&gt;nitrate reductase A subunit gamma&lt;br&gt;Location: 16289 - 15611&lt;br&gt;&lt;br&gt;&lt;b&gt;BlastP hit with ctg8_75&lt;/b&gt;&lt;br&gt;Percentage identity: 93&lt;br&gt;Percentage coverage: 100&lt;br&gt;BLAST bit score: 424&lt;br&gt;E-value: 3.03e-155" locus_tag="b1227" class="clusterblast-orf" id="dummy-1_h1_1_0"  />
</g>
<g id="a1_001"  >
<polygon points="166,85 171,80 188,80 188,90 171,90 166,85 " style="fill:#77d815; stroke-width:1; stroke:black; " description="&lt;b&gt;b1226&lt;/b&gt;&lt;br&gt;nitrate reductase 1 molybdenum cofactor assembly chaperone&lt;br&gt;Location: 15612 - 14901&lt;br&gt;&lt;br&gt;&lt;b&gt;BlastP hit with ctg8_76&lt;/b&gt;&lt;br&gt;Percentage identity: 89&lt;br&gt;Percentage coverage: 100&lt;br&gt;BLAST bit score: 412&lt;br&gt;E-value: 3.72e-150" locus_tag="b1226" class="clusterblast-orf" id="dummy-1_h1_1_1"  />
</g>
<g id="a1_002"  >
<polygon points="187,85 192,80 233,80 233,90 192,90 187,85 " style="fill:#15d8d8; stroke-width:1; stroke:black; " description="&lt;b&gt;b1225&lt;/b&gt;&lt;br&gt;nitrate reductase A subunit beta&lt;br&gt;Location: 14905 - 13366&lt;br&gt;&lt;br&gt;&lt;b&gt;BlastP hit with ctg8_77&lt;/b&gt;&lt;br&gt;Percentage identity: 93&lt;br&gt;Percentage coverage: 100&lt;br&gt;BLAST bit score: 998&lt;br&gt;E-value: 0.0" locus_tag="b1225" class="clusterblast-orf" id="dummy-1_h1_1_2"  />
</g>
<g id="a1_003"  >
<polygon points="233,85 238,80 345,80 345,90 238,90 233,85 " style="fill:#7715d8; stroke-width:1; stroke:black; " description="&lt;b&gt;b1224&lt;/b&gt;&lt;br&gt;nitrate reductase A subunit alpha&lt;br&gt;Location: 13370 - 9626&lt;br&gt;&lt;br&gt;&lt;b&gt;BlastP hit with ctg8_78&lt;/b&gt;&lt;br&gt;Percentage identity: 95&lt;br&gt;Percentage coverage: 100&lt;br&gt;BLAST bit score: 2504&lt;br&gt;E-value: 0.0" locus_tag="b1224" class="clusterblast-orf" id="dummy-1_h1_1_3"  />
</g>
<g id="a1_004"  >
<polygon points="630,90 633,85 630,80 630,90 " style="fill:white; stroke-width:1; stroke:black; " description="&lt;b&gt;b4423&lt;/b&gt;&lt;br&gt;small toxic polypeptide LdrC&lt;br&gt;Location: 108 - 0" locus_tag="b4423" class="clusterblast-orf" id="dummy-1_h1_1_4"  />
</g>
</svg>
