<svg xmlns="http://www.w3.org/2000/svg" xmlns:xlink="http://www.w3.org/1999/xlink" version="1.1" x="0" y="0" height="230" width="800" viewBox="0 0 800 230" preserveAspectRatio="none"  >
<g label="Query sequence" class="clusterblast-cluster"  >
<text x="5" y="20" class="clusterblast-acc"  >
Query sequence</text>
<line x1="10" y1="35" x2="778.0" y2="35" style="stroke-width:1; stroke:grey; "  />
<polygon points="0,35 5,30 27,30 27,40 5,40 0,35 " style="fill:white; stroke-width:1; stroke:black; " description="&lt;b&gt;ctg19_130&lt;/b&gt;&lt;br&gt;ctg19 130&lt;br&gt;Location: 130098 - 131301" locus_tag="ctg19_130" class="clusterblast-orf" id="dummy-3_q0_0_all"  />
<polygon points="35,40 40,40 45,35 40,30 35,30 35,40 " style="fill:white; stroke-width:1; stroke:black; " description="&lt;b&gt;ctg19_131&lt;/b&gt;&lt;br&gt;ctg19 131&lt;br&gt;Location: 131640 - 132096" locus_tag="ctg19_131" class="clusterblast-orf" id="dummy-3_q1_0_all"  />
<polygon points="47,40 53,40 58,35 53,30 47,30 47,40 " style="fill:white; stroke-width:1; stroke:black; " description="&lt;b&gt;ctg19_132&lt;/b&gt;&lt;br&gt;ctg19 132&lt;br&gt;Location: 132178 - 132673" locus_tag="ctg19_132" class="clusterblast-orf" id="dummy-3_q2_0_all"  />
<polygon points="59,40 69,40 74,35 69,30 59,30 59,40 " style="fill:white; stroke-width:1; stroke:black; " description="&lt;b&gt;ctg19_133&lt;/b&gt;&lt;br&gt;ctg19 133&lt;br&gt;Location: 132683 - 133343" locus_tag="ctg19_133" class="clusterblast-orf" id="dummy-3_q3_0_all"  />
<polygon points="75,40 112,40 117,35 112,30 75,30 75,40 " style="fill:white; stroke-width:1; stroke:black; " description="&lt;b&gt;ctg19_134&lt;/b&gt;&lt;br&gt;ctg19 134&lt;br&gt;Location: 133419 - 135246" locus_tag="ctg19_134" class="clusterblast-orf" id="dummy-3_q4_0_all"  />
<polygon points="119,35 124,30 133,30 133,40 124,40 119,35 " style="fill:white; stroke-width:1; stroke:black; " description="&lt;b&gt;ctg19_135&lt;/b&gt;&lt;br&gt;ctg19 135&lt;br&gt;Location: 135337 - 135937" locus_tag="ctg19_135" class="clusterblast-orf" id="dummy-3_q5_0_all"  />
<polygon points="135,35 140,30 162,30 162,40 140,40 135,35 " style="fill:white; stroke-width:1; stroke:black; " description="&lt;b&gt;ctg19_136&lt;/b&gt;&lt;br&gt;ctg19 136&lt;br&gt;Location: 136030 - 137245" locus_tag="ctg19_136" class="clusterblast-orf" id="dummy-3_q6_0_all"  />
<polygon points="184,40 200,40 205,35 200,30 184,30 184,40 " style="fill:white; stroke-width:1; stroke:black; " description="&lt;b&gt;ctg19_137&lt;/b&gt;&lt;br&gt;ctg19 137&lt;br&gt;Location: 138176 - 139115" locus_tag="ctg19_137" class="clusterblast-orf" id="dummy-3_q7_0_all"  />
<polygon points="219,40 224,40 229,35 224,30 219,30 219,40 " style="fill:#d81515; stroke-width:1; stroke:black; " description="&lt;b&gt;ctg19_138&lt;/b&gt;&lt;br&gt;ctg19 138&lt;br&gt;Location: 139741 - 140185" locus_tag="ctg19_138" class="clusterblast-orf" id="dummy-3_q8_0_all"  />
<polygon points="230,40 240,40 245,35 240,30 230,30 230,40 " style="fill:#33d815; stroke-width:1; stroke:black; " description="&lt;b&gt;ctg19_139&lt;/b&gt;&lt;br&gt;ctg19 139&lt;br&gt;Location: 140200 - 140863" locus_tag="ctg19_139" class="clusterblast-orf" id="dummy-3_q9_0_all"  />
<polygon points="247,40 283,40 288,35 283,30 247,30 247,40 " style="fill:#15abd8; stroke-width:1; stroke:black; " description="&lt;b&gt;ctg19_140&lt;/b&gt;&lt;br&gt;ctg19 140&lt;br&gt;Location: 140949 - 142752" locus_tag="ctg19_140" class="clusterblast-orf" id="dummy-3_q10_0_all"  />
<polygon points="288,40 294,40 299,35 294,30 288,30 288,40 " style="fill:#8d15d8; stroke-width:1; stroke:black; " description="&lt;b&gt;ctg19_141&lt;/b&gt;&lt;br&gt;ctg19 141&lt;br&gt;Location: 142754 - 143255" locus_tag="ctg19_141" class="clusterblast-orf" id="dummy-3_q11_0_all"  />
<polygon points="299,40 325,40 330,35 325,30 299,30 299,40 " style="fill:#d86f15; stroke-width:1; stroke:black; " description="&lt;b&gt;ctg19_142&lt;/b&gt;&lt;br&gt;ctg19 142&lt;br&gt;Location: 143251 - 144589" locus_tag="ctg19_142" class="clusterblast-orf" id="dummy-3_q12_0_all"  />
<polygon points="330,40 387,40 392,35 387,30 330,30 330,40 " style="fill:#15d851; stroke-width:1; stroke:black; " description="&lt;b&gt;ctg19_143&lt;/b&gt;&lt;br&gt;ctg19 143&lt;br&gt;Location: 144619 - 147346" locus_tag="ctg19_143" class="clusterblast-orf" id="dummy-3_q13_0_all"  />
<polygon points="392,40 409,40 414,35 409,30 392,30 392,40 " style="fill:#1551d8; stroke-width:1; stroke:black; " description="&lt;b&gt;ctg19_144&lt;/b&gt;&lt;br&gt;ctg19 144&lt;br&gt;Location: 147342 - 148320" locus_tag="ctg19_144" class="clusterblast-orf" id="dummy-3_q14_0_all"  />
<polygon points="415,40 422,40 427,35 422,30 415,30 415,40 " style="fill:#d815c9; stroke-width:1; stroke:black; " description="&lt;b&gt;ctg19_145&lt;/b&gt;&lt;br&gt;ctg19 145&lt;br&gt;Location: 148334 - 148877" locus_tag="ctg19_145" class="clusterblast-orf" id="dummy-3_q15_0_all"  />
<polygon points="427,40 435,40 440,35 435,30 427,30 427,40 " style="fill:#d8c915; stroke-width:1; stroke:black; " description="&lt;b&gt;ctg19_146&lt;/b&gt;&lt;br&gt;ctg19 146&lt;br&gt;Location: 148887 - 149442" locus_tag="ctg19_146" class="clusterblast-orf" id="dummy-3_q16_0_all"  />
<polygon points="440,40 442,40 447,35 442,30 440,30 440,40 " style="fill:#15d8ab; stroke-width:1; stroke:black; " description="&lt;b&gt;ctg19_147&lt;/b&gt;&lt;br&gt;ctg19 147&lt;br&gt;Location: 149438 - 149741" locus_tag="ctg19_147" class="clusterblast-orf" id="dummy-3_q17_0_all"  />
<polygon points="447,40 484,40 489,35 484,30 447,30 447,40 " style="fill:#3315d8; stroke-width:1; stroke:black; " description="&lt;b&gt;ctg19_148&lt;/b&gt;&lt;br&gt;ctg19 148&lt;br&gt;Location: 149737 - 151579" locus_tag="ctg19_148" class="clusterblast-orf" id="dummy-3_q18_0_all"  />
<polygon points="496,40 526,40 531,35 526,30 496,30 496,40 " style="fill:#d8156f; stroke-width:1; stroke:black; " description="&lt;b&gt;ctg19_149&lt;/b&gt;&lt;br&gt;ctg19 149&lt;br&gt;Location: 151892 - 153422" locus_tag="ctg19_149" class="clusterblast-orf" id="dummy-3_q19_0_all"  />
<polygon points="531,40 559,40 564,35 559,30 531,30 531,40 " style="fill:#8dd815; stroke-width:1; stroke:black; " description="&lt;b&gt;ctg19_150&lt;/b&gt;&lt;br&gt;ctg19 150&lt;br&gt;Location: 153428 - 154886" locus_tag="ctg19_150" class="clusterblast-orf" id="dummy-3_q20_0_all"  />
<polygon points="584,40 620,40 625,35 620,30 584,30 584,40 " style="fill:white; stroke-width:1; stroke:black; " description="&lt;b&gt;ctg19_151&lt;/b&gt;&lt;br&gt;ctg19 151&lt;br&gt;Location: 155773 - 157555" locus_tag="ctg19_151" class="clusterblast-orf" id="dummy-3_q21_0_all"  />
<polygon points="626,35 631,30 648,30 648,40 631,40 626,35 " style="fill:white; stroke-width:1; stroke:black; " description="&lt;b&gt;ctg19_152&lt;/b&gt;&lt;br&gt;ctg19 152&lt;br&gt;Location: 157595 - 158597" locus_tag="ctg19_152" class="clusterblast-orf" id="dummy-3_q22_0_all"  />
<polygon points="650,35 655,30 668,30 668,40 655,40 650,35 " style="fill:white; stroke-width:1; stroke:black; " description="&lt;b&gt;ctg19_153&lt;/b&gt;&lt;br&gt;ctg19 153&lt;br&gt;Location: 158662 - 159442" locus_tag="ctg19_153" class="clusterblast-orf" id="dummy-3_q23_0_all"  />
<polygon points="672,40 678,40 683,35 678,30 672,30 672,40 " style="fill:white; stroke-width:1; stroke:black; " description="&lt;b&gt;ctg19_154&lt;/b&gt;&lt;br&gt;ctg19 154&lt;br&gt;Location: 159639 - 160101" locus_tag="ctg19_154" class="clusterblast-orf" id="dummy-3_q24_0_all"  />
<polygon points="684,40 686,40 691,35 686,30 684,30 684,40 " style="fill:white; stroke-width:1; stroke:black; " description="&lt;b&gt;ctg19_155&lt;/b&gt;&lt;br&gt;ctg19 155&lt;br&gt;Location: 160155 - 160461" locus_tag="ctg19_155" class="clusterblast-orf" id="dummy-3_q25_0_all"  />
<polygon points="693,40 718,40 723,35 718,30 693,30 693,40 " style="fill:white; stroke-width:1; stroke:black; " description="&lt;b&gt;ctg19_156&lt;/b&gt;&lt;br&gt;ctg19 156&lt;br&gt;Location: 160561 - 161857" locus_tag="ctg19_156" class="clusterblast-orf" id="dummy-3_q26_0_all"  />
<polygon points="725,40 758,40 763,35 758,30 725,30 725,40 " style="fill:white; stroke-width:1; stroke:black; " description="&lt;b&gt;ctg19_157&lt;/b&gt;&lt;br&gt;ctg19 157&lt;br&gt;Location: 161942 - 163613" locus_tag="ctg19_157" class="clusterblast-orf" id="dummy-3_q27_0_all"  />
<polygon points="762,40 775,40 780,35 775,30 762,30 762,40 " style="fill:white; stroke-width:1; stroke:black; " description="&lt;b&gt;ctg19_158&lt;/b&gt;&lt;br&gt;ctg19 158&lt;br&gt;Location: 163609 - 164368" locus_tag="ctg19_158" class="clusterblast-orf" id="dummy-3_q28_0_all"  />
</g>
<g label="MGC00000036" description="MGC00000036_c1: Ech complex T. phaeum (28% of genes show similarity), ECH" class="clusterblast-cluster"  >
<text x="5" y="70" class="clusterblast-acc"  >
MGC00000036_c1: Ech complex T. phaeum (28% of genes show similarity), ECH</text>
<line x1="10" y1="85" x2="778.0" y2="85" style="stroke-width:1; stroke:grey; "  />
</g>
<g id="a3_000"  >
<polygon points="218,90 259,90 264,85 259,80 218,80 218,90 " style="fill:#3315d8; stroke-width:1; stroke:black; " description="&lt;b&gt;Tph_c21360&lt;/b&gt;&lt;br&gt;putative ech hydrogenase subunit A&lt;br&gt;Location: 15027 - 13041&lt;br&gt;&lt;br&gt;&lt;b&gt;BlastP hit with ctg19_148&lt;/b&gt;&lt;br&gt;Percentage identity: 34&lt;br&gt;Percentage coverage: 53&lt;br&gt;BLAST bit score: 134&lt;br&gt;E-value: 4.65e-35" locus_tag="Tph_c21360" class="clusterblast-orf" id="dummy-3_h3_3_0"  />
</g>
<g id="a3_001"  >
<polygon points="264,90 278,90 283,85 278,80 264,80 264,90 " style="fill:white; stroke-width:1; stroke:black; " description="&lt;b&gt;Tph_c21350&lt;/b&gt;&lt;br&gt;putative ech hydrogenase subunit B&lt;br&gt;Location: 13045 - 12184" locus_tag="Tph_c21350" class="clusterblast-orf" id="dummy-3_h3_3_1"  />
</g>
<g id="a3_002"  >
<polygon points="283,90 288,90 293,85 288,80 283,80 283,90 " style="fill:#33d815; stroke-width:1; stroke:black; " description="&lt;b&gt;Tph_c21340&lt;/b&gt;&lt;br&gt;putative ech hydrogenase subunit C&lt;br&gt;Location: 12184 - 11746&lt;br&gt;&lt;br&gt;&lt;b&gt;BlastP hit with ctg19_139&lt;/b&gt;&lt;br&gt;Percentage identity: 41&lt;br&gt;Percentage coverage: 59&lt;br&gt;BLAST bit score: 101&lt;br&gt;E-value: 2.66e-29" locus_tag="Tph_c21340" class="clusterblast-orf" id="dummy-3_h3_3_2"  />
</g>
<g id="a3_003"  >
<polygon points="293,90 297,90 302,85 297,80 293,80 293,90 " style="fill:white; stroke-width:1; stroke:black; " description="&lt;b&gt;Tph_c21330&lt;/b&gt;&lt;br&gt;putative ech hydrogenase subunit D&lt;br&gt;Location: 11750 - 11372" locus_tag="Tph_c21330" class="clusterblast-orf" id="dummy-3_h3_3_3"  />
</g>
<g id="a3_004"  >
<polygon points="302,90 321,90 326,85 321,80 302,80 302,90 " style="fill:white; stroke-width:1; stroke:black; " description="&lt;b&gt;Tph_c21320&lt;/b&gt;&lt;br&gt;putative ech hydrogenase subunit E&lt;br&gt;Location: 11372 - 10289" locus_tag="Tph_c21320" class="clusterblast-orf" id="dummy-3_h3_3_4"  />
</g>
<g id="a3_005"  >
<polygon points="327,90 330,90 335,85 330,80 327,80 327,90 " style="fill:white; stroke-width:1; stroke:black; " description="&lt;b&gt;Tph_c21310&lt;/b&gt;&lt;br&gt;putative ech hydrogenase subunit F&lt;br&gt;Location: 10260 - 9909" locus_tag="Tph_c21310" class="clusterblast-orf" id="dummy-3_h3_3_5"  />
</g>
<g id="a3_006"  >
<polygon points="539,90 555,90 560,85 555,80 539,80 539,90 " style="fill:white; stroke-width:1; stroke:black; " description="&lt;b&gt;Tph_c21210&lt;/b&gt;&lt;br&gt;stage II sporulation protein P&lt;br&gt;Location: 966 - 0" locus_tag="Tph_c21210" class="clusterblast-orf" id="dummy-3_h3_3_6"  />
</g>
</svg>
