<svg xmlns="http://www.w3.org/2000/svg" xmlns:xlink="http://www.w3.org/1999/xlink" version="1.1" x="0" y="0" height="230" width="800" viewBox="0 0 800 230" preserveAspectRatio="none"  >
<g label="Query sequence" class="clusterblast-cluster"  >
<text x="5" y="20" class="clusterblast-acc"  >
Query sequence</text>
<line x1="10" y1="35" x2="778.0" y2="35" style="stroke-width:1; stroke:grey; "  />
<polygon points="0,35 5,30 27,30 27,40 5,40 0,35 " style="fill:white; stroke-width:1; stroke:black; " description="&lt;b&gt;ctg19_130&lt;/b&gt;&lt;br&gt;ctg19 130&lt;br&gt;Location: 130098 - 131301" locus_tag="ctg19_130" class="clusterblast-orf" id="dummy-3_q0_0_all"  />
<polygon points="35,40 40,40 45,35 40,30 35,30 35,40 " style="fill:white; stroke-width:1; stroke:black; " description="&lt;b&gt;ctg19_131&lt;/b&gt;&lt;br&gt;ctg19 131&lt;br&gt;Location: 131640 - 132096" locus_tag="ctg19_131" class="clusterblast-orf" id="dummy-3_q1_0_all"  />
<polygon points="47,40 53,40 58,35 53,30 47,30 47,40 " style="fill:white; stroke-width:1; stroke:black; " description="&lt;b&gt;ctg19_132&lt;/b&gt;&lt;br&gt;ctg19 132&lt;br&gt;Location: 132178 - 132673" locus_tag="ctg19_132" class="clusterblast-orf" id="dummy-3_q2_0_all"  />
<polygon points="59,40 69,40 74,35 69,30 59,30 59,40 " style="fill:white; stroke-width:1; stroke:black; " description="&lt;b&gt;ctg19_133&lt;/b&gt;&lt;br&gt;ctg19 133&lt;br&gt;Location: 132683 - 133343" locus_tag="ctg19_133" class="clusterblast-orf" id="dummy-3_q3_0_all"  />
<polygon points="75,40 112,40 117,35 112,30 75,30 75,40 " style="fill:white; stroke-width:1; stroke:black; " description="&lt;b&gt;ctg19_134&lt;/b&gt;&lt;br&gt;ctg19 134&lt;br&gt;Location: 133419 - 135246" locus_tag="ctg19_134" class="clusterblast-orf" id="dummy-3_q4_0_all"  />
<polygon points="119,35 124,30 133,30 133,40 124,40 119,35 " style="fill:white; stroke-width:1; stroke:black; " description="&lt;b&gt;ctg19_135&lt;/b&gt;&lt;br&gt;ctg19 135&lt;br&gt;Location: 135337 - 135937" locus_tag="ctg19_135" class="clusterblast-orf" id="dummy-3_q5_0_all"  />
<polygon points="135,35 140,30 162,30 162,40 140,40 135,35 " style="fill:white; stroke-width:1; stroke:black; " description="&lt;b&gt;ctg19_136&lt;/b&gt;&lt;br&gt;ctg19 136&lt;br&gt;Location: 136030 - 137245" locus_tag="ctg19_136" class="clusterblast-orf" id="dummy-3_q6_0_all"  />
<polygon points="184,40 200,40 205,35 200,30 184,30 184,40 " style="fill:white; stroke-width:1; stroke:black; " description="&lt;b&gt;ctg19_137&lt;/b&gt;&lt;br&gt;ctg19 137&lt;br&gt;Location: 138176 - 139115" locus_tag="ctg19_137" class="clusterblast-orf" id="dummy-3_q7_0_all"  />
<polygon points="219,40 224,40 229,35 224,30 219,30 219,40 " style="fill:#d81515; stroke-width:1; stroke:black; " description="&lt;b&gt;ctg19_138&lt;/b&gt;&lt;br&gt;ctg19 138&lt;br&gt;Location: 139741 - 140185" locus_tag="ctg19_138" class="clusterblast-orf" id="dummy-3_q8_0_all"  />
<polygon points="230,40 240,40 245,35 240,30 230,30 230,40 " style="fill:#33d815; stroke-width:1; stroke:black; " description="&lt;b&gt;ctg19_139&lt;/b&gt;&lt;br&gt;ctg19 139&lt;br&gt;Location: 140200 - 140863" locus_tag="ctg19_139" class="clusterblast-orf" id="dummy-3_q9_0_all"  />
<polygon points="247,40 283,40 288,35 283,30 247,30 247,40 " style="fill:#15abd8; stroke-width:1; stroke:black; " description="&lt;b&gt;ctg19_140&lt;/b&gt;&lt;br&gt;ctg19 140&lt;br&gt;Location: 140949 - 142752" locus_tag="ctg19_140" class="clusterblast-orf" id="dummy-3_q10_0_all"  />
<polygon points="288,40 294,40 299,35 294,30 288,30 288,40 " style="fill:#8d15d8; stroke-width:1; stroke:black; " description="&lt;b&gt;ctg19_141&lt;/b&gt;&lt;br&gt;ctg19 141&lt;br&gt;Location: 142754 - 143255" locus_tag="ctg19_141" class="clusterblast-orf" id="dummy-3_q11_0_all"  />
<polygon points="299,40 325,40 330,35 325,30 299,30 299,40 " style="fill:#d86f15; stroke-width:1; stroke:black; " description="&lt;b&gt;ctg19_142&lt;/b&gt;&lt;br&gt;ctg19 142&lt;br&gt;Location: 143251 - 144589" locus_tag="ctg19_142" class="clusterblast-orf" id="dummy-3_q12_0_all"  />
<polygon points="330,40 387,40 392,35 387,30 330,30 330,40 " style="fill:#15d851; stroke-width:1; stroke:black; " description="&lt;b&gt;ctg19_143&lt;/b&gt;&lt;br&gt;ctg19 143&lt;br&gt;Location: 144619 - 147346" locus_tag="ctg19_143" class="clusterblast-orf" id="dummy-3_q13_0_all"  />
<polygon points="392,40 409,40 414,35 409,30 392,30 392,40 " style="fill:#1551d8; stroke-width:1; stroke:black; " description="&lt;b&gt;ctg19_144&lt;/b&gt;&lt;br&gt;ctg19 144&lt;br&gt;Location: 147342 - 148320" locus_tag="ctg19_144" class="clusterblast-orf" id="dummy-3_q14_0_all"  />
<polygon points="415,40 422,40 427,35 422,30 415,30 415,40 " style="fill:#d815c9; stroke-width:1; stroke:black; " description="&lt;b&gt;ctg19_145&lt;/b&gt;&lt;br&gt;ctg19 145&lt;br&gt;Location: 148334 - 148877" locus_tag="ctg19_145" class="clusterblast-orf" id="dummy-3_q15_0_all"  />
<polygon points="427,40 435,40 440,35 435,30 427,30 427,40 " style="fill:#d8c915; stroke-width:1; stroke:black; " description="&lt;b&gt;ctg19_146&lt;/b&gt;&lt;br&gt;ctg19 146&lt;br&gt;Location: 148887 - 149442" locus_tag="ctg19_146" class="clusterblast-orf" id="dummy-3_q16_0_all"  />
<polygon points="440,40 442,40 447,35 442,30 440,30 440,40 " style="fill:#15d8ab; stroke-width:1; stroke:black; " description="&lt;b&gt;ctg19_147&lt;/b&gt;&lt;br&gt;ctg19 147&lt;br&gt;Location: 149438 - 149741" locus_tag="ctg19_147" class="clusterblast-orf" id="dummy-3_q17_0_all"  />
<polygon points="447,40 484,40 489,35 484,30 447,30 447,40 " style="fill:#3315d8; stroke-width:1; stroke:black; " description="&lt;b&gt;ctg19_148&lt;/b&gt;&lt;br&gt;ctg19 148&lt;br&gt;Location: 149737 - 151579" locus_tag="ctg19_148" class="clusterblast-orf" id="dummy-3_q18_0_all"  />
<polygon points="496,40 526,40 531,35 526,30 496,30 496,40 " style="fill:#d8156f; stroke-width:1; stroke:black; " description="&lt;b&gt;ctg19_149&lt;/b&gt;&lt;br&gt;ctg19 149&lt;br&gt;Location: 151892 - 153422" locus_tag="ctg19_149" class="clusterblast-orf" id="dummy-3_q19_0_all"  />
<polygon points="531,40 559,40 564,35 559,30 531,30 531,40 " style="fill:#8dd815; stroke-width:1; stroke:black; " description="&lt;b&gt;ctg19_150&lt;/b&gt;&lt;br&gt;ctg19 150&lt;br&gt;Location: 153428 - 154886" locus_tag="ctg19_150" class="clusterblast-orf" id="dummy-3_q20_0_all"  />
<polygon points="584,40 620,40 625,35 620,30 584,30 584,40 " style="fill:white; stroke-width:1; stroke:black; " description="&lt;b&gt;ctg19_151&lt;/b&gt;&lt;br&gt;ctg19 151&lt;br&gt;Location: 155773 - 157555" locus_tag="ctg19_151" class="clusterblast-orf" id="dummy-3_q21_0_all"  />
<polygon points="626,35 631,30 648,30 648,40 631,40 626,35 " style="fill:white; stroke-width:1; stroke:black; " description="&lt;b&gt;ctg19_152&lt;/b&gt;&lt;br&gt;ctg19 152&lt;br&gt;Location: 157595 - 158597" locus_tag="ctg19_152" class="clusterblast-orf" id="dummy-3_q22_0_all"  />
<polygon points="650,35 655,30 668,30 668,40 655,40 650,35 " style="fill:white; stroke-width:1; stroke:black; " description="&lt;b&gt;ctg19_153&lt;/b&gt;&lt;br&gt;ctg19 153&lt;br&gt;Location: 158662 - 159442" locus_tag="ctg19_153" class="clusterblast-orf" id="dummy-3_q23_0_all"  />
<polygon points="672,40 678,40 683,35 678,30 672,30 672,40 " style="fill:white; stroke-width:1; stroke:black; " description="&lt;b&gt;ctg19_154&lt;/b&gt;&lt;br&gt;ctg19 154&lt;br&gt;Location: 159639 - 160101" locus_tag="ctg19_154" class="clusterblast-orf" id="dummy-3_q24_0_all"  />
<polygon points="684,40 686,40 691,35 686,30 684,30 684,40 " style="fill:white; stroke-width:1; stroke:black; " description="&lt;b&gt;ctg19_155&lt;/b&gt;&lt;br&gt;ctg19 155&lt;br&gt;Location: 160155 - 160461" locus_tag="ctg19_155" class="clusterblast-orf" id="dummy-3_q25_0_all"  />
<polygon points="693,40 718,40 723,35 718,30 693,30 693,40 " style="fill:white; stroke-width:1; stroke:black; " description="&lt;b&gt;ctg19_156&lt;/b&gt;&lt;br&gt;ctg19 156&lt;br&gt;Location: 160561 - 161857" locus_tag="ctg19_156" class="clusterblast-orf" id="dummy-3_q26_0_all"  />
<polygon points="725,40 758,40 763,35 758,30 725,30 725,40 " style="fill:white; stroke-width:1; stroke:black; " description="&lt;b&gt;ctg19_157&lt;/b&gt;&lt;br&gt;ctg19 157&lt;br&gt;Location: 161942 - 163613" locus_tag="ctg19_157" class="clusterblast-orf" id="dummy-3_q27_0_all"  />
<polygon points="762,40 775,40 780,35 775,30 762,30 762,40 " style="fill:white; stroke-width:1; stroke:black; " description="&lt;b&gt;ctg19_158&lt;/b&gt;&lt;br&gt;ctg19 158&lt;br&gt;Location: 163609 - 164368" locus_tag="ctg19_158" class="clusterblast-orf" id="dummy-3_q28_0_all"  />
</g>
<g label="MGC00000056" description="MGC00000056_c1: NADH dehydrogenase I Bacteroides sp. (28% of genes show similarity), NADHD" class="clusterblast-cluster"  >
<text x="5" y="70" class="clusterblast-acc"  >
MGC00000056_c1: NADH dehydrogenase I Bacteroides sp. (28% of genes show similarity), NADHD</text>
<line x1="10" y1="85" x2="778.0" y2="85" style="stroke-width:1; stroke:grey; "  />
</g>
<g id="a3_000"  >
<polygon points="85,85 90,80 99,80 99,90 90,90 85,85 " style="fill:white; stroke-width:1; stroke:black; " description="&lt;b&gt;BSHG_0769&lt;/b&gt;&lt;br&gt;HAD hydrolase, family IA&lt;br&gt;Location: 28407 - 27759" locus_tag="BSHG_0769" class="clusterblast-orf" id="dummy-3_h3_2_0"  />
</g>
<g id="a3_001"  >
<polygon points="103,90 106,90 111,85 106,80 103,80 103,90 " style="fill:white; stroke-width:1; stroke:black; " description="&lt;b&gt;BSHG_0770&lt;/b&gt;&lt;br&gt;hypothetical protein&lt;br&gt;Location: 27584 - 27257" locus_tag="BSHG_0770" class="clusterblast-orf" id="dummy-3_h3_2_1"  />
</g>
<g id="a3_002"  >
<polygon points="111,90 136,90 141,85 136,80 111,80 111,90 " style="fill:white; stroke-width:1; stroke:black; " description="&lt;b&gt;BSHG_0771&lt;/b&gt;&lt;br&gt;hypothetical protein&lt;br&gt;Location: 27261 - 25917" locus_tag="BSHG_0771" class="clusterblast-orf" id="dummy-3_h3_2_2"  />
</g>
<g id="a3_003"  >
<polygon points="152,90 192,90 197,85 192,80 152,80 152,90 " style="fill:white; stroke-width:1; stroke:black; " description="&lt;b&gt;BSHG_0773&lt;/b&gt;&lt;br&gt;1-deoxy-D-xylulose-5-phosphate synthase&lt;br&gt;Location: 25426 - 23479" locus_tag="BSHG_0773" class="clusterblast-orf" id="dummy-3_h3_2_3"  />
</g>
<g id="a3_004"  >
<polygon points="198,90 223,90 228,85 223,80 198,80 198,90 " style="fill:white; stroke-width:1; stroke:black; " description="&lt;b&gt;BSHG_0774&lt;/b&gt;&lt;br&gt;hypothetical protein&lt;br&gt;Location: 23441 - 22100" locus_tag="BSHG_0774" class="clusterblast-orf" id="dummy-3_h3_2_4"  />
</g>
<g id="a3_005"  >
<polygon points="228,90 256,90 261,85 256,80 228,80 228,90 " style="fill:white; stroke-width:1; stroke:black; " description="&lt;b&gt;BSHG_0775&lt;/b&gt;&lt;br&gt;TrkH family potassium uptake protein&lt;br&gt;Location: 22096 - 20644" locus_tag="BSHG_0775" class="clusterblast-orf" id="dummy-3_h3_2_5"  />
</g>
<g id="a3_006"  >
<polygon points="266,90 269,90 274,85 269,80 266,80 266,90 " style="fill:white; stroke-width:1; stroke:black; " description="&lt;b&gt;BSHG_0776&lt;/b&gt;&lt;br&gt;hypothetical protein&lt;br&gt;Location: 20458 - 20080" locus_tag="BSHG_0776" class="clusterblast-orf" id="dummy-3_h3_2_6"  />
</g>
<g id="a3_007"  >
<polygon points="277,90 280,90 285,85 280,80 277,80 277,90 " style="fill:#d81515; stroke-width:1; stroke:black; " description="&lt;b&gt;BSHG_0777&lt;/b&gt;&lt;br&gt;NADH-quinone oxidoreductase subunit A&lt;br&gt;Location: 19937 - 19586&lt;br&gt;&lt;br&gt;&lt;b&gt;BlastP hit with ctg19_138&lt;/b&gt;&lt;br&gt;Percentage identity: 31&lt;br&gt;Percentage coverage: 72&lt;br&gt;BLAST bit score: 63&lt;br&gt;E-value: 1.3e-15" locus_tag="BSHG_0777" class="clusterblast-orf" id="dummy-3_h3_2_7"  />
</g>
<g id="a3_008"  >
<polygon points="285,90 294,90 299,85 294,80 285,80 285,90 " style="fill:#33d815; stroke-width:1; stroke:black; " description="&lt;b&gt;BSHG_0778&lt;/b&gt;&lt;br&gt;NADH-quinone oxidoreductase subunit B&lt;br&gt;Location: 19587 - 19005&lt;br&gt;&lt;br&gt;&lt;b&gt;BlastP hit with ctg19_139&lt;/b&gt;&lt;br&gt;Percentage identity: 58&lt;br&gt;Percentage coverage: 66&lt;br&gt;BLAST bit score: 182&lt;br&gt;E-value: 2.77e-60" locus_tag="BSHG_0778" class="clusterblast-orf" id="dummy-3_h3_2_8"  />
</g>
<g id="a3_009"  >
<polygon points="299,90 330,90 335,85 330,80 299,80 299,90 " style="fill:#15abd8; stroke-width:1; stroke:black; " description="&lt;b&gt;BSHG_0779&lt;/b&gt;&lt;br&gt;NADH-quinone oxidoreductase subunit C/D&lt;br&gt;Location: 18984 - 17391&lt;br&gt;&lt;br&gt;&lt;b&gt;BlastP hit with ctg19_140&lt;/b&gt;&lt;br&gt;Percentage identity: 31&lt;br&gt;Percentage coverage: 85&lt;br&gt;BLAST bit score: 253&lt;br&gt;E-value: 6.77e-79" locus_tag="BSHG_0779" class="clusterblast-orf" id="dummy-3_h3_2_9"  />
</g>
<g id="a3_0010"  >
<polygon points="337,90 357,90 362,85 357,80 337,80 337,90 " style="fill:#1551d8; stroke-width:1; stroke:black; " description="&lt;b&gt;BSHG_0780&lt;/b&gt;&lt;br&gt;NADH-quinone oxidoreductase subunit H&lt;br&gt;Location: 17312 - 16235&lt;br&gt;&lt;br&gt;&lt;b&gt;BlastP hit with ctg19_144&lt;/b&gt;&lt;br&gt;Percentage identity: 40&lt;br&gt;Percentage coverage: 94&lt;br&gt;BLAST bit score: 246&lt;br&gt;E-value: 2.07e-81" locus_tag="BSHG_0780" class="clusterblast-orf" id="dummy-3_h3_2_10"  />
</g>
<g id="a3_0011"  >
<polygon points="362,90 368,90 373,85 368,80 362,80 362,90 " style="fill:white; stroke-width:1; stroke:black; " description="&lt;b&gt;BSHG_0781&lt;/b&gt;&lt;br&gt;NADH-quinone oxidoreductase, chain I&lt;br&gt;Location: 16219 - 15739" locus_tag="BSHG_0781" class="clusterblast-orf" id="dummy-3_h3_2_11"  />
</g>
<g id="a3_0012"  >
<polygon points="373,90 380,90 385,85 380,80 373,80 373,90 " style="fill:white; stroke-width:1; stroke:black; " description="&lt;b&gt;BSHG_0782&lt;/b&gt;&lt;br&gt;hypothetical protein&lt;br&gt;Location: 15733 - 15220" locus_tag="BSHG_0782" class="clusterblast-orf" id="dummy-3_h3_2_12"  />
</g>
<g id="a3_0013"  >
<polygon points="385,90 387,90 392,85 387,80 385,80 385,90 " style="fill:white; stroke-width:1; stroke:black; " description="&lt;b&gt;BSHG_0783&lt;/b&gt;&lt;br&gt;hypothetical protein&lt;br&gt;Location: 15214 - 14902" locus_tag="BSHG_0783" class="clusterblast-orf" id="dummy-3_h3_2_13"  />
</g>
<g id="a3_0014"  >
<polygon points="393,90 431,90 436,85 431,80 393,80 393,90 " style="fill:#3315d8; stroke-width:1; stroke:black; " description="&lt;b&gt;BSHG_0784&lt;/b&gt;&lt;br&gt;proton-translocating NADH-quinone oxidoreductase, chain L&lt;br&gt;Location: 14866 - 12955&lt;br&gt;&lt;br&gt;&lt;b&gt;BlastP hit with ctg19_148&lt;/b&gt;&lt;br&gt;Percentage identity: 39&lt;br&gt;Percentage coverage: 89&lt;br&gt;BLAST bit score: 303&lt;br&gt;E-value: 1.69e-96" locus_tag="BSHG_0784" class="clusterblast-orf" id="dummy-3_h3_2_14"  />
</g>
<g id="a3_0015"  >
<polygon points="437,90 465,90 470,85 465,80 437,80 437,90 " style="fill:white; stroke-width:1; stroke:black; " description="&lt;b&gt;BSHG_0785&lt;/b&gt;&lt;br&gt;proton-translocating NADH-quinone oxidoreductase, chain M&lt;br&gt;Location: 12943 - 11458" locus_tag="BSHG_0785" class="clusterblast-orf" id="dummy-3_h3_2_15"  />
</g>
<g id="a3_0016"  >
<polygon points="470,90 499,90 504,85 499,80 470,80 470,90 " style="fill:#8dd815; stroke-width:1; stroke:black; " description="&lt;b&gt;BSHG_0786&lt;/b&gt;&lt;br&gt;NADH-quinone oxidoreductase subunit N&lt;br&gt;Location: 11452 - 10000&lt;br&gt;&lt;br&gt;&lt;b&gt;BlastP hit with ctg19_150&lt;/b&gt;&lt;br&gt;Percentage identity: 34&lt;br&gt;Percentage coverage: 80&lt;br&gt;BLAST bit score: 205&lt;br&gt;E-value: 3.03e-62" locus_tag="BSHG_0786" class="clusterblast-orf" id="dummy-3_h3_2_16"  />
</g>
<g id="a3_0017"  >
<polygon points="506,85 511,80 569,80 569,90 511,90 506,85 " style="fill:white; stroke-width:1; stroke:black; " description="&lt;b&gt;BSHG_0787&lt;/b&gt;&lt;br&gt;hypothetical protein&lt;br&gt;Location: 9904 - 7114" locus_tag="BSHG_0787" class="clusterblast-orf" id="dummy-3_h3_2_17"  />
</g>
<g id="a3_0018"  >
<polygon points="575,90 631,90 636,85 631,80 575,80 575,90 " style="fill:white; stroke-width:1; stroke:black; " description="&lt;b&gt;BSHG_0789&lt;/b&gt;&lt;br&gt;hypothetical protein&lt;br&gt;Location: 6877 - 4177" locus_tag="BSHG_0789" class="clusterblast-orf" id="dummy-3_h3_2_18"  />
</g>
<g id="a3_0019"  >
<polygon points="638,90 662,90 667,85 662,80 638,80 638,90 " style="fill:white; stroke-width:1; stroke:black; " description="&lt;b&gt;BSHG_0790&lt;/b&gt;&lt;br&gt;hypothetical protein&lt;br&gt;Location: 4109 - 2834" locus_tag="BSHG_0790" class="clusterblast-orf" id="dummy-3_h3_2_19"  />
</g>
<g id="a3_0020"  >
<polygon points="669,90 689,90 694,85 689,80 669,80 669,90 " style="fill:white; stroke-width:1; stroke:black; " description="&lt;b&gt;BSHG_0791&lt;/b&gt;&lt;br&gt;hypothetical protein&lt;br&gt;Location: 2732 - 1613" locus_tag="BSHG_0791" class="clusterblast-orf" id="dummy-3_h3_2_20"  />
</g>
</svg>
