<svg xmlns="http://www.w3.org/2000/svg" xmlns:xlink="http://www.w3.org/1999/xlink" version="1.1" x="0" y="0" height="200" width="800" viewBox="0 0 800 200" preserveAspectRatio="none"  >
<g label="Query sequence" class="clusterblast-cluster"  >
<text x="5" y="20" class="clusterblast-acc"  >
Query sequence</text>
<line x1="10" y1="35" x2="778.0" y2="35" style="stroke-width:1; stroke:grey; "  />
<polygon points="0,40 21,40 26,35 21,30 0,30 0,40 " style="fill:white; stroke-width:1; stroke:black; " description="&lt;b&gt;ctg1_2701&lt;/b&gt;&lt;br&gt;ctg1 2701&lt;br&gt;Location: 2902978 - 2904112" locus_tag="ctg1_2701" class="clusterblast-orf" id="knownclusterblast-6_q0_0_all"  />
<polygon points="27,40 42,40 47,35 42,30 27,30 27,40 " style="fill:white; stroke-width:1; stroke:black; " description="&lt;b&gt;ctg1_2702&lt;/b&gt;&lt;br&gt;ctg1 2702&lt;br&gt;Location: 2904177 - 2905059" locus_tag="ctg1_2702" class="clusterblast-orf" id="knownclusterblast-6_q1_0_all"  />
<polygon points="50,40 72,40 77,35 72,30 50,30 50,40 " style="fill:white; stroke-width:1; stroke:black; " description="&lt;b&gt;ctg1_2703&lt;/b&gt;&lt;br&gt;ctg1 2703&lt;br&gt;Location: 2905176 - 2906376" locus_tag="ctg1_2703" class="clusterblast-orf" id="knownclusterblast-6_q2_0_all"  />
<polygon points="77,35 81,30 81,40 77,35 " style="fill:white; stroke-width:1; stroke:black; " description="&lt;b&gt;ctg1_2704&lt;/b&gt;&lt;br&gt;ctg1 2704&lt;br&gt;Location: 2906388 - 2906559" locus_tag="ctg1_2704" class="clusterblast-orf" id="knownclusterblast-6_q3_0_all"  />
<polygon points="84,35 89,30 122,30 122,40 89,40 84,35 " style="fill:white; stroke-width:1; stroke:black; " description="&lt;b&gt;ctg1_2705&lt;/b&gt;&lt;br&gt;ctg1 2705&lt;br&gt;Location: 2906687 - 2908364" locus_tag="ctg1_2705" class="clusterblast-orf" id="knownclusterblast-6_q4_0_all"  />
<polygon points="128,35 133,30 133,30 133,40 133,40 128,35 " style="fill:white; stroke-width:1; stroke:black; " description="&lt;b&gt;ctg1_2706&lt;/b&gt;&lt;br&gt;ctg1 2706&lt;br&gt;Location: 2908591 - 2908819" locus_tag="ctg1_2706" class="clusterblast-orf" id="knownclusterblast-6_q5_0_all"  />
<polygon points="139,40 144,40 149,35 144,30 139,30 139,40 " style="fill:white; stroke-width:1; stroke:black; " description="&lt;b&gt;ctg1_2707&lt;/b&gt;&lt;br&gt;ctg1 2707&lt;br&gt;Location: 2909108 - 2909531" locus_tag="ctg1_2707" class="clusterblast-orf" id="knownclusterblast-6_q6_0_all"  />
<polygon points="150,35 155,30 167,30 167,40 155,40 150,35 " style="fill:white; stroke-width:1; stroke:black; " description="&lt;b&gt;ctg1_2708&lt;/b&gt;&lt;br&gt;ctg1 2708&lt;br&gt;Location: 2909577 - 2910339" locus_tag="ctg1_2708" class="clusterblast-orf" id="knownclusterblast-6_q7_0_all"  />
<polygon points="169,40 185,40 190,35 185,30 169,30 169,40 " style="fill:white; stroke-width:1; stroke:black; " description="&lt;b&gt;ctg1_2709&lt;/b&gt;&lt;br&gt;ctg1 2709&lt;br&gt;Location: 2910425 - 2911313" locus_tag="ctg1_2709" class="clusterblast-orf" id="knownclusterblast-6_q8_0_all"  />
<polygon points="190,35 195,30 197,30 197,40 195,40 190,35 " style="fill:white; stroke-width:1; stroke:black; " description="&lt;b&gt;ctg1_2710&lt;/b&gt;&lt;br&gt;ctg1 2710&lt;br&gt;Location: 2911332 - 2911626" locus_tag="ctg1_2710" class="clusterblast-orf" id="knownclusterblast-6_q9_0_all"  />
<polygon points="199,35 204,30 214,30 214,40 204,40 199,35 " style="fill:white; stroke-width:1; stroke:black; " description="&lt;b&gt;ctg1_2711&lt;/b&gt;&lt;br&gt;ctg1 2711&lt;br&gt;Location: 2911742 - 2912378" locus_tag="ctg1_2711" class="clusterblast-orf" id="knownclusterblast-6_q10_0_all"  />
<polygon points="216,35 221,30 250,30 250,40 221,40 216,35 " style="fill:#d81515; stroke-width:1; stroke:black; " description="&lt;b&gt;ctg1_2712&lt;/b&gt;&lt;br&gt;ctg1 2712&lt;br&gt;Location: 2912478 - 2913975" locus_tag="ctg1_2712" class="clusterblast-orf" id="knownclusterblast-6_q11_0_all"  />
<polygon points="250,35 255,30 287,30 287,40 255,40 250,35 " style="fill:#33d815; stroke-width:1; stroke:black; " description="&lt;b&gt;ctg1_2713&lt;/b&gt;&lt;br&gt;ctg1 2713&lt;br&gt;Location: 2913977 - 2915576" locus_tag="ctg1_2713" class="clusterblast-orf" id="knownclusterblast-6_q12_0_all"  />
<polygon points="287,35 292,30 330,30 330,40 292,40 287,35 " style="fill:#15abd8; stroke-width:1; stroke:black; " description="&lt;b&gt;ctg1_2714&lt;/b&gt;&lt;br&gt;ctg1 2714&lt;br&gt;Location: 2915577 - 2917467" locus_tag="ctg1_2714" class="clusterblast-orf" id="knownclusterblast-6_q13_0_all"  />
<polygon points="330,35 335,30 337,30 337,40 335,40 330,35 " style="fill:#8d15d8; stroke-width:1; stroke:black; " description="&lt;b&gt;ctg1_2715&lt;/b&gt;&lt;br&gt;ctg1 2715&lt;br&gt;Location: 2917463 - 2917772" locus_tag="ctg1_2715" class="clusterblast-orf" id="knownclusterblast-6_q14_0_all"  />
<polygon points="337,35 342,30 349,30 349,40 342,40 337,35 " style="fill:#d86f15; stroke-width:1; stroke:black; " description="&lt;b&gt;ctg1_2716&lt;/b&gt;&lt;br&gt;ctg1 2716&lt;br&gt;Location: 2917771 - 2918293" locus_tag="ctg1_2716" class="clusterblast-orf" id="knownclusterblast-6_q15_0_all"  />
<polygon points="349,35 354,30 361,30 361,40 354,40 349,35 " style="fill:#15d851; stroke-width:1; stroke:black; " description="&lt;b&gt;ctg1_2717&lt;/b&gt;&lt;br&gt;ctg1 2717&lt;br&gt;Location: 2918289 - 2918832" locus_tag="ctg1_2717" class="clusterblast-orf" id="knownclusterblast-6_q16_0_all"  />
<polygon points="361,35 366,30 384,30 384,40 366,40 361,35 " style="fill:#1551d8; stroke-width:1; stroke:black; " description="&lt;b&gt;ctg1_2718&lt;/b&gt;&lt;br&gt;ctg1 2718&lt;br&gt;Location: 2918850 - 2919867" locus_tag="ctg1_2718" class="clusterblast-orf" id="knownclusterblast-6_q17_0_all"  />
<polygon points="385,35 390,30 446,30 446,40 390,40 385,35 " style="fill:#d815c9; stroke-width:1; stroke:black; " description="&lt;b&gt;ctg1_2719&lt;/b&gt;&lt;br&gt;ctg1 2719&lt;br&gt;Location: 2919870 - 2922555" locus_tag="ctg1_2719" class="clusterblast-orf" id="knownclusterblast-6_q18_0_all"  />
<polygon points="446,35 451,30 476,30 476,40 451,40 446,35 " style="fill:#d8c915; stroke-width:1; stroke:black; " description="&lt;b&gt;ctg1_2720&lt;/b&gt;&lt;br&gt;ctg1 2720&lt;br&gt;Location: 2922566 - 2923898" locus_tag="ctg1_2720" class="clusterblast-orf" id="knownclusterblast-6_q19_0_all"  />
<polygon points="476,35 481,30 488,30 488,40 481,40 476,35 " style="fill:#15d8ab; stroke-width:1; stroke:black; " description="&lt;b&gt;ctg1_2721&lt;/b&gt;&lt;br&gt;ctg1 2721&lt;br&gt;Location: 2923894 - 2924404" locus_tag="ctg1_2721" class="clusterblast-orf" id="knownclusterblast-6_q20_0_all"  />
<polygon points="488,35 493,30 529,30 529,40 493,40 488,35 " style="fill:#3315d8; stroke-width:1; stroke:black; " description="&lt;b&gt;ctg1_2722&lt;/b&gt;&lt;br&gt;ctg1 2722&lt;br&gt;Location: 2924417 - 2926205" locus_tag="ctg1_2722" class="clusterblast-orf" id="knownclusterblast-6_q21_0_all"  />
<polygon points="531,35 536,30 546,30 546,40 536,40 531,35 " style="fill:#d8156f; stroke-width:1; stroke:black; " description="&lt;b&gt;ctg1_2723&lt;/b&gt;&lt;br&gt;ctg1 2723&lt;br&gt;Location: 2926289 - 2926967" locus_tag="ctg1_2723" class="clusterblast-orf" id="knownclusterblast-6_q22_0_all"  />
<polygon points="546,35 551,30 559,30 559,40 551,40 546,35 " style="fill:#8dd815; stroke-width:1; stroke:black; " description="&lt;b&gt;ctg1_2724&lt;/b&gt;&lt;br&gt;ctg1 2724&lt;br&gt;Location: 2926973 - 2927525" locus_tag="ctg1_2724" class="clusterblast-orf" id="knownclusterblast-6_q23_0_all"  />
<polygon points="569,40 596,40 601,35 596,30 569,30 569,40 " style="fill:white; stroke-width:1; stroke:black; " description="&lt;b&gt;ctg1_2725&lt;/b&gt;&lt;br&gt;ctg1 2725&lt;br&gt;Location: 2927952 - 2929374" locus_tag="ctg1_2725" class="clusterblast-orf" id="knownclusterblast-6_q24_0_all"  />
<polygon points="603,40 606,40 611,35 606,30 603,30 603,40 " style="fill:white; stroke-width:1; stroke:black; " description="&lt;b&gt;ctg1_2726&lt;/b&gt;&lt;br&gt;ctg1 2726&lt;br&gt;Location: 2929466 - 2929820" locus_tag="ctg1_2726" class="clusterblast-orf" id="knownclusterblast-6_q25_0_all"  />
<polygon points="612,35 617,30 649,30 649,40 617,40 612,35 " style="fill:white; stroke-width:1; stroke:black; " description="&lt;b&gt;ctg1_2727&lt;/b&gt;&lt;br&gt;ctg1 2727&lt;br&gt;Location: 2929841 - 2931491" locus_tag="ctg1_2727" class="clusterblast-orf" id="knownclusterblast-6_q26_0_all"  />
<polygon points="650,35 655,30 666,30 666,40 655,40 650,35 " style="fill:white; stroke-width:1; stroke:black; " description="&lt;b&gt;ctg1_2728&lt;/b&gt;&lt;br&gt;ctg1 2728&lt;br&gt;Location: 2931523 - 2932240" locus_tag="ctg1_2728" class="clusterblast-orf" id="knownclusterblast-6_q27_0_all"  />
<polygon points="678,40 738,40 743,35 738,30 678,30 678,40 " style="fill:white; stroke-width:1; stroke:black; " description="&lt;b&gt;ctg1_2729&lt;/b&gt;&lt;br&gt;ctg1 2729&lt;br&gt;Location: 2932772 - 2935607" locus_tag="ctg1_2729" class="clusterblast-orf" id="knownclusterblast-6_q28_0_all"  />
<polygon points="744,40 747,35 744,30 744,40 " style="fill:white; stroke-width:1; stroke:black; " description="&lt;b&gt;ctg1_2730&lt;/b&gt;&lt;br&gt;ctg1 2730&lt;br&gt;Location: 2935662 - 2935797" locus_tag="ctg1_2730" class="clusterblast-orf" id="knownclusterblast-6_q29_0_all"  />
<polygon points="750,40 775,40 780,35 775,30 750,30 750,40 " style="fill:white; stroke-width:1; stroke:black; " description="&lt;b&gt;ctg1_2731&lt;/b&gt;&lt;br&gt;ctg1 2731&lt;br&gt;Location: 2935934 - 2937218" locus_tag="ctg1_2731" class="clusterblast-orf" id="knownclusterblast-6_q30_0_all"  />
</g>
<g label="MGC00000048" description="MGC00000048_c1: NADH dehydrogenase I E. coli (100% of genes show similarity), NADHD" class="clusterblast-cluster"  >
<text x="5" y="70" class="clusterblast-acc"  >
MGC00000048_c1: NADH dehydrogenase I E. coli (100% of genes show similarity), NADHD</text>
<line x1="10" y1="85" x2="778.0" y2="85" style="stroke-width:1; stroke:grey; "  />
</g>
<g id="a6_000"  >
<polygon points="218,85 223,80 252,80 252,90 223,90 218,85 " style="fill:#d81515; stroke-width:1; stroke:black; " description="&lt;b&gt;b2276&lt;/b&gt;&lt;br&gt;NADH:quinone oxidoreductase subunit N&lt;br&gt;Location: 10000 - 11458&lt;br&gt;&lt;br&gt;&lt;b&gt;BlastP hit with ctg1_2712&lt;/b&gt;&lt;br&gt;Percentage identity: 49&lt;br&gt;Percentage coverage: 96&lt;br&gt;BLAST bit score: 414&lt;br&gt;E-value: 4.24e-143" locus_tag="b2276" class="clusterblast-orf" id="knownclusterblast-6_all_6_1_0"  />
</g>
<g id="a6_001"  >
<polygon points="252,85 257,80 287,80 287,90 257,90 252,85 " style="fill:#33d815; stroke-width:1; stroke:black; " description="&lt;b&gt;b2277&lt;/b&gt;&lt;br&gt;NADH:quinone oxidoreductase subunit M&lt;br&gt;Location: 11464 - 12994&lt;br&gt;&lt;br&gt;&lt;b&gt;BlastP hit with ctg1_2713&lt;/b&gt;&lt;br&gt;Percentage identity: 61&lt;br&gt;Percentage coverage: 95&lt;br&gt;BLAST bit score: 601&lt;br&gt;E-value: 1.74e-215" locus_tag="b2277" class="clusterblast-orf" id="knownclusterblast-6_all_6_1_1"  />
</g>
<g id="a6_002"  >
<polygon points="290,85 295,80 332,80 332,90 295,90 290,85 " style="fill:#15abd8; stroke-width:1; stroke:black; " description="&lt;b&gt;b2278&lt;/b&gt;&lt;br&gt;NADH:quinone oxidoreductase subunit L&lt;br&gt;Location: 13157 - 14999&lt;br&gt;&lt;br&gt;&lt;b&gt;BlastP hit with ctg1_2714&lt;/b&gt;&lt;br&gt;Percentage identity: 55&lt;br&gt;Percentage coverage: 100&lt;br&gt;BLAST bit score: 634&lt;br&gt;E-value: 1.49e-225" locus_tag="b2278" class="clusterblast-orf" id="knownclusterblast-6_all_6_1_2"  />
</g>
<g id="a6_003"  >
<polygon points="332,85 337,80 339,80 339,90 337,90 332,85 " style="fill:#8d15d8; stroke-width:1; stroke:black; " description="&lt;b&gt;b2279&lt;/b&gt;&lt;br&gt;NADH:quinone oxidoreductase subunit K&lt;br&gt;Location: 14995 - 15298&lt;br&gt;&lt;br&gt;&lt;b&gt;BlastP hit with ctg1_2715&lt;/b&gt;&lt;br&gt;Percentage identity: 65&lt;br&gt;Percentage coverage: 98&lt;br&gt;BLAST bit score: 125&lt;br&gt;E-value: 4.09e-41" locus_tag="b2279" class="clusterblast-orf" id="knownclusterblast-6_all_6_1_3"  />
</g>
<g id="a6_004"  >
<polygon points="339,85 344,80 352,80 352,90 344,90 339,85 " style="fill:#d86f15; stroke-width:1; stroke:black; " description="&lt;b&gt;b2280&lt;/b&gt;&lt;br&gt;NADH:quinone oxidoreductase subunit J&lt;br&gt;Location: 15294 - 15849&lt;br&gt;&lt;br&gt;&lt;b&gt;BlastP hit with ctg1_2716&lt;/b&gt;&lt;br&gt;Percentage identity: 54&lt;br&gt;Percentage coverage: 98&lt;br&gt;BLAST bit score: 153&lt;br&gt;E-value: 8.82e-50" locus_tag="b2280" class="clusterblast-orf" id="knownclusterblast-6_all_6_1_4"  />
</g>
<g id="a6_005"  >
<polygon points="352,85 357,80 364,80 364,90 357,90 352,85 " style="fill:#15d851; stroke-width:1; stroke:black; " description="&lt;b&gt;b2281&lt;/b&gt;&lt;br&gt;NADH:quinone oxidoreductase subunit I&lt;br&gt;Location: 15860 - 16403&lt;br&gt;&lt;br&gt;&lt;b&gt;BlastP hit with ctg1_2717&lt;/b&gt;&lt;br&gt;Percentage identity: 78&lt;br&gt;Percentage coverage: 99&lt;br&gt;BLAST bit score: 264&lt;br&gt;E-value: 1.77e-93" locus_tag="b2281" class="clusterblast-orf" id="knownclusterblast-6_all_6_1_5"  />
</g>
<g id="a6_006"  >
<polygon points="365,85 370,80 387,80 387,90 370,90 365,85 " style="fill:#1551d8; stroke-width:1; stroke:black; " description="&lt;b&gt;b2282&lt;/b&gt;&lt;br&gt;NADH:quinone oxidoreductase subunit H&lt;br&gt;Location: 16417 - 17395&lt;br&gt;&lt;br&gt;&lt;b&gt;BlastP hit with ctg1_2718&lt;/b&gt;&lt;br&gt;Percentage identity: 64&lt;br&gt;Percentage coverage: 94&lt;br&gt;BLAST bit score: 417&lt;br&gt;E-value: 4.97e-149" locus_tag="b2282" class="clusterblast-orf" id="knownclusterblast-6_all_6_1_6"  />
</g>
<g id="a6_007"  >
<polygon points="387,85 392,80 449,80 449,90 392,90 387,85 " style="fill:#d815c9; stroke-width:1; stroke:black; " description="&lt;b&gt;b2283&lt;/b&gt;&lt;br&gt;NADH:quinone oxidoreductase subunit G&lt;br&gt;Location: 17391 - 20118&lt;br&gt;&lt;br&gt;&lt;b&gt;BlastP hit with ctg1_2719&lt;/b&gt;&lt;br&gt;Percentage identity: 58&lt;br&gt;Percentage coverage: 99&lt;br&gt;BLAST bit score: 1053&lt;br&gt;E-value: 0.0" locus_tag="b2283" class="clusterblast-orf" id="knownclusterblast-6_all_6_1_7"  />
</g>
<g id="a6_008"  >
<polygon points="450,85 455,80 481,80 481,90 455,90 450,85 " style="fill:#d8c915; stroke-width:1; stroke:black; " description="&lt;b&gt;b2284&lt;/b&gt;&lt;br&gt;NADH:quinone oxidoreductase subunit F&lt;br&gt;Location: 20170 - 21508&lt;br&gt;&lt;br&gt;&lt;b&gt;BlastP hit with ctg1_2720&lt;/b&gt;&lt;br&gt;Percentage identity: 66&lt;br&gt;Percentage coverage: 94&lt;br&gt;BLAST bit score: 565&lt;br&gt;E-value: 5.92e-204" locus_tag="b2284" class="clusterblast-orf" id="knownclusterblast-6_all_6_1_8"  />
</g>
<g id="a6_009"  >
<polygon points="480,85 485,80 492,80 492,90 485,90 480,85 " style="fill:#15d8ab; stroke-width:1; stroke:black; " description="&lt;b&gt;b2285&lt;/b&gt;&lt;br&gt;NADH:quinone oxidoreductase subunit E&lt;br&gt;Location: 21504 - 22005&lt;br&gt;&lt;br&gt;&lt;b&gt;BlastP hit with ctg1_2721&lt;/b&gt;&lt;br&gt;Percentage identity: 57&lt;br&gt;Percentage coverage: 90&lt;br&gt;BLAST bit score: 186&lt;br&gt;E-value: 3.93e-63" locus_tag="b2285" class="clusterblast-orf" id="knownclusterblast-6_all_6_1_9"  />
</g>
<g id="a6_0010"  >
<polygon points="492,85 497,80 533,80 533,90 497,90 492,85 " style="fill:#3315d8; stroke-width:1; stroke:black; " description="&lt;b&gt;b2286&lt;/b&gt;&lt;br&gt;NADH:quinone oxidoreductase subunit CD&lt;br&gt;Location: 22007 - 23798&lt;br&gt;&lt;br&gt;&lt;b&gt;BlastP hit with ctg1_2722&lt;/b&gt;&lt;br&gt;Percentage identity: 68&lt;br&gt;Percentage coverage: 97&lt;br&gt;BLAST bit score: 838&lt;br&gt;E-value: 1.61e-306" locus_tag="b2286" class="clusterblast-orf" id="knownclusterblast-6_all_6_1_10"  />
</g>
<g id="a6_0011"  >
<polygon points="535,85 540,80 550,80 550,90 540,90 535,85 " style="fill:#d8156f; stroke-width:1; stroke:black; " description="&lt;b&gt;b2287&lt;/b&gt;&lt;br&gt;NADH:quinone oxidoreductase subunit B&lt;br&gt;Location: 23903 - 24566&lt;br&gt;&lt;br&gt;&lt;b&gt;BlastP hit with ctg1_2723&lt;/b&gt;&lt;br&gt;Percentage identity: 74&lt;br&gt;Percentage coverage: 100&lt;br&gt;BLAST bit score: 332&lt;br&gt;E-value: 4.64e-119" locus_tag="b2287" class="clusterblast-orf" id="knownclusterblast-6_all_6_1_11"  />
</g>
<g id="a6_0012"  >
<polygon points="551,85 556,80 561,80 561,90 556,90 551,85 " style="fill:#8dd815; stroke-width:1; stroke:black; " description="&lt;b&gt;b2288&lt;/b&gt;&lt;br&gt;NADH:quinone oxidoreductase subunit A&lt;br&gt;Location: 24581 - 25025&lt;br&gt;&lt;br&gt;&lt;b&gt;BlastP hit with ctg1_2724&lt;/b&gt;&lt;br&gt;Percentage identity: 52&lt;br&gt;Percentage coverage: 69&lt;br&gt;BLAST bit score: 128&lt;br&gt;E-value: 3.95e-40" locus_tag="b2288" class="clusterblast-orf" id="knownclusterblast-6_all_6_1_12"  />
</g>
<g label="MGC00000056" description="MGC00000056_c1: NADH dehydrogenase I Bacteroides sp. (23% of genes show similarity), NADHD" class="clusterblast-cluster"  >
<text x="5" y="120" class="clusterblast-acc"  >
MGC00000056_c1: NADH dehydrogenase I Bacteroides sp. (23% of genes show similarity), NADHD</text>
<line x1="10" y1="135" x2="778.0" y2="135" style="stroke-width:1; stroke:grey; "  />
</g>
<g id="a6_000"  >
<polygon points="84,135 89,130 110,130 110,140 89,140 84,135 " style="fill:white; stroke-width:1; stroke:black; " description="&lt;b&gt;BSHG_0791&lt;/b&gt;&lt;br&gt;hypothetical protein&lt;br&gt;Location: 1613 - 2732" locus_tag="BSHG_0791" class="clusterblast-orf" id="knownclusterblast-6_all_6_2_0"  />
</g>
<g id="a6_001"  >
<polygon points="112,135 117,130 141,130 141,140 117,140 112,135 " style="fill:white; stroke-width:1; stroke:black; " description="&lt;b&gt;BSHG_0790&lt;/b&gt;&lt;br&gt;hypothetical protein&lt;br&gt;Location: 2834 - 4109" locus_tag="BSHG_0790" class="clusterblast-orf" id="knownclusterblast-6_all_6_2_1"  />
</g>
<g id="a6_002"  >
<polygon points="143,135 148,130 204,130 204,140 148,140 143,135 " style="fill:white; stroke-width:1; stroke:black; " description="&lt;b&gt;BSHG_0789&lt;/b&gt;&lt;br&gt;hypothetical protein&lt;br&gt;Location: 4177 - 6877" locus_tag="BSHG_0789" class="clusterblast-orf" id="knownclusterblast-6_all_6_2_2"  />
</g>
<g id="a6_003"  >
<polygon points="210,140 268,140 273,135 268,130 210,130 210,140 " style="fill:white; stroke-width:1; stroke:black; " description="&lt;b&gt;BSHG_0787&lt;/b&gt;&lt;br&gt;hypothetical protein&lt;br&gt;Location: 7114 - 9904" locus_tag="BSHG_0787" class="clusterblast-orf" id="knownclusterblast-6_all_6_2_3"  />
</g>
<g id="a6_004"  >
<polygon points="275,135 280,130 308,130 308,140 280,140 275,135 " style="fill:white; stroke-width:1; stroke:black; " description="&lt;b&gt;BSHG_0786&lt;/b&gt;&lt;br&gt;NADH-quinone oxidoreductase subunit N&lt;br&gt;Location: 10000 - 11452" locus_tag="BSHG_0786" class="clusterblast-orf" id="knownclusterblast-6_all_6_2_4"  />
</g>
<g id="a6_005"  >
<polygon points="309,135 314,130 342,130 342,140 314,140 309,135 " style="fill:#33d815; stroke-width:1; stroke:black; " description="&lt;b&gt;BSHG_0785&lt;/b&gt;&lt;br&gt;proton-translocating NADH-quinone oxidoreductase, chain M&lt;br&gt;Location: 11458 - 12943&lt;br&gt;&lt;br&gt;&lt;b&gt;BlastP hit with ctg1_2713&lt;/b&gt;&lt;br&gt;Percentage identity: 36&lt;br&gt;Percentage coverage: 83&lt;br&gt;BLAST bit score: 210&lt;br&gt;E-value: 1.53e-63" locus_tag="BSHG_0785" class="clusterblast-orf" id="knownclusterblast-6_all_6_2_5"  />
</g>
<g id="a6_006"  >
<polygon points="343,135 348,130 386,130 386,140 348,140 343,135 " style="fill:#15abd8; stroke-width:1; stroke:black; " description="&lt;b&gt;BSHG_0784&lt;/b&gt;&lt;br&gt;proton-translocating NADH-quinone oxidoreductase, chain L&lt;br&gt;Location: 12955 - 14866&lt;br&gt;&lt;br&gt;&lt;b&gt;BlastP hit with ctg1_2714&lt;/b&gt;&lt;br&gt;Percentage identity: 32&lt;br&gt;Percentage coverage: 106&lt;br&gt;BLAST bit score: 266&lt;br&gt;E-value: 2.62e-82" locus_tag="BSHG_0784" class="clusterblast-orf" id="knownclusterblast-6_all_6_2_6"  />
</g>
<g id="a6_007"  >
<polygon points="387,135 392,130 394,130 394,140 392,140 387,135 " style="fill:white; stroke-width:1; stroke:black; " description="&lt;b&gt;BSHG_0783&lt;/b&gt;&lt;br&gt;hypothetical protein&lt;br&gt;Location: 14902 - 15214" locus_tag="BSHG_0783" class="clusterblast-orf" id="knownclusterblast-6_all_6_2_7"  />
</g>
<g id="a6_008"  >
<polygon points="394,135 399,130 406,130 406,140 399,140 394,135 " style="fill:white; stroke-width:1; stroke:black; " description="&lt;b&gt;BSHG_0782&lt;/b&gt;&lt;br&gt;hypothetical protein&lt;br&gt;Location: 15220 - 15733" locus_tag="BSHG_0782" class="clusterblast-orf" id="knownclusterblast-6_all_6_2_8"  />
</g>
<g id="a6_009"  >
<polygon points="406,135 411,130 417,130 417,140 411,140 406,135 " style="fill:white; stroke-width:1; stroke:black; " description="&lt;b&gt;BSHG_0781&lt;/b&gt;&lt;br&gt;NADH-quinone oxidoreductase, chain I&lt;br&gt;Location: 15739 - 16219" locus_tag="BSHG_0781" class="clusterblast-orf" id="knownclusterblast-6_all_6_2_9"  />
</g>
<g id="a6_0010"  >
<polygon points="417,135 422,130 442,130 442,140 422,140 417,135 " style="fill:#1551d8; stroke-width:1; stroke:black; " description="&lt;b&gt;BSHG_0780&lt;/b&gt;&lt;br&gt;NADH-quinone oxidoreductase subunit H&lt;br&gt;Location: 16235 - 17312&lt;br&gt;&lt;br&gt;&lt;b&gt;BlastP hit with ctg1_2718&lt;/b&gt;&lt;br&gt;Percentage identity: 40&lt;br&gt;Percentage coverage: 89&lt;br&gt;BLAST bit score: 245&lt;br&gt;E-value: 4.53e-81" locus_tag="BSHG_0780" class="clusterblast-orf" id="knownclusterblast-6_all_6_2_10"  />
</g>
<g id="a6_0011"  >
<polygon points="444,135 449,130 480,130 480,140 449,140 444,135 " style="fill:#3315d8; stroke-width:1; stroke:black; " description="&lt;b&gt;BSHG_0779&lt;/b&gt;&lt;br&gt;NADH-quinone oxidoreductase subunit C/D&lt;br&gt;Location: 17391 - 18984&lt;br&gt;&lt;br&gt;&lt;b&gt;BlastP hit with ctg1_2722&lt;/b&gt;&lt;br&gt;Percentage identity: 31&lt;br&gt;Percentage coverage: 93&lt;br&gt;BLAST bit score: 263&lt;br&gt;E-value: 1.86e-82" locus_tag="BSHG_0779" class="clusterblast-orf" id="knownclusterblast-6_all_6_2_11"  />
</g>
<g id="a6_0012"  >
<polygon points="481,135 486,130 494,130 494,140 486,140 481,135 " style="fill:#d8156f; stroke-width:1; stroke:black; " description="&lt;b&gt;BSHG_0778&lt;/b&gt;&lt;br&gt;NADH-quinone oxidoreductase subunit B&lt;br&gt;Location: 19005 - 19587&lt;br&gt;&lt;br&gt;&lt;b&gt;BlastP hit with ctg1_2723&lt;/b&gt;&lt;br&gt;Percentage identity: 55&lt;br&gt;Percentage coverage: 67&lt;br&gt;BLAST bit score: 175&lt;br&gt;E-value: 1.74e-57" locus_tag="BSHG_0778" class="clusterblast-orf" id="knownclusterblast-6_all_6_2_12"  />
</g>
<g id="a6_0013"  >
<polygon points="494,135 499,130 502,130 502,140 499,140 494,135 " style="fill:white; stroke-width:1; stroke:black; " description="&lt;b&gt;BSHG_0777&lt;/b&gt;&lt;br&gt;NADH-quinone oxidoreductase subunit A&lt;br&gt;Location: 19586 - 19937" locus_tag="BSHG_0777" class="clusterblast-orf" id="knownclusterblast-6_all_6_2_13"  />
</g>
<g id="a6_0014"  >
<polygon points="505,135 510,130 514,130 514,140 510,140 505,135 " style="fill:white; stroke-width:1; stroke:black; " description="&lt;b&gt;BSHG_0776&lt;/b&gt;&lt;br&gt;hypothetical protein&lt;br&gt;Location: 20080 - 20458" locus_tag="BSHG_0776" class="clusterblast-orf" id="knownclusterblast-6_all_6_2_14"  />
</g>
<g id="a6_0015"  >
<polygon points="518,135 523,130 551,130 551,140 523,140 518,135 " style="fill:white; stroke-width:1; stroke:black; " description="&lt;b&gt;BSHG_0775&lt;/b&gt;&lt;br&gt;TrkH family potassium uptake protein&lt;br&gt;Location: 20644 - 22096" locus_tag="BSHG_0775" class="clusterblast-orf" id="knownclusterblast-6_all_6_2_15"  />
</g>
<g id="a6_0016"  >
<polygon points="551,135 556,130 582,130 582,140 556,140 551,135 " style="fill:white; stroke-width:1; stroke:black; " description="&lt;b&gt;BSHG_0774&lt;/b&gt;&lt;br&gt;hypothetical protein&lt;br&gt;Location: 22100 - 23441" locus_tag="BSHG_0774" class="clusterblast-orf" id="knownclusterblast-6_all_6_2_16"  />
</g>
<g id="a6_0017"  >
<polygon points="582,135 587,130 627,130 627,140 587,140 582,135 " style="fill:white; stroke-width:1; stroke:black; " description="&lt;b&gt;BSHG_0773&lt;/b&gt;&lt;br&gt;1-deoxy-D-xylulose-5-phosphate synthase&lt;br&gt;Location: 23479 - 25426" locus_tag="BSHG_0773" class="clusterblast-orf" id="knownclusterblast-6_all_6_2_17"  />
</g>
<g id="a6_0018"  >
<polygon points="638,135 643,130 669,130 669,140 643,140 638,135 " style="fill:white; stroke-width:1; stroke:black; " description="&lt;b&gt;BSHG_0771&lt;/b&gt;&lt;br&gt;hypothetical protein&lt;br&gt;Location: 25917 - 27261" locus_tag="BSHG_0771" class="clusterblast-orf" id="knownclusterblast-6_all_6_2_18"  />
</g>
<g id="a6_0019"  >
<polygon points="668,135 673,130 676,130 676,140 673,140 668,135 " style="fill:white; stroke-width:1; stroke:black; " description="&lt;b&gt;BSHG_0770&lt;/b&gt;&lt;br&gt;hypothetical protein&lt;br&gt;Location: 27257 - 27584" locus_tag="BSHG_0770" class="clusterblast-orf" id="knownclusterblast-6_all_6_2_19"  />
</g>
<g id="a6_0020"  >
<polygon points="680,140 690,140 695,135 690,130 680,130 680,140 " style="fill:white; stroke-width:1; stroke:black; " description="&lt;b&gt;BSHG_0769&lt;/b&gt;&lt;br&gt;HAD hydrolase, family IA&lt;br&gt;Location: 27759 - 28407" locus_tag="BSHG_0769" class="clusterblast-orf" id="knownclusterblast-6_all_6_2_20"  />
</g>
<g label="MGC00000036" description="MGC00000036_c1: Ech complex T. phaeum (28% of genes show similarity), ECH" class="clusterblast-cluster"  >
<text x="5" y="170" class="clusterblast-acc"  >
MGC00000036_c1: Ech complex T. phaeum (28% of genes show similarity), ECH</text>
<line x1="10" y1="185" x2="778.0" y2="185" style="stroke-width:1; stroke:grey; "  />
</g>
<g id="a6_000"  >
<polygon points="218,185 223,180 240,180 240,190 223,190 218,185 " style="fill:white; stroke-width:1; stroke:black; " description="&lt;b&gt;Tph_c21210&lt;/b&gt;&lt;br&gt;stage II sporulation protein P&lt;br&gt;Location: 0 - 966" locus_tag="Tph_c21210" class="clusterblast-orf" id="knownclusterblast-6_all_6_3_0"  />
</g>
<g id="a6_001"  >
<polygon points="444,185 449,180 452,180 452,190 449,190 444,185 " style="fill:white; stroke-width:1; stroke:black; " description="&lt;b&gt;Tph_c21310&lt;/b&gt;&lt;br&gt;putative ech hydrogenase subunit F&lt;br&gt;Location: 9909 - 10260" locus_tag="Tph_c21310" class="clusterblast-orf" id="knownclusterblast-6_all_6_3_1"  />
</g>
<g id="a6_002"  >
<polygon points="453,185 458,180 477,180 477,190 458,190 453,185 " style="fill:white; stroke-width:1; stroke:black; " description="&lt;b&gt;Tph_c21320&lt;/b&gt;&lt;br&gt;putative ech hydrogenase subunit E&lt;br&gt;Location: 10289 - 11372" locus_tag="Tph_c21320" class="clusterblast-orf" id="knownclusterblast-6_all_6_3_2"  />
</g>
<g id="a6_003"  >
<polygon points="477,185 482,180 486,180 486,190 482,190 477,185 " style="fill:white; stroke-width:1; stroke:black; " description="&lt;b&gt;Tph_c21330&lt;/b&gt;&lt;br&gt;putative ech hydrogenase subunit D&lt;br&gt;Location: 11372 - 11750" locus_tag="Tph_c21330" class="clusterblast-orf" id="knownclusterblast-6_all_6_3_3"  />
</g>
<g id="a6_004"  >
<polygon points="486,185 491,180 496,180 496,190 491,190 486,185 " style="fill:#d8156f; stroke-width:1; stroke:black; " description="&lt;b&gt;Tph_c21340&lt;/b&gt;&lt;br&gt;putative ech hydrogenase subunit C&lt;br&gt;Location: 11746 - 12184&lt;br&gt;&lt;br&gt;&lt;b&gt;BlastP hit with ctg1_2723&lt;/b&gt;&lt;br&gt;Percentage identity: 43&lt;br&gt;Percentage coverage: 55&lt;br&gt;BLAST bit score: 103&lt;br&gt;E-value: 3.89e-30" locus_tag="Tph_c21340" class="clusterblast-orf" id="knownclusterblast-6_all_6_3_4"  />
</g>
<g id="a6_005"  >
<polygon points="496,185 501,180 515,180 515,190 501,190 496,185 " style="fill:white; stroke-width:1; stroke:black; " description="&lt;b&gt;Tph_c21350&lt;/b&gt;&lt;br&gt;putative ech hydrogenase subunit B&lt;br&gt;Location: 12184 - 13045" locus_tag="Tph_c21350" class="clusterblast-orf" id="knownclusterblast-6_all_6_3_5"  />
</g>
<g id="a6_006"  >
<polygon points="515,185 520,180 561,180 561,190 520,190 515,185 " style="fill:#15abd8; stroke-width:1; stroke:black; " description="&lt;b&gt;Tph_c21360&lt;/b&gt;&lt;br&gt;putative ech hydrogenase subunit A&lt;br&gt;Location: 13041 - 15027&lt;br&gt;&lt;br&gt;&lt;b&gt;BlastP hit with ctg1_2714&lt;/b&gt;&lt;br&gt;Percentage identity: 35&lt;br&gt;Percentage coverage: 53&lt;br&gt;BLAST bit score: 135&lt;br&gt;E-value: 2.96e-35" locus_tag="Tph_c21360" class="clusterblast-orf" id="knownclusterblast-6_all_6_3_6"  />
</g>
</svg>
