<svg xmlns="http://www.w3.org/2000/svg" xmlns:xlink="http://www.w3.org/1999/xlink" version="1.1" x="0" y="0" height="50" width="800" viewBox="0 0 800 50" preserveAspectRatio="none"  >
<g label="Query sequence" class="clusterblast-cluster"  >
<text x="5" y="20" class="clusterblast-acc"  >
Query sequence</text>
<line x1="10" y1="35" x2="778.0" y2="35" style="stroke-width:1; stroke:grey; "  />
<polygon points="0,40 14,40 19,35 14,30 0,30 0,40 " style="fill:white; stroke-width:1; stroke:black; " description="&lt;b&gt;ctg1_1388&lt;/b&gt;&lt;br&gt;ctg1 1388&lt;br&gt;Location: 1502495 - 1503290" locus_tag="ctg1_1388" class="clusterblast-orf" id="knownclusterblast-3_q0_0_all"  />
<polygon points="21,35 26,30 39,30 39,40 26,40 21,35 " style="fill:white; stroke-width:1; stroke:black; " description="&lt;b&gt;ctg1_1389&lt;/b&gt;&lt;br&gt;ctg1 1389&lt;br&gt;Location: 1503357 - 1504074" locus_tag="ctg1_1389" class="clusterblast-orf" id="knownclusterblast-3_q1_0_all"  />
<polygon points="41,35 46,30 83,30 83,40 46,40 41,35 " style="fill:white; stroke-width:1; stroke:black; " description="&lt;b&gt;ctg1_1390&lt;/b&gt;&lt;br&gt;ctg1 1390&lt;br&gt;Location: 1504157 - 1505891" locus_tag="ctg1_1390" class="clusterblast-orf" id="knownclusterblast-3_q2_0_all"  />
<polygon points="87,40 114,40 119,35 114,30 87,30 87,40 " style="fill:white; stroke-width:1; stroke:black; " description="&lt;b&gt;ctg1_1391&lt;/b&gt;&lt;br&gt;ctg1 1391&lt;br&gt;Location: 1506060 - 1507365" locus_tag="ctg1_1391" class="clusterblast-orf" id="knownclusterblast-3_q3_0_all"  />
<polygon points="120,40 139,40 144,35 139,30 120,30 120,40 " style="fill:white; stroke-width:1; stroke:black; " description="&lt;b&gt;ctg1_1392&lt;/b&gt;&lt;br&gt;ctg1 1392&lt;br&gt;Location: 1507375 - 1508374" locus_tag="ctg1_1392" class="clusterblast-orf" id="knownclusterblast-3_q4_0_all"  />
<polygon points="144,40 178,40 183,35 178,30 144,30 144,40 " style="fill:white; stroke-width:1; stroke:black; " description="&lt;b&gt;ctg1_1393&lt;/b&gt;&lt;br&gt;ctg1 1393&lt;br&gt;Location: 1508385 - 1509960" locus_tag="ctg1_1393" class="clusterblast-orf" id="knownclusterblast-3_q5_0_all"  />
<polygon points="184,35 189,30 206,30 206,40 189,40 184,35 " style="fill:white; stroke-width:1; stroke:black; " description="&lt;b&gt;ctg1_1394&lt;/b&gt;&lt;br&gt;ctg1 1394&lt;br&gt;Location: 1510011 - 1510908" locus_tag="ctg1_1394" class="clusterblast-orf" id="knownclusterblast-3_q6_0_all"  />
<polygon points="214,40 230,40 235,35 230,30 214,30 214,40 " style="fill:white; stroke-width:1; stroke:black; " description="&lt;b&gt;ctg1_1395&lt;/b&gt;&lt;br&gt;ctg1 1395&lt;br&gt;Location: 1511237 - 1512068" locus_tag="ctg1_1395" class="clusterblast-orf" id="knownclusterblast-3_q7_0_all"  />
<polygon points="239,40 264,40 269,35 264,30 239,30 239,40 " style="fill:white; stroke-width:1; stroke:black; " description="&lt;b&gt;ctg1_1396&lt;/b&gt;&lt;br&gt;ctg1 1396&lt;br&gt;Location: 1512226 - 1513465" locus_tag="ctg1_1396" class="clusterblast-orf" id="knownclusterblast-3_q8_0_all"  />
<polygon points="269,40 291,40 296,35 291,30 269,30 269,40 " style="fill:white; stroke-width:1; stroke:black; " description="&lt;b&gt;ctg1_1397&lt;/b&gt;&lt;br&gt;ctg1 1397&lt;br&gt;Location: 1513480 - 1514548" locus_tag="ctg1_1397" class="clusterblast-orf" id="knownclusterblast-3_q9_0_all"  />
<polygon points="297,35 302,30 317,30 317,40 302,40 297,35 " style="fill:white; stroke-width:1; stroke:black; " description="&lt;b&gt;ctg1_1398&lt;/b&gt;&lt;br&gt;ctg1 1398&lt;br&gt;Location: 1514609 - 1515416" locus_tag="ctg1_1398" class="clusterblast-orf" id="knownclusterblast-3_q10_0_all"  />
<polygon points="319,35 324,30 329,30 329,40 324,40 319,35 " style="fill:white; stroke-width:1; stroke:black; " description="&lt;b&gt;ctg1_1399&lt;/b&gt;&lt;br&gt;ctg1 1399&lt;br&gt;Location: 1515491 - 1515908" locus_tag="ctg1_1399" class="clusterblast-orf" id="knownclusterblast-3_q11_0_all"  />
<polygon points="333,40 345,40 350,35 345,30 333,30 333,40 " style="fill:white; stroke-width:1; stroke:black; " description="&lt;b&gt;ctg1_1400&lt;/b&gt;&lt;br&gt;ctg1 1400&lt;br&gt;Location: 1516062 - 1516755" locus_tag="ctg1_1400" class="clusterblast-orf" id="knownclusterblast-3_q12_0_all"  />
<polygon points="352,35 357,30 382,30 382,40 357,40 352,35 " style="fill:white; stroke-width:1; stroke:black; " description="&lt;b&gt;ctg1_1401&lt;/b&gt;&lt;br&gt;ctg1 1401&lt;br&gt;Location: 1516848 - 1518054" locus_tag="ctg1_1401" class="clusterblast-orf" id="knownclusterblast-3_q13_0_all"  />
<polygon points="386,35 391,30 399,30 399,40 391,40 386,35 " style="fill:white; stroke-width:1; stroke:black; " description="&lt;b&gt;ctg1_1402&lt;/b&gt;&lt;br&gt;ctg1 1402&lt;br&gt;Location: 1518212 - 1518761" locus_tag="ctg1_1402" class="clusterblast-orf" id="knownclusterblast-3_q14_0_all"  />
<polygon points="404,35 409,30 429,30 429,40 409,40 404,35 " style="fill:white; stroke-width:1; stroke:black; " description="&lt;b&gt;ctg1_1403&lt;/b&gt;&lt;br&gt;ctg1 1403&lt;br&gt;Location: 1518959 - 1519979" locus_tag="ctg1_1403" class="clusterblast-orf" id="knownclusterblast-3_q15_0_all"  />
<polygon points="433,35 438,30 447,30 447,40 438,40 433,35 " style="fill:white; stroke-width:1; stroke:black; " description="&lt;b&gt;ctg1_1404&lt;/b&gt;&lt;br&gt;ctg1 1404&lt;br&gt;Location: 1520119 - 1520689" locus_tag="ctg1_1404" class="clusterblast-orf" id="knownclusterblast-3_q16_0_all"  />
<polygon points="449,35 454,30 472,30 472,40 454,40 449,35 " style="fill:white; stroke-width:1; stroke:black; " description="&lt;b&gt;ctg1_1405&lt;/b&gt;&lt;br&gt;ctg1 1405&lt;br&gt;Location: 1520782 - 1521718" locus_tag="ctg1_1405" class="clusterblast-orf" id="knownclusterblast-3_q17_0_all"  />
<polygon points="476,40 490,40 495,35 490,30 476,30 476,40 " style="fill:white; stroke-width:1; stroke:black; " description="&lt;b&gt;ctg1_1406&lt;/b&gt;&lt;br&gt;ctg1 1406&lt;br&gt;Location: 1521896 - 1522661" locus_tag="ctg1_1406" class="clusterblast-orf" id="knownclusterblast-3_q18_0_all"  />
<polygon points="495,40 509,40 514,35 509,30 495,30 495,40 " style="fill:white; stroke-width:1; stroke:black; " description="&lt;b&gt;ctg1_1407&lt;/b&gt;&lt;br&gt;ctg1 1407&lt;br&gt;Location: 1522673 - 1523429" locus_tag="ctg1_1407" class="clusterblast-orf" id="knownclusterblast-3_q19_0_all"  />
<polygon points="515,40 532,40 537,35 532,30 515,30 515,40 " style="fill:white; stroke-width:1; stroke:black; " description="&lt;b&gt;ctg1_1408&lt;/b&gt;&lt;br&gt;ctg1 1408&lt;br&gt;Location: 1523473 - 1524385" locus_tag="ctg1_1408" class="clusterblast-orf" id="knownclusterblast-3_q20_0_all"  />
<polygon points="537,40 544,40 549,35 544,30 537,30 537,40 " style="fill:white; stroke-width:1; stroke:black; " description="&lt;b&gt;ctg1_1409&lt;/b&gt;&lt;br&gt;ctg1 1409&lt;br&gt;Location: 1524387 - 1524849" locus_tag="ctg1_1409" class="clusterblast-orf" id="knownclusterblast-3_q21_0_all"  />
<polygon points="549,40 589,40 594,35 589,30 549,30 549,40 " style="fill:white; stroke-width:1; stroke:black; " description="&lt;b&gt;ctg1_1410&lt;/b&gt;&lt;br&gt;ctg1 1410&lt;br&gt;Location: 1524858 - 1526682" locus_tag="ctg1_1410" class="clusterblast-orf" id="knownclusterblast-3_q22_0_all"  />
<polygon points="598,40 626,40 631,35 626,30 598,30 598,40 " style="fill:white; stroke-width:1; stroke:black; " description="&lt;b&gt;ctg1_1411&lt;/b&gt;&lt;br&gt;ctg1 1411&lt;br&gt;Location: 1526839 - 1528213" locus_tag="ctg1_1411" class="clusterblast-orf" id="knownclusterblast-3_q23_0_all"  />
<polygon points="635,40 670,40 675,35 670,30 635,30 635,40 " style="fill:white; stroke-width:1; stroke:black; " description="&lt;b&gt;ctg1_1412&lt;/b&gt;&lt;br&gt;ctg1 1412&lt;br&gt;Location: 1528350 - 1529991" locus_tag="ctg1_1412" class="clusterblast-orf" id="knownclusterblast-3_q24_0_all"  />
<polygon points="677,40 694,40 699,35 694,30 677,30 677,40 " style="fill:white; stroke-width:1; stroke:black; " description="&lt;b&gt;ctg1_1413&lt;/b&gt;&lt;br&gt;ctg1 1413&lt;br&gt;Location: 1530065 - 1530968" locus_tag="ctg1_1413" class="clusterblast-orf" id="knownclusterblast-3_q25_0_all"  />
<polygon points="718,40 726,40 731,35 726,30 718,30 718,40 " style="fill:white; stroke-width:1; stroke:black; " description="&lt;b&gt;ctg1_1414&lt;/b&gt;&lt;br&gt;ctg1 1414&lt;br&gt;Location: 1531731 - 1532280" locus_tag="ctg1_1414" class="clusterblast-orf" id="knownclusterblast-3_q26_0_all"  />
<polygon points="737,40 775,40 780,35 775,30 737,30 737,40 " style="fill:white; stroke-width:1; stroke:black; " description="&lt;b&gt;ctg1_1415&lt;/b&gt;&lt;br&gt;ctg1 1415&lt;br&gt;Location: 1532519 - 1534259" locus_tag="ctg1_1415" class="clusterblast-orf" id="knownclusterblast-3_q27_0_all"  />
</g>
</svg>
