<svg xmlns="http://www.w3.org/2000/svg" xmlns:xlink="http://www.w3.org/1999/xlink" version="1.1" x="0" y="0" height="230" width="800" viewBox="0 0 800 230" preserveAspectRatio="none"  >
<g label="Query sequence" class="clusterblast-cluster"  >
<text x="5" y="20" class="clusterblast-acc"  >
Query sequence</text>
<line x1="10" y1="35" x2="778.0" y2="35" style="stroke-width:1; stroke:grey; "  />
<polygon points="0,35 5,30 7,30 7,40 5,40 0,35 " style="fill:white; stroke-width:1; stroke:black; " description="&lt;b&gt;ctg1_2235&lt;/b&gt;&lt;br&gt;ctg1 2235&lt;br&gt;Location: 2380721 - 2381027" locus_tag="ctg1_2235" class="clusterblast-orf" id="dummy-11_q0_0_all"  />
<polygon points="8,35 13,30 19,30 19,40 13,40 8,35 " style="fill:white; stroke-width:1; stroke:black; " description="&lt;b&gt;ctg1_2236&lt;/b&gt;&lt;br&gt;ctg1 2236&lt;br&gt;Location: 2381081 - 2381543" locus_tag="ctg1_2236" class="clusterblast-orf" id="dummy-11_q1_0_all"  />
<polygon points="20,40 36,40 41,35 36,30 20,30 20,40 " style="fill:white; stroke-width:1; stroke:black; " description="&lt;b&gt;ctg1_2237&lt;/b&gt;&lt;br&gt;ctg1 2237&lt;br&gt;Location: 2381607 - 2382525" locus_tag="ctg1_2237" class="clusterblast-orf" id="dummy-11_q2_0_all"  />
<polygon points="46,40 68,40 73,35 68,30 46,30 46,40 " style="fill:white; stroke-width:1; stroke:black; " description="&lt;b&gt;ctg1_2238&lt;/b&gt;&lt;br&gt;ctg1 2238&lt;br&gt;Location: 2382715 - 2383924" locus_tag="ctg1_2238" class="clusterblast-orf" id="dummy-11_q3_0_all"  />
<polygon points="75,35 80,30 115,30 115,40 80,40 75,35 " style="fill:white; stroke-width:1; stroke:black; " description="&lt;b&gt;ctg1_2239&lt;/b&gt;&lt;br&gt;ctg1 2239&lt;br&gt;Location: 2383994 - 2385722" locus_tag="ctg1_2239" class="clusterblast-orf" id="dummy-11_q4_0_all"  />
<polygon points="118,40 135,40 140,35 135,30 118,30 118,40 " style="fill:white; stroke-width:1; stroke:black; " description="&lt;b&gt;ctg1_2240&lt;/b&gt;&lt;br&gt;ctg1 2240&lt;br&gt;Location: 2385859 - 2386831" locus_tag="ctg1_2240" class="clusterblast-orf" id="dummy-11_q5_0_all"  />
<polygon points="142,40 149,40 154,35 149,30 142,30 142,40 " style="fill:white; stroke-width:1; stroke:black; " description="&lt;b&gt;ctg1_2241&lt;/b&gt;&lt;br&gt;ctg1 2241&lt;br&gt;Location: 2386933 - 2387437" locus_tag="ctg1_2241" class="clusterblast-orf" id="dummy-11_q6_0_all"  />
<polygon points="160,35 165,30 177,30 177,40 165,40 160,35 " style="fill:white; stroke-width:1; stroke:black; " description="&lt;b&gt;ctg1_2242&lt;/b&gt;&lt;br&gt;ctg1 2242&lt;br&gt;Location: 2387709 - 2388426" locus_tag="ctg1_2242" class="clusterblast-orf" id="dummy-11_q7_0_all"  />
<polygon points="182,40 186,40 191,35 186,30 182,30 182,40 " style="fill:white; stroke-width:1; stroke:black; " description="&lt;b&gt;ctg1_2243&lt;/b&gt;&lt;br&gt;ctg1 2243&lt;br&gt;Location: 2388634 - 2389057" locus_tag="ctg1_2243" class="clusterblast-orf" id="dummy-11_q8_0_all"  />
<polygon points="193,40 207,40 212,35 207,30 193,30 193,40 " style="fill:white; stroke-width:1; stroke:black; " description="&lt;b&gt;ctg1_2244&lt;/b&gt;&lt;br&gt;ctg1 2244&lt;br&gt;Location: 2389115 - 2389964" locus_tag="ctg1_2244" class="clusterblast-orf" id="dummy-11_q9_0_all"  />
<polygon points="214,35 219,30 247,30 247,40 219,40 214,35 " style="fill:#d81515; stroke-width:1; stroke:black; " description="&lt;b&gt;ctg1_2245&lt;/b&gt;&lt;br&gt;ctg1 2245&lt;br&gt;Location: 2390047 - 2391505" locus_tag="ctg1_2245" class="clusterblast-orf" id="dummy-11_q10_0_all"  />
<polygon points="248,35 253,30 283,30 283,40 253,40 248,35 " style="fill:#33d815; stroke-width:1; stroke:black; " description="&lt;b&gt;ctg1_2246&lt;/b&gt;&lt;br&gt;ctg1 2246&lt;br&gt;Location: 2391511 - 2393041" locus_tag="ctg1_2246" class="clusterblast-orf" id="dummy-11_q11_0_all"  />
<polygon points="287,35 292,30 329,30 329,40 292,40 287,35 " style="fill:#15abd8; stroke-width:1; stroke:black; " description="&lt;b&gt;ctg1_2247&lt;/b&gt;&lt;br&gt;ctg1 2247&lt;br&gt;Location: 2393204 - 2395046" locus_tag="ctg1_2247" class="clusterblast-orf" id="dummy-11_q12_0_all"  />
<polygon points="329,35 334,30 336,30 336,40 334,40 329,35 " style="fill:#8d15d8; stroke-width:1; stroke:black; " description="&lt;b&gt;ctg1_2248&lt;/b&gt;&lt;br&gt;ctg1 2248&lt;br&gt;Location: 2395042 - 2395345" locus_tag="ctg1_2248" class="clusterblast-orf" id="dummy-11_q13_0_all"  />
<polygon points="336,35 341,30 348,30 348,40 341,40 336,35 " style="fill:#d86f15; stroke-width:1; stroke:black; " description="&lt;b&gt;ctg1_2249&lt;/b&gt;&lt;br&gt;ctg1 2249&lt;br&gt;Location: 2395341 - 2395896" locus_tag="ctg1_2249" class="clusterblast-orf" id="dummy-11_q14_0_all"  />
<polygon points="349,35 354,30 361,30 361,40 354,40 349,35 " style="fill:#15d851; stroke-width:1; stroke:black; " description="&lt;b&gt;ctg1_2250&lt;/b&gt;&lt;br&gt;ctg1 2250&lt;br&gt;Location: 2395907 - 2396450" locus_tag="ctg1_2250" class="clusterblast-orf" id="dummy-11_q15_0_all"  />
<polygon points="361,35 366,30 384,30 384,40 366,40 361,35 " style="fill:#1551d8; stroke-width:1; stroke:black; " description="&lt;b&gt;ctg1_2251&lt;/b&gt;&lt;br&gt;ctg1 2251&lt;br&gt;Location: 2396464 - 2397442" locus_tag="ctg1_2251" class="clusterblast-orf" id="dummy-11_q16_0_all"  />
<polygon points="384,35 389,30 446,30 446,40 389,40 384,35 " style="fill:#d815c9; stroke-width:1; stroke:black; " description="&lt;b&gt;ctg1_2252&lt;/b&gt;&lt;br&gt;ctg1 2252&lt;br&gt;Location: 2397438 - 2400165" locus_tag="ctg1_2252" class="clusterblast-orf" id="dummy-11_q17_0_all"  />
<polygon points="448,35 453,30 478,30 478,40 453,40 448,35 " style="fill:#d8c915; stroke-width:1; stroke:black; " description="&lt;b&gt;ctg1_2253&lt;/b&gt;&lt;br&gt;ctg1 2253&lt;br&gt;Location: 2400217 - 2401555" locus_tag="ctg1_2253" class="clusterblast-orf" id="dummy-11_q18_0_all"  />
<polygon points="478,35 483,30 490,30 490,40 483,40 478,35 " style="fill:#15d8ab; stroke-width:1; stroke:black; " description="&lt;b&gt;ctg1_2254&lt;/b&gt;&lt;br&gt;ctg1 2254&lt;br&gt;Location: 2401551 - 2402052" locus_tag="ctg1_2254" class="clusterblast-orf" id="dummy-11_q19_0_all"  />
<polygon points="490,35 495,30 531,30 531,40 495,40 490,35 " style="fill:#3315d8; stroke-width:1; stroke:black; " description="&lt;b&gt;ctg1_2255&lt;/b&gt;&lt;br&gt;ctg1 2255&lt;br&gt;Location: 2402054 - 2403857" locus_tag="ctg1_2255" class="clusterblast-orf" id="dummy-11_q20_0_all"  />
<polygon points="533,35 538,30 549,30 549,40 538,40 533,35 " style="fill:#d8156f; stroke-width:1; stroke:black; " description="&lt;b&gt;ctg1_2256&lt;/b&gt;&lt;br&gt;ctg1 2256&lt;br&gt;Location: 2403950 - 2404613" locus_tag="ctg1_2256" class="clusterblast-orf" id="dummy-11_q21_0_all"  />
<polygon points="549,35 554,30 559,30 559,40 554,40 549,35 " style="fill:#8dd815; stroke-width:1; stroke:black; " description="&lt;b&gt;ctg1_2257&lt;/b&gt;&lt;br&gt;ctg1 2257&lt;br&gt;Location: 2404628 - 2405072" locus_tag="ctg1_2257" class="clusterblast-orf" id="dummy-11_q22_0_all"  />
<polygon points="565,40 569,35 565,30 565,40 " style="fill:white; stroke-width:1; stroke:black; " description="&lt;b&gt;ctg1_2258&lt;/b&gt;&lt;br&gt;ctg1 2258&lt;br&gt;Location: 2405334 - 2405499" locus_tag="ctg1_2258" class="clusterblast-orf" id="dummy-11_q23_0_all"  />
<polygon points="574,35 579,30 595,30 595,40 579,40 574,35 " style="fill:white; stroke-width:1; stroke:black; " description="&lt;b&gt;ctg1_2259&lt;/b&gt;&lt;br&gt;ctg1 2259&lt;br&gt;Location: 2405702 - 2406641" locus_tag="ctg1_2259" class="clusterblast-orf" id="dummy-11_q24_0_all"  />
<polygon points="616,40 639,40 644,35 639,30 616,30 616,40 " style="fill:white; stroke-width:1; stroke:black; " description="&lt;b&gt;ctg1_2260&lt;/b&gt;&lt;br&gt;ctg1 2260&lt;br&gt;Location: 2407560 - 2408778" locus_tag="ctg1_2260" class="clusterblast-orf" id="dummy-11_q25_0_all"  />
<polygon points="646,40 655,40 660,35 655,30 646,30 646,40 " style="fill:white; stroke-width:1; stroke:black; " description="&lt;b&gt;ctg1_2261&lt;/b&gt;&lt;br&gt;ctg1 2261&lt;br&gt;Location: 2408861 - 2409461" locus_tag="ctg1_2261" class="clusterblast-orf" id="dummy-11_q26_0_all"  />
<polygon points="661,35 666,30 703,30 703,40 666,40 661,35 " style="fill:white; stroke-width:1; stroke:black; " description="&lt;b&gt;ctg1_2262&lt;/b&gt;&lt;br&gt;ctg1 2262&lt;br&gt;Location: 2409519 - 2411352" locus_tag="ctg1_2262" class="clusterblast-orf" id="dummy-11_q27_0_all"  />
<polygon points="705,35 710,30 720,30 720,40 710,40 705,35 " style="fill:white; stroke-width:1; stroke:black; " description="&lt;b&gt;ctg1_2263&lt;/b&gt;&lt;br&gt;ctg1 2263&lt;br&gt;Location: 2411438 - 2412089" locus_tag="ctg1_2263" class="clusterblast-orf" id="dummy-11_q28_0_all"  />
<polygon points="721,35 726,30 732,30 732,40 726,40 721,35 " style="fill:white; stroke-width:1; stroke:black; " description="&lt;b&gt;ctg1_2264&lt;/b&gt;&lt;br&gt;ctg1 2264&lt;br&gt;Location: 2412099 - 2412594" locus_tag="ctg1_2264" class="clusterblast-orf" id="dummy-11_q29_0_all"  />
<polygon points="734,35 739,30 744,30 744,40 739,40 734,35 " style="fill:white; stroke-width:1; stroke:black; " description="&lt;b&gt;ctg1_2265&lt;/b&gt;&lt;br&gt;ctg1 2265&lt;br&gt;Location: 2412676 - 2413132" locus_tag="ctg1_2265" class="clusterblast-orf" id="dummy-11_q30_0_all"  />
<polygon points="752,40 775,40 780,35 775,30 752,30 752,40 " style="fill:white; stroke-width:1; stroke:black; " description="&lt;b&gt;ctg1_2266&lt;/b&gt;&lt;br&gt;ctg1 2266&lt;br&gt;Location: 2413469 - 2414672" locus_tag="ctg1_2266" class="clusterblast-orf" id="dummy-11_q31_0_all"  />
</g>
<g label="MGC00000036" description="MGC00000036_c1: Ech complex T. phaeum (28% of genes show similarity), ECH" class="clusterblast-cluster"  >
<text x="5" y="70" class="clusterblast-acc"  >
MGC00000036_c1: Ech complex T. phaeum (28% of genes show similarity), ECH</text>
<line x1="10" y1="85" x2="778.0" y2="85" style="stroke-width:1; stroke:grey; "  />
</g>
<g id="a11_000"  >
<polygon points="217,85 222,80 239,80 239,90 222,90 217,85 " style="fill:white; stroke-width:1; stroke:black; " description="&lt;b&gt;Tph_c21210&lt;/b&gt;&lt;br&gt;stage II sporulation protein P&lt;br&gt;Location: 0 - 966" locus_tag="Tph_c21210" class="clusterblast-orf" id="dummy-11_h11_3_0"  />
</g>
<g id="a11_001"  >
<polygon points="445,85 450,80 453,80 453,90 450,90 445,85 " style="fill:white; stroke-width:1; stroke:black; " description="&lt;b&gt;Tph_c21310&lt;/b&gt;&lt;br&gt;putative ech hydrogenase subunit F&lt;br&gt;Location: 9909 - 10260" locus_tag="Tph_c21310" class="clusterblast-orf" id="dummy-11_h11_3_1"  />
</g>
<g id="a11_002"  >
<polygon points="453,85 458,80 478,80 478,90 458,90 453,85 " style="fill:white; stroke-width:1; stroke:black; " description="&lt;b&gt;Tph_c21320&lt;/b&gt;&lt;br&gt;putative ech hydrogenase subunit E&lt;br&gt;Location: 10289 - 11372" locus_tag="Tph_c21320" class="clusterblast-orf" id="dummy-11_h11_3_2"  />
</g>
<g id="a11_003"  >
<polygon points="478,85 483,80 487,80 487,90 483,90 478,85 " style="fill:white; stroke-width:1; stroke:black; " description="&lt;b&gt;Tph_c21330&lt;/b&gt;&lt;br&gt;putative ech hydrogenase subunit D&lt;br&gt;Location: 11372 - 11750" locus_tag="Tph_c21330" class="clusterblast-orf" id="dummy-11_h11_3_3"  />
</g>
<g id="a11_004"  >
<polygon points="487,85 492,80 497,80 497,90 492,90 487,85 " style="fill:#d8156f; stroke-width:1; stroke:black; " description="&lt;b&gt;Tph_c21340&lt;/b&gt;&lt;br&gt;putative ech hydrogenase subunit C&lt;br&gt;Location: 11746 - 12184&lt;br&gt;&lt;br&gt;&lt;b&gt;BlastP hit with ctg1_2256&lt;/b&gt;&lt;br&gt;Percentage identity: 41&lt;br&gt;Percentage coverage: 59&lt;br&gt;BLAST bit score: 101&lt;br&gt;E-value: 2.66e-29" locus_tag="Tph_c21340" class="clusterblast-orf" id="dummy-11_h11_3_4"  />
</g>
<g id="a11_005"  >
<polygon points="497,85 502,80 517,80 517,90 502,90 497,85 " style="fill:white; stroke-width:1; stroke:black; " description="&lt;b&gt;Tph_c21350&lt;/b&gt;&lt;br&gt;putative ech hydrogenase subunit B&lt;br&gt;Location: 12184 - 13045" locus_tag="Tph_c21350" class="clusterblast-orf" id="dummy-11_h11_3_5"  />
</g>
<g id="a11_006"  >
<polygon points="516,85 521,80 562,80 562,90 521,90 516,85 " style="fill:#15abd8; stroke-width:1; stroke:black; " description="&lt;b&gt;Tph_c21360&lt;/b&gt;&lt;br&gt;putative ech hydrogenase subunit A&lt;br&gt;Location: 13041 - 15027&lt;br&gt;&lt;br&gt;&lt;b&gt;BlastP hit with ctg1_2247&lt;/b&gt;&lt;br&gt;Percentage identity: 35&lt;br&gt;Percentage coverage: 53&lt;br&gt;BLAST bit score: 139&lt;br&gt;E-value: 1.83e-36" locus_tag="Tph_c21360" class="clusterblast-orf" id="dummy-11_h11_3_6"  />
</g>
</svg>
