<svg xmlns="http://www.w3.org/2000/svg" xmlns:xlink="http://www.w3.org/1999/xlink" version="1.1" x="0" y="0" height="100" width="800" viewBox="0 0 800 100" preserveAspectRatio="none"  >
<g label="Query sequence" class="clusterblast-cluster"  >
<text x="5" y="20" class="clusterblast-acc"  >
Query sequence</text>
<line x1="10" y1="35" x2="778.0" y2="35" style="stroke-width:1; stroke:grey; "  />
<polygon points="0,40 23,40 28,35 23,30 0,30 0,40 " style="fill:white; stroke-width:1; stroke:black; " description="&lt;b&gt;ctg1_697&lt;/b&gt;&lt;br&gt;ctg1 697&lt;br&gt;Location: 745934 - 746726" locus_tag="ctg1_697" class="clusterblast-orf" id="knownclusterblast-3_q0_0_all"  />
<polygon points="28,35 33,30 65,30 65,40 33,40 28,35 " style="fill:white; stroke-width:1; stroke:black; " description="&lt;b&gt;ctg1_698&lt;/b&gt;&lt;br&gt;ctg1 698&lt;br&gt;Location: 746722 - 747769" locus_tag="ctg1_698" class="clusterblast-orf" id="knownclusterblast-3_q1_0_all"  />
<polygon points="70,35 75,30 108,30 108,40 75,40 70,35 " style="fill:white; stroke-width:1; stroke:black; " description="&lt;b&gt;ctg1_699&lt;/b&gt;&lt;br&gt;ctg1 699&lt;br&gt;Location: 747920 - 748982" locus_tag="ctg1_699" class="clusterblast-orf" id="knownclusterblast-3_q2_0_all"  />
<polygon points="108,35 113,30 133,30 133,40 113,40 108,35 " style="fill:white; stroke-width:1; stroke:black; " description="&lt;b&gt;ctg1_700&lt;/b&gt;&lt;br&gt;ctg1 700&lt;br&gt;Location: 748978 - 749707" locus_tag="ctg1_700" class="clusterblast-orf" id="knownclusterblast-3_q3_0_all"  />
<polygon points="134,35 139,30 221,30 221,40 139,40 134,35 " style="fill:white; stroke-width:1; stroke:black; " description="&lt;b&gt;ctg1_701&lt;/b&gt;&lt;br&gt;ctg1 701&lt;br&gt;Location: 749721 - 752169" locus_tag="ctg1_701" class="clusterblast-orf" id="knownclusterblast-3_q4_0_all"  />
<polygon points="223,35 228,30 243,30 243,40 228,40 223,35 " style="fill:white; stroke-width:1; stroke:black; " description="&lt;b&gt;ctg1_702&lt;/b&gt;&lt;br&gt;ctg1 702&lt;br&gt;Location: 752228 - 752795" locus_tag="ctg1_702" class="clusterblast-orf" id="knownclusterblast-3_q5_0_all"  />
<polygon points="257,35 262,30 302,30 302,40 262,40 257,35 " style="fill:white; stroke-width:1; stroke:black; " description="&lt;b&gt;ctg1_703&lt;/b&gt;&lt;br&gt;ctg1 703&lt;br&gt;Location: 753184 - 754468" locus_tag="ctg1_703" class="clusterblast-orf" id="knownclusterblast-3_q6_0_all"  />
<polygon points="309,35 313,30 313,40 309,35 " style="fill:white; stroke-width:1; stroke:black; " description="&lt;b&gt;ctg1_704&lt;/b&gt;&lt;br&gt;ctg1 704&lt;br&gt;Location: 754673 - 754781" locus_tag="ctg1_704" class="clusterblast-orf" id="knownclusterblast-3_q7_0_all"  />
<polygon points="327,40 336,40 341,35 336,30 327,30 327,40 " style="fill:white; stroke-width:1; stroke:black; " description="&lt;b&gt;ctg1_705&lt;/b&gt;&lt;br&gt;ctg1 705&lt;br&gt;Location: 755161 - 755566" locus_tag="ctg1_705" class="clusterblast-orf" id="knownclusterblast-3_q8_0_all"  />
<polygon points="341,40 348,40 353,35 348,30 341,30 341,40 " style="fill:white; stroke-width:1; stroke:black; " description="&lt;b&gt;ctg1_706&lt;/b&gt;&lt;br&gt;ctg1 706&lt;br&gt;Location: 755559 - 755907" locus_tag="ctg1_706" class="clusterblast-orf" id="knownclusterblast-3_q9_0_all"  />
<polygon points="353,40 411,40 416,35 411,30 353,30 353,40 " style="fill:#d81515; stroke-width:1; stroke:black; " description="&lt;b&gt;ctg1_707&lt;/b&gt;&lt;br&gt;ctg1 707&lt;br&gt;Location: 755906 - 757673" locus_tag="ctg1_707" class="clusterblast-orf" id="knownclusterblast-3_q10_0_all"  />
<polygon points="416,40 436,40 441,35 436,30 416,30 416,40 " style="fill:#15d8d8; stroke-width:1; stroke:black; " description="&lt;b&gt;ctg1_708&lt;/b&gt;&lt;br&gt;ctg1 708&lt;br&gt;Location: 757688 - 758405" locus_tag="ctg1_708" class="clusterblast-orf" id="knownclusterblast-3_q11_0_all"  />
<polygon points="452,40 546,40 551,35 546,30 452,30 452,40 " style="fill:white; stroke-width:1; stroke:black; " description="&lt;b&gt;ctg1_709&lt;/b&gt;&lt;br&gt;ctg1 709&lt;br&gt;Location: 758705 - 761507" locus_tag="ctg1_709" class="clusterblast-orf" id="knownclusterblast-3_q12_0_all"  />
<polygon points="552,40 590,40 595,35 590,30 552,30 552,40 " style="fill:white; stroke-width:1; stroke:black; " description="&lt;b&gt;ctg1_710&lt;/b&gt;&lt;br&gt;ctg1 710&lt;br&gt;Location: 761521 - 762739" locus_tag="ctg1_710" class="clusterblast-orf" id="knownclusterblast-3_q13_0_all"  />
<polygon points="605,40 641,40 646,35 641,30 605,30 605,40 " style="fill:white; stroke-width:1; stroke:black; " description="&lt;b&gt;ctg1_711&lt;/b&gt;&lt;br&gt;ctg1 711&lt;br&gt;Location: 763013 - 764180" locus_tag="ctg1_711" class="clusterblast-orf" id="knownclusterblast-3_q14_0_all"  />
<polygon points="646,40 672,40 677,35 672,30 646,30 646,40 " style="fill:white; stroke-width:1; stroke:black; " description="&lt;b&gt;ctg1_712&lt;/b&gt;&lt;br&gt;ctg1 712&lt;br&gt;Location: 764179 - 765049" locus_tag="ctg1_712" class="clusterblast-orf" id="knownclusterblast-3_q15_0_all"  />
<polygon points="680,35 685,30 706,30 706,40 685,40 680,35 " style="fill:white; stroke-width:1; stroke:black; " description="&lt;b&gt;ctg1_713&lt;/b&gt;&lt;br&gt;ctg1 713&lt;br&gt;Location: 765152 - 765875" locus_tag="ctg1_713" class="clusterblast-orf" id="knownclusterblast-3_q16_0_all"  />
<polygon points="712,40 775,40 780,35 775,30 712,30 712,40 " style="fill:white; stroke-width:1; stroke:black; " description="&lt;b&gt;ctg1_714&lt;/b&gt;&lt;br&gt;ctg1 714&lt;br&gt;Location: 766043 - 767960" locus_tag="ctg1_714" class="clusterblast-orf" id="knownclusterblast-3_q17_0_all"  />
</g>
<g label="MGC00000058" description="MGC00000058_c1: Fumarate2succinate suc dh E. coli (100% of genes show similarity), SUC" class="clusterblast-cluster"  >
<text x="5" y="70" class="clusterblast-acc"  >
MGC00000058_c1: Fumarate2succinate suc dh E. coli (100% of genes show similarity), SUC</text>
<line x1="10" y1="85" x2="778.0" y2="85" style="stroke-width:1; stroke:grey; "  />
</g>
<g id="a3_000"  >
<polygon points="345,90 403,90 408,85 403,80 345,80 345,90 " style="fill:#d81515; stroke-width:1; stroke:black; " description="&lt;b&gt;HMPREF9550_01793&lt;/b&gt;&lt;br&gt;succinate dehydrogenase, flavoprotein subunit&lt;br&gt;Location: 12499 - 10732&lt;br&gt;&lt;br&gt;&lt;b&gt;BlastP hit with ctg1_707&lt;/b&gt;&lt;br&gt;Percentage identity: 100&lt;br&gt;Percentage coverage: 100&lt;br&gt;BLAST bit score: 1182&lt;br&gt;E-value: 0.0" locus_tag="HMPREF9550_01793" class="clusterblast-orf" id="knownclusterblast-3_all_3_1_0"  />
</g>
<g id="a3_001"  >
<polygon points="408,90 429,90 434,85 429,80 408,80 408,90 " style="fill:#15d8d8; stroke-width:1; stroke:black; " description="&lt;b&gt;HMPREF9550_01792&lt;/b&gt;&lt;br&gt;succinate dehydrogenase iron-sulfur subunit&lt;br&gt;Location: 10717 - 10000&lt;br&gt;&lt;br&gt;&lt;b&gt;BlastP hit with ctg1_708&lt;/b&gt;&lt;br&gt;Percentage identity: 100&lt;br&gt;Percentage coverage: 100&lt;br&gt;BLAST bit score: 494&lt;br&gt;E-value: 1.46e-182" locus_tag="HMPREF9550_01792" class="clusterblast-orf" id="knownclusterblast-3_all_3_1_1"  />
</g>
</svg>
