<svg xmlns="http://www.w3.org/2000/svg" xmlns:xlink="http://www.w3.org/1999/xlink" version="1.1" x="0" y="0" height="50" width="800" viewBox="0 0 800 50" preserveAspectRatio="none"  >
<g label="Query sequence" class="clusterblast-cluster"  >
<text x="5" y="20" class="clusterblast-acc"  >
Query sequence</text>
<line x1="10" y1="35" x2="778.0" y2="35" style="stroke-width:1; stroke:grey; "  />
<polygon points="0,40 40,40 45,35 40,30 0,30 0,40 " style="fill:white; stroke-width:1; stroke:black; " description="&lt;b&gt;ctg1_3981&lt;/b&gt;&lt;br&gt;ctg1 3981&lt;br&gt;Location: 4279979 - 4281629" locus_tag="ctg1_3981" class="clusterblast-orf" id="knownclusterblast-19_q0_0_all"  />
<polygon points="49,35 54,30 85,30 85,40 54,40 49,35 " style="fill:white; stroke-width:1; stroke:black; " description="&lt;b&gt;ctg1_3982&lt;/b&gt;&lt;br&gt;ctg1 3982&lt;br&gt;Location: 4281782 - 4283075" locus_tag="ctg1_3982" class="clusterblast-orf" id="knownclusterblast-19_q1_0_all"  />
<polygon points="89,35 94,30 135,30 135,40 94,40 89,35 " style="fill:white; stroke-width:1; stroke:black; " description="&lt;b&gt;ctg1_3983&lt;/b&gt;&lt;br&gt;ctg1 3983&lt;br&gt;Location: 4283252 - 4284902" locus_tag="ctg1_3983" class="clusterblast-orf" id="knownclusterblast-19_q2_0_all"  />
<polygon points="134,35 139,30 143,30 143,40 139,40 134,35 " style="fill:white; stroke-width:1; stroke:black; " description="&lt;b&gt;ctg1_3984&lt;/b&gt;&lt;br&gt;ctg1 3984&lt;br&gt;Location: 4284898 - 4285213" locus_tag="ctg1_3984" class="clusterblast-orf" id="knownclusterblast-19_q3_0_all"  />
<polygon points="148,35 153,30 202,30 202,40 153,40 148,35 " style="fill:white; stroke-width:1; stroke:black; " description="&lt;b&gt;ctg1_3985&lt;/b&gt;&lt;br&gt;ctg1 3985&lt;br&gt;Location: 4285412 - 4287371" locus_tag="ctg1_3985" class="clusterblast-orf" id="knownclusterblast-19_q4_0_all"  />
<polygon points="213,40 247,40 252,35 247,30 213,30 213,40 " style="fill:white; stroke-width:1; stroke:black; " description="&lt;b&gt;ctg1_3986&lt;/b&gt;&lt;br&gt;ctg1 3986&lt;br&gt;Location: 4287763 - 4289200" locus_tag="ctg1_3986" class="clusterblast-orf" id="knownclusterblast-19_q5_0_all"  />
<polygon points="253,40 264,40 269,35 264,30 253,30 253,40 " style="fill:white; stroke-width:1; stroke:black; " description="&lt;b&gt;ctg1_3987&lt;/b&gt;&lt;br&gt;ctg1 3987&lt;br&gt;Location: 4289244 - 4289811" locus_tag="ctg1_3987" class="clusterblast-orf" id="knownclusterblast-19_q6_0_all"  />
<polygon points="269,40 282,40 287,35 282,30 269,30 269,40 " style="fill:white; stroke-width:1; stroke:black; " description="&lt;b&gt;ctg1_3988&lt;/b&gt;&lt;br&gt;ctg1 3988&lt;br&gt;Location: 4289807 - 4290479" locus_tag="ctg1_3988" class="clusterblast-orf" id="knownclusterblast-19_q7_0_all"  />
<polygon points="287,40 308,40 313,35 308,30 287,30 287,40 " style="fill:white; stroke-width:1; stroke:black; " description="&lt;b&gt;ctg1_3989&lt;/b&gt;&lt;br&gt;ctg1 3989&lt;br&gt;Location: 4290475 - 4291432" locus_tag="ctg1_3989" class="clusterblast-orf" id="knownclusterblast-19_q8_0_all"  />
<polygon points="316,40 356,40 361,35 356,30 316,30 316,40 " style="fill:white; stroke-width:1; stroke:black; " description="&lt;b&gt;ctg1_3990&lt;/b&gt;&lt;br&gt;ctg1 3990&lt;br&gt;Location: 4291547 - 4293170" locus_tag="ctg1_3990" class="clusterblast-orf" id="knownclusterblast-19_q9_0_all"  />
<polygon points="361,40 366,40 371,35 366,30 361,30 361,40 " style="fill:white; stroke-width:1; stroke:black; " description="&lt;b&gt;ctg1_3991&lt;/b&gt;&lt;br&gt;ctg1 3991&lt;br&gt;Location: 4293162 - 4293546" locus_tag="ctg1_3991" class="clusterblast-orf" id="knownclusterblast-19_q10_0_all"  />
<polygon points="371,40 382,40 387,35 382,30 371,30 371,40 " style="fill:white; stroke-width:1; stroke:black; " description="&lt;b&gt;ctg1_3992&lt;/b&gt;&lt;br&gt;ctg1 3992&lt;br&gt;Location: 4293542 - 4294139" locus_tag="ctg1_3992" class="clusterblast-orf" id="knownclusterblast-19_q11_0_all"  />
<polygon points="397,40 428,40 433,35 428,30 397,30 397,40 " style="fill:white; stroke-width:1; stroke:black; " description="&lt;b&gt;ctg1_3993&lt;/b&gt;&lt;br&gt;ctg1 3993&lt;br&gt;Location: 4294480 - 4295794" locus_tag="ctg1_3993" class="clusterblast-orf" id="knownclusterblast-19_q12_0_all"  />
<polygon points="450,35 455,30 469,30 469,40 455,40 450,35 " style="fill:white; stroke-width:1; stroke:black; " description="&lt;b&gt;ctg1_3994&lt;/b&gt;&lt;br&gt;ctg1 3994&lt;br&gt;Location: 4296435 - 4297125" locus_tag="ctg1_3994" class="clusterblast-orf" id="knownclusterblast-19_q13_0_all"  />
<polygon points="472,35 477,30 518,30 518,40 477,40 472,35 " style="fill:white; stroke-width:1; stroke:black; " description="&lt;b&gt;ctg1_3995&lt;/b&gt;&lt;br&gt;ctg1 3995&lt;br&gt;Location: 4297218 - 4298898" locus_tag="ctg1_3995" class="clusterblast-orf" id="knownclusterblast-19_q14_0_all"  />
<polygon points="519,35 524,30 530,30 530,40 524,40 519,35 " style="fill:white; stroke-width:1; stroke:black; " description="&lt;b&gt;ctg1_3996&lt;/b&gt;&lt;br&gt;ctg1 3996&lt;br&gt;Location: 4298946 - 4299366" locus_tag="ctg1_3996" class="clusterblast-orf" id="knownclusterblast-19_q15_0_all"  />
<polygon points="536,35 541,30 576,30 576,40 541,40 536,35 " style="fill:white; stroke-width:1; stroke:black; " description="&lt;b&gt;ctg1_3997&lt;/b&gt;&lt;br&gt;ctg1 3997&lt;br&gt;Location: 4299563 - 4301030" locus_tag="ctg1_3997" class="clusterblast-orf" id="knownclusterblast-19_q16_0_all"  />
<polygon points="576,35 581,30 632,30 632,40 581,40 576,35 " style="fill:white; stroke-width:1; stroke:black; " description="&lt;b&gt;ctg1_3998&lt;/b&gt;&lt;br&gt;ctg1 3998&lt;br&gt;Location: 4301026 - 4303078" locus_tag="ctg1_3998" class="clusterblast-orf" id="knownclusterblast-19_q17_0_all"  />
<polygon points="632,35 637,30 660,30 660,40 637,40 632,35 " style="fill:white; stroke-width:1; stroke:black; " description="&lt;b&gt;ctg1_3999&lt;/b&gt;&lt;br&gt;ctg1 3999&lt;br&gt;Location: 4303077 - 4304109" locus_tag="ctg1_3999" class="clusterblast-orf" id="knownclusterblast-19_q18_0_all"  />
<polygon points="661,35 666,30 668,30 668,40 666,40 661,35 " style="fill:white; stroke-width:1; stroke:black; " description="&lt;b&gt;ctg1_4000&lt;/b&gt;&lt;br&gt;ctg1 4000&lt;br&gt;Location: 4304127 - 4304403" locus_tag="ctg1_4000" class="clusterblast-orf" id="knownclusterblast-19_q19_0_all"  />
<polygon points="674,35 679,30 728,30 728,40 679,40 674,35 " style="fill:white; stroke-width:1; stroke:black; " description="&lt;b&gt;ctg1_4001&lt;/b&gt;&lt;br&gt;ctg1 4001&lt;br&gt;Location: 4304611 - 4306597" locus_tag="ctg1_4001" class="clusterblast-orf" id="knownclusterblast-19_q20_0_all"  />
<polygon points="736,35 741,30 761,30 761,40 741,40 736,35 " style="fill:white; stroke-width:1; stroke:black; " description="&lt;b&gt;ctg1_4002&lt;/b&gt;&lt;br&gt;ctg1 4002&lt;br&gt;Location: 4306869 - 4307799" locus_tag="ctg1_4002" class="clusterblast-orf" id="knownclusterblast-19_q21_0_all"  />
<polygon points="761,35 766,30 780,30 780,40 766,40 761,35 " style="fill:white; stroke-width:1; stroke:black; " description="&lt;b&gt;ctg1_4003&lt;/b&gt;&lt;br&gt;ctg1 4003&lt;br&gt;Location: 4307782 - 4308478" locus_tag="ctg1_4003" class="clusterblast-orf" id="knownclusterblast-19_q22_0_all"  />
</g>
</svg>
