<svg xmlns="http://www.w3.org/2000/svg" xmlns:xlink="http://www.w3.org/1999/xlink" version="1.1" x="0" y="0" height="50" width="800" viewBox="0 0 800 50" preserveAspectRatio="none"  >
<g label="Query sequence" class="clusterblast-cluster"  >
<text x="5" y="20" class="clusterblast-acc"  >
Query sequence</text>
<line x1="10" y1="35" x2="778.0" y2="35" style="stroke-width:1; stroke:grey; "  />
<polygon points="0,40 66,40 71,35 66,30 0,30 0,40 " style="fill:white; stroke-width:1; stroke:black; " description="&lt;b&gt;ctg1_110&lt;/b&gt;&lt;br&gt;ctg1 110&lt;br&gt;Location: 125694 - 127587" locus_tag="ctg1_110" class="clusterblast-orf" id="knownclusterblast-2_q0_0_all"  />
<polygon points="84,40 133,40 138,35 133,30 84,30 84,40 " style="fill:white; stroke-width:1; stroke:black; " description="&lt;b&gt;ctg1_111&lt;/b&gt;&lt;br&gt;ctg1 111&lt;br&gt;Location: 127911 - 129336" locus_tag="ctg1_111" class="clusterblast-orf" id="knownclusterblast-2_q1_0_all"  />
<polygon points="140,35 145,30 210,30 210,40 145,40 140,35 " style="fill:white; stroke-width:1; stroke:black; " description="&lt;b&gt;ctg1_112&lt;/b&gt;&lt;br&gt;ctg1 112&lt;br&gt;Location: 129406 - 131260" locus_tag="ctg1_112" class="clusterblast-orf" id="knownclusterblast-2_q2_0_all"  />
<polygon points="224,40 317,40 322,35 317,30 224,30 224,40 " style="fill:white; stroke-width:1; stroke:black; " description="&lt;b&gt;ctg1_113&lt;/b&gt;&lt;br&gt;ctg1 113&lt;br&gt;Location: 131614 - 134212" locus_tag="ctg1_113" class="clusterblast-orf" id="knownclusterblast-2_q3_0_all"  />
<polygon points="329,40 338,40 343,35 338,30 329,30 329,40 " style="fill:white; stroke-width:1; stroke:black; " description="&lt;b&gt;ctg1_114&lt;/b&gt;&lt;br&gt;ctg1 114&lt;br&gt;Location: 134387 - 134750" locus_tag="ctg1_114" class="clusterblast-orf" id="knownclusterblast-2_q4_0_all"  />
<polygon points="344,35 349,30 374,30 374,40 349,40 344,35 " style="fill:white; stroke-width:1; stroke:black; " description="&lt;b&gt;ctg1_115&lt;/b&gt;&lt;br&gt;ctg1 115&lt;br&gt;Location: 134787 - 135582" locus_tag="ctg1_115" class="clusterblast-orf" id="knownclusterblast-2_q5_0_all"  />
<polygon points="375,35 380,30 407,30 407,40 380,40 375,35 " style="fill:white; stroke-width:1; stroke:black; " description="&lt;b&gt;ctg1_116&lt;/b&gt;&lt;br&gt;ctg1 116&lt;br&gt;Location: 135597 - 136464" locus_tag="ctg1_116" class="clusterblast-orf" id="knownclusterblast-2_q6_0_all"  />
<polygon points="411,35 416,30 423,30 423,40 416,40 411,35 " style="fill:white; stroke-width:1; stroke:black; " description="&lt;b&gt;ctg1_117&lt;/b&gt;&lt;br&gt;ctg1 117&lt;br&gt;Location: 136569 - 136878" locus_tag="ctg1_117" class="clusterblast-orf" id="knownclusterblast-2_q7_0_all"  />
<polygon points="431,40 484,40 489,35 484,30 431,30 431,40 " style="fill:white; stroke-width:1; stroke:black; " description="&lt;b&gt;ctg1_118&lt;/b&gt;&lt;br&gt;ctg1 118&lt;br&gt;Location: 137082 - 138633" locus_tag="ctg1_118" class="clusterblast-orf" id="knownclusterblast-2_q8_0_all"  />
<polygon points="497,35 502,30 587,30 587,40 502,40 497,35 " style="fill:white; stroke-width:1; stroke:black; " description="&lt;b&gt;ctg1_119&lt;/b&gt;&lt;br&gt;ctg1 119&lt;br&gt;Location: 138834 - 141225" locus_tag="ctg1_119" class="clusterblast-orf" id="knownclusterblast-2_q9_0_all"  />
<polygon points="595,40 611,40 616,35 611,30 595,30 595,40 " style="fill:white; stroke-width:1; stroke:black; " description="&lt;b&gt;ctg1_120&lt;/b&gt;&lt;br&gt;ctg1 120&lt;br&gt;Location: 141430 - 141967" locus_tag="ctg1_120" class="clusterblast-orf" id="knownclusterblast-2_q10_0_all"  />
<polygon points="617,35 622,30 642,30 642,40 622,40 617,35 " style="fill:white; stroke-width:1; stroke:black; " description="&lt;b&gt;ctg1_121&lt;/b&gt;&lt;br&gt;ctg1 121&lt;br&gt;Location: 142007 - 142670" locus_tag="ctg1_121" class="clusterblast-orf" id="knownclusterblast-2_q11_0_all"  />
<polygon points="646,40 676,40 681,35 676,30 646,30 646,40 " style="fill:white; stroke-width:1; stroke:black; " description="&lt;b&gt;ctg1_122&lt;/b&gt;&lt;br&gt;ctg1 122&lt;br&gt;Location: 142778 - 143705" locus_tag="ctg1_122" class="clusterblast-orf" id="knownclusterblast-2_q12_0_all"  />
<polygon points="681,40 705,40 710,35 705,30 681,30 681,40 " style="fill:white; stroke-width:1; stroke:black; " description="&lt;b&gt;ctg1_123&lt;/b&gt;&lt;br&gt;ctg1 123&lt;br&gt;Location: 143701 - 144472" locus_tag="ctg1_123" class="clusterblast-orf" id="knownclusterblast-2_q13_0_all"  />
<polygon points="714,40 726,40 731,35 726,30 714,30 714,40 " style="fill:white; stroke-width:1; stroke:black; " description="&lt;b&gt;ctg1_124&lt;/b&gt;&lt;br&gt;ctg1 124&lt;br&gt;Location: 144576 - 145017" locus_tag="ctg1_124" class="clusterblast-orf" id="knownclusterblast-2_q14_0_all"  />
<polygon points="733,40 775,40 780,35 775,30 733,30 733,40 " style="fill:white; stroke-width:1; stroke:black; " description="&lt;b&gt;ctg1_125&lt;/b&gt;&lt;br&gt;ctg1 125&lt;br&gt;Location: 145080 - 146310" locus_tag="ctg1_125" class="clusterblast-orf" id="knownclusterblast-2_q15_0_all"  />
</g>
</svg>
