<svg xmlns="http://www.w3.org/2000/svg" xmlns:xlink="http://www.w3.org/1999/xlink" version="1.1" x="0" y="0" height="230" width="800" viewBox="0 0 800 230" preserveAspectRatio="none"  >
<g label="Query sequence" class="clusterblast-cluster"  >
<text x="5" y="20" class="clusterblast-acc"  >
Query sequence</text>
<line x1="10" y1="35" x2="778.0" y2="35" style="stroke-width:1; stroke:grey; "  />
<polygon points="0,40 11,40 16,35 11,30 0,30 0,40 " style="fill:white; stroke-width:1; stroke:black; " description="&lt;b&gt;ctg1_2392&lt;/b&gt;&lt;br&gt;ctg1 2392&lt;br&gt;Location: 2545772 - 2546669" locus_tag="ctg1_2392" class="clusterblast-orf" id="dummy-13_q0_0_all"  />
<polygon points="17,40 38,40 43,35 38,30 17,30 17,40 " style="fill:white; stroke-width:1; stroke:black; " description="&lt;b&gt;ctg1_2393&lt;/b&gt;&lt;br&gt;ctg1 2393&lt;br&gt;Location: 2546672 - 2548097" locus_tag="ctg1_2393" class="clusterblast-orf" id="dummy-13_q1_0_all"  />
<polygon points="43,40 63,40 68,35 63,30 43,30 43,40 " style="fill:white; stroke-width:1; stroke:black; " description="&lt;b&gt;ctg1_2394&lt;/b&gt;&lt;br&gt;ctg1 2394&lt;br&gt;Location: 2548101 - 2549406" locus_tag="ctg1_2394" class="clusterblast-orf" id="dummy-13_q2_0_all"  />
<polygon points="72,35 77,30 89,30 89,40 77,40 72,35 " style="fill:white; stroke-width:1; stroke:black; " description="&lt;b&gt;ctg1_2395&lt;/b&gt;&lt;br&gt;ctg1 2395&lt;br&gt;Location: 2549645 - 2550545" locus_tag="ctg1_2395" class="clusterblast-orf" id="dummy-13_q3_0_all"  />
<polygon points="91,35 96,30 102,30 102,40 96,40 91,35 " style="fill:white; stroke-width:1; stroke:black; " description="&lt;b&gt;ctg1_2396&lt;/b&gt;&lt;br&gt;ctg1 2396&lt;br&gt;Location: 2550640 - 2551216" locus_tag="ctg1_2396" class="clusterblast-orf" id="dummy-13_q4_0_all"  />
<polygon points="103,35 108,30 111,30 111,40 108,40 103,35 " style="fill:white; stroke-width:1; stroke:black; " description="&lt;b&gt;ctg1_2397&lt;/b&gt;&lt;br&gt;ctg1 2397&lt;br&gt;Location: 2551276 - 2551726" locus_tag="ctg1_2397" class="clusterblast-orf" id="dummy-13_q5_0_all"  />
<polygon points="111,35 116,30 119,30 119,40 116,40 111,35 " style="fill:white; stroke-width:1; stroke:black; " description="&lt;b&gt;ctg1_2398&lt;/b&gt;&lt;br&gt;ctg1 2398&lt;br&gt;Location: 2551712 - 2552138" locus_tag="ctg1_2398" class="clusterblast-orf" id="dummy-13_q6_0_all"  />
<polygon points="123,40 134,40 139,35 134,30 123,30 123,40 " style="fill:white; stroke-width:1; stroke:black; " description="&lt;b&gt;ctg1_2399&lt;/b&gt;&lt;br&gt;ctg1 2399&lt;br&gt;Location: 2552351 - 2553221" locus_tag="ctg1_2399" class="clusterblast-orf" id="dummy-13_q7_0_all"  />
<polygon points="139,40 151,40 156,35 151,30 139,30 139,40 " style="fill:white; stroke-width:1; stroke:black; " description="&lt;b&gt;ctg1_2400&lt;/b&gt;&lt;br&gt;ctg1 2400&lt;br&gt;Location: 2553224 - 2554124" locus_tag="ctg1_2400" class="clusterblast-orf" id="dummy-13_q8_0_all"  />
<polygon points="156,35 161,30 176,30 176,40 161,40 156,35 " style="fill:#d81515; stroke-width:1; stroke:black; " description="&lt;b&gt;ctg1_2401&lt;/b&gt;&lt;br&gt;ctg1 2401&lt;br&gt;Location: 2554129 - 2555182" locus_tag="ctg1_2401" class="clusterblast-orf" id="dummy-13_q9_0_all"  />
<polygon points="177,35 182,30 186,30 186,40 182,40 177,35 " style="fill:#77d815; stroke-width:1; stroke:black; " description="&lt;b&gt;ctg1_2402&lt;/b&gt;&lt;br&gt;ctg1 2402&lt;br&gt;Location: 2555227 - 2555728" locus_tag="ctg1_2402" class="clusterblast-orf" id="dummy-13_q10_0_all"  />
<polygon points="186,35 191,30 199,30 199,40 191,40 186,35 " style="fill:#15d8d8; stroke-width:1; stroke:black; " description="&lt;b&gt;ctg1_2403&lt;/b&gt;&lt;br&gt;ctg1 2403&lt;br&gt;Location: 2555740 - 2556400" locus_tag="ctg1_2403" class="clusterblast-orf" id="dummy-13_q11_0_all"  />
<polygon points="199,35 204,30 215,30 215,40 204,40 199,35 " style="fill:#7715d8; stroke-width:1; stroke:black; " description="&lt;b&gt;ctg1_2404&lt;/b&gt;&lt;br&gt;ctg1 2404&lt;br&gt;Location: 2556409 - 2557297" locus_tag="ctg1_2404" class="clusterblast-orf" id="dummy-13_q12_0_all"  />
<polygon points="216,35 221,30 241,30 241,40 221,40 216,35 " style="fill:#d85e15; stroke-width:1; stroke:black; " description="&lt;b&gt;ctg1_2405&lt;/b&gt;&lt;br&gt;ctg1 2405&lt;br&gt;Location: 2557317 - 2558679" locus_tag="ctg1_2405" class="clusterblast-orf" id="dummy-13_q13_0_all"  />
<polygon points="245,40 262,40 267,35 262,30 245,30 245,40 " style="fill:white; stroke-width:1; stroke:black; " description="&lt;b&gt;ctg1_2406&lt;/b&gt;&lt;br&gt;ctg1 2406&lt;br&gt;Location: 2558857 - 2560066" locus_tag="ctg1_2406" class="clusterblast-orf" id="dummy-13_q14_0_all"  />
<polygon points="273,40 278,40 283,35 278,30 273,30 273,40 " style="fill:white; stroke-width:1; stroke:black; " description="&lt;b&gt;ctg1_2407&lt;/b&gt;&lt;br&gt;ctg1 2407&lt;br&gt;Location: 2560370 - 2560898" locus_tag="ctg1_2407" class="clusterblast-orf" id="dummy-13_q15_0_all"  />
<polygon points="292,40 296,35 292,30 292,40 " style="fill:white; stroke-width:1; stroke:black; " description="&lt;b&gt;ctg1_2408&lt;/b&gt;&lt;br&gt;ctg1 2408&lt;br&gt;Location: 2561370 - 2561613" locus_tag="ctg1_2408" class="clusterblast-orf" id="dummy-13_q16_0_all"  />
<polygon points="296,40 298,40 303,35 298,30 296,30 296,40 " style="fill:white; stroke-width:1; stroke:black; " description="&lt;b&gt;ctg1_2409&lt;/b&gt;&lt;br&gt;ctg1 2409&lt;br&gt;Location: 2561624 - 2561993" locus_tag="ctg1_2409" class="clusterblast-orf" id="dummy-13_q17_0_all"  />
<polygon points="306,40 308,40 313,35 308,30 306,30 306,40 " style="fill:white; stroke-width:1; stroke:black; " description="&lt;b&gt;ctg1_2410&lt;/b&gt;&lt;br&gt;ctg1 2410&lt;br&gt;Location: 2562110 - 2562527" locus_tag="ctg1_2410" class="clusterblast-orf" id="dummy-13_q18_0_all"  />
<polygon points="313,40 319,40 324,35 319,30 313,30 313,40 " style="fill:white; stroke-width:1; stroke:black; " description="&lt;b&gt;ctg1_2411&lt;/b&gt;&lt;br&gt;ctg1 2411&lt;br&gt;Location: 2562523 - 2563117" locus_tag="ctg1_2411" class="clusterblast-orf" id="dummy-13_q19_0_all"  />
<polygon points="333,40 335,40 340,35 335,30 333,30 333,40 " style="fill:white; stroke-width:1; stroke:black; " description="&lt;b&gt;ctg1_2412&lt;/b&gt;&lt;br&gt;ctg1 2412&lt;br&gt;Location: 2563591 - 2563969" locus_tag="ctg1_2412" class="clusterblast-orf" id="dummy-13_q20_0_all"  />
<polygon points="341,40 343,40 348,35 343,30 341,30 341,40 " style="fill:white; stroke-width:1; stroke:black; " description="&lt;b&gt;ctg1_2413&lt;/b&gt;&lt;br&gt;ctg1 2413&lt;br&gt;Location: 2563979 - 2564372" locus_tag="ctg1_2413" class="clusterblast-orf" id="dummy-13_q21_0_all"  />
<polygon points="351,40 361,40 366,35 361,30 351,30 351,40 " style="fill:white; stroke-width:1; stroke:black; " description="&lt;b&gt;ctg1_2414&lt;/b&gt;&lt;br&gt;ctg1 2414&lt;br&gt;Location: 2564522 - 2565332" locus_tag="ctg1_2414" class="clusterblast-orf" id="dummy-13_q22_0_all"  />
<polygon points="369,35 374,30 395,30 395,40 374,40 369,35 " style="fill:#2ed815; stroke-width:1; stroke:black; " description="&lt;b&gt;ctg1_2415&lt;/b&gt;&lt;br&gt;ctg1 2415&lt;br&gt;Location: 2565480 - 2566884" locus_tag="ctg1_2415" class="clusterblast-orf" id="dummy-13_q23_0_all"  />
<polygon points="395,35 400,30 418,30 418,40 400,40 395,35 " style="fill:#158fd8; stroke-width:1; stroke:black; " description="&lt;b&gt;ctg1_2416&lt;/b&gt;&lt;br&gt;ctg1 2416&lt;br&gt;Location: 2566880 - 2568107" locus_tag="ctg1_2416" class="clusterblast-orf" id="dummy-13_q24_0_all"  />
<polygon points="422,35 427,30 444,30 444,40 427,40 422,35 " style="fill:#c015d8; stroke-width:1; stroke:black; " description="&lt;b&gt;ctg1_2417&lt;/b&gt;&lt;br&gt;ctg1 2417&lt;br&gt;Location: 2568323 - 2569511" locus_tag="ctg1_2417" class="clusterblast-orf" id="dummy-13_q25_0_all"  />
<polygon points="444,35 449,30 460,30 460,40 449,40 444,35 " style="fill:#d8a715; stroke-width:1; stroke:black; " description="&lt;b&gt;ctg1_2418&lt;/b&gt;&lt;br&gt;ctg1 2418&lt;br&gt;Location: 2569500 - 2570337" locus_tag="ctg1_2418" class="clusterblast-orf" id="dummy-13_q26_0_all"  />
<polygon points="460,35 465,30 486,30 486,40 465,40 460,35 " style="fill:#15d846; stroke-width:1; stroke:black; " description="&lt;b&gt;ctg1_2419&lt;/b&gt;&lt;br&gt;ctg1 2419&lt;br&gt;Location: 2570347 - 2571751" locus_tag="ctg1_2419" class="clusterblast-orf" id="dummy-13_q27_0_all"  />
<polygon points="486,35 491,30 492,30 492,40 491,40 486,35 " style="fill:#1546d8; stroke-width:1; stroke:black; " description="&lt;b&gt;ctg1_2420&lt;/b&gt;&lt;br&gt;ctg1 2420&lt;br&gt;Location: 2571762 - 2572050" locus_tag="ctg1_2420" class="clusterblast-orf" id="dummy-13_q28_0_all"  />
<polygon points="494,35 499,30 499,30 499,40 499,40 494,35 " style="fill:#77d815; stroke-width:1; stroke:black; " description="&lt;b&gt;ctg1_2421&lt;/b&gt;&lt;br&gt;ctg1 2421&lt;br&gt;Location: 2572156 - 2572450" locus_tag="ctg1_2421" class="clusterblast-orf" id="dummy-13_q29_0_all"  />
<polygon points="500,35 505,30 519,30 519,40 505,40 500,35 " style="fill:#d815a7; stroke-width:1; stroke:black; " description="&lt;b&gt;ctg1_2422&lt;/b&gt;&lt;br&gt;ctg1 2422&lt;br&gt;Location: 2572488 - 2573505" locus_tag="ctg1_2422" class="clusterblast-orf" id="dummy-13_q30_0_all"  />
<polygon points="519,35 524,30 534,30 534,40 524,40 519,35 " style="fill:#c0d815; stroke-width:1; stroke:black; " description="&lt;b&gt;ctg1_2423&lt;/b&gt;&lt;br&gt;ctg1 2423&lt;br&gt;Location: 2573501 - 2574305" locus_tag="ctg1_2423" class="clusterblast-orf" id="dummy-13_q31_0_all"  />
<polygon points="534,35 539,30 547,30 547,40 539,40 534,35 " style="fill:#15d88f; stroke-width:1; stroke:black; " description="&lt;b&gt;ctg1_2424&lt;/b&gt;&lt;br&gt;ctg1 2424&lt;br&gt;Location: 2574301 - 2575003" locus_tag="ctg1_2424" class="clusterblast-orf" id="dummy-13_q32_0_all"  />
<polygon points="547,35 552,30 555,30 555,40 552,40 547,35 " style="fill:#2e15d8; stroke-width:1; stroke:black; " description="&lt;b&gt;ctg1_2425&lt;/b&gt;&lt;br&gt;ctg1 2425&lt;br&gt;Location: 2574977 - 2575457" locus_tag="ctg1_2425" class="clusterblast-orf" id="dummy-13_q33_0_all"  />
<polygon points="556,35 561,30 562,30 562,40 561,40 556,35 " style="fill:#d8155e; stroke-width:1; stroke:black; " description="&lt;b&gt;ctg1_2426&lt;/b&gt;&lt;br&gt;ctg1 2426&lt;br&gt;Location: 2575469 - 2575805" locus_tag="ctg1_2426" class="clusterblast-orf" id="dummy-13_q34_0_all"  />
<polygon points="567,35 572,30 610,30 610,40 572,40 567,35 " style="fill:#d815a7; stroke-width:1; stroke:black; " description="&lt;b&gt;ctg1_2427&lt;/b&gt;&lt;br&gt;ctg1 2427&lt;br&gt;Location: 2576097 - 2578377" locus_tag="ctg1_2427" class="clusterblast-orf" id="dummy-13_q35_0_all"  />
<polygon points="616,40 628,40 633,35 628,30 616,30 616,40 " style="fill:white; stroke-width:1; stroke:black; " description="&lt;b&gt;ctg1_2428&lt;/b&gt;&lt;br&gt;ctg1 2428&lt;br&gt;Location: 2578665 - 2579616" locus_tag="ctg1_2428" class="clusterblast-orf" id="dummy-13_q36_0_all"  />
<polygon points="634,40 666,40 671,35 666,30 634,30 634,40 " style="fill:white; stroke-width:1; stroke:black; " description="&lt;b&gt;ctg1_2429&lt;/b&gt;&lt;br&gt;ctg1 2429&lt;br&gt;Location: 2579635 - 2581639" locus_tag="ctg1_2429" class="clusterblast-orf" id="dummy-13_q37_0_all"  />
<polygon points="673,35 678,30 693,30 693,40 678,40 673,35 " style="fill:white; stroke-width:1; stroke:black; " description="&lt;b&gt;ctg1_2430&lt;/b&gt;&lt;br&gt;ctg1 2430&lt;br&gt;Location: 2581733 - 2582777" locus_tag="ctg1_2430" class="clusterblast-orf" id="dummy-13_q38_0_all"  />
<polygon points="695,35 700,30 706,30 706,40 700,40 695,35 " style="fill:white; stroke-width:1; stroke:black; " description="&lt;b&gt;ctg1_2431&lt;/b&gt;&lt;br&gt;ctg1 2431&lt;br&gt;Location: 2582902 - 2583478" locus_tag="ctg1_2431" class="clusterblast-orf" id="dummy-13_q39_0_all"  />
<polygon points="707,35 712,30 744,30 744,40 712,40 707,35 " style="fill:white; stroke-width:1; stroke:black; " description="&lt;b&gt;ctg1_2432&lt;/b&gt;&lt;br&gt;ctg1 2432&lt;br&gt;Location: 2583545 - 2585525" locus_tag="ctg1_2432" class="clusterblast-orf" id="dummy-13_q40_0_all"  />
<polygon points="748,40 775,40 780,35 775,30 748,30 748,40 " style="fill:white; stroke-width:1; stroke:black; " description="&lt;b&gt;ctg1_2433&lt;/b&gt;&lt;br&gt;ctg1 2433&lt;br&gt;Location: 2585730 - 2587431" locus_tag="ctg1_2433" class="clusterblast-orf" id="dummy-13_q41_0_all"  />
</g>
<g label="MGC0000003" description="MGC0000003_c1: Ethanolamine degradation S. typhimurium (94% of genes show similarity), EUT" class="clusterblast-cluster"  >
<text x="5" y="70" class="clusterblast-acc"  >
MGC0000003_c1: Ethanolamine degradation S. typhimurium (94% of genes show similarity), EUT</text>
<line x1="10" y1="85" x2="778.0" y2="85" style="stroke-width:1; stroke:grey; "  />
</g>
<g id="a13_000"  >
<polygon points="219,85 224,80 239,80 239,90 224,90 219,85 " style="fill:#d81515; stroke-width:1; stroke:black; " description="&lt;b&gt;STM2454&lt;/b&gt;&lt;br&gt;HTH-type transcriptional regulator EutR&lt;br&gt;Location: 102 - 1155&lt;br&gt;&lt;br&gt;&lt;b&gt;BlastP hit with ctg1_2401&lt;/b&gt;&lt;br&gt;Percentage identity: 92&lt;br&gt;Percentage coverage: 100&lt;br&gt;BLAST bit score: 660&lt;br&gt;E-value: 2.44e-244" locus_tag="STM2454" class="clusterblast-orf" id="dummy-13_h13_1_0"  />
</g>
<g id="a13_001"  >
<polygon points="240,85 245,80 249,80 249,90 245,90 240,85 " style="fill:#77d815; stroke-width:1; stroke:black; " description="&lt;b&gt;STM2455&lt;/b&gt;&lt;br&gt;carboxysome structural protein EutK&lt;br&gt;Location: 1202 - 1697&lt;br&gt;&lt;br&gt;&lt;b&gt;BlastP hit with ctg1_2402&lt;/b&gt;&lt;br&gt;Percentage identity: 81&lt;br&gt;Percentage coverage: 99&lt;br&gt;BLAST bit score: 246&lt;br&gt;E-value: 8.52e-87&lt;br&gt;&lt;br&gt;&lt;b&gt;BlastP hit with ctg1_2421&lt;/b&gt;&lt;br&gt;Percentage identity: 48&lt;br&gt;Percentage coverage: 86&lt;br&gt;BLAST bit score: 72&lt;br&gt;E-value: 2.04e-19" locus_tag="STM2455" class="clusterblast-orf" id="dummy-13_h13_1_1"  />
</g>
<g id="a13_002"  >
<polygon points="249,85 254,80 262,80 262,90 254,90 249,85 " style="fill:#15d8d8; stroke-width:1; stroke:black; " description="&lt;b&gt;STM2456&lt;/b&gt;&lt;br&gt;carboxysome structural protein EutL&lt;br&gt;Location: 1709 - 2369&lt;br&gt;&lt;br&gt;&lt;b&gt;BlastP hit with ctg1_2403&lt;/b&gt;&lt;br&gt;Percentage identity: 94&lt;br&gt;Percentage coverage: 100&lt;br&gt;BLAST bit score: 397&lt;br&gt;E-value: 1.27e-144" locus_tag="STM2456" class="clusterblast-orf" id="dummy-13_h13_1_2"  />
</g>
<g id="a13_003"  >
<polygon points="262,85 267,80 279,80 279,90 267,90 262,85 " style="fill:#7715d8; stroke-width:1; stroke:black; " description="&lt;b&gt;STM2457&lt;/b&gt;&lt;br&gt;ethanolamine ammonia-lyase small subunit EutC&lt;br&gt;Location: 2378 - 3275&lt;br&gt;&lt;br&gt;&lt;b&gt;BlastP hit with ctg1_2404&lt;/b&gt;&lt;br&gt;Percentage identity: 91&lt;br&gt;Percentage coverage: 101&lt;br&gt;BLAST bit score: 518&lt;br&gt;E-value: 4.69e-190" locus_tag="STM2457" class="clusterblast-orf" id="dummy-13_h13_1_3"  />
</g>
<g id="a13_004"  >
<polygon points="279,85 284,80 304,80 304,90 284,90 279,85 " style="fill:#d85e15; stroke-width:1; stroke:black; " description="&lt;b&gt;STM2458&lt;/b&gt;&lt;br&gt;ethanolamine ammonia-lyase large subunit EutB&lt;br&gt;Location: 3293 - 4655&lt;br&gt;&lt;br&gt;&lt;b&gt;BlastP hit with ctg1_2405&lt;/b&gt;&lt;br&gt;Percentage identity: 98&lt;br&gt;Percentage coverage: 100&lt;br&gt;BLAST bit score: 886&lt;br&gt;E-value: 0.0" locus_tag="STM2458" class="clusterblast-orf" id="dummy-13_h13_1_4"  />
</g>
<g id="a13_005"  >
<polygon points="305,85 310,80 331,80 331,90 310,90 305,85 " style="fill:#2ed815; stroke-width:1; stroke:black; " description="&lt;b&gt;STM2459&lt;/b&gt;&lt;br&gt;ethanolamine utilization protein EutA&lt;br&gt;Location: 4666 - 6070&lt;br&gt;&lt;br&gt;&lt;b&gt;BlastP hit with ctg1_2415&lt;/b&gt;&lt;br&gt;Percentage identity: 90&lt;br&gt;Percentage coverage: 100&lt;br&gt;BLAST bit score: 825&lt;br&gt;E-value: 9.18e-306" locus_tag="STM2459" class="clusterblast-orf" id="dummy-13_h13_1_5"  />
</g>
<g id="a13_006"  >
<polygon points="331,85 336,80 354,80 354,90 336,90 331,85 " style="fill:#158fd8; stroke-width:1; stroke:black; " description="&lt;b&gt;STM2460&lt;/b&gt;&lt;br&gt;ethanolamine transporter EutH&lt;br&gt;Location: 6066 - 7293&lt;br&gt;&lt;br&gt;&lt;b&gt;BlastP hit with ctg1_2416&lt;/b&gt;&lt;br&gt;Percentage identity: 97&lt;br&gt;Percentage coverage: 100&lt;br&gt;BLAST bit score: 750&lt;br&gt;E-value: 4.83e-278" locus_tag="STM2460" class="clusterblast-orf" id="dummy-13_h13_1_6"  />
</g>
<g id="a13_007"  >
<polygon points="356,85 361,80 378,80 378,90 361,90 356,85 " style="fill:#c015d8; stroke-width:1; stroke:black; " description="&lt;b&gt;STM2461&lt;/b&gt;&lt;br&gt;ethanol dehydrogenase EutG&lt;br&gt;Location: 7412 - 8600&lt;br&gt;&lt;br&gt;&lt;b&gt;BlastP hit with ctg1_2417&lt;/b&gt;&lt;br&gt;Percentage identity: 87&lt;br&gt;Percentage coverage: 100&lt;br&gt;BLAST bit score: 658&lt;br&gt;E-value: 3.2e-242" locus_tag="STM2461" class="clusterblast-orf" id="dummy-13_h13_1_7"  />
</g>
<g id="a13_008"  >
<polygon points="378,85 383,80 394,80 394,90 383,90 378,85 " style="fill:#d8a715; stroke-width:1; stroke:black; " description="&lt;b&gt;STM2462&lt;/b&gt;&lt;br&gt;ethanolamine utilization protein EutJ&lt;br&gt;Location: 8589 - 9429&lt;br&gt;&lt;br&gt;&lt;b&gt;BlastP hit with ctg1_2418&lt;/b&gt;&lt;br&gt;Percentage identity: 89&lt;br&gt;Percentage coverage: 100&lt;br&gt;BLAST bit score: 504&lt;br&gt;E-value: 2.55e-185" locus_tag="STM2462" class="clusterblast-orf" id="dummy-13_h13_1_8"  />
</g>
<g id="a13_009"  >
<polygon points="394,85 399,80 420,80 420,90 399,90 394,85 " style="fill:#15d846; stroke-width:1; stroke:black; " description="&lt;b&gt;STM2463&lt;/b&gt;&lt;br&gt;aldehyde oxidoreductase EutE&lt;br&gt;Location: 9439 - 10843&lt;br&gt;&lt;br&gt;&lt;b&gt;BlastP hit with ctg1_2419&lt;/b&gt;&lt;br&gt;Percentage identity: 94&lt;br&gt;Percentage coverage: 100&lt;br&gt;BLAST bit score: 829&lt;br&gt;E-value: 1.94e-307" locus_tag="STM2463" class="clusterblast-orf" id="dummy-13_h13_1_9"  />
</g>
<g id="a13_0010"  >
<polygon points="420,85 425,80 426,80 426,90 425,90 420,85 " style="fill:#1546d8; stroke-width:1; stroke:black; " description="&lt;b&gt;STM2464&lt;/b&gt;&lt;br&gt;microcompartment shell protein EutN&lt;br&gt;Location: 10854 - 11142&lt;br&gt;&lt;br&gt;&lt;b&gt;BlastP hit with ctg1_2420&lt;/b&gt;&lt;br&gt;Percentage identity: 92&lt;br&gt;Percentage coverage: 100&lt;br&gt;BLAST bit score: 181&lt;br&gt;E-value: 4.16e-63" locus_tag="STM2464" class="clusterblast-orf" id="dummy-13_h13_1_10"  />
</g>
<g id="a13_0011"  >
<polygon points="428,85 433,80 433,80 433,90 433,90 428,85 " style="fill:#77d815; stroke-width:1; stroke:black; " description="&lt;b&gt;STM2465&lt;/b&gt;&lt;br&gt;carboxysome structural protein EutM&lt;br&gt;Location: 11254 - 11545&lt;br&gt;&lt;br&gt;&lt;b&gt;BlastP hit with ctg1_2402&lt;/b&gt;&lt;br&gt;Percentage identity: 48&lt;br&gt;Percentage coverage: 50&lt;br&gt;BLAST bit score: 75&lt;br&gt;E-value: 4.5e-20&lt;br&gt;&lt;br&gt;&lt;b&gt;BlastP hit with ctg1_2421&lt;/b&gt;&lt;br&gt;Percentage identity: 97&lt;br&gt;Percentage coverage: 98&lt;br&gt;BLAST bit score: 171&lt;br&gt;E-value: 2.14e-59" locus_tag="STM2465" class="clusterblast-orf" id="dummy-13_h13_1_11"  />
</g>
<g id="a13_0012"  >
<polygon points="434,85 439,80 453,80 453,90 439,90 434,85 " style="fill:#d815a7; stroke-width:1; stroke:black; " description="&lt;b&gt;STM2466&lt;/b&gt;&lt;br&gt;phosphotransacetylase EutD&lt;br&gt;Location: 11585 - 12602&lt;br&gt;&lt;br&gt;&lt;b&gt;BlastP hit with ctg1_2422&lt;/b&gt;&lt;br&gt;Percentage identity: 89&lt;br&gt;Percentage coverage: 100&lt;br&gt;BLAST bit score: 585&lt;br&gt;E-value: 3.51e-215&lt;br&gt;&lt;br&gt;&lt;b&gt;BlastP hit with ctg1_2427&lt;/b&gt;&lt;br&gt;Percentage identity: 35&lt;br&gt;Percentage coverage: 43&lt;br&gt;BLAST bit score: 163&lt;br&gt;E-value: 1.94e-46" locus_tag="STM2466" class="clusterblast-orf" id="dummy-13_h13_1_12"  />
</g>
<g id="a13_0013"  >
<polygon points="453,85 458,80 468,80 468,90 458,90 453,85 " style="fill:#c0d815; stroke-width:1; stroke:black; " description="&lt;b&gt;STM2467&lt;/b&gt;&lt;br&gt;cobalamin adenosyltransferase EutT&lt;br&gt;Location: 12598 - 13402&lt;br&gt;&lt;br&gt;&lt;b&gt;BlastP hit with ctg1_2423&lt;/b&gt;&lt;br&gt;Percentage identity: 89&lt;br&gt;Percentage coverage: 99&lt;br&gt;BLAST bit score: 473&lt;br&gt;E-value: 4.7e-173" locus_tag="STM2467" class="clusterblast-orf" id="dummy-13_h13_1_13"  />
</g>
<g id="a13_0014"  >
<polygon points="468,85 473,80 481,80 481,90 473,90 468,85 " style="fill:#15d88f; stroke-width:1; stroke:black; " description="&lt;b&gt;STM2468&lt;/b&gt;&lt;br&gt;ethanolamine utilization protein EutQ&lt;br&gt;Location: 13398 - 14088&lt;br&gt;&lt;br&gt;&lt;b&gt;BlastP hit with ctg1_2424&lt;/b&gt;&lt;br&gt;Percentage identity: 88&lt;br&gt;Percentage coverage: 100&lt;br&gt;BLAST bit score: 403&lt;br&gt;E-value: 1.17e-146" locus_tag="STM2468" class="clusterblast-orf" id="dummy-13_h13_1_14"  />
</g>
<g id="a13_0015"  >
<polygon points="481,85 486,80 490,80 490,90 486,90 481,85 " style="fill:#2e15d8; stroke-width:1; stroke:black; " description="&lt;b&gt;STM2469&lt;/b&gt;&lt;br&gt;ethanolamine utilization protein EutP&lt;br&gt;Location: 14065 - 14545&lt;br&gt;&lt;br&gt;&lt;b&gt;BlastP hit with ctg1_2425&lt;/b&gt;&lt;br&gt;Percentage identity: 85&lt;br&gt;Percentage coverage: 100&lt;br&gt;BLAST bit score: 273&lt;br&gt;E-value: 8.25e-98" locus_tag="STM2469" class="clusterblast-orf" id="dummy-13_h13_1_15"  />
</g>
<g id="a13_0016"  >
<polygon points="490,85 495,80 496,80 496,90 495,90 490,85 " style="fill:#d8155e; stroke-width:1; stroke:black; " description="&lt;b&gt;STM2470&lt;/b&gt;&lt;br&gt;carboxysome structural protein EutS&lt;br&gt;Location: 14557 - 14893&lt;br&gt;&lt;br&gt;&lt;b&gt;BlastP hit with ctg1_2426&lt;/b&gt;&lt;br&gt;Percentage identity: 95&lt;br&gt;Percentage coverage: 100&lt;br&gt;BLAST bit score: 211&lt;br&gt;E-value: 1.69e-74" locus_tag="STM2470" class="clusterblast-orf" id="dummy-13_h13_1_16"  />
</g>
<g id="a13_0017"  >
<polygon points="505,85 510,80 514,80 514,90 510,90 505,85 " style="fill:white; stroke-width:1; stroke:black; " description="&lt;b&gt;STM2471&lt;/b&gt;&lt;br&gt;insertion sequence element IS200 transposase&lt;br&gt;Location: 15373 - 15832" locus_tag="STM2471" class="clusterblast-orf" id="dummy-13_h13_1_17"  />
</g>
<g id="a13_0018"  >
<polygon points="517,85 522,80 560,80 560,90 522,90 517,85 " style="fill:#d815a7; stroke-width:1; stroke:black; " description="&lt;b&gt;STM2472&lt;/b&gt;&lt;br&gt;malic enzyme&lt;br&gt;Location: 16021 - 18301&lt;br&gt;&lt;br&gt;&lt;b&gt;BlastP hit with ctg1_2422&lt;/b&gt;&lt;br&gt;Percentage identity: 33&lt;br&gt;Percentage coverage: 96&lt;br&gt;BLAST bit score: 142&lt;br&gt;E-value: 1.73e-39&lt;br&gt;&lt;br&gt;&lt;b&gt;BlastP hit with ctg1_2427&lt;/b&gt;&lt;br&gt;Percentage identity: 94&lt;br&gt;Percentage coverage: 100&lt;br&gt;BLAST bit score: 1394&lt;br&gt;E-value: 0.0" locus_tag="STM2472" class="clusterblast-orf" id="dummy-13_h13_1_18"  />
</g>
</svg>
