<svg xmlns="http://www.w3.org/2000/svg" xmlns:xlink="http://www.w3.org/1999/xlink" version="1.1" x="0" y="0" height="100" width="800" viewBox="0 0 800 100" preserveAspectRatio="none"  >
<g label="Query sequence" class="clusterblast-cluster"  >
<text x="5" y="20" class="clusterblast-acc"  >
Query sequence</text>
<line x1="10" y1="35" x2="778.0" y2="35" style="stroke-width:1; stroke:grey; "  />
<polygon points="0,40 4,35 0,30 0,40 " style="fill:white; stroke-width:1; stroke:black; " description="&lt;b&gt;ctg1_1547&lt;/b&gt;&lt;br&gt;ctg1 1547&lt;br&gt;Location: 1648507 - 1648663" locus_tag="ctg1_1547" class="clusterblast-orf" id="knownclusterblast-8_q0_0_all"  />
<polygon points="4,40 8,35 4,30 4,40 " style="fill:white; stroke-width:1; stroke:black; " description="&lt;b&gt;ctg1_1548&lt;/b&gt;&lt;br&gt;ctg1 1548&lt;br&gt;Location: 1648664 - 1648793" locus_tag="ctg1_1548" class="clusterblast-orf" id="knownclusterblast-8_q1_0_all"  />
<polygon points="9,40 11,40 16,35 11,30 9,30 9,40 " style="fill:white; stroke-width:1; stroke:black; " description="&lt;b&gt;ctg1_1549&lt;/b&gt;&lt;br&gt;ctg1 1549&lt;br&gt;Location: 1648822 - 1649041" locus_tag="ctg1_1549" class="clusterblast-orf" id="knownclusterblast-8_q2_0_all"  />
<polygon points="16,35 21,30 21,30 21,40 21,40 16,35 " style="fill:white; stroke-width:1; stroke:black; " description="&lt;b&gt;ctg1_1550&lt;/b&gt;&lt;br&gt;ctg1 1550&lt;br&gt;Location: 1649044 - 1649209" locus_tag="ctg1_1550" class="clusterblast-orf" id="knownclusterblast-8_q3_0_all"  />
<polygon points="32,40 33,40 38,35 33,30 32,30 32,40 " style="fill:white; stroke-width:1; stroke:black; " description="&lt;b&gt;ctg1_1551&lt;/b&gt;&lt;br&gt;ctg1 1551&lt;br&gt;Location: 1649608 - 1649797" locus_tag="ctg1_1551" class="clusterblast-orf" id="knownclusterblast-8_q4_0_all"  />
<polygon points="38,40 38,40 43,35 38,30 38,30 38,40 " style="fill:white; stroke-width:1; stroke:black; " description="&lt;b&gt;ctg1_1552&lt;/b&gt;&lt;br&gt;ctg1 1552&lt;br&gt;Location: 1649793 - 1649985" locus_tag="ctg1_1552" class="clusterblast-orf" id="knownclusterblast-8_q5_0_all"  />
<polygon points="46,40 68,40 73,35 68,30 46,30 46,40 " style="fill:white; stroke-width:1; stroke:black; " description="&lt;b&gt;ctg1_1553&lt;/b&gt;&lt;br&gt;ctg1 1553&lt;br&gt;Location: 1650077 - 1650998" locus_tag="ctg1_1553" class="clusterblast-orf" id="knownclusterblast-8_q6_0_all"  />
<polygon points="73,40 84,40 89,35 84,30 73,30 73,40 " style="fill:white; stroke-width:1; stroke:black; " description="&lt;b&gt;ctg1_1554&lt;/b&gt;&lt;br&gt;ctg1 1554&lt;br&gt;Location: 1650994 - 1651537" locus_tag="ctg1_1554" class="clusterblast-orf" id="knownclusterblast-8_q7_0_all"  />
<polygon points="88,40 119,40 124,35 119,30 88,30 88,40 " style="fill:white; stroke-width:1; stroke:black; " description="&lt;b&gt;ctg1_1555&lt;/b&gt;&lt;br&gt;ctg1 1555&lt;br&gt;Location: 1651511 - 1652708" locus_tag="ctg1_1555" class="clusterblast-orf" id="knownclusterblast-8_q8_0_all"  />
<polygon points="129,35 134,30 159,30 159,40 134,40 129,35 " style="fill:white; stroke-width:1; stroke:black; " description="&lt;b&gt;ctg1_1556&lt;/b&gt;&lt;br&gt;ctg1 1556&lt;br&gt;Location: 1652895 - 1653915" locus_tag="ctg1_1556" class="clusterblast-orf" id="knownclusterblast-8_q9_0_all"  />
<polygon points="160,35 165,30 196,30 196,40 165,40 160,35 " style="fill:white; stroke-width:1; stroke:black; " description="&lt;b&gt;ctg1_1557&lt;/b&gt;&lt;br&gt;ctg1 1557&lt;br&gt;Location: 1653926 - 1655141" locus_tag="ctg1_1557" class="clusterblast-orf" id="knownclusterblast-8_q10_0_all"  />
<polygon points="202,35 207,30 211,30 211,40 207,40 202,35 " style="fill:white; stroke-width:1; stroke:black; " description="&lt;b&gt;ctg1_1558&lt;/b&gt;&lt;br&gt;ctg1 1558&lt;br&gt;Location: 1655346 - 1655673" locus_tag="ctg1_1558" class="clusterblast-orf" id="knownclusterblast-8_q11_0_all"  />
<polygon points="215,40 220,40 225,35 220,30 215,30 215,40 " style="fill:white; stroke-width:1; stroke:black; " description="&lt;b&gt;ctg1_1559&lt;/b&gt;&lt;br&gt;ctg1 1559&lt;br&gt;Location: 1655807 - 1656149" locus_tag="ctg1_1559" class="clusterblast-orf" id="knownclusterblast-8_q12_0_all"  />
<polygon points="226,40 238,40 243,35 238,30 226,30 226,40 " style="fill:white; stroke-width:1; stroke:black; " description="&lt;b&gt;ctg1_1560&lt;/b&gt;&lt;br&gt;ctg1 1560&lt;br&gt;Location: 1656183 - 1656744" locus_tag="ctg1_1560" class="clusterblast-orf" id="knownclusterblast-8_q13_0_all"  />
<polygon points="243,35 248,30 265,30 265,40 248,40 243,35 " style="fill:white; stroke-width:1; stroke:black; " description="&lt;b&gt;ctg1_1561&lt;/b&gt;&lt;br&gt;ctg1 1561&lt;br&gt;Location: 1656746 - 1657493" locus_tag="ctg1_1561" class="clusterblast-orf" id="knownclusterblast-8_q14_0_all"  />
<polygon points="267,40 271,40 276,35 271,30 267,30 267,40 " style="fill:white; stroke-width:1; stroke:black; " description="&lt;b&gt;ctg1_1562&lt;/b&gt;&lt;br&gt;ctg1 1562&lt;br&gt;Location: 1657564 - 1657870" locus_tag="ctg1_1562" class="clusterblast-orf" id="knownclusterblast-8_q15_0_all"  />
<polygon points="282,40 348,40 353,35 348,30 282,30 282,40 " style="fill:#d81515; stroke-width:1; stroke:black; " description="&lt;b&gt;ctg1_1563&lt;/b&gt;&lt;br&gt;ctg1 1563&lt;br&gt;Location: 1658068 - 1660495" locus_tag="ctg1_1563" class="clusterblast-orf" id="knownclusterblast-8_q16_0_all"  />
<polygon points="356,40 422,40 427,35 422,30 356,30 356,40 " style="fill:#d81515; stroke-width:1; stroke:black; " description="&lt;b&gt;ctg1_1564&lt;/b&gt;&lt;br&gt;ctg1 1564&lt;br&gt;Location: 1660582 - 1662979" locus_tag="ctg1_1564" class="clusterblast-orf" id="knownclusterblast-8_q17_0_all"  />
<polygon points="427,40 440,40 445,35 440,30 427,30 427,40 " style="fill:#15d815; stroke-width:1; stroke:black; " description="&lt;b&gt;ctg1_1565&lt;/b&gt;&lt;br&gt;ctg1 1565&lt;br&gt;Location: 1662989 - 1663607" locus_tag="ctg1_1565" class="clusterblast-orf" id="knownclusterblast-8_q18_0_all"  />
<polygon points="445,40 466,40 471,35 466,30 445,30 445,40 " style="fill:#1515d8; stroke-width:1; stroke:black; " description="&lt;b&gt;ctg1_1566&lt;/b&gt;&lt;br&gt;ctg1 1566&lt;br&gt;Location: 1663608 - 1664463" locus_tag="ctg1_1566" class="clusterblast-orf" id="knownclusterblast-8_q19_0_all"  />
<polygon points="472,40 485,40 490,35 485,30 472,30 472,40 " style="fill:white; stroke-width:1; stroke:black; " description="&lt;b&gt;ctg1_1567&lt;/b&gt;&lt;br&gt;ctg1 1567&lt;br&gt;Location: 1664505 - 1665120" locus_tag="ctg1_1567" class="clusterblast-orf" id="knownclusterblast-8_q20_0_all"  />
<polygon points="496,40 528,40 533,35 528,30 496,30 496,40 " style="fill:white; stroke-width:1; stroke:black; " description="&lt;b&gt;ctg1_1568&lt;/b&gt;&lt;br&gt;ctg1 1568&lt;br&gt;Location: 1665314 - 1666571" locus_tag="ctg1_1568" class="clusterblast-orf" id="knownclusterblast-8_q21_0_all"  />
<polygon points="531,35 536,30 552,30 552,40 536,40 531,35 " style="fill:white; stroke-width:1; stroke:black; " description="&lt;b&gt;ctg1_1569&lt;/b&gt;&lt;br&gt;ctg1 1569&lt;br&gt;Location: 1666523 - 1667219" locus_tag="ctg1_1569" class="clusterblast-orf" id="knownclusterblast-8_q22_0_all"  />
<polygon points="555,35 560,30 591,30 591,40 560,40 555,35 " style="fill:white; stroke-width:1; stroke:black; " description="&lt;b&gt;ctg1_1570&lt;/b&gt;&lt;br&gt;ctg1 1570&lt;br&gt;Location: 1667343 - 1668564" locus_tag="ctg1_1570" class="clusterblast-orf" id="knownclusterblast-8_q23_0_all"  />
<polygon points="595,35 600,30 622,30 622,40 600,40 595,35 " style="fill:white; stroke-width:1; stroke:black; " description="&lt;b&gt;ctg1_1571&lt;/b&gt;&lt;br&gt;ctg1 1571&lt;br&gt;Location: 1668698 - 1669592" locus_tag="ctg1_1571" class="clusterblast-orf" id="knownclusterblast-8_q24_0_all"  />
<polygon points="625,40 657,40 662,35 657,30 625,30 625,40 " style="fill:white; stroke-width:1; stroke:black; " description="&lt;b&gt;ctg1_1572&lt;/b&gt;&lt;br&gt;ctg1 1572&lt;br&gt;Location: 1669698 - 1670952" locus_tag="ctg1_1572" class="clusterblast-orf" id="knownclusterblast-8_q25_0_all"  />
<polygon points="674,40 679,40 684,35 679,30 674,30 674,40 " style="fill:white; stroke-width:1; stroke:black; " description="&lt;b&gt;ctg1_1573&lt;/b&gt;&lt;br&gt;ctg1 1573&lt;br&gt;Location: 1671375 - 1671684" locus_tag="ctg1_1573" class="clusterblast-orf" id="knownclusterblast-8_q26_0_all"  />
<polygon points="692,40 711,40 716,35 711,30 692,30 692,40 " style="fill:white; stroke-width:1; stroke:black; " description="&lt;b&gt;ctg1_1574&lt;/b&gt;&lt;br&gt;ctg1 1574&lt;br&gt;Location: 1671959 - 1672781" locus_tag="ctg1_1574" class="clusterblast-orf" id="knownclusterblast-8_q27_0_all"  />
<polygon points="717,35 722,30 727,30 727,40 722,40 717,35 " style="fill:white; stroke-width:1; stroke:black; " description="&lt;b&gt;ctg1_1575&lt;/b&gt;&lt;br&gt;ctg1 1575&lt;br&gt;Location: 1672819 - 1673149" locus_tag="ctg1_1575" class="clusterblast-orf" id="knownclusterblast-8_q28_0_all"  />
<polygon points="726,35 731,30 737,30 737,40 731,40 726,35 " style="fill:white; stroke-width:1; stroke:black; " description="&lt;b&gt;ctg1_1576&lt;/b&gt;&lt;br&gt;ctg1 1576&lt;br&gt;Location: 1673135 - 1673501" locus_tag="ctg1_1576" class="clusterblast-orf" id="knownclusterblast-8_q29_0_all"  />
<polygon points="749,40 775,40 780,35 775,30 749,30 749,40 " style="fill:white; stroke-width:1; stroke:black; " description="&lt;b&gt;ctg1_1577&lt;/b&gt;&lt;br&gt;ctg1 1577&lt;br&gt;Location: 1673912 - 1674947" locus_tag="ctg1_1577" class="clusterblast-orf" id="knownclusterblast-8_q30_0_all"  />
</g>
<g label="MGC00000046" description="MGC00000046_c1: DMSO-TMAO reducatse E. coli (100% of genes show similarity), DMSAO-TMAO" class="clusterblast-cluster"  >
<text x="5" y="70" class="clusterblast-acc"  >
MGC00000046_c1: DMSO-TMAO reducatse E. coli (100% of genes show similarity), DMSAO-TMAO</text>
<line x1="10" y1="85" x2="778.0" y2="85" style="stroke-width:1; stroke:grey; "  />
</g>
<g id="a8_000"  >
<polygon points="295,90 362,90 367,85 362,80 295,80 295,90 " style="fill:#d81515; stroke-width:1; stroke:black; " description="&lt;b&gt;b1587&lt;/b&gt;&lt;br&gt;putative selenate reductase YnfE&lt;br&gt;Location: 10000 - 12427&lt;br&gt;&lt;br&gt;&lt;b&gt;BlastP hit with ctg1_1563&lt;/b&gt;&lt;br&gt;Percentage identity: 100&lt;br&gt;Percentage coverage: 100&lt;br&gt;BLAST bit score: 1645&lt;br&gt;E-value: 0.0&lt;br&gt;&lt;br&gt;&lt;b&gt;BlastP hit with ctg1_1564&lt;/b&gt;&lt;br&gt;Percentage identity: 71&lt;br&gt;Percentage coverage: 100&lt;br&gt;BLAST bit score: 1190&lt;br&gt;E-value: 0.0" locus_tag="b1587" class="clusterblast-orf" id="knownclusterblast-8_all_8_1_0"  />
</g>
<g id="a8_001"  >
<polygon points="369,90 435,90 440,85 435,80 369,80 369,90 " style="fill:#d81515; stroke-width:1; stroke:black; " description="&lt;b&gt;b1588&lt;/b&gt;&lt;br&gt;putative selenate reductase YnfF&lt;br&gt;Location: 12487 - 14911&lt;br&gt;&lt;br&gt;&lt;b&gt;BlastP hit with ctg1_1563&lt;/b&gt;&lt;br&gt;Percentage identity: 71&lt;br&gt;Percentage coverage: 99&lt;br&gt;BLAST bit score: 1201&lt;br&gt;E-value: 0.0&lt;br&gt;&lt;br&gt;&lt;b&gt;BlastP hit with ctg1_1564&lt;/b&gt;&lt;br&gt;Percentage identity: 100&lt;br&gt;Percentage coverage: 100&lt;br&gt;BLAST bit score: 1634&lt;br&gt;E-value: 0.0" locus_tag="b1588" class="clusterblast-orf" id="knownclusterblast-8_all_8_1_1"  />
</g>
<g id="a8_002"  >
<polygon points="440,90 454,90 459,85 454,80 440,80 440,90 " style="fill:#15d815; stroke-width:1; stroke:black; " description="&lt;b&gt;b1589&lt;/b&gt;&lt;br&gt;putative oxidoreductase YnfG&lt;br&gt;Location: 14921 - 15539&lt;br&gt;&lt;br&gt;&lt;b&gt;BlastP hit with ctg1_1565&lt;/b&gt;&lt;br&gt;Percentage identity: 100&lt;br&gt;Percentage coverage: 100&lt;br&gt;BLAST bit score: 454&lt;br&gt;E-value: 5.81e-168" locus_tag="b1589" class="clusterblast-orf" id="knownclusterblast-8_all_8_1_2"  />
</g>
<g id="a8_003"  >
<polygon points="459,90 479,90 484,85 479,80 459,80 459,90 " style="fill:#1515d8; stroke-width:1; stroke:black; " description="&lt;b&gt;b1590&lt;/b&gt;&lt;br&gt;putative menaquinol dehydrogenase&lt;br&gt;Location: 15540 - 16395&lt;br&gt;&lt;br&gt;&lt;b&gt;BlastP hit with ctg1_1566&lt;/b&gt;&lt;br&gt;Percentage identity: 100&lt;br&gt;Percentage coverage: 100&lt;br&gt;BLAST bit score: 560&lt;br&gt;E-value: 3.08e-207" locus_tag="b1590" class="clusterblast-orf" id="knownclusterblast-8_all_8_1_3"  />
</g>
</svg>
