<svg xmlns="http://www.w3.org/2000/svg" xmlns:xlink="http://www.w3.org/1999/xlink" version="1.1" x="0" y="0" height="230" width="800" viewBox="0 0 800 230" preserveAspectRatio="none"  >
<g label="Query sequence" class="clusterblast-cluster"  >
<text x="5" y="20" class="clusterblast-acc"  >
Query sequence</text>
<line x1="10" y1="35" x2="778.0" y2="35" style="stroke-width:1; stroke:grey; "  />
<polygon points="0,35 5,30 7,30 7,40 5,40 0,35 " style="fill:white; stroke-width:1; stroke:black; " description="&lt;b&gt;ctg1_2235&lt;/b&gt;&lt;br&gt;ctg1 2235&lt;br&gt;Location: 2380721 - 2381027" locus_tag="ctg1_2235" class="clusterblast-orf" id="dummy-11_q0_0_all"  />
<polygon points="8,35 13,30 19,30 19,40 13,40 8,35 " style="fill:white; stroke-width:1; stroke:black; " description="&lt;b&gt;ctg1_2236&lt;/b&gt;&lt;br&gt;ctg1 2236&lt;br&gt;Location: 2381081 - 2381543" locus_tag="ctg1_2236" class="clusterblast-orf" id="dummy-11_q1_0_all"  />
<polygon points="20,40 36,40 41,35 36,30 20,30 20,40 " style="fill:white; stroke-width:1; stroke:black; " description="&lt;b&gt;ctg1_2237&lt;/b&gt;&lt;br&gt;ctg1 2237&lt;br&gt;Location: 2381607 - 2382525" locus_tag="ctg1_2237" class="clusterblast-orf" id="dummy-11_q2_0_all"  />
<polygon points="46,40 68,40 73,35 68,30 46,30 46,40 " style="fill:white; stroke-width:1; stroke:black; " description="&lt;b&gt;ctg1_2238&lt;/b&gt;&lt;br&gt;ctg1 2238&lt;br&gt;Location: 2382715 - 2383924" locus_tag="ctg1_2238" class="clusterblast-orf" id="dummy-11_q3_0_all"  />
<polygon points="75,35 80,30 115,30 115,40 80,40 75,35 " style="fill:white; stroke-width:1; stroke:black; " description="&lt;b&gt;ctg1_2239&lt;/b&gt;&lt;br&gt;ctg1 2239&lt;br&gt;Location: 2383994 - 2385722" locus_tag="ctg1_2239" class="clusterblast-orf" id="dummy-11_q4_0_all"  />
<polygon points="118,40 135,40 140,35 135,30 118,30 118,40 " style="fill:white; stroke-width:1; stroke:black; " description="&lt;b&gt;ctg1_2240&lt;/b&gt;&lt;br&gt;ctg1 2240&lt;br&gt;Location: 2385859 - 2386831" locus_tag="ctg1_2240" class="clusterblast-orf" id="dummy-11_q5_0_all"  />
<polygon points="142,40 149,40 154,35 149,30 142,30 142,40 " style="fill:white; stroke-width:1; stroke:black; " description="&lt;b&gt;ctg1_2241&lt;/b&gt;&lt;br&gt;ctg1 2241&lt;br&gt;Location: 2386933 - 2387437" locus_tag="ctg1_2241" class="clusterblast-orf" id="dummy-11_q6_0_all"  />
<polygon points="160,35 165,30 177,30 177,40 165,40 160,35 " style="fill:white; stroke-width:1; stroke:black; " description="&lt;b&gt;ctg1_2242&lt;/b&gt;&lt;br&gt;ctg1 2242&lt;br&gt;Location: 2387709 - 2388426" locus_tag="ctg1_2242" class="clusterblast-orf" id="dummy-11_q7_0_all"  />
<polygon points="182,40 186,40 191,35 186,30 182,30 182,40 " style="fill:white; stroke-width:1; stroke:black; " description="&lt;b&gt;ctg1_2243&lt;/b&gt;&lt;br&gt;ctg1 2243&lt;br&gt;Location: 2388634 - 2389057" locus_tag="ctg1_2243" class="clusterblast-orf" id="dummy-11_q8_0_all"  />
<polygon points="193,40 207,40 212,35 207,30 193,30 193,40 " style="fill:white; stroke-width:1; stroke:black; " description="&lt;b&gt;ctg1_2244&lt;/b&gt;&lt;br&gt;ctg1 2244&lt;br&gt;Location: 2389115 - 2389964" locus_tag="ctg1_2244" class="clusterblast-orf" id="dummy-11_q9_0_all"  />
<polygon points="214,35 219,30 247,30 247,40 219,40 214,35 " style="fill:#d81515; stroke-width:1; stroke:black; " description="&lt;b&gt;ctg1_2245&lt;/b&gt;&lt;br&gt;ctg1 2245&lt;br&gt;Location: 2390047 - 2391505" locus_tag="ctg1_2245" class="clusterblast-orf" id="dummy-11_q10_0_all"  />
<polygon points="248,35 253,30 283,30 283,40 253,40 248,35 " style="fill:#33d815; stroke-width:1; stroke:black; " description="&lt;b&gt;ctg1_2246&lt;/b&gt;&lt;br&gt;ctg1 2246&lt;br&gt;Location: 2391511 - 2393041" locus_tag="ctg1_2246" class="clusterblast-orf" id="dummy-11_q11_0_all"  />
<polygon points="287,35 292,30 329,30 329,40 292,40 287,35 " style="fill:#15abd8; stroke-width:1; stroke:black; " description="&lt;b&gt;ctg1_2247&lt;/b&gt;&lt;br&gt;ctg1 2247&lt;br&gt;Location: 2393204 - 2395046" locus_tag="ctg1_2247" class="clusterblast-orf" id="dummy-11_q12_0_all"  />
<polygon points="329,35 334,30 336,30 336,40 334,40 329,35 " style="fill:#8d15d8; stroke-width:1; stroke:black; " description="&lt;b&gt;ctg1_2248&lt;/b&gt;&lt;br&gt;ctg1 2248&lt;br&gt;Location: 2395042 - 2395345" locus_tag="ctg1_2248" class="clusterblast-orf" id="dummy-11_q13_0_all"  />
<polygon points="336,35 341,30 348,30 348,40 341,40 336,35 " style="fill:#d86f15; stroke-width:1; stroke:black; " description="&lt;b&gt;ctg1_2249&lt;/b&gt;&lt;br&gt;ctg1 2249&lt;br&gt;Location: 2395341 - 2395896" locus_tag="ctg1_2249" class="clusterblast-orf" id="dummy-11_q14_0_all"  />
<polygon points="349,35 354,30 361,30 361,40 354,40 349,35 " style="fill:#15d851; stroke-width:1; stroke:black; " description="&lt;b&gt;ctg1_2250&lt;/b&gt;&lt;br&gt;ctg1 2250&lt;br&gt;Location: 2395907 - 2396450" locus_tag="ctg1_2250" class="clusterblast-orf" id="dummy-11_q15_0_all"  />
<polygon points="361,35 366,30 384,30 384,40 366,40 361,35 " style="fill:#1551d8; stroke-width:1; stroke:black; " description="&lt;b&gt;ctg1_2251&lt;/b&gt;&lt;br&gt;ctg1 2251&lt;br&gt;Location: 2396464 - 2397442" locus_tag="ctg1_2251" class="clusterblast-orf" id="dummy-11_q16_0_all"  />
<polygon points="384,35 389,30 446,30 446,40 389,40 384,35 " style="fill:#d815c9; stroke-width:1; stroke:black; " description="&lt;b&gt;ctg1_2252&lt;/b&gt;&lt;br&gt;ctg1 2252&lt;br&gt;Location: 2397438 - 2400165" locus_tag="ctg1_2252" class="clusterblast-orf" id="dummy-11_q17_0_all"  />
<polygon points="448,35 453,30 478,30 478,40 453,40 448,35 " style="fill:#d8c915; stroke-width:1; stroke:black; " description="&lt;b&gt;ctg1_2253&lt;/b&gt;&lt;br&gt;ctg1 2253&lt;br&gt;Location: 2400217 - 2401555" locus_tag="ctg1_2253" class="clusterblast-orf" id="dummy-11_q18_0_all"  />
<polygon points="478,35 483,30 490,30 490,40 483,40 478,35 " style="fill:#15d8ab; stroke-width:1; stroke:black; " description="&lt;b&gt;ctg1_2254&lt;/b&gt;&lt;br&gt;ctg1 2254&lt;br&gt;Location: 2401551 - 2402052" locus_tag="ctg1_2254" class="clusterblast-orf" id="dummy-11_q19_0_all"  />
<polygon points="490,35 495,30 531,30 531,40 495,40 490,35 " style="fill:#3315d8; stroke-width:1; stroke:black; " description="&lt;b&gt;ctg1_2255&lt;/b&gt;&lt;br&gt;ctg1 2255&lt;br&gt;Location: 2402054 - 2403857" locus_tag="ctg1_2255" class="clusterblast-orf" id="dummy-11_q20_0_all"  />
<polygon points="533,35 538,30 549,30 549,40 538,40 533,35 " style="fill:#d8156f; stroke-width:1; stroke:black; " description="&lt;b&gt;ctg1_2256&lt;/b&gt;&lt;br&gt;ctg1 2256&lt;br&gt;Location: 2403950 - 2404613" locus_tag="ctg1_2256" class="clusterblast-orf" id="dummy-11_q21_0_all"  />
<polygon points="549,35 554,30 559,30 559,40 554,40 549,35 " style="fill:#8dd815; stroke-width:1; stroke:black; " description="&lt;b&gt;ctg1_2257&lt;/b&gt;&lt;br&gt;ctg1 2257&lt;br&gt;Location: 2404628 - 2405072" locus_tag="ctg1_2257" class="clusterblast-orf" id="dummy-11_q22_0_all"  />
<polygon points="565,40 569,35 565,30 565,40 " style="fill:white; stroke-width:1; stroke:black; " description="&lt;b&gt;ctg1_2258&lt;/b&gt;&lt;br&gt;ctg1 2258&lt;br&gt;Location: 2405334 - 2405499" locus_tag="ctg1_2258" class="clusterblast-orf" id="dummy-11_q23_0_all"  />
<polygon points="574,35 579,30 595,30 595,40 579,40 574,35 " style="fill:white; stroke-width:1; stroke:black; " description="&lt;b&gt;ctg1_2259&lt;/b&gt;&lt;br&gt;ctg1 2259&lt;br&gt;Location: 2405702 - 2406641" locus_tag="ctg1_2259" class="clusterblast-orf" id="dummy-11_q24_0_all"  />
<polygon points="616,40 639,40 644,35 639,30 616,30 616,40 " style="fill:white; stroke-width:1; stroke:black; " description="&lt;b&gt;ctg1_2260&lt;/b&gt;&lt;br&gt;ctg1 2260&lt;br&gt;Location: 2407560 - 2408778" locus_tag="ctg1_2260" class="clusterblast-orf" id="dummy-11_q25_0_all"  />
<polygon points="646,40 655,40 660,35 655,30 646,30 646,40 " style="fill:white; stroke-width:1; stroke:black; " description="&lt;b&gt;ctg1_2261&lt;/b&gt;&lt;br&gt;ctg1 2261&lt;br&gt;Location: 2408861 - 2409461" locus_tag="ctg1_2261" class="clusterblast-orf" id="dummy-11_q26_0_all"  />
<polygon points="661,35 666,30 703,30 703,40 666,40 661,35 " style="fill:white; stroke-width:1; stroke:black; " description="&lt;b&gt;ctg1_2262&lt;/b&gt;&lt;br&gt;ctg1 2262&lt;br&gt;Location: 2409519 - 2411352" locus_tag="ctg1_2262" class="clusterblast-orf" id="dummy-11_q27_0_all"  />
<polygon points="705,35 710,30 720,30 720,40 710,40 705,35 " style="fill:white; stroke-width:1; stroke:black; " description="&lt;b&gt;ctg1_2263&lt;/b&gt;&lt;br&gt;ctg1 2263&lt;br&gt;Location: 2411438 - 2412089" locus_tag="ctg1_2263" class="clusterblast-orf" id="dummy-11_q28_0_all"  />
<polygon points="721,35 726,30 732,30 732,40 726,40 721,35 " style="fill:white; stroke-width:1; stroke:black; " description="&lt;b&gt;ctg1_2264&lt;/b&gt;&lt;br&gt;ctg1 2264&lt;br&gt;Location: 2412099 - 2412594" locus_tag="ctg1_2264" class="clusterblast-orf" id="dummy-11_q29_0_all"  />
<polygon points="734,35 739,30 744,30 744,40 739,40 734,35 " style="fill:white; stroke-width:1; stroke:black; " description="&lt;b&gt;ctg1_2265&lt;/b&gt;&lt;br&gt;ctg1 2265&lt;br&gt;Location: 2412676 - 2413132" locus_tag="ctg1_2265" class="clusterblast-orf" id="dummy-11_q30_0_all"  />
<polygon points="752,40 775,40 780,35 775,30 752,30 752,40 " style="fill:white; stroke-width:1; stroke:black; " description="&lt;b&gt;ctg1_2266&lt;/b&gt;&lt;br&gt;ctg1 2266&lt;br&gt;Location: 2413469 - 2414672" locus_tag="ctg1_2266" class="clusterblast-orf" id="dummy-11_q31_0_all"  />
</g>
<g label="MGC00000048" description="MGC00000048_c1: NADH dehydrogenase I E. coli (100% of genes show similarity), NADHD" class="clusterblast-cluster"  >
<text x="5" y="70" class="clusterblast-acc"  >
MGC00000048_c1: NADH dehydrogenase I E. coli (100% of genes show similarity), NADHD</text>
<line x1="10" y1="85" x2="778.0" y2="85" style="stroke-width:1; stroke:grey; "  />
</g>
<g id="a11_000"  >
<polygon points="217,85 222,80 250,80 250,90 222,90 217,85 " style="fill:#d81515; stroke-width:1; stroke:black; " description="&lt;b&gt;b2276&lt;/b&gt;&lt;br&gt;NADH:quinone oxidoreductase subunit N&lt;br&gt;Location: 10000 - 11458&lt;br&gt;&lt;br&gt;&lt;b&gt;BlastP hit with ctg1_2245&lt;/b&gt;&lt;br&gt;Percentage identity: 100&lt;br&gt;Percentage coverage: 100&lt;br&gt;BLAST bit score: 914&lt;br&gt;E-value: 0.0" locus_tag="b2276" class="clusterblast-orf" id="dummy-11_h11_1_0"  />
</g>
<g id="a11_001"  >
<polygon points="251,85 256,80 286,80 286,90 256,90 251,85 " style="fill:#33d815; stroke-width:1; stroke:black; " description="&lt;b&gt;b2277&lt;/b&gt;&lt;br&gt;NADH:quinone oxidoreductase subunit M&lt;br&gt;Location: 11464 - 12994&lt;br&gt;&lt;br&gt;&lt;b&gt;BlastP hit with ctg1_2246&lt;/b&gt;&lt;br&gt;Percentage identity: 100&lt;br&gt;Percentage coverage: 100&lt;br&gt;BLAST bit score: 997&lt;br&gt;E-value: 0.0" locus_tag="b2277" class="clusterblast-orf" id="dummy-11_h11_1_1"  />
</g>
<g id="a11_002"  >
<polygon points="289,85 294,80 332,80 332,90 294,90 289,85 " style="fill:#15abd8; stroke-width:1; stroke:black; " description="&lt;b&gt;b2278&lt;/b&gt;&lt;br&gt;NADH:quinone oxidoreductase subunit L&lt;br&gt;Location: 13157 - 14999&lt;br&gt;&lt;br&gt;&lt;b&gt;BlastP hit with ctg1_2247&lt;/b&gt;&lt;br&gt;Percentage identity: 100&lt;br&gt;Percentage coverage: 100&lt;br&gt;BLAST bit score: 1188&lt;br&gt;E-value: 0.0" locus_tag="b2278" class="clusterblast-orf" id="dummy-11_h11_1_2"  />
</g>
<g id="a11_003"  >
<polygon points="332,85 337,80 339,80 339,90 337,90 332,85 " style="fill:#8d15d8; stroke-width:1; stroke:black; " description="&lt;b&gt;b2279&lt;/b&gt;&lt;br&gt;NADH:quinone oxidoreductase subunit K&lt;br&gt;Location: 14995 - 15298&lt;br&gt;&lt;br&gt;&lt;b&gt;BlastP hit with ctg1_2248&lt;/b&gt;&lt;br&gt;Percentage identity: 100&lt;br&gt;Percentage coverage: 100&lt;br&gt;BLAST bit score: 179&lt;br&gt;E-value: 2.44e-62" locus_tag="b2279" class="clusterblast-orf" id="dummy-11_h11_1_3"  />
</g>
<g id="a11_004"  >
<polygon points="339,85 344,80 351,80 351,90 344,90 339,85 " style="fill:#d86f15; stroke-width:1; stroke:black; " description="&lt;b&gt;b2280&lt;/b&gt;&lt;br&gt;NADH:quinone oxidoreductase subunit J&lt;br&gt;Location: 15294 - 15849&lt;br&gt;&lt;br&gt;&lt;b&gt;BlastP hit with ctg1_2249&lt;/b&gt;&lt;br&gt;Percentage identity: 100&lt;br&gt;Percentage coverage: 100&lt;br&gt;BLAST bit score: 335&lt;br&gt;E-value: 3.11e-121" locus_tag="b2280" class="clusterblast-orf" id="dummy-11_h11_1_4"  />
</g>
<g id="a11_005"  >
<polygon points="352,85 357,80 364,80 364,90 357,90 352,85 " style="fill:#15d851; stroke-width:1; stroke:black; " description="&lt;b&gt;b2281&lt;/b&gt;&lt;br&gt;NADH:quinone oxidoreductase subunit I&lt;br&gt;Location: 15860 - 16403&lt;br&gt;&lt;br&gt;&lt;b&gt;BlastP hit with ctg1_2250&lt;/b&gt;&lt;br&gt;Percentage identity: 100&lt;br&gt;Percentage coverage: 100&lt;br&gt;BLAST bit score: 343&lt;br&gt;E-value: 1.02e-124" locus_tag="b2281" class="clusterblast-orf" id="dummy-11_h11_1_5"  />
</g>
<g id="a11_006"  >
<polygon points="364,85 369,80 387,80 387,90 369,90 364,85 " style="fill:#1551d8; stroke-width:1; stroke:black; " description="&lt;b&gt;b2282&lt;/b&gt;&lt;br&gt;NADH:quinone oxidoreductase subunit H&lt;br&gt;Location: 16417 - 17395&lt;br&gt;&lt;br&gt;&lt;b&gt;BlastP hit with ctg1_2251&lt;/b&gt;&lt;br&gt;Percentage identity: 100&lt;br&gt;Percentage coverage: 100&lt;br&gt;BLAST bit score: 638&lt;br&gt;E-value: 1.7e-236" locus_tag="b2282" class="clusterblast-orf" id="dummy-11_h11_1_6"  />
</g>
<g id="a11_007"  >
<polygon points="387,85 392,80 449,80 449,90 392,90 387,85 " style="fill:#d815c9; stroke-width:1; stroke:black; " description="&lt;b&gt;b2283&lt;/b&gt;&lt;br&gt;NADH:quinone oxidoreductase subunit G&lt;br&gt;Location: 17391 - 20118&lt;br&gt;&lt;br&gt;&lt;b&gt;BlastP hit with ctg1_2252&lt;/b&gt;&lt;br&gt;Percentage identity: 100&lt;br&gt;Percentage coverage: 100&lt;br&gt;BLAST bit score: 1840&lt;br&gt;E-value: 0.0" locus_tag="b2283" class="clusterblast-orf" id="dummy-11_h11_1_7"  />
</g>
<g id="a11_008"  >
<polygon points="451,85 456,80 481,80 481,90 456,90 451,85 " style="fill:#d8c915; stroke-width:1; stroke:black; " description="&lt;b&gt;b2284&lt;/b&gt;&lt;br&gt;NADH:quinone oxidoreductase subunit F&lt;br&gt;Location: 20170 - 21508&lt;br&gt;&lt;br&gt;&lt;b&gt;BlastP hit with ctg1_2253&lt;/b&gt;&lt;br&gt;Percentage identity: 100&lt;br&gt;Percentage coverage: 100&lt;br&gt;BLAST bit score: 924&lt;br&gt;E-value: 0.0" locus_tag="b2284" class="clusterblast-orf" id="dummy-11_h11_1_8"  />
</g>
<g id="a11_009"  >
<polygon points="481,85 486,80 493,80 493,90 486,90 481,85 " style="fill:#15d8ab; stroke-width:1; stroke:black; " description="&lt;b&gt;b2285&lt;/b&gt;&lt;br&gt;NADH:quinone oxidoreductase subunit E&lt;br&gt;Location: 21504 - 22005&lt;br&gt;&lt;br&gt;&lt;b&gt;BlastP hit with ctg1_2254&lt;/b&gt;&lt;br&gt;Percentage identity: 100&lt;br&gt;Percentage coverage: 100&lt;br&gt;BLAST bit score: 343&lt;br&gt;E-value: 4.99e-125" locus_tag="b2285" class="clusterblast-orf" id="dummy-11_h11_1_9"  />
</g>
<g id="a11_0010"  >
<polygon points="493,85 498,80 534,80 534,90 498,90 493,85 " style="fill:#3315d8; stroke-width:1; stroke:black; " description="&lt;b&gt;b2286&lt;/b&gt;&lt;br&gt;NADH:quinone oxidoreductase subunit CD&lt;br&gt;Location: 22007 - 23798&lt;br&gt;&lt;br&gt;&lt;b&gt;BlastP hit with ctg1_2255&lt;/b&gt;&lt;br&gt;Percentage identity: 100&lt;br&gt;Percentage coverage: 99&lt;br&gt;BLAST bit score: 1222&lt;br&gt;E-value: 0.0" locus_tag="b2286" class="clusterblast-orf" id="dummy-11_h11_1_10"  />
</g>
<g id="a11_0011"  >
<polygon points="536,85 541,80 552,80 552,90 541,90 536,85 " style="fill:#d8156f; stroke-width:1; stroke:black; " description="&lt;b&gt;b2287&lt;/b&gt;&lt;br&gt;NADH:quinone oxidoreductase subunit B&lt;br&gt;Location: 23903 - 24566&lt;br&gt;&lt;br&gt;&lt;b&gt;BlastP hit with ctg1_2256&lt;/b&gt;&lt;br&gt;Percentage identity: 100&lt;br&gt;Percentage coverage: 100&lt;br&gt;BLAST bit score: 452&lt;br&gt;E-value: 2.17e-166" locus_tag="b2287" class="clusterblast-orf" id="dummy-11_h11_1_11"  />
</g>
<g id="a11_0012"  >
<polygon points="552,85 557,80 562,80 562,90 557,90 552,85 " style="fill:#8dd815; stroke-width:1; stroke:black; " description="&lt;b&gt;b2288&lt;/b&gt;&lt;br&gt;NADH:quinone oxidoreductase subunit A&lt;br&gt;Location: 24581 - 25025&lt;br&gt;&lt;br&gt;&lt;b&gt;BlastP hit with ctg1_2257&lt;/b&gt;&lt;br&gt;Percentage identity: 100&lt;br&gt;Percentage coverage: 100&lt;br&gt;BLAST bit score: 286&lt;br&gt;E-value: 3.12e-103" locus_tag="b2288" class="clusterblast-orf" id="dummy-11_h11_1_12"  />
</g>
</svg>
