<svg xmlns="http://www.w3.org/2000/svg" xmlns:xlink="http://www.w3.org/1999/xlink" version="1.1" x="0" y="0" height="50" width="800" viewBox="0 0 800 50" preserveAspectRatio="none"  >
<g label="Query sequence" class="clusterblast-cluster"  >
<text x="5" y="20" class="clusterblast-acc"  >
Query sequence</text>
<line x1="10" y1="35" x2="778.0" y2="35" style="stroke-width:1; stroke:grey; "  />
<polygon points="0,40 2,40 7,35 2,30 0,30 0,40 " style="fill:white; stroke-width:1; stroke:black; " description="&lt;b&gt;ctg1_3691&lt;/b&gt;&lt;br&gt;ctg1 3691&lt;br&gt;Location: 3942994 - 3943249" locus_tag="ctg1_3691" class="clusterblast-orf" id="knownclusterblast-17_q0_0_all"  />
<polygon points="124,35 129,30 149,30 149,40 129,40 124,35 " style="fill:white; stroke-width:1; stroke:black; " description="&lt;b&gt;ctg1_3692&lt;/b&gt;&lt;br&gt;ctg1 3692&lt;br&gt;Location: 3947127 - 3947967" locus_tag="ctg1_3692" class="clusterblast-orf" id="knownclusterblast-17_q1_0_all"  />
<polygon points="152,40 158,40 163,35 158,30 152,30 152,40 " style="fill:white; stroke-width:1; stroke:black; " description="&lt;b&gt;ctg1_3693&lt;/b&gt;&lt;br&gt;ctg1 3693&lt;br&gt;Location: 3948085 - 3948424" locus_tag="ctg1_3693" class="clusterblast-orf" id="knownclusterblast-17_q2_0_all"  />
<polygon points="163,35 168,30 209,30 209,40 168,40 163,35 " style="fill:white; stroke-width:1; stroke:black; " description="&lt;b&gt;ctg1_3694&lt;/b&gt;&lt;br&gt;ctg1 3694&lt;br&gt;Location: 3948448 - 3949969" locus_tag="ctg1_3694" class="clusterblast-orf" id="knownclusterblast-17_q3_0_all"  />
<polygon points="227,40 251,40 256,35 251,30 227,30 227,40 " style="fill:white; stroke-width:1; stroke:black; " description="&lt;b&gt;ctg1_3695&lt;/b&gt;&lt;br&gt;ctg1 3695&lt;br&gt;Location: 3950559 - 3951543" locus_tag="ctg1_3695" class="clusterblast-orf" id="knownclusterblast-17_q4_0_all"  />
<polygon points="260,40 271,40 276,35 271,30 260,30 260,40 " style="fill:white; stroke-width:1; stroke:black; " description="&lt;b&gt;ctg1_3696&lt;/b&gt;&lt;br&gt;ctg1 3696&lt;br&gt;Location: 3951667 - 3952204" locus_tag="ctg1_3696" class="clusterblast-orf" id="knownclusterblast-17_q5_0_all"  />
<polygon points="276,40 279,40 284,35 279,30 276,30 276,40 " style="fill:white; stroke-width:1; stroke:black; " description="&lt;b&gt;ctg1_3697&lt;/b&gt;&lt;br&gt;ctg1 3697&lt;br&gt;Location: 3952200 - 3952464" locus_tag="ctg1_3697" class="clusterblast-orf" id="knownclusterblast-17_q6_0_all"  />
<polygon points="284,40 307,40 312,35 307,30 284,30 284,40 " style="fill:white; stroke-width:1; stroke:black; " description="&lt;b&gt;ctg1_3698&lt;/b&gt;&lt;br&gt;ctg1 3698&lt;br&gt;Location: 3952483 - 3953413" locus_tag="ctg1_3698" class="clusterblast-orf" id="knownclusterblast-17_q7_0_all"  />
<polygon points="314,40 364,40 369,35 364,30 314,30 314,40 " style="fill:white; stroke-width:1; stroke:black; " description="&lt;b&gt;ctg1_3699&lt;/b&gt;&lt;br&gt;ctg1 3699&lt;br&gt;Location: 3953477 - 3955328" locus_tag="ctg1_3699" class="clusterblast-orf" id="knownclusterblast-17_q8_0_all"  />
<polygon points="370,40 411,40 416,35 411,30 370,30 370,40 " style="fill:white; stroke-width:1; stroke:black; " description="&lt;b&gt;ctg1_3700&lt;/b&gt;&lt;br&gt;ctg1 3700&lt;br&gt;Location: 3955330 - 3956875" locus_tag="ctg1_3700" class="clusterblast-orf" id="knownclusterblast-17_q9_0_all"  />
<polygon points="417,35 422,30 444,30 444,40 422,40 417,35 " style="fill:white; stroke-width:1; stroke:black; " description="&lt;b&gt;ctg1_3701&lt;/b&gt;&lt;br&gt;ctg1 3701&lt;br&gt;Location: 3956926 - 3957820" locus_tag="ctg1_3701" class="clusterblast-orf" id="knownclusterblast-17_q10_0_all"  />
<polygon points="449,40 488,40 493,35 488,30 449,30 449,40 " style="fill:white; stroke-width:1; stroke:black; " description="&lt;b&gt;ctg1_3702&lt;/b&gt;&lt;br&gt;ctg1 3702&lt;br&gt;Location: 3957969 - 3959445" locus_tag="ctg1_3702" class="clusterblast-orf" id="knownclusterblast-17_q11_0_all"  />
<polygon points="495,35 500,30 504,30 504,40 500,40 495,35 " style="fill:white; stroke-width:1; stroke:black; " description="&lt;b&gt;ctg1_3703&lt;/b&gt;&lt;br&gt;ctg1 3703&lt;br&gt;Location: 3959531 - 3959813" locus_tag="ctg1_3703" class="clusterblast-orf" id="knownclusterblast-17_q12_0_all"  />
<polygon points="517,35 522,30 523,30 523,40 522,40 517,35 " style="fill:white; stroke-width:1; stroke:black; " description="&lt;b&gt;ctg1_3704&lt;/b&gt;&lt;br&gt;ctg1 3704&lt;br&gt;Location: 3960241 - 3960460" locus_tag="ctg1_3704" class="clusterblast-orf" id="knownclusterblast-17_q13_0_all"  />
<polygon points="530,40 585,40 590,35 585,30 530,30 530,40 " style="fill:white; stroke-width:1; stroke:black; " description="&lt;b&gt;ctg1_3705&lt;/b&gt;&lt;br&gt;ctg1 3705&lt;br&gt;Location: 3960676 - 3962698" locus_tag="ctg1_3705" class="clusterblast-orf" id="knownclusterblast-17_q14_0_all"  />
<polygon points="592,35 597,30 636,30 636,40 597,40 592,35 " style="fill:white; stroke-width:1; stroke:black; " description="&lt;b&gt;ctg1_3706&lt;/b&gt;&lt;br&gt;ctg1 3706&lt;br&gt;Location: 3962744 - 3964229" locus_tag="ctg1_3706" class="clusterblast-orf" id="knownclusterblast-17_q15_0_all"  />
<polygon points="640,35 645,30 678,30 678,40 645,40 640,35 " style="fill:white; stroke-width:1; stroke:black; " description="&lt;b&gt;ctg1_3707&lt;/b&gt;&lt;br&gt;ctg1 3707&lt;br&gt;Location: 3964364 - 3965630" locus_tag="ctg1_3707" class="clusterblast-orf" id="knownclusterblast-17_q16_0_all"  />
<polygon points="682,40 687,40 692,35 687,30 682,30 682,40 " style="fill:white; stroke-width:1; stroke:black; " description="&lt;b&gt;ctg1_3708&lt;/b&gt;&lt;br&gt;ctg1 3708&lt;br&gt;Location: 3965760 - 3966090" locus_tag="ctg1_3708" class="clusterblast-orf" id="knownclusterblast-17_q17_0_all"  />
<polygon points="702,40 735,40 740,35 735,30 702,30 702,40 " style="fill:white; stroke-width:1; stroke:black; " description="&lt;b&gt;ctg1_3709&lt;/b&gt;&lt;br&gt;ctg1 3709&lt;br&gt;Location: 3966416 - 3967676" locus_tag="ctg1_3709" class="clusterblast-orf" id="knownclusterblast-17_q18_0_all"  />
<polygon points="740,40 741,40 746,35 741,30 740,30 740,40 " style="fill:white; stroke-width:1; stroke:black; " description="&lt;b&gt;ctg1_3710&lt;/b&gt;&lt;br&gt;ctg1 3710&lt;br&gt;Location: 3967685 - 3967904" locus_tag="ctg1_3710" class="clusterblast-orf" id="knownclusterblast-17_q19_0_all"  />
<polygon points="747,40 775,40 780,35 775,30 747,30 747,40 " style="fill:white; stroke-width:1; stroke:black; " description="&lt;b&gt;ctg1_3711&lt;/b&gt;&lt;br&gt;ctg1 3711&lt;br&gt;Location: 3967915 - 3969019" locus_tag="ctg1_3711" class="clusterblast-orf" id="knownclusterblast-17_q20_0_all"  />
</g>
</svg>
