<svg xmlns="http://www.w3.org/2000/svg" xmlns:xlink="http://www.w3.org/1999/xlink" version="1.1" x="0" y="0" height="100" width="800" viewBox="0 0 800 100" preserveAspectRatio="none"  >
<g label="Query sequence" class="clusterblast-cluster"  >
<text x="5" y="20" class="clusterblast-acc"  >
Query sequence</text>
<line x1="10" y1="35" x2="778.0" y2="35" style="stroke-width:1; stroke:grey; "  />
<polygon points="0,35 5,30 30,30 30,40 5,40 0,35 " style="fill:white; stroke-width:1; stroke:black; " description="&lt;b&gt;ctg1_3799&lt;/b&gt;&lt;br&gt;ctg1 3799&lt;br&gt;Location: 4071772 - 4072651" locus_tag="ctg1_3799" class="clusterblast-orf" id="knownclusterblast-18_q0_0_all"  />
<polygon points="31,35 36,30 62,30 62,40 36,40 31,35 " style="fill:white; stroke-width:1; stroke:black; " description="&lt;b&gt;ctg1_3800&lt;/b&gt;&lt;br&gt;ctg1 3800&lt;br&gt;Location: 4072674 - 4073571" locus_tag="ctg1_3800" class="clusterblast-orf" id="knownclusterblast-18_q1_0_all"  />
<polygon points="68,40 94,40 99,35 94,30 68,30 68,40 " style="fill:white; stroke-width:1; stroke:black; " description="&lt;b&gt;ctg1_3801&lt;/b&gt;&lt;br&gt;ctg1 3801&lt;br&gt;Location: 4073738 - 4074635" locus_tag="ctg1_3801" class="clusterblast-orf" id="knownclusterblast-18_q2_0_all"  />
<polygon points="100,40 122,40 127,35 122,30 100,30 100,40 " style="fill:white; stroke-width:1; stroke:black; " description="&lt;b&gt;ctg1_3802&lt;/b&gt;&lt;br&gt;ctg1 3802&lt;br&gt;Location: 4074668 - 4075454" locus_tag="ctg1_3802" class="clusterblast-orf" id="knownclusterblast-18_q3_0_all"  />
<polygon points="131,40 147,40 152,35 147,30 131,30 131,40 " style="fill:white; stroke-width:1; stroke:black; " description="&lt;b&gt;ctg1_3803&lt;/b&gt;&lt;br&gt;ctg1 3803&lt;br&gt;Location: 4075552 - 4076152" locus_tag="ctg1_3803" class="clusterblast-orf" id="knownclusterblast-18_q4_0_all"  />
<polygon points="151,40 177,40 182,35 177,30 151,30 151,40 " style="fill:white; stroke-width:1; stroke:black; " description="&lt;b&gt;ctg1_3804&lt;/b&gt;&lt;br&gt;ctg1 3804&lt;br&gt;Location: 4076145 - 4077018" locus_tag="ctg1_3804" class="clusterblast-orf" id="knownclusterblast-18_q5_0_all"  />
<polygon points="182,40 192,40 197,35 192,30 182,30 182,40 " style="fill:white; stroke-width:1; stroke:black; " description="&lt;b&gt;ctg1_3805&lt;/b&gt;&lt;br&gt;ctg1 3805&lt;br&gt;Location: 4077014 - 4077452" locus_tag="ctg1_3805" class="clusterblast-orf" id="knownclusterblast-18_q6_0_all"  />
<polygon points="198,40 226,40 231,35 226,30 198,30 198,40 " style="fill:white; stroke-width:1; stroke:black; " description="&lt;b&gt;ctg1_3806&lt;/b&gt;&lt;br&gt;ctg1 3806&lt;br&gt;Location: 4077496 - 4078438" locus_tag="ctg1_3806" class="clusterblast-orf" id="knownclusterblast-18_q7_0_all"  />
<polygon points="245,40 249,35 245,30 245,40 " style="fill:white; stroke-width:1; stroke:black; " description="&lt;b&gt;ctg1_3807&lt;/b&gt;&lt;br&gt;ctg1 3807&lt;br&gt;Location: 4078848 - 4078956" locus_tag="ctg1_3807" class="clusterblast-orf" id="knownclusterblast-18_q8_0_all"  />
<polygon points="260,40 263,40 268,35 263,30 260,30 260,40 " style="fill:white; stroke-width:1; stroke:black; " description="&lt;b&gt;ctg1_3808&lt;/b&gt;&lt;br&gt;ctg1 3808&lt;br&gt;Location: 4079290 - 4079509" locus_tag="ctg1_3808" class="clusterblast-orf" id="knownclusterblast-18_q9_0_all"  />
<polygon points="276,40 279,40 284,35 279,30 276,30 276,40 " style="fill:white; stroke-width:1; stroke:black; " description="&lt;b&gt;ctg1_3809&lt;/b&gt;&lt;br&gt;ctg1 3809&lt;br&gt;Location: 4079726 - 4079969" locus_tag="ctg1_3809" class="clusterblast-orf" id="knownclusterblast-18_q10_0_all"  />
<polygon points="284,40 285,40 290,35 285,30 284,30 284,40 " style="fill:white; stroke-width:1; stroke:black; " description="&lt;b&gt;ctg1_3810&lt;/b&gt;&lt;br&gt;ctg1 3810&lt;br&gt;Location: 4079968 - 4080151" locus_tag="ctg1_3810" class="clusterblast-orf" id="knownclusterblast-18_q11_0_all"  />
<polygon points="295,35 300,30 328,30 328,40 300,40 295,35 " style="fill:white; stroke-width:1; stroke:black; " description="&lt;b&gt;ctg1_3811&lt;/b&gt;&lt;br&gt;ctg1 3811&lt;br&gt;Location: 4080298 - 4081228" locus_tag="ctg1_3811" class="clusterblast-orf" id="knownclusterblast-18_q12_0_all"  />
<polygon points="328,35 333,30 350,30 350,40 333,40 328,35 " style="fill:#d81515; stroke-width:1; stroke:black; " description="&lt;b&gt;ctg1_3812&lt;/b&gt;&lt;br&gt;ctg1 3812&lt;br&gt;Location: 4081224 - 4081860" locus_tag="ctg1_3812" class="clusterblast-orf" id="knownclusterblast-18_q13_0_all"  />
<polygon points="349,35 354,30 381,30 381,40 354,40 349,35 " style="fill:#15d815; stroke-width:1; stroke:black; " description="&lt;b&gt;ctg1_3813&lt;/b&gt;&lt;br&gt;ctg1 3813&lt;br&gt;Location: 4081856 - 4082759" locus_tag="ctg1_3813" class="clusterblast-orf" id="knownclusterblast-18_q14_0_all"  />
<polygon points="381,35 386,30 465,30 465,40 386,40 381,35 " style="fill:#1515d8; stroke-width:1; stroke:black; " description="&lt;b&gt;ctg1_3814&lt;/b&gt;&lt;br&gt;ctg1 3814&lt;br&gt;Location: 4082771 - 4085186" locus_tag="ctg1_3814" class="clusterblast-orf" id="knownclusterblast-18_q15_0_all"  />
<polygon points="467,35 472,30 487,30 487,40 472,40 467,35 " style="fill:#1515d8; stroke-width:1; stroke:black; " description="&lt;b&gt;ctg1_3815&lt;/b&gt;&lt;br&gt;ctg1 3815&lt;br&gt;Location: 4085234 - 4085822" locus_tag="ctg1_3815" class="clusterblast-orf" id="knownclusterblast-18_q16_0_all"  />
<polygon points="494,40 518,40 523,35 518,30 494,30 494,40 " style="fill:white; stroke-width:1; stroke:black; " description="&lt;b&gt;ctg1_3816&lt;/b&gt;&lt;br&gt;ctg1 3816&lt;br&gt;Location: 4086015 - 4086849" locus_tag="ctg1_3816" class="clusterblast-orf" id="knownclusterblast-18_q17_0_all"  />
<polygon points="528,40 559,40 564,35 559,30 528,30 528,40 " style="fill:white; stroke-width:1; stroke:black; " description="&lt;b&gt;ctg1_3817&lt;/b&gt;&lt;br&gt;ctg1 3817&lt;br&gt;Location: 4087001 - 4088057" locus_tag="ctg1_3817" class="clusterblast-orf" id="knownclusterblast-18_q18_0_all"  />
<polygon points="566,35 571,30 627,30 627,40 571,40 566,35 " style="fill:white; stroke-width:1; stroke:black; " description="&lt;b&gt;ctg1_3818&lt;/b&gt;&lt;br&gt;ctg1 3818&lt;br&gt;Location: 4088106 - 4089855" locus_tag="ctg1_3818" class="clusterblast-orf" id="knownclusterblast-18_q19_0_all"  />
<polygon points="627,35 632,30 664,30 664,40 632,40 627,35 " style="fill:white; stroke-width:1; stroke:black; " description="&lt;b&gt;ctg1_3819&lt;/b&gt;&lt;br&gt;ctg1 3819&lt;br&gt;Location: 4089854 - 4090925" locus_tag="ctg1_3819" class="clusterblast-orf" id="knownclusterblast-18_q20_0_all"  />
<polygon points="663,35 668,30 714,30 714,40 668,40 663,35 " style="fill:white; stroke-width:1; stroke:black; " description="&lt;b&gt;ctg1_3820&lt;/b&gt;&lt;br&gt;ctg1 3820&lt;br&gt;Location: 4090914 - 4092366" locus_tag="ctg1_3820" class="clusterblast-orf" id="knownclusterblast-18_q21_0_all"  />
<polygon points="714,35 719,30 730,30 730,40 719,40 714,35 " style="fill:white; stroke-width:1; stroke:black; " description="&lt;b&gt;ctg1_3821&lt;/b&gt;&lt;br&gt;ctg1 3821&lt;br&gt;Location: 4092376 - 4092823" locus_tag="ctg1_3821" class="clusterblast-orf" id="knownclusterblast-18_q22_0_all"  />
<polygon points="740,35 745,30 751,30 751,40 745,40 740,35 " style="fill:white; stroke-width:1; stroke:black; " description="&lt;b&gt;ctg1_3822&lt;/b&gt;&lt;br&gt;ctg1 3822&lt;br&gt;Location: 4093123 - 4093438" locus_tag="ctg1_3822" class="clusterblast-orf" id="knownclusterblast-18_q23_0_all"  />
<polygon points="751,35 756,30 780,30 780,40 756,40 751,35 " style="fill:white; stroke-width:1; stroke:black; " description="&lt;b&gt;ctg1_3823&lt;/b&gt;&lt;br&gt;ctg1 3823&lt;br&gt;Location: 4093447 - 4094272" locus_tag="ctg1_3823" class="clusterblast-orf" id="knownclusterblast-18_q24_0_all"  />
</g>
<g label="MGC00000049" description="MGC00000049_c1: Formate dehydrogenase E. coli (100% of genes show similarity), FORM" class="clusterblast-cluster"  >
<text x="5" y="70" class="clusterblast-acc"  >
MGC00000049_c1: Formate dehydrogenase E. coli (100% of genes show similarity), FORM</text>
<line x1="10" y1="85" x2="778.0" y2="85" style="stroke-width:1; stroke:grey; "  />
</g>
<g id="a18_000"  >
<polygon points="310,85 315,80 332,80 332,90 315,90 310,85 " style="fill:#d81515; stroke-width:1; stroke:black; " description="&lt;b&gt;b3892&lt;/b&gt;&lt;br&gt;formate dehydrogenase O subunit gamma&lt;br&gt;Location: 10000 - 10636&lt;br&gt;&lt;br&gt;&lt;b&gt;BlastP hit with ctg1_3812&lt;/b&gt;&lt;br&gt;Percentage identity: 100&lt;br&gt;Percentage coverage: 100&lt;br&gt;BLAST bit score: 423&lt;br&gt;E-value: 2.96e-155" locus_tag="b3892" class="clusterblast-orf" id="knownclusterblast-18_all_18_1_0"  />
</g>
<g id="a18_001"  >
<polygon points="332,85 337,80 363,80 363,90 337,90 332,85 " style="fill:#15d815; stroke-width:1; stroke:black; " description="&lt;b&gt;b3893&lt;/b&gt;&lt;br&gt;formate dehydrogenase O subunit beta&lt;br&gt;Location: 10632 - 11535&lt;br&gt;&lt;br&gt;&lt;b&gt;BlastP hit with ctg1_3813&lt;/b&gt;&lt;br&gt;Percentage identity: 100&lt;br&gt;Percentage coverage: 100&lt;br&gt;BLAST bit score: 634&lt;br&gt;E-value: 5.7e-236" locus_tag="b3893" class="clusterblast-orf" id="knownclusterblast-18_all_18_1_1"  />
</g>
<g id="a18_002"  >
<polygon points="363,85 368,80 469,80 469,90 368,90 363,85 " style="fill:#1515d8; stroke-width:1; stroke:black; " description="&lt;b&gt;b3894&lt;/b&gt;&lt;br&gt;formate dehydrogenase O subunit alpha&lt;br&gt;Location: 11547 - 14598&lt;br&gt;&lt;br&gt;&lt;b&gt;BlastP hit with ctg1_3814&lt;/b&gt;&lt;br&gt;Percentage identity: 100&lt;br&gt;Percentage coverage: 100&lt;br&gt;BLAST bit score: 1676&lt;br&gt;E-value: 0.0&lt;br&gt;&lt;br&gt;&lt;b&gt;BlastP hit with ctg1_3815&lt;/b&gt;&lt;br&gt;Percentage identity: 100&lt;br&gt;Percentage coverage: 100&lt;br&gt;BLAST bit score: 398&lt;br&gt;E-value: 1.62e-135" locus_tag="b3894" class="clusterblast-orf" id="knownclusterblast-18_all_18_1_2"  />
</g>
</svg>
