<svg xmlns="http://www.w3.org/2000/svg" xmlns:xlink="http://www.w3.org/1999/xlink" version="1.1" x="0" y="0" height="230" width="800" viewBox="0 0 800 230" preserveAspectRatio="none"  >
<g label="Query sequence" class="clusterblast-cluster"  >
<text x="5" y="20" class="clusterblast-acc"  >
Query sequence</text>
<line x1="10" y1="35" x2="778.0" y2="35" style="stroke-width:1; stroke:grey; "  />
<polygon points="0,40 16,40 21,35 16,30 0,30 0,40 " style="fill:white; stroke-width:1; stroke:black; " description="&lt;b&gt;ctg1_3034&lt;/b&gt;&lt;br&gt;ctg1 3034&lt;br&gt;Location: 3246651 - 3247428" locus_tag="ctg1_3034" class="clusterblast-orf" id="dummy-16_q0_0_all"  />
<polygon points="31,40 44,40 49,35 44,30 31,30 31,40 " style="fill:white; stroke-width:1; stroke:black; " description="&lt;b&gt;ctg1_3035&lt;/b&gt;&lt;br&gt;ctg1 3035&lt;br&gt;Location: 3247772 - 3248435" locus_tag="ctg1_3035" class="clusterblast-orf" id="dummy-16_q1_0_all"  />
<polygon points="49,40 55,40 60,35 55,30 49,30 49,40 " style="fill:white; stroke-width:1; stroke:black; " description="&lt;b&gt;ctg1_3036&lt;/b&gt;&lt;br&gt;ctg1 3036&lt;br&gt;Location: 3248438 - 3248822" locus_tag="ctg1_3036" class="clusterblast-orf" id="dummy-16_q2_0_all"  />
<polygon points="64,40 69,40 74,35 69,30 64,30 64,40 " style="fill:white; stroke-width:1; stroke:black; " description="&lt;b&gt;ctg1_3037&lt;/b&gt;&lt;br&gt;ctg1 3037&lt;br&gt;Location: 3248968 - 3249337" locus_tag="ctg1_3037" class="clusterblast-orf" id="dummy-16_q3_0_all"  />
<polygon points="75,40 78,40 83,35 78,30 75,30 75,40 " style="fill:white; stroke-width:1; stroke:black; " description="&lt;b&gt;ctg1_3038&lt;/b&gt;&lt;br&gt;ctg1 3038&lt;br&gt;Location: 3249374 - 3249680" locus_tag="ctg1_3038" class="clusterblast-orf" id="dummy-16_q4_0_all"  />
<polygon points="83,40 90,40 95,35 90,30 83,30 83,40 " style="fill:white; stroke-width:1; stroke:black; " description="&lt;b&gt;ctg1_3039&lt;/b&gt;&lt;br&gt;ctg1 3039&lt;br&gt;Location: 3249682 - 3250087" locus_tag="ctg1_3039" class="clusterblast-orf" id="dummy-16_q5_0_all"  />
<polygon points="94,40 98,40 103,35 98,30 94,30 94,40 " style="fill:white; stroke-width:1; stroke:black; " description="&lt;b&gt;ctg1_3040&lt;/b&gt;&lt;br&gt;ctg1 3040&lt;br&gt;Location: 3250076 - 3250376" locus_tag="ctg1_3040" class="clusterblast-orf" id="dummy-16_q6_0_all"  />
<polygon points="105,40 114,40 119,35 114,30 105,30 105,40 " style="fill:white; stroke-width:1; stroke:black; " description="&lt;b&gt;ctg1_3041&lt;/b&gt;&lt;br&gt;ctg1 3041&lt;br&gt;Location: 3250471 - 3250954" locus_tag="ctg1_3041" class="clusterblast-orf" id="dummy-16_q7_0_all"  />
<polygon points="120,40 143,40 148,35 143,30 120,30 120,40 " style="fill:white; stroke-width:1; stroke:black; " description="&lt;b&gt;ctg1_3042&lt;/b&gt;&lt;br&gt;ctg1 3042&lt;br&gt;Location: 3251023 - 3252010" locus_tag="ctg1_3042" class="clusterblast-orf" id="dummy-16_q8_0_all"  />
<polygon points="156,40 161,40 166,35 161,30 156,30 156,40 " style="fill:white; stroke-width:1; stroke:black; " description="&lt;b&gt;ctg1_3043&lt;/b&gt;&lt;br&gt;ctg1 3043&lt;br&gt;Location: 3252303 - 3252669" locus_tag="ctg1_3043" class="clusterblast-orf" id="dummy-16_q9_0_all"  />
<polygon points="173,40 177,40 182,35 177,30 173,30 173,40 " style="fill:white; stroke-width:1; stroke:black; " description="&lt;b&gt;ctg1_3044&lt;/b&gt;&lt;br&gt;ctg1 3044&lt;br&gt;Location: 3252910 - 3253267" locus_tag="ctg1_3044" class="clusterblast-orf" id="dummy-16_q10_0_all"  />
<polygon points="184,35 189,30 209,30 209,40 189,40 184,35 " style="fill:white; stroke-width:1; stroke:black; " description="&lt;b&gt;ctg1_3045&lt;/b&gt;&lt;br&gt;ctg1 3045&lt;br&gt;Location: 3253317 - 3254214" locus_tag="ctg1_3045" class="clusterblast-orf" id="dummy-16_q11_0_all"  />
<polygon points="211,40 226,40 231,35 226,30 211,30 211,40 " style="fill:white; stroke-width:1; stroke:black; " description="&lt;b&gt;ctg1_3046&lt;/b&gt;&lt;br&gt;ctg1 3046&lt;br&gt;Location: 3254318 - 3255020" locus_tag="ctg1_3046" class="clusterblast-orf" id="dummy-16_q12_0_all"  />
<polygon points="231,40 231,40 236,35 231,30 231,30 231,40 " style="fill:white; stroke-width:1; stroke:black; " description="&lt;b&gt;ctg1_3047&lt;/b&gt;&lt;br&gt;ctg1 3047&lt;br&gt;Location: 3255042 - 3255207" locus_tag="ctg1_3047" class="clusterblast-orf" id="dummy-16_q13_0_all"  />
<polygon points="240,35 245,30 276,30 276,40 245,40 240,35 " style="fill:#d81515; stroke-width:1; stroke:black; " description="&lt;b&gt;ctg1_3048&lt;/b&gt;&lt;br&gt;ctg1 3048&lt;br&gt;Location: 3255340 - 3256651" locus_tag="ctg1_3048" class="clusterblast-orf" id="dummy-16_q14_0_all"  />
<polygon points="277,35 282,30 313,30 313,40 282,40 277,35 " style="fill:#15d815; stroke-width:1; stroke:black; " description="&lt;b&gt;ctg1_3049&lt;/b&gt;&lt;br&gt;ctg1 3049&lt;br&gt;Location: 3256678 - 3258010" locus_tag="ctg1_3049" class="clusterblast-orf" id="dummy-16_q15_0_all"  />
<polygon points="321,35 326,30 359,30 359,40 326,40 321,35 " style="fill:#1597d8; stroke-width:1; stroke:black; " description="&lt;b&gt;ctg1_3050&lt;/b&gt;&lt;br&gt;ctg1 3050&lt;br&gt;Location: 3258284 - 3259649" locus_tag="ctg1_3050" class="clusterblast-orf" id="dummy-16_q16_0_all"  />
<polygon points="361,35 366,30 371,30 371,40 366,40 361,35 " style="fill:#9715d8; stroke-width:1; stroke:black; " description="&lt;b&gt;ctg1_3051&lt;/b&gt;&lt;br&gt;ctg1 3051&lt;br&gt;Location: 3259720 - 3260110" locus_tag="ctg1_3051" class="clusterblast-orf" id="dummy-16_q17_0_all"  />
<polygon points="372,35 377,30 435,30 435,40 377,40 372,35 " style="fill:#d89715; stroke-width:1; stroke:black; " description="&lt;b&gt;ctg1_3052&lt;/b&gt;&lt;br&gt;ctg1 3052&lt;br&gt;Location: 3260123 - 3262418" locus_tag="ctg1_3052" class="clusterblast-orf" id="dummy-16_q18_0_all"  />
<polygon points="436,35 441,30 469,30 469,40 441,40 436,35 " style="fill:#15d897; stroke-width:1; stroke:black; " description="&lt;b&gt;ctg1_3053&lt;/b&gt;&lt;br&gt;ctg1 3053&lt;br&gt;Location: 3262451 - 3263660" locus_tag="ctg1_3053" class="clusterblast-orf" id="dummy-16_q19_0_all"  />
<polygon points="470,35 475,30 507,30 507,40 475,40 470,35 " style="fill:#1515d8; stroke-width:1; stroke:black; " description="&lt;b&gt;ctg1_3054&lt;/b&gt;&lt;br&gt;ctg1 3054&lt;br&gt;Location: 3263685 - 3265017" locus_tag="ctg1_3054" class="clusterblast-orf" id="dummy-16_q20_0_all"  />
<polygon points="507,35 512,30 535,30 535,40 512,40 507,35 " style="fill:#d81597; stroke-width:1; stroke:black; " description="&lt;b&gt;ctg1_3055&lt;/b&gt;&lt;br&gt;ctg1 3055&lt;br&gt;Location: 3265038 - 3266028" locus_tag="ctg1_3055" class="clusterblast-orf" id="dummy-16_q21_0_all"  />
<polygon points="537,35 542,30 563,30 563,40 542,40 537,35 " style="fill:#97d815; stroke-width:1; stroke:black; " description="&lt;b&gt;ctg1_3056&lt;/b&gt;&lt;br&gt;ctg1 3056&lt;br&gt;Location: 3266126 - 3267065" locus_tag="ctg1_3056" class="clusterblast-orf" id="dummy-16_q22_0_all"  />
<polygon points="585,40 595,40 600,35 595,30 585,30 585,40 " style="fill:white; stroke-width:1; stroke:black; " description="&lt;b&gt;ctg1_3057&lt;/b&gt;&lt;br&gt;ctg1 3057&lt;br&gt;Location: 3267853 - 3268393" locus_tag="ctg1_3057" class="clusterblast-orf" id="dummy-16_q23_0_all"  />
<polygon points="601,40 628,40 633,35 628,30 601,30 601,40 " style="fill:white; stroke-width:1; stroke:black; " description="&lt;b&gt;ctg1_3058&lt;/b&gt;&lt;br&gt;ctg1 3058&lt;br&gt;Location: 3268414 - 3269602" locus_tag="ctg1_3058" class="clusterblast-orf" id="dummy-16_q24_0_all"  />
<polygon points="662,35 667,30 693,30 693,40 667,40 662,35 " style="fill:white; stroke-width:1; stroke:black; " description="&lt;b&gt;ctg1_3059&lt;/b&gt;&lt;br&gt;ctg1 3059&lt;br&gt;Location: 3270624 - 3271770" locus_tag="ctg1_3059" class="clusterblast-orf" id="dummy-16_q25_0_all"  />
<polygon points="696,35 701,30 720,30 720,40 701,40 696,35 " style="fill:white; stroke-width:1; stroke:black; " description="&lt;b&gt;ctg1_3060&lt;/b&gt;&lt;br&gt;ctg1 3060&lt;br&gt;Location: 3271866 - 3272757" locus_tag="ctg1_3060" class="clusterblast-orf" id="dummy-16_q26_0_all"  />
<polygon points="721,35 726,30 743,30 743,40 726,40 721,35 " style="fill:white; stroke-width:1; stroke:black; " description="&lt;b&gt;ctg1_3061&lt;/b&gt;&lt;br&gt;ctg1 3061&lt;br&gt;Location: 3272786 - 3273557" locus_tag="ctg1_3061" class="clusterblast-orf" id="dummy-16_q27_0_all"  />
<polygon points="743,35 748,30 780,30 780,40 748,40 743,35 " style="fill:white; stroke-width:1; stroke:black; " description="&lt;b&gt;ctg1_3062&lt;/b&gt;&lt;br&gt;ctg1 3062&lt;br&gt;Location: 3273572 - 3274907" locus_tag="ctg1_3062" class="clusterblast-orf" id="dummy-16_q28_0_all"  />
</g>
<g label="MGC00000030" description="MGC00000030_c1: Threonine to propionate E. coli (90% of genes show similarity), PROP" class="clusterblast-cluster"  >
<text x="5" y="70" class="clusterblast-acc"  >
MGC00000030_c1: Threonine to propionate E. coli (90% of genes show similarity), PROP</text>
<line x1="10" y1="85" x2="778.0" y2="85" style="stroke-width:1; stroke:grey; "  />
</g>
<g id="a16_000"  >
<polygon points="228,85 233,80 264,80 264,90 233,90 228,85 " style="fill:#d81515; stroke-width:1; stroke:black; " description="&lt;b&gt;L960_3808&lt;/b&gt;&lt;br&gt;hypothetical protein&lt;br&gt;Location: 21726 - 20415&lt;br&gt;&lt;br&gt;&lt;b&gt;BlastP hit with ctg1_3048&lt;/b&gt;&lt;br&gt;Percentage identity: 100&lt;br&gt;Percentage coverage: 100&lt;br&gt;BLAST bit score: 815&lt;br&gt;E-value: 1.07e-302" locus_tag="L960_3808" class="clusterblast-orf" id="dummy-16_h16_1_0"  />
</g>
<g id="a16_001"  >
<polygon points="265,85 270,80 301,80 301,90 270,90 265,85 " style="fill:#15d815; stroke-width:1; stroke:black; " description="&lt;b&gt;L960_3807&lt;/b&gt;&lt;br&gt;serine transporter family protein&lt;br&gt;Location: 20388 - 19056&lt;br&gt;&lt;br&gt;&lt;b&gt;BlastP hit with ctg1_3049&lt;/b&gt;&lt;br&gt;Percentage identity: 100&lt;br&gt;Percentage coverage: 100&lt;br&gt;BLAST bit score: 832&lt;br&gt;E-value: 2.57e-309" locus_tag="L960_3807" class="clusterblast-orf" id="dummy-16_h16_1_1"  />
</g>
<g id="a16_002"  >
<polygon points="309,85 314,80 345,80 345,90 314,90 309,85 " style="fill:#1597d8; stroke-width:1; stroke:black; " description="&lt;b&gt;L960_3806&lt;/b&gt;&lt;br&gt;L-serine dehydratase 3&lt;br&gt;Location: 18782 - 17483&lt;br&gt;&lt;br&gt;&lt;b&gt;BlastP hit with ctg1_3050&lt;/b&gt;&lt;br&gt;Percentage identity: 100&lt;br&gt;Percentage coverage: 95&lt;br&gt;BLAST bit score: 853&lt;br&gt;E-value: 1.09e-317" locus_tag="L960_3806" class="clusterblast-orf" id="dummy-16_h16_1_2"  />
</g>
<g id="a16_003"  >
<polygon points="349,85 354,80 359,80 359,90 354,90 349,85 " style="fill:#9715d8; stroke-width:1; stroke:black; " description="&lt;b&gt;L960_3805&lt;/b&gt;&lt;br&gt;hypothetical protein&lt;br&gt;Location: 17346 - 16956&lt;br&gt;&lt;br&gt;&lt;b&gt;BlastP hit with ctg1_3051&lt;/b&gt;&lt;br&gt;Percentage identity: 100&lt;br&gt;Percentage coverage: 100&lt;br&gt;BLAST bit score: 252&lt;br&gt;E-value: 3.05e-90" locus_tag="L960_3805" class="clusterblast-orf" id="dummy-16_h16_1_3"  />
</g>
<g id="a16_004"  >
<polygon points="360,85 365,80 423,80 423,90 365,90 360,85 " style="fill:#d89715; stroke-width:1; stroke:black; " description="&lt;b&gt;L960_3804&lt;/b&gt;&lt;br&gt;pyruvate formate-lyase 4/2-ketobutyrate formate-lyase&lt;br&gt;Location: 16943 - 14648&lt;br&gt;&lt;br&gt;&lt;b&gt;BlastP hit with ctg1_3052&lt;/b&gt;&lt;br&gt;Percentage identity: 100&lt;br&gt;Percentage coverage: 100&lt;br&gt;BLAST bit score: 1528&lt;br&gt;E-value: 0.0" locus_tag="L960_3804" class="clusterblast-orf" id="dummy-16_h16_1_4"  />
</g>
<g id="a16_005"  >
<polygon points="424,85 429,80 457,80 457,90 429,90 424,85 " style="fill:#15d897; stroke-width:1; stroke:black; " description="&lt;b&gt;L960_3803&lt;/b&gt;&lt;br&gt;propionate/acetate kinase&lt;br&gt;Location: 14615 - 13406&lt;br&gt;&lt;br&gt;&lt;b&gt;BlastP hit with ctg1_3053&lt;/b&gt;&lt;br&gt;Percentage identity: 100&lt;br&gt;Percentage coverage: 100&lt;br&gt;BLAST bit score: 787&lt;br&gt;E-value: 7.08e-293" locus_tag="L960_3803" class="clusterblast-orf" id="dummy-16_h16_1_5"  />
</g>
<g id="a16_006"  >
<polygon points="458,85 463,80 495,80 495,90 463,90 458,85 " style="fill:#1515d8; stroke-width:1; stroke:black; " description="&lt;b&gt;L960_3802&lt;/b&gt;&lt;br&gt;threonine/serine transporter TdcC&lt;br&gt;Location: 13381 - 12049&lt;br&gt;&lt;br&gt;&lt;b&gt;BlastP hit with ctg1_3054&lt;/b&gt;&lt;br&gt;Percentage identity: 100&lt;br&gt;Percentage coverage: 100&lt;br&gt;BLAST bit score: 848&lt;br&gt;E-value: 7.19e-316" locus_tag="L960_3802" class="clusterblast-orf" id="dummy-16_h16_1_6"  />
</g>
<g id="a16_007"  >
<polygon points="495,85 500,80 515,80 515,90 500,90 495,85 " style="fill:#d81597; stroke-width:1; stroke:black; " description="&lt;b&gt;L960_3801&lt;/b&gt;&lt;br&gt;tdcB&lt;br&gt;Location: 12028 - 11323&lt;br&gt;&lt;br&gt;&lt;b&gt;BlastP hit with ctg1_3055&lt;/b&gt;&lt;br&gt;Percentage identity: 100&lt;br&gt;Percentage coverage: 71&lt;br&gt;BLAST bit score: 456&lt;br&gt;E-value: 4.08e-166" locus_tag="L960_3801" class="clusterblast-orf" id="dummy-16_h16_1_7"  />
</g>
<g id="a16_008"  >
<polygon points="514,85 519,80 523,80 523,90 519,90 514,85 " style="fill:white; stroke-width:1; stroke:black; " description="&lt;b&gt;L960_3800&lt;/b&gt;&lt;br&gt;threonine ammonia-lyase&lt;br&gt;Location: 11343 - 11037" locus_tag="L960_3800" class="clusterblast-orf" id="dummy-16_h16_1_8"  />
</g>
<g id="a16_009"  >
<polygon points="525,85 530,80 551,80 551,90 530,90 525,85 " style="fill:#97d815; stroke-width:1; stroke:black; " description="&lt;b&gt;L960_3799&lt;/b&gt;&lt;br&gt;DNA-binding transcriptional activator TdcA&lt;br&gt;Location: 10939 - 10000&lt;br&gt;&lt;br&gt;&lt;b&gt;BlastP hit with ctg1_3056&lt;/b&gt;&lt;br&gt;Percentage identity: 100&lt;br&gt;Percentage coverage: 100&lt;br&gt;BLAST bit score: 598&lt;br&gt;E-value: 2.19e-221" locus_tag="L960_3799" class="clusterblast-orf" id="dummy-16_h16_1_9"  />
</g>
</svg>
