<svg xmlns="http://www.w3.org/2000/svg" xmlns:xlink="http://www.w3.org/1999/xlink" version="1.1" x="0" y="0" height="230" width="800" viewBox="0 0 800 230" preserveAspectRatio="none"  >
<g label="Query sequence" class="clusterblast-cluster"  >
<text x="5" y="20" class="clusterblast-acc"  >
Query sequence</text>
<line x1="10" y1="35" x2="778.0" y2="35" style="stroke-width:1; stroke:grey; "  />
<polygon points="0,35 5,30 24,30 24,40 5,40 0,35 " style="fill:white; stroke-width:1; stroke:black; " description="&lt;b&gt;ctg1_864&lt;/b&gt;&lt;br&gt;ctg1 864&lt;br&gt;Location: 931084 - 932050" locus_tag="ctg1_864" class="clusterblast-orf" id="dummy-4_q0_0_all"  />
<polygon points="38,40 46,40 51,35 46,30 38,30 38,40 " style="fill:white; stroke-width:1; stroke:black; " description="&lt;b&gt;ctg1_865&lt;/b&gt;&lt;br&gt;ctg1 865&lt;br&gt;Location: 932594 - 933089" locus_tag="ctg1_865" class="clusterblast-orf" id="dummy-4_q1_0_all"  />
<polygon points="54,40 150,40 155,35 150,30 54,30 54,40 " style="fill:white; stroke-width:1; stroke:black; " description="&lt;b&gt;ctg1_866&lt;/b&gt;&lt;br&gt;ctg1 866&lt;br&gt;Location: 933223 - 937213" locus_tag="ctg1_866" class="clusterblast-orf" id="dummy-4_q2_0_all"  />
<polygon points="159,40 169,40 174,35 169,30 159,30 159,40 " style="fill:white; stroke-width:1; stroke:black; " description="&lt;b&gt;ctg1_867&lt;/b&gt;&lt;br&gt;ctg1 867&lt;br&gt;Location: 937371 - 937983" locus_tag="ctg1_867" class="clusterblast-orf" id="dummy-4_q3_0_all"  />
<polygon points="175,40 204,40 209,35 204,30 175,30 175,40 " style="fill:white; stroke-width:1; stroke:black; " description="&lt;b&gt;ctg1_868&lt;/b&gt;&lt;br&gt;ctg1 868&lt;br&gt;Location: 937993 - 939337" locus_tag="ctg1_868" class="clusterblast-orf" id="dummy-4_q4_0_all"  />
<polygon points="211,40 239,40 244,35 239,30 211,30 211,40 " style="fill:white; stroke-width:1; stroke:black; " description="&lt;b&gt;ctg1_869&lt;/b&gt;&lt;br&gt;ctg1 869&lt;br&gt;Location: 939427 - 940720" locus_tag="ctg1_869" class="clusterblast-orf" id="dummy-4_q5_0_all"  />
<polygon points="250,40 307,40 312,35 307,30 250,30 250,40 " style="fill:#d81515; stroke-width:1; stroke:black; " description="&lt;b&gt;ctg1_870&lt;/b&gt;&lt;br&gt;ctg1 870&lt;br&gt;Location: 940958 - 943403" locus_tag="ctg1_870" class="clusterblast-orf" id="dummy-4_q6_0_all"  />
<polygon points="312,40 323,40 328,35 323,30 312,30 312,40 " style="fill:#15d863; stroke-width:1; stroke:black; " description="&lt;b&gt;ctg1_871&lt;/b&gt;&lt;br&gt;ctg1 871&lt;br&gt;Location: 943413 - 944031" locus_tag="ctg1_871" class="clusterblast-orf" id="dummy-4_q7_0_all"  />
<polygon points="328,40 345,40 350,35 345,30 328,30 328,40 " style="fill:#1563d8; stroke-width:1; stroke:black; " description="&lt;b&gt;ctg1_872&lt;/b&gt;&lt;br&gt;ctg1 872&lt;br&gt;Location: 944032 - 944896" locus_tag="ctg1_872" class="clusterblast-orf" id="dummy-4_q8_0_all"  />
<polygon points="350,35 355,30 366,30 366,40 355,40 350,35 " style="fill:white; stroke-width:1; stroke:black; " description="&lt;b&gt;ctg1_873&lt;/b&gt;&lt;br&gt;ctg1 873&lt;br&gt;Location: 944930 - 945557" locus_tag="ctg1_873" class="clusterblast-orf" id="dummy-4_q9_0_all"  />
<polygon points="374,40 398,40 403,35 398,30 374,30 374,40 " style="fill:white; stroke-width:1; stroke:black; " description="&lt;b&gt;ctg1_874&lt;/b&gt;&lt;br&gt;ctg1 874&lt;br&gt;Location: 945870 - 947019" locus_tag="ctg1_874" class="clusterblast-orf" id="dummy-4_q10_0_all"  />
<polygon points="409,40 440,40 445,35 440,30 409,30 409,40 " style="fill:white; stroke-width:1; stroke:black; " description="&lt;b&gt;ctg1_875&lt;/b&gt;&lt;br&gt;ctg1 875&lt;br&gt;Location: 947228 - 948659" locus_tag="ctg1_875" class="clusterblast-orf" id="dummy-4_q11_0_all"  />
<polygon points="445,35 450,30 468,30 468,40 450,40 445,35 " style="fill:white; stroke-width:1; stroke:black; " description="&lt;b&gt;ctg1_876&lt;/b&gt;&lt;br&gt;ctg1 876&lt;br&gt;Location: 948659 - 949568" locus_tag="ctg1_876" class="clusterblast-orf" id="dummy-4_q12_0_all"  />
<polygon points="470,40 480,40 485,35 480,30 470,30 470,40 " style="fill:white; stroke-width:1; stroke:black; " description="&lt;b&gt;ctg1_877&lt;/b&gt;&lt;br&gt;ctg1 877&lt;br&gt;Location: 949667 - 950258" locus_tag="ctg1_877" class="clusterblast-orf" id="dummy-4_q13_0_all"  />
<polygon points="487,35 492,30 506,30 506,40 492,40 487,35 " style="fill:#b115d8; stroke-width:1; stroke:black; " description="&lt;b&gt;ctg1_878&lt;/b&gt;&lt;br&gt;ctg1 878&lt;br&gt;Location: 950339 - 951080" locus_tag="ctg1_878" class="clusterblast-orf" id="dummy-4_q14_0_all"  />
<polygon points="511,35 516,30 569,30 569,40 516,40 511,35 " style="fill:#b1d815; stroke-width:1; stroke:black; " description="&lt;b&gt;ctg1_879&lt;/b&gt;&lt;br&gt;ctg1 879&lt;br&gt;Location: 951271 - 953554" locus_tag="ctg1_879" class="clusterblast-orf" id="dummy-4_q15_0_all"  />
<polygon points="570,35 575,30 592,30 592,40 575,40 570,35 " style="fill:white; stroke-width:1; stroke:black; " description="&lt;b&gt;ctg1_880&lt;/b&gt;&lt;br&gt;ctg1 880&lt;br&gt;Location: 953608 - 954466" locus_tag="ctg1_880" class="clusterblast-orf" id="dummy-4_q16_0_all"  />
<polygon points="602,35 607,30 647,30 647,40 607,40 602,35 " style="fill:white; stroke-width:1; stroke:black; " description="&lt;b&gt;ctg1_881&lt;/b&gt;&lt;br&gt;ctg1 881&lt;br&gt;Location: 954871 - 956632" locus_tag="ctg1_881" class="clusterblast-orf" id="dummy-4_q17_0_all"  />
<polygon points="650,40 663,40 668,35 663,30 650,30 650,40 " style="fill:white; stroke-width:1; stroke:black; " description="&lt;b&gt;ctg1_882&lt;/b&gt;&lt;br&gt;ctg1 882&lt;br&gt;Location: 956761 - 957454" locus_tag="ctg1_882" class="clusterblast-orf" id="dummy-4_q18_0_all"  />
<polygon points="673,40 695,40 700,35 695,30 673,30 673,40 " style="fill:white; stroke-width:1; stroke:black; " description="&lt;b&gt;ctg1_883&lt;/b&gt;&lt;br&gt;ctg1 883&lt;br&gt;Location: 957652 - 958741" locus_tag="ctg1_883" class="clusterblast-orf" id="dummy-4_q19_0_all"  />
<polygon points="702,40 729,40 734,35 729,30 702,30 702,40 " style="fill:white; stroke-width:1; stroke:black; " description="&lt;b&gt;ctg1_884&lt;/b&gt;&lt;br&gt;ctg1 884&lt;br&gt;Location: 958811 - 960095" locus_tag="ctg1_884" class="clusterblast-orf" id="dummy-4_q20_0_all"  />
<polygon points="739,40 753,40 758,35 753,30 739,30 739,40 " style="fill:white; stroke-width:1; stroke:black; " description="&lt;b&gt;ctg1_885&lt;/b&gt;&lt;br&gt;ctg1 885&lt;br&gt;Location: 960263 - 961028" locus_tag="ctg1_885" class="clusterblast-orf" id="dummy-4_q21_0_all"  />
<polygon points="762,40 775,40 780,35 775,30 762,30 762,40 " style="fill:white; stroke-width:1; stroke:black; " description="&lt;b&gt;ctg1_886&lt;/b&gt;&lt;br&gt;ctg1 886&lt;br&gt;Location: 961200 - 961884" locus_tag="ctg1_886" class="clusterblast-orf" id="dummy-4_q22_0_all"  />
</g>
<g label="MGC00000034" description="MGC00000034_c1: Pyruvate to acetate-formate B. thetaiotaomicron (100% of genes show similarity), PFL_acetate" class="clusterblast-cluster"  >
<text x="5" y="70" class="clusterblast-acc"  >
MGC00000034_c1: Pyruvate to acetate-formate B. thetaiotaomicron (100% of genes show similarity), PFL_acetate</text>
<line x1="10" y1="85" x2="778.0" y2="85" style="stroke-width:1; stroke:grey; "  />
</g>
<g id="a4_000"  >
<polygon points="352,85 357,80 370,80 370,90 357,90 352,85 " style="fill:#b115d8; stroke-width:1; stroke:black; " description="&lt;b&gt;BT_4737&lt;/b&gt;&lt;br&gt;pyruvate formate-lyase activating enzyme&lt;br&gt;Location: 10000 - 10729&lt;br&gt;&lt;br&gt;&lt;b&gt;BlastP hit with ctg1_878&lt;/b&gt;&lt;br&gt;Percentage identity: 43&lt;br&gt;Percentage coverage: 96&lt;br&gt;BLAST bit score: 209&lt;br&gt;E-value: 1.18e-69" locus_tag="BT_4737" class="clusterblast-orf" id="dummy-4_h4_4_0"  />
</g>
<g id="a4_001"  >
<polygon points="371,85 376,80 427,80 427,90 376,90 371,85 " style="fill:#b1d815; stroke-width:1; stroke:black; " description="&lt;b&gt;BT_4738&lt;/b&gt;&lt;br&gt;formate acetyltransferase&lt;br&gt;Location: 10742 - 12971&lt;br&gt;&lt;br&gt;&lt;b&gt;BlastP hit with ctg1_879&lt;/b&gt;&lt;br&gt;Percentage identity: 57&lt;br&gt;Percentage coverage: 98&lt;br&gt;BLAST bit score: 813&lt;br&gt;E-value: 5.6e-292" locus_tag="BT_4738" class="clusterblast-orf" id="dummy-4_h4_4_1"  />
</g>
</svg>
