<svg xmlns="http://www.w3.org/2000/svg" xmlns:xlink="http://www.w3.org/1999/xlink" version="1.1" x="0" y="0" height="50" width="800" viewBox="0 0 800 50" preserveAspectRatio="none"  >
<g label="Query sequence" class="clusterblast-cluster"  >
<text x="5" y="20" class="clusterblast-acc"  >
Query sequence</text>
<line x1="10" y1="35" x2="778.0" y2="35" style="stroke-width:1; stroke:grey; "  />
<polygon points="0,35 5,30 32,30 32,40 5,40 0,35 " style="fill:white; stroke-width:1; stroke:black; " description="&lt;b&gt;ctg1_2300&lt;/b&gt;&lt;br&gt;ctg1 2300&lt;br&gt;Location: 2447507 - 2448440" locus_tag="ctg1_2300" class="clusterblast-orf" id="knownclusterblast-12_q0_0_all"  />
<polygon points="37,40 51,40 56,35 51,30 37,30 37,40 " style="fill:white; stroke-width:1; stroke:black; " description="&lt;b&gt;ctg1_2301&lt;/b&gt;&lt;br&gt;ctg1 2301&lt;br&gt;Location: 2448605 - 2449157" locus_tag="ctg1_2301" class="clusterblast-orf" id="knownclusterblast-12_q1_0_all"  />
<polygon points="58,35 63,30 86,30 86,40 63,40 58,35 " style="fill:white; stroke-width:1; stroke:black; " description="&lt;b&gt;ctg1_2302&lt;/b&gt;&lt;br&gt;ctg1 2302&lt;br&gt;Location: 2449227 - 2450049" locus_tag="ctg1_2302" class="clusterblast-orf" id="knownclusterblast-12_q2_0_all"  />
<polygon points="86,35 91,30 105,30 105,40 91,40 86,35 " style="fill:white; stroke-width:1; stroke:black; " description="&lt;b&gt;ctg1_2303&lt;/b&gt;&lt;br&gt;ctg1 2303&lt;br&gt;Location: 2450050 - 2450590" locus_tag="ctg1_2303" class="clusterblast-orf" id="knownclusterblast-12_q3_0_all"  />
<polygon points="104,35 109,30 121,30 121,40 109,40 104,35 " style="fill:white; stroke-width:1; stroke:black; " description="&lt;b&gt;ctg1_2304&lt;/b&gt;&lt;br&gt;ctg1 2304&lt;br&gt;Location: 2450586 - 2451075" locus_tag="ctg1_2304" class="clusterblast-orf" id="knownclusterblast-12_q4_0_all"  />
<polygon points="121,35 126,30 138,30 138,40 126,40 121,35 " style="fill:white; stroke-width:1; stroke:black; " description="&lt;b&gt;ctg1_2305&lt;/b&gt;&lt;br&gt;ctg1 2305&lt;br&gt;Location: 2451071 - 2451584" locus_tag="ctg1_2305" class="clusterblast-orf" id="knownclusterblast-12_q5_0_all"  />
<polygon points="138,35 143,30 164,30 164,40 143,40 138,35 " style="fill:white; stroke-width:1; stroke:black; " description="&lt;b&gt;ctg1_2306&lt;/b&gt;&lt;br&gt;ctg1 2306&lt;br&gt;Location: 2451583 - 2452336" locus_tag="ctg1_2306" class="clusterblast-orf" id="knownclusterblast-12_q6_0_all"  />
<polygon points="165,35 170,30 195,30 195,40 170,40 165,35 " style="fill:white; stroke-width:1; stroke:black; " description="&lt;b&gt;ctg1_2307&lt;/b&gt;&lt;br&gt;ctg1 2307&lt;br&gt;Location: 2452355 - 2453252" locus_tag="ctg1_2307" class="clusterblast-orf" id="knownclusterblast-12_q7_0_all"  />
<polygon points="195,35 200,30 254,30 254,40 200,40 195,35 " style="fill:white; stroke-width:1; stroke:black; " description="&lt;b&gt;ctg1_2308&lt;/b&gt;&lt;br&gt;ctg1 2308&lt;br&gt;Location: 2453264 - 2455001" locus_tag="ctg1_2308" class="clusterblast-orf" id="knownclusterblast-12_q8_0_all"  />
<polygon points="257,35 262,30 276,30 276,40 262,40 257,35 " style="fill:white; stroke-width:1; stroke:black; " description="&lt;b&gt;ctg1_2309&lt;/b&gt;&lt;br&gt;ctg1 2309&lt;br&gt;Location: 2455082 - 2455646" locus_tag="ctg1_2309" class="clusterblast-orf" id="knownclusterblast-12_q9_0_all"  />
<polygon points="300,35 305,30 316,30 316,40 305,40 300,35 " style="fill:white; stroke-width:1; stroke:black; " description="&lt;b&gt;ctg1_2310&lt;/b&gt;&lt;br&gt;ctg1 2310&lt;br&gt;Location: 2456326 - 2456812" locus_tag="ctg1_2310" class="clusterblast-orf" id="knownclusterblast-12_q10_0_all"  />
<polygon points="323,35 328,30 396,30 396,40 328,40 323,35 " style="fill:white; stroke-width:1; stroke:black; " description="&lt;b&gt;ctg1_2311&lt;/b&gt;&lt;br&gt;ctg1 2311&lt;br&gt;Location: 2457014 - 2459159" locus_tag="ctg1_2311" class="clusterblast-orf" id="knownclusterblast-12_q11_0_all"  />
<polygon points="396,35 401,30 440,30 440,40 401,40 396,35 " style="fill:white; stroke-width:1; stroke:black; " description="&lt;b&gt;ctg1_2312&lt;/b&gt;&lt;br&gt;ctg1 2312&lt;br&gt;Location: 2459158 - 2460469" locus_tag="ctg1_2312" class="clusterblast-orf" id="knownclusterblast-12_q12_0_all"  />
<polygon points="446,35 451,30 456,30 456,40 451,40 446,35 " style="fill:white; stroke-width:1; stroke:black; " description="&lt;b&gt;ctg1_2313&lt;/b&gt;&lt;br&gt;ctg1 2313&lt;br&gt;Location: 2460649 - 2460934" locus_tag="ctg1_2313" class="clusterblast-orf" id="knownclusterblast-12_q13_0_all"  />
<polygon points="469,40 509,40 514,35 509,30 469,30 469,40 " style="fill:white; stroke-width:1; stroke:black; " description="&lt;b&gt;ctg1_2314&lt;/b&gt;&lt;br&gt;ctg1 2314&lt;br&gt;Location: 2461305 - 2462646" locus_tag="ctg1_2314" class="clusterblast-orf" id="knownclusterblast-12_q14_0_all"  />
<polygon points="527,40 558,40 563,35 558,30 527,30 527,40 " style="fill:white; stroke-width:1; stroke:black; " description="&lt;b&gt;ctg1_2315&lt;/b&gt;&lt;br&gt;ctg1 2315&lt;br&gt;Location: 2463011 - 2464070" locus_tag="ctg1_2315" class="clusterblast-orf" id="knownclusterblast-12_q15_0_all"  />
<polygon points="569,35 574,30 594,30 594,40 574,40 569,35 " style="fill:white; stroke-width:1; stroke:black; " description="&lt;b&gt;ctg1_2316&lt;/b&gt;&lt;br&gt;ctg1 2316&lt;br&gt;Location: 2464251 - 2465007" locus_tag="ctg1_2316" class="clusterblast-orf" id="knownclusterblast-12_q16_0_all"  />
<polygon points="604,40 631,40 636,35 631,30 604,30 604,40 " style="fill:white; stroke-width:1; stroke:black; " description="&lt;b&gt;ctg1_2317&lt;/b&gt;&lt;br&gt;ctg1 2317&lt;br&gt;Location: 2465300 - 2466233" locus_tag="ctg1_2317" class="clusterblast-orf" id="knownclusterblast-12_q17_0_all"  />
<polygon points="647,40 681,40 686,35 681,30 647,30 647,40 " style="fill:white; stroke-width:1; stroke:black; " description="&lt;b&gt;ctg1_2318&lt;/b&gt;&lt;br&gt;ctg1 2318&lt;br&gt;Location: 2466544 - 2467702" locus_tag="ctg1_2318" class="clusterblast-orf" id="knownclusterblast-12_q18_0_all"  />
<polygon points="703,40 730,40 735,35 730,30 703,30 703,40 " style="fill:white; stroke-width:1; stroke:black; " description="&lt;b&gt;ctg1_2319&lt;/b&gt;&lt;br&gt;ctg1 2319&lt;br&gt;Location: 2468213 - 2469134" locus_tag="ctg1_2319" class="clusterblast-orf" id="knownclusterblast-12_q19_0_all"  />
<polygon points="735,40 775,40 780,35 775,30 735,30 735,40 " style="fill:white; stroke-width:1; stroke:black; " description="&lt;b&gt;ctg1_2320&lt;/b&gt;&lt;br&gt;ctg1 2320&lt;br&gt;Location: 2469130 - 2470462" locus_tag="ctg1_2320" class="clusterblast-orf" id="knownclusterblast-12_q20_0_all"  />
</g>
</svg>
