<svg xmlns="http://www.w3.org/2000/svg" xmlns:xlink="http://www.w3.org/1999/xlink" version="1.1" x="0" y="0" height="230" width="800" viewBox="0 0 800 230" preserveAspectRatio="none"  >
<g label="Query sequence" class="clusterblast-cluster"  >
<text x="5" y="20" class="clusterblast-acc"  >
Query sequence</text>
<line x1="10" y1="35" x2="778.0" y2="35" style="stroke-width:1; stroke:grey; "  />
<polygon points="0,35 5,30 7,30 7,40 5,40 0,35 " style="fill:white; stroke-width:1; stroke:black; " description="&lt;b&gt;ctg1_2235&lt;/b&gt;&lt;br&gt;ctg1 2235&lt;br&gt;Location: 2380721 - 2381027" locus_tag="ctg1_2235" class="clusterblast-orf" id="dummy-11_q0_0_all"  />
<polygon points="8,35 13,30 19,30 19,40 13,40 8,35 " style="fill:white; stroke-width:1; stroke:black; " description="&lt;b&gt;ctg1_2236&lt;/b&gt;&lt;br&gt;ctg1 2236&lt;br&gt;Location: 2381081 - 2381543" locus_tag="ctg1_2236" class="clusterblast-orf" id="dummy-11_q1_0_all"  />
<polygon points="20,40 36,40 41,35 36,30 20,30 20,40 " style="fill:white; stroke-width:1; stroke:black; " description="&lt;b&gt;ctg1_2237&lt;/b&gt;&lt;br&gt;ctg1 2237&lt;br&gt;Location: 2381607 - 2382525" locus_tag="ctg1_2237" class="clusterblast-orf" id="dummy-11_q2_0_all"  />
<polygon points="46,40 68,40 73,35 68,30 46,30 46,40 " style="fill:white; stroke-width:1; stroke:black; " description="&lt;b&gt;ctg1_2238&lt;/b&gt;&lt;br&gt;ctg1 2238&lt;br&gt;Location: 2382715 - 2383924" locus_tag="ctg1_2238" class="clusterblast-orf" id="dummy-11_q3_0_all"  />
<polygon points="75,35 80,30 115,30 115,40 80,40 75,35 " style="fill:white; stroke-width:1; stroke:black; " description="&lt;b&gt;ctg1_2239&lt;/b&gt;&lt;br&gt;ctg1 2239&lt;br&gt;Location: 2383994 - 2385722" locus_tag="ctg1_2239" class="clusterblast-orf" id="dummy-11_q4_0_all"  />
<polygon points="118,40 135,40 140,35 135,30 118,30 118,40 " style="fill:white; stroke-width:1; stroke:black; " description="&lt;b&gt;ctg1_2240&lt;/b&gt;&lt;br&gt;ctg1 2240&lt;br&gt;Location: 2385859 - 2386831" locus_tag="ctg1_2240" class="clusterblast-orf" id="dummy-11_q5_0_all"  />
<polygon points="142,40 149,40 154,35 149,30 142,30 142,40 " style="fill:white; stroke-width:1; stroke:black; " description="&lt;b&gt;ctg1_2241&lt;/b&gt;&lt;br&gt;ctg1 2241&lt;br&gt;Location: 2386933 - 2387437" locus_tag="ctg1_2241" class="clusterblast-orf" id="dummy-11_q6_0_all"  />
<polygon points="160,35 165,30 177,30 177,40 165,40 160,35 " style="fill:white; stroke-width:1; stroke:black; " description="&lt;b&gt;ctg1_2242&lt;/b&gt;&lt;br&gt;ctg1 2242&lt;br&gt;Location: 2387709 - 2388426" locus_tag="ctg1_2242" class="clusterblast-orf" id="dummy-11_q7_0_all"  />
<polygon points="182,40 186,40 191,35 186,30 182,30 182,40 " style="fill:white; stroke-width:1; stroke:black; " description="&lt;b&gt;ctg1_2243&lt;/b&gt;&lt;br&gt;ctg1 2243&lt;br&gt;Location: 2388634 - 2389057" locus_tag="ctg1_2243" class="clusterblast-orf" id="dummy-11_q8_0_all"  />
<polygon points="193,40 207,40 212,35 207,30 193,30 193,40 " style="fill:white; stroke-width:1; stroke:black; " description="&lt;b&gt;ctg1_2244&lt;/b&gt;&lt;br&gt;ctg1 2244&lt;br&gt;Location: 2389115 - 2389964" locus_tag="ctg1_2244" class="clusterblast-orf" id="dummy-11_q9_0_all"  />
<polygon points="214,35 219,30 247,30 247,40 219,40 214,35 " style="fill:#d81515; stroke-width:1; stroke:black; " description="&lt;b&gt;ctg1_2245&lt;/b&gt;&lt;br&gt;ctg1 2245&lt;br&gt;Location: 2390047 - 2391505" locus_tag="ctg1_2245" class="clusterblast-orf" id="dummy-11_q10_0_all"  />
<polygon points="248,35 253,30 283,30 283,40 253,40 248,35 " style="fill:#33d815; stroke-width:1; stroke:black; " description="&lt;b&gt;ctg1_2246&lt;/b&gt;&lt;br&gt;ctg1 2246&lt;br&gt;Location: 2391511 - 2393041" locus_tag="ctg1_2246" class="clusterblast-orf" id="dummy-11_q11_0_all"  />
<polygon points="287,35 292,30 329,30 329,40 292,40 287,35 " style="fill:#15abd8; stroke-width:1; stroke:black; " description="&lt;b&gt;ctg1_2247&lt;/b&gt;&lt;br&gt;ctg1 2247&lt;br&gt;Location: 2393204 - 2395046" locus_tag="ctg1_2247" class="clusterblast-orf" id="dummy-11_q12_0_all"  />
<polygon points="329,35 334,30 336,30 336,40 334,40 329,35 " style="fill:#8d15d8; stroke-width:1; stroke:black; " description="&lt;b&gt;ctg1_2248&lt;/b&gt;&lt;br&gt;ctg1 2248&lt;br&gt;Location: 2395042 - 2395345" locus_tag="ctg1_2248" class="clusterblast-orf" id="dummy-11_q13_0_all"  />
<polygon points="336,35 341,30 348,30 348,40 341,40 336,35 " style="fill:#d86f15; stroke-width:1; stroke:black; " description="&lt;b&gt;ctg1_2249&lt;/b&gt;&lt;br&gt;ctg1 2249&lt;br&gt;Location: 2395341 - 2395896" locus_tag="ctg1_2249" class="clusterblast-orf" id="dummy-11_q14_0_all"  />
<polygon points="349,35 354,30 361,30 361,40 354,40 349,35 " style="fill:#15d851; stroke-width:1; stroke:black; " description="&lt;b&gt;ctg1_2250&lt;/b&gt;&lt;br&gt;ctg1 2250&lt;br&gt;Location: 2395907 - 2396450" locus_tag="ctg1_2250" class="clusterblast-orf" id="dummy-11_q15_0_all"  />
<polygon points="361,35 366,30 384,30 384,40 366,40 361,35 " style="fill:#1551d8; stroke-width:1; stroke:black; " description="&lt;b&gt;ctg1_2251&lt;/b&gt;&lt;br&gt;ctg1 2251&lt;br&gt;Location: 2396464 - 2397442" locus_tag="ctg1_2251" class="clusterblast-orf" id="dummy-11_q16_0_all"  />
<polygon points="384,35 389,30 446,30 446,40 389,40 384,35 " style="fill:#d815c9; stroke-width:1; stroke:black; " description="&lt;b&gt;ctg1_2252&lt;/b&gt;&lt;br&gt;ctg1 2252&lt;br&gt;Location: 2397438 - 2400165" locus_tag="ctg1_2252" class="clusterblast-orf" id="dummy-11_q17_0_all"  />
<polygon points="448,35 453,30 478,30 478,40 453,40 448,35 " style="fill:#d8c915; stroke-width:1; stroke:black; " description="&lt;b&gt;ctg1_2253&lt;/b&gt;&lt;br&gt;ctg1 2253&lt;br&gt;Location: 2400217 - 2401555" locus_tag="ctg1_2253" class="clusterblast-orf" id="dummy-11_q18_0_all"  />
<polygon points="478,35 483,30 490,30 490,40 483,40 478,35 " style="fill:#15d8ab; stroke-width:1; stroke:black; " description="&lt;b&gt;ctg1_2254&lt;/b&gt;&lt;br&gt;ctg1 2254&lt;br&gt;Location: 2401551 - 2402052" locus_tag="ctg1_2254" class="clusterblast-orf" id="dummy-11_q19_0_all"  />
<polygon points="490,35 495,30 531,30 531,40 495,40 490,35 " style="fill:#3315d8; stroke-width:1; stroke:black; " description="&lt;b&gt;ctg1_2255&lt;/b&gt;&lt;br&gt;ctg1 2255&lt;br&gt;Location: 2402054 - 2403857" locus_tag="ctg1_2255" class="clusterblast-orf" id="dummy-11_q20_0_all"  />
<polygon points="533,35 538,30 549,30 549,40 538,40 533,35 " style="fill:#d8156f; stroke-width:1; stroke:black; " description="&lt;b&gt;ctg1_2256&lt;/b&gt;&lt;br&gt;ctg1 2256&lt;br&gt;Location: 2403950 - 2404613" locus_tag="ctg1_2256" class="clusterblast-orf" id="dummy-11_q21_0_all"  />
<polygon points="549,35 554,30 559,30 559,40 554,40 549,35 " style="fill:#8dd815; stroke-width:1; stroke:black; " description="&lt;b&gt;ctg1_2257&lt;/b&gt;&lt;br&gt;ctg1 2257&lt;br&gt;Location: 2404628 - 2405072" locus_tag="ctg1_2257" class="clusterblast-orf" id="dummy-11_q22_0_all"  />
<polygon points="565,40 569,35 565,30 565,40 " style="fill:white; stroke-width:1; stroke:black; " description="&lt;b&gt;ctg1_2258&lt;/b&gt;&lt;br&gt;ctg1 2258&lt;br&gt;Location: 2405334 - 2405499" locus_tag="ctg1_2258" class="clusterblast-orf" id="dummy-11_q23_0_all"  />
<polygon points="574,35 579,30 595,30 595,40 579,40 574,35 " style="fill:white; stroke-width:1; stroke:black; " description="&lt;b&gt;ctg1_2259&lt;/b&gt;&lt;br&gt;ctg1 2259&lt;br&gt;Location: 2405702 - 2406641" locus_tag="ctg1_2259" class="clusterblast-orf" id="dummy-11_q24_0_all"  />
<polygon points="616,40 639,40 644,35 639,30 616,30 616,40 " style="fill:white; stroke-width:1; stroke:black; " description="&lt;b&gt;ctg1_2260&lt;/b&gt;&lt;br&gt;ctg1 2260&lt;br&gt;Location: 2407560 - 2408778" locus_tag="ctg1_2260" class="clusterblast-orf" id="dummy-11_q25_0_all"  />
<polygon points="646,40 655,40 660,35 655,30 646,30 646,40 " style="fill:white; stroke-width:1; stroke:black; " description="&lt;b&gt;ctg1_2261&lt;/b&gt;&lt;br&gt;ctg1 2261&lt;br&gt;Location: 2408861 - 2409461" locus_tag="ctg1_2261" class="clusterblast-orf" id="dummy-11_q26_0_all"  />
<polygon points="661,35 666,30 703,30 703,40 666,40 661,35 " style="fill:white; stroke-width:1; stroke:black; " description="&lt;b&gt;ctg1_2262&lt;/b&gt;&lt;br&gt;ctg1 2262&lt;br&gt;Location: 2409519 - 2411352" locus_tag="ctg1_2262" class="clusterblast-orf" id="dummy-11_q27_0_all"  />
<polygon points="705,35 710,30 720,30 720,40 710,40 705,35 " style="fill:white; stroke-width:1; stroke:black; " description="&lt;b&gt;ctg1_2263&lt;/b&gt;&lt;br&gt;ctg1 2263&lt;br&gt;Location: 2411438 - 2412089" locus_tag="ctg1_2263" class="clusterblast-orf" id="dummy-11_q28_0_all"  />
<polygon points="721,35 726,30 732,30 732,40 726,40 721,35 " style="fill:white; stroke-width:1; stroke:black; " description="&lt;b&gt;ctg1_2264&lt;/b&gt;&lt;br&gt;ctg1 2264&lt;br&gt;Location: 2412099 - 2412594" locus_tag="ctg1_2264" class="clusterblast-orf" id="dummy-11_q29_0_all"  />
<polygon points="734,35 739,30 744,30 744,40 739,40 734,35 " style="fill:white; stroke-width:1; stroke:black; " description="&lt;b&gt;ctg1_2265&lt;/b&gt;&lt;br&gt;ctg1 2265&lt;br&gt;Location: 2412676 - 2413132" locus_tag="ctg1_2265" class="clusterblast-orf" id="dummy-11_q30_0_all"  />
<polygon points="752,40 775,40 780,35 775,30 752,30 752,40 " style="fill:white; stroke-width:1; stroke:black; " description="&lt;b&gt;ctg1_2266&lt;/b&gt;&lt;br&gt;ctg1 2266&lt;br&gt;Location: 2413469 - 2414672" locus_tag="ctg1_2266" class="clusterblast-orf" id="dummy-11_q31_0_all"  />
</g>
<g label="MGC00000056" description="MGC00000056_c1: NADH dehydrogenase I Bacteroides sp. (28% of genes show similarity), NADHD" class="clusterblast-cluster"  >
<text x="5" y="70" class="clusterblast-acc"  >
MGC00000056_c1: NADH dehydrogenase I Bacteroides sp. (28% of genes show similarity), NADHD</text>
<line x1="10" y1="85" x2="778.0" y2="85" style="stroke-width:1; stroke:grey; "  />
</g>
<g id="a11_000"  >
<polygon points="82,85 87,80 107,80 107,90 87,90 82,85 " style="fill:white; stroke-width:1; stroke:black; " description="&lt;b&gt;BSHG_0791&lt;/b&gt;&lt;br&gt;hypothetical protein&lt;br&gt;Location: 1613 - 2732" locus_tag="BSHG_0791" class="clusterblast-orf" id="dummy-11_h11_2_0"  />
</g>
<g id="a11_001"  >
<polygon points="110,85 115,80 139,80 139,90 115,90 110,85 " style="fill:white; stroke-width:1; stroke:black; " description="&lt;b&gt;BSHG_0790&lt;/b&gt;&lt;br&gt;hypothetical protein&lt;br&gt;Location: 2834 - 4109" locus_tag="BSHG_0790" class="clusterblast-orf" id="dummy-11_h11_2_1"  />
</g>
<g id="a11_002"  >
<polygon points="141,85 146,80 203,80 203,90 146,90 141,85 " style="fill:white; stroke-width:1; stroke:black; " description="&lt;b&gt;BSHG_0789&lt;/b&gt;&lt;br&gt;hypothetical protein&lt;br&gt;Location: 4177 - 6877" locus_tag="BSHG_0789" class="clusterblast-orf" id="dummy-11_h11_2_2"  />
</g>
<g id="a11_003"  >
<polygon points="208,90 267,90 272,85 267,80 208,80 208,90 " style="fill:white; stroke-width:1; stroke:black; " description="&lt;b&gt;BSHG_0787&lt;/b&gt;&lt;br&gt;hypothetical protein&lt;br&gt;Location: 7114 - 9904" locus_tag="BSHG_0787" class="clusterblast-orf" id="dummy-11_h11_2_3"  />
</g>
<g id="a11_004"  >
<polygon points="274,85 279,80 308,80 308,90 279,90 274,85 " style="fill:#d81515; stroke-width:1; stroke:black; " description="&lt;b&gt;BSHG_0786&lt;/b&gt;&lt;br&gt;NADH-quinone oxidoreductase subunit N&lt;br&gt;Location: 10000 - 11452&lt;br&gt;&lt;br&gt;&lt;b&gt;BlastP hit with ctg1_2245&lt;/b&gt;&lt;br&gt;Percentage identity: 34&lt;br&gt;Percentage coverage: 80&lt;br&gt;BLAST bit score: 204&lt;br&gt;E-value: 5.91e-62" locus_tag="BSHG_0786" class="clusterblast-orf" id="dummy-11_h11_2_4"  />
</g>
<g id="a11_005"  >
<polygon points="308,85 313,80 342,80 342,90 313,90 308,85 " style="fill:white; stroke-width:1; stroke:black; " description="&lt;b&gt;BSHG_0785&lt;/b&gt;&lt;br&gt;proton-translocating NADH-quinone oxidoreductase, chain M&lt;br&gt;Location: 11458 - 12943" locus_tag="BSHG_0785" class="clusterblast-orf" id="dummy-11_h11_2_5"  />
</g>
<g id="a11_006"  >
<polygon points="342,85 347,80 386,80 386,90 347,90 342,85 " style="fill:#15abd8; stroke-width:1; stroke:black; " description="&lt;b&gt;BSHG_0784&lt;/b&gt;&lt;br&gt;proton-translocating NADH-quinone oxidoreductase, chain L&lt;br&gt;Location: 12955 - 14866&lt;br&gt;&lt;br&gt;&lt;b&gt;BlastP hit with ctg1_2247&lt;/b&gt;&lt;br&gt;Percentage identity: 39&lt;br&gt;Percentage coverage: 90&lt;br&gt;BLAST bit score: 305&lt;br&gt;E-value: 2.22e-97" locus_tag="BSHG_0784" class="clusterblast-orf" id="dummy-11_h11_2_6"  />
</g>
<g id="a11_007"  >
<polygon points="387,85 392,80 394,80 394,90 392,90 387,85 " style="fill:white; stroke-width:1; stroke:black; " description="&lt;b&gt;BSHG_0783&lt;/b&gt;&lt;br&gt;hypothetical protein&lt;br&gt;Location: 14902 - 15214" locus_tag="BSHG_0783" class="clusterblast-orf" id="dummy-11_h11_2_7"  />
</g>
<g id="a11_008"  >
<polygon points="394,85 399,80 406,80 406,90 399,90 394,85 " style="fill:white; stroke-width:1; stroke:black; " description="&lt;b&gt;BSHG_0782&lt;/b&gt;&lt;br&gt;hypothetical protein&lt;br&gt;Location: 15220 - 15733" locus_tag="BSHG_0782" class="clusterblast-orf" id="dummy-11_h11_2_8"  />
</g>
<g id="a11_009"  >
<polygon points="406,85 411,80 417,80 417,90 411,90 406,85 " style="fill:white; stroke-width:1; stroke:black; " description="&lt;b&gt;BSHG_0781&lt;/b&gt;&lt;br&gt;NADH-quinone oxidoreductase, chain I&lt;br&gt;Location: 15739 - 16219" locus_tag="BSHG_0781" class="clusterblast-orf" id="dummy-11_h11_2_9"  />
</g>
<g id="a11_0010"  >
<polygon points="418,85 423,80 442,80 442,90 423,90 418,85 " style="fill:#1551d8; stroke-width:1; stroke:black; " description="&lt;b&gt;BSHG_0780&lt;/b&gt;&lt;br&gt;NADH-quinone oxidoreductase subunit H&lt;br&gt;Location: 16235 - 17312&lt;br&gt;&lt;br&gt;&lt;b&gt;BlastP hit with ctg1_2251&lt;/b&gt;&lt;br&gt;Percentage identity: 39&lt;br&gt;Percentage coverage: 107&lt;br&gt;BLAST bit score: 248&lt;br&gt;E-value: 3.68e-82" locus_tag="BSHG_0780" class="clusterblast-orf" id="dummy-11_h11_2_10"  />
</g>
<g id="a11_0011"  >
<polygon points="444,85 449,80 481,80 481,90 449,90 444,85 " style="fill:#3315d8; stroke-width:1; stroke:black; " description="&lt;b&gt;BSHG_0779&lt;/b&gt;&lt;br&gt;NADH-quinone oxidoreductase subunit C/D&lt;br&gt;Location: 17391 - 18984&lt;br&gt;&lt;br&gt;&lt;b&gt;BlastP hit with ctg1_2255&lt;/b&gt;&lt;br&gt;Percentage identity: 32&lt;br&gt;Percentage coverage: 86&lt;br&gt;BLAST bit score: 258&lt;br&gt;E-value: 1.68e-80" locus_tag="BSHG_0779" class="clusterblast-orf" id="dummy-11_h11_2_11"  />
</g>
<g id="a11_0012"  >
<polygon points="481,85 486,80 495,80 495,90 486,90 481,85 " style="fill:#d8156f; stroke-width:1; stroke:black; " description="&lt;b&gt;BSHG_0778&lt;/b&gt;&lt;br&gt;NADH-quinone oxidoreductase subunit B&lt;br&gt;Location: 19005 - 19587&lt;br&gt;&lt;br&gt;&lt;b&gt;BlastP hit with ctg1_2256&lt;/b&gt;&lt;br&gt;Percentage identity: 58&lt;br&gt;Percentage coverage: 66&lt;br&gt;BLAST bit score: 183&lt;br&gt;E-value: 1.38e-60" locus_tag="BSHG_0778" class="clusterblast-orf" id="dummy-11_h11_2_12"  />
</g>
<g id="a11_0013"  >
<polygon points="495,85 500,80 503,80 503,90 500,90 495,85 " style="fill:#8dd815; stroke-width:1; stroke:black; " description="&lt;b&gt;BSHG_0777&lt;/b&gt;&lt;br&gt;NADH-quinone oxidoreductase subunit A&lt;br&gt;Location: 19586 - 19937&lt;br&gt;&lt;br&gt;&lt;b&gt;BlastP hit with ctg1_2257&lt;/b&gt;&lt;br&gt;Percentage identity: 31&lt;br&gt;Percentage coverage: 72&lt;br&gt;BLAST bit score: 62&lt;br&gt;E-value: 5.09e-15" locus_tag="BSHG_0777" class="clusterblast-orf" id="dummy-11_h11_2_13"  />
</g>
<g id="a11_0014"  >
<polygon points="506,85 511,80 515,80 515,90 511,90 506,85 " style="fill:white; stroke-width:1; stroke:black; " description="&lt;b&gt;BSHG_0776&lt;/b&gt;&lt;br&gt;hypothetical protein&lt;br&gt;Location: 20080 - 20458" locus_tag="BSHG_0776" class="clusterblast-orf" id="dummy-11_h11_2_14"  />
</g>
<g id="a11_0015"  >
<polygon points="519,85 524,80 552,80 552,90 524,90 519,85 " style="fill:white; stroke-width:1; stroke:black; " description="&lt;b&gt;BSHG_0775&lt;/b&gt;&lt;br&gt;TrkH family potassium uptake protein&lt;br&gt;Location: 20644 - 22096" locus_tag="BSHG_0775" class="clusterblast-orf" id="dummy-11_h11_2_15"  />
</g>
<g id="a11_0016"  >
<polygon points="552,85 557,80 583,80 583,90 557,90 552,85 " style="fill:white; stroke-width:1; stroke:black; " description="&lt;b&gt;BSHG_0774&lt;/b&gt;&lt;br&gt;hypothetical protein&lt;br&gt;Location: 22100 - 23441" locus_tag="BSHG_0774" class="clusterblast-orf" id="dummy-11_h11_2_16"  />
</g>
<g id="a11_0017"  >
<polygon points="584,85 589,80 629,80 629,90 589,90 584,85 " style="fill:white; stroke-width:1; stroke:black; " description="&lt;b&gt;BSHG_0773&lt;/b&gt;&lt;br&gt;1-deoxy-D-xylulose-5-phosphate synthase&lt;br&gt;Location: 23479 - 25426" locus_tag="BSHG_0773" class="clusterblast-orf" id="dummy-11_h11_2_17"  />
</g>
<g id="a11_0018"  >
<polygon points="640,85 645,80 671,80 671,90 645,90 640,85 " style="fill:white; stroke-width:1; stroke:black; " description="&lt;b&gt;BSHG_0771&lt;/b&gt;&lt;br&gt;hypothetical protein&lt;br&gt;Location: 25917 - 27261" locus_tag="BSHG_0771" class="clusterblast-orf" id="dummy-11_h11_2_18"  />
</g>
<g id="a11_0019"  >
<polygon points="671,85 676,80 678,80 678,90 676,90 671,85 " style="fill:white; stroke-width:1; stroke:black; " description="&lt;b&gt;BSHG_0770&lt;/b&gt;&lt;br&gt;hypothetical protein&lt;br&gt;Location: 27257 - 27584" locus_tag="BSHG_0770" class="clusterblast-orf" id="dummy-11_h11_2_19"  />
</g>
<g id="a11_0020"  >
<polygon points="682,90 692,90 697,85 692,80 682,80 682,90 " style="fill:white; stroke-width:1; stroke:black; " description="&lt;b&gt;BSHG_0769&lt;/b&gt;&lt;br&gt;HAD hydrolase, family IA&lt;br&gt;Location: 27759 - 28407" locus_tag="BSHG_0769" class="clusterblast-orf" id="dummy-11_h11_2_20"  />
</g>
</svg>
