<svg xmlns="http://www.w3.org/2000/svg" xmlns:xlink="http://www.w3.org/1999/xlink" version="1.1" x="0" y="0" height="50" width="800" viewBox="0 0 800 50" preserveAspectRatio="none"  >
<g label="Query sequence" class="clusterblast-cluster"  >
<text x="5" y="20" class="clusterblast-acc"  >
Query sequence</text>
<line x1="10" y1="35" x2="778.0" y2="35" style="stroke-width:1; stroke:grey; "  />
<polygon points="0,35 5,30 8,30 8,40 5,40 0,35 " style="fill:white; stroke-width:1; stroke:black; " description="&lt;b&gt;ctg1_4239&lt;/b&gt;&lt;br&gt;ctg1 4239&lt;br&gt;Location: 4554382 - 4554577" locus_tag="ctg1_4239" class="clusterblast-orf" id="knownclusterblast-21_q0_0_all"  />
<polygon points="10,40 33,40 38,35 33,30 10,30 10,40 " style="fill:white; stroke-width:1; stroke:black; " description="&lt;b&gt;ctg1_4240&lt;/b&gt;&lt;br&gt;ctg1 4240&lt;br&gt;Location: 4554623 - 4555349" locus_tag="ctg1_4240" class="clusterblast-orf" id="knownclusterblast-21_q1_0_all"  />
<polygon points="44,35 49,30 77,30 77,40 49,40 44,35 " style="fill:white; stroke-width:1; stroke:black; " description="&lt;b&gt;ctg1_4241&lt;/b&gt;&lt;br&gt;ctg1 4241&lt;br&gt;Location: 4555489 - 4556320" locus_tag="ctg1_4241" class="clusterblast-orf" id="knownclusterblast-21_q2_0_all"  />
<polygon points="87,40 91,35 87,30 87,40 " style="fill:white; stroke-width:1; stroke:black; " description="&lt;b&gt;ctg1_4242&lt;/b&gt;&lt;br&gt;ctg1 4242&lt;br&gt;Location: 4556573 - 4556675" locus_tag="ctg1_4242" class="clusterblast-orf" id="knownclusterblast-21_q3_0_all"  />
<polygon points="104,40 115,40 120,35 115,30 104,30 104,40 " style="fill:white; stroke-width:1; stroke:black; " description="&lt;b&gt;ctg1_4243&lt;/b&gt;&lt;br&gt;ctg1 4243&lt;br&gt;Location: 4556992 - 4557385" locus_tag="ctg1_4243" class="clusterblast-orf" id="knownclusterblast-21_q4_0_all"  />
<polygon points="119,35 124,30 156,30 156,40 124,40 119,35 " style="fill:white; stroke-width:1; stroke:black; " description="&lt;b&gt;ctg1_4244&lt;/b&gt;&lt;br&gt;ctg1 4244&lt;br&gt;Location: 4557377 - 4558289" locus_tag="ctg1_4244" class="clusterblast-orf" id="knownclusterblast-21_q5_0_all"  />
<polygon points="158,35 163,30 205,30 205,40 163,40 158,35 " style="fill:white; stroke-width:1; stroke:black; " description="&lt;b&gt;ctg1_4245&lt;/b&gt;&lt;br&gt;ctg1 4245&lt;br&gt;Location: 4558353 - 4559526" locus_tag="ctg1_4245" class="clusterblast-orf" id="knownclusterblast-21_q6_0_all"  />
<polygon points="206,35 211,30 224,30 224,40 211,40 206,35 " style="fill:white; stroke-width:1; stroke:black; " description="&lt;b&gt;ctg1_4246&lt;/b&gt;&lt;br&gt;ctg1 4246&lt;br&gt;Location: 4559538 - 4560000" locus_tag="ctg1_4246" class="clusterblast-orf" id="knownclusterblast-21_q7_0_all"  />
<polygon points="224,35 229,30 251,30 251,40 229,40 224,35 " style="fill:white; stroke-width:1; stroke:black; " description="&lt;b&gt;ctg1_4247&lt;/b&gt;&lt;br&gt;ctg1 4247&lt;br&gt;Location: 4559996 - 4560680" locus_tag="ctg1_4247" class="clusterblast-orf" id="knownclusterblast-21_q8_0_all"  />
<polygon points="261,40 278,40 283,35 278,30 261,30 261,40 " style="fill:white; stroke-width:1; stroke:black; " description="&lt;b&gt;ctg1_4248&lt;/b&gt;&lt;br&gt;ctg1 4248&lt;br&gt;Location: 4560929 - 4561484" locus_tag="ctg1_4248" class="clusterblast-orf" id="knownclusterblast-21_q9_0_all"  />
<polygon points="284,35 289,30 331,30 331,40 289,40 284,35 " style="fill:white; stroke-width:1; stroke:black; " description="&lt;b&gt;ctg1_4249&lt;/b&gt;&lt;br&gt;ctg1 4249&lt;br&gt;Location: 4561496 - 4562675" locus_tag="ctg1_4249" class="clusterblast-orf" id="knownclusterblast-21_q10_0_all"  />
<polygon points="333,35 338,30 372,30 372,40 338,40 333,35 " style="fill:white; stroke-width:1; stroke:black; " description="&lt;b&gt;ctg1_4250&lt;/b&gt;&lt;br&gt;ctg1 4250&lt;br&gt;Location: 4562742 - 4563714" locus_tag="ctg1_4250" class="clusterblast-orf" id="knownclusterblast-21_q11_0_all"  />
<polygon points="370,35 375,30 381,30 381,40 375,40 370,35 " style="fill:white; stroke-width:1; stroke:black; " description="&lt;b&gt;ctg1_4251&lt;/b&gt;&lt;br&gt;ctg1 4251&lt;br&gt;Location: 4563667 - 4563925" locus_tag="ctg1_4251" class="clusterblast-orf" id="knownclusterblast-21_q12_0_all"  />
<polygon points="381,35 386,30 411,30 411,40 386,40 381,35 " style="fill:white; stroke-width:1; stroke:black; " description="&lt;b&gt;ctg1_4252&lt;/b&gt;&lt;br&gt;ctg1 4252&lt;br&gt;Location: 4563921 - 4564689" locus_tag="ctg1_4252" class="clusterblast-orf" id="knownclusterblast-21_q13_0_all"  />
<polygon points="412,35 417,30 457,30 457,40 417,40 412,35 " style="fill:white; stroke-width:1; stroke:black; " description="&lt;b&gt;ctg1_4253&lt;/b&gt;&lt;br&gt;ctg1 4253&lt;br&gt;Location: 4564698 - 4565850" locus_tag="ctg1_4253" class="clusterblast-orf" id="knownclusterblast-21_q14_0_all"  />
<polygon points="462,35 467,30 513,30 513,40 467,40 462,35 " style="fill:white; stroke-width:1; stroke:black; " description="&lt;b&gt;ctg1_4254&lt;/b&gt;&lt;br&gt;ctg1 4254&lt;br&gt;Location: 4565965 - 4567246" locus_tag="ctg1_4254" class="clusterblast-orf" id="knownclusterblast-21_q15_0_all"  />
<polygon points="515,35 520,30 564,30 564,40 520,40 515,35 " style="fill:white; stroke-width:1; stroke:black; " description="&lt;b&gt;ctg1_4255&lt;/b&gt;&lt;br&gt;ctg1 4255&lt;br&gt;Location: 4567286 - 4568519" locus_tag="ctg1_4255" class="clusterblast-orf" id="knownclusterblast-21_q16_0_all"  />
<polygon points="583,40 590,40 595,35 590,30 583,30 583,40 " style="fill:white; stroke-width:1; stroke:black; " description="&lt;b&gt;ctg1_4256&lt;/b&gt;&lt;br&gt;ctg1 4256&lt;br&gt;Location: 4568997 - 4569309" locus_tag="ctg1_4256" class="clusterblast-orf" id="knownclusterblast-21_q17_0_all"  />
<polygon points="597,40 615,40 620,35 615,30 597,30 597,40 " style="fill:white; stroke-width:1; stroke:black; " description="&lt;b&gt;ctg1_4257&lt;/b&gt;&lt;br&gt;ctg1 4257&lt;br&gt;Location: 4569357 - 4569918" locus_tag="ctg1_4257" class="clusterblast-orf" id="knownclusterblast-21_q18_0_all"  />
<polygon points="629,35 634,30 686,30 686,40 634,40 629,35 " style="fill:white; stroke-width:1; stroke:black; " description="&lt;b&gt;ctg1_4258&lt;/b&gt;&lt;br&gt;ctg1 4258&lt;br&gt;Location: 4570161 - 4571574" locus_tag="ctg1_4258" class="clusterblast-orf" id="knownclusterblast-21_q19_0_all"  />
<polygon points="693,40 694,40 699,35 694,30 693,30 693,40 " style="fill:white; stroke-width:1; stroke:black; " description="&lt;b&gt;ctg1_4259&lt;/b&gt;&lt;br&gt;ctg1 4259&lt;br&gt;Location: 4571750 - 4571915" locus_tag="ctg1_4259" class="clusterblast-orf" id="knownclusterblast-21_q20_0_all"  />
<polygon points="719,40 775,40 780,35 775,30 719,30 719,40 " style="fill:white; stroke-width:1; stroke:black; " description="&lt;b&gt;ctg1_4260&lt;/b&gt;&lt;br&gt;ctg1 4260&lt;br&gt;Location: 4572413 - 4573931" locus_tag="ctg1_4260" class="clusterblast-orf" id="knownclusterblast-21_q21_0_all"  />
</g>
</svg>
