<svg xmlns="http://www.w3.org/2000/svg" xmlns:xlink="http://www.w3.org/1999/xlink" version="1.1" x="0" y="0" height="250" width="800" viewBox="0 0 800 250" preserveAspectRatio="none"  >
<g label="Query sequence" class="clusterblast-cluster"  >
<text x="5" y="20" class="clusterblast-acc"  >
Query sequence</text>
<line x1="10" y1="35" x2="778.0" y2="35" style="stroke-width:1; stroke:grey; "  />
<polygon points="0,40 5,40 10,35 5,30 0,30 0,40 " style="fill:white; stroke-width:1; stroke:black; " description="&lt;b&gt;ctg1_710&lt;/b&gt;&lt;br&gt;ctg1 710&lt;br&gt;Location: 755565 - 756288" locus_tag="ctg1_710" class="clusterblast-orf" id="knownclusterblast-3_q0_0_all"  />
<polygon points="11,40 22,40 27,35 22,30 11,30 11,40 " style="fill:white; stroke-width:1; stroke:black; " description="&lt;b&gt;ctg1_711&lt;/b&gt;&lt;br&gt;ctg1 711&lt;br&gt;Location: 756379 - 757417" locus_tag="ctg1_711" class="clusterblast-orf" id="knownclusterblast-3_q1_0_all"  />
<polygon points="27,40 39,40 44,35 39,30 27,30 27,40 " style="fill:white; stroke-width:1; stroke:black; " description="&lt;b&gt;ctg1_712&lt;/b&gt;&lt;br&gt;ctg1 712&lt;br&gt;Location: 757439 - 758642" locus_tag="ctg1_712" class="clusterblast-orf" id="knownclusterblast-3_q2_0_all"  />
<polygon points="44,40 64,40 69,35 64,30 44,30 44,40 " style="fill:white; stroke-width:1; stroke:black; " description="&lt;b&gt;ctg1_713&lt;/b&gt;&lt;br&gt;ctg1 713&lt;br&gt;Location: 758635 - 760345" locus_tag="ctg1_713" class="clusterblast-orf" id="knownclusterblast-3_q3_0_all"  />
<polygon points="70,40 82,40 87,35 82,30 70,30 70,40 " style="fill:white; stroke-width:1; stroke:black; " description="&lt;b&gt;ctg1_714&lt;/b&gt;&lt;br&gt;ctg1 714&lt;br&gt;Location: 760445 - 761600" locus_tag="ctg1_714" class="clusterblast-orf" id="knownclusterblast-3_q4_0_all"  />
<polygon points="88,40 100,40 105,35 100,30 88,30 88,40 " style="fill:white; stroke-width:1; stroke:black; " description="&lt;b&gt;ctg1_715&lt;/b&gt;&lt;br&gt;ctg1 715&lt;br&gt;Location: 761626 - 762814" locus_tag="ctg1_715" class="clusterblast-orf" id="knownclusterblast-3_q5_0_all"  />
<polygon points="105,40 112,40 117,35 112,30 105,30 105,40 " style="fill:white; stroke-width:1; stroke:black; " description="&lt;b&gt;ctg1_716&lt;/b&gt;&lt;br&gt;ctg1 716&lt;br&gt;Location: 762841 - 763657" locus_tag="ctg1_716" class="clusterblast-orf" id="knownclusterblast-3_q6_0_all"  />
<polygon points="120,35 125,30 138,30 138,40 125,40 120,35 " style="fill:white; stroke-width:1; stroke:black; " description="&lt;b&gt;ctg1_717&lt;/b&gt;&lt;br&gt;ctg1 717&lt;br&gt;Location: 763884 - 765135" locus_tag="ctg1_717" class="clusterblast-orf" id="knownclusterblast-3_q7_0_all"  />
<polygon points="139,35 144,30 156,30 156,40 144,40 139,35 " style="fill:#d81515; stroke-width:1; stroke:black; " description="&lt;b&gt;ctg1_718&lt;/b&gt;&lt;br&gt;ctg1 718&lt;br&gt;Location: 765196 - 766348" locus_tag="ctg1_718" class="clusterblast-orf" id="knownclusterblast-3_q8_0_all"  />
<polygon points="161,40 173,40 178,35 173,30 161,30 161,40 " style="fill:white; stroke-width:1; stroke:black; " description="&lt;b&gt;ctg1_719&lt;/b&gt;&lt;br&gt;ctg1 719&lt;br&gt;Location: 766679 - 767897" locus_tag="ctg1_719" class="clusterblast-orf" id="knownclusterblast-3_q9_0_all"  />
<polygon points="181,40 188,40 193,35 188,30 181,30 181,40 " style="fill:white; stroke-width:1; stroke:black; " description="&lt;b&gt;ctg1_720&lt;/b&gt;&lt;br&gt;ctg1 720&lt;br&gt;Location: 768077 - 768929" locus_tag="ctg1_720" class="clusterblast-orf" id="knownclusterblast-3_q10_0_all"  />
<polygon points="194,35 199,30 206,30 206,40 199,40 194,35 " style="fill:#15d863; stroke-width:1; stroke:black; " description="&lt;b&gt;ctg1_721&lt;/b&gt;&lt;br&gt;ctg1 721&lt;br&gt;Location: 768993 - 769803" locus_tag="ctg1_721" class="clusterblast-orf" id="knownclusterblast-3_q11_0_all"  />
<polygon points="209,40 219,40 224,35 219,30 209,30 209,40 " style="fill:white; stroke-width:1; stroke:black; " description="&lt;b&gt;ctg1_722&lt;/b&gt;&lt;br&gt;ctg1 722&lt;br&gt;Location: 770032 - 771004" locus_tag="ctg1_722" class="clusterblast-orf" id="knownclusterblast-3_q12_0_all"  />
<polygon points="224,35 229,30 241,30 241,40 229,40 224,35 " style="fill:white; stroke-width:1; stroke:black; " description="&lt;b&gt;ctg1_723&lt;/b&gt;&lt;br&gt;ctg1 723&lt;br&gt;Location: 771043 - 772213" locus_tag="ctg1_723" class="clusterblast-orf" id="knownclusterblast-3_q13_0_all"  />
<polygon points="242,35 247,30 254,30 254,40 247,40 242,35 " style="fill:white; stroke-width:1; stroke:black; " description="&lt;b&gt;ctg1_724&lt;/b&gt;&lt;br&gt;ctg1 724&lt;br&gt;Location: 772279 - 773122" locus_tag="ctg1_724" class="clusterblast-orf" id="knownclusterblast-3_q14_0_all"  />
<polygon points="256,35 261,30 273,30 273,40 261,40 256,35 " style="fill:#1563d8; stroke-width:1; stroke:black; " description="&lt;b&gt;ctg1_725&lt;/b&gt;&lt;br&gt;ctg1 725&lt;br&gt;Location: 773231 - 774437" locus_tag="ctg1_725" class="clusterblast-orf" id="knownclusterblast-3_q15_0_all"  />
<polygon points="273,35 278,30 295,30 295,40 278,40 273,35 " style="fill:#b115d8; stroke-width:1; stroke:black; " description="&lt;b&gt;ctg1_726&lt;/b&gt;&lt;br&gt;ctg1 726&lt;br&gt;Location: 774414 - 775932" locus_tag="ctg1_726" class="clusterblast-orf" id="knownclusterblast-3_q16_0_all"  />
<polygon points="296,35 301,30 307,30 307,40 301,40 296,35 " style="fill:white; stroke-width:1; stroke:black; " description="&lt;b&gt;ctg1_727&lt;/b&gt;&lt;br&gt;ctg1 727&lt;br&gt;Location: 775993 - 776755" locus_tag="ctg1_727" class="clusterblast-orf" id="knownclusterblast-3_q17_0_all"  />
<polygon points="307,35 312,30 319,30 319,40 312,40 307,35 " style="fill:#15d863; stroke-width:1; stroke:black; " description="&lt;b&gt;ctg1_728&lt;/b&gt;&lt;br&gt;ctg1 728&lt;br&gt;Location: 776784 - 777573" locus_tag="ctg1_728" class="clusterblast-orf" id="knownclusterblast-3_q18_0_all"  />
<polygon points="323,40 335,40 340,35 335,30 323,30 323,40 " style="fill:#d81515; stroke-width:1; stroke:black; " description="&lt;b&gt;ctg1_729&lt;/b&gt;&lt;br&gt;ctg1 729&lt;br&gt;Location: 777884 - 779039" locus_tag="ctg1_729" class="clusterblast-orf" id="knownclusterblast-3_q19_0_all"  />
<polygon points="340,40 355,40 360,35 355,30 340,30 340,40 " style="fill:white; stroke-width:1; stroke:black; " description="&lt;b&gt;ctg1_730&lt;/b&gt;&lt;br&gt;ctg1 730&lt;br&gt;Location: 779066 - 780380" locus_tag="ctg1_730" class="clusterblast-orf" id="knownclusterblast-3_q20_0_all"  />
<polygon points="360,40 365,40 370,35 365,30 360,30 360,40 " style="fill:white; stroke-width:1; stroke:black; " description="&lt;b&gt;ctg1_731&lt;/b&gt;&lt;br&gt;ctg1 731&lt;br&gt;Location: 780427 - 781096" locus_tag="ctg1_731" class="clusterblast-orf" id="knownclusterblast-3_q21_0_all"  />
<polygon points="370,40 374,40 379,35 374,30 370,30 370,40 " style="fill:white; stroke-width:1; stroke:black; " description="&lt;b&gt;ctg1_732&lt;/b&gt;&lt;br&gt;ctg1 732&lt;br&gt;Location: 781095 - 781749" locus_tag="ctg1_732" class="clusterblast-orf" id="knownclusterblast-3_q22_0_all"  />
<polygon points="380,40 394,40 399,35 394,30 380,30 380,40 " style="fill:white; stroke-width:1; stroke:black; " description="&lt;b&gt;ctg1_733&lt;/b&gt;&lt;br&gt;ctg1 733&lt;br&gt;Location: 781787 - 783104" locus_tag="ctg1_733" class="clusterblast-orf" id="knownclusterblast-3_q23_0_all"  />
<polygon points="399,40 412,40 417,35 412,30 399,30 399,40 " style="fill:white; stroke-width:1; stroke:black; " description="&lt;b&gt;ctg1_734&lt;/b&gt;&lt;br&gt;ctg1 734&lt;br&gt;Location: 783122 - 784340" locus_tag="ctg1_734" class="clusterblast-orf" id="knownclusterblast-3_q24_0_all"  />
<polygon points="417,35 422,30 424,30 424,40 422,40 417,35 " style="fill:white; stroke-width:1; stroke:black; " description="&lt;b&gt;ctg1_735&lt;/b&gt;&lt;br&gt;ctg1 735&lt;br&gt;Location: 784360 - 784795" locus_tag="ctg1_735" class="clusterblast-orf" id="knownclusterblast-3_q25_0_all"  />
<polygon points="428,40 449,40 454,35 449,30 428,30 428,40 " style="fill:white; stroke-width:1; stroke:black; " description="&lt;b&gt;ctg1_736&lt;/b&gt;&lt;br&gt;ctg1 736&lt;br&gt;Location: 785116 - 786919" locus_tag="ctg1_736" class="clusterblast-orf" id="knownclusterblast-3_q26_0_all"  />
<polygon points="457,40 464,40 469,35 464,30 457,30 457,40 " style="fill:white; stroke-width:1; stroke:black; " description="&lt;b&gt;ctg1_737&lt;/b&gt;&lt;br&gt;ctg1 737&lt;br&gt;Location: 787115 - 787919" locus_tag="ctg1_737" class="clusterblast-orf" id="knownclusterblast-3_q27_0_all"  />
<polygon points="470,35 475,30 520,30 520,40 475,40 470,35 " style="fill:white; stroke-width:1; stroke:black; " description="&lt;b&gt;ctg1_738&lt;/b&gt;&lt;br&gt;ctg1 738&lt;br&gt;Location: 787979 - 791462" locus_tag="ctg1_738" class="clusterblast-orf" id="knownclusterblast-3_q28_0_all"  />
<polygon points="523,40 532,40 537,35 532,30 523,30 523,40 " style="fill:white; stroke-width:1; stroke:black; " description="&lt;b&gt;ctg1_739&lt;/b&gt;&lt;br&gt;ctg1 739&lt;br&gt;Location: 791666 - 792608" locus_tag="ctg1_739" class="clusterblast-orf" id="knownclusterblast-3_q29_0_all"  />
<polygon points="540,35 545,30 554,30 554,40 545,40 540,35 " style="fill:white; stroke-width:1; stroke:black; " description="&lt;b&gt;ctg1_740&lt;/b&gt;&lt;br&gt;ctg1 740&lt;br&gt;Location: 792858 - 793761" locus_tag="ctg1_740" class="clusterblast-orf" id="knownclusterblast-3_q30_0_all"  />
<polygon points="554,35 559,30 582,30 582,40 559,40 554,35 " style="fill:white; stroke-width:1; stroke:black; " description="&lt;b&gt;ctg1_741&lt;/b&gt;&lt;br&gt;ctg1 741&lt;br&gt;Location: 793757 - 795749" locus_tag="ctg1_741" class="clusterblast-orf" id="knownclusterblast-3_q31_0_all"  />
<polygon points="583,35 588,30 592,30 592,40 588,40 583,35 " style="fill:white; stroke-width:1; stroke:black; " description="&lt;b&gt;ctg1_742&lt;/b&gt;&lt;br&gt;ctg1 742&lt;br&gt;Location: 795760 - 796411" locus_tag="ctg1_742" class="clusterblast-orf" id="knownclusterblast-3_q32_0_all"  />
<polygon points="593,35 594,30 594,40 593,35 " style="fill:white; stroke-width:1; stroke:black; " description="&lt;b&gt;ctg1_743&lt;/b&gt;&lt;br&gt;ctg1 743&lt;br&gt;Location: 796459 - 796564" locus_tag="ctg1_743" class="clusterblast-orf" id="knownclusterblast-3_q33_0_all"  />
<polygon points="594,35 599,30 618,30 618,40 599,40 594,35 " style="fill:white; stroke-width:1; stroke:black; " description="&lt;b&gt;ctg1_744&lt;/b&gt;&lt;br&gt;ctg1 744&lt;br&gt;Location: 796573 - 798175" locus_tag="ctg1_744" class="clusterblast-orf" id="knownclusterblast-3_q34_0_all"  />
<polygon points="618,35 623,30 635,30 635,40 623,40 618,35 " style="fill:#d81515; stroke-width:1; stroke:black; " description="&lt;b&gt;ctg1_745&lt;/b&gt;&lt;br&gt;ctg1 745&lt;br&gt;Location: 798199 - 799372" locus_tag="ctg1_745" class="clusterblast-orf" id="knownclusterblast-3_q35_0_all"  />
<polygon points="637,40 641,40 646,35 641,30 637,30 637,40 " style="fill:white; stroke-width:1; stroke:black; " description="&lt;b&gt;ctg1_746&lt;/b&gt;&lt;br&gt;ctg1 746&lt;br&gt;Location: 799516 - 800134" locus_tag="ctg1_746" class="clusterblast-orf" id="knownclusterblast-3_q36_0_all"  />
<polygon points="648,40 667,40 672,35 667,30 648,30 648,40 " style="fill:#b1d815; stroke-width:1; stroke:black; " description="&lt;b&gt;ctg1_747&lt;/b&gt;&lt;br&gt;ctg1 747&lt;br&gt;Location: 800243 - 801938" locus_tag="ctg1_747" class="clusterblast-orf" id="knownclusterblast-3_q37_0_all"  />
<polygon points="673,40 678,40 683,35 678,30 673,30 673,40 " style="fill:white; stroke-width:1; stroke:black; " description="&lt;b&gt;ctg1_748&lt;/b&gt;&lt;br&gt;ctg1 748&lt;br&gt;Location: 802009 - 802681" locus_tag="ctg1_748" class="clusterblast-orf" id="knownclusterblast-3_q38_0_all"  />
<polygon points="687,40 701,40 706,35 701,30 687,30 687,40 " style="fill:white; stroke-width:1; stroke:black; " description="&lt;b&gt;ctg1_749&lt;/b&gt;&lt;br&gt;ctg1 749&lt;br&gt;Location: 802955 - 804242" locus_tag="ctg1_749" class="clusterblast-orf" id="knownclusterblast-3_q39_0_all"  />
<polygon points="707,40 722,40 727,35 722,30 707,30 707,40 " style="fill:white; stroke-width:1; stroke:black; " description="&lt;b&gt;ctg1_750&lt;/b&gt;&lt;br&gt;ctg1 750&lt;br&gt;Location: 804342 - 805698" locus_tag="ctg1_750" class="clusterblast-orf" id="knownclusterblast-3_q40_0_all"  />
<polygon points="727,35 732,30 745,30 745,40 732,40 727,35 " style="fill:white; stroke-width:1; stroke:black; " description="&lt;b&gt;ctg1_751&lt;/b&gt;&lt;br&gt;ctg1 751&lt;br&gt;Location: 805745 - 806984" locus_tag="ctg1_751" class="clusterblast-orf" id="knownclusterblast-3_q41_0_all"  />
<polygon points="747,40 755,40 760,35 755,30 747,30 747,40 " style="fill:white; stroke-width:1; stroke:black; " description="&lt;b&gt;ctg1_752&lt;/b&gt;&lt;br&gt;ctg1 752&lt;br&gt;Location: 807095 - 808001" locus_tag="ctg1_752" class="clusterblast-orf" id="knownclusterblast-3_q42_0_all"  />
<polygon points="760,35 764,30 764,40 760,35 " style="fill:white; stroke-width:1; stroke:black; " description="&lt;b&gt;ctg1_753&lt;/b&gt;&lt;br&gt;ctg1 753&lt;br&gt;Location: 807993 - 808293" locus_tag="ctg1_753" class="clusterblast-orf" id="knownclusterblast-3_q43_0_all"  />
<polygon points="778,40 780,35 778,30 778,40 " style="fill:white; stroke-width:1; stroke:black; " description="&lt;b&gt;ctg1_754&lt;/b&gt;&lt;br&gt;ctg1 754&lt;br&gt;Location: 809201 - 809348" locus_tag="ctg1_754" class="clusterblast-orf" id="knownclusterblast-3_q44_0_all"  />
</g>
<g label="MGC0000005" description="MGC0000005_c1: Acetate to butyrate C. sporogenes (66% of genes show similarity), BUT" class="clusterblast-cluster"  >
<text x="5" y="70" class="clusterblast-acc"  >
MGC0000005_c1: Acetate to butyrate C. sporogenes (66% of genes show similarity), BUT</text>
<line x1="10" y1="85" x2="778.0" y2="85" style="stroke-width:1; stroke:grey; "  />
</g>
<g id="a3_000"  >
<polygon points="346,85 351,80 361,80 361,90 351,90 346,85 " style="fill:white; stroke-width:1; stroke:black; " description="&lt;b&gt;CLOSPO_RS02095&lt;/b&gt;&lt;br&gt;electron transfer flavoprotein subunit alpha&lt;br&gt;Location: 6040 - 5035" locus_tag="CLOSPO_RS02095" class="clusterblast-orf" id="knownclusterblast-3_all_3_1_0"  />
</g>
<g id="a3_001"  >
<polygon points="361,85 366,80 372,80 372,90 366,90 361,85 " style="fill:white; stroke-width:1; stroke:black; " description="&lt;b&gt;CLOSPO_RS02090&lt;/b&gt;&lt;br&gt;electron transfer flavoprotein subunit beta&lt;br&gt;Location: 5020 - 4240" locus_tag="CLOSPO_RS02090" class="clusterblast-orf" id="knownclusterblast-3_all_3_1_1"  />
</g>
<g id="a3_002"  >
<polygon points="372,85 377,80 389,80 389,90 377,90 372,85 " style="fill:#d81515; stroke-width:1; stroke:black; " description="&lt;b&gt;CLOSPO_RS02085&lt;/b&gt;&lt;br&gt;acyl-CoA dehydrogenase&lt;br&gt;Location: 4229 - 3089&lt;br&gt;&lt;br&gt;&lt;b&gt;BlastP hit with ctg1_718&lt;/b&gt;&lt;br&gt;Percentage identity: 39&lt;br&gt;Percentage coverage: 96&lt;br&gt;BLAST bit score: 258&lt;br&gt;E-value: 2.9e-85&lt;br&gt;&lt;br&gt;&lt;b&gt;BlastP hit with ctg1_729&lt;/b&gt;&lt;br&gt;Percentage identity: 40&lt;br&gt;Percentage coverage: 98&lt;br&gt;BLAST bit score: 278&lt;br&gt;E-value: 4.68e-93&lt;br&gt;&lt;br&gt;&lt;b&gt;BlastP hit with ctg1_745&lt;/b&gt;&lt;br&gt;Percentage identity: 41&lt;br&gt;Percentage coverage: 98&lt;br&gt;BLAST bit score: 296&lt;br&gt;E-value: 6.86e-100" locus_tag="CLOSPO_RS02085" class="clusterblast-orf" id="knownclusterblast-3_all_3_1_2"  />
</g>
<g id="a3_003"  >
<polygon points="392,85 397,80 409,80 409,90 397,90 392,85 " style="fill:#1563d8; stroke-width:1; stroke:black; " description="&lt;b&gt;CLOSPO_RS02080&lt;/b&gt;&lt;br&gt;acetyl-CoA acetyltransferase&lt;br&gt;Location: 2896 - 1717&lt;br&gt;&lt;br&gt;&lt;b&gt;BlastP hit with ctg1_725&lt;/b&gt;&lt;br&gt;Percentage identity: 43&lt;br&gt;Percentage coverage: 100&lt;br&gt;BLAST bit score: 291&lt;br&gt;E-value: 1.89e-97" locus_tag="CLOSPO_RS02080" class="clusterblast-orf" id="knownclusterblast-3_all_3_1_3"  />
</g>
<g id="a3_004"  >
<polygon points="409,85 414,80 421,80 421,90 414,90 409,85 " style="fill:#b115d8; stroke-width:1; stroke:black; " description="&lt;b&gt;CLOSPO_RS02075&lt;/b&gt;&lt;br&gt;3-hydroxybutyryl-CoA dehydrogenase&lt;br&gt;Location: 1693 - 862&lt;br&gt;&lt;br&gt;&lt;b&gt;BlastP hit with ctg1_726&lt;/b&gt;&lt;br&gt;Percentage identity: 35&lt;br&gt;Percentage coverage: 55&lt;br&gt;BLAST bit score: 181&lt;br&gt;E-value: 3.72e-55" locus_tag="CLOSPO_RS02075" class="clusterblast-orf" id="knownclusterblast-3_all_3_1_4"  />
</g>
<g id="a3_005"  >
<polygon points="422,85 427,80 433,80 433,90 427,90 422,85 " style="fill:#15d863; stroke-width:1; stroke:black; " description="&lt;b&gt;CLOSPO_RS02070&lt;/b&gt;&lt;br&gt;crotonase&lt;br&gt;Location: 843 - 60&lt;br&gt;&lt;br&gt;&lt;b&gt;BlastP hit with ctg1_721&lt;/b&gt;&lt;br&gt;Percentage identity: 34&lt;br&gt;Percentage coverage: 93&lt;br&gt;BLAST bit score: 137&lt;br&gt;E-value: 4.65e-41&lt;br&gt;&lt;br&gt;&lt;b&gt;BlastP hit with ctg1_728&lt;/b&gt;&lt;br&gt;Percentage identity: 42&lt;br&gt;Percentage coverage: 93&lt;br&gt;BLAST bit score: 185&lt;br&gt;E-value: 7.85e-60" locus_tag="CLOSPO_RS02070" class="clusterblast-orf" id="knownclusterblast-3_all_3_1_5"  />
</g>
<g label="MGC0000004" description="MGC0000004_c1: Aromatic amino acid reductive branch C. sporogenes (16% of genes show similarity), AAA" class="clusterblast-cluster"  >
<text x="5" y="120" class="clusterblast-acc"  >
MGC0000004_c1: Aromatic amino acid reductive branch C. sporogenes (16% of genes show similarity), AAA</text>
<line x1="10" y1="135" x2="778.0" y2="135" style="stroke-width:1; stroke:grey; "  />
</g>
<g id="a3_000"  >
<polygon points="278,140 292,140 297,135 292,130 278,130 278,140 " style="fill:white; stroke-width:1; stroke:black; " description="&lt;b&gt;CLOSPO_00306&lt;/b&gt;&lt;br&gt;branched-chain amino acid transport system II carrier protein&lt;br&gt;Location: 0 - 1323" locus_tag="CLOSPO_00306" class="clusterblast-orf" id="knownclusterblast-3_all_3_2_0"  />
</g>
<g id="a3_001"  >
<polygon points="304,140 322,140 327,135 322,130 304,130 304,140 " style="fill:#b1d815; stroke-width:1; stroke:black; " description="&lt;b&gt;CLOSPO_00307&lt;/b&gt;&lt;br&gt;AMP-binding enzyme&lt;br&gt;Location: 1784 - 3416&lt;br&gt;&lt;br&gt;&lt;b&gt;BlastP hit with ctg1_747&lt;/b&gt;&lt;br&gt;Percentage identity: 37&lt;br&gt;Percentage coverage: 97&lt;br&gt;BLAST bit score: 401&lt;br&gt;E-value: 4.54e-136" locus_tag="CLOSPO_00307" class="clusterblast-orf" id="knownclusterblast-3_all_3_2_1"  />
</g>
<g id="a3_002"  >
<polygon points="328,140 341,140 346,135 341,130 328,130 328,140 " style="fill:white; stroke-width:1; stroke:black; " description="&lt;b&gt;CLOSPO_00308&lt;/b&gt;&lt;br&gt;cinnamoyl-CoA:phenyllactate CoA-transferase&lt;br&gt;Location: 3470 - 4703" locus_tag="CLOSPO_00308" class="clusterblast-orf" id="knownclusterblast-3_all_3_2_2"  />
</g>
<g id="a3_003"  >
<polygon points="346,140 353,140 358,135 353,130 346,130 346,140 " style="fill:white; stroke-width:1; stroke:black; " description="&lt;b&gt;CLOSPO_00309&lt;/b&gt;&lt;br&gt;R-phenyllactate dehydratase activator&lt;br&gt;Location: 4708 - 5503" locus_tag="CLOSPO_00309" class="clusterblast-orf" id="knownclusterblast-3_all_3_2_3"  />
</g>
<g id="a3_004"  >
<polygon points="357,140 370,140 375,135 370,130 357,130 357,140 " style="fill:white; stroke-width:1; stroke:black; " description="&lt;b&gt;CLOSPO_00310&lt;/b&gt;&lt;br&gt;R-phenyllactate dehydratase, medium subunit&lt;br&gt;Location: 5474 - 6731" locus_tag="CLOSPO_00310" class="clusterblast-orf" id="knownclusterblast-3_all_3_2_4"  />
</g>
<g id="a3_005"  >
<polygon points="375,140 387,140 392,135 387,130 375,130 375,140 " style="fill:white; stroke-width:1; stroke:black; " description="&lt;b&gt;CLOSPO_00311&lt;/b&gt;&lt;br&gt;R-phenyllactate dehydratase, small subunit&lt;br&gt;Location: 6732 - 7857" locus_tag="CLOSPO_00311" class="clusterblast-orf" id="knownclusterblast-3_all_3_2_5"  />
</g>
<g id="a3_006"  >
<polygon points="394,140 406,140 411,135 406,130 394,130 394,140 " style="fill:#d81515; stroke-width:1; stroke:black; " description="&lt;b&gt;CLOSPO_00312&lt;/b&gt;&lt;br&gt;acyl-CoA dehydrogenase, C-terminal domain protein&lt;br&gt;Location: 8024 - 9158&lt;br&gt;&lt;br&gt;&lt;b&gt;BlastP hit with ctg1_718&lt;/b&gt;&lt;br&gt;Percentage identity: 43&lt;br&gt;Percentage coverage: 96&lt;br&gt;BLAST bit score: 288&lt;br&gt;E-value: 1.05e-96&lt;br&gt;&lt;br&gt;&lt;b&gt;BlastP hit with ctg1_729&lt;/b&gt;&lt;br&gt;Percentage identity: 42&lt;br&gt;Percentage coverage: 95&lt;br&gt;BLAST bit score: 293&lt;br&gt;E-value: 8.44e-99" locus_tag="CLOSPO_00312" class="clusterblast-orf" id="knownclusterblast-3_all_3_2_6"  />
</g>
<g id="a3_007"  >
<polygon points="411,140 417,140 422,135 417,130 411,130 411,140 " style="fill:white; stroke-width:1; stroke:black; " description="&lt;b&gt;CLOSPO_00313&lt;/b&gt;&lt;br&gt;electron transfer flavoprotein domain protein&lt;br&gt;Location: 9161 - 9965" locus_tag="CLOSPO_00313" class="clusterblast-orf" id="knownclusterblast-3_all_3_2_7"  />
</g>
<g id="a3_008"  >
<polygon points="423,140 435,140 440,135 435,130 423,130 423,140 " style="fill:white; stroke-width:1; stroke:black; " description="&lt;b&gt;CLOSPO_00314&lt;/b&gt;&lt;br&gt;electron transfer flavoprotein FAD-binding domain protein&lt;br&gt;Location: 9982 - 11179" locus_tag="CLOSPO_00314" class="clusterblast-orf" id="knownclusterblast-3_all_3_2_8"  />
</g>
<g id="a3_009"  >
<polygon points="443,140 455,140 460,135 455,130 443,130 443,140 " style="fill:white; stroke-width:1; stroke:black; " description="&lt;b&gt;CLOSPO_00315&lt;/b&gt;&lt;br&gt;hypothetical protein&lt;br&gt;Location: 11366 - 12572" locus_tag="CLOSPO_00315" class="clusterblast-orf" id="knownclusterblast-3_all_3_2_9"  />
</g>
<g id="a3_0010"  >
<polygon points="469,140 479,140 484,135 479,130 469,130 469,140 " style="fill:white; stroke-width:1; stroke:black; " description="&lt;b&gt;CLOSPO_00316&lt;/b&gt;&lt;br&gt;4-phosphoerythronate dehydrogenase&lt;br&gt;Location: 13202 - 14198" locus_tag="CLOSPO_00316" class="clusterblast-orf" id="knownclusterblast-3_all_3_2_10"  />
</g>
<g id="a3_0011"  >
<polygon points="487,135 492,130 501,130 501,140 492,140 487,135 " style="fill:white; stroke-width:1; stroke:black; " description="&lt;b&gt;CLOSPO_00317&lt;/b&gt;&lt;br&gt;(R)-2-hydroxyisocaproate dehydrogenase&lt;br&gt;Location: 14391 - 15396" locus_tag="CLOSPO_00317" class="clusterblast-orf" id="knownclusterblast-3_all_3_2_11"  />
</g>
<g label="MGC00000050" description="MGC00000050_c1: Caffeate respiration A. woodii (40% of genes show similarity), CAF" class="clusterblast-cluster"  >
<text x="5" y="170" class="clusterblast-acc"  >
MGC00000050_c1: Caffeate respiration A. woodii (40% of genes show similarity), CAF</text>
<line x1="10" y1="185" x2="778.0" y2="185" style="stroke-width:1; stroke:grey; "  />
</g>
<g id="a3_000"  >
<polygon points="343,190 361,190 366,185 361,180 343,180 343,190 " style="fill:white; stroke-width:1; stroke:black; " description="&lt;b&gt;AWO_RS08085&lt;/b&gt;&lt;br&gt;acyl CoA:acetate/3-ketoacid CoA transferase&lt;br&gt;Location: 10000 - 11575" locus_tag="AWO_RS08085" class="clusterblast-orf" id="knownclusterblast-3_all_3_3_0"  />
</g>
<g id="a3_001"  >
<polygon points="366,190 384,190 389,185 384,180 366,180 366,190 " style="fill:#b1d815; stroke-width:1; stroke:black; " description="&lt;b&gt;AWO_RS08090&lt;/b&gt;&lt;br&gt;AMP-binding protein&lt;br&gt;Location: 11604 - 13173&lt;br&gt;&lt;br&gt;&lt;b&gt;BlastP hit with ctg1_747&lt;/b&gt;&lt;br&gt;Percentage identity: 32&lt;br&gt;Percentage coverage: 98&lt;br&gt;BLAST bit score: 279&lt;br&gt;E-value: 3.2e-89" locus_tag="AWO_RS08090" class="clusterblast-orf" id="knownclusterblast-3_all_3_3_1"  />
</g>
<g id="a3_002"  >
<polygon points="389,190 401,190 406,185 401,180 389,180 389,190 " style="fill:#d81515; stroke-width:1; stroke:black; " description="&lt;b&gt;AWO_RS08095&lt;/b&gt;&lt;br&gt;acyl-CoA dehydrogenase family protein&lt;br&gt;Location: 13193 - 14333&lt;br&gt;&lt;br&gt;&lt;b&gt;BlastP hit with ctg1_718&lt;/b&gt;&lt;br&gt;Percentage identity: 44&lt;br&gt;Percentage coverage: 92&lt;br&gt;BLAST bit score: 284&lt;br&gt;E-value: 3.55e-95&lt;br&gt;&lt;br&gt;&lt;b&gt;BlastP hit with ctg1_729&lt;/b&gt;&lt;br&gt;Percentage identity: 43&lt;br&gt;Percentage coverage: 96&lt;br&gt;BLAST bit score: 288&lt;br&gt;E-value: 8.13e-97" locus_tag="AWO_RS08095" class="clusterblast-orf" id="knownclusterblast-3_all_3_3_2"  />
</g>
<g id="a3_003"  >
<polygon points="407,190 413,190 418,185 413,180 407,180 407,190 " style="fill:white; stroke-width:1; stroke:black; " description="&lt;b&gt;AWO_RS08100&lt;/b&gt;&lt;br&gt;electron transfer flavoprotein subunit beta/FixA family protein&lt;br&gt;Location: 14397 - 15186" locus_tag="AWO_RS08100" class="clusterblast-orf" id="knownclusterblast-3_all_3_3_3"  />
</g>
<g id="a3_004"  >
<polygon points="419,190 431,190 436,185 431,180 419,180 419,190 " style="fill:white; stroke-width:1; stroke:black; " description="&lt;b&gt;AWO_RS08105&lt;/b&gt;&lt;br&gt;electron transfer flavoprotein subunit alpha&lt;br&gt;Location: 15201 - 16392" locus_tag="AWO_RS08105" class="clusterblast-orf" id="knownclusterblast-3_all_3_3_4"  />
</g>
<g label="MGC00000018" description="MGC00000018_c1: Carnitine caiTABCDE E. coli (33% of genes show similarity), CAR" class="clusterblast-cluster"  >
<text x="5" y="220" class="clusterblast-acc"  >
MGC00000018_c1: Carnitine caiTABCDE E. coli (33% of genes show similarity), CAR</text>
<line x1="10" y1="235" x2="778.0" y2="235" style="stroke-width:1; stroke:grey; "  />
</g>
<g id="a3_000"  >
<polygon points="338,235 343,230 346,230 346,240 343,240 338,235 " style="fill:white; stroke-width:1; stroke:black; " description="&lt;b&gt;C_RS00205&lt;/b&gt;&lt;br&gt;carnitine operon protein CaiE&lt;br&gt;Location: 10000 - 10591" locus_tag="C_RS00205" class="clusterblast-orf" id="knownclusterblast-3_all_3_4_0"  />
</g>
<g id="a3_001"  >
<polygon points="346,235 351,230 358,230 358,240 351,240 346,235 " style="fill:#15d863; stroke-width:1; stroke:black; " description="&lt;b&gt;C_RS00210&lt;/b&gt;&lt;br&gt;carnitinyl-CoA dehydratase&lt;br&gt;Location: 10596 - 11382&lt;br&gt;&lt;br&gt;&lt;b&gt;BlastP hit with ctg1_728&lt;/b&gt;&lt;br&gt;Percentage identity: 34&lt;br&gt;Percentage coverage: 93&lt;br&gt;BLAST bit score: 123&lt;br&gt;E-value: 5.81e-36" locus_tag="C_RS00210" class="clusterblast-orf" id="knownclusterblast-3_all_3_4_1"  />
</g>
<g id="a3_002"  >
<polygon points="359,235 364,230 382,230 382,240 364,240 359,235 " style="fill:white; stroke-width:1; stroke:black; " description="&lt;b&gt;C_RS00215&lt;/b&gt;&lt;br&gt;ATP-dependent acyl-CoA ligase&lt;br&gt;Location: 11490 - 13044" locus_tag="C_RS00215" class="clusterblast-orf" id="knownclusterblast-3_all_3_4_2"  />
</g>
<g id="a3_003"  >
<polygon points="383,235 388,230 401,230 401,240 388,240 383,235 " style="fill:white; stroke-width:1; stroke:black; " description="&lt;b&gt;C_RS00220&lt;/b&gt;&lt;br&gt;L-carnitine CoA-transferase&lt;br&gt;Location: 13116 - 14334" locus_tag="C_RS00220" class="clusterblast-orf" id="knownclusterblast-3_all_3_4_3"  />
</g>
<g id="a3_004"  >
<polygon points="402,235 407,230 419,230 419,240 407,240 402,235 " style="fill:#d81515; stroke-width:1; stroke:black; " description="&lt;b&gt;C_RS00225&lt;/b&gt;&lt;br&gt;crotonobetainyl-CoA dehydrogenase&lt;br&gt;Location: 14461 - 15604&lt;br&gt;&lt;br&gt;&lt;b&gt;BlastP hit with ctg1_718&lt;/b&gt;&lt;br&gt;Percentage identity: 31&lt;br&gt;Percentage coverage: 90&lt;br&gt;BLAST bit score: 148&lt;br&gt;E-value: 7.72e-43" locus_tag="C_RS00225" class="clusterblast-orf" id="knownclusterblast-3_all_3_4_4"  />
</g>
<g id="a3_005"  >
<polygon points="419,235 424,230 441,230 441,240 424,240 419,235 " style="fill:white; stroke-width:1; stroke:black; " description="&lt;b&gt;C_RS00230&lt;/b&gt;&lt;br&gt;L-carnitine/gamma-butyrobetaine antiporter&lt;br&gt;Location: 15634 - 17149" locus_tag="C_RS00230" class="clusterblast-orf" id="knownclusterblast-3_all_3_4_5"  />
</g>
</svg>
