<svg xmlns="http://www.w3.org/2000/svg" xmlns:xlink="http://www.w3.org/1999/xlink" version="1.1" x="0" y="0" height="50" width="800" viewBox="0 0 800 50" preserveAspectRatio="none"  >
<g label="Query sequence" class="clusterblast-cluster"  >
<text x="5" y="20" class="clusterblast-acc"  >
Query sequence</text>
<line x1="10" y1="35" x2="778.0" y2="35" style="stroke-width:1; stroke:grey; "  />
<polygon points="0,40 5,40 10,35 5,30 0,30 0,40 " style="fill:white; stroke-width:1; stroke:black; " description="&lt;b&gt;ctg1_216&lt;/b&gt;&lt;br&gt;ctg1 216&lt;br&gt;Location: 232830 - 233361" locus_tag="ctg1_216" class="clusterblast-orf" id="knownclusterblast-2_q0_0_all"  />
<polygon points="12,40 13,40 18,35 13,30 12,30 12,40 " style="fill:white; stroke-width:1; stroke:black; " description="&lt;b&gt;ctg1_217&lt;/b&gt;&lt;br&gt;ctg1 217&lt;br&gt;Location: 233448 - 233787" locus_tag="ctg1_217" class="clusterblast-orf" id="knownclusterblast-2_q1_0_all"  />
<polygon points="23,40 57,40 62,35 57,30 23,30 23,40 " style="fill:white; stroke-width:1; stroke:black; " description="&lt;b&gt;ctg1_218&lt;/b&gt;&lt;br&gt;ctg1 218&lt;br&gt;Location: 234030 - 236025" locus_tag="ctg1_218" class="clusterblast-orf" id="knownclusterblast-2_q2_0_all"  />
<polygon points="62,40 82,40 87,35 82,30 62,30 62,40 " style="fill:white; stroke-width:1; stroke:black; " description="&lt;b&gt;ctg1_219&lt;/b&gt;&lt;br&gt;ctg1 219&lt;br&gt;Location: 236038 - 237298" locus_tag="ctg1_219" class="clusterblast-orf" id="knownclusterblast-2_q3_0_all"  />
<polygon points="89,40 92,40 97,35 92,30 89,30 89,40 " style="fill:white; stroke-width:1; stroke:black; " description="&lt;b&gt;ctg1_220&lt;/b&gt;&lt;br&gt;ctg1 220&lt;br&gt;Location: 237381 - 237801" locus_tag="ctg1_220" class="clusterblast-orf" id="knownclusterblast-2_q4_0_all"  />
<polygon points="102,35 107,30 114,30 114,40 107,40 102,35 " style="fill:white; stroke-width:1; stroke:black; " description="&lt;b&gt;ctg1_221&lt;/b&gt;&lt;br&gt;ctg1 221&lt;br&gt;Location: 238095 - 238662" locus_tag="ctg1_221" class="clusterblast-orf" id="knownclusterblast-2_q5_0_all"  />
<polygon points="118,40 124,40 129,35 124,30 118,30 118,40 " style="fill:white; stroke-width:1; stroke:black; " description="&lt;b&gt;ctg1_222&lt;/b&gt;&lt;br&gt;ctg1 222&lt;br&gt;Location: 238906 - 239470" locus_tag="ctg1_222" class="clusterblast-orf" id="knownclusterblast-2_q6_0_all"  />
<polygon points="130,40 131,40 136,35 131,30 130,30 130,40 " style="fill:white; stroke-width:1; stroke:black; " description="&lt;b&gt;ctg1_223&lt;/b&gt;&lt;br&gt;ctg1 223&lt;br&gt;Location: 239501 - 239801" locus_tag="ctg1_223" class="clusterblast-orf" id="knownclusterblast-2_q7_0_all"  />
<polygon points="137,35 142,30 152,30 152,40 142,40 137,35 " style="fill:white; stroke-width:1; stroke:black; " description="&lt;b&gt;ctg1_224&lt;/b&gt;&lt;br&gt;ctg1 224&lt;br&gt;Location: 239845 - 240658" locus_tag="ctg1_224" class="clusterblast-orf" id="knownclusterblast-2_q8_0_all"  />
<polygon points="158,40 159,40 164,35 159,30 158,30 158,40 " style="fill:white; stroke-width:1; stroke:black; " description="&lt;b&gt;ctg1_225&lt;/b&gt;&lt;br&gt;ctg1 225&lt;br&gt;Location: 240931 - 241237" locus_tag="ctg1_225" class="clusterblast-orf" id="knownclusterblast-2_q9_0_all"  />
<polygon points="164,40 165,40 170,35 165,30 164,30 164,40 " style="fill:white; stroke-width:1; stroke:black; " description="&lt;b&gt;ctg1_226&lt;/b&gt;&lt;br&gt;ctg1 226&lt;br&gt;Location: 241264 - 241564" locus_tag="ctg1_226" class="clusterblast-orf" id="knownclusterblast-2_q10_0_all"  />
<polygon points="170,40 186,40 191,35 186,30 170,30 170,40 " style="fill:white; stroke-width:1; stroke:black; " description="&lt;b&gt;ctg1_227&lt;/b&gt;&lt;br&gt;ctg1 227&lt;br&gt;Location: 241580 - 242648" locus_tag="ctg1_227" class="clusterblast-orf" id="knownclusterblast-2_q11_0_all"  />
<polygon points="191,40 201,40 206,35 201,30 191,30 191,40 " style="fill:white; stroke-width:1; stroke:black; " description="&lt;b&gt;ctg1_228&lt;/b&gt;&lt;br&gt;ctg1 228&lt;br&gt;Location: 242640 - 243390" locus_tag="ctg1_228" class="clusterblast-orf" id="knownclusterblast-2_q12_0_all"  />
<polygon points="206,40 219,40 224,35 219,30 206,30 206,40 " style="fill:white; stroke-width:1; stroke:black; " description="&lt;b&gt;ctg1_229&lt;/b&gt;&lt;br&gt;ctg1 229&lt;br&gt;Location: 243405 - 244335" locus_tag="ctg1_229" class="clusterblast-orf" id="knownclusterblast-2_q13_0_all"  />
<polygon points="225,40 243,40 248,35 243,30 225,30 225,40 " style="fill:white; stroke-width:1; stroke:black; " description="&lt;b&gt;ctg1_230&lt;/b&gt;&lt;br&gt;ctg1 230&lt;br&gt;Location: 244363 - 245575" locus_tag="ctg1_230" class="clusterblast-orf" id="knownclusterblast-2_q14_0_all"  />
<polygon points="249,40 268,40 273,35 268,30 249,30 249,40 " style="fill:white; stroke-width:1; stroke:black; " description="&lt;b&gt;ctg1_231&lt;/b&gt;&lt;br&gt;ctg1 231&lt;br&gt;Location: 245617 - 246841" locus_tag="ctg1_231" class="clusterblast-orf" id="knownclusterblast-2_q15_0_all"  />
<polygon points="274,40 279,40 284,35 279,30 274,30 274,40 " style="fill:white; stroke-width:1; stroke:black; " description="&lt;b&gt;ctg1_232&lt;/b&gt;&lt;br&gt;ctg1 232&lt;br&gt;Location: 246863 - 247385" locus_tag="ctg1_232" class="clusterblast-orf" id="knownclusterblast-2_q16_0_all"  />
<polygon points="284,40 296,40 301,35 296,30 284,30 284,40 " style="fill:white; stroke-width:1; stroke:black; " description="&lt;b&gt;ctg1_233&lt;/b&gt;&lt;br&gt;ctg1 233&lt;br&gt;Location: 247420 - 248245" locus_tag="ctg1_233" class="clusterblast-orf" id="knownclusterblast-2_q17_0_all"  />
<polygon points="301,40 311,40 316,35 311,30 301,30 301,40 " style="fill:white; stroke-width:1; stroke:black; " description="&lt;b&gt;ctg1_234&lt;/b&gt;&lt;br&gt;ctg1 234&lt;br&gt;Location: 248260 - 249055" locus_tag="ctg1_234" class="clusterblast-orf" id="knownclusterblast-2_q18_0_all"  />
<polygon points="317,40 327,40 332,35 327,30 317,30 317,40 " style="fill:white; stroke-width:1; stroke:black; " description="&lt;b&gt;ctg1_235&lt;/b&gt;&lt;br&gt;ctg1 235&lt;br&gt;Location: 249070 - 249862" locus_tag="ctg1_235" class="clusterblast-orf" id="knownclusterblast-2_q19_0_all"  />
<polygon points="332,40 356,40 361,35 356,30 332,30 332,40 " style="fill:white; stroke-width:1; stroke:black; " description="&lt;b&gt;ctg1_236&lt;/b&gt;&lt;br&gt;ctg1 236&lt;br&gt;Location: 249875 - 251342" locus_tag="ctg1_236" class="clusterblast-orf" id="knownclusterblast-2_q20_0_all"  />
<polygon points="362,40 389,40 394,35 389,30 362,30 362,40 " style="fill:white; stroke-width:1; stroke:black; " description="&lt;b&gt;ctg1_237&lt;/b&gt;&lt;br&gt;ctg1 237&lt;br&gt;Location: 251380 - 253021" locus_tag="ctg1_237" class="clusterblast-orf" id="knownclusterblast-2_q21_0_all"  />
<polygon points="397,40 415,40 420,35 415,30 397,30 397,40 " style="fill:white; stroke-width:1; stroke:black; " description="&lt;b&gt;ctg1_238&lt;/b&gt;&lt;br&gt;ctg1 238&lt;br&gt;Location: 253176 - 254373" locus_tag="ctg1_238" class="clusterblast-orf" id="knownclusterblast-2_q22_0_all"  />
<polygon points="421,35 426,30 447,30 447,40 426,40 421,35 " style="fill:white; stroke-width:1; stroke:black; " description="&lt;b&gt;ctg1_239&lt;/b&gt;&lt;br&gt;ctg1 239&lt;br&gt;Location: 254434 - 255733" locus_tag="ctg1_239" class="clusterblast-orf" id="knownclusterblast-2_q23_0_all"  />
<polygon points="451,40 456,40 461,35 456,30 451,30 451,40 " style="fill:white; stroke-width:1; stroke:black; " description="&lt;b&gt;ctg1_240&lt;/b&gt;&lt;br&gt;ctg1 240&lt;br&gt;Location: 255967 - 256450" locus_tag="ctg1_240" class="clusterblast-orf" id="knownclusterblast-2_q24_0_all"  />
<polygon points="464,40 485,40 490,35 485,30 464,30 464,40 " style="fill:white; stroke-width:1; stroke:black; " description="&lt;b&gt;ctg1_241&lt;/b&gt;&lt;br&gt;ctg1 241&lt;br&gt;Location: 256628 - 257951" locus_tag="ctg1_241" class="clusterblast-orf" id="knownclusterblast-2_q25_0_all"  />
<polygon points="489,35 494,30 505,30 505,40 494,40 489,35 " style="fill:white; stroke-width:1; stroke:black; " description="&lt;b&gt;ctg1_242&lt;/b&gt;&lt;br&gt;ctg1 242&lt;br&gt;Location: 257917 - 258706" locus_tag="ctg1_242" class="clusterblast-orf" id="knownclusterblast-2_q26_0_all"  />
<polygon points="507,40 526,40 531,35 526,30 507,30 507,40 " style="fill:white; stroke-width:1; stroke:black; " description="&lt;b&gt;ctg1_243&lt;/b&gt;&lt;br&gt;ctg1 243&lt;br&gt;Location: 258812 - 260033" locus_tag="ctg1_243" class="clusterblast-orf" id="knownclusterblast-2_q27_0_all"  />
<polygon points="532,35 537,30 554,30 554,40 537,40 532,35 " style="fill:white; stroke-width:1; stroke:black; " description="&lt;b&gt;ctg1_244&lt;/b&gt;&lt;br&gt;ctg1 244&lt;br&gt;Location: 260101 - 261247" locus_tag="ctg1_244" class="clusterblast-orf" id="knownclusterblast-2_q28_0_all"  />
<polygon points="558,40 562,40 567,35 562,30 558,30 558,40 " style="fill:white; stroke-width:1; stroke:black; " description="&lt;b&gt;ctg1_245&lt;/b&gt;&lt;br&gt;ctg1 245&lt;br&gt;Location: 261439 - 261886" locus_tag="ctg1_245" class="clusterblast-orf" id="knownclusterblast-2_q29_0_all"  />
<polygon points="567,35 572,30 585,30 585,40 572,40 567,35 " style="fill:white; stroke-width:1; stroke:black; " description="&lt;b&gt;ctg1_246&lt;/b&gt;&lt;br&gt;ctg1 246&lt;br&gt;Location: 261897 - 262803" locus_tag="ctg1_246" class="clusterblast-orf" id="knownclusterblast-2_q30_0_all"  />
<polygon points="587,40 597,40 602,35 597,30 587,30 587,40 " style="fill:white; stroke-width:1; stroke:black; " description="&lt;b&gt;ctg1_247&lt;/b&gt;&lt;br&gt;ctg1 247&lt;br&gt;Location: 262945 - 263695" locus_tag="ctg1_247" class="clusterblast-orf" id="knownclusterblast-2_q31_0_all"  />
<polygon points="603,40 624,40 629,35 624,30 603,30 603,40 " style="fill:white; stroke-width:1; stroke:black; " description="&lt;b&gt;ctg1_248&lt;/b&gt;&lt;br&gt;ctg1 248&lt;br&gt;Location: 263743 - 265072" locus_tag="ctg1_248" class="clusterblast-orf" id="knownclusterblast-2_q32_0_all"  />
<polygon points="629,40 641,40 646,35 641,30 629,30 629,40 " style="fill:white; stroke-width:1; stroke:black; " description="&lt;b&gt;ctg1_249&lt;/b&gt;&lt;br&gt;ctg1 249&lt;br&gt;Location: 265085 - 265937" locus_tag="ctg1_249" class="clusterblast-orf" id="knownclusterblast-2_q33_0_all"  />
<polygon points="646,40 661,40 666,35 661,30 646,30 646,40 " style="fill:white; stroke-width:1; stroke:black; " description="&lt;b&gt;ctg1_250&lt;/b&gt;&lt;br&gt;ctg1 250&lt;br&gt;Location: 265947 - 266952" locus_tag="ctg1_250" class="clusterblast-orf" id="knownclusterblast-2_q34_0_all"  />
<polygon points="667,35 672,30 685,30 685,40 672,40 667,35 " style="fill:white; stroke-width:1; stroke:black; " description="&lt;b&gt;ctg1_251&lt;/b&gt;&lt;br&gt;ctg1 251&lt;br&gt;Location: 267034 - 267937" locus_tag="ctg1_251" class="clusterblast-orf" id="knownclusterblast-2_q35_0_all"  />
<polygon points="684,35 689,30 739,30 739,40 689,40 684,35 " style="fill:white; stroke-width:1; stroke:black; " description="&lt;b&gt;ctg1_252&lt;/b&gt;&lt;br&gt;ctg1 252&lt;br&gt;Location: 267878 - 270701" locus_tag="ctg1_252" class="clusterblast-orf" id="knownclusterblast-2_q36_0_all"  />
<polygon points="748,40 775,40 780,35 775,30 748,30 748,40 " style="fill:white; stroke-width:1; stroke:black; " description="&lt;b&gt;ctg1_253&lt;/b&gt;&lt;br&gt;ctg1 253&lt;br&gt;Location: 271163 - 272795" locus_tag="ctg1_253" class="clusterblast-orf" id="knownclusterblast-2_q37_0_all"  />
</g>
</svg>
