<svg xmlns="http://www.w3.org/2000/svg" xmlns:xlink="http://www.w3.org/1999/xlink" version="1.1" x="0" y="0" height="230" width="800" viewBox="0 0 800 230" preserveAspectRatio="none"  >
<g label="Query sequence" class="clusterblast-cluster"  >
<text x="5" y="20" class="clusterblast-acc"  >
Query sequence</text>
<line x1="10" y1="35" x2="778.0" y2="35" style="stroke-width:1; stroke:grey; "  />
<polygon points="0,40 31,40 36,35 31,30 0,30 0,40 " style="fill:white; stroke-width:1; stroke:black; " description="&lt;b&gt;ctg1_2137&lt;/b&gt;&lt;br&gt;ctg1 2137&lt;br&gt;Location: 2329928 - 2330942" locus_tag="ctg1_2137" class="clusterblast-orf" id="dummy-5_q0_0_all"  />
<polygon points="50,35 55,30 82,30 82,40 55,40 50,35 " style="fill:white; stroke-width:1; stroke:black; " description="&lt;b&gt;ctg1_2138&lt;/b&gt;&lt;br&gt;ctg1 2138&lt;br&gt;Location: 2331349 - 2332240" locus_tag="ctg1_2138" class="clusterblast-orf" id="dummy-5_q1_0_all"  />
<polygon points="82,35 87,30 124,30 124,40 87,40 82,35 " style="fill:white; stroke-width:1; stroke:black; " description="&lt;b&gt;ctg1_2139&lt;/b&gt;&lt;br&gt;ctg1 2139&lt;br&gt;Location: 2332254 - 2333421" locus_tag="ctg1_2139" class="clusterblast-orf" id="dummy-5_q2_0_all"  />
<polygon points="129,35 134,30 180,30 180,40 134,40 129,35 " style="fill:white; stroke-width:1; stroke:black; " description="&lt;b&gt;ctg1_2140&lt;/b&gt;&lt;br&gt;ctg1 2140&lt;br&gt;Location: 2333568 - 2335002" locus_tag="ctg1_2140" class="clusterblast-orf" id="dummy-5_q3_0_all"  />
<polygon points="182,35 187,30 225,30 225,40 187,40 182,35 " style="fill:white; stroke-width:1; stroke:black; " description="&lt;b&gt;ctg1_2141&lt;/b&gt;&lt;br&gt;ctg1 2141&lt;br&gt;Location: 2335063 - 2336260" locus_tag="ctg1_2141" class="clusterblast-orf" id="dummy-5_q4_0_all"  />
<polygon points="225,35 230,30 326,30 326,40 230,40 225,35 " style="fill:white; stroke-width:1; stroke:black; " description="&lt;b&gt;ctg1_2142&lt;/b&gt;&lt;br&gt;ctg1 2142&lt;br&gt;Location: 2336259 - 2339100" locus_tag="ctg1_2142" class="clusterblast-orf" id="dummy-5_q5_0_all"  />
<polygon points="346,35 351,30 371,30 371,40 351,40 346,35 " style="fill:#d81515; stroke-width:1; stroke:black; " description="&lt;b&gt;ctg1_2143&lt;/b&gt;&lt;br&gt;ctg1 2143&lt;br&gt;Location: 2339669 - 2340380" locus_tag="ctg1_2143" class="clusterblast-orf" id="dummy-5_q6_0_all"  />
<polygon points="372,35 377,30 437,30 437,40 377,40 372,35 " style="fill:#15d8d8; stroke-width:1; stroke:black; " description="&lt;b&gt;ctg1_2144&lt;/b&gt;&lt;br&gt;ctg1 2144&lt;br&gt;Location: 2340394 - 2342230" locus_tag="ctg1_2144" class="clusterblast-orf" id="dummy-5_q7_0_all"  />
<polygon points="437,35 442,30 450,30 450,40 442,40 437,35 " style="fill:white; stroke-width:1; stroke:black; " description="&lt;b&gt;ctg1_2145&lt;/b&gt;&lt;br&gt;ctg1 2145&lt;br&gt;Location: 2342242 - 2342608" locus_tag="ctg1_2145" class="clusterblast-orf" id="dummy-5_q8_0_all"  />
<polygon points="450,35 455,30 464,30 464,40 455,40 450,35 " style="fill:white; stroke-width:1; stroke:black; " description="&lt;b&gt;ctg1_2146&lt;/b&gt;&lt;br&gt;ctg1 2146&lt;br&gt;Location: 2342607 - 2343000" locus_tag="ctg1_2146" class="clusterblast-orf" id="dummy-5_q9_0_all"  />
<polygon points="489,35 493,30 493,40 489,35 " style="fill:white; stroke-width:1; stroke:black; " description="&lt;b&gt;ctg1_2147&lt;/b&gt;&lt;br&gt;ctg1 2147&lt;br&gt;Location: 2343701 - 2343815" locus_tag="ctg1_2147" class="clusterblast-orf" id="dummy-5_q10_0_all"  />
<polygon points="498,40 538,40 543,35 538,30 498,30 498,40 " style="fill:white; stroke-width:1; stroke:black; " description="&lt;b&gt;ctg1_2148&lt;/b&gt;&lt;br&gt;ctg1 2148&lt;br&gt;Location: 2343952 - 2345227" locus_tag="ctg1_2148" class="clusterblast-orf" id="dummy-5_q11_0_all"  />
<polygon points="546,35 551,30 563,30 563,40 551,40 546,35 " style="fill:white; stroke-width:1; stroke:black; " description="&lt;b&gt;ctg1_2149&lt;/b&gt;&lt;br&gt;ctg1 2149&lt;br&gt;Location: 2345298 - 2345784" locus_tag="ctg1_2149" class="clusterblast-orf" id="dummy-5_q12_0_all"  />
<polygon points="567,40 595,40 600,35 595,30 567,30 567,40 " style="fill:white; stroke-width:1; stroke:black; " description="&lt;b&gt;ctg1_2150&lt;/b&gt;&lt;br&gt;ctg1 2150&lt;br&gt;Location: 2345895 - 2346828" locus_tag="ctg1_2150" class="clusterblast-orf" id="dummy-5_q13_0_all"  />
<polygon points="605,35 610,30 623,30 623,40 610,40 605,35 " style="fill:white; stroke-width:1; stroke:black; " description="&lt;b&gt;ctg1_2151&lt;/b&gt;&lt;br&gt;ctg1 2151&lt;br&gt;Location: 2346951 - 2347476" locus_tag="ctg1_2151" class="clusterblast-orf" id="dummy-5_q14_0_all"  />
<polygon points="626,35 631,30 633,30 633,40 631,40 626,35 " style="fill:white; stroke-width:1; stroke:black; " description="&lt;b&gt;ctg1_2152&lt;/b&gt;&lt;br&gt;ctg1 2152&lt;br&gt;Location: 2347550 - 2347757" locus_tag="ctg1_2152" class="clusterblast-orf" id="dummy-5_q15_0_all"  />
<polygon points="646,40 709,40 714,35 709,30 646,30 646,40 " style="fill:white; stroke-width:1; stroke:black; " description="&lt;b&gt;ctg1_2153&lt;/b&gt;&lt;br&gt;ctg1 2153&lt;br&gt;Location: 2348115 - 2350026" locus_tag="ctg1_2153" class="clusterblast-orf" id="dummy-5_q16_0_all"  />
<polygon points="717,40 723,40 728,35 723,30 717,30 717,40 " style="fill:white; stroke-width:1; stroke:black; " description="&lt;b&gt;ctg1_2154&lt;/b&gt;&lt;br&gt;ctg1 2154&lt;br&gt;Location: 2350123 - 2350411" locus_tag="ctg1_2154" class="clusterblast-orf" id="dummy-5_q17_0_all"  />
<polygon points="735,40 753,40 758,35 753,30 735,30 735,40 " style="fill:white; stroke-width:1; stroke:black; " description="&lt;b&gt;ctg1_2155&lt;/b&gt;&lt;br&gt;ctg1 2155&lt;br&gt;Location: 2350613 - 2351267" locus_tag="ctg1_2155" class="clusterblast-orf" id="dummy-5_q18_0_all"  />
<polygon points="761,40 775,40 780,35 775,30 761,30 761,40 " style="fill:white; stroke-width:1; stroke:black; " description="&lt;b&gt;ctg1_2156&lt;/b&gt;&lt;br&gt;ctg1 2156&lt;br&gt;Location: 2351348 - 2351882" locus_tag="ctg1_2156" class="clusterblast-orf" id="dummy-5_q19_0_all"  />
</g>
<g label="MGC00000058" description="MGC00000058_c1: Fumarate2succinate suc dh E. coli (100% of genes show similarity), SUC" class="clusterblast-cluster"  >
<text x="5" y="70" class="clusterblast-acc"  >
MGC00000058_c1: Fumarate2succinate suc dh E. coli (100% of genes show similarity), SUC</text>
<line x1="10" y1="85" x2="778.0" y2="85" style="stroke-width:1; stroke:grey; "  />
</g>
<g id="a5_000"  >
<polygon points="345,85 350,80 371,80 371,90 350,90 345,85 " style="fill:#d81515; stroke-width:1; stroke:black; " description="&lt;b&gt;HMPREF9550_01792&lt;/b&gt;&lt;br&gt;succinate dehydrogenase iron-sulfur subunit&lt;br&gt;Location: 10000 - 10717&lt;br&gt;&lt;br&gt;&lt;b&gt;BlastP hit with ctg1_2143&lt;/b&gt;&lt;br&gt;Percentage identity: 69&lt;br&gt;Percentage coverage: 98&lt;br&gt;BLAST bit score: 335&lt;br&gt;E-value: 1.15e-119" locus_tag="HMPREF9550_01792" class="clusterblast-orf" id="dummy-5_h5_1_0"  />
</g>
<g id="a5_001"  >
<polygon points="371,85 376,80 434,80 434,90 376,90 371,85 " style="fill:#15d8d8; stroke-width:1; stroke:black; " description="&lt;b&gt;HMPREF9550_01793&lt;/b&gt;&lt;br&gt;succinate dehydrogenase, flavoprotein subunit&lt;br&gt;Location: 10732 - 12499&lt;br&gt;&lt;br&gt;&lt;b&gt;BlastP hit with ctg1_2144&lt;/b&gt;&lt;br&gt;Percentage identity: 53&lt;br&gt;Percentage coverage: 98&lt;br&gt;BLAST bit score: 621&lt;br&gt;E-value: 4.63e-221" locus_tag="HMPREF9550_01793" class="clusterblast-orf" id="dummy-5_h5_1_1"  />
</g>
</svg>
