<svg xmlns="http://www.w3.org/2000/svg" xmlns:xlink="http://www.w3.org/1999/xlink" version="1.1" x="0" y="0" height="100" width="800" viewBox="0 0 800 100" preserveAspectRatio="none"  >
<g label="Query sequence" class="clusterblast-cluster"  >
<text x="5" y="20" class="clusterblast-acc"  >
Query sequence</text>
<line x1="10" y1="35" x2="778.0" y2="35" style="stroke-width:1; stroke:grey; "  />
<polygon points="0,35 5,30 9,30 9,40 5,40 0,35 " style="fill:white; stroke-width:1; stroke:black; " description="&lt;b&gt;ctg135_12&lt;/b&gt;&lt;br&gt;ctg135 12&lt;br&gt;Location: 6825 - 7005" locus_tag="ctg135_12" class="clusterblast-orf" id="knownclusterblast-1_q0_0_all"  />
<polygon points="32,40 47,40 52,35 47,30 32,30 32,40 " style="fill:white; stroke-width:1; stroke:black; " description="&lt;b&gt;ctg135_13&lt;/b&gt;&lt;br&gt;ctg135 13&lt;br&gt;Location: 7451 - 7829" locus_tag="ctg135_13" class="clusterblast-orf" id="knownclusterblast-1_q1_0_all"  />
<polygon points="56,35 61,30 67,30 67,40 61,40 56,35 " style="fill:white; stroke-width:1; stroke:black; " description="&lt;b&gt;ctg135_14&lt;/b&gt;&lt;br&gt;ctg135 14&lt;br&gt;Location: 7896 - 8112" locus_tag="ctg135_14" class="clusterblast-orf" id="knownclusterblast-1_q2_0_all"  />
<polygon points="68,40 91,40 96,35 91,30 68,30 68,40 " style="fill:white; stroke-width:1; stroke:black; " description="&lt;b&gt;ctg135_15&lt;/b&gt;&lt;br&gt;ctg135 15&lt;br&gt;Location: 8133 - 8670" locus_tag="ctg135_15" class="clusterblast-orf" id="knownclusterblast-1_q3_0_all"  />
<polygon points="101,35 106,30 108,30 108,40 106,40 101,35 " style="fill:white; stroke-width:1; stroke:black; " description="&lt;b&gt;ctg135_16&lt;/b&gt;&lt;br&gt;ctg135 16&lt;br&gt;Location: 8770 - 8908" locus_tag="ctg135_16" class="clusterblast-orf" id="knownclusterblast-1_q4_0_all"  />
<polygon points="110,35 115,30 116,30 116,40 115,40 110,35 " style="fill:white; stroke-width:1; stroke:black; " description="&lt;b&gt;ctg135_17&lt;/b&gt;&lt;br&gt;ctg135 17&lt;br&gt;Location: 8951 - 9053" locus_tag="ctg135_17" class="clusterblast-orf" id="knownclusterblast-1_q5_0_all"  />
<polygon points="115,35 120,30 134,30 134,40 120,40 115,35 " style="fill:white; stroke-width:1; stroke:black; " description="&lt;b&gt;ctg135_18&lt;/b&gt;&lt;br&gt;ctg135 18&lt;br&gt;Location: 9049 - 9406" locus_tag="ctg135_18" class="clusterblast-orf" id="knownclusterblast-1_q6_0_all"  />
<polygon points="140,35 145,30 155,30 155,40 145,40 140,35 " style="fill:white; stroke-width:1; stroke:black; " description="&lt;b&gt;ctg135_19&lt;/b&gt;&lt;br&gt;ctg135 19&lt;br&gt;Location: 9514 - 9808" locus_tag="ctg135_19" class="clusterblast-orf" id="knownclusterblast-1_q7_0_all"  />
<polygon points="168,40 169,40 174,35 169,30 168,30 168,40 " style="fill:white; stroke-width:1; stroke:black; " description="&lt;b&gt;ctg135_20&lt;/b&gt;&lt;br&gt;ctg135 20&lt;br&gt;Location: 10064 - 10172" locus_tag="ctg135_20" class="clusterblast-orf" id="knownclusterblast-1_q8_0_all"  />
<polygon points="181,35 186,30 206,30 206,40 186,40 181,35 " style="fill:white; stroke-width:1; stroke:black; " description="&lt;b&gt;ctg135_21&lt;/b&gt;&lt;br&gt;ctg135 21&lt;br&gt;Location: 10320 - 10797" locus_tag="ctg135_21" class="clusterblast-orf" id="knownclusterblast-1_q9_0_all"  />
<polygon points="229,35 234,30 244,30 244,40 234,40 229,35 " style="fill:white; stroke-width:1; stroke:black; " description="&lt;b&gt;ctg135_22&lt;/b&gt;&lt;br&gt;ctg135 22&lt;br&gt;Location: 11240 - 11522" locus_tag="ctg135_22" class="clusterblast-orf" id="knownclusterblast-1_q10_0_all"  />
<polygon points="267,35 272,30 282,30 282,40 272,40 267,35 " style="fill:white; stroke-width:1; stroke:black; " description="&lt;b&gt;ctg135_23&lt;/b&gt;&lt;br&gt;ctg135 23&lt;br&gt;Location: 11968 - 12256" locus_tag="ctg135_23" class="clusterblast-orf" id="knownclusterblast-1_q11_0_all"  />
<polygon points="286,40 349,40 354,35 349,30 286,30 286,40 " style="fill:white; stroke-width:1; stroke:black; " description="&lt;b&gt;ctg135_24&lt;/b&gt;&lt;br&gt;ctg135 24&lt;br&gt;Location: 12339 - 13656" locus_tag="ctg135_24" class="clusterblast-orf" id="knownclusterblast-1_q12_0_all"  />
<polygon points="360,35 365,30 374,30 374,40 365,40 360,35 " style="fill:white; stroke-width:1; stroke:black; " description="&lt;b&gt;ctg135_25&lt;/b&gt;&lt;br&gt;ctg135 25&lt;br&gt;Location: 13769 - 14036" locus_tag="ctg135_25" class="clusterblast-orf" id="knownclusterblast-1_q13_0_all"  />
<polygon points="375,40 410,40 415,35 410,30 375,30 375,40 " style="fill:white; stroke-width:1; stroke:black; " description="&lt;b&gt;ctg135_26&lt;/b&gt;&lt;br&gt;ctg135 26&lt;br&gt;Location: 14048 - 14831" locus_tag="ctg135_26" class="clusterblast-orf" id="knownclusterblast-1_q14_0_all"  />
<polygon points="416,40 473,40 478,35 473,30 416,30 416,40 " style="fill:white; stroke-width:1; stroke:black; " description="&lt;b&gt;ctg135_27&lt;/b&gt;&lt;br&gt;ctg135 27&lt;br&gt;Location: 14841 - 16044" locus_tag="ctg135_27" class="clusterblast-orf" id="knownclusterblast-1_q15_0_all"  />
<polygon points="503,40 552,40 557,35 552,30 503,30 503,40 " style="fill:#d81515; stroke-width:1; stroke:black; " description="&lt;b&gt;ctg135_28&lt;/b&gt;&lt;br&gt;ctg135 28&lt;br&gt;Location: 16517 - 17561" locus_tag="ctg135_28" class="clusterblast-orf" id="knownclusterblast-1_q16_0_all"  />
<polygon points="558,40 573,40 578,35 573,30 558,30 558,40 " style="fill:#15d815; stroke-width:1; stroke:black; " description="&lt;b&gt;ctg135_29&lt;/b&gt;&lt;br&gt;ctg135 29&lt;br&gt;Location: 17585 - 17975" locus_tag="ctg135_29" class="clusterblast-orf" id="knownclusterblast-1_q17_0_all"  />
<polygon points="577,40 585,40 590,35 585,30 577,30 577,40 " style="fill:white; stroke-width:1; stroke:black; " description="&lt;b&gt;ctg135_30&lt;/b&gt;&lt;br&gt;ctg135 30&lt;br&gt;Location: 17949 - 18207" locus_tag="ctg135_30" class="clusterblast-orf" id="knownclusterblast-1_q18_0_all"  />
<polygon points="589,40 733,40 738,35 733,30 589,30 589,40 " style="fill:#1515d8; stroke-width:1; stroke:black; " description="&lt;b&gt;ctg135_31&lt;/b&gt;&lt;br&gt;ctg135 31&lt;br&gt;Location: 18181 - 21055" locus_tag="ctg135_31" class="clusterblast-orf" id="knownclusterblast-1_q19_0_all"  />
<polygon points="741,40 775,40 780,35 775,30 741,30 741,40 " style="fill:white; stroke-width:1; stroke:black; " description="&lt;b&gt;ctg135_32&lt;/b&gt;&lt;br&gt;ctg135 32&lt;br&gt;Location: 21117 - 21861" locus_tag="ctg135_32" class="clusterblast-orf" id="knownclusterblast-1_q20_0_all"  />
</g>
<g label="MGC00000027" description="MGC00000027_c1: Glycine cleavage C. sticklandii (60% of genes show similarity), GLY" class="clusterblast-cluster"  >
<text x="5" y="70" class="clusterblast-acc"  >
MGC00000027_c1: Glycine cleavage C. sticklandii (60% of genes show similarity), GLY</text>
<line x1="10" y1="85" x2="778.0" y2="85" style="stroke-width:1; stroke:grey; "  />
</g>
<g id="a1_000"  >
<polygon points="243,90 295,90 300,85 295,80 243,80 243,90 " style="fill:#d81515; stroke-width:1; stroke:black; " description="&lt;b&gt;CLOST_RS02260&lt;/b&gt;&lt;br&gt;glycine cleavage system protein T&lt;br&gt;Location: 18168 - 19266&lt;br&gt;&lt;br&gt;&lt;b&gt;BlastP hit with ctg135_28&lt;/b&gt;&lt;br&gt;Percentage identity: 36&lt;br&gt;Percentage coverage: 102&lt;br&gt;BLAST bit score: 208&lt;br&gt;E-value: 1.71e-66" locus_tag="CLOST_RS02260" class="clusterblast-orf" id="knownclusterblast-1_all_1_1_0"  />
</g>
<g id="a1_001"  >
<polygon points="306,90 321,90 326,85 321,80 306,80 306,90 " style="fill:#15d815; stroke-width:1; stroke:black; " description="&lt;b&gt;CLOST_RS02265&lt;/b&gt;&lt;br&gt;glycine cleavage system protein H&lt;br&gt;Location: 19377 - 19758&lt;br&gt;&lt;br&gt;&lt;b&gt;BlastP hit with ctg135_29&lt;/b&gt;&lt;br&gt;Percentage identity: 40&lt;br&gt;Percentage coverage: 96&lt;br&gt;BLAST bit score: 95&lt;br&gt;E-value: 3.34e-28" locus_tag="CLOST_RS02265" class="clusterblast-orf" id="knownclusterblast-1_all_1_1_1"  />
</g>
<g id="a1_002"  >
<polygon points="326,90 391,90 396,85 391,80 326,80 326,90 " style="fill:white; stroke-width:1; stroke:black; " description="&lt;b&gt;CLOST_RS02270&lt;/b&gt;&lt;br&gt;aminomethyl-transferring glycine dehydrogenase&lt;br&gt;Location: 19761 - 21105" locus_tag="CLOST_RS02270" class="clusterblast-orf" id="knownclusterblast-1_all_1_1_2"  />
</g>
<g id="a1_003"  >
<polygon points="396,90 466,90 471,85 466,80 396,80 396,90 " style="fill:#1515d8; stroke-width:1; stroke:black; " description="&lt;b&gt;CLOST_RS02275&lt;/b&gt;&lt;br&gt;glycine dehydrogenase subunit 2&lt;br&gt;Location: 21101 - 22559&lt;br&gt;&lt;br&gt;&lt;b&gt;BlastP hit with ctg135_31&lt;/b&gt;&lt;br&gt;Percentage identity: 40&lt;br&gt;Percentage coverage: 49&lt;br&gt;BLAST bit score: 317&lt;br&gt;E-value: 2.59e-100" locus_tag="CLOST_RS02275" class="clusterblast-orf" id="knownclusterblast-1_all_1_1_3"  />
</g>
<g id="a1_004"  >
<polygon points="474,85 479,80 536,80 536,90 479,90 474,85 " style="fill:white; stroke-width:1; stroke:black; " description="&lt;b&gt;CLOST_RS02280&lt;/b&gt;&lt;br&gt;pyridoxal phosphate-dependent aminotransferase&lt;br&gt;Location: 22614 - 23799" locus_tag="CLOST_RS02280" class="clusterblast-orf" id="knownclusterblast-1_all_1_1_4"  />
</g>
</svg>
