<svg xmlns="http://www.w3.org/2000/svg" xmlns:xlink="http://www.w3.org/1999/xlink" version="1.1" x="0" y="0" height="230" width="800" viewBox="0 0 800 230" preserveAspectRatio="none"  >
<g label="Query sequence" class="clusterblast-cluster"  >
<text x="5" y="20" class="clusterblast-acc"  >
Query sequence</text>
<line x1="10" y1="35" x2="778.0" y2="35" style="stroke-width:1; stroke:grey; "  />
<polygon points="0,35 5,30 19,30 19,40 5,40 0,35 " style="fill:white; stroke-width:1; stroke:black; " description="&lt;b&gt;ctg82_9&lt;/b&gt;&lt;br&gt;ctg82 9&lt;br&gt;Location: 7292 - 8495" locus_tag="ctg82_9" class="clusterblast-orf" id="dummy-1_q0_0_all"  />
<polygon points="24,40 27,40 32,35 27,30 24,30 24,40 " style="fill:white; stroke-width:1; stroke:black; " description="&lt;b&gt;ctg82_10&lt;/b&gt;&lt;br&gt;ctg82 10&lt;br&gt;Location: 8832 - 9288" locus_tag="ctg82_10" class="clusterblast-orf" id="dummy-1_q1_0_all"  />
<polygon points="33,40 36,40 41,35 36,30 33,30 33,40 " style="fill:white; stroke-width:1; stroke:black; " description="&lt;b&gt;ctg82_11&lt;/b&gt;&lt;br&gt;ctg82 11&lt;br&gt;Location: 9375 - 9870" locus_tag="ctg82_11" class="clusterblast-orf" id="dummy-1_q2_0_all"  />
<polygon points="41,40 47,40 52,35 47,30 41,30 41,40 " style="fill:white; stroke-width:1; stroke:black; " description="&lt;b&gt;ctg82_12&lt;/b&gt;&lt;br&gt;ctg82 12&lt;br&gt;Location: 9881 - 10541" locus_tag="ctg82_12" class="clusterblast-orf" id="dummy-1_q3_0_all"  />
<polygon points="53,40 78,40 83,35 78,30 53,30 53,40 " style="fill:white; stroke-width:1; stroke:black; " description="&lt;b&gt;ctg82_13&lt;/b&gt;&lt;br&gt;ctg82 13&lt;br&gt;Location: 10617 - 12450" locus_tag="ctg82_13" class="clusterblast-orf" id="dummy-1_q4_0_all"  />
<polygon points="84,35 89,30 93,30 93,40 89,40 84,35 " style="fill:white; stroke-width:1; stroke:black; " description="&lt;b&gt;ctg82_14&lt;/b&gt;&lt;br&gt;ctg82 14&lt;br&gt;Location: 12494 - 13094" locus_tag="ctg82_14" class="clusterblast-orf" id="dummy-1_q5_0_all"  />
<polygon points="97,35 102,30 116,30 116,40 102,40 97,35 " style="fill:white; stroke-width:1; stroke:black; " description="&lt;b&gt;ctg82_15&lt;/b&gt;&lt;br&gt;ctg82 15&lt;br&gt;Location: 13310 - 14528" locus_tag="ctg82_15" class="clusterblast-orf" id="dummy-1_q6_0_all"  />
<polygon points="130,40 140,40 145,35 140,30 130,30 130,40 " style="fill:white; stroke-width:1; stroke:black; " description="&lt;b&gt;ctg82_16&lt;/b&gt;&lt;br&gt;ctg82 16&lt;br&gt;Location: 15399 - 16326" locus_tag="ctg82_16" class="clusterblast-orf" id="dummy-1_q7_0_all"  />
<polygon points="151,35 154,30 154,40 151,35 " style="fill:white; stroke-width:1; stroke:black; " description="&lt;b&gt;ctg82_17&lt;/b&gt;&lt;br&gt;ctg82 17&lt;br&gt;Location: 16708 - 16849" locus_tag="ctg82_17" class="clusterblast-orf" id="dummy-1_q8_0_all"  />
<polygon points="156,40 158,40 163,35 158,30 156,30 156,40 " style="fill:#d81515; stroke-width:1; stroke:black; " description="&lt;b&gt;ctg82_18&lt;/b&gt;&lt;br&gt;ctg82 18&lt;br&gt;Location: 16977 - 17424" locus_tag="ctg82_18" class="clusterblast-orf" id="dummy-1_q9_0_all"  />
<polygon points="163,40 169,40 174,35 169,30 163,30 163,40 " style="fill:#77d815; stroke-width:1; stroke:black; " description="&lt;b&gt;ctg82_19&lt;/b&gt;&lt;br&gt;ctg82 19&lt;br&gt;Location: 17439 - 18114" locus_tag="ctg82_19" class="clusterblast-orf" id="dummy-1_q10_0_all"  />
<polygon points="175,40 200,40 205,35 200,30 175,30 175,40 " style="fill:#15d8d8; stroke-width:1; stroke:black; " description="&lt;b&gt;ctg82_20&lt;/b&gt;&lt;br&gt;ctg82 20&lt;br&gt;Location: 18200 - 20009" locus_tag="ctg82_20" class="clusterblast-orf" id="dummy-1_q11_0_all"  />
<polygon points="205,40 208,40 213,35 208,30 205,30 205,40 " style="fill:#7715d8; stroke-width:1; stroke:black; " description="&lt;b&gt;ctg82_21&lt;/b&gt;&lt;br&gt;ctg82 21&lt;br&gt;Location: 20011 - 20512" locus_tag="ctg82_21" class="clusterblast-orf" id="dummy-1_q12_0_all"  />
<polygon points="213,40 229,40 234,35 229,30 213,30 213,40 " style="fill:#d85e15; stroke-width:1; stroke:black; " description="&lt;b&gt;ctg82_22&lt;/b&gt;&lt;br&gt;ctg82 22&lt;br&gt;Location: 20508 - 21846" locus_tag="ctg82_22" class="clusterblast-orf" id="dummy-1_q13_0_all"  />
<polygon points="235,40 274,40 279,35 274,30 235,30 235,40 " style="fill:#2ed815; stroke-width:1; stroke:black; " description="&lt;b&gt;ctg82_23&lt;/b&gt;&lt;br&gt;ctg82 23&lt;br&gt;Location: 21878 - 24605" locus_tag="ctg82_23" class="clusterblast-orf" id="dummy-1_q14_0_all"  />
<polygon points="279,40 289,40 294,35 289,30 279,30 279,40 " style="fill:#158fd8; stroke-width:1; stroke:black; " description="&lt;b&gt;ctg82_24&lt;/b&gt;&lt;br&gt;ctg82 24&lt;br&gt;Location: 24601 - 25579" locus_tag="ctg82_24" class="clusterblast-orf" id="dummy-1_q15_0_all"  />
<polygon points="295,40 298,40 303,35 298,30 295,30 295,40 " style="fill:#c015d8; stroke-width:1; stroke:black; " description="&lt;b&gt;ctg82_25&lt;/b&gt;&lt;br&gt;ctg82 25&lt;br&gt;Location: 25593 - 26136" locus_tag="ctg82_25" class="clusterblast-orf" id="dummy-1_q16_0_all"  />
<polygon points="304,40 308,40 313,35 308,30 304,30 304,40 " style="fill:#d8a715; stroke-width:1; stroke:black; " description="&lt;b&gt;ctg82_26&lt;/b&gt;&lt;br&gt;ctg82 26&lt;br&gt;Location: 26147 - 26702" locus_tag="ctg82_26" class="clusterblast-orf" id="dummy-1_q17_0_all"  />
<polygon points="312,40 312,40 317,35 312,30 312,30 312,40 " style="fill:#15d846; stroke-width:1; stroke:black; " description="&lt;b&gt;ctg82_27&lt;/b&gt;&lt;br&gt;ctg82 27&lt;br&gt;Location: 26698 - 27001" locus_tag="ctg82_27" class="clusterblast-orf" id="dummy-1_q18_0_all"  />
<polygon points="317,40 342,40 347,35 342,30 317,30 317,40 " style="fill:#1546d8; stroke-width:1; stroke:black; " description="&lt;b&gt;ctg82_28&lt;/b&gt;&lt;br&gt;ctg82 28&lt;br&gt;Location: 26997 - 28839" locus_tag="ctg82_28" class="clusterblast-orf" id="dummy-1_q19_0_all"  />
<polygon points="350,40 369,40 374,35 369,30 350,30 350,40 " style="fill:#d815a7; stroke-width:1; stroke:black; " description="&lt;b&gt;ctg82_29&lt;/b&gt;&lt;br&gt;ctg82 29&lt;br&gt;Location: 29008 - 30538" locus_tag="ctg82_29" class="clusterblast-orf" id="dummy-1_q20_0_all"  />
<polygon points="374,40 393,40 398,35 393,30 374,30 374,40 " style="fill:#c0d815; stroke-width:1; stroke:black; " description="&lt;b&gt;ctg82_30&lt;/b&gt;&lt;br&gt;ctg82 30&lt;br&gt;Location: 30544 - 32002" locus_tag="ctg82_30" class="clusterblast-orf" id="dummy-1_q21_0_all"  />
<polygon points="399,35 404,30 414,30 414,40 404,40 399,35 " style="fill:white; stroke-width:1; stroke:black; " description="&lt;b&gt;ctg82_31&lt;/b&gt;&lt;br&gt;ctg82 31&lt;br&gt;Location: 32056 - 32977" locus_tag="ctg82_31" class="clusterblast-orf" id="dummy-1_q22_0_all"  />
<polygon points="415,40 417,40 422,35 417,30 415,30 415,40 " style="fill:white; stroke-width:1; stroke:black; " description="&lt;b&gt;ctg82_32&lt;/b&gt;&lt;br&gt;ctg82 32&lt;br&gt;Location: 33034 - 33496" locus_tag="ctg82_32" class="clusterblast-orf" id="dummy-1_q23_0_all"  />
<polygon points="424,40 440,40 445,35 440,30 424,30 424,40 " style="fill:white; stroke-width:1; stroke:black; " description="&lt;b&gt;ctg82_33&lt;/b&gt;&lt;br&gt;ctg82 33&lt;br&gt;Location: 33631 - 34921" locus_tag="ctg82_33" class="clusterblast-orf" id="dummy-1_q24_0_all"  />
<polygon points="446,40 468,40 473,35 468,30 446,30 446,40 " style="fill:white; stroke-width:1; stroke:black; " description="&lt;b&gt;ctg82_34&lt;/b&gt;&lt;br&gt;ctg82 34&lt;br&gt;Location: 35003 - 36674" locus_tag="ctg82_34" class="clusterblast-orf" id="dummy-1_q25_0_all"  />
<polygon points="473,40 480,40 485,35 480,30 473,30 473,40 " style="fill:white; stroke-width:1; stroke:black; " description="&lt;b&gt;ctg82_35&lt;/b&gt;&lt;br&gt;ctg82 35&lt;br&gt;Location: 36670 - 37429" locus_tag="ctg82_35" class="clusterblast-orf" id="dummy-1_q26_0_all"  />
<polygon points="486,40 494,40 499,35 494,30 486,30 486,40 " style="fill:white; stroke-width:1; stroke:black; " description="&lt;b&gt;ctg82_36&lt;/b&gt;&lt;br&gt;ctg82 36&lt;br&gt;Location: 37443 - 38301" locus_tag="ctg82_36" class="clusterblast-orf" id="dummy-1_q27_0_all"  />
<polygon points="499,40 510,40 515,35 510,30 499,30 499,40 " style="fill:white; stroke-width:1; stroke:black; " description="&lt;b&gt;ctg82_37&lt;/b&gt;&lt;br&gt;ctg82 37&lt;br&gt;Location: 38300 - 39266" locus_tag="ctg82_37" class="clusterblast-orf" id="dummy-1_q28_0_all"  />
<polygon points="515,40 532,40 537,35 532,30 515,30 515,40 " style="fill:white; stroke-width:1; stroke:black; " description="&lt;b&gt;ctg82_38&lt;/b&gt;&lt;br&gt;ctg82 38&lt;br&gt;Location: 39262 - 40639" locus_tag="ctg82_38" class="clusterblast-orf" id="dummy-1_q29_0_all"  />
<polygon points="538,35 543,30 545,30 545,40 543,40 538,35 " style="fill:white; stroke-width:1; stroke:black; " description="&lt;b&gt;ctg82_39&lt;/b&gt;&lt;br&gt;ctg82 39&lt;br&gt;Location: 40694 - 41117" locus_tag="ctg82_39" class="clusterblast-orf" id="dummy-1_q30_0_all"  />
<polygon points="547,40 557,40 562,35 557,30 547,30 547,40 " style="fill:white; stroke-width:1; stroke:black; " description="&lt;b&gt;ctg82_40&lt;/b&gt;&lt;br&gt;ctg82 40&lt;br&gt;Location: 41254 - 42208" locus_tag="ctg82_40" class="clusterblast-orf" id="dummy-1_q31_0_all"  />
<polygon points="567,40 571,40 576,35 571,30 567,30 567,40 " style="fill:white; stroke-width:1; stroke:black; " description="&lt;b&gt;ctg82_41&lt;/b&gt;&lt;br&gt;ctg82 41&lt;br&gt;Location: 42482 - 43025" locus_tag="ctg82_41" class="clusterblast-orf" id="dummy-1_q32_0_all"  />
<polygon points="577,40 592,40 597,35 592,30 577,30 577,40 " style="fill:white; stroke-width:1; stroke:black; " description="&lt;b&gt;ctg82_42&lt;/b&gt;&lt;br&gt;ctg82 42&lt;br&gt;Location: 43127 - 44324" locus_tag="ctg82_42" class="clusterblast-orf" id="dummy-1_q33_0_all"  />
<polygon points="602,40 609,40 614,35 609,30 602,30 602,40 " style="fill:white; stroke-width:1; stroke:black; " description="&lt;b&gt;ctg82_43&lt;/b&gt;&lt;br&gt;ctg82 43&lt;br&gt;Location: 44635 - 45421" locus_tag="ctg82_43" class="clusterblast-orf" id="dummy-1_q34_0_all"  />
<polygon points="614,40 629,40 634,35 629,30 614,30 614,40 " style="fill:white; stroke-width:1; stroke:black; " description="&lt;b&gt;ctg82_44&lt;/b&gt;&lt;br&gt;ctg82 44&lt;br&gt;Location: 45431 - 46637" locus_tag="ctg82_44" class="clusterblast-orf" id="dummy-1_q35_0_all"  />
<polygon points="637,40 652,40 657,35 652,30 637,30 637,40 " style="fill:white; stroke-width:1; stroke:black; " description="&lt;b&gt;ctg82_45&lt;/b&gt;&lt;br&gt;ctg82 45&lt;br&gt;Location: 46806 - 48099" locus_tag="ctg82_45" class="clusterblast-orf" id="dummy-1_q36_0_all"  />
<polygon points="658,40 666,40 671,35 666,30 658,30 658,40 " style="fill:white; stroke-width:1; stroke:black; " description="&lt;b&gt;ctg82_46&lt;/b&gt;&lt;br&gt;ctg82 46&lt;br&gt;Location: 48113 - 48917" locus_tag="ctg82_46" class="clusterblast-orf" id="dummy-1_q37_0_all"  />
<polygon points="671,35 676,30 690,30 690,40 676,40 671,35 " style="fill:#15d88f; stroke-width:1; stroke:black; " description="&lt;b&gt;ctg82_47&lt;/b&gt;&lt;br&gt;ctg82 47&lt;br&gt;Location: 48938 - 50117" locus_tag="ctg82_47" class="clusterblast-orf" id="dummy-1_q38_0_all"  />
<polygon points="690,35 695,30 710,30 710,40 695,40 690,35 " style="fill:#2e15d8; stroke-width:1; stroke:black; " description="&lt;b&gt;ctg82_48&lt;/b&gt;&lt;br&gt;ctg82 48&lt;br&gt;Location: 50113 - 51373" locus_tag="ctg82_48" class="clusterblast-orf" id="dummy-1_q39_0_all"  />
<polygon points="710,35 715,30 736,30 736,40 715,40 710,35 " style="fill:#d8155e; stroke-width:1; stroke:black; " description="&lt;b&gt;ctg82_49&lt;/b&gt;&lt;br&gt;ctg82 49&lt;br&gt;Location: 51362 - 52985" locus_tag="ctg82_49" class="clusterblast-orf" id="dummy-1_q40_0_all"  />
<polygon points="741,40 757,40 762,35 757,30 741,30 741,40 " style="fill:white; stroke-width:1; stroke:black; " description="&lt;b&gt;ctg82_50&lt;/b&gt;&lt;br&gt;ctg82 50&lt;br&gt;Location: 53256 - 54603" locus_tag="ctg82_50" class="clusterblast-orf" id="dummy-1_q41_0_all"  />
<polygon points="762,40 775,40 780,35 775,30 762,30 762,40 " style="fill:white; stroke-width:1; stroke:black; " description="&lt;b&gt;ctg82_51&lt;/b&gt;&lt;br&gt;ctg82 51&lt;br&gt;Location: 54612 - 55683" locus_tag="ctg82_51" class="clusterblast-orf" id="dummy-1_q42_0_all"  />
</g>
<g label="MGC00000048" description="MGC00000048_c1: NADH dehydrogenase I E. coli (100% of genes show similarity), NADHD" class="clusterblast-cluster"  >
<text x="5" y="70" class="clusterblast-acc"  >
MGC00000048_c1: NADH dehydrogenase I E. coli (100% of genes show similarity), NADHD</text>
<line x1="10" y1="85" x2="778.0" y2="85" style="stroke-width:1; stroke:grey; "  />
</g>
<g id="a1_000"  >
<polygon points="268,90 271,90 276,85 271,80 268,80 268,90 " style="fill:#d81515; stroke-width:1; stroke:black; " description="&lt;b&gt;b2288&lt;/b&gt;&lt;br&gt;NADH:quinone oxidoreductase subunit A&lt;br&gt;Location: 25025 - 24581&lt;br&gt;&lt;br&gt;&lt;b&gt;BlastP hit with ctg82_18&lt;/b&gt;&lt;br&gt;Percentage identity: 92&lt;br&gt;Percentage coverage: 98&lt;br&gt;BLAST bit score: 262&lt;br&gt;E-value: 1.32e-93" locus_tag="b2288" class="clusterblast-orf" id="dummy-1_h1_1_0"  />
</g>
<g id="a1_001"  >
<polygon points="276,90 281,90 286,85 281,80 276,80 276,90 " style="fill:#77d815; stroke-width:1; stroke:black; " description="&lt;b&gt;b2287&lt;/b&gt;&lt;br&gt;NADH:quinone oxidoreductase subunit B&lt;br&gt;Location: 24566 - 23903&lt;br&gt;&lt;br&gt;&lt;b&gt;BlastP hit with ctg82_19&lt;/b&gt;&lt;br&gt;Percentage identity: 97&lt;br&gt;Percentage coverage: 100&lt;br&gt;BLAST bit score: 440&lt;br&gt;E-value: 9.58e-162" locus_tag="b2287" class="clusterblast-orf" id="dummy-1_h1_1_1"  />
</g>
<g id="a1_002"  >
<polygon points="288,90 312,90 317,85 312,80 288,80 288,90 " style="fill:#15d8d8; stroke-width:1; stroke:black; " description="&lt;b&gt;b2286&lt;/b&gt;&lt;br&gt;NADH:quinone oxidoreductase subunit CD&lt;br&gt;Location: 23798 - 22007&lt;br&gt;&lt;br&gt;&lt;b&gt;BlastP hit with ctg82_20&lt;/b&gt;&lt;br&gt;Percentage identity: 96&lt;br&gt;Percentage coverage: 99&lt;br&gt;BLAST bit score: 1181&lt;br&gt;E-value: 0.0" locus_tag="b2286" class="clusterblast-orf" id="dummy-1_h1_1_2"  />
</g>
<g id="a1_003"  >
<polygon points="317,90 320,90 325,85 320,80 317,80 317,90 " style="fill:#7715d8; stroke-width:1; stroke:black; " description="&lt;b&gt;b2285&lt;/b&gt;&lt;br&gt;NADH:quinone oxidoreductase subunit E&lt;br&gt;Location: 22005 - 21504&lt;br&gt;&lt;br&gt;&lt;b&gt;BlastP hit with ctg82_21&lt;/b&gt;&lt;br&gt;Percentage identity: 95&lt;br&gt;Percentage coverage: 100&lt;br&gt;BLAST bit score: 328&lt;br&gt;E-value: 3.12e-119" locus_tag="b2285" class="clusterblast-orf" id="dummy-1_h1_1_3"  />
</g>
<g id="a1_004"  >
<polygon points="325,90 342,90 347,85 342,80 325,80 325,90 " style="fill:#d85e15; stroke-width:1; stroke:black; " description="&lt;b&gt;b2284&lt;/b&gt;&lt;br&gt;NADH:quinone oxidoreductase subunit F&lt;br&gt;Location: 21508 - 20170&lt;br&gt;&lt;br&gt;&lt;b&gt;BlastP hit with ctg82_22&lt;/b&gt;&lt;br&gt;Percentage identity: 96&lt;br&gt;Percentage coverage: 100&lt;br&gt;BLAST bit score: 890&lt;br&gt;E-value: 0.0" locus_tag="b2284" class="clusterblast-orf" id="dummy-1_h1_1_4"  />
</g>
<g id="a1_005"  >
<polygon points="348,90 386,90 391,85 386,80 348,80 348,90 " style="fill:#2ed815; stroke-width:1; stroke:black; " description="&lt;b&gt;b2283&lt;/b&gt;&lt;br&gt;NADH:quinone oxidoreductase subunit G&lt;br&gt;Location: 20118 - 17391&lt;br&gt;&lt;br&gt;&lt;b&gt;BlastP hit with ctg82_23&lt;/b&gt;&lt;br&gt;Percentage identity: 91&lt;br&gt;Percentage coverage: 100&lt;br&gt;BLAST bit score: 1687&lt;br&gt;E-value: 0.0" locus_tag="b2283" class="clusterblast-orf" id="dummy-1_h1_1_5"  />
</g>
<g id="a1_006"  >
<polygon points="391,90 402,90 407,85 402,80 391,80 391,90 " style="fill:#158fd8; stroke-width:1; stroke:black; " description="&lt;b&gt;b2282&lt;/b&gt;&lt;br&gt;NADH:quinone oxidoreductase subunit H&lt;br&gt;Location: 17395 - 16417&lt;br&gt;&lt;br&gt;&lt;b&gt;BlastP hit with ctg82_24&lt;/b&gt;&lt;br&gt;Percentage identity: 95&lt;br&gt;Percentage coverage: 100&lt;br&gt;BLAST bit score: 618&lt;br&gt;E-value: 1.44e-228" locus_tag="b2282" class="clusterblast-orf" id="dummy-1_h1_1_6"  />
</g>
<g id="a1_007"  >
<polygon points="407,90 411,90 416,85 411,80 407,80 407,90 " style="fill:#c015d8; stroke-width:1; stroke:black; " description="&lt;b&gt;b2281&lt;/b&gt;&lt;br&gt;NADH:quinone oxidoreductase subunit I&lt;br&gt;Location: 16403 - 15860&lt;br&gt;&lt;br&gt;&lt;b&gt;BlastP hit with ctg82_25&lt;/b&gt;&lt;br&gt;Percentage identity: 98&lt;br&gt;Percentage coverage: 100&lt;br&gt;BLAST bit score: 337&lt;br&gt;E-value: 3.98e-122" locus_tag="b2281" class="clusterblast-orf" id="dummy-1_h1_1_7"  />
</g>
<g id="a1_008"  >
<polygon points="416,90 420,90 425,85 420,80 416,80 416,90 " style="fill:#d8a715; stroke-width:1; stroke:black; " description="&lt;b&gt;b2280&lt;/b&gt;&lt;br&gt;NADH:quinone oxidoreductase subunit J&lt;br&gt;Location: 15849 - 15294&lt;br&gt;&lt;br&gt;&lt;b&gt;BlastP hit with ctg82_26&lt;/b&gt;&lt;br&gt;Percentage identity: 90&lt;br&gt;Percentage coverage: 100&lt;br&gt;BLAST bit score: 309&lt;br&gt;E-value: 3.58e-111" locus_tag="b2280" class="clusterblast-orf" id="dummy-1_h1_1_8"  />
</g>
<g id="a1_009"  >
<polygon points="425,90 425,90 430,85 425,80 425,80 425,90 " style="fill:#15d846; stroke-width:1; stroke:black; " description="&lt;b&gt;b2279&lt;/b&gt;&lt;br&gt;NADH:quinone oxidoreductase subunit K&lt;br&gt;Location: 15298 - 14995&lt;br&gt;&lt;br&gt;&lt;b&gt;BlastP hit with ctg82_27&lt;/b&gt;&lt;br&gt;Percentage identity: 94&lt;br&gt;Percentage coverage: 100&lt;br&gt;BLAST bit score: 168&lt;br&gt;E-value: 4.55e-58" locus_tag="b2279" class="clusterblast-orf" id="dummy-1_h1_1_9"  />
</g>
<g id="a1_0010"  >
<polygon points="430,90 455,90 460,85 455,80 430,80 430,90 " style="fill:#1546d8; stroke-width:1; stroke:black; " description="&lt;b&gt;b2278&lt;/b&gt;&lt;br&gt;NADH:quinone oxidoreductase subunit L&lt;br&gt;Location: 14999 - 13157&lt;br&gt;&lt;br&gt;&lt;b&gt;BlastP hit with ctg82_28&lt;/b&gt;&lt;br&gt;Percentage identity: 93&lt;br&gt;Percentage coverage: 100&lt;br&gt;BLAST bit score: 1127&lt;br&gt;E-value: 0.0" locus_tag="b2278" class="clusterblast-orf" id="dummy-1_h1_1_10"  />
</g>
<g id="a1_0011"  >
<polygon points="462,90 482,90 487,85 482,80 462,80 462,90 " style="fill:#d815a7; stroke-width:1; stroke:black; " description="&lt;b&gt;b2277&lt;/b&gt;&lt;br&gt;NADH:quinone oxidoreductase subunit M&lt;br&gt;Location: 12994 - 11464&lt;br&gt;&lt;br&gt;&lt;b&gt;BlastP hit with ctg82_29&lt;/b&gt;&lt;br&gt;Percentage identity: 94&lt;br&gt;Percentage coverage: 100&lt;br&gt;BLAST bit score: 954&lt;br&gt;E-value: 0.0" locus_tag="b2277" class="clusterblast-orf" id="dummy-1_h1_1_11"  />
</g>
<g id="a1_0012"  >
<polygon points="487,90 506,90 511,85 506,80 487,80 487,90 " style="fill:#c0d815; stroke-width:1; stroke:black; " description="&lt;b&gt;b2276&lt;/b&gt;&lt;br&gt;NADH:quinone oxidoreductase subunit N&lt;br&gt;Location: 11458 - 10000&lt;br&gt;&lt;br&gt;&lt;b&gt;BlastP hit with ctg82_30&lt;/b&gt;&lt;br&gt;Percentage identity: 93&lt;br&gt;Percentage coverage: 100&lt;br&gt;BLAST bit score: 850&lt;br&gt;E-value: 4.65e-315" locus_tag="b2276" class="clusterblast-orf" id="dummy-1_h1_1_12"  />
</g>
</svg>
