<svg xmlns="http://www.w3.org/2000/svg" xmlns:xlink="http://www.w3.org/1999/xlink" version="1.1" x="0" y="0" height="230" width="800" viewBox="0 0 800 230" preserveAspectRatio="none"  >
<g label="Query sequence" class="clusterblast-cluster"  >
<text x="5" y="20" class="clusterblast-acc"  >
Query sequence</text>
<line x1="10" y1="35" x2="778.0" y2="35" style="stroke-width:1; stroke:grey; "  />
<polygon points="0,35 4,30 4,40 0,35 " style="fill:white; stroke-width:1; stroke:black; " description="&lt;b&gt;ctg151_65&lt;/b&gt;&lt;br&gt;ctg151 65&lt;br&gt;Location: 66748 - 66943" locus_tag="ctg151_65" class="clusterblast-orf" id="dummy-1_q0_0_all"  />
<polygon points="11,35 16,30 33,30 33,40 16,40 11,35 " style="fill:white; stroke-width:1; stroke:black; " description="&lt;b&gt;ctg151_66&lt;/b&gt;&lt;br&gt;ctg151 66&lt;br&gt;Location: 67291 - 68410" locus_tag="ctg151_66" class="clusterblast-orf" id="dummy-1_q1_0_all"  />
<polygon points="32,35 37,30 47,30 47,40 37,40 32,35 " style="fill:white; stroke-width:1; stroke:black; " description="&lt;b&gt;ctg151_67&lt;/b&gt;&lt;br&gt;ctg151 67&lt;br&gt;Location: 68372 - 69116" locus_tag="ctg151_67" class="clusterblast-orf" id="dummy-1_q2_0_all"  />
<polygon points="53,40 67,40 72,35 67,30 53,30 53,40 " style="fill:white; stroke-width:1; stroke:black; " description="&lt;b&gt;ctg151_68&lt;/b&gt;&lt;br&gt;ctg151 68&lt;br&gt;Location: 69395 - 70379" locus_tag="ctg151_68" class="clusterblast-orf" id="dummy-1_q3_0_all"  />
<polygon points="83,40 106,40 111,35 106,30 83,30 83,40 " style="fill:white; stroke-width:1; stroke:black; " description="&lt;b&gt;ctg151_69&lt;/b&gt;&lt;br&gt;ctg151 69&lt;br&gt;Location: 70904 - 72278" locus_tag="ctg151_69" class="clusterblast-orf" id="dummy-1_q4_0_all"  />
<polygon points="109,35 114,30 132,30 132,40 114,40 109,35 " style="fill:white; stroke-width:1; stroke:black; " description="&lt;b&gt;ctg151_70&lt;/b&gt;&lt;br&gt;ctg151 70&lt;br&gt;Location: 72178 - 73360" locus_tag="ctg151_70" class="clusterblast-orf" id="dummy-1_q5_0_all"  />
<polygon points="137,35 142,30 146,30 146,40 142,40 137,35 " style="fill:white; stroke-width:1; stroke:black; " description="&lt;b&gt;ctg151_71&lt;/b&gt;&lt;br&gt;ctg151 71&lt;br&gt;Location: 73593 - 74028" locus_tag="ctg151_71" class="clusterblast-orf" id="dummy-1_q6_0_all"  />
<polygon points="147,35 152,30 153,30 153,40 152,40 147,35 " style="fill:white; stroke-width:1; stroke:black; " description="&lt;b&gt;ctg151_72&lt;/b&gt;&lt;br&gt;ctg151 72&lt;br&gt;Location: 74109 - 74415" locus_tag="ctg151_72" class="clusterblast-orf" id="dummy-1_q7_0_all"  />
<polygon points="159,35 164,30 182,30 182,40 164,40 159,35 " style="fill:white; stroke-width:1; stroke:black; " description="&lt;b&gt;ctg151_73&lt;/b&gt;&lt;br&gt;ctg151 73&lt;br&gt;Location: 74690 - 75845" locus_tag="ctg151_73" class="clusterblast-orf" id="dummy-1_q8_0_all"  />
<polygon points="189,35 194,30 260,30 260,40 194,40 189,35 " style="fill:#d81515; stroke-width:1; stroke:black; " description="&lt;b&gt;ctg151_74&lt;/b&gt;&lt;br&gt;ctg151 74&lt;br&gt;Location: 76201 - 79729" locus_tag="ctg151_74" class="clusterblast-orf" id="dummy-1_q9_0_all"  />
<polygon points="267,40 268,40 273,35 268,30 267,30 267,40 " style="fill:white; stroke-width:1; stroke:black; " description="&lt;b&gt;ctg151_75&lt;/b&gt;&lt;br&gt;ctg151 75&lt;br&gt;Location: 80091 - 80355" locus_tag="ctg151_75" class="clusterblast-orf" id="dummy-1_q10_0_all"  />
<polygon points="273,35 278,30 282,30 282,40 278,40 273,35 " style="fill:white; stroke-width:1; stroke:black; " description="&lt;b&gt;ctg151_76&lt;/b&gt;&lt;br&gt;ctg151 76&lt;br&gt;Location: 80400 - 80841" locus_tag="ctg151_76" class="clusterblast-orf" id="dummy-1_q11_0_all"  />
<polygon points="285,35 290,30 305,30 305,40 290,40 285,35 " style="fill:white; stroke-width:1; stroke:black; " description="&lt;b&gt;ctg151_77&lt;/b&gt;&lt;br&gt;ctg151 77&lt;br&gt;Location: 80963 - 81953" locus_tag="ctg151_77" class="clusterblast-orf" id="dummy-1_q12_0_all"  />
<polygon points="307,35 312,30 318,30 318,40 312,40 307,35 " style="fill:white; stroke-width:1; stroke:black; " description="&lt;b&gt;ctg151_78&lt;/b&gt;&lt;br&gt;ctg151 78&lt;br&gt;Location: 82100 - 82601" locus_tag="ctg151_78" class="clusterblast-orf" id="dummy-1_q13_0_all"  />
<polygon points="322,40 370,40 375,35 370,30 322,30 322,40 " style="fill:white; stroke-width:1; stroke:black; " description="&lt;b&gt;ctg151_79&lt;/b&gt;&lt;br&gt;ctg151 79&lt;br&gt;Location: 82807 - 85447" locus_tag="ctg151_79" class="clusterblast-orf" id="dummy-1_q14_0_all"  />
<polygon points="375,40 378,35 375,30 375,40 " style="fill:white; stroke-width:1; stroke:black; " description="&lt;b&gt;ctg151_80&lt;/b&gt;&lt;br&gt;ctg151 80&lt;br&gt;Location: 85443 - 85629" locus_tag="ctg151_80" class="clusterblast-orf" id="dummy-1_q15_0_all"  />
<polygon points="378,40 380,40 385,35 380,30 378,30 378,40 " style="fill:white; stroke-width:1; stroke:black; " description="&lt;b&gt;ctg151_81&lt;/b&gt;&lt;br&gt;ctg151 81&lt;br&gt;Location: 85636 - 85960" locus_tag="ctg151_81" class="clusterblast-orf" id="dummy-1_q16_0_all"  />
<polygon points="385,35 390,30 403,30 403,40 390,40 385,35 " style="fill:white; stroke-width:1; stroke:black; " description="&lt;b&gt;ctg151_82&lt;/b&gt;&lt;br&gt;ctg151 82&lt;br&gt;Location: 85960 - 86863" locus_tag="ctg151_82" class="clusterblast-orf" id="dummy-1_q17_0_all"  />
<polygon points="408,40 433,40 438,35 433,30 408,30 408,40 " style="fill:white; stroke-width:1; stroke:black; " description="&lt;b&gt;ctg151_83&lt;/b&gt;&lt;br&gt;ctg151 83&lt;br&gt;Location: 87098 - 88598" locus_tag="ctg151_83" class="clusterblast-orf" id="dummy-1_q18_0_all"  />
<polygon points="440,40 453,40 458,35 453,30 440,30 440,40 " style="fill:white; stroke-width:1; stroke:black; " description="&lt;b&gt;ctg151_84&lt;/b&gt;&lt;br&gt;ctg151 84&lt;br&gt;Location: 88722 - 89613" locus_tag="ctg151_84" class="clusterblast-orf" id="dummy-1_q19_0_all"  />
<polygon points="460,40 462,40 467,35 462,30 460,30 460,40 " style="fill:white; stroke-width:1; stroke:black; " description="&lt;b&gt;ctg151_85&lt;/b&gt;&lt;br&gt;ctg151 85&lt;br&gt;Location: 89689 - 90040" locus_tag="ctg151_85" class="clusterblast-orf" id="dummy-1_q20_0_all"  />
<polygon points="466,40 482,40 487,35 482,30 466,30 466,40 " style="fill:white; stroke-width:1; stroke:black; " description="&lt;b&gt;ctg151_86&lt;/b&gt;&lt;br&gt;ctg151 86&lt;br&gt;Location: 89987 - 91055" locus_tag="ctg151_86" class="clusterblast-orf" id="dummy-1_q21_0_all"  />
<polygon points="487,35 492,30 533,30 533,40 492,40 487,35 " style="fill:white; stroke-width:1; stroke:black; " description="&lt;b&gt;ctg151_87&lt;/b&gt;&lt;br&gt;ctg151 87&lt;br&gt;Location: 91057 - 93325" locus_tag="ctg151_87" class="clusterblast-orf" id="dummy-1_q22_0_all"  />
<polygon points="542,35 547,30 583,30 583,40 547,40 542,35 " style="fill:white; stroke-width:1; stroke:black; " description="&lt;b&gt;ctg151_88&lt;/b&gt;&lt;br&gt;ctg151 88&lt;br&gt;Location: 93801 - 95847" locus_tag="ctg151_88" class="clusterblast-orf" id="dummy-1_q23_0_all"  />
<polygon points="589,40 602,40 607,35 602,30 589,30 589,40 " style="fill:white; stroke-width:1; stroke:black; " description="&lt;b&gt;ctg151_89&lt;/b&gt;&lt;br&gt;ctg151 89&lt;br&gt;Location: 96133 - 97063" locus_tag="ctg151_89" class="clusterblast-orf" id="dummy-1_q24_0_all"  />
<polygon points="608,40 608,40 613,35 608,30 608,30 608,40 " style="fill:white; stroke-width:1; stroke:black; " description="&lt;b&gt;ctg151_90&lt;/b&gt;&lt;br&gt;ctg151 90&lt;br&gt;Location: 97074 - 97362" locus_tag="ctg151_90" class="clusterblast-orf" id="dummy-1_q25_0_all"  />
<polygon points="614,40 624,40 629,35 624,30 614,30 614,40 " style="fill:white; stroke-width:1; stroke:black; " description="&lt;b&gt;ctg151_91&lt;/b&gt;&lt;br&gt;ctg151 91&lt;br&gt;Location: 97369 - 98125" locus_tag="ctg151_91" class="clusterblast-orf" id="dummy-1_q26_0_all"  />
<polygon points="629,40 634,40 639,35 634,30 629,30 629,40 " style="fill:white; stroke-width:1; stroke:black; " description="&lt;b&gt;ctg151_92&lt;/b&gt;&lt;br&gt;ctg151 92&lt;br&gt;Location: 98136 - 98634" locus_tag="ctg151_92" class="clusterblast-orf" id="dummy-1_q27_0_all"  />
<polygon points="639,40 656,40 661,35 656,30 639,30 639,40 " style="fill:white; stroke-width:1; stroke:black; " description="&lt;b&gt;ctg151_93&lt;/b&gt;&lt;br&gt;ctg151 93&lt;br&gt;Location: 98641 - 99712" locus_tag="ctg151_93" class="clusterblast-orf" id="dummy-1_q28_0_all"  />
<polygon points="661,40 671,40 676,35 671,30 661,30 661,40 " style="fill:#77d815; stroke-width:1; stroke:black; " description="&lt;b&gt;ctg151_94&lt;/b&gt;&lt;br&gt;ctg151 94&lt;br&gt;Location: 99708 - 100476" locus_tag="ctg151_94" class="clusterblast-orf" id="dummy-1_q29_0_all"  />
<polygon points="676,40 687,40 692,35 687,30 676,30 676,40 " style="fill:white; stroke-width:1; stroke:black; " description="&lt;b&gt;ctg151_95&lt;/b&gt;&lt;br&gt;ctg151 95&lt;br&gt;Location: 100478 - 101267" locus_tag="ctg151_95" class="clusterblast-orf" id="dummy-1_q30_0_all"  />
<polygon points="692,40 715,40 720,35 715,30 692,30 692,40 " style="fill:#15d8d8; stroke-width:1; stroke:black; " description="&lt;b&gt;ctg151_96&lt;/b&gt;&lt;br&gt;ctg151 96&lt;br&gt;Location: 101267 - 102692" locus_tag="ctg151_96" class="clusterblast-orf" id="dummy-1_q31_0_all"  />
<polygon points="720,40 724,40 729,35 724,30 720,30 720,40 " style="fill:white; stroke-width:1; stroke:black; " description="&lt;b&gt;ctg151_97&lt;/b&gt;&lt;br&gt;ctg151 97&lt;br&gt;Location: 102681 - 103104" locus_tag="ctg151_97" class="clusterblast-orf" id="dummy-1_q32_0_all"  />
<polygon points="729,40 748,40 753,35 748,30 729,30 729,40 " style="fill:#7715d8; stroke-width:1; stroke:black; " description="&lt;b&gt;ctg151_98&lt;/b&gt;&lt;br&gt;ctg151 98&lt;br&gt;Location: 103103 - 104309" locus_tag="ctg151_98" class="clusterblast-orf" id="dummy-1_q33_0_all"  />
<polygon points="753,40 775,40 780,35 775,30 753,30 753,40 " style="fill:white; stroke-width:1; stroke:black; " description="&lt;b&gt;ctg151_99&lt;/b&gt;&lt;br&gt;ctg151 99&lt;br&gt;Location: 104335 - 105652" locus_tag="ctg151_99" class="clusterblast-orf" id="dummy-1_q34_0_all"  />
</g>
<g label="MGC0000005" description="MGC0000005_c1: Acetate to butyrate C. sporogenes (50% of genes show similarity), BUT" class="clusterblast-cluster"  >
<text x="5" y="70" class="clusterblast-acc"  >
MGC0000005_c1: Acetate to butyrate C. sporogenes (50% of genes show similarity), BUT</text>
<line x1="10" y1="85" x2="778.0" y2="85" style="stroke-width:1; stroke:grey; "  />
</g>
<g id="a1_000"  >
<polygon points="330,90 340,90 345,85 340,80 330,80 330,90 " style="fill:#77d815; stroke-width:1; stroke:black; " description="&lt;b&gt;CLOSPO_RS02070&lt;/b&gt;&lt;br&gt;crotonase&lt;br&gt;Location: 60 - 843&lt;br&gt;&lt;br&gt;&lt;b&gt;BlastP hit with ctg151_94&lt;/b&gt;&lt;br&gt;Percentage identity: 39&lt;br&gt;Percentage coverage: 99&lt;br&gt;BLAST bit score: 174&lt;br&gt;E-value: 7.1e-56" locus_tag="CLOSPO_RS02070" class="clusterblast-orf" id="dummy-1_h1_2_0"  />
</g>
<g id="a1_001"  >
<polygon points="346,90 357,90 362,85 357,80 346,80 346,90 " style="fill:#15d8d8; stroke-width:1; stroke:black; " description="&lt;b&gt;CLOSPO_RS02075&lt;/b&gt;&lt;br&gt;3-hydroxybutyryl-CoA dehydrogenase&lt;br&gt;Location: 862 - 1693&lt;br&gt;&lt;br&gt;&lt;b&gt;BlastP hit with ctg151_96&lt;/b&gt;&lt;br&gt;Percentage identity: 41&lt;br&gt;Percentage coverage: 58&lt;br&gt;BLAST bit score: 199&lt;br&gt;E-value: 1.16e-62" locus_tag="CLOSPO_RS02075" class="clusterblast-orf" id="dummy-1_h1_2_1"  />
</g>
<g id="a1_002"  >
<polygon points="363,90 381,90 386,85 381,80 363,80 363,90 " style="fill:#7715d8; stroke-width:1; stroke:black; " description="&lt;b&gt;CLOSPO_RS02080&lt;/b&gt;&lt;br&gt;acetyl-CoA acetyltransferase&lt;br&gt;Location: 1717 - 2896&lt;br&gt;&lt;br&gt;&lt;b&gt;BlastP hit with ctg151_98&lt;/b&gt;&lt;br&gt;Percentage identity: 46&lt;br&gt;Percentage coverage: 100&lt;br&gt;BLAST bit score: 316&lt;br&gt;E-value: 2.2e-107" locus_tag="CLOSPO_RS02080" class="clusterblast-orf" id="dummy-1_h1_2_2"  />
</g>
<g id="a1_003"  >
<polygon points="390,90 408,90 413,85 408,80 390,80 390,90 " style="fill:white; stroke-width:1; stroke:black; " description="&lt;b&gt;CLOSPO_RS02085&lt;/b&gt;&lt;br&gt;acyl-CoA dehydrogenase&lt;br&gt;Location: 3089 - 4229" locus_tag="CLOSPO_RS02085" class="clusterblast-orf" id="dummy-1_h1_2_3"  />
</g>
<g id="a1_004"  >
<polygon points="413,90 424,90 429,85 424,80 413,80 413,90 " style="fill:white; stroke-width:1; stroke:black; " description="&lt;b&gt;CLOSPO_RS02090&lt;/b&gt;&lt;br&gt;electron transfer flavoprotein subunit beta&lt;br&gt;Location: 4240 - 5020" locus_tag="CLOSPO_RS02090" class="clusterblast-orf" id="dummy-1_h1_2_4"  />
</g>
<g id="a1_005"  >
<polygon points="429,90 444,90 449,85 444,80 429,80 429,90 " style="fill:white; stroke-width:1; stroke:black; " description="&lt;b&gt;CLOSPO_RS02095&lt;/b&gt;&lt;br&gt;electron transfer flavoprotein subunit alpha&lt;br&gt;Location: 5035 - 6040" locus_tag="CLOSPO_RS02095" class="clusterblast-orf" id="dummy-1_h1_2_5"  />
</g>
</svg>
