<svg xmlns="http://www.w3.org/2000/svg" xmlns:xlink="http://www.w3.org/1999/xlink" version="1.1" x="0" y="0" height="100" width="800" viewBox="0 0 800 100" preserveAspectRatio="none"  >
<g label="Query sequence" class="clusterblast-cluster"  >
<text x="5" y="20" class="clusterblast-acc"  >
Query sequence</text>
<line x1="10" y1="35" x2="778.0" y2="35" style="stroke-width:1; stroke:grey; "  />
<polygon points="0,40 27,40 32,35 27,30 0,30 0,40 " style="fill:white; stroke-width:1; stroke:black; " description="&lt;b&gt;ctg126_91&lt;/b&gt;&lt;br&gt;ctg126 91&lt;br&gt;Location: 93982 - 94927" locus_tag="ctg126_91" class="clusterblast-orf" id="knownclusterblast-1_q0_0_all"  />
<polygon points="32,40 56,40 61,35 56,30 32,30 32,40 " style="fill:white; stroke-width:1; stroke:black; " description="&lt;b&gt;ctg126_92&lt;/b&gt;&lt;br&gt;ctg126 92&lt;br&gt;Location: 94923 - 95772" locus_tag="ctg126_92" class="clusterblast-orf" id="knownclusterblast-1_q1_0_all"  />
<polygon points="61,40 112,40 117,35 112,30 61,30 61,40 " style="fill:white; stroke-width:1; stroke:black; " description="&lt;b&gt;ctg126_93&lt;/b&gt;&lt;br&gt;ctg126 93&lt;br&gt;Location: 95768 - 97385" locus_tag="ctg126_93" class="clusterblast-orf" id="knownclusterblast-1_q2_0_all"  />
<polygon points="117,40 150,40 155,35 150,30 117,30 117,40 " style="fill:white; stroke-width:1; stroke:black; " description="&lt;b&gt;ctg126_94&lt;/b&gt;&lt;br&gt;ctg126 94&lt;br&gt;Location: 97384 - 98482" locus_tag="ctg126_94" class="clusterblast-orf" id="knownclusterblast-1_q3_0_all"  />
<polygon points="155,40 188,40 193,35 188,30 155,30 155,40 " style="fill:white; stroke-width:1; stroke:black; " description="&lt;b&gt;ctg126_95&lt;/b&gt;&lt;br&gt;ctg126 95&lt;br&gt;Location: 98491 - 99583" locus_tag="ctg126_95" class="clusterblast-orf" id="knownclusterblast-1_q4_0_all"  />
<polygon points="193,35 198,30 232,30 232,40 198,40 193,35 " style="fill:white; stroke-width:1; stroke:black; " description="&lt;b&gt;ctg126_96&lt;/b&gt;&lt;br&gt;ctg126 96&lt;br&gt;Location: 99589 - 100744" locus_tag="ctg126_96" class="clusterblast-orf" id="knownclusterblast-1_q5_0_all"  />
<polygon points="242,40 252,40 257,35 252,30 242,30 242,40 " style="fill:white; stroke-width:1; stroke:black; " description="&lt;b&gt;ctg126_97&lt;/b&gt;&lt;br&gt;ctg126 97&lt;br&gt;Location: 101008 - 101449" locus_tag="ctg126_97" class="clusterblast-orf" id="knownclusterblast-1_q6_0_all"  />
<polygon points="259,40 282,40 287,35 282,30 259,30 259,40 " style="fill:white; stroke-width:1; stroke:black; " description="&lt;b&gt;ctg126_98&lt;/b&gt;&lt;br&gt;ctg126 98&lt;br&gt;Location: 101516 - 102335" locus_tag="ctg126_98" class="clusterblast-orf" id="knownclusterblast-1_q7_0_all"  />
<polygon points="307,40 311,40 316,35 311,30 307,30 307,40 " style="fill:white; stroke-width:1; stroke:black; " description="&lt;b&gt;ctg126_99&lt;/b&gt;&lt;br&gt;ctg126 99&lt;br&gt;Location: 102917 - 103175" locus_tag="ctg126_99" class="clusterblast-orf" id="knownclusterblast-1_q8_0_all"  />
<polygon points="322,35 327,30 345,30 345,40 327,40 322,35 " style="fill:#d81515; stroke-width:1; stroke:black; " description="&lt;b&gt;ctg126_100&lt;/b&gt;&lt;br&gt;ctg126 100&lt;br&gt;Location: 103346 - 104003" locus_tag="ctg126_100" class="clusterblast-orf" id="knownclusterblast-1_q9_0_all"  />
<polygon points="344,35 349,30 375,30 375,40 349,40 344,35 " style="fill:#15d815; stroke-width:1; stroke:black; " description="&lt;b&gt;ctg126_101&lt;/b&gt;&lt;br&gt;ctg126 101&lt;br&gt;Location: 103995 - 104880" locus_tag="ctg126_101" class="clusterblast-orf" id="knownclusterblast-1_q10_0_all"  />
<polygon points="375,35 380,30 462,30 462,40 380,40 375,35 " style="fill:#1515d8; stroke-width:1; stroke:black; " description="&lt;b&gt;ctg126_102&lt;/b&gt;&lt;br&gt;ctg126 102&lt;br&gt;Location: 104891 - 107405" locus_tag="ctg126_102" class="clusterblast-orf" id="knownclusterblast-1_q11_0_all"  />
<polygon points="463,35 468,30 483,30 483,40 468,40 463,35 " style="fill:#1515d8; stroke-width:1; stroke:black; " description="&lt;b&gt;ctg126_103&lt;/b&gt;&lt;br&gt;ctg126 103&lt;br&gt;Location: 107453 - 108041" locus_tag="ctg126_103" class="clusterblast-orf" id="knownclusterblast-1_q12_0_all"  />
<polygon points="491,40 516,40 521,35 516,30 491,30 491,40 " style="fill:white; stroke-width:1; stroke:black; " description="&lt;b&gt;ctg126_104&lt;/b&gt;&lt;br&gt;ctg126 104&lt;br&gt;Location: 108266 - 109145" locus_tag="ctg126_104" class="clusterblast-orf" id="knownclusterblast-1_q13_0_all"  />
<polygon points="521,35 526,30 548,30 548,40 526,40 521,35 " style="fill:white; stroke-width:1; stroke:black; " description="&lt;b&gt;ctg126_105&lt;/b&gt;&lt;br&gt;ctg126 105&lt;br&gt;Location: 109141 - 109915" locus_tag="ctg126_105" class="clusterblast-orf" id="knownclusterblast-1_q14_0_all"  />
<polygon points="548,35 553,30 583,30 583,40 553,40 548,35 " style="fill:white; stroke-width:1; stroke:black; " description="&lt;b&gt;ctg126_106&lt;/b&gt;&lt;br&gt;ctg126 106&lt;br&gt;Location: 109924 - 110941" locus_tag="ctg126_106" class="clusterblast-orf" id="knownclusterblast-1_q15_0_all"  />
<polygon points="584,35 589,30 600,30 600,40 589,40 584,35 " style="fill:white; stroke-width:1; stroke:black; " description="&lt;b&gt;ctg126_107&lt;/b&gt;&lt;br&gt;ctg126 107&lt;br&gt;Location: 110950 - 111436" locus_tag="ctg126_107" class="clusterblast-orf" id="knownclusterblast-1_q16_0_all"  />
<polygon points="600,35 605,30 648,30 648,40 605,40 600,35 " style="fill:white; stroke-width:1; stroke:black; " description="&lt;b&gt;ctg126_108&lt;/b&gt;&lt;br&gt;ctg126 108&lt;br&gt;Location: 111435 - 112818" locus_tag="ctg126_108" class="clusterblast-orf" id="knownclusterblast-1_q17_0_all"  />
<polygon points="652,35 657,30 683,30 683,40 657,40 652,35 " style="fill:white; stroke-width:1; stroke:black; " description="&lt;b&gt;ctg126_109&lt;/b&gt;&lt;br&gt;ctg126 109&lt;br&gt;Location: 112927 - 113854" locus_tag="ctg126_109" class="clusterblast-orf" id="knownclusterblast-1_q18_0_all"  />
<polygon points="686,35 691,30 696,30 696,40 691,40 686,35 " style="fill:white; stroke-width:1; stroke:black; " description="&lt;b&gt;ctg126_110&lt;/b&gt;&lt;br&gt;ctg126 110&lt;br&gt;Location: 113920 - 114211" locus_tag="ctg126_110" class="clusterblast-orf" id="knownclusterblast-1_q19_0_all"  />
<polygon points="696,35 701,30 735,30 735,40 701,40 696,35 " style="fill:white; stroke-width:1; stroke:black; " description="&lt;b&gt;ctg126_111&lt;/b&gt;&lt;br&gt;ctg126 111&lt;br&gt;Location: 114230 - 115349" locus_tag="ctg126_111" class="clusterblast-orf" id="knownclusterblast-1_q20_0_all"  />
<polygon points="744,40 766,40 771,35 766,30 744,30 744,40 " style="fill:white; stroke-width:1; stroke:black; " description="&lt;b&gt;ctg126_112&lt;/b&gt;&lt;br&gt;ctg126 112&lt;br&gt;Location: 115602 - 116400" locus_tag="ctg126_112" class="clusterblast-orf" id="knownclusterblast-1_q21_0_all"  />
<polygon points="771,35 776,30 780,30 780,40 776,40 771,35 " style="fill:white; stroke-width:1; stroke:black; " description="&lt;b&gt;ctg126_113&lt;/b&gt;&lt;br&gt;ctg126 113&lt;br&gt;Location: 116394 - 116658" locus_tag="ctg126_113" class="clusterblast-orf" id="knownclusterblast-1_q22_0_all"  />
</g>
<g label="MGC00000049" description="MGC00000049_c1: Formate dehydrogenase E. coli (100% of genes show similarity), FORM" class="clusterblast-cluster"  >
<text x="5" y="70" class="clusterblast-acc"  >
MGC00000049_c1: Formate dehydrogenase E. coli (100% of genes show similarity), FORM</text>
<line x1="10" y1="85" x2="778.0" y2="85" style="stroke-width:1; stroke:grey; "  />
</g>
<g id="a1_000"  >
<polygon points="310,85 315,80 332,80 332,90 315,90 310,85 " style="fill:#d81515; stroke-width:1; stroke:black; " description="&lt;b&gt;b3892&lt;/b&gt;&lt;br&gt;formate dehydrogenase O subunit gamma&lt;br&gt;Location: 10000 - 10636&lt;br&gt;&lt;br&gt;&lt;b&gt;BlastP hit with ctg126_100&lt;/b&gt;&lt;br&gt;Percentage identity: 49&lt;br&gt;Percentage coverage: 94&lt;br&gt;BLAST bit score: 213&lt;br&gt;E-value: 4.93e-72" locus_tag="b3892" class="clusterblast-orf" id="knownclusterblast-1_all_1_1_0"  />
</g>
<g id="a1_001"  >
<polygon points="332,85 337,80 363,80 363,90 337,90 332,85 " style="fill:#15d815; stroke-width:1; stroke:black; " description="&lt;b&gt;b3893&lt;/b&gt;&lt;br&gt;formate dehydrogenase O subunit beta&lt;br&gt;Location: 10632 - 11535&lt;br&gt;&lt;br&gt;&lt;b&gt;BlastP hit with ctg126_101&lt;/b&gt;&lt;br&gt;Percentage identity: 75&lt;br&gt;Percentage coverage: 100&lt;br&gt;BLAST bit score: 490&lt;br&gt;E-value: 4.5e-179" locus_tag="b3893" class="clusterblast-orf" id="knownclusterblast-1_all_1_1_1"  />
</g>
<g id="a1_002"  >
<polygon points="364,85 369,80 469,80 469,90 369,90 364,85 " style="fill:#1515d8; stroke-width:1; stroke:black; " description="&lt;b&gt;b3894&lt;/b&gt;&lt;br&gt;formate dehydrogenase O subunit alpha&lt;br&gt;Location: 11547 - 14598&lt;br&gt;&lt;br&gt;&lt;b&gt;BlastP hit with ctg126_102&lt;/b&gt;&lt;br&gt;Percentage identity: 71&lt;br&gt;Percentage coverage: 100&lt;br&gt;BLAST bit score: 1265&lt;br&gt;E-value: 0.0&lt;br&gt;&lt;br&gt;&lt;b&gt;BlastP hit with ctg126_103&lt;/b&gt;&lt;br&gt;Percentage identity: 82&lt;br&gt;Percentage coverage: 100&lt;br&gt;BLAST bit score: 344&lt;br&gt;E-value: 9.31e-115" locus_tag="b3894" class="clusterblast-orf" id="knownclusterblast-1_all_1_1_2"  />
</g>
</svg>
