<svg xmlns="http://www.w3.org/2000/svg" xmlns:xlink="http://www.w3.org/1999/xlink" version="1.1" x="0" y="0" height="100" width="800" viewBox="0 0 800 100" preserveAspectRatio="none"  >
<g label="Query sequence" class="clusterblast-cluster"  >
<text x="5" y="20" class="clusterblast-acc"  >
Query sequence</text>
<line x1="10" y1="35" x2="778.0" y2="35" style="stroke-width:1; stroke:grey; "  />
<polygon points="0,35 5,30 32,30 32,40 5,40 0,35 " style="fill:white; stroke-width:1; stroke:black; " description="&lt;b&gt;ctg89_36&lt;/b&gt;&lt;br&gt;ctg89 36&lt;br&gt;Location: 39629 - 40625" locus_tag="ctg89_36" class="clusterblast-orf" id="knownclusterblast-1_q0_0_all"  />
<polygon points="35,35 40,30 53,30 53,40 40,40 35,35 " style="fill:white; stroke-width:1; stroke:black; " description="&lt;b&gt;ctg89_37&lt;/b&gt;&lt;br&gt;ctg89 37&lt;br&gt;Location: 40712 - 41261" locus_tag="ctg89_37" class="clusterblast-orf" id="knownclusterblast-1_q1_0_all"  />
<polygon points="56,40 77,40 82,35 77,30 56,30 56,40 " style="fill:white; stroke-width:1; stroke:black; " description="&lt;b&gt;ctg89_38&lt;/b&gt;&lt;br&gt;ctg89 38&lt;br&gt;Location: 41330 - 42134" locus_tag="ctg89_38" class="clusterblast-orf" id="knownclusterblast-1_q2_0_all"  />
<polygon points="82,40 87,40 92,35 87,30 82,30 82,40 " style="fill:white; stroke-width:1; stroke:black; " description="&lt;b&gt;ctg89_39&lt;/b&gt;&lt;br&gt;ctg89 39&lt;br&gt;Location: 42133 - 42457" locus_tag="ctg89_39" class="clusterblast-orf" id="knownclusterblast-1_q3_0_all"  />
<polygon points="92,35 97,30 112,30 112,40 97,40 92,35 " style="fill:white; stroke-width:1; stroke:black; " description="&lt;b&gt;ctg89_40&lt;/b&gt;&lt;br&gt;ctg89 40&lt;br&gt;Location: 42453 - 43047" locus_tag="ctg89_40" class="clusterblast-orf" id="knownclusterblast-1_q4_0_all"  />
<polygon points="112,35 117,30 126,30 126,40 117,40 112,35 " style="fill:white; stroke-width:1; stroke:black; " description="&lt;b&gt;ctg89_41&lt;/b&gt;&lt;br&gt;ctg89 41&lt;br&gt;Location: 43043 - 43481" locus_tag="ctg89_41" class="clusterblast-orf" id="knownclusterblast-1_q5_0_all"  />
<polygon points="126,35 131,30 135,30 135,40 131,40 126,35 " style="fill:white; stroke-width:1; stroke:black; " description="&lt;b&gt;ctg89_42&lt;/b&gt;&lt;br&gt;ctg89 42&lt;br&gt;Location: 43490 - 43760" locus_tag="ctg89_42" class="clusterblast-orf" id="knownclusterblast-1_q6_0_all"  />
<polygon points="137,35 142,30 165,30 165,40 142,40 137,35 " style="fill:white; stroke-width:1; stroke:black; " description="&lt;b&gt;ctg89_43&lt;/b&gt;&lt;br&gt;ctg89 43&lt;br&gt;Location: 43818 - 44661" locus_tag="ctg89_43" class="clusterblast-orf" id="knownclusterblast-1_q7_0_all"  />
<polygon points="164,35 169,30 209,30 209,40 169,40 164,35 " style="fill:white; stroke-width:1; stroke:black; " description="&lt;b&gt;ctg89_44&lt;/b&gt;&lt;br&gt;ctg89 44&lt;br&gt;Location: 44647 - 46015" locus_tag="ctg89_44" class="clusterblast-orf" id="knownclusterblast-1_q8_0_all"  />
<polygon points="209,35 214,30 219,30 219,40 214,40 209,35 " style="fill:white; stroke-width:1; stroke:black; " description="&lt;b&gt;ctg89_45&lt;/b&gt;&lt;br&gt;ctg89 45&lt;br&gt;Location: 46007 - 46322" locus_tag="ctg89_45" class="clusterblast-orf" id="knownclusterblast-1_q9_0_all"  />
<polygon points="219,35 224,30 251,30 251,40 224,40 219,35 " style="fill:white; stroke-width:1; stroke:black; " description="&lt;b&gt;ctg89_46&lt;/b&gt;&lt;br&gt;ctg89 46&lt;br&gt;Location: 46333 - 47314" locus_tag="ctg89_46" class="clusterblast-orf" id="knownclusterblast-1_q10_0_all"  />
<polygon points="265,35 270,30 272,30 272,40 270,40 265,35 " style="fill:white; stroke-width:1; stroke:black; " description="&lt;b&gt;ctg89_47&lt;/b&gt;&lt;br&gt;ctg89 47&lt;br&gt;Location: 47716 - 47929" locus_tag="ctg89_47" class="clusterblast-orf" id="knownclusterblast-1_q11_0_all"  />
<polygon points="276,35 281,30 299,30 299,40 281,40 276,35 " style="fill:white; stroke-width:1; stroke:black; " description="&lt;b&gt;ctg89_48&lt;/b&gt;&lt;br&gt;ctg89 48&lt;br&gt;Location: 48057 - 48774" locus_tag="ctg89_48" class="clusterblast-orf" id="knownclusterblast-1_q12_0_all"  />
<polygon points="308,40 322,40 327,35 322,30 308,30 308,40 " style="fill:#d81515; stroke-width:1; stroke:black; " description="&lt;b&gt;ctg89_49&lt;/b&gt;&lt;br&gt;ctg89 49&lt;br&gt;Location: 49050 - 49638" locus_tag="ctg89_49" class="clusterblast-orf" id="knownclusterblast-1_q13_0_all"  />
<polygon points="329,40 403,40 408,35 403,30 329,30 329,40 " style="fill:#d81515; stroke-width:1; stroke:black; " description="&lt;b&gt;ctg89_50&lt;/b&gt;&lt;br&gt;ctg89 50&lt;br&gt;Location: 49686 - 52101" locus_tag="ctg89_50" class="clusterblast-orf" id="knownclusterblast-1_q14_0_all"  />
<polygon points="414,40 436,40 441,35 436,30 414,30 414,40 " style="fill:#15d815; stroke-width:1; stroke:black; " description="&lt;b&gt;ctg89_51&lt;/b&gt;&lt;br&gt;ctg89 51&lt;br&gt;Location: 52282 - 53098" locus_tag="ctg89_51" class="clusterblast-orf" id="knownclusterblast-1_q15_0_all"  />
<polygon points="441,40 456,40 461,35 456,30 441,30 441,40 " style="fill:#1515d8; stroke-width:1; stroke:black; " description="&lt;b&gt;ctg89_52&lt;/b&gt;&lt;br&gt;ctg89 52&lt;br&gt;Location: 53094 - 53730" locus_tag="ctg89_52" class="clusterblast-orf" id="knownclusterblast-1_q16_0_all"  />
<polygon points="461,40 487,40 492,35 487,30 461,30 461,40 " style="fill:white; stroke-width:1; stroke:black; " description="&lt;b&gt;ctg89_53&lt;/b&gt;&lt;br&gt;ctg89 53&lt;br&gt;Location: 53726 - 54656" locus_tag="ctg89_53" class="clusterblast-orf" id="knownclusterblast-1_q17_0_all"  />
<polygon points="497,35 502,30 510,30 510,40 502,40 497,35 " style="fill:white; stroke-width:1; stroke:black; " description="&lt;b&gt;ctg89_54&lt;/b&gt;&lt;br&gt;ctg89 54&lt;br&gt;Location: 54829 - 55213" locus_tag="ctg89_54" class="clusterblast-orf" id="knownclusterblast-1_q18_0_all"  />
<polygon points="525,40 550,40 555,35 550,30 525,30 525,40 " style="fill:white; stroke-width:1; stroke:black; " description="&lt;b&gt;ctg89_55&lt;/b&gt;&lt;br&gt;ctg89 55&lt;br&gt;Location: 55659 - 56577" locus_tag="ctg89_55" class="clusterblast-orf" id="knownclusterblast-1_q19_0_all"  />
<polygon points="555,35 560,30 587,30 587,40 560,40 555,35 " style="fill:white; stroke-width:1; stroke:black; " description="&lt;b&gt;ctg89_56&lt;/b&gt;&lt;br&gt;ctg89 56&lt;br&gt;Location: 56590 - 57580" locus_tag="ctg89_56" class="clusterblast-orf" id="knownclusterblast-1_q20_0_all"  />
<polygon points="587,35 592,30 602,30 602,40 592,40 587,35 " style="fill:white; stroke-width:1; stroke:black; " description="&lt;b&gt;ctg89_57&lt;/b&gt;&lt;br&gt;ctg89 57&lt;br&gt;Location: 57576 - 58014" locus_tag="ctg89_57" class="clusterblast-orf" id="knownclusterblast-1_q21_0_all"  />
<polygon points="602,35 607,30 634,30 634,40 607,40 602,35 " style="fill:white; stroke-width:1; stroke:black; " description="&lt;b&gt;ctg89_58&lt;/b&gt;&lt;br&gt;ctg89 58&lt;br&gt;Location: 58010 - 58994" locus_tag="ctg89_58" class="clusterblast-orf" id="knownclusterblast-1_q22_0_all"  />
<polygon points="634,35 639,30 653,30 653,40 639,40 634,35 " style="fill:white; stroke-width:1; stroke:black; " description="&lt;b&gt;ctg89_59&lt;/b&gt;&lt;br&gt;ctg89 59&lt;br&gt;Location: 58987 - 59587" locus_tag="ctg89_59" class="clusterblast-orf" id="knownclusterblast-1_q23_0_all"  />
<polygon points="662,35 667,30 721,30 721,40 667,40 662,35 " style="fill:white; stroke-width:1; stroke:black; " description="&lt;b&gt;ctg89_60&lt;/b&gt;&lt;br&gt;ctg89 60&lt;br&gt;Location: 59844 - 61668" locus_tag="ctg89_60" class="clusterblast-orf" id="knownclusterblast-1_q24_0_all"  />
<polygon points="734,40 775,40 780,35 775,30 734,30 734,40 " style="fill:white; stroke-width:1; stroke:black; " description="&lt;b&gt;ctg89_61&lt;/b&gt;&lt;br&gt;ctg89 61&lt;br&gt;Location: 62046 - 63456" locus_tag="ctg89_61" class="clusterblast-orf" id="knownclusterblast-1_q25_0_all"  />
</g>
<g label="MGC00000049" description="MGC00000049_c1: Formate dehydrogenase E. coli (100% of genes show similarity), FORM" class="clusterblast-cluster"  >
<text x="5" y="70" class="clusterblast-acc"  >
MGC00000049_c1: Formate dehydrogenase E. coli (100% of genes show similarity), FORM</text>
<line x1="10" y1="85" x2="778.0" y2="85" style="stroke-width:1; stroke:grey; "  />
</g>
<g id="a1_000"  >
<polygon points="314,90 409,90 414,85 409,80 314,80 314,90 " style="fill:#d81515; stroke-width:1; stroke:black; " description="&lt;b&gt;b3894&lt;/b&gt;&lt;br&gt;formate dehydrogenase O subunit alpha&lt;br&gt;Location: 14598 - 11547&lt;br&gt;&lt;br&gt;&lt;b&gt;BlastP hit with ctg89_49&lt;/b&gt;&lt;br&gt;Percentage identity: 95&lt;br&gt;Percentage coverage: 100&lt;br&gt;BLAST bit score: 383&lt;br&gt;E-value: 9.42e-130&lt;br&gt;&lt;br&gt;&lt;b&gt;BlastP hit with ctg89_50&lt;/b&gt;&lt;br&gt;Percentage identity: 92&lt;br&gt;Percentage coverage: 100&lt;br&gt;BLAST bit score: 1548&lt;br&gt;E-value: 0.0" locus_tag="b3894" class="clusterblast-orf" id="knownclusterblast-1_all_1_1_0"  />
</g>
<g id="a1_001"  >
<polygon points="414,90 439,90 444,85 439,80 414,80 414,90 " style="fill:#15d815; stroke-width:1; stroke:black; " description="&lt;b&gt;b3893&lt;/b&gt;&lt;br&gt;formate dehydrogenase O subunit beta&lt;br&gt;Location: 11535 - 10632&lt;br&gt;&lt;br&gt;&lt;b&gt;BlastP hit with ctg89_51&lt;/b&gt;&lt;br&gt;Percentage identity: 94&lt;br&gt;Percentage coverage: 100&lt;br&gt;BLAST bit score: 554&lt;br&gt;E-value: 9.03e-205" locus_tag="b3893" class="clusterblast-orf" id="knownclusterblast-1_all_1_1_1"  />
</g>
<g id="a1_002"  >
<polygon points="444,90 460,90 465,85 460,80 444,80 444,90 " style="fill:#1515d8; stroke-width:1; stroke:black; " description="&lt;b&gt;b3892&lt;/b&gt;&lt;br&gt;formate dehydrogenase O subunit gamma&lt;br&gt;Location: 10636 - 10000&lt;br&gt;&lt;br&gt;&lt;b&gt;BlastP hit with ctg89_52&lt;/b&gt;&lt;br&gt;Percentage identity: 94&lt;br&gt;Percentage coverage: 100&lt;br&gt;BLAST bit score: 405&lt;br&gt;E-value: 3.06e-148" locus_tag="b3892" class="clusterblast-orf" id="knownclusterblast-1_all_1_1_2"  />
</g>
</svg>
