<svg xmlns="http://www.w3.org/2000/svg" xmlns:xlink="http://www.w3.org/1999/xlink" version="1.1" x="0" y="0" height="50" width="800" viewBox="0 0 800 50" preserveAspectRatio="none"  >
<g label="Query sequence" class="clusterblast-cluster"  >
<text x="5" y="20" class="clusterblast-acc"  >
Query sequence</text>
<line x1="10" y1="35" x2="778.0" y2="35" style="stroke-width:1; stroke:grey; "  />
<polygon points="0,35 5,30 71,30 71,40 5,40 0,35 " style="fill:white; stroke-width:1; stroke:black; " description="&lt;b&gt;ctg120_1&lt;/b&gt;&lt;br&gt;ctg120 1&lt;br&gt;Location: 1 - 787" locus_tag="ctg120_1" class="clusterblast-orf" id="knownclusterblast-1_q0_0_all"  />
<polygon points="72,35 77,30 216,30 216,40 77,40 72,35 " style="fill:white; stroke-width:1; stroke:black; " description="&lt;b&gt;ctg120_2&lt;/b&gt;&lt;br&gt;ctg120 2&lt;br&gt;Location: 798 - 2406" locus_tag="ctg120_2" class="clusterblast-orf" id="knownclusterblast-1_q1_0_all"  />
<polygon points="255,40 483,40 488,35 483,30 255,30 255,40 " style="fill:white; stroke-width:1; stroke:black; " description="&lt;b&gt;ctg120_3&lt;/b&gt;&lt;br&gt;ctg120 3&lt;br&gt;Location: 2837 - 5435" locus_tag="ctg120_3" class="clusterblast-orf" id="knownclusterblast-1_q2_0_all"  />
<polygon points="504,40 532,40 537,35 532,30 504,30 504,40 " style="fill:white; stroke-width:1; stroke:black; " description="&lt;b&gt;ctg120_4&lt;/b&gt;&lt;br&gt;ctg120 4&lt;br&gt;Location: 5621 - 5984" locus_tag="ctg120_4" class="clusterblast-orf" id="knownclusterblast-1_q3_0_all"  />
<polygon points="553,35 558,30 625,30 625,40 558,40 553,35 " style="fill:white; stroke-width:1; stroke:black; " description="&lt;b&gt;ctg120_5&lt;/b&gt;&lt;br&gt;ctg120 5&lt;br&gt;Location: 6167 - 6962" locus_tag="ctg120_5" class="clusterblast-orf" id="knownclusterblast-1_q4_0_all"  />
<polygon points="627,35 632,30 704,30 704,40 632,40 627,35 " style="fill:white; stroke-width:1; stroke:black; " description="&lt;b&gt;ctg120_6&lt;/b&gt;&lt;br&gt;ctg120 6&lt;br&gt;Location: 6986 - 7847" locus_tag="ctg120_6" class="clusterblast-orf" id="knownclusterblast-1_q5_0_all"  />
<polygon points="728,35 733,30 780,30 780,40 733,40 728,35 " style="fill:white; stroke-width:1; stroke:black; " description="&lt;b&gt;ctg120_7&lt;/b&gt;&lt;br&gt;ctg120 7&lt;br&gt;Location: 8114 - 8699" locus_tag="ctg120_7" class="clusterblast-orf" id="knownclusterblast-1_q6_0_all"  />
</g>
</svg>
