<svg xmlns="http://www.w3.org/2000/svg" xmlns:xlink="http://www.w3.org/1999/xlink" version="1.1" x="0" y="0" height="100" width="800" viewBox="0 0 800 100" preserveAspectRatio="none"  >
<g label="Query sequence" class="clusterblast-cluster"  >
<text x="5" y="20" class="clusterblast-acc"  >
Query sequence</text>
<line x1="10" y1="35" x2="778.0" y2="35" style="stroke-width:1; stroke:grey; "  />
<polygon points="0,35 5,30 55,30 55,40 5,40 0,35 " style="fill:white; stroke-width:1; stroke:black; " description="&lt;b&gt;ctg50_17&lt;/b&gt;&lt;br&gt;ctg50 17&lt;br&gt;Location: 14542 - 15925" locus_tag="ctg50_17" class="clusterblast-orf" id="knownclusterblast-1_q0_0_all"  />
<polygon points="55,35 60,30 117,30 117,40 60,40 55,35 " style="fill:white; stroke-width:1; stroke:black; " description="&lt;b&gt;ctg50_18&lt;/b&gt;&lt;br&gt;ctg50 18&lt;br&gt;Location: 15948 - 17517" locus_tag="ctg50_18" class="clusterblast-orf" id="knownclusterblast-1_q1_0_all"  />
<polygon points="128,40 153,40 158,35 153,30 128,30 128,40 " style="fill:white; stroke-width:1; stroke:black; " description="&lt;b&gt;ctg50_19&lt;/b&gt;&lt;br&gt;ctg50 19&lt;br&gt;Location: 17775 - 18546" locus_tag="ctg50_19" class="clusterblast-orf" id="knownclusterblast-1_q2_0_all"  />
<polygon points="160,35 165,30 202,30 202,40 165,40 160,35 " style="fill:white; stroke-width:1; stroke:black; " description="&lt;b&gt;ctg50_20&lt;/b&gt;&lt;br&gt;ctg50 20&lt;br&gt;Location: 18600 - 19653" locus_tag="ctg50_20" class="clusterblast-orf" id="knownclusterblast-1_q3_0_all"  />
<polygon points="208,35 213,30 215,30 215,40 213,40 208,35 " style="fill:white; stroke-width:1; stroke:black; " description="&lt;b&gt;ctg50_21&lt;/b&gt;&lt;br&gt;ctg50 21&lt;br&gt;Location: 19810 - 19993" locus_tag="ctg50_21" class="clusterblast-orf" id="knownclusterblast-1_q4_0_all"  />
<polygon points="219,40 236,40 241,35 236,30 219,30 219,40 " style="fill:white; stroke-width:1; stroke:black; " description="&lt;b&gt;ctg50_22&lt;/b&gt;&lt;br&gt;ctg50 22&lt;br&gt;Location: 20094 - 20649" locus_tag="ctg50_22" class="clusterblast-orf" id="knownclusterblast-1_q5_0_all"  />
<polygon points="241,40 257,40 262,35 257,30 241,30 241,40 " style="fill:white; stroke-width:1; stroke:black; " description="&lt;b&gt;ctg50_23&lt;/b&gt;&lt;br&gt;ctg50 23&lt;br&gt;Location: 20656 - 21169" locus_tag="ctg50_23" class="clusterblast-orf" id="knownclusterblast-1_q6_0_all"  />
<polygon points="264,40 324,40 329,35 324,30 264,30 264,40 " style="fill:white; stroke-width:1; stroke:black; " description="&lt;b&gt;ctg50_24&lt;/b&gt;&lt;br&gt;ctg50 24&lt;br&gt;Location: 21226 - 22882" locus_tag="ctg50_24" class="clusterblast-orf" id="knownclusterblast-1_q7_0_all"  />
<polygon points="332,40 361,40 366,35 361,30 332,30 332,40 " style="fill:white; stroke-width:1; stroke:black; " description="&lt;b&gt;ctg50_25&lt;/b&gt;&lt;br&gt;ctg50 25&lt;br&gt;Location: 22958 - 23804" locus_tag="ctg50_25" class="clusterblast-orf" id="knownclusterblast-1_q8_0_all"  />
<polygon points="378,35 383,30 405,30 405,40 383,40 378,35 " style="fill:#d81515; stroke-width:1; stroke:black; " description="&lt;b&gt;ctg50_26&lt;/b&gt;&lt;br&gt;ctg50 26&lt;br&gt;Location: 24104 - 24785" locus_tag="ctg50_26" class="clusterblast-orf" id="knownclusterblast-1_q9_0_all"  />
<polygon points="404,35 409,30 432,30 432,40 409,40 404,35 " style="fill:#77d815; stroke-width:1; stroke:black; " description="&lt;b&gt;ctg50_27&lt;/b&gt;&lt;br&gt;ctg50 27&lt;br&gt;Location: 24781 - 25477" locus_tag="ctg50_27" class="clusterblast-orf" id="knownclusterblast-1_q10_0_all"  />
<polygon points="432,35 437,30 489,30 489,40 437,40 432,35 " style="fill:#15d8d8; stroke-width:1; stroke:black; " description="&lt;b&gt;ctg50_28&lt;/b&gt;&lt;br&gt;ctg50 28&lt;br&gt;Location: 25476 - 26916" locus_tag="ctg50_28" class="clusterblast-orf" id="knownclusterblast-1_q11_0_all"  />
<polygon points="493,35 498,30 641,30 641,40 498,40 493,35 " style="fill:#7715d8; stroke-width:1; stroke:black; " description="&lt;b&gt;ctg50_29&lt;/b&gt;&lt;br&gt;ctg50 29&lt;br&gt;Location: 27017 - 30758" locus_tag="ctg50_29" class="clusterblast-orf" id="knownclusterblast-1_q12_0_all"  />
<polygon points="645,35 650,30 700,30 700,40 650,40 645,35 " style="fill:white; stroke-width:1; stroke:black; " description="&lt;b&gt;ctg50_30&lt;/b&gt;&lt;br&gt;ctg50 30&lt;br&gt;Location: 30872 - 32255" locus_tag="ctg50_30" class="clusterblast-orf" id="knownclusterblast-1_q13_0_all"  />
<polygon points="707,35 712,30 728,30 728,40 712,40 707,35 " style="fill:white; stroke-width:1; stroke:black; " description="&lt;b&gt;ctg50_31&lt;/b&gt;&lt;br&gt;ctg50 31&lt;br&gt;Location: 32429 - 32966" locus_tag="ctg50_31" class="clusterblast-orf" id="knownclusterblast-1_q14_0_all"  />
<polygon points="734,40 775,40 780,35 775,30 734,30 734,40 " style="fill:white; stroke-width:1; stroke:black; " description="&lt;b&gt;ctg50_32&lt;/b&gt;&lt;br&gt;ctg50 32&lt;br&gt;Location: 33128 - 34283" locus_tag="ctg50_32" class="clusterblast-orf" id="knownclusterblast-1_q15_0_all"  />
</g>
<g label="MGC00000045" description="MGC00000045_c1: Nitrate reductase E. coli (80% of genes show similarity), NIR" class="clusterblast-cluster"  >
<text x="5" y="70" class="clusterblast-acc"  >
MGC00000045_c1: Nitrate reductase E. coli (80% of genes show similarity), NIR</text>
<line x1="10" y1="85" x2="778.0" y2="85" style="stroke-width:1; stroke:grey; "  />
</g>
<g id="a1_000"  >
<polygon points="68,85 73,80 94,80 94,90 73,90 68,85 " style="fill:#d81515; stroke-width:1; stroke:black; " description="&lt;b&gt;b1227&lt;/b&gt;&lt;br&gt;nitrate reductase A subunit gamma&lt;br&gt;Location: 16289 - 15611&lt;br&gt;&lt;br&gt;&lt;b&gt;BlastP hit with ctg50_26&lt;/b&gt;&lt;br&gt;Percentage identity: 74&lt;br&gt;Percentage coverage: 99&lt;br&gt;BLAST bit score: 347&lt;br&gt;E-value: 1.33e-124" locus_tag="b1227" class="clusterblast-orf" id="knownclusterblast-1_all_1_1_0"  />
</g>
<g id="a1_001"  >
<polygon points="94,85 99,80 123,80 123,90 99,90 94,85 " style="fill:#77d815; stroke-width:1; stroke:black; " description="&lt;b&gt;b1226&lt;/b&gt;&lt;br&gt;nitrate reductase 1 molybdenum cofactor assembly chaperone&lt;br&gt;Location: 15612 - 14901&lt;br&gt;&lt;br&gt;&lt;b&gt;BlastP hit with ctg50_27&lt;/b&gt;&lt;br&gt;Percentage identity: 57&lt;br&gt;Percentage coverage: 101&lt;br&gt;BLAST bit score: 247&lt;br&gt;E-value: 5.69e-85" locus_tag="b1226" class="clusterblast-orf" id="knownclusterblast-1_all_1_1_1"  />
</g>
<g id="a1_002"  >
<polygon points="122,85 127,80 183,80 183,90 127,90 122,85 " style="fill:#15d8d8; stroke-width:1; stroke:black; " description="&lt;b&gt;b1225&lt;/b&gt;&lt;br&gt;nitrate reductase A subunit beta&lt;br&gt;Location: 14905 - 13366&lt;br&gt;&lt;br&gt;&lt;b&gt;BlastP hit with ctg50_28&lt;/b&gt;&lt;br&gt;Percentage identity: 81&lt;br&gt;Percentage coverage: 98&lt;br&gt;BLAST bit score: 810&lt;br&gt;E-value: 6.95e-299" locus_tag="b1225" class="clusterblast-orf" id="knownclusterblast-1_all_1_1_2"  />
</g>
<g id="a1_003"  >
<polygon points="183,85 188,80 331,80 331,90 188,90 183,85 " style="fill:#7715d8; stroke-width:1; stroke:black; " description="&lt;b&gt;b1224&lt;/b&gt;&lt;br&gt;nitrate reductase A subunit alpha&lt;br&gt;Location: 13370 - 9626&lt;br&gt;&lt;br&gt;&lt;b&gt;BlastP hit with ctg50_29&lt;/b&gt;&lt;br&gt;Percentage identity: 80&lt;br&gt;Percentage coverage: 100&lt;br&gt;BLAST bit score: 2149&lt;br&gt;E-value: 0.0" locus_tag="b1224" class="clusterblast-orf" id="knownclusterblast-1_all_1_1_3"  />
</g>
<g id="a1_004"  >
<polygon points="707,90 711,85 707,80 707,90 " style="fill:white; stroke-width:1; stroke:black; " description="&lt;b&gt;b4423&lt;/b&gt;&lt;br&gt;small toxic polypeptide LdrC&lt;br&gt;Location: 108 - 0" locus_tag="b4423" class="clusterblast-orf" id="knownclusterblast-1_all_1_1_4"  />
</g>
</svg>
