<svg xmlns="http://www.w3.org/2000/svg" xmlns:xlink="http://www.w3.org/1999/xlink" version="1.1" x="0" y="0" height="230" width="800" viewBox="0 0 800 230" preserveAspectRatio="none"  >
<g label="Query sequence" class="clusterblast-cluster"  >
<text x="5" y="20" class="clusterblast-acc"  >
Query sequence</text>
<line x1="10" y1="35" x2="778.0" y2="35" style="stroke-width:1; stroke:grey; "  />
<polygon points="0,35 5,30 59,30 59,40 5,40 0,35 " style="fill:white; stroke-width:1; stroke:black; " description="&lt;b&gt;ctg35_12&lt;/b&gt;&lt;br&gt;ctg35 12&lt;br&gt;Location: 8056 - 9625" locus_tag="ctg35_12" class="clusterblast-orf" id="dummy-1_q0_0_all"  />
<polygon points="90,35 95,30 123,30 123,40 95,40 90,35 " style="fill:white; stroke-width:1; stroke:black; " description="&lt;b&gt;ctg35_13&lt;/b&gt;&lt;br&gt;ctg35 13&lt;br&gt;Location: 10451 - 11321" locus_tag="ctg35_13" class="clusterblast-orf" id="dummy-1_q1_0_all"  />
<polygon points="123,35 128,30 166,30 166,40 128,40 123,35 " style="fill:white; stroke-width:1; stroke:black; " description="&lt;b&gt;ctg35_14&lt;/b&gt;&lt;br&gt;ctg35 14&lt;br&gt;Location: 11320 - 12487" locus_tag="ctg35_14" class="clusterblast-orf" id="dummy-1_q2_0_all"  />
<polygon points="170,35 175,30 216,30 216,40 175,40 170,35 " style="fill:white; stroke-width:1; stroke:black; " description="&lt;b&gt;ctg35_15&lt;/b&gt;&lt;br&gt;ctg35 15&lt;br&gt;Location: 12590 - 13817" locus_tag="ctg35_15" class="clusterblast-orf" id="dummy-1_q3_0_all"  />
<polygon points="217,35 222,30 309,30 309,40 222,40 217,35 " style="fill:white; stroke-width:1; stroke:black; " description="&lt;b&gt;ctg35_16&lt;/b&gt;&lt;br&gt;ctg35 16&lt;br&gt;Location: 13831 - 16282" locus_tag="ctg35_16" class="clusterblast-orf" id="dummy-1_q4_0_all"  />
<polygon points="340,35 345,30 367,30 367,40 345,40 340,35 " style="fill:#d81515; stroke-width:1; stroke:black; " description="&lt;b&gt;ctg35_17&lt;/b&gt;&lt;br&gt;ctg35 17&lt;br&gt;Location: 17117 - 17834" locus_tag="ctg35_17" class="clusterblast-orf" id="dummy-1_q5_0_all"  />
<polygon points="368,35 373,30 434,30 434,40 373,40 368,35 " style="fill:#15d8d8; stroke-width:1; stroke:black; " description="&lt;b&gt;ctg35_18&lt;/b&gt;&lt;br&gt;ctg35 18&lt;br&gt;Location: 17849 - 19616" locus_tag="ctg35_18" class="clusterblast-orf" id="dummy-1_q6_0_all"  />
<polygon points="434,35 439,30 447,30 447,40 439,40 434,35 " style="fill:white; stroke-width:1; stroke:black; " description="&lt;b&gt;ctg35_19&lt;/b&gt;&lt;br&gt;ctg35 19&lt;br&gt;Location: 19615 - 19963" locus_tag="ctg35_19" class="clusterblast-orf" id="dummy-1_q7_0_all"  />
<polygon points="447,35 452,30 457,30 457,40 452,40 447,35 " style="fill:white; stroke-width:1; stroke:black; " description="&lt;b&gt;ctg35_20&lt;/b&gt;&lt;br&gt;ctg35 20&lt;br&gt;Location: 19956 - 20232" locus_tag="ctg35_20" class="clusterblast-orf" id="dummy-1_q8_0_all"  />
<polygon points="486,40 530,40 535,35 530,30 486,30 486,40 " style="fill:white; stroke-width:1; stroke:black; " description="&lt;b&gt;ctg35_21&lt;/b&gt;&lt;br&gt;ctg35 21&lt;br&gt;Location: 21001 - 22285" locus_tag="ctg35_21" class="clusterblast-orf" id="dummy-1_q9_0_all"  />
<polygon points="542,35 547,30 572,30 572,40 547,40 542,35 " style="fill:white; stroke-width:1; stroke:black; " description="&lt;b&gt;ctg35_22&lt;/b&gt;&lt;br&gt;ctg35 22&lt;br&gt;Location: 22479 - 23271" locus_tag="ctg35_22" class="clusterblast-orf" id="dummy-1_q10_0_all"  />
<polygon points="572,35 577,30 596,30 596,40 577,40 572,35 " style="fill:white; stroke-width:1; stroke:black; " description="&lt;b&gt;ctg35_23&lt;/b&gt;&lt;br&gt;ctg35 23&lt;br&gt;Location: 23286 - 23931" locus_tag="ctg35_23" class="clusterblast-orf" id="dummy-1_q11_0_all"  />
<polygon points="597,35 602,30 634,30 634,40 602,40 597,35 " style="fill:white; stroke-width:1; stroke:black; " description="&lt;b&gt;ctg35_24&lt;/b&gt;&lt;br&gt;ctg35 24&lt;br&gt;Location: 23940 - 24936" locus_tag="ctg35_24" class="clusterblast-orf" id="dummy-1_q12_0_all"  />
<polygon points="634,35 639,30 661,30 661,40 639,40 634,35 " style="fill:white; stroke-width:1; stroke:black; " description="&lt;b&gt;ctg35_25&lt;/b&gt;&lt;br&gt;ctg35 25&lt;br&gt;Location: 24932 - 25658" locus_tag="ctg35_25" class="clusterblast-orf" id="dummy-1_q13_0_all"  />
<polygon points="664,35 669,30 692,30 692,40 669,40 664,35 " style="fill:white; stroke-width:1; stroke:black; " description="&lt;b&gt;ctg35_26&lt;/b&gt;&lt;br&gt;ctg35 26&lt;br&gt;Location: 25739 - 26483" locus_tag="ctg35_26" class="clusterblast-orf" id="dummy-1_q14_0_all"  />
<polygon points="692,35 697,30 727,30 727,40 697,40 692,35 " style="fill:white; stroke-width:1; stroke:black; " description="&lt;b&gt;ctg35_27&lt;/b&gt;&lt;br&gt;ctg35 27&lt;br&gt;Location: 26472 - 27405" locus_tag="ctg35_27" class="clusterblast-orf" id="dummy-1_q15_0_all"  />
<polygon points="727,35 732,30 751,30 751,40 732,40 727,35 " style="fill:white; stroke-width:1; stroke:black; " description="&lt;b&gt;ctg35_28&lt;/b&gt;&lt;br&gt;ctg35 28&lt;br&gt;Location: 27398 - 28055" locus_tag="ctg35_28" class="clusterblast-orf" id="dummy-1_q16_0_all"  />
<polygon points="752,35 757,30 780,30 780,40 757,40 752,35 " style="fill:white; stroke-width:1; stroke:black; " description="&lt;b&gt;ctg35_29&lt;/b&gt;&lt;br&gt;ctg35 29&lt;br&gt;Location: 28069 - 28813" locus_tag="ctg35_29" class="clusterblast-orf" id="dummy-1_q17_0_all"  />
</g>
<g label="MGC00000058" description="MGC00000058_c1: Fumarate2succinate suc dh E. coli (100% of genes show similarity), SUC" class="clusterblast-cluster"  >
<text x="5" y="70" class="clusterblast-acc"  >
MGC00000058_c1: Fumarate2succinate suc dh E. coli (100% of genes show similarity), SUC</text>
<line x1="10" y1="85" x2="778.0" y2="85" style="stroke-width:1; stroke:grey; "  />
</g>
<g id="a1_000"  >
<polygon points="343,85 348,80 369,80 369,90 348,90 343,85 " style="fill:#d81515; stroke-width:1; stroke:black; " description="&lt;b&gt;HMPREF9550_01792&lt;/b&gt;&lt;br&gt;succinate dehydrogenase iron-sulfur subunit&lt;br&gt;Location: 10000 - 10717&lt;br&gt;&lt;br&gt;&lt;b&gt;BlastP hit with ctg35_17&lt;/b&gt;&lt;br&gt;Percentage identity: 98&lt;br&gt;Percentage coverage: 100&lt;br&gt;BLAST bit score: 487&lt;br&gt;E-value: 1.16e-179" locus_tag="HMPREF9550_01792" class="clusterblast-orf" id="dummy-1_h1_1_0"  />
</g>
<g id="a1_001"  >
<polygon points="370,85 375,80 436,80 436,90 375,90 370,85 " style="fill:#15d8d8; stroke-width:1; stroke:black; " description="&lt;b&gt;HMPREF9550_01793&lt;/b&gt;&lt;br&gt;succinate dehydrogenase, flavoprotein subunit&lt;br&gt;Location: 10732 - 12499&lt;br&gt;&lt;br&gt;&lt;b&gt;BlastP hit with ctg35_18&lt;/b&gt;&lt;br&gt;Percentage identity: 99&lt;br&gt;Percentage coverage: 100&lt;br&gt;BLAST bit score: 1173&lt;br&gt;E-value: 0.0" locus_tag="HMPREF9550_01793" class="clusterblast-orf" id="dummy-1_h1_1_1"  />
</g>
</svg>
