<svg xmlns="http://www.w3.org/2000/svg" xmlns:xlink="http://www.w3.org/1999/xlink" version="1.1" x="0" y="0" height="100" width="800" viewBox="0 0 800 100" preserveAspectRatio="none"  >
<g label="Query sequence" class="clusterblast-cluster"  >
<text x="5" y="20" class="clusterblast-acc"  >
Query sequence</text>
<line x1="10" y1="35" x2="778.0" y2="35" style="stroke-width:1; stroke:grey; "  />
<polygon points="0,35 5,30 15,30 15,40 5,40 0,35 " style="fill:white; stroke-width:1; stroke:black; " description="&lt;b&gt;ctg153_77&lt;/b&gt;&lt;br&gt;ctg153 77&lt;br&gt;Location: 77189 - 77657" locus_tag="ctg153_77" class="clusterblast-orf" id="knownclusterblast-1_q0_0_all"  />
<polygon points="24,40 56,40 61,35 56,30 24,30 24,40 " style="fill:white; stroke-width:1; stroke:black; " description="&lt;b&gt;ctg153_78&lt;/b&gt;&lt;br&gt;ctg153 78&lt;br&gt;Location: 77924 - 79049" locus_tag="ctg153_78" class="clusterblast-orf" id="knownclusterblast-1_q1_0_all"  />
<polygon points="63,40 69,40 74,35 69,30 63,30 63,40 " style="fill:white; stroke-width:1; stroke:black; " description="&lt;b&gt;ctg153_79&lt;/b&gt;&lt;br&gt;ctg153 79&lt;br&gt;Location: 79105 - 79465" locus_tag="ctg153_79" class="clusterblast-orf" id="knownclusterblast-1_q2_0_all"  />
<polygon points="76,40 93,40 98,35 93,30 76,30 76,40 " style="fill:white; stroke-width:1; stroke:black; " description="&lt;b&gt;ctg153_80&lt;/b&gt;&lt;br&gt;ctg153 80&lt;br&gt;Location: 79516 - 80179" locus_tag="ctg153_80" class="clusterblast-orf" id="knownclusterblast-1_q3_0_all"  />
<polygon points="102,40 138,40 143,35 138,30 102,30 102,40 " style="fill:white; stroke-width:1; stroke:black; " description="&lt;b&gt;ctg153_81&lt;/b&gt;&lt;br&gt;ctg153 81&lt;br&gt;Location: 80303 - 81578" locus_tag="ctg153_81" class="clusterblast-orf" id="knownclusterblast-1_q4_0_all"  />
<polygon points="149,40 173,40 178,35 173,30 149,30 149,40 " style="fill:white; stroke-width:1; stroke:black; " description="&lt;b&gt;ctg153_82&lt;/b&gt;&lt;br&gt;ctg153 82&lt;br&gt;Location: 81760 - 82621" locus_tag="ctg153_82" class="clusterblast-orf" id="knownclusterblast-1_q5_0_all"  />
<polygon points="179,35 184,30 199,30 199,40 184,40 179,35 " style="fill:white; stroke-width:1; stroke:black; " description="&lt;b&gt;ctg153_83&lt;/b&gt;&lt;br&gt;ctg153 83&lt;br&gt;Location: 82663 - 83269" locus_tag="ctg153_83" class="clusterblast-orf" id="knownclusterblast-1_q6_0_all"  />
<polygon points="202,35 207,30 252,30 252,40 207,40 202,35 " style="fill:white; stroke-width:1; stroke:black; " description="&lt;b&gt;ctg153_84&lt;/b&gt;&lt;br&gt;ctg153 84&lt;br&gt;Location: 83379 - 84885" locus_tag="ctg153_84" class="clusterblast-orf" id="knownclusterblast-1_q7_0_all"  />
<polygon points="258,40 261,40 266,35 261,30 258,30 258,40 " style="fill:white; stroke-width:1; stroke:black; " description="&lt;b&gt;ctg153_85&lt;/b&gt;&lt;br&gt;ctg153 85&lt;br&gt;Location: 85075 - 85333" locus_tag="ctg153_85" class="clusterblast-orf" id="knownclusterblast-1_q8_0_all"  />
<polygon points="272,35 277,30 292,30 292,40 277,40 272,35 " style="fill:white; stroke-width:1; stroke:black; " description="&lt;b&gt;ctg153_86&lt;/b&gt;&lt;br&gt;ctg153 86&lt;br&gt;Location: 85492 - 86128" locus_tag="ctg153_86" class="clusterblast-orf" id="knownclusterblast-1_q9_0_all"  />
<polygon points="292,35 297,30 315,30 315,40 297,40 292,35 " style="fill:#d81515; stroke-width:1; stroke:black; " description="&lt;b&gt;ctg153_87&lt;/b&gt;&lt;br&gt;ctg153 87&lt;br&gt;Location: 86129 - 86828" locus_tag="ctg153_87" class="clusterblast-orf" id="knownclusterblast-1_q10_0_all"  />
<polygon points="315,35 320,30 336,30 336,40 320,40 315,35 " style="fill:white; stroke-width:1; stroke:black; " description="&lt;b&gt;ctg153_88&lt;/b&gt;&lt;br&gt;ctg153 88&lt;br&gt;Location: 86830 - 87454" locus_tag="ctg153_88" class="clusterblast-orf" id="knownclusterblast-1_q11_0_all"  />
<polygon points="336,35 341,30 371,30 371,40 341,40 336,35 " style="fill:white; stroke-width:1; stroke:black; " description="&lt;b&gt;ctg153_89&lt;/b&gt;&lt;br&gt;ctg153 89&lt;br&gt;Location: 87461 - 88514" locus_tag="ctg153_89" class="clusterblast-orf" id="knownclusterblast-1_q12_0_all"  />
<polygon points="371,35 376,30 439,30 439,40 376,40 371,35 " style="fill:#15d815; stroke-width:1; stroke:black; " description="&lt;b&gt;ctg153_90&lt;/b&gt;&lt;br&gt;ctg153 90&lt;br&gt;Location: 88514 - 90620" locus_tag="ctg153_90" class="clusterblast-orf" id="knownclusterblast-1_q13_0_all"  />
<polygon points="439,35 444,30 458,30 458,40 444,40 439,35 " style="fill:#1515d8; stroke-width:1; stroke:black; " description="&lt;b&gt;ctg153_91&lt;/b&gt;&lt;br&gt;ctg153 91&lt;br&gt;Location: 90612 - 91191" locus_tag="ctg153_91" class="clusterblast-orf" id="knownclusterblast-1_q14_0_all"  />
<polygon points="458,35 463,30 477,30 477,40 463,40 458,35 " style="fill:#d81515; stroke-width:1; stroke:black; " description="&lt;b&gt;ctg153_92&lt;/b&gt;&lt;br&gt;ctg153 92&lt;br&gt;Location: 91190 - 91772" locus_tag="ctg153_92" class="clusterblast-orf" id="knownclusterblast-1_q15_0_all"  />
<polygon points="480,35 485,30 494,30 494,40 485,40 480,35 " style="fill:white; stroke-width:1; stroke:black; " description="&lt;b&gt;ctg153_93&lt;/b&gt;&lt;br&gt;ctg153 93&lt;br&gt;Location: 91850 - 92291" locus_tag="ctg153_93" class="clusterblast-orf" id="knownclusterblast-1_q16_0_all"  />
<polygon points="497,35 502,30 504,30 504,40 502,40 497,35 " style="fill:white; stroke-width:1; stroke:black; " description="&lt;b&gt;ctg153_94&lt;/b&gt;&lt;br&gt;ctg153 94&lt;br&gt;Location: 92366 - 92582" locus_tag="ctg153_94" class="clusterblast-orf" id="knownclusterblast-1_q17_0_all"  />
<polygon points="515,35 520,30 560,30 560,40 520,40 515,35 " style="fill:white; stroke-width:1; stroke:black; " description="&lt;b&gt;ctg153_95&lt;/b&gt;&lt;br&gt;ctg153 95&lt;br&gt;Location: 92922 - 94293" locus_tag="ctg153_95" class="clusterblast-orf" id="knownclusterblast-1_q18_0_all"  />
<polygon points="564,40 565,40 570,35 565,30 564,30 564,40 " style="fill:white; stroke-width:1; stroke:black; " description="&lt;b&gt;ctg153_96&lt;/b&gt;&lt;br&gt;ctg153 96&lt;br&gt;Location: 94417 - 94621" locus_tag="ctg153_96" class="clusterblast-orf" id="knownclusterblast-1_q19_0_all"  />
<polygon points="574,40 603,40 608,35 603,30 574,30 574,40 " style="fill:white; stroke-width:1; stroke:black; " description="&lt;b&gt;ctg153_97&lt;/b&gt;&lt;br&gt;ctg153 97&lt;br&gt;Location: 94736 - 95777" locus_tag="ctg153_97" class="clusterblast-orf" id="knownclusterblast-1_q20_0_all"  />
<polygon points="614,35 619,30 647,30 647,40 619,40 614,35 " style="fill:white; stroke-width:1; stroke:black; " description="&lt;b&gt;ctg153_98&lt;/b&gt;&lt;br&gt;ctg153 98&lt;br&gt;Location: 95954 - 96956" locus_tag="ctg153_98" class="clusterblast-orf" id="knownclusterblast-1_q21_0_all"  />
<polygon points="652,35 657,30 692,30 692,40 657,40 652,35 " style="fill:white; stroke-width:1; stroke:black; " description="&lt;b&gt;ctg153_99&lt;/b&gt;&lt;br&gt;ctg153 99&lt;br&gt;Location: 97113 - 98331" locus_tag="ctg153_99" class="clusterblast-orf" id="knownclusterblast-1_q22_0_all"  />
<polygon points="696,40 706,40 711,35 706,30 696,30 696,40 " style="fill:white; stroke-width:1; stroke:black; " description="&lt;b&gt;ctg153_100&lt;/b&gt;&lt;br&gt;ctg153 100&lt;br&gt;Location: 98461 - 98926" locus_tag="ctg153_100" class="clusterblast-orf" id="knownclusterblast-1_q23_0_all"  />
<polygon points="719,40 720,40 725,35 720,30 719,30 719,40 " style="fill:white; stroke-width:1; stroke:black; " description="&lt;b&gt;ctg153_101&lt;/b&gt;&lt;br&gt;ctg153 101&lt;br&gt;Location: 99169 - 99355" locus_tag="ctg153_101" class="clusterblast-orf" id="knownclusterblast-1_q24_0_all"  />
<polygon points="726,35 731,30 738,30 738,40 731,40 726,35 " style="fill:white; stroke-width:1; stroke:black; " description="&lt;b&gt;ctg153_102&lt;/b&gt;&lt;br&gt;ctg153 102&lt;br&gt;Location: 99364 - 99727" locus_tag="ctg153_102" class="clusterblast-orf" id="knownclusterblast-1_q25_0_all"  />
<polygon points="746,40 758,40 763,35 758,30 746,30 746,40 " style="fill:white; stroke-width:1; stroke:black; " description="&lt;b&gt;ctg153_103&lt;/b&gt;&lt;br&gt;ctg153 103&lt;br&gt;Location: 99986 - 100514" locus_tag="ctg153_103" class="clusterblast-orf" id="knownclusterblast-1_q26_0_all"  />
<polygon points="771,40 775,40 780,35 775,30 771,30 771,40 " style="fill:white; stroke-width:1; stroke:black; " description="&lt;b&gt;ctg153_104&lt;/b&gt;&lt;br&gt;ctg153 104&lt;br&gt;Location: 100742 - 101018" locus_tag="ctg153_104" class="clusterblast-orf" id="knownclusterblast-1_q27_0_all"  />
</g>
<g label="MGC00000037" description="MGC00000037_c1: Rnf complex C. sporogenes (66% of genes show similarity), RNF" class="clusterblast-cluster"  >
<text x="5" y="70" class="clusterblast-acc"  >
MGC00000037_c1: Rnf complex C. sporogenes (66% of genes show similarity), RNF</text>
<line x1="10" y1="85" x2="778.0" y2="85" style="stroke-width:1; stroke:grey; "  />
</g>
<g id="a1_000"  >
<polygon points="308,85 313,80 336,80 336,90 313,90 308,85 " style="fill:#1515d8; stroke-width:1; stroke:black; " description="&lt;b&gt;CLOSPO_00568&lt;/b&gt;&lt;br&gt;electron transport complex, RnfABCDGE type, B subunit&lt;br&gt;Location: 10000 - 10834&lt;br&gt;&lt;br&gt;&lt;b&gt;BlastP hit with ctg153_91&lt;/b&gt;&lt;br&gt;Percentage identity: 40&lt;br&gt;Percentage coverage: 56&lt;br&gt;BLAST bit score: 84&lt;br&gt;E-value: 8.4e-22" locus_tag="CLOSPO_00568" class="clusterblast-orf" id="knownclusterblast-1_all_1_1_0"  />
</g>
<g id="a1_001"  >
<polygon points="336,85 341,80 356,80 356,90 341,90 336,85 " style="fill:#d81515; stroke-width:1; stroke:black; " description="&lt;b&gt;CLOSPO_00569&lt;/b&gt;&lt;br&gt;electron transport complex, RnfABCDGE type, A subunit&lt;br&gt;Location: 10847 - 11438&lt;br&gt;&lt;br&gt;&lt;b&gt;BlastP hit with ctg153_87&lt;/b&gt;&lt;br&gt;Percentage identity: 33&lt;br&gt;Percentage coverage: 65&lt;br&gt;BLAST bit score: 64&lt;br&gt;E-value: 1.43e-14&lt;br&gt;&lt;br&gt;&lt;b&gt;BlastP hit with ctg153_92&lt;/b&gt;&lt;br&gt;Percentage identity: 57&lt;br&gt;Percentage coverage: 96&lt;br&gt;BLAST bit score: 195&lt;br&gt;E-value: 1.15e-65" locus_tag="CLOSPO_00569" class="clusterblast-orf" id="knownclusterblast-1_all_1_1_1"  />
</g>
<g id="a1_002"  >
<polygon points="357,85 362,80 377,80 377,90 362,90 357,85 " style="fill:#d81515; stroke-width:1; stroke:black; " description="&lt;b&gt;CLOSPO_00570&lt;/b&gt;&lt;br&gt;electron transport complex, RnfABCDGE type, E subunit&lt;br&gt;Location: 11480 - 12080&lt;br&gt;&lt;br&gt;&lt;b&gt;BlastP hit with ctg153_87&lt;/b&gt;&lt;br&gt;Percentage identity: 45&lt;br&gt;Percentage coverage: 87&lt;br&gt;BLAST bit score: 152&lt;br&gt;E-value: 2.09e-48" locus_tag="CLOSPO_00570" class="clusterblast-orf" id="knownclusterblast-1_all_1_1_2"  />
</g>
<g id="a1_003"  >
<polygon points="377,85 382,80 395,80 395,90 382,90 377,85 " style="fill:white; stroke-width:1; stroke:black; " description="&lt;b&gt;CLOSPO_00571&lt;/b&gt;&lt;br&gt;electron transport complex, RnfABCDGE type, G subunit&lt;br&gt;Location: 12079 - 12652" locus_tag="CLOSPO_00571" class="clusterblast-orf" id="knownclusterblast-1_all_1_1_3"  />
</g>
<g id="a1_004"  >
<polygon points="395,85 400,80 426,80 426,90 400,90 395,85 " style="fill:white; stroke-width:1; stroke:black; " description="&lt;b&gt;CLOSPO_00572&lt;/b&gt;&lt;br&gt;electron transport complex, RnfABCDGE type, D subunit&lt;br&gt;Location: 12651 - 13584" locus_tag="CLOSPO_00572" class="clusterblast-orf" id="knownclusterblast-1_all_1_1_4"  />
</g>
<g id="a1_005"  >
<polygon points="427,85 432,80 470,80 470,90 432,90 427,85 " style="fill:#15d815; stroke-width:1; stroke:black; " description="&lt;b&gt;CLOSPO_00573&lt;/b&gt;&lt;br&gt;electron transport complex, RnfABCDGE type, C subunit&lt;br&gt;Location: 13606 - 14950&lt;br&gt;&lt;br&gt;&lt;b&gt;BlastP hit with ctg153_90&lt;/b&gt;&lt;br&gt;Percentage identity: 42&lt;br&gt;Percentage coverage: 51&lt;br&gt;BLAST bit score: 261&lt;br&gt;E-value: 9.13e-82" locus_tag="CLOSPO_00573" class="clusterblast-orf" id="knownclusterblast-1_all_1_1_5"  />
</g>
</svg>
