<svg xmlns="http://www.w3.org/2000/svg" xmlns:xlink="http://www.w3.org/1999/xlink" version="1.1" x="0" y="0" height="230" width="800" viewBox="0 0 800 230" preserveAspectRatio="none"  >
<g label="Query sequence" class="clusterblast-cluster"  >
<text x="5" y="20" class="clusterblast-acc"  >
Query sequence</text>
<line x1="10" y1="35" x2="778.0" y2="35" style="stroke-width:1; stroke:grey; "  />
<polygon points="0,40 42,40 47,35 42,30 0,30 0,40 " style="fill:white; stroke-width:1; stroke:black; " description="&lt;b&gt;ctg146_13&lt;/b&gt;&lt;br&gt;ctg146 13&lt;br&gt;Location: 13923 - 15906" locus_tag="ctg146_13" class="clusterblast-orf" id="dummy-1_q0_0_all"  />
<polygon points="49,40 58,40 63,35 58,30 49,30 49,40 " style="fill:white; stroke-width:1; stroke:black; " description="&lt;b&gt;ctg146_14&lt;/b&gt;&lt;br&gt;ctg146 14&lt;br&gt;Location: 15964 - 16561" locus_tag="ctg146_14" class="clusterblast-orf" id="dummy-1_q1_0_all"  />
<polygon points="64,40 84,40 89,35 84,30 64,30 64,40 " style="fill:white; stroke-width:1; stroke:black; " description="&lt;b&gt;ctg146_15&lt;/b&gt;&lt;br&gt;ctg146 15&lt;br&gt;Location: 16624 - 17671" locus_tag="ctg146_15" class="clusterblast-orf" id="dummy-1_q2_0_all"  />
<polygon points="89,35 94,30 137,30 137,40 94,40 89,35 " style="fill:white; stroke-width:1; stroke:black; " description="&lt;b&gt;ctg146_16&lt;/b&gt;&lt;br&gt;ctg146 16&lt;br&gt;Location: 17660 - 19655" locus_tag="ctg146_16" class="clusterblast-orf" id="dummy-1_q3_0_all"  />
<polygon points="137,35 142,30 160,30 160,40 142,40 137,35 " style="fill:white; stroke-width:1; stroke:black; " description="&lt;b&gt;ctg146_17&lt;/b&gt;&lt;br&gt;ctg146 17&lt;br&gt;Location: 19671 - 20628" locus_tag="ctg146_17" class="clusterblast-orf" id="dummy-1_q4_0_all"  />
<polygon points="167,40 217,40 222,35 217,30 167,30 167,40 " style="fill:#d81515; stroke-width:1; stroke:black; " description="&lt;b&gt;ctg146_18&lt;/b&gt;&lt;br&gt;ctg146 18&lt;br&gt;Location: 20922 - 23202" locus_tag="ctg146_18" class="clusterblast-orf" id="dummy-1_q5_0_all"  />
<polygon points="230,40 233,40 238,35 233,30 230,30 230,40 " style="fill:#77d815; stroke-width:1; stroke:black; " description="&lt;b&gt;ctg146_19&lt;/b&gt;&lt;br&gt;ctg146 19&lt;br&gt;Location: 23532 - 23868" locus_tag="ctg146_19" class="clusterblast-orf" id="dummy-1_q6_0_all"  />
<polygon points="238,40 244,40 249,35 244,30 238,30 238,40 " style="fill:#15d8d8; stroke-width:1; stroke:black; " description="&lt;b&gt;ctg146_20&lt;/b&gt;&lt;br&gt;ctg146 20&lt;br&gt;Location: 23880 - 24360" locus_tag="ctg146_20" class="clusterblast-orf" id="dummy-1_q7_0_all"  />
<polygon points="249,40 260,40 265,35 260,30 249,30 249,40 " style="fill:#7715d8; stroke-width:1; stroke:black; " description="&lt;b&gt;ctg146_21&lt;/b&gt;&lt;br&gt;ctg146 21&lt;br&gt;Location: 24337 - 25027" locus_tag="ctg146_21" class="clusterblast-orf" id="dummy-1_q8_0_all"  />
<polygon points="265,40 280,40 285,35 280,30 265,30 265,40 " style="fill:#d85e15; stroke-width:1; stroke:black; " description="&lt;b&gt;ctg146_22&lt;/b&gt;&lt;br&gt;ctg146 22&lt;br&gt;Location: 25023 - 25830" locus_tag="ctg146_22" class="clusterblast-orf" id="dummy-1_q9_0_all"  />
<polygon points="284,40 304,40 309,35 304,30 284,30 284,40 " style="fill:#d81515; stroke-width:1; stroke:black; " description="&lt;b&gt;ctg146_23&lt;/b&gt;&lt;br&gt;ctg146 23&lt;br&gt;Location: 25819 - 26836" locus_tag="ctg146_23" class="clusterblast-orf" id="dummy-1_q10_0_all"  />
<polygon points="310,40 312,40 317,35 312,30 310,30 310,40 " style="fill:#2ed815; stroke-width:1; stroke:black; " description="&lt;b&gt;ctg146_24&lt;/b&gt;&lt;br&gt;ctg146 24&lt;br&gt;Location: 26874 - 27165" locus_tag="ctg146_24" class="clusterblast-orf" id="dummy-1_q11_0_all"  />
<polygon points="320,40 321,40 326,35 321,30 320,30 320,40 " style="fill:#158fd8; stroke-width:1; stroke:black; " description="&lt;b&gt;ctg146_25&lt;/b&gt;&lt;br&gt;ctg146 25&lt;br&gt;Location: 27293 - 27581" locus_tag="ctg146_25" class="clusterblast-orf" id="dummy-1_q12_0_all"  />
<polygon points="327,40 355,40 360,35 355,30 327,30 327,40 " style="fill:#c015d8; stroke-width:1; stroke:black; " description="&lt;b&gt;ctg146_26&lt;/b&gt;&lt;br&gt;ctg146 26&lt;br&gt;Location: 27592 - 28996" locus_tag="ctg146_26" class="clusterblast-orf" id="dummy-1_q13_0_all"  />
<polygon points="361,40 376,40 381,35 376,30 361,30 361,40 " style="fill:#d8a715; stroke-width:1; stroke:black; " description="&lt;b&gt;ctg146_27&lt;/b&gt;&lt;br&gt;ctg146 27&lt;br&gt;Location: 29005 - 29845" locus_tag="ctg146_27" class="clusterblast-orf" id="dummy-1_q14_0_all"  />
<polygon points="380,40 404,40 409,35 404,30 380,30 380,40 " style="fill:#15d846; stroke-width:1; stroke:black; " description="&lt;b&gt;ctg146_28&lt;/b&gt;&lt;br&gt;ctg146 28&lt;br&gt;Location: 29834 - 31022" locus_tag="ctg146_28" class="clusterblast-orf" id="dummy-1_q15_0_all"  />
<polygon points="414,40 438,40 443,35 438,30 414,30 414,40 " style="fill:#1546d8; stroke-width:1; stroke:black; " description="&lt;b&gt;ctg146_29&lt;/b&gt;&lt;br&gt;ctg146 29&lt;br&gt;Location: 31221 - 32454" locus_tag="ctg146_29" class="clusterblast-orf" id="dummy-1_q16_0_all"  />
<polygon points="443,40 472,40 477,35 472,30 443,30 443,40 " style="fill:#d815a7; stroke-width:1; stroke:black; " description="&lt;b&gt;ctg146_30&lt;/b&gt;&lt;br&gt;ctg146 30&lt;br&gt;Location: 32450 - 33854" locus_tag="ctg146_30" class="clusterblast-orf" id="dummy-1_q17_0_all"  />
<polygon points="477,40 504,40 509,35 504,30 477,30 477,40 " style="fill:#c0d815; stroke-width:1; stroke:black; " description="&lt;b&gt;ctg146_31&lt;/b&gt;&lt;br&gt;ctg146 31&lt;br&gt;Location: 33865 - 35227" locus_tag="ctg146_31" class="clusterblast-orf" id="dummy-1_q18_0_all"  />
<polygon points="510,40 530,40 535,35 530,30 510,30 510,40 " style="fill:#15d88f; stroke-width:1; stroke:black; " description="&lt;b&gt;ctg146_32&lt;/b&gt;&lt;br&gt;ctg146 32&lt;br&gt;Location: 35247 - 36294" locus_tag="ctg146_32" class="clusterblast-orf" id="dummy-1_q19_0_all"  />
<polygon points="535,40 546,40 551,35 546,30 535,30 535,40 " style="fill:#2e15d8; stroke-width:1; stroke:black; " description="&lt;b&gt;ctg146_33&lt;/b&gt;&lt;br&gt;ctg146 33&lt;br&gt;Location: 36303 - 36963" locus_tag="ctg146_33" class="clusterblast-orf" id="dummy-1_q20_0_all"  />
<polygon points="551,40 558,40 563,35 558,30 551,30 551,40 " style="fill:#2ed815; stroke-width:1; stroke:black; " description="&lt;b&gt;ctg146_34&lt;/b&gt;&lt;br&gt;ctg146 34&lt;br&gt;Location: 36974 - 37460" locus_tag="ctg146_34" class="clusterblast-orf" id="dummy-1_q21_0_all"  />
<polygon points="567,40 584,40 589,35 584,30 567,30 567,40 " style="fill:#d8155e; stroke-width:1; stroke:black; " description="&lt;b&gt;ctg146_35&lt;/b&gt;&lt;br&gt;ctg146 35&lt;br&gt;Location: 37622 - 38558" locus_tag="ctg146_35" class="clusterblast-orf" id="dummy-1_q22_0_all"  />
<polygon points="590,35 595,30 612,30 612,40 595,40 590,35 " style="fill:white; stroke-width:1; stroke:black; " description="&lt;b&gt;ctg146_36&lt;/b&gt;&lt;br&gt;ctg146 36&lt;br&gt;Location: 38601 - 39501" locus_tag="ctg146_36" class="clusterblast-orf" id="dummy-1_q23_0_all"  />
<polygon points="612,35 617,30 633,30 633,40 617,40 612,35 " style="fill:white; stroke-width:1; stroke:black; " description="&lt;b&gt;ctg146_37&lt;/b&gt;&lt;br&gt;ctg146 37&lt;br&gt;Location: 39500 - 40373" locus_tag="ctg146_37" class="clusterblast-orf" id="dummy-1_q24_0_all"  />
<polygon points="638,40 643,40 648,35 643,30 638,30 638,40 " style="fill:white; stroke-width:1; stroke:black; " description="&lt;b&gt;ctg146_38&lt;/b&gt;&lt;br&gt;ctg146 38&lt;br&gt;Location: 40584 - 41010" locus_tag="ctg146_38" class="clusterblast-orf" id="dummy-1_q25_0_all"  />
<polygon points="647,40 653,40 658,35 653,30 647,30 647,40 " style="fill:white; stroke-width:1; stroke:black; " description="&lt;b&gt;ctg146_39&lt;/b&gt;&lt;br&gt;ctg146 39&lt;br&gt;Location: 40996 - 41446" locus_tag="ctg146_39" class="clusterblast-orf" id="dummy-1_q26_0_all"  />
<polygon points="660,40 668,40 673,35 668,30 660,30 660,40 " style="fill:white; stroke-width:1; stroke:black; " description="&lt;b&gt;ctg146_40&lt;/b&gt;&lt;br&gt;ctg146 40&lt;br&gt;Location: 41507 - 42083" locus_tag="ctg146_40" class="clusterblast-orf" id="dummy-1_q27_0_all"  />
<polygon points="676,40 697,40 702,35 697,30 676,30 676,40 " style="fill:white; stroke-width:1; stroke:black; " description="&lt;b&gt;ctg146_41&lt;/b&gt;&lt;br&gt;ctg146 41&lt;br&gt;Location: 42177 - 43278" locus_tag="ctg146_41" class="clusterblast-orf" id="dummy-1_q28_0_all"  />
<polygon points="715,40 734,40 739,35 734,30 715,30 715,40 " style="fill:white; stroke-width:1; stroke:black; " description="&lt;b&gt;ctg146_42&lt;/b&gt;&lt;br&gt;ctg146 42&lt;br&gt;Location: 43801 - 44818" locus_tag="ctg146_42" class="clusterblast-orf" id="dummy-1_q29_0_all"  />
<polygon points="739,40 754,40 759,35 754,30 739,30 739,40 " style="fill:white; stroke-width:1; stroke:black; " description="&lt;b&gt;ctg146_43&lt;/b&gt;&lt;br&gt;ctg146 43&lt;br&gt;Location: 44817 - 45651" locus_tag="ctg146_43" class="clusterblast-orf" id="dummy-1_q30_0_all"  />
<polygon points="759,40 775,40 780,35 775,30 759,30 759,40 " style="fill:white; stroke-width:1; stroke:black; " description="&lt;b&gt;ctg146_44&lt;/b&gt;&lt;br&gt;ctg146 44&lt;br&gt;Location: 45650 - 46526" locus_tag="ctg146_44" class="clusterblast-orf" id="dummy-1_q31_0_all"  />
</g>
<g label="MGC0000001" description="MGC0000001_c1: Trimethylamine synthesis C. sporogenes (33% of genes show similarity), TMA" class="clusterblast-cluster"  >
<text x="5" y="70" class="clusterblast-acc"  >
MGC0000001_c1: Trimethylamine synthesis C. sporogenes (33% of genes show similarity), TMA</text>
<line x1="10" y1="85" x2="778.0" y2="85" style="stroke-width:1; stroke:grey; "  />
</g>
<g id="a1_000"  >
<polygon points="321,90 321,85 321,80 321,90 " style="fill:#2ed815; stroke-width:1; stroke:black; " description="&lt;b&gt;CLOSPO_RS07620&lt;/b&gt;&lt;br&gt;hypothetical protein&lt;br&gt;Location: 0 - 4&lt;br&gt;&lt;br&gt;&lt;b&gt;BlastP hit with ctg146_24&lt;/b&gt;&lt;br&gt;Percentage identity: 55&lt;br&gt;Percentage coverage: 90&lt;br&gt;BLAST bit score: 83&lt;br&gt;E-value: 3.68e-24&lt;br&gt;&lt;br&gt;&lt;b&gt;BlastP hit with ctg146_34&lt;/b&gt;&lt;br&gt;Percentage identity: 44&lt;br&gt;Percentage coverage: 54&lt;br&gt;BLAST bit score: 66&lt;br&gt;E-value: 1.23e-16" locus_tag="CLOSPO_RS07620" class="clusterblast-orf" id="dummy-1_h1_3_0"  />
</g>
<g id="a1_001"  >
<polygon points="322,90 353,90 358,85 353,80 322,80 322,90 " style="fill:white; stroke-width:1; stroke:black; " description="&lt;b&gt;CLOSPO_RS07625&lt;/b&gt;&lt;br&gt;acetaldehyde dehydrogenase&lt;br&gt;Location: 41 - 1523" locus_tag="CLOSPO_RS07625" class="clusterblast-orf" id="dummy-1_h1_3_1"  />
</g>
<g id="a1_002"  >
<polygon points="359,90 415,90 420,85 415,80 359,80 359,90 " style="fill:white; stroke-width:1; stroke:black; " description="&lt;b&gt;CLOSPO_RS07630&lt;/b&gt;&lt;br&gt;choline trimethylamine-lyase&lt;br&gt;Location: 1572 - 4113" locus_tag="CLOSPO_RS07630" class="clusterblast-orf" id="dummy-1_h1_3_2"  />
</g>
<g id="a1_003"  >
<polygon points="424,90 442,90 447,85 442,80 424,80 424,90 " style="fill:white; stroke-width:1; stroke:black; " description="&lt;b&gt;CLOSPO_RS07635&lt;/b&gt;&lt;br&gt;choline TMA-lyase-activating enzyme&lt;br&gt;Location: 4294 - 5248" locus_tag="CLOSPO_RS07635" class="clusterblast-orf" id="dummy-1_h1_3_3"  />
</g>
<g id="a1_004"  >
<polygon points="448,90 451,90 456,85 451,80 448,80 448,90 " style="fill:#77d815; stroke-width:1; stroke:black; " description="&lt;b&gt;CLOSPO_RS07640&lt;/b&gt;&lt;br&gt;propanediol utilization protein PduU&lt;br&gt;Location: 5287 - 5641&lt;br&gt;&lt;br&gt;&lt;b&gt;BlastP hit with ctg146_19&lt;/b&gt;&lt;br&gt;Percentage identity: 51&lt;br&gt;Percentage coverage: 97&lt;br&gt;BLAST bit score: 114&lt;br&gt;E-value: 3.52e-36" locus_tag="CLOSPO_RS07640" class="clusterblast-orf" id="dummy-1_h1_3_4"  />
</g>
<g id="a1_005"  >
<polygon points="456,90 458,85 456,80 456,90 " style="fill:white; stroke-width:1; stroke:black; " description="&lt;b&gt;CLOSPO_RS07645&lt;/b&gt;&lt;br&gt;hypothetical protein&lt;br&gt;Location: 5637 - 5704" locus_tag="CLOSPO_RS07645" class="clusterblast-orf" id="dummy-1_h1_3_5"  />
</g>
</svg>
