<svg xmlns="http://www.w3.org/2000/svg" xmlns:xlink="http://www.w3.org/1999/xlink" version="1.1" x="0" y="0" height="50" width="800" viewBox="0 0 800 50" preserveAspectRatio="none"  >
<g label="Query sequence" class="clusterblast-cluster"  >
<text x="5" y="20" class="clusterblast-acc"  >
Query sequence</text>
<line x1="10" y1="35" x2="778.0" y2="35" style="stroke-width:1; stroke:grey; "  />
<polygon points="0,35 5,30 72,30 72,40 5,40 0,35 " style="fill:white; stroke-width:1; stroke:black; " description="&lt;b&gt;ctg110_5&lt;/b&gt;&lt;br&gt;ctg110 5&lt;br&gt;Location: 3610 - 6262" locus_tag="ctg110_5" class="clusterblast-orf" id="knownclusterblast-1_q0_0_all"  />
<polygon points="73,35 78,30 92,30 92,40 78,40 73,35 " style="fill:white; stroke-width:1; stroke:black; " description="&lt;b&gt;ctg110_6&lt;/b&gt;&lt;br&gt;ctg110 6&lt;br&gt;Location: 6296 - 6995" locus_tag="ctg110_6" class="clusterblast-orf" id="knownclusterblast-1_q1_0_all"  />
<polygon points="94,35 99,30 106,30 106,40 99,40 94,35 " style="fill:white; stroke-width:1; stroke:black; " description="&lt;b&gt;ctg110_7&lt;/b&gt;&lt;br&gt;ctg110 7&lt;br&gt;Location: 7064 - 7490" locus_tag="ctg110_7" class="clusterblast-orf" id="knownclusterblast-1_q2_0_all"  />
<polygon points="111,40 136,40 141,35 136,30 111,30 111,40 " style="fill:white; stroke-width:1; stroke:black; " description="&lt;b&gt;ctg110_8&lt;/b&gt;&lt;br&gt;ctg110 8&lt;br&gt;Location: 7693 - 8779" locus_tag="ctg110_8" class="clusterblast-orf" id="knownclusterblast-1_q3_0_all"  />
<polygon points="142,35 147,30 161,30 161,40 147,40 142,35 " style="fill:white; stroke-width:1; stroke:black; " description="&lt;b&gt;ctg110_9&lt;/b&gt;&lt;br&gt;ctg110 9&lt;br&gt;Location: 8837 - 9527" locus_tag="ctg110_9" class="clusterblast-orf" id="knownclusterblast-1_q4_0_all"  />
<polygon points="170,40 175,40 180,35 175,30 170,30 170,40 " style="fill:white; stroke-width:1; stroke:black; " description="&lt;b&gt;ctg110_10&lt;/b&gt;&lt;br&gt;ctg110 10&lt;br&gt;Location: 9839 - 10223" locus_tag="ctg110_10" class="clusterblast-orf" id="knownclusterblast-1_q5_0_all"  />
<polygon points="180,35 185,30 220,30 220,40 185,40 180,35 " style="fill:white; stroke-width:1; stroke:black; " description="&lt;b&gt;ctg110_11&lt;/b&gt;&lt;br&gt;ctg110 11&lt;br&gt;Location: 10225 - 11689" locus_tag="ctg110_11" class="clusterblast-orf" id="knownclusterblast-1_q6_0_all"  />
<polygon points="224,40 239,40 244,35 239,30 224,30 224,40 " style="fill:white; stroke-width:1; stroke:black; " description="&lt;b&gt;ctg110_12&lt;/b&gt;&lt;br&gt;ctg110 12&lt;br&gt;Location: 11820 - 12558" locus_tag="ctg110_12" class="clusterblast-orf" id="knownclusterblast-1_q7_0_all"  />
<polygon points="243,35 248,30 287,30 287,40 248,40 243,35 " style="fill:white; stroke-width:1; stroke:black; " description="&lt;b&gt;ctg110_13&lt;/b&gt;&lt;br&gt;ctg110 13&lt;br&gt;Location: 12542 - 14162" locus_tag="ctg110_13" class="clusterblast-orf" id="knownclusterblast-1_q8_0_all"  />
<polygon points="299,40 310,40 315,35 310,30 299,30 299,40 " style="fill:white; stroke-width:1; stroke:black; " description="&lt;b&gt;ctg110_14&lt;/b&gt;&lt;br&gt;ctg110 14&lt;br&gt;Location: 14582 - 15158" locus_tag="ctg110_14" class="clusterblast-orf" id="knownclusterblast-1_q9_0_all"  />
<polygon points="315,40 328,40 333,35 328,30 315,30 315,40 " style="fill:white; stroke-width:1; stroke:black; " description="&lt;b&gt;ctg110_15&lt;/b&gt;&lt;br&gt;ctg110 15&lt;br&gt;Location: 15190 - 15841" locus_tag="ctg110_15" class="clusterblast-orf" id="knownclusterblast-1_q10_0_all"  />
<polygon points="333,40 354,40 359,35 354,30 333,30 333,40 " style="fill:white; stroke-width:1; stroke:black; " description="&lt;b&gt;ctg110_16&lt;/b&gt;&lt;br&gt;ctg110 16&lt;br&gt;Location: 15840 - 16797" locus_tag="ctg110_16" class="clusterblast-orf" id="knownclusterblast-1_q11_0_all"  />
<polygon points="359,40 367,40 372,35 367,30 359,30 359,40 " style="fill:white; stroke-width:1; stroke:black; " description="&lt;b&gt;ctg110_17&lt;/b&gt;&lt;br&gt;ctg110 17&lt;br&gt;Location: 16793 - 17273" locus_tag="ctg110_17" class="clusterblast-orf" id="knownclusterblast-1_q12_0_all"  />
<polygon points="373,35 377,30 377,40 373,35 " style="fill:white; stroke-width:1; stroke:black; " description="&lt;b&gt;ctg110_18&lt;/b&gt;&lt;br&gt;ctg110 18&lt;br&gt;Location: 17291 - 17444" locus_tag="ctg110_18" class="clusterblast-orf" id="knownclusterblast-1_q13_0_all"  />
<polygon points="377,40 421,40 426,35 421,30 377,30 377,40 " style="fill:white; stroke-width:1; stroke:black; " description="&lt;b&gt;ctg110_19&lt;/b&gt;&lt;br&gt;ctg110 19&lt;br&gt;Location: 17458 - 19258" locus_tag="ctg110_19" class="clusterblast-orf" id="knownclusterblast-1_q14_0_all"  />
<polygon points="427,40 448,40 453,35 448,30 427,30 427,40 " style="fill:white; stroke-width:1; stroke:black; " description="&lt;b&gt;ctg110_20&lt;/b&gt;&lt;br&gt;ctg110 20&lt;br&gt;Location: 19273 - 20248" locus_tag="ctg110_20" class="clusterblast-orf" id="knownclusterblast-1_q15_0_all"  />
<polygon points="460,40 474,40 479,35 474,30 460,30 460,40 " style="fill:white; stroke-width:1; stroke:black; " description="&lt;b&gt;ctg110_21&lt;/b&gt;&lt;br&gt;ctg110 21&lt;br&gt;Location: 20497 - 21178" locus_tag="ctg110_21" class="clusterblast-orf" id="knownclusterblast-1_q16_0_all"  />
<polygon points="479,40 498,40 503,35 498,30 479,30 479,40 " style="fill:white; stroke-width:1; stroke:black; " description="&lt;b&gt;ctg110_22&lt;/b&gt;&lt;br&gt;ctg110 22&lt;br&gt;Location: 21174 - 22080" locus_tag="ctg110_22" class="clusterblast-orf" id="knownclusterblast-1_q17_0_all"  />
<polygon points="504,40 519,40 524,35 519,30 504,30 504,40 " style="fill:white; stroke-width:1; stroke:black; " description="&lt;b&gt;ctg110_23&lt;/b&gt;&lt;br&gt;ctg110 23&lt;br&gt;Location: 22091 - 22829" locus_tag="ctg110_23" class="clusterblast-orf" id="knownclusterblast-1_q18_0_all"  />
<polygon points="524,40 539,40 544,35 539,30 524,30 524,40 " style="fill:white; stroke-width:1; stroke:black; " description="&lt;b&gt;ctg110_24&lt;/b&gt;&lt;br&gt;ctg110 24&lt;br&gt;Location: 22840 - 23572" locus_tag="ctg110_24" class="clusterblast-orf" id="knownclusterblast-1_q19_0_all"  />
<polygon points="544,40 549,40 554,35 549,30 544,30 544,40 " style="fill:white; stroke-width:1; stroke:black; " description="&lt;b&gt;ctg110_25&lt;/b&gt;&lt;br&gt;ctg110 25&lt;br&gt;Location: 23571 - 23952" locus_tag="ctg110_25" class="clusterblast-orf" id="knownclusterblast-1_q20_0_all"  />
<polygon points="555,35 560,30 562,30 562,40 560,40 555,35 " style="fill:white; stroke-width:1; stroke:black; " description="&lt;b&gt;ctg110_26&lt;/b&gt;&lt;br&gt;ctg110 26&lt;br&gt;Location: 23964 - 24225" locus_tag="ctg110_26" class="clusterblast-orf" id="knownclusterblast-1_q21_0_all"  />
<polygon points="563,35 568,30 586,30 586,40 568,40 563,35 " style="fill:white; stroke-width:1; stroke:black; " description="&lt;b&gt;ctg110_27&lt;/b&gt;&lt;br&gt;ctg110 27&lt;br&gt;Location: 24281 - 25130" locus_tag="ctg110_27" class="clusterblast-orf" id="knownclusterblast-1_q22_0_all"  />
<polygon points="592,40 604,40 609,35 604,30 592,30 592,40 " style="fill:white; stroke-width:1; stroke:black; " description="&lt;b&gt;ctg110_28&lt;/b&gt;&lt;br&gt;ctg110 28&lt;br&gt;Location: 25343 - 25979" locus_tag="ctg110_28" class="clusterblast-orf" id="knownclusterblast-1_q23_0_all"  />
<polygon points="611,40 620,40 625,35 620,30 611,30 611,40 " style="fill:white; stroke-width:1; stroke:black; " description="&lt;b&gt;ctg110_29&lt;/b&gt;&lt;br&gt;ctg110 29&lt;br&gt;Location: 26041 - 26551" locus_tag="ctg110_29" class="clusterblast-orf" id="knownclusterblast-1_q24_0_all"  />
<polygon points="625,35 630,30 669,30 669,40 630,40 625,35 " style="fill:white; stroke-width:1; stroke:black; " description="&lt;b&gt;ctg110_30&lt;/b&gt;&lt;br&gt;ctg110 30&lt;br&gt;Location: 26547 - 28164" locus_tag="ctg110_30" class="clusterblast-orf" id="knownclusterblast-1_q25_0_all"  />
<polygon points="674,40 775,40 780,35 775,30 674,30 674,40 " style="fill:white; stroke-width:1; stroke:black; " description="&lt;b&gt;ctg110_31&lt;/b&gt;&lt;br&gt;ctg110 31&lt;br&gt;Location: 28339 - 32227" locus_tag="ctg110_31" class="clusterblast-orf" id="knownclusterblast-1_q26_0_all"  />
</g>
</svg>
