<svg xmlns="http://www.w3.org/2000/svg" xmlns:xlink="http://www.w3.org/1999/xlink" version="1.1" x="0" y="0" height="100" width="800" viewBox="0 0 800 100" preserveAspectRatio="none"  >
<g label="Query sequence" class="clusterblast-cluster"  >
<text x="5" y="20" class="clusterblast-acc"  >
Query sequence</text>
<line x1="10" y1="35" x2="778.0" y2="35" style="stroke-width:1; stroke:grey; "  />
<polygon points="0,35 5,30 23,30 23,40 5,40 0,35 " style="fill:white; stroke-width:1; stroke:black; " description="&lt;b&gt;ctg81_1&lt;/b&gt;&lt;br&gt;ctg81 1&lt;br&gt;Location: 24 - 549" locus_tag="ctg81_1" class="clusterblast-orf" id="knownclusterblast-1_q0_0_all"  />
<polygon points="43,40 67,40 72,35 67,30 43,30 43,40 " style="fill:white; stroke-width:1; stroke:black; " description="&lt;b&gt;ctg81_2&lt;/b&gt;&lt;br&gt;ctg81 2&lt;br&gt;Location: 999 - 1674" locus_tag="ctg81_2" class="clusterblast-orf" id="knownclusterblast-1_q1_0_all"  />
<polygon points="78,35 83,30 123,30 123,40 83,40 78,35 " style="fill:white; stroke-width:1; stroke:black; " description="&lt;b&gt;ctg81_3&lt;/b&gt;&lt;br&gt;ctg81 3&lt;br&gt;Location: 1795 - 2824" locus_tag="ctg81_3" class="clusterblast-orf" id="knownclusterblast-1_q2_0_all"  />
<polygon points="124,40 144,40 149,35 144,30 124,30 124,40 " style="fill:white; stroke-width:1; stroke:black; " description="&lt;b&gt;ctg81_4&lt;/b&gt;&lt;br&gt;ctg81 4&lt;br&gt;Location: 2865 - 3432" locus_tag="ctg81_4" class="clusterblast-orf" id="knownclusterblast-1_q3_0_all"  />
<polygon points="178,40 187,40 192,35 187,30 178,30 178,40 " style="fill:white; stroke-width:1; stroke:black; " description="&lt;b&gt;ctg81_5&lt;/b&gt;&lt;br&gt;ctg81 5&lt;br&gt;Location: 4086 - 4404" locus_tag="ctg81_5" class="clusterblast-orf" id="knownclusterblast-1_q4_0_all"  />
<polygon points="192,35 197,30 215,30 215,40 197,40 192,35 " style="fill:white; stroke-width:1; stroke:black; " description="&lt;b&gt;ctg81_6&lt;/b&gt;&lt;br&gt;ctg81 6&lt;br&gt;Location: 4400 - 4934" locus_tag="ctg81_6" class="clusterblast-orf" id="knownclusterblast-1_q5_0_all"  />
<polygon points="226,35 231,30 242,30 242,40 231,40 226,35 " style="fill:white; stroke-width:1; stroke:black; " description="&lt;b&gt;ctg81_7&lt;/b&gt;&lt;br&gt;ctg81 7&lt;br&gt;Location: 5181 - 5541" locus_tag="ctg81_7" class="clusterblast-orf" id="knownclusterblast-1_q6_0_all"  />
<polygon points="242,35 247,30 259,30 259,40 247,40 242,35 " style="fill:white; stroke-width:1; stroke:black; " description="&lt;b&gt;ctg81_8&lt;/b&gt;&lt;br&gt;ctg81 8&lt;br&gt;Location: 5551 - 5947" locus_tag="ctg81_8" class="clusterblast-orf" id="knownclusterblast-1_q7_0_all"  />
<polygon points="260,35 265,30 292,30 292,40 265,40 260,35 " style="fill:#d81515; stroke-width:1; stroke:black; " description="&lt;b&gt;ctg81_9&lt;/b&gt;&lt;br&gt;ctg81 9&lt;br&gt;Location: 5957 - 6692" locus_tag="ctg81_9" class="clusterblast-orf" id="knownclusterblast-1_q8_0_all"  />
<polygon points="292,35 297,30 370,30 370,40 297,40 292,35 " style="fill:#15d8d8; stroke-width:1; stroke:black; " description="&lt;b&gt;ctg81_10&lt;/b&gt;&lt;br&gt;ctg81 10&lt;br&gt;Location: 6684 - 8475" locus_tag="ctg81_10" class="clusterblast-orf" id="knownclusterblast-1_q9_0_all"  />
<polygon points="382,40 420,40 425,35 420,30 382,30 382,40 " style="fill:white; stroke-width:1; stroke:black; " description="&lt;b&gt;ctg81_11&lt;/b&gt;&lt;br&gt;ctg81 11&lt;br&gt;Location: 8750 - 9728" locus_tag="ctg81_11" class="clusterblast-orf" id="knownclusterblast-1_q10_0_all"  />
<polygon points="437,40 498,40 503,35 498,30 437,30 437,40 " style="fill:white; stroke-width:1; stroke:black; " description="&lt;b&gt;ctg81_12&lt;/b&gt;&lt;br&gt;ctg81 12&lt;br&gt;Location: 10003 - 11506" locus_tag="ctg81_12" class="clusterblast-orf" id="knownclusterblast-1_q11_0_all"  />
<polygon points="505,35 510,30 651,30 651,40 510,40 505,35 " style="fill:white; stroke-width:1; stroke:black; " description="&lt;b&gt;ctg81_13&lt;/b&gt;&lt;br&gt;ctg81 13&lt;br&gt;Location: 11543 - 14873" locus_tag="ctg81_13" class="clusterblast-orf" id="knownclusterblast-1_q12_0_all"  />
<polygon points="652,35 657,30 694,30 694,40 657,40 652,35 " style="fill:white; stroke-width:1; stroke:black; " description="&lt;b&gt;ctg81_14&lt;/b&gt;&lt;br&gt;ctg81 14&lt;br&gt;Location: 14896 - 15859" locus_tag="ctg81_14" class="clusterblast-orf" id="knownclusterblast-1_q13_0_all"  />
<polygon points="705,35 710,30 752,30 752,40 710,40 705,35 " style="fill:white; stroke-width:1; stroke:black; " description="&lt;b&gt;ctg81_15&lt;/b&gt;&lt;br&gt;ctg81 15&lt;br&gt;Location: 16125 - 17187" locus_tag="ctg81_15" class="clusterblast-orf" id="knownclusterblast-1_q14_0_all"  />
<polygon points="756,40 775,40 780,35 775,30 756,30 756,40 " style="fill:white; stroke-width:1; stroke:black; " description="&lt;b&gt;ctg81_16&lt;/b&gt;&lt;br&gt;ctg81 16&lt;br&gt;Location: 17281 - 17827" locus_tag="ctg81_16" class="clusterblast-orf" id="knownclusterblast-1_q15_0_all"  />
</g>
<g label="MGC00000057" description="MGC00000057_c1: Fumarate2succinate fum red E. coli (100% of genes show similarity), SUC" class="clusterblast-cluster"  >
<text x="5" y="70" class="clusterblast-acc"  >
MGC00000057_c1: Fumarate2succinate fum red E. coli (100% of genes show similarity), SUC</text>
<line x1="10" y1="85" x2="778.0" y2="85" style="stroke-width:1; stroke:grey; "  />
</g>
<g id="a1_000"  >
<polygon points="334,85 339,80 366,80 366,90 339,90 334,85 " style="fill:#d81515; stroke-width:1; stroke:black; " description="&lt;b&gt;HMPREF9550_01585&lt;/b&gt;&lt;br&gt;fumarate reductase iron-sulfur subunit&lt;br&gt;Location: 10000 - 10735&lt;br&gt;&lt;br&gt;&lt;b&gt;BlastP hit with ctg81_9&lt;/b&gt;&lt;br&gt;Percentage identity: 95&lt;br&gt;Percentage coverage: 100&lt;br&gt;BLAST bit score: 488&lt;br&gt;E-value: 9.11e-180" locus_tag="HMPREF9550_01585" class="clusterblast-orf" id="knownclusterblast-1_all_1_1_0"  />
</g>
<g id="a1_001"  >
<polygon points="366,85 371,80 445,80 445,90 371,90 366,85 " style="fill:#15d8d8; stroke-width:1; stroke:black; " description="&lt;b&gt;HMPREF9550_01586&lt;/b&gt;&lt;br&gt;fumarate reductase, flavoprotein subunit&lt;br&gt;Location: 10727 - 12536&lt;br&gt;&lt;br&gt;&lt;b&gt;BlastP hit with ctg81_10&lt;/b&gt;&lt;br&gt;Percentage identity: 94&lt;br&gt;Percentage coverage: 100&lt;br&gt;BLAST bit score: 1140&lt;br&gt;E-value: 0.0" locus_tag="HMPREF9550_01586" class="clusterblast-orf" id="knownclusterblast-1_all_1_1_1"  />
</g>
</svg>
