<svg xmlns="http://www.w3.org/2000/svg" xmlns:xlink="http://www.w3.org/1999/xlink" version="1.1" x="0" y="0" height="230" width="800" viewBox="0 0 800 230" preserveAspectRatio="none"  >
<g label="Query sequence" class="clusterblast-cluster"  >
<text x="5" y="20" class="clusterblast-acc"  >
Query sequence</text>
<line x1="10" y1="35" x2="778.0" y2="35" style="stroke-width:1; stroke:grey; "  />
<polygon points="0,40 2,35 0,30 0,40 " style="fill:white; stroke-width:1; stroke:black; " description="&lt;b&gt;ctg147_1&lt;/b&gt;&lt;br&gt;ctg147 1&lt;br&gt;Location: 2 - 137" locus_tag="ctg147_1" class="clusterblast-orf" id="dummy-1_q0_0_all"  />
<polygon points="8,40 10,40 15,35 10,30 8,30 8,40 " style="fill:white; stroke-width:1; stroke:black; " description="&lt;b&gt;ctg147_2&lt;/b&gt;&lt;br&gt;ctg147 2&lt;br&gt;Location: 426 - 777" locus_tag="ctg147_2" class="clusterblast-orf" id="dummy-1_q1_0_all"  />
<polygon points="16,35 21,30 37,30 37,40 21,40 16,35 " style="fill:white; stroke-width:1; stroke:black; " description="&lt;b&gt;ctg147_3&lt;/b&gt;&lt;br&gt;ctg147 3&lt;br&gt;Location: 817 - 1942" locus_tag="ctg147_3" class="clusterblast-orf" id="dummy-1_q2_0_all"  />
<polygon points="37,35 42,30 91,30 91,40 42,40 37,35 " style="fill:white; stroke-width:1; stroke:black; " description="&lt;b&gt;ctg147_4&lt;/b&gt;&lt;br&gt;ctg147 4&lt;br&gt;Location: 1941 - 4686" locus_tag="ctg147_4" class="clusterblast-orf" id="dummy-1_q3_0_all"  />
<polygon points="90,35 95,30 114,30 114,40 95,40 90,35 " style="fill:white; stroke-width:1; stroke:black; " description="&lt;b&gt;ctg147_5&lt;/b&gt;&lt;br&gt;ctg147 5&lt;br&gt;Location: 4682 - 5897" locus_tag="ctg147_5" class="clusterblast-orf" id="dummy-1_q4_0_all"  />
<polygon points="120,35 125,30 140,30 140,40 125,40 120,35 " style="fill:white; stroke-width:1; stroke:black; " description="&lt;b&gt;ctg147_6&lt;/b&gt;&lt;br&gt;ctg147 6&lt;br&gt;Location: 6203 - 7211" locus_tag="ctg147_6" class="clusterblast-orf" id="dummy-1_q5_0_all"  />
<polygon points="143,35 148,30 150,30 150,40 148,40 143,35 " style="fill:white; stroke-width:1; stroke:black; " description="&lt;b&gt;ctg147_7&lt;/b&gt;&lt;br&gt;ctg147 7&lt;br&gt;Location: 7411 - 7741" locus_tag="ctg147_7" class="clusterblast-orf" id="dummy-1_q6_0_all"  />
<polygon points="150,35 155,30 158,30 158,40 155,40 150,35 " style="fill:white; stroke-width:1; stroke:black; " description="&lt;b&gt;ctg147_8&lt;/b&gt;&lt;br&gt;ctg147 8&lt;br&gt;Location: 7758 - 8172" locus_tag="ctg147_8" class="clusterblast-orf" id="dummy-1_q7_0_all"  />
<polygon points="159,35 164,30 172,30 172,40 164,40 159,35 " style="fill:white; stroke-width:1; stroke:black; " description="&lt;b&gt;ctg147_9&lt;/b&gt;&lt;br&gt;ctg147 9&lt;br&gt;Location: 8203 - 8872" locus_tag="ctg147_9" class="clusterblast-orf" id="dummy-1_q8_0_all"  />
<polygon points="172,35 177,30 184,30 184,40 177,40 172,35 " style="fill:#d81515; stroke-width:1; stroke:black; " description="&lt;b&gt;ctg147_10&lt;/b&gt;&lt;br&gt;ctg147 10&lt;br&gt;Location: 8884 - 9505" locus_tag="ctg147_10" class="clusterblast-orf" id="dummy-1_q9_0_all"  />
<polygon points="184,35 189,30 192,30 192,40 189,40 184,35 " style="fill:#15d815; stroke-width:1; stroke:black; " description="&lt;b&gt;ctg147_11&lt;/b&gt;&lt;br&gt;ctg147 11&lt;br&gt;Location: 9501 - 9900" locus_tag="ctg147_11" class="clusterblast-orf" id="dummy-1_q10_0_all"  />
<polygon points="192,35 197,30 214,30 214,40 197,40 192,35 " style="fill:#1515d8; stroke-width:1; stroke:black; " description="&lt;b&gt;ctg147_12&lt;/b&gt;&lt;br&gt;ctg147 12&lt;br&gt;Location: 9912 - 11034" locus_tag="ctg147_12" class="clusterblast-orf" id="dummy-1_q11_0_all"  />
<polygon points="214,35 219,30 280,30 280,40 219,40 214,35 " style="fill:#d815d8; stroke-width:1; stroke:black; " description="&lt;b&gt;ctg147_13&lt;/b&gt;&lt;br&gt;ctg147 13&lt;br&gt;Location: 11064 - 14451" locus_tag="ctg147_13" class="clusterblast-orf" id="dummy-1_q12_0_all"  />
<polygon points="283,35 288,30 305,30 305,40 288,40 283,35 " style="fill:#d8d815; stroke-width:1; stroke:black; " description="&lt;b&gt;ctg147_14&lt;/b&gt;&lt;br&gt;ctg147 14&lt;br&gt;Location: 14582 - 15764" locus_tag="ctg147_14" class="clusterblast-orf" id="dummy-1_q13_0_all"  />
<polygon points="306,35 311,30 311,30 311,40 311,40 306,35 " style="fill:white; stroke-width:1; stroke:black; " description="&lt;b&gt;ctg147_15&lt;/b&gt;&lt;br&gt;ctg147 15&lt;br&gt;Location: 15772 - 16039" locus_tag="ctg147_15" class="clusterblast-orf" id="dummy-1_q14_0_all"  />
<polygon points="311,35 316,30 342,30 342,40 316,40 311,35 " style="fill:#15d8d8; stroke-width:1; stroke:black; " description="&lt;b&gt;ctg147_16&lt;/b&gt;&lt;br&gt;ctg147 16&lt;br&gt;Location: 16064 - 17666" locus_tag="ctg147_16" class="clusterblast-orf" id="dummy-1_q15_0_all"  />
<polygon points="343,35 348,30 349,30 349,40 348,40 343,35 " style="fill:#15d815; stroke-width:1; stroke:black; " description="&lt;b&gt;ctg147_17&lt;/b&gt;&lt;br&gt;ctg147 17&lt;br&gt;Location: 17719 - 17998" locus_tag="ctg147_17" class="clusterblast-orf" id="dummy-1_q16_0_all"  />
<polygon points="349,35 354,30 355,30 355,40 354,40 349,35 " style="fill:#15d815; stroke-width:1; stroke:black; " description="&lt;b&gt;ctg147_18&lt;/b&gt;&lt;br&gt;ctg147 18&lt;br&gt;Location: 18010 - 18295" locus_tag="ctg147_18" class="clusterblast-orf" id="dummy-1_q17_0_all"  />
<polygon points="356,35 361,30 361,30 361,40 361,40 356,35 " style="fill:#15d815; stroke-width:1; stroke:black; " description="&lt;b&gt;ctg147_19&lt;/b&gt;&lt;br&gt;ctg147 19&lt;br&gt;Location: 18377 - 18626" locus_tag="ctg147_19" class="clusterblast-orf" id="dummy-1_q18_0_all"  />
<polygon points="370,35 375,30 380,30 380,40 375,40 370,35 " style="fill:white; stroke-width:1; stroke:black; " description="&lt;b&gt;ctg147_20&lt;/b&gt;&lt;br&gt;ctg147 20&lt;br&gt;Location: 19072 - 19591" locus_tag="ctg147_20" class="clusterblast-orf" id="dummy-1_q19_0_all"  />
<polygon points="380,35 385,30 395,30 395,40 385,40 380,35 " style="fill:white; stroke-width:1; stroke:black; " description="&lt;b&gt;ctg147_21&lt;/b&gt;&lt;br&gt;ctg147 21&lt;br&gt;Location: 19587 - 20391" locus_tag="ctg147_21" class="clusterblast-orf" id="dummy-1_q20_0_all"  />
<polygon points="396,35 401,30 407,30 407,40 401,40 396,35 " style="fill:white; stroke-width:1; stroke:black; " description="&lt;b&gt;ctg147_22&lt;/b&gt;&lt;br&gt;ctg147 22&lt;br&gt;Location: 20412 - 20997" locus_tag="ctg147_22" class="clusterblast-orf" id="dummy-1_q21_0_all"  />
<polygon points="410,35 415,30 425,30 425,40 415,40 410,35 " style="fill:white; stroke-width:1; stroke:black; " description="&lt;b&gt;ctg147_23&lt;/b&gt;&lt;br&gt;ctg147 23&lt;br&gt;Location: 21138 - 21921" locus_tag="ctg147_23" class="clusterblast-orf" id="dummy-1_q22_0_all"  />
<polygon points="427,40 441,40 446,35 441,30 427,30 427,40 " style="fill:white; stroke-width:1; stroke:black; " description="&lt;b&gt;ctg147_24&lt;/b&gt;&lt;br&gt;ctg147 24&lt;br&gt;Location: 22007 - 23000" locus_tag="ctg147_24" class="clusterblast-orf" id="dummy-1_q23_0_all"  />
<polygon points="446,40 449,40 454,35 449,30 446,30 446,40 " style="fill:white; stroke-width:1; stroke:black; " description="&lt;b&gt;ctg147_25&lt;/b&gt;&lt;br&gt;ctg147 25&lt;br&gt;Location: 22993 - 23413" locus_tag="ctg147_25" class="clusterblast-orf" id="dummy-1_q24_0_all"  />
<polygon points="455,35 460,30 483,30 483,40 460,40 455,35 " style="fill:white; stroke-width:1; stroke:black; " description="&lt;b&gt;ctg147_26&lt;/b&gt;&lt;br&gt;ctg147 26&lt;br&gt;Location: 23484 - 24897" locus_tag="ctg147_26" class="clusterblast-orf" id="dummy-1_q25_0_all"  />
<polygon points="486,40 489,35 486,30 486,40 " style="fill:white; stroke-width:1; stroke:black; " description="&lt;b&gt;ctg147_27&lt;/b&gt;&lt;br&gt;ctg147 27&lt;br&gt;Location: 25074 - 25239" locus_tag="ctg147_27" class="clusterblast-orf" id="dummy-1_q26_0_all"  />
<polygon points="492,40 497,40 502,35 497,30 492,30 492,40 " style="fill:white; stroke-width:1; stroke:black; " description="&lt;b&gt;ctg147_28&lt;/b&gt;&lt;br&gt;ctg147 28&lt;br&gt;Location: 25403 - 25868" locus_tag="ctg147_28" class="clusterblast-orf" id="dummy-1_q27_0_all"  />
<polygon points="502,40 517,40 522,35 517,30 502,30 502,40 " style="fill:white; stroke-width:1; stroke:black; " description="&lt;b&gt;ctg147_29&lt;/b&gt;&lt;br&gt;ctg147 29&lt;br&gt;Location: 25874 - 26942" locus_tag="ctg147_29" class="clusterblast-orf" id="dummy-1_q28_0_all"  />
<polygon points="522,40 538,40 543,35 538,30 522,30 522,40 " style="fill:white; stroke-width:1; stroke:black; " description="&lt;b&gt;ctg147_30&lt;/b&gt;&lt;br&gt;ctg147 30&lt;br&gt;Location: 26931 - 27996" locus_tag="ctg147_30" class="clusterblast-orf" id="dummy-1_q29_0_all"  />
<polygon points="543,35 548,30 548,30 548,40 548,40 543,35 " style="fill:white; stroke-width:1; stroke:black; " description="&lt;b&gt;ctg147_31&lt;/b&gt;&lt;br&gt;ctg147 31&lt;br&gt;Location: 27992 - 28247" locus_tag="ctg147_31" class="clusterblast-orf" id="dummy-1_q30_0_all"  />
<polygon points="548,35 553,30 561,30 561,40 553,40 548,35 " style="fill:white; stroke-width:1; stroke:black; " description="&lt;b&gt;ctg147_32&lt;/b&gt;&lt;br&gt;ctg147 32&lt;br&gt;Location: 28243 - 28939" locus_tag="ctg147_32" class="clusterblast-orf" id="dummy-1_q31_0_all"  />
<polygon points="564,35 569,30 587,30 587,40 569,40 564,35 " style="fill:white; stroke-width:1; stroke:black; " description="&lt;b&gt;ctg147_33&lt;/b&gt;&lt;br&gt;ctg147 33&lt;br&gt;Location: 29112 - 30264" locus_tag="ctg147_33" class="clusterblast-orf" id="dummy-1_q32_0_all"  />
<polygon points="589,35 593,30 593,40 589,35 " style="fill:white; stroke-width:1; stroke:black; " description="&lt;b&gt;ctg147_34&lt;/b&gt;&lt;br&gt;ctg147 34&lt;br&gt;Location: 30361 - 30601" locus_tag="ctg147_34" class="clusterblast-orf" id="dummy-1_q33_0_all"  />
<polygon points="594,35 599,30 618,30 618,40 599,40 594,35 " style="fill:white; stroke-width:1; stroke:black; " description="&lt;b&gt;ctg147_35&lt;/b&gt;&lt;br&gt;ctg147 35&lt;br&gt;Location: 30626 - 31868" locus_tag="ctg147_35" class="clusterblast-orf" id="dummy-1_q34_0_all"  />
<polygon points="619,35 624,30 644,30 644,40 624,40 619,35 " style="fill:white; stroke-width:1; stroke:black; " description="&lt;b&gt;ctg147_36&lt;/b&gt;&lt;br&gt;ctg147 36&lt;br&gt;Location: 31921 - 33214" locus_tag="ctg147_36" class="clusterblast-orf" id="dummy-1_q35_0_all"  />
<polygon points="644,35 649,30 657,30 657,40 649,40 644,35 " style="fill:white; stroke-width:1; stroke:black; " description="&lt;b&gt;ctg147_37&lt;/b&gt;&lt;br&gt;ctg147 37&lt;br&gt;Location: 33206 - 33869" locus_tag="ctg147_37" class="clusterblast-orf" id="dummy-1_q36_0_all"  />
<polygon points="658,35 663,30 673,30 673,40 663,40 658,35 " style="fill:white; stroke-width:1; stroke:black; " description="&lt;b&gt;ctg147_38&lt;/b&gt;&lt;br&gt;ctg147 38&lt;br&gt;Location: 33916 - 34732" locus_tag="ctg147_38" class="clusterblast-orf" id="dummy-1_q37_0_all"  />
<polygon points="678,40 691,40 696,35 691,30 678,30 678,40 " style="fill:white; stroke-width:1; stroke:black; " description="&lt;b&gt;ctg147_39&lt;/b&gt;&lt;br&gt;ctg147 39&lt;br&gt;Location: 34947 - 35874" locus_tag="ctg147_39" class="clusterblast-orf" id="dummy-1_q38_0_all"  />
<polygon points="699,35 704,30 736,30 736,40 704,40 699,35 " style="fill:white; stroke-width:1; stroke:black; " description="&lt;b&gt;ctg147_40&lt;/b&gt;&lt;br&gt;ctg147 40&lt;br&gt;Location: 36054 - 37962" locus_tag="ctg147_40" class="clusterblast-orf" id="dummy-1_q39_0_all"  />
<polygon points="736,35 741,30 761,30 761,40 741,40 736,35 " style="fill:white; stroke-width:1; stroke:black; " description="&lt;b&gt;ctg147_41&lt;/b&gt;&lt;br&gt;ctg147 41&lt;br&gt;Location: 37974 - 39219" locus_tag="ctg147_41" class="clusterblast-orf" id="dummy-1_q40_0_all"  />
<polygon points="761,35 766,30 780,30 780,40 766,40 761,35 " style="fill:white; stroke-width:1; stroke:black; " description="&lt;b&gt;ctg147_42&lt;/b&gt;&lt;br&gt;ctg147 42&lt;br&gt;Location: 39220 - 40207" locus_tag="ctg147_42" class="clusterblast-orf" id="dummy-1_q41_0_all"  />
</g>
<g label="MGC0000003" description="MGC0000003_c1: Ethanolamine degradation S. typhimurium (15% of genes show similarity), EUT" class="clusterblast-cluster"  >
<text x="5" y="70" class="clusterblast-acc"  >
MGC0000003_c1: Ethanolamine degradation S. typhimurium (15% of genes show similarity), EUT</text>
<line x1="10" y1="85" x2="778.0" y2="85" style="stroke-width:1; stroke:grey; "  />
</g>
<g id="a1_000"  >
<polygon points="213,85 218,80 233,80 233,90 218,90 213,85 " style="fill:white; stroke-width:1; stroke:black; " description="&lt;b&gt;STM2454&lt;/b&gt;&lt;br&gt;HTH-type transcriptional regulator EutR&lt;br&gt;Location: 102 - 1155" locus_tag="STM2454" class="clusterblast-orf" id="dummy-1_h1_3_0"  />
</g>
<g id="a1_001"  >
<polygon points="234,85 239,80 244,80 244,90 239,90 234,85 " style="fill:#15d815; stroke-width:1; stroke:black; " description="&lt;b&gt;STM2455&lt;/b&gt;&lt;br&gt;carboxysome structural protein EutK&lt;br&gt;Location: 1202 - 1697&lt;br&gt;&lt;br&gt;&lt;b&gt;BlastP hit with ctg147_17&lt;/b&gt;&lt;br&gt;Percentage identity: 48&lt;br&gt;Percentage coverage: 91&lt;br&gt;BLAST bit score: 74&lt;br&gt;E-value: 3.04e-20&lt;br&gt;&lt;br&gt;&lt;b&gt;BlastP hit with ctg147_18&lt;/b&gt;&lt;br&gt;Percentage identity: 43&lt;br&gt;Percentage coverage: 96&lt;br&gt;BLAST bit score: 74&lt;br&gt;E-value: 4.61e-20&lt;br&gt;&lt;br&gt;&lt;b&gt;BlastP hit with ctg147_19&lt;/b&gt;&lt;br&gt;Percentage identity: 49&lt;br&gt;Percentage coverage: 88&lt;br&gt;BLAST bit score: 69&lt;br&gt;E-value: 2.57e-18" locus_tag="STM2455" class="clusterblast-orf" id="dummy-1_h1_3_1"  />
</g>
<g id="a1_002"  >
<polygon points="244,85 249,80 257,80 257,90 249,90 244,85 " style="fill:white; stroke-width:1; stroke:black; " description="&lt;b&gt;STM2456&lt;/b&gt;&lt;br&gt;carboxysome structural protein EutL&lt;br&gt;Location: 1709 - 2369" locus_tag="STM2456" class="clusterblast-orf" id="dummy-1_h1_3_2"  />
</g>
<g id="a1_003"  >
<polygon points="257,85 262,80 275,80 275,90 262,90 257,85 " style="fill:white; stroke-width:1; stroke:black; " description="&lt;b&gt;STM2457&lt;/b&gt;&lt;br&gt;ethanolamine ammonia-lyase small subunit EutC&lt;br&gt;Location: 2378 - 3275" locus_tag="STM2457" class="clusterblast-orf" id="dummy-1_h1_3_3"  />
</g>
<g id="a1_004"  >
<polygon points="275,85 280,80 301,80 301,90 280,90 275,85 " style="fill:white; stroke-width:1; stroke:black; " description="&lt;b&gt;STM2458&lt;/b&gt;&lt;br&gt;ethanolamine ammonia-lyase large subunit EutB&lt;br&gt;Location: 3293 - 4655" locus_tag="STM2458" class="clusterblast-orf" id="dummy-1_h1_3_4"  />
</g>
<g id="a1_005"  >
<polygon points="302,85 307,80 329,80 329,90 307,90 302,85 " style="fill:white; stroke-width:1; stroke:black; " description="&lt;b&gt;STM2459&lt;/b&gt;&lt;br&gt;ethanolamine utilization protein EutA&lt;br&gt;Location: 4666 - 6070" locus_tag="STM2459" class="clusterblast-orf" id="dummy-1_h1_3_5"  />
</g>
<g id="a1_006"  >
<polygon points="329,85 334,80 352,80 352,90 334,90 329,85 " style="fill:white; stroke-width:1; stroke:black; " description="&lt;b&gt;STM2460&lt;/b&gt;&lt;br&gt;ethanolamine transporter EutH&lt;br&gt;Location: 6066 - 7293" locus_tag="STM2460" class="clusterblast-orf" id="dummy-1_h1_3_6"  />
</g>
<g id="a1_007"  >
<polygon points="355,85 360,80 378,80 378,90 360,90 355,85 " style="fill:#d8d815; stroke-width:1; stroke:black; " description="&lt;b&gt;STM2461&lt;/b&gt;&lt;br&gt;ethanol dehydrogenase EutG&lt;br&gt;Location: 7412 - 8600&lt;br&gt;&lt;br&gt;&lt;b&gt;BlastP hit with ctg147_14&lt;/b&gt;&lt;br&gt;Percentage identity: 34&lt;br&gt;Percentage coverage: 98&lt;br&gt;BLAST bit score: 188&lt;br&gt;E-value: 9.83e-58" locus_tag="STM2461" class="clusterblast-orf" id="dummy-1_h1_3_7"  />
</g>
<g id="a1_008"  >
<polygon points="378,85 383,80 394,80 394,90 383,90 378,85 " style="fill:white; stroke-width:1; stroke:black; " description="&lt;b&gt;STM2462&lt;/b&gt;&lt;br&gt;ethanolamine utilization protein EutJ&lt;br&gt;Location: 8589 - 9429" locus_tag="STM2462" class="clusterblast-orf" id="dummy-1_h1_3_8"  />
</g>
<g id="a1_009"  >
<polygon points="394,85 399,80 421,80 421,90 399,90 394,85 " style="fill:white; stroke-width:1; stroke:black; " description="&lt;b&gt;STM2463&lt;/b&gt;&lt;br&gt;aldehyde oxidoreductase EutE&lt;br&gt;Location: 9439 - 10843" locus_tag="STM2463" class="clusterblast-orf" id="dummy-1_h1_3_9"  />
</g>
<g id="a1_0010"  >
<polygon points="422,85 427,80 427,80 427,90 427,90 422,85 " style="fill:white; stroke-width:1; stroke:black; " description="&lt;b&gt;STM2464&lt;/b&gt;&lt;br&gt;microcompartment shell protein EutN&lt;br&gt;Location: 10854 - 11142" locus_tag="STM2464" class="clusterblast-orf" id="dummy-1_h1_3_10"  />
</g>
<g id="a1_0011"  >
<polygon points="429,85 434,80 435,80 435,90 434,90 429,85 " style="fill:#15d815; stroke-width:1; stroke:black; " description="&lt;b&gt;STM2465&lt;/b&gt;&lt;br&gt;carboxysome structural protein EutM&lt;br&gt;Location: 11254 - 11545&lt;br&gt;&lt;br&gt;&lt;b&gt;BlastP hit with ctg147_11&lt;/b&gt;&lt;br&gt;Percentage identity: 44&lt;br&gt;Percentage coverage: 48&lt;br&gt;BLAST bit score: 50&lt;br&gt;E-value: 6.04e-11&lt;br&gt;&lt;br&gt;&lt;b&gt;BlastP hit with ctg147_17&lt;/b&gt;&lt;br&gt;Percentage identity: 63&lt;br&gt;Percentage coverage: 91&lt;br&gt;BLAST bit score: 101&lt;br&gt;E-value: 1.36e-31&lt;br&gt;&lt;br&gt;&lt;b&gt;BlastP hit with ctg147_18&lt;/b&gt;&lt;br&gt;Percentage identity: 61&lt;br&gt;Percentage coverage: 89&lt;br&gt;BLAST bit score: 99&lt;br&gt;E-value: 1.2e-30&lt;br&gt;&lt;br&gt;&lt;b&gt;BlastP hit with ctg147_19&lt;/b&gt;&lt;br&gt;Percentage identity: 61&lt;br&gt;Percentage coverage: 85&lt;br&gt;BLAST bit score: 85&lt;br&gt;E-value: 2.25e-25" locus_tag="STM2465" class="clusterblast-orf" id="dummy-1_h1_3_11"  />
</g>
<g id="a1_0012"  >
<polygon points="436,85 441,80 455,80 455,90 441,90 436,85 " style="fill:white; stroke-width:1; stroke:black; " description="&lt;b&gt;STM2466&lt;/b&gt;&lt;br&gt;phosphotransacetylase EutD&lt;br&gt;Location: 11585 - 12602" locus_tag="STM2466" class="clusterblast-orf" id="dummy-1_h1_3_12"  />
</g>
<g id="a1_0013"  >
<polygon points="455,85 460,80 471,80 471,90 460,90 455,85 " style="fill:white; stroke-width:1; stroke:black; " description="&lt;b&gt;STM2467&lt;/b&gt;&lt;br&gt;cobalamin adenosyltransferase EutT&lt;br&gt;Location: 12598 - 13402" locus_tag="STM2467" class="clusterblast-orf" id="dummy-1_h1_3_13"  />
</g>
<g id="a1_0014"  >
<polygon points="471,85 476,80 484,80 484,90 476,90 471,85 " style="fill:white; stroke-width:1; stroke:black; " description="&lt;b&gt;STM2468&lt;/b&gt;&lt;br&gt;ethanolamine utilization protein EutQ&lt;br&gt;Location: 13398 - 14088" locus_tag="STM2468" class="clusterblast-orf" id="dummy-1_h1_3_14"  />
</g>
<g id="a1_0015"  >
<polygon points="484,85 489,80 493,80 493,90 489,90 484,85 " style="fill:white; stroke-width:1; stroke:black; " description="&lt;b&gt;STM2469&lt;/b&gt;&lt;br&gt;ethanolamine utilization protein EutP&lt;br&gt;Location: 14065 - 14545" locus_tag="STM2469" class="clusterblast-orf" id="dummy-1_h1_3_15"  />
</g>
<g id="a1_0016"  >
<polygon points="493,85 498,80 500,80 500,90 498,90 493,85 " style="fill:white; stroke-width:1; stroke:black; " description="&lt;b&gt;STM2470&lt;/b&gt;&lt;br&gt;carboxysome structural protein EutS&lt;br&gt;Location: 14557 - 14893" locus_tag="STM2470" class="clusterblast-orf" id="dummy-1_h1_3_16"  />
</g>
<g id="a1_0017"  >
<polygon points="509,85 514,80 518,80 518,90 514,90 509,85 " style="fill:white; stroke-width:1; stroke:black; " description="&lt;b&gt;STM2471&lt;/b&gt;&lt;br&gt;insertion sequence element IS200 transposase&lt;br&gt;Location: 15373 - 15832" locus_tag="STM2471" class="clusterblast-orf" id="dummy-1_h1_3_17"  />
</g>
<g id="a1_0018"  >
<polygon points="522,85 527,80 566,80 566,90 527,90 522,85 " style="fill:white; stroke-width:1; stroke:black; " description="&lt;b&gt;STM2472&lt;/b&gt;&lt;br&gt;malic enzyme&lt;br&gt;Location: 16021 - 18301" locus_tag="STM2472" class="clusterblast-orf" id="dummy-1_h1_3_18"  />
</g>
</svg>
