<svg xmlns="http://www.w3.org/2000/svg" xmlns:xlink="http://www.w3.org/1999/xlink" version="1.1" x="0" y="0" height="300" width="800" viewBox="0 0 800 300" preserveAspectRatio="none"  >
<g label="Query sequence" class="clusterblast-cluster"  >
<text x="5" y="20" class="clusterblast-acc"  >
Query sequence</text>
<line x1="10" y1="35" x2="778.0" y2="35" style="stroke-width:1; stroke:grey; "  />
<polygon points="0,40 2,35 0,30 0,40 " style="fill:white; stroke-width:1; stroke:black; " description="&lt;b&gt;ctg147_1&lt;/b&gt;&lt;br&gt;ctg147 1&lt;br&gt;Location: 2 - 137" locus_tag="ctg147_1" class="clusterblast-orf" id="knownclusterblast-1_q0_0_all"  />
<polygon points="8,40 10,40 15,35 10,30 8,30 8,40 " style="fill:white; stroke-width:1; stroke:black; " description="&lt;b&gt;ctg147_2&lt;/b&gt;&lt;br&gt;ctg147 2&lt;br&gt;Location: 426 - 777" locus_tag="ctg147_2" class="clusterblast-orf" id="knownclusterblast-1_q1_0_all"  />
<polygon points="16,35 21,30 37,30 37,40 21,40 16,35 " style="fill:white; stroke-width:1; stroke:black; " description="&lt;b&gt;ctg147_3&lt;/b&gt;&lt;br&gt;ctg147 3&lt;br&gt;Location: 817 - 1942" locus_tag="ctg147_3" class="clusterblast-orf" id="knownclusterblast-1_q2_0_all"  />
<polygon points="37,35 42,30 91,30 91,40 42,40 37,35 " style="fill:white; stroke-width:1; stroke:black; " description="&lt;b&gt;ctg147_4&lt;/b&gt;&lt;br&gt;ctg147 4&lt;br&gt;Location: 1941 - 4686" locus_tag="ctg147_4" class="clusterblast-orf" id="knownclusterblast-1_q3_0_all"  />
<polygon points="90,35 95,30 114,30 114,40 95,40 90,35 " style="fill:white; stroke-width:1; stroke:black; " description="&lt;b&gt;ctg147_5&lt;/b&gt;&lt;br&gt;ctg147 5&lt;br&gt;Location: 4682 - 5897" locus_tag="ctg147_5" class="clusterblast-orf" id="knownclusterblast-1_q4_0_all"  />
<polygon points="120,35 125,30 140,30 140,40 125,40 120,35 " style="fill:white; stroke-width:1; stroke:black; " description="&lt;b&gt;ctg147_6&lt;/b&gt;&lt;br&gt;ctg147 6&lt;br&gt;Location: 6203 - 7211" locus_tag="ctg147_6" class="clusterblast-orf" id="knownclusterblast-1_q5_0_all"  />
<polygon points="143,35 148,30 150,30 150,40 148,40 143,35 " style="fill:white; stroke-width:1; stroke:black; " description="&lt;b&gt;ctg147_7&lt;/b&gt;&lt;br&gt;ctg147 7&lt;br&gt;Location: 7411 - 7741" locus_tag="ctg147_7" class="clusterblast-orf" id="knownclusterblast-1_q6_0_all"  />
<polygon points="150,35 155,30 158,30 158,40 155,40 150,35 " style="fill:white; stroke-width:1; stroke:black; " description="&lt;b&gt;ctg147_8&lt;/b&gt;&lt;br&gt;ctg147 8&lt;br&gt;Location: 7758 - 8172" locus_tag="ctg147_8" class="clusterblast-orf" id="knownclusterblast-1_q7_0_all"  />
<polygon points="159,35 164,30 172,30 172,40 164,40 159,35 " style="fill:white; stroke-width:1; stroke:black; " description="&lt;b&gt;ctg147_9&lt;/b&gt;&lt;br&gt;ctg147 9&lt;br&gt;Location: 8203 - 8872" locus_tag="ctg147_9" class="clusterblast-orf" id="knownclusterblast-1_q8_0_all"  />
<polygon points="172,35 177,30 184,30 184,40 177,40 172,35 " style="fill:#d81515; stroke-width:1; stroke:black; " description="&lt;b&gt;ctg147_10&lt;/b&gt;&lt;br&gt;ctg147 10&lt;br&gt;Location: 8884 - 9505" locus_tag="ctg147_10" class="clusterblast-orf" id="knownclusterblast-1_q9_0_all"  />
<polygon points="184,35 189,30 192,30 192,40 189,40 184,35 " style="fill:#15d815; stroke-width:1; stroke:black; " description="&lt;b&gt;ctg147_11&lt;/b&gt;&lt;br&gt;ctg147 11&lt;br&gt;Location: 9501 - 9900" locus_tag="ctg147_11" class="clusterblast-orf" id="knownclusterblast-1_q10_0_all"  />
<polygon points="192,35 197,30 214,30 214,40 197,40 192,35 " style="fill:#1515d8; stroke-width:1; stroke:black; " description="&lt;b&gt;ctg147_12&lt;/b&gt;&lt;br&gt;ctg147 12&lt;br&gt;Location: 9912 - 11034" locus_tag="ctg147_12" class="clusterblast-orf" id="knownclusterblast-1_q11_0_all"  />
<polygon points="214,35 219,30 280,30 280,40 219,40 214,35 " style="fill:#d815d8; stroke-width:1; stroke:black; " description="&lt;b&gt;ctg147_13&lt;/b&gt;&lt;br&gt;ctg147 13&lt;br&gt;Location: 11064 - 14451" locus_tag="ctg147_13" class="clusterblast-orf" id="knownclusterblast-1_q12_0_all"  />
<polygon points="283,35 288,30 305,30 305,40 288,40 283,35 " style="fill:#d8d815; stroke-width:1; stroke:black; " description="&lt;b&gt;ctg147_14&lt;/b&gt;&lt;br&gt;ctg147 14&lt;br&gt;Location: 14582 - 15764" locus_tag="ctg147_14" class="clusterblast-orf" id="knownclusterblast-1_q13_0_all"  />
<polygon points="306,35 311,30 311,30 311,40 311,40 306,35 " style="fill:white; stroke-width:1; stroke:black; " description="&lt;b&gt;ctg147_15&lt;/b&gt;&lt;br&gt;ctg147 15&lt;br&gt;Location: 15772 - 16039" locus_tag="ctg147_15" class="clusterblast-orf" id="knownclusterblast-1_q14_0_all"  />
<polygon points="311,35 316,30 342,30 342,40 316,40 311,35 " style="fill:#15d8d8; stroke-width:1; stroke:black; " description="&lt;b&gt;ctg147_16&lt;/b&gt;&lt;br&gt;ctg147 16&lt;br&gt;Location: 16064 - 17666" locus_tag="ctg147_16" class="clusterblast-orf" id="knownclusterblast-1_q15_0_all"  />
<polygon points="343,35 348,30 349,30 349,40 348,40 343,35 " style="fill:#15d815; stroke-width:1; stroke:black; " description="&lt;b&gt;ctg147_17&lt;/b&gt;&lt;br&gt;ctg147 17&lt;br&gt;Location: 17719 - 17998" locus_tag="ctg147_17" class="clusterblast-orf" id="knownclusterblast-1_q16_0_all"  />
<polygon points="349,35 354,30 355,30 355,40 354,40 349,35 " style="fill:#15d815; stroke-width:1; stroke:black; " description="&lt;b&gt;ctg147_18&lt;/b&gt;&lt;br&gt;ctg147 18&lt;br&gt;Location: 18010 - 18295" locus_tag="ctg147_18" class="clusterblast-orf" id="knownclusterblast-1_q17_0_all"  />
<polygon points="356,35 361,30 361,30 361,40 361,40 356,35 " style="fill:#15d815; stroke-width:1; stroke:black; " description="&lt;b&gt;ctg147_19&lt;/b&gt;&lt;br&gt;ctg147 19&lt;br&gt;Location: 18377 - 18626" locus_tag="ctg147_19" class="clusterblast-orf" id="knownclusterblast-1_q18_0_all"  />
<polygon points="370,35 375,30 380,30 380,40 375,40 370,35 " style="fill:white; stroke-width:1; stroke:black; " description="&lt;b&gt;ctg147_20&lt;/b&gt;&lt;br&gt;ctg147 20&lt;br&gt;Location: 19072 - 19591" locus_tag="ctg147_20" class="clusterblast-orf" id="knownclusterblast-1_q19_0_all"  />
<polygon points="380,35 385,30 395,30 395,40 385,40 380,35 " style="fill:white; stroke-width:1; stroke:black; " description="&lt;b&gt;ctg147_21&lt;/b&gt;&lt;br&gt;ctg147 21&lt;br&gt;Location: 19587 - 20391" locus_tag="ctg147_21" class="clusterblast-orf" id="knownclusterblast-1_q20_0_all"  />
<polygon points="396,35 401,30 407,30 407,40 401,40 396,35 " style="fill:white; stroke-width:1; stroke:black; " description="&lt;b&gt;ctg147_22&lt;/b&gt;&lt;br&gt;ctg147 22&lt;br&gt;Location: 20412 - 20997" locus_tag="ctg147_22" class="clusterblast-orf" id="knownclusterblast-1_q21_0_all"  />
<polygon points="410,35 415,30 425,30 425,40 415,40 410,35 " style="fill:white; stroke-width:1; stroke:black; " description="&lt;b&gt;ctg147_23&lt;/b&gt;&lt;br&gt;ctg147 23&lt;br&gt;Location: 21138 - 21921" locus_tag="ctg147_23" class="clusterblast-orf" id="knownclusterblast-1_q22_0_all"  />
<polygon points="427,40 441,40 446,35 441,30 427,30 427,40 " style="fill:white; stroke-width:1; stroke:black; " description="&lt;b&gt;ctg147_24&lt;/b&gt;&lt;br&gt;ctg147 24&lt;br&gt;Location: 22007 - 23000" locus_tag="ctg147_24" class="clusterblast-orf" id="knownclusterblast-1_q23_0_all"  />
<polygon points="446,40 449,40 454,35 449,30 446,30 446,40 " style="fill:white; stroke-width:1; stroke:black; " description="&lt;b&gt;ctg147_25&lt;/b&gt;&lt;br&gt;ctg147 25&lt;br&gt;Location: 22993 - 23413" locus_tag="ctg147_25" class="clusterblast-orf" id="knownclusterblast-1_q24_0_all"  />
<polygon points="455,35 460,30 483,30 483,40 460,40 455,35 " style="fill:white; stroke-width:1; stroke:black; " description="&lt;b&gt;ctg147_26&lt;/b&gt;&lt;br&gt;ctg147 26&lt;br&gt;Location: 23484 - 24897" locus_tag="ctg147_26" class="clusterblast-orf" id="knownclusterblast-1_q25_0_all"  />
<polygon points="486,40 489,35 486,30 486,40 " style="fill:white; stroke-width:1; stroke:black; " description="&lt;b&gt;ctg147_27&lt;/b&gt;&lt;br&gt;ctg147 27&lt;br&gt;Location: 25074 - 25239" locus_tag="ctg147_27" class="clusterblast-orf" id="knownclusterblast-1_q26_0_all"  />
<polygon points="492,40 497,40 502,35 497,30 492,30 492,40 " style="fill:white; stroke-width:1; stroke:black; " description="&lt;b&gt;ctg147_28&lt;/b&gt;&lt;br&gt;ctg147 28&lt;br&gt;Location: 25403 - 25868" locus_tag="ctg147_28" class="clusterblast-orf" id="knownclusterblast-1_q27_0_all"  />
<polygon points="502,40 517,40 522,35 517,30 502,30 502,40 " style="fill:white; stroke-width:1; stroke:black; " description="&lt;b&gt;ctg147_29&lt;/b&gt;&lt;br&gt;ctg147 29&lt;br&gt;Location: 25874 - 26942" locus_tag="ctg147_29" class="clusterblast-orf" id="knownclusterblast-1_q28_0_all"  />
<polygon points="522,40 538,40 543,35 538,30 522,30 522,40 " style="fill:white; stroke-width:1; stroke:black; " description="&lt;b&gt;ctg147_30&lt;/b&gt;&lt;br&gt;ctg147 30&lt;br&gt;Location: 26931 - 27996" locus_tag="ctg147_30" class="clusterblast-orf" id="knownclusterblast-1_q29_0_all"  />
<polygon points="543,35 548,30 548,30 548,40 548,40 543,35 " style="fill:white; stroke-width:1; stroke:black; " description="&lt;b&gt;ctg147_31&lt;/b&gt;&lt;br&gt;ctg147 31&lt;br&gt;Location: 27992 - 28247" locus_tag="ctg147_31" class="clusterblast-orf" id="knownclusterblast-1_q30_0_all"  />
<polygon points="548,35 553,30 561,30 561,40 553,40 548,35 " style="fill:white; stroke-width:1; stroke:black; " description="&lt;b&gt;ctg147_32&lt;/b&gt;&lt;br&gt;ctg147 32&lt;br&gt;Location: 28243 - 28939" locus_tag="ctg147_32" class="clusterblast-orf" id="knownclusterblast-1_q31_0_all"  />
<polygon points="564,35 569,30 587,30 587,40 569,40 564,35 " style="fill:white; stroke-width:1; stroke:black; " description="&lt;b&gt;ctg147_33&lt;/b&gt;&lt;br&gt;ctg147 33&lt;br&gt;Location: 29112 - 30264" locus_tag="ctg147_33" class="clusterblast-orf" id="knownclusterblast-1_q32_0_all"  />
<polygon points="589,35 593,30 593,40 589,35 " style="fill:white; stroke-width:1; stroke:black; " description="&lt;b&gt;ctg147_34&lt;/b&gt;&lt;br&gt;ctg147 34&lt;br&gt;Location: 30361 - 30601" locus_tag="ctg147_34" class="clusterblast-orf" id="knownclusterblast-1_q33_0_all"  />
<polygon points="594,35 599,30 618,30 618,40 599,40 594,35 " style="fill:white; stroke-width:1; stroke:black; " description="&lt;b&gt;ctg147_35&lt;/b&gt;&lt;br&gt;ctg147 35&lt;br&gt;Location: 30626 - 31868" locus_tag="ctg147_35" class="clusterblast-orf" id="knownclusterblast-1_q34_0_all"  />
<polygon points="619,35 624,30 644,30 644,40 624,40 619,35 " style="fill:white; stroke-width:1; stroke:black; " description="&lt;b&gt;ctg147_36&lt;/b&gt;&lt;br&gt;ctg147 36&lt;br&gt;Location: 31921 - 33214" locus_tag="ctg147_36" class="clusterblast-orf" id="knownclusterblast-1_q35_0_all"  />
<polygon points="644,35 649,30 657,30 657,40 649,40 644,35 " style="fill:white; stroke-width:1; stroke:black; " description="&lt;b&gt;ctg147_37&lt;/b&gt;&lt;br&gt;ctg147 37&lt;br&gt;Location: 33206 - 33869" locus_tag="ctg147_37" class="clusterblast-orf" id="knownclusterblast-1_q36_0_all"  />
<polygon points="658,35 663,30 673,30 673,40 663,40 658,35 " style="fill:white; stroke-width:1; stroke:black; " description="&lt;b&gt;ctg147_38&lt;/b&gt;&lt;br&gt;ctg147 38&lt;br&gt;Location: 33916 - 34732" locus_tag="ctg147_38" class="clusterblast-orf" id="knownclusterblast-1_q37_0_all"  />
<polygon points="678,40 691,40 696,35 691,30 678,30 678,40 " style="fill:white; stroke-width:1; stroke:black; " description="&lt;b&gt;ctg147_39&lt;/b&gt;&lt;br&gt;ctg147 39&lt;br&gt;Location: 34947 - 35874" locus_tag="ctg147_39" class="clusterblast-orf" id="knownclusterblast-1_q38_0_all"  />
<polygon points="699,35 704,30 736,30 736,40 704,40 699,35 " style="fill:white; stroke-width:1; stroke:black; " description="&lt;b&gt;ctg147_40&lt;/b&gt;&lt;br&gt;ctg147 40&lt;br&gt;Location: 36054 - 37962" locus_tag="ctg147_40" class="clusterblast-orf" id="knownclusterblast-1_q39_0_all"  />
<polygon points="736,35 741,30 761,30 761,40 741,40 736,35 " style="fill:white; stroke-width:1; stroke:black; " description="&lt;b&gt;ctg147_41&lt;/b&gt;&lt;br&gt;ctg147 41&lt;br&gt;Location: 37974 - 39219" locus_tag="ctg147_41" class="clusterblast-orf" id="knownclusterblast-1_q40_0_all"  />
<polygon points="761,35 766,30 780,30 780,40 766,40 761,35 " style="fill:white; stroke-width:1; stroke:black; " description="&lt;b&gt;ctg147_42&lt;/b&gt;&lt;br&gt;ctg147 42&lt;br&gt;Location: 39220 - 40207" locus_tag="ctg147_42" class="clusterblast-orf" id="knownclusterblast-1_q41_0_all"  />
</g>
<g label="MGC0000001" description="MGC0000001_c1: Trimethylamine synthesis C. sporogenes (66% of genes show similarity), TMA" class="clusterblast-cluster"  >
<text x="5" y="70" class="clusterblast-acc"  >
MGC0000001_c1: Trimethylamine synthesis C. sporogenes (66% of genes show similarity), TMA</text>
<line x1="10" y1="85" x2="778.0" y2="85" style="stroke-width:1; stroke:grey; "  />
</g>
<g id="a1_000"  >
<polygon points="334,85 335,80 335,90 334,85 " style="fill:white; stroke-width:1; stroke:black; " description="&lt;b&gt;CLOSPO_RS07645&lt;/b&gt;&lt;br&gt;hypothetical protein&lt;br&gt;Location: 5704 - 5637" locus_tag="CLOSPO_RS07645" class="clusterblast-orf" id="knownclusterblast-1_all_1_1_0"  />
</g>
<g id="a1_001"  >
<polygon points="335,85 340,80 342,80 342,90 340,90 335,85 " style="fill:white; stroke-width:1; stroke:black; " description="&lt;b&gt;CLOSPO_RS07640&lt;/b&gt;&lt;br&gt;propanediol utilization protein PduU&lt;br&gt;Location: 5641 - 5287" locus_tag="CLOSPO_RS07640" class="clusterblast-orf" id="knownclusterblast-1_all_1_1_1"  />
</g>
<g id="a1_002"  >
<polygon points="343,85 348,80 362,80 362,90 348,90 343,85 " style="fill:#1515d8; stroke-width:1; stroke:black; " description="&lt;b&gt;CLOSPO_RS07635&lt;/b&gt;&lt;br&gt;choline TMA-lyase-activating enzyme&lt;br&gt;Location: 5248 - 4294&lt;br&gt;&lt;br&gt;&lt;b&gt;BlastP hit with ctg147_12&lt;/b&gt;&lt;br&gt;Percentage identity: 49&lt;br&gt;Percentage coverage: 83&lt;br&gt;BLAST bit score: 326&lt;br&gt;E-value: 8.58e-113" locus_tag="CLOSPO_RS07635" class="clusterblast-orf" id="knownclusterblast-1_all_1_1_2"  />
</g>
<g id="a1_003"  >
<polygon points="365,85 370,80 414,80 414,90 370,90 365,85 " style="fill:#d815d8; stroke-width:1; stroke:black; " description="&lt;b&gt;CLOSPO_RS07630&lt;/b&gt;&lt;br&gt;choline trimethylamine-lyase&lt;br&gt;Location: 4113 - 1572&lt;br&gt;&lt;br&gt;&lt;b&gt;BlastP hit with ctg147_13&lt;/b&gt;&lt;br&gt;Percentage identity: 62&lt;br&gt;Percentage coverage: 75&lt;br&gt;BLAST bit score: 1082&lt;br&gt;E-value: 0.0" locus_tag="CLOSPO_RS07630" class="clusterblast-orf" id="knownclusterblast-1_all_1_1_3"  />
</g>
<g id="a1_004"  >
<polygon points="415,85 420,80 444,80 444,90 420,90 415,85 " style="fill:#15d8d8; stroke-width:1; stroke:black; " description="&lt;b&gt;CLOSPO_RS07625&lt;/b&gt;&lt;br&gt;acetaldehyde dehydrogenase&lt;br&gt;Location: 1523 - 41&lt;br&gt;&lt;br&gt;&lt;b&gt;BlastP hit with ctg147_16&lt;/b&gt;&lt;br&gt;Percentage identity: 54&lt;br&gt;Percentage coverage: 85&lt;br&gt;BLAST bit score: 468&lt;br&gt;E-value: 2.68e-163" locus_tag="CLOSPO_RS07625" class="clusterblast-orf" id="knownclusterblast-1_all_1_1_4"  />
</g>
<g id="a1_005"  >
<polygon points="445,85 445,80 445,90 445,85 " style="fill:#15d815; stroke-width:1; stroke:black; " description="&lt;b&gt;CLOSPO_RS07620&lt;/b&gt;&lt;br&gt;hypothetical protein&lt;br&gt;Location: 4 - 0&lt;br&gt;&lt;br&gt;&lt;b&gt;BlastP hit with ctg147_17&lt;/b&gt;&lt;br&gt;Percentage identity: 61&lt;br&gt;Percentage coverage: 98&lt;br&gt;BLAST bit score: 98&lt;br&gt;E-value: 2.66e-30&lt;br&gt;&lt;br&gt;&lt;b&gt;BlastP hit with ctg147_18&lt;/b&gt;&lt;br&gt;Percentage identity: 59&lt;br&gt;Percentage coverage: 100&lt;br&gt;BLAST bit score: 103&lt;br&gt;E-value: 1.5e-32&lt;br&gt;&lt;br&gt;&lt;b&gt;BlastP hit with ctg147_19&lt;/b&gt;&lt;br&gt;Percentage identity: 71&lt;br&gt;Percentage coverage: 72&lt;br&gt;BLAST bit score: 84&lt;br&gt;E-value: 1.07e-24" locus_tag="CLOSPO_RS07620" class="clusterblast-orf" id="knownclusterblast-1_all_1_1_5"  />
</g>
<g label="MGC00000010" description="MGC00000010_c1: Propanediol degradation S. enterica (20% of genes show similarity), PDU" class="clusterblast-cluster"  >
<text x="5" y="120" class="clusterblast-acc"  >
MGC00000010_c1: Propanediol degradation S. enterica (20% of genes show similarity), PDU</text>
<line x1="10" y1="135" x2="778.0" y2="135" style="stroke-width:1; stroke:grey; "  />
</g>
<g id="a1_000"  >
<polygon points="201,140 204,135 201,130 201,140 " style="fill:white; stroke-width:1; stroke:black; " description="&lt;b&gt;STM2059&lt;/b&gt;&lt;br&gt;hypothetical protein&lt;br&gt;Location: 19638 - 19470" locus_tag="STM2059" class="clusterblast-orf" id="knownclusterblast-1_all_1_2_0"  />
</g>
<g id="a1_001"  >
<polygon points="205,135 210,130 223,130 223,140 210,140 205,135 " style="fill:white; stroke-width:1; stroke:black; " description="&lt;b&gt;STM2058&lt;/b&gt;&lt;br&gt;L-threonine kinase&lt;br&gt;Location: 19437 - 18534" locus_tag="STM2058" class="clusterblast-orf" id="knownclusterblast-1_all_1_2_1"  />
</g>
<g id="a1_002"  >
<polygon points="224,135 229,130 247,130 247,140 229,140 224,135 " style="fill:white; stroke-width:1; stroke:black; " description="&lt;b&gt;STM2057&lt;/b&gt;&lt;br&gt;propionate kinase&lt;br&gt;Location: 18477 - 17262" locus_tag="STM2057" class="clusterblast-orf" id="knownclusterblast-1_all_1_2_2"  />
</g>
<g id="a1_003"  >
<polygon points="247,135 252,130 256,130 256,140 252,140 247,135 " style="fill:white; stroke-width:1; stroke:black; " description="&lt;b&gt;STM2056&lt;/b&gt;&lt;br&gt;propanediol utilization protein PduV&lt;br&gt;Location: 17278 - 16825" locus_tag="STM2056" class="clusterblast-orf" id="knownclusterblast-1_all_1_2_3"  />
</g>
<g id="a1_004"  >
<polygon points="256,135 261,130 263,130 263,140 261,140 256,135 " style="fill:white; stroke-width:1; stroke:black; " description="&lt;b&gt;STM2055&lt;/b&gt;&lt;br&gt;propanediol utilization polyhedral body protein PduU&lt;br&gt;Location: 16821 - 16470" locus_tag="STM2055" class="clusterblast-orf" id="knownclusterblast-1_all_1_2_4"  />
</g>
<g id="a1_005"  >
<polygon points="263,135 268,130 273,130 273,140 268,140 263,135 " style="fill:#15d815; stroke-width:1; stroke:black; " description="&lt;b&gt;STM2054&lt;/b&gt;&lt;br&gt;propanediol utilization polyhedral body protein PduT&lt;br&gt;Location: 16471 - 15916&lt;br&gt;&lt;br&gt;&lt;b&gt;BlastP hit with ctg147_17&lt;/b&gt;&lt;br&gt;Percentage identity: 40&lt;br&gt;Percentage coverage: 89&lt;br&gt;BLAST bit score: 45&lt;br&gt;E-value: 8.05e-09&lt;br&gt;&lt;br&gt;&lt;b&gt;BlastP hit with ctg147_18&lt;/b&gt;&lt;br&gt;Percentage identity: 41&lt;br&gt;Percentage coverage: 85&lt;br&gt;BLAST bit score: 42&lt;br&gt;E-value: 6.05e-08" locus_tag="STM2054" class="clusterblast-orf" id="knownclusterblast-1_all_1_2_5"  />
</g>
<g id="a1_006"  >
<polygon points="273,135 278,130 300,130 300,140 278,140 273,135 " style="fill:white; stroke-width:1; stroke:black; " description="&lt;b&gt;STM2053&lt;/b&gt;&lt;br&gt;propanediol utilization polyhedral body protein PduS&lt;br&gt;Location: 15914 - 14558" locus_tag="STM2053" class="clusterblast-orf" id="knownclusterblast-1_all_1_2_6"  />
</g>
<g id="a1_007"  >
<polygon points="300,135 305,130 321,130 321,140 305,140 300,135 " style="fill:#d8d815; stroke-width:1; stroke:black; " description="&lt;b&gt;STM2052&lt;/b&gt;&lt;br&gt;propanol dehydrogenase&lt;br&gt;Location: 14562 - 13449&lt;br&gt;&lt;br&gt;&lt;b&gt;BlastP hit with ctg147_14&lt;/b&gt;&lt;br&gt;Percentage identity: 44&lt;br&gt;Percentage coverage: 96&lt;br&gt;BLAST bit score: 254&lt;br&gt;E-value: 1.92e-83" locus_tag="STM2052" class="clusterblast-orf" id="knownclusterblast-1_all_1_2_7"  />
</g>
<g id="a1_008"  >
<polygon points="321,135 326,130 348,130 348,140 326,140 321,135 " style="fill:white; stroke-width:1; stroke:black; " description="&lt;b&gt;STM2051&lt;/b&gt;&lt;br&gt;CoA-dependent propionaldehyde dehydrogenase&lt;br&gt;Location: 13438 - 12043" locus_tag="STM2051" class="clusterblast-orf" id="knownclusterblast-1_all_1_2_8"  />
</g>
<g id="a1_009"  >
<polygon points="348,135 353,130 368,130 368,140 353,140 348,135 " style="fill:white; stroke-width:1; stroke:black; " description="&lt;b&gt;STM2050&lt;/b&gt;&lt;br&gt;propanediol utilization protein PduO&lt;br&gt;Location: 12047 - 11036" locus_tag="STM2050" class="clusterblast-orf" id="knownclusterblast-1_all_1_2_9"  />
</g>
<g id="a1_0010"  >
<polygon points="368,135 373,130 374,130 374,140 373,140 368,135 " style="fill:white; stroke-width:1; stroke:black; " description="&lt;b&gt;STM2049&lt;/b&gt;&lt;br&gt;propanediol utilization polyhedral body protein PduN&lt;br&gt;Location: 11027 - 10751" locus_tag="STM2049" class="clusterblast-orf" id="knownclusterblast-1_all_1_2_10"  />
</g>
<g id="a1_0011"  >
<polygon points="374,135 379,130 383,130 383,140 379,140 374,135 " style="fill:white; stroke-width:1; stroke:black; " description="&lt;b&gt;STM2048&lt;/b&gt;&lt;br&gt;propanediol utilization protein PduM&lt;br&gt;Location: 10748 - 10256" locus_tag="STM2048" class="clusterblast-orf" id="knownclusterblast-1_all_1_2_11"  />
</g>
<g id="a1_0012"  >
<polygon points="383,135 388,130 395,130 395,140 388,140 383,135 " style="fill:#d81515; stroke-width:1; stroke:black; " description="&lt;b&gt;STM2047&lt;/b&gt;&lt;br&gt;phosphate propanoyltransferase&lt;br&gt;Location: 10260 - 9627&lt;br&gt;&lt;br&gt;&lt;b&gt;BlastP hit with ctg147_10&lt;/b&gt;&lt;br&gt;Percentage identity: 56&lt;br&gt;Percentage coverage: 87&lt;br&gt;BLAST bit score: 183&lt;br&gt;E-value: 1.43e-60" locus_tag="STM2047" class="clusterblast-orf" id="knownclusterblast-1_all_1_2_12"  />
</g>
<g id="a1_0013"  >
<polygon points="395,135 400,130 404,130 404,140 400,140 395,135 " style="fill:white; stroke-width:1; stroke:black; " description="&lt;b&gt;STM2046&lt;/b&gt;&lt;br&gt;propanediol utilization polyhedral body protein PduK&lt;br&gt;Location: 9628 - 9166" locus_tag="STM2046" class="clusterblast-orf" id="knownclusterblast-1_all_1_2_13"  />
</g>
<g id="a1_0014"  >
<polygon points="405,135 410,130 410,130 410,140 410,140 405,135 " style="fill:#15d815; stroke-width:1; stroke:black; " description="&lt;b&gt;STM2045&lt;/b&gt;&lt;br&gt;propanediol utilization polyhedral body protein PduJ&lt;br&gt;Location: 9142 - 8866&lt;br&gt;&lt;br&gt;&lt;b&gt;BlastP hit with ctg147_17&lt;/b&gt;&lt;br&gt;Percentage identity: 69&lt;br&gt;Percentage coverage: 93&lt;br&gt;BLAST bit score: 111&lt;br&gt;E-value: 9.13e-36&lt;br&gt;&lt;br&gt;&lt;b&gt;BlastP hit with ctg147_18&lt;/b&gt;&lt;br&gt;Percentage identity: 66&lt;br&gt;Percentage coverage: 93&lt;br&gt;BLAST bit score: 109&lt;br&gt;E-value: 5.71e-35&lt;br&gt;&lt;br&gt;&lt;b&gt;BlastP hit with ctg147_19&lt;/b&gt;&lt;br&gt;Percentage identity: 71&lt;br&gt;Percentage coverage: 85&lt;br&gt;BLAST bit score: 98&lt;br&gt;E-value: 1.31e-30" locus_tag="STM2045" class="clusterblast-orf" id="knownclusterblast-1_all_1_2_14"  />
</g>
<g id="a1_0015"  >
<polygon points="410,135 415,130 417,130 417,140 415,140 410,135 " style="fill:white; stroke-width:1; stroke:black; " description="&lt;b&gt;STM2044&lt;/b&gt;&lt;br&gt;propanediol dehydratase reactivation protein&lt;br&gt;Location: 8848 - 8497" locus_tag="STM2044" class="clusterblast-orf" id="knownclusterblast-1_all_1_2_15"  />
</g>
<g id="a1_0016"  >
<polygon points="417,135 422,130 453,130 453,140 422,140 417,135 " style="fill:white; stroke-width:1; stroke:black; " description="&lt;b&gt;STM2043&lt;/b&gt;&lt;br&gt;propanediol dehydratase reactivation protein&lt;br&gt;Location: 8508 - 6675" locus_tag="STM2043" class="clusterblast-orf" id="knownclusterblast-1_all_1_2_16"  />
</g>
<g id="a1_0017"  >
<polygon points="453,135 458,130 463,130 463,140 458,140 453,135 " style="fill:white; stroke-width:1; stroke:black; " description="&lt;b&gt;STM2042&lt;/b&gt;&lt;br&gt;propanediol dehydratase small subunit&lt;br&gt;Location: 6666 - 6144" locus_tag="STM2042" class="clusterblast-orf" id="knownclusterblast-1_all_1_2_17"  />
</g>
<g id="a1_0018"  >
<polygon points="463,135 468,130 476,130 476,140 468,140 463,135 " style="fill:white; stroke-width:1; stroke:black; " description="&lt;b&gt;STM2041&lt;/b&gt;&lt;br&gt;propanediol dehydratase medium subunit&lt;br&gt;Location: 6130 - 5455" locus_tag="STM2041" class="clusterblast-orf" id="knownclusterblast-1_all_1_2_18"  />
</g>
<g id="a1_0019"  >
<polygon points="477,135 482,130 509,130 509,140 482,140 477,135 " style="fill:white; stroke-width:1; stroke:black; " description="&lt;b&gt;STM2040&lt;/b&gt;&lt;br&gt;propanediol dehydratase large subunit&lt;br&gt;Location: 5445 - 3780" locus_tag="STM2040" class="clusterblast-orf" id="knownclusterblast-1_all_1_2_19"  />
</g>
<g id="a1_0020"  >
<polygon points="509,135 514,130 525,130 525,140 514,140 509,135 " style="fill:white; stroke-width:1; stroke:black; " description="&lt;b&gt;STM2039&lt;/b&gt;&lt;br&gt;propanediol utilization polyhedral body protein PduB&lt;br&gt;Location: 3762 - 2949" locus_tag="STM2039" class="clusterblast-orf" id="knownclusterblast-1_all_1_2_20"  />
</g>
<g id="a1_0021"  >
<polygon points="525,135 530,130 530,130 530,140 530,140 525,135 " style="fill:#15d815; stroke-width:1; stroke:black; " description="&lt;b&gt;STM2038&lt;/b&gt;&lt;br&gt;propanediol utilization polyhedral body protein PduA&lt;br&gt;Location: 2953 - 2668&lt;br&gt;&lt;br&gt;&lt;b&gt;BlastP hit with ctg147_11&lt;/b&gt;&lt;br&gt;Percentage identity: 44&lt;br&gt;Percentage coverage: 64&lt;br&gt;BLAST bit score: 61&lt;br&gt;E-value: 3.96e-15&lt;br&gt;&lt;br&gt;&lt;b&gt;BlastP hit with ctg147_17&lt;/b&gt;&lt;br&gt;Percentage identity: 66&lt;br&gt;Percentage coverage: 92&lt;br&gt;BLAST bit score: 109&lt;br&gt;E-value: 5.75e-35&lt;br&gt;&lt;br&gt;&lt;b&gt;BlastP hit with ctg147_18&lt;/b&gt;&lt;br&gt;Percentage identity: 64&lt;br&gt;Percentage coverage: 90&lt;br&gt;BLAST bit score: 106&lt;br&gt;E-value: 1.46e-33&lt;br&gt;&lt;br&gt;&lt;b&gt;BlastP hit with ctg147_19&lt;/b&gt;&lt;br&gt;Percentage identity: 68&lt;br&gt;Percentage coverage: 83&lt;br&gt;BLAST bit score: 94&lt;br&gt;E-value: 9.58e-29" locus_tag="STM2038" class="clusterblast-orf" id="knownclusterblast-1_all_1_2_21"  />
</g>
<g id="a1_0022"  >
<polygon points="541,140 551,140 556,135 551,130 541,130 541,140 " style="fill:white; stroke-width:1; stroke:black; " description="&lt;b&gt;STM2037&lt;/b&gt;&lt;br&gt;propanediol diffusion facilitator&lt;br&gt;Location: 2144 - 1349" locus_tag="STM2037" class="clusterblast-orf" id="knownclusterblast-1_all_1_2_22"  />
</g>
<g id="a1_0023"  >
<polygon points="560,140 573,140 578,135 573,130 560,130 560,140 " style="fill:white; stroke-width:1; stroke:black; " description="&lt;b&gt;STM2036&lt;/b&gt;&lt;br&gt;transcriptional regulator PocR&lt;br&gt;Location: 1133 - 221" locus_tag="STM2036" class="clusterblast-orf" id="knownclusterblast-1_all_1_2_23"  />
</g>
<g label="MGC0000003" description="MGC0000003_c1: Ethanolamine degradation S. typhimurium (15% of genes show similarity), EUT" class="clusterblast-cluster"  >
<text x="5" y="170" class="clusterblast-acc"  >
MGC0000003_c1: Ethanolamine degradation S. typhimurium (15% of genes show similarity), EUT</text>
<line x1="10" y1="185" x2="778.0" y2="185" style="stroke-width:1; stroke:grey; "  />
</g>
<g id="a1_000"  >
<polygon points="213,185 218,180 233,180 233,190 218,190 213,185 " style="fill:white; stroke-width:1; stroke:black; " description="&lt;b&gt;STM2454&lt;/b&gt;&lt;br&gt;HTH-type transcriptional regulator EutR&lt;br&gt;Location: 102 - 1155" locus_tag="STM2454" class="clusterblast-orf" id="knownclusterblast-1_all_1_3_0"  />
</g>
<g id="a1_001"  >
<polygon points="234,185 239,180 244,180 244,190 239,190 234,185 " style="fill:#15d815; stroke-width:1; stroke:black; " description="&lt;b&gt;STM2455&lt;/b&gt;&lt;br&gt;carboxysome structural protein EutK&lt;br&gt;Location: 1202 - 1697&lt;br&gt;&lt;br&gt;&lt;b&gt;BlastP hit with ctg147_17&lt;/b&gt;&lt;br&gt;Percentage identity: 48&lt;br&gt;Percentage coverage: 91&lt;br&gt;BLAST bit score: 74&lt;br&gt;E-value: 3.04e-20&lt;br&gt;&lt;br&gt;&lt;b&gt;BlastP hit with ctg147_18&lt;/b&gt;&lt;br&gt;Percentage identity: 43&lt;br&gt;Percentage coverage: 96&lt;br&gt;BLAST bit score: 74&lt;br&gt;E-value: 4.61e-20&lt;br&gt;&lt;br&gt;&lt;b&gt;BlastP hit with ctg147_19&lt;/b&gt;&lt;br&gt;Percentage identity: 49&lt;br&gt;Percentage coverage: 88&lt;br&gt;BLAST bit score: 69&lt;br&gt;E-value: 2.57e-18" locus_tag="STM2455" class="clusterblast-orf" id="knownclusterblast-1_all_1_3_1"  />
</g>
<g id="a1_002"  >
<polygon points="244,185 249,180 257,180 257,190 249,190 244,185 " style="fill:white; stroke-width:1; stroke:black; " description="&lt;b&gt;STM2456&lt;/b&gt;&lt;br&gt;carboxysome structural protein EutL&lt;br&gt;Location: 1709 - 2369" locus_tag="STM2456" class="clusterblast-orf" id="knownclusterblast-1_all_1_3_2"  />
</g>
<g id="a1_003"  >
<polygon points="257,185 262,180 275,180 275,190 262,190 257,185 " style="fill:white; stroke-width:1; stroke:black; " description="&lt;b&gt;STM2457&lt;/b&gt;&lt;br&gt;ethanolamine ammonia-lyase small subunit EutC&lt;br&gt;Location: 2378 - 3275" locus_tag="STM2457" class="clusterblast-orf" id="knownclusterblast-1_all_1_3_3"  />
</g>
<g id="a1_004"  >
<polygon points="275,185 280,180 301,180 301,190 280,190 275,185 " style="fill:white; stroke-width:1; stroke:black; " description="&lt;b&gt;STM2458&lt;/b&gt;&lt;br&gt;ethanolamine ammonia-lyase large subunit EutB&lt;br&gt;Location: 3293 - 4655" locus_tag="STM2458" class="clusterblast-orf" id="knownclusterblast-1_all_1_3_4"  />
</g>
<g id="a1_005"  >
<polygon points="302,185 307,180 329,180 329,190 307,190 302,185 " style="fill:white; stroke-width:1; stroke:black; " description="&lt;b&gt;STM2459&lt;/b&gt;&lt;br&gt;ethanolamine utilization protein EutA&lt;br&gt;Location: 4666 - 6070" locus_tag="STM2459" class="clusterblast-orf" id="knownclusterblast-1_all_1_3_5"  />
</g>
<g id="a1_006"  >
<polygon points="329,185 334,180 352,180 352,190 334,190 329,185 " style="fill:white; stroke-width:1; stroke:black; " description="&lt;b&gt;STM2460&lt;/b&gt;&lt;br&gt;ethanolamine transporter EutH&lt;br&gt;Location: 6066 - 7293" locus_tag="STM2460" class="clusterblast-orf" id="knownclusterblast-1_all_1_3_6"  />
</g>
<g id="a1_007"  >
<polygon points="355,185 360,180 378,180 378,190 360,190 355,185 " style="fill:#d8d815; stroke-width:1; stroke:black; " description="&lt;b&gt;STM2461&lt;/b&gt;&lt;br&gt;ethanol dehydrogenase EutG&lt;br&gt;Location: 7412 - 8600&lt;br&gt;&lt;br&gt;&lt;b&gt;BlastP hit with ctg147_14&lt;/b&gt;&lt;br&gt;Percentage identity: 34&lt;br&gt;Percentage coverage: 98&lt;br&gt;BLAST bit score: 188&lt;br&gt;E-value: 9.83e-58" locus_tag="STM2461" class="clusterblast-orf" id="knownclusterblast-1_all_1_3_7"  />
</g>
<g id="a1_008"  >
<polygon points="378,185 383,180 394,180 394,190 383,190 378,185 " style="fill:white; stroke-width:1; stroke:black; " description="&lt;b&gt;STM2462&lt;/b&gt;&lt;br&gt;ethanolamine utilization protein EutJ&lt;br&gt;Location: 8589 - 9429" locus_tag="STM2462" class="clusterblast-orf" id="knownclusterblast-1_all_1_3_8"  />
</g>
<g id="a1_009"  >
<polygon points="394,185 399,180 421,180 421,190 399,190 394,185 " style="fill:white; stroke-width:1; stroke:black; " description="&lt;b&gt;STM2463&lt;/b&gt;&lt;br&gt;aldehyde oxidoreductase EutE&lt;br&gt;Location: 9439 - 10843" locus_tag="STM2463" class="clusterblast-orf" id="knownclusterblast-1_all_1_3_9"  />
</g>
<g id="a1_0010"  >
<polygon points="422,185 427,180 427,180 427,190 427,190 422,185 " style="fill:white; stroke-width:1; stroke:black; " description="&lt;b&gt;STM2464&lt;/b&gt;&lt;br&gt;microcompartment shell protein EutN&lt;br&gt;Location: 10854 - 11142" locus_tag="STM2464" class="clusterblast-orf" id="knownclusterblast-1_all_1_3_10"  />
</g>
<g id="a1_0011"  >
<polygon points="429,185 434,180 435,180 435,190 434,190 429,185 " style="fill:#15d815; stroke-width:1; stroke:black; " description="&lt;b&gt;STM2465&lt;/b&gt;&lt;br&gt;carboxysome structural protein EutM&lt;br&gt;Location: 11254 - 11545&lt;br&gt;&lt;br&gt;&lt;b&gt;BlastP hit with ctg147_11&lt;/b&gt;&lt;br&gt;Percentage identity: 44&lt;br&gt;Percentage coverage: 48&lt;br&gt;BLAST bit score: 50&lt;br&gt;E-value: 6.04e-11&lt;br&gt;&lt;br&gt;&lt;b&gt;BlastP hit with ctg147_17&lt;/b&gt;&lt;br&gt;Percentage identity: 63&lt;br&gt;Percentage coverage: 91&lt;br&gt;BLAST bit score: 101&lt;br&gt;E-value: 1.36e-31&lt;br&gt;&lt;br&gt;&lt;b&gt;BlastP hit with ctg147_18&lt;/b&gt;&lt;br&gt;Percentage identity: 61&lt;br&gt;Percentage coverage: 89&lt;br&gt;BLAST bit score: 99&lt;br&gt;E-value: 1.2e-30&lt;br&gt;&lt;br&gt;&lt;b&gt;BlastP hit with ctg147_19&lt;/b&gt;&lt;br&gt;Percentage identity: 61&lt;br&gt;Percentage coverage: 85&lt;br&gt;BLAST bit score: 85&lt;br&gt;E-value: 2.25e-25" locus_tag="STM2465" class="clusterblast-orf" id="knownclusterblast-1_all_1_3_11"  />
</g>
<g id="a1_0012"  >
<polygon points="436,185 441,180 455,180 455,190 441,190 436,185 " style="fill:white; stroke-width:1; stroke:black; " description="&lt;b&gt;STM2466&lt;/b&gt;&lt;br&gt;phosphotransacetylase EutD&lt;br&gt;Location: 11585 - 12602" locus_tag="STM2466" class="clusterblast-orf" id="knownclusterblast-1_all_1_3_12"  />
</g>
<g id="a1_0013"  >
<polygon points="455,185 460,180 471,180 471,190 460,190 455,185 " style="fill:white; stroke-width:1; stroke:black; " description="&lt;b&gt;STM2467&lt;/b&gt;&lt;br&gt;cobalamin adenosyltransferase EutT&lt;br&gt;Location: 12598 - 13402" locus_tag="STM2467" class="clusterblast-orf" id="knownclusterblast-1_all_1_3_13"  />
</g>
<g id="a1_0014"  >
<polygon points="471,185 476,180 484,180 484,190 476,190 471,185 " style="fill:white; stroke-width:1; stroke:black; " description="&lt;b&gt;STM2468&lt;/b&gt;&lt;br&gt;ethanolamine utilization protein EutQ&lt;br&gt;Location: 13398 - 14088" locus_tag="STM2468" class="clusterblast-orf" id="knownclusterblast-1_all_1_3_14"  />
</g>
<g id="a1_0015"  >
<polygon points="484,185 489,180 493,180 493,190 489,190 484,185 " style="fill:white; stroke-width:1; stroke:black; " description="&lt;b&gt;STM2469&lt;/b&gt;&lt;br&gt;ethanolamine utilization protein EutP&lt;br&gt;Location: 14065 - 14545" locus_tag="STM2469" class="clusterblast-orf" id="knownclusterblast-1_all_1_3_15"  />
</g>
<g id="a1_0016"  >
<polygon points="493,185 498,180 500,180 500,190 498,190 493,185 " style="fill:white; stroke-width:1; stroke:black; " description="&lt;b&gt;STM2470&lt;/b&gt;&lt;br&gt;carboxysome structural protein EutS&lt;br&gt;Location: 14557 - 14893" locus_tag="STM2470" class="clusterblast-orf" id="knownclusterblast-1_all_1_3_16"  />
</g>
<g id="a1_0017"  >
<polygon points="509,185 514,180 518,180 518,190 514,190 509,185 " style="fill:white; stroke-width:1; stroke:black; " description="&lt;b&gt;STM2471&lt;/b&gt;&lt;br&gt;insertion sequence element IS200 transposase&lt;br&gt;Location: 15373 - 15832" locus_tag="STM2471" class="clusterblast-orf" id="knownclusterblast-1_all_1_3_17"  />
</g>
<g id="a1_0018"  >
<polygon points="522,185 527,180 566,180 566,190 527,190 522,185 " style="fill:white; stroke-width:1; stroke:black; " description="&lt;b&gt;STM2472&lt;/b&gt;&lt;br&gt;malic enzyme&lt;br&gt;Location: 16021 - 18301" locus_tag="STM2472" class="clusterblast-orf" id="knownclusterblast-1_all_1_3_18"  />
</g>
<g label="MGC00000039" description="MGC00000039_c1: Hydroxy-L-proline2proline C. difficile (66% of genes show similarity), PRO" class="clusterblast-cluster"  >
<text x="5" y="220" class="clusterblast-acc"  >
MGC00000039_c1: Hydroxy-L-proline2proline C. difficile (66% of genes show similarity), PRO</text>
<line x1="10" y1="235" x2="778.0" y2="235" style="stroke-width:1; stroke:grey; "  />
</g>
<g id="a1_000"  >
<polygon points="347,235 352,230 362,230 362,240 352,240 347,235 " style="fill:white; stroke-width:1; stroke:black; " description="&lt;b&gt;ctg22_33&lt;/b&gt;&lt;br&gt;NA&lt;br&gt;Location: 14411 - 13607" locus_tag="ctg22_33" class="clusterblast-orf" id="knownclusterblast-1_all_1_4_0"  />
</g>
<g id="a1_001"  >
<polygon points="369,235 374,230 415,230 415,240 374,240 369,235 " style="fill:#d815d8; stroke-width:1; stroke:black; " description="&lt;b&gt;ctg22_32&lt;/b&gt;&lt;br&gt;NA&lt;br&gt;Location: 13283 - 10913&lt;br&gt;&lt;br&gt;&lt;b&gt;BlastP hit with ctg147_13&lt;/b&gt;&lt;br&gt;Percentage identity: 34&lt;br&gt;Percentage coverage: 71&lt;br&gt;BLAST bit score: 390&lt;br&gt;E-value: 1.03e-122" locus_tag="ctg22_32" class="clusterblast-orf" id="knownclusterblast-1_all_1_4_1"  />
</g>
<g id="a1_002"  >
<polygon points="415,235 420,230 432,230 432,240 420,240 415,235 " style="fill:#1515d8; stroke-width:1; stroke:black; " description="&lt;b&gt;ctg22_31&lt;/b&gt;&lt;br&gt;NA&lt;br&gt;Location: 10909 - 10000&lt;br&gt;&lt;br&gt;&lt;b&gt;BlastP hit with ctg147_12&lt;/b&gt;&lt;br&gt;Percentage identity: 34&lt;br&gt;Percentage coverage: 82&lt;br&gt;BLAST bit score: 192&lt;br&gt;E-value: 1.15e-60" locus_tag="ctg22_31" class="clusterblast-orf" id="knownclusterblast-1_all_1_4_2"  />
</g>
<g label="MGC00000043" description="MGC00000043_c1: Phenylacetate to toluene Acidobacteria bacterium (100% of genes show similarity), TOL" class="clusterblast-cluster"  >
<text x="5" y="270" class="clusterblast-acc"  >
MGC00000043_c1: Phenylacetate to toluene Acidobacteria bacterium (100% of genes show similarity), TOL</text>
<line x1="10" y1="285" x2="778.0" y2="285" style="stroke-width:1; stroke:grey; "  />
</g>
<g id="a1_000"  >
<polygon points="354,285 359,280 373,280 373,290 359,290 354,285 " style="fill:#1515d8; stroke-width:1; stroke:black; " description="&lt;b&gt;CXZ00_12385&lt;/b&gt;&lt;br&gt;Phenylacetate decarboxylase activating enzyme&lt;br&gt;Location: 10000 - 10948&lt;br&gt;&lt;br&gt;&lt;b&gt;BlastP hit with ctg147_12&lt;/b&gt;&lt;br&gt;Percentage identity: 38&lt;br&gt;Percentage coverage: 80&lt;br&gt;BLAST bit score: 220&lt;br&gt;E-value: 2.14e-71" locus_tag="CXZ00_12385" class="clusterblast-orf" id="knownclusterblast-1_all_1_5_0"  />
</g>
<g id="a1_001"  >
<polygon points="376,285 381,280 425,280 425,290 381,290 376,285 " style="fill:#d815d8; stroke-width:1; stroke:black; " description="&lt;b&gt;CXZ00_12390&lt;/b&gt;&lt;br&gt;Phenylacetate decarboxylase&lt;br&gt;Location: 11091 - 13611&lt;br&gt;&lt;br&gt;&lt;b&gt;BlastP hit with ctg147_13&lt;/b&gt;&lt;br&gt;Percentage identity: 32&lt;br&gt;Percentage coverage: 54&lt;br&gt;BLAST bit score: 278&lt;br&gt;E-value: 3.67e-81" locus_tag="CXZ00_12390" class="clusterblast-orf" id="knownclusterblast-1_all_1_5_1"  />
</g>
</svg>
