<svg xmlns="http://www.w3.org/2000/svg" xmlns:xlink="http://www.w3.org/1999/xlink" version="1.1" x="0" y="0" height="230" width="800" viewBox="0 0 800 230" preserveAspectRatio="none"  >
<g label="Query sequence" class="clusterblast-cluster"  >
<text x="5" y="20" class="clusterblast-acc"  >
Query sequence</text>
<line x1="10" y1="35" x2="778.0" y2="35" style="stroke-width:1; stroke:grey; "  />
<polygon points="0,40 34,40 39,35 34,30 0,30 0,40 " style="fill:white; stroke-width:1; stroke:black; " description="&lt;b&gt;ctg111_58&lt;/b&gt;&lt;br&gt;ctg111 58&lt;br&gt;Location: 55890 - 56922" locus_tag="ctg111_58" class="clusterblast-orf" id="dummy-1_q0_0_all"  />
<polygon points="38,40 64,40 69,35 64,30 38,30 38,40 " style="fill:white; stroke-width:1; stroke:black; " description="&lt;b&gt;ctg111_59&lt;/b&gt;&lt;br&gt;ctg111 59&lt;br&gt;Location: 56918 - 57737" locus_tag="ctg111_59" class="clusterblast-orf" id="dummy-1_q1_0_all"  />
<polygon points="69,40 101,40 106,35 101,30 69,30 69,40 " style="fill:white; stroke-width:1; stroke:black; " description="&lt;b&gt;ctg111_60&lt;/b&gt;&lt;br&gt;ctg111 60&lt;br&gt;Location: 57736 - 58732" locus_tag="ctg111_60" class="clusterblast-orf" id="dummy-1_q2_0_all"  />
<polygon points="106,40 130,40 135,35 130,30 106,30 106,40 " style="fill:white; stroke-width:1; stroke:black; " description="&lt;b&gt;ctg111_61&lt;/b&gt;&lt;br&gt;ctg111 61&lt;br&gt;Location: 58724 - 59504" locus_tag="ctg111_61" class="clusterblast-orf" id="dummy-1_q3_0_all"  />
<polygon points="181,40 189,40 194,35 189,30 181,30 181,40 " style="fill:white; stroke-width:1; stroke:black; " description="&lt;b&gt;ctg111_62&lt;/b&gt;&lt;br&gt;ctg111 62&lt;br&gt;Location: 60725 - 61058" locus_tag="ctg111_62" class="clusterblast-orf" id="dummy-1_q4_0_all"  />
<polygon points="204,40 295,40 300,35 295,30 204,30 204,40 " style="fill:white; stroke-width:1; stroke:black; " description="&lt;b&gt;ctg111_63&lt;/b&gt;&lt;br&gt;ctg111 63&lt;br&gt;Location: 61326 - 63888" locus_tag="ctg111_63" class="clusterblast-orf" id="dummy-1_q5_0_all"  />
<polygon points="332,35 337,30 341,30 341,40 337,40 332,35 " style="fill:white; stroke-width:1; stroke:black; " description="&lt;b&gt;ctg111_64&lt;/b&gt;&lt;br&gt;ctg111 64&lt;br&gt;Location: 64751 - 64988" locus_tag="ctg111_64" class="clusterblast-orf" id="dummy-1_q6_0_all"  />
<polygon points="341,35 346,30 388,30 388,40 346,40 341,35 " style="fill:#d81515; stroke-width:1; stroke:black; " description="&lt;b&gt;ctg111_65&lt;/b&gt;&lt;br&gt;ctg111 65&lt;br&gt;Location: 64998 - 66237" locus_tag="ctg111_65" class="clusterblast-orf" id="dummy-1_q7_0_all"  />
<polygon points="388,35 393,30 399,30 399,40 393,40 388,35 " style="fill:white; stroke-width:1; stroke:black; " description="&lt;b&gt;ctg111_66&lt;/b&gt;&lt;br&gt;ctg111 66&lt;br&gt;Location: 66239 - 66545" locus_tag="ctg111_66" class="clusterblast-orf" id="dummy-1_q8_0_all"  />
<polygon points="399,35 404,30 421,30 421,40 404,40 399,35 " style="fill:#15d8d8; stroke-width:1; stroke:black; " description="&lt;b&gt;ctg111_67&lt;/b&gt;&lt;br&gt;ctg111 67&lt;br&gt;Location: 66544 - 67138" locus_tag="ctg111_67" class="clusterblast-orf" id="dummy-1_q9_0_all"  />
<polygon points="428,40 438,40 443,35 438,30 428,30 428,40 " style="fill:white; stroke-width:1; stroke:black; " description="&lt;b&gt;ctg111_68&lt;/b&gt;&lt;br&gt;ctg111 68&lt;br&gt;Location: 67311 - 67719" locus_tag="ctg111_68" class="clusterblast-orf" id="dummy-1_q10_0_all"  />
<polygon points="444,35 449,30 477,30 477,40 449,40 444,35 " style="fill:white; stroke-width:1; stroke:black; " description="&lt;b&gt;ctg111_69&lt;/b&gt;&lt;br&gt;ctg111 69&lt;br&gt;Location: 67727 - 68615" locus_tag="ctg111_69" class="clusterblast-orf" id="dummy-1_q11_0_all"  />
<polygon points="481,40 521,40 526,35 521,30 481,30 481,40 " style="fill:white; stroke-width:1; stroke:black; " description="&lt;b&gt;ctg111_70&lt;/b&gt;&lt;br&gt;ctg111 70&lt;br&gt;Location: 68723 - 69926" locus_tag="ctg111_70" class="clusterblast-orf" id="dummy-1_q12_0_all"  />
<polygon points="526,40 535,40 540,35 535,30 526,30 526,40 " style="fill:white; stroke-width:1; stroke:black; " description="&lt;b&gt;ctg111_71&lt;/b&gt;&lt;br&gt;ctg111 71&lt;br&gt;Location: 69922 - 70300" locus_tag="ctg111_71" class="clusterblast-orf" id="dummy-1_q13_0_all"  />
<polygon points="542,35 547,30 579,30 579,40 547,40 542,35 " style="fill:white; stroke-width:1; stroke:black; " description="&lt;b&gt;ctg111_72&lt;/b&gt;&lt;br&gt;ctg111 72&lt;br&gt;Location: 70352 - 71345" locus_tag="ctg111_72" class="clusterblast-orf" id="dummy-1_q14_0_all"  />
<polygon points="585,35 590,30 628,30 628,40 590,40 585,35 " style="fill:white; stroke-width:1; stroke:black; " description="&lt;b&gt;ctg111_73&lt;/b&gt;&lt;br&gt;ctg111 73&lt;br&gt;Location: 71502 - 72639" locus_tag="ctg111_73" class="clusterblast-orf" id="dummy-1_q15_0_all"  />
<polygon points="632,35 637,30 656,30 656,40 637,40 632,35 " style="fill:white; stroke-width:1; stroke:black; " description="&lt;b&gt;ctg111_74&lt;/b&gt;&lt;br&gt;ctg111 74&lt;br&gt;Location: 72764 - 73391" locus_tag="ctg111_74" class="clusterblast-orf" id="dummy-1_q16_0_all"  />
<polygon points="656,35 661,30 684,30 684,40 661,40 656,35 " style="fill:white; stroke-width:1; stroke:black; " description="&lt;b&gt;ctg111_75&lt;/b&gt;&lt;br&gt;ctg111 75&lt;br&gt;Location: 73384 - 74146" locus_tag="ctg111_75" class="clusterblast-orf" id="dummy-1_q17_0_all"  />
<polygon points="683,35 688,30 723,30 723,40 688,40 683,35 " style="fill:white; stroke-width:1; stroke:black; " description="&lt;b&gt;ctg111_76&lt;/b&gt;&lt;br&gt;ctg111 76&lt;br&gt;Location: 74126 - 75176" locus_tag="ctg111_76" class="clusterblast-orf" id="dummy-1_q18_0_all"  />
<polygon points="723,35 728,30 741,30 741,40 728,40 723,35 " style="fill:white; stroke-width:1; stroke:black; " description="&lt;b&gt;ctg111_77&lt;/b&gt;&lt;br&gt;ctg111 77&lt;br&gt;Location: 75172 - 75652" locus_tag="ctg111_77" class="clusterblast-orf" id="dummy-1_q19_0_all"  />
<polygon points="741,35 746,30 767,30 767,40 746,40 741,35 " style="fill:white; stroke-width:1; stroke:black; " description="&lt;b&gt;ctg111_78&lt;/b&gt;&lt;br&gt;ctg111 78&lt;br&gt;Location: 75651 - 76362" locus_tag="ctg111_78" class="clusterblast-orf" id="dummy-1_q20_0_all"  />
<polygon points="768,35 773,30 780,30 780,40 773,40 768,35 " style="fill:white; stroke-width:1; stroke:black; " description="&lt;b&gt;ctg111_79&lt;/b&gt;&lt;br&gt;ctg111 79&lt;br&gt;Location: 76381 - 76699" locus_tag="ctg111_79" class="clusterblast-orf" id="dummy-1_q21_0_all"  />
</g>
<g label="MGC00000059" description="MGC00000059_c1: hydroxybenzoate2phenol K. pneumoniae (100% of genes show similarity), PHE" class="clusterblast-cluster"  >
<text x="5" y="70" class="clusterblast-acc"  >
MGC00000059_c1: hydroxybenzoate2phenol K. pneumoniae (100% of genes show similarity), PHE</text>
<line x1="10" y1="85" x2="778.0" y2="85" style="stroke-width:1; stroke:grey; "  />
</g>
<g id="a1_000"  >
<polygon points="352,85 357,80 405,80 405,90 357,90 352,85 " style="fill:#d81515; stroke-width:1; stroke:black; " description="&lt;b&gt;DBZ61_07575&lt;/b&gt;&lt;br&gt;UbiD family decarboxylase&lt;br&gt;Location: 12021 - 10593&lt;br&gt;&lt;br&gt;&lt;b&gt;BlastP hit with ctg111_65&lt;/b&gt;&lt;br&gt;Percentage identity: 100&lt;br&gt;Percentage coverage: 100&lt;br&gt;BLAST bit score: 847&lt;br&gt;E-value: 3.99e-315" locus_tag="DBZ61_07575" class="clusterblast-orf" id="dummy-1_h1_1_0"  />
</g>
<g id="a1_001"  >
<polygon points="405,85 410,80 427,80 427,90 410,90 405,85 " style="fill:#15d8d8; stroke-width:1; stroke:black; " description="&lt;b&gt;DBZ61_07570&lt;/b&gt;&lt;br&gt;UbiX family flavin prenyltransferase&lt;br&gt;Location: 10594 - 10000&lt;br&gt;&lt;br&gt;&lt;b&gt;BlastP hit with ctg111_67&lt;/b&gt;&lt;br&gt;Percentage identity: 100&lt;br&gt;Percentage coverage: 100&lt;br&gt;BLAST bit score: 388&lt;br&gt;E-value: 5.37e-142" locus_tag="DBZ61_07570" class="clusterblast-orf" id="dummy-1_h1_1_1"  />
</g>
</svg>
