<svg xmlns="http://www.w3.org/2000/svg" xmlns:xlink="http://www.w3.org/1999/xlink" version="1.1" x="0" y="0" height="100" width="800" viewBox="0 0 800 100" preserveAspectRatio="none"  >
<g label="Query sequence" class="clusterblast-cluster"  >
<text x="5" y="20" class="clusterblast-acc"  >
Query sequence</text>
<line x1="10" y1="35" x2="778.0" y2="35" style="stroke-width:1; stroke:grey; "  />
<polygon points="0,35 5,30 34,30 34,40 5,40 0,35 " style="fill:white; stroke-width:1; stroke:black; " description="&lt;b&gt;ctg1_2719&lt;/b&gt;&lt;br&gt;ctg1 2719&lt;br&gt;Location: 2928068 - 2929346" locus_tag="ctg1_2719" class="clusterblast-orf" id="knownclusterblast-16_q0_0_all"  />
<polygon points="34,35 39,30 71,30 71,40 39,40 34,35 " style="fill:white; stroke-width:1; stroke:black; " description="&lt;b&gt;ctg1_2720&lt;/b&gt;&lt;br&gt;ctg1 2720&lt;br&gt;Location: 2929360 - 2930749" locus_tag="ctg1_2720" class="clusterblast-orf" id="knownclusterblast-16_q1_0_all"  />
<polygon points="72,35 77,30 84,30 84,40 77,40 72,35 " style="fill:white; stroke-width:1; stroke:black; " description="&lt;b&gt;ctg1_2721&lt;/b&gt;&lt;br&gt;ctg1 2721&lt;br&gt;Location: 2930776 - 2931220" locus_tag="ctg1_2721" class="clusterblast-orf" id="knownclusterblast-16_q2_0_all"  />
<polygon points="94,40 113,40 118,35 113,30 94,30 94,40 " style="fill:white; stroke-width:1; stroke:black; " description="&lt;b&gt;ctg1_2722&lt;/b&gt;&lt;br&gt;ctg1 2722&lt;br&gt;Location: 2931596 - 2932505" locus_tag="ctg1_2722" class="clusterblast-orf" id="knownclusterblast-16_q3_0_all"  />
<polygon points="120,35 125,30 173,30 173,40 125,40 120,35 " style="fill:white; stroke-width:1; stroke:black; " description="&lt;b&gt;ctg1_2723&lt;/b&gt;&lt;br&gt;ctg1 2723&lt;br&gt;Location: 2932550 - 2934542" locus_tag="ctg1_2723" class="clusterblast-orf" id="knownclusterblast-16_q4_0_all"  />
<polygon points="180,40 196,40 201,35 196,30 180,30 180,40 " style="fill:white; stroke-width:1; stroke:black; " description="&lt;b&gt;ctg1_2724&lt;/b&gt;&lt;br&gt;ctg1 2724&lt;br&gt;Location: 2934819 - 2935578" locus_tag="ctg1_2724" class="clusterblast-orf" id="knownclusterblast-16_q5_0_all"  />
<polygon points="203,35 208,30 245,30 245,40 208,40 203,35 " style="fill:white; stroke-width:1; stroke:black; " description="&lt;b&gt;ctg1_2725&lt;/b&gt;&lt;br&gt;ctg1 2725&lt;br&gt;Location: 2935663 - 2937226" locus_tag="ctg1_2725" class="clusterblast-orf" id="knownclusterblast-16_q6_0_all"  />
<polygon points="249,35 254,30 273,30 273,40 254,40 249,35 " style="fill:#d81515; stroke-width:1; stroke:black; " description="&lt;b&gt;ctg1_2726&lt;/b&gt;&lt;br&gt;ctg1 2726&lt;br&gt;Location: 2937375 - 2938296" locus_tag="ctg1_2726" class="clusterblast-orf" id="knownclusterblast-16_q7_0_all"  />
<polygon points="278,35 283,30 308,30 308,40 283,40 278,35 " style="fill:white; stroke-width:1; stroke:black; " description="&lt;b&gt;ctg1_2727&lt;/b&gt;&lt;br&gt;ctg1 2727&lt;br&gt;Location: 2938486 - 2939599" locus_tag="ctg1_2727" class="clusterblast-orf" id="knownclusterblast-16_q8_0_all"  />
<polygon points="312,35 317,30 317,30 317,40 317,40 312,35 " style="fill:white; stroke-width:1; stroke:black; " description="&lt;b&gt;ctg1_2728&lt;/b&gt;&lt;br&gt;ctg1 2728&lt;br&gt;Location: 2939755 - 2939938" locus_tag="ctg1_2728" class="clusterblast-orf" id="knownclusterblast-16_q9_0_all"  />
<polygon points="324,35 327,30 327,40 324,35 " style="fill:white; stroke-width:1; stroke:black; " description="&lt;b&gt;ctg1_2729&lt;/b&gt;&lt;br&gt;ctg1 2729&lt;br&gt;Location: 2940177 - 2940300" locus_tag="ctg1_2729" class="clusterblast-orf" id="knownclusterblast-16_q10_0_all"  />
<polygon points="327,35 331,30 331,40 327,35 " style="fill:white; stroke-width:1; stroke:black; " description="&lt;b&gt;ctg1_2730&lt;/b&gt;&lt;br&gt;ctg1 2730&lt;br&gt;Location: 2940296 - 2940452" locus_tag="ctg1_2730" class="clusterblast-orf" id="knownclusterblast-16_q11_0_all"  />
<polygon points="345,40 447,40 452,35 447,30 345,30 345,40 " style="fill:white; stroke-width:1; stroke:black; " description="&lt;b&gt;ctg1_2731&lt;/b&gt;&lt;br&gt;ctg1 2731&lt;br&gt;Location: 2940984 - 2944998" locus_tag="ctg1_2731" class="clusterblast-orf" id="knownclusterblast-16_q12_0_all"  />
<polygon points="463,40 466,35 463,30 463,40 " style="fill:white; stroke-width:1; stroke:black; " description="&lt;b&gt;ctg1_2732&lt;/b&gt;&lt;br&gt;ctg1 2732&lt;br&gt;Location: 2945379 - 2945493" locus_tag="ctg1_2732" class="clusterblast-orf" id="knownclusterblast-16_q13_0_all"  />
<polygon points="467,35 472,30 520,30 520,40 472,40 467,35 " style="fill:#15d8d8; stroke-width:1; stroke:black; " description="&lt;b&gt;ctg1_2733&lt;/b&gt;&lt;br&gt;ctg1 2733&lt;br&gt;Location: 2945536 - 2947513" locus_tag="ctg1_2733" class="clusterblast-orf" id="knownclusterblast-16_q14_0_all"  />
<polygon points="533,35 538,30 539,30 539,40 538,40 533,35 " style="fill:white; stroke-width:1; stroke:black; " description="&lt;b&gt;ctg1_2734&lt;/b&gt;&lt;br&gt;ctg1 2734&lt;br&gt;Location: 2947996 - 2948251" locus_tag="ctg1_2734" class="clusterblast-orf" id="knownclusterblast-16_q15_0_all"  />
<polygon points="541,40 567,40 572,35 567,30 541,30 541,40 " style="fill:white; stroke-width:1; stroke:black; " description="&lt;b&gt;ctg1_2735&lt;/b&gt;&lt;br&gt;ctg1 2735&lt;br&gt;Location: 2948306 - 2949461" locus_tag="ctg1_2735" class="clusterblast-orf" id="knownclusterblast-16_q16_0_all"  />
<polygon points="583,40 616,40 621,35 616,30 583,30 583,40 " style="fill:white; stroke-width:1; stroke:black; " description="&lt;b&gt;ctg1_2736&lt;/b&gt;&lt;br&gt;ctg1 2736&lt;br&gt;Location: 2949896 - 2951291" locus_tag="ctg1_2736" class="clusterblast-orf" id="knownclusterblast-16_q17_0_all"  />
<polygon points="624,40 631,40 636,35 631,30 624,30 624,40 " style="fill:white; stroke-width:1; stroke:black; " description="&lt;b&gt;ctg1_2737&lt;/b&gt;&lt;br&gt;ctg1 2737&lt;br&gt;Location: 2951409 - 2951865" locus_tag="ctg1_2737" class="clusterblast-orf" id="knownclusterblast-16_q18_0_all"  />
<polygon points="639,40 653,40 658,35 653,30 639,30 639,40 " style="fill:white; stroke-width:1; stroke:black; " description="&lt;b&gt;ctg1_2738&lt;/b&gt;&lt;br&gt;ctg1 2738&lt;br&gt;Location: 2951959 - 2952667" locus_tag="ctg1_2738" class="clusterblast-orf" id="knownclusterblast-16_q19_0_all"  />
<polygon points="660,40 674,40 679,35 674,30 660,30 660,40 " style="fill:white; stroke-width:1; stroke:black; " description="&lt;b&gt;ctg1_2739&lt;/b&gt;&lt;br&gt;ctg1 2739&lt;br&gt;Location: 2952746 - 2953478" locus_tag="ctg1_2739" class="clusterblast-orf" id="knownclusterblast-16_q20_0_all"  />
<polygon points="680,40 700,40 705,35 700,30 680,30 680,40 " style="fill:white; stroke-width:1; stroke:black; " description="&lt;b&gt;ctg1_2740&lt;/b&gt;&lt;br&gt;ctg1 2740&lt;br&gt;Location: 2953490 - 2954441" locus_tag="ctg1_2740" class="clusterblast-orf" id="knownclusterblast-16_q21_0_all"  />
<polygon points="708,40 718,40 723,35 718,30 708,30 708,40 " style="fill:white; stroke-width:1; stroke:black; " description="&lt;b&gt;ctg1_2741&lt;/b&gt;&lt;br&gt;ctg1 2741&lt;br&gt;Location: 2954549 - 2955113" locus_tag="ctg1_2741" class="clusterblast-orf" id="knownclusterblast-16_q22_0_all"  />
<polygon points="723,40 729,40 734,35 729,30 723,30 723,40 " style="fill:white; stroke-width:1; stroke:black; " description="&lt;b&gt;ctg1_2742&lt;/b&gt;&lt;br&gt;ctg1 2742&lt;br&gt;Location: 2955112 - 2955529" locus_tag="ctg1_2742" class="clusterblast-orf" id="knownclusterblast-16_q23_0_all"  />
<polygon points="734,35 739,30 760,30 760,40 739,40 734,35 " style="fill:white; stroke-width:1; stroke:black; " description="&lt;b&gt;ctg1_2743&lt;/b&gt;&lt;br&gt;ctg1 2743&lt;br&gt;Location: 2955535 - 2956516" locus_tag="ctg1_2743" class="clusterblast-orf" id="knownclusterblast-16_q24_0_all"  />
<polygon points="761,40 775,40 780,35 775,30 761,30 761,40 " style="fill:white; stroke-width:1; stroke:black; " description="&lt;b&gt;ctg1_2744&lt;/b&gt;&lt;br&gt;ctg1 2744&lt;br&gt;Location: 2956533 - 2957238" locus_tag="ctg1_2744" class="clusterblast-orf" id="knownclusterblast-16_q25_0_all"  />
</g>
<g label="MGC00000052" description="MGC00000052_c1: Arginine2putrescine E. coli (50% of genes show similarity), PUTR" class="clusterblast-cluster"  >
<text x="5" y="70" class="clusterblast-acc"  >
MGC00000052_c1: Arginine2putrescine E. coli (50% of genes show similarity), PUTR</text>
<line x1="10" y1="85" x2="778.0" y2="85" style="stroke-width:1; stroke:grey; "  />
</g>
<g id="a16_000"  >
<polygon points="212,85 217,80 225,80 225,90 217,90 212,85 " style="fill:white; stroke-width:1; stroke:black; " description="&lt;b&gt;E2348C_RS17060&lt;/b&gt;&lt;br&gt;mannitol repressor&lt;br&gt;Location: 0 - 510" locus_tag="E2348C_RS17060" class="clusterblast-orf" id="knownclusterblast-16_all_16_1_0"  />
</g>
<g id="a16_001"  >
<polygon points="463,85 468,80 487,80 487,90 468,90 463,85 " style="fill:#d81515; stroke-width:1; stroke:black; " description="&lt;b&gt;E2348C_RS17100&lt;/b&gt;&lt;br&gt;agmatinase&lt;br&gt;Location: 9380 - 10301&lt;br&gt;&lt;br&gt;&lt;b&gt;BlastP hit with ctg1_2726&lt;/b&gt;&lt;br&gt;Percentage identity: 100&lt;br&gt;Percentage coverage: 100&lt;br&gt;BLAST bit score: 625&lt;br&gt;E-value: 4.16e-232" locus_tag="E2348C_RS17100" class="clusterblast-orf" id="knownclusterblast-16_all_16_1_1"  />
</g>
<g id="a16_002"  >
<polygon points="491,85 496,80 510,80 510,90 496,90 491,85 " style="fill:white; stroke-width:1; stroke:black; " description="&lt;b&gt;E2348C_RS17105&lt;/b&gt;&lt;br&gt;hypothetical protein&lt;br&gt;Location: 10436 - 11168" locus_tag="E2348C_RS17105" class="clusterblast-orf" id="knownclusterblast-16_all_16_1_2"  />
</g>
<g id="a16_003"  >
<polygon points="514,85 519,80 567,80 567,90 519,90 514,85 " style="fill:#15d8d8; stroke-width:1; stroke:black; " description="&lt;b&gt;E2348C_RS17110&lt;/b&gt;&lt;br&gt;arginine decarboxylase&lt;br&gt;Location: 11313 - 13290&lt;br&gt;&lt;br&gt;&lt;b&gt;BlastP hit with ctg1_2733&lt;/b&gt;&lt;br&gt;Percentage identity: 100&lt;br&gt;Percentage coverage: 100&lt;br&gt;BLAST bit score: 1308&lt;br&gt;E-value: 0.0" locus_tag="E2348C_RS17110" class="clusterblast-orf" id="knownclusterblast-16_all_16_1_3"  />
</g>
</svg>
