<svg xmlns="http://www.w3.org/2000/svg" xmlns:xlink="http://www.w3.org/1999/xlink" version="1.1" x="0" y="0" height="100" width="800" viewBox="0 0 800 100" preserveAspectRatio="none"  >
<g label="Query sequence" class="clusterblast-cluster"  >
<text x="5" y="20" class="clusterblast-acc"  >
Query sequence</text>
<line x1="10" y1="35" x2="778.0" y2="35" style="stroke-width:1; stroke:grey; "  />
<polygon points="0,35 5,30 23,30 23,40 5,40 0,35 " style="fill:white; stroke-width:1; stroke:black; " description="&lt;b&gt;ctg1_2890&lt;/b&gt;&lt;br&gt;ctg1 2890&lt;br&gt;Location: 3113802 - 3114540" locus_tag="ctg1_2890" class="clusterblast-orf" id="knownclusterblast-17_q0_0_all"  />
<polygon points="44,40 67,40 72,35 67,30 44,30 44,40 " style="fill:white; stroke-width:1; stroke:black; " description="&lt;b&gt;ctg1_2891&lt;/b&gt;&lt;br&gt;ctg1 2891&lt;br&gt;Location: 3115204 - 3116074" locus_tag="ctg1_2891" class="clusterblast-orf" id="knownclusterblast-17_q1_0_all"  />
<polygon points="73,40 109,40 114,35 109,30 73,30 73,40 " style="fill:white; stroke-width:1; stroke:black; " description="&lt;b&gt;ctg1_2892&lt;/b&gt;&lt;br&gt;ctg1 2892&lt;br&gt;Location: 3116106 - 3117393" locus_tag="ctg1_2892" class="clusterblast-orf" id="knownclusterblast-17_q2_0_all"  />
<polygon points="118,40 122,40 127,35 122,30 118,30 118,40 " style="fill:white; stroke-width:1; stroke:black; " description="&lt;b&gt;ctg1_2893&lt;/b&gt;&lt;br&gt;ctg1 2893&lt;br&gt;Location: 3117513 - 3117807" locus_tag="ctg1_2893" class="clusterblast-orf" id="knownclusterblast-17_q3_0_all"  />
<polygon points="133,40 134,40 139,35 134,30 133,30 133,40 " style="fill:white; stroke-width:1; stroke:black; " description="&lt;b&gt;ctg1_2894&lt;/b&gt;&lt;br&gt;ctg1 2894&lt;br&gt;Location: 3118009 - 3118195" locus_tag="ctg1_2894" class="clusterblast-orf" id="knownclusterblast-17_q4_0_all"  />
<polygon points="145,40 146,40 151,35 146,30 145,30 145,40 " style="fill:white; stroke-width:1; stroke:black; " description="&lt;b&gt;ctg1_2895&lt;/b&gt;&lt;br&gt;ctg1 2895&lt;br&gt;Location: 3118380 - 3118545" locus_tag="ctg1_2895" class="clusterblast-orf" id="knownclusterblast-17_q5_0_all"  />
<polygon points="155,40 157,40 162,35 157,30 155,30 155,40 " style="fill:white; stroke-width:1; stroke:black; " description="&lt;b&gt;ctg1_2896&lt;/b&gt;&lt;br&gt;ctg1 2896&lt;br&gt;Location: 3118698 - 3118899" locus_tag="ctg1_2896" class="clusterblast-orf" id="knownclusterblast-17_q6_0_all"  />
<polygon points="163,40 172,40 177,35 172,30 163,30 163,40 " style="fill:white; stroke-width:1; stroke:black; " description="&lt;b&gt;ctg1_2897&lt;/b&gt;&lt;br&gt;ctg1 2897&lt;br&gt;Location: 3118934 - 3119369" locus_tag="ctg1_2897" class="clusterblast-orf" id="knownclusterblast-17_q7_0_all"  />
<polygon points="181,35 186,30 223,30 223,40 186,40 181,35 " style="fill:#d81515; stroke-width:1; stroke:black; " description="&lt;b&gt;ctg1_2898&lt;/b&gt;&lt;br&gt;ctg1 2898&lt;br&gt;Location: 3119514 - 3120825" locus_tag="ctg1_2898" class="clusterblast-orf" id="knownclusterblast-17_q8_0_all"  />
<polygon points="232,35 237,30 274,30 274,40 237,40 232,35 " style="fill:#15d815; stroke-width:1; stroke:black; " description="&lt;b&gt;ctg1_2899&lt;/b&gt;&lt;br&gt;ctg1 2899&lt;br&gt;Location: 3121114 - 3122446" locus_tag="ctg1_2899" class="clusterblast-orf" id="knownclusterblast-17_q9_0_all"  />
<polygon points="275,35 280,30 307,30 307,40 280,40 275,35 " style="fill:#1515d8; stroke-width:1; stroke:black; " description="&lt;b&gt;ctg1_2900&lt;/b&gt;&lt;br&gt;ctg1 2900&lt;br&gt;Location: 3122467 - 3123457" locus_tag="ctg1_2900" class="clusterblast-orf" id="knownclusterblast-17_q10_0_all"  />
<polygon points="329,40 361,40 366,35 361,30 329,30 329,40 " style="fill:white; stroke-width:1; stroke:black; " description="&lt;b&gt;ctg1_2901&lt;/b&gt;&lt;br&gt;ctg1 2901&lt;br&gt;Location: 3124174 - 3125326" locus_tag="ctg1_2901" class="clusterblast-orf" id="knownclusterblast-17_q11_0_all"  />
<polygon points="366,40 386,40 391,35 386,30 366,30 366,40 " style="fill:white; stroke-width:1; stroke:black; " description="&lt;b&gt;ctg1_2902&lt;/b&gt;&lt;br&gt;ctg1 2902&lt;br&gt;Location: 3125335 - 3126103" locus_tag="ctg1_2902" class="clusterblast-orf" id="knownclusterblast-17_q12_0_all"  />
<polygon points="391,40 394,40 399,35 394,30 391,30 391,40 " style="fill:white; stroke-width:1; stroke:black; " description="&lt;b&gt;ctg1_2903&lt;/b&gt;&lt;br&gt;ctg1 2903&lt;br&gt;Location: 3126099 - 3126354" locus_tag="ctg1_2903" class="clusterblast-orf" id="knownclusterblast-17_q13_0_all"  />
<polygon points="403,40 462,40 467,35 462,30 403,30 403,40 " style="fill:white; stroke-width:1; stroke:black; " description="&lt;b&gt;ctg1_2904&lt;/b&gt;&lt;br&gt;ctg1 2904&lt;br&gt;Location: 3126501 - 3128520" locus_tag="ctg1_2904" class="clusterblast-orf" id="knownclusterblast-17_q14_0_all"  />
<polygon points="473,35 478,30 526,30 526,40 478,40 473,35 " style="fill:white; stroke-width:1; stroke:black; " description="&lt;b&gt;ctg1_2905&lt;/b&gt;&lt;br&gt;ctg1 2905&lt;br&gt;Location: 3128701 - 3130366" locus_tag="ctg1_2905" class="clusterblast-orf" id="knownclusterblast-17_q15_0_all"  />
<polygon points="532,40 554,40 559,35 554,30 532,30 532,40 " style="fill:white; stroke-width:1; stroke:black; " description="&lt;b&gt;ctg1_2906&lt;/b&gt;&lt;br&gt;ctg1 2906&lt;br&gt;Location: 3130546 - 3131410" locus_tag="ctg1_2906" class="clusterblast-orf" id="knownclusterblast-17_q16_0_all"  />
<polygon points="560,35 565,30 606,30 606,40 565,40 560,35 " style="fill:white; stroke-width:1; stroke:black; " description="&lt;b&gt;ctg1_2907&lt;/b&gt;&lt;br&gt;ctg1 2907&lt;br&gt;Location: 3131419 - 3132889" locus_tag="ctg1_2907" class="clusterblast-orf" id="knownclusterblast-17_q17_0_all"  />
<polygon points="610,35 615,30 622,30 622,40 615,40 610,35 " style="fill:white; stroke-width:1; stroke:black; " description="&lt;b&gt;ctg1_2908&lt;/b&gt;&lt;br&gt;ctg1 2908&lt;br&gt;Location: 3132991 - 3133381" locus_tag="ctg1_2908" class="clusterblast-orf" id="knownclusterblast-17_q18_0_all"  />
<polygon points="622,35 627,30 668,30 668,40 627,40 622,35 " style="fill:white; stroke-width:1; stroke:black; " description="&lt;b&gt;ctg1_2909&lt;/b&gt;&lt;br&gt;ctg1 2909&lt;br&gt;Location: 3133390 - 3134833" locus_tag="ctg1_2909" class="clusterblast-orf" id="knownclusterblast-17_q19_0_all"  />
<polygon points="674,40 708,40 713,35 708,30 674,30 674,40 " style="fill:white; stroke-width:1; stroke:black; " description="&lt;b&gt;ctg1_2910&lt;/b&gt;&lt;br&gt;ctg1 2910&lt;br&gt;Location: 3135033 - 3136254" locus_tag="ctg1_2910" class="clusterblast-orf" id="knownclusterblast-17_q20_0_all"  />
<polygon points="716,35 721,30 730,30 730,40 721,40 716,35 " style="fill:white; stroke-width:1; stroke:black; " description="&lt;b&gt;ctg1_2911&lt;/b&gt;&lt;br&gt;ctg1 2911&lt;br&gt;Location: 3136343 - 3136784" locus_tag="ctg1_2911" class="clusterblast-orf" id="knownclusterblast-17_q21_0_all"  />
<polygon points="739,40 775,40 780,35 775,30 739,30 739,40 " style="fill:white; stroke-width:1; stroke:black; " description="&lt;b&gt;ctg1_2912&lt;/b&gt;&lt;br&gt;ctg1 2912&lt;br&gt;Location: 3137060 - 3138350" locus_tag="ctg1_2912" class="clusterblast-orf" id="knownclusterblast-17_q22_0_all"  />
</g>
<g label="MGC00000030" description="MGC00000030_c1: Threonine to propionate E. coli (30% of genes show similarity), PROP" class="clusterblast-cluster"  >
<text x="5" y="70" class="clusterblast-acc"  >
MGC00000030_c1: Threonine to propionate E. coli (30% of genes show similarity), PROP</text>
<line x1="10" y1="85" x2="778.0" y2="85" style="stroke-width:1; stroke:grey; "  />
</g>
<g id="a17_000"  >
<polygon points="203,85 208,80 245,80 245,90 208,90 203,85 " style="fill:#d81515; stroke-width:1; stroke:black; " description="&lt;b&gt;L960_3808&lt;/b&gt;&lt;br&gt;hypothetical protein&lt;br&gt;Location: 21726 - 20415&lt;br&gt;&lt;br&gt;&lt;b&gt;BlastP hit with ctg1_2898&lt;/b&gt;&lt;br&gt;Percentage identity: 81&lt;br&gt;Percentage coverage: 100&lt;br&gt;BLAST bit score: 657&lt;br&gt;E-value: 2.08e-240" locus_tag="L960_3808" class="clusterblast-orf" id="knownclusterblast-17_all_17_1_0"  />
</g>
<g id="a17_001"  >
<polygon points="246,85 251,80 288,80 288,90 251,90 246,85 " style="fill:white; stroke-width:1; stroke:black; " description="&lt;b&gt;L960_3807&lt;/b&gt;&lt;br&gt;serine transporter family protein&lt;br&gt;Location: 20388 - 19056" locus_tag="L960_3807" class="clusterblast-orf" id="knownclusterblast-17_all_17_1_1"  />
</g>
<g id="a17_002"  >
<polygon points="297,85 302,80 338,80 338,90 302,90 297,85 " style="fill:white; stroke-width:1; stroke:black; " description="&lt;b&gt;L960_3806&lt;/b&gt;&lt;br&gt;L-serine dehydratase 3&lt;br&gt;Location: 18782 - 17483" locus_tag="L960_3806" class="clusterblast-orf" id="knownclusterblast-17_all_17_1_2"  />
</g>
<g id="a17_003"  >
<polygon points="342,85 347,80 355,80 355,90 347,90 342,85 " style="fill:white; stroke-width:1; stroke:black; " description="&lt;b&gt;L960_3805&lt;/b&gt;&lt;br&gt;hypothetical protein&lt;br&gt;Location: 17346 - 16956" locus_tag="L960_3805" class="clusterblast-orf" id="knownclusterblast-17_all_17_1_3"  />
</g>
<g id="a17_004"  >
<polygon points="355,85 360,80 428,80 428,90 360,90 355,85 " style="fill:white; stroke-width:1; stroke:black; " description="&lt;b&gt;L960_3804&lt;/b&gt;&lt;br&gt;pyruvate formate-lyase 4/2-ketobutyrate formate-lyase&lt;br&gt;Location: 16943 - 14648" locus_tag="L960_3804" class="clusterblast-orf" id="knownclusterblast-17_all_17_1_4"  />
</g>
<g id="a17_005"  >
<polygon points="429,85 434,80 468,80 468,90 434,90 429,85 " style="fill:white; stroke-width:1; stroke:black; " description="&lt;b&gt;L960_3803&lt;/b&gt;&lt;br&gt;propionate/acetate kinase&lt;br&gt;Location: 14615 - 13406" locus_tag="L960_3803" class="clusterblast-orf" id="knownclusterblast-17_all_17_1_5"  />
</g>
<g id="a17_006"  >
<polygon points="468,85 473,80 511,80 511,90 473,90 468,85 " style="fill:#15d815; stroke-width:1; stroke:black; " description="&lt;b&gt;L960_3802&lt;/b&gt;&lt;br&gt;threonine/serine transporter TdcC&lt;br&gt;Location: 13381 - 12049&lt;br&gt;&lt;br&gt;&lt;b&gt;BlastP hit with ctg1_2899&lt;/b&gt;&lt;br&gt;Percentage identity: 88&lt;br&gt;Percentage coverage: 100&lt;br&gt;BLAST bit score: 770&lt;br&gt;E-value: 6.12e-285" locus_tag="L960_3802" class="clusterblast-orf" id="knownclusterblast-17_all_17_1_6"  />
</g>
<g id="a17_007"  >
<polygon points="511,85 516,80 534,80 534,90 516,90 511,85 " style="fill:#1515d8; stroke-width:1; stroke:black; " description="&lt;b&gt;L960_3801&lt;/b&gt;&lt;br&gt;tdcB&lt;br&gt;Location: 12028 - 11323&lt;br&gt;&lt;br&gt;&lt;b&gt;BlastP hit with ctg1_2900&lt;/b&gt;&lt;br&gt;Percentage identity: 88&lt;br&gt;Percentage coverage: 71&lt;br&gt;BLAST bit score: 403&lt;br&gt;E-value: 4.15e-145" locus_tag="L960_3801" class="clusterblast-orf" id="knownclusterblast-17_all_17_1_7"  />
</g>
<g id="a17_008"  >
<polygon points="533,85 538,80 543,80 543,90 538,90 533,85 " style="fill:white; stroke-width:1; stroke:black; " description="&lt;b&gt;L960_3800&lt;/b&gt;&lt;br&gt;threonine ammonia-lyase&lt;br&gt;Location: 11343 - 11037" locus_tag="L960_3800" class="clusterblast-orf" id="knownclusterblast-17_all_17_1_8"  />
</g>
<g id="a17_009"  >
<polygon points="546,85 551,80 576,80 576,90 551,90 546,85 " style="fill:white; stroke-width:1; stroke:black; " description="&lt;b&gt;L960_3799&lt;/b&gt;&lt;br&gt;DNA-binding transcriptional activator TdcA&lt;br&gt;Location: 10939 - 10000" locus_tag="L960_3799" class="clusterblast-orf" id="knownclusterblast-17_all_17_1_9"  />
</g>
</svg>
