<svg xmlns="http://www.w3.org/2000/svg" xmlns:xlink="http://www.w3.org/1999/xlink" version="1.1" x="0" y="0" height="100" width="800" viewBox="0 0 800 100" preserveAspectRatio="none"  >
<g label="Query sequence" class="clusterblast-cluster"  >
<text x="5" y="20" class="clusterblast-acc"  >
Query sequence</text>
<line x1="10" y1="35" x2="778.0" y2="35" style="stroke-width:1; stroke:grey; "  />
<polygon points="0,40 56,40 61,35 56,30 0,30 0,40 " style="fill:white; stroke-width:1; stroke:black; " description="&lt;b&gt;ctg1_2263&lt;/b&gt;&lt;br&gt;ctg1 2263&lt;br&gt;Location: 2440786 - 2442439" locus_tag="ctg1_2263" class="clusterblast-orf" id="knownclusterblast-14_q0_0_all"  />
<polygon points="61,35 66,30 94,30 94,40 66,40 61,35 " style="fill:white; stroke-width:1; stroke:black; " description="&lt;b&gt;ctg1_2264&lt;/b&gt;&lt;br&gt;ctg1 2264&lt;br&gt;Location: 2442446 - 2443349" locus_tag="ctg1_2264" class="clusterblast-orf" id="knownclusterblast-14_q1_0_all"  />
<polygon points="107,35 112,30 139,30 139,40 112,40 107,35 " style="fill:white; stroke-width:1; stroke:black; " description="&lt;b&gt;ctg1_2265&lt;/b&gt;&lt;br&gt;ctg1 2265&lt;br&gt;Location: 2443701 - 2444571" locus_tag="ctg1_2265" class="clusterblast-orf" id="knownclusterblast-14_q2_0_all"  />
<polygon points="139,35 144,30 182,30 182,40 144,40 139,35 " style="fill:white; stroke-width:1; stroke:black; " description="&lt;b&gt;ctg1_2266&lt;/b&gt;&lt;br&gt;ctg1 2266&lt;br&gt;Location: 2444570 - 2445737" locus_tag="ctg1_2266" class="clusterblast-orf" id="knownclusterblast-14_q3_0_all"  />
<polygon points="186,35 191,30 230,30 230,40 191,40 186,35 " style="fill:white; stroke-width:1; stroke:black; " description="&lt;b&gt;ctg1_2267&lt;/b&gt;&lt;br&gt;ctg1 2267&lt;br&gt;Location: 2445830 - 2447048" locus_tag="ctg1_2267" class="clusterblast-orf" id="knownclusterblast-14_q4_0_all"  />
<polygon points="231,35 236,30 334,30 334,40 236,40 231,35 " style="fill:white; stroke-width:1; stroke:black; " description="&lt;b&gt;ctg1_2268&lt;/b&gt;&lt;br&gt;ctg1 2268&lt;br&gt;Location: 2447062 - 2449864" locus_tag="ctg1_2268" class="clusterblast-orf" id="knownclusterblast-14_q5_0_all"  />
<polygon points="344,35 349,30 370,30 370,40 349,40 344,35 " style="fill:#d81515; stroke-width:1; stroke:black; " description="&lt;b&gt;ctg1_2269&lt;/b&gt;&lt;br&gt;ctg1 2269&lt;br&gt;Location: 2450119 - 2450836" locus_tag="ctg1_2269" class="clusterblast-orf" id="knownclusterblast-14_q6_0_all"  />
<polygon points="370,35 375,30 436,30 436,40 375,40 370,35 " style="fill:#15d8d8; stroke-width:1; stroke:black; " description="&lt;b&gt;ctg1_2270&lt;/b&gt;&lt;br&gt;ctg1 2270&lt;br&gt;Location: 2450851 - 2452618" locus_tag="ctg1_2270" class="clusterblast-orf" id="knownclusterblast-14_q7_0_all"  />
<polygon points="436,35 441,30 448,30 448,40 441,40 436,35 " style="fill:white; stroke-width:1; stroke:black; " description="&lt;b&gt;ctg1_2271&lt;/b&gt;&lt;br&gt;ctg1 2271&lt;br&gt;Location: 2452617 - 2452965" locus_tag="ctg1_2271" class="clusterblast-orf" id="knownclusterblast-14_q8_0_all"  />
<polygon points="448,35 453,30 463,30 463,40 453,40 448,35 " style="fill:white; stroke-width:1; stroke:black; " description="&lt;b&gt;ctg1_2272&lt;/b&gt;&lt;br&gt;ctg1 2272&lt;br&gt;Location: 2452958 - 2453363" locus_tag="ctg1_2272" class="clusterblast-orf" id="knownclusterblast-14_q9_0_all"  />
<polygon points="489,40 531,40 536,35 531,30 489,30 489,40 " style="fill:white; stroke-width:1; stroke:black; " description="&lt;b&gt;ctg1_2273&lt;/b&gt;&lt;br&gt;ctg1 2273&lt;br&gt;Location: 2454056 - 2455340" locus_tag="ctg1_2273" class="clusterblast-orf" id="knownclusterblast-14_q10_0_all"  />
<polygon points="556,40 572,40 577,35 572,30 556,30 556,40 " style="fill:white; stroke-width:1; stroke:black; " description="&lt;b&gt;ctg1_2274&lt;/b&gt;&lt;br&gt;ctg1 2274&lt;br&gt;Location: 2455896 - 2456460" locus_tag="ctg1_2274" class="clusterblast-orf" id="knownclusterblast-14_q11_0_all"  />
<polygon points="579,40 664,40 669,35 664,30 579,30 579,40 " style="fill:white; stroke-width:1; stroke:black; " description="&lt;b&gt;ctg1_2275&lt;/b&gt;&lt;br&gt;ctg1 2275&lt;br&gt;Location: 2456518 - 2458969" locus_tag="ctg1_2275" class="clusterblast-orf" id="knownclusterblast-14_q12_0_all"  />
<polygon points="670,40 692,40 697,35 692,30 670,30 670,40 " style="fill:white; stroke-width:1; stroke:black; " description="&lt;b&gt;ctg1_2276&lt;/b&gt;&lt;br&gt;ctg1 2276&lt;br&gt;Location: 2458983 - 2459715" locus_tag="ctg1_2276" class="clusterblast-orf" id="knownclusterblast-14_q13_0_all"  />
<polygon points="697,40 731,40 736,35 731,30 697,30 697,40 " style="fill:white; stroke-width:1; stroke:black; " description="&lt;b&gt;ctg1_2277&lt;/b&gt;&lt;br&gt;ctg1 2277&lt;br&gt;Location: 2459711 - 2460773" locus_tag="ctg1_2277" class="clusterblast-orf" id="knownclusterblast-14_q14_0_all"  />
<polygon points="741,40 775,40 780,35 775,30 741,30 741,40 " style="fill:white; stroke-width:1; stroke:black; " description="&lt;b&gt;ctg1_2278&lt;/b&gt;&lt;br&gt;ctg1 2278&lt;br&gt;Location: 2460921 - 2461968" locus_tag="ctg1_2278" class="clusterblast-orf" id="knownclusterblast-14_q15_0_all"  />
</g>
<g label="MGC00000058" description="MGC00000058_c1: Fumarate2succinate suc dh E. coli (100% of genes show similarity), SUC" class="clusterblast-cluster"  >
<text x="5" y="70" class="clusterblast-acc"  >
MGC00000058_c1: Fumarate2succinate suc dh E. coli (100% of genes show similarity), SUC</text>
<line x1="10" y1="85" x2="778.0" y2="85" style="stroke-width:1; stroke:grey; "  />
</g>
<g id="a14_000"  >
<polygon points="343,85 348,80 370,80 370,90 348,90 343,85 " style="fill:#d81515; stroke-width:1; stroke:black; " description="&lt;b&gt;HMPREF9550_01792&lt;/b&gt;&lt;br&gt;succinate dehydrogenase iron-sulfur subunit&lt;br&gt;Location: 10000 - 10717&lt;br&gt;&lt;br&gt;&lt;b&gt;BlastP hit with ctg1_2269&lt;/b&gt;&lt;br&gt;Percentage identity: 100&lt;br&gt;Percentage coverage: 100&lt;br&gt;BLAST bit score: 496&lt;br&gt;E-value: 1.78e-183" locus_tag="HMPREF9550_01792" class="clusterblast-orf" id="knownclusterblast-14_all_14_1_0"  />
</g>
<g id="a14_001"  >
<polygon points="370,85 375,80 435,80 435,90 375,90 370,85 " style="fill:#15d8d8; stroke-width:1; stroke:black; " description="&lt;b&gt;HMPREF9550_01793&lt;/b&gt;&lt;br&gt;succinate dehydrogenase, flavoprotein subunit&lt;br&gt;Location: 10732 - 12499&lt;br&gt;&lt;br&gt;&lt;b&gt;BlastP hit with ctg1_2270&lt;/b&gt;&lt;br&gt;Percentage identity: 100&lt;br&gt;Percentage coverage: 100&lt;br&gt;BLAST bit score: 1181&lt;br&gt;E-value: 0.0" locus_tag="HMPREF9550_01793" class="clusterblast-orf" id="knownclusterblast-14_all_14_1_1"  />
</g>
</svg>
