<svg xmlns="http://www.w3.org/2000/svg" xmlns:xlink="http://www.w3.org/1999/xlink" version="1.1" x="0" y="0" height="230" width="800" viewBox="0 0 800 230" preserveAspectRatio="none"  >
<g label="Query sequence" class="clusterblast-cluster"  >
<text x="5" y="20" class="clusterblast-acc"  >
Query sequence</text>
<line x1="10" y1="35" x2="778.0" y2="35" style="stroke-width:1; stroke:grey; "  />
<polygon points="0,35 5,30 39,30 39,40 5,40 0,35 " style="fill:white; stroke-width:1; stroke:black; " description="&lt;b&gt;ctg1_651&lt;/b&gt;&lt;br&gt;ctg1 651&lt;br&gt;Location: 726769 - 728476" locus_tag="ctg1_651" class="clusterblast-orf" id="dummy-4_q0_0_all"  />
<polygon points="44,40 84,40 89,35 84,30 44,30 44,40 " style="fill:white; stroke-width:1; stroke:black; " description="&lt;b&gt;ctg1_652&lt;/b&gt;&lt;br&gt;ctg1 652&lt;br&gt;Location: 728695 - 730675" locus_tag="ctg1_652" class="clusterblast-orf" id="dummy-4_q1_0_all"  />
<polygon points="91,40 99,40 104,35 99,30 91,30 91,40 " style="fill:white; stroke-width:1; stroke:black; " description="&lt;b&gt;ctg1_653&lt;/b&gt;&lt;br&gt;ctg1 653&lt;br&gt;Location: 730742 - 731318" locus_tag="ctg1_653" class="clusterblast-orf" id="dummy-4_q2_0_all"  />
<polygon points="107,40 126,40 131,35 126,30 107,30 107,40 " style="fill:white; stroke-width:1; stroke:black; " description="&lt;b&gt;ctg1_654&lt;/b&gt;&lt;br&gt;ctg1 654&lt;br&gt;Location: 731440 - 732484" locus_tag="ctg1_654" class="clusterblast-orf" id="dummy-4_q3_0_all"  />
<polygon points="131,35 136,30 177,30 177,40 136,40 131,35 " style="fill:white; stroke-width:1; stroke:black; " description="&lt;b&gt;ctg1_655&lt;/b&gt;&lt;br&gt;ctg1 655&lt;br&gt;Location: 732502 - 734506" locus_tag="ctg1_655" class="clusterblast-orf" id="dummy-4_q4_0_all"  />
<polygon points="178,35 183,30 199,30 199,40 183,40 178,35 " style="fill:white; stroke-width:1; stroke:black; " description="&lt;b&gt;ctg1_656&lt;/b&gt;&lt;br&gt;ctg1 656&lt;br&gt;Location: 734528 - 735479" locus_tag="ctg1_656" class="clusterblast-orf" id="dummy-4_q5_0_all"  />
<polygon points="206,40 253,40 258,35 253,30 206,30 206,40 " style="fill:#d81515; stroke-width:1; stroke:black; " description="&lt;b&gt;ctg1_657&lt;/b&gt;&lt;br&gt;ctg1 657&lt;br&gt;Location: 735753 - 738033" locus_tag="ctg1_657" class="clusterblast-orf" id="dummy-4_q6_0_all"  />
<polygon points="265,40 267,40 272,35 267,30 265,30 265,40 " style="fill:#77d815; stroke-width:1; stroke:black; " description="&lt;b&gt;ctg1_658&lt;/b&gt;&lt;br&gt;ctg1 658&lt;br&gt;Location: 738327 - 738663" locus_tag="ctg1_658" class="clusterblast-orf" id="dummy-4_q7_0_all"  />
<polygon points="273,40 279,40 284,35 279,30 273,30 273,40 " style="fill:#15d8d8; stroke-width:1; stroke:black; " description="&lt;b&gt;ctg1_659&lt;/b&gt;&lt;br&gt;ctg1 659&lt;br&gt;Location: 738675 - 739155" locus_tag="ctg1_659" class="clusterblast-orf" id="dummy-4_q8_0_all"  />
<polygon points="283,40 294,40 299,35 294,30 283,30 283,40 " style="fill:#7715d8; stroke-width:1; stroke:black; " description="&lt;b&gt;ctg1_660&lt;/b&gt;&lt;br&gt;ctg1 660&lt;br&gt;Location: 739129 - 739831" locus_tag="ctg1_660" class="clusterblast-orf" id="dummy-4_q9_0_all"  />
<polygon points="299,40 313,40 318,35 313,30 299,30 299,40 " style="fill:#d85e15; stroke-width:1; stroke:black; " description="&lt;b&gt;ctg1_661&lt;/b&gt;&lt;br&gt;ctg1 661&lt;br&gt;Location: 739827 - 740631" locus_tag="ctg1_661" class="clusterblast-orf" id="dummy-4_q10_0_all"  />
<polygon points="317,40 336,40 341,35 336,30 317,30 317,40 " style="fill:#d81515; stroke-width:1; stroke:black; " description="&lt;b&gt;ctg1_662&lt;/b&gt;&lt;br&gt;ctg1 662&lt;br&gt;Location: 740627 - 741644" locus_tag="ctg1_662" class="clusterblast-orf" id="dummy-4_q11_0_all"  />
<polygon points="341,40 343,40 348,35 343,30 341,30 341,40 " style="fill:#2ed815; stroke-width:1; stroke:black; " description="&lt;b&gt;ctg1_663&lt;/b&gt;&lt;br&gt;ctg1 663&lt;br&gt;Location: 741640 - 741976" locus_tag="ctg1_663" class="clusterblast-orf" id="dummy-4_q12_0_all"  />
<polygon points="351,40 352,40 357,35 352,30 351,30 351,40 " style="fill:#158fd8; stroke-width:1; stroke:black; " description="&lt;b&gt;ctg1_664&lt;/b&gt;&lt;br&gt;ctg1 664&lt;br&gt;Location: 742082 - 742370" locus_tag="ctg1_664" class="clusterblast-orf" id="dummy-4_q13_0_all"  />
<polygon points="358,40 385,40 390,35 385,30 358,30 358,40 " style="fill:#c015d8; stroke-width:1; stroke:black; " description="&lt;b&gt;ctg1_665&lt;/b&gt;&lt;br&gt;ctg1 665&lt;br&gt;Location: 742381 - 743785" locus_tag="ctg1_665" class="clusterblast-orf" id="dummy-4_q14_0_all"  />
<polygon points="390,40 404,40 409,35 404,30 390,30 390,40 " style="fill:#d8a715; stroke-width:1; stroke:black; " description="&lt;b&gt;ctg1_666&lt;/b&gt;&lt;br&gt;ctg1 666&lt;br&gt;Location: 743795 - 744632" locus_tag="ctg1_666" class="clusterblast-orf" id="dummy-4_q15_0_all"  />
<polygon points="409,40 431,40 436,35 431,30 409,30 409,40 " style="fill:#15d846; stroke-width:1; stroke:black; " description="&lt;b&gt;ctg1_667&lt;/b&gt;&lt;br&gt;ctg1 667&lt;br&gt;Location: 744621 - 745809" locus_tag="ctg1_667" class="clusterblast-orf" id="dummy-4_q16_0_all"  />
<polygon points="439,40 462,40 467,35 462,30 439,30 439,40 " style="fill:#1546d8; stroke-width:1; stroke:black; " description="&lt;b&gt;ctg1_668&lt;/b&gt;&lt;br&gt;ctg1 668&lt;br&gt;Location: 745925 - 747152" locus_tag="ctg1_668" class="clusterblast-orf" id="dummy-4_q17_0_all"  />
<polygon points="467,40 494,40 499,35 494,30 467,30 467,40 " style="fill:#d815a7; stroke-width:1; stroke:black; " description="&lt;b&gt;ctg1_669&lt;/b&gt;&lt;br&gt;ctg1 669&lt;br&gt;Location: 747148 - 748552" locus_tag="ctg1_669" class="clusterblast-orf" id="dummy-4_q18_0_all"  />
<polygon points="499,40 526,40 531,35 526,30 499,30 499,40 " style="fill:#c0d815; stroke-width:1; stroke:black; " description="&lt;b&gt;ctg1_670&lt;/b&gt;&lt;br&gt;ctg1 670&lt;br&gt;Location: 748563 - 749925" locus_tag="ctg1_670" class="clusterblast-orf" id="dummy-4_q19_0_all"  />
<polygon points="531,40 547,40 552,35 547,30 531,30 531,40 " style="fill:#15d88f; stroke-width:1; stroke:black; " description="&lt;b&gt;ctg1_671&lt;/b&gt;&lt;br&gt;ctg1 671&lt;br&gt;Location: 749945 - 750833" locus_tag="ctg1_671" class="clusterblast-orf" id="dummy-4_q20_0_all"  />
<polygon points="552,40 562,40 567,35 562,30 552,30 552,40 " style="fill:#2e15d8; stroke-width:1; stroke:black; " description="&lt;b&gt;ctg1_672&lt;/b&gt;&lt;br&gt;ctg1 672&lt;br&gt;Location: 750842 - 751502" locus_tag="ctg1_672" class="clusterblast-orf" id="dummy-4_q21_0_all"  />
<polygon points="567,40 574,40 579,35 574,30 567,30 567,40 " style="fill:#2ed815; stroke-width:1; stroke:black; " description="&lt;b&gt;ctg1_673&lt;/b&gt;&lt;br&gt;ctg1 673&lt;br&gt;Location: 751514 - 752015" locus_tag="ctg1_673" class="clusterblast-orf" id="dummy-4_q22_0_all"  />
<polygon points="580,40 599,40 604,35 599,30 580,30 580,40 " style="fill:#d8155e; stroke-width:1; stroke:black; " description="&lt;b&gt;ctg1_674&lt;/b&gt;&lt;br&gt;ctg1 674&lt;br&gt;Location: 752060 - 753113" locus_tag="ctg1_674" class="clusterblast-orf" id="dummy-4_q23_0_all"  />
<polygon points="606,35 611,30 613,30 613,40 611,40 606,35 " style="fill:white; stroke-width:1; stroke:black; " description="&lt;b&gt;ctg1_675&lt;/b&gt;&lt;br&gt;ctg1 675&lt;br&gt;Location: 753189 - 753507" locus_tag="ctg1_675" class="clusterblast-orf" id="dummy-4_q24_0_all"  />
<polygon points="614,35 619,30 643,30 643,40 619,40 614,35 " style="fill:white; stroke-width:1; stroke:black; " description="&lt;b&gt;ctg1_676&lt;/b&gt;&lt;br&gt;ctg1 676&lt;br&gt;Location: 753545 - 754808" locus_tag="ctg1_676" class="clusterblast-orf" id="dummy-4_q25_0_all"  />
<polygon points="646,35 651,30 666,30 666,40 651,40 646,35 " style="fill:white; stroke-width:1; stroke:black; " description="&lt;b&gt;ctg1_677&lt;/b&gt;&lt;br&gt;ctg1 677&lt;br&gt;Location: 754945 - 755845" locus_tag="ctg1_677" class="clusterblast-orf" id="dummy-4_q26_0_all"  />
<polygon points="667,35 672,30 686,30 686,40 672,40 667,35 " style="fill:white; stroke-width:1; stroke:black; " description="&lt;b&gt;ctg1_678&lt;/b&gt;&lt;br&gt;ctg1 678&lt;br&gt;Location: 755848 - 756718" locus_tag="ctg1_678" class="clusterblast-orf" id="dummy-4_q27_0_all"  />
<polygon points="691,40 696,40 701,35 696,30 691,30 691,40 " style="fill:white; stroke-width:1; stroke:black; " description="&lt;b&gt;ctg1_679&lt;/b&gt;&lt;br&gt;ctg1 679&lt;br&gt;Location: 756930 - 757356" locus_tag="ctg1_679" class="clusterblast-orf" id="dummy-4_q28_0_all"  />
<polygon points="701,40 706,40 711,35 706,30 701,30 701,40 " style="fill:white; stroke-width:1; stroke:black; " description="&lt;b&gt;ctg1_680&lt;/b&gt;&lt;br&gt;ctg1 680&lt;br&gt;Location: 757342 - 757792" locus_tag="ctg1_680" class="clusterblast-orf" id="dummy-4_q29_0_all"  />
<polygon points="712,40 721,40 726,35 721,30 712,30 712,40 " style="fill:white; stroke-width:1; stroke:black; " description="&lt;b&gt;ctg1_681&lt;/b&gt;&lt;br&gt;ctg1 681&lt;br&gt;Location: 757852 - 758428" locus_tag="ctg1_681" class="clusterblast-orf" id="dummy-4_q30_0_all"  />
<polygon points="728,40 743,40 748,35 743,30 728,30 728,40 " style="fill:white; stroke-width:1; stroke:black; " description="&lt;b&gt;ctg1_682&lt;/b&gt;&lt;br&gt;ctg1 682&lt;br&gt;Location: 758523 - 759423" locus_tag="ctg1_682" class="clusterblast-orf" id="dummy-4_q31_0_all"  />
<polygon points="751,35 756,30 780,30 780,40 756,40 751,35 " style="fill:white; stroke-width:1; stroke:black; " description="&lt;b&gt;ctg1_683&lt;/b&gt;&lt;br&gt;ctg1 683&lt;br&gt;Location: 759519 - 760785" locus_tag="ctg1_683" class="clusterblast-orf" id="dummy-4_q32_0_all"  />
</g>
<g label="MGC0000001" description="MGC0000001_c1: Trimethylamine synthesis C. sporogenes (33% of genes show similarity), TMA" class="clusterblast-cluster"  >
<text x="5" y="70" class="clusterblast-acc"  >
MGC0000001_c1: Trimethylamine synthesis C. sporogenes (33% of genes show similarity), TMA</text>
<line x1="10" y1="85" x2="778.0" y2="85" style="stroke-width:1; stroke:grey; "  />
</g>
<g id="a4_000"  >
<polygon points="324,90 324,85 324,80 324,90 " style="fill:#2ed815; stroke-width:1; stroke:black; " description="&lt;b&gt;CLOSPO_RS07620&lt;/b&gt;&lt;br&gt;hypothetical protein&lt;br&gt;Location: 0 - 4&lt;br&gt;&lt;br&gt;&lt;b&gt;BlastP hit with ctg1_663&lt;/b&gt;&lt;br&gt;Percentage identity: 54&lt;br&gt;Percentage coverage: 78&lt;br&gt;BLAST bit score: 83&lt;br&gt;E-value: 4.5e-24&lt;br&gt;&lt;br&gt;&lt;b&gt;BlastP hit with ctg1_673&lt;/b&gt;&lt;br&gt;Percentage identity: 40&lt;br&gt;Percentage coverage: 54&lt;br&gt;BLAST bit score: 67&lt;br&gt;E-value: 7.04e-17" locus_tag="CLOSPO_RS07620" class="clusterblast-orf" id="dummy-4_h4_3_0"  />
</g>
<g id="a4_001"  >
<polygon points="325,90 354,90 359,85 354,80 325,80 325,90 " style="fill:white; stroke-width:1; stroke:black; " description="&lt;b&gt;CLOSPO_RS07625&lt;/b&gt;&lt;br&gt;acetaldehyde dehydrogenase&lt;br&gt;Location: 41 - 1523" locus_tag="CLOSPO_RS07625" class="clusterblast-orf" id="dummy-4_h4_3_1"  />
</g>
<g id="a4_002"  >
<polygon points="360,90 413,90 418,85 413,80 360,80 360,90 " style="fill:white; stroke-width:1; stroke:black; " description="&lt;b&gt;CLOSPO_RS07630&lt;/b&gt;&lt;br&gt;choline trimethylamine-lyase&lt;br&gt;Location: 1572 - 4113" locus_tag="CLOSPO_RS07630" class="clusterblast-orf" id="dummy-4_h4_3_2"  />
</g>
<g id="a4_003"  >
<polygon points="423,90 439,90 444,85 439,80 423,80 423,90 " style="fill:white; stroke-width:1; stroke:black; " description="&lt;b&gt;CLOSPO_RS07635&lt;/b&gt;&lt;br&gt;choline TMA-lyase-activating enzyme&lt;br&gt;Location: 4294 - 5248" locus_tag="CLOSPO_RS07635" class="clusterblast-orf" id="dummy-4_h4_3_3"  />
</g>
<g id="a4_004"  >
<polygon points="445,90 448,90 453,85 448,80 445,80 445,90 " style="fill:#77d815; stroke-width:1; stroke:black; " description="&lt;b&gt;CLOSPO_RS07640&lt;/b&gt;&lt;br&gt;propanediol utilization protein PduU&lt;br&gt;Location: 5287 - 5641&lt;br&gt;&lt;br&gt;&lt;b&gt;BlastP hit with ctg1_658&lt;/b&gt;&lt;br&gt;Percentage identity: 51&lt;br&gt;Percentage coverage: 97&lt;br&gt;BLAST bit score: 116&lt;br&gt;E-value: 6.11e-37" locus_tag="CLOSPO_RS07640" class="clusterblast-orf" id="dummy-4_h4_3_4"  />
</g>
<g id="a4_005"  >
<polygon points="453,90 455,85 453,80 453,90 " style="fill:white; stroke-width:1; stroke:black; " description="&lt;b&gt;CLOSPO_RS07645&lt;/b&gt;&lt;br&gt;hypothetical protein&lt;br&gt;Location: 5637 - 5704" locus_tag="CLOSPO_RS07645" class="clusterblast-orf" id="dummy-4_h4_3_5"  />
</g>
</svg>
