<svg xmlns="http://www.w3.org/2000/svg" xmlns:xlink="http://www.w3.org/1999/xlink" version="1.1" x="0" y="0" height="230" width="800" viewBox="0 0 800 230" preserveAspectRatio="none"  >
<g label="Query sequence" class="clusterblast-cluster"  >
<text x="5" y="20" class="clusterblast-acc"  >
Query sequence</text>
<line x1="10" y1="35" x2="778.0" y2="35" style="stroke-width:1; stroke:grey; "  />
<polygon points="0,40 34,40 39,35 34,30 0,30 0,40 " style="fill:white; stroke-width:1; stroke:black; " description="&lt;b&gt;ctg1_1387&lt;/b&gt;&lt;br&gt;ctg1 1387&lt;br&gt;Location: 1516058 - 1517207" locus_tag="ctg1_1387" class="clusterblast-orf" id="dummy-10_q0_0_all"  />
<polygon points="38,40 43,40 48,35 43,30 38,30 38,40 " style="fill:white; stroke-width:1; stroke:black; " description="&lt;b&gt;ctg1_1388&lt;/b&gt;&lt;br&gt;ctg1 1388&lt;br&gt;Location: 1517196 - 1517487" locus_tag="ctg1_1388" class="clusterblast-orf" id="dummy-10_q1_0_all"  />
<polygon points="50,40 76,40 81,35 76,30 50,30 50,40 " style="fill:white; stroke-width:1; stroke:black; " description="&lt;b&gt;ctg1_1389&lt;/b&gt;&lt;br&gt;ctg1 1389&lt;br&gt;Location: 1517551 - 1518478" locus_tag="ctg1_1389" class="clusterblast-orf" id="dummy-10_q2_0_all"  />
<polygon points="84,40 126,40 131,35 126,30 84,30 84,40 " style="fill:white; stroke-width:1; stroke:black; " description="&lt;b&gt;ctg1_1390&lt;/b&gt;&lt;br&gt;ctg1 1390&lt;br&gt;Location: 1518557 - 1519940" locus_tag="ctg1_1390" class="clusterblast-orf" id="dummy-10_q3_0_all"  />
<polygon points="131,40 142,40 147,35 142,30 131,30 131,40 " style="fill:white; stroke-width:1; stroke:black; " description="&lt;b&gt;ctg1_1391&lt;/b&gt;&lt;br&gt;ctg1 1391&lt;br&gt;Location: 1519939 - 1520425" locus_tag="ctg1_1391" class="clusterblast-orf" id="dummy-10_q4_0_all"  />
<polygon points="147,40 177,40 182,35 177,30 147,30 147,40 " style="fill:white; stroke-width:1; stroke:black; " description="&lt;b&gt;ctg1_1392&lt;/b&gt;&lt;br&gt;ctg1 1392&lt;br&gt;Location: 1520434 - 1521451" locus_tag="ctg1_1392" class="clusterblast-orf" id="dummy-10_q5_0_all"  />
<polygon points="182,40 203,40 208,35 203,30 182,30 182,40 " style="fill:white; stroke-width:1; stroke:black; " description="&lt;b&gt;ctg1_1393&lt;/b&gt;&lt;br&gt;ctg1 1393&lt;br&gt;Location: 1521460 - 1522234" locus_tag="ctg1_1393" class="clusterblast-orf" id="dummy-10_q6_0_all"  />
<polygon points="207,35 212,30 223,30 223,40 212,40 207,35 " style="fill:white; stroke-width:1; stroke:black; " description="&lt;b&gt;ctg1_1394&lt;/b&gt;&lt;br&gt;ctg1 1394&lt;br&gt;Location: 1522199 - 1522679" locus_tag="ctg1_1394" class="clusterblast-orf" id="dummy-10_q7_0_all"  />
<polygon points="225,35 230,30 263,30 263,40 230,40 225,35 " style="fill:white; stroke-width:1; stroke:black; " description="&lt;b&gt;ctg1_1395&lt;/b&gt;&lt;br&gt;ctg1 1395&lt;br&gt;Location: 1522738 - 1523854" locus_tag="ctg1_1395" class="clusterblast-orf" id="dummy-10_q8_0_all"  />
<polygon points="274,35 279,30 302,30 302,40 279,40 274,35 " style="fill:white; stroke-width:1; stroke:black; " description="&lt;b&gt;ctg1_1396&lt;/b&gt;&lt;br&gt;ctg1 1396&lt;br&gt;Location: 1524192 - 1525017" locus_tag="ctg1_1396" class="clusterblast-orf" id="dummy-10_q9_0_all"  />
<polygon points="312,40 326,40 331,35 326,30 312,30 312,40 " style="fill:#d81515; stroke-width:1; stroke:black; " description="&lt;b&gt;ctg1_1397&lt;/b&gt;&lt;br&gt;ctg1 1397&lt;br&gt;Location: 1525305 - 1525893" locus_tag="ctg1_1397" class="clusterblast-orf" id="dummy-10_q10_0_all"  />
<polygon points="333,40 409,40 414,35 409,30 333,30 333,40 " style="fill:#d81515; stroke-width:1; stroke:black; " description="&lt;b&gt;ctg1_1398&lt;/b&gt;&lt;br&gt;ctg1 1398&lt;br&gt;Location: 1525941 - 1528353" locus_tag="ctg1_1398" class="clusterblast-orf" id="dummy-10_q11_0_all"  />
<polygon points="415,40 440,40 445,35 440,30 415,30 415,40 " style="fill:#15d815; stroke-width:1; stroke:black; " description="&lt;b&gt;ctg1_1399&lt;/b&gt;&lt;br&gt;ctg1 1399&lt;br&gt;Location: 1528365 - 1529250" locus_tag="ctg1_1399" class="clusterblast-orf" id="dummy-10_q12_0_all"  />
<polygon points="444,40 461,40 466,35 461,30 444,30 444,40 " style="fill:#1515d8; stroke-width:1; stroke:black; " description="&lt;b&gt;ctg1_1400&lt;/b&gt;&lt;br&gt;ctg1 1400&lt;br&gt;Location: 1529242 - 1529896" locus_tag="ctg1_1400" class="clusterblast-orf" id="dummy-10_q13_0_all"  />
<polygon points="468,35 473,30 478,30 478,40 473,40 468,35 " style="fill:white; stroke-width:1; stroke:black; " description="&lt;b&gt;ctg1_1401&lt;/b&gt;&lt;br&gt;ctg1 1401&lt;br&gt;Location: 1529946 - 1530231" locus_tag="ctg1_1401" class="clusterblast-orf" id="dummy-10_q14_0_all"  />
<polygon points="478,35 483,30 487,30 487,40 483,40 478,35 " style="fill:white; stroke-width:1; stroke:black; " description="&lt;b&gt;ctg1_1402&lt;/b&gt;&lt;br&gt;ctg1 1402&lt;br&gt;Location: 1530230 - 1530509" locus_tag="ctg1_1402" class="clusterblast-orf" id="dummy-10_q15_0_all"  />
<polygon points="490,40 491,40 496,35 491,30 490,30 490,40 " style="fill:white; stroke-width:1; stroke:black; " description="&lt;b&gt;ctg1_1403&lt;/b&gt;&lt;br&gt;ctg1 1403&lt;br&gt;Location: 1530604 - 1530775" locus_tag="ctg1_1403" class="clusterblast-orf" id="dummy-10_q16_0_all"  />
<polygon points="493,35 498,30 527,30 527,40 498,40 493,35 " style="fill:white; stroke-width:1; stroke:black; " description="&lt;b&gt;ctg1_1404&lt;/b&gt;&lt;br&gt;ctg1 1404&lt;br&gt;Location: 1530694 - 1531705" locus_tag="ctg1_1404" class="clusterblast-orf" id="dummy-10_q17_0_all"  />
<polygon points="532,35 537,30 589,30 589,40 537,40 532,35 " style="fill:white; stroke-width:1; stroke:black; " description="&lt;b&gt;ctg1_1405&lt;/b&gt;&lt;br&gt;ctg1 1405&lt;br&gt;Location: 1531838 - 1533536" locus_tag="ctg1_1405" class="clusterblast-orf" id="dummy-10_q18_0_all"  />
<polygon points="594,35 599,30 599,30 599,40 599,40 594,35 " style="fill:white; stroke-width:1; stroke:black; " description="&lt;b&gt;ctg1_1406&lt;/b&gt;&lt;br&gt;ctg1 1406&lt;br&gt;Location: 1533692 - 1533830" locus_tag="ctg1_1406" class="clusterblast-orf" id="dummy-10_q19_0_all"  />
<polygon points="602,35 607,30 610,30 610,40 607,40 602,35 " style="fill:white; stroke-width:1; stroke:black; " description="&lt;b&gt;ctg1_1407&lt;/b&gt;&lt;br&gt;ctg1 1407&lt;br&gt;Location: 1533931 - 1534147" locus_tag="ctg1_1407" class="clusterblast-orf" id="dummy-10_q20_0_all"  />
<polygon points="621,40 631,40 636,35 631,30 621,30 621,40 " style="fill:white; stroke-width:1; stroke:black; " description="&lt;b&gt;ctg1_1408&lt;/b&gt;&lt;br&gt;ctg1 1408&lt;br&gt;Location: 1534489 - 1534921" locus_tag="ctg1_1408" class="clusterblast-orf" id="dummy-10_q21_0_all"  />
<polygon points="644,35 649,30 675,30 675,40 649,40 644,35 " style="fill:white; stroke-width:1; stroke:black; " description="&lt;b&gt;ctg1_1409&lt;/b&gt;&lt;br&gt;ctg1 1409&lt;br&gt;Location: 1535155 - 1536079" locus_tag="ctg1_1409" class="clusterblast-orf" id="dummy-10_q22_0_all"  />
<polygon points="681,35 686,30 702,30 702,40 686,40 681,35 " style="fill:white; stroke-width:1; stroke:black; " description="&lt;b&gt;ctg1_1410&lt;/b&gt;&lt;br&gt;ctg1 1410&lt;br&gt;Location: 1536268 - 1536889" locus_tag="ctg1_1410" class="clusterblast-orf" id="dummy-10_q23_0_all"  />
<polygon points="702,35 707,30 727,30 727,40 707,40 702,35 " style="fill:white; stroke-width:1; stroke:black; " description="&lt;b&gt;ctg1_1411&lt;/b&gt;&lt;br&gt;ctg1 1411&lt;br&gt;Location: 1536885 - 1537626" locus_tag="ctg1_1411" class="clusterblast-orf" id="dummy-10_q24_0_all"  />
<polygon points="735,40 775,40 780,35 775,30 735,30 735,40 " style="fill:white; stroke-width:1; stroke:black; " description="&lt;b&gt;ctg1_1412&lt;/b&gt;&lt;br&gt;ctg1 1412&lt;br&gt;Location: 1537854 - 1539198" locus_tag="ctg1_1412" class="clusterblast-orf" id="dummy-10_q25_0_all"  />
</g>
<g label="MGC00000049" description="MGC00000049_c1: Formate dehydrogenase E. coli (100% of genes show similarity), FORM" class="clusterblast-cluster"  >
<text x="5" y="70" class="clusterblast-acc"  >
MGC00000049_c1: Formate dehydrogenase E. coli (100% of genes show similarity), FORM</text>
<line x1="10" y1="85" x2="778.0" y2="85" style="stroke-width:1; stroke:grey; "  />
</g>
<g id="a10_000"  >
<polygon points="312,90 410,90 415,85 410,80 312,80 312,90 " style="fill:#d81515; stroke-width:1; stroke:black; " description="&lt;b&gt;b3894&lt;/b&gt;&lt;br&gt;formate dehydrogenase O subunit alpha&lt;br&gt;Location: 14598 - 11547&lt;br&gt;&lt;br&gt;&lt;b&gt;BlastP hit with ctg1_1397&lt;/b&gt;&lt;br&gt;Percentage identity: 82&lt;br&gt;Percentage coverage: 100&lt;br&gt;BLAST bit score: 344&lt;br&gt;E-value: 9.31e-115&lt;br&gt;&lt;br&gt;&lt;b&gt;BlastP hit with ctg1_1398&lt;/b&gt;&lt;br&gt;Percentage identity: 75&lt;br&gt;Percentage coverage: 100&lt;br&gt;BLAST bit score: 1297&lt;br&gt;E-value: 0.0" locus_tag="b3894" class="clusterblast-orf" id="dummy-10_h10_1_0"  />
</g>
<g id="a10_001"  >
<polygon points="415,90 441,90 446,85 441,80 415,80 415,90 " style="fill:#15d815; stroke-width:1; stroke:black; " description="&lt;b&gt;b3893&lt;/b&gt;&lt;br&gt;formate dehydrogenase O subunit beta&lt;br&gt;Location: 11535 - 10632&lt;br&gt;&lt;br&gt;&lt;b&gt;BlastP hit with ctg1_1399&lt;/b&gt;&lt;br&gt;Percentage identity: 78&lt;br&gt;Percentage coverage: 100&lt;br&gt;BLAST bit score: 498&lt;br&gt;E-value: 5.75e-182" locus_tag="b3893" class="clusterblast-orf" id="dummy-10_h10_1_1"  />
</g>
<g id="a10_002"  >
<polygon points="446,90 462,90 467,85 462,80 446,80 446,90 " style="fill:#1515d8; stroke-width:1; stroke:black; " description="&lt;b&gt;b3892&lt;/b&gt;&lt;br&gt;formate dehydrogenase O subunit gamma&lt;br&gt;Location: 10636 - 10000&lt;br&gt;&lt;br&gt;&lt;b&gt;BlastP hit with ctg1_1400&lt;/b&gt;&lt;br&gt;Percentage identity: 49&lt;br&gt;Percentage coverage: 97&lt;br&gt;BLAST bit score: 215&lt;br&gt;E-value: 4.13e-73" locus_tag="b3892" class="clusterblast-orf" id="dummy-10_h10_1_2"  />
</g>
</svg>
