<svg xmlns="http://www.w3.org/2000/svg" xmlns:xlink="http://www.w3.org/1999/xlink" version="1.1" x="0" y="0" height="230" width="800" viewBox="0 0 800 230" preserveAspectRatio="none"  >
<g label="Query sequence" class="clusterblast-cluster"  >
<text x="5" y="20" class="clusterblast-acc"  >
Query sequence</text>
<line x1="10" y1="35" x2="778.0" y2="35" style="stroke-width:1; stroke:grey; "  />
<polygon points="0,40 47,40 52,35 47,30 0,30 0,40 " style="fill:white; stroke-width:1; stroke:black; " description="&lt;b&gt;ctg1_290&lt;/b&gt;&lt;br&gt;ctg1 290&lt;br&gt;Location: 330458 - 331886" locus_tag="ctg1_290" class="clusterblast-orf" id="dummy-3_q0_0_all"  />
<polygon points="52,40 69,40 74,35 69,30 52,30 52,40 " style="fill:white; stroke-width:1; stroke:black; " description="&lt;b&gt;ctg1_291&lt;/b&gt;&lt;br&gt;ctg1 291&lt;br&gt;Location: 331885 - 332491" locus_tag="ctg1_291" class="clusterblast-orf" id="dummy-3_q1_0_all"  />
<polygon points="75,40 82,40 87,35 82,30 75,30 75,40 " style="fill:white; stroke-width:1; stroke:black; " description="&lt;b&gt;ctg1_292&lt;/b&gt;&lt;br&gt;ctg1 292&lt;br&gt;Location: 332540 - 332864" locus_tag="ctg1_292" class="clusterblast-orf" id="dummy-3_q2_0_all"  />
<polygon points="94,40 100,40 105,35 100,30 94,30 94,40 " style="fill:white; stroke-width:1; stroke:black; " description="&lt;b&gt;ctg1_293&lt;/b&gt;&lt;br&gt;ctg1 293&lt;br&gt;Location: 333038 - 333350" locus_tag="ctg1_293" class="clusterblast-orf" id="dummy-3_q3_0_all"  />
<polygon points="106,40 126,40 131,35 126,30 106,30 106,40 " style="fill:white; stroke-width:1; stroke:black; " description="&lt;b&gt;ctg1_294&lt;/b&gt;&lt;br&gt;ctg1 294&lt;br&gt;Location: 333368 - 334079" locus_tag="ctg1_294" class="clusterblast-orf" id="dummy-3_q4_0_all"  />
<polygon points="131,40 144,40 149,35 144,30 131,30 131,40 " style="fill:white; stroke-width:1; stroke:black; " description="&lt;b&gt;ctg1_295&lt;/b&gt;&lt;br&gt;ctg1 295&lt;br&gt;Location: 334078 - 334558" locus_tag="ctg1_295" class="clusterblast-orf" id="dummy-3_q5_0_all"  />
<polygon points="149,40 182,40 187,35 182,30 149,30 149,40 " style="fill:white; stroke-width:1; stroke:black; " description="&lt;b&gt;ctg1_296&lt;/b&gt;&lt;br&gt;ctg1 296&lt;br&gt;Location: 334554 - 335604" locus_tag="ctg1_296" class="clusterblast-orf" id="dummy-3_q6_0_all"  />
<polygon points="186,40 209,40 214,35 209,30 186,30 186,40 " style="fill:white; stroke-width:1; stroke:black; " description="&lt;b&gt;ctg1_297&lt;/b&gt;&lt;br&gt;ctg1 297&lt;br&gt;Location: 335584 - 336346" locus_tag="ctg1_297" class="clusterblast-orf" id="dummy-3_q7_0_all"  />
<polygon points="213,40 231,40 236,35 231,30 213,30 213,40 " style="fill:white; stroke-width:1; stroke:black; " description="&lt;b&gt;ctg1_298&lt;/b&gt;&lt;br&gt;ctg1 298&lt;br&gt;Location: 336339 - 336966" locus_tag="ctg1_298" class="clusterblast-orf" id="dummy-3_q8_0_all"  />
<polygon points="241,40 278,40 283,35 278,30 241,30 241,40 " style="fill:white; stroke-width:1; stroke:black; " description="&lt;b&gt;ctg1_299&lt;/b&gt;&lt;br&gt;ctg1 299&lt;br&gt;Location: 337108 - 338251" locus_tag="ctg1_299" class="clusterblast-orf" id="dummy-3_q9_0_all"  />
<polygon points="289,40 316,40 321,35 316,30 289,30 289,40 " style="fill:white; stroke-width:1; stroke:black; " description="&lt;b&gt;ctg1_300&lt;/b&gt;&lt;br&gt;ctg1 300&lt;br&gt;Location: 338430 - 339306" locus_tag="ctg1_300" class="clusterblast-orf" id="dummy-3_q10_0_all"  />
<polygon points="325,35 330,30 340,30 340,40 330,40 325,35 " style="fill:white; stroke-width:1; stroke:black; " description="&lt;b&gt;ctg1_301&lt;/b&gt;&lt;br&gt;ctg1 301&lt;br&gt;Location: 339426 - 339834" locus_tag="ctg1_301" class="clusterblast-orf" id="dummy-3_q11_0_all"  />
<polygon points="346,40 362,40 367,35 362,30 346,30 346,40 " style="fill:#d81515; stroke-width:1; stroke:black; " description="&lt;b&gt;ctg1_302&lt;/b&gt;&lt;br&gt;ctg1 302&lt;br&gt;Location: 339980 - 340574" locus_tag="ctg1_302" class="clusterblast-orf" id="dummy-3_q12_0_all"  />
<polygon points="367,40 414,40 419,35 414,30 367,30 367,40 " style="fill:#15d8d8; stroke-width:1; stroke:black; " description="&lt;b&gt;ctg1_303&lt;/b&gt;&lt;br&gt;ctg1 303&lt;br&gt;Location: 340573 - 342001" locus_tag="ctg1_303" class="clusterblast-orf" id="dummy-3_q13_0_all"  />
<polygon points="419,40 423,40 428,35 423,30 419,30 419,40 " style="fill:white; stroke-width:1; stroke:black; " description="&lt;b&gt;ctg1_304&lt;/b&gt;&lt;br&gt;ctg1 304&lt;br&gt;Location: 342011 - 342248" locus_tag="ctg1_304" class="clusterblast-orf" id="dummy-3_q14_0_all"  />
<polygon points="429,35 434,30 453,30 453,40 434,40 429,35 " style="fill:white; stroke-width:1; stroke:black; " description="&lt;b&gt;ctg1_305&lt;/b&gt;&lt;br&gt;ctg1 305&lt;br&gt;Location: 342289 - 342946" locus_tag="ctg1_305" class="clusterblast-orf" id="dummy-3_q15_0_all"  />
<polygon points="457,35 462,30 550,30 550,40 462,40 457,35 " style="fill:white; stroke-width:1; stroke:black; " description="&lt;b&gt;ctg1_306&lt;/b&gt;&lt;br&gt;ctg1 306&lt;br&gt;Location: 343051 - 345613" locus_tag="ctg1_306" class="clusterblast-orf" id="dummy-3_q16_0_all"  />
<polygon points="559,35 564,30 593,30 593,40 564,40 559,35 " style="fill:white; stroke-width:1; stroke:black; " description="&lt;b&gt;ctg1_307&lt;/b&gt;&lt;br&gt;ctg1 307&lt;br&gt;Location: 345851 - 346805" locus_tag="ctg1_307" class="clusterblast-orf" id="dummy-3_q17_0_all"  />
<polygon points="594,35 599,30 628,30 628,40 599,40 594,35 " style="fill:white; stroke-width:1; stroke:black; " description="&lt;b&gt;ctg1_308&lt;/b&gt;&lt;br&gt;ctg1 308&lt;br&gt;Location: 346831 - 347764" locus_tag="ctg1_308" class="clusterblast-orf" id="dummy-3_q18_0_all"  />
<polygon points="629,35 634,30 684,30 684,40 634,40 629,35 " style="fill:white; stroke-width:1; stroke:black; " description="&lt;b&gt;ctg1_309&lt;/b&gt;&lt;br&gt;ctg1 309&lt;br&gt;Location: 347774 - 349298" locus_tag="ctg1_309" class="clusterblast-orf" id="dummy-3_q19_0_all"  />
<polygon points="685,35 690,30 741,30 741,40 690,40 685,35 " style="fill:white; stroke-width:1; stroke:black; " description="&lt;b&gt;ctg1_310&lt;/b&gt;&lt;br&gt;ctg1 310&lt;br&gt;Location: 349318 - 350881" locus_tag="ctg1_310" class="clusterblast-orf" id="dummy-3_q20_0_all"  />
<polygon points="751,40 775,40 780,35 775,30 751,30 751,40 " style="fill:white; stroke-width:1; stroke:black; " description="&lt;b&gt;ctg1_311&lt;/b&gt;&lt;br&gt;ctg1 311&lt;br&gt;Location: 351134 - 351941" locus_tag="ctg1_311" class="clusterblast-orf" id="dummy-3_q21_0_all"  />
</g>
<g label="MGC00000059" description="MGC00000059_c1: hydroxybenzoate2phenol K. pneumoniae (100% of genes show similarity), PHE" class="clusterblast-cluster"  >
<text x="5" y="70" class="clusterblast-acc"  >
MGC00000059_c1: hydroxybenzoate2phenol K. pneumoniae (100% of genes show similarity), PHE</text>
<line x1="10" y1="85" x2="778.0" y2="85" style="stroke-width:1; stroke:grey; "  />
</g>
<g id="a3_000"  >
<polygon points="353,90 369,90 374,85 369,80 353,80 353,90 " style="fill:#d81515; stroke-width:1; stroke:black; " description="&lt;b&gt;DBZ61_07570&lt;/b&gt;&lt;br&gt;UbiX family flavin prenyltransferase&lt;br&gt;Location: 10000 - 10594&lt;br&gt;&lt;br&gt;&lt;b&gt;BlastP hit with ctg1_302&lt;/b&gt;&lt;br&gt;Percentage identity: 87&lt;br&gt;Percentage coverage: 100&lt;br&gt;BLAST bit score: 342&lt;br&gt;E-value: 1.5e-123" locus_tag="DBZ61_07570" class="clusterblast-orf" id="dummy-3_h3_1_0"  />
</g>
<g id="a3_001"  >
<polygon points="374,90 421,90 426,85 421,80 374,80 374,90 " style="fill:#15d8d8; stroke-width:1; stroke:black; " description="&lt;b&gt;DBZ61_07575&lt;/b&gt;&lt;br&gt;UbiD family decarboxylase&lt;br&gt;Location: 10593 - 12021&lt;br&gt;&lt;br&gt;&lt;b&gt;BlastP hit with ctg1_303&lt;/b&gt;&lt;br&gt;Percentage identity: 97&lt;br&gt;Percentage coverage: 100&lt;br&gt;BLAST bit score: 943&lt;br&gt;E-value: 0.0" locus_tag="DBZ61_07575" class="clusterblast-orf" id="dummy-3_h3_1_1"  />
</g>
</svg>
