<svg xmlns="http://www.w3.org/2000/svg" xmlns:xlink="http://www.w3.org/1999/xlink" version="1.1" x="0" y="0" height="230" width="800" viewBox="0 0 800 230" preserveAspectRatio="none"  >
<g label="Query sequence" class="clusterblast-cluster"  >
<text x="5" y="20" class="clusterblast-acc"  >
Query sequence</text>
<line x1="10" y1="35" x2="778.0" y2="35" style="stroke-width:1; stroke:grey; "  />
<polygon points="0,40 19,40 24,35 19,30 0,30 0,40 " style="fill:white; stroke-width:1; stroke:black; " description="&lt;b&gt;ctg1_965&lt;/b&gt;&lt;br&gt;ctg1 965&lt;br&gt;Location: 1071440 - 1072052" locus_tag="ctg1_965" class="clusterblast-orf" id="dummy-8_q0_0_all"  />
<polygon points="24,40 71,40 76,35 71,30 24,30 24,40 " style="fill:white; stroke-width:1; stroke:black; " description="&lt;b&gt;ctg1_966&lt;/b&gt;&lt;br&gt;ctg1 966&lt;br&gt;Location: 1072062 - 1073406" locus_tag="ctg1_966" class="clusterblast-orf" id="dummy-8_q1_0_all"  />
<polygon points="79,40 124,40 129,35 124,30 79,30 79,40 " style="fill:white; stroke-width:1; stroke:black; " description="&lt;b&gt;ctg1_967&lt;/b&gt;&lt;br&gt;ctg1 967&lt;br&gt;Location: 1073496 - 1074789" locus_tag="ctg1_967" class="clusterblast-orf" id="dummy-8_q2_0_all"  />
<polygon points="132,35 137,30 156,30 156,40 137,40 132,35 " style="fill:white; stroke-width:1; stroke:black; " description="&lt;b&gt;ctg1_968&lt;/b&gt;&lt;br&gt;ctg1 968&lt;br&gt;Location: 1074846 - 1075473" locus_tag="ctg1_968" class="clusterblast-orf" id="dummy-8_q3_0_all"  />
<polygon points="168,40 207,40 212,35 207,30 168,30 168,40 " style="fill:white; stroke-width:1; stroke:black; " description="&lt;b&gt;ctg1_969&lt;/b&gt;&lt;br&gt;ctg1 969&lt;br&gt;Location: 1075785 - 1076934" locus_tag="ctg1_969" class="clusterblast-orf" id="dummy-8_q4_0_all"  />
<polygon points="220,40 271,40 276,35 271,30 220,30 220,40 " style="fill:white; stroke-width:1; stroke:black; " description="&lt;b&gt;ctg1_970&lt;/b&gt;&lt;br&gt;ctg1 970&lt;br&gt;Location: 1077141 - 1078572" locus_tag="ctg1_970" class="clusterblast-orf" id="dummy-8_q5_0_all"  />
<polygon points="284,35 289,30 312,30 312,40 289,40 284,35 " style="fill:#d81515; stroke-width:1; stroke:black; " description="&lt;b&gt;ctg1_971&lt;/b&gt;&lt;br&gt;ctg1 971&lt;br&gt;Location: 1078781 - 1079522" locus_tag="ctg1_971" class="clusterblast-orf" id="dummy-8_q6_0_all"  />
<polygon points="320,35 325,30 408,30 408,40 325,40 320,35 " style="fill:#15d8d8; stroke-width:1; stroke:black; " description="&lt;b&gt;ctg1_972&lt;/b&gt;&lt;br&gt;ctg1 972&lt;br&gt;Location: 1079714 - 1081997" locus_tag="ctg1_972" class="clusterblast-orf" id="dummy-8_q7_0_all"  />
<polygon points="410,35 415,30 443,30 443,40 415,40 410,35 " style="fill:white; stroke-width:1; stroke:black; " description="&lt;b&gt;ctg1_973&lt;/b&gt;&lt;br&gt;ctg1 973&lt;br&gt;Location: 1082052 - 1082910" locus_tag="ctg1_973" class="clusterblast-orf" id="dummy-8_q8_0_all"  />
<polygon points="459,35 464,30 527,30 527,40 464,40 459,35 " style="fill:white; stroke-width:1; stroke:black; " description="&lt;b&gt;ctg1_974&lt;/b&gt;&lt;br&gt;ctg1 974&lt;br&gt;Location: 1083314 - 1085075" locus_tag="ctg1_974" class="clusterblast-orf" id="dummy-8_q9_0_all"  />
<polygon points="532,40 554,40 559,35 554,30 532,30 532,40 " style="fill:white; stroke-width:1; stroke:black; " description="&lt;b&gt;ctg1_975&lt;/b&gt;&lt;br&gt;ctg1 975&lt;br&gt;Location: 1085204 - 1085897" locus_tag="ctg1_975" class="clusterblast-orf" id="dummy-8_q10_0_all"  />
<polygon points="566,40 603,40 608,35 603,30 566,30 566,40 " style="fill:white; stroke-width:1; stroke:black; " description="&lt;b&gt;ctg1_976&lt;/b&gt;&lt;br&gt;ctg1 976&lt;br&gt;Location: 1086086 - 1087175" locus_tag="ctg1_976" class="clusterblast-orf" id="dummy-8_q11_0_all"  />
<polygon points="611,40 655,40 660,35 655,30 611,30 611,40 " style="fill:white; stroke-width:1; stroke:black; " description="&lt;b&gt;ctg1_977&lt;/b&gt;&lt;br&gt;ctg1 977&lt;br&gt;Location: 1087244 - 1088522" locus_tag="ctg1_977" class="clusterblast-orf" id="dummy-8_q12_0_all"  />
<polygon points="667,40 689,40 694,35 689,30 667,30 667,40 " style="fill:white; stroke-width:1; stroke:black; " description="&lt;b&gt;ctg1_978&lt;/b&gt;&lt;br&gt;ctg1 978&lt;br&gt;Location: 1088708 - 1089392" locus_tag="ctg1_978" class="clusterblast-orf" id="dummy-8_q13_0_all"  />
<polygon points="698,40 758,40 763,35 758,30 698,30 698,40 " style="fill:white; stroke-width:1; stroke:black; " description="&lt;b&gt;ctg1_979&lt;/b&gt;&lt;br&gt;ctg1 979&lt;br&gt;Location: 1089502 - 1091176" locus_tag="ctg1_979" class="clusterblast-orf" id="dummy-8_q14_0_all"  />
<polygon points="769,40 775,40 780,35 775,30 769,30 769,40 " style="fill:white; stroke-width:1; stroke:black; " description="&lt;b&gt;ctg1_980&lt;/b&gt;&lt;br&gt;ctg1 980&lt;br&gt;Location: 1091335 - 1091620" locus_tag="ctg1_980" class="clusterblast-orf" id="dummy-8_q15_0_all"  />
</g>
<g label="MGC00000031" description="MGC00000031_c1: Pyruvate to acetate and formate C. acetobutylicum (100% of genes show similarity), PFL_acetate" class="clusterblast-cluster"  >
<text x="5" y="70" class="clusterblast-acc"  >
MGC00000031_c1: Pyruvate to acetate and formate C. acetobutylicum (100% of genes show similarity), PFL_acetate</text>
<line x1="10" y1="85" x2="778.0" y2="85" style="stroke-width:1; stroke:grey; "  />
</g>
<g id="a8_000"  >
<polygon points="332,85 337,80 360,80 360,90 337,90 332,85 " style="fill:#d81515; stroke-width:1; stroke:black; " description="&lt;b&gt;CA_C0981&lt;/b&gt;&lt;br&gt;Pyruvate-formate-lyase-activating enzyme&lt;br&gt;Location: 12956 - 12242&lt;br&gt;&lt;br&gt;&lt;b&gt;BlastP hit with ctg1_971&lt;/b&gt;&lt;br&gt;Percentage identity: 43&lt;br&gt;Percentage coverage: 97&lt;br&gt;BLAST bit score: 213&lt;br&gt;E-value: 2.18e-71" locus_tag="CA_C0981" class="clusterblast-orf" id="dummy-8_h8_2_0"  />
</g>
<g id="a8_001"  >
<polygon points="360,85 365,80 447,80 447,90 365,90 360,85 " style="fill:#15d8d8; stroke-width:1; stroke:black; " description="&lt;b&gt;CA_C0980&lt;/b&gt;&lt;br&gt;Pyruvate-formate lyase&lt;br&gt;Location: 12232 - 10000&lt;br&gt;&lt;br&gt;&lt;b&gt;BlastP hit with ctg1_972&lt;/b&gt;&lt;br&gt;Percentage identity: 61&lt;br&gt;Percentage coverage: 98&lt;br&gt;BLAST bit score: 910&lt;br&gt;E-value: 0.0" locus_tag="CA_C0980" class="clusterblast-orf" id="dummy-8_h8_2_1"  />
</g>
</svg>
