<svg xmlns="http://www.w3.org/2000/svg" xmlns:xlink="http://www.w3.org/1999/xlink" version="1.1" x="0" y="0" height="230" width="800" viewBox="0 0 800 230" preserveAspectRatio="none"  >
<g label="Query sequence" class="clusterblast-cluster"  >
<text x="5" y="20" class="clusterblast-acc"  >
Query sequence</text>
<line x1="10" y1="35" x2="778.0" y2="35" style="stroke-width:1; stroke:grey; "  />
<polygon points="0,35 5,30 7,30 7,40 5,40 0,35 " style="fill:white; stroke-width:1; stroke:black; " description="&lt;b&gt;ctg1_1310&lt;/b&gt;&lt;br&gt;ctg1 1310&lt;br&gt;Location: 1440647 - 1440884" locus_tag="ctg1_1310" class="clusterblast-orf" id="dummy-9_q0_0_all"  />
<polygon points="13,40 22,40 27,35 22,30 13,30 13,40 " style="fill:white; stroke-width:1; stroke:black; " description="&lt;b&gt;ctg1_1311&lt;/b&gt;&lt;br&gt;ctg1 1311&lt;br&gt;Location: 1441087 - 1441522" locus_tag="ctg1_1311" class="clusterblast-orf" id="dummy-9_q1_0_all"  />
<polygon points="28,35 33,30 43,30 43,40 33,40 28,35 " style="fill:white; stroke-width:1; stroke:black; " description="&lt;b&gt;ctg1_1312&lt;/b&gt;&lt;br&gt;ctg1 1312&lt;br&gt;Location: 1441567 - 1442035" locus_tag="ctg1_1312" class="clusterblast-orf" id="dummy-9_q2_0_all"  />
<polygon points="51,40 81,40 86,35 81,30 51,30 51,40 " style="fill:white; stroke-width:1; stroke:black; " description="&lt;b&gt;ctg1_1313&lt;/b&gt;&lt;br&gt;ctg1 1313&lt;br&gt;Location: 1442308 - 1443433" locus_tag="ctg1_1313" class="clusterblast-orf" id="dummy-9_q3_0_all"  />
<polygon points="89,40 94,40 99,35 94,30 89,30 89,40 " style="fill:white; stroke-width:1; stroke:black; " description="&lt;b&gt;ctg1_1314&lt;/b&gt;&lt;br&gt;ctg1 1314&lt;br&gt;Location: 1443524 - 1443848" locus_tag="ctg1_1314" class="clusterblast-orf" id="dummy-9_q4_0_all"  />
<polygon points="100,40 116,40 121,35 116,30 100,30 100,40 " style="fill:white; stroke-width:1; stroke:black; " description="&lt;b&gt;ctg1_1315&lt;/b&gt;&lt;br&gt;ctg1 1315&lt;br&gt;Location: 1443890 - 1444562" locus_tag="ctg1_1315" class="clusterblast-orf" id="dummy-9_q5_0_all"  />
<polygon points="125,40 159,40 164,35 159,30 125,30 125,40 " style="fill:white; stroke-width:1; stroke:black; " description="&lt;b&gt;ctg1_1316&lt;/b&gt;&lt;br&gt;ctg1 1316&lt;br&gt;Location: 1444688 - 1445963" locus_tag="ctg1_1316" class="clusterblast-orf" id="dummy-9_q6_0_all"  />
<polygon points="166,40 188,40 193,35 188,30 166,30 166,40 " style="fill:white; stroke-width:1; stroke:black; " description="&lt;b&gt;ctg1_1317&lt;/b&gt;&lt;br&gt;ctg1 1317&lt;br&gt;Location: 1446019 - 1446880" locus_tag="ctg1_1317" class="clusterblast-orf" id="dummy-9_q7_0_all"  />
<polygon points="196,35 201,30 214,30 214,40 201,40 196,35 " style="fill:white; stroke-width:1; stroke:black; " description="&lt;b&gt;ctg1_1318&lt;/b&gt;&lt;br&gt;ctg1 1318&lt;br&gt;Location: 1446969 - 1447572" locus_tag="ctg1_1318" class="clusterblast-orf" id="dummy-9_q8_0_all"  />
<polygon points="217,35 222,30 264,30 264,40 222,40 217,35 " style="fill:white; stroke-width:1; stroke:black; " description="&lt;b&gt;ctg1_1319&lt;/b&gt;&lt;br&gt;ctg1 1319&lt;br&gt;Location: 1447678 - 1449184" locus_tag="ctg1_1319" class="clusterblast-orf" id="dummy-9_q9_0_all"  />
<polygon points="283,35 288,30 302,30 302,40 288,40 283,35 " style="fill:white; stroke-width:1; stroke:black; " description="&lt;b&gt;ctg1_1320&lt;/b&gt;&lt;br&gt;ctg1 1320&lt;br&gt;Location: 1449784 - 1450420" locus_tag="ctg1_1320" class="clusterblast-orf" id="dummy-9_q10_0_all"  />
<polygon points="302,35 307,30 324,30 324,40 307,40 302,35 " style="fill:#d81515; stroke-width:1; stroke:black; " description="&lt;b&gt;ctg1_1321&lt;/b&gt;&lt;br&gt;ctg1 1321&lt;br&gt;Location: 1450419 - 1451112" locus_tag="ctg1_1321" class="clusterblast-orf" id="dummy-9_q11_0_all"  />
<polygon points="324,35 329,30 343,30 343,40 329,40 324,35 " style="fill:white; stroke-width:1; stroke:black; " description="&lt;b&gt;ctg1_1322&lt;/b&gt;&lt;br&gt;ctg1 1322&lt;br&gt;Location: 1451114 - 1451735" locus_tag="ctg1_1322" class="clusterblast-orf" id="dummy-9_q12_0_all"  />
<polygon points="343,35 348,30 376,30 376,40 348,40 343,35 " style="fill:white; stroke-width:1; stroke:black; " description="&lt;b&gt;ctg1_1323&lt;/b&gt;&lt;br&gt;ctg1 1323&lt;br&gt;Location: 1451738 - 1452797" locus_tag="ctg1_1323" class="clusterblast-orf" id="dummy-9_q13_0_all"  />
<polygon points="376,35 381,30 443,30 443,40 381,40 376,35 " style="fill:#15d815; stroke-width:1; stroke:black; " description="&lt;b&gt;ctg1_1324&lt;/b&gt;&lt;br&gt;ctg1 1324&lt;br&gt;Location: 1452797 - 1454978" locus_tag="ctg1_1324" class="clusterblast-orf" id="dummy-9_q14_0_all"  />
<polygon points="443,35 448,30 461,30 461,40 448,40 443,35 " style="fill:#1515d8; stroke-width:1; stroke:black; " description="&lt;b&gt;ctg1_1325&lt;/b&gt;&lt;br&gt;ctg1 1325&lt;br&gt;Location: 1454970 - 1455549" locus_tag="ctg1_1325" class="clusterblast-orf" id="dummy-9_q15_0_all"  />
<polygon points="461,35 466,30 479,30 479,40 466,40 461,35 " style="fill:#d81515; stroke-width:1; stroke:black; " description="&lt;b&gt;ctg1_1326&lt;/b&gt;&lt;br&gt;ctg1 1326&lt;br&gt;Location: 1455548 - 1456130" locus_tag="ctg1_1326" class="clusterblast-orf" id="dummy-9_q16_0_all"  />
<polygon points="481,35 486,30 495,30 495,40 486,40 481,35 " style="fill:white; stroke-width:1; stroke:black; " description="&lt;b&gt;ctg1_1327&lt;/b&gt;&lt;br&gt;ctg1 1327&lt;br&gt;Location: 1456206 - 1456647" locus_tag="ctg1_1327" class="clusterblast-orf" id="dummy-9_q17_0_all"  />
<polygon points="498,35 503,30 505,30 505,40 503,40 498,35 " style="fill:white; stroke-width:1; stroke:black; " description="&lt;b&gt;ctg1_1328&lt;/b&gt;&lt;br&gt;ctg1 1328&lt;br&gt;Location: 1456738 - 1456954" locus_tag="ctg1_1328" class="clusterblast-orf" id="dummy-9_q18_0_all"  />
<polygon points="524,40 551,40 556,35 551,30 524,30 524,40 " style="fill:white; stroke-width:1; stroke:black; " description="&lt;b&gt;ctg1_1329&lt;/b&gt;&lt;br&gt;ctg1 1329&lt;br&gt;Location: 1457587 - 1458628" locus_tag="ctg1_1329" class="clusterblast-orf" id="dummy-9_q19_0_all"  />
<polygon points="558,35 563,30 589,30 589,40 563,40 558,35 " style="fill:white; stroke-width:1; stroke:black; " description="&lt;b&gt;ctg1_1330&lt;/b&gt;&lt;br&gt;ctg1 1330&lt;br&gt;Location: 1458673 - 1459678" locus_tag="ctg1_1330" class="clusterblast-orf" id="dummy-9_q20_0_all"  />
<polygon points="592,35 597,30 629,30 629,40 597,40 592,35 " style="fill:white; stroke-width:1; stroke:black; " description="&lt;b&gt;ctg1_1331&lt;/b&gt;&lt;br&gt;ctg1 1331&lt;br&gt;Location: 1459783 - 1460956" locus_tag="ctg1_1331" class="clusterblast-orf" id="dummy-9_q21_0_all"  />
<polygon points="637,35 642,30 683,30 683,40 642,40 637,35 " style="fill:white; stroke-width:1; stroke:black; " description="&lt;b&gt;ctg1_1332&lt;/b&gt;&lt;br&gt;ctg1 1332&lt;br&gt;Location: 1461221 - 1462724" locus_tag="ctg1_1332" class="clusterblast-orf" id="dummy-9_q22_0_all"  />
<polygon points="686,35 691,30 723,30 723,40 691,40 686,35 " style="fill:white; stroke-width:1; stroke:black; " description="&lt;b&gt;ctg1_1333&lt;/b&gt;&lt;br&gt;ctg1 1333&lt;br&gt;Location: 1462825 - 1464001" locus_tag="ctg1_1333" class="clusterblast-orf" id="dummy-9_q23_0_all"  />
<polygon points="729,40 775,40 780,35 775,30 729,30 729,40 " style="fill:white; stroke-width:1; stroke:black; " description="&lt;b&gt;ctg1_1334&lt;/b&gt;&lt;br&gt;ctg1 1334&lt;br&gt;Location: 1464196 - 1465843" locus_tag="ctg1_1334" class="clusterblast-orf" id="dummy-9_q24_0_all"  />
</g>
<g label="MGC00000037" description="MGC00000037_c1: Rnf complex C. sporogenes (66% of genes show similarity), RNF" class="clusterblast-cluster"  >
<text x="5" y="70" class="clusterblast-acc"  >
MGC00000037_c1: Rnf complex C. sporogenes (66% of genes show similarity), RNF</text>
<line x1="10" y1="85" x2="778.0" y2="85" style="stroke-width:1; stroke:grey; "  />
</g>
<g id="a9_000"  >
<polygon points="313,85 318,80 339,80 339,90 318,90 313,85 " style="fill:#1515d8; stroke-width:1; stroke:black; " description="&lt;b&gt;CLOSPO_00568&lt;/b&gt;&lt;br&gt;electron transport complex, RnfABCDGE type, B subunit&lt;br&gt;Location: 10000 - 10834&lt;br&gt;&lt;br&gt;&lt;b&gt;BlastP hit with ctg1_1325&lt;/b&gt;&lt;br&gt;Percentage identity: 34&lt;br&gt;Percentage coverage: 82&lt;br&gt;BLAST bit score: 89&lt;br&gt;E-value: 2.21e-23" locus_tag="CLOSPO_00568" class="clusterblast-orf" id="dummy-9_h9_1_0"  />
</g>
<g id="a9_001"  >
<polygon points="339,85 344,80 357,80 357,90 344,90 339,85 " style="fill:#d81515; stroke-width:1; stroke:black; " description="&lt;b&gt;CLOSPO_00569&lt;/b&gt;&lt;br&gt;electron transport complex, RnfABCDGE type, A subunit&lt;br&gt;Location: 10847 - 11438&lt;br&gt;&lt;br&gt;&lt;b&gt;BlastP hit with ctg1_1321&lt;/b&gt;&lt;br&gt;Percentage identity: 34&lt;br&gt;Percentage coverage: 52&lt;br&gt;BLAST bit score: 62&lt;br&gt;E-value: 9.54e-14&lt;br&gt;&lt;br&gt;&lt;b&gt;BlastP hit with ctg1_1326&lt;/b&gt;&lt;br&gt;Percentage identity: 56&lt;br&gt;Percentage coverage: 96&lt;br&gt;BLAST bit score: 191&lt;br&gt;E-value: 2.66e-64" locus_tag="CLOSPO_00569" class="clusterblast-orf" id="dummy-9_h9_1_1"  />
</g>
<g id="a9_002"  >
<polygon points="359,85 364,80 377,80 377,90 364,90 359,85 " style="fill:#d81515; stroke-width:1; stroke:black; " description="&lt;b&gt;CLOSPO_00570&lt;/b&gt;&lt;br&gt;electron transport complex, RnfABCDGE type, E subunit&lt;br&gt;Location: 11480 - 12080&lt;br&gt;&lt;br&gt;&lt;b&gt;BlastP hit with ctg1_1321&lt;/b&gt;&lt;br&gt;Percentage identity: 42&lt;br&gt;Percentage coverage: 93&lt;br&gt;BLAST bit score: 149&lt;br&gt;E-value: 4.42e-47" locus_tag="CLOSPO_00570" class="clusterblast-orf" id="dummy-9_h9_1_2"  />
</g>
<g id="a9_003"  >
<polygon points="377,85 382,80 395,80 395,90 382,90 377,85 " style="fill:white; stroke-width:1; stroke:black; " description="&lt;b&gt;CLOSPO_00571&lt;/b&gt;&lt;br&gt;electron transport complex, RnfABCDGE type, G subunit&lt;br&gt;Location: 12079 - 12652" locus_tag="CLOSPO_00571" class="clusterblast-orf" id="dummy-9_h9_1_3"  />
</g>
<g id="a9_004"  >
<polygon points="395,85 400,80 424,80 424,90 400,90 395,85 " style="fill:white; stroke-width:1; stroke:black; " description="&lt;b&gt;CLOSPO_00572&lt;/b&gt;&lt;br&gt;electron transport complex, RnfABCDGE type, D subunit&lt;br&gt;Location: 12651 - 13584" locus_tag="CLOSPO_00572" class="clusterblast-orf" id="dummy-9_h9_1_4"  />
</g>
<g id="a9_005"  >
<polygon points="425,85 430,80 466,80 466,90 430,90 425,85 " style="fill:#15d815; stroke-width:1; stroke:black; " description="&lt;b&gt;CLOSPO_00573&lt;/b&gt;&lt;br&gt;electron transport complex, RnfABCDGE type, C subunit&lt;br&gt;Location: 13606 - 14950&lt;br&gt;&lt;br&gt;&lt;b&gt;BlastP hit with ctg1_1324&lt;/b&gt;&lt;br&gt;Percentage identity: 40&lt;br&gt;Percentage coverage: 53&lt;br&gt;BLAST bit score: 275&lt;br&gt;E-value: 6.21e-87" locus_tag="CLOSPO_00573" class="clusterblast-orf" id="dummy-9_h9_1_5"  />
</g>
</svg>
