<svg xmlns="http://www.w3.org/2000/svg" xmlns:xlink="http://www.w3.org/1999/xlink" version="1.1" x="0" y="0" height="100" width="800" viewBox="0 0 800 100" preserveAspectRatio="none"  >
<g label="Query sequence" class="clusterblast-cluster"  >
<text x="5" y="20" class="clusterblast-acc"  >
Query sequence</text>
<line x1="10" y1="35" x2="778.0" y2="35" style="stroke-width:1; stroke:grey; "  />
<polygon points="0,35 5,30 75,30 75,40 5,40 0,35 " style="fill:white; stroke-width:1; stroke:black; " description="&lt;b&gt;ctg1_848&lt;/b&gt;&lt;br&gt;ctg1 848&lt;br&gt;Location: 929251 - 931234" locus_tag="ctg1_848" class="clusterblast-orf" id="knownclusterblast-7_q0_0_all"  />
<polygon points="75,35 80,30 112,30 112,40 80,40 75,35 " style="fill:white; stroke-width:1; stroke:black; " description="&lt;b&gt;ctg1_849&lt;/b&gt;&lt;br&gt;ctg1 849&lt;br&gt;Location: 931233 - 932214" locus_tag="ctg1_849" class="clusterblast-orf" id="knownclusterblast-7_q1_0_all"  />
<polygon points="112,35 117,30 155,30 155,40 117,40 112,35 " style="fill:white; stroke-width:1; stroke:black; " description="&lt;b&gt;ctg1_850&lt;/b&gt;&lt;br&gt;ctg1 850&lt;br&gt;Location: 932217 - 933357" locus_tag="ctg1_850" class="clusterblast-orf" id="knownclusterblast-7_q2_0_all"  />
<polygon points="167,40 184,40 189,35 184,30 167,30 167,40 " style="fill:white; stroke-width:1; stroke:black; " description="&lt;b&gt;ctg1_851&lt;/b&gt;&lt;br&gt;ctg1 851&lt;br&gt;Location: 933687 - 934269" locus_tag="ctg1_851" class="clusterblast-orf" id="knownclusterblast-7_q3_0_all"  />
<polygon points="191,35 196,30 207,30 207,40 196,40 191,35 " style="fill:white; stroke-width:1; stroke:black; " description="&lt;b&gt;ctg1_852&lt;/b&gt;&lt;br&gt;ctg1 852&lt;br&gt;Location: 934308 - 934734" locus_tag="ctg1_852" class="clusterblast-orf" id="knownclusterblast-7_q4_0_all"  />
<polygon points="216,40 231,40 236,35 231,30 216,30 216,40 " style="fill:white; stroke-width:1; stroke:black; " description="&lt;b&gt;ctg1_853&lt;/b&gt;&lt;br&gt;ctg1 853&lt;br&gt;Location: 934963 - 935506" locus_tag="ctg1_853" class="clusterblast-orf" id="knownclusterblast-7_q5_0_all"  />
<polygon points="240,40 280,40 285,35 280,30 240,30 240,40 " style="fill:white; stroke-width:1; stroke:black; " description="&lt;b&gt;ctg1_854&lt;/b&gt;&lt;br&gt;ctg1 854&lt;br&gt;Location: 935605 - 936808" locus_tag="ctg1_854" class="clusterblast-orf" id="knownclusterblast-7_q6_0_all"  />
<polygon points="294,40 302,40 307,35 302,30 294,30 294,40 " style="fill:white; stroke-width:1; stroke:black; " description="&lt;b&gt;ctg1_855&lt;/b&gt;&lt;br&gt;ctg1 855&lt;br&gt;Location: 937026 - 937374" locus_tag="ctg1_855" class="clusterblast-orf" id="knownclusterblast-7_q7_0_all"  />
<polygon points="308,35 313,30 343,30 343,40 313,40 308,35 " style="fill:white; stroke-width:1; stroke:black; " description="&lt;b&gt;ctg1_856&lt;/b&gt;&lt;br&gt;ctg1 856&lt;br&gt;Location: 937415 - 938342" locus_tag="ctg1_856" class="clusterblast-orf" id="knownclusterblast-7_q8_0_all"  />
<polygon points="351,35 356,30 396,30 396,40 356,40 351,35 " style="fill:#d81515; stroke-width:1; stroke:black; " description="&lt;b&gt;ctg1_857&lt;/b&gt;&lt;br&gt;ctg1 857&lt;br&gt;Location: 938535 - 939726" locus_tag="ctg1_857" class="clusterblast-orf" id="knownclusterblast-7_q9_0_all"  />
<polygon points="395,35 400,30 443,30 443,40 400,40 395,35 " style="fill:#15d815; stroke-width:1; stroke:black; " description="&lt;b&gt;ctg1_858&lt;/b&gt;&lt;br&gt;ctg1 858&lt;br&gt;Location: 939722 - 940982" locus_tag="ctg1_858" class="clusterblast-orf" id="knownclusterblast-7_q10_0_all"  />
<polygon points="443,35 448,30 504,30 504,40 448,40 443,35 " style="fill:#1515d8; stroke-width:1; stroke:black; " description="&lt;b&gt;ctg1_859&lt;/b&gt;&lt;br&gt;ctg1 859&lt;br&gt;Location: 940971 - 942600" locus_tag="ctg1_859" class="clusterblast-orf" id="knownclusterblast-7_q11_0_all"  />
<polygon points="514,40 561,40 566,35 561,30 514,30 514,40 " style="fill:white; stroke-width:1; stroke:black; " description="&lt;b&gt;ctg1_860&lt;/b&gt;&lt;br&gt;ctg1 860&lt;br&gt;Location: 942869 - 944228" locus_tag="ctg1_860" class="clusterblast-orf" id="knownclusterblast-7_q12_0_all"  />
<polygon points="566,40 602,40 607,35 602,30 566,30 566,40 " style="fill:white; stroke-width:1; stroke:black; " description="&lt;b&gt;ctg1_861&lt;/b&gt;&lt;br&gt;ctg1 861&lt;br&gt;Location: 944232 - 945312" locus_tag="ctg1_861" class="clusterblast-orf" id="knownclusterblast-7_q13_0_all"  />
<polygon points="612,40 632,40 637,35 632,30 612,30 612,40 " style="fill:white; stroke-width:1; stroke:black; " description="&lt;b&gt;ctg1_862&lt;/b&gt;&lt;br&gt;ctg1 862&lt;br&gt;Location: 945463 - 946114" locus_tag="ctg1_862" class="clusterblast-orf" id="knownclusterblast-7_q14_0_all"  />
<polygon points="639,35 644,30 648,30 648,40 644,40 639,35 " style="fill:white; stroke-width:1; stroke:black; " description="&lt;b&gt;ctg1_863&lt;/b&gt;&lt;br&gt;ctg1 863&lt;br&gt;Location: 946166 - 946421" locus_tag="ctg1_863" class="clusterblast-orf" id="knownclusterblast-7_q15_0_all"  />
<polygon points="648,35 653,30 691,30 691,40 653,40 648,35 " style="fill:white; stroke-width:1; stroke:black; " description="&lt;b&gt;ctg1_864&lt;/b&gt;&lt;br&gt;ctg1 864&lt;br&gt;Location: 946420 - 947551" locus_tag="ctg1_864" class="clusterblast-orf" id="knownclusterblast-7_q16_0_all"  />
<polygon points="694,35 699,30 780,30 780,40 699,40 694,35 " style="fill:white; stroke-width:1; stroke:black; " description="&lt;b&gt;ctg1_865&lt;/b&gt;&lt;br&gt;ctg1 865&lt;br&gt;Location: 947613 - 949899" locus_tag="ctg1_865" class="clusterblast-orf" id="knownclusterblast-7_q17_0_all"  />
</g>
<g label="MGC00000047" description="MGC00000047_c1: GlycerolP to glyceroneP E. coli (100% of genes show similarity), GLYP" class="clusterblast-cluster"  >
<text x="5" y="70" class="clusterblast-acc"  >
MGC00000047_c1: GlycerolP to glyceroneP E. coli (100% of genes show similarity), GLYP</text>
<line x1="10" y1="85" x2="778.0" y2="85" style="stroke-width:1; stroke:grey; "  />
</g>
<g id="a7_000"  >
<polygon points="313,85 318,80 358,80 358,90 318,90 313,85 " style="fill:#d81515; stroke-width:1; stroke:black; " description="&lt;b&gt;b2243&lt;/b&gt;&lt;br&gt;anaerobic glycerol-3-phosphate dehydrogenase subunit C&lt;br&gt;Location: 14065 - 12874&lt;br&gt;&lt;br&gt;&lt;b&gt;BlastP hit with ctg1_857&lt;/b&gt;&lt;br&gt;Percentage identity: 99&lt;br&gt;Percentage coverage: 100&lt;br&gt;BLAST bit score: 778&lt;br&gt;E-value: 1.42e-289" locus_tag="b2243" class="clusterblast-orf" id="knownclusterblast-7_all_7_1_0"  />
</g>
<g id="a7_001"  >
<polygon points="358,85 363,80 405,80 405,90 363,90 358,85 " style="fill:#15d815; stroke-width:1; stroke:black; " description="&lt;b&gt;b2242&lt;/b&gt;&lt;br&gt;anaerobic glycerol-3-phosphate dehydrogenase subunit B&lt;br&gt;Location: 12878 - 11618&lt;br&gt;&lt;br&gt;&lt;b&gt;BlastP hit with ctg1_858&lt;/b&gt;&lt;br&gt;Percentage identity: 97&lt;br&gt;Percentage coverage: 100&lt;br&gt;BLAST bit score: 816&lt;br&gt;E-value: 6.98e-304" locus_tag="b2242" class="clusterblast-orf" id="knownclusterblast-7_all_7_1_1"  />
</g>
<g id="a7_002"  >
<polygon points="405,85 410,80 466,80 466,90 410,90 405,85 " style="fill:#1515d8; stroke-width:1; stroke:black; " description="&lt;b&gt;b2241&lt;/b&gt;&lt;br&gt;anaerobic glycerol-3-phosphate dehydrogenase subunit A&lt;br&gt;Location: 11629 - 10000&lt;br&gt;&lt;br&gt;&lt;b&gt;BlastP hit with ctg1_859&lt;/b&gt;&lt;br&gt;Percentage identity: 99&lt;br&gt;Percentage coverage: 100&lt;br&gt;BLAST bit score: 1067&lt;br&gt;E-value: 0.0" locus_tag="b2241" class="clusterblast-orf" id="knownclusterblast-7_all_7_1_2"  />
</g>
</svg>
