<svg xmlns="http://www.w3.org/2000/svg" xmlns:xlink="http://www.w3.org/1999/xlink" version="1.1" x="0" y="0" height="200" width="800" viewBox="0 0 800 200" preserveAspectRatio="none"  >
<g label="Query sequence" class="clusterblast-cluster"  >
<text x="5" y="20" class="clusterblast-acc"  >
Query sequence</text>
<line x1="10" y1="35" x2="778.0" y2="35" style="stroke-width:1; stroke:grey; "  />
<polygon points="0,35 5,30 39,30 39,40 5,40 0,35 " style="fill:white; stroke-width:1; stroke:black; " description="&lt;b&gt;ctg1_651&lt;/b&gt;&lt;br&gt;ctg1 651&lt;br&gt;Location: 726769 - 728476" locus_tag="ctg1_651" class="clusterblast-orf" id="knownclusterblast-4_q0_0_all"  />
<polygon points="44,40 84,40 89,35 84,30 44,30 44,40 " style="fill:white; stroke-width:1; stroke:black; " description="&lt;b&gt;ctg1_652&lt;/b&gt;&lt;br&gt;ctg1 652&lt;br&gt;Location: 728695 - 730675" locus_tag="ctg1_652" class="clusterblast-orf" id="knownclusterblast-4_q1_0_all"  />
<polygon points="91,40 99,40 104,35 99,30 91,30 91,40 " style="fill:white; stroke-width:1; stroke:black; " description="&lt;b&gt;ctg1_653&lt;/b&gt;&lt;br&gt;ctg1 653&lt;br&gt;Location: 730742 - 731318" locus_tag="ctg1_653" class="clusterblast-orf" id="knownclusterblast-4_q2_0_all"  />
<polygon points="107,40 126,40 131,35 126,30 107,30 107,40 " style="fill:white; stroke-width:1; stroke:black; " description="&lt;b&gt;ctg1_654&lt;/b&gt;&lt;br&gt;ctg1 654&lt;br&gt;Location: 731440 - 732484" locus_tag="ctg1_654" class="clusterblast-orf" id="knownclusterblast-4_q3_0_all"  />
<polygon points="131,35 136,30 177,30 177,40 136,40 131,35 " style="fill:white; stroke-width:1; stroke:black; " description="&lt;b&gt;ctg1_655&lt;/b&gt;&lt;br&gt;ctg1 655&lt;br&gt;Location: 732502 - 734506" locus_tag="ctg1_655" class="clusterblast-orf" id="knownclusterblast-4_q4_0_all"  />
<polygon points="178,35 183,30 199,30 199,40 183,40 178,35 " style="fill:white; stroke-width:1; stroke:black; " description="&lt;b&gt;ctg1_656&lt;/b&gt;&lt;br&gt;ctg1 656&lt;br&gt;Location: 734528 - 735479" locus_tag="ctg1_656" class="clusterblast-orf" id="knownclusterblast-4_q5_0_all"  />
<polygon points="206,40 253,40 258,35 253,30 206,30 206,40 " style="fill:#d81515; stroke-width:1; stroke:black; " description="&lt;b&gt;ctg1_657&lt;/b&gt;&lt;br&gt;ctg1 657&lt;br&gt;Location: 735753 - 738033" locus_tag="ctg1_657" class="clusterblast-orf" id="knownclusterblast-4_q6_0_all"  />
<polygon points="265,40 267,40 272,35 267,30 265,30 265,40 " style="fill:#77d815; stroke-width:1; stroke:black; " description="&lt;b&gt;ctg1_658&lt;/b&gt;&lt;br&gt;ctg1 658&lt;br&gt;Location: 738327 - 738663" locus_tag="ctg1_658" class="clusterblast-orf" id="knownclusterblast-4_q7_0_all"  />
<polygon points="273,40 279,40 284,35 279,30 273,30 273,40 " style="fill:#15d8d8; stroke-width:1; stroke:black; " description="&lt;b&gt;ctg1_659&lt;/b&gt;&lt;br&gt;ctg1 659&lt;br&gt;Location: 738675 - 739155" locus_tag="ctg1_659" class="clusterblast-orf" id="knownclusterblast-4_q8_0_all"  />
<polygon points="283,40 294,40 299,35 294,30 283,30 283,40 " style="fill:#7715d8; stroke-width:1; stroke:black; " description="&lt;b&gt;ctg1_660&lt;/b&gt;&lt;br&gt;ctg1 660&lt;br&gt;Location: 739129 - 739831" locus_tag="ctg1_660" class="clusterblast-orf" id="knownclusterblast-4_q9_0_all"  />
<polygon points="299,40 313,40 318,35 313,30 299,30 299,40 " style="fill:#d85e15; stroke-width:1; stroke:black; " description="&lt;b&gt;ctg1_661&lt;/b&gt;&lt;br&gt;ctg1 661&lt;br&gt;Location: 739827 - 740631" locus_tag="ctg1_661" class="clusterblast-orf" id="knownclusterblast-4_q10_0_all"  />
<polygon points="317,40 336,40 341,35 336,30 317,30 317,40 " style="fill:#d81515; stroke-width:1; stroke:black; " description="&lt;b&gt;ctg1_662&lt;/b&gt;&lt;br&gt;ctg1 662&lt;br&gt;Location: 740627 - 741644" locus_tag="ctg1_662" class="clusterblast-orf" id="knownclusterblast-4_q11_0_all"  />
<polygon points="341,40 343,40 348,35 343,30 341,30 341,40 " style="fill:#2ed815; stroke-width:1; stroke:black; " description="&lt;b&gt;ctg1_663&lt;/b&gt;&lt;br&gt;ctg1 663&lt;br&gt;Location: 741640 - 741976" locus_tag="ctg1_663" class="clusterblast-orf" id="knownclusterblast-4_q12_0_all"  />
<polygon points="351,40 352,40 357,35 352,30 351,30 351,40 " style="fill:#158fd8; stroke-width:1; stroke:black; " description="&lt;b&gt;ctg1_664&lt;/b&gt;&lt;br&gt;ctg1 664&lt;br&gt;Location: 742082 - 742370" locus_tag="ctg1_664" class="clusterblast-orf" id="knownclusterblast-4_q13_0_all"  />
<polygon points="358,40 385,40 390,35 385,30 358,30 358,40 " style="fill:#c015d8; stroke-width:1; stroke:black; " description="&lt;b&gt;ctg1_665&lt;/b&gt;&lt;br&gt;ctg1 665&lt;br&gt;Location: 742381 - 743785" locus_tag="ctg1_665" class="clusterblast-orf" id="knownclusterblast-4_q14_0_all"  />
<polygon points="390,40 404,40 409,35 404,30 390,30 390,40 " style="fill:#d8a715; stroke-width:1; stroke:black; " description="&lt;b&gt;ctg1_666&lt;/b&gt;&lt;br&gt;ctg1 666&lt;br&gt;Location: 743795 - 744632" locus_tag="ctg1_666" class="clusterblast-orf" id="knownclusterblast-4_q15_0_all"  />
<polygon points="409,40 431,40 436,35 431,30 409,30 409,40 " style="fill:#15d846; stroke-width:1; stroke:black; " description="&lt;b&gt;ctg1_667&lt;/b&gt;&lt;br&gt;ctg1 667&lt;br&gt;Location: 744621 - 745809" locus_tag="ctg1_667" class="clusterblast-orf" id="knownclusterblast-4_q16_0_all"  />
<polygon points="439,40 462,40 467,35 462,30 439,30 439,40 " style="fill:#1546d8; stroke-width:1; stroke:black; " description="&lt;b&gt;ctg1_668&lt;/b&gt;&lt;br&gt;ctg1 668&lt;br&gt;Location: 745925 - 747152" locus_tag="ctg1_668" class="clusterblast-orf" id="knownclusterblast-4_q17_0_all"  />
<polygon points="467,40 494,40 499,35 494,30 467,30 467,40 " style="fill:#d815a7; stroke-width:1; stroke:black; " description="&lt;b&gt;ctg1_669&lt;/b&gt;&lt;br&gt;ctg1 669&lt;br&gt;Location: 747148 - 748552" locus_tag="ctg1_669" class="clusterblast-orf" id="knownclusterblast-4_q18_0_all"  />
<polygon points="499,40 526,40 531,35 526,30 499,30 499,40 " style="fill:#c0d815; stroke-width:1; stroke:black; " description="&lt;b&gt;ctg1_670&lt;/b&gt;&lt;br&gt;ctg1 670&lt;br&gt;Location: 748563 - 749925" locus_tag="ctg1_670" class="clusterblast-orf" id="knownclusterblast-4_q19_0_all"  />
<polygon points="531,40 547,40 552,35 547,30 531,30 531,40 " style="fill:#15d88f; stroke-width:1; stroke:black; " description="&lt;b&gt;ctg1_671&lt;/b&gt;&lt;br&gt;ctg1 671&lt;br&gt;Location: 749945 - 750833" locus_tag="ctg1_671" class="clusterblast-orf" id="knownclusterblast-4_q20_0_all"  />
<polygon points="552,40 562,40 567,35 562,30 552,30 552,40 " style="fill:#2e15d8; stroke-width:1; stroke:black; " description="&lt;b&gt;ctg1_672&lt;/b&gt;&lt;br&gt;ctg1 672&lt;br&gt;Location: 750842 - 751502" locus_tag="ctg1_672" class="clusterblast-orf" id="knownclusterblast-4_q21_0_all"  />
<polygon points="567,40 574,40 579,35 574,30 567,30 567,40 " style="fill:#2ed815; stroke-width:1; stroke:black; " description="&lt;b&gt;ctg1_673&lt;/b&gt;&lt;br&gt;ctg1 673&lt;br&gt;Location: 751514 - 752015" locus_tag="ctg1_673" class="clusterblast-orf" id="knownclusterblast-4_q22_0_all"  />
<polygon points="580,40 599,40 604,35 599,30 580,30 580,40 " style="fill:#d8155e; stroke-width:1; stroke:black; " description="&lt;b&gt;ctg1_674&lt;/b&gt;&lt;br&gt;ctg1 674&lt;br&gt;Location: 752060 - 753113" locus_tag="ctg1_674" class="clusterblast-orf" id="knownclusterblast-4_q23_0_all"  />
<polygon points="606,35 611,30 613,30 613,40 611,40 606,35 " style="fill:white; stroke-width:1; stroke:black; " description="&lt;b&gt;ctg1_675&lt;/b&gt;&lt;br&gt;ctg1 675&lt;br&gt;Location: 753189 - 753507" locus_tag="ctg1_675" class="clusterblast-orf" id="knownclusterblast-4_q24_0_all"  />
<polygon points="614,35 619,30 643,30 643,40 619,40 614,35 " style="fill:white; stroke-width:1; stroke:black; " description="&lt;b&gt;ctg1_676&lt;/b&gt;&lt;br&gt;ctg1 676&lt;br&gt;Location: 753545 - 754808" locus_tag="ctg1_676" class="clusterblast-orf" id="knownclusterblast-4_q25_0_all"  />
<polygon points="646,35 651,30 666,30 666,40 651,40 646,35 " style="fill:white; stroke-width:1; stroke:black; " description="&lt;b&gt;ctg1_677&lt;/b&gt;&lt;br&gt;ctg1 677&lt;br&gt;Location: 754945 - 755845" locus_tag="ctg1_677" class="clusterblast-orf" id="knownclusterblast-4_q26_0_all"  />
<polygon points="667,35 672,30 686,30 686,40 672,40 667,35 " style="fill:white; stroke-width:1; stroke:black; " description="&lt;b&gt;ctg1_678&lt;/b&gt;&lt;br&gt;ctg1 678&lt;br&gt;Location: 755848 - 756718" locus_tag="ctg1_678" class="clusterblast-orf" id="knownclusterblast-4_q27_0_all"  />
<polygon points="691,40 696,40 701,35 696,30 691,30 691,40 " style="fill:white; stroke-width:1; stroke:black; " description="&lt;b&gt;ctg1_679&lt;/b&gt;&lt;br&gt;ctg1 679&lt;br&gt;Location: 756930 - 757356" locus_tag="ctg1_679" class="clusterblast-orf" id="knownclusterblast-4_q28_0_all"  />
<polygon points="701,40 706,40 711,35 706,30 701,30 701,40 " style="fill:white; stroke-width:1; stroke:black; " description="&lt;b&gt;ctg1_680&lt;/b&gt;&lt;br&gt;ctg1 680&lt;br&gt;Location: 757342 - 757792" locus_tag="ctg1_680" class="clusterblast-orf" id="knownclusterblast-4_q29_0_all"  />
<polygon points="712,40 721,40 726,35 721,30 712,30 712,40 " style="fill:white; stroke-width:1; stroke:black; " description="&lt;b&gt;ctg1_681&lt;/b&gt;&lt;br&gt;ctg1 681&lt;br&gt;Location: 757852 - 758428" locus_tag="ctg1_681" class="clusterblast-orf" id="knownclusterblast-4_q30_0_all"  />
<polygon points="728,40 743,40 748,35 743,30 728,30 728,40 " style="fill:white; stroke-width:1; stroke:black; " description="&lt;b&gt;ctg1_682&lt;/b&gt;&lt;br&gt;ctg1 682&lt;br&gt;Location: 758523 - 759423" locus_tag="ctg1_682" class="clusterblast-orf" id="knownclusterblast-4_q31_0_all"  />
<polygon points="751,35 756,30 780,30 780,40 756,40 751,35 " style="fill:white; stroke-width:1; stroke:black; " description="&lt;b&gt;ctg1_683&lt;/b&gt;&lt;br&gt;ctg1 683&lt;br&gt;Location: 759519 - 760785" locus_tag="ctg1_683" class="clusterblast-orf" id="knownclusterblast-4_q32_0_all"  />
</g>
<g label="MGC0000003" description="MGC0000003_c1: Ethanolamine degradation S. typhimurium (94% of genes show similarity), EUT" class="clusterblast-cluster"  >
<text x="5" y="70" class="clusterblast-acc"  >
MGC0000003_c1: Ethanolamine degradation S. typhimurium (94% of genes show similarity), EUT</text>
<line x1="10" y1="85" x2="778.0" y2="85" style="stroke-width:1; stroke:grey; "  />
</g>
<g id="a4_000"  >
<polygon points="181,90 228,90 233,85 228,80 181,80 181,90 " style="fill:#d81515; stroke-width:1; stroke:black; " description="&lt;b&gt;STM2472&lt;/b&gt;&lt;br&gt;malic enzyme&lt;br&gt;Location: 18301 - 16021&lt;br&gt;&lt;br&gt;&lt;b&gt;BlastP hit with ctg1_657&lt;/b&gt;&lt;br&gt;Percentage identity: 92&lt;br&gt;Percentage coverage: 100&lt;br&gt;BLAST bit score: 1372&lt;br&gt;E-value: 0.0&lt;br&gt;&lt;br&gt;&lt;b&gt;BlastP hit with ctg1_662&lt;/b&gt;&lt;br&gt;Percentage identity: 33&lt;br&gt;Percentage coverage: 96&lt;br&gt;BLAST bit score: 144&lt;br&gt;E-value: 2.72e-40" locus_tag="STM2472" class="clusterblast-orf" id="knownclusterblast-4_all_4_1_0"  />
</g>
<g id="a4_001"  >
<polygon points="237,90 243,90 248,85 243,80 237,80 237,90 " style="fill:white; stroke-width:1; stroke:black; " description="&lt;b&gt;STM2471&lt;/b&gt;&lt;br&gt;insertion sequence element IS200 transposase&lt;br&gt;Location: 15832 - 15373" locus_tag="STM2471" class="clusterblast-orf" id="knownclusterblast-4_all_4_1_1"  />
</g>
<g id="a4_002"  >
<polygon points="259,90 262,90 267,85 262,80 259,80 259,90 " style="fill:#77d815; stroke-width:1; stroke:black; " description="&lt;b&gt;STM2470&lt;/b&gt;&lt;br&gt;carboxysome structural protein EutS&lt;br&gt;Location: 14893 - 14557&lt;br&gt;&lt;br&gt;&lt;b&gt;BlastP hit with ctg1_658&lt;/b&gt;&lt;br&gt;Percentage identity: 95&lt;br&gt;Percentage coverage: 100&lt;br&gt;BLAST bit score: 211&lt;br&gt;E-value: 1.69e-74" locus_tag="STM2470" class="clusterblast-orf" id="knownclusterblast-4_all_4_1_2"  />
</g>
<g id="a4_003"  >
<polygon points="267,90 273,90 278,85 273,80 267,80 267,90 " style="fill:#15d8d8; stroke-width:1; stroke:black; " description="&lt;b&gt;STM2469&lt;/b&gt;&lt;br&gt;ethanolamine utilization protein EutP&lt;br&gt;Location: 14545 - 14065&lt;br&gt;&lt;br&gt;&lt;b&gt;BlastP hit with ctg1_659&lt;/b&gt;&lt;br&gt;Percentage identity: 86&lt;br&gt;Percentage coverage: 100&lt;br&gt;BLAST bit score: 274&lt;br&gt;E-value: 4.09e-98" locus_tag="STM2469" class="clusterblast-orf" id="knownclusterblast-4_all_4_1_3"  />
</g>
<g id="a4_004"  >
<polygon points="277,90 288,90 293,85 288,80 277,80 277,90 " style="fill:#7715d8; stroke-width:1; stroke:black; " description="&lt;b&gt;STM2468&lt;/b&gt;&lt;br&gt;ethanolamine utilization protein EutQ&lt;br&gt;Location: 14088 - 13398&lt;br&gt;&lt;br&gt;&lt;b&gt;BlastP hit with ctg1_660&lt;/b&gt;&lt;br&gt;Percentage identity: 88&lt;br&gt;Percentage coverage: 100&lt;br&gt;BLAST bit score: 397&lt;br&gt;E-value: 1.58e-144" locus_tag="STM2468" class="clusterblast-orf" id="knownclusterblast-4_all_4_1_4"  />
</g>
<g id="a4_005"  >
<polygon points="293,90 307,90 312,85 307,80 293,80 293,90 " style="fill:#d85e15; stroke-width:1; stroke:black; " description="&lt;b&gt;STM2467&lt;/b&gt;&lt;br&gt;cobalamin adenosyltransferase EutT&lt;br&gt;Location: 13402 - 12598&lt;br&gt;&lt;br&gt;&lt;b&gt;BlastP hit with ctg1_661&lt;/b&gt;&lt;br&gt;Percentage identity: 87&lt;br&gt;Percentage coverage: 99&lt;br&gt;BLAST bit score: 462&lt;br&gt;E-value: 8.69e-169" locus_tag="STM2467" class="clusterblast-orf" id="knownclusterblast-4_all_4_1_5"  />
</g>
<g id="a4_006"  >
<polygon points="312,90 330,90 335,85 330,80 312,80 312,90 " style="fill:#d81515; stroke-width:1; stroke:black; " description="&lt;b&gt;STM2466&lt;/b&gt;&lt;br&gt;phosphotransacetylase EutD&lt;br&gt;Location: 12602 - 11585&lt;br&gt;&lt;br&gt;&lt;b&gt;BlastP hit with ctg1_657&lt;/b&gt;&lt;br&gt;Percentage identity: 33&lt;br&gt;Percentage coverage: 43&lt;br&gt;BLAST bit score: 160&lt;br&gt;E-value: 2.4e-45&lt;br&gt;&lt;br&gt;&lt;b&gt;BlastP hit with ctg1_662&lt;/b&gt;&lt;br&gt;Percentage identity: 90&lt;br&gt;Percentage coverage: 100&lt;br&gt;BLAST bit score: 588&lt;br&gt;E-value: 1.5e-216" locus_tag="STM2466" class="clusterblast-orf" id="knownclusterblast-4_all_4_1_6"  />
</g>
<g id="a4_007"  >
<polygon points="336,90 337,90 342,85 337,80 336,80 336,90 " style="fill:#2ed815; stroke-width:1; stroke:black; " description="&lt;b&gt;STM2465&lt;/b&gt;&lt;br&gt;carboxysome structural protein EutM&lt;br&gt;Location: 11545 - 11254&lt;br&gt;&lt;br&gt;&lt;b&gt;BlastP hit with ctg1_663&lt;/b&gt;&lt;br&gt;Percentage identity: 97&lt;br&gt;Percentage coverage: 86&lt;br&gt;BLAST bit score: 172&lt;br&gt;E-value: 1.32e-59&lt;br&gt;&lt;br&gt;&lt;b&gt;BlastP hit with ctg1_673&lt;/b&gt;&lt;br&gt;Percentage identity: 48&lt;br&gt;Percentage coverage: 49&lt;br&gt;BLAST bit score: 74&lt;br&gt;E-value: 1.26e-19" locus_tag="STM2465" class="clusterblast-orf" id="knownclusterblast-4_all_4_1_7"  />
</g>
<g id="a4_008"  >
<polygon points="345,90 347,90 352,85 347,80 345,80 345,90 " style="fill:#158fd8; stroke-width:1; stroke:black; " description="&lt;b&gt;STM2464&lt;/b&gt;&lt;br&gt;microcompartment shell protein EutN&lt;br&gt;Location: 11142 - 10854&lt;br&gt;&lt;br&gt;&lt;b&gt;BlastP hit with ctg1_664&lt;/b&gt;&lt;br&gt;Percentage identity: 92&lt;br&gt;Percentage coverage: 100&lt;br&gt;BLAST bit score: 181&lt;br&gt;E-value: 4.16e-63" locus_tag="STM2464" class="clusterblast-orf" id="knownclusterblast-4_all_4_1_8"  />
</g>
<g id="a4_009"  >
<polygon points="352,90 379,90 384,85 379,80 352,80 352,90 " style="fill:#c015d8; stroke-width:1; stroke:black; " description="&lt;b&gt;STM2463&lt;/b&gt;&lt;br&gt;aldehyde oxidoreductase EutE&lt;br&gt;Location: 10843 - 9439&lt;br&gt;&lt;br&gt;&lt;b&gt;BlastP hit with ctg1_665&lt;/b&gt;&lt;br&gt;Percentage identity: 94&lt;br&gt;Percentage coverage: 100&lt;br&gt;BLAST bit score: 832&lt;br&gt;E-value: 1.17e-308" locus_tag="STM2463" class="clusterblast-orf" id="knownclusterblast-4_all_4_1_9"  />
</g>
<g id="a4_0010"  >
<polygon points="384,90 399,90 404,85 399,80 384,80 384,90 " style="fill:#d8a715; stroke-width:1; stroke:black; " description="&lt;b&gt;STM2462&lt;/b&gt;&lt;br&gt;ethanolamine utilization protein EutJ&lt;br&gt;Location: 9429 - 8589&lt;br&gt;&lt;br&gt;&lt;b&gt;BlastP hit with ctg1_666&lt;/b&gt;&lt;br&gt;Percentage identity: 89&lt;br&gt;Percentage coverage: 100&lt;br&gt;BLAST bit score: 503&lt;br&gt;E-value: 1.47e-184" locus_tag="STM2462" class="clusterblast-orf" id="knownclusterblast-4_all_4_1_10"  />
</g>
<g id="a4_0011"  >
<polygon points="403,90 426,90 431,85 426,80 403,80 403,90 " style="fill:#15d846; stroke-width:1; stroke:black; " description="&lt;b&gt;STM2461&lt;/b&gt;&lt;br&gt;ethanol dehydrogenase EutG&lt;br&gt;Location: 8600 - 7412&lt;br&gt;&lt;br&gt;&lt;b&gt;BlastP hit with ctg1_667&lt;/b&gt;&lt;br&gt;Percentage identity: 87&lt;br&gt;Percentage coverage: 100&lt;br&gt;BLAST bit score: 657&lt;br&gt;E-value: 9.16e-242" locus_tag="STM2461" class="clusterblast-orf" id="knownclusterblast-4_all_4_1_11"  />
</g>
<g id="a4_0012"  >
<polygon points="433,90 456,90 461,85 456,80 433,80 433,90 " style="fill:#1546d8; stroke-width:1; stroke:black; " description="&lt;b&gt;STM2460&lt;/b&gt;&lt;br&gt;ethanolamine transporter EutH&lt;br&gt;Location: 7293 - 6066&lt;br&gt;&lt;br&gt;&lt;b&gt;BlastP hit with ctg1_668&lt;/b&gt;&lt;br&gt;Percentage identity: 97&lt;br&gt;Percentage coverage: 100&lt;br&gt;BLAST bit score: 741&lt;br&gt;E-value: 1.09e-274" locus_tag="STM2460" class="clusterblast-orf" id="knownclusterblast-4_all_4_1_12"  />
</g>
<g id="a4_0013"  >
<polygon points="461,90 488,90 493,85 488,80 461,80 461,90 " style="fill:#d815a7; stroke-width:1; stroke:black; " description="&lt;b&gt;STM2459&lt;/b&gt;&lt;br&gt;ethanolamine utilization protein EutA&lt;br&gt;Location: 6070 - 4666&lt;br&gt;&lt;br&gt;&lt;b&gt;BlastP hit with ctg1_669&lt;/b&gt;&lt;br&gt;Percentage identity: 90&lt;br&gt;Percentage coverage: 100&lt;br&gt;BLAST bit score: 823&lt;br&gt;E-value: 5.3e-305" locus_tag="STM2459" class="clusterblast-orf" id="knownclusterblast-4_all_4_1_13"  />
</g>
<g id="a4_0014"  >
<polygon points="494,90 520,90 525,85 520,80 494,80 494,90 " style="fill:#c0d815; stroke-width:1; stroke:black; " description="&lt;b&gt;STM2458&lt;/b&gt;&lt;br&gt;ethanolamine ammonia-lyase large subunit EutB&lt;br&gt;Location: 4655 - 3293&lt;br&gt;&lt;br&gt;&lt;b&gt;BlastP hit with ctg1_670&lt;/b&gt;&lt;br&gt;Percentage identity: 98&lt;br&gt;Percentage coverage: 100&lt;br&gt;BLAST bit score: 886&lt;br&gt;E-value: 0.0" locus_tag="STM2458" class="clusterblast-orf" id="knownclusterblast-4_all_4_1_14"  />
</g>
<g id="a4_0015"  >
<polygon points="525,90 541,90 546,85 541,80 525,80 525,90 " style="fill:#15d88f; stroke-width:1; stroke:black; " description="&lt;b&gt;STM2457&lt;/b&gt;&lt;br&gt;ethanolamine ammonia-lyase small subunit EutC&lt;br&gt;Location: 3275 - 2378&lt;br&gt;&lt;br&gt;&lt;b&gt;BlastP hit with ctg1_671&lt;/b&gt;&lt;br&gt;Percentage identity: 90&lt;br&gt;Percentage coverage: 101&lt;br&gt;BLAST bit score: 511&lt;br&gt;E-value: 1.82e-187" locus_tag="STM2457" class="clusterblast-orf" id="knownclusterblast-4_all_4_1_15"  />
</g>
<g id="a4_0016"  >
<polygon points="546,90 556,90 561,85 556,80 546,80 546,90 " style="fill:#2e15d8; stroke-width:1; stroke:black; " description="&lt;b&gt;STM2456&lt;/b&gt;&lt;br&gt;carboxysome structural protein EutL&lt;br&gt;Location: 2369 - 1709&lt;br&gt;&lt;br&gt;&lt;b&gt;BlastP hit with ctg1_672&lt;/b&gt;&lt;br&gt;Percentage identity: 95&lt;br&gt;Percentage coverage: 100&lt;br&gt;BLAST bit score: 400&lt;br&gt;E-value: 5.41e-146" locus_tag="STM2456" class="clusterblast-orf" id="knownclusterblast-4_all_4_1_16"  />
</g>
<g id="a4_0017"  >
<polygon points="562,90 568,90 573,85 568,80 562,80 562,90 " style="fill:#2ed815; stroke-width:1; stroke:black; " description="&lt;b&gt;STM2455&lt;/b&gt;&lt;br&gt;carboxysome structural protein EutK&lt;br&gt;Location: 1697 - 1202&lt;br&gt;&lt;br&gt;&lt;b&gt;BlastP hit with ctg1_663&lt;/b&gt;&lt;br&gt;Percentage identity: 48&lt;br&gt;Percentage coverage: 75&lt;br&gt;BLAST bit score: 74&lt;br&gt;E-value: 1.19e-19&lt;br&gt;&lt;br&gt;&lt;b&gt;BlastP hit with ctg1_673&lt;/b&gt;&lt;br&gt;Percentage identity: 81&lt;br&gt;Percentage coverage: 99&lt;br&gt;BLAST bit score: 246&lt;br&gt;E-value: 1.21e-86" locus_tag="STM2455" class="clusterblast-orf" id="knownclusterblast-4_all_4_1_17"  />
</g>
<g id="a4_0018"  >
<polygon points="574,90 593,90 598,85 593,80 574,80 574,90 " style="fill:#d8155e; stroke-width:1; stroke:black; " description="&lt;b&gt;STM2454&lt;/b&gt;&lt;br&gt;HTH-type transcriptional regulator EutR&lt;br&gt;Location: 1155 - 102&lt;br&gt;&lt;br&gt;&lt;b&gt;BlastP hit with ctg1_674&lt;/b&gt;&lt;br&gt;Percentage identity: 92&lt;br&gt;Percentage coverage: 99&lt;br&gt;BLAST bit score: 653&lt;br&gt;E-value: 1.35e-241" locus_tag="STM2454" class="clusterblast-orf" id="knownclusterblast-4_all_4_1_18"  />
</g>
<g label="MGC00000010" description="MGC00000010_c1: Propanediol degradation S. enterica (25% of genes show similarity), PDU" class="clusterblast-cluster"  >
<text x="5" y="120" class="clusterblast-acc"  >
MGC00000010_c1: Propanediol degradation S. enterica (25% of genes show similarity), PDU</text>
<line x1="10" y1="135" x2="778.0" y2="135" style="stroke-width:1; stroke:grey; "  />
</g>
<g id="a4_000"  >
<polygon points="167,135 172,130 188,130 188,140 172,140 167,135 " style="fill:white; stroke-width:1; stroke:black; " description="&lt;b&gt;STM2036&lt;/b&gt;&lt;br&gt;transcriptional regulator PocR&lt;br&gt;Location: 221 - 1133" locus_tag="STM2036" class="clusterblast-orf" id="knownclusterblast-4_all_4_2_0"  />
</g>
<g id="a4_001"  >
<polygon points="193,135 198,130 211,130 211,140 198,140 193,135 " style="fill:white; stroke-width:1; stroke:black; " description="&lt;b&gt;STM2037&lt;/b&gt;&lt;br&gt;propanediol diffusion facilitator&lt;br&gt;Location: 1349 - 2144" locus_tag="STM2037" class="clusterblast-orf" id="knownclusterblast-4_all_4_2_1"  />
</g>
<g id="a4_002"  >
<polygon points="223,140 225,140 230,135 225,130 223,130 223,140 " style="fill:#2ed815; stroke-width:1; stroke:black; " description="&lt;b&gt;STM2038&lt;/b&gt;&lt;br&gt;propanediol utilization polyhedral body protein PduA&lt;br&gt;Location: 2668 - 2953&lt;br&gt;&lt;br&gt;&lt;b&gt;BlastP hit with ctg1_663&lt;/b&gt;&lt;br&gt;Percentage identity: 66&lt;br&gt;Percentage coverage: 80&lt;br&gt;BLAST bit score: 114&lt;br&gt;E-value: 1.27e-36&lt;br&gt;&lt;br&gt;&lt;b&gt;BlastP hit with ctg1_673&lt;/b&gt;&lt;br&gt;Percentage identity: 46&lt;br&gt;Percentage coverage: 51&lt;br&gt;BLAST bit score: 73&lt;br&gt;E-value: 2.38e-19" locus_tag="STM2038" class="clusterblast-orf" id="knownclusterblast-4_all_4_2_2"  />
</g>
<g id="a4_003"  >
<polygon points="229,140 243,140 248,135 243,130 229,130 229,140 " style="fill:white; stroke-width:1; stroke:black; " description="&lt;b&gt;STM2039&lt;/b&gt;&lt;br&gt;propanediol utilization polyhedral body protein PduB&lt;br&gt;Location: 2949 - 3762" locus_tag="STM2039" class="clusterblast-orf" id="knownclusterblast-4_all_4_2_3"  />
</g>
<g id="a4_004"  >
<polygon points="248,140 282,140 287,135 282,130 248,130 248,140 " style="fill:white; stroke-width:1; stroke:black; " description="&lt;b&gt;STM2040&lt;/b&gt;&lt;br&gt;propanediol dehydratase large subunit&lt;br&gt;Location: 3780 - 5445" locus_tag="STM2040" class="clusterblast-orf" id="knownclusterblast-4_all_4_2_4"  />
</g>
<g id="a4_005"  >
<polygon points="287,140 297,140 302,135 297,130 287,130 287,140 " style="fill:white; stroke-width:1; stroke:black; " description="&lt;b&gt;STM2041&lt;/b&gt;&lt;br&gt;propanediol dehydratase medium subunit&lt;br&gt;Location: 5455 - 6130" locus_tag="STM2041" class="clusterblast-orf" id="knownclusterblast-4_all_4_2_5"  />
</g>
<g id="a4_006"  >
<polygon points="303,140 310,140 315,135 310,130 303,130 303,140 " style="fill:white; stroke-width:1; stroke:black; " description="&lt;b&gt;STM2042&lt;/b&gt;&lt;br&gt;propanediol dehydratase small subunit&lt;br&gt;Location: 6144 - 6666" locus_tag="STM2042" class="clusterblast-orf" id="knownclusterblast-4_all_4_2_6"  />
</g>
<g id="a4_007"  >
<polygon points="315,140 352,140 357,135 352,130 315,130 315,140 " style="fill:white; stroke-width:1; stroke:black; " description="&lt;b&gt;STM2043&lt;/b&gt;&lt;br&gt;propanediol dehydratase reactivation protein&lt;br&gt;Location: 6675 - 8508" locus_tag="STM2043" class="clusterblast-orf" id="knownclusterblast-4_all_4_2_7"  />
</g>
<g id="a4_008"  >
<polygon points="357,140 360,140 365,135 360,130 357,130 357,140 " style="fill:white; stroke-width:1; stroke:black; " description="&lt;b&gt;STM2044&lt;/b&gt;&lt;br&gt;propanediol dehydratase reactivation protein&lt;br&gt;Location: 8497 - 8848" locus_tag="STM2044" class="clusterblast-orf" id="knownclusterblast-4_all_4_2_8"  />
</g>
<g id="a4_009"  >
<polygon points="365,140 366,140 371,135 366,130 365,130 365,140 " style="fill:#2ed815; stroke-width:1; stroke:black; " description="&lt;b&gt;STM2045&lt;/b&gt;&lt;br&gt;propanediol utilization polyhedral body protein PduJ&lt;br&gt;Location: 8866 - 9142&lt;br&gt;&lt;br&gt;&lt;b&gt;BlastP hit with ctg1_663&lt;/b&gt;&lt;br&gt;Percentage identity: 65&lt;br&gt;Percentage coverage: 77&lt;br&gt;BLAST bit score: 106&lt;br&gt;E-value: 1.82e-33&lt;br&gt;&lt;br&gt;&lt;b&gt;BlastP hit with ctg1_673&lt;/b&gt;&lt;br&gt;Percentage identity: 48&lt;br&gt;Percentage coverage: 52&lt;br&gt;BLAST bit score: 77&lt;br&gt;E-value: 5e-21" locus_tag="STM2045" class="clusterblast-orf" id="knownclusterblast-4_all_4_2_9"  />
</g>
<g id="a4_0010"  >
<polygon points="372,140 378,140 383,135 378,130 372,130 372,140 " style="fill:white; stroke-width:1; stroke:black; " description="&lt;b&gt;STM2046&lt;/b&gt;&lt;br&gt;propanediol utilization polyhedral body protein PduK&lt;br&gt;Location: 9166 - 9628" locus_tag="STM2046" class="clusterblast-orf" id="knownclusterblast-4_all_4_2_10"  />
</g>
<g id="a4_0011"  >
<polygon points="383,140 392,140 397,135 392,130 383,130 383,140 " style="fill:white; stroke-width:1; stroke:black; " description="&lt;b&gt;STM2047&lt;/b&gt;&lt;br&gt;phosphate propanoyltransferase&lt;br&gt;Location: 9627 - 10260" locus_tag="STM2047" class="clusterblast-orf" id="knownclusterblast-4_all_4_2_11"  />
</g>
<g id="a4_0012"  >
<polygon points="397,140 403,140 408,135 403,130 397,130 397,140 " style="fill:white; stroke-width:1; stroke:black; " description="&lt;b&gt;STM2048&lt;/b&gt;&lt;br&gt;propanediol utilization protein PduM&lt;br&gt;Location: 10256 - 10748" locus_tag="STM2048" class="clusterblast-orf" id="knownclusterblast-4_all_4_2_12"  />
</g>
<g id="a4_0013"  >
<polygon points="408,140 410,140 415,135 410,130 408,130 408,140 " style="fill:#158fd8; stroke-width:1; stroke:black; " description="&lt;b&gt;STM2049&lt;/b&gt;&lt;br&gt;propanediol utilization polyhedral body protein PduN&lt;br&gt;Location: 10751 - 11027&lt;br&gt;&lt;br&gt;&lt;b&gt;BlastP hit with ctg1_664&lt;/b&gt;&lt;br&gt;Percentage identity: 44&lt;br&gt;Percentage coverage: 92&lt;br&gt;BLAST bit score: 67&lt;br&gt;E-value: 6.17e-18" locus_tag="STM2049" class="clusterblast-orf" id="knownclusterblast-4_all_4_2_13"  />
</g>
<g id="a4_0014"  >
<polygon points="415,140 433,140 438,135 433,130 415,130 415,140 " style="fill:white; stroke-width:1; stroke:black; " description="&lt;b&gt;STM2050&lt;/b&gt;&lt;br&gt;propanediol utilization protein PduO&lt;br&gt;Location: 11036 - 12047" locus_tag="STM2050" class="clusterblast-orf" id="knownclusterblast-4_all_4_2_14"  />
</g>
<g id="a4_0015"  >
<polygon points="438,140 465,140 470,135 465,130 438,130 438,140 " style="fill:#c015d8; stroke-width:1; stroke:black; " description="&lt;b&gt;STM2051&lt;/b&gt;&lt;br&gt;CoA-dependent propionaldehyde dehydrogenase&lt;br&gt;Location: 12043 - 13438&lt;br&gt;&lt;br&gt;&lt;b&gt;BlastP hit with ctg1_665&lt;/b&gt;&lt;br&gt;Percentage identity: 46&lt;br&gt;Percentage coverage: 101&lt;br&gt;BLAST bit score: 367&lt;br&gt;E-value: 2.61e-125" locus_tag="STM2051" class="clusterblast-orf" id="knownclusterblast-4_all_4_2_15"  />
</g>
<g id="a4_0016"  >
<polygon points="470,140 491,140 496,135 491,130 470,130 470,140 " style="fill:#15d846; stroke-width:1; stroke:black; " description="&lt;b&gt;STM2052&lt;/b&gt;&lt;br&gt;propanol dehydrogenase&lt;br&gt;Location: 13449 - 14562&lt;br&gt;&lt;br&gt;&lt;b&gt;BlastP hit with ctg1_667&lt;/b&gt;&lt;br&gt;Percentage identity: 38&lt;br&gt;Percentage coverage: 96&lt;br&gt;BLAST bit score: 187&lt;br&gt;E-value: 1.1e-57" locus_tag="STM2052" class="clusterblast-orf" id="knownclusterblast-4_all_4_2_16"  />
</g>
<g id="a4_0017"  >
<polygon points="496,140 522,140 527,135 522,130 496,130 496,140 " style="fill:white; stroke-width:1; stroke:black; " description="&lt;b&gt;STM2053&lt;/b&gt;&lt;br&gt;propanediol utilization polyhedral body protein PduS&lt;br&gt;Location: 14558 - 15914" locus_tag="STM2053" class="clusterblast-orf" id="knownclusterblast-4_all_4_2_17"  />
</g>
<g id="a4_0018"  >
<polygon points="527,140 534,140 539,135 534,130 527,130 527,140 " style="fill:white; stroke-width:1; stroke:black; " description="&lt;b&gt;STM2054&lt;/b&gt;&lt;br&gt;propanediol utilization polyhedral body protein PduT&lt;br&gt;Location: 15916 - 16471" locus_tag="STM2054" class="clusterblast-orf" id="knownclusterblast-4_all_4_2_18"  />
</g>
<g id="a4_0019"  >
<polygon points="539,140 543,140 548,135 543,130 539,130 539,140 " style="fill:#77d815; stroke-width:1; stroke:black; " description="&lt;b&gt;STM2055&lt;/b&gt;&lt;br&gt;propanediol utilization polyhedral body protein PduU&lt;br&gt;Location: 16470 - 16821&lt;br&gt;&lt;br&gt;&lt;b&gt;BlastP hit with ctg1_658&lt;/b&gt;&lt;br&gt;Percentage identity: 57&lt;br&gt;Percentage coverage: 98&lt;br&gt;BLAST bit score: 128&lt;br&gt;E-value: 8.08e-42" locus_tag="STM2055" class="clusterblast-orf" id="knownclusterblast-4_all_4_2_19"  />
</g>
<g id="a4_0020"  >
<polygon points="548,140 553,140 558,135 553,130 548,130 548,140 " style="fill:white; stroke-width:1; stroke:black; " description="&lt;b&gt;STM2056&lt;/b&gt;&lt;br&gt;propanediol utilization protein PduV&lt;br&gt;Location: 16825 - 17278" locus_tag="STM2056" class="clusterblast-orf" id="knownclusterblast-4_all_4_2_20"  />
</g>
<g id="a4_0021"  >
<polygon points="558,140 580,140 585,135 580,130 558,130 558,140 " style="fill:white; stroke-width:1; stroke:black; " description="&lt;b&gt;STM2057&lt;/b&gt;&lt;br&gt;propionate kinase&lt;br&gt;Location: 17262 - 18477" locus_tag="STM2057" class="clusterblast-orf" id="knownclusterblast-4_all_4_2_21"  />
</g>
<g id="a4_0022"  >
<polygon points="587,140 602,140 607,135 602,130 587,130 587,140 " style="fill:white; stroke-width:1; stroke:black; " description="&lt;b&gt;STM2058&lt;/b&gt;&lt;br&gt;L-threonine kinase&lt;br&gt;Location: 18534 - 19437" locus_tag="STM2058" class="clusterblast-orf" id="knownclusterblast-4_all_4_2_22"  />
</g>
<g id="a4_0023"  >
<polygon points="608,135 612,130 612,140 608,135 " style="fill:white; stroke-width:1; stroke:black; " description="&lt;b&gt;STM2059&lt;/b&gt;&lt;br&gt;hypothetical protein&lt;br&gt;Location: 19470 - 19638" locus_tag="STM2059" class="clusterblast-orf" id="knownclusterblast-4_all_4_2_23"  />
</g>
<g label="MGC0000001" description="MGC0000001_c1: Trimethylamine synthesis C. sporogenes (33% of genes show similarity), TMA" class="clusterblast-cluster"  >
<text x="5" y="170" class="clusterblast-acc"  >
MGC0000001_c1: Trimethylamine synthesis C. sporogenes (33% of genes show similarity), TMA</text>
<line x1="10" y1="185" x2="778.0" y2="185" style="stroke-width:1; stroke:grey; "  />
</g>
<g id="a4_000"  >
<polygon points="324,190 324,185 324,180 324,190 " style="fill:#2ed815; stroke-width:1; stroke:black; " description="&lt;b&gt;CLOSPO_RS07620&lt;/b&gt;&lt;br&gt;hypothetical protein&lt;br&gt;Location: 0 - 4&lt;br&gt;&lt;br&gt;&lt;b&gt;BlastP hit with ctg1_663&lt;/b&gt;&lt;br&gt;Percentage identity: 54&lt;br&gt;Percentage coverage: 78&lt;br&gt;BLAST bit score: 83&lt;br&gt;E-value: 4.5e-24&lt;br&gt;&lt;br&gt;&lt;b&gt;BlastP hit with ctg1_673&lt;/b&gt;&lt;br&gt;Percentage identity: 40&lt;br&gt;Percentage coverage: 54&lt;br&gt;BLAST bit score: 67&lt;br&gt;E-value: 7.04e-17" locus_tag="CLOSPO_RS07620" class="clusterblast-orf" id="knownclusterblast-4_all_4_3_0"  />
</g>
<g id="a4_001"  >
<polygon points="325,190 354,190 359,185 354,180 325,180 325,190 " style="fill:white; stroke-width:1; stroke:black; " description="&lt;b&gt;CLOSPO_RS07625&lt;/b&gt;&lt;br&gt;acetaldehyde dehydrogenase&lt;br&gt;Location: 41 - 1523" locus_tag="CLOSPO_RS07625" class="clusterblast-orf" id="knownclusterblast-4_all_4_3_1"  />
</g>
<g id="a4_002"  >
<polygon points="360,190 413,190 418,185 413,180 360,180 360,190 " style="fill:white; stroke-width:1; stroke:black; " description="&lt;b&gt;CLOSPO_RS07630&lt;/b&gt;&lt;br&gt;choline trimethylamine-lyase&lt;br&gt;Location: 1572 - 4113" locus_tag="CLOSPO_RS07630" class="clusterblast-orf" id="knownclusterblast-4_all_4_3_2"  />
</g>
<g id="a4_003"  >
<polygon points="423,190 439,190 444,185 439,180 423,180 423,190 " style="fill:white; stroke-width:1; stroke:black; " description="&lt;b&gt;CLOSPO_RS07635&lt;/b&gt;&lt;br&gt;choline TMA-lyase-activating enzyme&lt;br&gt;Location: 4294 - 5248" locus_tag="CLOSPO_RS07635" class="clusterblast-orf" id="knownclusterblast-4_all_4_3_3"  />
</g>
<g id="a4_004"  >
<polygon points="445,190 448,190 453,185 448,180 445,180 445,190 " style="fill:#77d815; stroke-width:1; stroke:black; " description="&lt;b&gt;CLOSPO_RS07640&lt;/b&gt;&lt;br&gt;propanediol utilization protein PduU&lt;br&gt;Location: 5287 - 5641&lt;br&gt;&lt;br&gt;&lt;b&gt;BlastP hit with ctg1_658&lt;/b&gt;&lt;br&gt;Percentage identity: 51&lt;br&gt;Percentage coverage: 97&lt;br&gt;BLAST bit score: 116&lt;br&gt;E-value: 6.11e-37" locus_tag="CLOSPO_RS07640" class="clusterblast-orf" id="knownclusterblast-4_all_4_3_4"  />
</g>
<g id="a4_005"  >
<polygon points="453,190 455,185 453,180 453,190 " style="fill:white; stroke-width:1; stroke:black; " description="&lt;b&gt;CLOSPO_RS07645&lt;/b&gt;&lt;br&gt;hypothetical protein&lt;br&gt;Location: 5637 - 5704" locus_tag="CLOSPO_RS07645" class="clusterblast-orf" id="knownclusterblast-4_all_4_3_5"  />
</g>
</svg>
