<svg xmlns="http://www.w3.org/2000/svg" xmlns:xlink="http://www.w3.org/1999/xlink" version="1.1" x="0" y="0" height="100" width="800" viewBox="0 0 800 100" preserveAspectRatio="none"  >
<g label="Query sequence" class="clusterblast-cluster"  >
<text x="5" y="20" class="clusterblast-acc"  >
Query sequence</text>
<line x1="10" y1="35" x2="778.0" y2="35" style="stroke-width:1; stroke:grey; "  />
<polygon points="0,35 5,30 18,30 18,40 5,40 0,35 " style="fill:white; stroke-width:1; stroke:black; " description="&lt;b&gt;ctg1_1698&lt;/b&gt;&lt;br&gt;ctg1 1698&lt;br&gt;Location: 1785446 - 1786025" locus_tag="ctg1_1698" class="clusterblast-orf" id="knownclusterblast-9_q0_0_all"  />
<polygon points="26,35 31,30 50,30 50,40 31,40 26,35 " style="fill:white; stroke-width:1; stroke:black; " description="&lt;b&gt;ctg1_1699&lt;/b&gt;&lt;br&gt;ctg1 1699&lt;br&gt;Location: 1786257 - 1787025" locus_tag="ctg1_1699" class="clusterblast-orf" id="knownclusterblast-9_q1_0_all"  />
<polygon points="54,35 59,30 87,30 87,40 59,40 54,35 " style="fill:white; stroke-width:1; stroke:black; " description="&lt;b&gt;ctg1_1700&lt;/b&gt;&lt;br&gt;ctg1 1700&lt;br&gt;Location: 1787136 - 1788165" locus_tag="ctg1_1700" class="clusterblast-orf" id="knownclusterblast-9_q2_0_all"  />
<polygon points="92,40 138,40 143,35 138,30 92,30 92,40 " style="fill:white; stroke-width:1; stroke:black; " description="&lt;b&gt;ctg1_1701&lt;/b&gt;&lt;br&gt;ctg1 1701&lt;br&gt;Location: 1788339 - 1789932" locus_tag="ctg1_1701" class="clusterblast-orf" id="knownclusterblast-9_q3_0_all"  />
<polygon points="143,40 176,40 181,35 176,30 143,30 143,40 " style="fill:white; stroke-width:1; stroke:black; " description="&lt;b&gt;ctg1_1702&lt;/b&gt;&lt;br&gt;ctg1 1702&lt;br&gt;Location: 1789941 - 1791114" locus_tag="ctg1_1702" class="clusterblast-orf" id="knownclusterblast-9_q4_0_all"  />
<polygon points="184,40 211,40 216,35 211,30 184,30 184,40 " style="fill:white; stroke-width:1; stroke:black; " description="&lt;b&gt;ctg1_1703&lt;/b&gt;&lt;br&gt;ctg1 1703&lt;br&gt;Location: 1791217 - 1792219" locus_tag="ctg1_1703" class="clusterblast-orf" id="knownclusterblast-9_q5_0_all"  />
<polygon points="217,35 222,30 251,30 251,40 222,40 217,35 " style="fill:white; stroke-width:1; stroke:black; " description="&lt;b&gt;ctg1_1704&lt;/b&gt;&lt;br&gt;ctg1 1704&lt;br&gt;Location: 1792252 - 1793293" locus_tag="ctg1_1704" class="clusterblast-orf" id="knownclusterblast-9_q6_0_all"  />
<polygon points="259,40 260,40 265,35 260,30 259,30 259,40 " style="fill:white; stroke-width:1; stroke:black; " description="&lt;b&gt;ctg1_1705&lt;/b&gt;&lt;br&gt;ctg1 1705&lt;br&gt;Location: 1793543 - 1793759" locus_tag="ctg1_1705" class="clusterblast-orf" id="knownclusterblast-9_q7_0_all"  />
<polygon points="268,40 277,40 282,35 277,30 268,30 268,40 " style="fill:white; stroke-width:1; stroke:black; " description="&lt;b&gt;ctg1_1706&lt;/b&gt;&lt;br&gt;ctg1 1706&lt;br&gt;Location: 1793844 - 1794285" locus_tag="ctg1_1706" class="clusterblast-orf" id="knownclusterblast-9_q8_0_all"  />
<polygon points="285,40 298,40 303,35 298,30 285,30 285,40 " style="fill:#d81515; stroke-width:1; stroke:black; " description="&lt;b&gt;ctg1_1707&lt;/b&gt;&lt;br&gt;ctg1 1707&lt;br&gt;Location: 1794361 - 1794943" locus_tag="ctg1_1707" class="clusterblast-orf" id="knownclusterblast-9_q9_0_all"  />
<polygon points="303,40 317,40 322,35 317,30 303,30 303,40 " style="fill:#15d815; stroke-width:1; stroke:black; " description="&lt;b&gt;ctg1_1708&lt;/b&gt;&lt;br&gt;ctg1 1708&lt;br&gt;Location: 1794942 - 1795521" locus_tag="ctg1_1708" class="clusterblast-orf" id="knownclusterblast-9_q10_0_all"  />
<polygon points="322,40 388,40 393,35 388,30 322,30 322,40 " style="fill:#1515d8; stroke-width:1; stroke:black; " description="&lt;b&gt;ctg1_1709&lt;/b&gt;&lt;br&gt;ctg1 1709&lt;br&gt;Location: 1795513 - 1797736" locus_tag="ctg1_1709" class="clusterblast-orf" id="knownclusterblast-9_q11_0_all"  />
<polygon points="393,40 421,40 426,35 421,30 393,30 393,40 " style="fill:white; stroke-width:1; stroke:black; " description="&lt;b&gt;ctg1_1710&lt;/b&gt;&lt;br&gt;ctg1 1710&lt;br&gt;Location: 1797736 - 1798795" locus_tag="ctg1_1710" class="clusterblast-orf" id="knownclusterblast-9_q12_0_all"  />
<polygon points="426,40 441,40 446,35 441,30 426,30 426,40 " style="fill:white; stroke-width:1; stroke:black; " description="&lt;b&gt;ctg1_1711&lt;/b&gt;&lt;br&gt;ctg1 1711&lt;br&gt;Location: 1798798 - 1799419" locus_tag="ctg1_1711" class="clusterblast-orf" id="knownclusterblast-9_q13_0_all"  />
<polygon points="446,40 464,40 469,35 464,30 446,30 446,40 " style="fill:#d81515; stroke-width:1; stroke:black; " description="&lt;b&gt;ctg1_1712&lt;/b&gt;&lt;br&gt;ctg1 1712&lt;br&gt;Location: 1799422 - 1800118" locus_tag="ctg1_1712" class="clusterblast-orf" id="knownclusterblast-9_q14_0_all"  />
<polygon points="469,40 484,40 489,35 484,30 469,30 469,40 " style="fill:white; stroke-width:1; stroke:black; " description="&lt;b&gt;ctg1_1713&lt;/b&gt;&lt;br&gt;ctg1 1713&lt;br&gt;Location: 1800117 - 1800753" locus_tag="ctg1_1713" class="clusterblast-orf" id="knownclusterblast-9_q15_0_all"  />
<polygon points="493,40 494,40 499,35 494,30 493,30 493,40 " style="fill:white; stroke-width:1; stroke:black; " description="&lt;b&gt;ctg1_1714&lt;/b&gt;&lt;br&gt;ctg1 1714&lt;br&gt;Location: 1800880 - 1801081" locus_tag="ctg1_1714" class="clusterblast-orf" id="knownclusterblast-9_q16_0_all"  />
<polygon points="508,40 551,40 556,35 551,30 508,30 508,40 " style="fill:white; stroke-width:1; stroke:black; " description="&lt;b&gt;ctg1_1715&lt;/b&gt;&lt;br&gt;ctg1 1715&lt;br&gt;Location: 1801363 - 1802866" locus_tag="ctg1_1715" class="clusterblast-orf" id="knownclusterblast-9_q17_0_all"  />
<polygon points="560,40 574,40 579,35 574,30 560,30 560,40 " style="fill:white; stroke-width:1; stroke:black; " description="&lt;b&gt;ctg1_1716&lt;/b&gt;&lt;br&gt;ctg1 1716&lt;br&gt;Location: 1802971 - 1803577" locus_tag="ctg1_1716" class="clusterblast-orf" id="knownclusterblast-9_q18_0_all"  />
<polygon points="581,35 586,30 608,30 608,40 586,40 581,35 " style="fill:white; stroke-width:1; stroke:black; " description="&lt;b&gt;ctg1_1717&lt;/b&gt;&lt;br&gt;ctg1 1717&lt;br&gt;Location: 1803620 - 1804481" locus_tag="ctg1_1717" class="clusterblast-orf" id="knownclusterblast-9_q19_0_all"  />
<polygon points="610,35 615,30 651,30 651,40 615,40 610,35 " style="fill:white; stroke-width:1; stroke:black; " description="&lt;b&gt;ctg1_1718&lt;/b&gt;&lt;br&gt;ctg1 1718&lt;br&gt;Location: 1804542 - 1805817" locus_tag="ctg1_1718" class="clusterblast-orf" id="knownclusterblast-9_q20_0_all"  />
<polygon points="655,35 660,30 676,30 676,40 660,40 655,35 " style="fill:white; stroke-width:1; stroke:black; " description="&lt;b&gt;ctg1_1719&lt;/b&gt;&lt;br&gt;ctg1 1719&lt;br&gt;Location: 1805945 - 1806602" locus_tag="ctg1_1719" class="clusterblast-orf" id="knownclusterblast-9_q21_0_all"  />
<polygon points="678,35 683,30 688,30 688,40 683,40 678,35 " style="fill:white; stroke-width:1; stroke:black; " description="&lt;b&gt;ctg1_1720&lt;/b&gt;&lt;br&gt;ctg1 1720&lt;br&gt;Location: 1806660 - 1806984" locus_tag="ctg1_1720" class="clusterblast-orf" id="knownclusterblast-9_q22_0_all"  />
<polygon points="691,35 696,30 727,30 727,40 696,40 691,35 " style="fill:white; stroke-width:1; stroke:black; " description="&lt;b&gt;ctg1_1721&lt;/b&gt;&lt;br&gt;ctg1 1721&lt;br&gt;Location: 1807087 - 1808197" locus_tag="ctg1_1721" class="clusterblast-orf" id="knownclusterblast-9_q23_0_all"  />
<polygon points="736,40 745,40 750,35 745,30 736,30 736,40 " style="fill:white; stroke-width:1; stroke:black; " description="&lt;b&gt;ctg1_1722&lt;/b&gt;&lt;br&gt;ctg1 1722&lt;br&gt;Location: 1808470 - 1808938" locus_tag="ctg1_1722" class="clusterblast-orf" id="knownclusterblast-9_q24_0_all"  />
<polygon points="752,35 757,30 766,30 766,40 757,40 752,35 " style="fill:white; stroke-width:1; stroke:black; " description="&lt;b&gt;ctg1_1723&lt;/b&gt;&lt;br&gt;ctg1 1723&lt;br&gt;Location: 1808984 - 1809419" locus_tag="ctg1_1723" class="clusterblast-orf" id="knownclusterblast-9_q25_0_all"  />
<polygon points="772,40 775,40 780,35 775,30 772,30 772,40 " style="fill:white; stroke-width:1; stroke:black; " description="&lt;b&gt;ctg1_1724&lt;/b&gt;&lt;br&gt;ctg1 1724&lt;br&gt;Location: 1809619 - 1809856" locus_tag="ctg1_1724" class="clusterblast-orf" id="knownclusterblast-9_q26_0_all"  />
</g>
<g label="MGC00000037" description="MGC00000037_c1: Rnf complex C. sporogenes (66% of genes show similarity), RNF" class="clusterblast-cluster"  >
<text x="5" y="70" class="clusterblast-acc"  >
MGC00000037_c1: Rnf complex C. sporogenes (66% of genes show similarity), RNF</text>
<line x1="10" y1="85" x2="778.0" y2="85" style="stroke-width:1; stroke:grey; "  />
</g>
<g id="a9_000"  >
<polygon points="310,90 348,90 353,85 348,80 310,80 310,90 " style="fill:#1515d8; stroke-width:1; stroke:black; " description="&lt;b&gt;CLOSPO_00573&lt;/b&gt;&lt;br&gt;electron transport complex, RnfABCDGE type, C subunit&lt;br&gt;Location: 14950 - 13606&lt;br&gt;&lt;br&gt;&lt;b&gt;BlastP hit with ctg1_1709&lt;/b&gt;&lt;br&gt;Percentage identity: 39&lt;br&gt;Percentage coverage: 52&lt;br&gt;BLAST bit score: 275&lt;br&gt;E-value: 1.64e-86" locus_tag="CLOSPO_00573" class="clusterblast-orf" id="knownclusterblast-9_all_9_1_0"  />
</g>
<g id="a9_001"  >
<polygon points="354,90 379,90 384,85 379,80 354,80 354,90 " style="fill:white; stroke-width:1; stroke:black; " description="&lt;b&gt;CLOSPO_00572&lt;/b&gt;&lt;br&gt;electron transport complex, RnfABCDGE type, D subunit&lt;br&gt;Location: 13584 - 12651" locus_tag="CLOSPO_00572" class="clusterblast-orf" id="knownclusterblast-9_all_9_1_1"  />
</g>
<g id="a9_002"  >
<polygon points="384,90 397,90 402,85 397,80 384,80 384,90 " style="fill:white; stroke-width:1; stroke:black; " description="&lt;b&gt;CLOSPO_00571&lt;/b&gt;&lt;br&gt;electron transport complex, RnfABCDGE type, G subunit&lt;br&gt;Location: 12652 - 12079" locus_tag="CLOSPO_00571" class="clusterblast-orf" id="knownclusterblast-9_all_9_1_2"  />
</g>
<g id="a9_003"  >
<polygon points="402,90 416,90 421,85 416,80 402,80 402,90 " style="fill:#d81515; stroke-width:1; stroke:black; " description="&lt;b&gt;CLOSPO_00570&lt;/b&gt;&lt;br&gt;electron transport complex, RnfABCDGE type, E subunit&lt;br&gt;Location: 12080 - 11480&lt;br&gt;&lt;br&gt;&lt;b&gt;BlastP hit with ctg1_1712&lt;/b&gt;&lt;br&gt;Percentage identity: 42&lt;br&gt;Percentage coverage: 92&lt;br&gt;BLAST bit score: 150&lt;br&gt;E-value: 1.62e-47" locus_tag="CLOSPO_00570" class="clusterblast-orf" id="knownclusterblast-9_all_9_1_3"  />
</g>
<g id="a9_004"  >
<polygon points="423,90 437,90 442,85 437,80 423,80 423,90 " style="fill:#d81515; stroke-width:1; stroke:black; " description="&lt;b&gt;CLOSPO_00569&lt;/b&gt;&lt;br&gt;electron transport complex, RnfABCDGE type, A subunit&lt;br&gt;Location: 11438 - 10847&lt;br&gt;&lt;br&gt;&lt;b&gt;BlastP hit with ctg1_1707&lt;/b&gt;&lt;br&gt;Percentage identity: 56&lt;br&gt;Percentage coverage: 96&lt;br&gt;BLAST bit score: 193&lt;br&gt;E-value: 6.59e-65&lt;br&gt;&lt;br&gt;&lt;b&gt;BlastP hit with ctg1_1712&lt;/b&gt;&lt;br&gt;Percentage identity: 32&lt;br&gt;Percentage coverage: 68&lt;br&gt;BLAST bit score: 68&lt;br&gt;E-value: 5.5e-16" locus_tag="CLOSPO_00569" class="clusterblast-orf" id="knownclusterblast-9_all_9_1_4"  />
</g>
<g id="a9_005"  >
<polygon points="442,90 464,90 469,85 464,80 442,80 442,90 " style="fill:#15d815; stroke-width:1; stroke:black; " description="&lt;b&gt;CLOSPO_00568&lt;/b&gt;&lt;br&gt;electron transport complex, RnfABCDGE type, B subunit&lt;br&gt;Location: 10834 - 10000&lt;br&gt;&lt;br&gt;&lt;b&gt;BlastP hit with ctg1_1708&lt;/b&gt;&lt;br&gt;Percentage identity: 35&lt;br&gt;Percentage coverage: 82&lt;br&gt;BLAST bit score: 89&lt;br&gt;E-value: 1.14e-23" locus_tag="CLOSPO_00568" class="clusterblast-orf" id="knownclusterblast-9_all_9_1_5"  />
</g>
</svg>
