<svg xmlns="http://www.w3.org/2000/svg" xmlns:xlink="http://www.w3.org/1999/xlink" version="1.1" x="0" y="0" height="230" width="800" viewBox="0 0 800 230" preserveAspectRatio="none"  >
<g label="Query sequence" class="clusterblast-cluster"  >
<text x="5" y="20" class="clusterblast-acc"  >
Query sequence</text>
<line x1="10" y1="35" x2="778.0" y2="35" style="stroke-width:1; stroke:grey; "  />
<polygon points="0,40 23,40 28,35 23,30 0,30 0,40 " style="fill:white; stroke-width:1; stroke:black; " description="&lt;b&gt;ctg1_755&lt;/b&gt;&lt;br&gt;ctg1 755&lt;br&gt;Location: 797749 - 798541" locus_tag="ctg1_755" class="clusterblast-orf" id="dummy-3_q0_0_all"  />
<polygon points="28,35 33,30 65,30 65,40 33,40 28,35 " style="fill:white; stroke-width:1; stroke:black; " description="&lt;b&gt;ctg1_756&lt;/b&gt;&lt;br&gt;ctg1 756&lt;br&gt;Location: 798537 - 799584" locus_tag="ctg1_756" class="clusterblast-orf" id="dummy-3_q1_0_all"  />
<polygon points="70,35 75,30 108,30 108,40 75,40 70,35 " style="fill:white; stroke-width:1; stroke:black; " description="&lt;b&gt;ctg1_757&lt;/b&gt;&lt;br&gt;ctg1 757&lt;br&gt;Location: 799735 - 800797" locus_tag="ctg1_757" class="clusterblast-orf" id="dummy-3_q2_0_all"  />
<polygon points="108,35 113,30 133,30 133,40 113,40 108,35 " style="fill:white; stroke-width:1; stroke:black; " description="&lt;b&gt;ctg1_758&lt;/b&gt;&lt;br&gt;ctg1 758&lt;br&gt;Location: 800793 - 801522" locus_tag="ctg1_758" class="clusterblast-orf" id="dummy-3_q3_0_all"  />
<polygon points="134,35 139,30 221,30 221,40 139,40 134,35 " style="fill:white; stroke-width:1; stroke:black; " description="&lt;b&gt;ctg1_759&lt;/b&gt;&lt;br&gt;ctg1 759&lt;br&gt;Location: 801536 - 803984" locus_tag="ctg1_759" class="clusterblast-orf" id="dummy-3_q4_0_all"  />
<polygon points="223,35 228,30 243,30 243,40 228,40 223,35 " style="fill:white; stroke-width:1; stroke:black; " description="&lt;b&gt;ctg1_760&lt;/b&gt;&lt;br&gt;ctg1 760&lt;br&gt;Location: 804043 - 804610" locus_tag="ctg1_760" class="clusterblast-orf" id="dummy-3_q5_0_all"  />
<polygon points="257,35 262,30 302,30 302,40 262,40 257,35 " style="fill:white; stroke-width:1; stroke:black; " description="&lt;b&gt;ctg1_761&lt;/b&gt;&lt;br&gt;ctg1 761&lt;br&gt;Location: 804999 - 806283" locus_tag="ctg1_761" class="clusterblast-orf" id="dummy-3_q6_0_all"  />
<polygon points="309,35 313,30 313,40 309,35 " style="fill:white; stroke-width:1; stroke:black; " description="&lt;b&gt;ctg1_762&lt;/b&gt;&lt;br&gt;ctg1 762&lt;br&gt;Location: 806488 - 806596" locus_tag="ctg1_762" class="clusterblast-orf" id="dummy-3_q7_0_all"  />
<polygon points="327,40 336,40 341,35 336,30 327,30 327,40 " style="fill:white; stroke-width:1; stroke:black; " description="&lt;b&gt;ctg1_763&lt;/b&gt;&lt;br&gt;ctg1 763&lt;br&gt;Location: 806976 - 807381" locus_tag="ctg1_763" class="clusterblast-orf" id="dummy-3_q8_0_all"  />
<polygon points="341,40 348,40 353,35 348,30 341,30 341,40 " style="fill:white; stroke-width:1; stroke:black; " description="&lt;b&gt;ctg1_764&lt;/b&gt;&lt;br&gt;ctg1 764&lt;br&gt;Location: 807374 - 807722" locus_tag="ctg1_764" class="clusterblast-orf" id="dummy-3_q9_0_all"  />
<polygon points="353,40 411,40 416,35 411,30 353,30 353,40 " style="fill:#d81515; stroke-width:1; stroke:black; " description="&lt;b&gt;ctg1_765&lt;/b&gt;&lt;br&gt;ctg1 765&lt;br&gt;Location: 807721 - 809488" locus_tag="ctg1_765" class="clusterblast-orf" id="dummy-3_q10_0_all"  />
<polygon points="416,40 436,40 441,35 436,30 416,30 416,40 " style="fill:#15d8d8; stroke-width:1; stroke:black; " description="&lt;b&gt;ctg1_766&lt;/b&gt;&lt;br&gt;ctg1 766&lt;br&gt;Location: 809503 - 810220" locus_tag="ctg1_766" class="clusterblast-orf" id="dummy-3_q11_0_all"  />
<polygon points="452,40 546,40 551,35 546,30 452,30 452,40 " style="fill:white; stroke-width:1; stroke:black; " description="&lt;b&gt;ctg1_767&lt;/b&gt;&lt;br&gt;ctg1 767&lt;br&gt;Location: 810520 - 813322" locus_tag="ctg1_767" class="clusterblast-orf" id="dummy-3_q12_0_all"  />
<polygon points="552,40 590,40 595,35 590,30 552,30 552,40 " style="fill:white; stroke-width:1; stroke:black; " description="&lt;b&gt;ctg1_768&lt;/b&gt;&lt;br&gt;ctg1 768&lt;br&gt;Location: 813336 - 814554" locus_tag="ctg1_768" class="clusterblast-orf" id="dummy-3_q13_0_all"  />
<polygon points="605,40 641,40 646,35 641,30 605,30 605,40 " style="fill:white; stroke-width:1; stroke:black; " description="&lt;b&gt;ctg1_769&lt;/b&gt;&lt;br&gt;ctg1 769&lt;br&gt;Location: 814828 - 815995" locus_tag="ctg1_769" class="clusterblast-orf" id="dummy-3_q14_0_all"  />
<polygon points="646,40 672,40 677,35 672,30 646,30 646,40 " style="fill:white; stroke-width:1; stroke:black; " description="&lt;b&gt;ctg1_770&lt;/b&gt;&lt;br&gt;ctg1 770&lt;br&gt;Location: 815994 - 816864" locus_tag="ctg1_770" class="clusterblast-orf" id="dummy-3_q15_0_all"  />
<polygon points="680,35 685,30 706,30 706,40 685,40 680,35 " style="fill:white; stroke-width:1; stroke:black; " description="&lt;b&gt;ctg1_771&lt;/b&gt;&lt;br&gt;ctg1 771&lt;br&gt;Location: 816967 - 817690" locus_tag="ctg1_771" class="clusterblast-orf" id="dummy-3_q16_0_all"  />
<polygon points="712,40 775,40 780,35 775,30 712,30 712,40 " style="fill:white; stroke-width:1; stroke:black; " description="&lt;b&gt;ctg1_772&lt;/b&gt;&lt;br&gt;ctg1 772&lt;br&gt;Location: 817858 - 819775" locus_tag="ctg1_772" class="clusterblast-orf" id="dummy-3_q17_0_all"  />
</g>
<g label="MGC00000058" description="MGC00000058_c1: Fumarate2succinate suc dh E. coli (100% of genes show similarity), SUC" class="clusterblast-cluster"  >
<text x="5" y="70" class="clusterblast-acc"  >
MGC00000058_c1: Fumarate2succinate suc dh E. coli (100% of genes show similarity), SUC</text>
<line x1="10" y1="85" x2="778.0" y2="85" style="stroke-width:1; stroke:grey; "  />
</g>
<g id="a3_000"  >
<polygon points="345,90 403,90 408,85 403,80 345,80 345,90 " style="fill:#d81515; stroke-width:1; stroke:black; " description="&lt;b&gt;HMPREF9550_01793&lt;/b&gt;&lt;br&gt;succinate dehydrogenase, flavoprotein subunit&lt;br&gt;Location: 12499 - 10732&lt;br&gt;&lt;br&gt;&lt;b&gt;BlastP hit with ctg1_765&lt;/b&gt;&lt;br&gt;Percentage identity: 100&lt;br&gt;Percentage coverage: 100&lt;br&gt;BLAST bit score: 1182&lt;br&gt;E-value: 0.0" locus_tag="HMPREF9550_01793" class="clusterblast-orf" id="dummy-3_h3_1_0"  />
</g>
<g id="a3_001"  >
<polygon points="408,90 429,90 434,85 429,80 408,80 408,90 " style="fill:#15d8d8; stroke-width:1; stroke:black; " description="&lt;b&gt;HMPREF9550_01792&lt;/b&gt;&lt;br&gt;succinate dehydrogenase iron-sulfur subunit&lt;br&gt;Location: 10717 - 10000&lt;br&gt;&lt;br&gt;&lt;b&gt;BlastP hit with ctg1_766&lt;/b&gt;&lt;br&gt;Percentage identity: 100&lt;br&gt;Percentage coverage: 100&lt;br&gt;BLAST bit score: 494&lt;br&gt;E-value: 1.46e-182" locus_tag="HMPREF9550_01792" class="clusterblast-orf" id="dummy-3_h3_1_1"  />
</g>
</svg>
