<svg xmlns="http://www.w3.org/2000/svg" xmlns:xlink="http://www.w3.org/1999/xlink" version="1.1" x="0" y="0" height="230" width="800" viewBox="0 0 800 230" preserveAspectRatio="none"  >
<g label="Query sequence" class="clusterblast-cluster"  >
<text x="5" y="20" class="clusterblast-acc"  >
Query sequence</text>
<line x1="10" y1="35" x2="778.0" y2="35" style="stroke-width:1; stroke:grey; "  />
<polygon points="0,40 9,40 14,35 9,30 0,30 0,40 " style="fill:white; stroke-width:1; stroke:black; " description="&lt;b&gt;ctg1_1532&lt;/b&gt;&lt;br&gt;ctg1 1532&lt;br&gt;Location: 1614865 - 1615483" locus_tag="ctg1_1532" class="clusterblast-orf" id="dummy-7_q0_0_all"  />
<polygon points="16,40 16,40 21,35 16,30 16,30 16,40 " style="fill:white; stroke-width:1; stroke:black; " description="&lt;b&gt;ctg1_1533&lt;/b&gt;&lt;br&gt;ctg1 1533&lt;br&gt;Location: 1615558 - 1615771" locus_tag="ctg1_1533" class="clusterblast-orf" id="dummy-7_q1_0_all"  />
<polygon points="38,40 80,40 85,35 80,30 38,30 38,40 " style="fill:white; stroke-width:1; stroke:black; " description="&lt;b&gt;ctg1_1534&lt;/b&gt;&lt;br&gt;ctg1 1534&lt;br&gt;Location: 1616508 - 1618557" locus_tag="ctg1_1534" class="clusterblast-orf" id="dummy-7_q2_0_all"  />
<polygon points="85,40 91,40 96,35 91,30 85,30 85,40 " style="fill:white; stroke-width:1; stroke:black; " description="&lt;b&gt;ctg1_1535&lt;/b&gt;&lt;br&gt;ctg1 1535&lt;br&gt;Location: 1618540 - 1619023" locus_tag="ctg1_1535" class="clusterblast-orf" id="dummy-7_q3_0_all"  />
<polygon points="100,40 113,40 118,35 113,30 100,30 100,40 " style="fill:white; stroke-width:1; stroke:black; " description="&lt;b&gt;ctg1_1536&lt;/b&gt;&lt;br&gt;ctg1 1536&lt;br&gt;Location: 1619204 - 1619951" locus_tag="ctg1_1536" class="clusterblast-orf" id="dummy-7_q4_0_all"  />
<polygon points="129,40 150,40 155,35 150,30 129,30 129,40 " style="fill:white; stroke-width:1; stroke:black; " description="&lt;b&gt;ctg1_1537&lt;/b&gt;&lt;br&gt;ctg1 1537&lt;br&gt;Location: 1620434 - 1621571" locus_tag="ctg1_1537" class="clusterblast-orf" id="dummy-7_q5_0_all"  />
<polygon points="157,40 158,40 163,35 158,30 157,30 157,40 " style="fill:white; stroke-width:1; stroke:black; " description="&lt;b&gt;ctg1_1538&lt;/b&gt;&lt;br&gt;ctg1 1538&lt;br&gt;Location: 1621670 - 1621904" locus_tag="ctg1_1538" class="clusterblast-orf" id="dummy-7_q6_0_all"  />
<polygon points="163,35 168,30 176,30 176,40 168,40 163,35 " style="fill:white; stroke-width:1; stroke:black; " description="&lt;b&gt;ctg1_1539&lt;/b&gt;&lt;br&gt;ctg1 1539&lt;br&gt;Location: 1621900 - 1622470" locus_tag="ctg1_1539" class="clusterblast-orf" id="dummy-7_q7_0_all"  />
<polygon points="180,40 195,40 200,35 195,30 180,30 180,40 " style="fill:white; stroke-width:1; stroke:black; " description="&lt;b&gt;ctg1_1540&lt;/b&gt;&lt;br&gt;ctg1 1540&lt;br&gt;Location: 1622642 - 1623488" locus_tag="ctg1_1540" class="clusterblast-orf" id="dummy-7_q8_0_all"  />
<polygon points="202,35 207,30 222,30 222,40 207,40 202,35 " style="fill:white; stroke-width:1; stroke:black; " description="&lt;b&gt;ctg1_1541&lt;/b&gt;&lt;br&gt;ctg1 1541&lt;br&gt;Location: 1623583 - 1624477" locus_tag="ctg1_1541" class="clusterblast-orf" id="dummy-7_q9_0_all"  />
<polygon points="224,35 229,30 240,30 240,40 229,40 224,35 " style="fill:#d81515; stroke-width:1; stroke:black; " description="&lt;b&gt;ctg1_1542&lt;/b&gt;&lt;br&gt;ctg1 1542&lt;br&gt;Location: 1624555 - 1625236" locus_tag="ctg1_1542" class="clusterblast-orf" id="dummy-7_q10_0_all"  />
<polygon points="240,35 245,30 256,30 256,40 245,40 240,35 " style="fill:#4dd815; stroke-width:1; stroke:black; " description="&lt;b&gt;ctg1_1543&lt;/b&gt;&lt;br&gt;ctg1 1543&lt;br&gt;Location: 1625232 - 1625928" locus_tag="ctg1_1543" class="clusterblast-orf" id="dummy-7_q11_0_all"  />
<polygon points="256,35 261,30 292,30 292,40 261,40 256,35 " style="fill:#1585d8; stroke-width:1; stroke:black; " description="&lt;b&gt;ctg1_1544&lt;/b&gt;&lt;br&gt;ctg1 1544&lt;br&gt;Location: 1625927 - 1627472" locus_tag="ctg1_1544" class="clusterblast-orf" id="dummy-7_q12_0_all"  />
<polygon points="292,35 297,30 378,30 378,40 297,40 292,35 " style="fill:#d815bc; stroke-width:1; stroke:black; " description="&lt;b&gt;ctg1_1545&lt;/b&gt;&lt;br&gt;ctg1 1545&lt;br&gt;Location: 1627468 - 1631209" locus_tag="ctg1_1545" class="clusterblast-orf" id="dummy-7_q13_0_all"  />
<polygon points="380,35 385,30 412,30 412,40 385,40 380,35 " style="fill:white; stroke-width:1; stroke:black; " description="&lt;b&gt;ctg1_1546&lt;/b&gt;&lt;br&gt;ctg1 1546&lt;br&gt;Location: 1631290 - 1632679" locus_tag="ctg1_1546" class="clusterblast-orf" id="dummy-7_q14_0_all"  />
<polygon points="420,35 425,30 428,30 428,40 425,40 420,35 " style="fill:white; stroke-width:1; stroke:black; " description="&lt;b&gt;ctg1_1547&lt;/b&gt;&lt;br&gt;ctg1 1547&lt;br&gt;Location: 1633002 - 1633338" locus_tag="ctg1_1547" class="clusterblast-orf" id="dummy-7_q15_0_all"  />
<polygon points="429,35 434,30 450,30 450,40 434,40 429,35 " style="fill:white; stroke-width:1; stroke:black; " description="&lt;b&gt;ctg1_1548&lt;/b&gt;&lt;br&gt;ctg1 1548&lt;br&gt;Location: 1633376 - 1634297" locus_tag="ctg1_1548" class="clusterblast-orf" id="dummy-7_q16_0_all"  />
<polygon points="451,35 456,30 458,30 458,40 456,40 451,35 " style="fill:white; stroke-width:1; stroke:black; " description="&lt;b&gt;ctg1_1549&lt;/b&gt;&lt;br&gt;ctg1 1549&lt;br&gt;Location: 1634356 - 1634647" locus_tag="ctg1_1549" class="clusterblast-orf" id="dummy-7_q17_0_all"  />
<polygon points="464,35 469,30 483,30 483,40 469,40 464,35 " style="fill:white; stroke-width:1; stroke:black; " description="&lt;b&gt;ctg1_1550&lt;/b&gt;&lt;br&gt;ctg1 1550&lt;br&gt;Location: 1634906 - 1635731" locus_tag="ctg1_1550" class="clusterblast-orf" id="dummy-7_q18_0_all"  />
<polygon points="490,40 498,40 503,35 498,30 490,30 490,40 " style="fill:#d8bc15; stroke-width:1; stroke:black; " description="&lt;b&gt;ctg1_1551&lt;/b&gt;&lt;br&gt;ctg1 1551&lt;br&gt;Location: 1636019 - 1636607" locus_tag="ctg1_1551" class="clusterblast-orf" id="dummy-7_q19_0_all"  />
<polygon points="505,40 555,40 560,35 555,30 505,30 505,40 " style="fill:#d8bc15; stroke-width:1; stroke:black; " description="&lt;b&gt;ctg1_1552&lt;/b&gt;&lt;br&gt;ctg1 1552&lt;br&gt;Location: 1636655 - 1639067" locus_tag="ctg1_1552" class="clusterblast-orf" id="dummy-7_q20_0_all"  />
<polygon points="561,40 576,40 581,35 576,30 561,30 561,40 " style="fill:#15d885; stroke-width:1; stroke:black; " description="&lt;b&gt;ctg1_1553&lt;/b&gt;&lt;br&gt;ctg1 1553&lt;br&gt;Location: 1639079 - 1639964" locus_tag="ctg1_1553" class="clusterblast-orf" id="dummy-7_q21_0_all"  />
<polygon points="581,40 591,40 596,35 591,30 581,30 581,40 " style="fill:#4d15d8; stroke-width:1; stroke:black; " description="&lt;b&gt;ctg1_1554&lt;/b&gt;&lt;br&gt;ctg1 1554&lt;br&gt;Location: 1639956 - 1640610" locus_tag="ctg1_1554" class="clusterblast-orf" id="dummy-7_q22_0_all"  />
<polygon points="606,35 611,30 612,30 612,40 611,40 606,35 " style="fill:white; stroke-width:1; stroke:black; " description="&lt;b&gt;ctg1_1555&lt;/b&gt;&lt;br&gt;ctg1 1555&lt;br&gt;Location: 1641016 - 1641301" locus_tag="ctg1_1555" class="clusterblast-orf" id="dummy-7_q23_0_all"  />
<polygon points="616,35 621,30 639,30 639,40 621,40 616,35 " style="fill:white; stroke-width:1; stroke:black; " description="&lt;b&gt;ctg1_1556&lt;/b&gt;&lt;br&gt;ctg1 1556&lt;br&gt;Location: 1641446 - 1642457" locus_tag="ctg1_1556" class="clusterblast-orf" id="dummy-7_q24_0_all"  />
<polygon points="642,35 647,30 681,30 681,40 647,40 642,35 " style="fill:white; stroke-width:1; stroke:black; " description="&lt;b&gt;ctg1_1557&lt;/b&gt;&lt;br&gt;ctg1 1557&lt;br&gt;Location: 1642590 - 1644288" locus_tag="ctg1_1557" class="clusterblast-orf" id="dummy-7_q25_0_all"  />
<polygon points="685,35 688,30 688,40 685,35 " style="fill:white; stroke-width:1; stroke:black; " description="&lt;b&gt;ctg1_1558&lt;/b&gt;&lt;br&gt;ctg1 1558&lt;br&gt;Location: 1644444 - 1644582" locus_tag="ctg1_1558" class="clusterblast-orf" id="dummy-7_q26_0_all"  />
<polygon points="691,35 696,30 696,30 696,40 696,40 691,35 " style="fill:white; stroke-width:1; stroke:black; " description="&lt;b&gt;ctg1_1559&lt;/b&gt;&lt;br&gt;ctg1 1559&lt;br&gt;Location: 1644683 - 1644899" locus_tag="ctg1_1559" class="clusterblast-orf" id="dummy-7_q27_0_all"  />
<polygon points="704,40 709,40 714,35 709,30 704,30 704,40 " style="fill:white; stroke-width:1; stroke:black; " description="&lt;b&gt;ctg1_1560&lt;/b&gt;&lt;br&gt;ctg1 1560&lt;br&gt;Location: 1645243 - 1645675" locus_tag="ctg1_1560" class="clusterblast-orf" id="dummy-7_q28_0_all"  />
<polygon points="715,35 720,30 736,30 736,40 720,40 715,35 " style="fill:white; stroke-width:1; stroke:black; " description="&lt;b&gt;ctg1_1561&lt;/b&gt;&lt;br&gt;ctg1 1561&lt;br&gt;Location: 1645730 - 1646657" locus_tag="ctg1_1561" class="clusterblast-orf" id="dummy-7_q29_0_all"  />
<polygon points="736,35 741,30 759,30 759,40 741,40 736,35 " style="fill:white; stroke-width:1; stroke:black; " description="&lt;b&gt;ctg1_1562&lt;/b&gt;&lt;br&gt;ctg1 1562&lt;br&gt;Location: 1646649 - 1647636" locus_tag="ctg1_1562" class="clusterblast-orf" id="dummy-7_q30_0_all"  />
<polygon points="759,35 764,30 780,30 780,40 764,40 759,35 " style="fill:white; stroke-width:1; stroke:black; " description="&lt;b&gt;ctg1_1563&lt;/b&gt;&lt;br&gt;ctg1 1563&lt;br&gt;Location: 1647632 - 1648529" locus_tag="ctg1_1563" class="clusterblast-orf" id="dummy-7_q31_0_all"  />
</g>
<g label="MGC00000045" description="MGC00000045_c1: Nitrate reductase E. coli (80% of genes show similarity), NIR" class="clusterblast-cluster"  >
<text x="5" y="70" class="clusterblast-acc"  >
MGC00000045_c1: Nitrate reductase E. coli (80% of genes show similarity), NIR</text>
<line x1="10" y1="85" x2="778.0" y2="85" style="stroke-width:1; stroke:grey; "  />
</g>
<g id="a7_000"  >
<polygon points="201,85 206,80 216,80 216,90 206,90 201,85 " style="fill:#d81515; stroke-width:1; stroke:black; " description="&lt;b&gt;b1227&lt;/b&gt;&lt;br&gt;nitrate reductase A subunit gamma&lt;br&gt;Location: 16289 - 15611&lt;br&gt;&lt;br&gt;&lt;b&gt;BlastP hit with ctg1_1542&lt;/b&gt;&lt;br&gt;Percentage identity: 72&lt;br&gt;Percentage coverage: 99&lt;br&gt;BLAST bit score: 329&lt;br&gt;E-value: 9.49e-118" locus_tag="b1227" class="clusterblast-orf" id="dummy-7_h7_1_0"  />
</g>
<g id="a7_001"  >
<polygon points="216,85 221,80 233,80 233,90 221,90 216,85 " style="fill:#4dd815; stroke-width:1; stroke:black; " description="&lt;b&gt;b1226&lt;/b&gt;&lt;br&gt;nitrate reductase 1 molybdenum cofactor assembly chaperone&lt;br&gt;Location: 15612 - 14901&lt;br&gt;&lt;br&gt;&lt;b&gt;BlastP hit with ctg1_1543&lt;/b&gt;&lt;br&gt;Percentage identity: 55&lt;br&gt;Percentage coverage: 101&lt;br&gt;BLAST bit score: 244&lt;br&gt;E-value: 9.31e-84" locus_tag="b1226" class="clusterblast-orf" id="dummy-7_h7_1_1"  />
</g>
<g id="a7_002"  >
<polygon points="233,85 238,80 269,80 269,90 238,90 233,85 " style="fill:#1585d8; stroke-width:1; stroke:black; " description="&lt;b&gt;b1225&lt;/b&gt;&lt;br&gt;nitrate reductase A subunit beta&lt;br&gt;Location: 14905 - 13366&lt;br&gt;&lt;br&gt;&lt;b&gt;BlastP hit with ctg1_1544&lt;/b&gt;&lt;br&gt;Percentage identity: 79&lt;br&gt;Percentage coverage: 98&lt;br&gt;BLAST bit score: 863&lt;br&gt;E-value: 1.89e-319" locus_tag="b1225" class="clusterblast-orf" id="dummy-7_h7_1_2"  />
</g>
<g id="a7_003"  >
<polygon points="268,85 273,80 355,80 355,90 273,90 268,85 " style="fill:#d815bc; stroke-width:1; stroke:black; " description="&lt;b&gt;b1224&lt;/b&gt;&lt;br&gt;nitrate reductase A subunit alpha&lt;br&gt;Location: 13370 - 9626&lt;br&gt;&lt;br&gt;&lt;b&gt;BlastP hit with ctg1_1545&lt;/b&gt;&lt;br&gt;Percentage identity: 79&lt;br&gt;Percentage coverage: 100&lt;br&gt;BLAST bit score: 2129&lt;br&gt;E-value: 0.0" locus_tag="b1224" class="clusterblast-orf" id="dummy-7_h7_1_3"  />
</g>
<g id="a7_004"  >
<polygon points="576,90 578,85 576,80 576,90 " style="fill:white; stroke-width:1; stroke:black; " description="&lt;b&gt;b4423&lt;/b&gt;&lt;br&gt;small toxic polypeptide LdrC&lt;br&gt;Location: 108 - 0" locus_tag="b4423" class="clusterblast-orf" id="dummy-7_h7_1_4"  />
</g>
</svg>
