<svg xmlns="http://www.w3.org/2000/svg" xmlns:xlink="http://www.w3.org/1999/xlink" version="1.1" x="0" y="0" height="50" width="800" viewBox="0 0 800 50" preserveAspectRatio="none"  >
<g label="Query sequence" class="clusterblast-cluster"  >
<text x="5" y="20" class="clusterblast-acc"  >
Query sequence</text>
<line x1="10" y1="35" x2="778.0" y2="35" style="stroke-width:1; stroke:grey; "  />
<polygon points="0,40 2,40 7,35 2,30 0,30 0,40 " style="fill:white; stroke-width:1; stroke:black; " description="&lt;b&gt;ctg1_3810&lt;/b&gt;&lt;br&gt;ctg1 3810&lt;br&gt;Location: 4039937 - 4040192" locus_tag="ctg1_3810" class="clusterblast-orf" id="knownclusterblast-17_q0_0_all"  />
<polygon points="124,35 129,30 149,30 149,40 129,40 124,35 " style="fill:white; stroke-width:1; stroke:black; " description="&lt;b&gt;ctg1_3811&lt;/b&gt;&lt;br&gt;ctg1 3811&lt;br&gt;Location: 4044070 - 4044910" locus_tag="ctg1_3811" class="clusterblast-orf" id="knownclusterblast-17_q1_0_all"  />
<polygon points="152,40 158,40 163,35 158,30 152,30 152,40 " style="fill:white; stroke-width:1; stroke:black; " description="&lt;b&gt;ctg1_3812&lt;/b&gt;&lt;br&gt;ctg1 3812&lt;br&gt;Location: 4045028 - 4045367" locus_tag="ctg1_3812" class="clusterblast-orf" id="knownclusterblast-17_q2_0_all"  />
<polygon points="163,35 168,30 209,30 209,40 168,40 163,35 " style="fill:white; stroke-width:1; stroke:black; " description="&lt;b&gt;ctg1_3813&lt;/b&gt;&lt;br&gt;ctg1 3813&lt;br&gt;Location: 4045391 - 4046912" locus_tag="ctg1_3813" class="clusterblast-orf" id="knownclusterblast-17_q3_0_all"  />
<polygon points="213,40 216,35 213,30 213,40 " style="fill:white; stroke-width:1; stroke:black; " description="&lt;b&gt;ctg1_3814&lt;/b&gt;&lt;br&gt;ctg1 3814&lt;br&gt;Location: 4047066 - 4047156" locus_tag="ctg1_3814" class="clusterblast-orf" id="knownclusterblast-17_q4_0_all"  />
<polygon points="227,40 251,40 256,35 251,30 227,30 227,40 " style="fill:white; stroke-width:1; stroke:black; " description="&lt;b&gt;ctg1_3815&lt;/b&gt;&lt;br&gt;ctg1 3815&lt;br&gt;Location: 4047502 - 4048486" locus_tag="ctg1_3815" class="clusterblast-orf" id="knownclusterblast-17_q5_0_all"  />
<polygon points="260,40 271,40 276,35 271,30 260,30 260,40 " style="fill:white; stroke-width:1; stroke:black; " description="&lt;b&gt;ctg1_3816&lt;/b&gt;&lt;br&gt;ctg1 3816&lt;br&gt;Location: 4048610 - 4049147" locus_tag="ctg1_3816" class="clusterblast-orf" id="knownclusterblast-17_q6_0_all"  />
<polygon points="276,40 279,40 284,35 279,30 276,30 276,40 " style="fill:white; stroke-width:1; stroke:black; " description="&lt;b&gt;ctg1_3817&lt;/b&gt;&lt;br&gt;ctg1 3817&lt;br&gt;Location: 4049143 - 4049407" locus_tag="ctg1_3817" class="clusterblast-orf" id="knownclusterblast-17_q7_0_all"  />
<polygon points="284,40 307,40 312,35 307,30 284,30 284,40 " style="fill:white; stroke-width:1; stroke:black; " description="&lt;b&gt;ctg1_3818&lt;/b&gt;&lt;br&gt;ctg1 3818&lt;br&gt;Location: 4049426 - 4050356" locus_tag="ctg1_3818" class="clusterblast-orf" id="knownclusterblast-17_q8_0_all"  />
<polygon points="314,40 364,40 369,35 364,30 314,30 314,40 " style="fill:white; stroke-width:1; stroke:black; " description="&lt;b&gt;ctg1_3819&lt;/b&gt;&lt;br&gt;ctg1 3819&lt;br&gt;Location: 4050420 - 4052271" locus_tag="ctg1_3819" class="clusterblast-orf" id="knownclusterblast-17_q9_0_all"  />
<polygon points="370,40 411,40 416,35 411,30 370,30 370,40 " style="fill:white; stroke-width:1; stroke:black; " description="&lt;b&gt;ctg1_3820&lt;/b&gt;&lt;br&gt;ctg1 3820&lt;br&gt;Location: 4052273 - 4053818" locus_tag="ctg1_3820" class="clusterblast-orf" id="knownclusterblast-17_q10_0_all"  />
<polygon points="417,35 422,30 444,30 444,40 422,40 417,35 " style="fill:white; stroke-width:1; stroke:black; " description="&lt;b&gt;ctg1_3821&lt;/b&gt;&lt;br&gt;ctg1 3821&lt;br&gt;Location: 4053869 - 4054763" locus_tag="ctg1_3821" class="clusterblast-orf" id="knownclusterblast-17_q11_0_all"  />
<polygon points="449,40 488,40 493,35 488,30 449,30 449,40 " style="fill:white; stroke-width:1; stroke:black; " description="&lt;b&gt;ctg1_3822&lt;/b&gt;&lt;br&gt;ctg1 3822&lt;br&gt;Location: 4054912 - 4056388" locus_tag="ctg1_3822" class="clusterblast-orf" id="knownclusterblast-17_q12_0_all"  />
<polygon points="495,35 500,30 504,30 504,40 500,40 495,35 " style="fill:white; stroke-width:1; stroke:black; " description="&lt;b&gt;ctg1_3823&lt;/b&gt;&lt;br&gt;ctg1 3823&lt;br&gt;Location: 4056474 - 4056756" locus_tag="ctg1_3823" class="clusterblast-orf" id="knownclusterblast-17_q13_0_all"  />
<polygon points="517,35 522,30 523,30 523,40 522,40 517,35 " style="fill:white; stroke-width:1; stroke:black; " description="&lt;b&gt;ctg1_3824&lt;/b&gt;&lt;br&gt;ctg1 3824&lt;br&gt;Location: 4057184 - 4057403" locus_tag="ctg1_3824" class="clusterblast-orf" id="knownclusterblast-17_q14_0_all"  />
<polygon points="530,40 585,40 590,35 585,30 530,30 530,40 " style="fill:white; stroke-width:1; stroke:black; " description="&lt;b&gt;ctg1_3825&lt;/b&gt;&lt;br&gt;ctg1 3825&lt;br&gt;Location: 4057619 - 4059641" locus_tag="ctg1_3825" class="clusterblast-orf" id="knownclusterblast-17_q15_0_all"  />
<polygon points="592,35 597,30 636,30 636,40 597,40 592,35 " style="fill:white; stroke-width:1; stroke:black; " description="&lt;b&gt;ctg1_3826&lt;/b&gt;&lt;br&gt;ctg1 3826&lt;br&gt;Location: 4059687 - 4061172" locus_tag="ctg1_3826" class="clusterblast-orf" id="knownclusterblast-17_q16_0_all"  />
<polygon points="640,35 645,30 678,30 678,40 645,40 640,35 " style="fill:white; stroke-width:1; stroke:black; " description="&lt;b&gt;ctg1_3827&lt;/b&gt;&lt;br&gt;ctg1 3827&lt;br&gt;Location: 4061307 - 4062573" locus_tag="ctg1_3827" class="clusterblast-orf" id="knownclusterblast-17_q17_0_all"  />
<polygon points="682,40 687,40 692,35 687,30 682,30 682,40 " style="fill:white; stroke-width:1; stroke:black; " description="&lt;b&gt;ctg1_3828&lt;/b&gt;&lt;br&gt;ctg1 3828&lt;br&gt;Location: 4062703 - 4063033" locus_tag="ctg1_3828" class="clusterblast-orf" id="knownclusterblast-17_q18_0_all"  />
<polygon points="702,40 735,40 740,35 735,30 702,30 702,40 " style="fill:white; stroke-width:1; stroke:black; " description="&lt;b&gt;ctg1_3829&lt;/b&gt;&lt;br&gt;ctg1 3829&lt;br&gt;Location: 4063359 - 4064619" locus_tag="ctg1_3829" class="clusterblast-orf" id="knownclusterblast-17_q19_0_all"  />
<polygon points="740,40 741,40 746,35 741,30 740,30 740,40 " style="fill:white; stroke-width:1; stroke:black; " description="&lt;b&gt;ctg1_3830&lt;/b&gt;&lt;br&gt;ctg1 3830&lt;br&gt;Location: 4064628 - 4064847" locus_tag="ctg1_3830" class="clusterblast-orf" id="knownclusterblast-17_q20_0_all"  />
<polygon points="747,40 775,40 780,35 775,30 747,30 747,40 " style="fill:white; stroke-width:1; stroke:black; " description="&lt;b&gt;ctg1_3831&lt;/b&gt;&lt;br&gt;ctg1 3831&lt;br&gt;Location: 4064858 - 4065962" locus_tag="ctg1_3831" class="clusterblast-orf" id="knownclusterblast-17_q21_0_all"  />
</g>
</svg>
