<svg xmlns="http://www.w3.org/2000/svg" xmlns:xlink="http://www.w3.org/1999/xlink" version="1.1" x="0" y="0" height="230" width="800" viewBox="0 0 800 230" preserveAspectRatio="none"  >
<g label="Query sequence" class="clusterblast-cluster"  >
<text x="5" y="20" class="clusterblast-acc"  >
Query sequence</text>
<line x1="10" y1="35" x2="778.0" y2="35" style="stroke-width:1; stroke:grey; "  />
<polygon points="0,40 81,40 86,35 81,30 0,30 0,40 " style="fill:white; stroke-width:1; stroke:black; " description="&lt;b&gt;ctg1_2304&lt;/b&gt;&lt;br&gt;ctg1 2304&lt;br&gt;Location: 2433874 - 2436160" locus_tag="ctg1_2304" class="clusterblast-orf" id="dummy-10_q0_0_all"  />
<polygon points="95,40 132,40 137,35 132,30 95,30 95,40 " style="fill:white; stroke-width:1; stroke:black; " description="&lt;b&gt;ctg1_2305&lt;/b&gt;&lt;br&gt;ctg1 2305&lt;br&gt;Location: 2436393 - 2437524" locus_tag="ctg1_2305" class="clusterblast-orf" id="dummy-10_q1_0_all"  />
<polygon points="137,40 142,40 147,35 142,30 137,30 137,40 " style="fill:white; stroke-width:1; stroke:black; " description="&lt;b&gt;ctg1_2306&lt;/b&gt;&lt;br&gt;ctg1 2306&lt;br&gt;Location: 2437523 - 2437778" locus_tag="ctg1_2306" class="clusterblast-orf" id="dummy-10_q2_0_all"  />
<polygon points="149,35 154,30 173,30 173,40 154,40 149,35 " style="fill:white; stroke-width:1; stroke:black; " description="&lt;b&gt;ctg1_2307&lt;/b&gt;&lt;br&gt;ctg1 2307&lt;br&gt;Location: 2437831 - 2438482" locus_tag="ctg1_2307" class="clusterblast-orf" id="dummy-10_q3_0_all"  />
<polygon points="181,40 184,40 189,35 184,30 181,30 181,40 " style="fill:white; stroke-width:1; stroke:black; " description="&lt;b&gt;ctg1_2308&lt;/b&gt;&lt;br&gt;ctg1 2308&lt;br&gt;Location: 2438696 - 2438903" locus_tag="ctg1_2308" class="clusterblast-orf" id="dummy-10_q4_0_all"  />
<polygon points="190,35 195,30 231,30 231,40 195,40 190,35 " style="fill:white; stroke-width:1; stroke:black; " description="&lt;b&gt;ctg1_2309&lt;/b&gt;&lt;br&gt;ctg1 2309&lt;br&gt;Location: 2438944 - 2440021" locus_tag="ctg1_2309" class="clusterblast-orf" id="dummy-10_q5_0_all"  />
<polygon points="231,35 236,30 282,30 282,40 236,40 231,35 " style="fill:white; stroke-width:1; stroke:black; " description="&lt;b&gt;ctg1_2310&lt;/b&gt;&lt;br&gt;ctg1 2310&lt;br&gt;Location: 2440025 - 2441384" locus_tag="ctg1_2310" class="clusterblast-orf" id="dummy-10_q6_0_all"  />
<polygon points="292,40 349,40 354,35 349,30 292,30 292,40 " style="fill:#d81515; stroke-width:1; stroke:black; " description="&lt;b&gt;ctg1_2311&lt;/b&gt;&lt;br&gt;ctg1 2311&lt;br&gt;Location: 2441656 - 2443285" locus_tag="ctg1_2311" class="clusterblast-orf" id="dummy-10_q7_0_all"  />
<polygon points="353,40 395,40 400,35 395,30 353,30 353,40 " style="fill:#15d815; stroke-width:1; stroke:black; " description="&lt;b&gt;ctg1_2312&lt;/b&gt;&lt;br&gt;ctg1 2312&lt;br&gt;Location: 2443274 - 2444534" locus_tag="ctg1_2312" class="clusterblast-orf" id="dummy-10_q8_0_all"  />
<polygon points="400,40 440,40 445,35 440,30 400,30 400,40 " style="fill:#1515d8; stroke-width:1; stroke:black; " description="&lt;b&gt;ctg1_2313&lt;/b&gt;&lt;br&gt;ctg1 2313&lt;br&gt;Location: 2444530 - 2445721" locus_tag="ctg1_2313" class="clusterblast-orf" id="dummy-10_q9_0_all"  />
<polygon points="452,40 481,40 486,35 481,30 452,30 452,40 " style="fill:white; stroke-width:1; stroke:black; " description="&lt;b&gt;ctg1_2314&lt;/b&gt;&lt;br&gt;ctg1 2314&lt;br&gt;Location: 2445913 - 2446813" locus_tag="ctg1_2314" class="clusterblast-orf" id="dummy-10_q10_0_all"  />
<polygon points="487,40 489,40 494,35 489,30 487,30 487,40 " style="fill:white; stroke-width:1; stroke:black; " description="&lt;b&gt;ctg1_2315&lt;/b&gt;&lt;br&gt;ctg1 2315&lt;br&gt;Location: 2446825 - 2447011" locus_tag="ctg1_2315" class="clusterblast-orf" id="dummy-10_q11_0_all"  />
<polygon points="495,35 500,30 525,30 525,40 500,40 495,35 " style="fill:white; stroke-width:1; stroke:black; " description="&lt;b&gt;ctg1_2316&lt;/b&gt;&lt;br&gt;ctg1 2316&lt;br&gt;Location: 2447051 - 2447855" locus_tag="ctg1_2316" class="clusterblast-orf" id="dummy-10_q12_0_all"  />
<polygon points="526,35 531,30 574,30 574,40 531,40 526,35 " style="fill:white; stroke-width:1; stroke:black; " description="&lt;b&gt;ctg1_2317&lt;/b&gt;&lt;br&gt;ctg1 2317&lt;br&gt;Location: 2447872 - 2449162" locus_tag="ctg1_2317" class="clusterblast-orf" id="dummy-10_q13_0_all"  />
<polygon points="576,35 581,30 622,30 622,40 581,40 576,35 " style="fill:white; stroke-width:1; stroke:black; " description="&lt;b&gt;ctg1_2318&lt;/b&gt;&lt;br&gt;ctg1 2318&lt;br&gt;Location: 2449218 - 2450424" locus_tag="ctg1_2318" class="clusterblast-orf" id="dummy-10_q14_0_all"  />
<polygon points="622,35 627,30 652,30 652,40 627,40 622,35 " style="fill:white; stroke-width:1; stroke:black; " description="&lt;b&gt;ctg1_2319&lt;/b&gt;&lt;br&gt;ctg1 2319&lt;br&gt;Location: 2450438 - 2451221" locus_tag="ctg1_2319" class="clusterblast-orf" id="dummy-10_q15_0_all"  />
<polygon points="660,35 665,30 705,30 705,40 665,40 660,35 " style="fill:white; stroke-width:1; stroke:black; " description="&lt;b&gt;ctg1_2320&lt;/b&gt;&lt;br&gt;ctg1 2320&lt;br&gt;Location: 2451440 - 2452643" locus_tag="ctg1_2320" class="clusterblast-orf" id="dummy-10_q16_0_all"  />
<polygon points="709,35 714,30 729,30 729,40 714,40 709,35 " style="fill:white; stroke-width:1; stroke:black; " description="&lt;b&gt;ctg1_2321&lt;/b&gt;&lt;br&gt;ctg1 2321&lt;br&gt;Location: 2452742 - 2453285" locus_tag="ctg1_2321" class="clusterblast-orf" id="dummy-10_q17_0_all"  />
<polygon points="740,40 751,40 756,35 751,30 740,30 740,40 " style="fill:white; stroke-width:1; stroke:black; " description="&lt;b&gt;ctg1_2322&lt;/b&gt;&lt;br&gt;ctg1 2322&lt;br&gt;Location: 2453563 - 2453989" locus_tag="ctg1_2322" class="clusterblast-orf" id="dummy-10_q18_0_all"  />
<polygon points="757,35 762,30 780,30 780,40 762,40 757,35 " style="fill:white; stroke-width:1; stroke:black; " description="&lt;b&gt;ctg1_2323&lt;/b&gt;&lt;br&gt;ctg1 2323&lt;br&gt;Location: 2454027 - 2454630" locus_tag="ctg1_2323" class="clusterblast-orf" id="dummy-10_q19_0_all"  />
</g>
<g label="MGC00000047" description="MGC00000047_c1: GlycerolP to glyceroneP E. coli (100% of genes show similarity), GLYP" class="clusterblast-cluster"  >
<text x="5" y="70" class="clusterblast-acc"  >
MGC00000047_c1: GlycerolP to glyceroneP E. coli (100% of genes show similarity), GLYP</text>
<line x1="10" y1="85" x2="778.0" y2="85" style="stroke-width:1; stroke:grey; "  />
</g>
<g id="a10_000"  >
<polygon points="313,90 369,90 374,85 369,80 313,80 313,90 " style="fill:#d81515; stroke-width:1; stroke:black; " description="&lt;b&gt;b2241&lt;/b&gt;&lt;br&gt;anaerobic glycerol-3-phosphate dehydrogenase subunit A&lt;br&gt;Location: 10000 - 11629&lt;br&gt;&lt;br&gt;&lt;b&gt;BlastP hit with ctg1_2311&lt;/b&gt;&lt;br&gt;Percentage identity: 100&lt;br&gt;Percentage coverage: 100&lt;br&gt;BLAST bit score: 1076&lt;br&gt;E-value: 0.0" locus_tag="b2241" class="clusterblast-orf" id="dummy-10_h10_1_0"  />
</g>
<g id="a10_001"  >
<polygon points="374,90 416,90 421,85 416,80 374,80 374,90 " style="fill:#15d815; stroke-width:1; stroke:black; " description="&lt;b&gt;b2242&lt;/b&gt;&lt;br&gt;anaerobic glycerol-3-phosphate dehydrogenase subunit B&lt;br&gt;Location: 11618 - 12878&lt;br&gt;&lt;br&gt;&lt;b&gt;BlastP hit with ctg1_2312&lt;/b&gt;&lt;br&gt;Percentage identity: 100&lt;br&gt;Percentage coverage: 100&lt;br&gt;BLAST bit score: 843&lt;br&gt;E-value: 1.05e-314" locus_tag="b2242" class="clusterblast-orf" id="dummy-10_h10_1_1"  />
</g>
<g id="a10_002"  >
<polygon points="421,90 461,90 466,85 461,80 421,80 421,90 " style="fill:#1515d8; stroke-width:1; stroke:black; " description="&lt;b&gt;b2243&lt;/b&gt;&lt;br&gt;anaerobic glycerol-3-phosphate dehydrogenase subunit C&lt;br&gt;Location: 12874 - 14065&lt;br&gt;&lt;br&gt;&lt;b&gt;BlastP hit with ctg1_2313&lt;/b&gt;&lt;br&gt;Percentage identity: 100&lt;br&gt;Percentage coverage: 100&lt;br&gt;BLAST bit score: 787&lt;br&gt;E-value: 3.12e-293" locus_tag="b2243" class="clusterblast-orf" id="dummy-10_h10_1_2"  />
</g>
</svg>
