<svg xmlns="http://www.w3.org/2000/svg" xmlns:xlink="http://www.w3.org/1999/xlink" version="1.1" x="0" y="0" height="100" width="800" viewBox="0 0 800 100" preserveAspectRatio="none"  >
<g label="Query sequence" class="clusterblast-cluster"  >
<text x="5" y="20" class="clusterblast-acc"  >
Query sequence</text>
<line x1="10" y1="35" x2="778.0" y2="35" style="stroke-width:1; stroke:grey; "  />
<polygon points="0,35 5,30 30,30 30,40 5,40 0,35 " style="fill:white; stroke-width:1; stroke:black; " description="&lt;b&gt;ctg1_3922&lt;/b&gt;&lt;br&gt;ctg1 3922&lt;br&gt;Location: 4169492 - 4170371" locus_tag="ctg1_3922" class="clusterblast-orf" id="knownclusterblast-18_q0_0_all"  />
<polygon points="31,35 36,30 62,30 62,40 36,40 31,35 " style="fill:white; stroke-width:1; stroke:black; " description="&lt;b&gt;ctg1_3923&lt;/b&gt;&lt;br&gt;ctg1 3923&lt;br&gt;Location: 4170394 - 4171291" locus_tag="ctg1_3923" class="clusterblast-orf" id="knownclusterblast-18_q1_0_all"  />
<polygon points="68,40 94,40 99,35 94,30 68,30 68,40 " style="fill:white; stroke-width:1; stroke:black; " description="&lt;b&gt;ctg1_3924&lt;/b&gt;&lt;br&gt;ctg1 3924&lt;br&gt;Location: 4171458 - 4172355" locus_tag="ctg1_3924" class="clusterblast-orf" id="knownclusterblast-18_q2_0_all"  />
<polygon points="100,40 122,40 127,35 122,30 100,30 100,40 " style="fill:white; stroke-width:1; stroke:black; " description="&lt;b&gt;ctg1_3925&lt;/b&gt;&lt;br&gt;ctg1 3925&lt;br&gt;Location: 4172388 - 4173174" locus_tag="ctg1_3925" class="clusterblast-orf" id="knownclusterblast-18_q3_0_all"  />
<polygon points="131,40 147,40 152,35 147,30 131,30 131,40 " style="fill:white; stroke-width:1; stroke:black; " description="&lt;b&gt;ctg1_3926&lt;/b&gt;&lt;br&gt;ctg1 3926&lt;br&gt;Location: 4173272 - 4173872" locus_tag="ctg1_3926" class="clusterblast-orf" id="knownclusterblast-18_q4_0_all"  />
<polygon points="151,40 177,40 182,35 177,30 151,30 151,40 " style="fill:white; stroke-width:1; stroke:black; " description="&lt;b&gt;ctg1_3927&lt;/b&gt;&lt;br&gt;ctg1 3927&lt;br&gt;Location: 4173865 - 4174738" locus_tag="ctg1_3927" class="clusterblast-orf" id="knownclusterblast-18_q5_0_all"  />
<polygon points="182,40 192,40 197,35 192,30 182,30 182,40 " style="fill:white; stroke-width:1; stroke:black; " description="&lt;b&gt;ctg1_3928&lt;/b&gt;&lt;br&gt;ctg1 3928&lt;br&gt;Location: 4174734 - 4175172" locus_tag="ctg1_3928" class="clusterblast-orf" id="knownclusterblast-18_q6_0_all"  />
<polygon points="198,40 226,40 231,35 226,30 198,30 198,40 " style="fill:white; stroke-width:1; stroke:black; " description="&lt;b&gt;ctg1_3929&lt;/b&gt;&lt;br&gt;ctg1 3929&lt;br&gt;Location: 4175216 - 4176158" locus_tag="ctg1_3929" class="clusterblast-orf" id="knownclusterblast-18_q7_0_all"  />
<polygon points="245,40 249,35 245,30 245,40 " style="fill:white; stroke-width:1; stroke:black; " description="&lt;b&gt;ctg1_3930&lt;/b&gt;&lt;br&gt;ctg1 3930&lt;br&gt;Location: 4176568 - 4176676" locus_tag="ctg1_3930" class="clusterblast-orf" id="knownclusterblast-18_q8_0_all"  />
<polygon points="260,40 263,40 268,35 263,30 260,30 260,40 " style="fill:white; stroke-width:1; stroke:black; " description="&lt;b&gt;ctg1_3931&lt;/b&gt;&lt;br&gt;ctg1 3931&lt;br&gt;Location: 4177010 - 4177229" locus_tag="ctg1_3931" class="clusterblast-orf" id="knownclusterblast-18_q9_0_all"  />
<polygon points="276,40 279,40 284,35 279,30 276,30 276,40 " style="fill:white; stroke-width:1; stroke:black; " description="&lt;b&gt;ctg1_3932&lt;/b&gt;&lt;br&gt;ctg1 3932&lt;br&gt;Location: 4177446 - 4177689" locus_tag="ctg1_3932" class="clusterblast-orf" id="knownclusterblast-18_q10_0_all"  />
<polygon points="284,40 285,40 290,35 285,30 284,30 284,40 " style="fill:white; stroke-width:1; stroke:black; " description="&lt;b&gt;ctg1_3933&lt;/b&gt;&lt;br&gt;ctg1 3933&lt;br&gt;Location: 4177688 - 4177871" locus_tag="ctg1_3933" class="clusterblast-orf" id="knownclusterblast-18_q11_0_all"  />
<polygon points="295,35 300,30 328,30 328,40 300,40 295,35 " style="fill:white; stroke-width:1; stroke:black; " description="&lt;b&gt;ctg1_3934&lt;/b&gt;&lt;br&gt;ctg1 3934&lt;br&gt;Location: 4178018 - 4178948" locus_tag="ctg1_3934" class="clusterblast-orf" id="knownclusterblast-18_q12_0_all"  />
<polygon points="328,35 333,30 350,30 350,40 333,40 328,35 " style="fill:#d81515; stroke-width:1; stroke:black; " description="&lt;b&gt;ctg1_3935&lt;/b&gt;&lt;br&gt;ctg1 3935&lt;br&gt;Location: 4178944 - 4179580" locus_tag="ctg1_3935" class="clusterblast-orf" id="knownclusterblast-18_q13_0_all"  />
<polygon points="349,35 354,30 381,30 381,40 354,40 349,35 " style="fill:#15d815; stroke-width:1; stroke:black; " description="&lt;b&gt;ctg1_3936&lt;/b&gt;&lt;br&gt;ctg1 3936&lt;br&gt;Location: 4179576 - 4180479" locus_tag="ctg1_3936" class="clusterblast-orf" id="knownclusterblast-18_q14_0_all"  />
<polygon points="381,35 386,30 465,30 465,40 386,40 381,35 " style="fill:#1515d8; stroke-width:1; stroke:black; " description="&lt;b&gt;ctg1_3937&lt;/b&gt;&lt;br&gt;ctg1 3937&lt;br&gt;Location: 4180491 - 4182906" locus_tag="ctg1_3937" class="clusterblast-orf" id="knownclusterblast-18_q15_0_all"  />
<polygon points="467,35 472,30 487,30 487,40 472,40 467,35 " style="fill:#1515d8; stroke-width:1; stroke:black; " description="&lt;b&gt;ctg1_3938&lt;/b&gt;&lt;br&gt;ctg1 3938&lt;br&gt;Location: 4182954 - 4183542" locus_tag="ctg1_3938" class="clusterblast-orf" id="knownclusterblast-18_q16_0_all"  />
<polygon points="494,40 518,40 523,35 518,30 494,30 494,40 " style="fill:white; stroke-width:1; stroke:black; " description="&lt;b&gt;ctg1_3939&lt;/b&gt;&lt;br&gt;ctg1 3939&lt;br&gt;Location: 4183735 - 4184569" locus_tag="ctg1_3939" class="clusterblast-orf" id="knownclusterblast-18_q17_0_all"  />
<polygon points="528,40 559,40 564,35 559,30 528,30 528,40 " style="fill:white; stroke-width:1; stroke:black; " description="&lt;b&gt;ctg1_3940&lt;/b&gt;&lt;br&gt;ctg1 3940&lt;br&gt;Location: 4184721 - 4185777" locus_tag="ctg1_3940" class="clusterblast-orf" id="knownclusterblast-18_q18_0_all"  />
<polygon points="566,35 571,30 627,30 627,40 571,40 566,35 " style="fill:white; stroke-width:1; stroke:black; " description="&lt;b&gt;ctg1_3941&lt;/b&gt;&lt;br&gt;ctg1 3941&lt;br&gt;Location: 4185826 - 4187575" locus_tag="ctg1_3941" class="clusterblast-orf" id="knownclusterblast-18_q19_0_all"  />
<polygon points="627,35 632,30 664,30 664,40 632,40 627,35 " style="fill:white; stroke-width:1; stroke:black; " description="&lt;b&gt;ctg1_3942&lt;/b&gt;&lt;br&gt;ctg1 3942&lt;br&gt;Location: 4187574 - 4188645" locus_tag="ctg1_3942" class="clusterblast-orf" id="knownclusterblast-18_q20_0_all"  />
<polygon points="663,35 668,30 714,30 714,40 668,40 663,35 " style="fill:white; stroke-width:1; stroke:black; " description="&lt;b&gt;ctg1_3943&lt;/b&gt;&lt;br&gt;ctg1 3943&lt;br&gt;Location: 4188634 - 4190086" locus_tag="ctg1_3943" class="clusterblast-orf" id="knownclusterblast-18_q21_0_all"  />
<polygon points="714,35 719,30 730,30 730,40 719,40 714,35 " style="fill:white; stroke-width:1; stroke:black; " description="&lt;b&gt;ctg1_3944&lt;/b&gt;&lt;br&gt;ctg1 3944&lt;br&gt;Location: 4190096 - 4190543" locus_tag="ctg1_3944" class="clusterblast-orf" id="knownclusterblast-18_q22_0_all"  />
<polygon points="740,35 745,30 751,30 751,40 745,40 740,35 " style="fill:white; stroke-width:1; stroke:black; " description="&lt;b&gt;ctg1_3945&lt;/b&gt;&lt;br&gt;ctg1 3945&lt;br&gt;Location: 4190843 - 4191158" locus_tag="ctg1_3945" class="clusterblast-orf" id="knownclusterblast-18_q23_0_all"  />
<polygon points="751,35 756,30 780,30 780,40 756,40 751,35 " style="fill:white; stroke-width:1; stroke:black; " description="&lt;b&gt;ctg1_3946&lt;/b&gt;&lt;br&gt;ctg1 3946&lt;br&gt;Location: 4191167 - 4191992" locus_tag="ctg1_3946" class="clusterblast-orf" id="knownclusterblast-18_q24_0_all"  />
</g>
<g label="MGC00000049" description="MGC00000049_c1: Formate dehydrogenase E. coli (100% of genes show similarity), FORM" class="clusterblast-cluster"  >
<text x="5" y="70" class="clusterblast-acc"  >
MGC00000049_c1: Formate dehydrogenase E. coli (100% of genes show similarity), FORM</text>
<line x1="10" y1="85" x2="778.0" y2="85" style="stroke-width:1; stroke:grey; "  />
</g>
<g id="a18_000"  >
<polygon points="310,85 315,80 332,80 332,90 315,90 310,85 " style="fill:#d81515; stroke-width:1; stroke:black; " description="&lt;b&gt;b3892&lt;/b&gt;&lt;br&gt;formate dehydrogenase O subunit gamma&lt;br&gt;Location: 10000 - 10636&lt;br&gt;&lt;br&gt;&lt;b&gt;BlastP hit with ctg1_3935&lt;/b&gt;&lt;br&gt;Percentage identity: 100&lt;br&gt;Percentage coverage: 100&lt;br&gt;BLAST bit score: 423&lt;br&gt;E-value: 2.96e-155" locus_tag="b3892" class="clusterblast-orf" id="knownclusterblast-18_all_18_1_0"  />
</g>
<g id="a18_001"  >
<polygon points="332,85 337,80 363,80 363,90 337,90 332,85 " style="fill:#15d815; stroke-width:1; stroke:black; " description="&lt;b&gt;b3893&lt;/b&gt;&lt;br&gt;formate dehydrogenase O subunit beta&lt;br&gt;Location: 10632 - 11535&lt;br&gt;&lt;br&gt;&lt;b&gt;BlastP hit with ctg1_3936&lt;/b&gt;&lt;br&gt;Percentage identity: 100&lt;br&gt;Percentage coverage: 100&lt;br&gt;BLAST bit score: 634&lt;br&gt;E-value: 5.7e-236" locus_tag="b3893" class="clusterblast-orf" id="knownclusterblast-18_all_18_1_1"  />
</g>
<g id="a18_002"  >
<polygon points="363,85 368,80 469,80 469,90 368,90 363,85 " style="fill:#1515d8; stroke-width:1; stroke:black; " description="&lt;b&gt;b3894&lt;/b&gt;&lt;br&gt;formate dehydrogenase O subunit alpha&lt;br&gt;Location: 11547 - 14598&lt;br&gt;&lt;br&gt;&lt;b&gt;BlastP hit with ctg1_3937&lt;/b&gt;&lt;br&gt;Percentage identity: 100&lt;br&gt;Percentage coverage: 100&lt;br&gt;BLAST bit score: 1674&lt;br&gt;E-value: 0.0&lt;br&gt;&lt;br&gt;&lt;b&gt;BlastP hit with ctg1_3938&lt;/b&gt;&lt;br&gt;Percentage identity: 100&lt;br&gt;Percentage coverage: 100&lt;br&gt;BLAST bit score: 398&lt;br&gt;E-value: 1.62e-135" locus_tag="b3894" class="clusterblast-orf" id="knownclusterblast-18_all_18_1_2"  />
</g>
</svg>
