<svg xmlns="http://www.w3.org/2000/svg" xmlns:xlink="http://www.w3.org/1999/xlink" version="1.1" x="0" y="0" height="100" width="800" viewBox="0 0 800 100" preserveAspectRatio="none"  >
<g label="Query sequence" class="clusterblast-cluster"  >
<text x="5" y="20" class="clusterblast-acc"  >
Query sequence</text>
<line x1="10" y1="35" x2="778.0" y2="35" style="stroke-width:1; stroke:grey; "  />
<polygon points="0,40 6,40 11,35 6,30 0,30 0,40 " style="fill:white; stroke-width:1; stroke:black; " description="&lt;b&gt;ctg1_4187&lt;/b&gt;&lt;br&gt;ctg1 4187&lt;br&gt;Location: 4469072 - 4469366" locus_tag="ctg1_4187" class="clusterblast-orf" id="knownclusterblast-20_q0_0_all"  />
<polygon points="12,40 67,40 72,35 67,30 12,30 12,40 " style="fill:white; stroke-width:1; stroke:black; " description="&lt;b&gt;ctg1_4188&lt;/b&gt;&lt;br&gt;ctg1 4188&lt;br&gt;Location: 4469409 - 4471056" locus_tag="ctg1_4188" class="clusterblast-orf" id="knownclusterblast-20_q1_0_all"  />
<polygon points="77,40 85,40 90,35 85,30 77,30 77,40 " style="fill:white; stroke-width:1; stroke:black; " description="&lt;b&gt;ctg1_4189&lt;/b&gt;&lt;br&gt;ctg1 4189&lt;br&gt;Location: 4471193 - 4471547" locus_tag="ctg1_4189" class="clusterblast-orf" id="knownclusterblast-20_q2_0_all"  />
<polygon points="97,35 102,30 129,30 129,40 102,40 97,35 " style="fill:white; stroke-width:1; stroke:black; " description="&lt;b&gt;ctg1_4190&lt;/b&gt;&lt;br&gt;ctg1 4190&lt;br&gt;Location: 4471749 - 4472619" locus_tag="ctg1_4190" class="clusterblast-orf" id="knownclusterblast-20_q3_0_all"  />
<polygon points="143,35 148,30 180,30 180,40 148,40 143,35 " style="fill:white; stroke-width:1; stroke:black; " description="&lt;b&gt;ctg1_4191&lt;/b&gt;&lt;br&gt;ctg1 4191&lt;br&gt;Location: 4473013 - 4474042" locus_tag="ctg1_4191" class="clusterblast-orf" id="knownclusterblast-20_q4_0_all"  />
<polygon points="182,40 198,40 203,35 198,30 182,30 182,40 " style="fill:white; stroke-width:1; stroke:black; " description="&lt;b&gt;ctg1_4192&lt;/b&gt;&lt;br&gt;ctg1 4192&lt;br&gt;Location: 4474083 - 4474650" locus_tag="ctg1_4192" class="clusterblast-orf" id="knownclusterblast-20_q5_0_all"  />
<polygon points="204,40 204,40 209,35 204,30 204,30 204,40 " style="fill:white; stroke-width:1; stroke:black; " description="&lt;b&gt;ctg1_4193&lt;/b&gt;&lt;br&gt;ctg1 4193&lt;br&gt;Location: 4474701 - 4474827" locus_tag="ctg1_4193" class="clusterblast-orf" id="knownclusterblast-20_q6_0_all"  />
<polygon points="213,40 213,40 218,35 213,30 213,30 213,40 " style="fill:white; stroke-width:1; stroke:black; " description="&lt;b&gt;ctg1_4194&lt;/b&gt;&lt;br&gt;ctg1 4194&lt;br&gt;Location: 4474937 - 4475084" locus_tag="ctg1_4194" class="clusterblast-orf" id="knownclusterblast-20_q7_0_all"  />
<polygon points="225,40 231,40 236,35 231,30 225,30 225,40 " style="fill:white; stroke-width:1; stroke:black; " description="&lt;b&gt;ctg1_4195&lt;/b&gt;&lt;br&gt;ctg1 4195&lt;br&gt;Location: 4475259 - 4475577" locus_tag="ctg1_4195" class="clusterblast-orf" id="knownclusterblast-20_q8_0_all"  />
<polygon points="236,35 241,30 256,30 256,40 241,40 236,35 " style="fill:white; stroke-width:1; stroke:black; " description="&lt;b&gt;ctg1_4196&lt;/b&gt;&lt;br&gt;ctg1 4196&lt;br&gt;Location: 4475573 - 4476107" locus_tag="ctg1_4196" class="clusterblast-orf" id="knownclusterblast-20_q9_0_all"  />
<polygon points="259,35 264,30 300,30 300,40 264,40 259,35 " style="fill:white; stroke-width:1; stroke:black; " description="&lt;b&gt;ctg1_4197&lt;/b&gt;&lt;br&gt;ctg1 4197&lt;br&gt;Location: 4476195 - 4477329" locus_tag="ctg1_4197" class="clusterblast-orf" id="knownclusterblast-20_q10_0_all"  />
<polygon points="302,35 307,30 315,30 315,40 307,40 302,35 " style="fill:white; stroke-width:1; stroke:black; " description="&lt;b&gt;ctg1_4198&lt;/b&gt;&lt;br&gt;ctg1 4198&lt;br&gt;Location: 4477391 - 4477751" locus_tag="ctg1_4198" class="clusterblast-orf" id="knownclusterblast-20_q11_0_all"  />
<polygon points="316,35 321,30 330,30 330,40 321,40 316,35 " style="fill:white; stroke-width:1; stroke:black; " description="&lt;b&gt;ctg1_4199&lt;/b&gt;&lt;br&gt;ctg1 4199&lt;br&gt;Location: 4477761 - 4478157" locus_tag="ctg1_4199" class="clusterblast-orf" id="knownclusterblast-20_q12_0_all"  />
<polygon points="330,35 335,30 357,30 357,40 335,40 330,35 " style="fill:#d81515; stroke-width:1; stroke:black; " description="&lt;b&gt;ctg1_4200&lt;/b&gt;&lt;br&gt;ctg1 4200&lt;br&gt;Location: 4478167 - 4478902" locus_tag="ctg1_4200" class="clusterblast-orf" id="knownclusterblast-20_q13_0_all"  />
<polygon points="357,35 362,30 423,30 423,40 362,40 357,35 " style="fill:#15d8d8; stroke-width:1; stroke:black; " description="&lt;b&gt;ctg1_4201&lt;/b&gt;&lt;br&gt;ctg1 4201&lt;br&gt;Location: 4478894 - 4480703" locus_tag="ctg1_4201" class="clusterblast-orf" id="knownclusterblast-20_q14_0_all"  />
<polygon points="434,40 465,40 470,35 465,30 434,30 434,40 " style="fill:white; stroke-width:1; stroke:black; " description="&lt;b&gt;ctg1_4202&lt;/b&gt;&lt;br&gt;ctg1 4202&lt;br&gt;Location: 4481027 - 4482005" locus_tag="ctg1_4202" class="clusterblast-orf" id="knownclusterblast-20_q15_0_all"  />
<polygon points="479,40 527,40 532,35 527,30 479,30 479,40 " style="fill:white; stroke-width:1; stroke:black; " description="&lt;b&gt;ctg1_4203&lt;/b&gt;&lt;br&gt;ctg1 4203&lt;br&gt;Location: 4482268 - 4483726" locus_tag="ctg1_4203" class="clusterblast-orf" id="knownclusterblast-20_q16_0_all"  />
<polygon points="534,40 541,40 546,35 541,30 534,30 534,40 " style="fill:white; stroke-width:1; stroke:black; " description="&lt;b&gt;ctg1_4204&lt;/b&gt;&lt;br&gt;ctg1 4204&lt;br&gt;Location: 4483777 - 4484092" locus_tag="ctg1_4204" class="clusterblast-orf" id="knownclusterblast-20_q17_0_all"  />
<polygon points="546,40 552,40 557,35 552,30 546,30 546,40 " style="fill:white; stroke-width:1; stroke:black; " description="&lt;b&gt;ctg1_4205&lt;/b&gt;&lt;br&gt;ctg1 4205&lt;br&gt;Location: 4484100 - 4484403" locus_tag="ctg1_4205" class="clusterblast-orf" id="knownclusterblast-20_q18_0_all"  />
<polygon points="558,35 563,30 679,30 679,40 563,40 558,35 " style="fill:white; stroke-width:1; stroke:black; " description="&lt;b&gt;ctg1_4206&lt;/b&gt;&lt;br&gt;ctg1 4206&lt;br&gt;Location: 4484431 - 4487755" locus_tag="ctg1_4206" class="clusterblast-orf" id="knownclusterblast-20_q19_0_all"  />
<polygon points="680,35 685,30 715,30 715,40 685,40 680,35 " style="fill:white; stroke-width:1; stroke:black; " description="&lt;b&gt;ctg1_4207&lt;/b&gt;&lt;br&gt;ctg1 4207&lt;br&gt;Location: 4487776 - 4488745" locus_tag="ctg1_4207" class="clusterblast-orf" id="knownclusterblast-20_q20_0_all"  />
<polygon points="718,35 723,30 757,30 757,40 723,40 718,35 " style="fill:white; stroke-width:1; stroke:black; " description="&lt;b&gt;ctg1_4208&lt;/b&gt;&lt;br&gt;ctg1 4208&lt;br&gt;Location: 4488841 - 4489894" locus_tag="ctg1_4208" class="clusterblast-orf" id="knownclusterblast-20_q21_0_all"  />
<polygon points="760,40 775,40 780,35 775,30 760,30 760,40 " style="fill:white; stroke-width:1; stroke:black; " description="&lt;b&gt;ctg1_4209&lt;/b&gt;&lt;br&gt;ctg1 4209&lt;br&gt;Location: 4489988 - 4490534" locus_tag="ctg1_4209" class="clusterblast-orf" id="knownclusterblast-20_q22_0_all"  />
</g>
<g label="MGC00000057" description="MGC00000057_c1: Fumarate2succinate fum red E. coli (100% of genes show similarity), SUC" class="clusterblast-cluster"  >
<text x="5" y="70" class="clusterblast-acc"  >
MGC00000057_c1: Fumarate2succinate fum red E. coli (100% of genes show similarity), SUC</text>
<line x1="10" y1="85" x2="778.0" y2="85" style="stroke-width:1; stroke:grey; "  />
</g>
<g id="a20_000"  >
<polygon points="343,85 348,80 370,80 370,90 348,90 343,85 " style="fill:#d81515; stroke-width:1; stroke:black; " description="&lt;b&gt;HMPREF9550_01585&lt;/b&gt;&lt;br&gt;fumarate reductase iron-sulfur subunit&lt;br&gt;Location: 10000 - 10735&lt;br&gt;&lt;br&gt;&lt;b&gt;BlastP hit with ctg1_4200&lt;/b&gt;&lt;br&gt;Percentage identity: 100&lt;br&gt;Percentage coverage: 100&lt;br&gt;BLAST bit score: 508&lt;br&gt;E-value: 1.07e-187" locus_tag="HMPREF9550_01585" class="clusterblast-orf" id="knownclusterblast-20_all_20_1_0"  />
</g>
<g id="a20_001"  >
<polygon points="370,85 375,80 436,80 436,90 375,90 370,85 " style="fill:#15d8d8; stroke-width:1; stroke:black; " description="&lt;b&gt;HMPREF9550_01586&lt;/b&gt;&lt;br&gt;fumarate reductase, flavoprotein subunit&lt;br&gt;Location: 10727 - 12536&lt;br&gt;&lt;br&gt;&lt;b&gt;BlastP hit with ctg1_4201&lt;/b&gt;&lt;br&gt;Percentage identity: 100&lt;br&gt;Percentage coverage: 100&lt;br&gt;BLAST bit score: 1207&lt;br&gt;E-value: 0.0" locus_tag="HMPREF9550_01586" class="clusterblast-orf" id="knownclusterblast-20_all_20_1_1"  />
</g>
</svg>
