<svg xmlns="http://www.w3.org/2000/svg" xmlns:xlink="http://www.w3.org/1999/xlink" version="1.1" x="0" y="0" height="230" width="800" viewBox="0 0 800 230" preserveAspectRatio="none"  >
<g label="Query sequence" class="clusterblast-cluster"  >
<text x="5" y="20" class="clusterblast-acc"  >
Query sequence</text>
<line x1="10" y1="35" x2="778.0" y2="35" style="stroke-width:1; stroke:grey; "  />
<polygon points="0,35 5,30 16,30 16,40 5,40 0,35 " style="fill:white; stroke-width:1; stroke:black; " description="&lt;b&gt;ctg1_1446&lt;/b&gt;&lt;br&gt;ctg1 1446&lt;br&gt;Location: 1516965 - 1517703" locus_tag="ctg1_1446" class="clusterblast-orf" id="dummy-6_q0_0_all"  />
<polygon points="19,40 58,40 63,35 58,30 19,30 19,40 " style="fill:white; stroke-width:1; stroke:black; " description="&lt;b&gt;ctg1_1447&lt;/b&gt;&lt;br&gt;ctg1 1447&lt;br&gt;Location: 1517833 - 1519831" locus_tag="ctg1_1447" class="clusterblast-orf" id="dummy-6_q1_0_all"  />
<polygon points="63,40 71,40 76,35 71,30 63,30 63,40 " style="fill:white; stroke-width:1; stroke:black; " description="&lt;b&gt;ctg1_1448&lt;/b&gt;&lt;br&gt;ctg1 1448&lt;br&gt;Location: 1519830 - 1520406" locus_tag="ctg1_1448" class="clusterblast-orf" id="dummy-6_q2_0_all"  />
<polygon points="78,35 83,30 91,30 91,40 83,40 78,35 " style="fill:white; stroke-width:1; stroke:black; " description="&lt;b&gt;ctg1_1449&lt;/b&gt;&lt;br&gt;ctg1 1449&lt;br&gt;Location: 1520503 - 1521094" locus_tag="ctg1_1449" class="clusterblast-orf" id="dummy-6_q3_0_all"  />
<polygon points="99,35 104,30 104,30 104,40 104,40 99,35 " style="fill:white; stroke-width:1; stroke:black; " description="&lt;b&gt;ctg1_1450&lt;/b&gt;&lt;br&gt;ctg1 1450&lt;br&gt;Location: 1521410 - 1521644" locus_tag="ctg1_1450" class="clusterblast-orf" id="dummy-6_q4_0_all"  />
<polygon points="108,40 125,40 130,35 125,30 108,30 108,40 " style="fill:white; stroke-width:1; stroke:black; " description="&lt;b&gt;ctg1_1451&lt;/b&gt;&lt;br&gt;ctg1 1451&lt;br&gt;Location: 1521834 - 1522815" locus_tag="ctg1_1451" class="clusterblast-orf" id="dummy-6_q5_0_all"  />
<polygon points="152,35 157,30 161,30 161,40 157,40 152,35 " style="fill:white; stroke-width:1; stroke:black; " description="&lt;b&gt;ctg1_1452&lt;/b&gt;&lt;br&gt;ctg1 1452&lt;br&gt;Location: 1523803 - 1524238" locus_tag="ctg1_1452" class="clusterblast-orf" id="dummy-6_q6_0_all"  />
<polygon points="164,35 169,30 190,30 190,40 169,40 164,35 " style="fill:white; stroke-width:1; stroke:black; " description="&lt;b&gt;ctg1_1453&lt;/b&gt;&lt;br&gt;ctg1 1453&lt;br&gt;Location: 1524378 - 1525512" locus_tag="ctg1_1453" class="clusterblast-orf" id="dummy-6_q7_0_all"  />
<polygon points="198,35 203,30 276,30 276,40 203,40 198,35 " style="fill:#d81515; stroke-width:1; stroke:black; " description="&lt;b&gt;ctg1_1454&lt;/b&gt;&lt;br&gt;ctg1 1454&lt;br&gt;Location: 1525878 - 1529403" locus_tag="ctg1_1454" class="clusterblast-orf" id="dummy-6_q8_0_all"  />
<polygon points="282,40 283,40 288,35 283,30 282,30 282,40 " style="fill:white; stroke-width:1; stroke:black; " description="&lt;b&gt;ctg1_1455&lt;/b&gt;&lt;br&gt;ctg1 1455&lt;br&gt;Location: 1529676 - 1529943" locus_tag="ctg1_1455" class="clusterblast-orf" id="dummy-6_q9_0_all"  />
<polygon points="288,35 293,30 298,30 298,40 293,40 288,35 " style="fill:white; stroke-width:1; stroke:black; " description="&lt;b&gt;ctg1_1456&lt;/b&gt;&lt;br&gt;ctg1 1456&lt;br&gt;Location: 1529939 - 1530362" locus_tag="ctg1_1456" class="clusterblast-orf" id="dummy-6_q10_0_all"  />
<polygon points="300,35 305,30 322,30 322,40 305,40 300,35 " style="fill:white; stroke-width:1; stroke:black; " description="&lt;b&gt;ctg1_1457&lt;/b&gt;&lt;br&gt;ctg1 1457&lt;br&gt;Location: 1530472 - 1531462" locus_tag="ctg1_1457" class="clusterblast-orf" id="dummy-6_q11_0_all"  />
<polygon points="327,40 380,40 385,35 380,30 327,30 327,40 " style="fill:white; stroke-width:1; stroke:black; " description="&lt;b&gt;ctg1_1458&lt;/b&gt;&lt;br&gt;ctg1 1458&lt;br&gt;Location: 1531669 - 1534309" locus_tag="ctg1_1458" class="clusterblast-orf" id="dummy-6_q12_0_all"  />
<polygon points="385,40 389,35 385,30 385,40 " style="fill:white; stroke-width:1; stroke:black; " description="&lt;b&gt;ctg1_1459&lt;/b&gt;&lt;br&gt;ctg1 1459&lt;br&gt;Location: 1534305 - 1534491" locus_tag="ctg1_1459" class="clusterblast-orf" id="dummy-6_q13_0_all"  />
<polygon points="389,40 392,40 397,35 392,30 389,30 389,40 " style="fill:white; stroke-width:1; stroke:black; " description="&lt;b&gt;ctg1_1460&lt;/b&gt;&lt;br&gt;ctg1 1460&lt;br&gt;Location: 1534498 - 1534825" locus_tag="ctg1_1460" class="clusterblast-orf" id="dummy-6_q14_0_all"  />
<polygon points="401,35 406,30 421,30 421,40 406,40 401,35 " style="fill:white; stroke-width:1; stroke:black; " description="&lt;b&gt;ctg1_1461&lt;/b&gt;&lt;br&gt;ctg1 1461&lt;br&gt;Location: 1534996 - 1535902" locus_tag="ctg1_1461" class="clusterblast-orf" id="dummy-6_q15_0_all"  />
<polygon points="426,40 454,40 459,35 454,30 426,30 426,40 " style="fill:white; stroke-width:1; stroke:black; " description="&lt;b&gt;ctg1_1462&lt;/b&gt;&lt;br&gt;ctg1 1462&lt;br&gt;Location: 1536137 - 1537637" locus_tag="ctg1_1462" class="clusterblast-orf" id="dummy-6_q16_0_all"  />
<polygon points="460,35 465,30 511,30 511,40 465,40 460,35 " style="fill:white; stroke-width:1; stroke:black; " description="&lt;b&gt;ctg1_1463&lt;/b&gt;&lt;br&gt;ctg1 1463&lt;br&gt;Location: 1537694 - 1539968" locus_tag="ctg1_1463" class="clusterblast-orf" id="dummy-6_q17_0_all"  />
<polygon points="517,35 522,30 562,30 562,40 522,40 517,35 " style="fill:white; stroke-width:1; stroke:black; " description="&lt;b&gt;ctg1_1464&lt;/b&gt;&lt;br&gt;ctg1 1464&lt;br&gt;Location: 1540215 - 1542261" locus_tag="ctg1_1464" class="clusterblast-orf" id="dummy-6_q18_0_all"  />
<polygon points="568,40 584,40 589,35 584,30 568,30 568,40 " style="fill:white; stroke-width:1; stroke:black; " description="&lt;b&gt;ctg1_1465&lt;/b&gt;&lt;br&gt;ctg1 1465&lt;br&gt;Location: 1542545 - 1543475" locus_tag="ctg1_1465" class="clusterblast-orf" id="dummy-6_q19_0_all"  />
<polygon points="589,40 591,40 596,35 591,30 589,30 589,40 " style="fill:white; stroke-width:1; stroke:black; " description="&lt;b&gt;ctg1_1466&lt;/b&gt;&lt;br&gt;ctg1 1466&lt;br&gt;Location: 1543486 - 1543774" locus_tag="ctg1_1466" class="clusterblast-orf" id="dummy-6_q20_0_all"  />
<polygon points="596,40 607,40 612,35 607,30 596,30 596,40 " style="fill:white; stroke-width:1; stroke:black; " description="&lt;b&gt;ctg1_1467&lt;/b&gt;&lt;br&gt;ctg1 1467&lt;br&gt;Location: 1543782 - 1544529" locus_tag="ctg1_1467" class="clusterblast-orf" id="dummy-6_q21_0_all"  />
<polygon points="613,40 619,40 624,35 619,30 613,30 613,40 " style="fill:white; stroke-width:1; stroke:black; " description="&lt;b&gt;ctg1_1468&lt;/b&gt;&lt;br&gt;ctg1 1468&lt;br&gt;Location: 1544543 - 1545041" locus_tag="ctg1_1468" class="clusterblast-orf" id="dummy-6_q22_0_all"  />
<polygon points="624,40 643,40 648,35 643,30 624,30 624,40 " style="fill:white; stroke-width:1; stroke:black; " description="&lt;b&gt;ctg1_1469&lt;/b&gt;&lt;br&gt;ctg1 1469&lt;br&gt;Location: 1545048 - 1546119" locus_tag="ctg1_1469" class="clusterblast-orf" id="dummy-6_q23_0_all"  />
<polygon points="648,40 660,40 665,35 660,30 648,30 648,40 " style="fill:#77d815; stroke-width:1; stroke:black; " description="&lt;b&gt;ctg1_1470&lt;/b&gt;&lt;br&gt;ctg1 1470&lt;br&gt;Location: 1546115 - 1546883" locus_tag="ctg1_1470" class="clusterblast-orf" id="dummy-6_q24_0_all"  />
<polygon points="665,40 677,40 682,35 677,30 665,30 665,40 " style="fill:#77d815; stroke-width:1; stroke:black; " description="&lt;b&gt;ctg1_1471&lt;/b&gt;&lt;br&gt;ctg1 1471&lt;br&gt;Location: 1546882 - 1547671" locus_tag="ctg1_1471" class="clusterblast-orf" id="dummy-6_q25_0_all"  />
<polygon points="683,40 709,40 714,35 709,30 683,30 683,40 " style="fill:#15d8d8; stroke-width:1; stroke:black; " description="&lt;b&gt;ctg1_1472&lt;/b&gt;&lt;br&gt;ctg1 1472&lt;br&gt;Location: 1547717 - 1549100" locus_tag="ctg1_1472" class="clusterblast-orf" id="dummy-6_q26_0_all"  />
<polygon points="714,40 718,40 723,35 718,30 714,30 714,40 " style="fill:white; stroke-width:1; stroke:black; " description="&lt;b&gt;ctg1_1473&lt;/b&gt;&lt;br&gt;ctg1 1473&lt;br&gt;Location: 1549089 - 1549512" locus_tag="ctg1_1473" class="clusterblast-orf" id="dummy-6_q27_0_all"  />
<polygon points="723,40 745,40 750,35 745,30 723,30 723,40 " style="fill:#7715d8; stroke-width:1; stroke:black; " description="&lt;b&gt;ctg1_1474&lt;/b&gt;&lt;br&gt;ctg1 1474&lt;br&gt;Location: 1549511 - 1550717" locus_tag="ctg1_1474" class="clusterblast-orf" id="dummy-6_q28_0_all"  />
<polygon points="751,40 775,40 780,35 775,30 751,30 751,40 " style="fill:white; stroke-width:1; stroke:black; " description="&lt;b&gt;ctg1_1475&lt;/b&gt;&lt;br&gt;ctg1 1475&lt;br&gt;Location: 1550743 - 1552057" locus_tag="ctg1_1475" class="clusterblast-orf" id="dummy-6_q29_0_all"  />
</g>
<g label="MGC0000005" description="MGC0000005_c1: Acetate to butyrate C. sporogenes (50% of genes show similarity), BUT" class="clusterblast-cluster"  >
<text x="5" y="70" class="clusterblast-acc"  >
MGC0000005_c1: Acetate to butyrate C. sporogenes (50% of genes show similarity), BUT</text>
<line x1="10" y1="85" x2="778.0" y2="85" style="stroke-width:1; stroke:grey; "  />
</g>
<g id="a6_000"  >
<polygon points="323,90 335,90 340,85 335,80 323,80 323,90 " style="fill:#77d815; stroke-width:1; stroke:black; " description="&lt;b&gt;CLOSPO_RS02070&lt;/b&gt;&lt;br&gt;crotonase&lt;br&gt;Location: 60 - 843&lt;br&gt;&lt;br&gt;&lt;b&gt;BlastP hit with ctg1_1470&lt;/b&gt;&lt;br&gt;Percentage identity: 41&lt;br&gt;Percentage coverage: 98&lt;br&gt;BLAST bit score: 184&lt;br&gt;E-value: 1.24e-59&lt;br&gt;&lt;br&gt;&lt;b&gt;BlastP hit with ctg1_1471&lt;/b&gt;&lt;br&gt;Percentage identity: 34&lt;br&gt;Percentage coverage: 98&lt;br&gt;BLAST bit score: 136&lt;br&gt;E-value: 5.35e-41" locus_tag="CLOSPO_RS02070" class="clusterblast-orf" id="dummy-6_h6_1_0"  />
</g>
<g id="a6_001"  >
<polygon points="341,90 354,90 359,85 354,80 341,80 341,90 " style="fill:#15d8d8; stroke-width:1; stroke:black; " description="&lt;b&gt;CLOSPO_RS02075&lt;/b&gt;&lt;br&gt;3-hydroxybutyryl-CoA dehydrogenase&lt;br&gt;Location: 862 - 1693&lt;br&gt;&lt;br&gt;&lt;b&gt;BlastP hit with ctg1_1472&lt;/b&gt;&lt;br&gt;Percentage identity: 42&lt;br&gt;Percentage coverage: 59&lt;br&gt;BLAST bit score: 207&lt;br&gt;E-value: 8.95e-66" locus_tag="CLOSPO_RS02075" class="clusterblast-orf" id="dummy-6_h6_1_1"  />
</g>
<g id="a6_002"  >
<polygon points="360,90 381,90 386,85 381,80 360,80 360,90 " style="fill:#7715d8; stroke-width:1; stroke:black; " description="&lt;b&gt;CLOSPO_RS02080&lt;/b&gt;&lt;br&gt;acetyl-CoA acetyltransferase&lt;br&gt;Location: 1717 - 2896&lt;br&gt;&lt;br&gt;&lt;b&gt;BlastP hit with ctg1_1474&lt;/b&gt;&lt;br&gt;Percentage identity: 47&lt;br&gt;Percentage coverage: 100&lt;br&gt;BLAST bit score: 319&lt;br&gt;E-value: 1.94e-108" locus_tag="CLOSPO_RS02080" class="clusterblast-orf" id="dummy-6_h6_1_2"  />
</g>
<g id="a6_003"  >
<polygon points="390,90 411,90 416,85 411,80 390,80 390,90 " style="fill:white; stroke-width:1; stroke:black; " description="&lt;b&gt;CLOSPO_RS02085&lt;/b&gt;&lt;br&gt;acyl-CoA dehydrogenase&lt;br&gt;Location: 3089 - 4229" locus_tag="CLOSPO_RS02085" class="clusterblast-orf" id="dummy-6_h6_1_3"  />
</g>
<g id="a6_004"  >
<polygon points="416,90 428,90 433,85 428,80 416,80 416,90 " style="fill:white; stroke-width:1; stroke:black; " description="&lt;b&gt;CLOSPO_RS02090&lt;/b&gt;&lt;br&gt;electron transfer flavoprotein subunit beta&lt;br&gt;Location: 4240 - 5020" locus_tag="CLOSPO_RS02090" class="clusterblast-orf" id="dummy-6_h6_1_4"  />
</g>
<g id="a6_005"  >
<polygon points="434,90 451,90 456,85 451,80 434,80 434,90 " style="fill:white; stroke-width:1; stroke:black; " description="&lt;b&gt;CLOSPO_RS02095&lt;/b&gt;&lt;br&gt;electron transfer flavoprotein subunit alpha&lt;br&gt;Location: 5035 - 6040" locus_tag="CLOSPO_RS02095" class="clusterblast-orf" id="dummy-6_h6_1_5"  />
</g>
</svg>
