<svg xmlns="http://www.w3.org/2000/svg" xmlns:xlink="http://www.w3.org/1999/xlink" version="1.1" x="0" y="0" height="230" width="800" viewBox="0 0 800 230" preserveAspectRatio="none"  >
<g label="Query sequence" class="clusterblast-cluster"  >
<text x="5" y="20" class="clusterblast-acc"  >
Query sequence</text>
<line x1="10" y1="35" x2="778.0" y2="35" style="stroke-width:1; stroke:grey; "  />
<polygon points="0,35 5,30 10,30 10,40 5,40 0,35 " style="fill:white; stroke-width:1; stroke:black; " description="&lt;b&gt;ctg1_2339&lt;/b&gt;&lt;br&gt;ctg1 2339&lt;br&gt;Location: 2470091 - 2470553" locus_tag="ctg1_2339" class="clusterblast-orf" id="dummy-11_q0_0_all"  />
<polygon points="11,40 28,40 33,35 28,30 11,30 11,40 " style="fill:white; stroke-width:1; stroke:black; " description="&lt;b&gt;ctg1_2340&lt;/b&gt;&lt;br&gt;ctg1 2340&lt;br&gt;Location: 2470599 - 2471547" locus_tag="ctg1_2340" class="clusterblast-orf" id="dummy-11_q1_0_all"  />
<polygon points="34,40 35,40 40,35 35,30 34,30 34,40 " style="fill:white; stroke-width:1; stroke:black; " description="&lt;b&gt;ctg1_2341&lt;/b&gt;&lt;br&gt;ctg1 2341&lt;br&gt;Location: 2471580 - 2471856" locus_tag="ctg1_2341" class="clusterblast-orf" id="dummy-11_q2_0_all"  />
<polygon points="41,40 44,40 49,35 44,30 41,30 41,40 " style="fill:white; stroke-width:1; stroke:black; " description="&lt;b&gt;ctg1_2342&lt;/b&gt;&lt;br&gt;ctg1 2342&lt;br&gt;Location: 2471900 - 2472278" locus_tag="ctg1_2342" class="clusterblast-orf" id="dummy-11_q3_0_all"  />
<polygon points="54,40 77,40 82,35 77,30 54,30 54,40 " style="fill:white; stroke-width:1; stroke:black; " description="&lt;b&gt;ctg1_2343&lt;/b&gt;&lt;br&gt;ctg1 2343&lt;br&gt;Location: 2472502 - 2473711" locus_tag="ctg1_2343" class="clusterblast-orf" id="dummy-11_q4_0_all"  />
<polygon points="83,35 88,30 123,30 123,40 88,40 83,35 " style="fill:white; stroke-width:1; stroke:black; " description="&lt;b&gt;ctg1_2344&lt;/b&gt;&lt;br&gt;ctg1 2344&lt;br&gt;Location: 2473781 - 2475509" locus_tag="ctg1_2344" class="clusterblast-orf" id="dummy-11_q5_0_all"  />
<polygon points="126,40 143,40 148,35 143,30 126,30 126,40 " style="fill:white; stroke-width:1; stroke:black; " description="&lt;b&gt;ctg1_2345&lt;/b&gt;&lt;br&gt;ctg1 2345&lt;br&gt;Location: 2475646 - 2476618" locus_tag="ctg1_2345" class="clusterblast-orf" id="dummy-11_q6_0_all"  />
<polygon points="150,40 157,40 162,35 157,30 150,30 150,40 " style="fill:white; stroke-width:1; stroke:black; " description="&lt;b&gt;ctg1_2346&lt;/b&gt;&lt;br&gt;ctg1 2346&lt;br&gt;Location: 2476720 - 2477224" locus_tag="ctg1_2346" class="clusterblast-orf" id="dummy-11_q7_0_all"  />
<polygon points="168,35 173,30 184,30 184,40 173,40 168,35 " style="fill:white; stroke-width:1; stroke:black; " description="&lt;b&gt;ctg1_2347&lt;/b&gt;&lt;br&gt;ctg1 2347&lt;br&gt;Location: 2477496 - 2478213" locus_tag="ctg1_2347" class="clusterblast-orf" id="dummy-11_q8_0_all"  />
<polygon points="189,40 193,40 198,35 193,30 189,30 189,40 " style="fill:white; stroke-width:1; stroke:black; " description="&lt;b&gt;ctg1_2348&lt;/b&gt;&lt;br&gt;ctg1 2348&lt;br&gt;Location: 2478421 - 2478844" locus_tag="ctg1_2348" class="clusterblast-orf" id="dummy-11_q9_0_all"  />
<polygon points="200,40 214,40 219,35 214,30 200,30 200,40 " style="fill:white; stroke-width:1; stroke:black; " description="&lt;b&gt;ctg1_2349&lt;/b&gt;&lt;br&gt;ctg1 2349&lt;br&gt;Location: 2478902 - 2479751" locus_tag="ctg1_2349" class="clusterblast-orf" id="dummy-11_q10_0_all"  />
<polygon points="221,35 226,30 254,30 254,40 226,40 221,35 " style="fill:#d81515; stroke-width:1; stroke:black; " description="&lt;b&gt;ctg1_2350&lt;/b&gt;&lt;br&gt;ctg1 2350&lt;br&gt;Location: 2479834 - 2481292" locus_tag="ctg1_2350" class="clusterblast-orf" id="dummy-11_q11_0_all"  />
<polygon points="254,35 259,30 289,30 289,40 259,40 254,35 " style="fill:#33d815; stroke-width:1; stroke:black; " description="&lt;b&gt;ctg1_2351&lt;/b&gt;&lt;br&gt;ctg1 2351&lt;br&gt;Location: 2481298 - 2482828" locus_tag="ctg1_2351" class="clusterblast-orf" id="dummy-11_q12_0_all"  />
<polygon points="292,35 297,30 334,30 334,40 297,40 292,35 " style="fill:#15abd8; stroke-width:1; stroke:black; " description="&lt;b&gt;ctg1_2352&lt;/b&gt;&lt;br&gt;ctg1 2352&lt;br&gt;Location: 2482991 - 2484833" locus_tag="ctg1_2352" class="clusterblast-orf" id="dummy-11_q13_0_all"  />
<polygon points="334,35 339,30 341,30 341,40 339,40 334,35 " style="fill:#8d15d8; stroke-width:1; stroke:black; " description="&lt;b&gt;ctg1_2353&lt;/b&gt;&lt;br&gt;ctg1 2353&lt;br&gt;Location: 2484829 - 2485132" locus_tag="ctg1_2353" class="clusterblast-orf" id="dummy-11_q14_0_all"  />
<polygon points="341,35 346,30 354,30 354,40 346,40 341,35 " style="fill:#d86f15; stroke-width:1; stroke:black; " description="&lt;b&gt;ctg1_2354&lt;/b&gt;&lt;br&gt;ctg1 2354&lt;br&gt;Location: 2485128 - 2485683" locus_tag="ctg1_2354" class="clusterblast-orf" id="dummy-11_q15_0_all"  />
<polygon points="354,35 359,30 366,30 366,40 359,40 354,35 " style="fill:#15d851; stroke-width:1; stroke:black; " description="&lt;b&gt;ctg1_2355&lt;/b&gt;&lt;br&gt;ctg1 2355&lt;br&gt;Location: 2485694 - 2486237" locus_tag="ctg1_2355" class="clusterblast-orf" id="dummy-11_q16_0_all"  />
<polygon points="366,35 371,30 389,30 389,40 371,40 366,35 " style="fill:#1551d8; stroke-width:1; stroke:black; " description="&lt;b&gt;ctg1_2356&lt;/b&gt;&lt;br&gt;ctg1 2356&lt;br&gt;Location: 2486251 - 2487229" locus_tag="ctg1_2356" class="clusterblast-orf" id="dummy-11_q17_0_all"  />
<polygon points="389,35 394,30 450,30 450,40 394,40 389,35 " style="fill:#d815c9; stroke-width:1; stroke:black; " description="&lt;b&gt;ctg1_2357&lt;/b&gt;&lt;br&gt;ctg1 2357&lt;br&gt;Location: 2487225 - 2489952" locus_tag="ctg1_2357" class="clusterblast-orf" id="dummy-11_q18_0_all"  />
<polygon points="452,35 457,30 482,30 482,40 457,40 452,35 " style="fill:#d8c915; stroke-width:1; stroke:black; " description="&lt;b&gt;ctg1_2358&lt;/b&gt;&lt;br&gt;ctg1 2358&lt;br&gt;Location: 2490004 - 2491342" locus_tag="ctg1_2358" class="clusterblast-orf" id="dummy-11_q19_0_all"  />
<polygon points="482,35 487,30 493,30 493,40 487,40 482,35 " style="fill:#15d8ab; stroke-width:1; stroke:black; " description="&lt;b&gt;ctg1_2359&lt;/b&gt;&lt;br&gt;ctg1 2359&lt;br&gt;Location: 2491338 - 2491839" locus_tag="ctg1_2359" class="clusterblast-orf" id="dummy-11_q20_0_all"  />
<polygon points="493,35 498,30 534,30 534,40 498,40 493,35 " style="fill:#3315d8; stroke-width:1; stroke:black; " description="&lt;b&gt;ctg1_2360&lt;/b&gt;&lt;br&gt;ctg1 2360&lt;br&gt;Location: 2491841 - 2493644" locus_tag="ctg1_2360" class="clusterblast-orf" id="dummy-11_q21_0_all"  />
<polygon points="536,35 541,30 551,30 551,40 541,40 536,35 " style="fill:#d8156f; stroke-width:1; stroke:black; " description="&lt;b&gt;ctg1_2361&lt;/b&gt;&lt;br&gt;ctg1 2361&lt;br&gt;Location: 2493737 - 2494400" locus_tag="ctg1_2361" class="clusterblast-orf" id="dummy-11_q22_0_all"  />
<polygon points="552,35 557,30 562,30 562,40 557,40 552,35 " style="fill:#8dd815; stroke-width:1; stroke:black; " description="&lt;b&gt;ctg1_2362&lt;/b&gt;&lt;br&gt;ctg1 2362&lt;br&gt;Location: 2494415 - 2494859" locus_tag="ctg1_2362" class="clusterblast-orf" id="dummy-11_q23_0_all"  />
<polygon points="568,40 572,35 568,30 568,40 " style="fill:white; stroke-width:1; stroke:black; " description="&lt;b&gt;ctg1_2363&lt;/b&gt;&lt;br&gt;ctg1 2363&lt;br&gt;Location: 2495121 - 2495286" locus_tag="ctg1_2363" class="clusterblast-orf" id="dummy-11_q24_0_all"  />
<polygon points="576,35 581,30 597,30 597,40 581,40 576,35 " style="fill:white; stroke-width:1; stroke:black; " description="&lt;b&gt;ctg1_2364&lt;/b&gt;&lt;br&gt;ctg1 2364&lt;br&gt;Location: 2495489 - 2496428" locus_tag="ctg1_2364" class="clusterblast-orf" id="dummy-11_q25_0_all"  />
<polygon points="618,40 641,40 646,35 641,30 618,30 618,40 " style="fill:white; stroke-width:1; stroke:black; " description="&lt;b&gt;ctg1_2365&lt;/b&gt;&lt;br&gt;ctg1 2365&lt;br&gt;Location: 2497347 - 2498565" locus_tag="ctg1_2365" class="clusterblast-orf" id="dummy-11_q26_0_all"  />
<polygon points="648,40 656,40 661,35 656,30 648,30 648,40 " style="fill:white; stroke-width:1; stroke:black; " description="&lt;b&gt;ctg1_2366&lt;/b&gt;&lt;br&gt;ctg1 2366&lt;br&gt;Location: 2498648 - 2499248" locus_tag="ctg1_2366" class="clusterblast-orf" id="dummy-11_q27_0_all"  />
<polygon points="663,35 668,30 704,30 704,40 668,40 663,35 " style="fill:white; stroke-width:1; stroke:black; " description="&lt;b&gt;ctg1_2367&lt;/b&gt;&lt;br&gt;ctg1 2367&lt;br&gt;Location: 2499306 - 2501139" locus_tag="ctg1_2367" class="clusterblast-orf" id="dummy-11_q28_0_all"  />
<polygon points="706,35 711,30 721,30 721,40 711,40 706,35 " style="fill:white; stroke-width:1; stroke:black; " description="&lt;b&gt;ctg1_2368&lt;/b&gt;&lt;br&gt;ctg1 2368&lt;br&gt;Location: 2501225 - 2501876" locus_tag="ctg1_2368" class="clusterblast-orf" id="dummy-11_q29_0_all"  />
<polygon points="721,35 726,30 733,30 733,40 726,40 721,35 " style="fill:white; stroke-width:1; stroke:black; " description="&lt;b&gt;ctg1_2369&lt;/b&gt;&lt;br&gt;ctg1 2369&lt;br&gt;Location: 2501886 - 2502381" locus_tag="ctg1_2369" class="clusterblast-orf" id="dummy-11_q30_0_all"  />
<polygon points="734,35 739,30 745,30 745,40 739,40 734,35 " style="fill:white; stroke-width:1; stroke:black; " description="&lt;b&gt;ctg1_2370&lt;/b&gt;&lt;br&gt;ctg1 2370&lt;br&gt;Location: 2502463 - 2502919" locus_tag="ctg1_2370" class="clusterblast-orf" id="dummy-11_q31_0_all"  />
<polygon points="752,40 775,40 780,35 775,30 752,30 752,40 " style="fill:white; stroke-width:1; stroke:black; " description="&lt;b&gt;ctg1_2371&lt;/b&gt;&lt;br&gt;ctg1 2371&lt;br&gt;Location: 2503256 - 2504459" locus_tag="ctg1_2371" class="clusterblast-orf" id="dummy-11_q32_0_all"  />
</g>
<g label="MGC00000048" description="MGC00000048_c1: NADH dehydrogenase I E. coli (100% of genes show similarity), NADHD" class="clusterblast-cluster"  >
<text x="5" y="70" class="clusterblast-acc"  >
MGC00000048_c1: NADH dehydrogenase I E. coli (100% of genes show similarity), NADHD</text>
<line x1="10" y1="85" x2="778.0" y2="85" style="stroke-width:1; stroke:grey; "  />
</g>
<g id="a11_000"  >
<polygon points="219,85 224,80 252,80 252,90 224,90 219,85 " style="fill:#d81515; stroke-width:1; stroke:black; " description="&lt;b&gt;b2276&lt;/b&gt;&lt;br&gt;NADH:quinone oxidoreductase subunit N&lt;br&gt;Location: 10000 - 11458&lt;br&gt;&lt;br&gt;&lt;b&gt;BlastP hit with ctg1_2350&lt;/b&gt;&lt;br&gt;Percentage identity: 100&lt;br&gt;Percentage coverage: 100&lt;br&gt;BLAST bit score: 914&lt;br&gt;E-value: 0.0" locus_tag="b2276" class="clusterblast-orf" id="dummy-11_h11_1_0"  />
</g>
<g id="a11_001"  >
<polygon points="252,85 257,80 287,80 287,90 257,90 252,85 " style="fill:#33d815; stroke-width:1; stroke:black; " description="&lt;b&gt;b2277&lt;/b&gt;&lt;br&gt;NADH:quinone oxidoreductase subunit M&lt;br&gt;Location: 11464 - 12994&lt;br&gt;&lt;br&gt;&lt;b&gt;BlastP hit with ctg1_2351&lt;/b&gt;&lt;br&gt;Percentage identity: 100&lt;br&gt;Percentage coverage: 100&lt;br&gt;BLAST bit score: 997&lt;br&gt;E-value: 0.0" locus_tag="b2277" class="clusterblast-orf" id="dummy-11_h11_1_1"  />
</g>
<g id="a11_002"  >
<polygon points="291,85 296,80 332,80 332,90 296,90 291,85 " style="fill:#15abd8; stroke-width:1; stroke:black; " description="&lt;b&gt;b2278&lt;/b&gt;&lt;br&gt;NADH:quinone oxidoreductase subunit L&lt;br&gt;Location: 13157 - 14999&lt;br&gt;&lt;br&gt;&lt;b&gt;BlastP hit with ctg1_2352&lt;/b&gt;&lt;br&gt;Percentage identity: 100&lt;br&gt;Percentage coverage: 100&lt;br&gt;BLAST bit score: 1188&lt;br&gt;E-value: 0.0" locus_tag="b2278" class="clusterblast-orf" id="dummy-11_h11_1_2"  />
</g>
<g id="a11_003"  >
<polygon points="332,85 337,80 339,80 339,90 337,90 332,85 " style="fill:#8d15d8; stroke-width:1; stroke:black; " description="&lt;b&gt;b2279&lt;/b&gt;&lt;br&gt;NADH:quinone oxidoreductase subunit K&lt;br&gt;Location: 14995 - 15298&lt;br&gt;&lt;br&gt;&lt;b&gt;BlastP hit with ctg1_2353&lt;/b&gt;&lt;br&gt;Percentage identity: 100&lt;br&gt;Percentage coverage: 100&lt;br&gt;BLAST bit score: 179&lt;br&gt;E-value: 2.44e-62" locus_tag="b2279" class="clusterblast-orf" id="dummy-11_h11_1_3"  />
</g>
<g id="a11_004"  >
<polygon points="339,85 344,80 352,80 352,90 344,90 339,85 " style="fill:#d86f15; stroke-width:1; stroke:black; " description="&lt;b&gt;b2280&lt;/b&gt;&lt;br&gt;NADH:quinone oxidoreductase subunit J&lt;br&gt;Location: 15294 - 15849&lt;br&gt;&lt;br&gt;&lt;b&gt;BlastP hit with ctg1_2354&lt;/b&gt;&lt;br&gt;Percentage identity: 100&lt;br&gt;Percentage coverage: 100&lt;br&gt;BLAST bit score: 335&lt;br&gt;E-value: 3.11e-121" locus_tag="b2280" class="clusterblast-orf" id="dummy-11_h11_1_4"  />
</g>
<g id="a11_005"  >
<polygon points="352,85 357,80 364,80 364,90 357,90 352,85 " style="fill:#15d851; stroke-width:1; stroke:black; " description="&lt;b&gt;b2281&lt;/b&gt;&lt;br&gt;NADH:quinone oxidoreductase subunit I&lt;br&gt;Location: 15860 - 16403&lt;br&gt;&lt;br&gt;&lt;b&gt;BlastP hit with ctg1_2355&lt;/b&gt;&lt;br&gt;Percentage identity: 100&lt;br&gt;Percentage coverage: 100&lt;br&gt;BLAST bit score: 343&lt;br&gt;E-value: 1.02e-124" locus_tag="b2281" class="clusterblast-orf" id="dummy-11_h11_1_5"  />
</g>
<g id="a11_006"  >
<polygon points="365,85 370,80 387,80 387,90 370,90 365,85 " style="fill:#1551d8; stroke-width:1; stroke:black; " description="&lt;b&gt;b2282&lt;/b&gt;&lt;br&gt;NADH:quinone oxidoreductase subunit H&lt;br&gt;Location: 16417 - 17395&lt;br&gt;&lt;br&gt;&lt;b&gt;BlastP hit with ctg1_2356&lt;/b&gt;&lt;br&gt;Percentage identity: 100&lt;br&gt;Percentage coverage: 100&lt;br&gt;BLAST bit score: 638&lt;br&gt;E-value: 1.7e-236" locus_tag="b2282" class="clusterblast-orf" id="dummy-11_h11_1_6"  />
</g>
<g id="a11_007"  >
<polygon points="387,85 392,80 449,80 449,90 392,90 387,85 " style="fill:#d815c9; stroke-width:1; stroke:black; " description="&lt;b&gt;b2283&lt;/b&gt;&lt;br&gt;NADH:quinone oxidoreductase subunit G&lt;br&gt;Location: 17391 - 20118&lt;br&gt;&lt;br&gt;&lt;b&gt;BlastP hit with ctg1_2357&lt;/b&gt;&lt;br&gt;Percentage identity: 100&lt;br&gt;Percentage coverage: 100&lt;br&gt;BLAST bit score: 1840&lt;br&gt;E-value: 0.0" locus_tag="b2283" class="clusterblast-orf" id="dummy-11_h11_1_7"  />
</g>
<g id="a11_008"  >
<polygon points="450,85 455,80 480,80 480,90 455,90 450,85 " style="fill:#d8c915; stroke-width:1; stroke:black; " description="&lt;b&gt;b2284&lt;/b&gt;&lt;br&gt;NADH:quinone oxidoreductase subunit F&lt;br&gt;Location: 20170 - 21508&lt;br&gt;&lt;br&gt;&lt;b&gt;BlastP hit with ctg1_2358&lt;/b&gt;&lt;br&gt;Percentage identity: 100&lt;br&gt;Percentage coverage: 100&lt;br&gt;BLAST bit score: 924&lt;br&gt;E-value: 0.0" locus_tag="b2284" class="clusterblast-orf" id="dummy-11_h11_1_8"  />
</g>
<g id="a11_009"  >
<polygon points="480,85 485,80 491,80 491,90 485,90 480,85 " style="fill:#15d8ab; stroke-width:1; stroke:black; " description="&lt;b&gt;b2285&lt;/b&gt;&lt;br&gt;NADH:quinone oxidoreductase subunit E&lt;br&gt;Location: 21504 - 22005&lt;br&gt;&lt;br&gt;&lt;b&gt;BlastP hit with ctg1_2359&lt;/b&gt;&lt;br&gt;Percentage identity: 100&lt;br&gt;Percentage coverage: 100&lt;br&gt;BLAST bit score: 343&lt;br&gt;E-value: 4.99e-125" locus_tag="b2285" class="clusterblast-orf" id="dummy-11_h11_1_9"  />
</g>
<g id="a11_0010"  >
<polygon points="491,85 496,80 532,80 532,90 496,90 491,85 " style="fill:#3315d8; stroke-width:1; stroke:black; " description="&lt;b&gt;b2286&lt;/b&gt;&lt;br&gt;NADH:quinone oxidoreductase subunit CD&lt;br&gt;Location: 22007 - 23798&lt;br&gt;&lt;br&gt;&lt;b&gt;BlastP hit with ctg1_2360&lt;/b&gt;&lt;br&gt;Percentage identity: 100&lt;br&gt;Percentage coverage: 99&lt;br&gt;BLAST bit score: 1222&lt;br&gt;E-value: 0.0" locus_tag="b2286" class="clusterblast-orf" id="dummy-11_h11_1_10"  />
</g>
<g id="a11_0011"  >
<polygon points="535,85 540,80 550,80 550,90 540,90 535,85 " style="fill:#d8156f; stroke-width:1; stroke:black; " description="&lt;b&gt;b2287&lt;/b&gt;&lt;br&gt;NADH:quinone oxidoreductase subunit B&lt;br&gt;Location: 23903 - 24566&lt;br&gt;&lt;br&gt;&lt;b&gt;BlastP hit with ctg1_2361&lt;/b&gt;&lt;br&gt;Percentage identity: 100&lt;br&gt;Percentage coverage: 100&lt;br&gt;BLAST bit score: 452&lt;br&gt;E-value: 2.17e-166" locus_tag="b2287" class="clusterblast-orf" id="dummy-11_h11_1_11"  />
</g>
<g id="a11_0012"  >
<polygon points="550,85 555,80 560,80 560,90 555,90 550,85 " style="fill:#8dd815; stroke-width:1; stroke:black; " description="&lt;b&gt;b2288&lt;/b&gt;&lt;br&gt;NADH:quinone oxidoreductase subunit A&lt;br&gt;Location: 24581 - 25025&lt;br&gt;&lt;br&gt;&lt;b&gt;BlastP hit with ctg1_2362&lt;/b&gt;&lt;br&gt;Percentage identity: 100&lt;br&gt;Percentage coverage: 100&lt;br&gt;BLAST bit score: 286&lt;br&gt;E-value: 3.12e-103" locus_tag="b2288" class="clusterblast-orf" id="dummy-11_h11_1_12"  />
</g>
</svg>
