<svg xmlns="http://www.w3.org/2000/svg" xmlns:xlink="http://www.w3.org/1999/xlink" version="1.1" x="0" y="0" height="230" width="800" viewBox="0 0 800 230" preserveAspectRatio="none"  >
<g label="Query sequence" class="clusterblast-cluster"  >
<text x="5" y="20" class="clusterblast-acc"  >
Query sequence</text>
<line x1="10" y1="35" x2="778.0" y2="35" style="stroke-width:1; stroke:grey; "  />
<polygon points="0,40 9,40 14,35 9,30 0,30 0,40 " style="fill:white; stroke-width:1; stroke:black; " description="&lt;b&gt;ctg1_25&lt;/b&gt;&lt;br&gt;ctg1 25&lt;br&gt;Location: 25206 - 25701" locus_tag="ctg1_25" class="clusterblast-orf" id="dummy-1_q0_0_all"  />
<polygon points="18,40 26,40 31,35 26,30 18,30 18,40 " style="fill:white; stroke-width:1; stroke:black; " description="&lt;b&gt;ctg1_26&lt;/b&gt;&lt;br&gt;ctg1 26&lt;br&gt;Location: 25825 - 26275" locus_tag="ctg1_26" class="clusterblast-orf" id="dummy-1_q1_0_all"  />
<polygon points="31,40 55,40 60,35 55,30 31,30 31,40 " style="fill:white; stroke-width:1; stroke:black; " description="&lt;b&gt;ctg1_27&lt;/b&gt;&lt;br&gt;ctg1 27&lt;br&gt;Location: 26276 - 27227" locus_tag="ctg1_27" class="clusterblast-orf" id="dummy-1_q2_0_all"  />
<polygon points="61,40 83,40 88,35 83,30 61,30 61,40 " style="fill:white; stroke-width:1; stroke:black; " description="&lt;b&gt;ctg1_28&lt;/b&gt;&lt;br&gt;ctg1 28&lt;br&gt;Location: 27292 - 28207" locus_tag="ctg1_28" class="clusterblast-orf" id="dummy-1_q3_0_all"  />
<polygon points="93,40 113,40 118,35 113,30 93,30 93,40 " style="fill:white; stroke-width:1; stroke:black; " description="&lt;b&gt;ctg1_29&lt;/b&gt;&lt;br&gt;ctg1 29&lt;br&gt;Location: 28373 - 29195" locus_tag="ctg1_29" class="clusterblast-orf" id="dummy-1_q4_0_all"  />
<polygon points="131,40 160,40 165,35 160,30 131,30 131,40 " style="fill:white; stroke-width:1; stroke:black; " description="&lt;b&gt;ctg1_30&lt;/b&gt;&lt;br&gt;ctg1 30&lt;br&gt;Location: 29650 - 30799" locus_tag="ctg1_30" class="clusterblast-orf" id="dummy-1_q5_0_all"  />
<polygon points="166,40 256,40 261,35 256,30 166,30 166,40 " style="fill:white; stroke-width:1; stroke:black; " description="&lt;b&gt;ctg1_31&lt;/b&gt;&lt;br&gt;ctg1 31&lt;br&gt;Location: 30816 - 34038" locus_tag="ctg1_31" class="clusterblast-orf" id="dummy-1_q6_0_all"  />
<polygon points="268,40 275,40 280,35 275,30 268,30 268,40 " style="fill:white; stroke-width:1; stroke:black; " description="&lt;b&gt;ctg1_32&lt;/b&gt;&lt;br&gt;ctg1 32&lt;br&gt;Location: 34299 - 34695" locus_tag="ctg1_32" class="clusterblast-orf" id="dummy-1_q7_0_all"  />
<polygon points="283,35 288,30 300,30 300,40 288,40 283,35 " style="fill:#d81515; stroke-width:1; stroke:black; " description="&lt;b&gt;ctg1_33&lt;/b&gt;&lt;br&gt;ctg1 33&lt;br&gt;Location: 34780 - 35371" locus_tag="ctg1_33" class="clusterblast-orf" id="dummy-1_q8_0_all"  />
<polygon points="300,35 305,30 323,30 323,40 305,40 300,35 " style="fill:#15d815; stroke-width:1; stroke:black; " description="&lt;b&gt;ctg1_34&lt;/b&gt;&lt;br&gt;ctg1 34&lt;br&gt;Location: 35376 - 36162" locus_tag="ctg1_34" class="clusterblast-orf" id="dummy-1_q9_0_all"  />
<polygon points="327,35 332,30 373,30 373,40 332,40 327,35 " style="fill:#1515d8; stroke-width:1; stroke:black; " description="&lt;b&gt;ctg1_35&lt;/b&gt;&lt;br&gt;ctg1 35&lt;br&gt;Location: 36270 - 37824" locus_tag="ctg1_35" class="clusterblast-orf" id="dummy-1_q10_0_all"  />
<polygon points="375,35 380,30 411,30 411,40 380,40 375,35 " style="fill:#d815d8; stroke-width:1; stroke:black; " description="&lt;b&gt;ctg1_36&lt;/b&gt;&lt;br&gt;ctg1 36&lt;br&gt;Location: 37897 - 39115" locus_tag="ctg1_36" class="clusterblast-orf" id="dummy-1_q11_0_all"  />
<polygon points="415,35 420,30 448,30 448,40 420,40 415,35 " style="fill:#d8d815; stroke-width:1; stroke:black; " description="&lt;b&gt;ctg1_37&lt;/b&gt;&lt;br&gt;ctg1 37&lt;br&gt;Location: 39243 - 40386" locus_tag="ctg1_37" class="clusterblast-orf" id="dummy-1_q12_0_all"  />
<polygon points="449,35 454,30 494,30 494,40 454,40 449,35 " style="fill:#15d8d8; stroke-width:1; stroke:black; " description="&lt;b&gt;ctg1_38&lt;/b&gt;&lt;br&gt;ctg1 38&lt;br&gt;Location: 40416 - 41931" locus_tag="ctg1_38" class="clusterblast-orf" id="dummy-1_q13_0_all"  />
<polygon points="508,40 526,40 531,35 526,30 508,30 508,40 " style="fill:white; stroke-width:1; stroke:black; " description="&lt;b&gt;ctg1_39&lt;/b&gt;&lt;br&gt;ctg1 39&lt;br&gt;Location: 42402 - 43173" locus_tag="ctg1_39" class="clusterblast-orf" id="dummy-1_q14_0_all"  />
<polygon points="531,40 554,40 559,35 554,30 531,30 531,40 " style="fill:white; stroke-width:1; stroke:black; " description="&lt;b&gt;ctg1_40&lt;/b&gt;&lt;br&gt;ctg1 40&lt;br&gt;Location: 43187 - 44129" locus_tag="ctg1_40" class="clusterblast-orf" id="dummy-1_q15_0_all"  />
<polygon points="560,40 593,40 598,35 593,30 560,30 560,40 " style="fill:white; stroke-width:1; stroke:black; " description="&lt;b&gt;ctg1_41&lt;/b&gt;&lt;br&gt;ctg1 41&lt;br&gt;Location: 44179 - 45466" locus_tag="ctg1_41" class="clusterblast-orf" id="dummy-1_q16_0_all"  />
<polygon points="598,40 602,40 607,35 602,30 598,30 598,40 " style="fill:white; stroke-width:1; stroke:black; " description="&lt;b&gt;ctg1_42&lt;/b&gt;&lt;br&gt;ctg1 42&lt;br&gt;Location: 45462 - 45750" locus_tag="ctg1_42" class="clusterblast-orf" id="dummy-1_q17_0_all"  />
<polygon points="608,40 643,40 648,35 643,30 608,30 608,40 " style="fill:white; stroke-width:1; stroke:black; " description="&lt;b&gt;ctg1_43&lt;/b&gt;&lt;br&gt;ctg1 43&lt;br&gt;Location: 45806 - 47138" locus_tag="ctg1_43" class="clusterblast-orf" id="dummy-1_q18_0_all"  />
<polygon points="651,40 662,40 667,35 662,30 651,30 651,40 " style="fill:white; stroke-width:1; stroke:black; " description="&lt;b&gt;ctg1_44&lt;/b&gt;&lt;br&gt;ctg1 44&lt;br&gt;Location: 47245 - 47776" locus_tag="ctg1_44" class="clusterblast-orf" id="dummy-1_q19_0_all"  />
<polygon points="666,40 716,40 721,35 716,30 666,30 666,40 " style="fill:white; stroke-width:1; stroke:black; " description="&lt;b&gt;ctg1_45&lt;/b&gt;&lt;br&gt;ctg1 45&lt;br&gt;Location: 47768 - 49631" locus_tag="ctg1_45" class="clusterblast-orf" id="dummy-1_q20_0_all"  />
<polygon points="724,40 736,40 741,35 736,30 724,30 724,40 " style="fill:white; stroke-width:1; stroke:black; " description="&lt;b&gt;ctg1_46&lt;/b&gt;&lt;br&gt;ctg1 46&lt;br&gt;Location: 49711 - 50302" locus_tag="ctg1_46" class="clusterblast-orf" id="dummy-1_q21_0_all"  />
<polygon points="744,35 749,30 768,30 768,40 749,40 744,35 " style="fill:white; stroke-width:1; stroke:black; " description="&lt;b&gt;ctg1_47&lt;/b&gt;&lt;br&gt;ctg1 47&lt;br&gt;Location: 50379 - 51222" locus_tag="ctg1_47" class="clusterblast-orf" id="dummy-1_q22_0_all"  />
<polygon points="769,35 774,30 780,30 780,40 774,40 769,35 " style="fill:white; stroke-width:1; stroke:black; " description="&lt;b&gt;ctg1_48&lt;/b&gt;&lt;br&gt;ctg1 48&lt;br&gt;Location: 51228 - 51606" locus_tag="ctg1_48" class="clusterblast-orf" id="dummy-1_q23_0_all"  />
</g>
<g label="MGC00000018" description="MGC00000018_c1: Carnitine caiTABCDE E. coli (100% of genes show similarity), CAR" class="clusterblast-cluster"  >
<text x="5" y="70" class="clusterblast-acc"  >
MGC00000018_c1: Carnitine caiTABCDE E. coli (100% of genes show similarity), CAR</text>
<line x1="10" y1="85" x2="778.0" y2="85" style="stroke-width:1; stroke:grey; "  />
</g>
<g id="a1_000"  >
<polygon points="284,85 289,80 301,80 301,90 289,90 284,85 " style="fill:#d81515; stroke-width:1; stroke:black; " description="&lt;b&gt;C_RS00205&lt;/b&gt;&lt;br&gt;carnitine operon protein CaiE&lt;br&gt;Location: 10000 - 10591&lt;br&gt;&lt;br&gt;&lt;b&gt;BlastP hit with ctg1_33&lt;/b&gt;&lt;br&gt;Percentage identity: 95&lt;br&gt;Percentage coverage: 100&lt;br&gt;BLAST bit score: 376&lt;br&gt;E-value: 2.65e-137" locus_tag="C_RS00205" class="clusterblast-orf" id="dummy-1_h1_1_0"  />
</g>
<g id="a1_001"  >
<polygon points="301,85 306,80 325,80 325,90 306,90 301,85 " style="fill:#15d815; stroke-width:1; stroke:black; " description="&lt;b&gt;C_RS00210&lt;/b&gt;&lt;br&gt;carnitinyl-CoA dehydratase&lt;br&gt;Location: 10596 - 11382&lt;br&gt;&lt;br&gt;&lt;b&gt;BlastP hit with ctg1_34&lt;/b&gt;&lt;br&gt;Percentage identity: 100&lt;br&gt;Percentage coverage: 100&lt;br&gt;BLAST bit score: 515&lt;br&gt;E-value: 5.07e-190" locus_tag="C_RS00210" class="clusterblast-orf" id="dummy-1_h1_1_1"  />
</g>
<g id="a1_002"  >
<polygon points="328,85 333,80 374,80 374,90 333,90 328,85 " style="fill:#1515d8; stroke-width:1; stroke:black; " description="&lt;b&gt;C_RS00215&lt;/b&gt;&lt;br&gt;ATP-dependent acyl-CoA ligase&lt;br&gt;Location: 11490 - 13044&lt;br&gt;&lt;br&gt;&lt;b&gt;BlastP hit with ctg1_35&lt;/b&gt;&lt;br&gt;Percentage identity: 97&lt;br&gt;Percentage coverage: 100&lt;br&gt;BLAST bit score: 1027&lt;br&gt;E-value: 0.0" locus_tag="C_RS00215" class="clusterblast-orf" id="dummy-1_h1_1_2"  />
</g>
<g id="a1_003"  >
<polygon points="376,85 381,80 412,80 412,90 381,90 376,85 " style="fill:#d815d8; stroke-width:1; stroke:black; " description="&lt;b&gt;C_RS00220&lt;/b&gt;&lt;br&gt;L-carnitine CoA-transferase&lt;br&gt;Location: 13116 - 14334&lt;br&gt;&lt;br&gt;&lt;b&gt;BlastP hit with ctg1_36&lt;/b&gt;&lt;br&gt;Percentage identity: 99&lt;br&gt;Percentage coverage: 100&lt;br&gt;BLAST bit score: 834&lt;br&gt;E-value: 1.59e-311" locus_tag="C_RS00220" class="clusterblast-orf" id="dummy-1_h1_1_3"  />
</g>
<g id="a1_004"  >
<polygon points="416,85 421,80 449,80 449,90 421,90 416,85 " style="fill:#d8d815; stroke-width:1; stroke:black; " description="&lt;b&gt;C_RS00225&lt;/b&gt;&lt;br&gt;crotonobetainyl-CoA dehydrogenase&lt;br&gt;Location: 14461 - 15604&lt;br&gt;&lt;br&gt;&lt;b&gt;BlastP hit with ctg1_37&lt;/b&gt;&lt;br&gt;Percentage identity: 100&lt;br&gt;Percentage coverage: 100&lt;br&gt;BLAST bit score: 769&lt;br&gt;E-value: 9.15e-287" locus_tag="C_RS00225" class="clusterblast-orf" id="dummy-1_h1_1_4"  />
</g>
<g id="a1_005"  >
<polygon points="450,85 455,80 495,80 495,90 455,90 450,85 " style="fill:#15d8d8; stroke-width:1; stroke:black; " description="&lt;b&gt;C_RS00230&lt;/b&gt;&lt;br&gt;L-carnitine/gamma-butyrobetaine antiporter&lt;br&gt;Location: 15634 - 17149&lt;br&gt;&lt;br&gt;&lt;b&gt;BlastP hit with ctg1_38&lt;/b&gt;&lt;br&gt;Percentage identity: 100&lt;br&gt;Percentage coverage: 100&lt;br&gt;BLAST bit score: 1018&lt;br&gt;E-value: 0.0" locus_tag="C_RS00230" class="clusterblast-orf" id="dummy-1_h1_1_5"  />
</g>
</svg>
