<svg xmlns="http://www.w3.org/2000/svg" xmlns:xlink="http://www.w3.org/1999/xlink" version="1.1" x="0" y="0" height="100" width="800" viewBox="0 0 800 100" preserveAspectRatio="none"  >
<g label="Query sequence" class="clusterblast-cluster"  >
<text x="5" y="20" class="clusterblast-acc"  >
Query sequence</text>
<line x1="10" y1="35" x2="778.0" y2="35" style="stroke-width:1; stroke:grey; "  />
<polygon points="0,35 3,30 3,40 0,35 " style="fill:#d81515; stroke-width:1; stroke:black; " description="&lt;b&gt;ctg1_1230&lt;/b&gt;&lt;br&gt;ctg1 1230&lt;br&gt;Location: 1309701 - 1309809" locus_tag="ctg1_1230" class="clusterblast-orf" id="knownclusterblast-5_q0_0_all"  />
<polygon points="16,35 21,30 50,30 50,40 21,40 16,35 " style="fill:white; stroke-width:1; stroke:black; " description="&lt;b&gt;ctg1_1231&lt;/b&gt;&lt;br&gt;ctg1 1231&lt;br&gt;Location: 1310212 - 1311313" locus_tag="ctg1_1231" class="clusterblast-orf" id="knownclusterblast-5_q1_0_all"  />
<polygon points="58,40 60,40 65,35 60,30 58,30 58,40 " style="fill:white; stroke-width:1; stroke:black; " description="&lt;b&gt;ctg1_1232&lt;/b&gt;&lt;br&gt;ctg1 1232&lt;br&gt;Location: 1311582 - 1311813" locus_tag="ctg1_1232" class="clusterblast-orf" id="knownclusterblast-5_q2_0_all"  />
<polygon points="70,40 87,40 92,35 87,30 70,30 70,40 " style="fill:white; stroke-width:1; stroke:black; " description="&lt;b&gt;ctg1_1233&lt;/b&gt;&lt;br&gt;ctg1 1233&lt;br&gt;Location: 1311949 - 1312666" locus_tag="ctg1_1233" class="clusterblast-orf" id="knownclusterblast-5_q3_0_all"  />
<polygon points="93,35 98,30 104,30 104,40 98,40 93,35 " style="fill:white; stroke-width:1; stroke:black; " description="&lt;b&gt;ctg1_1234&lt;/b&gt;&lt;br&gt;ctg1 1234&lt;br&gt;Location: 1312709 - 1313063" locus_tag="ctg1_1234" class="clusterblast-orf" id="knownclusterblast-5_q4_0_all"  />
<polygon points="110,40 148,40 153,35 148,30 110,30 110,40 " style="fill:white; stroke-width:1; stroke:black; " description="&lt;b&gt;ctg1_1235&lt;/b&gt;&lt;br&gt;ctg1 1235&lt;br&gt;Location: 1313247 - 1314642" locus_tag="ctg1_1235" class="clusterblast-orf" id="knownclusterblast-5_q5_0_all"  />
<polygon points="153,35 158,30 174,30 174,40 158,40 153,35 " style="fill:white; stroke-width:1; stroke:black; " description="&lt;b&gt;ctg1_1236&lt;/b&gt;&lt;br&gt;ctg1 1236&lt;br&gt;Location: 1314642 - 1315293" locus_tag="ctg1_1236" class="clusterblast-orf" id="knownclusterblast-5_q6_0_all"  />
<polygon points="173,35 178,30 229,30 229,40 178,40 173,35 " style="fill:white; stroke-width:1; stroke:black; " description="&lt;b&gt;ctg1_1237&lt;/b&gt;&lt;br&gt;ctg1 1237&lt;br&gt;Location: 1315285 - 1317082" locus_tag="ctg1_1237" class="clusterblast-orf" id="knownclusterblast-5_q7_0_all"  />
<polygon points="230,40 232,40 237,35 232,30 230,30 230,40 " style="fill:white; stroke-width:1; stroke:black; " description="&lt;b&gt;ctg1_1238&lt;/b&gt;&lt;br&gt;ctg1 1238&lt;br&gt;Location: 1317107 - 1317326" locus_tag="ctg1_1238" class="clusterblast-orf" id="knownclusterblast-5_q8_0_all"  />
<polygon points="240,40 278,40 283,35 278,30 240,30 240,40 " style="fill:white; stroke-width:1; stroke:black; " description="&lt;b&gt;ctg1_1239&lt;/b&gt;&lt;br&gt;ctg1 1239&lt;br&gt;Location: 1317420 - 1318812" locus_tag="ctg1_1239" class="clusterblast-orf" id="knownclusterblast-5_q9_0_all"  />
<polygon points="299,40 411,40 416,35 411,30 299,30 299,40 " style="fill:#15d863; stroke-width:1; stroke:black; " description="&lt;b&gt;ctg1_1240&lt;/b&gt;&lt;br&gt;ctg1 1240&lt;br&gt;Location: 1319327 - 1323071" locus_tag="ctg1_1240" class="clusterblast-orf" id="knownclusterblast-5_q10_0_all"  />
<polygon points="415,40 458,40 463,35 458,30 415,30 415,40 " style="fill:#1563d8; stroke-width:1; stroke:black; " description="&lt;b&gt;ctg1_1241&lt;/b&gt;&lt;br&gt;ctg1 1241&lt;br&gt;Location: 1323067 - 1324606" locus_tag="ctg1_1241" class="clusterblast-orf" id="knownclusterblast-5_q11_0_all"  />
<polygon points="463,40 480,40 485,35 480,30 463,30 463,40 " style="fill:#b115d8; stroke-width:1; stroke:black; " description="&lt;b&gt;ctg1_1242&lt;/b&gt;&lt;br&gt;ctg1 1242&lt;br&gt;Location: 1324602 - 1325313" locus_tag="ctg1_1242" class="clusterblast-orf" id="knownclusterblast-5_q12_0_all"  />
<polygon points="485,40 501,40 506,35 501,30 485,30 485,40 " style="fill:#b1d815; stroke-width:1; stroke:black; " description="&lt;b&gt;ctg1_1243&lt;/b&gt;&lt;br&gt;ctg1 1243&lt;br&gt;Location: 1325312 - 1325990" locus_tag="ctg1_1243" class="clusterblast-orf" id="knownclusterblast-5_q13_0_all"  />
<polygon points="523,40 536,40 541,35 536,30 523,30 523,40 " style="fill:white; stroke-width:1; stroke:black; " description="&lt;b&gt;ctg1_1244&lt;/b&gt;&lt;br&gt;ctg1 1244&lt;br&gt;Location: 1326528 - 1327095" locus_tag="ctg1_1244" class="clusterblast-orf" id="knownclusterblast-5_q14_0_all"  />
<polygon points="545,35 550,30 572,30 572,40 550,40 545,35 " style="fill:white; stroke-width:1; stroke:black; " description="&lt;b&gt;ctg1_1245&lt;/b&gt;&lt;br&gt;ctg1 1245&lt;br&gt;Location: 1327245 - 1328088" locus_tag="ctg1_1245" class="clusterblast-orf" id="knownclusterblast-5_q15_0_all"  />
<polygon points="573,35 578,30 587,30 587,40 578,40 573,35 " style="fill:white; stroke-width:1; stroke:black; " description="&lt;b&gt;ctg1_1246&lt;/b&gt;&lt;br&gt;ctg1 1246&lt;br&gt;Location: 1328137 - 1328596" locus_tag="ctg1_1246" class="clusterblast-orf" id="knownclusterblast-5_q16_0_all"  />
<polygon points="590,40 614,40 619,35 614,30 590,30 590,40 " style="fill:white; stroke-width:1; stroke:black; " description="&lt;b&gt;ctg1_1247&lt;/b&gt;&lt;br&gt;ctg1 1247&lt;br&gt;Location: 1328669 - 1329614" locus_tag="ctg1_1247" class="clusterblast-orf" id="knownclusterblast-5_q17_0_all"  />
<polygon points="622,40 648,40 653,35 648,30 622,30 622,40 " style="fill:white; stroke-width:1; stroke:black; " description="&lt;b&gt;ctg1_1248&lt;/b&gt;&lt;br&gt;ctg1 1248&lt;br&gt;Location: 1329705 - 1330719" locus_tag="ctg1_1248" class="clusterblast-orf" id="knownclusterblast-5_q18_0_all"  />
<polygon points="660,40 683,40 688,35 683,30 660,30 660,40 " style="fill:white; stroke-width:1; stroke:black; " description="&lt;b&gt;ctg1_1249&lt;/b&gt;&lt;br&gt;ctg1 1249&lt;br&gt;Location: 1330920 - 1331829" locus_tag="ctg1_1249" class="clusterblast-orf" id="knownclusterblast-5_q19_0_all"  />
<polygon points="692,35 697,30 705,30 705,40 697,40 692,35 " style="fill:white; stroke-width:1; stroke:black; " description="&lt;b&gt;ctg1_1250&lt;/b&gt;&lt;br&gt;ctg1 1250&lt;br&gt;Location: 1331972 - 1332386" locus_tag="ctg1_1250" class="clusterblast-orf" id="knownclusterblast-5_q20_0_all"  />
<polygon points="724,40 738,40 743,35 738,30 724,30 724,40 " style="fill:white; stroke-width:1; stroke:black; " description="&lt;b&gt;ctg1_1251&lt;/b&gt;&lt;br&gt;ctg1 1251&lt;br&gt;Location: 1332990 - 1333608" locus_tag="ctg1_1251" class="clusterblast-orf" id="knownclusterblast-5_q21_0_all"  />
<polygon points="752,35 757,30 770,30 770,40 757,40 752,35 " style="fill:white; stroke-width:1; stroke:black; " description="&lt;b&gt;ctg1_1252&lt;/b&gt;&lt;br&gt;ctg1 1252&lt;br&gt;Location: 1333889 - 1334480" locus_tag="ctg1_1252" class="clusterblast-orf" id="knownclusterblast-5_q22_0_all"  />
<polygon points="774,35 779,30 780,30 780,40 779,40 774,35 " style="fill:white; stroke-width:1; stroke:black; " description="&lt;b&gt;ctg1_1253&lt;/b&gt;&lt;br&gt;ctg1 1253&lt;br&gt;Location: 1334600 - 1334786" locus_tag="ctg1_1253" class="clusterblast-orf" id="knownclusterblast-5_q23_0_all"  />
</g>
<g label="MGC00000045" description="MGC00000045_c1: Nitrate reductase E. coli (100% of genes show similarity), NIR" class="clusterblast-cluster"  >
<text x="5" y="70" class="clusterblast-acc"  >
MGC00000045_c1: Nitrate reductase E. coli (100% of genes show similarity), NIR</text>
<line x1="10" y1="85" x2="778.0" y2="85" style="stroke-width:1; stroke:grey; "  />
</g>
<g id="a5_000"  >
<polygon points="136,85 140,80 140,90 136,85 " style="fill:#d81515; stroke-width:1; stroke:black; " description="&lt;b&gt;b4423&lt;/b&gt;&lt;br&gt;small toxic polypeptide LdrC&lt;br&gt;Location: 0 - 108&lt;br&gt;&lt;br&gt;&lt;b&gt;BlastP hit with ctg1_1230&lt;/b&gt;&lt;br&gt;Percentage identity: 100&lt;br&gt;Percentage coverage: 100&lt;br&gt;BLAST bit score: 77&lt;br&gt;E-value: 1.12e-23" locus_tag="b4423" class="clusterblast-orf" id="knownclusterblast-5_all_5_1_0"  />
</g>
<g id="a5_001"  >
<polygon points="436,90 547,90 552,85 547,80 436,80 436,90 " style="fill:#15d863; stroke-width:1; stroke:black; " description="&lt;b&gt;b1224&lt;/b&gt;&lt;br&gt;nitrate reductase A subunit alpha&lt;br&gt;Location: 9626 - 13370&lt;br&gt;&lt;br&gt;&lt;b&gt;BlastP hit with ctg1_1240&lt;/b&gt;&lt;br&gt;Percentage identity: 100&lt;br&gt;Percentage coverage: 100&lt;br&gt;BLAST bit score: 2603&lt;br&gt;E-value: 0.0" locus_tag="b1224" class="clusterblast-orf" id="knownclusterblast-5_all_5_1_1"  />
</g>
<g id="a5_002"  >
<polygon points="552,90 595,90 600,85 595,80 552,80 552,90 " style="fill:#1563d8; stroke-width:1; stroke:black; " description="&lt;b&gt;b1225&lt;/b&gt;&lt;br&gt;nitrate reductase A subunit beta&lt;br&gt;Location: 13366 - 14905&lt;br&gt;&lt;br&gt;&lt;b&gt;BlastP hit with ctg1_1241&lt;/b&gt;&lt;br&gt;Percentage identity: 100&lt;br&gt;Percentage coverage: 100&lt;br&gt;BLAST bit score: 1067&lt;br&gt;E-value: 0.0" locus_tag="b1225" class="clusterblast-orf" id="knownclusterblast-5_all_5_1_2"  />
</g>
<g id="a5_003"  >
<polygon points="600,90 617,90 622,85 617,80 600,80 600,90 " style="fill:#b115d8; stroke-width:1; stroke:black; " description="&lt;b&gt;b1226&lt;/b&gt;&lt;br&gt;nitrate reductase 1 molybdenum cofactor assembly chaperone&lt;br&gt;Location: 14901 - 15612&lt;br&gt;&lt;br&gt;&lt;b&gt;BlastP hit with ctg1_1242&lt;/b&gt;&lt;br&gt;Percentage identity: 100&lt;br&gt;Percentage coverage: 100&lt;br&gt;BLAST bit score: 460&lt;br&gt;E-value: 4.67e-169" locus_tag="b1226" class="clusterblast-orf" id="knownclusterblast-5_all_5_1_3"  />
</g>
<g id="a5_004"  >
<polygon points="622,90 638,90 643,85 638,80 622,80 622,90 " style="fill:#b1d815; stroke-width:1; stroke:black; " description="&lt;b&gt;b1227&lt;/b&gt;&lt;br&gt;nitrate reductase A subunit gamma&lt;br&gt;Location: 15611 - 16289&lt;br&gt;&lt;br&gt;&lt;b&gt;BlastP hit with ctg1_1243&lt;/b&gt;&lt;br&gt;Percentage identity: 100&lt;br&gt;Percentage coverage: 100&lt;br&gt;BLAST bit score: 449&lt;br&gt;E-value: 2.62e-165" locus_tag="b1227" class="clusterblast-orf" id="knownclusterblast-5_all_5_1_4"  />
</g>
</svg>
