<svg xmlns="http://www.w3.org/2000/svg" xmlns:xlink="http://www.w3.org/1999/xlink" version="1.1" x="0" y="0" height="50" width="800" viewBox="0 0 800 50" preserveAspectRatio="none"  >
<g label="Query sequence" class="clusterblast-cluster"  >
<text x="5" y="20" class="clusterblast-acc"  >
Query sequence</text>
<line x1="10" y1="35" x2="778.0" y2="35" style="stroke-width:1; stroke:grey; "  />
<polygon points="0,35 5,30 35,30 35,40 5,40 0,35 " style="fill:white; stroke-width:1; stroke:black; " description="&lt;b&gt;ctg1_2861&lt;/b&gt;&lt;br&gt;ctg1 2861&lt;br&gt;Location: 3079426 - 3080371" locus_tag="ctg1_2861" class="clusterblast-orf" id="knownclusterblast-7_q0_0_all"  />
<polygon points="38,35 43,30 69,30 69,40 43,40 38,35 " style="fill:white; stroke-width:1; stroke:black; " description="&lt;b&gt;ctg1_2862&lt;/b&gt;&lt;br&gt;ctg1 2862&lt;br&gt;Location: 3080455 - 3081298" locus_tag="ctg1_2862" class="clusterblast-orf" id="knownclusterblast-7_q1_0_all"  />
<polygon points="71,35 76,30 130,30 130,40 76,40 71,35 " style="fill:white; stroke-width:1; stroke:black; " description="&lt;b&gt;ctg1_2863&lt;/b&gt;&lt;br&gt;ctg1 2863&lt;br&gt;Location: 3081367 - 3082960" locus_tag="ctg1_2863" class="clusterblast-orf" id="knownclusterblast-7_q2_0_all"  />
<polygon points="138,35 143,30 169,30 169,40 143,40 138,35 " style="fill:white; stroke-width:1; stroke:black; " description="&lt;b&gt;ctg1_2864&lt;/b&gt;&lt;br&gt;ctg1 2864&lt;br&gt;Location: 3083164 - 3084028" locus_tag="ctg1_2864" class="clusterblast-orf" id="knownclusterblast-7_q3_0_all"  />
<polygon points="181,40 198,40 203,35 198,30 181,30 181,40 " style="fill:white; stroke-width:1; stroke:black; " description="&lt;b&gt;ctg1_2865&lt;/b&gt;&lt;br&gt;ctg1 2865&lt;br&gt;Location: 3084343 - 3084931" locus_tag="ctg1_2865" class="clusterblast-orf" id="knownclusterblast-7_q4_0_all"  />
<polygon points="211,35 216,30 231,30 231,40 216,40 211,35 " style="fill:white; stroke-width:1; stroke:black; " description="&lt;b&gt;ctg1_2866&lt;/b&gt;&lt;br&gt;ctg1 2866&lt;br&gt;Location: 3085147 - 3085711" locus_tag="ctg1_2866" class="clusterblast-orf" id="knownclusterblast-7_q5_0_all"  />
<polygon points="254,35 259,30 329,30 329,40 259,40 254,35 " style="fill:white; stroke-width:1; stroke:black; " description="&lt;b&gt;ctg1_2867&lt;/b&gt;&lt;br&gt;ctg1 2867&lt;br&gt;Location: 3086317 - 3088372" locus_tag="ctg1_2867" class="clusterblast-orf" id="knownclusterblast-7_q6_0_all"  />
<polygon points="341,35 346,30 379,30 379,40 346,40 341,35 " style="fill:white; stroke-width:1; stroke:black; " description="&lt;b&gt;ctg1_2868&lt;/b&gt;&lt;br&gt;ctg1 2868&lt;br&gt;Location: 3088702 - 3089719" locus_tag="ctg1_2868" class="clusterblast-orf" id="knownclusterblast-7_q7_0_all"  />
<polygon points="380,35 385,30 398,30 398,40 385,40 380,35 " style="fill:white; stroke-width:1; stroke:black; " description="&lt;b&gt;ctg1_2869&lt;/b&gt;&lt;br&gt;ctg1 2869&lt;br&gt;Location: 3089751 - 3090243" locus_tag="ctg1_2869" class="clusterblast-orf" id="knownclusterblast-7_q8_0_all"  />
<polygon points="398,35 403,30 462,30 462,40 403,40 398,35 " style="fill:white; stroke-width:1; stroke:black; " description="&lt;b&gt;ctg1_2870&lt;/b&gt;&lt;br&gt;ctg1 2870&lt;br&gt;Location: 3090242 - 3091967" locus_tag="ctg1_2870" class="clusterblast-orf" id="knownclusterblast-7_q9_0_all"  />
<polygon points="480,40 488,40 493,35 488,30 480,30 480,40 " style="fill:white; stroke-width:1; stroke:black; " description="&lt;b&gt;ctg1_2871&lt;/b&gt;&lt;br&gt;ctg1 2871&lt;br&gt;Location: 3092471 - 3092807" locus_tag="ctg1_2871" class="clusterblast-orf" id="knownclusterblast-7_q10_0_all"  />
<polygon points="499,40 591,40 596,35 591,30 499,30 499,40 " style="fill:white; stroke-width:1; stroke:black; " description="&lt;b&gt;ctg1_2872&lt;/b&gt;&lt;br&gt;ctg1 2872&lt;br&gt;Location: 3092993 - 3095618" locus_tag="ctg1_2872" class="clusterblast-orf" id="knownclusterblast-7_q11_0_all"  />
<polygon points="597,40 611,40 616,35 611,30 597,30 597,40 " style="fill:white; stroke-width:1; stroke:black; " description="&lt;b&gt;ctg1_2873&lt;/b&gt;&lt;br&gt;ctg1 2873&lt;br&gt;Location: 3095645 - 3096155" locus_tag="ctg1_2873" class="clusterblast-orf" id="knownclusterblast-7_q12_0_all"  />
<polygon points="617,40 648,40 653,35 648,30 617,30 617,40 " style="fill:white; stroke-width:1; stroke:black; " description="&lt;b&gt;ctg1_2874&lt;/b&gt;&lt;br&gt;ctg1 2874&lt;br&gt;Location: 3096174 - 3097164" locus_tag="ctg1_2874" class="clusterblast-orf" id="knownclusterblast-7_q13_0_all"  />
<polygon points="657,40 701,40 706,35 701,30 657,30 657,40 " style="fill:white; stroke-width:1; stroke:black; " description="&lt;b&gt;ctg1_2875&lt;/b&gt;&lt;br&gt;ctg1 2875&lt;br&gt;Location: 3097271 - 3098612" locus_tag="ctg1_2875" class="clusterblast-orf" id="knownclusterblast-7_q14_0_all"  />
<polygon points="706,40 775,40 780,35 775,30 706,30 706,40 " style="fill:white; stroke-width:1; stroke:black; " description="&lt;b&gt;ctg1_2876&lt;/b&gt;&lt;br&gt;ctg1 2876&lt;br&gt;Location: 3098614 - 3100609" locus_tag="ctg1_2876" class="clusterblast-orf" id="knownclusterblast-7_q15_0_all"  />
</g>
</svg>
