<svg xmlns="http://www.w3.org/2000/svg" xmlns:xlink="http://www.w3.org/1999/xlink" version="1.1" x="0" y="0" height="230" width="800" viewBox="0 0 800 230" preserveAspectRatio="none"  >
<g label="Query sequence" class="clusterblast-cluster"  >
<text x="5" y="20" class="clusterblast-acc"  >
Query sequence</text>
<line x1="10" y1="35" x2="778.0" y2="35" style="stroke-width:1; stroke:grey; "  />
<polygon points="0,40 21,40 26,35 21,30 0,30 0,40 " style="fill:white; stroke-width:1; stroke:black; " description="&lt;b&gt;ctg1_2701&lt;/b&gt;&lt;br&gt;ctg1 2701&lt;br&gt;Location: 2902978 - 2904112" locus_tag="ctg1_2701" class="clusterblast-orf" id="dummy-6_q0_0_all"  />
<polygon points="27,40 42,40 47,35 42,30 27,30 27,40 " style="fill:white; stroke-width:1; stroke:black; " description="&lt;b&gt;ctg1_2702&lt;/b&gt;&lt;br&gt;ctg1 2702&lt;br&gt;Location: 2904177 - 2905059" locus_tag="ctg1_2702" class="clusterblast-orf" id="dummy-6_q1_0_all"  />
<polygon points="50,40 72,40 77,35 72,30 50,30 50,40 " style="fill:white; stroke-width:1; stroke:black; " description="&lt;b&gt;ctg1_2703&lt;/b&gt;&lt;br&gt;ctg1 2703&lt;br&gt;Location: 2905176 - 2906376" locus_tag="ctg1_2703" class="clusterblast-orf" id="dummy-6_q2_0_all"  />
<polygon points="77,35 81,30 81,40 77,35 " style="fill:white; stroke-width:1; stroke:black; " description="&lt;b&gt;ctg1_2704&lt;/b&gt;&lt;br&gt;ctg1 2704&lt;br&gt;Location: 2906388 - 2906559" locus_tag="ctg1_2704" class="clusterblast-orf" id="dummy-6_q3_0_all"  />
<polygon points="84,35 89,30 122,30 122,40 89,40 84,35 " style="fill:white; stroke-width:1; stroke:black; " description="&lt;b&gt;ctg1_2705&lt;/b&gt;&lt;br&gt;ctg1 2705&lt;br&gt;Location: 2906687 - 2908364" locus_tag="ctg1_2705" class="clusterblast-orf" id="dummy-6_q4_0_all"  />
<polygon points="128,35 133,30 133,30 133,40 133,40 128,35 " style="fill:white; stroke-width:1; stroke:black; " description="&lt;b&gt;ctg1_2706&lt;/b&gt;&lt;br&gt;ctg1 2706&lt;br&gt;Location: 2908591 - 2908819" locus_tag="ctg1_2706" class="clusterblast-orf" id="dummy-6_q5_0_all"  />
<polygon points="139,40 144,40 149,35 144,30 139,30 139,40 " style="fill:white; stroke-width:1; stroke:black; " description="&lt;b&gt;ctg1_2707&lt;/b&gt;&lt;br&gt;ctg1 2707&lt;br&gt;Location: 2909108 - 2909531" locus_tag="ctg1_2707" class="clusterblast-orf" id="dummy-6_q6_0_all"  />
<polygon points="150,35 155,30 167,30 167,40 155,40 150,35 " style="fill:white; stroke-width:1; stroke:black; " description="&lt;b&gt;ctg1_2708&lt;/b&gt;&lt;br&gt;ctg1 2708&lt;br&gt;Location: 2909577 - 2910339" locus_tag="ctg1_2708" class="clusterblast-orf" id="dummy-6_q7_0_all"  />
<polygon points="169,40 185,40 190,35 185,30 169,30 169,40 " style="fill:white; stroke-width:1; stroke:black; " description="&lt;b&gt;ctg1_2709&lt;/b&gt;&lt;br&gt;ctg1 2709&lt;br&gt;Location: 2910425 - 2911313" locus_tag="ctg1_2709" class="clusterblast-orf" id="dummy-6_q8_0_all"  />
<polygon points="190,35 195,30 197,30 197,40 195,40 190,35 " style="fill:white; stroke-width:1; stroke:black; " description="&lt;b&gt;ctg1_2710&lt;/b&gt;&lt;br&gt;ctg1 2710&lt;br&gt;Location: 2911332 - 2911626" locus_tag="ctg1_2710" class="clusterblast-orf" id="dummy-6_q9_0_all"  />
<polygon points="199,35 204,30 214,30 214,40 204,40 199,35 " style="fill:white; stroke-width:1; stroke:black; " description="&lt;b&gt;ctg1_2711&lt;/b&gt;&lt;br&gt;ctg1 2711&lt;br&gt;Location: 2911742 - 2912378" locus_tag="ctg1_2711" class="clusterblast-orf" id="dummy-6_q10_0_all"  />
<polygon points="216,35 221,30 250,30 250,40 221,40 216,35 " style="fill:#d81515; stroke-width:1; stroke:black; " description="&lt;b&gt;ctg1_2712&lt;/b&gt;&lt;br&gt;ctg1 2712&lt;br&gt;Location: 2912478 - 2913975" locus_tag="ctg1_2712" class="clusterblast-orf" id="dummy-6_q11_0_all"  />
<polygon points="250,35 255,30 287,30 287,40 255,40 250,35 " style="fill:#33d815; stroke-width:1; stroke:black; " description="&lt;b&gt;ctg1_2713&lt;/b&gt;&lt;br&gt;ctg1 2713&lt;br&gt;Location: 2913977 - 2915576" locus_tag="ctg1_2713" class="clusterblast-orf" id="dummy-6_q12_0_all"  />
<polygon points="287,35 292,30 330,30 330,40 292,40 287,35 " style="fill:#15abd8; stroke-width:1; stroke:black; " description="&lt;b&gt;ctg1_2714&lt;/b&gt;&lt;br&gt;ctg1 2714&lt;br&gt;Location: 2915577 - 2917467" locus_tag="ctg1_2714" class="clusterblast-orf" id="dummy-6_q13_0_all"  />
<polygon points="330,35 335,30 337,30 337,40 335,40 330,35 " style="fill:#8d15d8; stroke-width:1; stroke:black; " description="&lt;b&gt;ctg1_2715&lt;/b&gt;&lt;br&gt;ctg1 2715&lt;br&gt;Location: 2917463 - 2917772" locus_tag="ctg1_2715" class="clusterblast-orf" id="dummy-6_q14_0_all"  />
<polygon points="337,35 342,30 349,30 349,40 342,40 337,35 " style="fill:#d86f15; stroke-width:1; stroke:black; " description="&lt;b&gt;ctg1_2716&lt;/b&gt;&lt;br&gt;ctg1 2716&lt;br&gt;Location: 2917771 - 2918293" locus_tag="ctg1_2716" class="clusterblast-orf" id="dummy-6_q15_0_all"  />
<polygon points="349,35 354,30 361,30 361,40 354,40 349,35 " style="fill:#15d851; stroke-width:1; stroke:black; " description="&lt;b&gt;ctg1_2717&lt;/b&gt;&lt;br&gt;ctg1 2717&lt;br&gt;Location: 2918289 - 2918832" locus_tag="ctg1_2717" class="clusterblast-orf" id="dummy-6_q16_0_all"  />
<polygon points="361,35 366,30 384,30 384,40 366,40 361,35 " style="fill:#1551d8; stroke-width:1; stroke:black; " description="&lt;b&gt;ctg1_2718&lt;/b&gt;&lt;br&gt;ctg1 2718&lt;br&gt;Location: 2918850 - 2919867" locus_tag="ctg1_2718" class="clusterblast-orf" id="dummy-6_q17_0_all"  />
<polygon points="385,35 390,30 446,30 446,40 390,40 385,35 " style="fill:#d815c9; stroke-width:1; stroke:black; " description="&lt;b&gt;ctg1_2719&lt;/b&gt;&lt;br&gt;ctg1 2719&lt;br&gt;Location: 2919870 - 2922555" locus_tag="ctg1_2719" class="clusterblast-orf" id="dummy-6_q18_0_all"  />
<polygon points="446,35 451,30 476,30 476,40 451,40 446,35 " style="fill:#d8c915; stroke-width:1; stroke:black; " description="&lt;b&gt;ctg1_2720&lt;/b&gt;&lt;br&gt;ctg1 2720&lt;br&gt;Location: 2922566 - 2923898" locus_tag="ctg1_2720" class="clusterblast-orf" id="dummy-6_q19_0_all"  />
<polygon points="476,35 481,30 488,30 488,40 481,40 476,35 " style="fill:#15d8ab; stroke-width:1; stroke:black; " description="&lt;b&gt;ctg1_2721&lt;/b&gt;&lt;br&gt;ctg1 2721&lt;br&gt;Location: 2923894 - 2924404" locus_tag="ctg1_2721" class="clusterblast-orf" id="dummy-6_q20_0_all"  />
<polygon points="488,35 493,30 529,30 529,40 493,40 488,35 " style="fill:#3315d8; stroke-width:1; stroke:black; " description="&lt;b&gt;ctg1_2722&lt;/b&gt;&lt;br&gt;ctg1 2722&lt;br&gt;Location: 2924417 - 2926205" locus_tag="ctg1_2722" class="clusterblast-orf" id="dummy-6_q21_0_all"  />
<polygon points="531,35 536,30 546,30 546,40 536,40 531,35 " style="fill:#d8156f; stroke-width:1; stroke:black; " description="&lt;b&gt;ctg1_2723&lt;/b&gt;&lt;br&gt;ctg1 2723&lt;br&gt;Location: 2926289 - 2926967" locus_tag="ctg1_2723" class="clusterblast-orf" id="dummy-6_q22_0_all"  />
<polygon points="546,35 551,30 559,30 559,40 551,40 546,35 " style="fill:#8dd815; stroke-width:1; stroke:black; " description="&lt;b&gt;ctg1_2724&lt;/b&gt;&lt;br&gt;ctg1 2724&lt;br&gt;Location: 2926973 - 2927525" locus_tag="ctg1_2724" class="clusterblast-orf" id="dummy-6_q23_0_all"  />
<polygon points="569,40 596,40 601,35 596,30 569,30 569,40 " style="fill:white; stroke-width:1; stroke:black; " description="&lt;b&gt;ctg1_2725&lt;/b&gt;&lt;br&gt;ctg1 2725&lt;br&gt;Location: 2927952 - 2929374" locus_tag="ctg1_2725" class="clusterblast-orf" id="dummy-6_q24_0_all"  />
<polygon points="603,40 606,40 611,35 606,30 603,30 603,40 " style="fill:white; stroke-width:1; stroke:black; " description="&lt;b&gt;ctg1_2726&lt;/b&gt;&lt;br&gt;ctg1 2726&lt;br&gt;Location: 2929466 - 2929820" locus_tag="ctg1_2726" class="clusterblast-orf" id="dummy-6_q25_0_all"  />
<polygon points="612,35 617,30 649,30 649,40 617,40 612,35 " style="fill:white; stroke-width:1; stroke:black; " description="&lt;b&gt;ctg1_2727&lt;/b&gt;&lt;br&gt;ctg1 2727&lt;br&gt;Location: 2929841 - 2931491" locus_tag="ctg1_2727" class="clusterblast-orf" id="dummy-6_q26_0_all"  />
<polygon points="650,35 655,30 666,30 666,40 655,40 650,35 " style="fill:white; stroke-width:1; stroke:black; " description="&lt;b&gt;ctg1_2728&lt;/b&gt;&lt;br&gt;ctg1 2728&lt;br&gt;Location: 2931523 - 2932240" locus_tag="ctg1_2728" class="clusterblast-orf" id="dummy-6_q27_0_all"  />
<polygon points="678,40 738,40 743,35 738,30 678,30 678,40 " style="fill:white; stroke-width:1; stroke:black; " description="&lt;b&gt;ctg1_2729&lt;/b&gt;&lt;br&gt;ctg1 2729&lt;br&gt;Location: 2932772 - 2935607" locus_tag="ctg1_2729" class="clusterblast-orf" id="dummy-6_q28_0_all"  />
<polygon points="744,40 747,35 744,30 744,40 " style="fill:white; stroke-width:1; stroke:black; " description="&lt;b&gt;ctg1_2730&lt;/b&gt;&lt;br&gt;ctg1 2730&lt;br&gt;Location: 2935662 - 2935797" locus_tag="ctg1_2730" class="clusterblast-orf" id="dummy-6_q29_0_all"  />
<polygon points="750,40 775,40 780,35 775,30 750,30 750,40 " style="fill:white; stroke-width:1; stroke:black; " description="&lt;b&gt;ctg1_2731&lt;/b&gt;&lt;br&gt;ctg1 2731&lt;br&gt;Location: 2935934 - 2937218" locus_tag="ctg1_2731" class="clusterblast-orf" id="dummy-6_q30_0_all"  />
</g>
<g label="MGC00000056" description="MGC00000056_c1: NADH dehydrogenase I Bacteroides sp. (23% of genes show similarity), NADHD" class="clusterblast-cluster"  >
<text x="5" y="70" class="clusterblast-acc"  >
MGC00000056_c1: NADH dehydrogenase I Bacteroides sp. (23% of genes show similarity), NADHD</text>
<line x1="10" y1="85" x2="778.0" y2="85" style="stroke-width:1; stroke:grey; "  />
</g>
<g id="a6_000"  >
<polygon points="84,85 89,80 110,80 110,90 89,90 84,85 " style="fill:white; stroke-width:1; stroke:black; " description="&lt;b&gt;BSHG_0791&lt;/b&gt;&lt;br&gt;hypothetical protein&lt;br&gt;Location: 1613 - 2732" locus_tag="BSHG_0791" class="clusterblast-orf" id="dummy-6_h6_2_0"  />
</g>
<g id="a6_001"  >
<polygon points="112,85 117,80 141,80 141,90 117,90 112,85 " style="fill:white; stroke-width:1; stroke:black; " description="&lt;b&gt;BSHG_0790&lt;/b&gt;&lt;br&gt;hypothetical protein&lt;br&gt;Location: 2834 - 4109" locus_tag="BSHG_0790" class="clusterblast-orf" id="dummy-6_h6_2_1"  />
</g>
<g id="a6_002"  >
<polygon points="143,85 148,80 204,80 204,90 148,90 143,85 " style="fill:white; stroke-width:1; stroke:black; " description="&lt;b&gt;BSHG_0789&lt;/b&gt;&lt;br&gt;hypothetical protein&lt;br&gt;Location: 4177 - 6877" locus_tag="BSHG_0789" class="clusterblast-orf" id="dummy-6_h6_2_2"  />
</g>
<g id="a6_003"  >
<polygon points="210,90 268,90 273,85 268,80 210,80 210,90 " style="fill:white; stroke-width:1; stroke:black; " description="&lt;b&gt;BSHG_0787&lt;/b&gt;&lt;br&gt;hypothetical protein&lt;br&gt;Location: 7114 - 9904" locus_tag="BSHG_0787" class="clusterblast-orf" id="dummy-6_h6_2_3"  />
</g>
<g id="a6_004"  >
<polygon points="275,85 280,80 308,80 308,90 280,90 275,85 " style="fill:white; stroke-width:1; stroke:black; " description="&lt;b&gt;BSHG_0786&lt;/b&gt;&lt;br&gt;NADH-quinone oxidoreductase subunit N&lt;br&gt;Location: 10000 - 11452" locus_tag="BSHG_0786" class="clusterblast-orf" id="dummy-6_h6_2_4"  />
</g>
<g id="a6_005"  >
<polygon points="309,85 314,80 342,80 342,90 314,90 309,85 " style="fill:#33d815; stroke-width:1; stroke:black; " description="&lt;b&gt;BSHG_0785&lt;/b&gt;&lt;br&gt;proton-translocating NADH-quinone oxidoreductase, chain M&lt;br&gt;Location: 11458 - 12943&lt;br&gt;&lt;br&gt;&lt;b&gt;BlastP hit with ctg1_2713&lt;/b&gt;&lt;br&gt;Percentage identity: 36&lt;br&gt;Percentage coverage: 83&lt;br&gt;BLAST bit score: 210&lt;br&gt;E-value: 1.53e-63" locus_tag="BSHG_0785" class="clusterblast-orf" id="dummy-6_h6_2_5"  />
</g>
<g id="a6_006"  >
<polygon points="343,85 348,80 386,80 386,90 348,90 343,85 " style="fill:#15abd8; stroke-width:1; stroke:black; " description="&lt;b&gt;BSHG_0784&lt;/b&gt;&lt;br&gt;proton-translocating NADH-quinone oxidoreductase, chain L&lt;br&gt;Location: 12955 - 14866&lt;br&gt;&lt;br&gt;&lt;b&gt;BlastP hit with ctg1_2714&lt;/b&gt;&lt;br&gt;Percentage identity: 32&lt;br&gt;Percentage coverage: 106&lt;br&gt;BLAST bit score: 266&lt;br&gt;E-value: 2.62e-82" locus_tag="BSHG_0784" class="clusterblast-orf" id="dummy-6_h6_2_6"  />
</g>
<g id="a6_007"  >
<polygon points="387,85 392,80 394,80 394,90 392,90 387,85 " style="fill:white; stroke-width:1; stroke:black; " description="&lt;b&gt;BSHG_0783&lt;/b&gt;&lt;br&gt;hypothetical protein&lt;br&gt;Location: 14902 - 15214" locus_tag="BSHG_0783" class="clusterblast-orf" id="dummy-6_h6_2_7"  />
</g>
<g id="a6_008"  >
<polygon points="394,85 399,80 406,80 406,90 399,90 394,85 " style="fill:white; stroke-width:1; stroke:black; " description="&lt;b&gt;BSHG_0782&lt;/b&gt;&lt;br&gt;hypothetical protein&lt;br&gt;Location: 15220 - 15733" locus_tag="BSHG_0782" class="clusterblast-orf" id="dummy-6_h6_2_8"  />
</g>
<g id="a6_009"  >
<polygon points="406,85 411,80 417,80 417,90 411,90 406,85 " style="fill:white; stroke-width:1; stroke:black; " description="&lt;b&gt;BSHG_0781&lt;/b&gt;&lt;br&gt;NADH-quinone oxidoreductase, chain I&lt;br&gt;Location: 15739 - 16219" locus_tag="BSHG_0781" class="clusterblast-orf" id="dummy-6_h6_2_9"  />
</g>
<g id="a6_0010"  >
<polygon points="417,85 422,80 442,80 442,90 422,90 417,85 " style="fill:#1551d8; stroke-width:1; stroke:black; " description="&lt;b&gt;BSHG_0780&lt;/b&gt;&lt;br&gt;NADH-quinone oxidoreductase subunit H&lt;br&gt;Location: 16235 - 17312&lt;br&gt;&lt;br&gt;&lt;b&gt;BlastP hit with ctg1_2718&lt;/b&gt;&lt;br&gt;Percentage identity: 40&lt;br&gt;Percentage coverage: 89&lt;br&gt;BLAST bit score: 245&lt;br&gt;E-value: 4.53e-81" locus_tag="BSHG_0780" class="clusterblast-orf" id="dummy-6_h6_2_10"  />
</g>
<g id="a6_0011"  >
<polygon points="444,85 449,80 480,80 480,90 449,90 444,85 " style="fill:#3315d8; stroke-width:1; stroke:black; " description="&lt;b&gt;BSHG_0779&lt;/b&gt;&lt;br&gt;NADH-quinone oxidoreductase subunit C/D&lt;br&gt;Location: 17391 - 18984&lt;br&gt;&lt;br&gt;&lt;b&gt;BlastP hit with ctg1_2722&lt;/b&gt;&lt;br&gt;Percentage identity: 31&lt;br&gt;Percentage coverage: 93&lt;br&gt;BLAST bit score: 263&lt;br&gt;E-value: 1.86e-82" locus_tag="BSHG_0779" class="clusterblast-orf" id="dummy-6_h6_2_11"  />
</g>
<g id="a6_0012"  >
<polygon points="481,85 486,80 494,80 494,90 486,90 481,85 " style="fill:#d8156f; stroke-width:1; stroke:black; " description="&lt;b&gt;BSHG_0778&lt;/b&gt;&lt;br&gt;NADH-quinone oxidoreductase subunit B&lt;br&gt;Location: 19005 - 19587&lt;br&gt;&lt;br&gt;&lt;b&gt;BlastP hit with ctg1_2723&lt;/b&gt;&lt;br&gt;Percentage identity: 55&lt;br&gt;Percentage coverage: 67&lt;br&gt;BLAST bit score: 175&lt;br&gt;E-value: 1.74e-57" locus_tag="BSHG_0778" class="clusterblast-orf" id="dummy-6_h6_2_12"  />
</g>
<g id="a6_0013"  >
<polygon points="494,85 499,80 502,80 502,90 499,90 494,85 " style="fill:white; stroke-width:1; stroke:black; " description="&lt;b&gt;BSHG_0777&lt;/b&gt;&lt;br&gt;NADH-quinone oxidoreductase subunit A&lt;br&gt;Location: 19586 - 19937" locus_tag="BSHG_0777" class="clusterblast-orf" id="dummy-6_h6_2_13"  />
</g>
<g id="a6_0014"  >
<polygon points="505,85 510,80 514,80 514,90 510,90 505,85 " style="fill:white; stroke-width:1; stroke:black; " description="&lt;b&gt;BSHG_0776&lt;/b&gt;&lt;br&gt;hypothetical protein&lt;br&gt;Location: 20080 - 20458" locus_tag="BSHG_0776" class="clusterblast-orf" id="dummy-6_h6_2_14"  />
</g>
<g id="a6_0015"  >
<polygon points="518,85 523,80 551,80 551,90 523,90 518,85 " style="fill:white; stroke-width:1; stroke:black; " description="&lt;b&gt;BSHG_0775&lt;/b&gt;&lt;br&gt;TrkH family potassium uptake protein&lt;br&gt;Location: 20644 - 22096" locus_tag="BSHG_0775" class="clusterblast-orf" id="dummy-6_h6_2_15"  />
</g>
<g id="a6_0016"  >
<polygon points="551,85 556,80 582,80 582,90 556,90 551,85 " style="fill:white; stroke-width:1; stroke:black; " description="&lt;b&gt;BSHG_0774&lt;/b&gt;&lt;br&gt;hypothetical protein&lt;br&gt;Location: 22100 - 23441" locus_tag="BSHG_0774" class="clusterblast-orf" id="dummy-6_h6_2_16"  />
</g>
<g id="a6_0017"  >
<polygon points="582,85 587,80 627,80 627,90 587,90 582,85 " style="fill:white; stroke-width:1; stroke:black; " description="&lt;b&gt;BSHG_0773&lt;/b&gt;&lt;br&gt;1-deoxy-D-xylulose-5-phosphate synthase&lt;br&gt;Location: 23479 - 25426" locus_tag="BSHG_0773" class="clusterblast-orf" id="dummy-6_h6_2_17"  />
</g>
<g id="a6_0018"  >
<polygon points="638,85 643,80 669,80 669,90 643,90 638,85 " style="fill:white; stroke-width:1; stroke:black; " description="&lt;b&gt;BSHG_0771&lt;/b&gt;&lt;br&gt;hypothetical protein&lt;br&gt;Location: 25917 - 27261" locus_tag="BSHG_0771" class="clusterblast-orf" id="dummy-6_h6_2_18"  />
</g>
<g id="a6_0019"  >
<polygon points="668,85 673,80 676,80 676,90 673,90 668,85 " style="fill:white; stroke-width:1; stroke:black; " description="&lt;b&gt;BSHG_0770&lt;/b&gt;&lt;br&gt;hypothetical protein&lt;br&gt;Location: 27257 - 27584" locus_tag="BSHG_0770" class="clusterblast-orf" id="dummy-6_h6_2_19"  />
</g>
<g id="a6_0020"  >
<polygon points="680,90 690,90 695,85 690,80 680,80 680,90 " style="fill:white; stroke-width:1; stroke:black; " description="&lt;b&gt;BSHG_0769&lt;/b&gt;&lt;br&gt;HAD hydrolase, family IA&lt;br&gt;Location: 27759 - 28407" locus_tag="BSHG_0769" class="clusterblast-orf" id="dummy-6_h6_2_20"  />
</g>
</svg>
