<svg xmlns="http://www.w3.org/2000/svg" xmlns:xlink="http://www.w3.org/1999/xlink" version="1.1" x="0" y="0" height="230" width="800" viewBox="0 0 800 230" preserveAspectRatio="none"  >
<g label="Query sequence" class="clusterblast-cluster"  >
<text x="5" y="20" class="clusterblast-acc"  >
Query sequence</text>
<line x1="10" y1="35" x2="778.0" y2="35" style="stroke-width:1; stroke:grey; "  />
<polygon points="0,35 5,30 16,30 16,40 5,40 0,35 " style="fill:white; stroke-width:1; stroke:black; " description="&lt;b&gt;ctg1_496&lt;/b&gt;&lt;br&gt;ctg1 496&lt;br&gt;Location: 528943 - 529393" locus_tag="ctg1_496" class="clusterblast-orf" id="dummy-2_q0_0_all"  />
<polygon points="22,35 27,30 45,30 45,40 27,40 22,35 " style="fill:white; stroke-width:1; stroke:black; " description="&lt;b&gt;ctg1_497&lt;/b&gt;&lt;br&gt;ctg1 497&lt;br&gt;Location: 529557 - 530211" locus_tag="ctg1_497" class="clusterblast-orf" id="dummy-2_q1_0_all"  />
<polygon points="51,35 56,30 62,30 62,40 56,40 51,35 " style="fill:white; stroke-width:1; stroke:black; " description="&lt;b&gt;ctg1_498&lt;/b&gt;&lt;br&gt;ctg1 498&lt;br&gt;Location: 530394 - 530682" locus_tag="ctg1_498" class="clusterblast-orf" id="dummy-2_q2_0_all"  />
<polygon points="65,35 70,30 132,30 132,40 70,40 65,35 " style="fill:white; stroke-width:1; stroke:black; " description="&lt;b&gt;ctg1_499&lt;/b&gt;&lt;br&gt;ctg1 499&lt;br&gt;Location: 530779 - 532666" locus_tag="ctg1_499" class="clusterblast-orf" id="dummy-2_q3_0_all"  />
<polygon points="145,40 147,40 152,35 147,30 145,30 145,40 " style="fill:white; stroke-width:1; stroke:black; " description="&lt;b&gt;ctg1_500&lt;/b&gt;&lt;br&gt;ctg1 500&lt;br&gt;Location: 533024 - 533231" locus_tag="ctg1_500" class="clusterblast-orf" id="dummy-2_q4_0_all"  />
<polygon points="155,40 169,40 174,35 169,30 155,30 155,40 " style="fill:white; stroke-width:1; stroke:black; " description="&lt;b&gt;ctg1_501&lt;/b&gt;&lt;br&gt;ctg1 501&lt;br&gt;Location: 533306 - 533831" locus_tag="ctg1_501" class="clusterblast-orf" id="dummy-2_q5_0_all"  />
<polygon points="178,35 183,30 211,30 211,40 183,40 178,35 " style="fill:white; stroke-width:1; stroke:black; " description="&lt;b&gt;ctg1_502&lt;/b&gt;&lt;br&gt;ctg1 502&lt;br&gt;Location: 533953 - 534886" locus_tag="ctg1_502" class="clusterblast-orf" id="dummy-2_q6_0_all"  />
<polygon points="215,40 227,40 232,35 227,30 215,30 215,40 " style="fill:white; stroke-width:1; stroke:black; " description="&lt;b&gt;ctg1_503&lt;/b&gt;&lt;br&gt;ctg1 503&lt;br&gt;Location: 534997 - 535483" locus_tag="ctg1_503" class="clusterblast-orf" id="dummy-2_q7_0_all"  />
<polygon points="235,35 240,30 280,30 280,40 240,40 235,35 " style="fill:white; stroke-width:1; stroke:black; " description="&lt;b&gt;ctg1_504&lt;/b&gt;&lt;br&gt;ctg1 504&lt;br&gt;Location: 535552 - 536827" locus_tag="ctg1_504" class="clusterblast-orf" id="dummy-2_q8_0_all"  />
<polygon points="315,40 323,40 328,35 323,30 315,30 315,40 " style="fill:white; stroke-width:1; stroke:black; " description="&lt;b&gt;ctg1_505&lt;/b&gt;&lt;br&gt;ctg1 505&lt;br&gt;Location: 537789 - 538182" locus_tag="ctg1_505" class="clusterblast-orf" id="dummy-2_q9_0_all"  />
<polygon points="328,40 336,40 341,35 336,30 328,30 328,40 " style="fill:white; stroke-width:1; stroke:black; " description="&lt;b&gt;ctg1_506&lt;/b&gt;&lt;br&gt;ctg1 506&lt;br&gt;Location: 538181 - 538547" locus_tag="ctg1_506" class="clusterblast-orf" id="dummy-2_q10_0_all"  />
<polygon points="342,40 402,40 407,35 402,30 342,30 342,40 " style="fill:#d81515; stroke-width:1; stroke:black; " description="&lt;b&gt;ctg1_507&lt;/b&gt;&lt;br&gt;ctg1 507&lt;br&gt;Location: 538559 - 540395" locus_tag="ctg1_507" class="clusterblast-orf" id="dummy-2_q11_0_all"  />
<polygon points="408,40 428,40 433,35 428,30 408,30 408,40 " style="fill:#15d8d8; stroke-width:1; stroke:black; " description="&lt;b&gt;ctg1_508&lt;/b&gt;&lt;br&gt;ctg1 508&lt;br&gt;Location: 540409 - 541120" locus_tag="ctg1_508" class="clusterblast-orf" id="dummy-2_q12_0_all"  />
<polygon points="453,40 549,40 554,35 549,30 453,30 453,40 " style="fill:white; stroke-width:1; stroke:black; " description="&lt;b&gt;ctg1_509&lt;/b&gt;&lt;br&gt;ctg1 509&lt;br&gt;Location: 541690 - 544531" locus_tag="ctg1_509" class="clusterblast-orf" id="dummy-2_q13_0_all"  />
<polygon points="554,40 592,40 597,35 592,30 554,30 554,40 " style="fill:white; stroke-width:1; stroke:black; " description="&lt;b&gt;ctg1_510&lt;/b&gt;&lt;br&gt;ctg1 510&lt;br&gt;Location: 544530 - 545727" locus_tag="ctg1_510" class="clusterblast-orf" id="dummy-2_q14_0_all"  />
<polygon points="599,40 645,40 650,35 645,30 599,30 599,40 " style="fill:white; stroke-width:1; stroke:black; " description="&lt;b&gt;ctg1_511&lt;/b&gt;&lt;br&gt;ctg1 511&lt;br&gt;Location: 545789 - 547223" locus_tag="ctg1_511" class="clusterblast-orf" id="dummy-2_q15_0_all"  />
<polygon points="655,40 692,40 697,35 692,30 655,30 655,40 " style="fill:white; stroke-width:1; stroke:black; " description="&lt;b&gt;ctg1_512&lt;/b&gt;&lt;br&gt;ctg1 512&lt;br&gt;Location: 547370 - 548537" locus_tag="ctg1_512" class="clusterblast-orf" id="dummy-2_q16_0_all"  />
<polygon points="697,40 724,40 729,35 724,30 697,30 697,40 " style="fill:white; stroke-width:1; stroke:black; " description="&lt;b&gt;ctg1_513&lt;/b&gt;&lt;br&gt;ctg1 513&lt;br&gt;Location: 548551 - 549442" locus_tag="ctg1_513" class="clusterblast-orf" id="dummy-2_q17_0_all"  />
<polygon points="744,35 749,30 780,30 780,40 749,40 744,35 " style="fill:white; stroke-width:1; stroke:black; " description="&lt;b&gt;ctg1_514&lt;/b&gt;&lt;br&gt;ctg1 514&lt;br&gt;Location: 549857 - 550871" locus_tag="ctg1_514" class="clusterblast-orf" id="dummy-2_q18_0_all"  />
</g>
<g label="MGC00000058" description="MGC00000058_c1: Fumarate2succinate suc dh E. coli (100% of genes show similarity), SUC" class="clusterblast-cluster"  >
<text x="5" y="70" class="clusterblast-acc"  >
MGC00000058_c1: Fumarate2succinate suc dh E. coli (100% of genes show similarity), SUC</text>
<line x1="10" y1="85" x2="778.0" y2="85" style="stroke-width:1; stroke:grey; "  />
</g>
<g id="a2_000"  >
<polygon points="345,90 403,90 408,85 403,80 345,80 345,90 " style="fill:#d81515; stroke-width:1; stroke:black; " description="&lt;b&gt;HMPREF9550_01793&lt;/b&gt;&lt;br&gt;succinate dehydrogenase, flavoprotein subunit&lt;br&gt;Location: 12499 - 10732&lt;br&gt;&lt;br&gt;&lt;b&gt;BlastP hit with ctg1_507&lt;/b&gt;&lt;br&gt;Percentage identity: 53&lt;br&gt;Percentage coverage: 98&lt;br&gt;BLAST bit score: 615&lt;br&gt;E-value: 8.66e-219" locus_tag="HMPREF9550_01793" class="clusterblast-orf" id="dummy-2_h2_1_0"  />
</g>
<g id="a2_001"  >
<polygon points="408,90 429,90 434,85 429,80 408,80 408,90 " style="fill:#15d8d8; stroke-width:1; stroke:black; " description="&lt;b&gt;HMPREF9550_01792&lt;/b&gt;&lt;br&gt;succinate dehydrogenase iron-sulfur subunit&lt;br&gt;Location: 10717 - 10000&lt;br&gt;&lt;br&gt;&lt;b&gt;BlastP hit with ctg1_508&lt;/b&gt;&lt;br&gt;Percentage identity: 69&lt;br&gt;Percentage coverage: 98&lt;br&gt;BLAST bit score: 333&lt;br&gt;E-value: 6.63e-119" locus_tag="HMPREF9550_01792" class="clusterblast-orf" id="dummy-2_h2_1_1"  />
</g>
</svg>
