<svg xmlns="http://www.w3.org/2000/svg" xmlns:xlink="http://www.w3.org/1999/xlink" version="1.1" x="0" y="0" height="230" width="800" viewBox="0 0 800 230" preserveAspectRatio="none"  >
<g label="Query sequence" class="clusterblast-cluster"  >
<text x="5" y="20" class="clusterblast-acc"  >
Query sequence</text>
<line x1="10" y1="35" x2="778.0" y2="35" style="stroke-width:1; stroke:grey; "  />
<polygon points="0,40 4,35 0,30 0,40 " style="fill:white; stroke-width:1; stroke:black; " description="&lt;b&gt;ctg1_1891&lt;/b&gt;&lt;br&gt;ctg1 1891&lt;br&gt;Location: 2040845 - 2041163" locus_tag="ctg1_1891" class="clusterblast-orf" id="dummy-4_q0_0_all"  />
<polygon points="5,35 9,30 9,40 5,35 " style="fill:white; stroke-width:1; stroke:black; " description="&lt;b&gt;ctg1_1892&lt;/b&gt;&lt;br&gt;ctg1 1892&lt;br&gt;Location: 2041247 - 2041469" locus_tag="ctg1_1892" class="clusterblast-orf" id="dummy-4_q1_0_all"  />
<polygon points="10,35 15,30 16,30 16,40 15,40 10,35 " style="fill:white; stroke-width:1; stroke:black; " description="&lt;b&gt;ctg1_1893&lt;/b&gt;&lt;br&gt;ctg1 1893&lt;br&gt;Location: 2041555 - 2041984" locus_tag="ctg1_1893" class="clusterblast-orf" id="dummy-4_q2_0_all"  />
<polygon points="20,35 22,30 22,40 20,35 " style="fill:white; stroke-width:1; stroke:black; " description="&lt;b&gt;ctg1_1894&lt;/b&gt;&lt;br&gt;ctg1 1894&lt;br&gt;Location: 2042253 - 2042397" locus_tag="ctg1_1894" class="clusterblast-orf" id="dummy-4_q3_0_all"  />
<polygon points="32,40 34,35 32,30 32,40 " style="fill:white; stroke-width:1; stroke:black; " description="&lt;b&gt;ctg1_1895&lt;/b&gt;&lt;br&gt;ctg1 1895&lt;br&gt;Location: 2043091 - 2043238" locus_tag="ctg1_1895" class="clusterblast-orf" id="dummy-4_q4_0_all"  />
<polygon points="36,40 40,35 36,30 36,40 " style="fill:white; stroke-width:1; stroke:black; " description="&lt;b&gt;ctg1_1896&lt;/b&gt;&lt;br&gt;ctg1 1896&lt;br&gt;Location: 2043365 - 2043656" locus_tag="ctg1_1896" class="clusterblast-orf" id="dummy-4_q5_0_all"  />
<polygon points="40,35 45,30 54,30 54,40 45,40 40,35 " style="fill:white; stroke-width:1; stroke:black; " description="&lt;b&gt;ctg1_1897&lt;/b&gt;&lt;br&gt;ctg1 1897&lt;br&gt;Location: 2043657 - 2044563" locus_tag="ctg1_1897" class="clusterblast-orf" id="dummy-4_q6_0_all"  />
<polygon points="55,40 68,40 73,35 68,30 55,30 55,40 " style="fill:white; stroke-width:1; stroke:black; " description="&lt;b&gt;ctg1_1898&lt;/b&gt;&lt;br&gt;ctg1 1898&lt;br&gt;Location: 2044674 - 2045913" locus_tag="ctg1_1898" class="clusterblast-orf" id="dummy-4_q7_0_all"  />
<polygon points="74,35 79,30 92,30 92,40 79,40 74,35 " style="fill:white; stroke-width:1; stroke:black; " description="&lt;b&gt;ctg1_1899&lt;/b&gt;&lt;br&gt;ctg1 1899&lt;br&gt;Location: 2045958 - 2047245" locus_tag="ctg1_1899" class="clusterblast-orf" id="dummy-4_q8_0_all"  />
<polygon points="96,35 101,30 106,30 106,40 101,40 96,35 " style="fill:white; stroke-width:1; stroke:black; " description="&lt;b&gt;ctg1_1900&lt;/b&gt;&lt;br&gt;ctg1 1900&lt;br&gt;Location: 2047486 - 2048158" locus_tag="ctg1_1900" class="clusterblast-orf" id="dummy-4_q9_0_all"  />
<polygon points="107,35 112,30 131,30 131,40 112,40 107,35 " style="fill:#d81515; stroke-width:1; stroke:black; " description="&lt;b&gt;ctg1_1901&lt;/b&gt;&lt;br&gt;ctg1 1901&lt;br&gt;Location: 2048228 - 2049923" locus_tag="ctg1_1901" class="clusterblast-orf" id="dummy-4_q10_0_all"  />
<polygon points="133,35 138,30 142,30 142,40 138,40 133,35 " style="fill:white; stroke-width:1; stroke:black; " description="&lt;b&gt;ctg1_1902&lt;/b&gt;&lt;br&gt;ctg1 1902&lt;br&gt;Location: 2050034 - 2050652" locus_tag="ctg1_1902" class="clusterblast-orf" id="dummy-4_q11_0_all"  />
<polygon points="144,40 156,40 161,35 156,30 144,30 144,40 " style="fill:#15d863; stroke-width:1; stroke:black; " description="&lt;b&gt;ctg1_1903&lt;/b&gt;&lt;br&gt;ctg1 1903&lt;br&gt;Location: 2050796 - 2051969" locus_tag="ctg1_1903" class="clusterblast-orf" id="dummy-4_q12_0_all"  />
<polygon points="161,40 180,40 185,35 180,30 161,30 161,40 " style="fill:white; stroke-width:1; stroke:black; " description="&lt;b&gt;ctg1_1904&lt;/b&gt;&lt;br&gt;ctg1 1904&lt;br&gt;Location: 2051993 - 2053595" locus_tag="ctg1_1904" class="clusterblast-orf" id="dummy-4_q13_0_all"  />
<polygon points="185,40 191,40 196,35 191,30 185,30 185,40 " style="fill:white; stroke-width:1; stroke:black; " description="&lt;b&gt;ctg1_1905&lt;/b&gt;&lt;br&gt;ctg1 1905&lt;br&gt;Location: 2053604 - 2054408" locus_tag="ctg1_1905" class="clusterblast-orf" id="dummy-4_q14_0_all"  />
<polygon points="196,40 220,40 225,35 220,30 196,30 196,40 " style="fill:white; stroke-width:1; stroke:black; " description="&lt;b&gt;ctg1_1906&lt;/b&gt;&lt;br&gt;ctg1 1906&lt;br&gt;Location: 2054419 - 2056411" locus_tag="ctg1_1906" class="clusterblast-orf" id="dummy-4_q15_0_all"  />
<polygon points="225,40 233,40 238,35 233,30 225,30 225,40 " style="fill:white; stroke-width:1; stroke:black; " description="&lt;b&gt;ctg1_1907&lt;/b&gt;&lt;br&gt;ctg1 1907&lt;br&gt;Location: 2056407 - 2057310" locus_tag="ctg1_1907" class="clusterblast-orf" id="dummy-4_q16_0_all"  />
<polygon points="242,35 247,30 256,30 256,40 247,40 242,35 " style="fill:white; stroke-width:1; stroke:black; " description="&lt;b&gt;ctg1_1908&lt;/b&gt;&lt;br&gt;ctg1 1908&lt;br&gt;Location: 2057561 - 2058503" locus_tag="ctg1_1908" class="clusterblast-orf" id="dummy-4_q17_0_all"  />
<polygon points="259,40 304,40 309,35 304,30 259,30 259,40 " style="fill:white; stroke-width:1; stroke:black; " description="&lt;b&gt;ctg1_1909&lt;/b&gt;&lt;br&gt;ctg1 1909&lt;br&gt;Location: 2058707 - 2062190" locus_tag="ctg1_1909" class="clusterblast-orf" id="dummy-4_q18_0_all"  />
<polygon points="310,35 315,30 322,30 322,40 315,40 310,35 " style="fill:white; stroke-width:1; stroke:black; " description="&lt;b&gt;ctg1_1910&lt;/b&gt;&lt;br&gt;ctg1 1910&lt;br&gt;Location: 2062250 - 2063054" locus_tag="ctg1_1910" class="clusterblast-orf" id="dummy-4_q19_0_all"  />
<polygon points="325,35 330,30 351,30 351,40 330,40 325,35 " style="fill:white; stroke-width:1; stroke:black; " description="&lt;b&gt;ctg1_1911&lt;/b&gt;&lt;br&gt;ctg1 1911&lt;br&gt;Location: 2063250 - 2065053" locus_tag="ctg1_1911" class="clusterblast-orf" id="dummy-4_q20_0_all"  />
<polygon points="355,40 357,40 362,35 357,30 355,30 355,40 " style="fill:white; stroke-width:1; stroke:black; " description="&lt;b&gt;ctg1_1912&lt;/b&gt;&lt;br&gt;ctg1 1912&lt;br&gt;Location: 2065373 - 2065808" locus_tag="ctg1_1912" class="clusterblast-orf" id="dummy-4_q21_0_all"  />
<polygon points="362,35 367,30 380,30 380,40 367,40 362,35 " style="fill:white; stroke-width:1; stroke:black; " description="&lt;b&gt;ctg1_1913&lt;/b&gt;&lt;br&gt;ctg1 1913&lt;br&gt;Location: 2065828 - 2067046" locus_tag="ctg1_1913" class="clusterblast-orf" id="dummy-4_q22_0_all"  />
<polygon points="380,35 385,30 399,30 399,40 385,40 380,35 " style="fill:white; stroke-width:1; stroke:black; " description="&lt;b&gt;ctg1_1914&lt;/b&gt;&lt;br&gt;ctg1 1914&lt;br&gt;Location: 2067064 - 2068381" locus_tag="ctg1_1914" class="clusterblast-orf" id="dummy-4_q23_0_all"  />
<polygon points="399,35 404,30 409,30 409,40 404,40 399,35 " style="fill:white; stroke-width:1; stroke:black; " description="&lt;b&gt;ctg1_1915&lt;/b&gt;&lt;br&gt;ctg1 1915&lt;br&gt;Location: 2068417 - 2069071" locus_tag="ctg1_1915" class="clusterblast-orf" id="dummy-4_q24_0_all"  />
<polygon points="409,35 414,30 419,30 419,40 414,40 409,35 " style="fill:white; stroke-width:1; stroke:black; " description="&lt;b&gt;ctg1_1916&lt;/b&gt;&lt;br&gt;ctg1 1916&lt;br&gt;Location: 2069070 - 2069739" locus_tag="ctg1_1916" class="clusterblast-orf" id="dummy-4_q25_0_all"  />
<polygon points="419,35 424,30 438,30 438,40 424,40 419,35 " style="fill:white; stroke-width:1; stroke:black; " description="&lt;b&gt;ctg1_1917&lt;/b&gt;&lt;br&gt;ctg1 1917&lt;br&gt;Location: 2069786 - 2071100" locus_tag="ctg1_1917" class="clusterblast-orf" id="dummy-4_q26_0_all"  />
<polygon points="439,35 444,30 456,30 456,40 444,40 439,35 " style="fill:#15d863; stroke-width:1; stroke:black; " description="&lt;b&gt;ctg1_1918&lt;/b&gt;&lt;br&gt;ctg1 1918&lt;br&gt;Location: 2071128 - 2072283" locus_tag="ctg1_1918" class="clusterblast-orf" id="dummy-4_q27_0_all"  />
<polygon points="460,40 466,40 471,35 466,30 460,30 460,40 " style="fill:#1563d8; stroke-width:1; stroke:black; " description="&lt;b&gt;ctg1_1919&lt;/b&gt;&lt;br&gt;ctg1 1919&lt;br&gt;Location: 2072594 - 2073383" locus_tag="ctg1_1919" class="clusterblast-orf" id="dummy-4_q28_0_all"  />
<polygon points="472,40 478,40 483,35 478,30 472,30 472,40 " style="fill:white; stroke-width:1; stroke:black; " description="&lt;b&gt;ctg1_1920&lt;/b&gt;&lt;br&gt;ctg1 1920&lt;br&gt;Location: 2073412 - 2074174" locus_tag="ctg1_1920" class="clusterblast-orf" id="dummy-4_q29_0_all"  />
<polygon points="484,40 501,40 506,35 501,30 484,30 484,40 " style="fill:#b115d8; stroke-width:1; stroke:black; " description="&lt;b&gt;ctg1_1921&lt;/b&gt;&lt;br&gt;ctg1 1921&lt;br&gt;Location: 2074235 - 2075759" locus_tag="ctg1_1921" class="clusterblast-orf" id="dummy-4_q30_0_all"  />
<polygon points="506,40 519,40 524,35 519,30 506,30 506,40 " style="fill:#b1d815; stroke-width:1; stroke:black; " description="&lt;b&gt;ctg1_1922&lt;/b&gt;&lt;br&gt;ctg1 1922&lt;br&gt;Location: 2075773 - 2076979" locus_tag="ctg1_1922" class="clusterblast-orf" id="dummy-4_q31_0_all"  />
<polygon points="525,40 532,40 537,35 532,30 525,30 525,40 " style="fill:white; stroke-width:1; stroke:black; " description="&lt;b&gt;ctg1_1923&lt;/b&gt;&lt;br&gt;ctg1 1923&lt;br&gt;Location: 2077088 - 2077931" locus_tag="ctg1_1923" class="clusterblast-orf" id="dummy-4_q32_0_all"  />
<polygon points="538,40 550,40 555,35 550,30 538,30 538,40 " style="fill:white; stroke-width:1; stroke:black; " description="&lt;b&gt;ctg1_1924&lt;/b&gt;&lt;br&gt;ctg1 1924&lt;br&gt;Location: 2077983 - 2079168" locus_tag="ctg1_1924" class="clusterblast-orf" id="dummy-4_q33_0_all"  />
<polygon points="556,35 561,30 570,30 570,40 561,40 556,35 " style="fill:white; stroke-width:1; stroke:black; " description="&lt;b&gt;ctg1_1925&lt;/b&gt;&lt;br&gt;ctg1 1925&lt;br&gt;Location: 2079206 - 2080178" locus_tag="ctg1_1925" class="clusterblast-orf" id="dummy-4_q34_0_all"  />
<polygon points="573,40 580,40 585,35 580,30 573,30 573,40 " style="fill:white; stroke-width:1; stroke:black; " description="&lt;b&gt;ctg1_1926&lt;/b&gt;&lt;br&gt;ctg1 1926&lt;br&gt;Location: 2080399 - 2081209" locus_tag="ctg1_1926" class="clusterblast-orf" id="dummy-4_q35_0_all"  />
<polygon points="586,35 591,30 598,30 598,40 591,40 586,35 " style="fill:white; stroke-width:1; stroke:black; " description="&lt;b&gt;ctg1_1927&lt;/b&gt;&lt;br&gt;ctg1 1927&lt;br&gt;Location: 2081276 - 2082128" locus_tag="ctg1_1927" class="clusterblast-orf" id="dummy-4_q36_0_all"  />
<polygon points="601,35 606,30 619,30 619,40 606,40 601,35 " style="fill:white; stroke-width:1; stroke:black; " description="&lt;b&gt;ctg1_1928&lt;/b&gt;&lt;br&gt;ctg1 1928&lt;br&gt;Location: 2082308 - 2083526" locus_tag="ctg1_1928" class="clusterblast-orf" id="dummy-4_q37_0_all"  />
<polygon points="623,40 635,40 640,35 635,30 623,30 623,40 " style="fill:#15d863; stroke-width:1; stroke:black; " description="&lt;b&gt;ctg1_1929&lt;/b&gt;&lt;br&gt;ctg1 1929&lt;br&gt;Location: 2083857 - 2085009" locus_tag="ctg1_1929" class="clusterblast-orf" id="dummy-4_q38_0_all"  />
<polygon points="641,40 654,40 659,35 654,30 641,30 641,40 " style="fill:white; stroke-width:1; stroke:black; " description="&lt;b&gt;ctg1_1930&lt;/b&gt;&lt;br&gt;ctg1 1930&lt;br&gt;Location: 2085070 - 2086321" locus_tag="ctg1_1930" class="clusterblast-orf" id="dummy-4_q39_0_all"  />
<polygon points="662,35 667,30 674,30 674,40 667,40 662,35 " style="fill:white; stroke-width:1; stroke:black; " description="&lt;b&gt;ctg1_1931&lt;/b&gt;&lt;br&gt;ctg1 1931&lt;br&gt;Location: 2086543 - 2087359" locus_tag="ctg1_1931" class="clusterblast-orf" id="dummy-4_q40_0_all"  />
<polygon points="675,35 680,30 692,30 692,40 680,40 675,35 " style="fill:white; stroke-width:1; stroke:black; " description="&lt;b&gt;ctg1_1932&lt;/b&gt;&lt;br&gt;ctg1 1932&lt;br&gt;Location: 2087385 - 2088573" locus_tag="ctg1_1932" class="clusterblast-orf" id="dummy-4_q41_0_all"  />
<polygon points="692,35 697,30 709,30 709,40 697,40 692,35 " style="fill:white; stroke-width:1; stroke:black; " description="&lt;b&gt;ctg1_1933&lt;/b&gt;&lt;br&gt;ctg1 1933&lt;br&gt;Location: 2088599 - 2089754" locus_tag="ctg1_1933" class="clusterblast-orf" id="dummy-4_q42_0_all"  />
<polygon points="710,35 715,30 735,30 735,40 715,40 710,35 " style="fill:white; stroke-width:1; stroke:black; " description="&lt;b&gt;ctg1_1934&lt;/b&gt;&lt;br&gt;ctg1 1934&lt;br&gt;Location: 2089855 - 2091565" locus_tag="ctg1_1934" class="clusterblast-orf" id="dummy-4_q43_0_all"  />
<polygon points="735,35 740,30 752,30 752,40 740,40 735,35 " style="fill:white; stroke-width:1; stroke:black; " description="&lt;b&gt;ctg1_1935&lt;/b&gt;&lt;br&gt;ctg1 1935&lt;br&gt;Location: 2091558 - 2092761" locus_tag="ctg1_1935" class="clusterblast-orf" id="dummy-4_q44_0_all"  />
<polygon points="753,35 758,30 768,30 768,40 758,40 753,35 " style="fill:white; stroke-width:1; stroke:black; " description="&lt;b&gt;ctg1_1936&lt;/b&gt;&lt;br&gt;ctg1 1936&lt;br&gt;Location: 2092783 - 2093821" locus_tag="ctg1_1936" class="clusterblast-orf" id="dummy-4_q45_0_all"  />
<polygon points="769,35 774,30 780,30 780,40 774,40 769,35 " style="fill:white; stroke-width:1; stroke:black; " description="&lt;b&gt;ctg1_1937&lt;/b&gt;&lt;br&gt;ctg1 1937&lt;br&gt;Location: 2093912 - 2094635" locus_tag="ctg1_1937" class="clusterblast-orf" id="dummy-4_q46_0_all"  />
</g>
<g label="MGC0000004" description="MGC0000004_c1: Aromatic amino acid reductive branch C. sporogenes (16% of genes show similarity), AAA" class="clusterblast-cluster"  >
<text x="5" y="70" class="clusterblast-acc"  >
MGC0000004_c1: Aromatic amino acid reductive branch C. sporogenes (16% of genes show similarity), AAA</text>
<line x1="10" y1="85" x2="778.0" y2="85" style="stroke-width:1; stroke:grey; "  />
</g>
<g id="a4_000"  >
<polygon points="278,90 287,90 292,85 287,80 278,80 278,90 " style="fill:white; stroke-width:1; stroke:black; " description="&lt;b&gt;CLOSPO_00317&lt;/b&gt;&lt;br&gt;(R)-2-hydroxyisocaproate dehydrogenase&lt;br&gt;Location: 15396 - 14391" locus_tag="CLOSPO_00317" class="clusterblast-orf" id="dummy-4_h4_2_0"  />
</g>
<g id="a4_001"  >
<polygon points="295,85 300,80 310,80 310,90 300,90 295,85 " style="fill:white; stroke-width:1; stroke:black; " description="&lt;b&gt;CLOSPO_00316&lt;/b&gt;&lt;br&gt;4-phosphoerythronate dehydrogenase&lt;br&gt;Location: 14198 - 13202" locus_tag="CLOSPO_00316" class="clusterblast-orf" id="dummy-4_h4_2_1"  />
</g>
<g id="a4_002"  >
<polygon points="319,85 324,80 336,80 336,90 324,90 319,85 " style="fill:white; stroke-width:1; stroke:black; " description="&lt;b&gt;CLOSPO_00315&lt;/b&gt;&lt;br&gt;hypothetical protein&lt;br&gt;Location: 12572 - 11366" locus_tag="CLOSPO_00315" class="clusterblast-orf" id="dummy-4_h4_2_2"  />
</g>
<g id="a4_003"  >
<polygon points="339,85 344,80 356,80 356,90 344,90 339,85 " style="fill:white; stroke-width:1; stroke:black; " description="&lt;b&gt;CLOSPO_00314&lt;/b&gt;&lt;br&gt;electron transfer flavoprotein FAD-binding domain protein&lt;br&gt;Location: 11179 - 9982" locus_tag="CLOSPO_00314" class="clusterblast-orf" id="dummy-4_h4_2_3"  />
</g>
<g id="a4_004"  >
<polygon points="357,85 362,80 368,80 368,90 362,90 357,85 " style="fill:white; stroke-width:1; stroke:black; " description="&lt;b&gt;CLOSPO_00313&lt;/b&gt;&lt;br&gt;electron transfer flavoprotein domain protein&lt;br&gt;Location: 9965 - 9161" locus_tag="CLOSPO_00313" class="clusterblast-orf" id="dummy-4_h4_2_4"  />
</g>
<g id="a4_005"  >
<polygon points="368,85 373,80 385,80 385,90 373,90 368,85 " style="fill:#15d863; stroke-width:1; stroke:black; " description="&lt;b&gt;CLOSPO_00312&lt;/b&gt;&lt;br&gt;acyl-CoA dehydrogenase, C-terminal domain protein&lt;br&gt;Location: 9158 - 8024&lt;br&gt;&lt;br&gt;&lt;b&gt;BlastP hit with ctg1_1918&lt;/b&gt;&lt;br&gt;Percentage identity: 42&lt;br&gt;Percentage coverage: 95&lt;br&gt;BLAST bit score: 293&lt;br&gt;E-value: 1.19e-98&lt;br&gt;&lt;br&gt;&lt;b&gt;BlastP hit with ctg1_1929&lt;/b&gt;&lt;br&gt;Percentage identity: 42&lt;br&gt;Percentage coverage: 96&lt;br&gt;BLAST bit score: 285&lt;br&gt;E-value: 1.67e-95" locus_tag="CLOSPO_00312" class="clusterblast-orf" id="dummy-4_h4_2_5"  />
</g>
<g id="a4_006"  >
<polygon points="387,85 392,80 404,80 404,90 392,90 387,85 " style="fill:white; stroke-width:1; stroke:black; " description="&lt;b&gt;CLOSPO_00311&lt;/b&gt;&lt;br&gt;R-phenyllactate dehydratase, small subunit&lt;br&gt;Location: 7857 - 6732" locus_tag="CLOSPO_00311" class="clusterblast-orf" id="dummy-4_h4_2_6"  />
</g>
<g id="a4_007"  >
<polygon points="404,85 409,80 422,80 422,90 409,90 404,85 " style="fill:white; stroke-width:1; stroke:black; " description="&lt;b&gt;CLOSPO_00310&lt;/b&gt;&lt;br&gt;R-phenyllactate dehydratase, medium subunit&lt;br&gt;Location: 6731 - 5474" locus_tag="CLOSPO_00310" class="clusterblast-orf" id="dummy-4_h4_2_7"  />
</g>
<g id="a4_008"  >
<polygon points="421,85 426,80 433,80 433,90 426,90 421,85 " style="fill:white; stroke-width:1; stroke:black; " description="&lt;b&gt;CLOSPO_00309&lt;/b&gt;&lt;br&gt;R-phenyllactate dehydratase activator&lt;br&gt;Location: 5503 - 4708" locus_tag="CLOSPO_00309" class="clusterblast-orf" id="dummy-4_h4_2_8"  />
</g>
<g id="a4_009"  >
<polygon points="433,85 438,80 451,80 451,90 438,90 433,85 " style="fill:white; stroke-width:1; stroke:black; " description="&lt;b&gt;CLOSPO_00308&lt;/b&gt;&lt;br&gt;cinnamoyl-CoA:phenyllactate CoA-transferase&lt;br&gt;Location: 4703 - 3470" locus_tag="CLOSPO_00308" class="clusterblast-orf" id="dummy-4_h4_2_9"  />
</g>
<g id="a4_0010"  >
<polygon points="452,85 457,80 475,80 475,90 457,90 452,85 " style="fill:#d81515; stroke-width:1; stroke:black; " description="&lt;b&gt;CLOSPO_00307&lt;/b&gt;&lt;br&gt;AMP-binding enzyme&lt;br&gt;Location: 3416 - 1784&lt;br&gt;&lt;br&gt;&lt;b&gt;BlastP hit with ctg1_1901&lt;/b&gt;&lt;br&gt;Percentage identity: 37&lt;br&gt;Percentage coverage: 97&lt;br&gt;BLAST bit score: 403&lt;br&gt;E-value: 8.06e-137" locus_tag="CLOSPO_00307" class="clusterblast-orf" id="dummy-4_h4_2_10"  />
</g>
<g id="a4_0011"  >
<polygon points="482,85 487,80 501,80 501,90 487,90 482,85 " style="fill:white; stroke-width:1; stroke:black; " description="&lt;b&gt;CLOSPO_00306&lt;/b&gt;&lt;br&gt;branched-chain amino acid transport system II carrier protein&lt;br&gt;Location: 1323 - 0" locus_tag="CLOSPO_00306" class="clusterblast-orf" id="dummy-4_h4_2_11"  />
</g>
</svg>
