<svg xmlns="http://www.w3.org/2000/svg" xmlns:xlink="http://www.w3.org/1999/xlink" version="1.1" x="0" y="0" height="100" width="800" viewBox="0 0 800 100" preserveAspectRatio="none"  >
<g label="Query sequence" class="clusterblast-cluster"  >
<text x="5" y="20" class="clusterblast-acc"  >
Query sequence</text>
<line x1="10" y1="35" x2="778.0" y2="35" style="stroke-width:1; stroke:grey; "  />
<polygon points="0,35 5,30 16,30 16,40 5,40 0,35 " style="fill:white; stroke-width:1; stroke:black; " description="&lt;b&gt;ctg1_3498&lt;/b&gt;&lt;br&gt;ctg1 3498&lt;br&gt;Location: 3773462 - 3774011" locus_tag="ctg1_3498" class="clusterblast-orf" id="knownclusterblast-8_q0_0_all"  />
<polygon points="17,35 22,30 36,30 36,40 22,40 17,35 " style="fill:white; stroke-width:1; stroke:black; " description="&lt;b&gt;ctg1_3499&lt;/b&gt;&lt;br&gt;ctg1 3499&lt;br&gt;Location: 3774028 - 3774661" locus_tag="ctg1_3499" class="clusterblast-orf" id="knownclusterblast-8_q1_0_all"  />
<polygon points="36,35 41,30 75,30 75,40 41,40 36,35 " style="fill:white; stroke-width:1; stroke:black; " description="&lt;b&gt;ctg1_3500&lt;/b&gt;&lt;br&gt;ctg1 3500&lt;br&gt;Location: 3774647 - 3775955" locus_tag="ctg1_3500" class="clusterblast-orf" id="knownclusterblast-8_q2_0_all"  />
<polygon points="86,40 123,40 128,35 123,30 86,30 86,40 " style="fill:white; stroke-width:1; stroke:black; " description="&lt;b&gt;ctg1_3501&lt;/b&gt;&lt;br&gt;ctg1 3501&lt;br&gt;Location: 3776313 - 3777702" locus_tag="ctg1_3501" class="clusterblast-orf" id="knownclusterblast-8_q3_0_all"  />
<polygon points="133,40 148,40 153,35 148,30 133,30 133,40 " style="fill:white; stroke-width:1; stroke:black; " description="&lt;b&gt;ctg1_3502&lt;/b&gt;&lt;br&gt;ctg1 3502&lt;br&gt;Location: 3777864 - 3778548" locus_tag="ctg1_3502" class="clusterblast-orf" id="knownclusterblast-8_q4_0_all"  />
<polygon points="158,40 191,40 196,35 191,30 158,30 158,40 " style="fill:white; stroke-width:1; stroke:black; " description="&lt;b&gt;ctg1_3503&lt;/b&gt;&lt;br&gt;ctg1 3503&lt;br&gt;Location: 3778690 - 3779956" locus_tag="ctg1_3503" class="clusterblast-orf" id="knownclusterblast-8_q5_0_all"  />
<polygon points="197,35 202,30 230,30 230,40 202,40 197,35 " style="fill:white; stroke-width:1; stroke:black; " description="&lt;b&gt;ctg1_3504&lt;/b&gt;&lt;br&gt;ctg1 3504&lt;br&gt;Location: 3779988 - 3781101" locus_tag="ctg1_3504" class="clusterblast-orf" id="knownclusterblast-8_q6_0_all"  />
<polygon points="241,40 259,40 264,35 259,30 241,30 241,40 " style="fill:#d81515; stroke-width:1; stroke:black; " description="&lt;b&gt;ctg1_3505&lt;/b&gt;&lt;br&gt;ctg1 3505&lt;br&gt;Location: 3781452 - 3782205" locus_tag="ctg1_3505" class="clusterblast-orf" id="knownclusterblast-8_q7_0_all"  />
<polygon points="264,40 276,40 281,35 276,30 264,30 264,40 " style="fill:white; stroke-width:1; stroke:black; " description="&lt;b&gt;ctg1_3506&lt;/b&gt;&lt;br&gt;ctg1 3506&lt;br&gt;Location: 3782201 - 3782777" locus_tag="ctg1_3506" class="clusterblast-orf" id="knownclusterblast-8_q8_0_all"  />
<polygon points="288,40 334,40 339,35 334,30 288,30 288,40 " style="fill:#15d863; stroke-width:1; stroke:black; " description="&lt;b&gt;ctg1_3507&lt;/b&gt;&lt;br&gt;ctg1 3507&lt;br&gt;Location: 3783028 - 3784705" locus_tag="ctg1_3507" class="clusterblast-orf" id="knownclusterblast-8_q9_0_all"  />
<polygon points="342,40 383,40 388,35 383,30 342,30 342,40 " style="fill:#1563d8; stroke-width:1; stroke:black; " description="&lt;b&gt;ctg1_3508&lt;/b&gt;&lt;br&gt;ctg1 3508&lt;br&gt;Location: 3784792 - 3786331" locus_tag="ctg1_3508" class="clusterblast-orf" id="knownclusterblast-8_q10_0_all"  />
<polygon points="390,40 428,40 433,35 428,30 390,30 390,40 " style="fill:white; stroke-width:1; stroke:black; " description="&lt;b&gt;ctg1_3509&lt;/b&gt;&lt;br&gt;ctg1 3509&lt;br&gt;Location: 3786395 - 3787808" locus_tag="ctg1_3509" class="clusterblast-orf" id="knownclusterblast-8_q11_0_all"  />
<polygon points="434,40 466,40 471,35 466,30 434,30 434,40 " style="fill:#b115d8; stroke-width:1; stroke:black; " description="&lt;b&gt;ctg1_3510&lt;/b&gt;&lt;br&gt;ctg1 3510&lt;br&gt;Location: 3787859 - 3789065" locus_tag="ctg1_3510" class="clusterblast-orf" id="knownclusterblast-8_q12_0_all"  />
<polygon points="470,40 494,40 499,35 494,30 470,30 470,40 " style="fill:#b1d815; stroke-width:1; stroke:black; " description="&lt;b&gt;ctg1_3511&lt;/b&gt;&lt;br&gt;ctg1 3511&lt;br&gt;Location: 3789042 - 3789996" locus_tag="ctg1_3511" class="clusterblast-orf" id="knownclusterblast-8_q13_0_all"  />
<polygon points="506,40 557,40 562,35 557,30 506,30 506,40 " style="fill:white; stroke-width:1; stroke:black; " description="&lt;b&gt;ctg1_3512&lt;/b&gt;&lt;br&gt;ctg1 3512&lt;br&gt;Location: 3790249 - 3792076" locus_tag="ctg1_3512" class="clusterblast-orf" id="knownclusterblast-8_q14_0_all"  />
<polygon points="565,40 579,40 584,35 579,30 565,30 565,40 " style="fill:white; stroke-width:1; stroke:black; " description="&lt;b&gt;ctg1_3513&lt;/b&gt;&lt;br&gt;ctg1 3513&lt;br&gt;Location: 3792180 - 3792819" locus_tag="ctg1_3513" class="clusterblast-orf" id="knownclusterblast-8_q15_0_all"  />
<polygon points="585,40 604,40 609,35 604,30 585,30 585,40 " style="fill:white; stroke-width:1; stroke:black; " description="&lt;b&gt;ctg1_3514&lt;/b&gt;&lt;br&gt;ctg1 3514&lt;br&gt;Location: 3792842 - 3793643" locus_tag="ctg1_3514" class="clusterblast-orf" id="knownclusterblast-8_q16_0_all"  />
<polygon points="611,35 616,30 667,30 667,40 616,40 611,35 " style="fill:white; stroke-width:1; stroke:black; " description="&lt;b&gt;ctg1_3515&lt;/b&gt;&lt;br&gt;ctg1 3515&lt;br&gt;Location: 3793728 - 3795567" locus_tag="ctg1_3515" class="clusterblast-orf" id="knownclusterblast-8_q17_0_all"  />
<polygon points="667,35 672,30 708,30 708,40 672,40 667,35 " style="fill:white; stroke-width:1; stroke:black; " description="&lt;b&gt;ctg1_3516&lt;/b&gt;&lt;br&gt;ctg1 3516&lt;br&gt;Location: 3795579 - 3796944" locus_tag="ctg1_3516" class="clusterblast-orf" id="knownclusterblast-8_q18_0_all"  />
<polygon points="709,35 714,30 724,30 724,40 714,40 709,35 " style="fill:white; stroke-width:1; stroke:black; " description="&lt;b&gt;ctg1_3517&lt;/b&gt;&lt;br&gt;ctg1 3517&lt;br&gt;Location: 3796960 - 3797476" locus_tag="ctg1_3517" class="clusterblast-orf" id="knownclusterblast-8_q19_0_all"  />
<polygon points="724,35 729,30 751,30 751,40 729,40 724,35 " style="fill:white; stroke-width:1; stroke:black; " description="&lt;b&gt;ctg1_3518&lt;/b&gt;&lt;br&gt;ctg1 3518&lt;br&gt;Location: 3797453 - 3798371" locus_tag="ctg1_3518" class="clusterblast-orf" id="knownclusterblast-8_q20_0_all"  />
<polygon points="752,35 757,30 765,30 765,40 757,40 752,35 " style="fill:white; stroke-width:1; stroke:black; " description="&lt;b&gt;ctg1_3519&lt;/b&gt;&lt;br&gt;ctg1 3519&lt;br&gt;Location: 3798386 - 3798836" locus_tag="ctg1_3519" class="clusterblast-orf" id="knownclusterblast-8_q21_0_all"  />
<polygon points="766,35 771,30 780,30 780,40 771,40 766,35 " style="fill:white; stroke-width:1; stroke:black; " description="&lt;b&gt;ctg1_3520&lt;/b&gt;&lt;br&gt;ctg1 3520&lt;br&gt;Location: 3798839 - 3799310" locus_tag="ctg1_3520" class="clusterblast-orf" id="knownclusterblast-8_q22_0_all"  />
</g>
<g label="MGC00000029" description="MGC00000029_c1: Histidine to glutamate K. pneumoniae (100% of genes show similarity), GLU" class="clusterblast-cluster"  >
<text x="5" y="70" class="clusterblast-acc"  >
MGC00000029_c1: Histidine to glutamate K. pneumoniae (100% of genes show similarity), GLU</text>
<line x1="10" y1="85" x2="778.0" y2="85" style="stroke-width:1; stroke:grey; "  />
</g>
<g id="a8_000"  >
<polygon points="294,90 326,90 331,85 326,80 294,80 294,90 " style="fill:#b115d8; stroke-width:1; stroke:black; " description="&lt;b&gt;KPN_RS04270&lt;/b&gt;&lt;br&gt;imidazolonepropionase&lt;br&gt;Location: 10000 - 11218&lt;br&gt;&lt;br&gt;&lt;b&gt;BlastP hit with ctg1_3510&lt;/b&gt;&lt;br&gt;Percentage identity: 54&lt;br&gt;Percentage coverage: 99&lt;br&gt;BLAST bit score: 401&lt;br&gt;E-value: 1.91e-140" locus_tag="KPN_RS04270" class="clusterblast-orf" id="knownclusterblast-8_all_8_1_0"  />
</g>
<g id="a8_001"  >
<polygon points="331,90 355,90 360,85 355,80 331,80 331,90 " style="fill:#b1d815; stroke-width:1; stroke:black; " description="&lt;b&gt;KPN_RS04275&lt;/b&gt;&lt;br&gt;formimidoylglutamase&lt;br&gt;Location: 11214 - 12171&lt;br&gt;&lt;br&gt;&lt;b&gt;BlastP hit with ctg1_3511&lt;/b&gt;&lt;br&gt;Percentage identity: 43&lt;br&gt;Percentage coverage: 96&lt;br&gt;BLAST bit score: 210&lt;br&gt;E-value: 4.49e-68" locus_tag="KPN_RS04275" class="clusterblast-orf" id="knownclusterblast-8_all_8_1_1"  />
</g>
<g id="a8_002"  >
<polygon points="362,90 379,90 384,85 379,80 362,80 362,90 " style="fill:#d81515; stroke-width:1; stroke:black; " description="&lt;b&gt;KPN_RS04280&lt;/b&gt;&lt;br&gt;histidine utilization repressor&lt;br&gt;Location: 12232 - 12958&lt;br&gt;&lt;br&gt;&lt;b&gt;BlastP hit with ctg1_3505&lt;/b&gt;&lt;br&gt;Percentage identity: 59&lt;br&gt;Percentage coverage: 92&lt;br&gt;BLAST bit score: 286&lt;br&gt;E-value: 4.47e-100" locus_tag="KPN_RS04280" class="clusterblast-orf" id="knownclusterblast-8_all_8_1_2"  />
</g>
<g id="a8_003"  >
<polygon points="388,90 434,90 439,85 434,80 388,80 388,90 " style="fill:#15d863; stroke-width:1; stroke:black; " description="&lt;b&gt;KPN_RS04285&lt;/b&gt;&lt;br&gt;urocanate hydratase&lt;br&gt;Location: 13100 - 14789&lt;br&gt;&lt;br&gt;&lt;b&gt;BlastP hit with ctg1_3507&lt;/b&gt;&lt;br&gt;Percentage identity: 88&lt;br&gt;Percentage coverage: 99&lt;br&gt;BLAST bit score: 993&lt;br&gt;E-value: 0.0" locus_tag="KPN_RS04285" class="clusterblast-orf" id="knownclusterblast-8_all_8_1_3"  />
</g>
<g id="a8_004"  >
<polygon points="439,90 480,90 485,85 480,80 439,80 439,90 " style="fill:#1563d8; stroke-width:1; stroke:black; " description="&lt;b&gt;KPN_RS04290&lt;/b&gt;&lt;br&gt;histidine ammonia-lyase&lt;br&gt;Location: 14785 - 16312&lt;br&gt;&lt;br&gt;&lt;b&gt;BlastP hit with ctg1_3508&lt;/b&gt;&lt;br&gt;Percentage identity: 76&lt;br&gt;Percentage coverage: 97&lt;br&gt;BLAST bit score: 732&lt;br&gt;E-value: 1.71e-267" locus_tag="KPN_RS04290" class="clusterblast-orf" id="knownclusterblast-8_all_8_1_4"  />
</g>
</svg>
