<svg xmlns="http://www.w3.org/2000/svg" xmlns:xlink="http://www.w3.org/1999/xlink" version="1.1" x="0" y="0" height="50" width="800" viewBox="0 0 800 50" preserveAspectRatio="none"  >
<g label="Query sequence" class="clusterblast-cluster"  >
<text x="5" y="20" class="clusterblast-acc"  >
Query sequence</text>
<line x1="10" y1="35" x2="778.0" y2="35" style="stroke-width:1; stroke:grey; "  />
<polygon points="0,35 5,30 15,30 15,40 5,40 0,35 " style="fill:white; stroke-width:1; stroke:black; " description="&lt;b&gt;ctg1_359&lt;/b&gt;&lt;br&gt;ctg1 359&lt;br&gt;Location: 375480 - 376122" locus_tag="ctg1_359" class="clusterblast-orf" id="knownclusterblast-1_q0_0_all"  />
<polygon points="24,40 82,40 87,35 82,30 24,30 24,40 " style="fill:white; stroke-width:1; stroke:black; " description="&lt;b&gt;ctg1_360&lt;/b&gt;&lt;br&gt;ctg1 360&lt;br&gt;Location: 376529 - 379253" locus_tag="ctg1_360" class="clusterblast-orf" id="knownclusterblast-1_q1_0_all"  />
<polygon points="90,40 95,40 100,35 95,30 90,30 90,40 " style="fill:white; stroke-width:1; stroke:black; " description="&lt;b&gt;ctg1_361&lt;/b&gt;&lt;br&gt;ctg1 361&lt;br&gt;Location: 379383 - 379827" locus_tag="ctg1_361" class="clusterblast-orf" id="knownclusterblast-1_q2_0_all"  />
<polygon points="102,35 107,30 132,30 132,40 107,40 102,35 " style="fill:white; stroke-width:1; stroke:black; " description="&lt;b&gt;ctg1_362&lt;/b&gt;&lt;br&gt;ctg1 362&lt;br&gt;Location: 379893 - 381204" locus_tag="ctg1_362" class="clusterblast-orf" id="knownclusterblast-1_q3_0_all"  />
<polygon points="135,35 140,30 150,30 150,40 140,40 135,35 " style="fill:white; stroke-width:1; stroke:black; " description="&lt;b&gt;ctg1_363&lt;/b&gt;&lt;br&gt;ctg1 363&lt;br&gt;Location: 381338 - 381968" locus_tag="ctg1_363" class="clusterblast-orf" id="knownclusterblast-1_q4_0_all"  />
<polygon points="152,40 171,40 176,35 171,30 152,30 152,40 " style="fill:white; stroke-width:1; stroke:black; " description="&lt;b&gt;ctg1_364&lt;/b&gt;&lt;br&gt;ctg1 364&lt;br&gt;Location: 382079 - 383117" locus_tag="ctg1_364" class="clusterblast-orf" id="knownclusterblast-1_q5_0_all"  />
<polygon points="177,40 181,35 177,30 177,40 " style="fill:white; stroke-width:1; stroke:black; " description="&lt;b&gt;ctg1_365&lt;/b&gt;&lt;br&gt;ctg1 365&lt;br&gt;Location: 383159 - 383318" locus_tag="ctg1_365" class="clusterblast-orf" id="knownclusterblast-1_q6_0_all"  />
<polygon points="181,40 186,40 191,35 186,30 181,30 181,40 " style="fill:white; stroke-width:1; stroke:black; " description="&lt;b&gt;ctg1_366&lt;/b&gt;&lt;br&gt;ctg1 366&lt;br&gt;Location: 383330 - 383750" locus_tag="ctg1_366" class="clusterblast-orf" id="knownclusterblast-1_q7_0_all"  />
<polygon points="192,35 197,30 212,30 212,40 197,40 192,35 " style="fill:white; stroke-width:1; stroke:black; " description="&lt;b&gt;ctg1_367&lt;/b&gt;&lt;br&gt;ctg1 367&lt;br&gt;Location: 383779 - 384640" locus_tag="ctg1_367" class="clusterblast-orf" id="knownclusterblast-1_q8_0_all"  />
<polygon points="212,35 217,30 218,30 218,40 217,40 212,35 " style="fill:white; stroke-width:1; stroke:black; " description="&lt;b&gt;ctg1_368&lt;/b&gt;&lt;br&gt;ctg1 368&lt;br&gt;Location: 384655 - 384910" locus_tag="ctg1_368" class="clusterblast-orf" id="knownclusterblast-1_q9_0_all"  />
<polygon points="222,35 227,30 271,30 271,40 227,40 222,35 " style="fill:white; stroke-width:1; stroke:black; " description="&lt;b&gt;ctg1_369&lt;/b&gt;&lt;br&gt;ctg1 369&lt;br&gt;Location: 385074 - 387210" locus_tag="ctg1_369" class="clusterblast-orf" id="knownclusterblast-1_q10_0_all"  />
<polygon points="272,35 277,30 299,30 299,40 277,40 272,35 " style="fill:white; stroke-width:1; stroke:black; " description="&lt;b&gt;ctg1_370&lt;/b&gt;&lt;br&gt;ctg1 370&lt;br&gt;Location: 387230 - 388436" locus_tag="ctg1_370" class="clusterblast-orf" id="knownclusterblast-1_q11_0_all"  />
<polygon points="303,35 308,30 327,30 327,40 308,40 303,35 " style="fill:white; stroke-width:1; stroke:black; " description="&lt;b&gt;ctg1_371&lt;/b&gt;&lt;br&gt;ctg1 371&lt;br&gt;Location: 388606 - 389617" locus_tag="ctg1_371" class="clusterblast-orf" id="knownclusterblast-1_q12_0_all"  />
<polygon points="332,40 353,40 358,35 353,30 332,30 332,40 " style="fill:white; stroke-width:1; stroke:black; " description="&lt;b&gt;ctg1_372&lt;/b&gt;&lt;br&gt;ctg1 372&lt;br&gt;Location: 389827 - 390946" locus_tag="ctg1_372" class="clusterblast-orf" id="knownclusterblast-1_q13_0_all"  />
<polygon points="361,40 385,40 390,35 385,30 361,30 361,40 " style="fill:white; stroke-width:1; stroke:black; " description="&lt;b&gt;ctg1_373&lt;/b&gt;&lt;br&gt;ctg1 373&lt;br&gt;Location: 391080 - 392334" locus_tag="ctg1_373" class="clusterblast-orf" id="knownclusterblast-1_q14_0_all"  />
<polygon points="394,40 444,40 449,35 444,30 394,30 394,40 " style="fill:white; stroke-width:1; stroke:black; " description="&lt;b&gt;ctg1_374&lt;/b&gt;&lt;br&gt;ctg1 374&lt;br&gt;Location: 392507 - 394913" locus_tag="ctg1_374" class="clusterblast-orf" id="knownclusterblast-1_q15_0_all"  />
<polygon points="453,40 486,40 491,35 486,30 453,30 453,40 " style="fill:white; stroke-width:1; stroke:black; " description="&lt;b&gt;ctg1_375&lt;/b&gt;&lt;br&gt;ctg1 375&lt;br&gt;Location: 395079 - 396723" locus_tag="ctg1_375" class="clusterblast-orf" id="knownclusterblast-1_q16_0_all"  />
<polygon points="491,40 497,40 502,35 497,30 491,30 491,40 " style="fill:white; stroke-width:1; stroke:black; " description="&lt;b&gt;ctg1_376&lt;/b&gt;&lt;br&gt;ctg1 376&lt;br&gt;Location: 396715 - 397201" locus_tag="ctg1_376" class="clusterblast-orf" id="knownclusterblast-1_q17_0_all"  />
<polygon points="504,40 507,40 512,35 507,30 504,30 504,40 " style="fill:white; stroke-width:1; stroke:black; " description="&lt;b&gt;ctg1_377&lt;/b&gt;&lt;br&gt;ctg1 377&lt;br&gt;Location: 397282 - 397636" locus_tag="ctg1_377" class="clusterblast-orf" id="knownclusterblast-1_q18_0_all"  />
<polygon points="513,35 518,30 524,30 524,40 518,40 513,35 " style="fill:white; stroke-width:1; stroke:black; " description="&lt;b&gt;ctg1_378&lt;/b&gt;&lt;br&gt;ctg1 378&lt;br&gt;Location: 397678 - 398122" locus_tag="ctg1_378" class="clusterblast-orf" id="knownclusterblast-1_q19_0_all"  />
<polygon points="526,35 531,30 554,30 554,40 531,40 526,35 " style="fill:white; stroke-width:1; stroke:black; " description="&lt;b&gt;ctg1_379&lt;/b&gt;&lt;br&gt;ctg1 379&lt;br&gt;Location: 398248 - 399424" locus_tag="ctg1_379" class="clusterblast-orf" id="knownclusterblast-1_q20_0_all"  />
<polygon points="556,35 561,30 568,30 568,40 561,40 556,35 " style="fill:white; stroke-width:1; stroke:black; " description="&lt;b&gt;ctg1_380&lt;/b&gt;&lt;br&gt;ctg1 380&lt;br&gt;Location: 399532 - 400048" locus_tag="ctg1_380" class="clusterblast-orf" id="knownclusterblast-1_q21_0_all"  />
<polygon points="577,40 597,40 602,35 597,30 577,30 577,40 " style="fill:white; stroke-width:1; stroke:black; " description="&lt;b&gt;ctg1_381&lt;/b&gt;&lt;br&gt;ctg1 381&lt;br&gt;Location: 400429 - 401500" locus_tag="ctg1_381" class="clusterblast-orf" id="knownclusterblast-1_q22_0_all"  />
<polygon points="604,35 608,30 608,40 604,35 " style="fill:white; stroke-width:1; stroke:black; " description="&lt;b&gt;ctg1_382&lt;/b&gt;&lt;br&gt;ctg1 382&lt;br&gt;Location: 401623 - 401782" locus_tag="ctg1_382" class="clusterblast-orf" id="knownclusterblast-1_q23_0_all"  />
<polygon points="608,35 613,30 636,30 636,40 613,40 608,35 " style="fill:white; stroke-width:1; stroke:black; " description="&lt;b&gt;ctg1_383&lt;/b&gt;&lt;br&gt;ctg1 383&lt;br&gt;Location: 401785 - 402991" locus_tag="ctg1_383" class="clusterblast-orf" id="knownclusterblast-1_q24_0_all"  />
<polygon points="643,35 648,30 676,30 676,40 648,40 643,35 " style="fill:white; stroke-width:1; stroke:black; " description="&lt;b&gt;ctg1_384&lt;/b&gt;&lt;br&gt;ctg1 384&lt;br&gt;Location: 403267 - 404728" locus_tag="ctg1_384" class="clusterblast-orf" id="knownclusterblast-1_q25_0_all"  />
<polygon points="677,35 682,30 700,30 700,40 682,40 677,35 " style="fill:white; stroke-width:1; stroke:black; " description="&lt;b&gt;ctg1_385&lt;/b&gt;&lt;br&gt;ctg1 385&lt;br&gt;Location: 404749 - 405763" locus_tag="ctg1_385" class="clusterblast-orf" id="knownclusterblast-1_q26_0_all"  />
<polygon points="702,35 707,30 733,30 733,40 707,40 702,35 " style="fill:white; stroke-width:1; stroke:black; " description="&lt;b&gt;ctg1_386&lt;/b&gt;&lt;br&gt;ctg1 386&lt;br&gt;Location: 405825 - 407184" locus_tag="ctg1_386" class="clusterblast-orf" id="knownclusterblast-1_q27_0_all"  />
<polygon points="737,40 775,40 780,35 775,30 737,30 737,40 " style="fill:white; stroke-width:1; stroke:black; " description="&lt;b&gt;ctg1_387&lt;/b&gt;&lt;br&gt;ctg1 387&lt;br&gt;Location: 407362 - 409198" locus_tag="ctg1_387" class="clusterblast-orf" id="knownclusterblast-1_q28_0_all"  />
</g>
</svg>
