<svg xmlns="http://www.w3.org/2000/svg" xmlns:xlink="http://www.w3.org/1999/xlink" version="1.1" x="0" y="0" height="50" width="800" viewBox="0 0 800 50" preserveAspectRatio="none"  >
<g label="Query sequence" class="clusterblast-cluster"  >
<text x="5" y="20" class="clusterblast-acc"  >
Query sequence</text>
<line x1="10" y1="35" x2="778.0" y2="35" style="stroke-width:1; stroke:grey; "  />
<polygon points="0,35 5,30 28,30 28,40 5,40 0,35 " style="fill:white; stroke-width:1; stroke:black; " description="&lt;b&gt;ctg1_2474&lt;/b&gt;&lt;br&gt;ctg1 2474&lt;br&gt;Location: 2656778 - 2658410" locus_tag="ctg1_2474" class="clusterblast-orf" id="knownclusterblast-5_q0_0_all"  />
<polygon points="36,40 95,40 100,35 95,30 36,30 36,40 " style="fill:white; stroke-width:1; stroke:black; " description="&lt;b&gt;ctg1_2475&lt;/b&gt;&lt;br&gt;ctg1 2475&lt;br&gt;Location: 2658872 - 2662559" locus_tag="ctg1_2475" class="clusterblast-orf" id="knownclusterblast-5_q1_0_all"  />
<polygon points="102,35 107,30 119,30 119,40 107,40 102,35 " style="fill:white; stroke-width:1; stroke:black; " description="&lt;b&gt;ctg1_2476&lt;/b&gt;&lt;br&gt;ctg1 2476&lt;br&gt;Location: 2662638 - 2663643" locus_tag="ctg1_2476" class="clusterblast-orf" id="knownclusterblast-5_q2_0_all"  />
<polygon points="120,35 125,30 134,30 134,40 125,40 120,35 " style="fill:white; stroke-width:1; stroke:black; " description="&lt;b&gt;ctg1_2477&lt;/b&gt;&lt;br&gt;ctg1 2477&lt;br&gt;Location: 2663653 - 2664505" locus_tag="ctg1_2477" class="clusterblast-orf" id="knownclusterblast-5_q3_0_all"  />
<polygon points="135,35 140,30 158,30 158,40 140,40 135,35 " style="fill:white; stroke-width:1; stroke:black; " description="&lt;b&gt;ctg1_2478&lt;/b&gt;&lt;br&gt;ctg1 2478&lt;br&gt;Location: 2664518 - 2665847" locus_tag="ctg1_2478" class="clusterblast-orf" id="knownclusterblast-5_q4_0_all"  />
<polygon points="159,35 164,30 172,30 172,40 164,40 159,35 " style="fill:white; stroke-width:1; stroke:black; " description="&lt;b&gt;ctg1_2479&lt;/b&gt;&lt;br&gt;ctg1 2479&lt;br&gt;Location: 2665895 - 2666645" locus_tag="ctg1_2479" class="clusterblast-orf" id="knownclusterblast-5_q5_0_all"  />
<polygon points="174,40 185,40 190,35 185,30 174,30 174,40 " style="fill:white; stroke-width:1; stroke:black; " description="&lt;b&gt;ctg1_2480&lt;/b&gt;&lt;br&gt;ctg1 2480&lt;br&gt;Location: 2666799 - 2667705" locus_tag="ctg1_2480" class="clusterblast-orf" id="knownclusterblast-5_q6_0_all"  />
<polygon points="190,35 195,30 198,30 198,40 195,40 190,35 " style="fill:white; stroke-width:1; stroke:black; " description="&lt;b&gt;ctg1_2481&lt;/b&gt;&lt;br&gt;ctg1 2481&lt;br&gt;Location: 2667716 - 2668163" locus_tag="ctg1_2481" class="clusterblast-orf" id="knownclusterblast-5_q7_0_all"  />
<polygon points="202,40 217,40 222,35 217,30 202,30 202,40 " style="fill:white; stroke-width:1; stroke:black; " description="&lt;b&gt;ctg1_2482&lt;/b&gt;&lt;br&gt;ctg1 2482&lt;br&gt;Location: 2668354 - 2669500" locus_tag="ctg1_2482" class="clusterblast-orf" id="knownclusterblast-5_q8_0_all"  />
<polygon points="223,35 228,30 244,30 244,40 228,40 223,35 " style="fill:white; stroke-width:1; stroke:black; " description="&lt;b&gt;ctg1_2483&lt;/b&gt;&lt;br&gt;ctg1 2483&lt;br&gt;Location: 2669567 - 2670788" locus_tag="ctg1_2483" class="clusterblast-orf" id="knownclusterblast-5_q9_0_all"  />
<polygon points="246,40 255,40 260,35 255,30 246,30 246,40 " style="fill:white; stroke-width:1; stroke:black; " description="&lt;b&gt;ctg1_2484&lt;/b&gt;&lt;br&gt;ctg1 2484&lt;br&gt;Location: 2670894 - 2671683" locus_tag="ctg1_2484" class="clusterblast-orf" id="knownclusterblast-5_q10_0_all"  />
<polygon points="259,35 264,30 282,30 282,40 264,40 259,35 " style="fill:white; stroke-width:1; stroke:black; " description="&lt;b&gt;ctg1_2485&lt;/b&gt;&lt;br&gt;ctg1 2485&lt;br&gt;Location: 2671649 - 2672972" locus_tag="ctg1_2485" class="clusterblast-orf" id="knownclusterblast-5_q11_0_all"  />
<polygon points="285,35 290,30 294,30 294,40 290,40 285,35 " style="fill:white; stroke-width:1; stroke:black; " description="&lt;b&gt;ctg1_2486&lt;/b&gt;&lt;br&gt;ctg1 2486&lt;br&gt;Location: 2673150 - 2673633" locus_tag="ctg1_2486" class="clusterblast-orf" id="knownclusterblast-5_q12_0_all"  />
<polygon points="298,40 315,40 320,35 315,30 298,30 298,40 " style="fill:white; stroke-width:1; stroke:black; " description="&lt;b&gt;ctg1_2487&lt;/b&gt;&lt;br&gt;ctg1 2487&lt;br&gt;Location: 2673867 - 2675166" locus_tag="ctg1_2487" class="clusterblast-orf" id="knownclusterblast-5_q13_0_all"  />
<polygon points="321,35 326,30 342,30 342,40 326,40 321,35 " style="fill:white; stroke-width:1; stroke:black; " description="&lt;b&gt;ctg1_2488&lt;/b&gt;&lt;br&gt;ctg1 2488&lt;br&gt;Location: 2675228 - 2676425" locus_tag="ctg1_2488" class="clusterblast-orf" id="knownclusterblast-5_q14_0_all"  />
<polygon points="345,35 350,30 374,30 374,40 350,40 345,35 " style="fill:white; stroke-width:1; stroke:black; " description="&lt;b&gt;ctg1_2489&lt;/b&gt;&lt;br&gt;ctg1 2489&lt;br&gt;Location: 2676580 - 2678221" locus_tag="ctg1_2489" class="clusterblast-orf" id="knownclusterblast-5_q15_0_all"  />
<polygon points="374,35 379,30 400,30 400,40 379,40 374,35 " style="fill:white; stroke-width:1; stroke:black; " description="&lt;b&gt;ctg1_2490&lt;/b&gt;&lt;br&gt;ctg1 2490&lt;br&gt;Location: 2678259 - 2679726" locus_tag="ctg1_2490" class="clusterblast-orf" id="knownclusterblast-5_q16_0_all"  />
<polygon points="400,35 405,30 414,30 414,40 405,40 400,35 " style="fill:white; stroke-width:1; stroke:black; " description="&lt;b&gt;ctg1_2491&lt;/b&gt;&lt;br&gt;ctg1 2491&lt;br&gt;Location: 2679739 - 2680531" locus_tag="ctg1_2491" class="clusterblast-orf" id="knownclusterblast-5_q17_0_all"  />
<polygon points="414,35 419,30 428,30 428,40 419,40 414,35 " style="fill:white; stroke-width:1; stroke:black; " description="&lt;b&gt;ctg1_2492&lt;/b&gt;&lt;br&gt;ctg1 2492&lt;br&gt;Location: 2680546 - 2681341" locus_tag="ctg1_2492" class="clusterblast-orf" id="knownclusterblast-5_q18_0_all"  />
<polygon points="428,35 433,30 443,30 443,40 433,40 428,35 " style="fill:white; stroke-width:1; stroke:black; " description="&lt;b&gt;ctg1_2493&lt;/b&gt;&lt;br&gt;ctg1 2493&lt;br&gt;Location: 2681356 - 2682181" locus_tag="ctg1_2493" class="clusterblast-orf" id="knownclusterblast-5_q19_0_all"  />
<polygon points="443,35 448,30 452,30 452,40 448,40 443,35 " style="fill:white; stroke-width:1; stroke:black; " description="&lt;b&gt;ctg1_2494&lt;/b&gt;&lt;br&gt;ctg1 2494&lt;br&gt;Location: 2682217 - 2682739" locus_tag="ctg1_2494" class="clusterblast-orf" id="knownclusterblast-5_q20_0_all"  />
<polygon points="453,35 458,30 474,30 474,40 458,40 453,35 " style="fill:white; stroke-width:1; stroke:black; " description="&lt;b&gt;ctg1_2495&lt;/b&gt;&lt;br&gt;ctg1 2495&lt;br&gt;Location: 2682762 - 2683986" locus_tag="ctg1_2495" class="clusterblast-orf" id="knownclusterblast-5_q21_0_all"  />
<polygon points="475,35 480,30 496,30 496,40 480,40 475,35 " style="fill:white; stroke-width:1; stroke:black; " description="&lt;b&gt;ctg1_2496&lt;/b&gt;&lt;br&gt;ctg1 2496&lt;br&gt;Location: 2684028 - 2685240" locus_tag="ctg1_2496" class="clusterblast-orf" id="knownclusterblast-5_q22_0_all"  />
<polygon points="497,35 502,30 513,30 513,40 502,40 497,35 " style="fill:white; stroke-width:1; stroke:black; " description="&lt;b&gt;ctg1_2497&lt;/b&gt;&lt;br&gt;ctg1 2497&lt;br&gt;Location: 2685269 - 2686199" locus_tag="ctg1_2497" class="clusterblast-orf" id="knownclusterblast-5_q23_0_all"  />
<polygon points="513,35 518,30 526,30 526,40 518,40 513,35 " style="fill:white; stroke-width:1; stroke:black; " description="&lt;b&gt;ctg1_2498&lt;/b&gt;&lt;br&gt;ctg1 2498&lt;br&gt;Location: 2686210 - 2686975" locus_tag="ctg1_2498" class="clusterblast-orf" id="knownclusterblast-5_q24_0_all"  />
<polygon points="526,35 531,30 545,30 545,40 531,40 526,35 " style="fill:white; stroke-width:1; stroke:black; " description="&lt;b&gt;ctg1_2499&lt;/b&gt;&lt;br&gt;ctg1 2499&lt;br&gt;Location: 2686967 - 2688035" locus_tag="ctg1_2499" class="clusterblast-orf" id="knownclusterblast-5_q25_0_all"  />
<polygon points="545,35 550,30 550,30 550,40 550,40 545,35 " style="fill:white; stroke-width:1; stroke:black; " description="&lt;b&gt;ctg1_2500&lt;/b&gt;&lt;br&gt;ctg1 2500&lt;br&gt;Location: 2688051 - 2688351" locus_tag="ctg1_2500" class="clusterblast-orf" id="knownclusterblast-5_q26_0_all"  />
<polygon points="551,35 556,30 556,30 556,40 556,40 551,35 " style="fill:white; stroke-width:1; stroke:black; " description="&lt;b&gt;ctg1_2501&lt;/b&gt;&lt;br&gt;ctg1 2501&lt;br&gt;Location: 2688378 - 2688684" locus_tag="ctg1_2501" class="clusterblast-orf" id="knownclusterblast-5_q27_0_all"  />
<polygon points="561,40 570,40 575,35 570,30 561,30 561,40 " style="fill:white; stroke-width:1; stroke:black; " description="&lt;b&gt;ctg1_2502&lt;/b&gt;&lt;br&gt;ctg1 2502&lt;br&gt;Location: 2688957 - 2689770" locus_tag="ctg1_2502" class="clusterblast-orf" id="knownclusterblast-5_q28_0_all"  />
<polygon points="576,35 581,30 581,30 581,40 581,40 576,35 " style="fill:white; stroke-width:1; stroke:black; " description="&lt;b&gt;ctg1_2503&lt;/b&gt;&lt;br&gt;ctg1 2503&lt;br&gt;Location: 2689817 - 2690117" locus_tag="ctg1_2503" class="clusterblast-orf" id="knownclusterblast-5_q29_0_all"  />
<polygon points="581,35 586,30 591,30 591,40 586,40 581,35 " style="fill:white; stroke-width:1; stroke:black; " description="&lt;b&gt;ctg1_2504&lt;/b&gt;&lt;br&gt;ctg1 2504&lt;br&gt;Location: 2690131 - 2690713" locus_tag="ctg1_2504" class="clusterblast-orf" id="knownclusterblast-5_q30_0_all"  />
<polygon points="596,40 605,40 610,35 605,30 596,30 596,40 " style="fill:white; stroke-width:1; stroke:black; " description="&lt;b&gt;ctg1_2505&lt;/b&gt;&lt;br&gt;ctg1 2505&lt;br&gt;Location: 2690961 - 2691750" locus_tag="ctg1_2505" class="clusterblast-orf" id="knownclusterblast-5_q31_0_all"  />
<polygon points="611,35 616,30 619,30 619,40 616,40 611,35 " style="fill:white; stroke-width:1; stroke:black; " description="&lt;b&gt;ctg1_2506&lt;/b&gt;&lt;br&gt;ctg1 2506&lt;br&gt;Location: 2691852 - 2692272" locus_tag="ctg1_2506" class="clusterblast-orf" id="knownclusterblast-5_q32_0_all"  />
<polygon points="620,35 625,30 642,30 642,40 625,40 620,35 " style="fill:white; stroke-width:1; stroke:black; " description="&lt;b&gt;ctg1_2507&lt;/b&gt;&lt;br&gt;ctg1 2507&lt;br&gt;Location: 2692354 - 2693614" locus_tag="ctg1_2507" class="clusterblast-orf" id="knownclusterblast-5_q33_0_all"  />
<polygon points="642,35 647,30 677,30 677,40 647,40 642,35 " style="fill:white; stroke-width:1; stroke:black; " description="&lt;b&gt;ctg1_2508&lt;/b&gt;&lt;br&gt;ctg1 2508&lt;br&gt;Location: 2693627 - 2695622" locus_tag="ctg1_2508" class="clusterblast-orf" id="knownclusterblast-5_q34_0_all"  />
<polygon points="681,35 686,30 687,30 687,40 686,40 681,35 " style="fill:white; stroke-width:1; stroke:black; " description="&lt;b&gt;ctg1_2509&lt;/b&gt;&lt;br&gt;ctg1 2509&lt;br&gt;Location: 2695858 - 2696200" locus_tag="ctg1_2509" class="clusterblast-orf" id="knownclusterblast-5_q35_0_all"  />
<polygon points="689,35 694,30 698,30 698,40 694,40 689,35 " style="fill:white; stroke-width:1; stroke:black; " description="&lt;b&gt;ctg1_2510&lt;/b&gt;&lt;br&gt;ctg1 2510&lt;br&gt;Location: 2696286 - 2696817" locus_tag="ctg1_2510" class="clusterblast-orf" id="knownclusterblast-5_q36_0_all"  />
<polygon points="701,40 718,40 723,35 718,30 701,30 701,40 " style="fill:white; stroke-width:1; stroke:black; " description="&lt;b&gt;ctg1_2511&lt;/b&gt;&lt;br&gt;ctg1 2511&lt;br&gt;Location: 2697005 - 2698268" locus_tag="ctg1_2511" class="clusterblast-orf" id="knownclusterblast-5_q37_0_all"  />
<polygon points="724,35 729,30 741,30 741,40 729,40 724,35 " style="fill:white; stroke-width:1; stroke:black; " description="&lt;b&gt;ctg1_2512&lt;/b&gt;&lt;br&gt;ctg1 2512&lt;br&gt;Location: 2698305 - 2699304" locus_tag="ctg1_2512" class="clusterblast-orf" id="knownclusterblast-5_q38_0_all"  />
<polygon points="750,40 753,35 750,30 750,40 " style="fill:white; stroke-width:1; stroke:black; " description="&lt;b&gt;ctg1_2513&lt;/b&gt;&lt;br&gt;ctg1 2513&lt;br&gt;Location: 2699802 - 2700003" locus_tag="ctg1_2513" class="clusterblast-orf" id="knownclusterblast-5_q39_0_all"  />
<polygon points="755,35 760,30 764,30 764,40 760,40 755,35 " style="fill:white; stroke-width:1; stroke:black; " description="&lt;b&gt;ctg1_2514&lt;/b&gt;&lt;br&gt;ctg1 2514&lt;br&gt;Location: 2700113 - 2700629" locus_tag="ctg1_2514" class="clusterblast-orf" id="knownclusterblast-5_q40_0_all"  />
<polygon points="769,35 774,30 780,30 780,40 774,40 769,35 " style="fill:white; stroke-width:1; stroke:black; " description="&lt;b&gt;ctg1_2515&lt;/b&gt;&lt;br&gt;ctg1 2515&lt;br&gt;Location: 2700890 - 2701505" locus_tag="ctg1_2515" class="clusterblast-orf" id="knownclusterblast-5_q41_0_all"  />
</g>
</svg>
