<svg xmlns="http://www.w3.org/2000/svg" xmlns:xlink="http://www.w3.org/1999/xlink" version="1.1" x="0" y="0" height="230" width="800" viewBox="0 0 800 230" preserveAspectRatio="none"  >
<g label="Query sequence" class="clusterblast-cluster"  >
<text x="5" y="20" class="clusterblast-acc"  >
Query sequence</text>
<line x1="10" y1="35" x2="778.0" y2="35" style="stroke-width:1; stroke:grey; "  />
<polygon points="0,40 21,40 26,35 21,30 0,30 0,40 " style="fill:white; stroke-width:1; stroke:black; " description="&lt;b&gt;ctg1_2701&lt;/b&gt;&lt;br&gt;ctg1 2701&lt;br&gt;Location: 2902978 - 2904112" locus_tag="ctg1_2701" class="clusterblast-orf" id="dummy-6_q0_0_all"  />
<polygon points="27,40 42,40 47,35 42,30 27,30 27,40 " style="fill:white; stroke-width:1; stroke:black; " description="&lt;b&gt;ctg1_2702&lt;/b&gt;&lt;br&gt;ctg1 2702&lt;br&gt;Location: 2904177 - 2905059" locus_tag="ctg1_2702" class="clusterblast-orf" id="dummy-6_q1_0_all"  />
<polygon points="50,40 72,40 77,35 72,30 50,30 50,40 " style="fill:white; stroke-width:1; stroke:black; " description="&lt;b&gt;ctg1_2703&lt;/b&gt;&lt;br&gt;ctg1 2703&lt;br&gt;Location: 2905176 - 2906376" locus_tag="ctg1_2703" class="clusterblast-orf" id="dummy-6_q2_0_all"  />
<polygon points="77,35 81,30 81,40 77,35 " style="fill:white; stroke-width:1; stroke:black; " description="&lt;b&gt;ctg1_2704&lt;/b&gt;&lt;br&gt;ctg1 2704&lt;br&gt;Location: 2906388 - 2906559" locus_tag="ctg1_2704" class="clusterblast-orf" id="dummy-6_q3_0_all"  />
<polygon points="84,35 89,30 122,30 122,40 89,40 84,35 " style="fill:white; stroke-width:1; stroke:black; " description="&lt;b&gt;ctg1_2705&lt;/b&gt;&lt;br&gt;ctg1 2705&lt;br&gt;Location: 2906687 - 2908364" locus_tag="ctg1_2705" class="clusterblast-orf" id="dummy-6_q4_0_all"  />
<polygon points="128,35 133,30 133,30 133,40 133,40 128,35 " style="fill:white; stroke-width:1; stroke:black; " description="&lt;b&gt;ctg1_2706&lt;/b&gt;&lt;br&gt;ctg1 2706&lt;br&gt;Location: 2908591 - 2908819" locus_tag="ctg1_2706" class="clusterblast-orf" id="dummy-6_q5_0_all"  />
<polygon points="139,40 144,40 149,35 144,30 139,30 139,40 " style="fill:white; stroke-width:1; stroke:black; " description="&lt;b&gt;ctg1_2707&lt;/b&gt;&lt;br&gt;ctg1 2707&lt;br&gt;Location: 2909108 - 2909531" locus_tag="ctg1_2707" class="clusterblast-orf" id="dummy-6_q6_0_all"  />
<polygon points="150,35 155,30 167,30 167,40 155,40 150,35 " style="fill:white; stroke-width:1; stroke:black; " description="&lt;b&gt;ctg1_2708&lt;/b&gt;&lt;br&gt;ctg1 2708&lt;br&gt;Location: 2909577 - 2910339" locus_tag="ctg1_2708" class="clusterblast-orf" id="dummy-6_q7_0_all"  />
<polygon points="169,40 185,40 190,35 185,30 169,30 169,40 " style="fill:white; stroke-width:1; stroke:black; " description="&lt;b&gt;ctg1_2709&lt;/b&gt;&lt;br&gt;ctg1 2709&lt;br&gt;Location: 2910425 - 2911313" locus_tag="ctg1_2709" class="clusterblast-orf" id="dummy-6_q8_0_all"  />
<polygon points="190,35 195,30 197,30 197,40 195,40 190,35 " style="fill:white; stroke-width:1; stroke:black; " description="&lt;b&gt;ctg1_2710&lt;/b&gt;&lt;br&gt;ctg1 2710&lt;br&gt;Location: 2911332 - 2911626" locus_tag="ctg1_2710" class="clusterblast-orf" id="dummy-6_q9_0_all"  />
<polygon points="199,35 204,30 214,30 214,40 204,40 199,35 " style="fill:white; stroke-width:1; stroke:black; " description="&lt;b&gt;ctg1_2711&lt;/b&gt;&lt;br&gt;ctg1 2711&lt;br&gt;Location: 2911742 - 2912378" locus_tag="ctg1_2711" class="clusterblast-orf" id="dummy-6_q10_0_all"  />
<polygon points="216,35 221,30 250,30 250,40 221,40 216,35 " style="fill:#d81515; stroke-width:1; stroke:black; " description="&lt;b&gt;ctg1_2712&lt;/b&gt;&lt;br&gt;ctg1 2712&lt;br&gt;Location: 2912478 - 2913975" locus_tag="ctg1_2712" class="clusterblast-orf" id="dummy-6_q11_0_all"  />
<polygon points="250,35 255,30 287,30 287,40 255,40 250,35 " style="fill:#33d815; stroke-width:1; stroke:black; " description="&lt;b&gt;ctg1_2713&lt;/b&gt;&lt;br&gt;ctg1 2713&lt;br&gt;Location: 2913977 - 2915576" locus_tag="ctg1_2713" class="clusterblast-orf" id="dummy-6_q12_0_all"  />
<polygon points="287,35 292,30 330,30 330,40 292,40 287,35 " style="fill:#15abd8; stroke-width:1; stroke:black; " description="&lt;b&gt;ctg1_2714&lt;/b&gt;&lt;br&gt;ctg1 2714&lt;br&gt;Location: 2915577 - 2917467" locus_tag="ctg1_2714" class="clusterblast-orf" id="dummy-6_q13_0_all"  />
<polygon points="330,35 335,30 337,30 337,40 335,40 330,35 " style="fill:#8d15d8; stroke-width:1; stroke:black; " description="&lt;b&gt;ctg1_2715&lt;/b&gt;&lt;br&gt;ctg1 2715&lt;br&gt;Location: 2917463 - 2917772" locus_tag="ctg1_2715" class="clusterblast-orf" id="dummy-6_q14_0_all"  />
<polygon points="337,35 342,30 349,30 349,40 342,40 337,35 " style="fill:#d86f15; stroke-width:1; stroke:black; " description="&lt;b&gt;ctg1_2716&lt;/b&gt;&lt;br&gt;ctg1 2716&lt;br&gt;Location: 2917771 - 2918293" locus_tag="ctg1_2716" class="clusterblast-orf" id="dummy-6_q15_0_all"  />
<polygon points="349,35 354,30 361,30 361,40 354,40 349,35 " style="fill:#15d851; stroke-width:1; stroke:black; " description="&lt;b&gt;ctg1_2717&lt;/b&gt;&lt;br&gt;ctg1 2717&lt;br&gt;Location: 2918289 - 2918832" locus_tag="ctg1_2717" class="clusterblast-orf" id="dummy-6_q16_0_all"  />
<polygon points="361,35 366,30 384,30 384,40 366,40 361,35 " style="fill:#1551d8; stroke-width:1; stroke:black; " description="&lt;b&gt;ctg1_2718&lt;/b&gt;&lt;br&gt;ctg1 2718&lt;br&gt;Location: 2918850 - 2919867" locus_tag="ctg1_2718" class="clusterblast-orf" id="dummy-6_q17_0_all"  />
<polygon points="385,35 390,30 446,30 446,40 390,40 385,35 " style="fill:#d815c9; stroke-width:1; stroke:black; " description="&lt;b&gt;ctg1_2719&lt;/b&gt;&lt;br&gt;ctg1 2719&lt;br&gt;Location: 2919870 - 2922555" locus_tag="ctg1_2719" class="clusterblast-orf" id="dummy-6_q18_0_all"  />
<polygon points="446,35 451,30 476,30 476,40 451,40 446,35 " style="fill:#d8c915; stroke-width:1; stroke:black; " description="&lt;b&gt;ctg1_2720&lt;/b&gt;&lt;br&gt;ctg1 2720&lt;br&gt;Location: 2922566 - 2923898" locus_tag="ctg1_2720" class="clusterblast-orf" id="dummy-6_q19_0_all"  />
<polygon points="476,35 481,30 488,30 488,40 481,40 476,35 " style="fill:#15d8ab; stroke-width:1; stroke:black; " description="&lt;b&gt;ctg1_2721&lt;/b&gt;&lt;br&gt;ctg1 2721&lt;br&gt;Location: 2923894 - 2924404" locus_tag="ctg1_2721" class="clusterblast-orf" id="dummy-6_q20_0_all"  />
<polygon points="488,35 493,30 529,30 529,40 493,40 488,35 " style="fill:#3315d8; stroke-width:1; stroke:black; " description="&lt;b&gt;ctg1_2722&lt;/b&gt;&lt;br&gt;ctg1 2722&lt;br&gt;Location: 2924417 - 2926205" locus_tag="ctg1_2722" class="clusterblast-orf" id="dummy-6_q21_0_all"  />
<polygon points="531,35 536,30 546,30 546,40 536,40 531,35 " style="fill:#d8156f; stroke-width:1; stroke:black; " description="&lt;b&gt;ctg1_2723&lt;/b&gt;&lt;br&gt;ctg1 2723&lt;br&gt;Location: 2926289 - 2926967" locus_tag="ctg1_2723" class="clusterblast-orf" id="dummy-6_q22_0_all"  />
<polygon points="546,35 551,30 559,30 559,40 551,40 546,35 " style="fill:#8dd815; stroke-width:1; stroke:black; " description="&lt;b&gt;ctg1_2724&lt;/b&gt;&lt;br&gt;ctg1 2724&lt;br&gt;Location: 2926973 - 2927525" locus_tag="ctg1_2724" class="clusterblast-orf" id="dummy-6_q23_0_all"  />
<polygon points="569,40 596,40 601,35 596,30 569,30 569,40 " style="fill:white; stroke-width:1; stroke:black; " description="&lt;b&gt;ctg1_2725&lt;/b&gt;&lt;br&gt;ctg1 2725&lt;br&gt;Location: 2927952 - 2929374" locus_tag="ctg1_2725" class="clusterblast-orf" id="dummy-6_q24_0_all"  />
<polygon points="603,40 606,40 611,35 606,30 603,30 603,40 " style="fill:white; stroke-width:1; stroke:black; " description="&lt;b&gt;ctg1_2726&lt;/b&gt;&lt;br&gt;ctg1 2726&lt;br&gt;Location: 2929466 - 2929820" locus_tag="ctg1_2726" class="clusterblast-orf" id="dummy-6_q25_0_all"  />
<polygon points="612,35 617,30 649,30 649,40 617,40 612,35 " style="fill:white; stroke-width:1; stroke:black; " description="&lt;b&gt;ctg1_2727&lt;/b&gt;&lt;br&gt;ctg1 2727&lt;br&gt;Location: 2929841 - 2931491" locus_tag="ctg1_2727" class="clusterblast-orf" id="dummy-6_q26_0_all"  />
<polygon points="650,35 655,30 666,30 666,40 655,40 650,35 " style="fill:white; stroke-width:1; stroke:black; " description="&lt;b&gt;ctg1_2728&lt;/b&gt;&lt;br&gt;ctg1 2728&lt;br&gt;Location: 2931523 - 2932240" locus_tag="ctg1_2728" class="clusterblast-orf" id="dummy-6_q27_0_all"  />
<polygon points="678,40 738,40 743,35 738,30 678,30 678,40 " style="fill:white; stroke-width:1; stroke:black; " description="&lt;b&gt;ctg1_2729&lt;/b&gt;&lt;br&gt;ctg1 2729&lt;br&gt;Location: 2932772 - 2935607" locus_tag="ctg1_2729" class="clusterblast-orf" id="dummy-6_q28_0_all"  />
<polygon points="744,40 747,35 744,30 744,40 " style="fill:white; stroke-width:1; stroke:black; " description="&lt;b&gt;ctg1_2730&lt;/b&gt;&lt;br&gt;ctg1 2730&lt;br&gt;Location: 2935662 - 2935797" locus_tag="ctg1_2730" class="clusterblast-orf" id="dummy-6_q29_0_all"  />
<polygon points="750,40 775,40 780,35 775,30 750,30 750,40 " style="fill:white; stroke-width:1; stroke:black; " description="&lt;b&gt;ctg1_2731&lt;/b&gt;&lt;br&gt;ctg1 2731&lt;br&gt;Location: 2935934 - 2937218" locus_tag="ctg1_2731" class="clusterblast-orf" id="dummy-6_q30_0_all"  />
</g>
<g label="MGC00000036" description="MGC00000036_c1: Ech complex T. phaeum (28% of genes show similarity), ECH" class="clusterblast-cluster"  >
<text x="5" y="70" class="clusterblast-acc"  >
MGC00000036_c1: Ech complex T. phaeum (28% of genes show similarity), ECH</text>
<line x1="10" y1="85" x2="778.0" y2="85" style="stroke-width:1; stroke:grey; "  />
</g>
<g id="a6_000"  >
<polygon points="218,85 223,80 240,80 240,90 223,90 218,85 " style="fill:white; stroke-width:1; stroke:black; " description="&lt;b&gt;Tph_c21210&lt;/b&gt;&lt;br&gt;stage II sporulation protein P&lt;br&gt;Location: 0 - 966" locus_tag="Tph_c21210" class="clusterblast-orf" id="dummy-6_h6_3_0"  />
</g>
<g id="a6_001"  >
<polygon points="444,85 449,80 452,80 452,90 449,90 444,85 " style="fill:white; stroke-width:1; stroke:black; " description="&lt;b&gt;Tph_c21310&lt;/b&gt;&lt;br&gt;putative ech hydrogenase subunit F&lt;br&gt;Location: 9909 - 10260" locus_tag="Tph_c21310" class="clusterblast-orf" id="dummy-6_h6_3_1"  />
</g>
<g id="a6_002"  >
<polygon points="453,85 458,80 477,80 477,90 458,90 453,85 " style="fill:white; stroke-width:1; stroke:black; " description="&lt;b&gt;Tph_c21320&lt;/b&gt;&lt;br&gt;putative ech hydrogenase subunit E&lt;br&gt;Location: 10289 - 11372" locus_tag="Tph_c21320" class="clusterblast-orf" id="dummy-6_h6_3_2"  />
</g>
<g id="a6_003"  >
<polygon points="477,85 482,80 486,80 486,90 482,90 477,85 " style="fill:white; stroke-width:1; stroke:black; " description="&lt;b&gt;Tph_c21330&lt;/b&gt;&lt;br&gt;putative ech hydrogenase subunit D&lt;br&gt;Location: 11372 - 11750" locus_tag="Tph_c21330" class="clusterblast-orf" id="dummy-6_h6_3_3"  />
</g>
<g id="a6_004"  >
<polygon points="486,85 491,80 496,80 496,90 491,90 486,85 " style="fill:#d8156f; stroke-width:1; stroke:black; " description="&lt;b&gt;Tph_c21340&lt;/b&gt;&lt;br&gt;putative ech hydrogenase subunit C&lt;br&gt;Location: 11746 - 12184&lt;br&gt;&lt;br&gt;&lt;b&gt;BlastP hit with ctg1_2723&lt;/b&gt;&lt;br&gt;Percentage identity: 43&lt;br&gt;Percentage coverage: 55&lt;br&gt;BLAST bit score: 103&lt;br&gt;E-value: 3.89e-30" locus_tag="Tph_c21340" class="clusterblast-orf" id="dummy-6_h6_3_4"  />
</g>
<g id="a6_005"  >
<polygon points="496,85 501,80 515,80 515,90 501,90 496,85 " style="fill:white; stroke-width:1; stroke:black; " description="&lt;b&gt;Tph_c21350&lt;/b&gt;&lt;br&gt;putative ech hydrogenase subunit B&lt;br&gt;Location: 12184 - 13045" locus_tag="Tph_c21350" class="clusterblast-orf" id="dummy-6_h6_3_5"  />
</g>
<g id="a6_006"  >
<polygon points="515,85 520,80 561,80 561,90 520,90 515,85 " style="fill:#15abd8; stroke-width:1; stroke:black; " description="&lt;b&gt;Tph_c21360&lt;/b&gt;&lt;br&gt;putative ech hydrogenase subunit A&lt;br&gt;Location: 13041 - 15027&lt;br&gt;&lt;br&gt;&lt;b&gt;BlastP hit with ctg1_2714&lt;/b&gt;&lt;br&gt;Percentage identity: 35&lt;br&gt;Percentage coverage: 53&lt;br&gt;BLAST bit score: 135&lt;br&gt;E-value: 2.96e-35" locus_tag="Tph_c21360" class="clusterblast-orf" id="dummy-6_h6_3_6"  />
</g>
</svg>
