<svg xmlns="http://www.w3.org/2000/svg" xmlns:xlink="http://www.w3.org/1999/xlink" version="1.1" x="0" y="0" height="50" width="800" viewBox="0 0 800 50" preserveAspectRatio="none"  >
<g label="Query sequence" class="clusterblast-cluster"  >
<text x="5" y="20" class="clusterblast-acc"  >
Query sequence</text>
<line x1="10" y1="35" x2="778.0" y2="35" style="stroke-width:1; stroke:grey; "  />
<polygon points="0,40 2,40 7,35 2,30 0,30 0,40 " style="fill:white; stroke-width:1; stroke:black; " description="&lt;b&gt;ctg1_4426&lt;/b&gt;&lt;br&gt;ctg1 4426&lt;br&gt;Location: 4752051 - 4752255" locus_tag="ctg1_4426" class="clusterblast-orf" id="knownclusterblast-22_q0_0_all"  />
<polygon points="8,40 38,40 43,35 38,30 8,30 8,40 " style="fill:white; stroke-width:1; stroke:black; " description="&lt;b&gt;ctg1_4427&lt;/b&gt;&lt;br&gt;ctg1 4427&lt;br&gt;Location: 4752266 - 4753223" locus_tag="ctg1_4427" class="clusterblast-orf" id="knownclusterblast-22_q1_0_all"  />
<polygon points="58,40 73,40 78,35 73,30 58,30 58,40 " style="fill:white; stroke-width:1; stroke:black; " description="&lt;b&gt;ctg1_4428&lt;/b&gt;&lt;br&gt;ctg1 4428&lt;br&gt;Location: 4753616 - 4754162" locus_tag="ctg1_4428" class="clusterblast-orf" id="knownclusterblast-22_q2_0_all"  />
<polygon points="81,35 86,30 132,30 132,40 86,40 81,35 " style="fill:white; stroke-width:1; stroke:black; " description="&lt;b&gt;ctg1_4429&lt;/b&gt;&lt;br&gt;ctg1 4429&lt;br&gt;Location: 4754258 - 4755629" locus_tag="ctg1_4429" class="clusterblast-orf" id="knownclusterblast-22_q3_0_all"  />
<polygon points="138,35 143,30 171,30 171,40 143,40 138,35 " style="fill:white; stroke-width:1; stroke:black; " description="&lt;b&gt;ctg1_4430&lt;/b&gt;&lt;br&gt;ctg1 4430&lt;br&gt;Location: 4755791 - 4756706" locus_tag="ctg1_4430" class="clusterblast-orf" id="knownclusterblast-22_q4_0_all"  />
<polygon points="179,40 205,40 210,35 205,30 179,30 179,40 " style="fill:white; stroke-width:1; stroke:black; " description="&lt;b&gt;ctg1_4431&lt;/b&gt;&lt;br&gt;ctg1 4431&lt;br&gt;Location: 4756923 - 4757739" locus_tag="ctg1_4431" class="clusterblast-orf" id="knownclusterblast-22_q5_0_all"  />
<polygon points="211,40 231,40 236,35 231,30 211,30 211,40 " style="fill:white; stroke-width:1; stroke:black; " description="&lt;b&gt;ctg1_4432&lt;/b&gt;&lt;br&gt;ctg1 4432&lt;br&gt;Location: 4757786 - 4758449" locus_tag="ctg1_4432" class="clusterblast-orf" id="knownclusterblast-22_q6_0_all"  />
<polygon points="235,40 278,40 283,35 278,30 235,30 235,40 " style="fill:white; stroke-width:1; stroke:black; " description="&lt;b&gt;ctg1_4433&lt;/b&gt;&lt;br&gt;ctg1 4433&lt;br&gt;Location: 4758441 - 4759734" locus_tag="ctg1_4433" class="clusterblast-orf" id="knownclusterblast-22_q7_0_all"  />
<polygon points="285,40 326,40 331,35 326,30 285,30 285,40 " style="fill:white; stroke-width:1; stroke:black; " description="&lt;b&gt;ctg1_4434&lt;/b&gt;&lt;br&gt;ctg1 4434&lt;br&gt;Location: 4759787 - 4761035" locus_tag="ctg1_4434" class="clusterblast-orf" id="knownclusterblast-22_q8_0_all"  />
<polygon points="332,40 336,40 341,35 336,30 332,30 332,40 " style="fill:white; stroke-width:1; stroke:black; " description="&lt;b&gt;ctg1_4435&lt;/b&gt;&lt;br&gt;ctg1 4435&lt;br&gt;Location: 4761060 - 4761300" locus_tag="ctg1_4435" class="clusterblast-orf" id="knownclusterblast-22_q9_0_all"  />
<polygon points="344,40 382,40 387,35 382,30 344,30 344,40 " style="fill:white; stroke-width:1; stroke:black; " description="&lt;b&gt;ctg1_4436&lt;/b&gt;&lt;br&gt;ctg1 4436&lt;br&gt;Location: 4761397 - 4762549" locus_tag="ctg1_4436" class="clusterblast-orf" id="knownclusterblast-22_q10_0_all"  />
<polygon points="387,40 410,40 415,35 410,30 387,30 387,40 " style="fill:white; stroke-width:1; stroke:black; " description="&lt;b&gt;ctg1_4437&lt;/b&gt;&lt;br&gt;ctg1 4437&lt;br&gt;Location: 4762558 - 4763326" locus_tag="ctg1_4437" class="clusterblast-orf" id="knownclusterblast-22_q11_0_all"  />
<polygon points="415,40 420,40 425,35 420,30 415,30 415,40 " style="fill:white; stroke-width:1; stroke:black; " description="&lt;b&gt;ctg1_4438&lt;/b&gt;&lt;br&gt;ctg1 4438&lt;br&gt;Location: 4763322 - 4763577" locus_tag="ctg1_4438" class="clusterblast-orf" id="knownclusterblast-22_q12_0_all"  />
<polygon points="432,35 437,30 473,30 473,40 437,40 432,35 " style="fill:white; stroke-width:1; stroke:black; " description="&lt;b&gt;ctg1_4439&lt;/b&gt;&lt;br&gt;ctg1 4439&lt;br&gt;Location: 4763768 - 4764893" locus_tag="ctg1_4439" class="clusterblast-orf" id="knownclusterblast-22_q13_0_all"  />
<polygon points="473,35 478,30 490,30 490,40 478,40 473,35 " style="fill:white; stroke-width:1; stroke:black; " description="&lt;b&gt;ctg1_4440&lt;/b&gt;&lt;br&gt;ctg1 4440&lt;br&gt;Location: 4764892 - 4765360" locus_tag="ctg1_4440" class="clusterblast-orf" id="knownclusterblast-22_q14_0_all"  />
<polygon points="490,35 495,30 515,30 515,40 495,40 490,35 " style="fill:white; stroke-width:1; stroke:black; " description="&lt;b&gt;ctg1_4441&lt;/b&gt;&lt;br&gt;ctg1 4441&lt;br&gt;Location: 4765352 - 4766036" locus_tag="ctg1_4441" class="clusterblast-orf" id="knownclusterblast-22_q15_0_all"  />
<polygon points="529,40 557,40 562,35 557,30 529,30 529,40 " style="fill:white; stroke-width:1; stroke:black; " description="&lt;b&gt;ctg1_4442&lt;/b&gt;&lt;br&gt;ctg1 4442&lt;br&gt;Location: 4766399 - 4767314" locus_tag="ctg1_4442" class="clusterblast-orf" id="knownclusterblast-22_q16_0_all"  />
<polygon points="563,35 568,30 602,30 602,40 568,40 563,35 " style="fill:white; stroke-width:1; stroke:black; " description="&lt;b&gt;ctg1_4443&lt;/b&gt;&lt;br&gt;ctg1 4443&lt;br&gt;Location: 4767316 - 4768381" locus_tag="ctg1_4443" class="clusterblast-orf" id="knownclusterblast-22_q17_0_all"  />
<polygon points="601,35 606,30 641,30 641,40 606,40 601,35 " style="fill:white; stroke-width:1; stroke:black; " description="&lt;b&gt;ctg1_4444&lt;/b&gt;&lt;br&gt;ctg1 4444&lt;br&gt;Location: 4768370 - 4769438" locus_tag="ctg1_4444" class="clusterblast-orf" id="knownclusterblast-22_q18_0_all"  />
<polygon points="641,35 646,30 658,30 658,40 646,40 641,35 " style="fill:white; stroke-width:1; stroke:black; " description="&lt;b&gt;ctg1_4445&lt;/b&gt;&lt;br&gt;ctg1 4445&lt;br&gt;Location: 4769444 - 4769909" locus_tag="ctg1_4445" class="clusterblast-orf" id="knownclusterblast-22_q19_0_all"  />
<polygon points="664,35 669,30 670,30 670,40 669,40 664,35 " style="fill:white; stroke-width:1; stroke:black; " description="&lt;b&gt;ctg1_4446&lt;/b&gt;&lt;br&gt;ctg1 4446&lt;br&gt;Location: 4770074 - 4770239" locus_tag="ctg1_4446" class="clusterblast-orf" id="knownclusterblast-22_q20_0_all"  />
<polygon points="677,40 724,40 729,35 724,30 677,30 677,40 " style="fill:white; stroke-width:1; stroke:black; " description="&lt;b&gt;ctg1_4447&lt;/b&gt;&lt;br&gt;ctg1 4447&lt;br&gt;Location: 4770416 - 4771829" locus_tag="ctg1_4447" class="clusterblast-orf" id="knownclusterblast-22_q21_0_all"  />
<polygon points="737,40 775,40 780,35 775,30 737,30 737,40 " style="fill:white; stroke-width:1; stroke:black; " description="&lt;b&gt;ctg1_4448&lt;/b&gt;&lt;br&gt;ctg1 4448&lt;br&gt;Location: 4772045 - 4773212" locus_tag="ctg1_4448" class="clusterblast-orf" id="knownclusterblast-22_q22_0_all"  />
</g>
</svg>
