<svg xmlns="http://www.w3.org/2000/svg" xmlns:xlink="http://www.w3.org/1999/xlink" version="1.1" x="0" y="0" height="50" width="800" viewBox="0 0 800 50" preserveAspectRatio="none"  >
<g label="Query sequence" class="clusterblast-cluster"  >
<text x="5" y="20" class="clusterblast-acc"  >
Query sequence</text>
<line x1="10" y1="35" x2="778.0" y2="35" style="stroke-width:1; stroke:grey; "  />
<polygon points="0,40 42,40 47,35 42,30 0,30 0,40 " style="fill:white; stroke-width:1; stroke:black; " description="&lt;b&gt;ctg1_587&lt;/b&gt;&lt;br&gt;ctg1 587&lt;br&gt;Location: 619857 - 621345" locus_tag="ctg1_587" class="clusterblast-orf" id="knownclusterblast-1_q0_0_all"  />
<polygon points="47,40 74,40 79,35 74,30 47,30 47,40 " style="fill:white; stroke-width:1; stroke:black; " description="&lt;b&gt;ctg1_588&lt;/b&gt;&lt;br&gt;ctg1 588&lt;br&gt;Location: 621341 - 622376" locus_tag="ctg1_588" class="clusterblast-orf" id="knownclusterblast-1_q1_0_all"  />
<polygon points="79,40 106,40 111,35 106,30 79,30 79,40 " style="fill:white; stroke-width:1; stroke:black; " description="&lt;b&gt;ctg1_589&lt;/b&gt;&lt;br&gt;ctg1 589&lt;br&gt;Location: 622376 - 623381" locus_tag="ctg1_589" class="clusterblast-orf" id="knownclusterblast-1_q2_0_all"  />
<polygon points="111,40 138,40 143,35 138,30 111,30 111,40 " style="fill:white; stroke-width:1; stroke:black; " description="&lt;b&gt;ctg1_590&lt;/b&gt;&lt;br&gt;ctg1 590&lt;br&gt;Location: 623377 - 624391" locus_tag="ctg1_590" class="clusterblast-orf" id="knownclusterblast-1_q3_0_all"  />
<polygon points="143,40 166,40 171,35 166,30 143,30 143,40 " style="fill:white; stroke-width:1; stroke:black; " description="&lt;b&gt;ctg1_591&lt;/b&gt;&lt;br&gt;ctg1 591&lt;br&gt;Location: 624402 - 625290" locus_tag="ctg1_591" class="clusterblast-orf" id="knownclusterblast-1_q4_0_all"  />
<polygon points="171,40 175,40 180,35 175,30 171,30 171,40 " style="fill:white; stroke-width:1; stroke:black; " description="&lt;b&gt;ctg1_592&lt;/b&gt;&lt;br&gt;ctg1 592&lt;br&gt;Location: 625286 - 625583" locus_tag="ctg1_592" class="clusterblast-orf" id="knownclusterblast-1_q5_0_all"  />
<polygon points="182,35 187,30 225,30 225,40 187,40 182,35 " style="fill:white; stroke-width:1; stroke:black; " description="&lt;b&gt;ctg1_593&lt;/b&gt;&lt;br&gt;ctg1 593&lt;br&gt;Location: 625630 - 627010" locus_tag="ctg1_593" class="clusterblast-orf" id="knownclusterblast-1_q6_0_all"  />
<polygon points="233,35 238,30 251,30 251,40 238,40 233,35 " style="fill:white; stroke-width:1; stroke:black; " description="&lt;b&gt;ctg1_594&lt;/b&gt;&lt;br&gt;ctg1 594&lt;br&gt;Location: 627267 - 627822" locus_tag="ctg1_594" class="clusterblast-orf" id="knownclusterblast-1_q7_0_all"  />
<polygon points="258,40 278,40 283,35 278,30 258,30 258,40 " style="fill:white; stroke-width:1; stroke:black; " description="&lt;b&gt;ctg1_595&lt;/b&gt;&lt;br&gt;ctg1 595&lt;br&gt;Location: 628059 - 628836" locus_tag="ctg1_595" class="clusterblast-orf" id="knownclusterblast-1_q8_0_all"  />
<polygon points="289,35 294,30 341,30 341,40 294,40 289,35 " style="fill:white; stroke-width:1; stroke:black; " description="&lt;b&gt;ctg1_596&lt;/b&gt;&lt;br&gt;ctg1 596&lt;br&gt;Location: 629039 - 630689" locus_tag="ctg1_596" class="clusterblast-orf" id="knownclusterblast-1_q9_0_all"  />
<polygon points="343,35 348,30 388,30 388,40 348,40 343,35 " style="fill:white; stroke-width:1; stroke:black; " description="&lt;b&gt;ctg1_597&lt;/b&gt;&lt;br&gt;ctg1 597&lt;br&gt;Location: 630764 - 632186" locus_tag="ctg1_597" class="clusterblast-orf" id="knownclusterblast-1_q10_0_all"  />
<polygon points="388,35 393,30 408,30 408,40 393,40 388,35 " style="fill:white; stroke-width:1; stroke:black; " description="&lt;b&gt;ctg1_598&lt;/b&gt;&lt;br&gt;ctg1 598&lt;br&gt;Location: 632196 - 632829" locus_tag="ctg1_598" class="clusterblast-orf" id="knownclusterblast-1_q11_0_all"  />
<polygon points="409,35 414,30 442,30 442,40 414,40 409,35 " style="fill:white; stroke-width:1; stroke:black; " description="&lt;b&gt;ctg1_599&lt;/b&gt;&lt;br&gt;ctg1 599&lt;br&gt;Location: 632839 - 633910" locus_tag="ctg1_599" class="clusterblast-orf" id="knownclusterblast-1_q12_0_all"  />
<polygon points="461,40 491,40 496,35 491,30 461,30 461,40 " style="fill:white; stroke-width:1; stroke:black; " description="&lt;b&gt;ctg1_600&lt;/b&gt;&lt;br&gt;ctg1 600&lt;br&gt;Location: 634519 - 635617" locus_tag="ctg1_600" class="clusterblast-orf" id="knownclusterblast-1_q13_0_all"  />
<polygon points="499,40 555,40 560,35 555,30 499,30 499,40 " style="fill:white; stroke-width:1; stroke:black; " description="&lt;b&gt;ctg1_601&lt;/b&gt;&lt;br&gt;ctg1 601&lt;br&gt;Location: 635718 - 637644" locus_tag="ctg1_601" class="clusterblast-orf" id="knownclusterblast-1_q14_0_all"  />
<polygon points="564,35 569,30 574,30 574,40 569,40 564,35 " style="fill:white; stroke-width:1; stroke:black; " description="&lt;b&gt;ctg1_602&lt;/b&gt;&lt;br&gt;ctg1 602&lt;br&gt;Location: 637775 - 638081" locus_tag="ctg1_602" class="clusterblast-orf" id="knownclusterblast-1_q15_0_all"  />
<polygon points="574,35 579,30 593,30 593,40 579,40 574,35 " style="fill:white; stroke-width:1; stroke:black; " description="&lt;b&gt;ctg1_603&lt;/b&gt;&lt;br&gt;ctg1 603&lt;br&gt;Location: 638107 - 638683" locus_tag="ctg1_603" class="clusterblast-orf" id="knownclusterblast-1_q16_0_all"  />
<polygon points="601,40 616,40 621,35 616,30 601,30 601,40 " style="fill:white; stroke-width:1; stroke:black; " description="&lt;b&gt;ctg1_604&lt;/b&gt;&lt;br&gt;ctg1 604&lt;br&gt;Location: 638950 - 639583" locus_tag="ctg1_604" class="clusterblast-orf" id="knownclusterblast-1_q17_0_all"  />
<polygon points="624,35 629,30 726,30 726,40 629,40 624,35 " style="fill:white; stroke-width:1; stroke:black; " description="&lt;b&gt;ctg1_605&lt;/b&gt;&lt;br&gt;ctg1 605&lt;br&gt;Location: 639673 - 642916" locus_tag="ctg1_605" class="clusterblast-orf" id="knownclusterblast-1_q18_0_all"  />
<polygon points="726,35 731,30 745,30 745,40 731,40 726,35 " style="fill:white; stroke-width:1; stroke:black; " description="&lt;b&gt;ctg1_606&lt;/b&gt;&lt;br&gt;ctg1 606&lt;br&gt;Location: 642920 - 643535" locus_tag="ctg1_606" class="clusterblast-orf" id="knownclusterblast-1_q19_0_all"  />
<polygon points="759,40 761,40 766,35 761,30 759,30 759,40 " style="fill:white; stroke-width:1; stroke:black; " description="&lt;b&gt;ctg1_607&lt;/b&gt;&lt;br&gt;ctg1 607&lt;br&gt;Location: 643967 - 644201" locus_tag="ctg1_607" class="clusterblast-orf" id="knownclusterblast-1_q20_0_all"  />
<polygon points="768,35 773,30 780,30 780,40 773,40 768,35 " style="fill:white; stroke-width:1; stroke:black; " description="&lt;b&gt;ctg1_608&lt;/b&gt;&lt;br&gt;ctg1 608&lt;br&gt;Location: 644269 - 644632" locus_tag="ctg1_608" class="clusterblast-orf" id="knownclusterblast-1_q21_0_all"  />
</g>
</svg>
