<svg xmlns="http://www.w3.org/2000/svg" xmlns:xlink="http://www.w3.org/1999/xlink" version="1.1" x="0" y="0" height="50" width="800" viewBox="0 0 800 50" preserveAspectRatio="none"  >
<g label="Query sequence" class="clusterblast-cluster"  >
<text x="5" y="20" class="clusterblast-acc"  >
Query sequence</text>
<line x1="10" y1="35" x2="778.0" y2="35" style="stroke-width:1; stroke:grey; "  />
<polygon points="0,35 5,30 26,30 26,40 5,40 0,35 " style="fill:white; stroke-width:1; stroke:black; " description="&lt;b&gt;ctg1_4830&lt;/b&gt;&lt;br&gt;ctg1 4830&lt;br&gt;Location: 5214418 - 5214952" locus_tag="ctg1_4830" class="clusterblast-orf" id="knownclusterblast-25_q0_0_all"  />
<polygon points="26,35 31,30 97,30 97,40 31,40 26,35 " style="fill:white; stroke-width:1; stroke:black; " description="&lt;b&gt;ctg1_4831&lt;/b&gt;&lt;br&gt;ctg1 4831&lt;br&gt;Location: 5214963 - 5216415" locus_tag="ctg1_4831" class="clusterblast-orf" id="knownclusterblast-25_q1_0_all"  />
<polygon points="99,35 104,30 129,30 129,40 104,40 99,35 " style="fill:white; stroke-width:1; stroke:black; " description="&lt;b&gt;ctg1_4832&lt;/b&gt;&lt;br&gt;ctg1 4832&lt;br&gt;Location: 5216454 - 5217069" locus_tag="ctg1_4832" class="clusterblast-orf" id="knownclusterblast-25_q2_0_all"  />
<polygon points="128,35 133,30 193,30 193,40 133,40 128,35 " style="fill:white; stroke-width:1; stroke:black; " description="&lt;b&gt;ctg1_4833&lt;/b&gt;&lt;br&gt;ctg1 4833&lt;br&gt;Location: 5217068 - 5218400" locus_tag="ctg1_4833" class="clusterblast-orf" id="knownclusterblast-25_q3_0_all"  />
<polygon points="202,40 304,40 309,35 304,30 202,30 202,40 " style="fill:white; stroke-width:1; stroke:black; " description="&lt;b&gt;ctg1_4834&lt;/b&gt;&lt;br&gt;ctg1 4834&lt;br&gt;Location: 5218591 - 5220781" locus_tag="ctg1_4834" class="clusterblast-orf" id="knownclusterblast-25_q4_0_all"  />
<polygon points="309,40 360,40 365,35 360,30 309,30 309,40 " style="fill:white; stroke-width:1; stroke:black; " description="&lt;b&gt;ctg1_4835&lt;/b&gt;&lt;br&gt;ctg1 4835&lt;br&gt;Location: 5220790 - 5221954" locus_tag="ctg1_4835" class="clusterblast-orf" id="knownclusterblast-25_q5_0_all"  />
<polygon points="371,35 376,30 405,30 405,40 376,40 371,35 " style="fill:white; stroke-width:1; stroke:black; " description="&lt;b&gt;ctg1_4836&lt;/b&gt;&lt;br&gt;ctg1 4836&lt;br&gt;Location: 5222061 - 5222763" locus_tag="ctg1_4836" class="clusterblast-orf" id="knownclusterblast-25_q6_0_all"  />
<polygon points="407,35 412,30 479,30 479,40 412,40 407,35 " style="fill:white; stroke-width:1; stroke:black; " description="&lt;b&gt;ctg1_4837&lt;/b&gt;&lt;br&gt;ctg1 4837&lt;br&gt;Location: 5222818 - 5224288" locus_tag="ctg1_4837" class="clusterblast-orf" id="knownclusterblast-25_q7_0_all"  />
<polygon points="487,40 506,40 511,35 506,30 487,30 487,40 " style="fill:white; stroke-width:1; stroke:black; " description="&lt;b&gt;ctg1_4838&lt;/b&gt;&lt;br&gt;ctg1 4838&lt;br&gt;Location: 5224466 - 5224955" locus_tag="ctg1_4838" class="clusterblast-orf" id="knownclusterblast-25_q8_0_all"  />
<polygon points="511,35 516,30 549,30 549,40 516,40 511,35 " style="fill:white; stroke-width:1; stroke:black; " description="&lt;b&gt;ctg1_4839&lt;/b&gt;&lt;br&gt;ctg1 4839&lt;br&gt;Location: 5224951 - 5225743" locus_tag="ctg1_4839" class="clusterblast-orf" id="knownclusterblast-25_q9_0_all"  />
<polygon points="551,35 556,30 589,30 589,40 556,40 551,35 " style="fill:white; stroke-width:1; stroke:black; " description="&lt;b&gt;ctg1_4840&lt;/b&gt;&lt;br&gt;ctg1 4840&lt;br&gt;Location: 5225787 - 5226567" locus_tag="ctg1_4840" class="clusterblast-orf" id="knownclusterblast-25_q10_0_all"  />
<polygon points="589,35 594,30 615,30 615,40 594,40 589,35 " style="fill:white; stroke-width:1; stroke:black; " description="&lt;b&gt;ctg1_4841&lt;/b&gt;&lt;br&gt;ctg1 4841&lt;br&gt;Location: 5226569 - 5227106" locus_tag="ctg1_4841" class="clusterblast-orf" id="knownclusterblast-25_q11_0_all"  />
<polygon points="615,35 620,30 628,30 628,40 620,40 615,35 " style="fill:white; stroke-width:1; stroke:black; " description="&lt;b&gt;ctg1_4842&lt;/b&gt;&lt;br&gt;ctg1 4842&lt;br&gt;Location: 5227109 - 5227361" locus_tag="ctg1_4842" class="clusterblast-orf" id="knownclusterblast-25_q12_0_all"  />
<polygon points="634,35 639,30 713,30 713,40 639,40 634,35 " style="fill:white; stroke-width:1; stroke:black; " description="&lt;b&gt;ctg1_4843&lt;/b&gt;&lt;br&gt;ctg1 4843&lt;br&gt;Location: 5227490 - 5229131" locus_tag="ctg1_4843" class="clusterblast-orf" id="knownclusterblast-25_q13_0_all"  />
<polygon points="713,35 718,30 743,30 743,40 718,40 713,35 " style="fill:white; stroke-width:1; stroke:black; " description="&lt;b&gt;ctg1_4844&lt;/b&gt;&lt;br&gt;ctg1 4844&lt;br&gt;Location: 5229127 - 5229733" locus_tag="ctg1_4844" class="clusterblast-orf" id="knownclusterblast-25_q14_0_all"  />
<polygon points="743,35 748,30 780,30 780,40 748,40 743,35 " style="fill:white; stroke-width:1; stroke:black; " description="&lt;b&gt;ctg1_4845&lt;/b&gt;&lt;br&gt;ctg1 4845&lt;br&gt;Location: 5229746 - 5230502" locus_tag="ctg1_4845" class="clusterblast-orf" id="knownclusterblast-25_q15_0_all"  />
</g>
</svg>
