<svg xmlns="http://www.w3.org/2000/svg" xmlns:xlink="http://www.w3.org/1999/xlink" version="1.1" x="0" y="0" height="230" width="800" viewBox="0 0 800 230" preserveAspectRatio="none"  >
<g label="Query sequence" class="clusterblast-cluster"  >
<text x="5" y="20" class="clusterblast-acc"  >
Query sequence</text>
<line x1="10" y1="35" x2="778.0" y2="35" style="stroke-width:1; stroke:grey; "  />
<polygon points="0,40 45,40 50,35 45,30 0,30 0,40 " style="fill:white; stroke-width:1; stroke:black; " description="&lt;b&gt;ctg1_2389&lt;/b&gt;&lt;br&gt;ctg1 2389&lt;br&gt;Location: 2534859 - 2536359" locus_tag="ctg1_2389" class="clusterblast-orf" id="dummy-15_q0_0_all"  />
<polygon points="50,35 55,30 76,30 76,40 55,40 50,35 " style="fill:white; stroke-width:1; stroke:black; " description="&lt;b&gt;ctg1_2390&lt;/b&gt;&lt;br&gt;ctg1 2390&lt;br&gt;Location: 2536353 - 2537151" locus_tag="ctg1_2390" class="clusterblast-orf" id="dummy-15_q1_0_all"  />
<polygon points="85,40 117,40 122,35 117,30 85,30 85,40 " style="fill:white; stroke-width:1; stroke:black; " description="&lt;b&gt;ctg1_2391&lt;/b&gt;&lt;br&gt;ctg1 2391&lt;br&gt;Location: 2537406 - 2538525" locus_tag="ctg1_2391" class="clusterblast-orf" id="dummy-15_q2_0_all"  />
<polygon points="122,40 127,40 132,35 127,30 122,30 122,40 " style="fill:white; stroke-width:1; stroke:black; " description="&lt;b&gt;ctg1_2392&lt;/b&gt;&lt;br&gt;ctg1 2392&lt;br&gt;Location: 2538537 - 2538828" locus_tag="ctg1_2392" class="clusterblast-orf" id="dummy-15_q3_0_all"  />
<polygon points="134,40 160,40 165,35 160,30 134,30 134,40 " style="fill:white; stroke-width:1; stroke:black; " description="&lt;b&gt;ctg1_2393&lt;/b&gt;&lt;br&gt;ctg1 2393&lt;br&gt;Location: 2538897 - 2539824" locus_tag="ctg1_2393" class="clusterblast-orf" id="dummy-15_q4_0_all"  />
<polygon points="169,40 210,40 215,35 210,30 169,30 169,40 " style="fill:white; stroke-width:1; stroke:black; " description="&lt;b&gt;ctg1_2394&lt;/b&gt;&lt;br&gt;ctg1 2394&lt;br&gt;Location: 2539933 - 2541316" locus_tag="ctg1_2394" class="clusterblast-orf" id="dummy-15_q5_0_all"  />
<polygon points="215,40 226,40 231,35 226,30 215,30 215,40 " style="fill:white; stroke-width:1; stroke:black; " description="&lt;b&gt;ctg1_2395&lt;/b&gt;&lt;br&gt;ctg1 2395&lt;br&gt;Location: 2541315 - 2541801" locus_tag="ctg1_2395" class="clusterblast-orf" id="dummy-15_q6_0_all"  />
<polygon points="231,40 260,40 265,35 260,30 231,30 231,40 " style="fill:white; stroke-width:1; stroke:black; " description="&lt;b&gt;ctg1_2396&lt;/b&gt;&lt;br&gt;ctg1 2396&lt;br&gt;Location: 2541810 - 2542827" locus_tag="ctg1_2396" class="clusterblast-orf" id="dummy-15_q7_0_all"  />
<polygon points="265,40 286,40 291,35 286,30 265,30 265,40 " style="fill:white; stroke-width:1; stroke:black; " description="&lt;b&gt;ctg1_2397&lt;/b&gt;&lt;br&gt;ctg1 2397&lt;br&gt;Location: 2542836 - 2543610" locus_tag="ctg1_2397" class="clusterblast-orf" id="dummy-15_q8_0_all"  />
<polygon points="291,35 296,30 320,30 320,40 296,40 291,35 " style="fill:white; stroke-width:1; stroke:black; " description="&lt;b&gt;ctg1_2398&lt;/b&gt;&lt;br&gt;ctg1 2398&lt;br&gt;Location: 2543606 - 2544485" locus_tag="ctg1_2398" class="clusterblast-orf" id="dummy-15_q9_0_all"  />
<polygon points="327,40 342,40 347,35 342,30 327,30 327,40 " style="fill:#d81515; stroke-width:1; stroke:black; " description="&lt;b&gt;ctg1_2399&lt;/b&gt;&lt;br&gt;ctg1 2399&lt;br&gt;Location: 2544710 - 2545298" locus_tag="ctg1_2399" class="clusterblast-orf" id="dummy-15_q10_0_all"  />
<polygon points="349,40 424,40 429,35 424,30 349,30 349,40 " style="fill:#d81515; stroke-width:1; stroke:black; " description="&lt;b&gt;ctg1_2400&lt;/b&gt;&lt;br&gt;ctg1 2400&lt;br&gt;Location: 2545346 - 2547758" locus_tag="ctg1_2400" class="clusterblast-orf" id="dummy-15_q11_0_all"  />
<polygon points="429,40 454,40 459,35 454,30 429,30 429,40 " style="fill:#15d815; stroke-width:1; stroke:black; " description="&lt;b&gt;ctg1_2401&lt;/b&gt;&lt;br&gt;ctg1 2401&lt;br&gt;Location: 2547769 - 2548654" locus_tag="ctg1_2401" class="clusterblast-orf" id="dummy-15_q12_0_all"  />
<polygon points="458,40 475,40 480,35 475,30 458,30 458,40 " style="fill:#1515d8; stroke-width:1; stroke:black; " description="&lt;b&gt;ctg1_2402&lt;/b&gt;&lt;br&gt;ctg1 2402&lt;br&gt;Location: 2548646 - 2549303" locus_tag="ctg1_2402" class="clusterblast-orf" id="dummy-15_q13_0_all"  />
<polygon points="482,35 487,30 493,30 493,40 487,40 482,35 " style="fill:white; stroke-width:1; stroke:black; " description="&lt;b&gt;ctg1_2403&lt;/b&gt;&lt;br&gt;ctg1 2403&lt;br&gt;Location: 2549355 - 2549682" locus_tag="ctg1_2403" class="clusterblast-orf" id="dummy-15_q14_0_all"  />
<polygon points="505,35 510,30 532,30 532,40 510,40 505,35 " style="fill:white; stroke-width:1; stroke:black; " description="&lt;b&gt;ctg1_2404&lt;/b&gt;&lt;br&gt;ctg1 2404&lt;br&gt;Location: 2550042 - 2550861" locus_tag="ctg1_2404" class="clusterblast-orf" id="dummy-15_q15_0_all"  />
<polygon points="535,35 540,30 549,30 549,40 540,40 535,35 " style="fill:white; stroke-width:1; stroke:black; " description="&lt;b&gt;ctg1_2405&lt;/b&gt;&lt;br&gt;ctg1 2405&lt;br&gt;Location: 2550947 - 2551385" locus_tag="ctg1_2405" class="clusterblast-orf" id="dummy-15_q16_0_all"  />
<polygon points="559,40 592,40 597,35 592,30 559,30 559,40 " style="fill:white; stroke-width:1; stroke:black; " description="&lt;b&gt;ctg1_2406&lt;/b&gt;&lt;br&gt;ctg1 2406&lt;br&gt;Location: 2551662 - 2552817" locus_tag="ctg1_2406" class="clusterblast-orf" id="dummy-15_q17_0_all"  />
<polygon points="597,35 602,30 634,30 634,40 602,40 597,35 " style="fill:white; stroke-width:1; stroke:black; " description="&lt;b&gt;ctg1_2407&lt;/b&gt;&lt;br&gt;ctg1 2407&lt;br&gt;Location: 2552823 - 2553915" locus_tag="ctg1_2407" class="clusterblast-orf" id="dummy-15_q18_0_all"  />
<polygon points="634,35 639,30 667,30 667,40 639,40 634,35 " style="fill:white; stroke-width:1; stroke:black; " description="&lt;b&gt;ctg1_2408&lt;/b&gt;&lt;br&gt;ctg1 2408&lt;br&gt;Location: 2553924 - 2554911" locus_tag="ctg1_2408" class="clusterblast-orf" id="dummy-15_q19_0_all"  />
<polygon points="667,35 672,30 720,30 720,40 672,40 667,35 " style="fill:white; stroke-width:1; stroke:black; " description="&lt;b&gt;ctg1_2409&lt;/b&gt;&lt;br&gt;ctg1 2409&lt;br&gt;Location: 2554910 - 2556527" locus_tag="ctg1_2409" class="clusterblast-orf" id="dummy-15_q20_0_all"  />
<polygon points="720,35 725,30 749,30 749,40 725,40 720,35 " style="fill:white; stroke-width:1; stroke:black; " description="&lt;b&gt;ctg1_2410&lt;/b&gt;&lt;br&gt;ctg1 2410&lt;br&gt;Location: 2556523 - 2557372" locus_tag="ctg1_2410" class="clusterblast-orf" id="dummy-15_q21_0_all"  />
<polygon points="748,35 753,30 780,30 780,40 753,40 748,35 " style="fill:white; stroke-width:1; stroke:black; " description="&lt;b&gt;ctg1_2411&lt;/b&gt;&lt;br&gt;ctg1 2411&lt;br&gt;Location: 2557368 - 2558313" locus_tag="ctg1_2411" class="clusterblast-orf" id="dummy-15_q22_0_all"  />
</g>
<g label="MGC00000049" description="MGC00000049_c1: Formate dehydrogenase E. coli (100% of genes show similarity), FORM" class="clusterblast-cluster"  >
<text x="5" y="70" class="clusterblast-acc"  >
MGC00000049_c1: Formate dehydrogenase E. coli (100% of genes show similarity), FORM</text>
<line x1="10" y1="85" x2="778.0" y2="85" style="stroke-width:1; stroke:grey; "  />
</g>
<g id="a15_000"  >
<polygon points="313,90 410,90 415,85 410,80 313,80 313,90 " style="fill:#d81515; stroke-width:1; stroke:black; " description="&lt;b&gt;b3894&lt;/b&gt;&lt;br&gt;formate dehydrogenase O subunit alpha&lt;br&gt;Location: 14598 - 11547&lt;br&gt;&lt;br&gt;&lt;b&gt;BlastP hit with ctg1_2399&lt;/b&gt;&lt;br&gt;Percentage identity: 81&lt;br&gt;Percentage coverage: 100&lt;br&gt;BLAST bit score: 343&lt;br&gt;E-value: 2.56e-114&lt;br&gt;&lt;br&gt;&lt;b&gt;BlastP hit with ctg1_2400&lt;/b&gt;&lt;br&gt;Percentage identity: 75&lt;br&gt;Percentage coverage: 100&lt;br&gt;BLAST bit score: 1295&lt;br&gt;E-value: 0.0" locus_tag="b3894" class="clusterblast-orf" id="dummy-15_h15_1_0"  />
</g>
<g id="a15_001"  >
<polygon points="415,90 440,90 445,85 440,80 415,80 415,90 " style="fill:#15d815; stroke-width:1; stroke:black; " description="&lt;b&gt;b3893&lt;/b&gt;&lt;br&gt;formate dehydrogenase O subunit beta&lt;br&gt;Location: 11535 - 10632&lt;br&gt;&lt;br&gt;&lt;b&gt;BlastP hit with ctg1_2401&lt;/b&gt;&lt;br&gt;Percentage identity: 75&lt;br&gt;Percentage coverage: 100&lt;br&gt;BLAST bit score: 484&lt;br&gt;E-value: 8.67e-177" locus_tag="b3893" class="clusterblast-orf" id="dummy-15_h15_1_1"  />
</g>
<g id="a15_002"  >
<polygon points="445,90 461,90 466,85 461,80 445,80 445,90 " style="fill:#1515d8; stroke-width:1; stroke:black; " description="&lt;b&gt;b3892&lt;/b&gt;&lt;br&gt;formate dehydrogenase O subunit gamma&lt;br&gt;Location: 10636 - 10000&lt;br&gt;&lt;br&gt;&lt;b&gt;BlastP hit with ctg1_2402&lt;/b&gt;&lt;br&gt;Percentage identity: 49&lt;br&gt;Percentage coverage: 94&lt;br&gt;BLAST bit score: 212&lt;br&gt;E-value: 6.99e-72" locus_tag="b3892" class="clusterblast-orf" id="dummy-15_h15_1_2"  />
</g>
</svg>
