<svg xmlns="http://www.w3.org/2000/svg" xmlns:xlink="http://www.w3.org/1999/xlink" version="1.1" x="0" y="0" height="50" width="800" viewBox="0 0 800 50" preserveAspectRatio="none"  >
<g label="Query sequence" class="clusterblast-cluster"  >
<text x="5" y="20" class="clusterblast-acc"  >
Query sequence</text>
<line x1="10" y1="35" x2="778.0" y2="35" style="stroke-width:1; stroke:grey; "  />
<polygon points="0,35 5,30 37,30 37,40 5,40 0,35 " style="fill:white; stroke-width:1; stroke:black; " description="&lt;b&gt;ctg1_4193&lt;/b&gt;&lt;br&gt;ctg1 4193&lt;br&gt;Location: 4479534 - 4480461" locus_tag="ctg1_4193" class="clusterblast-orf" id="knownclusterblast-21_q0_0_all"  />
<polygon points="44,40 65,40 70,35 65,30 44,30 44,40 " style="fill:white; stroke-width:1; stroke:black; " description="&lt;b&gt;ctg1_4194&lt;/b&gt;&lt;br&gt;ctg1 4194&lt;br&gt;Location: 4480645 - 4481308" locus_tag="ctg1_4194" class="clusterblast-orf" id="knownclusterblast-21_q1_0_all"  />
<polygon points="72,35 77,30 94,30 94,40 77,40 72,35 " style="fill:white; stroke-width:1; stroke:black; " description="&lt;b&gt;ctg1_4195&lt;/b&gt;&lt;br&gt;ctg1 4195&lt;br&gt;Location: 4481365 - 4481902" locus_tag="ctg1_4195" class="clusterblast-orf" id="knownclusterblast-21_q2_0_all"  />
<polygon points="102,40 192,40 197,35 192,30 102,30 102,40 " style="fill:white; stroke-width:1; stroke:black; " description="&lt;b&gt;ctg1_4196&lt;/b&gt;&lt;br&gt;ctg1 4196&lt;br&gt;Location: 4482105 - 4484496" locus_tag="ctg1_4196" class="clusterblast-orf" id="knownclusterblast-21_q3_0_all"  />
<polygon points="200,35 205,30 264,30 264,40 205,40 200,35 " style="fill:white; stroke-width:1; stroke:black; " description="&lt;b&gt;ctg1_4197&lt;/b&gt;&lt;br&gt;ctg1 4197&lt;br&gt;Location: 4484578 - 4486189" locus_tag="ctg1_4197" class="clusterblast-orf" id="knownclusterblast-21_q4_0_all"  />
<polygon points="269,40 278,40 283,35 278,30 269,30 269,40 " style="fill:white; stroke-width:1; stroke:black; " description="&lt;b&gt;ctg1_4198&lt;/b&gt;&lt;br&gt;ctg1 4198&lt;br&gt;Location: 4486323 - 4486683" locus_tag="ctg1_4198" class="clusterblast-orf" id="knownclusterblast-21_q5_0_all"  />
<polygon points="293,40 305,40 310,35 305,30 293,30 293,40 " style="fill:white; stroke-width:1; stroke:black; " description="&lt;b&gt;ctg1_4199&lt;/b&gt;&lt;br&gt;ctg1 4199&lt;br&gt;Location: 4486936 - 4487347" locus_tag="ctg1_4199" class="clusterblast-orf" id="knownclusterblast-21_q6_0_all"  />
<polygon points="309,40 382,40 387,35 382,30 309,30 309,40 " style="fill:white; stroke-width:1; stroke:black; " description="&lt;b&gt;ctg1_4200&lt;/b&gt;&lt;br&gt;ctg1 4200&lt;br&gt;Location: 4487343 - 4489290" locus_tag="ctg1_4200" class="clusterblast-orf" id="knownclusterblast-21_q7_0_all"  />
<polygon points="392,40 422,40 427,35 422,30 392,30 392,40 " style="fill:white; stroke-width:1; stroke:black; " description="&lt;b&gt;ctg1_4201&lt;/b&gt;&lt;br&gt;ctg1 4201&lt;br&gt;Location: 4489436 - 4490297" locus_tag="ctg1_4201" class="clusterblast-orf" id="knownclusterblast-21_q8_0_all"  />
<polygon points="427,40 454,40 459,35 454,30 427,30 427,40 " style="fill:white; stroke-width:1; stroke:black; " description="&lt;b&gt;ctg1_4202&lt;/b&gt;&lt;br&gt;ctg1 4202&lt;br&gt;Location: 4490321 - 4491116" locus_tag="ctg1_4202" class="clusterblast-orf" id="knownclusterblast-21_q9_0_all"  />
<polygon points="465,35 470,30 480,30 480,40 470,40 465,35 " style="fill:white; stroke-width:1; stroke:black; " description="&lt;b&gt;ctg1_4203&lt;/b&gt;&lt;br&gt;ctg1 4203&lt;br&gt;Location: 4491273 - 4491636" locus_tag="ctg1_4203" class="clusterblast-orf" id="knownclusterblast-21_q10_0_all"  />
<polygon points="487,35 492,30 590,30 590,40 492,40 487,35 " style="fill:white; stroke-width:1; stroke:black; " description="&lt;b&gt;ctg1_4204&lt;/b&gt;&lt;br&gt;ctg1 4204&lt;br&gt;Location: 4491823 - 4494421" locus_tag="ctg1_4204" class="clusterblast-orf" id="knownclusterblast-21_q11_0_all"  />
<polygon points="607,40 666,40 671,35 666,30 607,30 607,40 " style="fill:white; stroke-width:1; stroke:black; " description="&lt;b&gt;ctg1_4205&lt;/b&gt;&lt;br&gt;ctg1 4205&lt;br&gt;Location: 4494852 - 4496475" locus_tag="ctg1_4205" class="clusterblast-orf" id="knownclusterblast-21_q12_0_all"  />
<polygon points="672,40 699,40 704,35 699,30 672,30 672,40 " style="fill:white; stroke-width:1; stroke:black; " description="&lt;b&gt;ctg1_4206&lt;/b&gt;&lt;br&gt;ctg1 4206&lt;br&gt;Location: 4496486 - 4497293" locus_tag="ctg1_4206" class="clusterblast-orf" id="knownclusterblast-21_q13_0_all"  />
<polygon points="706,35 711,30 717,30 717,40 711,40 706,35 " style="fill:white; stroke-width:1; stroke:black; " description="&lt;b&gt;ctg1_4207&lt;/b&gt;&lt;br&gt;ctg1 4207&lt;br&gt;Location: 4497337 - 4497622" locus_tag="ctg1_4207" class="clusterblast-orf" id="knownclusterblast-21_q14_0_all"  />
<polygon points="723,35 728,30 780,30 780,40 728,40 723,35 " style="fill:white; stroke-width:1; stroke:black; " description="&lt;b&gt;ctg1_4208&lt;/b&gt;&lt;br&gt;ctg1 4208&lt;br&gt;Location: 4497786 - 4499211" locus_tag="ctg1_4208" class="clusterblast-orf" id="knownclusterblast-21_q15_0_all"  />
</g>
</svg>
