<svg xmlns="http://www.w3.org/2000/svg" xmlns:xlink="http://www.w3.org/1999/xlink" version="1.1" x="0" y="0" height="100" width="800" viewBox="0 0 800 100" preserveAspectRatio="none"  >
<g label="Query sequence" class="clusterblast-cluster"  >
<text x="5" y="20" class="clusterblast-acc"  >
Query sequence</text>
<line x1="10" y1="35" x2="778.0" y2="35" style="stroke-width:1; stroke:grey; "  />
<polygon points="0,40 7,40 12,35 7,30 0,30 0,40 " style="fill:white; stroke-width:1; stroke:black; " description="&lt;b&gt;ctg1_951&lt;/b&gt;&lt;br&gt;ctg1 951&lt;br&gt;Location: 1007937 - 1008255" locus_tag="ctg1_951" class="clusterblast-orf" id="knownclusterblast-5_q0_0_all"  />
<polygon points="13,40 35,40 40,35 35,30 13,30 13,40 " style="fill:white; stroke-width:1; stroke:black; " description="&lt;b&gt;ctg1_952&lt;/b&gt;&lt;br&gt;ctg1 952&lt;br&gt;Location: 1008274 - 1008985" locus_tag="ctg1_952" class="clusterblast-orf" id="knownclusterblast-5_q1_0_all"  />
<polygon points="40,40 53,40 58,35 53,30 40,30 40,40 " style="fill:white; stroke-width:1; stroke:black; " description="&lt;b&gt;ctg1_953&lt;/b&gt;&lt;br&gt;ctg1 953&lt;br&gt;Location: 1008984 - 1009464" locus_tag="ctg1_953" class="clusterblast-orf" id="knownclusterblast-5_q2_0_all"  />
<polygon points="58,40 93,40 98,35 93,30 58,30 58,40 " style="fill:white; stroke-width:1; stroke:black; " description="&lt;b&gt;ctg1_954&lt;/b&gt;&lt;br&gt;ctg1 954&lt;br&gt;Location: 1009460 - 1010510" locus_tag="ctg1_954" class="clusterblast-orf" id="knownclusterblast-5_q3_0_all"  />
<polygon points="97,40 121,40 126,35 121,30 97,30 97,40 " style="fill:white; stroke-width:1; stroke:black; " description="&lt;b&gt;ctg1_955&lt;/b&gt;&lt;br&gt;ctg1 955&lt;br&gt;Location: 1010490 - 1011252" locus_tag="ctg1_955" class="clusterblast-orf" id="knownclusterblast-5_q4_0_all"  />
<polygon points="126,40 145,40 150,35 145,30 126,30 126,40 " style="fill:white; stroke-width:1; stroke:black; " description="&lt;b&gt;ctg1_956&lt;/b&gt;&lt;br&gt;ctg1 956&lt;br&gt;Location: 1011245 - 1011872" locus_tag="ctg1_956" class="clusterblast-orf" id="knownclusterblast-5_q5_0_all"  />
<polygon points="155,40 193,40 198,35 193,30 155,30 155,40 " style="fill:white; stroke-width:1; stroke:black; " description="&lt;b&gt;ctg1_957&lt;/b&gt;&lt;br&gt;ctg1 957&lt;br&gt;Location: 1011997 - 1013134" locus_tag="ctg1_957" class="clusterblast-orf" id="knownclusterblast-5_q6_0_all"  />
<polygon points="204,40 237,40 242,35 237,30 204,30 204,40 " style="fill:white; stroke-width:1; stroke:black; " description="&lt;b&gt;ctg1_958&lt;/b&gt;&lt;br&gt;ctg1 958&lt;br&gt;Location: 1013291 - 1014284" locus_tag="ctg1_958" class="clusterblast-orf" id="knownclusterblast-5_q7_0_all"  />
<polygon points="244,35 249,30 259,30 259,40 249,40 244,35 " style="fill:white; stroke-width:1; stroke:black; " description="&lt;b&gt;ctg1_959&lt;/b&gt;&lt;br&gt;ctg1 959&lt;br&gt;Location: 1014336 - 1014714" locus_tag="ctg1_959" class="clusterblast-orf" id="knownclusterblast-5_q8_0_all"  />
<polygon points="258,35 263,30 304,30 304,40 263,40 258,35 " style="fill:white; stroke-width:1; stroke:black; " description="&lt;b&gt;ctg1_960&lt;/b&gt;&lt;br&gt;ctg1 960&lt;br&gt;Location: 1014710 - 1015913" locus_tag="ctg1_960" class="clusterblast-orf" id="knownclusterblast-5_q9_0_all"  />
<polygon points="308,40 337,40 342,35 337,30 308,30 308,40 " style="fill:white; stroke-width:1; stroke:black; " description="&lt;b&gt;ctg1_961&lt;/b&gt;&lt;br&gt;ctg1 961&lt;br&gt;Location: 1016021 - 1016909" locus_tag="ctg1_961" class="clusterblast-orf" id="knownclusterblast-5_q10_0_all"  />
<polygon points="343,35 348,30 358,30 358,40 348,40 343,35 " style="fill:white; stroke-width:1; stroke:black; " description="&lt;b&gt;ctg1_962&lt;/b&gt;&lt;br&gt;ctg1 962&lt;br&gt;Location: 1016917 - 1017325" locus_tag="ctg1_962" class="clusterblast-orf" id="knownclusterblast-5_q11_0_all"  />
<polygon points="365,40 382,40 387,35 382,30 365,30 365,40 " style="fill:#d81515; stroke-width:1; stroke:black; " description="&lt;b&gt;ctg1_963&lt;/b&gt;&lt;br&gt;ctg1 963&lt;br&gt;Location: 1017499 - 1018093" locus_tag="ctg1_963" class="clusterblast-orf" id="knownclusterblast-5_q12_0_all"  />
<polygon points="387,40 437,40 442,35 437,30 387,30 387,40 " style="fill:#15d8d8; stroke-width:1; stroke:black; " description="&lt;b&gt;ctg1_964&lt;/b&gt;&lt;br&gt;ctg1 964&lt;br&gt;Location: 1018092 - 1019520" locus_tag="ctg1_964" class="clusterblast-orf" id="knownclusterblast-5_q13_0_all"  />
<polygon points="442,40 446,40 451,35 446,30 442,30 442,40 " style="fill:white; stroke-width:1; stroke:black; " description="&lt;b&gt;ctg1_965&lt;/b&gt;&lt;br&gt;ctg1 965&lt;br&gt;Location: 1019530 - 1019767" locus_tag="ctg1_965" class="clusterblast-orf" id="knownclusterblast-5_q14_0_all"  />
<polygon points="464,40 465,40 470,35 465,30 464,30 464,40 " style="fill:white; stroke-width:1; stroke:black; " description="&lt;b&gt;ctg1_966&lt;/b&gt;&lt;br&gt;ctg1 966&lt;br&gt;Location: 1020105 - 1020258" locus_tag="ctg1_966" class="clusterblast-orf" id="knownclusterblast-5_q15_0_all"  />
<polygon points="475,35 480,30 572,30 572,40 480,40 475,35 " style="fill:white; stroke-width:1; stroke:black; " description="&lt;b&gt;ctg1_967&lt;/b&gt;&lt;br&gt;ctg1 967&lt;br&gt;Location: 1020376 - 1022938" locus_tag="ctg1_967" class="clusterblast-orf" id="knownclusterblast-5_q16_0_all"  />
<polygon points="583,35 588,30 595,30 595,40 588,40 583,35 " style="fill:white; stroke-width:1; stroke:black; " description="&lt;b&gt;ctg1_968&lt;/b&gt;&lt;br&gt;ctg1 968&lt;br&gt;Location: 1023206 - 1023539" locus_tag="ctg1_968" class="clusterblast-orf" id="knownclusterblast-5_q17_0_all"  />
<polygon points="613,35 618,30 632,30 632,40 618,40 613,35 " style="fill:white; stroke-width:1; stroke:black; " description="&lt;b&gt;ctg1_969&lt;/b&gt;&lt;br&gt;ctg1 969&lt;br&gt;Location: 1023999 - 1024506" locus_tag="ctg1_969" class="clusterblast-orf" id="knownclusterblast-5_q18_0_all"  />
<polygon points="642,35 647,30 672,30 672,40 647,40 642,35 " style="fill:white; stroke-width:1; stroke:black; " description="&lt;b&gt;ctg1_970&lt;/b&gt;&lt;br&gt;ctg1 970&lt;br&gt;Location: 1024760 - 1025540" locus_tag="ctg1_970" class="clusterblast-orf" id="knownclusterblast-5_q19_0_all"  />
<polygon points="671,35 676,30 709,30 709,40 676,40 671,35 " style="fill:white; stroke-width:1; stroke:black; " description="&lt;b&gt;ctg1_971&lt;/b&gt;&lt;br&gt;ctg1 971&lt;br&gt;Location: 1025532 - 1026528" locus_tag="ctg1_971" class="clusterblast-orf" id="knownclusterblast-5_q20_0_all"  />
<polygon points="709,35 714,30 741,30 741,40 714,40 709,35 " style="fill:white; stroke-width:1; stroke:black; " description="&lt;b&gt;ctg1_972&lt;/b&gt;&lt;br&gt;ctg1 972&lt;br&gt;Location: 1026527 - 1027346" locus_tag="ctg1_972" class="clusterblast-orf" id="knownclusterblast-5_q21_0_all"  />
<polygon points="740,35 745,30 780,30 780,40 745,40 740,35 " style="fill:white; stroke-width:1; stroke:black; " description="&lt;b&gt;ctg1_973&lt;/b&gt;&lt;br&gt;ctg1 973&lt;br&gt;Location: 1027342 - 1028374" locus_tag="ctg1_973" class="clusterblast-orf" id="knownclusterblast-5_q22_0_all"  />
</g>
<g label="MGC00000059" description="MGC00000059_c1: hydroxybenzoate2phenol K. pneumoniae (100% of genes show similarity), PHE" class="clusterblast-cluster"  >
<text x="5" y="70" class="clusterblast-acc"  >
MGC00000059_c1: hydroxybenzoate2phenol K. pneumoniae (100% of genes show similarity), PHE</text>
<line x1="10" y1="85" x2="778.0" y2="85" style="stroke-width:1; stroke:grey; "  />
</g>
<g id="a5_000"  >
<polygon points="351,90 369,90 374,85 369,80 351,80 351,90 " style="fill:#d81515; stroke-width:1; stroke:black; " description="&lt;b&gt;DBZ61_07570&lt;/b&gt;&lt;br&gt;UbiX family flavin prenyltransferase&lt;br&gt;Location: 10000 - 10594&lt;br&gt;&lt;br&gt;&lt;b&gt;BlastP hit with ctg1_963&lt;/b&gt;&lt;br&gt;Percentage identity: 100&lt;br&gt;Percentage coverage: 100&lt;br&gt;BLAST bit score: 388&lt;br&gt;E-value: 5.37e-142" locus_tag="DBZ61_07570" class="clusterblast-orf" id="knownclusterblast-5_all_5_1_0"  />
</g>
<g id="a5_001"  >
<polygon points="374,90 423,90 428,85 423,80 374,80 374,90 " style="fill:#15d8d8; stroke-width:1; stroke:black; " description="&lt;b&gt;DBZ61_07575&lt;/b&gt;&lt;br&gt;UbiD family decarboxylase&lt;br&gt;Location: 10593 - 12021&lt;br&gt;&lt;br&gt;&lt;b&gt;BlastP hit with ctg1_964&lt;/b&gt;&lt;br&gt;Percentage identity: 100&lt;br&gt;Percentage coverage: 100&lt;br&gt;BLAST bit score: 963&lt;br&gt;E-value: 0.0" locus_tag="DBZ61_07575" class="clusterblast-orf" id="knownclusterblast-5_all_5_1_1"  />
</g>
</svg>
