<svg xmlns="http://www.w3.org/2000/svg" xmlns:xlink="http://www.w3.org/1999/xlink" version="1.1" x="0" y="0" height="100" width="800" viewBox="0 0 800 100" preserveAspectRatio="none"  >
<g label="Query sequence" class="clusterblast-cluster"  >
<text x="5" y="20" class="clusterblast-acc"  >
Query sequence</text>
<line x1="10" y1="35" x2="778.0" y2="35" style="stroke-width:1; stroke:grey; "  />
<polygon points="0,35 5,30 21,30 21,40 5,40 0,35 " style="fill:white; stroke-width:1; stroke:black; " description="&lt;b&gt;ctg1_713&lt;/b&gt;&lt;br&gt;ctg1 713&lt;br&gt;Location: 751134 - 752028" locus_tag="ctg1_713" class="clusterblast-orf" id="knownclusterblast-3_q0_0_all"  />
<polygon points="25,40 35,40 40,35 35,30 25,30 25,40 " style="fill:white; stroke-width:1; stroke:black; " description="&lt;b&gt;ctg1_714&lt;/b&gt;&lt;br&gt;ctg1 714&lt;br&gt;Location: 752195 - 752855" locus_tag="ctg1_714" class="clusterblast-orf" id="knownclusterblast-3_q1_0_all"  />
<polygon points="47,40 71,40 76,35 71,30 47,30 47,40 " style="fill:white; stroke-width:1; stroke:black; " description="&lt;b&gt;ctg1_715&lt;/b&gt;&lt;br&gt;ctg1 715&lt;br&gt;Location: 753124 - 754357" locus_tag="ctg1_715" class="clusterblast-orf" id="knownclusterblast-3_q2_0_all"  />
<polygon points="78,35 83,30 92,30 92,40 83,40 78,35 " style="fill:white; stroke-width:1; stroke:black; " description="&lt;b&gt;ctg1_716&lt;/b&gt;&lt;br&gt;ctg1 716&lt;br&gt;Location: 754440 - 755037" locus_tag="ctg1_716" class="clusterblast-orf" id="knownclusterblast-3_q3_0_all"  />
<polygon points="100,35 105,30 108,30 108,40 105,40 100,35 " style="fill:white; stroke-width:1; stroke:black; " description="&lt;b&gt;ctg1_717&lt;/b&gt;&lt;br&gt;ctg1 717&lt;br&gt;Location: 755360 - 755690" locus_tag="ctg1_717" class="clusterblast-orf" id="knownclusterblast-3_q4_0_all"  />
<polygon points="111,40 120,40 125,35 120,30 111,30 111,40 " style="fill:white; stroke-width:1; stroke:black; " description="&lt;b&gt;ctg1_718&lt;/b&gt;&lt;br&gt;ctg1 718&lt;br&gt;Location: 755850 - 756435" locus_tag="ctg1_718" class="clusterblast-orf" id="knownclusterblast-3_q5_0_all"  />
<polygon points="126,40 152,40 157,35 152,30 126,30 126,40 " style="fill:white; stroke-width:1; stroke:black; " description="&lt;b&gt;ctg1_719&lt;/b&gt;&lt;br&gt;ctg1 719&lt;br&gt;Location: 756458 - 757775" locus_tag="ctg1_719" class="clusterblast-orf" id="knownclusterblast-3_q6_0_all"  />
<polygon points="157,40 180,40 185,35 180,30 157,30 157,40 " style="fill:white; stroke-width:1; stroke:black; " description="&lt;b&gt;ctg1_720&lt;/b&gt;&lt;br&gt;ctg1 720&lt;br&gt;Location: 757771 - 758950" locus_tag="ctg1_720" class="clusterblast-orf" id="knownclusterblast-3_q7_0_all"  />
<polygon points="185,40 208,40 213,35 208,30 185,30 185,40 " style="fill:white; stroke-width:1; stroke:black; " description="&lt;b&gt;ctg1_721&lt;/b&gt;&lt;br&gt;ctg1 721&lt;br&gt;Location: 758960 - 760163" locus_tag="ctg1_721" class="clusterblast-orf" id="knownclusterblast-3_q8_0_all"  />
<polygon points="223,40 244,40 249,35 244,30 223,30 223,40 " style="fill:#d81515; stroke-width:1; stroke:black; " description="&lt;b&gt;ctg1_722&lt;/b&gt;&lt;br&gt;ctg1 722&lt;br&gt;Location: 760585 - 761680" locus_tag="ctg1_722" class="clusterblast-orf" id="knownclusterblast-3_q9_0_all"  />
<polygon points="250,40 254,40 259,35 254,30 250,30 250,40 " style="fill:#15d815; stroke-width:1; stroke:black; " description="&lt;b&gt;ctg1_723&lt;/b&gt;&lt;br&gt;ctg1 723&lt;br&gt;Location: 761704 - 762094" locus_tag="ctg1_723" class="clusterblast-orf" id="knownclusterblast-3_q10_0_all"  />
<polygon points="264,40 327,40 332,35 327,30 264,30 264,40 " style="fill:#1515d8; stroke-width:1; stroke:black; " description="&lt;b&gt;ctg1_724&lt;/b&gt;&lt;br&gt;ctg1 724&lt;br&gt;Location: 762300 - 765174" locus_tag="ctg1_724" class="clusterblast-orf" id="knownclusterblast-3_q11_0_all"  />
<polygon points="333,40 346,40 351,35 346,30 333,30 333,40 " style="fill:white; stroke-width:1; stroke:black; " description="&lt;b&gt;ctg1_725&lt;/b&gt;&lt;br&gt;ctg1 725&lt;br&gt;Location: 765234 - 765978" locus_tag="ctg1_725" class="clusterblast-orf" id="knownclusterblast-3_q12_0_all"  />
<polygon points="356,35 361,30 367,30 367,40 361,40 356,35 " style="fill:white; stroke-width:1; stroke:black; " description="&lt;b&gt;ctg1_726&lt;/b&gt;&lt;br&gt;ctg1 726&lt;br&gt;Location: 766209 - 766674" locus_tag="ctg1_726" class="clusterblast-orf" id="knownclusterblast-3_q13_0_all"  />
<polygon points="368,35 373,30 383,30 383,40 373,40 368,35 " style="fill:white; stroke-width:1; stroke:black; " description="&lt;b&gt;ctg1_727&lt;/b&gt;&lt;br&gt;ctg1 727&lt;br&gt;Location: 766702 - 767314" locus_tag="ctg1_727" class="clusterblast-orf" id="knownclusterblast-3_q14_0_all"  />
<polygon points="383,35 388,30 430,30 430,40 388,40 383,35 " style="fill:white; stroke-width:1; stroke:black; " description="&lt;b&gt;ctg1_728&lt;/b&gt;&lt;br&gt;ctg1 728&lt;br&gt;Location: 767315 - 769325" locus_tag="ctg1_728" class="clusterblast-orf" id="knownclusterblast-3_q15_0_all"  />
<polygon points="431,35 436,30 440,30 440,40 436,40 431,35 " style="fill:white; stroke-width:1; stroke:black; " description="&lt;b&gt;ctg1_729&lt;/b&gt;&lt;br&gt;ctg1 729&lt;br&gt;Location: 769374 - 769734" locus_tag="ctg1_729" class="clusterblast-orf" id="knownclusterblast-3_q16_0_all"  />
<polygon points="443,35 448,30 477,30 477,40 448,40 443,35 " style="fill:white; stroke-width:1; stroke:black; " description="&lt;b&gt;ctg1_730&lt;/b&gt;&lt;br&gt;ctg1 730&lt;br&gt;Location: 769858 - 771292" locus_tag="ctg1_730" class="clusterblast-orf" id="knownclusterblast-3_q17_0_all"  />
<polygon points="480,35 485,30 497,30 497,40 485,40 480,35 " style="fill:white; stroke-width:1; stroke:black; " description="&lt;b&gt;ctg1_731&lt;/b&gt;&lt;br&gt;ctg1 731&lt;br&gt;Location: 771411 - 772167" locus_tag="ctg1_731" class="clusterblast-orf" id="knownclusterblast-3_q18_0_all"  />
<polygon points="498,40 500,40 505,35 500,30 498,30 498,40 " style="fill:white; stroke-width:1; stroke:black; " description="&lt;b&gt;ctg1_732&lt;/b&gt;&lt;br&gt;ctg1 732&lt;br&gt;Location: 772190 - 772502" locus_tag="ctg1_732" class="clusterblast-orf" id="knownclusterblast-3_q19_0_all"  />
<polygon points="509,40 520,40 525,35 520,30 509,30 509,40 " style="fill:white; stroke-width:1; stroke:black; " description="&lt;b&gt;ctg1_733&lt;/b&gt;&lt;br&gt;ctg1 733&lt;br&gt;Location: 772665 - 773325" locus_tag="ctg1_733" class="clusterblast-orf" id="knownclusterblast-3_q20_0_all"  />
<polygon points="533,35 538,30 557,30 557,40 538,40 533,35 " style="fill:white; stroke-width:1; stroke:black; " description="&lt;b&gt;ctg1_734&lt;/b&gt;&lt;br&gt;ctg1 734&lt;br&gt;Location: 773688 - 774672" locus_tag="ctg1_734" class="clusterblast-orf" id="knownclusterblast-3_q21_0_all"  />
<polygon points="562,40 564,40 569,35 564,30 562,30 562,40 " style="fill:white; stroke-width:1; stroke:black; " description="&lt;b&gt;ctg1_735&lt;/b&gt;&lt;br&gt;ctg1 735&lt;br&gt;Location: 774917 - 775184" locus_tag="ctg1_735" class="clusterblast-orf" id="knownclusterblast-3_q22_0_all"  />
<polygon points="568,40 573,40 578,35 573,30 568,30 568,40 " style="fill:white; stroke-width:1; stroke:black; " description="&lt;b&gt;ctg1_736&lt;/b&gt;&lt;br&gt;ctg1 736&lt;br&gt;Location: 775164 - 775575" locus_tag="ctg1_736" class="clusterblast-orf" id="knownclusterblast-3_q23_0_all"  />
<polygon points="578,35 583,30 591,30 591,40 583,40 578,35 " style="fill:white; stroke-width:1; stroke:black; " description="&lt;b&gt;ctg1_737&lt;/b&gt;&lt;br&gt;ctg1 737&lt;br&gt;Location: 775581 - 776103" locus_tag="ctg1_737" class="clusterblast-orf" id="knownclusterblast-3_q24_0_all"  />
<polygon points="593,40 609,40 614,35 609,30 593,30 593,40 " style="fill:white; stroke-width:1; stroke:black; " description="&lt;b&gt;ctg1_738&lt;/b&gt;&lt;br&gt;ctg1 738&lt;br&gt;Location: 776203 - 777100" locus_tag="ctg1_738" class="clusterblast-orf" id="knownclusterblast-3_q25_0_all"  />
<polygon points="615,40 627,40 632,35 627,30 615,30 615,40 " style="fill:white; stroke-width:1; stroke:black; " description="&lt;b&gt;ctg1_739&lt;/b&gt;&lt;br&gt;ctg1 739&lt;br&gt;Location: 777122 - 777836" locus_tag="ctg1_739" class="clusterblast-orf" id="knownclusterblast-3_q26_0_all"  />
<polygon points="632,40 668,40 673,35 668,30 632,30 632,40 " style="fill:white; stroke-width:1; stroke:black; " description="&lt;b&gt;ctg1_740&lt;/b&gt;&lt;br&gt;ctg1 740&lt;br&gt;Location: 777841 - 779575" locus_tag="ctg1_740" class="clusterblast-orf" id="knownclusterblast-3_q27_0_all"  />
<polygon points="679,40 696,40 701,35 696,30 679,30 679,40 " style="fill:white; stroke-width:1; stroke:black; " description="&lt;b&gt;ctg1_741&lt;/b&gt;&lt;br&gt;ctg1 741&lt;br&gt;Location: 779859 - 780759" locus_tag="ctg1_741" class="clusterblast-orf" id="knownclusterblast-3_q28_0_all"  />
<polygon points="701,40 732,40 737,35 732,30 701,30 701,40 " style="fill:white; stroke-width:1; stroke:black; " description="&lt;b&gt;ctg1_742&lt;/b&gt;&lt;br&gt;ctg1 742&lt;br&gt;Location: 780768 - 782286" locus_tag="ctg1_742" class="clusterblast-orf" id="knownclusterblast-3_q29_0_all"  />
<polygon points="742,35 747,30 755,30 755,40 747,40 742,35 " style="fill:white; stroke-width:1; stroke:black; " description="&lt;b&gt;ctg1_743&lt;/b&gt;&lt;br&gt;ctg1 743&lt;br&gt;Location: 782516 - 783071" locus_tag="ctg1_743" class="clusterblast-orf" id="knownclusterblast-3_q30_0_all"  />
<polygon points="763,40 775,40 780,35 775,30 763,30 763,40 " style="fill:white; stroke-width:1; stroke:black; " description="&lt;b&gt;ctg1_744&lt;/b&gt;&lt;br&gt;ctg1 744&lt;br&gt;Location: 783384 - 784098" locus_tag="ctg1_744" class="clusterblast-orf" id="knownclusterblast-3_q31_0_all"  />
</g>
<g label="MGC00000027" description="MGC00000027_c1: Glycine cleavage C. sticklandii (80% of genes show similarity), GLY" class="clusterblast-cluster"  >
<text x="5" y="70" class="clusterblast-acc"  >
MGC00000027_c1: Glycine cleavage C. sticklandii (80% of genes show similarity), GLY</text>
<line x1="10" y1="85" x2="778.0" y2="85" style="stroke-width:1; stroke:grey; "  />
</g>
<g id="a3_000"  >
<polygon points="323,90 344,90 349,85 344,80 323,80 323,90 " style="fill:#d81515; stroke-width:1; stroke:black; " description="&lt;b&gt;CLOST_RS02260&lt;/b&gt;&lt;br&gt;glycine cleavage system protein T&lt;br&gt;Location: 18168 - 19266&lt;br&gt;&lt;br&gt;&lt;b&gt;BlastP hit with ctg1_722&lt;/b&gt;&lt;br&gt;Percentage identity: 36&lt;br&gt;Percentage coverage: 102&lt;br&gt;BLAST bit score: 216&lt;br&gt;E-value: 3.01e-69" locus_tag="CLOST_RS02260" class="clusterblast-orf" id="knownclusterblast-3_all_3_1_0"  />
</g>
<g id="a3_001"  >
<polygon points="351,90 355,90 360,85 355,80 351,80 351,90 " style="fill:#15d815; stroke-width:1; stroke:black; " description="&lt;b&gt;CLOST_RS02265&lt;/b&gt;&lt;br&gt;glycine cleavage system protein H&lt;br&gt;Location: 19377 - 19758&lt;br&gt;&lt;br&gt;&lt;b&gt;BlastP hit with ctg1_723&lt;/b&gt;&lt;br&gt;Percentage identity: 40&lt;br&gt;Percentage coverage: 96&lt;br&gt;BLAST bit score: 95&lt;br&gt;E-value: 3.34e-28" locus_tag="CLOST_RS02265" class="clusterblast-orf" id="knownclusterblast-3_all_3_1_1"  />
</g>
<g id="a3_002"  >
<polygon points="361,90 387,90 392,85 387,80 361,80 361,90 " style="fill:#1515d8; stroke-width:1; stroke:black; " description="&lt;b&gt;CLOST_RS02270&lt;/b&gt;&lt;br&gt;aminomethyl-transferring glycine dehydrogenase&lt;br&gt;Location: 19761 - 21105&lt;br&gt;&lt;br&gt;&lt;b&gt;BlastP hit with ctg1_724&lt;/b&gt;&lt;br&gt;Percentage identity: 34&lt;br&gt;Percentage coverage: 47&lt;br&gt;BLAST bit score: 199&lt;br&gt;E-value: 2e-57" locus_tag="CLOST_RS02270" class="clusterblast-orf" id="knownclusterblast-3_all_3_1_2"  />
</g>
<g id="a3_003"  >
<polygon points="392,90 422,90 427,85 422,80 392,80 392,90 " style="fill:#1515d8; stroke-width:1; stroke:black; " description="&lt;b&gt;CLOST_RS02275&lt;/b&gt;&lt;br&gt;glycine dehydrogenase subunit 2&lt;br&gt;Location: 21101 - 22559&lt;br&gt;&lt;br&gt;&lt;b&gt;BlastP hit with ctg1_724&lt;/b&gt;&lt;br&gt;Percentage identity: 40&lt;br&gt;Percentage coverage: 49&lt;br&gt;BLAST bit score: 316&lt;br&gt;E-value: 9.82e-100" locus_tag="CLOST_RS02275" class="clusterblast-orf" id="knownclusterblast-3_all_3_1_3"  />
</g>
<g id="a3_004"  >
<polygon points="428,85 433,80 456,80 456,90 433,90 428,85 " style="fill:white; stroke-width:1; stroke:black; " description="&lt;b&gt;CLOST_RS02280&lt;/b&gt;&lt;br&gt;pyridoxal phosphate-dependent aminotransferase&lt;br&gt;Location: 22614 - 23799" locus_tag="CLOST_RS02280" class="clusterblast-orf" id="knownclusterblast-3_all_3_1_4"  />
</g>
</svg>
