<svg xmlns="http://www.w3.org/2000/svg" xmlns:xlink="http://www.w3.org/1999/xlink" version="1.1" x="0" y="0" height="300" width="800" viewBox="0 0 800 300" preserveAspectRatio="none"  >
<g label="Query sequence" class="clusterblast-cluster"  >
<text x="5" y="20" class="clusterblast-acc"  >
Query sequence</text>
<line x1="10" y1="35" x2="778.0" y2="35" style="stroke-width:1; stroke:grey; "  />
<polygon points="0,40 31,40 36,35 31,30 0,30 0,40 " style="fill:white; stroke-width:1; stroke:black; " description="&lt;b&gt;ctg1_4450&lt;/b&gt;&lt;br&gt;ctg1 4450&lt;br&gt;Location: 4774884 - 4776177" locus_tag="ctg1_4450" class="clusterblast-orf" id="knownclusterblast-23_q0_0_all"  />
<polygon points="39,40 126,40 131,35 126,30 39,30 39,40 " style="fill:white; stroke-width:1; stroke:black; " description="&lt;b&gt;ctg1_4451&lt;/b&gt;&lt;br&gt;ctg1 4451&lt;br&gt;Location: 4776272 - 4779536" locus_tag="ctg1_4451" class="clusterblast-orf" id="knownclusterblast-23_q1_0_all"  />
<polygon points="132,40 133,40 138,35 133,30 132,30 132,40 " style="fill:white; stroke-width:1; stroke:black; " description="&lt;b&gt;ctg1_4452&lt;/b&gt;&lt;br&gt;ctg1 4452&lt;br&gt;Location: 4779548 - 4779752" locus_tag="ctg1_4452" class="clusterblast-orf" id="knownclusterblast-23_q2_0_all"  />
<polygon points="140,35 145,30 151,30 151,40 145,40 140,35 " style="fill:white; stroke-width:1; stroke:black; " description="&lt;b&gt;ctg1_4453&lt;/b&gt;&lt;br&gt;ctg1 4453&lt;br&gt;Location: 4779825 - 4780245" locus_tag="ctg1_4453" class="clusterblast-orf" id="knownclusterblast-23_q3_0_all"  />
<polygon points="151,35 156,30 177,30 177,40 156,40 151,35 " style="fill:white; stroke-width:1; stroke:black; " description="&lt;b&gt;ctg1_4454&lt;/b&gt;&lt;br&gt;ctg1 4454&lt;br&gt;Location: 4780238 - 4781147" locus_tag="ctg1_4454" class="clusterblast-orf" id="knownclusterblast-23_q4_0_all"  />
<polygon points="179,40 197,40 202,35 197,30 179,30 179,40 " style="fill:white; stroke-width:1; stroke:black; " description="&lt;b&gt;ctg1_4455&lt;/b&gt;&lt;br&gt;ctg1 4455&lt;br&gt;Location: 4781233 - 4782016" locus_tag="ctg1_4455" class="clusterblast-orf" id="knownclusterblast-23_q5_0_all"  />
<polygon points="206,40 217,40 222,35 217,30 206,30 206,40 " style="fill:white; stroke-width:1; stroke:black; " description="&lt;b&gt;ctg1_4456&lt;/b&gt;&lt;br&gt;ctg1 4456&lt;br&gt;Location: 4782157 - 4782742" locus_tag="ctg1_4456" class="clusterblast-orf" id="knownclusterblast-23_q6_0_all"  />
<polygon points="223,40 240,40 245,35 240,30 223,30 223,40 " style="fill:white; stroke-width:1; stroke:black; " description="&lt;b&gt;ctg1_4457&lt;/b&gt;&lt;br&gt;ctg1 4457&lt;br&gt;Location: 4782763 - 4783567" locus_tag="ctg1_4457" class="clusterblast-orf" id="knownclusterblast-23_q7_0_all"  />
<polygon points="245,40 255,40 260,35 255,30 245,30 245,40 " style="fill:white; stroke-width:1; stroke:black; " description="&lt;b&gt;ctg1_4458&lt;/b&gt;&lt;br&gt;ctg1 4458&lt;br&gt;Location: 4783563 - 4784082" locus_tag="ctg1_4458" class="clusterblast-orf" id="knownclusterblast-23_q8_0_all"  />
<polygon points="273,40 276,40 281,35 276,30 273,30 273,40 " style="fill:#d81515; stroke-width:1; stroke:black; " description="&lt;b&gt;ctg1_4459&lt;/b&gt;&lt;br&gt;ctg1 4459&lt;br&gt;Location: 4784528 - 4784807" locus_tag="ctg1_4459" class="clusterblast-orf" id="knownclusterblast-23_q9_0_all"  />
<polygon points="281,40 284,40 289,35 284,30 281,30 281,40 " style="fill:#d81515; stroke-width:1; stroke:black; " description="&lt;b&gt;ctg1_4460&lt;/b&gt;&lt;br&gt;ctg1 4460&lt;br&gt;Location: 4784824 - 4785109" locus_tag="ctg1_4460" class="clusterblast-orf" id="knownclusterblast-23_q10_0_all"  />
<polygon points="289,40 292,40 297,35 292,30 289,30 289,40 " style="fill:#d81515; stroke-width:1; stroke:black; " description="&lt;b&gt;ctg1_4461&lt;/b&gt;&lt;br&gt;ctg1 4461&lt;br&gt;Location: 4785121 - 4785400" locus_tag="ctg1_4461" class="clusterblast-orf" id="knownclusterblast-23_q11_0_all"  />
<polygon points="299,40 339,40 344,35 339,30 299,30 299,40 " style="fill:#15d815; stroke-width:1; stroke:black; " description="&lt;b&gt;ctg1_4462&lt;/b&gt;&lt;br&gt;ctg1 4462&lt;br&gt;Location: 4785453 - 4787055" locus_tag="ctg1_4462" class="clusterblast-orf" id="knownclusterblast-23_q12_0_all"  />
<polygon points="345,40 347,40 352,35 347,30 345,30 345,40 " style="fill:white; stroke-width:1; stroke:black; " description="&lt;b&gt;ctg1_4463&lt;/b&gt;&lt;br&gt;ctg1 4463&lt;br&gt;Location: 4787079 - 4787337" locus_tag="ctg1_4463" class="clusterblast-orf" id="knownclusterblast-23_q13_0_all"  />
<polygon points="353,40 381,40 386,35 381,30 353,30 353,40 " style="fill:#1515d8; stroke-width:1; stroke:black; " description="&lt;b&gt;ctg1_4464&lt;/b&gt;&lt;br&gt;ctg1 4464&lt;br&gt;Location: 4787354 - 4788536" locus_tag="ctg1_4464" class="clusterblast-orf" id="knownclusterblast-23_q14_0_all"  />
<polygon points="390,40 481,40 486,35 481,30 390,30 390,40 " style="fill:#d815d8; stroke-width:1; stroke:black; " description="&lt;b&gt;ctg1_4465&lt;/b&gt;&lt;br&gt;ctg1 4465&lt;br&gt;Location: 4788667 - 4792054" locus_tag="ctg1_4465" class="clusterblast-orf" id="knownclusterblast-23_q15_0_all"  />
<polygon points="488,40 510,40 515,35 510,30 488,30 488,40 " style="fill:#d8d815; stroke-width:1; stroke:black; " description="&lt;b&gt;ctg1_4466&lt;/b&gt;&lt;br&gt;ctg1 4466&lt;br&gt;Location: 4792139 - 4793087" locus_tag="ctg1_4466" class="clusterblast-orf" id="knownclusterblast-23_q16_0_all"  />
<polygon points="515,40 522,40 527,35 522,30 515,30 515,40 " style="fill:#d81515; stroke-width:1; stroke:black; " description="&lt;b&gt;ctg1_4467&lt;/b&gt;&lt;br&gt;ctg1 4467&lt;br&gt;Location: 4793099 - 4793498" locus_tag="ctg1_4467" class="clusterblast-orf" id="knownclusterblast-23_q17_0_all"  />
<polygon points="526,40 539,40 544,35 539,30 526,30 526,40 " style="fill:#15d8d8; stroke-width:1; stroke:black; " description="&lt;b&gt;ctg1_4468&lt;/b&gt;&lt;br&gt;ctg1 4468&lt;br&gt;Location: 4793494 - 4794115" locus_tag="ctg1_4468" class="clusterblast-orf" id="knownclusterblast-23_q18_0_all"  />
<polygon points="544,40 558,40 563,35 558,30 544,30 544,40 " style="fill:white; stroke-width:1; stroke:black; " description="&lt;b&gt;ctg1_4469&lt;/b&gt;&lt;br&gt;ctg1 4469&lt;br&gt;Location: 4794127 - 4794793" locus_tag="ctg1_4469" class="clusterblast-orf" id="knownclusterblast-23_q19_0_all"  />
<polygon points="564,40 571,40 576,35 571,30 564,30 564,40 " style="fill:white; stroke-width:1; stroke:black; " description="&lt;b&gt;ctg1_4470&lt;/b&gt;&lt;br&gt;ctg1 4470&lt;br&gt;Location: 4794824 - 4795238" locus_tag="ctg1_4470" class="clusterblast-orf" id="knownclusterblast-23_q20_0_all"  />
<polygon points="576,40 581,40 586,35 581,30 576,30 576,40 " style="fill:white; stroke-width:1; stroke:black; " description="&lt;b&gt;ctg1_4471&lt;/b&gt;&lt;br&gt;ctg1 4471&lt;br&gt;Location: 4795255 - 4795585" locus_tag="ctg1_4471" class="clusterblast-orf" id="knownclusterblast-23_q21_0_all"  />
<polygon points="591,40 615,40 620,35 615,30 591,30 591,40 " style="fill:white; stroke-width:1; stroke:black; " description="&lt;b&gt;ctg1_4472&lt;/b&gt;&lt;br&gt;ctg1 4472&lt;br&gt;Location: 4795785 - 4796793" locus_tag="ctg1_4472" class="clusterblast-orf" id="knownclusterblast-23_q22_0_all"  />
<polygon points="621,35 626,30 661,30 661,40 626,40 621,35 " style="fill:white; stroke-width:1; stroke:black; " description="&lt;b&gt;ctg1_4473&lt;/b&gt;&lt;br&gt;ctg1 4473&lt;br&gt;Location: 4796841 - 4798236" locus_tag="ctg1_4473" class="clusterblast-orf" id="knownclusterblast-23_q23_0_all"  />
<polygon points="672,40 697,40 702,35 697,30 672,30 672,40 " style="fill:white; stroke-width:1; stroke:black; " description="&lt;b&gt;ctg1_4474&lt;/b&gt;&lt;br&gt;ctg1 4474&lt;br&gt;Location: 4798639 - 4799707" locus_tag="ctg1_4474" class="clusterblast-orf" id="knownclusterblast-23_q24_0_all"  />
<polygon points="702,40 775,40 780,35 775,30 702,30 702,40 " style="fill:white; stroke-width:1; stroke:black; " description="&lt;b&gt;ctg1_4475&lt;/b&gt;&lt;br&gt;ctg1 4475&lt;br&gt;Location: 4799703 - 4802448" locus_tag="ctg1_4475" class="clusterblast-orf" id="knownclusterblast-23_q25_0_all"  />
</g>
<g label="MGC0000001" description="MGC0000001_c1: Trimethylamine synthesis C. sporogenes (66% of genes show similarity), TMA" class="clusterblast-cluster"  >
<text x="5" y="70" class="clusterblast-acc"  >
MGC0000001_c1: Trimethylamine synthesis C. sporogenes (66% of genes show similarity), TMA</text>
<line x1="10" y1="85" x2="778.0" y2="85" style="stroke-width:1; stroke:grey; "  />
</g>
<g id="a23_000"  >
<polygon points="309,90 309,85 309,80 309,90 " style="fill:#d81515; stroke-width:1; stroke:black; " description="&lt;b&gt;CLOSPO_RS07620&lt;/b&gt;&lt;br&gt;hypothetical protein&lt;br&gt;Location: 0 - 4&lt;br&gt;&lt;br&gt;&lt;b&gt;BlastP hit with ctg1_4459&lt;/b&gt;&lt;br&gt;Percentage identity: 59&lt;br&gt;Percentage coverage: 98&lt;br&gt;BLAST bit score: 101&lt;br&gt;E-value: 1.61e-31&lt;br&gt;&lt;br&gt;&lt;b&gt;BlastP hit with ctg1_4460&lt;/b&gt;&lt;br&gt;Percentage identity: 59&lt;br&gt;Percentage coverage: 100&lt;br&gt;BLAST bit score: 103&lt;br&gt;E-value: 1.5e-32&lt;br&gt;&lt;br&gt;&lt;b&gt;BlastP hit with ctg1_4461&lt;/b&gt;&lt;br&gt;Percentage identity: 61&lt;br&gt;Percentage coverage: 98&lt;br&gt;BLAST bit score: 98&lt;br&gt;E-value: 2.66e-30" locus_tag="CLOSPO_RS07620" class="clusterblast-orf" id="knownclusterblast-23_all_23_1_0"  />
</g>
<g id="a23_001"  >
<polygon points="310,90 347,90 352,85 347,80 310,80 310,90 " style="fill:#15d815; stroke-width:1; stroke:black; " description="&lt;b&gt;CLOSPO_RS07625&lt;/b&gt;&lt;br&gt;acetaldehyde dehydrogenase&lt;br&gt;Location: 41 - 1523&lt;br&gt;&lt;br&gt;&lt;b&gt;BlastP hit with ctg1_4462&lt;/b&gt;&lt;br&gt;Percentage identity: 54&lt;br&gt;Percentage coverage: 85&lt;br&gt;BLAST bit score: 468&lt;br&gt;E-value: 1.34e-163" locus_tag="CLOSPO_RS07625" class="clusterblast-orf" id="knownclusterblast-23_all_23_1_1"  />
</g>
<g id="a23_002"  >
<polygon points="353,90 420,90 425,85 420,80 353,80 353,90 " style="fill:#d815d8; stroke-width:1; stroke:black; " description="&lt;b&gt;CLOSPO_RS07630&lt;/b&gt;&lt;br&gt;choline trimethylamine-lyase&lt;br&gt;Location: 1572 - 4113&lt;br&gt;&lt;br&gt;&lt;b&gt;BlastP hit with ctg1_4465&lt;/b&gt;&lt;br&gt;Percentage identity: 62&lt;br&gt;Percentage coverage: 75&lt;br&gt;BLAST bit score: 1081&lt;br&gt;E-value: 0.0" locus_tag="CLOSPO_RS07630" class="clusterblast-orf" id="knownclusterblast-23_all_23_1_2"  />
</g>
<g id="a23_003"  >
<polygon points="430,90 452,90 457,85 452,80 430,80 430,90 " style="fill:#d8d815; stroke-width:1; stroke:black; " description="&lt;b&gt;CLOSPO_RS07635&lt;/b&gt;&lt;br&gt;choline TMA-lyase-activating enzyme&lt;br&gt;Location: 4294 - 5248&lt;br&gt;&lt;br&gt;&lt;b&gt;BlastP hit with ctg1_4466&lt;/b&gt;&lt;br&gt;Percentage identity: 49&lt;br&gt;Percentage coverage: 98&lt;br&gt;BLAST bit score: 324&lt;br&gt;E-value: 6.13e-113" locus_tag="CLOSPO_RS07635" class="clusterblast-orf" id="knownclusterblast-23_all_23_1_3"  />
</g>
<g id="a23_004"  >
<polygon points="458,90 463,90 468,85 463,80 458,80 458,90 " style="fill:white; stroke-width:1; stroke:black; " description="&lt;b&gt;CLOSPO_RS07640&lt;/b&gt;&lt;br&gt;propanediol utilization protein PduU&lt;br&gt;Location: 5287 - 5641" locus_tag="CLOSPO_RS07640" class="clusterblast-orf" id="knownclusterblast-23_all_23_1_4"  />
</g>
<g id="a23_005"  >
<polygon points="468,90 470,85 468,80 468,90 " style="fill:white; stroke-width:1; stroke:black; " description="&lt;b&gt;CLOSPO_RS07645&lt;/b&gt;&lt;br&gt;hypothetical protein&lt;br&gt;Location: 5637 - 5704" locus_tag="CLOSPO_RS07645" class="clusterblast-orf" id="knownclusterblast-23_all_23_1_5"  />
</g>
<g label="MGC00000010" description="MGC00000010_c1: Propanediol degradation S. enterica (20% of genes show similarity), PDU" class="clusterblast-cluster"  >
<text x="5" y="120" class="clusterblast-acc"  >
MGC00000010_c1: Propanediol degradation S. enterica (20% of genes show similarity), PDU</text>
<line x1="10" y1="135" x2="778.0" y2="135" style="stroke-width:1; stroke:grey; "  />
</g>
<g id="a23_000"  >
<polygon points="115,135 120,130 141,130 141,140 120,140 115,135 " style="fill:white; stroke-width:1; stroke:black; " description="&lt;b&gt;STM2036&lt;/b&gt;&lt;br&gt;transcriptional regulator PocR&lt;br&gt;Location: 221 - 1133" locus_tag="STM2036" class="clusterblast-orf" id="knownclusterblast-23_all_23_2_0"  />
</g>
<g id="a23_001"  >
<polygon points="147,135 152,130 169,130 169,140 152,140 147,135 " style="fill:white; stroke-width:1; stroke:black; " description="&lt;b&gt;STM2037&lt;/b&gt;&lt;br&gt;propanediol diffusion facilitator&lt;br&gt;Location: 1349 - 2144" locus_tag="STM2037" class="clusterblast-orf" id="knownclusterblast-23_all_23_2_1"  />
</g>
<g id="a23_002"  >
<polygon points="184,140 187,140 192,135 187,130 184,130 184,140 " style="fill:#d81515; stroke-width:1; stroke:black; " description="&lt;b&gt;STM2038&lt;/b&gt;&lt;br&gt;propanediol utilization polyhedral body protein PduA&lt;br&gt;Location: 2668 - 2953&lt;br&gt;&lt;br&gt;&lt;b&gt;BlastP hit with ctg1_4459&lt;/b&gt;&lt;br&gt;Percentage identity: 64&lt;br&gt;Percentage coverage: 95&lt;br&gt;BLAST bit score: 109&lt;br&gt;E-value: 5.75e-35&lt;br&gt;&lt;br&gt;&lt;b&gt;BlastP hit with ctg1_4460&lt;/b&gt;&lt;br&gt;Percentage identity: 64&lt;br&gt;Percentage coverage: 90&lt;br&gt;BLAST bit score: 106&lt;br&gt;E-value: 1.46e-33&lt;br&gt;&lt;br&gt;&lt;b&gt;BlastP hit with ctg1_4461&lt;/b&gt;&lt;br&gt;Percentage identity: 66&lt;br&gt;Percentage coverage: 92&lt;br&gt;BLAST bit score: 109&lt;br&gt;E-value: 5.75e-35&lt;br&gt;&lt;br&gt;&lt;b&gt;BlastP hit with ctg1_4467&lt;/b&gt;&lt;br&gt;Percentage identity: 45&lt;br&gt;Percentage coverage: 64&lt;br&gt;BLAST bit score: 62&lt;br&gt;E-value: 9.99e-16" locus_tag="STM2038" class="clusterblast-orf" id="knownclusterblast-23_all_23_2_2"  />
</g>
<g id="a23_003"  >
<polygon points="192,140 210,140 215,135 210,130 192,130 192,140 " style="fill:white; stroke-width:1; stroke:black; " description="&lt;b&gt;STM2039&lt;/b&gt;&lt;br&gt;propanediol utilization polyhedral body protein PduB&lt;br&gt;Location: 2949 - 3762" locus_tag="STM2039" class="clusterblast-orf" id="knownclusterblast-23_all_23_2_3"  />
</g>
<g id="a23_004"  >
<polygon points="215,140 258,140 263,135 258,130 215,130 215,140 " style="fill:white; stroke-width:1; stroke:black; " description="&lt;b&gt;STM2040&lt;/b&gt;&lt;br&gt;propanediol dehydratase large subunit&lt;br&gt;Location: 3780 - 5445" locus_tag="STM2040" class="clusterblast-orf" id="knownclusterblast-23_all_23_2_4"  />
</g>
<g id="a23_005"  >
<polygon points="263,140 277,140 282,135 277,130 263,130 263,140 " style="fill:white; stroke-width:1; stroke:black; " description="&lt;b&gt;STM2041&lt;/b&gt;&lt;br&gt;propanediol dehydratase medium subunit&lt;br&gt;Location: 5455 - 6130" locus_tag="STM2041" class="clusterblast-orf" id="knownclusterblast-23_all_23_2_5"  />
</g>
<g id="a23_006"  >
<polygon points="282,140 292,140 297,135 292,130 282,130 282,140 " style="fill:white; stroke-width:1; stroke:black; " description="&lt;b&gt;STM2042&lt;/b&gt;&lt;br&gt;propanediol dehydratase small subunit&lt;br&gt;Location: 6144 - 6666" locus_tag="STM2042" class="clusterblast-orf" id="knownclusterblast-23_all_23_2_6"  />
</g>
<g id="a23_007"  >
<polygon points="297,140 344,140 349,135 344,130 297,130 297,140 " style="fill:white; stroke-width:1; stroke:black; " description="&lt;b&gt;STM2043&lt;/b&gt;&lt;br&gt;propanediol dehydratase reactivation protein&lt;br&gt;Location: 6675 - 8508" locus_tag="STM2043" class="clusterblast-orf" id="knownclusterblast-23_all_23_2_7"  />
</g>
<g id="a23_008"  >
<polygon points="349,140 354,140 359,135 354,130 349,130 349,140 " style="fill:white; stroke-width:1; stroke:black; " description="&lt;b&gt;STM2044&lt;/b&gt;&lt;br&gt;propanediol dehydratase reactivation protein&lt;br&gt;Location: 8497 - 8848" locus_tag="STM2044" class="clusterblast-orf" id="knownclusterblast-23_all_23_2_8"  />
</g>
<g id="a23_009"  >
<polygon points="359,140 362,140 367,135 362,130 359,130 359,140 " style="fill:#d81515; stroke-width:1; stroke:black; " description="&lt;b&gt;STM2045&lt;/b&gt;&lt;br&gt;propanediol utilization polyhedral body protein PduJ&lt;br&gt;Location: 8866 - 9142&lt;br&gt;&lt;br&gt;&lt;b&gt;BlastP hit with ctg1_4459&lt;/b&gt;&lt;br&gt;Percentage identity: 66&lt;br&gt;Percentage coverage: 97&lt;br&gt;BLAST bit score: 113&lt;br&gt;E-value: 2.25e-36&lt;br&gt;&lt;br&gt;&lt;b&gt;BlastP hit with ctg1_4460&lt;/b&gt;&lt;br&gt;Percentage identity: 66&lt;br&gt;Percentage coverage: 93&lt;br&gt;BLAST bit score: 109&lt;br&gt;E-value: 5.71e-35&lt;br&gt;&lt;br&gt;&lt;b&gt;BlastP hit with ctg1_4461&lt;/b&gt;&lt;br&gt;Percentage identity: 69&lt;br&gt;Percentage coverage: 93&lt;br&gt;BLAST bit score: 111&lt;br&gt;E-value: 9.13e-36" locus_tag="STM2045" class="clusterblast-orf" id="knownclusterblast-23_all_23_2_9"  />
</g>
<g id="a23_0010"  >
<polygon points="368,140 376,140 381,135 376,130 368,130 368,140 " style="fill:white; stroke-width:1; stroke:black; " description="&lt;b&gt;STM2046&lt;/b&gt;&lt;br&gt;propanediol utilization polyhedral body protein PduK&lt;br&gt;Location: 9166 - 9628" locus_tag="STM2046" class="clusterblast-orf" id="knownclusterblast-23_all_23_2_10"  />
</g>
<g id="a23_0011"  >
<polygon points="381,140 394,140 399,135 394,130 381,130 381,140 " style="fill:#15d8d8; stroke-width:1; stroke:black; " description="&lt;b&gt;STM2047&lt;/b&gt;&lt;br&gt;phosphate propanoyltransferase&lt;br&gt;Location: 9627 - 10260&lt;br&gt;&lt;br&gt;&lt;b&gt;BlastP hit with ctg1_4468&lt;/b&gt;&lt;br&gt;Percentage identity: 56&lt;br&gt;Percentage coverage: 87&lt;br&gt;BLAST bit score: 182&lt;br&gt;E-value: 2.86e-60" locus_tag="STM2047" class="clusterblast-orf" id="knownclusterblast-23_all_23_2_11"  />
</g>
<g id="a23_0012"  >
<polygon points="399,140 408,140 413,135 408,130 399,130 399,140 " style="fill:white; stroke-width:1; stroke:black; " description="&lt;b&gt;STM2048&lt;/b&gt;&lt;br&gt;propanediol utilization protein PduM&lt;br&gt;Location: 10256 - 10748" locus_tag="STM2048" class="clusterblast-orf" id="knownclusterblast-23_all_23_2_12"  />
</g>
<g id="a23_0013"  >
<polygon points="413,140 416,140 421,135 416,130 413,130 413,140 " style="fill:white; stroke-width:1; stroke:black; " description="&lt;b&gt;STM2049&lt;/b&gt;&lt;br&gt;propanediol utilization polyhedral body protein PduN&lt;br&gt;Location: 10751 - 11027" locus_tag="STM2049" class="clusterblast-orf" id="knownclusterblast-23_all_23_2_13"  />
</g>
<g id="a23_0014"  >
<polygon points="421,140 444,140 449,135 444,130 421,130 421,140 " style="fill:white; stroke-width:1; stroke:black; " description="&lt;b&gt;STM2050&lt;/b&gt;&lt;br&gt;propanediol utilization protein PduO&lt;br&gt;Location: 11036 - 12047" locus_tag="STM2050" class="clusterblast-orf" id="knownclusterblast-23_all_23_2_14"  />
</g>
<g id="a23_0015"  >
<polygon points="449,140 484,140 489,135 484,130 449,130 449,140 " style="fill:white; stroke-width:1; stroke:black; " description="&lt;b&gt;STM2051&lt;/b&gt;&lt;br&gt;CoA-dependent propionaldehyde dehydrogenase&lt;br&gt;Location: 12043 - 13438" locus_tag="STM2051" class="clusterblast-orf" id="knownclusterblast-23_all_23_2_15"  />
</g>
<g id="a23_0016"  >
<polygon points="489,140 516,140 521,135 516,130 489,130 489,140 " style="fill:#1515d8; stroke-width:1; stroke:black; " description="&lt;b&gt;STM2052&lt;/b&gt;&lt;br&gt;propanol dehydrogenase&lt;br&gt;Location: 13449 - 14562&lt;br&gt;&lt;br&gt;&lt;b&gt;BlastP hit with ctg1_4464&lt;/b&gt;&lt;br&gt;Percentage identity: 44&lt;br&gt;Percentage coverage: 96&lt;br&gt;BLAST bit score: 254&lt;br&gt;E-value: 1.36e-83" locus_tag="STM2052" class="clusterblast-orf" id="knownclusterblast-23_all_23_2_16"  />
</g>
<g id="a23_0017"  >
<polygon points="520,140 554,140 559,135 554,130 520,130 520,140 " style="fill:white; stroke-width:1; stroke:black; " description="&lt;b&gt;STM2053&lt;/b&gt;&lt;br&gt;propanediol utilization polyhedral body protein PduS&lt;br&gt;Location: 14558 - 15914" locus_tag="STM2053" class="clusterblast-orf" id="knownclusterblast-23_all_23_2_17"  />
</g>
<g id="a23_0018"  >
<polygon points="559,140 570,140 575,135 570,130 559,130 559,140 " style="fill:#d81515; stroke-width:1; stroke:black; " description="&lt;b&gt;STM2054&lt;/b&gt;&lt;br&gt;propanediol utilization polyhedral body protein PduT&lt;br&gt;Location: 15916 - 16471&lt;br&gt;&lt;br&gt;&lt;b&gt;BlastP hit with ctg1_4459&lt;/b&gt;&lt;br&gt;Percentage identity: 41&lt;br&gt;Percentage coverage: 87&lt;br&gt;BLAST bit score: 45&lt;br&gt;E-value: 8.05e-09&lt;br&gt;&lt;br&gt;&lt;b&gt;BlastP hit with ctg1_4460&lt;/b&gt;&lt;br&gt;Percentage identity: 41&lt;br&gt;Percentage coverage: 85&lt;br&gt;BLAST bit score: 42&lt;br&gt;E-value: 6.05e-08&lt;br&gt;&lt;br&gt;&lt;b&gt;BlastP hit with ctg1_4461&lt;/b&gt;&lt;br&gt;Percentage identity: 40&lt;br&gt;Percentage coverage: 89&lt;br&gt;BLAST bit score: 45&lt;br&gt;E-value: 8.05e-09" locus_tag="STM2054" class="clusterblast-orf" id="knownclusterblast-23_all_23_2_18"  />
</g>
<g id="a23_0019"  >
<polygon points="575,140 580,140 585,135 580,130 575,130 575,140 " style="fill:white; stroke-width:1; stroke:black; " description="&lt;b&gt;STM2055&lt;/b&gt;&lt;br&gt;propanediol utilization polyhedral body protein PduU&lt;br&gt;Location: 16470 - 16821" locus_tag="STM2055" class="clusterblast-orf" id="knownclusterblast-23_all_23_2_19"  />
</g>
<g id="a23_0020"  >
<polygon points="585,140 592,140 597,135 592,130 585,130 585,140 " style="fill:white; stroke-width:1; stroke:black; " description="&lt;b&gt;STM2056&lt;/b&gt;&lt;br&gt;propanediol utilization protein PduV&lt;br&gt;Location: 16825 - 17278" locus_tag="STM2056" class="clusterblast-orf" id="knownclusterblast-23_all_23_2_20"  />
</g>
<g id="a23_0021"  >
<polygon points="597,140 626,140 631,135 626,130 597,130 597,140 " style="fill:white; stroke-width:1; stroke:black; " description="&lt;b&gt;STM2057&lt;/b&gt;&lt;br&gt;propionate kinase&lt;br&gt;Location: 17262 - 18477" locus_tag="STM2057" class="clusterblast-orf" id="knownclusterblast-23_all_23_2_21"  />
</g>
<g id="a23_0022"  >
<polygon points="633,140 654,140 659,135 654,130 633,130 633,140 " style="fill:white; stroke-width:1; stroke:black; " description="&lt;b&gt;STM2058&lt;/b&gt;&lt;br&gt;L-threonine kinase&lt;br&gt;Location: 18534 - 19437" locus_tag="STM2058" class="clusterblast-orf" id="knownclusterblast-23_all_23_2_22"  />
</g>
<g id="a23_0023"  >
<polygon points="659,135 664,130 664,130 664,140 664,140 659,135 " style="fill:white; stroke-width:1; stroke:black; " description="&lt;b&gt;STM2059&lt;/b&gt;&lt;br&gt;hypothetical protein&lt;br&gt;Location: 19470 - 19638" locus_tag="STM2059" class="clusterblast-orf" id="knownclusterblast-23_all_23_2_23"  />
</g>
<g label="MGC0000003" description="MGC0000003_c1: Ethanolamine degradation S. typhimurium (15% of genes show similarity), EUT" class="clusterblast-cluster"  >
<text x="5" y="170" class="clusterblast-acc"  >
MGC0000003_c1: Ethanolamine degradation S. typhimurium (15% of genes show similarity), EUT</text>
<line x1="10" y1="185" x2="778.0" y2="185" style="stroke-width:1; stroke:grey; "  />
</g>
<g id="a23_000"  >
<polygon points="132,190 192,190 197,185 192,180 132,180 132,190 " style="fill:white; stroke-width:1; stroke:black; " description="&lt;b&gt;STM2472&lt;/b&gt;&lt;br&gt;malic enzyme&lt;br&gt;Location: 18301 - 16021" locus_tag="STM2472" class="clusterblast-orf" id="knownclusterblast-23_all_23_3_0"  />
</g>
<g id="a23_001"  >
<polygon points="202,190 210,190 215,185 210,180 202,180 202,190 " style="fill:white; stroke-width:1; stroke:black; " description="&lt;b&gt;STM2471&lt;/b&gt;&lt;br&gt;insertion sequence element IS200 transposase&lt;br&gt;Location: 15832 - 15373" locus_tag="STM2471" class="clusterblast-orf" id="knownclusterblast-23_all_23_3_1"  />
</g>
<g id="a23_002"  >
<polygon points="228,190 233,190 238,185 233,180 228,180 228,190 " style="fill:white; stroke-width:1; stroke:black; " description="&lt;b&gt;STM2470&lt;/b&gt;&lt;br&gt;carboxysome structural protein EutS&lt;br&gt;Location: 14893 - 14557" locus_tag="STM2470" class="clusterblast-orf" id="knownclusterblast-23_all_23_3_2"  />
</g>
<g id="a23_003"  >
<polygon points="238,190 247,190 252,185 247,180 238,180 238,190 " style="fill:white; stroke-width:1; stroke:black; " description="&lt;b&gt;STM2469&lt;/b&gt;&lt;br&gt;ethanolamine utilization protein EutP&lt;br&gt;Location: 14545 - 14065" locus_tag="STM2469" class="clusterblast-orf" id="knownclusterblast-23_all_23_3_3"  />
</g>
<g id="a23_004"  >
<polygon points="251,190 266,190 271,185 266,180 251,180 251,190 " style="fill:white; stroke-width:1; stroke:black; " description="&lt;b&gt;STM2468&lt;/b&gt;&lt;br&gt;ethanolamine utilization protein EutQ&lt;br&gt;Location: 14088 - 13398" locus_tag="STM2468" class="clusterblast-orf" id="knownclusterblast-23_all_23_3_4"  />
</g>
<g id="a23_005"  >
<polygon points="271,190 288,190 293,185 288,180 271,180 271,190 " style="fill:white; stroke-width:1; stroke:black; " description="&lt;b&gt;STM2467&lt;/b&gt;&lt;br&gt;cobalamin adenosyltransferase EutT&lt;br&gt;Location: 13402 - 12598" locus_tag="STM2467" class="clusterblast-orf" id="knownclusterblast-23_all_23_3_5"  />
</g>
<g id="a23_006"  >
<polygon points="293,190 317,190 322,185 317,180 293,180 293,190 " style="fill:white; stroke-width:1; stroke:black; " description="&lt;b&gt;STM2466&lt;/b&gt;&lt;br&gt;phosphotransacetylase EutD&lt;br&gt;Location: 12602 - 11585" locus_tag="STM2466" class="clusterblast-orf" id="knownclusterblast-23_all_23_3_6"  />
</g>
<g id="a23_007"  >
<polygon points="323,190 326,190 331,185 326,180 323,180 323,190 " style="fill:#d81515; stroke-width:1; stroke:black; " description="&lt;b&gt;STM2465&lt;/b&gt;&lt;br&gt;carboxysome structural protein EutM&lt;br&gt;Location: 11545 - 11254&lt;br&gt;&lt;br&gt;&lt;b&gt;BlastP hit with ctg1_4459&lt;/b&gt;&lt;br&gt;Percentage identity: 60&lt;br&gt;Percentage coverage: 91&lt;br&gt;BLAST bit score: 99&lt;br&gt;E-value: 1.11e-30&lt;br&gt;&lt;br&gt;&lt;b&gt;BlastP hit with ctg1_4460&lt;/b&gt;&lt;br&gt;Percentage identity: 61&lt;br&gt;Percentage coverage: 89&lt;br&gt;BLAST bit score: 99&lt;br&gt;E-value: 1.2e-30&lt;br&gt;&lt;br&gt;&lt;b&gt;BlastP hit with ctg1_4461&lt;/b&gt;&lt;br&gt;Percentage identity: 63&lt;br&gt;Percentage coverage: 91&lt;br&gt;BLAST bit score: 101&lt;br&gt;E-value: 1.36e-31&lt;br&gt;&lt;br&gt;&lt;b&gt;BlastP hit with ctg1_4467&lt;/b&gt;&lt;br&gt;Percentage identity: 46&lt;br&gt;Percentage coverage: 48&lt;br&gt;BLAST bit score: 52&lt;br&gt;E-value: 1.55e-11" locus_tag="STM2465" class="clusterblast-orf" id="knownclusterblast-23_all_23_3_7"  />
</g>
<g id="a23_008"  >
<polygon points="335,190 338,190 343,185 338,180 335,180 335,190 " style="fill:white; stroke-width:1; stroke:black; " description="&lt;b&gt;STM2464&lt;/b&gt;&lt;br&gt;microcompartment shell protein EutN&lt;br&gt;Location: 11142 - 10854" locus_tag="STM2464" class="clusterblast-orf" id="knownclusterblast-23_all_23_3_8"  />
</g>
<g id="a23_009"  >
<polygon points="343,190 378,190 383,185 378,180 343,180 343,190 " style="fill:white; stroke-width:1; stroke:black; " description="&lt;b&gt;STM2463&lt;/b&gt;&lt;br&gt;aldehyde oxidoreductase EutE&lt;br&gt;Location: 10843 - 9439" locus_tag="STM2463" class="clusterblast-orf" id="knownclusterblast-23_all_23_3_9"  />
</g>
<g id="a23_0010"  >
<polygon points="383,190 402,190 407,185 402,180 383,180 383,190 " style="fill:white; stroke-width:1; stroke:black; " description="&lt;b&gt;STM2462&lt;/b&gt;&lt;br&gt;ethanolamine utilization protein EutJ&lt;br&gt;Location: 9429 - 8589" locus_tag="STM2462" class="clusterblast-orf" id="knownclusterblast-23_all_23_3_10"  />
</g>
<g id="a23_0011"  >
<polygon points="407,190 435,190 440,185 435,180 407,180 407,190 " style="fill:#1515d8; stroke-width:1; stroke:black; " description="&lt;b&gt;STM2461&lt;/b&gt;&lt;br&gt;ethanol dehydrogenase EutG&lt;br&gt;Location: 8600 - 7412&lt;br&gt;&lt;br&gt;&lt;b&gt;BlastP hit with ctg1_4464&lt;/b&gt;&lt;br&gt;Percentage identity: 35&lt;br&gt;Percentage coverage: 98&lt;br&gt;BLAST bit score: 188&lt;br&gt;E-value: 7.01e-58" locus_tag="STM2461" class="clusterblast-orf" id="knownclusterblast-23_all_23_3_11"  />
</g>
<g id="a23_0012"  >
<polygon points="443,190 473,190 478,185 473,180 443,180 443,190 " style="fill:white; stroke-width:1; stroke:black; " description="&lt;b&gt;STM2460&lt;/b&gt;&lt;br&gt;ethanolamine transporter EutH&lt;br&gt;Location: 7293 - 6066" locus_tag="STM2460" class="clusterblast-orf" id="knownclusterblast-23_all_23_3_12"  />
</g>
<g id="a23_0013"  >
<polygon points="478,190 513,190 518,185 513,180 478,180 478,190 " style="fill:white; stroke-width:1; stroke:black; " description="&lt;b&gt;STM2459&lt;/b&gt;&lt;br&gt;ethanolamine utilization protein EutA&lt;br&gt;Location: 6070 - 4666" locus_tag="STM2459" class="clusterblast-orf" id="knownclusterblast-23_all_23_3_13"  />
</g>
<g id="a23_0014"  >
<polygon points="518,190 552,190 557,185 552,180 518,180 518,190 " style="fill:white; stroke-width:1; stroke:black; " description="&lt;b&gt;STM2458&lt;/b&gt;&lt;br&gt;ethanolamine ammonia-lyase large subunit EutB&lt;br&gt;Location: 4655 - 3293" locus_tag="STM2458" class="clusterblast-orf" id="knownclusterblast-23_all_23_3_14"  />
</g>
<g id="a23_0015"  >
<polygon points="557,190 578,190 583,185 578,180 557,180 557,190 " style="fill:white; stroke-width:1; stroke:black; " description="&lt;b&gt;STM2457&lt;/b&gt;&lt;br&gt;ethanolamine ammonia-lyase small subunit EutC&lt;br&gt;Location: 3275 - 2378" locus_tag="STM2457" class="clusterblast-orf" id="knownclusterblast-23_all_23_3_15"  />
</g>
<g id="a23_0016"  >
<polygon points="583,190 597,190 602,185 597,180 583,180 583,190 " style="fill:white; stroke-width:1; stroke:black; " description="&lt;b&gt;STM2456&lt;/b&gt;&lt;br&gt;carboxysome structural protein EutL&lt;br&gt;Location: 2369 - 1709" locus_tag="STM2456" class="clusterblast-orf" id="knownclusterblast-23_all_23_3_16"  />
</g>
<g id="a23_0017"  >
<polygon points="602,190 611,190 616,185 611,180 602,180 602,190 " style="fill:#d81515; stroke-width:1; stroke:black; " description="&lt;b&gt;STM2455&lt;/b&gt;&lt;br&gt;carboxysome structural protein EutK&lt;br&gt;Location: 1697 - 1202&lt;br&gt;&lt;br&gt;&lt;b&gt;BlastP hit with ctg1_4459&lt;/b&gt;&lt;br&gt;Percentage identity: 48&lt;br&gt;Percentage coverage: 89&lt;br&gt;BLAST bit score: 76&lt;br&gt;E-value: 1.08e-20&lt;br&gt;&lt;br&gt;&lt;b&gt;BlastP hit with ctg1_4460&lt;/b&gt;&lt;br&gt;Percentage identity: 43&lt;br&gt;Percentage coverage: 96&lt;br&gt;BLAST bit score: 74&lt;br&gt;E-value: 4.61e-20&lt;br&gt;&lt;br&gt;&lt;b&gt;BlastP hit with ctg1_4461&lt;/b&gt;&lt;br&gt;Percentage identity: 48&lt;br&gt;Percentage coverage: 91&lt;br&gt;BLAST bit score: 74&lt;br&gt;E-value: 3.04e-20" locus_tag="STM2455" class="clusterblast-orf" id="knownclusterblast-23_all_23_3_17"  />
</g>
<g id="a23_0018"  >
<polygon points="617,190 642,190 647,185 642,180 617,180 617,190 " style="fill:white; stroke-width:1; stroke:black; " description="&lt;b&gt;STM2454&lt;/b&gt;&lt;br&gt;HTH-type transcriptional regulator EutR&lt;br&gt;Location: 1155 - 102" locus_tag="STM2454" class="clusterblast-orf" id="knownclusterblast-23_all_23_3_18"  />
</g>
<g label="MGC00000039" description="MGC00000039_c1: Hydroxy-L-proline2proline C. difficile (66% of genes show similarity), PRO" class="clusterblast-cluster"  >
<text x="5" y="220" class="clusterblast-acc"  >
MGC00000039_c1: Hydroxy-L-proline2proline C. difficile (66% of genes show similarity), PRO</text>
<line x1="10" y1="235" x2="778.0" y2="235" style="stroke-width:1; stroke:grey; "  />
</g>
<g id="a23_000"  >
<polygon points="327,240 348,240 353,235 348,230 327,230 327,240 " style="fill:#d8d815; stroke-width:1; stroke:black; " description="&lt;b&gt;ctg22_31&lt;/b&gt;&lt;br&gt;NA&lt;br&gt;Location: 10000 - 10909&lt;br&gt;&lt;br&gt;&lt;b&gt;BlastP hit with ctg1_4466&lt;/b&gt;&lt;br&gt;Percentage identity: 35&lt;br&gt;Percentage coverage: 97&lt;br&gt;BLAST bit score: 196&lt;br&gt;E-value: 9.24e-63" locus_tag="ctg22_31" class="clusterblast-orf" id="knownclusterblast-23_all_23_4_0"  />
</g>
<g id="a23_001"  >
<polygon points="353,240 415,240 420,235 415,230 353,230 353,240 " style="fill:#d815d8; stroke-width:1; stroke:black; " description="&lt;b&gt;ctg22_32&lt;/b&gt;&lt;br&gt;NA&lt;br&gt;Location: 10913 - 13283&lt;br&gt;&lt;br&gt;&lt;b&gt;BlastP hit with ctg1_4465&lt;/b&gt;&lt;br&gt;Percentage identity: 33&lt;br&gt;Percentage coverage: 71&lt;br&gt;BLAST bit score: 389&lt;br&gt;E-value: 5.4e-122" locus_tag="ctg22_32" class="clusterblast-orf" id="knownclusterblast-23_all_23_4_1"  />
</g>
<g id="a23_002"  >
<polygon points="429,240 447,240 452,235 447,230 429,230 429,240 " style="fill:white; stroke-width:1; stroke:black; " description="&lt;b&gt;ctg22_33&lt;/b&gt;&lt;br&gt;NA&lt;br&gt;Location: 13607 - 14411" locus_tag="ctg22_33" class="clusterblast-orf" id="knownclusterblast-23_all_23_4_2"  />
</g>
<g label="MGC00000043" description="MGC00000043_c1: Phenylacetate to toluene Acidobacteria bacterium (100% of genes show similarity), TOL" class="clusterblast-cluster"  >
<text x="5" y="270" class="clusterblast-acc"  >
MGC00000043_c1: Phenylacetate to toluene Acidobacteria bacterium (100% of genes show similarity), TOL</text>
<line x1="10" y1="285" x2="778.0" y2="285" style="stroke-width:1; stroke:grey; "  />
</g>
<g id="a23_000"  >
<polygon points="338,290 405,290 410,285 405,280 338,280 338,290 " style="fill:#d815d8; stroke-width:1; stroke:black; " description="&lt;b&gt;CXZ00_12390&lt;/b&gt;&lt;br&gt;Phenylacetate decarboxylase&lt;br&gt;Location: 13611 - 11091&lt;br&gt;&lt;br&gt;&lt;b&gt;BlastP hit with ctg1_4465&lt;/b&gt;&lt;br&gt;Percentage identity: 32&lt;br&gt;Percentage coverage: 54&lt;br&gt;BLAST bit score: 279&lt;br&gt;E-value: 1.44e-81" locus_tag="CXZ00_12390" class="clusterblast-orf" id="knownclusterblast-23_all_23_5_0"  />
</g>
<g id="a23_001"  >
<polygon points="414,290 436,290 441,285 436,280 414,280 414,290 " style="fill:#d8d815; stroke-width:1; stroke:black; " description="&lt;b&gt;CXZ00_12385&lt;/b&gt;&lt;br&gt;Phenylacetate decarboxylase activating enzyme&lt;br&gt;Location: 10948 - 10000&lt;br&gt;&lt;br&gt;&lt;b&gt;BlastP hit with ctg1_4466&lt;/b&gt;&lt;br&gt;Percentage identity: 38&lt;br&gt;Percentage coverage: 94&lt;br&gt;BLAST bit score: 219&lt;br&gt;E-value: 9.67e-72" locus_tag="CXZ00_12385" class="clusterblast-orf" id="knownclusterblast-23_all_23_5_1"  />
</g>
</svg>
