<svg xmlns="http://www.w3.org/2000/svg" xmlns:xlink="http://www.w3.org/1999/xlink" version="1.1" x="0" y="0" height="230" width="800" viewBox="0 0 800 230" preserveAspectRatio="none"  >
<g label="Query sequence" class="clusterblast-cluster"  >
<text x="5" y="20" class="clusterblast-acc"  >
Query sequence</text>
<line x1="10" y1="35" x2="778.0" y2="35" style="stroke-width:1; stroke:grey; "  />
<polygon points="0,40 39,40 44,35 39,30 0,30 0,40 " style="fill:white; stroke-width:1; stroke:black; " description="&lt;b&gt;ctg1_837&lt;/b&gt;&lt;br&gt;ctg1 837&lt;br&gt;Location: 885535 - 887380" locus_tag="ctg1_837" class="clusterblast-orf" id="dummy-4_q0_0_all"  />
<polygon points="46,35 51,30 54,30 54,40 51,40 46,35 " style="fill:white; stroke-width:1; stroke:black; " description="&lt;b&gt;ctg1_838&lt;/b&gt;&lt;br&gt;ctg1 838&lt;br&gt;Location: 887439 - 887760" locus_tag="ctg1_838" class="clusterblast-orf" id="dummy-4_q1_0_all"  />
<polygon points="59,35 64,30 92,30 92,40 64,40 59,35 " style="fill:white; stroke-width:1; stroke:black; " description="&lt;b&gt;ctg1_839&lt;/b&gt;&lt;br&gt;ctg1 839&lt;br&gt;Location: 887990 - 889322" locus_tag="ctg1_839" class="clusterblast-orf" id="dummy-4_q2_0_all"  />
<polygon points="97,40 122,40 127,35 122,30 97,30 97,40 " style="fill:white; stroke-width:1; stroke:black; " description="&lt;b&gt;ctg1_840&lt;/b&gt;&lt;br&gt;ctg1 840&lt;br&gt;Location: 889549 - 890803" locus_tag="ctg1_840" class="clusterblast-orf" id="dummy-4_q3_0_all"  />
<polygon points="128,40 149,40 154,35 149,30 128,30 128,40 " style="fill:white; stroke-width:1; stroke:black; " description="&lt;b&gt;ctg1_841&lt;/b&gt;&lt;br&gt;ctg1 841&lt;br&gt;Location: 890820 - 891897" locus_tag="ctg1_841" class="clusterblast-orf" id="dummy-4_q4_0_all"  />
<polygon points="154,35 159,30 176,30 176,40 159,40 154,35 " style="fill:#d81515; stroke-width:1; stroke:black; " description="&lt;b&gt;ctg1_842&lt;/b&gt;&lt;br&gt;ctg1 842&lt;br&gt;Location: 891900 - 892803" locus_tag="ctg1_842" class="clusterblast-orf" id="dummy-4_q5_0_all"  />
<polygon points="177,35 182,30 207,30 207,40 182,40 177,35 " style="fill:#4dd815; stroke-width:1; stroke:black; " description="&lt;b&gt;ctg1_843&lt;/b&gt;&lt;br&gt;ctg1 843&lt;br&gt;Location: 892858 - 894073" locus_tag="ctg1_843" class="clusterblast-orf" id="dummy-4_q6_0_all"  />
<polygon points="207,35 212,30 217,30 217,40 212,40 207,35 " style="fill:#15bcd8; stroke-width:1; stroke:black; " description="&lt;b&gt;ctg1_844&lt;/b&gt;&lt;br&gt;ctg1 844&lt;br&gt;Location: 894069 - 894510" locus_tag="ctg1_844" class="clusterblast-orf" id="dummy-4_q7_0_all"  />
<polygon points="217,35 222,30 226,30 226,40 222,40 217,35 " style="fill:#8515d8; stroke-width:1; stroke:black; " description="&lt;b&gt;ctg1_845&lt;/b&gt;&lt;br&gt;ctg1 845&lt;br&gt;Location: 894514 - 894865" locus_tag="ctg1_845" class="clusterblast-orf" id="dummy-4_q8_0_all"  />
<polygon points="226,35 231,30 239,30 239,40 231,40 226,35 " style="fill:#d84d15; stroke-width:1; stroke:black; " description="&lt;b&gt;ctg1_846&lt;/b&gt;&lt;br&gt;ctg1 846&lt;br&gt;Location: 894864 - 895419" locus_tag="ctg1_846" class="clusterblast-orf" id="dummy-4_q9_0_all"  />
<polygon points="239,35 244,30 272,30 272,40 244,40 239,35 " style="fill:#15d815; stroke-width:1; stroke:black; " description="&lt;b&gt;ctg1_847&lt;/b&gt;&lt;br&gt;ctg1 847&lt;br&gt;Location: 895421 - 896774" locus_tag="ctg1_847" class="clusterblast-orf" id="dummy-4_q10_0_all"  />
<polygon points="272,35 277,30 299,30 299,40 277,40 272,35 " style="fill:#1585d8; stroke-width:1; stroke:black; " description="&lt;b&gt;ctg1_848&lt;/b&gt;&lt;br&gt;ctg1 848&lt;br&gt;Location: 896770 - 897883" locus_tag="ctg1_848" class="clusterblast-orf" id="dummy-4_q11_0_all"  />
<polygon points="299,35 304,30 333,30 333,40 304,40 299,35 " style="fill:#bc15d8; stroke-width:1; stroke:black; " description="&lt;b&gt;ctg1_849&lt;/b&gt;&lt;br&gt;ctg1 849&lt;br&gt;Location: 897894 - 899280" locus_tag="ctg1_849" class="clusterblast-orf" id="dummy-4_q12_0_all"  />
<polygon points="333,35 338,30 357,30 357,40 338,40 333,35 " style="fill:#d88515; stroke-width:1; stroke:black; " description="&lt;b&gt;ctg1_850&lt;/b&gt;&lt;br&gt;ctg1 850&lt;br&gt;Location: 899276 - 900293" locus_tag="ctg1_850" class="clusterblast-orf" id="dummy-4_q13_0_all"  />
<polygon points="358,35 363,30 364,30 364,40 363,40 358,35 " style="fill:#15d84d; stroke-width:1; stroke:black; " description="&lt;b&gt;ctg1_851&lt;/b&gt;&lt;br&gt;ctg1 851&lt;br&gt;Location: 900303 - 900579" locus_tag="ctg1_851" class="clusterblast-orf" id="dummy-4_q14_0_all"  />
<polygon points="364,35 369,30 376,30 376,40 369,40 364,35 " style="fill:#154dd8; stroke-width:1; stroke:black; " description="&lt;b&gt;ctg1_852&lt;/b&gt;&lt;br&gt;ctg1 852&lt;br&gt;Location: 900582 - 901074" locus_tag="ctg1_852" class="clusterblast-orf" id="dummy-4_q15_0_all"  />
<polygon points="376,35 381,30 392,30 392,40 381,40 376,35 " style="fill:#d815bc; stroke-width:1; stroke:black; " description="&lt;b&gt;ctg1_853&lt;/b&gt;&lt;br&gt;ctg1 853&lt;br&gt;Location: 901070 - 901703" locus_tag="ctg1_853" class="clusterblast-orf" id="dummy-4_q16_0_all"  />
<polygon points="392,35 397,30 403,30 403,40 397,40 392,35 " style="fill:#d8bc15; stroke-width:1; stroke:black; " description="&lt;b&gt;ctg1_854&lt;/b&gt;&lt;br&gt;ctg1 854&lt;br&gt;Location: 901702 - 902170" locus_tag="ctg1_854" class="clusterblast-orf" id="dummy-4_q17_0_all"  />
<polygon points="403,35 408,30 410,30 410,40 408,40 403,35 " style="fill:#d84d15; stroke-width:1; stroke:black; " description="&lt;b&gt;ctg1_855&lt;/b&gt;&lt;br&gt;ctg1 855&lt;br&gt;Location: 902191 - 902467" locus_tag="ctg1_855" class="clusterblast-orf" id="dummy-4_q18_0_all"  />
<polygon points="411,35 416,30 419,30 419,40 416,40 411,35 " style="fill:#15d885; stroke-width:1; stroke:black; " description="&lt;b&gt;ctg1_856&lt;/b&gt;&lt;br&gt;ctg1 856&lt;br&gt;Location: 902485 - 902836" locus_tag="ctg1_856" class="clusterblast-orf" id="dummy-4_q19_0_all"  />
<polygon points="419,35 424,30 463,30 463,40 424,40 419,35 " style="fill:#1515d8; stroke-width:1; stroke:black; " description="&lt;b&gt;ctg1_857&lt;/b&gt;&lt;br&gt;ctg1 857&lt;br&gt;Location: 902825 - 904658" locus_tag="ctg1_857" class="clusterblast-orf" id="dummy-4_q20_0_all"  />
<polygon points="464,35 469,30 476,30 476,40 469,40 464,35 " style="fill:#d81585; stroke-width:1; stroke:black; " description="&lt;b&gt;ctg1_858&lt;/b&gt;&lt;br&gt;ctg1 858&lt;br&gt;Location: 904670 - 905195" locus_tag="ctg1_858" class="clusterblast-orf" id="dummy-4_q21_0_all"  />
<polygon points="477,35 482,30 493,30 493,40 482,40 477,35 " style="fill:#bcd815; stroke-width:1; stroke:black; " description="&lt;b&gt;ctg1_859&lt;/b&gt;&lt;br&gt;ctg1 859&lt;br&gt;Location: 905209 - 905890" locus_tag="ctg1_859" class="clusterblast-orf" id="dummy-4_q22_0_all"  />
<polygon points="493,35 498,30 534,30 534,40 498,40 493,35 " style="fill:#15d8bc; stroke-width:1; stroke:black; " description="&lt;b&gt;ctg1_860&lt;/b&gt;&lt;br&gt;ctg1 860&lt;br&gt;Location: 905900 - 907565" locus_tag="ctg1_860" class="clusterblast-orf" id="dummy-4_q23_0_all"  />
<polygon points="534,35 539,30 554,30 554,40 539,40 534,35 " style="fill:#4d15d8; stroke-width:1; stroke:black; " description="&lt;b&gt;ctg1_861&lt;/b&gt;&lt;br&gt;ctg1 861&lt;br&gt;Location: 907583 - 908396" locus_tag="ctg1_861" class="clusterblast-orf" id="dummy-4_q24_0_all"  />
<polygon points="554,35 559,30 561,30 561,40 559,40 554,35 " style="fill:#d84d15; stroke-width:1; stroke:black; " description="&lt;b&gt;ctg1_862&lt;/b&gt;&lt;br&gt;ctg1 862&lt;br&gt;Location: 908392 - 908677" locus_tag="ctg1_862" class="clusterblast-orf" id="dummy-4_q25_0_all"  />
<polygon points="573,40 588,40 593,35 588,30 573,30 573,40 " style="fill:#d8154d; stroke-width:1; stroke:black; " description="&lt;b&gt;ctg1_863&lt;/b&gt;&lt;br&gt;ctg1 863&lt;br&gt;Location: 909201 - 910011" locus_tag="ctg1_863" class="clusterblast-orf" id="dummy-4_q26_0_all"  />
<polygon points="598,40 615,40 620,35 615,30 598,30 598,40 " style="fill:#85d815; stroke-width:1; stroke:black; " description="&lt;b&gt;ctg1_864&lt;/b&gt;&lt;br&gt;ctg1 864&lt;br&gt;Location: 910213 - 911125" locus_tag="ctg1_864" class="clusterblast-orf" id="dummy-4_q27_0_all"  />
<polygon points="633,40 662,40 667,35 662,30 633,30 633,40 " style="fill:white; stroke-width:1; stroke:black; " description="&lt;b&gt;ctg1_865&lt;/b&gt;&lt;br&gt;ctg1 865&lt;br&gt;Location: 911676 - 913053" locus_tag="ctg1_865" class="clusterblast-orf" id="dummy-4_q28_0_all"  />
<polygon points="667,40 685,40 690,35 685,30 667,30 667,40 " style="fill:white; stroke-width:1; stroke:black; " description="&lt;b&gt;ctg1_866&lt;/b&gt;&lt;br&gt;ctg1 866&lt;br&gt;Location: 913049 - 914009" locus_tag="ctg1_866" class="clusterblast-orf" id="dummy-4_q29_0_all"  />
<polygon points="690,40 701,40 706,35 701,30 690,30 690,40 " style="fill:white; stroke-width:1; stroke:black; " description="&lt;b&gt;ctg1_867&lt;/b&gt;&lt;br&gt;ctg1 867&lt;br&gt;Location: 914019 - 914655" locus_tag="ctg1_867" class="clusterblast-orf" id="dummy-4_q30_0_all"  />
<polygon points="705,40 728,40 733,35 728,30 705,30 705,40 " style="fill:white; stroke-width:1; stroke:black; " description="&lt;b&gt;ctg1_868&lt;/b&gt;&lt;br&gt;ctg1 868&lt;br&gt;Location: 914651 - 915791" locus_tag="ctg1_868" class="clusterblast-orf" id="dummy-4_q31_0_all"  />
<polygon points="733,40 743,40 748,35 743,30 733,30 733,40 " style="fill:white; stroke-width:1; stroke:black; " description="&lt;b&gt;ctg1_869&lt;/b&gt;&lt;br&gt;ctg1 869&lt;br&gt;Location: 915784 - 916390" locus_tag="ctg1_869" class="clusterblast-orf" id="dummy-4_q32_0_all"  />
<polygon points="747,40 756,40 761,35 756,30 747,30 747,40 " style="fill:white; stroke-width:1; stroke:black; " description="&lt;b&gt;ctg1_870&lt;/b&gt;&lt;br&gt;ctg1 870&lt;br&gt;Location: 916379 - 916949" locus_tag="ctg1_870" class="clusterblast-orf" id="dummy-4_q33_0_all"  />
<polygon points="761,40 775,40 780,35 775,30 761,30 761,40 " style="fill:white; stroke-width:1; stroke:black; " description="&lt;b&gt;ctg1_871&lt;/b&gt;&lt;br&gt;ctg1 871&lt;br&gt;Location: 916941 - 917715" locus_tag="ctg1_871" class="clusterblast-orf" id="dummy-4_q34_0_all"  />
</g>
<g label="MGC00000010" description="MGC00000010_c1: Propanediol degradation S. enterica (95% of genes show similarity), PDU" class="clusterblast-cluster"  >
<text x="5" y="70" class="clusterblast-acc"  >
MGC00000010_c1: Propanediol degradation S. enterica (95% of genes show similarity), PDU</text>
<line x1="10" y1="85" x2="778.0" y2="85" style="stroke-width:1; stroke:grey; "  />
</g>
<g id="a4_000"  >
<polygon points="154,90 158,85 154,80 154,90 " style="fill:white; stroke-width:1; stroke:black; " description="&lt;b&gt;STM2059&lt;/b&gt;&lt;br&gt;hypothetical protein&lt;br&gt;Location: 19638 - 19470" locus_tag="STM2059" class="clusterblast-orf" id="dummy-4_h4_1_0"  />
</g>
<g id="a4_001"  >
<polygon points="159,85 164,80 181,80 181,90 164,90 159,85 " style="fill:#d81515; stroke-width:1; stroke:black; " description="&lt;b&gt;STM2058&lt;/b&gt;&lt;br&gt;L-threonine kinase&lt;br&gt;Location: 19437 - 18534&lt;br&gt;&lt;br&gt;&lt;b&gt;BlastP hit with ctg1_842&lt;/b&gt;&lt;br&gt;Percentage identity: 73&lt;br&gt;Percentage coverage: 97&lt;br&gt;BLAST bit score: 427&lt;br&gt;E-value: 3.73e-154" locus_tag="STM2058" class="clusterblast-orf" id="dummy-4_h4_1_1"  />
</g>
<g id="a4_002"  >
<polygon points="182,85 187,80 212,80 212,90 187,90 182,85 " style="fill:#4dd815; stroke-width:1; stroke:black; " description="&lt;b&gt;STM2057&lt;/b&gt;&lt;br&gt;propionate kinase&lt;br&gt;Location: 18477 - 17262&lt;br&gt;&lt;br&gt;&lt;b&gt;BlastP hit with ctg1_843&lt;/b&gt;&lt;br&gt;Percentage identity: 79&lt;br&gt;Percentage coverage: 100&lt;br&gt;BLAST bit score: 637&lt;br&gt;E-value: 1.51e-233" locus_tag="STM2057" class="clusterblast-orf" id="dummy-4_h4_1_2"  />
</g>
<g id="a4_003"  >
<polygon points="211,85 216,80 222,80 222,90 216,90 211,85 " style="fill:#15bcd8; stroke-width:1; stroke:black; " description="&lt;b&gt;STM2056&lt;/b&gt;&lt;br&gt;propanediol utilization protein PduV&lt;br&gt;Location: 17278 - 16825&lt;br&gt;&lt;br&gt;&lt;b&gt;BlastP hit with ctg1_844&lt;/b&gt;&lt;br&gt;Percentage identity: 77&lt;br&gt;Percentage coverage: 99&lt;br&gt;BLAST bit score: 223&lt;br&gt;E-value: 3.32e-78" locus_tag="STM2056" class="clusterblast-orf" id="dummy-4_h4_1_3"  />
</g>
<g id="a4_004"  >
<polygon points="222,85 227,80 231,80 231,90 227,90 222,85 " style="fill:#8515d8; stroke-width:1; stroke:black; " description="&lt;b&gt;STM2055&lt;/b&gt;&lt;br&gt;propanediol utilization polyhedral body protein PduU&lt;br&gt;Location: 16821 - 16470&lt;br&gt;&lt;br&gt;&lt;b&gt;BlastP hit with ctg1_845&lt;/b&gt;&lt;br&gt;Percentage identity: 91&lt;br&gt;Percentage coverage: 100&lt;br&gt;BLAST bit score: 203&lt;br&gt;E-value: 2.73e-71" locus_tag="STM2055" class="clusterblast-orf" id="dummy-4_h4_1_4"  />
</g>
<g id="a4_005"  >
<polygon points="231,85 236,80 244,80 244,90 236,90 231,85 " style="fill:#d84d15; stroke-width:1; stroke:black; " description="&lt;b&gt;STM2054&lt;/b&gt;&lt;br&gt;propanediol utilization polyhedral body protein PduT&lt;br&gt;Location: 16471 - 15916&lt;br&gt;&lt;br&gt;&lt;b&gt;BlastP hit with ctg1_846&lt;/b&gt;&lt;br&gt;Percentage identity: 84&lt;br&gt;Percentage coverage: 100&lt;br&gt;BLAST bit score: 308&lt;br&gt;E-value: 7.21e-111&lt;br&gt;&lt;br&gt;&lt;b&gt;BlastP hit with ctg1_855&lt;/b&gt;&lt;br&gt;Percentage identity: 38&lt;br&gt;Percentage coverage: 70&lt;br&gt;BLAST bit score: 48&lt;br&gt;E-value: 5.64e-10" locus_tag="STM2054" class="clusterblast-orf" id="dummy-4_h4_1_5"  />
</g>
<g id="a4_006"  >
<polygon points="244,85 249,80 277,80 277,90 249,90 244,85 " style="fill:#15d815; stroke-width:1; stroke:black; " description="&lt;b&gt;STM2053&lt;/b&gt;&lt;br&gt;propanediol utilization polyhedral body protein PduS&lt;br&gt;Location: 15914 - 14558&lt;br&gt;&lt;br&gt;&lt;b&gt;BlastP hit with ctg1_847&lt;/b&gt;&lt;br&gt;Percentage identity: 84&lt;br&gt;Percentage coverage: 97&lt;br&gt;BLAST bit score: 710&lt;br&gt;E-value: 8.81e-261" locus_tag="STM2053" class="clusterblast-orf" id="dummy-4_h4_1_6"  />
</g>
<g id="a4_007"  >
<polygon points="277,85 282,80 304,80 304,90 282,90 277,85 " style="fill:#1585d8; stroke-width:1; stroke:black; " description="&lt;b&gt;STM2052&lt;/b&gt;&lt;br&gt;propanol dehydrogenase&lt;br&gt;Location: 14562 - 13449&lt;br&gt;&lt;br&gt;&lt;b&gt;BlastP hit with ctg1_848&lt;/b&gt;&lt;br&gt;Percentage identity: 78&lt;br&gt;Percentage coverage: 100&lt;br&gt;BLAST bit score: 562&lt;br&gt;E-value: 3.89e-205" locus_tag="STM2052" class="clusterblast-orf" id="dummy-4_h4_1_7"  />
</g>
<g id="a4_008"  >
<polygon points="304,85 309,80 338,80 338,90 309,90 304,85 " style="fill:#bc15d8; stroke-width:1; stroke:black; " description="&lt;b&gt;STM2051&lt;/b&gt;&lt;br&gt;CoA-dependent propionaldehyde dehydrogenase&lt;br&gt;Location: 13438 - 12043&lt;br&gt;&lt;br&gt;&lt;b&gt;BlastP hit with ctg1_849&lt;/b&gt;&lt;br&gt;Percentage identity: 86&lt;br&gt;Percentage coverage: 101&lt;br&gt;BLAST bit score: 765&lt;br&gt;E-value: 3.72e-282" locus_tag="STM2051" class="clusterblast-orf" id="dummy-4_h4_1_8"  />
</g>
<g id="a4_009"  >
<polygon points="338,85 343,80 363,80 363,90 343,90 338,85 " style="fill:#d88515; stroke-width:1; stroke:black; " description="&lt;b&gt;STM2050&lt;/b&gt;&lt;br&gt;propanediol utilization protein PduO&lt;br&gt;Location: 12047 - 11036&lt;br&gt;&lt;br&gt;&lt;b&gt;BlastP hit with ctg1_850&lt;/b&gt;&lt;br&gt;Percentage identity: 79&lt;br&gt;Percentage coverage: 100&lt;br&gt;BLAST bit score: 509&lt;br&gt;E-value: 3.26e-185" locus_tag="STM2050" class="clusterblast-orf" id="dummy-4_h4_1_9"  />
</g>
<g id="a4_0010"  >
<polygon points="363,85 368,80 370,80 370,90 368,90 363,85 " style="fill:#15d84d; stroke-width:1; stroke:black; " description="&lt;b&gt;STM2049&lt;/b&gt;&lt;br&gt;propanediol utilization polyhedral body protein PduN&lt;br&gt;Location: 11027 - 10751&lt;br&gt;&lt;br&gt;&lt;b&gt;BlastP hit with ctg1_851&lt;/b&gt;&lt;br&gt;Percentage identity: 89&lt;br&gt;Percentage coverage: 99&lt;br&gt;BLAST bit score: 149&lt;br&gt;E-value: 7.1e-51" locus_tag="STM2049" class="clusterblast-orf" id="dummy-4_h4_1_10"  />
</g>
<g id="a4_0011"  >
<polygon points="370,85 375,80 382,80 382,90 375,90 370,85 " style="fill:#154dd8; stroke-width:1; stroke:black; " description="&lt;b&gt;STM2048&lt;/b&gt;&lt;br&gt;propanediol utilization protein PduM&lt;br&gt;Location: 10748 - 10256&lt;br&gt;&lt;br&gt;&lt;b&gt;BlastP hit with ctg1_852&lt;/b&gt;&lt;br&gt;Percentage identity: 58&lt;br&gt;Percentage coverage: 100&lt;br&gt;BLAST bit score: 165&lt;br&gt;E-value: 9.1e-55" locus_tag="STM2048" class="clusterblast-orf" id="dummy-4_h4_1_11"  />
</g>
<g id="a4_0012"  >
<polygon points="381,85 386,80 397,80 397,90 386,90 381,85 " style="fill:#d815bc; stroke-width:1; stroke:black; " description="&lt;b&gt;STM2047&lt;/b&gt;&lt;br&gt;phosphate propanoyltransferase&lt;br&gt;Location: 10260 - 9627&lt;br&gt;&lt;br&gt;&lt;b&gt;BlastP hit with ctg1_853&lt;/b&gt;&lt;br&gt;Percentage identity: 83&lt;br&gt;Percentage coverage: 99&lt;br&gt;BLAST bit score: 334&lt;br&gt;E-value: 4.44e-120" locus_tag="STM2047" class="clusterblast-orf" id="dummy-4_h4_1_12"  />
</g>
<g id="a4_0013"  >
<polygon points="397,85 402,80 408,80 408,90 402,90 397,85 " style="fill:#d8bc15; stroke-width:1; stroke:black; " description="&lt;b&gt;STM2046&lt;/b&gt;&lt;br&gt;propanediol utilization polyhedral body protein PduK&lt;br&gt;Location: 9628 - 9166&lt;br&gt;&lt;br&gt;&lt;b&gt;BlastP hit with ctg1_854&lt;/b&gt;&lt;br&gt;Percentage identity: 66&lt;br&gt;Percentage coverage: 102&lt;br&gt;BLAST bit score: 185&lt;br&gt;E-value: 4.33e-63" locus_tag="STM2046" class="clusterblast-orf" id="dummy-4_h4_1_13"  />
</g>
<g id="a4_0014"  >
<polygon points="409,85 414,80 415,80 415,90 414,90 409,85 " style="fill:#d84d15; stroke-width:1; stroke:black; " description="&lt;b&gt;STM2045&lt;/b&gt;&lt;br&gt;propanediol utilization polyhedral body protein PduJ&lt;br&gt;Location: 9142 - 8866&lt;br&gt;&lt;br&gt;&lt;b&gt;BlastP hit with ctg1_855&lt;/b&gt;&lt;br&gt;Percentage identity: 97&lt;br&gt;Percentage coverage: 99&lt;br&gt;BLAST bit score: 162&lt;br&gt;E-value: 9.33e-56&lt;br&gt;&lt;br&gt;&lt;b&gt;BlastP hit with ctg1_862&lt;/b&gt;&lt;br&gt;Percentage identity: 83&lt;br&gt;Percentage coverage: 93&lt;br&gt;BLAST bit score: 131&lt;br&gt;E-value: 1.67e-43" locus_tag="STM2045" class="clusterblast-orf" id="dummy-4_h4_1_14"  />
</g>
<g id="a4_0015"  >
<polygon points="416,85 421,80 424,80 424,90 421,90 416,85 " style="fill:#15d885; stroke-width:1; stroke:black; " description="&lt;b&gt;STM2044&lt;/b&gt;&lt;br&gt;propanediol dehydratase reactivation protein&lt;br&gt;Location: 8848 - 8497&lt;br&gt;&lt;br&gt;&lt;b&gt;BlastP hit with ctg1_856&lt;/b&gt;&lt;br&gt;Percentage identity: 68&lt;br&gt;Percentage coverage: 100&lt;br&gt;BLAST bit score: 164&lt;br&gt;E-value: 9.67e-56" locus_tag="STM2044" class="clusterblast-orf" id="dummy-4_h4_1_15"  />
</g>
<g id="a4_0016"  >
<polygon points="424,85 429,80 468,80 468,90 429,90 424,85 " style="fill:#1515d8; stroke-width:1; stroke:black; " description="&lt;b&gt;STM2043&lt;/b&gt;&lt;br&gt;propanediol dehydratase reactivation protein&lt;br&gt;Location: 8508 - 6675&lt;br&gt;&lt;br&gt;&lt;b&gt;BlastP hit with ctg1_857&lt;/b&gt;&lt;br&gt;Percentage identity: 88&lt;br&gt;Percentage coverage: 100&lt;br&gt;BLAST bit score: 1016&lt;br&gt;E-value: 0.0" locus_tag="STM2043" class="clusterblast-orf" id="dummy-4_h4_1_16"  />
</g>
<g id="a4_0017"  >
<polygon points="469,85 474,80 481,80 481,90 474,90 469,85 " style="fill:#d81585; stroke-width:1; stroke:black; " description="&lt;b&gt;STM2042&lt;/b&gt;&lt;br&gt;propanediol dehydratase small subunit&lt;br&gt;Location: 6666 - 6144&lt;br&gt;&lt;br&gt;&lt;b&gt;BlastP hit with ctg1_858&lt;/b&gt;&lt;br&gt;Percentage identity: 86&lt;br&gt;Percentage coverage: 100&lt;br&gt;BLAST bit score: 285&lt;br&gt;E-value: 4.59e-102" locus_tag="STM2042" class="clusterblast-orf" id="dummy-4_h4_1_17"  />
</g>
<g id="a4_0018"  >
<polygon points="482,85 487,80 498,80 498,90 487,90 482,85 " style="fill:#bcd815; stroke-width:1; stroke:black; " description="&lt;b&gt;STM2041&lt;/b&gt;&lt;br&gt;propanediol dehydratase medium subunit&lt;br&gt;Location: 6130 - 5455&lt;br&gt;&lt;br&gt;&lt;b&gt;BlastP hit with ctg1_859&lt;/b&gt;&lt;br&gt;Percentage identity: 89&lt;br&gt;Percentage coverage: 100&lt;br&gt;BLAST bit score: 373&lt;br&gt;E-value: 3.98e-135" locus_tag="STM2041" class="clusterblast-orf" id="dummy-4_h4_1_18"  />
</g>
<g id="a4_0019"  >
<polygon points="498,85 503,80 539,80 539,90 503,90 498,85 " style="fill:#15d8bc; stroke-width:1; stroke:black; " description="&lt;b&gt;STM2040&lt;/b&gt;&lt;br&gt;propanediol dehydratase large subunit&lt;br&gt;Location: 5445 - 3780&lt;br&gt;&lt;br&gt;&lt;b&gt;BlastP hit with ctg1_860&lt;/b&gt;&lt;br&gt;Percentage identity: 98&lt;br&gt;Percentage coverage: 100&lt;br&gt;BLAST bit score: 1070&lt;br&gt;E-value: 0.0" locus_tag="STM2040" class="clusterblast-orf" id="dummy-4_h4_1_19"  />
</g>
<g id="a4_0020"  >
<polygon points="539,85 544,80 559,80 559,90 544,90 539,85 " style="fill:#4d15d8; stroke-width:1; stroke:black; " description="&lt;b&gt;STM2039&lt;/b&gt;&lt;br&gt;propanediol utilization polyhedral body protein PduB&lt;br&gt;Location: 3762 - 2949&lt;br&gt;&lt;br&gt;&lt;b&gt;BlastP hit with ctg1_861&lt;/b&gt;&lt;br&gt;Percentage identity: 95&lt;br&gt;Percentage coverage: 100&lt;br&gt;BLAST bit score: 479&lt;br&gt;E-value: 1.52e-175" locus_tag="STM2039" class="clusterblast-orf" id="dummy-4_h4_1_20"  />
</g>
<g id="a4_0021"  >
<polygon points="559,85 564,80 565,80 565,90 564,90 559,85 " style="fill:#d84d15; stroke-width:1; stroke:black; " description="&lt;b&gt;STM2038&lt;/b&gt;&lt;br&gt;propanediol utilization polyhedral body protein PduA&lt;br&gt;Location: 2953 - 2668&lt;br&gt;&lt;br&gt;&lt;b&gt;BlastP hit with ctg1_855&lt;/b&gt;&lt;br&gt;Percentage identity: 81&lt;br&gt;Percentage coverage: 97&lt;br&gt;BLAST bit score: 135&lt;br&gt;E-value: 4.85e-45&lt;br&gt;&lt;br&gt;&lt;b&gt;BlastP hit with ctg1_862&lt;/b&gt;&lt;br&gt;Percentage identity: 96&lt;br&gt;Percentage coverage: 100&lt;br&gt;BLAST bit score: 164&lt;br&gt;E-value: 9.9e-57" locus_tag="STM2038" class="clusterblast-orf" id="dummy-4_h4_1_21"  />
</g>
<g id="a4_0022"  >
<polygon points="578,90 592,90 597,85 592,80 578,80 578,90 " style="fill:#d8154d; stroke-width:1; stroke:black; " description="&lt;b&gt;STM2037&lt;/b&gt;&lt;br&gt;propanediol diffusion facilitator&lt;br&gt;Location: 2144 - 1349&lt;br&gt;&lt;br&gt;&lt;b&gt;BlastP hit with ctg1_863&lt;/b&gt;&lt;br&gt;Percentage identity: 85&lt;br&gt;Percentage coverage: 97&lt;br&gt;BLAST bit score: 465&lt;br&gt;E-value: 5.1e-170" locus_tag="STM2037" class="clusterblast-orf" id="dummy-4_h4_1_22"  />
</g>
<g id="a4_0023"  >
<polygon points="603,90 620,90 625,85 620,80 603,80 603,90 " style="fill:#85d815; stroke-width:1; stroke:black; " description="&lt;b&gt;STM2036&lt;/b&gt;&lt;br&gt;transcriptional regulator PocR&lt;br&gt;Location: 1133 - 221&lt;br&gt;&lt;br&gt;&lt;b&gt;BlastP hit with ctg1_864&lt;/b&gt;&lt;br&gt;Percentage identity: 88&lt;br&gt;Percentage coverage: 100&lt;br&gt;BLAST bit score: 537&lt;br&gt;E-value: 2.65e-197" locus_tag="STM2036" class="clusterblast-orf" id="dummy-4_h4_1_23"  />
</g>
</svg>
