<svg xmlns="http://www.w3.org/2000/svg" xmlns:xlink="http://www.w3.org/1999/xlink" version="1.1" x="0" y="0" height="230" width="800" viewBox="0 0 800 230" preserveAspectRatio="none"  >
<g label="Query sequence" class="clusterblast-cluster"  >
<text x="5" y="20" class="clusterblast-acc"  >
Query sequence</text>
<line x1="10" y1="35" x2="778.0" y2="35" style="stroke-width:1; stroke:grey; "  />
<polygon points="0,35 5,30 17,30 17,40 5,40 0,35 " style="fill:white; stroke-width:1; stroke:black; " description="&lt;b&gt;ctg1_1359&lt;/b&gt;&lt;br&gt;ctg1 1359&lt;br&gt;Location: 1442628 - 1443831" locus_tag="ctg1_1359" class="clusterblast-orf" id="dummy-9_q0_0_all"  />
<polygon points="22,40 24,40 29,35 24,30 22,30 22,40 " style="fill:white; stroke-width:1; stroke:black; " description="&lt;b&gt;ctg1_1360&lt;/b&gt;&lt;br&gt;ctg1 1360&lt;br&gt;Location: 1444169 - 1444625" locus_tag="ctg1_1360" class="clusterblast-orf" id="dummy-9_q1_0_all"  />
<polygon points="30,40 33,40 38,35 33,30 30,30 30,40 " style="fill:white; stroke-width:1; stroke:black; " description="&lt;b&gt;ctg1_1361&lt;/b&gt;&lt;br&gt;ctg1 1361&lt;br&gt;Location: 1444712 - 1445207" locus_tag="ctg1_1361" class="clusterblast-orf" id="dummy-9_q2_0_all"  />
<polygon points="38,40 42,40 47,35 42,30 38,30 38,40 " style="fill:white; stroke-width:1; stroke:black; " description="&lt;b&gt;ctg1_1362&lt;/b&gt;&lt;br&gt;ctg1 1362&lt;br&gt;Location: 1445218 - 1445878" locus_tag="ctg1_1362" class="clusterblast-orf" id="dummy-9_q3_0_all"  />
<polygon points="49,40 70,40 75,35 70,30 49,30 49,40 " style="fill:white; stroke-width:1; stroke:black; " description="&lt;b&gt;ctg1_1363&lt;/b&gt;&lt;br&gt;ctg1 1363&lt;br&gt;Location: 1445954 - 1447787" locus_tag="ctg1_1363" class="clusterblast-orf" id="dummy-9_q4_0_all"  />
<polygon points="76,35 81,30 85,30 85,40 81,40 76,35 " style="fill:white; stroke-width:1; stroke:black; " description="&lt;b&gt;ctg1_1364&lt;/b&gt;&lt;br&gt;ctg1 1364&lt;br&gt;Location: 1447832 - 1448432" locus_tag="ctg1_1364" class="clusterblast-orf" id="dummy-9_q5_0_all"  />
<polygon points="86,35 91,30 104,30 104,40 91,40 86,35 " style="fill:white; stroke-width:1; stroke:black; " description="&lt;b&gt;ctg1_1365&lt;/b&gt;&lt;br&gt;ctg1 1365&lt;br&gt;Location: 1448513 - 1449731" locus_tag="ctg1_1365" class="clusterblast-orf" id="dummy-9_q6_0_all"  />
<polygon points="117,40 126,40 131,35 126,30 117,30 117,40 " style="fill:white; stroke-width:1; stroke:black; " description="&lt;b&gt;ctg1_1366&lt;/b&gt;&lt;br&gt;ctg1 1366&lt;br&gt;Location: 1450607 - 1451534" locus_tag="ctg1_1366" class="clusterblast-orf" id="dummy-9_q7_0_all"  />
<polygon points="141,40 142,40 147,35 142,30 141,30 141,40 " style="fill:#d81515; stroke-width:1; stroke:black; " description="&lt;b&gt;ctg1_1367&lt;/b&gt;&lt;br&gt;ctg1 1367&lt;br&gt;Location: 1452269 - 1452629" locus_tag="ctg1_1367" class="clusterblast-orf" id="dummy-9_q8_0_all"  />
<polygon points="147,40 152,40 157,35 152,30 147,30 147,40 " style="fill:#77d815; stroke-width:1; stroke:black; " description="&lt;b&gt;ctg1_1368&lt;/b&gt;&lt;br&gt;ctg1 1368&lt;br&gt;Location: 1452644 - 1453319" locus_tag="ctg1_1368" class="clusterblast-orf" id="dummy-9_q9_0_all"  />
<polygon points="158,40 180,40 185,35 180,30 158,30 158,40 " style="fill:#15d8d8; stroke-width:1; stroke:black; " description="&lt;b&gt;ctg1_1369&lt;/b&gt;&lt;br&gt;ctg1 1369&lt;br&gt;Location: 1453406 - 1455215" locus_tag="ctg1_1369" class="clusterblast-orf" id="dummy-9_q10_0_all"  />
<polygon points="185,40 187,40 192,35 187,30 185,30 185,40 " style="fill:#7715d8; stroke-width:1; stroke:black; " description="&lt;b&gt;ctg1_1370&lt;/b&gt;&lt;br&gt;ctg1 1370&lt;br&gt;Location: 1455217 - 1455718" locus_tag="ctg1_1370" class="clusterblast-orf" id="dummy-9_q11_0_all"  />
<polygon points="192,40 207,40 212,35 207,30 192,30 192,40 " style="fill:#d85e15; stroke-width:1; stroke:black; " description="&lt;b&gt;ctg1_1371&lt;/b&gt;&lt;br&gt;ctg1 1371&lt;br&gt;Location: 1455714 - 1457052" locus_tag="ctg1_1371" class="clusterblast-orf" id="dummy-9_q12_0_all"  />
<polygon points="212,40 247,40 252,35 247,30 212,30 212,40 " style="fill:#2ed815; stroke-width:1; stroke:black; " description="&lt;b&gt;ctg1_1372&lt;/b&gt;&lt;br&gt;ctg1 1372&lt;br&gt;Location: 1457083 - 1459810" locus_tag="ctg1_1372" class="clusterblast-orf" id="dummy-9_q13_0_all"  />
<polygon points="252,40 261,40 266,35 261,30 252,30 252,40 " style="fill:#158fd8; stroke-width:1; stroke:black; " description="&lt;b&gt;ctg1_1373&lt;/b&gt;&lt;br&gt;ctg1 1373&lt;br&gt;Location: 1459806 - 1460784" locus_tag="ctg1_1373" class="clusterblast-orf" id="dummy-9_q14_0_all"  />
<polygon points="267,40 270,40 275,35 270,30 267,30 267,40 " style="fill:#c015d8; stroke-width:1; stroke:black; " description="&lt;b&gt;ctg1_1374&lt;/b&gt;&lt;br&gt;ctg1 1374&lt;br&gt;Location: 1460798 - 1461341" locus_tag="ctg1_1374" class="clusterblast-orf" id="dummy-9_q15_0_all"  />
<polygon points="275,40 278,40 283,35 278,30 275,30 275,40 " style="fill:#d8a715; stroke-width:1; stroke:black; " description="&lt;b&gt;ctg1_1375&lt;/b&gt;&lt;br&gt;ctg1 1375&lt;br&gt;Location: 1461351 - 1461906" locus_tag="ctg1_1375" class="clusterblast-orf" id="dummy-9_q16_0_all"  />
<polygon points="283,40 287,35 283,30 283,40 " style="fill:#15d846; stroke-width:1; stroke:black; " description="&lt;b&gt;ctg1_1376&lt;/b&gt;&lt;br&gt;ctg1 1376&lt;br&gt;Location: 1461902 - 1462205" locus_tag="ctg1_1376" class="clusterblast-orf" id="dummy-9_q17_0_all"  />
<polygon points="287,40 309,40 314,35 309,30 287,30 287,40 " style="fill:#1546d8; stroke-width:1; stroke:black; " description="&lt;b&gt;ctg1_1377&lt;/b&gt;&lt;br&gt;ctg1 1377&lt;br&gt;Location: 1462201 - 1464043" locus_tag="ctg1_1377" class="clusterblast-orf" id="dummy-9_q18_0_all"  />
<polygon points="319,40 336,40 341,35 336,30 319,30 319,40 " style="fill:#d815a7; stroke-width:1; stroke:black; " description="&lt;b&gt;ctg1_1378&lt;/b&gt;&lt;br&gt;ctg1 1378&lt;br&gt;Location: 1464344 - 1465874" locus_tag="ctg1_1378" class="clusterblast-orf" id="dummy-9_q19_0_all"  />
<polygon points="341,40 358,40 363,35 358,30 341,30 341,40 " style="fill:#c0d815; stroke-width:1; stroke:black; " description="&lt;b&gt;ctg1_1379&lt;/b&gt;&lt;br&gt;ctg1 1379&lt;br&gt;Location: 1465880 - 1467338" locus_tag="ctg1_1379" class="clusterblast-orf" id="dummy-9_q20_0_all"  />
<polygon points="364,35 369,30 377,30 377,40 369,40 364,35 " style="fill:white; stroke-width:1; stroke:black; " description="&lt;b&gt;ctg1_1380&lt;/b&gt;&lt;br&gt;ctg1 1380&lt;br&gt;Location: 1467391 - 1468312" locus_tag="ctg1_1380" class="clusterblast-orf" id="dummy-9_q21_0_all"  />
<polygon points="378,40 380,40 385,35 380,30 378,30 378,40 " style="fill:white; stroke-width:1; stroke:black; " description="&lt;b&gt;ctg1_1381&lt;/b&gt;&lt;br&gt;ctg1 1381&lt;br&gt;Location: 1468372 - 1468831" locus_tag="ctg1_1381" class="clusterblast-orf" id="dummy-9_q22_0_all"  />
<polygon points="387,40 401,40 406,35 401,30 387,30 387,40 " style="fill:white; stroke-width:1; stroke:black; " description="&lt;b&gt;ctg1_1382&lt;/b&gt;&lt;br&gt;ctg1 1382&lt;br&gt;Location: 1468966 - 1470256" locus_tag="ctg1_1382" class="clusterblast-orf" id="dummy-9_q23_0_all"  />
<polygon points="407,40 426,40 431,35 426,30 407,30 407,40 " style="fill:white; stroke-width:1; stroke:black; " description="&lt;b&gt;ctg1_1383&lt;/b&gt;&lt;br&gt;ctg1 1383&lt;br&gt;Location: 1470338 - 1472009" locus_tag="ctg1_1383" class="clusterblast-orf" id="dummy-9_q24_0_all"  />
<polygon points="431,40 438,40 443,35 438,30 431,30 431,40 " style="fill:white; stroke-width:1; stroke:black; " description="&lt;b&gt;ctg1_1384&lt;/b&gt;&lt;br&gt;ctg1 1384&lt;br&gt;Location: 1472005 - 1472764" locus_tag="ctg1_1384" class="clusterblast-orf" id="dummy-9_q25_0_all"  />
<polygon points="443,40 450,40 455,35 450,30 443,30 443,40 " style="fill:white; stroke-width:1; stroke:black; " description="&lt;b&gt;ctg1_1385&lt;/b&gt;&lt;br&gt;ctg1 1385&lt;br&gt;Location: 1472778 - 1473636" locus_tag="ctg1_1385" class="clusterblast-orf" id="dummy-9_q26_0_all"  />
<polygon points="455,40 465,40 470,35 465,30 455,30 455,40 " style="fill:white; stroke-width:1; stroke:black; " description="&lt;b&gt;ctg1_1386&lt;/b&gt;&lt;br&gt;ctg1 1386&lt;br&gt;Location: 1473635 - 1474601" locus_tag="ctg1_1386" class="clusterblast-orf" id="dummy-9_q27_0_all"  />
<polygon points="470,40 485,40 490,35 485,30 470,30 470,40 " style="fill:white; stroke-width:1; stroke:black; " description="&lt;b&gt;ctg1_1387&lt;/b&gt;&lt;br&gt;ctg1 1387&lt;br&gt;Location: 1474600 - 1475974" locus_tag="ctg1_1387" class="clusterblast-orf" id="dummy-9_q28_0_all"  />
<polygon points="491,35 496,30 497,30 497,40 496,40 491,35 " style="fill:white; stroke-width:1; stroke:black; " description="&lt;b&gt;ctg1_1388&lt;/b&gt;&lt;br&gt;ctg1 1388&lt;br&gt;Location: 1476029 - 1476455" locus_tag="ctg1_1388" class="clusterblast-orf" id="dummy-9_q29_0_all"  />
<polygon points="499,40 507,40 512,35 507,30 499,30 499,40 " style="fill:white; stroke-width:1; stroke:black; " description="&lt;b&gt;ctg1_1389&lt;/b&gt;&lt;br&gt;ctg1 1389&lt;br&gt;Location: 1476588 - 1477518" locus_tag="ctg1_1389" class="clusterblast-orf" id="dummy-9_q30_0_all"  />
<polygon points="516,40 519,40 524,35 519,30 516,30 516,40 " style="fill:white; stroke-width:1; stroke:black; " description="&lt;b&gt;ctg1_1390&lt;/b&gt;&lt;br&gt;ctg1 1390&lt;br&gt;Location: 1477792 - 1478335" locus_tag="ctg1_1390" class="clusterblast-orf" id="dummy-9_q31_0_all"  />
<polygon points="526,40 539,40 544,35 539,30 526,30 526,40 " style="fill:white; stroke-width:1; stroke:black; " description="&lt;b&gt;ctg1_1391&lt;/b&gt;&lt;br&gt;ctg1 1391&lt;br&gt;Location: 1478437 - 1479634" locus_tag="ctg1_1391" class="clusterblast-orf" id="dummy-9_q32_0_all"  />
<polygon points="547,40 553,40 558,35 553,30 547,30 547,40 " style="fill:white; stroke-width:1; stroke:black; " description="&lt;b&gt;ctg1_1392&lt;/b&gt;&lt;br&gt;ctg1 1392&lt;br&gt;Location: 1479839 - 1480625" locus_tag="ctg1_1392" class="clusterblast-orf" id="dummy-9_q33_0_all"  />
<polygon points="558,40 571,40 576,35 571,30 558,30 558,40 " style="fill:white; stroke-width:1; stroke:black; " description="&lt;b&gt;ctg1_1393&lt;/b&gt;&lt;br&gt;ctg1 1393&lt;br&gt;Location: 1480635 - 1481841" locus_tag="ctg1_1393" class="clusterblast-orf" id="dummy-9_q34_0_all"  />
<polygon points="577,40 591,40 596,35 591,30 577,30 577,40 " style="fill:white; stroke-width:1; stroke:black; " description="&lt;b&gt;ctg1_1394&lt;/b&gt;&lt;br&gt;ctg1 1394&lt;br&gt;Location: 1481880 - 1483173" locus_tag="ctg1_1394" class="clusterblast-orf" id="dummy-9_q35_0_all"  />
<polygon points="596,40 603,40 608,35 603,30 596,30 596,40 " style="fill:white; stroke-width:1; stroke:black; " description="&lt;b&gt;ctg1_1395&lt;/b&gt;&lt;br&gt;ctg1 1395&lt;br&gt;Location: 1483187 - 1483991" locus_tag="ctg1_1395" class="clusterblast-orf" id="dummy-9_q36_0_all"  />
<polygon points="608,35 613,30 625,30 625,40 613,40 608,35 " style="fill:#15d88f; stroke-width:1; stroke:black; " description="&lt;b&gt;ctg1_1396&lt;/b&gt;&lt;br&gt;ctg1 1396&lt;br&gt;Location: 1484019 - 1485198" locus_tag="ctg1_1396" class="clusterblast-orf" id="dummy-9_q37_0_all"  />
<polygon points="625,35 630,30 644,30 644,40 630,40 625,35 " style="fill:#2e15d8; stroke-width:1; stroke:black; " description="&lt;b&gt;ctg1_1397&lt;/b&gt;&lt;br&gt;ctg1 1397&lt;br&gt;Location: 1485194 - 1486454" locus_tag="ctg1_1397" class="clusterblast-orf" id="dummy-9_q38_0_all"  />
<polygon points="644,35 649,30 667,30 667,40 649,40 644,35 " style="fill:#d8155e; stroke-width:1; stroke:black; " description="&lt;b&gt;ctg1_1398&lt;/b&gt;&lt;br&gt;ctg1 1398&lt;br&gt;Location: 1486443 - 1488066" locus_tag="ctg1_1398" class="clusterblast-orf" id="dummy-9_q39_0_all"  />
<polygon points="671,40 686,40 691,35 686,30 671,30 671,40 " style="fill:white; stroke-width:1; stroke:black; " description="&lt;b&gt;ctg1_1399&lt;/b&gt;&lt;br&gt;ctg1 1399&lt;br&gt;Location: 1488337 - 1489684" locus_tag="ctg1_1399" class="clusterblast-orf" id="dummy-9_q40_0_all"  />
<polygon points="691,40 702,40 707,35 702,30 691,30 691,40 " style="fill:white; stroke-width:1; stroke:black; " description="&lt;b&gt;ctg1_1400&lt;/b&gt;&lt;br&gt;ctg1 1400&lt;br&gt;Location: 1489693 - 1490761" locus_tag="ctg1_1400" class="clusterblast-orf" id="dummy-9_q41_0_all"  />
<polygon points="708,35 712,30 712,40 708,35 " style="fill:white; stroke-width:1; stroke:black; " description="&lt;b&gt;ctg1_1401&lt;/b&gt;&lt;br&gt;ctg1 1401&lt;br&gt;Location: 1490854 - 1491109" locus_tag="ctg1_1401" class="clusterblast-orf" id="dummy-9_q42_0_all"  />
<polygon points="712,35 717,30 729,30 729,40 717,40 712,35 " style="fill:white; stroke-width:1; stroke:black; " description="&lt;b&gt;ctg1_1402&lt;/b&gt;&lt;br&gt;ctg1 1402&lt;br&gt;Location: 1491108 - 1492239" locus_tag="ctg1_1402" class="clusterblast-orf" id="dummy-9_q43_0_all"  />
<polygon points="730,35 735,30 764,30 764,40 735,40 730,35 " style="fill:white; stroke-width:1; stroke:black; " description="&lt;b&gt;ctg1_1403&lt;/b&gt;&lt;br&gt;ctg1 1403&lt;br&gt;Location: 1492340 - 1494626" locus_tag="ctg1_1403" class="clusterblast-orf" id="dummy-9_q44_0_all"  />
<polygon points="769,35 774,30 780,30 780,40 774,40 769,35 " style="fill:white; stroke-width:1; stroke:black; " description="&lt;b&gt;ctg1_1404&lt;/b&gt;&lt;br&gt;ctg1 1404&lt;br&gt;Location: 1494970 - 1495699" locus_tag="ctg1_1404" class="clusterblast-orf" id="dummy-9_q45_0_all"  />
</g>
<g label="MGC00000047" description="MGC00000047_c1: GlycerolP to glyceroneP E. coli (100% of genes show similarity), GLYP" class="clusterblast-cluster"  >
<text x="5" y="70" class="clusterblast-acc"  >
MGC00000047_c1: GlycerolP to glyceroneP E. coli (100% of genes show similarity), GLYP</text>
<line x1="10" y1="85" x2="778.0" y2="85" style="stroke-width:1; stroke:grey; "  />
</g>
<g id="a9_000"  >
<polygon points="360,85 365,80 377,80 377,90 365,90 360,85 " style="fill:#15d88f; stroke-width:1; stroke:black; " description="&lt;b&gt;b2243&lt;/b&gt;&lt;br&gt;anaerobic glycerol-3-phosphate dehydrogenase subunit C&lt;br&gt;Location: 14065 - 12874&lt;br&gt;&lt;br&gt;&lt;b&gt;BlastP hit with ctg1_1396&lt;/b&gt;&lt;br&gt;Percentage identity: 79&lt;br&gt;Percentage coverage: 101&lt;br&gt;BLAST bit score: 654&lt;br&gt;E-value: 9.82e-241" locus_tag="b2243" class="clusterblast-orf" id="dummy-9_h9_3_0"  />
</g>
<g id="a9_001"  >
<polygon points="377,85 382,80 396,80 396,90 382,90 377,85 " style="fill:#2e15d8; stroke-width:1; stroke:black; " description="&lt;b&gt;b2242&lt;/b&gt;&lt;br&gt;anaerobic glycerol-3-phosphate dehydrogenase subunit B&lt;br&gt;Location: 12878 - 11618&lt;br&gt;&lt;br&gt;&lt;b&gt;BlastP hit with ctg1_1397&lt;/b&gt;&lt;br&gt;Percentage identity: 62&lt;br&gt;Percentage coverage: 100&lt;br&gt;BLAST bit score: 519&lt;br&gt;E-value: 1.61e-186" locus_tag="b2242" class="clusterblast-orf" id="dummy-9_h9_3_1"  />
</g>
<g id="a9_002"  >
<polygon points="395,85 400,80 419,80 419,90 400,90 395,85 " style="fill:#d8155e; stroke-width:1; stroke:black; " description="&lt;b&gt;b2241&lt;/b&gt;&lt;br&gt;anaerobic glycerol-3-phosphate dehydrogenase subunit A&lt;br&gt;Location: 11629 - 10000&lt;br&gt;&lt;br&gt;&lt;b&gt;BlastP hit with ctg1_1398&lt;/b&gt;&lt;br&gt;Percentage identity: 80&lt;br&gt;Percentage coverage: 99&lt;br&gt;BLAST bit score: 875&lt;br&gt;E-value: 0.0" locus_tag="b2241" class="clusterblast-orf" id="dummy-9_h9_3_2"  />
</g>
</svg>
