<svg xmlns="http://www.w3.org/2000/svg" xmlns:xlink="http://www.w3.org/1999/xlink" version="1.1" x="0" y="0" height="230" width="800" viewBox="0 0 800 230" preserveAspectRatio="none"  >
<g label="Query sequence" class="clusterblast-cluster"  >
<text x="5" y="20" class="clusterblast-acc"  >
Query sequence</text>
<line x1="10" y1="35" x2="778.0" y2="35" style="stroke-width:1; stroke:grey; "  />
<polygon points="0,35 5,30 17,30 17,40 5,40 0,35 " style="fill:white; stroke-width:1; stroke:black; " description="&lt;b&gt;ctg1_1586&lt;/b&gt;&lt;br&gt;ctg1 1586&lt;br&gt;Location: 1721711 - 1722182" locus_tag="ctg1_1586" class="clusterblast-orf" id="dummy-10_q0_0_all"  />
<polygon points="16,35 21,30 66,30 66,40 21,40 16,35 " style="fill:white; stroke-width:1; stroke:black; " description="&lt;b&gt;ctg1_1587&lt;/b&gt;&lt;br&gt;ctg1 1587&lt;br&gt;Location: 1722168 - 1723554" locus_tag="ctg1_1587" class="clusterblast-orf" id="dummy-10_q1_0_all"  />
<polygon points="67,35 72,30 116,30 116,40 72,40 67,35 " style="fill:white; stroke-width:1; stroke:black; " description="&lt;b&gt;ctg1_1588&lt;/b&gt;&lt;br&gt;ctg1 1588&lt;br&gt;Location: 1723563 - 1724937" locus_tag="ctg1_1588" class="clusterblast-orf" id="dummy-10_q2_0_all"  />
<polygon points="137,35 142,30 161,30 161,40 142,40 137,35 " style="fill:white; stroke-width:1; stroke:black; " description="&lt;b&gt;ctg1_1589&lt;/b&gt;&lt;br&gt;ctg1 1589&lt;br&gt;Location: 1725519 - 1726182" locus_tag="ctg1_1589" class="clusterblast-orf" id="dummy-10_q3_0_all"  />
<polygon points="161,35 166,30 169,30 169,40 166,40 161,35 " style="fill:white; stroke-width:1; stroke:black; " description="&lt;b&gt;ctg1_1590&lt;/b&gt;&lt;br&gt;ctg1 1590&lt;br&gt;Location: 1726192 - 1726411" locus_tag="ctg1_1590" class="clusterblast-orf" id="dummy-10_q4_0_all"  />
<polygon points="171,35 176,30 227,30 227,40 176,40 171,35 " style="fill:white; stroke-width:1; stroke:black; " description="&lt;b&gt;ctg1_1591&lt;/b&gt;&lt;br&gt;ctg1 1591&lt;br&gt;Location: 1726450 - 1728013" locus_tag="ctg1_1591" class="clusterblast-orf" id="dummy-10_q5_0_all"  />
<polygon points="229,35 234,30 281,30 281,40 234,40 229,35 " style="fill:white; stroke-width:1; stroke:black; " description="&lt;b&gt;ctg1_1592&lt;/b&gt;&lt;br&gt;ctg1 1592&lt;br&gt;Location: 1728068 - 1729517" locus_tag="ctg1_1592" class="clusterblast-orf" id="dummy-10_q6_0_all"  />
<polygon points="282,35 287,30 314,30 314,40 287,40 282,35 " style="fill:white; stroke-width:1; stroke:black; " description="&lt;b&gt;ctg1_1593&lt;/b&gt;&lt;br&gt;ctg1 1593&lt;br&gt;Location: 1729533 - 1730415" locus_tag="ctg1_1593" class="clusterblast-orf" id="dummy-10_q7_0_all"  />
<polygon points="328,40 450,40 455,35 450,30 328,30 328,40 " style="fill:#d81515; stroke-width:1; stroke:black; " description="&lt;b&gt;ctg1_1594&lt;/b&gt;&lt;br&gt;ctg1 1594&lt;br&gt;Location: 1730819 - 1734335" locus_tag="ctg1_1594" class="clusterblast-orf" id="dummy-10_q8_0_all"  />
<polygon points="455,35 460,30 466,30 466,40 460,40 455,35 " style="fill:white; stroke-width:1; stroke:black; " description="&lt;b&gt;ctg1_1595&lt;/b&gt;&lt;br&gt;ctg1 1595&lt;br&gt;Location: 1734351 - 1734660" locus_tag="ctg1_1595" class="clusterblast-orf" id="dummy-10_q9_0_all"  />
<polygon points="475,40 546,40 551,35 546,30 475,30 475,40 " style="fill:white; stroke-width:1; stroke:black; " description="&lt;b&gt;ctg1_1596&lt;/b&gt;&lt;br&gt;ctg1 1596&lt;br&gt;Location: 1734900 - 1737003" locus_tag="ctg1_1596" class="clusterblast-orf" id="dummy-10_q10_0_all"  />
<polygon points="559,35 564,30 611,30 611,40 564,40 559,35 " style="fill:white; stroke-width:1; stroke:black; " description="&lt;b&gt;ctg1_1597&lt;/b&gt;&lt;br&gt;ctg1 1597&lt;br&gt;Location: 1737237 - 1738662" locus_tag="ctg1_1597" class="clusterblast-orf" id="dummy-10_q11_0_all"  />
<polygon points="617,40 654,40 659,35 654,30 617,30 617,40 " style="fill:white; stroke-width:1; stroke:black; " description="&lt;b&gt;ctg1_1598&lt;/b&gt;&lt;br&gt;ctg1 1598&lt;br&gt;Location: 1738842 - 1740006" locus_tag="ctg1_1598" class="clusterblast-orf" id="dummy-10_q12_0_all"  />
<polygon points="659,40 663,35 659,30 659,40 " style="fill:white; stroke-width:1; stroke:black; " description="&lt;b&gt;ctg1_1599&lt;/b&gt;&lt;br&gt;ctg1 1599&lt;br&gt;Location: 1740008 - 1740119" locus_tag="ctg1_1599" class="clusterblast-orf" id="dummy-10_q13_0_all"  />
<polygon points="665,40 678,40 683,35 678,30 665,30 665,40 " style="fill:white; stroke-width:1; stroke:black; " description="&lt;b&gt;ctg1_1600&lt;/b&gt;&lt;br&gt;ctg1 1600&lt;br&gt;Location: 1740182 - 1740656" locus_tag="ctg1_1600" class="clusterblast-orf" id="dummy-10_q14_0_all"  />
<polygon points="686,40 719,40 724,35 719,30 686,30 686,40 " style="fill:white; stroke-width:1; stroke:black; " description="&lt;b&gt;ctg1_1601&lt;/b&gt;&lt;br&gt;ctg1 1601&lt;br&gt;Location: 1740754 - 1741813" locus_tag="ctg1_1601" class="clusterblast-orf" id="dummy-10_q15_0_all"  />
<polygon points="730,40 737,40 742,35 737,30 730,30 730,40 " style="fill:white; stroke-width:1; stroke:black; " description="&lt;b&gt;ctg1_1602&lt;/b&gt;&lt;br&gt;ctg1 1602&lt;br&gt;Location: 1741980 - 1742304" locus_tag="ctg1_1602" class="clusterblast-orf" id="dummy-10_q16_0_all"  />
<polygon points="753,40 775,40 780,35 775,30 753,30 753,40 " style="fill:white; stroke-width:1; stroke:black; " description="&lt;b&gt;ctg1_1603&lt;/b&gt;&lt;br&gt;ctg1 1603&lt;br&gt;Location: 1742616 - 1743357" locus_tag="ctg1_1603" class="clusterblast-orf" id="dummy-10_q17_0_all"  />
</g>
<g label="MGC00000033" description="MGC00000033_c1: PFOR II pathway B. thetaiotaomicron (100% of genes show similarity), PFORII" class="clusterblast-cluster"  >
<text x="5" y="70" class="clusterblast-acc"  >
MGC00000033_c1: PFOR II pathway B. thetaiotaomicron (100% of genes show similarity), PFORII</text>
<line x1="10" y1="85" x2="778.0" y2="85" style="stroke-width:1; stroke:grey; "  />
</g>
<g id="a10_000"  >
<polygon points="325,90 449,90 454,85 449,80 325,80 325,90 " style="fill:#d81515; stroke-width:1; stroke:black; " description="&lt;b&gt;BT_1747&lt;/b&gt;&lt;br&gt;pyruvate-flavodoxin oxidoreductase&lt;br&gt;Location: 10000 - 13558&lt;br&gt;&lt;br&gt;&lt;b&gt;BlastP hit with ctg1_1594&lt;/b&gt;&lt;br&gt;Percentage identity: 58&lt;br&gt;Percentage coverage: 100&lt;br&gt;BLAST bit score: 1327&lt;br&gt;E-value: 0.0" locus_tag="BT_1747" class="clusterblast-orf" id="dummy-10_h10_1_0"  />
</g>
</svg>
