<svg xmlns="http://www.w3.org/2000/svg" xmlns:xlink="http://www.w3.org/1999/xlink" version="1.1" x="0" y="0" height="50" width="800" viewBox="0 0 800 50" preserveAspectRatio="none"  >
<g label="Query sequence" class="clusterblast-cluster"  >
<text x="5" y="20" class="clusterblast-acc"  >
Query sequence</text>
<line x1="10" y1="35" x2="778.0" y2="35" style="stroke-width:1; stroke:grey; "  />
<polygon points="0,35 5,30 12,30 12,40 5,40 0,35 " style="fill:white; stroke-width:1; stroke:black; " description="&lt;b&gt;ctg1_4889&lt;/b&gt;&lt;br&gt;ctg1 4889&lt;br&gt;Location: 5278827 - 5279157" locus_tag="ctg1_4889" class="clusterblast-orf" id="knownclusterblast-26_q0_0_all"  />
<polygon points="24,40 65,40 70,35 65,30 24,30 24,40 " style="fill:white; stroke-width:1; stroke:black; " description="&lt;b&gt;ctg1_4890&lt;/b&gt;&lt;br&gt;ctg1 4890&lt;br&gt;Location: 5279498 - 5280764" locus_tag="ctg1_4890" class="clusterblast-orf" id="knownclusterblast-26_q1_0_all"  />
<polygon points="74,40 123,40 128,35 123,30 74,30 74,40 " style="fill:white; stroke-width:1; stroke:black; " description="&lt;b&gt;ctg1_4891&lt;/b&gt;&lt;br&gt;ctg1 4891&lt;br&gt;Location: 5280882 - 5282391" locus_tag="ctg1_4891" class="clusterblast-orf" id="knownclusterblast-26_q2_0_all"  />
<polygon points="129,40 158,40 163,35 158,30 129,30 129,40 " style="fill:white; stroke-width:1; stroke:black; " description="&lt;b&gt;ctg1_4892&lt;/b&gt;&lt;br&gt;ctg1 4892&lt;br&gt;Location: 5282410 - 5283337" locus_tag="ctg1_4892" class="clusterblast-orf" id="knownclusterblast-26_q3_0_all"  />
<polygon points="167,40 198,40 203,35 198,30 167,30 167,40 " style="fill:white; stroke-width:1; stroke:black; " description="&lt;b&gt;ctg1_4893&lt;/b&gt;&lt;br&gt;ctg1 4893&lt;br&gt;Location: 5283467 - 5284466" locus_tag="ctg1_4893" class="clusterblast-orf" id="knownclusterblast-26_q4_0_all"  />
<polygon points="206,40 227,40 232,35 227,30 206,30 206,40 " style="fill:white; stroke-width:1; stroke:black; " description="&lt;b&gt;ctg1_4894&lt;/b&gt;&lt;br&gt;ctg1 4894&lt;br&gt;Location: 5284528 - 5285251" locus_tag="ctg1_4894" class="clusterblast-orf" id="knownclusterblast-26_q5_0_all"  />
<polygon points="232,35 237,30 305,30 305,40 237,40 232,35 " style="fill:white; stroke-width:1; stroke:black; " description="&lt;b&gt;ctg1_4895&lt;/b&gt;&lt;br&gt;ctg1 4895&lt;br&gt;Location: 5285256 - 5287278" locus_tag="ctg1_4895" class="clusterblast-orf" id="knownclusterblast-26_q6_0_all"  />
<polygon points="309,40 314,40 319,35 314,30 309,30 309,40 " style="fill:white; stroke-width:1; stroke:black; " description="&lt;b&gt;ctg1_4896&lt;/b&gt;&lt;br&gt;ctg1 4896&lt;br&gt;Location: 5287390 - 5287672" locus_tag="ctg1_4896" class="clusterblast-orf" id="knownclusterblast-26_q7_0_all"  />
<polygon points="321,40 326,40 331,35 326,30 321,30 321,40 " style="fill:white; stroke-width:1; stroke:black; " description="&lt;b&gt;ctg1_4897&lt;/b&gt;&lt;br&gt;ctg1 4897&lt;br&gt;Location: 5287723 - 5288005" locus_tag="ctg1_4897" class="clusterblast-orf" id="knownclusterblast-26_q8_0_all"  />
<polygon points="338,35 343,30 391,30 391,40 343,40 338,35 " style="fill:white; stroke-width:1; stroke:black; " description="&lt;b&gt;ctg1_4898&lt;/b&gt;&lt;br&gt;ctg1 4898&lt;br&gt;Location: 5288207 - 5289683" locus_tag="ctg1_4898" class="clusterblast-orf" id="knownclusterblast-26_q9_0_all"  />
<polygon points="397,40 424,40 429,35 424,30 397,30 397,40 " style="fill:white; stroke-width:1; stroke:black; " description="&lt;b&gt;ctg1_4899&lt;/b&gt;&lt;br&gt;ctg1 4899&lt;br&gt;Location: 5289837 - 5290728" locus_tag="ctg1_4899" class="clusterblast-orf" id="knownclusterblast-26_q10_0_all"  />
<polygon points="429,35 434,30 485,30 485,40 434,40 429,35 " style="fill:white; stroke-width:1; stroke:black; " description="&lt;b&gt;ctg1_4900&lt;/b&gt;&lt;br&gt;ctg1 4900&lt;br&gt;Location: 5290724 - 5292269" locus_tag="ctg1_4900" class="clusterblast-orf" id="knownclusterblast-26_q11_0_all"  />
<polygon points="485,35 490,30 552,30 552,40 490,40 485,35 " style="fill:white; stroke-width:1; stroke:black; " description="&lt;b&gt;ctg1_4901&lt;/b&gt;&lt;br&gt;ctg1 4901&lt;br&gt;Location: 5292271 - 5294122" locus_tag="ctg1_4901" class="clusterblast-orf" id="knownclusterblast-26_q12_0_all"  />
<polygon points="554,35 559,30 587,30 587,40 559,40 554,35 " style="fill:white; stroke-width:1; stroke:black; " description="&lt;b&gt;ctg1_4902&lt;/b&gt;&lt;br&gt;ctg1 4902&lt;br&gt;Location: 5294182 - 5295112" locus_tag="ctg1_4902" class="clusterblast-orf" id="knownclusterblast-26_q13_0_all"  />
<polygon points="588,35 593,30 597,30 597,40 593,40 588,35 " style="fill:white; stroke-width:1; stroke:black; " description="&lt;b&gt;ctg1_4903&lt;/b&gt;&lt;br&gt;ctg1 4903&lt;br&gt;Location: 5295131 - 5295389" locus_tag="ctg1_4903" class="clusterblast-orf" id="knownclusterblast-26_q14_0_all"  />
<polygon points="597,35 602,30 657,30 657,40 602,40 597,35 " style="fill:white; stroke-width:1; stroke:black; " description="&lt;b&gt;ctg1_4904&lt;/b&gt;&lt;br&gt;ctg1 4904&lt;br&gt;Location: 5295385 - 5297032" locus_tag="ctg1_4904" class="clusterblast-orf" id="knownclusterblast-26_q15_0_all"  />
<polygon points="678,40 728,40 733,35 728,30 678,30 678,40 " style="fill:white; stroke-width:1; stroke:black; " description="&lt;b&gt;ctg1_4905&lt;/b&gt;&lt;br&gt;ctg1 4905&lt;br&gt;Location: 5297625 - 5299146" locus_tag="ctg1_4905" class="clusterblast-orf" id="knownclusterblast-26_q16_0_all"  />
<polygon points="734,35 739,30 746,30 746,40 739,40 734,35 " style="fill:white; stroke-width:1; stroke:black; " description="&lt;b&gt;ctg1_4906&lt;/b&gt;&lt;br&gt;ctg1 4906&lt;br&gt;Location: 5299170 - 5299509" locus_tag="ctg1_4906" class="clusterblast-orf" id="knownclusterblast-26_q17_0_all"  />
<polygon points="750,40 775,40 780,35 775,30 750,30 750,40 " style="fill:white; stroke-width:1; stroke:black; " description="&lt;b&gt;ctg1_4907&lt;/b&gt;&lt;br&gt;ctg1 4907&lt;br&gt;Location: 5299627 - 5300449" locus_tag="ctg1_4907" class="clusterblast-orf" id="knownclusterblast-26_q18_0_all"  />
</g>
</svg>
