<svg xmlns="http://www.w3.org/2000/svg" xmlns:xlink="http://www.w3.org/1999/xlink" version="1.1" x="0" y="0" height="230" width="800" viewBox="0 0 800 230" preserveAspectRatio="none"  >
<g label="Query sequence" class="clusterblast-cluster"  >
<text x="5" y="20" class="clusterblast-acc"  >
Query sequence</text>
<line x1="10" y1="35" x2="778.0" y2="35" style="stroke-width:1; stroke:grey; "  />
<polygon points="0,40 31,40 36,35 31,30 0,30 0,40 " style="fill:white; stroke-width:1; stroke:black; " description="&lt;b&gt;ctg1_4450&lt;/b&gt;&lt;br&gt;ctg1 4450&lt;br&gt;Location: 4774884 - 4776177" locus_tag="ctg1_4450" class="clusterblast-orf" id="dummy-23_q0_0_all"  />
<polygon points="39,40 126,40 131,35 126,30 39,30 39,40 " style="fill:white; stroke-width:1; stroke:black; " description="&lt;b&gt;ctg1_4451&lt;/b&gt;&lt;br&gt;ctg1 4451&lt;br&gt;Location: 4776272 - 4779536" locus_tag="ctg1_4451" class="clusterblast-orf" id="dummy-23_q1_0_all"  />
<polygon points="132,40 133,40 138,35 133,30 132,30 132,40 " style="fill:white; stroke-width:1; stroke:black; " description="&lt;b&gt;ctg1_4452&lt;/b&gt;&lt;br&gt;ctg1 4452&lt;br&gt;Location: 4779548 - 4779752" locus_tag="ctg1_4452" class="clusterblast-orf" id="dummy-23_q2_0_all"  />
<polygon points="140,35 145,30 151,30 151,40 145,40 140,35 " style="fill:white; stroke-width:1; stroke:black; " description="&lt;b&gt;ctg1_4453&lt;/b&gt;&lt;br&gt;ctg1 4453&lt;br&gt;Location: 4779825 - 4780245" locus_tag="ctg1_4453" class="clusterblast-orf" id="dummy-23_q3_0_all"  />
<polygon points="151,35 156,30 177,30 177,40 156,40 151,35 " style="fill:white; stroke-width:1; stroke:black; " description="&lt;b&gt;ctg1_4454&lt;/b&gt;&lt;br&gt;ctg1 4454&lt;br&gt;Location: 4780238 - 4781147" locus_tag="ctg1_4454" class="clusterblast-orf" id="dummy-23_q4_0_all"  />
<polygon points="179,40 197,40 202,35 197,30 179,30 179,40 " style="fill:white; stroke-width:1; stroke:black; " description="&lt;b&gt;ctg1_4455&lt;/b&gt;&lt;br&gt;ctg1 4455&lt;br&gt;Location: 4781233 - 4782016" locus_tag="ctg1_4455" class="clusterblast-orf" id="dummy-23_q5_0_all"  />
<polygon points="206,40 217,40 222,35 217,30 206,30 206,40 " style="fill:white; stroke-width:1; stroke:black; " description="&lt;b&gt;ctg1_4456&lt;/b&gt;&lt;br&gt;ctg1 4456&lt;br&gt;Location: 4782157 - 4782742" locus_tag="ctg1_4456" class="clusterblast-orf" id="dummy-23_q6_0_all"  />
<polygon points="223,40 240,40 245,35 240,30 223,30 223,40 " style="fill:white; stroke-width:1; stroke:black; " description="&lt;b&gt;ctg1_4457&lt;/b&gt;&lt;br&gt;ctg1 4457&lt;br&gt;Location: 4782763 - 4783567" locus_tag="ctg1_4457" class="clusterblast-orf" id="dummy-23_q7_0_all"  />
<polygon points="245,40 255,40 260,35 255,30 245,30 245,40 " style="fill:white; stroke-width:1; stroke:black; " description="&lt;b&gt;ctg1_4458&lt;/b&gt;&lt;br&gt;ctg1 4458&lt;br&gt;Location: 4783563 - 4784082" locus_tag="ctg1_4458" class="clusterblast-orf" id="dummy-23_q8_0_all"  />
<polygon points="273,40 276,40 281,35 276,30 273,30 273,40 " style="fill:#d81515; stroke-width:1; stroke:black; " description="&lt;b&gt;ctg1_4459&lt;/b&gt;&lt;br&gt;ctg1 4459&lt;br&gt;Location: 4784528 - 4784807" locus_tag="ctg1_4459" class="clusterblast-orf" id="dummy-23_q9_0_all"  />
<polygon points="281,40 284,40 289,35 284,30 281,30 281,40 " style="fill:#d81515; stroke-width:1; stroke:black; " description="&lt;b&gt;ctg1_4460&lt;/b&gt;&lt;br&gt;ctg1 4460&lt;br&gt;Location: 4784824 - 4785109" locus_tag="ctg1_4460" class="clusterblast-orf" id="dummy-23_q10_0_all"  />
<polygon points="289,40 292,40 297,35 292,30 289,30 289,40 " style="fill:#d81515; stroke-width:1; stroke:black; " description="&lt;b&gt;ctg1_4461&lt;/b&gt;&lt;br&gt;ctg1 4461&lt;br&gt;Location: 4785121 - 4785400" locus_tag="ctg1_4461" class="clusterblast-orf" id="dummy-23_q11_0_all"  />
<polygon points="299,40 339,40 344,35 339,30 299,30 299,40 " style="fill:#15d815; stroke-width:1; stroke:black; " description="&lt;b&gt;ctg1_4462&lt;/b&gt;&lt;br&gt;ctg1 4462&lt;br&gt;Location: 4785453 - 4787055" locus_tag="ctg1_4462" class="clusterblast-orf" id="dummy-23_q12_0_all"  />
<polygon points="345,40 347,40 352,35 347,30 345,30 345,40 " style="fill:white; stroke-width:1; stroke:black; " description="&lt;b&gt;ctg1_4463&lt;/b&gt;&lt;br&gt;ctg1 4463&lt;br&gt;Location: 4787079 - 4787337" locus_tag="ctg1_4463" class="clusterblast-orf" id="dummy-23_q13_0_all"  />
<polygon points="353,40 381,40 386,35 381,30 353,30 353,40 " style="fill:#1515d8; stroke-width:1; stroke:black; " description="&lt;b&gt;ctg1_4464&lt;/b&gt;&lt;br&gt;ctg1 4464&lt;br&gt;Location: 4787354 - 4788536" locus_tag="ctg1_4464" class="clusterblast-orf" id="dummy-23_q14_0_all"  />
<polygon points="390,40 481,40 486,35 481,30 390,30 390,40 " style="fill:#d815d8; stroke-width:1; stroke:black; " description="&lt;b&gt;ctg1_4465&lt;/b&gt;&lt;br&gt;ctg1 4465&lt;br&gt;Location: 4788667 - 4792054" locus_tag="ctg1_4465" class="clusterblast-orf" id="dummy-23_q15_0_all"  />
<polygon points="488,40 510,40 515,35 510,30 488,30 488,40 " style="fill:#d8d815; stroke-width:1; stroke:black; " description="&lt;b&gt;ctg1_4466&lt;/b&gt;&lt;br&gt;ctg1 4466&lt;br&gt;Location: 4792139 - 4793087" locus_tag="ctg1_4466" class="clusterblast-orf" id="dummy-23_q16_0_all"  />
<polygon points="515,40 522,40 527,35 522,30 515,30 515,40 " style="fill:#d81515; stroke-width:1; stroke:black; " description="&lt;b&gt;ctg1_4467&lt;/b&gt;&lt;br&gt;ctg1 4467&lt;br&gt;Location: 4793099 - 4793498" locus_tag="ctg1_4467" class="clusterblast-orf" id="dummy-23_q17_0_all"  />
<polygon points="526,40 539,40 544,35 539,30 526,30 526,40 " style="fill:#15d8d8; stroke-width:1; stroke:black; " description="&lt;b&gt;ctg1_4468&lt;/b&gt;&lt;br&gt;ctg1 4468&lt;br&gt;Location: 4793494 - 4794115" locus_tag="ctg1_4468" class="clusterblast-orf" id="dummy-23_q18_0_all"  />
<polygon points="544,40 558,40 563,35 558,30 544,30 544,40 " style="fill:white; stroke-width:1; stroke:black; " description="&lt;b&gt;ctg1_4469&lt;/b&gt;&lt;br&gt;ctg1 4469&lt;br&gt;Location: 4794127 - 4794793" locus_tag="ctg1_4469" class="clusterblast-orf" id="dummy-23_q19_0_all"  />
<polygon points="564,40 571,40 576,35 571,30 564,30 564,40 " style="fill:white; stroke-width:1; stroke:black; " description="&lt;b&gt;ctg1_4470&lt;/b&gt;&lt;br&gt;ctg1 4470&lt;br&gt;Location: 4794824 - 4795238" locus_tag="ctg1_4470" class="clusterblast-orf" id="dummy-23_q20_0_all"  />
<polygon points="576,40 581,40 586,35 581,30 576,30 576,40 " style="fill:white; stroke-width:1; stroke:black; " description="&lt;b&gt;ctg1_4471&lt;/b&gt;&lt;br&gt;ctg1 4471&lt;br&gt;Location: 4795255 - 4795585" locus_tag="ctg1_4471" class="clusterblast-orf" id="dummy-23_q21_0_all"  />
<polygon points="591,40 615,40 620,35 615,30 591,30 591,40 " style="fill:white; stroke-width:1; stroke:black; " description="&lt;b&gt;ctg1_4472&lt;/b&gt;&lt;br&gt;ctg1 4472&lt;br&gt;Location: 4795785 - 4796793" locus_tag="ctg1_4472" class="clusterblast-orf" id="dummy-23_q22_0_all"  />
<polygon points="621,35 626,30 661,30 661,40 626,40 621,35 " style="fill:white; stroke-width:1; stroke:black; " description="&lt;b&gt;ctg1_4473&lt;/b&gt;&lt;br&gt;ctg1 4473&lt;br&gt;Location: 4796841 - 4798236" locus_tag="ctg1_4473" class="clusterblast-orf" id="dummy-23_q23_0_all"  />
<polygon points="672,40 697,40 702,35 697,30 672,30 672,40 " style="fill:white; stroke-width:1; stroke:black; " description="&lt;b&gt;ctg1_4474&lt;/b&gt;&lt;br&gt;ctg1 4474&lt;br&gt;Location: 4798639 - 4799707" locus_tag="ctg1_4474" class="clusterblast-orf" id="dummy-23_q24_0_all"  />
<polygon points="702,40 775,40 780,35 775,30 702,30 702,40 " style="fill:white; stroke-width:1; stroke:black; " description="&lt;b&gt;ctg1_4475&lt;/b&gt;&lt;br&gt;ctg1 4475&lt;br&gt;Location: 4799703 - 4802448" locus_tag="ctg1_4475" class="clusterblast-orf" id="dummy-23_q25_0_all"  />
</g>
<g label="MGC0000003" description="MGC0000003_c1: Ethanolamine degradation S. typhimurium (15% of genes show similarity), EUT" class="clusterblast-cluster"  >
<text x="5" y="70" class="clusterblast-acc"  >
MGC0000003_c1: Ethanolamine degradation S. typhimurium (15% of genes show similarity), EUT</text>
<line x1="10" y1="85" x2="778.0" y2="85" style="stroke-width:1; stroke:grey; "  />
</g>
<g id="a23_000"  >
<polygon points="132,90 192,90 197,85 192,80 132,80 132,90 " style="fill:white; stroke-width:1; stroke:black; " description="&lt;b&gt;STM2472&lt;/b&gt;&lt;br&gt;malic enzyme&lt;br&gt;Location: 18301 - 16021" locus_tag="STM2472" class="clusterblast-orf" id="dummy-23_h23_3_0"  />
</g>
<g id="a23_001"  >
<polygon points="202,90 210,90 215,85 210,80 202,80 202,90 " style="fill:white; stroke-width:1; stroke:black; " description="&lt;b&gt;STM2471&lt;/b&gt;&lt;br&gt;insertion sequence element IS200 transposase&lt;br&gt;Location: 15832 - 15373" locus_tag="STM2471" class="clusterblast-orf" id="dummy-23_h23_3_1"  />
</g>
<g id="a23_002"  >
<polygon points="228,90 233,90 238,85 233,80 228,80 228,90 " style="fill:white; stroke-width:1; stroke:black; " description="&lt;b&gt;STM2470&lt;/b&gt;&lt;br&gt;carboxysome structural protein EutS&lt;br&gt;Location: 14893 - 14557" locus_tag="STM2470" class="clusterblast-orf" id="dummy-23_h23_3_2"  />
</g>
<g id="a23_003"  >
<polygon points="238,90 247,90 252,85 247,80 238,80 238,90 " style="fill:white; stroke-width:1; stroke:black; " description="&lt;b&gt;STM2469&lt;/b&gt;&lt;br&gt;ethanolamine utilization protein EutP&lt;br&gt;Location: 14545 - 14065" locus_tag="STM2469" class="clusterblast-orf" id="dummy-23_h23_3_3"  />
</g>
<g id="a23_004"  >
<polygon points="251,90 266,90 271,85 266,80 251,80 251,90 " style="fill:white; stroke-width:1; stroke:black; " description="&lt;b&gt;STM2468&lt;/b&gt;&lt;br&gt;ethanolamine utilization protein EutQ&lt;br&gt;Location: 14088 - 13398" locus_tag="STM2468" class="clusterblast-orf" id="dummy-23_h23_3_4"  />
</g>
<g id="a23_005"  >
<polygon points="271,90 288,90 293,85 288,80 271,80 271,90 " style="fill:white; stroke-width:1; stroke:black; " description="&lt;b&gt;STM2467&lt;/b&gt;&lt;br&gt;cobalamin adenosyltransferase EutT&lt;br&gt;Location: 13402 - 12598" locus_tag="STM2467" class="clusterblast-orf" id="dummy-23_h23_3_5"  />
</g>
<g id="a23_006"  >
<polygon points="293,90 317,90 322,85 317,80 293,80 293,90 " style="fill:white; stroke-width:1; stroke:black; " description="&lt;b&gt;STM2466&lt;/b&gt;&lt;br&gt;phosphotransacetylase EutD&lt;br&gt;Location: 12602 - 11585" locus_tag="STM2466" class="clusterblast-orf" id="dummy-23_h23_3_6"  />
</g>
<g id="a23_007"  >
<polygon points="323,90 326,90 331,85 326,80 323,80 323,90 " style="fill:#d81515; stroke-width:1; stroke:black; " description="&lt;b&gt;STM2465&lt;/b&gt;&lt;br&gt;carboxysome structural protein EutM&lt;br&gt;Location: 11545 - 11254&lt;br&gt;&lt;br&gt;&lt;b&gt;BlastP hit with ctg1_4459&lt;/b&gt;&lt;br&gt;Percentage identity: 60&lt;br&gt;Percentage coverage: 91&lt;br&gt;BLAST bit score: 99&lt;br&gt;E-value: 1.11e-30&lt;br&gt;&lt;br&gt;&lt;b&gt;BlastP hit with ctg1_4460&lt;/b&gt;&lt;br&gt;Percentage identity: 61&lt;br&gt;Percentage coverage: 89&lt;br&gt;BLAST bit score: 99&lt;br&gt;E-value: 1.2e-30&lt;br&gt;&lt;br&gt;&lt;b&gt;BlastP hit with ctg1_4461&lt;/b&gt;&lt;br&gt;Percentage identity: 63&lt;br&gt;Percentage coverage: 91&lt;br&gt;BLAST bit score: 101&lt;br&gt;E-value: 1.36e-31&lt;br&gt;&lt;br&gt;&lt;b&gt;BlastP hit with ctg1_4467&lt;/b&gt;&lt;br&gt;Percentage identity: 46&lt;br&gt;Percentage coverage: 48&lt;br&gt;BLAST bit score: 52&lt;br&gt;E-value: 1.55e-11" locus_tag="STM2465" class="clusterblast-orf" id="dummy-23_h23_3_7"  />
</g>
<g id="a23_008"  >
<polygon points="335,90 338,90 343,85 338,80 335,80 335,90 " style="fill:white; stroke-width:1; stroke:black; " description="&lt;b&gt;STM2464&lt;/b&gt;&lt;br&gt;microcompartment shell protein EutN&lt;br&gt;Location: 11142 - 10854" locus_tag="STM2464" class="clusterblast-orf" id="dummy-23_h23_3_8"  />
</g>
<g id="a23_009"  >
<polygon points="343,90 378,90 383,85 378,80 343,80 343,90 " style="fill:white; stroke-width:1; stroke:black; " description="&lt;b&gt;STM2463&lt;/b&gt;&lt;br&gt;aldehyde oxidoreductase EutE&lt;br&gt;Location: 10843 - 9439" locus_tag="STM2463" class="clusterblast-orf" id="dummy-23_h23_3_9"  />
</g>
<g id="a23_0010"  >
<polygon points="383,90 402,90 407,85 402,80 383,80 383,90 " style="fill:white; stroke-width:1; stroke:black; " description="&lt;b&gt;STM2462&lt;/b&gt;&lt;br&gt;ethanolamine utilization protein EutJ&lt;br&gt;Location: 9429 - 8589" locus_tag="STM2462" class="clusterblast-orf" id="dummy-23_h23_3_10"  />
</g>
<g id="a23_0011"  >
<polygon points="407,90 435,90 440,85 435,80 407,80 407,90 " style="fill:#1515d8; stroke-width:1; stroke:black; " description="&lt;b&gt;STM2461&lt;/b&gt;&lt;br&gt;ethanol dehydrogenase EutG&lt;br&gt;Location: 8600 - 7412&lt;br&gt;&lt;br&gt;&lt;b&gt;BlastP hit with ctg1_4464&lt;/b&gt;&lt;br&gt;Percentage identity: 35&lt;br&gt;Percentage coverage: 98&lt;br&gt;BLAST bit score: 188&lt;br&gt;E-value: 7.01e-58" locus_tag="STM2461" class="clusterblast-orf" id="dummy-23_h23_3_11"  />
</g>
<g id="a23_0012"  >
<polygon points="443,90 473,90 478,85 473,80 443,80 443,90 " style="fill:white; stroke-width:1; stroke:black; " description="&lt;b&gt;STM2460&lt;/b&gt;&lt;br&gt;ethanolamine transporter EutH&lt;br&gt;Location: 7293 - 6066" locus_tag="STM2460" class="clusterblast-orf" id="dummy-23_h23_3_12"  />
</g>
<g id="a23_0013"  >
<polygon points="478,90 513,90 518,85 513,80 478,80 478,90 " style="fill:white; stroke-width:1; stroke:black; " description="&lt;b&gt;STM2459&lt;/b&gt;&lt;br&gt;ethanolamine utilization protein EutA&lt;br&gt;Location: 6070 - 4666" locus_tag="STM2459" class="clusterblast-orf" id="dummy-23_h23_3_13"  />
</g>
<g id="a23_0014"  >
<polygon points="518,90 552,90 557,85 552,80 518,80 518,90 " style="fill:white; stroke-width:1; stroke:black; " description="&lt;b&gt;STM2458&lt;/b&gt;&lt;br&gt;ethanolamine ammonia-lyase large subunit EutB&lt;br&gt;Location: 4655 - 3293" locus_tag="STM2458" class="clusterblast-orf" id="dummy-23_h23_3_14"  />
</g>
<g id="a23_0015"  >
<polygon points="557,90 578,90 583,85 578,80 557,80 557,90 " style="fill:white; stroke-width:1; stroke:black; " description="&lt;b&gt;STM2457&lt;/b&gt;&lt;br&gt;ethanolamine ammonia-lyase small subunit EutC&lt;br&gt;Location: 3275 - 2378" locus_tag="STM2457" class="clusterblast-orf" id="dummy-23_h23_3_15"  />
</g>
<g id="a23_0016"  >
<polygon points="583,90 597,90 602,85 597,80 583,80 583,90 " style="fill:white; stroke-width:1; stroke:black; " description="&lt;b&gt;STM2456&lt;/b&gt;&lt;br&gt;carboxysome structural protein EutL&lt;br&gt;Location: 2369 - 1709" locus_tag="STM2456" class="clusterblast-orf" id="dummy-23_h23_3_16"  />
</g>
<g id="a23_0017"  >
<polygon points="602,90 611,90 616,85 611,80 602,80 602,90 " style="fill:#d81515; stroke-width:1; stroke:black; " description="&lt;b&gt;STM2455&lt;/b&gt;&lt;br&gt;carboxysome structural protein EutK&lt;br&gt;Location: 1697 - 1202&lt;br&gt;&lt;br&gt;&lt;b&gt;BlastP hit with ctg1_4459&lt;/b&gt;&lt;br&gt;Percentage identity: 48&lt;br&gt;Percentage coverage: 89&lt;br&gt;BLAST bit score: 76&lt;br&gt;E-value: 1.08e-20&lt;br&gt;&lt;br&gt;&lt;b&gt;BlastP hit with ctg1_4460&lt;/b&gt;&lt;br&gt;Percentage identity: 43&lt;br&gt;Percentage coverage: 96&lt;br&gt;BLAST bit score: 74&lt;br&gt;E-value: 4.61e-20&lt;br&gt;&lt;br&gt;&lt;b&gt;BlastP hit with ctg1_4461&lt;/b&gt;&lt;br&gt;Percentage identity: 48&lt;br&gt;Percentage coverage: 91&lt;br&gt;BLAST bit score: 74&lt;br&gt;E-value: 3.04e-20" locus_tag="STM2455" class="clusterblast-orf" id="dummy-23_h23_3_17"  />
</g>
<g id="a23_0018"  >
<polygon points="617,90 642,90 647,85 642,80 617,80 617,90 " style="fill:white; stroke-width:1; stroke:black; " description="&lt;b&gt;STM2454&lt;/b&gt;&lt;br&gt;HTH-type transcriptional regulator EutR&lt;br&gt;Location: 1155 - 102" locus_tag="STM2454" class="clusterblast-orf" id="dummy-23_h23_3_18"  />
</g>
</svg>
