<svg xmlns="http://www.w3.org/2000/svg" xmlns:xlink="http://www.w3.org/1999/xlink" version="1.1" x="0" y="0" height="230" width="800" viewBox="0 0 800 230" preserveAspectRatio="none"  >
<g label="Query sequence" class="clusterblast-cluster"  >
<text x="5" y="20" class="clusterblast-acc"  >
Query sequence</text>
<line x1="10" y1="35" x2="778.0" y2="35" style="stroke-width:1; stroke:grey; "  />
<polygon points="0,35 5,30 5,30 5,40 5,40 0,35 " style="fill:white; stroke-width:1; stroke:black; " description="&lt;b&gt;ctg1_1932&lt;/b&gt;&lt;br&gt;ctg1 1932&lt;br&gt;Location: 2076576 - 2076819" locus_tag="ctg1_1932" class="clusterblast-orf" id="dummy-12_q0_0_all"  />
<polygon points="11,35 16,30 19,30 19,40 16,40 11,35 " style="fill:white; stroke-width:1; stroke:black; " description="&lt;b&gt;ctg1_1933&lt;/b&gt;&lt;br&gt;ctg1 1933&lt;br&gt;Location: 2077057 - 2077411" locus_tag="ctg1_1933" class="clusterblast-orf" id="dummy-12_q1_0_all"  />
<polygon points="21,40 44,40 49,35 44,30 21,30 21,40 " style="fill:white; stroke-width:1; stroke:black; " description="&lt;b&gt;ctg1_1934&lt;/b&gt;&lt;br&gt;ctg1 1934&lt;br&gt;Location: 2077479 - 2078661" locus_tag="ctg1_1934" class="clusterblast-orf" id="dummy-12_q2_0_all"  />
<polygon points="52,40 79,40 84,35 79,30 52,30 52,40 " style="fill:white; stroke-width:1; stroke:black; " description="&lt;b&gt;ctg1_1935&lt;/b&gt;&lt;br&gt;ctg1 1935&lt;br&gt;Location: 2078816 - 2080160" locus_tag="ctg1_1935" class="clusterblast-orf" id="dummy-12_q3_0_all"  />
<polygon points="84,40 100,40 105,35 100,30 84,30 84,40 " style="fill:white; stroke-width:1; stroke:black; " description="&lt;b&gt;ctg1_1936&lt;/b&gt;&lt;br&gt;ctg1 1936&lt;br&gt;Location: 2080161 - 2081046" locus_tag="ctg1_1936" class="clusterblast-orf" id="dummy-12_q4_0_all"  />
<polygon points="105,40 119,40 124,35 119,30 105,30 105,40 " style="fill:white; stroke-width:1; stroke:black; " description="&lt;b&gt;ctg1_1937&lt;/b&gt;&lt;br&gt;ctg1 1937&lt;br&gt;Location: 2081055 - 2081844" locus_tag="ctg1_1937" class="clusterblast-orf" id="dummy-12_q5_0_all"  />
<polygon points="124,40 215,40 220,35 215,30 124,30 124,40 " style="fill:white; stroke-width:1; stroke:black; " description="&lt;b&gt;ctg1_1938&lt;/b&gt;&lt;br&gt;ctg1 1938&lt;br&gt;Location: 2081854 - 2085922" locus_tag="ctg1_1938" class="clusterblast-orf" id="dummy-12_q6_0_all"  />
<polygon points="220,40 276,40 281,35 276,30 220,30 220,40 " style="fill:white; stroke-width:1; stroke:black; " description="&lt;b&gt;ctg1_1939&lt;/b&gt;&lt;br&gt;ctg1 1939&lt;br&gt;Location: 2085921 - 2088528" locus_tag="ctg1_1939" class="clusterblast-orf" id="dummy-12_q7_0_all"  />
<polygon points="284,40 312,40 317,35 312,30 284,30 284,40 " style="fill:white; stroke-width:1; stroke:black; " description="&lt;b&gt;ctg1_1940&lt;/b&gt;&lt;br&gt;ctg1 1940&lt;br&gt;Location: 2088679 - 2090062" locus_tag="ctg1_1940" class="clusterblast-orf" id="dummy-12_q8_0_all"  />
<polygon points="317,35 322,30 332,30 332,40 322,40 317,35 " style="fill:white; stroke-width:1; stroke:black; " description="&lt;b&gt;ctg1_1941&lt;/b&gt;&lt;br&gt;ctg1 1941&lt;br&gt;Location: 2090058 - 2090709" locus_tag="ctg1_1941" class="clusterblast-orf" id="dummy-12_q9_0_all"  />
<polygon points="332,35 337,30 374,30 374,40 337,40 332,35 " style="fill:white; stroke-width:1; stroke:black; " description="&lt;b&gt;ctg1_1942&lt;/b&gt;&lt;br&gt;ctg1 1942&lt;br&gt;Location: 2090719 - 2092498" locus_tag="ctg1_1942" class="clusterblast-orf" id="dummy-12_q10_0_all"  />
<polygon points="382,40 409,40 414,35 409,30 382,30 382,40 " style="fill:white; stroke-width:1; stroke:black; " description="&lt;b&gt;ctg1_1943&lt;/b&gt;&lt;br&gt;ctg1 1943&lt;br&gt;Location: 2092809 - 2094198" locus_tag="ctg1_1943" class="clusterblast-orf" id="dummy-12_q11_0_all"  />
<polygon points="419,35 422,30 422,40 419,35 " style="fill:white; stroke-width:1; stroke:black; " description="&lt;b&gt;ctg1_1944&lt;/b&gt;&lt;br&gt;ctg1 1944&lt;br&gt;Location: 2094397 - 2094508" locus_tag="ctg1_1944" class="clusterblast-orf" id="dummy-12_q12_0_all"  />
<polygon points="424,40 507,40 512,35 507,30 424,30 424,40 " style="fill:#d81515; stroke-width:1; stroke:black; " description="&lt;b&gt;ctg1_1945&lt;/b&gt;&lt;br&gt;ctg1 1945&lt;br&gt;Location: 2094603 - 2098347" locus_tag="ctg1_1945" class="clusterblast-orf" id="dummy-12_q13_0_all"  />
<polygon points="512,40 543,40 548,35 543,30 512,30 512,40 " style="fill:#77d815; stroke-width:1; stroke:black; " description="&lt;b&gt;ctg1_1946&lt;/b&gt;&lt;br&gt;ctg1 1946&lt;br&gt;Location: 2098343 - 2099879" locus_tag="ctg1_1946" class="clusterblast-orf" id="dummy-12_q14_0_all"  />
<polygon points="548,40 559,40 564,35 559,30 548,30 548,40 " style="fill:#15d8d8; stroke-width:1; stroke:black; " description="&lt;b&gt;ctg1_1947&lt;/b&gt;&lt;br&gt;ctg1 1947&lt;br&gt;Location: 2099875 - 2100586" locus_tag="ctg1_1947" class="clusterblast-orf" id="dummy-12_q15_0_all"  />
<polygon points="564,40 575,40 580,35 575,30 564,30 564,40 " style="fill:#7715d8; stroke-width:1; stroke:black; " description="&lt;b&gt;ctg1_1948&lt;/b&gt;&lt;br&gt;ctg1 1948&lt;br&gt;Location: 2100585 - 2101263" locus_tag="ctg1_1948" class="clusterblast-orf" id="dummy-12_q16_0_all"  />
<polygon points="580,35 585,30 601,30 601,40 585,40 580,35 " style="fill:white; stroke-width:1; stroke:black; " description="&lt;b&gt;ctg1_1949&lt;/b&gt;&lt;br&gt;ctg1 1949&lt;br&gt;Location: 2101259 - 2102156" locus_tag="ctg1_1949" class="clusterblast-orf" id="dummy-12_q17_0_all"  />
<polygon points="604,40 609,40 614,35 609,30 604,30 604,40 " style="fill:white; stroke-width:1; stroke:black; " description="&lt;b&gt;ctg1_1950&lt;/b&gt;&lt;br&gt;ctg1 1950&lt;br&gt;Location: 2102263 - 2102707" locus_tag="ctg1_1950" class="clusterblast-orf" id="dummy-12_q18_0_all"  />
<polygon points="632,35 637,30 652,30 652,40 637,40 632,35 " style="fill:white; stroke-width:1; stroke:black; " description="&lt;b&gt;ctg1_1951&lt;/b&gt;&lt;br&gt;ctg1 1951&lt;br&gt;Location: 2103468 - 2104311" locus_tag="ctg1_1951" class="clusterblast-orf" id="dummy-12_q19_0_all"  />
<polygon points="653,35 658,30 664,30 664,40 658,40 653,35 " style="fill:white; stroke-width:1; stroke:black; " description="&lt;b&gt;ctg1_1952&lt;/b&gt;&lt;br&gt;ctg1 1952&lt;br&gt;Location: 2104353 - 2104812" locus_tag="ctg1_1952" class="clusterblast-orf" id="dummy-12_q20_0_all"  />
<polygon points="667,40 683,40 688,35 683,30 667,30 667,40 " style="fill:white; stroke-width:1; stroke:black; " description="&lt;b&gt;ctg1_1953&lt;/b&gt;&lt;br&gt;ctg1 1953&lt;br&gt;Location: 2104924 - 2105827" locus_tag="ctg1_1953" class="clusterblast-orf" id="dummy-12_q21_0_all"  />
<polygon points="690,40 709,40 714,35 709,30 690,30 690,40 " style="fill:white; stroke-width:1; stroke:black; " description="&lt;b&gt;ctg1_1954&lt;/b&gt;&lt;br&gt;ctg1 1954&lt;br&gt;Location: 2105916 - 2106930" locus_tag="ctg1_1954" class="clusterblast-orf" id="dummy-12_q22_0_all"  />
<polygon points="718,40 735,40 740,35 735,30 718,30 718,40 " style="fill:white; stroke-width:1; stroke:black; " description="&lt;b&gt;ctg1_1955&lt;/b&gt;&lt;br&gt;ctg1 1955&lt;br&gt;Location: 2107127 - 2108030" locus_tag="ctg1_1955" class="clusterblast-orf" id="dummy-12_q23_0_all"  />
<polygon points="742,35 747,30 752,30 752,40 747,40 742,35 " style="fill:white; stroke-width:1; stroke:black; " description="&lt;b&gt;ctg1_1956&lt;/b&gt;&lt;br&gt;ctg1 1956&lt;br&gt;Location: 2108152 - 2108560" locus_tag="ctg1_1956" class="clusterblast-orf" id="dummy-12_q24_0_all"  />
<polygon points="757,35 760,30 760,40 757,35 " style="fill:white; stroke-width:1; stroke:black; " description="&lt;b&gt;ctg1_1957&lt;/b&gt;&lt;br&gt;ctg1 1957&lt;br&gt;Location: 2108754 - 2108898" locus_tag="ctg1_1957" class="clusterblast-orf" id="dummy-12_q25_0_all"  />
<polygon points="767,40 775,40 780,35 775,30 767,30 767,40 " style="fill:white; stroke-width:1; stroke:black; " description="&lt;b&gt;ctg1_1958&lt;/b&gt;&lt;br&gt;ctg1 1958&lt;br&gt;Location: 2109210 - 2109738" locus_tag="ctg1_1958" class="clusterblast-orf" id="dummy-12_q26_0_all"  />
</g>
<g label="MGC00000045" description="MGC00000045_c1: Nitrate reductase E. coli (80% of genes show similarity), NIR" class="clusterblast-cluster"  >
<text x="5" y="70" class="clusterblast-acc"  >
MGC00000045_c1: Nitrate reductase E. coli (80% of genes show similarity), NIR</text>
<line x1="10" y1="85" x2="778.0" y2="85" style="stroke-width:1; stroke:grey; "  />
</g>
<g id="a12_000"  >
<polygon points="198,85 200,80 200,90 198,85 " style="fill:white; stroke-width:1; stroke:black; " description="&lt;b&gt;b4423&lt;/b&gt;&lt;br&gt;small toxic polypeptide LdrC&lt;br&gt;Location: 0 - 108" locus_tag="b4423" class="clusterblast-orf" id="dummy-12_h12_1_0"  />
</g>
<g id="a12_001"  >
<polygon points="424,90 507,90 512,85 507,80 424,80 424,90 " style="fill:#d81515; stroke-width:1; stroke:black; " description="&lt;b&gt;b1224&lt;/b&gt;&lt;br&gt;nitrate reductase A subunit alpha&lt;br&gt;Location: 9626 - 13370&lt;br&gt;&lt;br&gt;&lt;b&gt;BlastP hit with ctg1_1945&lt;/b&gt;&lt;br&gt;Percentage identity: 94&lt;br&gt;Percentage coverage: 100&lt;br&gt;BLAST bit score: 2473&lt;br&gt;E-value: 0.0" locus_tag="b1224" class="clusterblast-orf" id="dummy-12_h12_1_1"  />
</g>
<g id="a12_002"  >
<polygon points="512,90 544,90 549,85 544,80 512,80 512,90 " style="fill:#77d815; stroke-width:1; stroke:black; " description="&lt;b&gt;b1225&lt;/b&gt;&lt;br&gt;nitrate reductase A subunit beta&lt;br&gt;Location: 13366 - 14905&lt;br&gt;&lt;br&gt;&lt;b&gt;BlastP hit with ctg1_1946&lt;/b&gt;&lt;br&gt;Percentage identity: 93&lt;br&gt;Percentage coverage: 100&lt;br&gt;BLAST bit score: 996&lt;br&gt;E-value: 0.0" locus_tag="b1225" class="clusterblast-orf" id="dummy-12_h12_1_2"  />
</g>
<g id="a12_003"  >
<polygon points="548,90 560,90 565,85 560,80 548,80 548,90 " style="fill:#15d8d8; stroke-width:1; stroke:black; " description="&lt;b&gt;b1226&lt;/b&gt;&lt;br&gt;nitrate reductase 1 molybdenum cofactor assembly chaperone&lt;br&gt;Location: 14901 - 15612&lt;br&gt;&lt;br&gt;&lt;b&gt;BlastP hit with ctg1_1947&lt;/b&gt;&lt;br&gt;Percentage identity: 86&lt;br&gt;Percentage coverage: 100&lt;br&gt;BLAST bit score: 400&lt;br&gt;E-value: 1.97e-145" locus_tag="b1226" class="clusterblast-orf" id="dummy-12_h12_1_3"  />
</g>
<g id="a12_004"  >
<polygon points="565,90 576,90 581,85 576,80 565,80 565,90 " style="fill:#7715d8; stroke-width:1; stroke:black; " description="&lt;b&gt;b1227&lt;/b&gt;&lt;br&gt;nitrate reductase A subunit gamma&lt;br&gt;Location: 15611 - 16289&lt;br&gt;&lt;br&gt;&lt;b&gt;BlastP hit with ctg1_1948&lt;/b&gt;&lt;br&gt;Percentage identity: 91&lt;br&gt;Percentage coverage: 100&lt;br&gt;BLAST bit score: 414&lt;br&gt;E-value: 2.78e-151" locus_tag="b1227" class="clusterblast-orf" id="dummy-12_h12_1_4"  />
</g>
</svg>
