<svg xmlns="http://www.w3.org/2000/svg" xmlns:xlink="http://www.w3.org/1999/xlink" version="1.1" x="0" y="0" height="230" width="800" viewBox="0 0 800 230" preserveAspectRatio="none"  >
<g label="Query sequence" class="clusterblast-cluster"  >
<text x="5" y="20" class="clusterblast-acc"  >
Query sequence</text>
<line x1="10" y1="35" x2="778.0" y2="35" style="stroke-width:1; stroke:grey; "  />
<polygon points="0,40 31,40 36,35 31,30 0,30 0,40 " style="fill:white; stroke-width:1; stroke:black; " description="&lt;b&gt;ctg1_4450&lt;/b&gt;&lt;br&gt;ctg1 4450&lt;br&gt;Location: 4774884 - 4776177" locus_tag="ctg1_4450" class="clusterblast-orf" id="dummy-23_q0_0_all"  />
<polygon points="39,40 126,40 131,35 126,30 39,30 39,40 " style="fill:white; stroke-width:1; stroke:black; " description="&lt;b&gt;ctg1_4451&lt;/b&gt;&lt;br&gt;ctg1 4451&lt;br&gt;Location: 4776272 - 4779536" locus_tag="ctg1_4451" class="clusterblast-orf" id="dummy-23_q1_0_all"  />
<polygon points="132,40 133,40 138,35 133,30 132,30 132,40 " style="fill:white; stroke-width:1; stroke:black; " description="&lt;b&gt;ctg1_4452&lt;/b&gt;&lt;br&gt;ctg1 4452&lt;br&gt;Location: 4779548 - 4779752" locus_tag="ctg1_4452" class="clusterblast-orf" id="dummy-23_q2_0_all"  />
<polygon points="140,35 145,30 151,30 151,40 145,40 140,35 " style="fill:white; stroke-width:1; stroke:black; " description="&lt;b&gt;ctg1_4453&lt;/b&gt;&lt;br&gt;ctg1 4453&lt;br&gt;Location: 4779825 - 4780245" locus_tag="ctg1_4453" class="clusterblast-orf" id="dummy-23_q3_0_all"  />
<polygon points="151,35 156,30 177,30 177,40 156,40 151,35 " style="fill:white; stroke-width:1; stroke:black; " description="&lt;b&gt;ctg1_4454&lt;/b&gt;&lt;br&gt;ctg1 4454&lt;br&gt;Location: 4780238 - 4781147" locus_tag="ctg1_4454" class="clusterblast-orf" id="dummy-23_q4_0_all"  />
<polygon points="179,40 197,40 202,35 197,30 179,30 179,40 " style="fill:white; stroke-width:1; stroke:black; " description="&lt;b&gt;ctg1_4455&lt;/b&gt;&lt;br&gt;ctg1 4455&lt;br&gt;Location: 4781233 - 4782016" locus_tag="ctg1_4455" class="clusterblast-orf" id="dummy-23_q5_0_all"  />
<polygon points="206,40 217,40 222,35 217,30 206,30 206,40 " style="fill:white; stroke-width:1; stroke:black; " description="&lt;b&gt;ctg1_4456&lt;/b&gt;&lt;br&gt;ctg1 4456&lt;br&gt;Location: 4782157 - 4782742" locus_tag="ctg1_4456" class="clusterblast-orf" id="dummy-23_q6_0_all"  />
<polygon points="223,40 240,40 245,35 240,30 223,30 223,40 " style="fill:white; stroke-width:1; stroke:black; " description="&lt;b&gt;ctg1_4457&lt;/b&gt;&lt;br&gt;ctg1 4457&lt;br&gt;Location: 4782763 - 4783567" locus_tag="ctg1_4457" class="clusterblast-orf" id="dummy-23_q7_0_all"  />
<polygon points="245,40 255,40 260,35 255,30 245,30 245,40 " style="fill:white; stroke-width:1; stroke:black; " description="&lt;b&gt;ctg1_4458&lt;/b&gt;&lt;br&gt;ctg1 4458&lt;br&gt;Location: 4783563 - 4784082" locus_tag="ctg1_4458" class="clusterblast-orf" id="dummy-23_q8_0_all"  />
<polygon points="273,40 276,40 281,35 276,30 273,30 273,40 " style="fill:#d81515; stroke-width:1; stroke:black; " description="&lt;b&gt;ctg1_4459&lt;/b&gt;&lt;br&gt;ctg1 4459&lt;br&gt;Location: 4784528 - 4784807" locus_tag="ctg1_4459" class="clusterblast-orf" id="dummy-23_q9_0_all"  />
<polygon points="281,40 284,40 289,35 284,30 281,30 281,40 " style="fill:#d81515; stroke-width:1; stroke:black; " description="&lt;b&gt;ctg1_4460&lt;/b&gt;&lt;br&gt;ctg1 4460&lt;br&gt;Location: 4784824 - 4785109" locus_tag="ctg1_4460" class="clusterblast-orf" id="dummy-23_q10_0_all"  />
<polygon points="289,40 292,40 297,35 292,30 289,30 289,40 " style="fill:#d81515; stroke-width:1; stroke:black; " description="&lt;b&gt;ctg1_4461&lt;/b&gt;&lt;br&gt;ctg1 4461&lt;br&gt;Location: 4785121 - 4785400" locus_tag="ctg1_4461" class="clusterblast-orf" id="dummy-23_q11_0_all"  />
<polygon points="299,40 339,40 344,35 339,30 299,30 299,40 " style="fill:#15d815; stroke-width:1; stroke:black; " description="&lt;b&gt;ctg1_4462&lt;/b&gt;&lt;br&gt;ctg1 4462&lt;br&gt;Location: 4785453 - 4787055" locus_tag="ctg1_4462" class="clusterblast-orf" id="dummy-23_q12_0_all"  />
<polygon points="345,40 347,40 352,35 347,30 345,30 345,40 " style="fill:white; stroke-width:1; stroke:black; " description="&lt;b&gt;ctg1_4463&lt;/b&gt;&lt;br&gt;ctg1 4463&lt;br&gt;Location: 4787079 - 4787337" locus_tag="ctg1_4463" class="clusterblast-orf" id="dummy-23_q13_0_all"  />
<polygon points="353,40 381,40 386,35 381,30 353,30 353,40 " style="fill:#1515d8; stroke-width:1; stroke:black; " description="&lt;b&gt;ctg1_4464&lt;/b&gt;&lt;br&gt;ctg1 4464&lt;br&gt;Location: 4787354 - 4788536" locus_tag="ctg1_4464" class="clusterblast-orf" id="dummy-23_q14_0_all"  />
<polygon points="390,40 481,40 486,35 481,30 390,30 390,40 " style="fill:#d815d8; stroke-width:1; stroke:black; " description="&lt;b&gt;ctg1_4465&lt;/b&gt;&lt;br&gt;ctg1 4465&lt;br&gt;Location: 4788667 - 4792054" locus_tag="ctg1_4465" class="clusterblast-orf" id="dummy-23_q15_0_all"  />
<polygon points="488,40 510,40 515,35 510,30 488,30 488,40 " style="fill:#d8d815; stroke-width:1; stroke:black; " description="&lt;b&gt;ctg1_4466&lt;/b&gt;&lt;br&gt;ctg1 4466&lt;br&gt;Location: 4792139 - 4793087" locus_tag="ctg1_4466" class="clusterblast-orf" id="dummy-23_q16_0_all"  />
<polygon points="515,40 522,40 527,35 522,30 515,30 515,40 " style="fill:#d81515; stroke-width:1; stroke:black; " description="&lt;b&gt;ctg1_4467&lt;/b&gt;&lt;br&gt;ctg1 4467&lt;br&gt;Location: 4793099 - 4793498" locus_tag="ctg1_4467" class="clusterblast-orf" id="dummy-23_q17_0_all"  />
<polygon points="526,40 539,40 544,35 539,30 526,30 526,40 " style="fill:#15d8d8; stroke-width:1; stroke:black; " description="&lt;b&gt;ctg1_4468&lt;/b&gt;&lt;br&gt;ctg1 4468&lt;br&gt;Location: 4793494 - 4794115" locus_tag="ctg1_4468" class="clusterblast-orf" id="dummy-23_q18_0_all"  />
<polygon points="544,40 558,40 563,35 558,30 544,30 544,40 " style="fill:white; stroke-width:1; stroke:black; " description="&lt;b&gt;ctg1_4469&lt;/b&gt;&lt;br&gt;ctg1 4469&lt;br&gt;Location: 4794127 - 4794793" locus_tag="ctg1_4469" class="clusterblast-orf" id="dummy-23_q19_0_all"  />
<polygon points="564,40 571,40 576,35 571,30 564,30 564,40 " style="fill:white; stroke-width:1; stroke:black; " description="&lt;b&gt;ctg1_4470&lt;/b&gt;&lt;br&gt;ctg1 4470&lt;br&gt;Location: 4794824 - 4795238" locus_tag="ctg1_4470" class="clusterblast-orf" id="dummy-23_q20_0_all"  />
<polygon points="576,40 581,40 586,35 581,30 576,30 576,40 " style="fill:white; stroke-width:1; stroke:black; " description="&lt;b&gt;ctg1_4471&lt;/b&gt;&lt;br&gt;ctg1 4471&lt;br&gt;Location: 4795255 - 4795585" locus_tag="ctg1_4471" class="clusterblast-orf" id="dummy-23_q21_0_all"  />
<polygon points="591,40 615,40 620,35 615,30 591,30 591,40 " style="fill:white; stroke-width:1; stroke:black; " description="&lt;b&gt;ctg1_4472&lt;/b&gt;&lt;br&gt;ctg1 4472&lt;br&gt;Location: 4795785 - 4796793" locus_tag="ctg1_4472" class="clusterblast-orf" id="dummy-23_q22_0_all"  />
<polygon points="621,35 626,30 661,30 661,40 626,40 621,35 " style="fill:white; stroke-width:1; stroke:black; " description="&lt;b&gt;ctg1_4473&lt;/b&gt;&lt;br&gt;ctg1 4473&lt;br&gt;Location: 4796841 - 4798236" locus_tag="ctg1_4473" class="clusterblast-orf" id="dummy-23_q23_0_all"  />
<polygon points="672,40 697,40 702,35 697,30 672,30 672,40 " style="fill:white; stroke-width:1; stroke:black; " description="&lt;b&gt;ctg1_4474&lt;/b&gt;&lt;br&gt;ctg1 4474&lt;br&gt;Location: 4798639 - 4799707" locus_tag="ctg1_4474" class="clusterblast-orf" id="dummy-23_q24_0_all"  />
<polygon points="702,40 775,40 780,35 775,30 702,30 702,40 " style="fill:white; stroke-width:1; stroke:black; " description="&lt;b&gt;ctg1_4475&lt;/b&gt;&lt;br&gt;ctg1 4475&lt;br&gt;Location: 4799703 - 4802448" locus_tag="ctg1_4475" class="clusterblast-orf" id="dummy-23_q25_0_all"  />
</g>
<g label="MGC00000010" description="MGC00000010_c1: Propanediol degradation S. enterica (20% of genes show similarity), PDU" class="clusterblast-cluster"  >
<text x="5" y="70" class="clusterblast-acc"  >
MGC00000010_c1: Propanediol degradation S. enterica (20% of genes show similarity), PDU</text>
<line x1="10" y1="85" x2="778.0" y2="85" style="stroke-width:1; stroke:grey; "  />
</g>
<g id="a23_000"  >
<polygon points="115,85 120,80 141,80 141,90 120,90 115,85 " style="fill:white; stroke-width:1; stroke:black; " description="&lt;b&gt;STM2036&lt;/b&gt;&lt;br&gt;transcriptional regulator PocR&lt;br&gt;Location: 221 - 1133" locus_tag="STM2036" class="clusterblast-orf" id="dummy-23_h23_2_0"  />
</g>
<g id="a23_001"  >
<polygon points="147,85 152,80 169,80 169,90 152,90 147,85 " style="fill:white; stroke-width:1; stroke:black; " description="&lt;b&gt;STM2037&lt;/b&gt;&lt;br&gt;propanediol diffusion facilitator&lt;br&gt;Location: 1349 - 2144" locus_tag="STM2037" class="clusterblast-orf" id="dummy-23_h23_2_1"  />
</g>
<g id="a23_002"  >
<polygon points="184,90 187,90 192,85 187,80 184,80 184,90 " style="fill:#d81515; stroke-width:1; stroke:black; " description="&lt;b&gt;STM2038&lt;/b&gt;&lt;br&gt;propanediol utilization polyhedral body protein PduA&lt;br&gt;Location: 2668 - 2953&lt;br&gt;&lt;br&gt;&lt;b&gt;BlastP hit with ctg1_4459&lt;/b&gt;&lt;br&gt;Percentage identity: 64&lt;br&gt;Percentage coverage: 95&lt;br&gt;BLAST bit score: 109&lt;br&gt;E-value: 5.75e-35&lt;br&gt;&lt;br&gt;&lt;b&gt;BlastP hit with ctg1_4460&lt;/b&gt;&lt;br&gt;Percentage identity: 64&lt;br&gt;Percentage coverage: 90&lt;br&gt;BLAST bit score: 106&lt;br&gt;E-value: 1.46e-33&lt;br&gt;&lt;br&gt;&lt;b&gt;BlastP hit with ctg1_4461&lt;/b&gt;&lt;br&gt;Percentage identity: 66&lt;br&gt;Percentage coverage: 92&lt;br&gt;BLAST bit score: 109&lt;br&gt;E-value: 5.75e-35&lt;br&gt;&lt;br&gt;&lt;b&gt;BlastP hit with ctg1_4467&lt;/b&gt;&lt;br&gt;Percentage identity: 45&lt;br&gt;Percentage coverage: 64&lt;br&gt;BLAST bit score: 62&lt;br&gt;E-value: 9.99e-16" locus_tag="STM2038" class="clusterblast-orf" id="dummy-23_h23_2_2"  />
</g>
<g id="a23_003"  >
<polygon points="192,90 210,90 215,85 210,80 192,80 192,90 " style="fill:white; stroke-width:1; stroke:black; " description="&lt;b&gt;STM2039&lt;/b&gt;&lt;br&gt;propanediol utilization polyhedral body protein PduB&lt;br&gt;Location: 2949 - 3762" locus_tag="STM2039" class="clusterblast-orf" id="dummy-23_h23_2_3"  />
</g>
<g id="a23_004"  >
<polygon points="215,90 258,90 263,85 258,80 215,80 215,90 " style="fill:white; stroke-width:1; stroke:black; " description="&lt;b&gt;STM2040&lt;/b&gt;&lt;br&gt;propanediol dehydratase large subunit&lt;br&gt;Location: 3780 - 5445" locus_tag="STM2040" class="clusterblast-orf" id="dummy-23_h23_2_4"  />
</g>
<g id="a23_005"  >
<polygon points="263,90 277,90 282,85 277,80 263,80 263,90 " style="fill:white; stroke-width:1; stroke:black; " description="&lt;b&gt;STM2041&lt;/b&gt;&lt;br&gt;propanediol dehydratase medium subunit&lt;br&gt;Location: 5455 - 6130" locus_tag="STM2041" class="clusterblast-orf" id="dummy-23_h23_2_5"  />
</g>
<g id="a23_006"  >
<polygon points="282,90 292,90 297,85 292,80 282,80 282,90 " style="fill:white; stroke-width:1; stroke:black; " description="&lt;b&gt;STM2042&lt;/b&gt;&lt;br&gt;propanediol dehydratase small subunit&lt;br&gt;Location: 6144 - 6666" locus_tag="STM2042" class="clusterblast-orf" id="dummy-23_h23_2_6"  />
</g>
<g id="a23_007"  >
<polygon points="297,90 344,90 349,85 344,80 297,80 297,90 " style="fill:white; stroke-width:1; stroke:black; " description="&lt;b&gt;STM2043&lt;/b&gt;&lt;br&gt;propanediol dehydratase reactivation protein&lt;br&gt;Location: 6675 - 8508" locus_tag="STM2043" class="clusterblast-orf" id="dummy-23_h23_2_7"  />
</g>
<g id="a23_008"  >
<polygon points="349,90 354,90 359,85 354,80 349,80 349,90 " style="fill:white; stroke-width:1; stroke:black; " description="&lt;b&gt;STM2044&lt;/b&gt;&lt;br&gt;propanediol dehydratase reactivation protein&lt;br&gt;Location: 8497 - 8848" locus_tag="STM2044" class="clusterblast-orf" id="dummy-23_h23_2_8"  />
</g>
<g id="a23_009"  >
<polygon points="359,90 362,90 367,85 362,80 359,80 359,90 " style="fill:#d81515; stroke-width:1; stroke:black; " description="&lt;b&gt;STM2045&lt;/b&gt;&lt;br&gt;propanediol utilization polyhedral body protein PduJ&lt;br&gt;Location: 8866 - 9142&lt;br&gt;&lt;br&gt;&lt;b&gt;BlastP hit with ctg1_4459&lt;/b&gt;&lt;br&gt;Percentage identity: 66&lt;br&gt;Percentage coverage: 97&lt;br&gt;BLAST bit score: 113&lt;br&gt;E-value: 2.25e-36&lt;br&gt;&lt;br&gt;&lt;b&gt;BlastP hit with ctg1_4460&lt;/b&gt;&lt;br&gt;Percentage identity: 66&lt;br&gt;Percentage coverage: 93&lt;br&gt;BLAST bit score: 109&lt;br&gt;E-value: 5.71e-35&lt;br&gt;&lt;br&gt;&lt;b&gt;BlastP hit with ctg1_4461&lt;/b&gt;&lt;br&gt;Percentage identity: 69&lt;br&gt;Percentage coverage: 93&lt;br&gt;BLAST bit score: 111&lt;br&gt;E-value: 9.13e-36" locus_tag="STM2045" class="clusterblast-orf" id="dummy-23_h23_2_9"  />
</g>
<g id="a23_0010"  >
<polygon points="368,90 376,90 381,85 376,80 368,80 368,90 " style="fill:white; stroke-width:1; stroke:black; " description="&lt;b&gt;STM2046&lt;/b&gt;&lt;br&gt;propanediol utilization polyhedral body protein PduK&lt;br&gt;Location: 9166 - 9628" locus_tag="STM2046" class="clusterblast-orf" id="dummy-23_h23_2_10"  />
</g>
<g id="a23_0011"  >
<polygon points="381,90 394,90 399,85 394,80 381,80 381,90 " style="fill:#15d8d8; stroke-width:1; stroke:black; " description="&lt;b&gt;STM2047&lt;/b&gt;&lt;br&gt;phosphate propanoyltransferase&lt;br&gt;Location: 9627 - 10260&lt;br&gt;&lt;br&gt;&lt;b&gt;BlastP hit with ctg1_4468&lt;/b&gt;&lt;br&gt;Percentage identity: 56&lt;br&gt;Percentage coverage: 87&lt;br&gt;BLAST bit score: 182&lt;br&gt;E-value: 2.86e-60" locus_tag="STM2047" class="clusterblast-orf" id="dummy-23_h23_2_11"  />
</g>
<g id="a23_0012"  >
<polygon points="399,90 408,90 413,85 408,80 399,80 399,90 " style="fill:white; stroke-width:1; stroke:black; " description="&lt;b&gt;STM2048&lt;/b&gt;&lt;br&gt;propanediol utilization protein PduM&lt;br&gt;Location: 10256 - 10748" locus_tag="STM2048" class="clusterblast-orf" id="dummy-23_h23_2_12"  />
</g>
<g id="a23_0013"  >
<polygon points="413,90 416,90 421,85 416,80 413,80 413,90 " style="fill:white; stroke-width:1; stroke:black; " description="&lt;b&gt;STM2049&lt;/b&gt;&lt;br&gt;propanediol utilization polyhedral body protein PduN&lt;br&gt;Location: 10751 - 11027" locus_tag="STM2049" class="clusterblast-orf" id="dummy-23_h23_2_13"  />
</g>
<g id="a23_0014"  >
<polygon points="421,90 444,90 449,85 444,80 421,80 421,90 " style="fill:white; stroke-width:1; stroke:black; " description="&lt;b&gt;STM2050&lt;/b&gt;&lt;br&gt;propanediol utilization protein PduO&lt;br&gt;Location: 11036 - 12047" locus_tag="STM2050" class="clusterblast-orf" id="dummy-23_h23_2_14"  />
</g>
<g id="a23_0015"  >
<polygon points="449,90 484,90 489,85 484,80 449,80 449,90 " style="fill:white; stroke-width:1; stroke:black; " description="&lt;b&gt;STM2051&lt;/b&gt;&lt;br&gt;CoA-dependent propionaldehyde dehydrogenase&lt;br&gt;Location: 12043 - 13438" locus_tag="STM2051" class="clusterblast-orf" id="dummy-23_h23_2_15"  />
</g>
<g id="a23_0016"  >
<polygon points="489,90 516,90 521,85 516,80 489,80 489,90 " style="fill:#1515d8; stroke-width:1; stroke:black; " description="&lt;b&gt;STM2052&lt;/b&gt;&lt;br&gt;propanol dehydrogenase&lt;br&gt;Location: 13449 - 14562&lt;br&gt;&lt;br&gt;&lt;b&gt;BlastP hit with ctg1_4464&lt;/b&gt;&lt;br&gt;Percentage identity: 44&lt;br&gt;Percentage coverage: 96&lt;br&gt;BLAST bit score: 254&lt;br&gt;E-value: 1.36e-83" locus_tag="STM2052" class="clusterblast-orf" id="dummy-23_h23_2_16"  />
</g>
<g id="a23_0017"  >
<polygon points="520,90 554,90 559,85 554,80 520,80 520,90 " style="fill:white; stroke-width:1; stroke:black; " description="&lt;b&gt;STM2053&lt;/b&gt;&lt;br&gt;propanediol utilization polyhedral body protein PduS&lt;br&gt;Location: 14558 - 15914" locus_tag="STM2053" class="clusterblast-orf" id="dummy-23_h23_2_17"  />
</g>
<g id="a23_0018"  >
<polygon points="559,90 570,90 575,85 570,80 559,80 559,90 " style="fill:#d81515; stroke-width:1; stroke:black; " description="&lt;b&gt;STM2054&lt;/b&gt;&lt;br&gt;propanediol utilization polyhedral body protein PduT&lt;br&gt;Location: 15916 - 16471&lt;br&gt;&lt;br&gt;&lt;b&gt;BlastP hit with ctg1_4459&lt;/b&gt;&lt;br&gt;Percentage identity: 41&lt;br&gt;Percentage coverage: 87&lt;br&gt;BLAST bit score: 45&lt;br&gt;E-value: 8.05e-09&lt;br&gt;&lt;br&gt;&lt;b&gt;BlastP hit with ctg1_4460&lt;/b&gt;&lt;br&gt;Percentage identity: 41&lt;br&gt;Percentage coverage: 85&lt;br&gt;BLAST bit score: 42&lt;br&gt;E-value: 6.05e-08&lt;br&gt;&lt;br&gt;&lt;b&gt;BlastP hit with ctg1_4461&lt;/b&gt;&lt;br&gt;Percentage identity: 40&lt;br&gt;Percentage coverage: 89&lt;br&gt;BLAST bit score: 45&lt;br&gt;E-value: 8.05e-09" locus_tag="STM2054" class="clusterblast-orf" id="dummy-23_h23_2_18"  />
</g>
<g id="a23_0019"  >
<polygon points="575,90 580,90 585,85 580,80 575,80 575,90 " style="fill:white; stroke-width:1; stroke:black; " description="&lt;b&gt;STM2055&lt;/b&gt;&lt;br&gt;propanediol utilization polyhedral body protein PduU&lt;br&gt;Location: 16470 - 16821" locus_tag="STM2055" class="clusterblast-orf" id="dummy-23_h23_2_19"  />
</g>
<g id="a23_0020"  >
<polygon points="585,90 592,90 597,85 592,80 585,80 585,90 " style="fill:white; stroke-width:1; stroke:black; " description="&lt;b&gt;STM2056&lt;/b&gt;&lt;br&gt;propanediol utilization protein PduV&lt;br&gt;Location: 16825 - 17278" locus_tag="STM2056" class="clusterblast-orf" id="dummy-23_h23_2_20"  />
</g>
<g id="a23_0021"  >
<polygon points="597,90 626,90 631,85 626,80 597,80 597,90 " style="fill:white; stroke-width:1; stroke:black; " description="&lt;b&gt;STM2057&lt;/b&gt;&lt;br&gt;propionate kinase&lt;br&gt;Location: 17262 - 18477" locus_tag="STM2057" class="clusterblast-orf" id="dummy-23_h23_2_21"  />
</g>
<g id="a23_0022"  >
<polygon points="633,90 654,90 659,85 654,80 633,80 633,90 " style="fill:white; stroke-width:1; stroke:black; " description="&lt;b&gt;STM2058&lt;/b&gt;&lt;br&gt;L-threonine kinase&lt;br&gt;Location: 18534 - 19437" locus_tag="STM2058" class="clusterblast-orf" id="dummy-23_h23_2_22"  />
</g>
<g id="a23_0023"  >
<polygon points="659,85 664,80 664,80 664,90 664,90 659,85 " style="fill:white; stroke-width:1; stroke:black; " description="&lt;b&gt;STM2059&lt;/b&gt;&lt;br&gt;hypothetical protein&lt;br&gt;Location: 19470 - 19638" locus_tag="STM2059" class="clusterblast-orf" id="dummy-23_h23_2_23"  />
</g>
</svg>
