<svg xmlns="http://www.w3.org/2000/svg" xmlns:xlink="http://www.w3.org/1999/xlink" version="1.1" x="0" y="0" height="230" width="800" viewBox="0 0 800 230" preserveAspectRatio="none"  >
<g label="Query sequence" class="clusterblast-cluster"  >
<text x="5" y="20" class="clusterblast-acc"  >
Query sequence</text>
<line x1="10" y1="35" x2="778.0" y2="35" style="stroke-width:1; stroke:grey; "  />
<polygon points="0,40 39,40 44,35 39,30 0,30 0,40 " style="fill:white; stroke-width:1; stroke:black; " description="&lt;b&gt;ctg1_837&lt;/b&gt;&lt;br&gt;ctg1 837&lt;br&gt;Location: 885535 - 887380" locus_tag="ctg1_837" class="clusterblast-orf" id="dummy-4_q0_0_all"  />
<polygon points="46,35 51,30 54,30 54,40 51,40 46,35 " style="fill:white; stroke-width:1; stroke:black; " description="&lt;b&gt;ctg1_838&lt;/b&gt;&lt;br&gt;ctg1 838&lt;br&gt;Location: 887439 - 887760" locus_tag="ctg1_838" class="clusterblast-orf" id="dummy-4_q1_0_all"  />
<polygon points="59,35 64,30 92,30 92,40 64,40 59,35 " style="fill:white; stroke-width:1; stroke:black; " description="&lt;b&gt;ctg1_839&lt;/b&gt;&lt;br&gt;ctg1 839&lt;br&gt;Location: 887990 - 889322" locus_tag="ctg1_839" class="clusterblast-orf" id="dummy-4_q2_0_all"  />
<polygon points="97,40 122,40 127,35 122,30 97,30 97,40 " style="fill:white; stroke-width:1; stroke:black; " description="&lt;b&gt;ctg1_840&lt;/b&gt;&lt;br&gt;ctg1 840&lt;br&gt;Location: 889549 - 890803" locus_tag="ctg1_840" class="clusterblast-orf" id="dummy-4_q3_0_all"  />
<polygon points="128,40 149,40 154,35 149,30 128,30 128,40 " style="fill:white; stroke-width:1; stroke:black; " description="&lt;b&gt;ctg1_841&lt;/b&gt;&lt;br&gt;ctg1 841&lt;br&gt;Location: 890820 - 891897" locus_tag="ctg1_841" class="clusterblast-orf" id="dummy-4_q4_0_all"  />
<polygon points="154,35 159,30 176,30 176,40 159,40 154,35 " style="fill:#d81515; stroke-width:1; stroke:black; " description="&lt;b&gt;ctg1_842&lt;/b&gt;&lt;br&gt;ctg1 842&lt;br&gt;Location: 891900 - 892803" locus_tag="ctg1_842" class="clusterblast-orf" id="dummy-4_q5_0_all"  />
<polygon points="177,35 182,30 207,30 207,40 182,40 177,35 " style="fill:#4dd815; stroke-width:1; stroke:black; " description="&lt;b&gt;ctg1_843&lt;/b&gt;&lt;br&gt;ctg1 843&lt;br&gt;Location: 892858 - 894073" locus_tag="ctg1_843" class="clusterblast-orf" id="dummy-4_q6_0_all"  />
<polygon points="207,35 212,30 217,30 217,40 212,40 207,35 " style="fill:#15bcd8; stroke-width:1; stroke:black; " description="&lt;b&gt;ctg1_844&lt;/b&gt;&lt;br&gt;ctg1 844&lt;br&gt;Location: 894069 - 894510" locus_tag="ctg1_844" class="clusterblast-orf" id="dummy-4_q7_0_all"  />
<polygon points="217,35 222,30 226,30 226,40 222,40 217,35 " style="fill:#8515d8; stroke-width:1; stroke:black; " description="&lt;b&gt;ctg1_845&lt;/b&gt;&lt;br&gt;ctg1 845&lt;br&gt;Location: 894514 - 894865" locus_tag="ctg1_845" class="clusterblast-orf" id="dummy-4_q8_0_all"  />
<polygon points="226,35 231,30 239,30 239,40 231,40 226,35 " style="fill:#d84d15; stroke-width:1; stroke:black; " description="&lt;b&gt;ctg1_846&lt;/b&gt;&lt;br&gt;ctg1 846&lt;br&gt;Location: 894864 - 895419" locus_tag="ctg1_846" class="clusterblast-orf" id="dummy-4_q9_0_all"  />
<polygon points="239,35 244,30 272,30 272,40 244,40 239,35 " style="fill:#15d815; stroke-width:1; stroke:black; " description="&lt;b&gt;ctg1_847&lt;/b&gt;&lt;br&gt;ctg1 847&lt;br&gt;Location: 895421 - 896774" locus_tag="ctg1_847" class="clusterblast-orf" id="dummy-4_q10_0_all"  />
<polygon points="272,35 277,30 299,30 299,40 277,40 272,35 " style="fill:#1585d8; stroke-width:1; stroke:black; " description="&lt;b&gt;ctg1_848&lt;/b&gt;&lt;br&gt;ctg1 848&lt;br&gt;Location: 896770 - 897883" locus_tag="ctg1_848" class="clusterblast-orf" id="dummy-4_q11_0_all"  />
<polygon points="299,35 304,30 333,30 333,40 304,40 299,35 " style="fill:#bc15d8; stroke-width:1; stroke:black; " description="&lt;b&gt;ctg1_849&lt;/b&gt;&lt;br&gt;ctg1 849&lt;br&gt;Location: 897894 - 899280" locus_tag="ctg1_849" class="clusterblast-orf" id="dummy-4_q12_0_all"  />
<polygon points="333,35 338,30 357,30 357,40 338,40 333,35 " style="fill:#d88515; stroke-width:1; stroke:black; " description="&lt;b&gt;ctg1_850&lt;/b&gt;&lt;br&gt;ctg1 850&lt;br&gt;Location: 899276 - 900293" locus_tag="ctg1_850" class="clusterblast-orf" id="dummy-4_q13_0_all"  />
<polygon points="358,35 363,30 364,30 364,40 363,40 358,35 " style="fill:#15d84d; stroke-width:1; stroke:black; " description="&lt;b&gt;ctg1_851&lt;/b&gt;&lt;br&gt;ctg1 851&lt;br&gt;Location: 900303 - 900579" locus_tag="ctg1_851" class="clusterblast-orf" id="dummy-4_q14_0_all"  />
<polygon points="364,35 369,30 376,30 376,40 369,40 364,35 " style="fill:#154dd8; stroke-width:1; stroke:black; " description="&lt;b&gt;ctg1_852&lt;/b&gt;&lt;br&gt;ctg1 852&lt;br&gt;Location: 900582 - 901074" locus_tag="ctg1_852" class="clusterblast-orf" id="dummy-4_q15_0_all"  />
<polygon points="376,35 381,30 392,30 392,40 381,40 376,35 " style="fill:#d815bc; stroke-width:1; stroke:black; " description="&lt;b&gt;ctg1_853&lt;/b&gt;&lt;br&gt;ctg1 853&lt;br&gt;Location: 901070 - 901703" locus_tag="ctg1_853" class="clusterblast-orf" id="dummy-4_q16_0_all"  />
<polygon points="392,35 397,30 403,30 403,40 397,40 392,35 " style="fill:#d8bc15; stroke-width:1; stroke:black; " description="&lt;b&gt;ctg1_854&lt;/b&gt;&lt;br&gt;ctg1 854&lt;br&gt;Location: 901702 - 902170" locus_tag="ctg1_854" class="clusterblast-orf" id="dummy-4_q17_0_all"  />
<polygon points="403,35 408,30 410,30 410,40 408,40 403,35 " style="fill:#d84d15; stroke-width:1; stroke:black; " description="&lt;b&gt;ctg1_855&lt;/b&gt;&lt;br&gt;ctg1 855&lt;br&gt;Location: 902191 - 902467" locus_tag="ctg1_855" class="clusterblast-orf" id="dummy-4_q18_0_all"  />
<polygon points="411,35 416,30 419,30 419,40 416,40 411,35 " style="fill:#15d885; stroke-width:1; stroke:black; " description="&lt;b&gt;ctg1_856&lt;/b&gt;&lt;br&gt;ctg1 856&lt;br&gt;Location: 902485 - 902836" locus_tag="ctg1_856" class="clusterblast-orf" id="dummy-4_q19_0_all"  />
<polygon points="419,35 424,30 463,30 463,40 424,40 419,35 " style="fill:#1515d8; stroke-width:1; stroke:black; " description="&lt;b&gt;ctg1_857&lt;/b&gt;&lt;br&gt;ctg1 857&lt;br&gt;Location: 902825 - 904658" locus_tag="ctg1_857" class="clusterblast-orf" id="dummy-4_q20_0_all"  />
<polygon points="464,35 469,30 476,30 476,40 469,40 464,35 " style="fill:#d81585; stroke-width:1; stroke:black; " description="&lt;b&gt;ctg1_858&lt;/b&gt;&lt;br&gt;ctg1 858&lt;br&gt;Location: 904670 - 905195" locus_tag="ctg1_858" class="clusterblast-orf" id="dummy-4_q21_0_all"  />
<polygon points="477,35 482,30 493,30 493,40 482,40 477,35 " style="fill:#bcd815; stroke-width:1; stroke:black; " description="&lt;b&gt;ctg1_859&lt;/b&gt;&lt;br&gt;ctg1 859&lt;br&gt;Location: 905209 - 905890" locus_tag="ctg1_859" class="clusterblast-orf" id="dummy-4_q22_0_all"  />
<polygon points="493,35 498,30 534,30 534,40 498,40 493,35 " style="fill:#15d8bc; stroke-width:1; stroke:black; " description="&lt;b&gt;ctg1_860&lt;/b&gt;&lt;br&gt;ctg1 860&lt;br&gt;Location: 905900 - 907565" locus_tag="ctg1_860" class="clusterblast-orf" id="dummy-4_q23_0_all"  />
<polygon points="534,35 539,30 554,30 554,40 539,40 534,35 " style="fill:#4d15d8; stroke-width:1; stroke:black; " description="&lt;b&gt;ctg1_861&lt;/b&gt;&lt;br&gt;ctg1 861&lt;br&gt;Location: 907583 - 908396" locus_tag="ctg1_861" class="clusterblast-orf" id="dummy-4_q24_0_all"  />
<polygon points="554,35 559,30 561,30 561,40 559,40 554,35 " style="fill:#d84d15; stroke-width:1; stroke:black; " description="&lt;b&gt;ctg1_862&lt;/b&gt;&lt;br&gt;ctg1 862&lt;br&gt;Location: 908392 - 908677" locus_tag="ctg1_862" class="clusterblast-orf" id="dummy-4_q25_0_all"  />
<polygon points="573,40 588,40 593,35 588,30 573,30 573,40 " style="fill:#d8154d; stroke-width:1; stroke:black; " description="&lt;b&gt;ctg1_863&lt;/b&gt;&lt;br&gt;ctg1 863&lt;br&gt;Location: 909201 - 910011" locus_tag="ctg1_863" class="clusterblast-orf" id="dummy-4_q26_0_all"  />
<polygon points="598,40 615,40 620,35 615,30 598,30 598,40 " style="fill:#85d815; stroke-width:1; stroke:black; " description="&lt;b&gt;ctg1_864&lt;/b&gt;&lt;br&gt;ctg1 864&lt;br&gt;Location: 910213 - 911125" locus_tag="ctg1_864" class="clusterblast-orf" id="dummy-4_q27_0_all"  />
<polygon points="633,40 662,40 667,35 662,30 633,30 633,40 " style="fill:white; stroke-width:1; stroke:black; " description="&lt;b&gt;ctg1_865&lt;/b&gt;&lt;br&gt;ctg1 865&lt;br&gt;Location: 911676 - 913053" locus_tag="ctg1_865" class="clusterblast-orf" id="dummy-4_q28_0_all"  />
<polygon points="667,40 685,40 690,35 685,30 667,30 667,40 " style="fill:white; stroke-width:1; stroke:black; " description="&lt;b&gt;ctg1_866&lt;/b&gt;&lt;br&gt;ctg1 866&lt;br&gt;Location: 913049 - 914009" locus_tag="ctg1_866" class="clusterblast-orf" id="dummy-4_q29_0_all"  />
<polygon points="690,40 701,40 706,35 701,30 690,30 690,40 " style="fill:white; stroke-width:1; stroke:black; " description="&lt;b&gt;ctg1_867&lt;/b&gt;&lt;br&gt;ctg1 867&lt;br&gt;Location: 914019 - 914655" locus_tag="ctg1_867" class="clusterblast-orf" id="dummy-4_q30_0_all"  />
<polygon points="705,40 728,40 733,35 728,30 705,30 705,40 " style="fill:white; stroke-width:1; stroke:black; " description="&lt;b&gt;ctg1_868&lt;/b&gt;&lt;br&gt;ctg1 868&lt;br&gt;Location: 914651 - 915791" locus_tag="ctg1_868" class="clusterblast-orf" id="dummy-4_q31_0_all"  />
<polygon points="733,40 743,40 748,35 743,30 733,30 733,40 " style="fill:white; stroke-width:1; stroke:black; " description="&lt;b&gt;ctg1_869&lt;/b&gt;&lt;br&gt;ctg1 869&lt;br&gt;Location: 915784 - 916390" locus_tag="ctg1_869" class="clusterblast-orf" id="dummy-4_q32_0_all"  />
<polygon points="747,40 756,40 761,35 756,30 747,30 747,40 " style="fill:white; stroke-width:1; stroke:black; " description="&lt;b&gt;ctg1_870&lt;/b&gt;&lt;br&gt;ctg1 870&lt;br&gt;Location: 916379 - 916949" locus_tag="ctg1_870" class="clusterblast-orf" id="dummy-4_q33_0_all"  />
<polygon points="761,40 775,40 780,35 775,30 761,30 761,40 " style="fill:white; stroke-width:1; stroke:black; " description="&lt;b&gt;ctg1_871&lt;/b&gt;&lt;br&gt;ctg1 871&lt;br&gt;Location: 916941 - 917715" locus_tag="ctg1_871" class="clusterblast-orf" id="dummy-4_q34_0_all"  />
</g>
<g label="MGC0000001" description="MGC0000001_c1: Trimethylamine synthesis C. sporogenes (50% of genes show similarity), TMA" class="clusterblast-cluster"  >
<text x="5" y="70" class="clusterblast-acc"  >
MGC0000001_c1: Trimethylamine synthesis C. sporogenes (50% of genes show similarity), TMA</text>
<line x1="10" y1="85" x2="778.0" y2="85" style="stroke-width:1; stroke:grey; "  />
</g>
<g id="a4_000"  >
<polygon points="320,85 322,80 322,90 320,85 " style="fill:#15bcd8; stroke-width:1; stroke:black; " description="&lt;b&gt;CLOSPO_RS07645&lt;/b&gt;&lt;br&gt;hypothetical protein&lt;br&gt;Location: 5704 - 5637&lt;br&gt;&lt;br&gt;&lt;b&gt;BlastP hit with ctg1_844&lt;/b&gt;&lt;br&gt;Percentage identity: 33&lt;br&gt;Percentage coverage: 93&lt;br&gt;BLAST bit score: 75&lt;br&gt;E-value: 9.23e-20" locus_tag="CLOSPO_RS07645" class="clusterblast-orf" id="dummy-4_h4_3_0"  />
</g>
<g id="a4_001"  >
<polygon points="322,85 327,80 330,80 330,90 327,90 322,85 " style="fill:#8515d8; stroke-width:1; stroke:black; " description="&lt;b&gt;CLOSPO_RS07640&lt;/b&gt;&lt;br&gt;propanediol utilization protein PduU&lt;br&gt;Location: 5641 - 5287&lt;br&gt;&lt;br&gt;&lt;b&gt;BlastP hit with ctg1_845&lt;/b&gt;&lt;br&gt;Percentage identity: 59&lt;br&gt;Percentage coverage: 94&lt;br&gt;BLAST bit score: 125&lt;br&gt;E-value: 1.17e-40" locus_tag="CLOSPO_RS07640" class="clusterblast-orf" id="dummy-4_h4_3_1"  />
</g>
<g id="a4_002"  >
<polygon points="331,85 336,80 355,80 355,90 336,90 331,85 " style="fill:white; stroke-width:1; stroke:black; " description="&lt;b&gt;CLOSPO_RS07635&lt;/b&gt;&lt;br&gt;choline TMA-lyase-activating enzyme&lt;br&gt;Location: 5248 - 4294" locus_tag="CLOSPO_RS07635" class="clusterblast-orf" id="dummy-4_h4_3_2"  />
</g>
<g id="a4_003"  >
<polygon points="359,85 364,80 421,80 421,90 364,90 359,85 " style="fill:white; stroke-width:1; stroke:black; " description="&lt;b&gt;CLOSPO_RS07630&lt;/b&gt;&lt;br&gt;choline trimethylamine-lyase&lt;br&gt;Location: 4113 - 1572" locus_tag="CLOSPO_RS07630" class="clusterblast-orf" id="dummy-4_h4_3_3"  />
</g>
<g id="a4_004"  >
<polygon points="422,85 427,80 458,80 458,90 427,90 422,85 " style="fill:white; stroke-width:1; stroke:black; " description="&lt;b&gt;CLOSPO_RS07625&lt;/b&gt;&lt;br&gt;acetaldehyde dehydrogenase&lt;br&gt;Location: 1523 - 41" locus_tag="CLOSPO_RS07625" class="clusterblast-orf" id="dummy-4_h4_3_4"  />
</g>
<g id="a4_005"  >
<polygon points="459,85 459,80 459,90 459,85 " style="fill:#d84d15; stroke-width:1; stroke:black; " description="&lt;b&gt;CLOSPO_RS07620&lt;/b&gt;&lt;br&gt;hypothetical protein&lt;br&gt;Location: 4 - 0&lt;br&gt;&lt;br&gt;&lt;b&gt;BlastP hit with ctg1_855&lt;/b&gt;&lt;br&gt;Percentage identity: 65&lt;br&gt;Percentage coverage: 95&lt;br&gt;BLAST bit score: 98&lt;br&gt;E-value: 3.63e-30&lt;br&gt;&lt;br&gt;&lt;b&gt;BlastP hit with ctg1_862&lt;/b&gt;&lt;br&gt;Percentage identity: 59&lt;br&gt;Percentage coverage: 93&lt;br&gt;BLAST bit score: 91&lt;br&gt;E-value: 3.14e-27" locus_tag="CLOSPO_RS07620" class="clusterblast-orf" id="dummy-4_h4_3_5"  />
</g>
</svg>
