<svg xmlns="http://www.w3.org/2000/svg" xmlns:xlink="http://www.w3.org/1999/xlink" version="1.1" x="0" y="0" height="230" width="800" viewBox="0 0 800 230" preserveAspectRatio="none"  >
<g label="Query sequence" class="clusterblast-cluster"  >
<text x="5" y="20" class="clusterblast-acc"  >
Query sequence</text>
<line x1="10" y1="35" x2="778.0" y2="35" style="stroke-width:1; stroke:grey; "  />
<polygon points="0,40 18,40 23,35 18,30 0,30 0,40 " style="fill:white; stroke-width:1; stroke:black; " description="&lt;b&gt;ctg1_693&lt;/b&gt;&lt;br&gt;ctg1 693&lt;br&gt;Location: 727851 - 728505" locus_tag="ctg1_693" class="clusterblast-orf" id="dummy-2_q0_0_all"  />
<polygon points="25,35 30,30 41,30 41,40 30,40 25,35 " style="fill:white; stroke-width:1; stroke:black; " description="&lt;b&gt;ctg1_694&lt;/b&gt;&lt;br&gt;ctg1 694&lt;br&gt;Location: 728557 - 728977" locus_tag="ctg1_694" class="clusterblast-orf" id="dummy-2_q1_0_all"  />
<polygon points="40,35 45,30 61,30 61,40 45,40 40,35 " style="fill:white; stroke-width:1; stroke:black; " description="&lt;b&gt;ctg1_695&lt;/b&gt;&lt;br&gt;ctg1 695&lt;br&gt;Location: 728973 - 729537" locus_tag="ctg1_695" class="clusterblast-orf" id="dummy-2_q2_0_all"  />
<polygon points="67,35 72,30 101,30 101,40 72,40 67,35 " style="fill:white; stroke-width:1; stroke:black; " description="&lt;b&gt;ctg1_696&lt;/b&gt;&lt;br&gt;ctg1 696&lt;br&gt;Location: 729711 - 730662" locus_tag="ctg1_696" class="clusterblast-orf" id="dummy-2_q3_0_all"  />
<polygon points="102,35 107,30 129,30 129,40 107,40 102,35 " style="fill:white; stroke-width:1; stroke:black; " description="&lt;b&gt;ctg1_697&lt;/b&gt;&lt;br&gt;ctg1 697&lt;br&gt;Location: 730682 - 731414" locus_tag="ctg1_697" class="clusterblast-orf" id="dummy-2_q4_0_all"  />
<polygon points="132,35 137,30 157,30 157,40 137,40 132,35 " style="fill:white; stroke-width:1; stroke:black; " description="&lt;b&gt;ctg1_698&lt;/b&gt;&lt;br&gt;ctg1 698&lt;br&gt;Location: 731505 - 732213" locus_tag="ctg1_698" class="clusterblast-orf" id="dummy-2_q5_0_all"  />
<polygon points="161,35 166,30 177,30 177,40 166,40 161,35 " style="fill:white; stroke-width:1; stroke:black; " description="&lt;b&gt;ctg1_699&lt;/b&gt;&lt;br&gt;ctg1 699&lt;br&gt;Location: 732307 - 732766" locus_tag="ctg1_699" class="clusterblast-orf" id="dummy-2_q6_0_all"  />
<polygon points="182,35 187,30 232,30 232,40 187,40 182,35 " style="fill:white; stroke-width:1; stroke:black; " description="&lt;b&gt;ctg1_700&lt;/b&gt;&lt;br&gt;ctg1 700&lt;br&gt;Location: 732885 - 734280" locus_tag="ctg1_700" class="clusterblast-orf" id="dummy-2_q7_0_all"  />
<polygon points="246,35 251,30 288,30 288,40 251,40 246,35 " style="fill:white; stroke-width:1; stroke:black; " description="&lt;b&gt;ctg1_701&lt;/b&gt;&lt;br&gt;ctg1 701&lt;br&gt;Location: 734659 - 735814" locus_tag="ctg1_701" class="clusterblast-orf" id="dummy-2_q8_0_all"  />
<polygon points="318,40 384,40 389,35 384,30 318,30 318,40 " style="fill:#d81515; stroke-width:1; stroke:black; " description="&lt;b&gt;ctg1_702&lt;/b&gt;&lt;br&gt;ctg1 702&lt;br&gt;Location: 736655 - 738632" locus_tag="ctg1_702" class="clusterblast-orf" id="dummy-2_q9_0_all"  />
<polygon points="398,40 426,40 431,35 426,30 398,30 398,40 " style="fill:#15d8d8; stroke-width:1; stroke:black; " description="&lt;b&gt;ctg1_703&lt;/b&gt;&lt;br&gt;ctg1 703&lt;br&gt;Location: 738865 - 739786" locus_tag="ctg1_703" class="clusterblast-orf" id="dummy-2_q10_0_all"  />
<polygon points="436,35 441,30 482,30 482,40 441,40 436,35 " style="fill:white; stroke-width:1; stroke:black; " description="&lt;b&gt;ctg1_704&lt;/b&gt;&lt;br&gt;ctg1 704&lt;br&gt;Location: 739917 - 741186" locus_tag="ctg1_704" class="clusterblast-orf" id="dummy-2_q11_0_all"  />
<polygon points="495,35 500,30 523,30 523,40 500,40 495,35 " style="fill:white; stroke-width:1; stroke:black; " description="&lt;b&gt;ctg1_705&lt;/b&gt;&lt;br&gt;ctg1 705&lt;br&gt;Location: 741563 - 742322" locus_tag="ctg1_705" class="clusterblast-orf" id="dummy-2_q12_0_all"  />
<polygon points="533,40 600,40 605,35 600,30 533,30 533,40 " style="fill:white; stroke-width:1; stroke:black; " description="&lt;b&gt;ctg1_706&lt;/b&gt;&lt;br&gt;ctg1 706&lt;br&gt;Location: 742602 - 744594" locus_tag="ctg1_706" class="clusterblast-orf" id="dummy-2_q13_0_all"  />
<polygon points="619,40 651,40 656,35 651,30 619,30 619,40 " style="fill:white; stroke-width:1; stroke:black; " description="&lt;b&gt;ctg1_707&lt;/b&gt;&lt;br&gt;ctg1 707&lt;br&gt;Location: 744978 - 746007" locus_tag="ctg1_707" class="clusterblast-orf" id="dummy-2_q14_0_all"  />
<polygon points="657,40 694,40 699,35 694,30 657,30 657,40 " style="fill:white; stroke-width:1; stroke:black; " description="&lt;b&gt;ctg1_708&lt;/b&gt;&lt;br&gt;ctg1 708&lt;br&gt;Location: 746046 - 747210" locus_tag="ctg1_708" class="clusterblast-orf" id="dummy-2_q15_0_all"  />
<polygon points="703,40 737,40 742,35 737,30 703,30 703,40 " style="fill:white; stroke-width:1; stroke:black; " description="&lt;b&gt;ctg1_709&lt;/b&gt;&lt;br&gt;ctg1 709&lt;br&gt;Location: 747307 - 748387" locus_tag="ctg1_709" class="clusterblast-orf" id="dummy-2_q16_0_all"  />
<polygon points="749,40 775,40 780,35 775,30 749,30 749,40 " style="fill:white; stroke-width:1; stroke:black; " description="&lt;b&gt;ctg1_710&lt;/b&gt;&lt;br&gt;ctg1 710&lt;br&gt;Location: 748578 - 749436" locus_tag="ctg1_710" class="clusterblast-orf" id="dummy-2_q17_0_all"  />
</g>
<g label="MGC00000052" description="MGC00000052_c1: Arginine2putrescine E. coli (50% of genes show similarity), PUTR" class="clusterblast-cluster"  >
<text x="5" y="70" class="clusterblast-acc"  >
MGC00000052_c1: Arginine2putrescine E. coli (50% of genes show similarity), PUTR</text>
<line x1="10" y1="85" x2="778.0" y2="85" style="stroke-width:1; stroke:grey; "  />
</g>
<g id="a2_000"  >
<polygon points="149,90 216,90 221,85 216,80 149,80 149,90 " style="fill:#d81515; stroke-width:1; stroke:black; " description="&lt;b&gt;E2348C_RS17110&lt;/b&gt;&lt;br&gt;arginine decarboxylase&lt;br&gt;Location: 13290 - 11313&lt;br&gt;&lt;br&gt;&lt;b&gt;BlastP hit with ctg1_702&lt;/b&gt;&lt;br&gt;Percentage identity: 95&lt;br&gt;Percentage coverage: 100&lt;br&gt;BLAST bit score: 1251&lt;br&gt;E-value: 0.0" locus_tag="E2348C_RS17110" class="clusterblast-orf" id="dummy-2_h2_1_0"  />
</g>
<g id="a2_001"  >
<polygon points="226,90 247,90 252,85 247,80 226,80 226,90 " style="fill:white; stroke-width:1; stroke:black; " description="&lt;b&gt;E2348C_RS17105&lt;/b&gt;&lt;br&gt;hypothetical protein&lt;br&gt;Location: 11168 - 10436" locus_tag="E2348C_RS17105" class="clusterblast-orf" id="dummy-2_h2_1_1"  />
</g>
<g id="a2_002"  >
<polygon points="257,90 286,90 291,85 286,80 257,80 257,90 " style="fill:#15d8d8; stroke-width:1; stroke:black; " description="&lt;b&gt;E2348C_RS17100&lt;/b&gt;&lt;br&gt;agmatinase&lt;br&gt;Location: 10301 - 9380&lt;br&gt;&lt;br&gt;&lt;b&gt;BlastP hit with ctg1_703&lt;/b&gt;&lt;br&gt;Percentage identity: 98&lt;br&gt;Percentage coverage: 100&lt;br&gt;BLAST bit score: 615&lt;br&gt;E-value: 5.44e-228" locus_tag="E2348C_RS17100" class="clusterblast-orf" id="dummy-2_h2_1_2"  />
</g>
<g id="a2_003"  >
<polygon points="611,90 625,90 630,85 625,80 611,80 611,90 " style="fill:white; stroke-width:1; stroke:black; " description="&lt;b&gt;E2348C_RS17060&lt;/b&gt;&lt;br&gt;mannitol repressor&lt;br&gt;Location: 510 - 0" locus_tag="E2348C_RS17060" class="clusterblast-orf" id="dummy-2_h2_1_3"  />
</g>
</svg>
