<svg xmlns="http://www.w3.org/2000/svg" xmlns:xlink="http://www.w3.org/1999/xlink" version="1.1" x="0" y="0" height="100" width="800" viewBox="0 0 800 100" preserveAspectRatio="none"  >
<g label="Query sequence" class="clusterblast-cluster"  >
<text x="5" y="20" class="clusterblast-acc"  >
Query sequence</text>
<line x1="10" y1="35" x2="778.0" y2="35" style="stroke-width:1; stroke:grey; "  />
<polygon points="0,40 32,40 37,35 32,30 0,30 0,40 " style="fill:white; stroke-width:1; stroke:black; " description="&lt;b&gt;ctg1_1876&lt;/b&gt;&lt;br&gt;ctg1 1876&lt;br&gt;Location: 2019063 - 2020272" locus_tag="ctg1_1876" class="clusterblast-orf" id="knownclusterblast-11_q0_0_all"  />
<polygon points="38,40 65,40 70,35 65,30 38,30 38,40 " style="fill:white; stroke-width:1; stroke:black; " description="&lt;b&gt;ctg1_1877&lt;/b&gt;&lt;br&gt;ctg1 1877&lt;br&gt;Location: 2020319 - 2021333" locus_tag="ctg1_1877" class="clusterblast-orf" id="knownclusterblast-11_q1_0_all"  />
<polygon points="69,40 89,40 94,35 89,30 69,30 69,40 " style="fill:white; stroke-width:1; stroke:black; " description="&lt;b&gt;ctg1_1878&lt;/b&gt;&lt;br&gt;ctg1 1878&lt;br&gt;Location: 2021325 - 2022126" locus_tag="ctg1_1878" class="clusterblast-orf" id="knownclusterblast-11_q2_0_all"  />
<polygon points="95,35 100,30 136,30 136,40 100,40 95,35 " style="fill:white; stroke-width:1; stroke:black; " description="&lt;b&gt;ctg1_1879&lt;/b&gt;&lt;br&gt;ctg1 1879&lt;br&gt;Location: 2022173 - 2023505" locus_tag="ctg1_1879" class="clusterblast-orf" id="knownclusterblast-11_q3_0_all"  />
<polygon points="138,35 143,30 165,30 165,40 143,40 138,35 " style="fill:white; stroke-width:1; stroke:black; " description="&lt;b&gt;ctg1_1880&lt;/b&gt;&lt;br&gt;ctg1 1880&lt;br&gt;Location: 2023548 - 2024448" locus_tag="ctg1_1880" class="clusterblast-orf" id="knownclusterblast-11_q4_0_all"  />
<polygon points="167,35 172,30 188,30 188,40 172,40 167,35 " style="fill:white; stroke-width:1; stroke:black; " description="&lt;b&gt;ctg1_1881&lt;/b&gt;&lt;br&gt;ctg1 1881&lt;br&gt;Location: 2024508 - 2025177" locus_tag="ctg1_1881" class="clusterblast-orf" id="knownclusterblast-11_q5_0_all"  />
<polygon points="188,35 193,30 207,30 207,40 193,40 188,35 " style="fill:white; stroke-width:1; stroke:black; " description="&lt;b&gt;ctg1_1882&lt;/b&gt;&lt;br&gt;ctg1 1882&lt;br&gt;Location: 2025176 - 2025806" locus_tag="ctg1_1882" class="clusterblast-orf" id="knownclusterblast-11_q6_0_all"  />
<polygon points="207,35 212,30 240,30 240,40 212,40 207,35 " style="fill:white; stroke-width:1; stroke:black; " description="&lt;b&gt;ctg1_1883&lt;/b&gt;&lt;br&gt;ctg1 1883&lt;br&gt;Location: 2025798 - 2026887" locus_tag="ctg1_1883" class="clusterblast-orf" id="knownclusterblast-11_q7_0_all"  />
<polygon points="264,40 288,40 293,35 288,30 264,30 264,40 " style="fill:#d81515; stroke-width:1; stroke:black; " description="&lt;b&gt;ctg1_1884&lt;/b&gt;&lt;br&gt;ctg1 1884&lt;br&gt;Location: 2027644 - 2028583" locus_tag="ctg1_1884" class="clusterblast-orf" id="knownclusterblast-11_q8_0_all"  />
<polygon points="296,40 321,40 326,35 321,30 296,30 296,40 " style="fill:#15d863; stroke-width:1; stroke:black; " description="&lt;b&gt;ctg1_1885&lt;/b&gt;&lt;br&gt;ctg1 1885&lt;br&gt;Location: 2028676 - 2029666" locus_tag="ctg1_1885" class="clusterblast-orf" id="knownclusterblast-11_q9_0_all"  />
<polygon points="327,40 363,40 368,35 363,30 327,30 327,40 " style="fill:#1563d8; stroke-width:1; stroke:black; " description="&lt;b&gt;ctg1_1886&lt;/b&gt;&lt;br&gt;ctg1 1886&lt;br&gt;Location: 2029691 - 2031023" locus_tag="ctg1_1886" class="clusterblast-orf" id="knownclusterblast-11_q10_0_all"  />
<polygon points="369,40 401,40 406,35 401,30 369,30 369,40 " style="fill:#b115d8; stroke-width:1; stroke:black; " description="&lt;b&gt;ctg1_1887&lt;/b&gt;&lt;br&gt;ctg1 1887&lt;br&gt;Location: 2031050 - 2032256" locus_tag="ctg1_1887" class="clusterblast-orf" id="knownclusterblast-11_q11_0_all"  />
<polygon points="407,40 472,40 477,35 472,30 407,30 407,40 " style="fill:#b1d815; stroke-width:1; stroke:black; " description="&lt;b&gt;ctg1_1888&lt;/b&gt;&lt;br&gt;ctg1 1888&lt;br&gt;Location: 2032284 - 2034579" locus_tag="ctg1_1888" class="clusterblast-orf" id="knownclusterblast-11_q12_0_all"  />
<polygon points="492,40 520,40 525,35 520,30 492,30 492,40 " style="fill:white; stroke-width:1; stroke:black; " description="&lt;b&gt;ctg1_1889&lt;/b&gt;&lt;br&gt;ctg1 1889&lt;br&gt;Location: 2035060 - 2036125" locus_tag="ctg1_1889" class="clusterblast-orf" id="knownclusterblast-11_q13_0_all"  />
<polygon points="528,40 551,40 556,35 551,30 528,30 528,40 " style="fill:white; stroke-width:1; stroke:black; " description="&lt;b&gt;ctg1_1890&lt;/b&gt;&lt;br&gt;ctg1 1890&lt;br&gt;Location: 2036234 - 2037149" locus_tag="ctg1_1890" class="clusterblast-orf" id="knownclusterblast-11_q14_0_all"  />
<polygon points="556,40 591,40 596,35 591,30 556,30 556,40 " style="fill:white; stroke-width:1; stroke:black; " description="&lt;b&gt;ctg1_1891&lt;/b&gt;&lt;br&gt;ctg1 1891&lt;br&gt;Location: 2037158 - 2038445" locus_tag="ctg1_1891" class="clusterblast-orf" id="knownclusterblast-11_q15_0_all"  />
<polygon points="596,40 618,40 623,35 618,30 596,30 596,40 " style="fill:white; stroke-width:1; stroke:black; " description="&lt;b&gt;ctg1_1892&lt;/b&gt;&lt;br&gt;ctg1 1892&lt;br&gt;Location: 2038441 - 2039317" locus_tag="ctg1_1892" class="clusterblast-orf" id="knownclusterblast-11_q16_0_all"  />
<polygon points="623,40 640,40 645,35 640,30 623,30 623,40 " style="fill:white; stroke-width:1; stroke:black; " description="&lt;b&gt;ctg1_1893&lt;/b&gt;&lt;br&gt;ctg1 1893&lt;br&gt;Location: 2039313 - 2040033" locus_tag="ctg1_1893" class="clusterblast-orf" id="knownclusterblast-11_q17_0_all"  />
<polygon points="645,35 650,30 673,30 673,40 650,40 645,35 " style="fill:white; stroke-width:1; stroke:black; " description="&lt;b&gt;ctg1_1894&lt;/b&gt;&lt;br&gt;ctg1 1894&lt;br&gt;Location: 2040038 - 2040932" locus_tag="ctg1_1894" class="clusterblast-orf" id="knownclusterblast-11_q18_0_all"  />
<polygon points="681,40 727,40 732,35 727,30 681,30 681,40 " style="fill:white; stroke-width:1; stroke:black; " description="&lt;b&gt;ctg1_1895&lt;/b&gt;&lt;br&gt;ctg1 1895&lt;br&gt;Location: 2041215 - 2042859" locus_tag="ctg1_1895" class="clusterblast-orf" id="knownclusterblast-11_q19_0_all"  />
<polygon points="733,35 738,30 748,30 748,40 738,40 733,35 " style="fill:white; stroke-width:1; stroke:black; " description="&lt;b&gt;ctg1_1896&lt;/b&gt;&lt;br&gt;ctg1 1896&lt;br&gt;Location: 2042908 - 2043385" locus_tag="ctg1_1896" class="clusterblast-orf" id="knownclusterblast-11_q20_0_all"  />
<polygon points="751,40 775,40 780,35 775,30 751,30 751,40 " style="fill:white; stroke-width:1; stroke:black; " description="&lt;b&gt;ctg1_1897&lt;/b&gt;&lt;br&gt;ctg1 1897&lt;br&gt;Location: 2043485 - 2044418" locus_tag="ctg1_1897" class="clusterblast-orf" id="knownclusterblast-11_q21_0_all"  />
</g>
<g label="MGC00000030" description="MGC00000030_c1: Threonine to propionate E. coli (50% of genes show similarity), PROP" class="clusterblast-cluster"  >
<text x="5" y="70" class="clusterblast-acc"  >
MGC00000030_c1: Threonine to propionate E. coli (50% of genes show similarity), PROP</text>
<line x1="10" y1="85" x2="778.0" y2="85" style="stroke-width:1; stroke:grey; "  />
</g>
<g id="a11_000"  >
<polygon points="209,90 233,90 238,85 233,80 209,80 209,90 " style="fill:#d81515; stroke-width:1; stroke:black; " description="&lt;b&gt;L960_3799&lt;/b&gt;&lt;br&gt;DNA-binding transcriptional activator TdcA&lt;br&gt;Location: 10000 - 10939&lt;br&gt;&lt;br&gt;&lt;b&gt;BlastP hit with ctg1_1884&lt;/b&gt;&lt;br&gt;Percentage identity: 76&lt;br&gt;Percentage coverage: 100&lt;br&gt;BLAST bit score: 468&lt;br&gt;E-value: 6.76e-170" locus_tag="L960_3799" class="clusterblast-orf" id="knownclusterblast-11_all_11_1_0"  />
</g>
<g id="a11_001"  >
<polygon points="241,90 245,90 250,85 245,80 241,80 241,90 " style="fill:white; stroke-width:1; stroke:black; " description="&lt;b&gt;L960_3800&lt;/b&gt;&lt;br&gt;threonine ammonia-lyase&lt;br&gt;Location: 11037 - 11343" locus_tag="L960_3800" class="clusterblast-orf" id="knownclusterblast-11_all_11_1_1"  />
</g>
<g id="a11_002"  >
<polygon points="250,90 267,90 272,85 267,80 250,80 250,90 " style="fill:#15d863; stroke-width:1; stroke:black; " description="&lt;b&gt;L960_3801&lt;/b&gt;&lt;br&gt;tdcB&lt;br&gt;Location: 11323 - 12028&lt;br&gt;&lt;br&gt;&lt;b&gt;BlastP hit with ctg1_1885&lt;/b&gt;&lt;br&gt;Percentage identity: 90&lt;br&gt;Percentage coverage: 71&lt;br&gt;BLAST bit score: 424&lt;br&gt;E-value: 1.77e-153" locus_tag="L960_3801" class="clusterblast-orf" id="knownclusterblast-11_all_11_1_2"  />
</g>
<g id="a11_003"  >
<polygon points="272,90 308,90 313,85 308,80 272,80 272,90 " style="fill:#1563d8; stroke-width:1; stroke:black; " description="&lt;b&gt;L960_3802&lt;/b&gt;&lt;br&gt;threonine/serine transporter TdcC&lt;br&gt;Location: 12049 - 13381&lt;br&gt;&lt;br&gt;&lt;b&gt;BlastP hit with ctg1_1886&lt;/b&gt;&lt;br&gt;Percentage identity: 91&lt;br&gt;Percentage coverage: 100&lt;br&gt;BLAST bit score: 788&lt;br&gt;E-value: 6.02e-292" locus_tag="L960_3802" class="clusterblast-orf" id="knownclusterblast-11_all_11_1_3"  />
</g>
<g id="a11_004"  >
<polygon points="314,90 346,90 351,85 346,80 314,80 314,90 " style="fill:#b115d8; stroke-width:1; stroke:black; " description="&lt;b&gt;L960_3803&lt;/b&gt;&lt;br&gt;propionate/acetate kinase&lt;br&gt;Location: 13406 - 14615&lt;br&gt;&lt;br&gt;&lt;b&gt;BlastP hit with ctg1_1887&lt;/b&gt;&lt;br&gt;Percentage identity: 76&lt;br&gt;Percentage coverage: 100&lt;br&gt;BLAST bit score: 608&lt;br&gt;E-value: 4.61e-222" locus_tag="L960_3803" class="clusterblast-orf" id="knownclusterblast-11_all_11_1_4"  />
</g>
<g id="a11_005"  >
<polygon points="352,90 418,90 423,85 418,80 352,80 352,90 " style="fill:#b1d815; stroke-width:1; stroke:black; " description="&lt;b&gt;L960_3804&lt;/b&gt;&lt;br&gt;pyruvate formate-lyase 4/2-ketobutyrate formate-lyase&lt;br&gt;Location: 14648 - 16943&lt;br&gt;&lt;br&gt;&lt;b&gt;BlastP hit with ctg1_1888&lt;/b&gt;&lt;br&gt;Percentage identity: 88&lt;br&gt;Percentage coverage: 100&lt;br&gt;BLAST bit score: 1352&lt;br&gt;E-value: 0.0" locus_tag="L960_3804" class="clusterblast-orf" id="knownclusterblast-11_all_11_1_5"  />
</g>
<g id="a11_006"  >
<polygon points="423,90 430,90 435,85 430,80 423,80 423,90 " style="fill:white; stroke-width:1; stroke:black; " description="&lt;b&gt;L960_3805&lt;/b&gt;&lt;br&gt;hypothetical protein&lt;br&gt;Location: 16956 - 17346" locus_tag="L960_3805" class="clusterblast-orf" id="knownclusterblast-11_all_11_1_6"  />
</g>
<g id="a11_007"  >
<polygon points="439,90 474,90 479,85 474,80 439,80 439,90 " style="fill:white; stroke-width:1; stroke:black; " description="&lt;b&gt;L960_3806&lt;/b&gt;&lt;br&gt;L-serine dehydratase 3&lt;br&gt;Location: 17483 - 18782" locus_tag="L960_3806" class="clusterblast-orf" id="knownclusterblast-11_all_11_1_7"  />
</g>
<g id="a11_008"  >
<polygon points="488,90 524,90 529,85 524,80 488,80 488,90 " style="fill:white; stroke-width:1; stroke:black; " description="&lt;b&gt;L960_3807&lt;/b&gt;&lt;br&gt;serine transporter family protein&lt;br&gt;Location: 19056 - 20388" locus_tag="L960_3807" class="clusterblast-orf" id="knownclusterblast-11_all_11_1_8"  />
</g>
<g id="a11_009"  >
<polygon points="530,90 565,90 570,85 565,80 530,80 530,90 " style="fill:white; stroke-width:1; stroke:black; " description="&lt;b&gt;L960_3808&lt;/b&gt;&lt;br&gt;hypothetical protein&lt;br&gt;Location: 20415 - 21726" locus_tag="L960_3808" class="clusterblast-orf" id="knownclusterblast-11_all_11_1_9"  />
</g>
</svg>
