<svg xmlns="http://www.w3.org/2000/svg" xmlns:xlink="http://www.w3.org/1999/xlink" version="1.1" x="0" y="0" height="230" width="800" viewBox="0 0 800 230" preserveAspectRatio="none"  >
<g label="Query sequence" class="clusterblast-cluster"  >
<text x="5" y="20" class="clusterblast-acc"  >
Query sequence</text>
<line x1="10" y1="35" x2="778.0" y2="35" style="stroke-width:1; stroke:grey; "  />
<polygon points="0,40 39,40 44,35 39,30 0,30 0,40 " style="fill:white; stroke-width:1; stroke:black; " description="&lt;b&gt;ctg1_837&lt;/b&gt;&lt;br&gt;ctg1 837&lt;br&gt;Location: 885535 - 887380" locus_tag="ctg1_837" class="clusterblast-orf" id="dummy-4_q0_0_all"  />
<polygon points="46,35 51,30 54,30 54,40 51,40 46,35 " style="fill:white; stroke-width:1; stroke:black; " description="&lt;b&gt;ctg1_838&lt;/b&gt;&lt;br&gt;ctg1 838&lt;br&gt;Location: 887439 - 887760" locus_tag="ctg1_838" class="clusterblast-orf" id="dummy-4_q1_0_all"  />
<polygon points="59,35 64,30 92,30 92,40 64,40 59,35 " style="fill:white; stroke-width:1; stroke:black; " description="&lt;b&gt;ctg1_839&lt;/b&gt;&lt;br&gt;ctg1 839&lt;br&gt;Location: 887990 - 889322" locus_tag="ctg1_839" class="clusterblast-orf" id="dummy-4_q2_0_all"  />
<polygon points="97,40 122,40 127,35 122,30 97,30 97,40 " style="fill:white; stroke-width:1; stroke:black; " description="&lt;b&gt;ctg1_840&lt;/b&gt;&lt;br&gt;ctg1 840&lt;br&gt;Location: 889549 - 890803" locus_tag="ctg1_840" class="clusterblast-orf" id="dummy-4_q3_0_all"  />
<polygon points="128,40 149,40 154,35 149,30 128,30 128,40 " style="fill:white; stroke-width:1; stroke:black; " description="&lt;b&gt;ctg1_841&lt;/b&gt;&lt;br&gt;ctg1 841&lt;br&gt;Location: 890820 - 891897" locus_tag="ctg1_841" class="clusterblast-orf" id="dummy-4_q4_0_all"  />
<polygon points="154,35 159,30 176,30 176,40 159,40 154,35 " style="fill:#d81515; stroke-width:1; stroke:black; " description="&lt;b&gt;ctg1_842&lt;/b&gt;&lt;br&gt;ctg1 842&lt;br&gt;Location: 891900 - 892803" locus_tag="ctg1_842" class="clusterblast-orf" id="dummy-4_q5_0_all"  />
<polygon points="177,35 182,30 207,30 207,40 182,40 177,35 " style="fill:#4dd815; stroke-width:1; stroke:black; " description="&lt;b&gt;ctg1_843&lt;/b&gt;&lt;br&gt;ctg1 843&lt;br&gt;Location: 892858 - 894073" locus_tag="ctg1_843" class="clusterblast-orf" id="dummy-4_q6_0_all"  />
<polygon points="207,35 212,30 217,30 217,40 212,40 207,35 " style="fill:#15bcd8; stroke-width:1; stroke:black; " description="&lt;b&gt;ctg1_844&lt;/b&gt;&lt;br&gt;ctg1 844&lt;br&gt;Location: 894069 - 894510" locus_tag="ctg1_844" class="clusterblast-orf" id="dummy-4_q7_0_all"  />
<polygon points="217,35 222,30 226,30 226,40 222,40 217,35 " style="fill:#8515d8; stroke-width:1; stroke:black; " description="&lt;b&gt;ctg1_845&lt;/b&gt;&lt;br&gt;ctg1 845&lt;br&gt;Location: 894514 - 894865" locus_tag="ctg1_845" class="clusterblast-orf" id="dummy-4_q8_0_all"  />
<polygon points="226,35 231,30 239,30 239,40 231,40 226,35 " style="fill:#d84d15; stroke-width:1; stroke:black; " description="&lt;b&gt;ctg1_846&lt;/b&gt;&lt;br&gt;ctg1 846&lt;br&gt;Location: 894864 - 895419" locus_tag="ctg1_846" class="clusterblast-orf" id="dummy-4_q9_0_all"  />
<polygon points="239,35 244,30 272,30 272,40 244,40 239,35 " style="fill:#15d815; stroke-width:1; stroke:black; " description="&lt;b&gt;ctg1_847&lt;/b&gt;&lt;br&gt;ctg1 847&lt;br&gt;Location: 895421 - 896774" locus_tag="ctg1_847" class="clusterblast-orf" id="dummy-4_q10_0_all"  />
<polygon points="272,35 277,30 299,30 299,40 277,40 272,35 " style="fill:#1585d8; stroke-width:1; stroke:black; " description="&lt;b&gt;ctg1_848&lt;/b&gt;&lt;br&gt;ctg1 848&lt;br&gt;Location: 896770 - 897883" locus_tag="ctg1_848" class="clusterblast-orf" id="dummy-4_q11_0_all"  />
<polygon points="299,35 304,30 333,30 333,40 304,40 299,35 " style="fill:#bc15d8; stroke-width:1; stroke:black; " description="&lt;b&gt;ctg1_849&lt;/b&gt;&lt;br&gt;ctg1 849&lt;br&gt;Location: 897894 - 899280" locus_tag="ctg1_849" class="clusterblast-orf" id="dummy-4_q12_0_all"  />
<polygon points="333,35 338,30 357,30 357,40 338,40 333,35 " style="fill:#d88515; stroke-width:1; stroke:black; " description="&lt;b&gt;ctg1_850&lt;/b&gt;&lt;br&gt;ctg1 850&lt;br&gt;Location: 899276 - 900293" locus_tag="ctg1_850" class="clusterblast-orf" id="dummy-4_q13_0_all"  />
<polygon points="358,35 363,30 364,30 364,40 363,40 358,35 " style="fill:#15d84d; stroke-width:1; stroke:black; " description="&lt;b&gt;ctg1_851&lt;/b&gt;&lt;br&gt;ctg1 851&lt;br&gt;Location: 900303 - 900579" locus_tag="ctg1_851" class="clusterblast-orf" id="dummy-4_q14_0_all"  />
<polygon points="364,35 369,30 376,30 376,40 369,40 364,35 " style="fill:#154dd8; stroke-width:1; stroke:black; " description="&lt;b&gt;ctg1_852&lt;/b&gt;&lt;br&gt;ctg1 852&lt;br&gt;Location: 900582 - 901074" locus_tag="ctg1_852" class="clusterblast-orf" id="dummy-4_q15_0_all"  />
<polygon points="376,35 381,30 392,30 392,40 381,40 376,35 " style="fill:#d815bc; stroke-width:1; stroke:black; " description="&lt;b&gt;ctg1_853&lt;/b&gt;&lt;br&gt;ctg1 853&lt;br&gt;Location: 901070 - 901703" locus_tag="ctg1_853" class="clusterblast-orf" id="dummy-4_q16_0_all"  />
<polygon points="392,35 397,30 403,30 403,40 397,40 392,35 " style="fill:#d8bc15; stroke-width:1; stroke:black; " description="&lt;b&gt;ctg1_854&lt;/b&gt;&lt;br&gt;ctg1 854&lt;br&gt;Location: 901702 - 902170" locus_tag="ctg1_854" class="clusterblast-orf" id="dummy-4_q17_0_all"  />
<polygon points="403,35 408,30 410,30 410,40 408,40 403,35 " style="fill:#d84d15; stroke-width:1; stroke:black; " description="&lt;b&gt;ctg1_855&lt;/b&gt;&lt;br&gt;ctg1 855&lt;br&gt;Location: 902191 - 902467" locus_tag="ctg1_855" class="clusterblast-orf" id="dummy-4_q18_0_all"  />
<polygon points="411,35 416,30 419,30 419,40 416,40 411,35 " style="fill:#15d885; stroke-width:1; stroke:black; " description="&lt;b&gt;ctg1_856&lt;/b&gt;&lt;br&gt;ctg1 856&lt;br&gt;Location: 902485 - 902836" locus_tag="ctg1_856" class="clusterblast-orf" id="dummy-4_q19_0_all"  />
<polygon points="419,35 424,30 463,30 463,40 424,40 419,35 " style="fill:#1515d8; stroke-width:1; stroke:black; " description="&lt;b&gt;ctg1_857&lt;/b&gt;&lt;br&gt;ctg1 857&lt;br&gt;Location: 902825 - 904658" locus_tag="ctg1_857" class="clusterblast-orf" id="dummy-4_q20_0_all"  />
<polygon points="464,35 469,30 476,30 476,40 469,40 464,35 " style="fill:#d81585; stroke-width:1; stroke:black; " description="&lt;b&gt;ctg1_858&lt;/b&gt;&lt;br&gt;ctg1 858&lt;br&gt;Location: 904670 - 905195" locus_tag="ctg1_858" class="clusterblast-orf" id="dummy-4_q21_0_all"  />
<polygon points="477,35 482,30 493,30 493,40 482,40 477,35 " style="fill:#bcd815; stroke-width:1; stroke:black; " description="&lt;b&gt;ctg1_859&lt;/b&gt;&lt;br&gt;ctg1 859&lt;br&gt;Location: 905209 - 905890" locus_tag="ctg1_859" class="clusterblast-orf" id="dummy-4_q22_0_all"  />
<polygon points="493,35 498,30 534,30 534,40 498,40 493,35 " style="fill:#15d8bc; stroke-width:1; stroke:black; " description="&lt;b&gt;ctg1_860&lt;/b&gt;&lt;br&gt;ctg1 860&lt;br&gt;Location: 905900 - 907565" locus_tag="ctg1_860" class="clusterblast-orf" id="dummy-4_q23_0_all"  />
<polygon points="534,35 539,30 554,30 554,40 539,40 534,35 " style="fill:#4d15d8; stroke-width:1; stroke:black; " description="&lt;b&gt;ctg1_861&lt;/b&gt;&lt;br&gt;ctg1 861&lt;br&gt;Location: 907583 - 908396" locus_tag="ctg1_861" class="clusterblast-orf" id="dummy-4_q24_0_all"  />
<polygon points="554,35 559,30 561,30 561,40 559,40 554,35 " style="fill:#d84d15; stroke-width:1; stroke:black; " description="&lt;b&gt;ctg1_862&lt;/b&gt;&lt;br&gt;ctg1 862&lt;br&gt;Location: 908392 - 908677" locus_tag="ctg1_862" class="clusterblast-orf" id="dummy-4_q25_0_all"  />
<polygon points="573,40 588,40 593,35 588,30 573,30 573,40 " style="fill:#d8154d; stroke-width:1; stroke:black; " description="&lt;b&gt;ctg1_863&lt;/b&gt;&lt;br&gt;ctg1 863&lt;br&gt;Location: 909201 - 910011" locus_tag="ctg1_863" class="clusterblast-orf" id="dummy-4_q26_0_all"  />
<polygon points="598,40 615,40 620,35 615,30 598,30 598,40 " style="fill:#85d815; stroke-width:1; stroke:black; " description="&lt;b&gt;ctg1_864&lt;/b&gt;&lt;br&gt;ctg1 864&lt;br&gt;Location: 910213 - 911125" locus_tag="ctg1_864" class="clusterblast-orf" id="dummy-4_q27_0_all"  />
<polygon points="633,40 662,40 667,35 662,30 633,30 633,40 " style="fill:white; stroke-width:1; stroke:black; " description="&lt;b&gt;ctg1_865&lt;/b&gt;&lt;br&gt;ctg1 865&lt;br&gt;Location: 911676 - 913053" locus_tag="ctg1_865" class="clusterblast-orf" id="dummy-4_q28_0_all"  />
<polygon points="667,40 685,40 690,35 685,30 667,30 667,40 " style="fill:white; stroke-width:1; stroke:black; " description="&lt;b&gt;ctg1_866&lt;/b&gt;&lt;br&gt;ctg1 866&lt;br&gt;Location: 913049 - 914009" locus_tag="ctg1_866" class="clusterblast-orf" id="dummy-4_q29_0_all"  />
<polygon points="690,40 701,40 706,35 701,30 690,30 690,40 " style="fill:white; stroke-width:1; stroke:black; " description="&lt;b&gt;ctg1_867&lt;/b&gt;&lt;br&gt;ctg1 867&lt;br&gt;Location: 914019 - 914655" locus_tag="ctg1_867" class="clusterblast-orf" id="dummy-4_q30_0_all"  />
<polygon points="705,40 728,40 733,35 728,30 705,30 705,40 " style="fill:white; stroke-width:1; stroke:black; " description="&lt;b&gt;ctg1_868&lt;/b&gt;&lt;br&gt;ctg1 868&lt;br&gt;Location: 914651 - 915791" locus_tag="ctg1_868" class="clusterblast-orf" id="dummy-4_q31_0_all"  />
<polygon points="733,40 743,40 748,35 743,30 733,30 733,40 " style="fill:white; stroke-width:1; stroke:black; " description="&lt;b&gt;ctg1_869&lt;/b&gt;&lt;br&gt;ctg1 869&lt;br&gt;Location: 915784 - 916390" locus_tag="ctg1_869" class="clusterblast-orf" id="dummy-4_q32_0_all"  />
<polygon points="747,40 756,40 761,35 756,30 747,30 747,40 " style="fill:white; stroke-width:1; stroke:black; " description="&lt;b&gt;ctg1_870&lt;/b&gt;&lt;br&gt;ctg1 870&lt;br&gt;Location: 916379 - 916949" locus_tag="ctg1_870" class="clusterblast-orf" id="dummy-4_q33_0_all"  />
<polygon points="761,40 775,40 780,35 775,30 761,30 761,40 " style="fill:white; stroke-width:1; stroke:black; " description="&lt;b&gt;ctg1_871&lt;/b&gt;&lt;br&gt;ctg1 871&lt;br&gt;Location: 916941 - 917715" locus_tag="ctg1_871" class="clusterblast-orf" id="dummy-4_q34_0_all"  />
</g>
<g label="MGC0000003" description="MGC0000003_c1: Ethanolamine degradation S. typhimurium (31% of genes show similarity), EUT" class="clusterblast-cluster"  >
<text x="5" y="70" class="clusterblast-acc"  >
MGC0000003_c1: Ethanolamine degradation S. typhimurium (31% of genes show similarity), EUT</text>
<line x1="10" y1="85" x2="778.0" y2="85" style="stroke-width:1; stroke:grey; "  />
</g>
<g id="a4_000"  >
<polygon points="169,85 174,80 194,80 194,90 174,90 169,85 " style="fill:white; stroke-width:1; stroke:black; " description="&lt;b&gt;STM2454&lt;/b&gt;&lt;br&gt;HTH-type transcriptional regulator EutR&lt;br&gt;Location: 102 - 1155" locus_tag="STM2454" class="clusterblast-orf" id="dummy-4_h4_2_0"  />
</g>
<g id="a4_001"  >
<polygon points="196,85 201,80 208,80 208,90 201,90 196,85 " style="fill:#d84d15; stroke-width:1; stroke:black; " description="&lt;b&gt;STM2455&lt;/b&gt;&lt;br&gt;carboxysome structural protein EutK&lt;br&gt;Location: 1202 - 1697&lt;br&gt;&lt;br&gt;&lt;b&gt;BlastP hit with ctg1_855&lt;/b&gt;&lt;br&gt;Percentage identity: 48&lt;br&gt;Percentage coverage: 96&lt;br&gt;BLAST bit score: 79&lt;br&gt;E-value: 6.59e-22&lt;br&gt;&lt;br&gt;&lt;b&gt;BlastP hit with ctg1_862&lt;/b&gt;&lt;br&gt;Percentage identity: 44&lt;br&gt;Percentage coverage: 89&lt;br&gt;BLAST bit score: 68&lt;br&gt;E-value: 7.97e-18" locus_tag="STM2455" class="clusterblast-orf" id="dummy-4_h4_2_1"  />
</g>
<g id="a4_002"  >
<polygon points="208,85 213,80 224,80 224,90 213,90 208,85 " style="fill:white; stroke-width:1; stroke:black; " description="&lt;b&gt;STM2456&lt;/b&gt;&lt;br&gt;carboxysome structural protein EutL&lt;br&gt;Location: 1709 - 2369" locus_tag="STM2456" class="clusterblast-orf" id="dummy-4_h4_2_2"  />
</g>
<g id="a4_003"  >
<polygon points="224,85 229,80 246,80 246,90 229,90 224,85 " style="fill:white; stroke-width:1; stroke:black; " description="&lt;b&gt;STM2457&lt;/b&gt;&lt;br&gt;ethanolamine ammonia-lyase small subunit EutC&lt;br&gt;Location: 2378 - 3275" locus_tag="STM2457" class="clusterblast-orf" id="dummy-4_h4_2_3"  />
</g>
<g id="a4_004"  >
<polygon points="246,85 251,80 279,80 279,90 251,90 246,85 " style="fill:white; stroke-width:1; stroke:black; " description="&lt;b&gt;STM2458&lt;/b&gt;&lt;br&gt;ethanolamine ammonia-lyase large subunit EutB&lt;br&gt;Location: 3293 - 4655" locus_tag="STM2458" class="clusterblast-orf" id="dummy-4_h4_2_4"  />
</g>
<g id="a4_005"  >
<polygon points="280,85 285,80 314,80 314,90 285,90 280,85 " style="fill:white; stroke-width:1; stroke:black; " description="&lt;b&gt;STM2459&lt;/b&gt;&lt;br&gt;ethanolamine utilization protein EutA&lt;br&gt;Location: 4666 - 6070" locus_tag="STM2459" class="clusterblast-orf" id="dummy-4_h4_2_5"  />
</g>
<g id="a4_006"  >
<polygon points="313,85 318,80 343,80 343,90 318,90 313,85 " style="fill:white; stroke-width:1; stroke:black; " description="&lt;b&gt;STM2460&lt;/b&gt;&lt;br&gt;ethanolamine transporter EutH&lt;br&gt;Location: 6066 - 7293" locus_tag="STM2460" class="clusterblast-orf" id="dummy-4_h4_2_6"  />
</g>
<g id="a4_007"  >
<polygon points="346,85 351,80 375,80 375,90 351,90 346,85 " style="fill:#1585d8; stroke-width:1; stroke:black; " description="&lt;b&gt;STM2461&lt;/b&gt;&lt;br&gt;ethanol dehydrogenase EutG&lt;br&gt;Location: 7412 - 8600&lt;br&gt;&lt;br&gt;&lt;b&gt;BlastP hit with ctg1_848&lt;/b&gt;&lt;br&gt;Percentage identity: 38&lt;br&gt;Percentage coverage: 102&lt;br&gt;BLAST bit score: 189&lt;br&gt;E-value: 2.65e-58" locus_tag="STM2461" class="clusterblast-orf" id="dummy-4_h4_2_7"  />
</g>
<g id="a4_008"  >
<polygon points="375,85 380,80 395,80 395,90 380,90 375,85 " style="fill:white; stroke-width:1; stroke:black; " description="&lt;b&gt;STM2462&lt;/b&gt;&lt;br&gt;ethanolamine utilization protein EutJ&lt;br&gt;Location: 8589 - 9429" locus_tag="STM2462" class="clusterblast-orf" id="dummy-4_h4_2_8"  />
</g>
<g id="a4_009"  >
<polygon points="395,85 400,80 429,80 429,90 400,90 395,85 " style="fill:#bc15d8; stroke-width:1; stroke:black; " description="&lt;b&gt;STM2463&lt;/b&gt;&lt;br&gt;aldehyde oxidoreductase EutE&lt;br&gt;Location: 9439 - 10843&lt;br&gt;&lt;br&gt;&lt;b&gt;BlastP hit with ctg1_849&lt;/b&gt;&lt;br&gt;Percentage identity: 46&lt;br&gt;Percentage coverage: 102&lt;br&gt;BLAST bit score: 386&lt;br&gt;E-value: 9.63e-133" locus_tag="STM2463" class="clusterblast-orf" id="dummy-4_h4_2_9"  />
</g>
<g id="a4_0010"  >
<polygon points="430,85 435,80 437,80 437,90 435,90 430,85 " style="fill:#15d84d; stroke-width:1; stroke:black; " description="&lt;b&gt;STM2464&lt;/b&gt;&lt;br&gt;microcompartment shell protein EutN&lt;br&gt;Location: 10854 - 11142&lt;br&gt;&lt;br&gt;&lt;b&gt;BlastP hit with ctg1_851&lt;/b&gt;&lt;br&gt;Percentage identity: 44&lt;br&gt;Percentage coverage: 98&lt;br&gt;BLAST bit score: 65&lt;br&gt;E-value: 3.37e-17" locus_tag="STM2464" class="clusterblast-orf" id="dummy-4_h4_2_10"  />
</g>
<g id="a4_0011"  >
<polygon points="439,85 444,80 446,80 446,90 444,90 439,85 " style="fill:#d84d15; stroke-width:1; stroke:black; " description="&lt;b&gt;STM2465&lt;/b&gt;&lt;br&gt;carboxysome structural protein EutM&lt;br&gt;Location: 11254 - 11545&lt;br&gt;&lt;br&gt;&lt;b&gt;BlastP hit with ctg1_855&lt;/b&gt;&lt;br&gt;Percentage identity: 63&lt;br&gt;Percentage coverage: 96&lt;br&gt;BLAST bit score: 106&lt;br&gt;E-value: 9.67e-34&lt;br&gt;&lt;br&gt;&lt;b&gt;BlastP hit with ctg1_862&lt;/b&gt;&lt;br&gt;Percentage identity: 66&lt;br&gt;Percentage coverage: 99&lt;br&gt;BLAST bit score: 111&lt;br&gt;E-value: 1.14e-35" locus_tag="STM2465" class="clusterblast-orf" id="dummy-4_h4_2_11"  />
</g>
<g id="a4_0012"  >
<polygon points="447,85 452,80 472,80 472,90 452,90 447,85 " style="fill:white; stroke-width:1; stroke:black; " description="&lt;b&gt;STM2466&lt;/b&gt;&lt;br&gt;phosphotransacetylase EutD&lt;br&gt;Location: 11585 - 12602" locus_tag="STM2466" class="clusterblast-orf" id="dummy-4_h4_2_12"  />
</g>
<g id="a4_0013"  >
<polygon points="472,85 477,80 491,80 491,90 477,90 472,85 " style="fill:white; stroke-width:1; stroke:black; " description="&lt;b&gt;STM2467&lt;/b&gt;&lt;br&gt;cobalamin adenosyltransferase EutT&lt;br&gt;Location: 12598 - 13402" locus_tag="STM2467" class="clusterblast-orf" id="dummy-4_h4_2_13"  />
</g>
<g id="a4_0014"  >
<polygon points="491,85 496,80 508,80 508,90 496,90 491,85 " style="fill:white; stroke-width:1; stroke:black; " description="&lt;b&gt;STM2468&lt;/b&gt;&lt;br&gt;ethanolamine utilization protein EutQ&lt;br&gt;Location: 13398 - 14088" locus_tag="STM2468" class="clusterblast-orf" id="dummy-4_h4_2_14"  />
</g>
<g id="a4_0015"  >
<polygon points="507,85 512,80 519,80 519,90 512,90 507,85 " style="fill:white; stroke-width:1; stroke:black; " description="&lt;b&gt;STM2469&lt;/b&gt;&lt;br&gt;ethanolamine utilization protein EutP&lt;br&gt;Location: 14065 - 14545" locus_tag="STM2469" class="clusterblast-orf" id="dummy-4_h4_2_15"  />
</g>
<g id="a4_0016"  >
<polygon points="519,85 524,80 527,80 527,90 524,90 519,85 " style="fill:#8515d8; stroke-width:1; stroke:black; " description="&lt;b&gt;STM2470&lt;/b&gt;&lt;br&gt;carboxysome structural protein EutS&lt;br&gt;Location: 14557 - 14893&lt;br&gt;&lt;br&gt;&lt;b&gt;BlastP hit with ctg1_845&lt;/b&gt;&lt;br&gt;Percentage identity: 61&lt;br&gt;Percentage coverage: 93&lt;br&gt;BLAST bit score: 129&lt;br&gt;E-value: 4.19e-42" locus_tag="STM2470" class="clusterblast-orf" id="dummy-4_h4_2_16"  />
</g>
<g id="a4_0017"  >
<polygon points="539,85 544,80 550,80 550,90 544,90 539,85 " style="fill:white; stroke-width:1; stroke:black; " description="&lt;b&gt;STM2471&lt;/b&gt;&lt;br&gt;insertion sequence element IS200 transposase&lt;br&gt;Location: 15373 - 15832" locus_tag="STM2471" class="clusterblast-orf" id="dummy-4_h4_2_17"  />
</g>
<g id="a4_0018"  >
<polygon points="555,85 560,80 610,80 610,90 560,90 555,85 " style="fill:white; stroke-width:1; stroke:black; " description="&lt;b&gt;STM2472&lt;/b&gt;&lt;br&gt;malic enzyme&lt;br&gt;Location: 16021 - 18301" locus_tag="STM2472" class="clusterblast-orf" id="dummy-4_h4_2_18"  />
</g>
</svg>
