<svg xmlns="http://www.w3.org/2000/svg" xmlns:xlink="http://www.w3.org/1999/xlink" version="1.1" x="0" y="0" height="250" width="800" viewBox="0 0 800 250" preserveAspectRatio="none"  >
<g label="Query sequence" class="clusterblast-cluster"  >
<text x="5" y="20" class="clusterblast-acc"  >
Query sequence</text>
<line x1="10" y1="35" x2="778.0" y2="35" style="stroke-width:1; stroke:grey; "  />
<polygon points="0,35 5,30 8,30 8,40 5,40 0,35 " style="fill:white; stroke-width:1; stroke:black; " description="&lt;b&gt;ctg1_3386&lt;/b&gt;&lt;br&gt;ctg1 3386&lt;br&gt;Location: 3588423 - 3588711" locus_tag="ctg1_3386" class="clusterblast-orf" id="knownclusterblast-18_q0_0_all"  />
<polygon points="13,35 18,30 61,30 61,40 18,40 13,35 " style="fill:white; stroke-width:1; stroke:black; " description="&lt;b&gt;ctg1_3387&lt;/b&gt;&lt;br&gt;ctg1 3387&lt;br&gt;Location: 3588862 - 3590536" locus_tag="ctg1_3387" class="clusterblast-orf" id="knownclusterblast-18_q1_0_all"  />
<polygon points="65,35 70,30 85,30 85,40 70,40 65,35 " style="fill:white; stroke-width:1; stroke:black; " description="&lt;b&gt;ctg1_3388&lt;/b&gt;&lt;br&gt;ctg1 3388&lt;br&gt;Location: 3590669 - 3591353" locus_tag="ctg1_3388" class="clusterblast-orf" id="knownclusterblast-18_q2_0_all"  />
<polygon points="90,35 95,30 127,30 127,40 95,40 90,35 " style="fill:white; stroke-width:1; stroke:black; " description="&lt;b&gt;ctg1_3389&lt;/b&gt;&lt;br&gt;ctg1 3389&lt;br&gt;Location: 3591527 - 3592811" locus_tag="ctg1_3389" class="clusterblast-orf" id="knownclusterblast-18_q3_0_all"  />
<polygon points="129,35 134,30 161,30 161,40 134,40 129,35 " style="fill:white; stroke-width:1; stroke:black; " description="&lt;b&gt;ctg1_3390&lt;/b&gt;&lt;br&gt;ctg1 3390&lt;br&gt;Location: 3592884 - 3593973" locus_tag="ctg1_3390" class="clusterblast-orf" id="knownclusterblast-18_q4_0_all"  />
<polygon points="166,35 171,30 186,30 186,40 171,40 166,35 " style="fill:white; stroke-width:1; stroke:black; " description="&lt;b&gt;ctg1_3391&lt;/b&gt;&lt;br&gt;ctg1 3391&lt;br&gt;Location: 3594161 - 3594854" locus_tag="ctg1_3391" class="clusterblast-orf" id="knownclusterblast-18_q5_0_all"  />
<polygon points="190,40 236,40 241,35 236,30 190,30 190,40 " style="fill:white; stroke-width:1; stroke:black; " description="&lt;b&gt;ctg1_3392&lt;/b&gt;&lt;br&gt;ctg1 3392&lt;br&gt;Location: 3594970 - 3596731" locus_tag="ctg1_3392" class="clusterblast-orf" id="knownclusterblast-18_q6_0_all"  />
<polygon points="252,40 272,40 277,35 272,30 252,30 252,40 " style="fill:white; stroke-width:1; stroke:black; " description="&lt;b&gt;ctg1_3393&lt;/b&gt;&lt;br&gt;ctg1 3393&lt;br&gt;Location: 3597115 - 3597973" locus_tag="ctg1_3393" class="clusterblast-orf" id="knownclusterblast-18_q7_0_all"  />
<polygon points="278,40 340,40 345,35 340,30 278,30 278,40 " style="fill:#d81515; stroke-width:1; stroke:black; " description="&lt;b&gt;ctg1_3394&lt;/b&gt;&lt;br&gt;ctg1 3394&lt;br&gt;Location: 3598024 - 3600307" locus_tag="ctg1_3394" class="clusterblast-orf" id="knownclusterblast-18_q8_0_all"  />
<polygon points="350,40 367,40 372,35 367,30 350,30 350,40 " style="fill:#15d863; stroke-width:1; stroke:black; " description="&lt;b&gt;ctg1_3395&lt;/b&gt;&lt;br&gt;ctg1 3395&lt;br&gt;Location: 3600498 - 3601239" locus_tag="ctg1_3395" class="clusterblast-orf" id="knownclusterblast-18_q9_0_all"  />
<polygon points="376,35 381,30 410,30 410,40 381,40 376,35 " style="fill:white; stroke-width:1; stroke:black; " description="&lt;b&gt;ctg1_3396&lt;/b&gt;&lt;br&gt;ctg1 3396&lt;br&gt;Location: 3601404 - 3602553" locus_tag="ctg1_3396" class="clusterblast-orf" id="knownclusterblast-18_q10_0_all"  />
<polygon points="418,35 423,30 443,30 443,40 423,40 418,35 " style="fill:#1563d8; stroke-width:1; stroke:black; " description="&lt;b&gt;ctg1_3397&lt;/b&gt;&lt;br&gt;ctg1 3397&lt;br&gt;Location: 3602828 - 3603692" locus_tag="ctg1_3397" class="clusterblast-orf" id="knownclusterblast-18_q11_0_all"  />
<polygon points="443,35 448,30 461,30 461,40 448,40 443,35 " style="fill:#b115d8; stroke-width:1; stroke:black; " description="&lt;b&gt;ctg1_3398&lt;/b&gt;&lt;br&gt;ctg1 3398&lt;br&gt;Location: 3603693 - 3604311" locus_tag="ctg1_3398" class="clusterblast-orf" id="knownclusterblast-18_q12_0_all"  />
<polygon points="461,35 466,30 532,30 532,40 466,40 461,35 " style="fill:#b1d815; stroke-width:1; stroke:black; " description="&lt;b&gt;ctg1_3399&lt;/b&gt;&lt;br&gt;ctg1 3399&lt;br&gt;Location: 3604321 - 3606760" locus_tag="ctg1_3399" class="clusterblast-orf" id="knownclusterblast-18_q13_0_all"  />
<polygon points="538,35 543,30 575,30 575,40 543,40 538,35 " style="fill:white; stroke-width:1; stroke:black; " description="&lt;b&gt;ctg1_3400&lt;/b&gt;&lt;br&gt;ctg1 3400&lt;br&gt;Location: 3606960 - 3608253" locus_tag="ctg1_3400" class="clusterblast-orf" id="knownclusterblast-18_q14_0_all"  />
<polygon points="578,35 583,30 617,30 617,40 583,40 578,35 " style="fill:white; stroke-width:1; stroke:black; " description="&lt;b&gt;ctg1_3401&lt;/b&gt;&lt;br&gt;ctg1 3401&lt;br&gt;Location: 3608344 - 3609688" locus_tag="ctg1_3401" class="clusterblast-orf" id="knownclusterblast-18_q15_0_all"  />
<polygon points="617,35 622,30 635,30 635,40 622,40 617,35 " style="fill:white; stroke-width:1; stroke:black; " description="&lt;b&gt;ctg1_3402&lt;/b&gt;&lt;br&gt;ctg1 3402&lt;br&gt;Location: 3609696 - 3610308" locus_tag="ctg1_3402" class="clusterblast-orf" id="knownclusterblast-18_q16_0_all"  />
<polygon points="638,35 643,30 762,30 762,40 643,40 638,35 " style="fill:white; stroke-width:1; stroke:black; " description="&lt;b&gt;ctg1_3403&lt;/b&gt;&lt;br&gt;ctg1 3403&lt;br&gt;Location: 3610430 - 3614675" locus_tag="ctg1_3403" class="clusterblast-orf" id="knownclusterblast-18_q17_0_all"  />
<polygon points="765,35 770,30 780,30 780,40 770,40 765,35 " style="fill:white; stroke-width:1; stroke:black; " description="&lt;b&gt;ctg1_3404&lt;/b&gt;&lt;br&gt;ctg1 3404&lt;br&gt;Location: 3614810 - 3615305" locus_tag="ctg1_3404" class="clusterblast-orf" id="knownclusterblast-18_q18_0_all"  />
</g>
<g label="MGC00000046" description="MGC00000046_c1: DMSO-TMAO reducatse E. coli (100% of genes show similarity), DMSAO-TMAO" class="clusterblast-cluster"  >
<text x="5" y="70" class="clusterblast-acc"  >
MGC00000046_c1: DMSO-TMAO reducatse E. coli (100% of genes show similarity), DMSAO-TMAO</text>
<line x1="10" y1="85" x2="778.0" y2="85" style="stroke-width:1; stroke:grey; "  />
</g>
<g id="a18_000"  >
<polygon points="297,85 302,80 322,80 322,90 302,90 297,85 " style="fill:#1563d8; stroke-width:1; stroke:black; " description="&lt;b&gt;b1590&lt;/b&gt;&lt;br&gt;putative menaquinol dehydrogenase&lt;br&gt;Location: 16395 - 15540&lt;br&gt;&lt;br&gt;&lt;b&gt;BlastP hit with ctg1_3397&lt;/b&gt;&lt;br&gt;Percentage identity: 60&lt;br&gt;Percentage coverage: 100&lt;br&gt;BLAST bit score: 323&lt;br&gt;E-value: 1.44e-113" locus_tag="b1590" class="clusterblast-orf" id="knownclusterblast-18_all_18_1_0"  />
</g>
<g id="a18_001"  >
<polygon points="322,85 327,80 339,80 339,90 327,90 322,85 " style="fill:#b115d8; stroke-width:1; stroke:black; " description="&lt;b&gt;b1589&lt;/b&gt;&lt;br&gt;putative oxidoreductase YnfG&lt;br&gt;Location: 15539 - 14921&lt;br&gt;&lt;br&gt;&lt;b&gt;BlastP hit with ctg1_3398&lt;/b&gt;&lt;br&gt;Percentage identity: 89&lt;br&gt;Percentage coverage: 100&lt;br&gt;BLAST bit score: 412&lt;br&gt;E-value: 4.94e-151" locus_tag="b1589" class="clusterblast-orf" id="knownclusterblast-18_all_18_1_1"  />
</g>
<g id="a18_002"  >
<polygon points="340,85 345,80 410,80 410,90 345,90 340,85 " style="fill:#b1d815; stroke-width:1; stroke:black; " description="&lt;b&gt;b1588&lt;/b&gt;&lt;br&gt;putative selenate reductase YnfF&lt;br&gt;Location: 14911 - 12487&lt;br&gt;&lt;br&gt;&lt;b&gt;BlastP hit with ctg1_3399&lt;/b&gt;&lt;br&gt;Percentage identity: 66&lt;br&gt;Percentage coverage: 100&lt;br&gt;BLAST bit score: 1115&lt;br&gt;E-value: 0.0" locus_tag="b1588" class="clusterblast-orf" id="knownclusterblast-18_all_18_1_2"  />
</g>
<g id="a18_003"  >
<polygon points="412,85 417,80 482,80 482,90 417,90 412,85 " style="fill:#b1d815; stroke-width:1; stroke:black; " description="&lt;b&gt;b1587&lt;/b&gt;&lt;br&gt;putative selenate reductase YnfE&lt;br&gt;Location: 12427 - 10000&lt;br&gt;&lt;br&gt;&lt;b&gt;BlastP hit with ctg1_3399&lt;/b&gt;&lt;br&gt;Percentage identity: 68&lt;br&gt;Percentage coverage: 99&lt;br&gt;BLAST bit score: 1131&lt;br&gt;E-value: 0.0" locus_tag="b1587" class="clusterblast-orf" id="knownclusterblast-18_all_18_1_3"  />
</g>
<g label="MGC00000044" description="MGC00000044_c1: Pyruvate to acetate-formate E. coli (100% of genes show similarity), PFL_acetate" class="clusterblast-cluster"  >
<text x="5" y="120" class="clusterblast-acc"  >
MGC00000044_c1: Pyruvate to acetate-formate E. coli (100% of genes show similarity), PFL_acetate</text>
<line x1="10" y1="135" x2="778.0" y2="135" style="stroke-width:1; stroke:grey; "  />
</g>
<g id="a18_000"  >
<polygon points="343,140 404,140 409,135 404,130 343,130 343,140 " style="fill:#d81515; stroke-width:1; stroke:black; " description="&lt;b&gt;b0903&lt;/b&gt;&lt;br&gt;pyruvate formate-lyase&lt;br&gt;Location: 13215 - 10932&lt;br&gt;&lt;br&gt;&lt;b&gt;BlastP hit with ctg1_3394&lt;/b&gt;&lt;br&gt;Percentage identity: 95&lt;br&gt;Percentage coverage: 100&lt;br&gt;BLAST bit score: 1449&lt;br&gt;E-value: 0.0" locus_tag="b0903" class="clusterblast-orf" id="knownclusterblast-18_all_18_2_0"  />
</g>
<g id="a18_001"  >
<polygon points="415,140 431,140 436,135 431,130 415,130 415,140 " style="fill:#15d863; stroke-width:1; stroke:black; " description="&lt;b&gt;b0902&lt;/b&gt;&lt;br&gt;pyruvate formate-lyase activating enzyme&lt;br&gt;Location: 10741 - 10000&lt;br&gt;&lt;br&gt;&lt;b&gt;BlastP hit with ctg1_3395&lt;/b&gt;&lt;br&gt;Percentage identity: 97&lt;br&gt;Percentage coverage: 100&lt;br&gt;BLAST bit score: 511&lt;br&gt;E-value: 7.55e-189" locus_tag="b0902" class="clusterblast-orf" id="knownclusterblast-18_all_18_2_1"  />
</g>
<g label="MGC00000031" description="MGC00000031_c1: Pyruvate to acetate and formate C. acetobutylicum (100% of genes show similarity), PFL_acetate" class="clusterblast-cluster"  >
<text x="5" y="170" class="clusterblast-acc"  >
MGC00000031_c1: Pyruvate to acetate and formate C. acetobutylicum (100% of genes show similarity), PFL_acetate</text>
<line x1="10" y1="185" x2="778.0" y2="185" style="stroke-width:1; stroke:grey; "  />
</g>
<g id="a18_000"  >
<polygon points="347,190 406,190 411,185 406,180 347,180 347,190 " style="fill:#d81515; stroke-width:1; stroke:black; " description="&lt;b&gt;CA_C0980&lt;/b&gt;&lt;br&gt;Pyruvate-formate lyase&lt;br&gt;Location: 10000 - 12232&lt;br&gt;&lt;br&gt;&lt;b&gt;BlastP hit with ctg1_3394&lt;/b&gt;&lt;br&gt;Percentage identity: 60&lt;br&gt;Percentage coverage: 98&lt;br&gt;BLAST bit score: 897&lt;br&gt;E-value: 0.0" locus_tag="CA_C0980" class="clusterblast-orf" id="knownclusterblast-18_all_18_3_0"  />
</g>
<g id="a18_001"  >
<polygon points="412,190 427,190 432,185 427,180 412,180 412,190 " style="fill:#15d863; stroke-width:1; stroke:black; " description="&lt;b&gt;CA_C0981&lt;/b&gt;&lt;br&gt;Pyruvate-formate-lyase-activating enzyme&lt;br&gt;Location: 12242 - 12956&lt;br&gt;&lt;br&gt;&lt;b&gt;BlastP hit with ctg1_3395&lt;/b&gt;&lt;br&gt;Percentage identity: 44&lt;br&gt;Percentage coverage: 98&lt;br&gt;BLAST bit score: 215&lt;br&gt;E-value: 2.7e-72" locus_tag="CA_C0981" class="clusterblast-orf" id="knownclusterblast-18_all_18_3_1"  />
</g>
<g label="MGC00000034" description="MGC00000034_c1: Pyruvate to acetate-formate B. thetaiotaomicron (100% of genes show similarity), PFL_acetate" class="clusterblast-cluster"  >
<text x="5" y="220" class="clusterblast-acc"  >
MGC00000034_c1: Pyruvate to acetate-formate B. thetaiotaomicron (100% of genes show similarity), PFL_acetate</text>
<line x1="10" y1="235" x2="778.0" y2="235" style="stroke-width:1; stroke:grey; "  />
</g>
<g id="a18_000"  >
<polygon points="346,240 406,240 411,235 406,230 346,230 346,240 " style="fill:#d81515; stroke-width:1; stroke:black; " description="&lt;b&gt;BT_4738&lt;/b&gt;&lt;br&gt;formate acetyltransferase&lt;br&gt;Location: 12971 - 10742&lt;br&gt;&lt;br&gt;&lt;b&gt;BlastP hit with ctg1_3394&lt;/b&gt;&lt;br&gt;Percentage identity: 58&lt;br&gt;Percentage coverage: 98&lt;br&gt;BLAST bit score: 818&lt;br&gt;E-value: 5.99e-294" locus_tag="BT_4738" class="clusterblast-orf" id="knownclusterblast-18_all_18_4_0"  />
</g>
<g id="a18_001"  >
<polygon points="411,240 428,240 433,235 428,230 411,230 411,240 " style="fill:#15d863; stroke-width:1; stroke:black; " description="&lt;b&gt;BT_4737&lt;/b&gt;&lt;br&gt;pyruvate formate-lyase activating enzyme&lt;br&gt;Location: 10729 - 10000&lt;br&gt;&lt;br&gt;&lt;b&gt;BlastP hit with ctg1_3395&lt;/b&gt;&lt;br&gt;Percentage identity: 43&lt;br&gt;Percentage coverage: 96&lt;br&gt;BLAST bit score: 208&lt;br&gt;E-value: 2.36e-69" locus_tag="BT_4737" class="clusterblast-orf" id="knownclusterblast-18_all_18_4_1"  />
</g>
</svg>
