<svg xmlns="http://www.w3.org/2000/svg" xmlns:xlink="http://www.w3.org/1999/xlink" version="1.1" x="0" y="0" height="230" width="800" viewBox="0 0 800 230" preserveAspectRatio="none"  >
<g label="Query sequence" class="clusterblast-cluster"  >
<text x="5" y="20" class="clusterblast-acc"  >
Query sequence</text>
<line x1="10" y1="35" x2="778.0" y2="35" style="stroke-width:1; stroke:grey; "  />
<polygon points="0,35 5,30 33,30 33,40 5,40 0,35 " style="fill:white; stroke-width:1; stroke:black; " description="&lt;b&gt;ctg1_4962&lt;/b&gt;&lt;br&gt;ctg1 4962&lt;br&gt;Location: 5368620 - 5369616" locus_tag="ctg1_4962" class="clusterblast-orf" id="dummy-27_q0_0_all"  />
<polygon points="36,35 41,30 54,30 54,40 41,40 36,35 " style="fill:white; stroke-width:1; stroke:black; " description="&lt;b&gt;ctg1_4963&lt;/b&gt;&lt;br&gt;ctg1 4963&lt;br&gt;Location: 5369703 - 5370252" locus_tag="ctg1_4963" class="clusterblast-orf" id="dummy-27_q1_0_all"  />
<polygon points="58,40 75,40 80,35 75,30 58,30 58,40 " style="fill:white; stroke-width:1; stroke:black; " description="&lt;b&gt;ctg1_4964&lt;/b&gt;&lt;br&gt;ctg1 4964&lt;br&gt;Location: 5370352 - 5371012" locus_tag="ctg1_4964" class="clusterblast-orf" id="dummy-27_q2_0_all"  />
<polygon points="80,40 85,40 90,35 85,30 80,30 80,40 " style="fill:white; stroke-width:1; stroke:black; " description="&lt;b&gt;ctg1_4965&lt;/b&gt;&lt;br&gt;ctg1 4965&lt;br&gt;Location: 5371011 - 5371335" locus_tag="ctg1_4965" class="clusterblast-orf" id="dummy-27_q3_0_all"  />
<polygon points="90,35 95,30 110,30 110,40 95,40 90,35 " style="fill:white; stroke-width:1; stroke:black; " description="&lt;b&gt;ctg1_4966&lt;/b&gt;&lt;br&gt;ctg1 4966&lt;br&gt;Location: 5371331 - 5371925" locus_tag="ctg1_4966" class="clusterblast-orf" id="dummy-27_q4_0_all"  />
<polygon points="110,35 115,30 125,30 125,40 115,40 110,35 " style="fill:white; stroke-width:1; stroke:black; " description="&lt;b&gt;ctg1_4967&lt;/b&gt;&lt;br&gt;ctg1 4967&lt;br&gt;Location: 5371921 - 5372359" locus_tag="ctg1_4967" class="clusterblast-orf" id="dummy-27_q5_0_all"  />
<polygon points="125,35 130,30 134,30 134,40 130,40 125,35 " style="fill:white; stroke-width:1; stroke:black; " description="&lt;b&gt;ctg1_4968&lt;/b&gt;&lt;br&gt;ctg1 4968&lt;br&gt;Location: 5372368 - 5372638" locus_tag="ctg1_4968" class="clusterblast-orf" id="dummy-27_q6_0_all"  />
<polygon points="136,35 141,30 164,30 164,40 141,40 136,35 " style="fill:white; stroke-width:1; stroke:black; " description="&lt;b&gt;ctg1_4969&lt;/b&gt;&lt;br&gt;ctg1 4969&lt;br&gt;Location: 5372696 - 5373545" locus_tag="ctg1_4969" class="clusterblast-orf" id="dummy-27_q7_0_all"  />
<polygon points="163,35 168,30 209,30 209,40 168,40 163,35 " style="fill:white; stroke-width:1; stroke:black; " description="&lt;b&gt;ctg1_4970&lt;/b&gt;&lt;br&gt;ctg1 4970&lt;br&gt;Location: 5373525 - 5374893" locus_tag="ctg1_4970" class="clusterblast-orf" id="dummy-27_q8_0_all"  />
<polygon points="209,35 214,30 219,30 219,40 214,40 209,35 " style="fill:white; stroke-width:1; stroke:black; " description="&lt;b&gt;ctg1_4971&lt;/b&gt;&lt;br&gt;ctg1 4971&lt;br&gt;Location: 5374885 - 5375200" locus_tag="ctg1_4971" class="clusterblast-orf" id="dummy-27_q9_0_all"  />
<polygon points="220,35 225,30 252,30 252,40 225,40 220,35 " style="fill:white; stroke-width:1; stroke:black; " description="&lt;b&gt;ctg1_4972&lt;/b&gt;&lt;br&gt;ctg1 4972&lt;br&gt;Location: 5375211 - 5376192" locus_tag="ctg1_4972" class="clusterblast-orf" id="dummy-27_q10_0_all"  />
<polygon points="266,35 271,30 273,30 273,40 271,40 266,35 " style="fill:white; stroke-width:1; stroke:black; " description="&lt;b&gt;ctg1_4973&lt;/b&gt;&lt;br&gt;ctg1 4973&lt;br&gt;Location: 5376585 - 5376798" locus_tag="ctg1_4973" class="clusterblast-orf" id="dummy-27_q11_0_all"  />
<polygon points="277,35 282,30 305,30 305,40 282,40 277,35 " style="fill:white; stroke-width:1; stroke:black; " description="&lt;b&gt;ctg1_4974&lt;/b&gt;&lt;br&gt;ctg1 4974&lt;br&gt;Location: 5376926 - 5377763" locus_tag="ctg1_4974" class="clusterblast-orf" id="dummy-27_q12_0_all"  />
<polygon points="310,40 325,40 330,35 325,30 310,30 310,40 " style="fill:#d81515; stroke-width:1; stroke:black; " description="&lt;b&gt;ctg1_4975&lt;/b&gt;&lt;br&gt;ctg1 4975&lt;br&gt;Location: 5377919 - 5378507" locus_tag="ctg1_4975" class="clusterblast-orf" id="dummy-27_q13_0_all"  />
<polygon points="331,40 407,40 412,35 407,30 331,30 331,40 " style="fill:#d81515; stroke-width:1; stroke:black; " description="&lt;b&gt;ctg1_4976&lt;/b&gt;&lt;br&gt;ctg1 4976&lt;br&gt;Location: 5378555 - 5380970" locus_tag="ctg1_4976" class="clusterblast-orf" id="dummy-27_q14_0_all"  />
<polygon points="412,40 437,40 442,35 437,30 412,30 412,40 " style="fill:#15d815; stroke-width:1; stroke:black; " description="&lt;b&gt;ctg1_4977&lt;/b&gt;&lt;br&gt;ctg1 4977&lt;br&gt;Location: 5380982 - 5381885" locus_tag="ctg1_4977" class="clusterblast-orf" id="dummy-27_q15_0_all"  />
<polygon points="442,40 459,40 464,35 459,30 442,30 442,40 " style="fill:#1515d8; stroke-width:1; stroke:black; " description="&lt;b&gt;ctg1_4978&lt;/b&gt;&lt;br&gt;ctg1 4978&lt;br&gt;Location: 5381881 - 5382517" locus_tag="ctg1_4978" class="clusterblast-orf" id="dummy-27_q16_0_all"  />
<polygon points="463,40 489,40 494,35 489,30 463,30 463,40 " style="fill:white; stroke-width:1; stroke:black; " description="&lt;b&gt;ctg1_4979&lt;/b&gt;&lt;br&gt;ctg1 4979&lt;br&gt;Location: 5382513 - 5383443" locus_tag="ctg1_4979" class="clusterblast-orf" id="dummy-27_q17_0_all"  />
<polygon points="500,35 505,30 513,30 513,40 505,40 500,35 " style="fill:white; stroke-width:1; stroke:black; " description="&lt;b&gt;ctg1_4980&lt;/b&gt;&lt;br&gt;ctg1 4980&lt;br&gt;Location: 5383616 - 5384000" locus_tag="ctg1_4980" class="clusterblast-orf" id="dummy-27_q18_0_all"  />
<polygon points="513,35 518,30 521,30 521,40 518,40 513,35 " style="fill:white; stroke-width:1; stroke:black; " description="&lt;b&gt;ctg1_4981&lt;/b&gt;&lt;br&gt;ctg1 4981&lt;br&gt;Location: 5383999 - 5384248" locus_tag="ctg1_4981" class="clusterblast-orf" id="dummy-27_q19_0_all"  />
<polygon points="528,40 553,40 558,35 553,30 528,30 528,40 " style="fill:white; stroke-width:1; stroke:black; " description="&lt;b&gt;ctg1_4982&lt;/b&gt;&lt;br&gt;ctg1 4982&lt;br&gt;Location: 5384446 - 5385364" locus_tag="ctg1_4982" class="clusterblast-orf" id="dummy-27_q20_0_all"  />
<polygon points="559,35 564,30 590,30 590,40 564,40 559,35 " style="fill:white; stroke-width:1; stroke:black; " description="&lt;b&gt;ctg1_4983&lt;/b&gt;&lt;br&gt;ctg1 4983&lt;br&gt;Location: 5385378 - 5386320" locus_tag="ctg1_4983" class="clusterblast-orf" id="dummy-27_q21_0_all"  />
<polygon points="592,35 597,30 606,30 606,40 597,40 592,35 " style="fill:white; stroke-width:1; stroke:black; " description="&lt;b&gt;ctg1_4984&lt;/b&gt;&lt;br&gt;ctg1 4984&lt;br&gt;Location: 5386364 - 5386802" locus_tag="ctg1_4984" class="clusterblast-orf" id="dummy-27_q22_0_all"  />
<polygon points="606,35 611,30 635,30 635,40 611,40 606,35 " style="fill:white; stroke-width:1; stroke:black; " description="&lt;b&gt;ctg1_4985&lt;/b&gt;&lt;br&gt;ctg1 4985&lt;br&gt;Location: 5386798 - 5387659" locus_tag="ctg1_4985" class="clusterblast-orf" id="dummy-27_q23_0_all"  />
<polygon points="635,35 640,30 655,30 655,40 640,40 635,35 " style="fill:white; stroke-width:1; stroke:black; " description="&lt;b&gt;ctg1_4986&lt;/b&gt;&lt;br&gt;ctg1 4986&lt;br&gt;Location: 5387652 - 5388252" locus_tag="ctg1_4986" class="clusterblast-orf" id="dummy-27_q24_0_all"  />
<polygon points="659,35 664,30 720,30 720,40 664,40 659,35 " style="fill:white; stroke-width:1; stroke:black; " description="&lt;b&gt;ctg1_4987&lt;/b&gt;&lt;br&gt;ctg1 4987&lt;br&gt;Location: 5388386 - 5390210" locus_tag="ctg1_4987" class="clusterblast-orf" id="dummy-27_q25_0_all"  />
<polygon points="733,40 775,40 780,35 775,30 733,30 733,40 " style="fill:white; stroke-width:1; stroke:black; " description="&lt;b&gt;ctg1_4988&lt;/b&gt;&lt;br&gt;ctg1 4988&lt;br&gt;Location: 5390588 - 5391998" locus_tag="ctg1_4988" class="clusterblast-orf" id="dummy-27_q26_0_all"  />
</g>
<g label="MGC00000049" description="MGC00000049_c1: Formate dehydrogenase E. coli (100% of genes show similarity), FORM" class="clusterblast-cluster"  >
<text x="5" y="70" class="clusterblast-acc"  >
MGC00000049_c1: Formate dehydrogenase E. coli (100% of genes show similarity), FORM</text>
<line x1="10" y1="85" x2="778.0" y2="85" style="stroke-width:1; stroke:grey; "  />
</g>
<g id="a27_000"  >
<polygon points="313,90 410,90 415,85 410,80 313,80 313,90 " style="fill:#d81515; stroke-width:1; stroke:black; " description="&lt;b&gt;b3894&lt;/b&gt;&lt;br&gt;formate dehydrogenase O subunit alpha&lt;br&gt;Location: 14598 - 11547&lt;br&gt;&lt;br&gt;&lt;b&gt;BlastP hit with ctg1_4975&lt;/b&gt;&lt;br&gt;Percentage identity: 95&lt;br&gt;Percentage coverage: 100&lt;br&gt;BLAST bit score: 383&lt;br&gt;E-value: 9.42e-130&lt;br&gt;&lt;br&gt;&lt;b&gt;BlastP hit with ctg1_4976&lt;/b&gt;&lt;br&gt;Percentage identity: 92&lt;br&gt;Percentage coverage: 100&lt;br&gt;BLAST bit score: 1550&lt;br&gt;E-value: 0.0" locus_tag="b3894" class="clusterblast-orf" id="dummy-27_h27_1_0"  />
</g>
<g id="a27_001"  >
<polygon points="415,90 440,90 445,85 440,80 415,80 415,90 " style="fill:#15d815; stroke-width:1; stroke:black; " description="&lt;b&gt;b3893&lt;/b&gt;&lt;br&gt;formate dehydrogenase O subunit beta&lt;br&gt;Location: 11535 - 10632&lt;br&gt;&lt;br&gt;&lt;b&gt;BlastP hit with ctg1_4977&lt;/b&gt;&lt;br&gt;Percentage identity: 94&lt;br&gt;Percentage coverage: 100&lt;br&gt;BLAST bit score: 609&lt;br&gt;E-value: 4.65e-226" locus_tag="b3893" class="clusterblast-orf" id="dummy-27_h27_1_1"  />
</g>
<g id="a27_002"  >
<polygon points="445,90 461,90 466,85 461,80 445,80 445,90 " style="fill:#1515d8; stroke-width:1; stroke:black; " description="&lt;b&gt;b3892&lt;/b&gt;&lt;br&gt;formate dehydrogenase O subunit gamma&lt;br&gt;Location: 10636 - 10000&lt;br&gt;&lt;br&gt;&lt;b&gt;BlastP hit with ctg1_4978&lt;/b&gt;&lt;br&gt;Percentage identity: 94&lt;br&gt;Percentage coverage: 100&lt;br&gt;BLAST bit score: 402&lt;br&gt;E-value: 3.57e-147" locus_tag="b3892" class="clusterblast-orf" id="dummy-27_h27_1_2"  />
</g>
</svg>
