<svg xmlns="http://www.w3.org/2000/svg" xmlns:xlink="http://www.w3.org/1999/xlink" version="1.1" x="0" y="0" height="230" width="800" viewBox="0 0 800 230" preserveAspectRatio="none"  >
<g label="Query sequence" class="clusterblast-cluster"  >
<text x="5" y="20" class="clusterblast-acc"  >
Query sequence</text>
<line x1="10" y1="35" x2="778.0" y2="35" style="stroke-width:1; stroke:grey; "  />
<polygon points="0,35 5,30 10,30 10,40 5,40 0,35 " style="fill:white; stroke-width:1; stroke:black; " description="&lt;b&gt;ctg1_2339&lt;/b&gt;&lt;br&gt;ctg1 2339&lt;br&gt;Location: 2470091 - 2470553" locus_tag="ctg1_2339" class="clusterblast-orf" id="dummy-11_q0_0_all"  />
<polygon points="11,40 28,40 33,35 28,30 11,30 11,40 " style="fill:white; stroke-width:1; stroke:black; " description="&lt;b&gt;ctg1_2340&lt;/b&gt;&lt;br&gt;ctg1 2340&lt;br&gt;Location: 2470599 - 2471547" locus_tag="ctg1_2340" class="clusterblast-orf" id="dummy-11_q1_0_all"  />
<polygon points="34,40 35,40 40,35 35,30 34,30 34,40 " style="fill:white; stroke-width:1; stroke:black; " description="&lt;b&gt;ctg1_2341&lt;/b&gt;&lt;br&gt;ctg1 2341&lt;br&gt;Location: 2471580 - 2471856" locus_tag="ctg1_2341" class="clusterblast-orf" id="dummy-11_q2_0_all"  />
<polygon points="41,40 44,40 49,35 44,30 41,30 41,40 " style="fill:white; stroke-width:1; stroke:black; " description="&lt;b&gt;ctg1_2342&lt;/b&gt;&lt;br&gt;ctg1 2342&lt;br&gt;Location: 2471900 - 2472278" locus_tag="ctg1_2342" class="clusterblast-orf" id="dummy-11_q3_0_all"  />
<polygon points="54,40 77,40 82,35 77,30 54,30 54,40 " style="fill:white; stroke-width:1; stroke:black; " description="&lt;b&gt;ctg1_2343&lt;/b&gt;&lt;br&gt;ctg1 2343&lt;br&gt;Location: 2472502 - 2473711" locus_tag="ctg1_2343" class="clusterblast-orf" id="dummy-11_q4_0_all"  />
<polygon points="83,35 88,30 123,30 123,40 88,40 83,35 " style="fill:white; stroke-width:1; stroke:black; " description="&lt;b&gt;ctg1_2344&lt;/b&gt;&lt;br&gt;ctg1 2344&lt;br&gt;Location: 2473781 - 2475509" locus_tag="ctg1_2344" class="clusterblast-orf" id="dummy-11_q5_0_all"  />
<polygon points="126,40 143,40 148,35 143,30 126,30 126,40 " style="fill:white; stroke-width:1; stroke:black; " description="&lt;b&gt;ctg1_2345&lt;/b&gt;&lt;br&gt;ctg1 2345&lt;br&gt;Location: 2475646 - 2476618" locus_tag="ctg1_2345" class="clusterblast-orf" id="dummy-11_q6_0_all"  />
<polygon points="150,40 157,40 162,35 157,30 150,30 150,40 " style="fill:white; stroke-width:1; stroke:black; " description="&lt;b&gt;ctg1_2346&lt;/b&gt;&lt;br&gt;ctg1 2346&lt;br&gt;Location: 2476720 - 2477224" locus_tag="ctg1_2346" class="clusterblast-orf" id="dummy-11_q7_0_all"  />
<polygon points="168,35 173,30 184,30 184,40 173,40 168,35 " style="fill:white; stroke-width:1; stroke:black; " description="&lt;b&gt;ctg1_2347&lt;/b&gt;&lt;br&gt;ctg1 2347&lt;br&gt;Location: 2477496 - 2478213" locus_tag="ctg1_2347" class="clusterblast-orf" id="dummy-11_q8_0_all"  />
<polygon points="189,40 193,40 198,35 193,30 189,30 189,40 " style="fill:white; stroke-width:1; stroke:black; " description="&lt;b&gt;ctg1_2348&lt;/b&gt;&lt;br&gt;ctg1 2348&lt;br&gt;Location: 2478421 - 2478844" locus_tag="ctg1_2348" class="clusterblast-orf" id="dummy-11_q9_0_all"  />
<polygon points="200,40 214,40 219,35 214,30 200,30 200,40 " style="fill:white; stroke-width:1; stroke:black; " description="&lt;b&gt;ctg1_2349&lt;/b&gt;&lt;br&gt;ctg1 2349&lt;br&gt;Location: 2478902 - 2479751" locus_tag="ctg1_2349" class="clusterblast-orf" id="dummy-11_q10_0_all"  />
<polygon points="221,35 226,30 254,30 254,40 226,40 221,35 " style="fill:#d81515; stroke-width:1; stroke:black; " description="&lt;b&gt;ctg1_2350&lt;/b&gt;&lt;br&gt;ctg1 2350&lt;br&gt;Location: 2479834 - 2481292" locus_tag="ctg1_2350" class="clusterblast-orf" id="dummy-11_q11_0_all"  />
<polygon points="254,35 259,30 289,30 289,40 259,40 254,35 " style="fill:#33d815; stroke-width:1; stroke:black; " description="&lt;b&gt;ctg1_2351&lt;/b&gt;&lt;br&gt;ctg1 2351&lt;br&gt;Location: 2481298 - 2482828" locus_tag="ctg1_2351" class="clusterblast-orf" id="dummy-11_q12_0_all"  />
<polygon points="292,35 297,30 334,30 334,40 297,40 292,35 " style="fill:#15abd8; stroke-width:1; stroke:black; " description="&lt;b&gt;ctg1_2352&lt;/b&gt;&lt;br&gt;ctg1 2352&lt;br&gt;Location: 2482991 - 2484833" locus_tag="ctg1_2352" class="clusterblast-orf" id="dummy-11_q13_0_all"  />
<polygon points="334,35 339,30 341,30 341,40 339,40 334,35 " style="fill:#8d15d8; stroke-width:1; stroke:black; " description="&lt;b&gt;ctg1_2353&lt;/b&gt;&lt;br&gt;ctg1 2353&lt;br&gt;Location: 2484829 - 2485132" locus_tag="ctg1_2353" class="clusterblast-orf" id="dummy-11_q14_0_all"  />
<polygon points="341,35 346,30 354,30 354,40 346,40 341,35 " style="fill:#d86f15; stroke-width:1; stroke:black; " description="&lt;b&gt;ctg1_2354&lt;/b&gt;&lt;br&gt;ctg1 2354&lt;br&gt;Location: 2485128 - 2485683" locus_tag="ctg1_2354" class="clusterblast-orf" id="dummy-11_q15_0_all"  />
<polygon points="354,35 359,30 366,30 366,40 359,40 354,35 " style="fill:#15d851; stroke-width:1; stroke:black; " description="&lt;b&gt;ctg1_2355&lt;/b&gt;&lt;br&gt;ctg1 2355&lt;br&gt;Location: 2485694 - 2486237" locus_tag="ctg1_2355" class="clusterblast-orf" id="dummy-11_q16_0_all"  />
<polygon points="366,35 371,30 389,30 389,40 371,40 366,35 " style="fill:#1551d8; stroke-width:1; stroke:black; " description="&lt;b&gt;ctg1_2356&lt;/b&gt;&lt;br&gt;ctg1 2356&lt;br&gt;Location: 2486251 - 2487229" locus_tag="ctg1_2356" class="clusterblast-orf" id="dummy-11_q17_0_all"  />
<polygon points="389,35 394,30 450,30 450,40 394,40 389,35 " style="fill:#d815c9; stroke-width:1; stroke:black; " description="&lt;b&gt;ctg1_2357&lt;/b&gt;&lt;br&gt;ctg1 2357&lt;br&gt;Location: 2487225 - 2489952" locus_tag="ctg1_2357" class="clusterblast-orf" id="dummy-11_q18_0_all"  />
<polygon points="452,35 457,30 482,30 482,40 457,40 452,35 " style="fill:#d8c915; stroke-width:1; stroke:black; " description="&lt;b&gt;ctg1_2358&lt;/b&gt;&lt;br&gt;ctg1 2358&lt;br&gt;Location: 2490004 - 2491342" locus_tag="ctg1_2358" class="clusterblast-orf" id="dummy-11_q19_0_all"  />
<polygon points="482,35 487,30 493,30 493,40 487,40 482,35 " style="fill:#15d8ab; stroke-width:1; stroke:black; " description="&lt;b&gt;ctg1_2359&lt;/b&gt;&lt;br&gt;ctg1 2359&lt;br&gt;Location: 2491338 - 2491839" locus_tag="ctg1_2359" class="clusterblast-orf" id="dummy-11_q20_0_all"  />
<polygon points="493,35 498,30 534,30 534,40 498,40 493,35 " style="fill:#3315d8; stroke-width:1; stroke:black; " description="&lt;b&gt;ctg1_2360&lt;/b&gt;&lt;br&gt;ctg1 2360&lt;br&gt;Location: 2491841 - 2493644" locus_tag="ctg1_2360" class="clusterblast-orf" id="dummy-11_q21_0_all"  />
<polygon points="536,35 541,30 551,30 551,40 541,40 536,35 " style="fill:#d8156f; stroke-width:1; stroke:black; " description="&lt;b&gt;ctg1_2361&lt;/b&gt;&lt;br&gt;ctg1 2361&lt;br&gt;Location: 2493737 - 2494400" locus_tag="ctg1_2361" class="clusterblast-orf" id="dummy-11_q22_0_all"  />
<polygon points="552,35 557,30 562,30 562,40 557,40 552,35 " style="fill:#8dd815; stroke-width:1; stroke:black; " description="&lt;b&gt;ctg1_2362&lt;/b&gt;&lt;br&gt;ctg1 2362&lt;br&gt;Location: 2494415 - 2494859" locus_tag="ctg1_2362" class="clusterblast-orf" id="dummy-11_q23_0_all"  />
<polygon points="568,40 572,35 568,30 568,40 " style="fill:white; stroke-width:1; stroke:black; " description="&lt;b&gt;ctg1_2363&lt;/b&gt;&lt;br&gt;ctg1 2363&lt;br&gt;Location: 2495121 - 2495286" locus_tag="ctg1_2363" class="clusterblast-orf" id="dummy-11_q24_0_all"  />
<polygon points="576,35 581,30 597,30 597,40 581,40 576,35 " style="fill:white; stroke-width:1; stroke:black; " description="&lt;b&gt;ctg1_2364&lt;/b&gt;&lt;br&gt;ctg1 2364&lt;br&gt;Location: 2495489 - 2496428" locus_tag="ctg1_2364" class="clusterblast-orf" id="dummy-11_q25_0_all"  />
<polygon points="618,40 641,40 646,35 641,30 618,30 618,40 " style="fill:white; stroke-width:1; stroke:black; " description="&lt;b&gt;ctg1_2365&lt;/b&gt;&lt;br&gt;ctg1 2365&lt;br&gt;Location: 2497347 - 2498565" locus_tag="ctg1_2365" class="clusterblast-orf" id="dummy-11_q26_0_all"  />
<polygon points="648,40 656,40 661,35 656,30 648,30 648,40 " style="fill:white; stroke-width:1; stroke:black; " description="&lt;b&gt;ctg1_2366&lt;/b&gt;&lt;br&gt;ctg1 2366&lt;br&gt;Location: 2498648 - 2499248" locus_tag="ctg1_2366" class="clusterblast-orf" id="dummy-11_q27_0_all"  />
<polygon points="663,35 668,30 704,30 704,40 668,40 663,35 " style="fill:white; stroke-width:1; stroke:black; " description="&lt;b&gt;ctg1_2367&lt;/b&gt;&lt;br&gt;ctg1 2367&lt;br&gt;Location: 2499306 - 2501139" locus_tag="ctg1_2367" class="clusterblast-orf" id="dummy-11_q28_0_all"  />
<polygon points="706,35 711,30 721,30 721,40 711,40 706,35 " style="fill:white; stroke-width:1; stroke:black; " description="&lt;b&gt;ctg1_2368&lt;/b&gt;&lt;br&gt;ctg1 2368&lt;br&gt;Location: 2501225 - 2501876" locus_tag="ctg1_2368" class="clusterblast-orf" id="dummy-11_q29_0_all"  />
<polygon points="721,35 726,30 733,30 733,40 726,40 721,35 " style="fill:white; stroke-width:1; stroke:black; " description="&lt;b&gt;ctg1_2369&lt;/b&gt;&lt;br&gt;ctg1 2369&lt;br&gt;Location: 2501886 - 2502381" locus_tag="ctg1_2369" class="clusterblast-orf" id="dummy-11_q30_0_all"  />
<polygon points="734,35 739,30 745,30 745,40 739,40 734,35 " style="fill:white; stroke-width:1; stroke:black; " description="&lt;b&gt;ctg1_2370&lt;/b&gt;&lt;br&gt;ctg1 2370&lt;br&gt;Location: 2502463 - 2502919" locus_tag="ctg1_2370" class="clusterblast-orf" id="dummy-11_q31_0_all"  />
<polygon points="752,40 775,40 780,35 775,30 752,30 752,40 " style="fill:white; stroke-width:1; stroke:black; " description="&lt;b&gt;ctg1_2371&lt;/b&gt;&lt;br&gt;ctg1 2371&lt;br&gt;Location: 2503256 - 2504459" locus_tag="ctg1_2371" class="clusterblast-orf" id="dummy-11_q32_0_all"  />
</g>
<g label="MGC00000036" description="MGC00000036_c1: Ech complex T. phaeum (28% of genes show similarity), ECH" class="clusterblast-cluster"  >
<text x="5" y="70" class="clusterblast-acc"  >
MGC00000036_c1: Ech complex T. phaeum (28% of genes show similarity), ECH</text>
<line x1="10" y1="85" x2="778.0" y2="85" style="stroke-width:1; stroke:grey; "  />
</g>
<g id="a11_000"  >
<polygon points="219,85 224,80 241,80 241,90 224,90 219,85 " style="fill:white; stroke-width:1; stroke:black; " description="&lt;b&gt;Tph_c21210&lt;/b&gt;&lt;br&gt;stage II sporulation protein P&lt;br&gt;Location: 0 - 966" locus_tag="Tph_c21210" class="clusterblast-orf" id="dummy-11_h11_3_0"  />
</g>
<g id="a11_001"  >
<polygon points="444,85 449,80 452,80 452,90 449,90 444,85 " style="fill:white; stroke-width:1; stroke:black; " description="&lt;b&gt;Tph_c21310&lt;/b&gt;&lt;br&gt;putative ech hydrogenase subunit F&lt;br&gt;Location: 9909 - 10260" locus_tag="Tph_c21310" class="clusterblast-orf" id="dummy-11_h11_3_1"  />
</g>
<g id="a11_002"  >
<polygon points="452,85 457,80 477,80 477,90 457,90 452,85 " style="fill:white; stroke-width:1; stroke:black; " description="&lt;b&gt;Tph_c21320&lt;/b&gt;&lt;br&gt;putative ech hydrogenase subunit E&lt;br&gt;Location: 10289 - 11372" locus_tag="Tph_c21320" class="clusterblast-orf" id="dummy-11_h11_3_2"  />
</g>
<g id="a11_003"  >
<polygon points="477,85 482,80 486,80 486,90 482,90 477,85 " style="fill:white; stroke-width:1; stroke:black; " description="&lt;b&gt;Tph_c21330&lt;/b&gt;&lt;br&gt;putative ech hydrogenase subunit D&lt;br&gt;Location: 11372 - 11750" locus_tag="Tph_c21330" class="clusterblast-orf" id="dummy-11_h11_3_3"  />
</g>
<g id="a11_004"  >
<polygon points="486,85 491,80 495,80 495,90 491,90 486,85 " style="fill:#d8156f; stroke-width:1; stroke:black; " description="&lt;b&gt;Tph_c21340&lt;/b&gt;&lt;br&gt;putative ech hydrogenase subunit C&lt;br&gt;Location: 11746 - 12184&lt;br&gt;&lt;br&gt;&lt;b&gt;BlastP hit with ctg1_2361&lt;/b&gt;&lt;br&gt;Percentage identity: 41&lt;br&gt;Percentage coverage: 59&lt;br&gt;BLAST bit score: 101&lt;br&gt;E-value: 2.66e-29" locus_tag="Tph_c21340" class="clusterblast-orf" id="dummy-11_h11_3_4"  />
</g>
<g id="a11_005"  >
<polygon points="495,85 500,80 515,80 515,90 500,90 495,85 " style="fill:white; stroke-width:1; stroke:black; " description="&lt;b&gt;Tph_c21350&lt;/b&gt;&lt;br&gt;putative ech hydrogenase subunit B&lt;br&gt;Location: 12184 - 13045" locus_tag="Tph_c21350" class="clusterblast-orf" id="dummy-11_h11_3_5"  />
</g>
<g id="a11_006"  >
<polygon points="515,85 520,80 560,80 560,90 520,90 515,85 " style="fill:#15abd8; stroke-width:1; stroke:black; " description="&lt;b&gt;Tph_c21360&lt;/b&gt;&lt;br&gt;putative ech hydrogenase subunit A&lt;br&gt;Location: 13041 - 15027&lt;br&gt;&lt;br&gt;&lt;b&gt;BlastP hit with ctg1_2352&lt;/b&gt;&lt;br&gt;Percentage identity: 35&lt;br&gt;Percentage coverage: 53&lt;br&gt;BLAST bit score: 139&lt;br&gt;E-value: 1.83e-36" locus_tag="Tph_c21360" class="clusterblast-orf" id="dummy-11_h11_3_6"  />
</g>
</svg>
