<svg xmlns="http://www.w3.org/2000/svg" xmlns:xlink="http://www.w3.org/1999/xlink" version="1.1" x="0" y="0" height="200" width="800" viewBox="0 0 800 200" preserveAspectRatio="none"  >
<g label="Query sequence" class="clusterblast-cluster"  >
<text x="5" y="20" class="clusterblast-acc"  >
Query sequence</text>
<line x1="10" y1="35" x2="778.0" y2="35" style="stroke-width:1; stroke:grey; "  />
<polygon points="0,40 11,40 16,35 11,30 0,30 0,40 " style="fill:white; stroke-width:1; stroke:black; " description="&lt;b&gt;ctg1_2497&lt;/b&gt;&lt;br&gt;ctg1 2497&lt;br&gt;Location: 2635559 - 2636456" locus_tag="ctg1_2497" class="clusterblast-orf" id="knownclusterblast-13_q0_0_all"  />
<polygon points="17,40 38,40 43,35 38,30 17,30 17,40 " style="fill:white; stroke-width:1; stroke:black; " description="&lt;b&gt;ctg1_2498&lt;/b&gt;&lt;br&gt;ctg1 2498&lt;br&gt;Location: 2636459 - 2637884" locus_tag="ctg1_2498" class="clusterblast-orf" id="knownclusterblast-13_q1_0_all"  />
<polygon points="43,40 63,40 68,35 63,30 43,30 43,40 " style="fill:white; stroke-width:1; stroke:black; " description="&lt;b&gt;ctg1_2499&lt;/b&gt;&lt;br&gt;ctg1 2499&lt;br&gt;Location: 2637888 - 2639193" locus_tag="ctg1_2499" class="clusterblast-orf" id="knownclusterblast-13_q2_0_all"  />
<polygon points="72,35 77,30 89,30 89,40 77,40 72,35 " style="fill:white; stroke-width:1; stroke:black; " description="&lt;b&gt;ctg1_2500&lt;/b&gt;&lt;br&gt;ctg1 2500&lt;br&gt;Location: 2639432 - 2640332" locus_tag="ctg1_2500" class="clusterblast-orf" id="knownclusterblast-13_q3_0_all"  />
<polygon points="91,35 96,30 102,30 102,40 96,40 91,35 " style="fill:white; stroke-width:1; stroke:black; " description="&lt;b&gt;ctg1_2501&lt;/b&gt;&lt;br&gt;ctg1 2501&lt;br&gt;Location: 2640427 - 2641003" locus_tag="ctg1_2501" class="clusterblast-orf" id="knownclusterblast-13_q4_0_all"  />
<polygon points="103,35 108,30 111,30 111,40 108,40 103,35 " style="fill:white; stroke-width:1; stroke:black; " description="&lt;b&gt;ctg1_2502&lt;/b&gt;&lt;br&gt;ctg1 2502&lt;br&gt;Location: 2641063 - 2641513" locus_tag="ctg1_2502" class="clusterblast-orf" id="knownclusterblast-13_q5_0_all"  />
<polygon points="111,35 116,30 119,30 119,40 116,40 111,35 " style="fill:white; stroke-width:1; stroke:black; " description="&lt;b&gt;ctg1_2503&lt;/b&gt;&lt;br&gt;ctg1 2503&lt;br&gt;Location: 2641499 - 2641925" locus_tag="ctg1_2503" class="clusterblast-orf" id="knownclusterblast-13_q6_0_all"  />
<polygon points="123,40 134,40 139,35 134,30 123,30 123,40 " style="fill:white; stroke-width:1; stroke:black; " description="&lt;b&gt;ctg1_2504&lt;/b&gt;&lt;br&gt;ctg1 2504&lt;br&gt;Location: 2642138 - 2643008" locus_tag="ctg1_2504" class="clusterblast-orf" id="knownclusterblast-13_q7_0_all"  />
<polygon points="139,40 151,40 156,35 151,30 139,30 139,40 " style="fill:white; stroke-width:1; stroke:black; " description="&lt;b&gt;ctg1_2505&lt;/b&gt;&lt;br&gt;ctg1 2505&lt;br&gt;Location: 2643011 - 2643911" locus_tag="ctg1_2505" class="clusterblast-orf" id="knownclusterblast-13_q8_0_all"  />
<polygon points="156,35 161,30 176,30 176,40 161,40 156,35 " style="fill:#d81515; stroke-width:1; stroke:black; " description="&lt;b&gt;ctg1_2506&lt;/b&gt;&lt;br&gt;ctg1 2506&lt;br&gt;Location: 2643916 - 2644969" locus_tag="ctg1_2506" class="clusterblast-orf" id="knownclusterblast-13_q9_0_all"  />
<polygon points="177,35 182,30 186,30 186,40 182,40 177,35 " style="fill:#77d815; stroke-width:1; stroke:black; " description="&lt;b&gt;ctg1_2507&lt;/b&gt;&lt;br&gt;ctg1 2507&lt;br&gt;Location: 2645014 - 2645515" locus_tag="ctg1_2507" class="clusterblast-orf" id="knownclusterblast-13_q10_0_all"  />
<polygon points="186,35 191,30 199,30 199,40 191,40 186,35 " style="fill:#15d8d8; stroke-width:1; stroke:black; " description="&lt;b&gt;ctg1_2508&lt;/b&gt;&lt;br&gt;ctg1 2508&lt;br&gt;Location: 2645527 - 2646187" locus_tag="ctg1_2508" class="clusterblast-orf" id="knownclusterblast-13_q11_0_all"  />
<polygon points="199,35 204,30 215,30 215,40 204,40 199,35 " style="fill:#7715d8; stroke-width:1; stroke:black; " description="&lt;b&gt;ctg1_2509&lt;/b&gt;&lt;br&gt;ctg1 2509&lt;br&gt;Location: 2646196 - 2647084" locus_tag="ctg1_2509" class="clusterblast-orf" id="knownclusterblast-13_q12_0_all"  />
<polygon points="216,35 221,30 241,30 241,40 221,40 216,35 " style="fill:#d85e15; stroke-width:1; stroke:black; " description="&lt;b&gt;ctg1_2510&lt;/b&gt;&lt;br&gt;ctg1 2510&lt;br&gt;Location: 2647104 - 2648466" locus_tag="ctg1_2510" class="clusterblast-orf" id="knownclusterblast-13_q13_0_all"  />
<polygon points="245,40 262,40 267,35 262,30 245,30 245,40 " style="fill:white; stroke-width:1; stroke:black; " description="&lt;b&gt;ctg1_2511&lt;/b&gt;&lt;br&gt;ctg1 2511&lt;br&gt;Location: 2648644 - 2649853" locus_tag="ctg1_2511" class="clusterblast-orf" id="knownclusterblast-13_q14_0_all"  />
<polygon points="273,40 278,40 283,35 278,30 273,30 273,40 " style="fill:white; stroke-width:1; stroke:black; " description="&lt;b&gt;ctg1_2512&lt;/b&gt;&lt;br&gt;ctg1 2512&lt;br&gt;Location: 2650157 - 2650685" locus_tag="ctg1_2512" class="clusterblast-orf" id="knownclusterblast-13_q15_0_all"  />
<polygon points="292,40 296,35 292,30 292,40 " style="fill:white; stroke-width:1; stroke:black; " description="&lt;b&gt;ctg1_2513&lt;/b&gt;&lt;br&gt;ctg1 2513&lt;br&gt;Location: 2651157 - 2651400" locus_tag="ctg1_2513" class="clusterblast-orf" id="knownclusterblast-13_q16_0_all"  />
<polygon points="296,40 298,40 303,35 298,30 296,30 296,40 " style="fill:white; stroke-width:1; stroke:black; " description="&lt;b&gt;ctg1_2514&lt;/b&gt;&lt;br&gt;ctg1 2514&lt;br&gt;Location: 2651411 - 2651780" locus_tag="ctg1_2514" class="clusterblast-orf" id="knownclusterblast-13_q17_0_all"  />
<polygon points="306,40 308,40 313,35 308,30 306,30 306,40 " style="fill:white; stroke-width:1; stroke:black; " description="&lt;b&gt;ctg1_2515&lt;/b&gt;&lt;br&gt;ctg1 2515&lt;br&gt;Location: 2651897 - 2652314" locus_tag="ctg1_2515" class="clusterblast-orf" id="knownclusterblast-13_q18_0_all"  />
<polygon points="313,40 319,40 324,35 319,30 313,30 313,40 " style="fill:white; stroke-width:1; stroke:black; " description="&lt;b&gt;ctg1_2516&lt;/b&gt;&lt;br&gt;ctg1 2516&lt;br&gt;Location: 2652310 - 2652904" locus_tag="ctg1_2516" class="clusterblast-orf" id="knownclusterblast-13_q19_0_all"  />
<polygon points="333,40 335,40 340,35 335,30 333,30 333,40 " style="fill:white; stroke-width:1; stroke:black; " description="&lt;b&gt;ctg1_2517&lt;/b&gt;&lt;br&gt;ctg1 2517&lt;br&gt;Location: 2653378 - 2653756" locus_tag="ctg1_2517" class="clusterblast-orf" id="knownclusterblast-13_q20_0_all"  />
<polygon points="341,40 343,40 348,35 343,30 341,30 341,40 " style="fill:white; stroke-width:1; stroke:black; " description="&lt;b&gt;ctg1_2518&lt;/b&gt;&lt;br&gt;ctg1 2518&lt;br&gt;Location: 2653766 - 2654159" locus_tag="ctg1_2518" class="clusterblast-orf" id="knownclusterblast-13_q21_0_all"  />
<polygon points="351,40 361,40 366,35 361,30 351,30 351,40 " style="fill:white; stroke-width:1; stroke:black; " description="&lt;b&gt;ctg1_2519&lt;/b&gt;&lt;br&gt;ctg1 2519&lt;br&gt;Location: 2654309 - 2655119" locus_tag="ctg1_2519" class="clusterblast-orf" id="knownclusterblast-13_q22_0_all"  />
<polygon points="369,35 374,30 395,30 395,40 374,40 369,35 " style="fill:#2ed815; stroke-width:1; stroke:black; " description="&lt;b&gt;ctg1_2520&lt;/b&gt;&lt;br&gt;ctg1 2520&lt;br&gt;Location: 2655267 - 2656671" locus_tag="ctg1_2520" class="clusterblast-orf" id="knownclusterblast-13_q23_0_all"  />
<polygon points="395,35 400,30 418,30 418,40 400,40 395,35 " style="fill:#158fd8; stroke-width:1; stroke:black; " description="&lt;b&gt;ctg1_2521&lt;/b&gt;&lt;br&gt;ctg1 2521&lt;br&gt;Location: 2656667 - 2657894" locus_tag="ctg1_2521" class="clusterblast-orf" id="knownclusterblast-13_q24_0_all"  />
<polygon points="422,35 427,30 444,30 444,40 427,40 422,35 " style="fill:#c015d8; stroke-width:1; stroke:black; " description="&lt;b&gt;ctg1_2522&lt;/b&gt;&lt;br&gt;ctg1 2522&lt;br&gt;Location: 2658110 - 2659298" locus_tag="ctg1_2522" class="clusterblast-orf" id="knownclusterblast-13_q25_0_all"  />
<polygon points="444,35 449,30 460,30 460,40 449,40 444,35 " style="fill:#d8a715; stroke-width:1; stroke:black; " description="&lt;b&gt;ctg1_2523&lt;/b&gt;&lt;br&gt;ctg1 2523&lt;br&gt;Location: 2659287 - 2660124" locus_tag="ctg1_2523" class="clusterblast-orf" id="knownclusterblast-13_q26_0_all"  />
<polygon points="460,35 465,30 486,30 486,40 465,40 460,35 " style="fill:#15d846; stroke-width:1; stroke:black; " description="&lt;b&gt;ctg1_2524&lt;/b&gt;&lt;br&gt;ctg1 2524&lt;br&gt;Location: 2660134 - 2661538" locus_tag="ctg1_2524" class="clusterblast-orf" id="knownclusterblast-13_q27_0_all"  />
<polygon points="486,35 491,30 492,30 492,40 491,40 486,35 " style="fill:#1546d8; stroke-width:1; stroke:black; " description="&lt;b&gt;ctg1_2525&lt;/b&gt;&lt;br&gt;ctg1 2525&lt;br&gt;Location: 2661549 - 2661837" locus_tag="ctg1_2525" class="clusterblast-orf" id="knownclusterblast-13_q28_0_all"  />
<polygon points="494,35 499,30 499,30 499,40 499,40 494,35 " style="fill:#77d815; stroke-width:1; stroke:black; " description="&lt;b&gt;ctg1_2526&lt;/b&gt;&lt;br&gt;ctg1 2526&lt;br&gt;Location: 2661943 - 2662237" locus_tag="ctg1_2526" class="clusterblast-orf" id="knownclusterblast-13_q29_0_all"  />
<polygon points="500,35 505,30 519,30 519,40 505,40 500,35 " style="fill:#d815a7; stroke-width:1; stroke:black; " description="&lt;b&gt;ctg1_2527&lt;/b&gt;&lt;br&gt;ctg1 2527&lt;br&gt;Location: 2662275 - 2663292" locus_tag="ctg1_2527" class="clusterblast-orf" id="knownclusterblast-13_q30_0_all"  />
<polygon points="519,35 524,30 534,30 534,40 524,40 519,35 " style="fill:#c0d815; stroke-width:1; stroke:black; " description="&lt;b&gt;ctg1_2528&lt;/b&gt;&lt;br&gt;ctg1 2528&lt;br&gt;Location: 2663288 - 2664092" locus_tag="ctg1_2528" class="clusterblast-orf" id="knownclusterblast-13_q31_0_all"  />
<polygon points="534,35 539,30 547,30 547,40 539,40 534,35 " style="fill:#15d88f; stroke-width:1; stroke:black; " description="&lt;b&gt;ctg1_2529&lt;/b&gt;&lt;br&gt;ctg1 2529&lt;br&gt;Location: 2664088 - 2664790" locus_tag="ctg1_2529" class="clusterblast-orf" id="knownclusterblast-13_q32_0_all"  />
<polygon points="547,35 552,30 555,30 555,40 552,40 547,35 " style="fill:#2e15d8; stroke-width:1; stroke:black; " description="&lt;b&gt;ctg1_2530&lt;/b&gt;&lt;br&gt;ctg1 2530&lt;br&gt;Location: 2664764 - 2665244" locus_tag="ctg1_2530" class="clusterblast-orf" id="knownclusterblast-13_q33_0_all"  />
<polygon points="556,35 561,30 562,30 562,40 561,40 556,35 " style="fill:#d8155e; stroke-width:1; stroke:black; " description="&lt;b&gt;ctg1_2531&lt;/b&gt;&lt;br&gt;ctg1 2531&lt;br&gt;Location: 2665256 - 2665592" locus_tag="ctg1_2531" class="clusterblast-orf" id="knownclusterblast-13_q34_0_all"  />
<polygon points="567,35 572,30 610,30 610,40 572,40 567,35 " style="fill:#d815a7; stroke-width:1; stroke:black; " description="&lt;b&gt;ctg1_2532&lt;/b&gt;&lt;br&gt;ctg1 2532&lt;br&gt;Location: 2665884 - 2668164" locus_tag="ctg1_2532" class="clusterblast-orf" id="knownclusterblast-13_q35_0_all"  />
<polygon points="616,40 628,40 633,35 628,30 616,30 616,40 " style="fill:white; stroke-width:1; stroke:black; " description="&lt;b&gt;ctg1_2533&lt;/b&gt;&lt;br&gt;ctg1 2533&lt;br&gt;Location: 2668452 - 2669403" locus_tag="ctg1_2533" class="clusterblast-orf" id="knownclusterblast-13_q36_0_all"  />
<polygon points="634,40 666,40 671,35 666,30 634,30 634,40 " style="fill:white; stroke-width:1; stroke:black; " description="&lt;b&gt;ctg1_2534&lt;/b&gt;&lt;br&gt;ctg1 2534&lt;br&gt;Location: 2669422 - 2671426" locus_tag="ctg1_2534" class="clusterblast-orf" id="knownclusterblast-13_q37_0_all"  />
<polygon points="673,35 678,30 693,30 693,40 678,40 673,35 " style="fill:white; stroke-width:1; stroke:black; " description="&lt;b&gt;ctg1_2535&lt;/b&gt;&lt;br&gt;ctg1 2535&lt;br&gt;Location: 2671520 - 2672564" locus_tag="ctg1_2535" class="clusterblast-orf" id="knownclusterblast-13_q38_0_all"  />
<polygon points="695,35 700,30 706,30 706,40 700,40 695,35 " style="fill:white; stroke-width:1; stroke:black; " description="&lt;b&gt;ctg1_2536&lt;/b&gt;&lt;br&gt;ctg1 2536&lt;br&gt;Location: 2672689 - 2673265" locus_tag="ctg1_2536" class="clusterblast-orf" id="knownclusterblast-13_q39_0_all"  />
<polygon points="707,35 712,30 744,30 744,40 712,40 707,35 " style="fill:white; stroke-width:1; stroke:black; " description="&lt;b&gt;ctg1_2537&lt;/b&gt;&lt;br&gt;ctg1 2537&lt;br&gt;Location: 2673332 - 2675312" locus_tag="ctg1_2537" class="clusterblast-orf" id="knownclusterblast-13_q40_0_all"  />
<polygon points="748,40 775,40 780,35 775,30 748,30 748,40 " style="fill:white; stroke-width:1; stroke:black; " description="&lt;b&gt;ctg1_2538&lt;/b&gt;&lt;br&gt;ctg1 2538&lt;br&gt;Location: 2675517 - 2677218" locus_tag="ctg1_2538" class="clusterblast-orf" id="knownclusterblast-13_q41_0_all"  />
</g>
<g label="MGC0000003" description="MGC0000003_c1: Ethanolamine degradation S. typhimurium (94% of genes show similarity), EUT" class="clusterblast-cluster"  >
<text x="5" y="70" class="clusterblast-acc"  >
MGC0000003_c1: Ethanolamine degradation S. typhimurium (94% of genes show similarity), EUT</text>
<line x1="10" y1="85" x2="778.0" y2="85" style="stroke-width:1; stroke:grey; "  />
</g>
<g id="a13_000"  >
<polygon points="219,85 224,80 239,80 239,90 224,90 219,85 " style="fill:#d81515; stroke-width:1; stroke:black; " description="&lt;b&gt;STM2454&lt;/b&gt;&lt;br&gt;HTH-type transcriptional regulator EutR&lt;br&gt;Location: 102 - 1155&lt;br&gt;&lt;br&gt;&lt;b&gt;BlastP hit with ctg1_2506&lt;/b&gt;&lt;br&gt;Percentage identity: 92&lt;br&gt;Percentage coverage: 100&lt;br&gt;BLAST bit score: 660&lt;br&gt;E-value: 2.44e-244" locus_tag="STM2454" class="clusterblast-orf" id="knownclusterblast-13_all_13_1_0"  />
</g>
<g id="a13_001"  >
<polygon points="240,85 245,80 249,80 249,90 245,90 240,85 " style="fill:#77d815; stroke-width:1; stroke:black; " description="&lt;b&gt;STM2455&lt;/b&gt;&lt;br&gt;carboxysome structural protein EutK&lt;br&gt;Location: 1202 - 1697&lt;br&gt;&lt;br&gt;&lt;b&gt;BlastP hit with ctg1_2507&lt;/b&gt;&lt;br&gt;Percentage identity: 81&lt;br&gt;Percentage coverage: 99&lt;br&gt;BLAST bit score: 246&lt;br&gt;E-value: 8.52e-87&lt;br&gt;&lt;br&gt;&lt;b&gt;BlastP hit with ctg1_2526&lt;/b&gt;&lt;br&gt;Percentage identity: 48&lt;br&gt;Percentage coverage: 86&lt;br&gt;BLAST bit score: 72&lt;br&gt;E-value: 2.04e-19" locus_tag="STM2455" class="clusterblast-orf" id="knownclusterblast-13_all_13_1_1"  />
</g>
<g id="a13_002"  >
<polygon points="249,85 254,80 262,80 262,90 254,90 249,85 " style="fill:#15d8d8; stroke-width:1; stroke:black; " description="&lt;b&gt;STM2456&lt;/b&gt;&lt;br&gt;carboxysome structural protein EutL&lt;br&gt;Location: 1709 - 2369&lt;br&gt;&lt;br&gt;&lt;b&gt;BlastP hit with ctg1_2508&lt;/b&gt;&lt;br&gt;Percentage identity: 94&lt;br&gt;Percentage coverage: 100&lt;br&gt;BLAST bit score: 397&lt;br&gt;E-value: 1.27e-144" locus_tag="STM2456" class="clusterblast-orf" id="knownclusterblast-13_all_13_1_2"  />
</g>
<g id="a13_003"  >
<polygon points="262,85 267,80 279,80 279,90 267,90 262,85 " style="fill:#7715d8; stroke-width:1; stroke:black; " description="&lt;b&gt;STM2457&lt;/b&gt;&lt;br&gt;ethanolamine ammonia-lyase small subunit EutC&lt;br&gt;Location: 2378 - 3275&lt;br&gt;&lt;br&gt;&lt;b&gt;BlastP hit with ctg1_2509&lt;/b&gt;&lt;br&gt;Percentage identity: 91&lt;br&gt;Percentage coverage: 101&lt;br&gt;BLAST bit score: 518&lt;br&gt;E-value: 4.69e-190" locus_tag="STM2457" class="clusterblast-orf" id="knownclusterblast-13_all_13_1_3"  />
</g>
<g id="a13_004"  >
<polygon points="279,85 284,80 304,80 304,90 284,90 279,85 " style="fill:#d85e15; stroke-width:1; stroke:black; " description="&lt;b&gt;STM2458&lt;/b&gt;&lt;br&gt;ethanolamine ammonia-lyase large subunit EutB&lt;br&gt;Location: 3293 - 4655&lt;br&gt;&lt;br&gt;&lt;b&gt;BlastP hit with ctg1_2510&lt;/b&gt;&lt;br&gt;Percentage identity: 98&lt;br&gt;Percentage coverage: 100&lt;br&gt;BLAST bit score: 886&lt;br&gt;E-value: 0.0" locus_tag="STM2458" class="clusterblast-orf" id="knownclusterblast-13_all_13_1_4"  />
</g>
<g id="a13_005"  >
<polygon points="305,85 310,80 331,80 331,90 310,90 305,85 " style="fill:#2ed815; stroke-width:1; stroke:black; " description="&lt;b&gt;STM2459&lt;/b&gt;&lt;br&gt;ethanolamine utilization protein EutA&lt;br&gt;Location: 4666 - 6070&lt;br&gt;&lt;br&gt;&lt;b&gt;BlastP hit with ctg1_2520&lt;/b&gt;&lt;br&gt;Percentage identity: 90&lt;br&gt;Percentage coverage: 100&lt;br&gt;BLAST bit score: 825&lt;br&gt;E-value: 9.18e-306" locus_tag="STM2459" class="clusterblast-orf" id="knownclusterblast-13_all_13_1_5"  />
</g>
<g id="a13_006"  >
<polygon points="331,85 336,80 354,80 354,90 336,90 331,85 " style="fill:#158fd8; stroke-width:1; stroke:black; " description="&lt;b&gt;STM2460&lt;/b&gt;&lt;br&gt;ethanolamine transporter EutH&lt;br&gt;Location: 6066 - 7293&lt;br&gt;&lt;br&gt;&lt;b&gt;BlastP hit with ctg1_2521&lt;/b&gt;&lt;br&gt;Percentage identity: 97&lt;br&gt;Percentage coverage: 100&lt;br&gt;BLAST bit score: 750&lt;br&gt;E-value: 4.83e-278" locus_tag="STM2460" class="clusterblast-orf" id="knownclusterblast-13_all_13_1_6"  />
</g>
<g id="a13_007"  >
<polygon points="356,85 361,80 378,80 378,90 361,90 356,85 " style="fill:#c015d8; stroke-width:1; stroke:black; " description="&lt;b&gt;STM2461&lt;/b&gt;&lt;br&gt;ethanol dehydrogenase EutG&lt;br&gt;Location: 7412 - 8600&lt;br&gt;&lt;br&gt;&lt;b&gt;BlastP hit with ctg1_2522&lt;/b&gt;&lt;br&gt;Percentage identity: 87&lt;br&gt;Percentage coverage: 100&lt;br&gt;BLAST bit score: 658&lt;br&gt;E-value: 3.2e-242" locus_tag="STM2461" class="clusterblast-orf" id="knownclusterblast-13_all_13_1_7"  />
</g>
<g id="a13_008"  >
<polygon points="378,85 383,80 394,80 394,90 383,90 378,85 " style="fill:#d8a715; stroke-width:1; stroke:black; " description="&lt;b&gt;STM2462&lt;/b&gt;&lt;br&gt;ethanolamine utilization protein EutJ&lt;br&gt;Location: 8589 - 9429&lt;br&gt;&lt;br&gt;&lt;b&gt;BlastP hit with ctg1_2523&lt;/b&gt;&lt;br&gt;Percentage identity: 89&lt;br&gt;Percentage coverage: 100&lt;br&gt;BLAST bit score: 504&lt;br&gt;E-value: 2.55e-185" locus_tag="STM2462" class="clusterblast-orf" id="knownclusterblast-13_all_13_1_8"  />
</g>
<g id="a13_009"  >
<polygon points="394,85 399,80 420,80 420,90 399,90 394,85 " style="fill:#15d846; stroke-width:1; stroke:black; " description="&lt;b&gt;STM2463&lt;/b&gt;&lt;br&gt;aldehyde oxidoreductase EutE&lt;br&gt;Location: 9439 - 10843&lt;br&gt;&lt;br&gt;&lt;b&gt;BlastP hit with ctg1_2524&lt;/b&gt;&lt;br&gt;Percentage identity: 94&lt;br&gt;Percentage coverage: 100&lt;br&gt;BLAST bit score: 829&lt;br&gt;E-value: 1.94e-307" locus_tag="STM2463" class="clusterblast-orf" id="knownclusterblast-13_all_13_1_9"  />
</g>
<g id="a13_0010"  >
<polygon points="420,85 425,80 426,80 426,90 425,90 420,85 " style="fill:#1546d8; stroke-width:1; stroke:black; " description="&lt;b&gt;STM2464&lt;/b&gt;&lt;br&gt;microcompartment shell protein EutN&lt;br&gt;Location: 10854 - 11142&lt;br&gt;&lt;br&gt;&lt;b&gt;BlastP hit with ctg1_2525&lt;/b&gt;&lt;br&gt;Percentage identity: 92&lt;br&gt;Percentage coverage: 100&lt;br&gt;BLAST bit score: 181&lt;br&gt;E-value: 4.16e-63" locus_tag="STM2464" class="clusterblast-orf" id="knownclusterblast-13_all_13_1_10"  />
</g>
<g id="a13_0011"  >
<polygon points="428,85 433,80 433,80 433,90 433,90 428,85 " style="fill:#77d815; stroke-width:1; stroke:black; " description="&lt;b&gt;STM2465&lt;/b&gt;&lt;br&gt;carboxysome structural protein EutM&lt;br&gt;Location: 11254 - 11545&lt;br&gt;&lt;br&gt;&lt;b&gt;BlastP hit with ctg1_2507&lt;/b&gt;&lt;br&gt;Percentage identity: 48&lt;br&gt;Percentage coverage: 50&lt;br&gt;BLAST bit score: 75&lt;br&gt;E-value: 4.5e-20&lt;br&gt;&lt;br&gt;&lt;b&gt;BlastP hit with ctg1_2526&lt;/b&gt;&lt;br&gt;Percentage identity: 97&lt;br&gt;Percentage coverage: 98&lt;br&gt;BLAST bit score: 171&lt;br&gt;E-value: 2.14e-59" locus_tag="STM2465" class="clusterblast-orf" id="knownclusterblast-13_all_13_1_11"  />
</g>
<g id="a13_0012"  >
<polygon points="434,85 439,80 453,80 453,90 439,90 434,85 " style="fill:#d815a7; stroke-width:1; stroke:black; " description="&lt;b&gt;STM2466&lt;/b&gt;&lt;br&gt;phosphotransacetylase EutD&lt;br&gt;Location: 11585 - 12602&lt;br&gt;&lt;br&gt;&lt;b&gt;BlastP hit with ctg1_2527&lt;/b&gt;&lt;br&gt;Percentage identity: 89&lt;br&gt;Percentage coverage: 100&lt;br&gt;BLAST bit score: 585&lt;br&gt;E-value: 3.51e-215&lt;br&gt;&lt;br&gt;&lt;b&gt;BlastP hit with ctg1_2532&lt;/b&gt;&lt;br&gt;Percentage identity: 35&lt;br&gt;Percentage coverage: 43&lt;br&gt;BLAST bit score: 163&lt;br&gt;E-value: 1.94e-46" locus_tag="STM2466" class="clusterblast-orf" id="knownclusterblast-13_all_13_1_12"  />
</g>
<g id="a13_0013"  >
<polygon points="453,85 458,80 468,80 468,90 458,90 453,85 " style="fill:#c0d815; stroke-width:1; stroke:black; " description="&lt;b&gt;STM2467&lt;/b&gt;&lt;br&gt;cobalamin adenosyltransferase EutT&lt;br&gt;Location: 12598 - 13402&lt;br&gt;&lt;br&gt;&lt;b&gt;BlastP hit with ctg1_2528&lt;/b&gt;&lt;br&gt;Percentage identity: 89&lt;br&gt;Percentage coverage: 99&lt;br&gt;BLAST bit score: 473&lt;br&gt;E-value: 4.7e-173" locus_tag="STM2467" class="clusterblast-orf" id="knownclusterblast-13_all_13_1_13"  />
</g>
<g id="a13_0014"  >
<polygon points="468,85 473,80 481,80 481,90 473,90 468,85 " style="fill:#15d88f; stroke-width:1; stroke:black; " description="&lt;b&gt;STM2468&lt;/b&gt;&lt;br&gt;ethanolamine utilization protein EutQ&lt;br&gt;Location: 13398 - 14088&lt;br&gt;&lt;br&gt;&lt;b&gt;BlastP hit with ctg1_2529&lt;/b&gt;&lt;br&gt;Percentage identity: 88&lt;br&gt;Percentage coverage: 100&lt;br&gt;BLAST bit score: 403&lt;br&gt;E-value: 1.17e-146" locus_tag="STM2468" class="clusterblast-orf" id="knownclusterblast-13_all_13_1_14"  />
</g>
<g id="a13_0015"  >
<polygon points="481,85 486,80 490,80 490,90 486,90 481,85 " style="fill:#2e15d8; stroke-width:1; stroke:black; " description="&lt;b&gt;STM2469&lt;/b&gt;&lt;br&gt;ethanolamine utilization protein EutP&lt;br&gt;Location: 14065 - 14545&lt;br&gt;&lt;br&gt;&lt;b&gt;BlastP hit with ctg1_2530&lt;/b&gt;&lt;br&gt;Percentage identity: 85&lt;br&gt;Percentage coverage: 100&lt;br&gt;BLAST bit score: 273&lt;br&gt;E-value: 8.25e-98" locus_tag="STM2469" class="clusterblast-orf" id="knownclusterblast-13_all_13_1_15"  />
</g>
<g id="a13_0016"  >
<polygon points="490,85 495,80 496,80 496,90 495,90 490,85 " style="fill:#d8155e; stroke-width:1; stroke:black; " description="&lt;b&gt;STM2470&lt;/b&gt;&lt;br&gt;carboxysome structural protein EutS&lt;br&gt;Location: 14557 - 14893&lt;br&gt;&lt;br&gt;&lt;b&gt;BlastP hit with ctg1_2531&lt;/b&gt;&lt;br&gt;Percentage identity: 95&lt;br&gt;Percentage coverage: 100&lt;br&gt;BLAST bit score: 211&lt;br&gt;E-value: 1.69e-74" locus_tag="STM2470" class="clusterblast-orf" id="knownclusterblast-13_all_13_1_16"  />
</g>
<g id="a13_0017"  >
<polygon points="505,85 510,80 514,80 514,90 510,90 505,85 " style="fill:white; stroke-width:1; stroke:black; " description="&lt;b&gt;STM2471&lt;/b&gt;&lt;br&gt;insertion sequence element IS200 transposase&lt;br&gt;Location: 15373 - 15832" locus_tag="STM2471" class="clusterblast-orf" id="knownclusterblast-13_all_13_1_17"  />
</g>
<g id="a13_0018"  >
<polygon points="517,85 522,80 560,80 560,90 522,90 517,85 " style="fill:#d815a7; stroke-width:1; stroke:black; " description="&lt;b&gt;STM2472&lt;/b&gt;&lt;br&gt;malic enzyme&lt;br&gt;Location: 16021 - 18301&lt;br&gt;&lt;br&gt;&lt;b&gt;BlastP hit with ctg1_2527&lt;/b&gt;&lt;br&gt;Percentage identity: 33&lt;br&gt;Percentage coverage: 96&lt;br&gt;BLAST bit score: 142&lt;br&gt;E-value: 1.73e-39&lt;br&gt;&lt;br&gt;&lt;b&gt;BlastP hit with ctg1_2532&lt;/b&gt;&lt;br&gt;Percentage identity: 94&lt;br&gt;Percentage coverage: 100&lt;br&gt;BLAST bit score: 1394&lt;br&gt;E-value: 0.0" locus_tag="STM2472" class="clusterblast-orf" id="knownclusterblast-13_all_13_1_18"  />
</g>
<g label="MGC00000010" description="MGC00000010_c1: Propanediol degradation S. enterica (25% of genes show similarity), PDU" class="clusterblast-cluster"  >
<text x="5" y="120" class="clusterblast-acc"  >
MGC00000010_c1: Propanediol degradation S. enterica (25% of genes show similarity), PDU</text>
<line x1="10" y1="135" x2="778.0" y2="135" style="stroke-width:1; stroke:grey; "  />
</g>
<g id="a13_000"  >
<polygon points="208,140 211,135 208,130 208,140 " style="fill:white; stroke-width:1; stroke:black; " description="&lt;b&gt;STM2059&lt;/b&gt;&lt;br&gt;hypothetical protein&lt;br&gt;Location: 19638 - 19470" locus_tag="STM2059" class="clusterblast-orf" id="knownclusterblast-13_all_13_2_0"  />
</g>
<g id="a13_001"  >
<polygon points="211,135 216,130 228,130 228,140 216,140 211,135 " style="fill:white; stroke-width:1; stroke:black; " description="&lt;b&gt;STM2058&lt;/b&gt;&lt;br&gt;L-threonine kinase&lt;br&gt;Location: 19437 - 18534" locus_tag="STM2058" class="clusterblast-orf" id="knownclusterblast-13_all_13_2_1"  />
</g>
<g id="a13_002"  >
<polygon points="229,135 234,130 252,130 252,140 234,140 229,135 " style="fill:white; stroke-width:1; stroke:black; " description="&lt;b&gt;STM2057&lt;/b&gt;&lt;br&gt;propionate kinase&lt;br&gt;Location: 18477 - 17262" locus_tag="STM2057" class="clusterblast-orf" id="knownclusterblast-13_all_13_2_2"  />
</g>
<g id="a13_003"  >
<polygon points="252,135 257,130 260,130 260,140 257,140 252,135 " style="fill:white; stroke-width:1; stroke:black; " description="&lt;b&gt;STM2056&lt;/b&gt;&lt;br&gt;propanediol utilization protein PduV&lt;br&gt;Location: 17278 - 16825" locus_tag="STM2056" class="clusterblast-orf" id="knownclusterblast-13_all_13_2_3"  />
</g>
<g id="a13_004"  >
<polygon points="260,135 265,130 267,130 267,140 265,140 260,135 " style="fill:#d8155e; stroke-width:1; stroke:black; " description="&lt;b&gt;STM2055&lt;/b&gt;&lt;br&gt;propanediol utilization polyhedral body protein PduU&lt;br&gt;Location: 16821 - 16470&lt;br&gt;&lt;br&gt;&lt;b&gt;BlastP hit with ctg1_2531&lt;/b&gt;&lt;br&gt;Percentage identity: 57&lt;br&gt;Percentage coverage: 98&lt;br&gt;BLAST bit score: 128&lt;br&gt;E-value: 8.08e-42" locus_tag="STM2055" class="clusterblast-orf" id="knownclusterblast-13_all_13_2_4"  />
</g>
<g id="a13_005"  >
<polygon points="267,135 272,130 277,130 277,140 272,140 267,135 " style="fill:white; stroke-width:1; stroke:black; " description="&lt;b&gt;STM2054&lt;/b&gt;&lt;br&gt;propanediol utilization polyhedral body protein PduT&lt;br&gt;Location: 16471 - 15916" locus_tag="STM2054" class="clusterblast-orf" id="knownclusterblast-13_all_13_2_5"  />
</g>
<g id="a13_006"  >
<polygon points="277,135 282,130 303,130 303,140 282,140 277,135 " style="fill:white; stroke-width:1; stroke:black; " description="&lt;b&gt;STM2053&lt;/b&gt;&lt;br&gt;propanediol utilization polyhedral body protein PduS&lt;br&gt;Location: 15914 - 14558" locus_tag="STM2053" class="clusterblast-orf" id="knownclusterblast-13_all_13_2_6"  />
</g>
<g id="a13_007"  >
<polygon points="303,135 308,130 324,130 324,140 308,140 303,135 " style="fill:#c015d8; stroke-width:1; stroke:black; " description="&lt;b&gt;STM2052&lt;/b&gt;&lt;br&gt;propanol dehydrogenase&lt;br&gt;Location: 14562 - 13449&lt;br&gt;&lt;br&gt;&lt;b&gt;BlastP hit with ctg1_2522&lt;/b&gt;&lt;br&gt;Percentage identity: 38&lt;br&gt;Percentage coverage: 96&lt;br&gt;BLAST bit score: 193&lt;br&gt;E-value: 6.75e-60" locus_tag="STM2052" class="clusterblast-orf" id="knownclusterblast-13_all_13_2_7"  />
</g>
<g id="a13_008"  >
<polygon points="324,135 329,130 350,130 350,140 329,140 324,135 " style="fill:#15d846; stroke-width:1; stroke:black; " description="&lt;b&gt;STM2051&lt;/b&gt;&lt;br&gt;CoA-dependent propionaldehyde dehydrogenase&lt;br&gt;Location: 13438 - 12043&lt;br&gt;&lt;br&gt;&lt;b&gt;BlastP hit with ctg1_2524&lt;/b&gt;&lt;br&gt;Percentage identity: 46&lt;br&gt;Percentage coverage: 101&lt;br&gt;BLAST bit score: 365&lt;br&gt;E-value: 1.48e-124" locus_tag="STM2051" class="clusterblast-orf" id="knownclusterblast-13_all_13_2_8"  />
</g>
<g id="a13_009"  >
<polygon points="350,135 355,130 369,130 369,140 355,140 350,135 " style="fill:white; stroke-width:1; stroke:black; " description="&lt;b&gt;STM2050&lt;/b&gt;&lt;br&gt;propanediol utilization protein PduO&lt;br&gt;Location: 12047 - 11036" locus_tag="STM2050" class="clusterblast-orf" id="knownclusterblast-13_all_13_2_9"  />
</g>
<g id="a13_0010"  >
<polygon points="369,135 374,130 374,130 374,140 374,140 369,135 " style="fill:#1546d8; stroke-width:1; stroke:black; " description="&lt;b&gt;STM2049&lt;/b&gt;&lt;br&gt;propanediol utilization polyhedral body protein PduN&lt;br&gt;Location: 11027 - 10751&lt;br&gt;&lt;br&gt;&lt;b&gt;BlastP hit with ctg1_2525&lt;/b&gt;&lt;br&gt;Percentage identity: 44&lt;br&gt;Percentage coverage: 92&lt;br&gt;BLAST bit score: 67&lt;br&gt;E-value: 6.17e-18" locus_tag="STM2049" class="clusterblast-orf" id="knownclusterblast-13_all_13_2_10"  />
</g>
<g id="a13_0011"  >
<polygon points="374,135 379,130 383,130 383,140 379,140 374,135 " style="fill:white; stroke-width:1; stroke:black; " description="&lt;b&gt;STM2048&lt;/b&gt;&lt;br&gt;propanediol utilization protein PduM&lt;br&gt;Location: 10748 - 10256" locus_tag="STM2048" class="clusterblast-orf" id="knownclusterblast-13_all_13_2_11"  />
</g>
<g id="a13_0012"  >
<polygon points="383,135 388,130 395,130 395,140 388,140 383,135 " style="fill:white; stroke-width:1; stroke:black; " description="&lt;b&gt;STM2047&lt;/b&gt;&lt;br&gt;phosphate propanoyltransferase&lt;br&gt;Location: 10260 - 9627" locus_tag="STM2047" class="clusterblast-orf" id="knownclusterblast-13_all_13_2_12"  />
</g>
<g id="a13_0013"  >
<polygon points="395,135 400,130 404,130 404,140 400,140 395,135 " style="fill:white; stroke-width:1; stroke:black; " description="&lt;b&gt;STM2046&lt;/b&gt;&lt;br&gt;propanediol utilization polyhedral body protein PduK&lt;br&gt;Location: 9628 - 9166" locus_tag="STM2046" class="clusterblast-orf" id="knownclusterblast-13_all_13_2_13"  />
</g>
<g id="a13_0014"  >
<polygon points="404,135 409,130 409,130 409,140 409,140 404,135 " style="fill:#77d815; stroke-width:1; stroke:black; " description="&lt;b&gt;STM2045&lt;/b&gt;&lt;br&gt;propanediol utilization polyhedral body protein PduJ&lt;br&gt;Location: 9142 - 8866&lt;br&gt;&lt;br&gt;&lt;b&gt;BlastP hit with ctg1_2507&lt;/b&gt;&lt;br&gt;Percentage identity: 49&lt;br&gt;Percentage coverage: 52&lt;br&gt;BLAST bit score: 78&lt;br&gt;E-value: 1.78e-21&lt;br&gt;&lt;br&gt;&lt;b&gt;BlastP hit with ctg1_2526&lt;/b&gt;&lt;br&gt;Percentage identity: 65&lt;br&gt;Percentage coverage: 88&lt;br&gt;BLAST bit score: 105&lt;br&gt;E-value: 3.04e-33" locus_tag="STM2045" class="clusterblast-orf" id="knownclusterblast-13_all_13_2_14"  />
</g>
<g id="a13_0015"  >
<polygon points="410,135 415,130 416,130 416,140 415,140 410,135 " style="fill:white; stroke-width:1; stroke:black; " description="&lt;b&gt;STM2044&lt;/b&gt;&lt;br&gt;propanediol dehydratase reactivation protein&lt;br&gt;Location: 8848 - 8497" locus_tag="STM2044" class="clusterblast-orf" id="knownclusterblast-13_all_13_2_15"  />
</g>
<g id="a13_0016"  >
<polygon points="416,135 421,130 450,130 450,140 421,140 416,135 " style="fill:white; stroke-width:1; stroke:black; " description="&lt;b&gt;STM2043&lt;/b&gt;&lt;br&gt;propanediol dehydratase reactivation protein&lt;br&gt;Location: 8508 - 6675" locus_tag="STM2043" class="clusterblast-orf" id="knownclusterblast-13_all_13_2_16"  />
</g>
<g id="a13_0017"  >
<polygon points="451,135 456,130 460,130 460,140 456,140 451,135 " style="fill:white; stroke-width:1; stroke:black; " description="&lt;b&gt;STM2042&lt;/b&gt;&lt;br&gt;propanediol dehydratase small subunit&lt;br&gt;Location: 6666 - 6144" locus_tag="STM2042" class="clusterblast-orf" id="knownclusterblast-13_all_13_2_17"  />
</g>
<g id="a13_0018"  >
<polygon points="461,135 466,130 473,130 473,140 466,140 461,135 " style="fill:white; stroke-width:1; stroke:black; " description="&lt;b&gt;STM2041&lt;/b&gt;&lt;br&gt;propanediol dehydratase medium subunit&lt;br&gt;Location: 6130 - 5455" locus_tag="STM2041" class="clusterblast-orf" id="knownclusterblast-13_all_13_2_18"  />
</g>
<g id="a13_0019"  >
<polygon points="473,135 478,130 505,130 505,140 478,140 473,135 " style="fill:white; stroke-width:1; stroke:black; " description="&lt;b&gt;STM2040&lt;/b&gt;&lt;br&gt;propanediol dehydratase large subunit&lt;br&gt;Location: 5445 - 3780" locus_tag="STM2040" class="clusterblast-orf" id="knownclusterblast-13_all_13_2_19"  />
</g>
<g id="a13_0020"  >
<polygon points="505,135 510,130 520,130 520,140 510,140 505,135 " style="fill:white; stroke-width:1; stroke:black; " description="&lt;b&gt;STM2039&lt;/b&gt;&lt;br&gt;propanediol utilization polyhedral body protein PduB&lt;br&gt;Location: 3762 - 2949" locus_tag="STM2039" class="clusterblast-orf" id="knownclusterblast-13_all_13_2_20"  />
</g>
<g id="a13_0021"  >
<polygon points="520,135 525,130 525,130 525,140 525,140 520,135 " style="fill:#77d815; stroke-width:1; stroke:black; " description="&lt;b&gt;STM2038&lt;/b&gt;&lt;br&gt;propanediol utilization polyhedral body protein PduA&lt;br&gt;Location: 2953 - 2668&lt;br&gt;&lt;br&gt;&lt;b&gt;BlastP hit with ctg1_2507&lt;/b&gt;&lt;br&gt;Percentage identity: 46&lt;br&gt;Percentage coverage: 51&lt;br&gt;BLAST bit score: 74&lt;br&gt;E-value: 1.2e-19&lt;br&gt;&lt;br&gt;&lt;b&gt;BlastP hit with ctg1_2526&lt;/b&gt;&lt;br&gt;Percentage identity: 66&lt;br&gt;Percentage coverage: 92&lt;br&gt;BLAST bit score: 113&lt;br&gt;E-value: 2.1e-36" locus_tag="STM2038" class="clusterblast-orf" id="knownclusterblast-13_all_13_2_21"  />
</g>
<g id="a13_0022"  >
<polygon points="535,140 545,140 550,135 545,130 535,130 535,140 " style="fill:white; stroke-width:1; stroke:black; " description="&lt;b&gt;STM2037&lt;/b&gt;&lt;br&gt;propanediol diffusion facilitator&lt;br&gt;Location: 2144 - 1349" locus_tag="STM2037" class="clusterblast-orf" id="knownclusterblast-13_all_13_2_22"  />
</g>
<g id="a13_0023"  >
<polygon points="554,140 566,140 571,135 566,130 554,130 554,140 " style="fill:white; stroke-width:1; stroke:black; " description="&lt;b&gt;STM2036&lt;/b&gt;&lt;br&gt;transcriptional regulator PocR&lt;br&gt;Location: 1133 - 221" locus_tag="STM2036" class="clusterblast-orf" id="knownclusterblast-13_all_13_2_23"  />
</g>
<g label="MGC0000001" description="MGC0000001_c1: Trimethylamine synthesis C. sporogenes (33% of genes show similarity), TMA" class="clusterblast-cluster"  >
<text x="5" y="170" class="clusterblast-acc"  >
MGC0000001_c1: Trimethylamine synthesis C. sporogenes (33% of genes show similarity), TMA</text>
<line x1="10" y1="185" x2="778.0" y2="185" style="stroke-width:1; stroke:grey; "  />
</g>
<g id="a13_000"  >
<polygon points="336,185 337,180 337,190 336,185 " style="fill:white; stroke-width:1; stroke:black; " description="&lt;b&gt;CLOSPO_RS07645&lt;/b&gt;&lt;br&gt;hypothetical protein&lt;br&gt;Location: 5704 - 5637" locus_tag="CLOSPO_RS07645" class="clusterblast-orf" id="knownclusterblast-13_all_13_3_0"  />
</g>
<g id="a13_001"  >
<polygon points="337,185 342,180 344,180 344,190 342,190 337,185 " style="fill:#d8155e; stroke-width:1; stroke:black; " description="&lt;b&gt;CLOSPO_RS07640&lt;/b&gt;&lt;br&gt;propanediol utilization protein PduU&lt;br&gt;Location: 5641 - 5287&lt;br&gt;&lt;br&gt;&lt;b&gt;BlastP hit with ctg1_2531&lt;/b&gt;&lt;br&gt;Percentage identity: 51&lt;br&gt;Percentage coverage: 97&lt;br&gt;BLAST bit score: 116&lt;br&gt;E-value: 6.11e-37" locus_tag="CLOSPO_RS07640" class="clusterblast-orf" id="knownclusterblast-13_all_13_3_1"  />
</g>
<g id="a13_002"  >
<polygon points="345,185 350,180 362,180 362,190 350,190 345,185 " style="fill:white; stroke-width:1; stroke:black; " description="&lt;b&gt;CLOSPO_RS07635&lt;/b&gt;&lt;br&gt;choline TMA-lyase-activating enzyme&lt;br&gt;Location: 5248 - 4294" locus_tag="CLOSPO_RS07635" class="clusterblast-orf" id="knownclusterblast-13_all_13_3_2"  />
</g>
<g id="a13_003"  >
<polygon points="366,185 371,180 413,180 413,190 371,190 366,185 " style="fill:white; stroke-width:1; stroke:black; " description="&lt;b&gt;CLOSPO_RS07630&lt;/b&gt;&lt;br&gt;choline trimethylamine-lyase&lt;br&gt;Location: 4113 - 1572" locus_tag="CLOSPO_RS07630" class="clusterblast-orf" id="knownclusterblast-13_all_13_3_3"  />
</g>
<g id="a13_004"  >
<polygon points="414,185 419,180 442,180 442,190 419,190 414,185 " style="fill:white; stroke-width:1; stroke:black; " description="&lt;b&gt;CLOSPO_RS07625&lt;/b&gt;&lt;br&gt;acetaldehyde dehydrogenase&lt;br&gt;Location: 1523 - 41" locus_tag="CLOSPO_RS07625" class="clusterblast-orf" id="knownclusterblast-13_all_13_3_4"  />
</g>
<g id="a13_005"  >
<polygon points="443,185 443,180 443,190 443,185 " style="fill:#77d815; stroke-width:1; stroke:black; " description="&lt;b&gt;CLOSPO_RS07620&lt;/b&gt;&lt;br&gt;hypothetical protein&lt;br&gt;Location: 4 - 0&lt;br&gt;&lt;br&gt;&lt;b&gt;BlastP hit with ctg1_2507&lt;/b&gt;&lt;br&gt;Percentage identity: 41&lt;br&gt;Percentage coverage: 54&lt;br&gt;BLAST bit score: 67&lt;br&gt;E-value: 3.55e-17&lt;br&gt;&lt;br&gt;&lt;b&gt;BlastP hit with ctg1_2526&lt;/b&gt;&lt;br&gt;Percentage identity: 54&lt;br&gt;Percentage coverage: 90&lt;br&gt;BLAST bit score: 82&lt;br&gt;E-value: 7.69e-24" locus_tag="CLOSPO_RS07620" class="clusterblast-orf" id="knownclusterblast-13_all_13_3_5"  />
</g>
</svg>
