<svg xmlns="http://www.w3.org/2000/svg" xmlns:xlink="http://www.w3.org/1999/xlink" version="1.1" x="0" y="0" height="250" width="800" viewBox="0 0 800 250" preserveAspectRatio="none"  >
<g label="Query sequence" class="clusterblast-cluster"  >
<text x="5" y="20" class="clusterblast-acc"  >
Query sequence</text>
<line x1="10" y1="35" x2="778.0" y2="35" style="stroke-width:1; stroke:grey; "  />
<polygon points="0,35 5,30 24,30 24,40 5,40 0,35 " style="fill:white; stroke-width:1; stroke:black; " description="&lt;b&gt;ctg1_925&lt;/b&gt;&lt;br&gt;ctg1 925&lt;br&gt;Location: 984235 - 985201" locus_tag="ctg1_925" class="clusterblast-orf" id="knownclusterblast-4_q0_0_all"  />
<polygon points="38,40 46,40 51,35 46,30 38,30 38,40 " style="fill:white; stroke-width:1; stroke:black; " description="&lt;b&gt;ctg1_926&lt;/b&gt;&lt;br&gt;ctg1 926&lt;br&gt;Location: 985745 - 986240" locus_tag="ctg1_926" class="clusterblast-orf" id="knownclusterblast-4_q1_0_all"  />
<polygon points="54,40 150,40 155,35 150,30 54,30 54,40 " style="fill:white; stroke-width:1; stroke:black; " description="&lt;b&gt;ctg1_927&lt;/b&gt;&lt;br&gt;ctg1 927&lt;br&gt;Location: 986374 - 990364" locus_tag="ctg1_927" class="clusterblast-orf" id="knownclusterblast-4_q2_0_all"  />
<polygon points="159,40 169,40 174,35 169,30 159,30 159,40 " style="fill:white; stroke-width:1; stroke:black; " description="&lt;b&gt;ctg1_928&lt;/b&gt;&lt;br&gt;ctg1 928&lt;br&gt;Location: 990522 - 991134" locus_tag="ctg1_928" class="clusterblast-orf" id="knownclusterblast-4_q3_0_all"  />
<polygon points="175,40 204,40 209,35 204,30 175,30 175,40 " style="fill:white; stroke-width:1; stroke:black; " description="&lt;b&gt;ctg1_929&lt;/b&gt;&lt;br&gt;ctg1 929&lt;br&gt;Location: 991144 - 992488" locus_tag="ctg1_929" class="clusterblast-orf" id="knownclusterblast-4_q4_0_all"  />
<polygon points="211,40 239,40 244,35 239,30 211,30 211,40 " style="fill:white; stroke-width:1; stroke:black; " description="&lt;b&gt;ctg1_930&lt;/b&gt;&lt;br&gt;ctg1 930&lt;br&gt;Location: 992578 - 993871" locus_tag="ctg1_930" class="clusterblast-orf" id="knownclusterblast-4_q5_0_all"  />
<polygon points="250,40 307,40 312,35 307,30 250,30 250,40 " style="fill:#d81515; stroke-width:1; stroke:black; " description="&lt;b&gt;ctg1_931&lt;/b&gt;&lt;br&gt;ctg1 931&lt;br&gt;Location: 994109 - 996554" locus_tag="ctg1_931" class="clusterblast-orf" id="knownclusterblast-4_q6_0_all"  />
<polygon points="312,40 323,40 328,35 323,30 312,30 312,40 " style="fill:#15d863; stroke-width:1; stroke:black; " description="&lt;b&gt;ctg1_932&lt;/b&gt;&lt;br&gt;ctg1 932&lt;br&gt;Location: 996564 - 997182" locus_tag="ctg1_932" class="clusterblast-orf" id="knownclusterblast-4_q7_0_all"  />
<polygon points="328,40 345,40 350,35 345,30 328,30 328,40 " style="fill:#1563d8; stroke-width:1; stroke:black; " description="&lt;b&gt;ctg1_933&lt;/b&gt;&lt;br&gt;ctg1 933&lt;br&gt;Location: 997183 - 998047" locus_tag="ctg1_933" class="clusterblast-orf" id="knownclusterblast-4_q8_0_all"  />
<polygon points="350,35 355,30 366,30 366,40 355,40 350,35 " style="fill:white; stroke-width:1; stroke:black; " description="&lt;b&gt;ctg1_934&lt;/b&gt;&lt;br&gt;ctg1 934&lt;br&gt;Location: 998081 - 998708" locus_tag="ctg1_934" class="clusterblast-orf" id="knownclusterblast-4_q9_0_all"  />
<polygon points="374,40 398,40 403,35 398,30 374,30 374,40 " style="fill:white; stroke-width:1; stroke:black; " description="&lt;b&gt;ctg1_935&lt;/b&gt;&lt;br&gt;ctg1 935&lt;br&gt;Location: 999021 - 1000170" locus_tag="ctg1_935" class="clusterblast-orf" id="knownclusterblast-4_q10_0_all"  />
<polygon points="409,40 440,40 445,35 440,30 409,30 409,40 " style="fill:white; stroke-width:1; stroke:black; " description="&lt;b&gt;ctg1_936&lt;/b&gt;&lt;br&gt;ctg1 936&lt;br&gt;Location: 1000379 - 1001810" locus_tag="ctg1_936" class="clusterblast-orf" id="knownclusterblast-4_q11_0_all"  />
<polygon points="445,35 450,30 468,30 468,40 450,40 445,35 " style="fill:white; stroke-width:1; stroke:black; " description="&lt;b&gt;ctg1_937&lt;/b&gt;&lt;br&gt;ctg1 937&lt;br&gt;Location: 1001810 - 1002719" locus_tag="ctg1_937" class="clusterblast-orf" id="knownclusterblast-4_q12_0_all"  />
<polygon points="470,40 480,40 485,35 480,30 470,30 470,40 " style="fill:white; stroke-width:1; stroke:black; " description="&lt;b&gt;ctg1_938&lt;/b&gt;&lt;br&gt;ctg1 938&lt;br&gt;Location: 1002818 - 1003409" locus_tag="ctg1_938" class="clusterblast-orf" id="knownclusterblast-4_q13_0_all"  />
<polygon points="487,35 492,30 506,30 506,40 492,40 487,35 " style="fill:#b115d8; stroke-width:1; stroke:black; " description="&lt;b&gt;ctg1_939&lt;/b&gt;&lt;br&gt;ctg1 939&lt;br&gt;Location: 1003490 - 1004231" locus_tag="ctg1_939" class="clusterblast-orf" id="knownclusterblast-4_q14_0_all"  />
<polygon points="511,35 516,30 569,30 569,40 516,40 511,35 " style="fill:#b1d815; stroke-width:1; stroke:black; " description="&lt;b&gt;ctg1_940&lt;/b&gt;&lt;br&gt;ctg1 940&lt;br&gt;Location: 1004422 - 1006705" locus_tag="ctg1_940" class="clusterblast-orf" id="knownclusterblast-4_q15_0_all"  />
<polygon points="570,35 575,30 592,30 592,40 575,40 570,35 " style="fill:white; stroke-width:1; stroke:black; " description="&lt;b&gt;ctg1_941&lt;/b&gt;&lt;br&gt;ctg1 941&lt;br&gt;Location: 1006759 - 1007617" locus_tag="ctg1_941" class="clusterblast-orf" id="knownclusterblast-4_q16_0_all"  />
<polygon points="602,35 607,30 647,30 647,40 607,40 602,35 " style="fill:white; stroke-width:1; stroke:black; " description="&lt;b&gt;ctg1_942&lt;/b&gt;&lt;br&gt;ctg1 942&lt;br&gt;Location: 1008022 - 1009783" locus_tag="ctg1_942" class="clusterblast-orf" id="knownclusterblast-4_q17_0_all"  />
<polygon points="650,40 663,40 668,35 663,30 650,30 650,40 " style="fill:white; stroke-width:1; stroke:black; " description="&lt;b&gt;ctg1_943&lt;/b&gt;&lt;br&gt;ctg1 943&lt;br&gt;Location: 1009912 - 1010605" locus_tag="ctg1_943" class="clusterblast-orf" id="knownclusterblast-4_q18_0_all"  />
<polygon points="673,40 695,40 700,35 695,30 673,30 673,40 " style="fill:white; stroke-width:1; stroke:black; " description="&lt;b&gt;ctg1_944&lt;/b&gt;&lt;br&gt;ctg1 944&lt;br&gt;Location: 1010803 - 1011892" locus_tag="ctg1_944" class="clusterblast-orf" id="knownclusterblast-4_q19_0_all"  />
<polygon points="702,40 729,40 734,35 729,30 702,30 702,40 " style="fill:white; stroke-width:1; stroke:black; " description="&lt;b&gt;ctg1_945&lt;/b&gt;&lt;br&gt;ctg1 945&lt;br&gt;Location: 1011962 - 1013246" locus_tag="ctg1_945" class="clusterblast-orf" id="knownclusterblast-4_q20_0_all"  />
<polygon points="739,40 753,40 758,35 753,30 739,30 739,40 " style="fill:white; stroke-width:1; stroke:black; " description="&lt;b&gt;ctg1_946&lt;/b&gt;&lt;br&gt;ctg1 946&lt;br&gt;Location: 1013414 - 1014179" locus_tag="ctg1_946" class="clusterblast-orf" id="knownclusterblast-4_q21_0_all"  />
<polygon points="762,40 775,40 780,35 775,30 762,30 762,40 " style="fill:white; stroke-width:1; stroke:black; " description="&lt;b&gt;ctg1_947&lt;/b&gt;&lt;br&gt;ctg1 947&lt;br&gt;Location: 1014351 - 1015035" locus_tag="ctg1_947" class="clusterblast-orf" id="knownclusterblast-4_q22_0_all"  />
</g>
<g label="MGC00000046" description="MGC00000046_c1: DMSO-TMAO reducatse E. coli (100% of genes show similarity), DMSAO-TMAO" class="clusterblast-cluster"  >
<text x="5" y="70" class="clusterblast-acc"  >
MGC00000046_c1: DMSO-TMAO reducatse E. coli (100% of genes show similarity), DMSAO-TMAO</text>
<line x1="10" y1="85" x2="778.0" y2="85" style="stroke-width:1; stroke:grey; "  />
</g>
<g id="a4_000"  >
<polygon points="309,90 365,90 370,85 365,80 309,80 309,90 " style="fill:#d81515; stroke-width:1; stroke:black; " description="&lt;b&gt;b1587&lt;/b&gt;&lt;br&gt;putative selenate reductase YnfE&lt;br&gt;Location: 10000 - 12427&lt;br&gt;&lt;br&gt;&lt;b&gt;BlastP hit with ctg1_931&lt;/b&gt;&lt;br&gt;Percentage identity: 67&lt;br&gt;Percentage coverage: 99&lt;br&gt;BLAST bit score: 1124&lt;br&gt;E-value: 0.0" locus_tag="b1587" class="clusterblast-orf" id="knownclusterblast-4_all_4_1_0"  />
</g>
<g id="a4_001"  >
<polygon points="371,90 428,90 433,85 428,80 371,80 371,90 " style="fill:#d81515; stroke-width:1; stroke:black; " description="&lt;b&gt;b1588&lt;/b&gt;&lt;br&gt;putative selenate reductase YnfF&lt;br&gt;Location: 12487 - 14911&lt;br&gt;&lt;br&gt;&lt;b&gt;BlastP hit with ctg1_931&lt;/b&gt;&lt;br&gt;Percentage identity: 66&lt;br&gt;Percentage coverage: 100&lt;br&gt;BLAST bit score: 1110&lt;br&gt;E-value: 0.0" locus_tag="b1588" class="clusterblast-orf" id="knownclusterblast-4_all_4_1_1"  />
</g>
<g id="a4_002"  >
<polygon points="433,90 444,90 449,85 444,80 433,80 433,90 " style="fill:#15d863; stroke-width:1; stroke:black; " description="&lt;b&gt;b1589&lt;/b&gt;&lt;br&gt;putative oxidoreductase YnfG&lt;br&gt;Location: 14921 - 15539&lt;br&gt;&lt;br&gt;&lt;b&gt;BlastP hit with ctg1_932&lt;/b&gt;&lt;br&gt;Percentage identity: 94&lt;br&gt;Percentage coverage: 100&lt;br&gt;BLAST bit score: 434&lt;br&gt;E-value: 7.06e-160" locus_tag="b1589" class="clusterblast-orf" id="knownclusterblast-4_all_4_1_2"  />
</g>
<g id="a4_003"  >
<polygon points="449,90 465,90 470,85 465,80 449,80 449,90 " style="fill:#1563d8; stroke-width:1; stroke:black; " description="&lt;b&gt;b1590&lt;/b&gt;&lt;br&gt;putative menaquinol dehydrogenase&lt;br&gt;Location: 15540 - 16395&lt;br&gt;&lt;br&gt;&lt;b&gt;BlastP hit with ctg1_933&lt;/b&gt;&lt;br&gt;Percentage identity: 57&lt;br&gt;Percentage coverage: 100&lt;br&gt;BLAST bit score: 300&lt;br&gt;E-value: 1.83e-104" locus_tag="b1590" class="clusterblast-orf" id="knownclusterblast-4_all_4_1_3"  />
</g>
<g label="MGC00000044" description="MGC00000044_c1: Pyruvate to acetate-formate E. coli (100% of genes show similarity), PFL_acetate" class="clusterblast-cluster"  >
<text x="5" y="120" class="clusterblast-acc"  >
MGC00000044_c1: Pyruvate to acetate-formate E. coli (100% of genes show similarity), PFL_acetate</text>
<line x1="10" y1="135" x2="778.0" y2="135" style="stroke-width:1; stroke:grey; "  />
</g>
<g id="a4_000"  >
<polygon points="349,135 354,130 368,130 368,140 354,140 349,135 " style="fill:#b115d8; stroke-width:1; stroke:black; " description="&lt;b&gt;b0902&lt;/b&gt;&lt;br&gt;pyruvate formate-lyase activating enzyme&lt;br&gt;Location: 10000 - 10741&lt;br&gt;&lt;br&gt;&lt;b&gt;BlastP hit with ctg1_939&lt;/b&gt;&lt;br&gt;Percentage identity: 100&lt;br&gt;Percentage coverage: 100&lt;br&gt;BLAST bit score: 521&lt;br&gt;E-value: 5.76e-193" locus_tag="b0902" class="clusterblast-orf" id="knownclusterblast-4_all_4_2_0"  />
</g>
<g id="a4_001"  >
<polygon points="372,135 377,130 430,130 430,140 377,140 372,135 " style="fill:#b1d815; stroke-width:1; stroke:black; " description="&lt;b&gt;b0903&lt;/b&gt;&lt;br&gt;pyruvate formate-lyase&lt;br&gt;Location: 10932 - 13215&lt;br&gt;&lt;br&gt;&lt;b&gt;BlastP hit with ctg1_940&lt;/b&gt;&lt;br&gt;Percentage identity: 100&lt;br&gt;Percentage coverage: 100&lt;br&gt;BLAST bit score: 1518&lt;br&gt;E-value: 0.0" locus_tag="b0903" class="clusterblast-orf" id="knownclusterblast-4_all_4_2_1"  />
</g>
<g label="MGC00000031" description="MGC00000031_c1: Pyruvate to acetate and formate C. acetobutylicum (100% of genes show similarity), PFL_acetate" class="clusterblast-cluster"  >
<text x="5" y="170" class="clusterblast-acc"  >
MGC00000031_c1: Pyruvate to acetate and formate C. acetobutylicum (100% of genes show similarity), PFL_acetate</text>
<line x1="10" y1="185" x2="778.0" y2="185" style="stroke-width:1; stroke:grey; "  />
</g>
<g id="a4_000"  >
<polygon points="352,185 357,180 370,180 370,190 357,190 352,185 " style="fill:#b115d8; stroke-width:1; stroke:black; " description="&lt;b&gt;CA_C0981&lt;/b&gt;&lt;br&gt;Pyruvate-formate-lyase-activating enzyme&lt;br&gt;Location: 12956 - 12242&lt;br&gt;&lt;br&gt;&lt;b&gt;BlastP hit with ctg1_939&lt;/b&gt;&lt;br&gt;Percentage identity: 43&lt;br&gt;Percentage coverage: 97&lt;br&gt;BLAST bit score: 213&lt;br&gt;E-value: 2.18e-71" locus_tag="CA_C0981" class="clusterblast-orf" id="knownclusterblast-4_all_4_3_0"  />
</g>
<g id="a4_001"  >
<polygon points="370,185 375,180 427,180 427,190 375,190 370,185 " style="fill:#b1d815; stroke-width:1; stroke:black; " description="&lt;b&gt;CA_C0980&lt;/b&gt;&lt;br&gt;Pyruvate-formate lyase&lt;br&gt;Location: 12232 - 10000&lt;br&gt;&lt;br&gt;&lt;b&gt;BlastP hit with ctg1_940&lt;/b&gt;&lt;br&gt;Percentage identity: 61&lt;br&gt;Percentage coverage: 98&lt;br&gt;BLAST bit score: 910&lt;br&gt;E-value: 0.0" locus_tag="CA_C0980" class="clusterblast-orf" id="knownclusterblast-4_all_4_3_1"  />
</g>
<g label="MGC00000034" description="MGC00000034_c1: Pyruvate to acetate-formate B. thetaiotaomicron (100% of genes show similarity), PFL_acetate" class="clusterblast-cluster"  >
<text x="5" y="220" class="clusterblast-acc"  >
MGC00000034_c1: Pyruvate to acetate-formate B. thetaiotaomicron (100% of genes show similarity), PFL_acetate</text>
<line x1="10" y1="235" x2="778.0" y2="235" style="stroke-width:1; stroke:grey; "  />
</g>
<g id="a4_000"  >
<polygon points="352,235 357,230 370,230 370,240 357,240 352,235 " style="fill:#b115d8; stroke-width:1; stroke:black; " description="&lt;b&gt;BT_4737&lt;/b&gt;&lt;br&gt;pyruvate formate-lyase activating enzyme&lt;br&gt;Location: 10000 - 10729&lt;br&gt;&lt;br&gt;&lt;b&gt;BlastP hit with ctg1_939&lt;/b&gt;&lt;br&gt;Percentage identity: 43&lt;br&gt;Percentage coverage: 96&lt;br&gt;BLAST bit score: 209&lt;br&gt;E-value: 1.18e-69" locus_tag="BT_4737" class="clusterblast-orf" id="knownclusterblast-4_all_4_4_0"  />
</g>
<g id="a4_001"  >
<polygon points="371,235 376,230 427,230 427,240 376,240 371,235 " style="fill:#b1d815; stroke-width:1; stroke:black; " description="&lt;b&gt;BT_4738&lt;/b&gt;&lt;br&gt;formate acetyltransferase&lt;br&gt;Location: 10742 - 12971&lt;br&gt;&lt;br&gt;&lt;b&gt;BlastP hit with ctg1_940&lt;/b&gt;&lt;br&gt;Percentage identity: 57&lt;br&gt;Percentage coverage: 98&lt;br&gt;BLAST bit score: 813&lt;br&gt;E-value: 5.6e-292" locus_tag="BT_4738" class="clusterblast-orf" id="knownclusterblast-4_all_4_4_1"  />
</g>
</svg>
