<svg xmlns="http://www.w3.org/2000/svg" xmlns:xlink="http://www.w3.org/1999/xlink" version="1.1" x="0" y="0" height="100" width="800" viewBox="0 0 800 100" preserveAspectRatio="none"  >
<g label="Query sequence" class="clusterblast-cluster"  >
<text x="5" y="20" class="clusterblast-acc"  >
Query sequence</text>
<line x1="10" y1="35" x2="778.0" y2="35" style="stroke-width:1; stroke:grey; "  />
<polygon points="0,40 0,40 5,35 0,30 0,30 0,40 " style="fill:white; stroke-width:1; stroke:black; " description="&lt;b&gt;ctg1_1651&lt;/b&gt;&lt;br&gt;ctg1 1651&lt;br&gt;Location: 1737257 - 1737446" locus_tag="ctg1_1651" class="clusterblast-orf" id="knownclusterblast-8_q0_0_all"  />
<polygon points="5,40 6,40 11,35 6,30 5,30 5,40 " style="fill:white; stroke-width:1; stroke:black; " description="&lt;b&gt;ctg1_1652&lt;/b&gt;&lt;br&gt;ctg1 1652&lt;br&gt;Location: 1737442 - 1737634" locus_tag="ctg1_1652" class="clusterblast-orf" id="knownclusterblast-8_q1_0_all"  />
<polygon points="14,40 35,40 40,35 35,30 14,30 14,40 " style="fill:white; stroke-width:1; stroke:black; " description="&lt;b&gt;ctg1_1653&lt;/b&gt;&lt;br&gt;ctg1 1653&lt;br&gt;Location: 1737726 - 1738647" locus_tag="ctg1_1653" class="clusterblast-orf" id="knownclusterblast-8_q2_0_all"  />
<polygon points="40,40 51,40 56,35 51,30 40,30 40,40 " style="fill:white; stroke-width:1; stroke:black; " description="&lt;b&gt;ctg1_1654&lt;/b&gt;&lt;br&gt;ctg1 1654&lt;br&gt;Location: 1738643 - 1739186" locus_tag="ctg1_1654" class="clusterblast-orf" id="knownclusterblast-8_q3_0_all"  />
<polygon points="55,40 66,40 71,35 66,30 55,30 55,40 " style="fill:white; stroke-width:1; stroke:black; " description="&lt;b&gt;ctg1_1655&lt;/b&gt;&lt;br&gt;ctg1 1655&lt;br&gt;Location: 1739160 - 1739682" locus_tag="ctg1_1655" class="clusterblast-orf" id="knownclusterblast-8_q4_0_all"  />
<polygon points="66,35 71,30 92,30 92,40 71,40 66,35 " style="fill:white; stroke-width:1; stroke:black; " description="&lt;b&gt;ctg1_1656&lt;/b&gt;&lt;br&gt;ctg1 1656&lt;br&gt;Location: 1739515 - 1740421" locus_tag="ctg1_1656" class="clusterblast-orf" id="knownclusterblast-8_q5_0_all"  />
<polygon points="91,35 96,30 102,30 102,40 96,40 91,35 " style="fill:white; stroke-width:1; stroke:black; " description="&lt;b&gt;ctg1_1657&lt;/b&gt;&lt;br&gt;ctg1 1657&lt;br&gt;Location: 1740378 - 1740744" locus_tag="ctg1_1657" class="clusterblast-orf" id="knownclusterblast-8_q6_0_all"  />
<polygon points="102,40 125,40 130,35 125,30 102,30 102,40 " style="fill:white; stroke-width:1; stroke:black; " description="&lt;b&gt;ctg1_1658&lt;/b&gt;&lt;br&gt;ctg1 1658&lt;br&gt;Location: 1740754 - 1741693" locus_tag="ctg1_1658" class="clusterblast-orf" id="knownclusterblast-8_q7_0_all"  />
<polygon points="135,35 140,30 165,30 165,40 140,40 135,35 " style="fill:white; stroke-width:1; stroke:black; " description="&lt;b&gt;ctg1_1659&lt;/b&gt;&lt;br&gt;ctg1 1659&lt;br&gt;Location: 1741880 - 1742900" locus_tag="ctg1_1659" class="clusterblast-orf" id="knownclusterblast-8_q8_0_all"  />
<polygon points="165,35 170,30 201,30 201,40 170,40 165,35 " style="fill:white; stroke-width:1; stroke:black; " description="&lt;b&gt;ctg1_1660&lt;/b&gt;&lt;br&gt;ctg1 1660&lt;br&gt;Location: 1742911 - 1744126" locus_tag="ctg1_1660" class="clusterblast-orf" id="knownclusterblast-8_q9_0_all"  />
<polygon points="207,35 212,30 216,30 216,40 212,40 207,35 " style="fill:white; stroke-width:1; stroke:black; " description="&lt;b&gt;ctg1_1661&lt;/b&gt;&lt;br&gt;ctg1 1661&lt;br&gt;Location: 1744331 - 1744658" locus_tag="ctg1_1661" class="clusterblast-orf" id="knownclusterblast-8_q10_0_all"  />
<polygon points="220,40 225,40 230,35 225,30 220,30 220,40 " style="fill:white; stroke-width:1; stroke:black; " description="&lt;b&gt;ctg1_1662&lt;/b&gt;&lt;br&gt;ctg1 1662&lt;br&gt;Location: 1744792 - 1745134" locus_tag="ctg1_1662" class="clusterblast-orf" id="knownclusterblast-8_q11_0_all"  />
<polygon points="231,40 243,40 248,35 243,30 231,30 231,40 " style="fill:white; stroke-width:1; stroke:black; " description="&lt;b&gt;ctg1_1663&lt;/b&gt;&lt;br&gt;ctg1 1663&lt;br&gt;Location: 1745168 - 1745729" locus_tag="ctg1_1663" class="clusterblast-orf" id="knownclusterblast-8_q12_0_all"  />
<polygon points="248,35 253,30 269,30 269,40 253,40 248,35 " style="fill:white; stroke-width:1; stroke:black; " description="&lt;b&gt;ctg1_1664&lt;/b&gt;&lt;br&gt;ctg1 1664&lt;br&gt;Location: 1745731 - 1746478" locus_tag="ctg1_1664" class="clusterblast-orf" id="knownclusterblast-8_q13_0_all"  />
<polygon points="271,40 275,40 280,35 275,30 271,30 271,40 " style="fill:white; stroke-width:1; stroke:black; " description="&lt;b&gt;ctg1_1665&lt;/b&gt;&lt;br&gt;ctg1 1665&lt;br&gt;Location: 1746549 - 1746855" locus_tag="ctg1_1665" class="clusterblast-orf" id="knownclusterblast-8_q14_0_all"  />
<polygon points="286,40 352,40 357,35 352,30 286,30 286,40 " style="fill:#d81515; stroke-width:1; stroke:black; " description="&lt;b&gt;ctg1_1666&lt;/b&gt;&lt;br&gt;ctg1 1666&lt;br&gt;Location: 1747053 - 1749480" locus_tag="ctg1_1666" class="clusterblast-orf" id="knownclusterblast-8_q15_0_all"  />
<polygon points="360,40 425,40 430,35 425,30 360,30 360,40 " style="fill:#d81515; stroke-width:1; stroke:black; " description="&lt;b&gt;ctg1_1667&lt;/b&gt;&lt;br&gt;ctg1 1667&lt;br&gt;Location: 1749567 - 1751964" locus_tag="ctg1_1667" class="clusterblast-orf" id="knownclusterblast-8_q16_0_all"  />
<polygon points="430,40 443,40 448,35 443,30 430,30 430,40 " style="fill:#15d815; stroke-width:1; stroke:black; " description="&lt;b&gt;ctg1_1668&lt;/b&gt;&lt;br&gt;ctg1 1668&lt;br&gt;Location: 1751974 - 1752592" locus_tag="ctg1_1668" class="clusterblast-orf" id="knownclusterblast-8_q17_0_all"  />
<polygon points="448,40 468,40 473,35 468,30 448,30 448,40 " style="fill:#1515d8; stroke-width:1; stroke:black; " description="&lt;b&gt;ctg1_1669&lt;/b&gt;&lt;br&gt;ctg1 1669&lt;br&gt;Location: 1752593 - 1753448" locus_tag="ctg1_1669" class="clusterblast-orf" id="knownclusterblast-8_q18_0_all"  />
<polygon points="474,40 487,40 492,35 487,30 474,30 474,40 " style="fill:white; stroke-width:1; stroke:black; " description="&lt;b&gt;ctg1_1670&lt;/b&gt;&lt;br&gt;ctg1 1670&lt;br&gt;Location: 1753490 - 1754105" locus_tag="ctg1_1670" class="clusterblast-orf" id="knownclusterblast-8_q19_0_all"  />
<polygon points="498,40 530,40 535,35 530,30 498,30 498,40 " style="fill:white; stroke-width:1; stroke:black; " description="&lt;b&gt;ctg1_1671&lt;/b&gt;&lt;br&gt;ctg1 1671&lt;br&gt;Location: 1754299 - 1755556" locus_tag="ctg1_1671" class="clusterblast-orf" id="knownclusterblast-8_q20_0_all"  />
<polygon points="533,35 538,30 554,30 554,40 538,40 533,35 " style="fill:white; stroke-width:1; stroke:black; " description="&lt;b&gt;ctg1_1672&lt;/b&gt;&lt;br&gt;ctg1 1672&lt;br&gt;Location: 1755508 - 1756204" locus_tag="ctg1_1672" class="clusterblast-orf" id="knownclusterblast-8_q21_0_all"  />
<polygon points="557,35 562,30 593,30 593,40 562,40 557,35 " style="fill:white; stroke-width:1; stroke:black; " description="&lt;b&gt;ctg1_1673&lt;/b&gt;&lt;br&gt;ctg1 1673&lt;br&gt;Location: 1756328 - 1757549" locus_tag="ctg1_1673" class="clusterblast-orf" id="knownclusterblast-8_q22_0_all"  />
<polygon points="597,35 602,30 623,30 623,40 602,40 597,35 " style="fill:white; stroke-width:1; stroke:black; " description="&lt;b&gt;ctg1_1674&lt;/b&gt;&lt;br&gt;ctg1 1674&lt;br&gt;Location: 1757683 - 1758577" locus_tag="ctg1_1674" class="clusterblast-orf" id="knownclusterblast-8_q23_0_all"  />
<polygon points="626,40 658,40 663,35 658,30 626,30 626,40 " style="fill:white; stroke-width:1; stroke:black; " description="&lt;b&gt;ctg1_1675&lt;/b&gt;&lt;br&gt;ctg1 1675&lt;br&gt;Location: 1758683 - 1759937" locus_tag="ctg1_1675" class="clusterblast-orf" id="knownclusterblast-8_q24_0_all"  />
<polygon points="675,40 679,40 684,35 679,30 675,30 675,40 " style="fill:white; stroke-width:1; stroke:black; " description="&lt;b&gt;ctg1_1676&lt;/b&gt;&lt;br&gt;ctg1 1676&lt;br&gt;Location: 1760360 - 1760669" locus_tag="ctg1_1676" class="clusterblast-orf" id="knownclusterblast-8_q25_0_all"  />
<polygon points="692,40 711,40 716,35 711,30 692,30 692,40 " style="fill:white; stroke-width:1; stroke:black; " description="&lt;b&gt;ctg1_1677&lt;/b&gt;&lt;br&gt;ctg1 1677&lt;br&gt;Location: 1760944 - 1761766" locus_tag="ctg1_1677" class="clusterblast-orf" id="knownclusterblast-8_q26_0_all"  />
<polygon points="718,35 723,30 727,30 727,40 723,40 718,35 " style="fill:white; stroke-width:1; stroke:black; " description="&lt;b&gt;ctg1_1678&lt;/b&gt;&lt;br&gt;ctg1 1678&lt;br&gt;Location: 1761804 - 1762134" locus_tag="ctg1_1678" class="clusterblast-orf" id="knownclusterblast-8_q27_0_all"  />
<polygon points="727,35 732,30 738,30 738,40 732,40 727,35 " style="fill:white; stroke-width:1; stroke:black; " description="&lt;b&gt;ctg1_1679&lt;/b&gt;&lt;br&gt;ctg1 1679&lt;br&gt;Location: 1762120 - 1762486" locus_tag="ctg1_1679" class="clusterblast-orf" id="knownclusterblast-8_q28_0_all"  />
<polygon points="750,40 775,40 780,35 775,30 750,30 750,40 " style="fill:white; stroke-width:1; stroke:black; " description="&lt;b&gt;ctg1_1680&lt;/b&gt;&lt;br&gt;ctg1 1680&lt;br&gt;Location: 1762897 - 1763932" locus_tag="ctg1_1680" class="clusterblast-orf" id="knownclusterblast-8_q29_0_all"  />
</g>
<g label="MGC00000046" description="MGC00000046_c1: DMSO-TMAO reducatse E. coli (100% of genes show similarity), DMSAO-TMAO" class="clusterblast-cluster"  >
<text x="5" y="70" class="clusterblast-acc"  >
MGC00000046_c1: DMSO-TMAO reducatse E. coli (100% of genes show similarity), DMSAO-TMAO</text>
<line x1="10" y1="85" x2="778.0" y2="85" style="stroke-width:1; stroke:grey; "  />
</g>
<g id="a8_000"  >
<polygon points="296,90 362,90 367,85 362,80 296,80 296,90 " style="fill:#d81515; stroke-width:1; stroke:black; " description="&lt;b&gt;b1587&lt;/b&gt;&lt;br&gt;putative selenate reductase YnfE&lt;br&gt;Location: 10000 - 12427&lt;br&gt;&lt;br&gt;&lt;b&gt;BlastP hit with ctg1_1666&lt;/b&gt;&lt;br&gt;Percentage identity: 100&lt;br&gt;Percentage coverage: 100&lt;br&gt;BLAST bit score: 1645&lt;br&gt;E-value: 0.0&lt;br&gt;&lt;br&gt;&lt;b&gt;BlastP hit with ctg1_1667&lt;/b&gt;&lt;br&gt;Percentage identity: 71&lt;br&gt;Percentage coverage: 100&lt;br&gt;BLAST bit score: 1190&lt;br&gt;E-value: 0.0" locus_tag="b1587" class="clusterblast-orf" id="knownclusterblast-8_all_8_1_0"  />
</g>
<g id="a8_001"  >
<polygon points="369,90 435,90 440,85 435,80 369,80 369,90 " style="fill:#d81515; stroke-width:1; stroke:black; " description="&lt;b&gt;b1588&lt;/b&gt;&lt;br&gt;putative selenate reductase YnfF&lt;br&gt;Location: 12487 - 14911&lt;br&gt;&lt;br&gt;&lt;b&gt;BlastP hit with ctg1_1666&lt;/b&gt;&lt;br&gt;Percentage identity: 71&lt;br&gt;Percentage coverage: 99&lt;br&gt;BLAST bit score: 1201&lt;br&gt;E-value: 0.0&lt;br&gt;&lt;br&gt;&lt;b&gt;BlastP hit with ctg1_1667&lt;/b&gt;&lt;br&gt;Percentage identity: 100&lt;br&gt;Percentage coverage: 100&lt;br&gt;BLAST bit score: 1634&lt;br&gt;E-value: 0.0" locus_tag="b1588" class="clusterblast-orf" id="knownclusterblast-8_all_8_1_1"  />
</g>
<g id="a8_002"  >
<polygon points="440,90 453,90 458,85 453,80 440,80 440,90 " style="fill:#15d815; stroke-width:1; stroke:black; " description="&lt;b&gt;b1589&lt;/b&gt;&lt;br&gt;putative oxidoreductase YnfG&lt;br&gt;Location: 14921 - 15539&lt;br&gt;&lt;br&gt;&lt;b&gt;BlastP hit with ctg1_1668&lt;/b&gt;&lt;br&gt;Percentage identity: 100&lt;br&gt;Percentage coverage: 100&lt;br&gt;BLAST bit score: 454&lt;br&gt;E-value: 5.81e-168" locus_tag="b1589" class="clusterblast-orf" id="knownclusterblast-8_all_8_1_2"  />
</g>
<g id="a8_003"  >
<polygon points="458,90 478,90 483,85 478,80 458,80 458,90 " style="fill:#1515d8; stroke-width:1; stroke:black; " description="&lt;b&gt;b1590&lt;/b&gt;&lt;br&gt;putative menaquinol dehydrogenase&lt;br&gt;Location: 15540 - 16395&lt;br&gt;&lt;br&gt;&lt;b&gt;BlastP hit with ctg1_1669&lt;/b&gt;&lt;br&gt;Percentage identity: 100&lt;br&gt;Percentage coverage: 100&lt;br&gt;BLAST bit score: 560&lt;br&gt;E-value: 3.08e-207" locus_tag="b1590" class="clusterblast-orf" id="knownclusterblast-8_all_8_1_3"  />
</g>
</svg>
