<svg xmlns="http://www.w3.org/2000/svg" xmlns:xlink="http://www.w3.org/1999/xlink" version="1.1" x="0" y="0" height="230" width="800" viewBox="0 0 800 230" preserveAspectRatio="none"  >
<g label="Query sequence" class="clusterblast-cluster"  >
<text x="5" y="20" class="clusterblast-acc"  >
Query sequence</text>
<line x1="10" y1="35" x2="778.0" y2="35" style="stroke-width:1; stroke:grey; "  />
<polygon points="0,40 11,40 16,35 11,30 0,30 0,40 " style="fill:white; stroke-width:1; stroke:black; " description="&lt;b&gt;ctg1_2497&lt;/b&gt;&lt;br&gt;ctg1 2497&lt;br&gt;Location: 2635559 - 2636456" locus_tag="ctg1_2497" class="clusterblast-orf" id="dummy-13_q0_0_all"  />
<polygon points="17,40 38,40 43,35 38,30 17,30 17,40 " style="fill:white; stroke-width:1; stroke:black; " description="&lt;b&gt;ctg1_2498&lt;/b&gt;&lt;br&gt;ctg1 2498&lt;br&gt;Location: 2636459 - 2637884" locus_tag="ctg1_2498" class="clusterblast-orf" id="dummy-13_q1_0_all"  />
<polygon points="43,40 63,40 68,35 63,30 43,30 43,40 " style="fill:white; stroke-width:1; stroke:black; " description="&lt;b&gt;ctg1_2499&lt;/b&gt;&lt;br&gt;ctg1 2499&lt;br&gt;Location: 2637888 - 2639193" locus_tag="ctg1_2499" class="clusterblast-orf" id="dummy-13_q2_0_all"  />
<polygon points="72,35 77,30 89,30 89,40 77,40 72,35 " style="fill:white; stroke-width:1; stroke:black; " description="&lt;b&gt;ctg1_2500&lt;/b&gt;&lt;br&gt;ctg1 2500&lt;br&gt;Location: 2639432 - 2640332" locus_tag="ctg1_2500" class="clusterblast-orf" id="dummy-13_q3_0_all"  />
<polygon points="91,35 96,30 102,30 102,40 96,40 91,35 " style="fill:white; stroke-width:1; stroke:black; " description="&lt;b&gt;ctg1_2501&lt;/b&gt;&lt;br&gt;ctg1 2501&lt;br&gt;Location: 2640427 - 2641003" locus_tag="ctg1_2501" class="clusterblast-orf" id="dummy-13_q4_0_all"  />
<polygon points="103,35 108,30 111,30 111,40 108,40 103,35 " style="fill:white; stroke-width:1; stroke:black; " description="&lt;b&gt;ctg1_2502&lt;/b&gt;&lt;br&gt;ctg1 2502&lt;br&gt;Location: 2641063 - 2641513" locus_tag="ctg1_2502" class="clusterblast-orf" id="dummy-13_q5_0_all"  />
<polygon points="111,35 116,30 119,30 119,40 116,40 111,35 " style="fill:white; stroke-width:1; stroke:black; " description="&lt;b&gt;ctg1_2503&lt;/b&gt;&lt;br&gt;ctg1 2503&lt;br&gt;Location: 2641499 - 2641925" locus_tag="ctg1_2503" class="clusterblast-orf" id="dummy-13_q6_0_all"  />
<polygon points="123,40 134,40 139,35 134,30 123,30 123,40 " style="fill:white; stroke-width:1; stroke:black; " description="&lt;b&gt;ctg1_2504&lt;/b&gt;&lt;br&gt;ctg1 2504&lt;br&gt;Location: 2642138 - 2643008" locus_tag="ctg1_2504" class="clusterblast-orf" id="dummy-13_q7_0_all"  />
<polygon points="139,40 151,40 156,35 151,30 139,30 139,40 " style="fill:white; stroke-width:1; stroke:black; " description="&lt;b&gt;ctg1_2505&lt;/b&gt;&lt;br&gt;ctg1 2505&lt;br&gt;Location: 2643011 - 2643911" locus_tag="ctg1_2505" class="clusterblast-orf" id="dummy-13_q8_0_all"  />
<polygon points="156,35 161,30 176,30 176,40 161,40 156,35 " style="fill:#d81515; stroke-width:1; stroke:black; " description="&lt;b&gt;ctg1_2506&lt;/b&gt;&lt;br&gt;ctg1 2506&lt;br&gt;Location: 2643916 - 2644969" locus_tag="ctg1_2506" class="clusterblast-orf" id="dummy-13_q9_0_all"  />
<polygon points="177,35 182,30 186,30 186,40 182,40 177,35 " style="fill:#77d815; stroke-width:1; stroke:black; " description="&lt;b&gt;ctg1_2507&lt;/b&gt;&lt;br&gt;ctg1 2507&lt;br&gt;Location: 2645014 - 2645515" locus_tag="ctg1_2507" class="clusterblast-orf" id="dummy-13_q10_0_all"  />
<polygon points="186,35 191,30 199,30 199,40 191,40 186,35 " style="fill:#15d8d8; stroke-width:1; stroke:black; " description="&lt;b&gt;ctg1_2508&lt;/b&gt;&lt;br&gt;ctg1 2508&lt;br&gt;Location: 2645527 - 2646187" locus_tag="ctg1_2508" class="clusterblast-orf" id="dummy-13_q11_0_all"  />
<polygon points="199,35 204,30 215,30 215,40 204,40 199,35 " style="fill:#7715d8; stroke-width:1; stroke:black; " description="&lt;b&gt;ctg1_2509&lt;/b&gt;&lt;br&gt;ctg1 2509&lt;br&gt;Location: 2646196 - 2647084" locus_tag="ctg1_2509" class="clusterblast-orf" id="dummy-13_q12_0_all"  />
<polygon points="216,35 221,30 241,30 241,40 221,40 216,35 " style="fill:#d85e15; stroke-width:1; stroke:black; " description="&lt;b&gt;ctg1_2510&lt;/b&gt;&lt;br&gt;ctg1 2510&lt;br&gt;Location: 2647104 - 2648466" locus_tag="ctg1_2510" class="clusterblast-orf" id="dummy-13_q13_0_all"  />
<polygon points="245,40 262,40 267,35 262,30 245,30 245,40 " style="fill:white; stroke-width:1; stroke:black; " description="&lt;b&gt;ctg1_2511&lt;/b&gt;&lt;br&gt;ctg1 2511&lt;br&gt;Location: 2648644 - 2649853" locus_tag="ctg1_2511" class="clusterblast-orf" id="dummy-13_q14_0_all"  />
<polygon points="273,40 278,40 283,35 278,30 273,30 273,40 " style="fill:white; stroke-width:1; stroke:black; " description="&lt;b&gt;ctg1_2512&lt;/b&gt;&lt;br&gt;ctg1 2512&lt;br&gt;Location: 2650157 - 2650685" locus_tag="ctg1_2512" class="clusterblast-orf" id="dummy-13_q15_0_all"  />
<polygon points="292,40 296,35 292,30 292,40 " style="fill:white; stroke-width:1; stroke:black; " description="&lt;b&gt;ctg1_2513&lt;/b&gt;&lt;br&gt;ctg1 2513&lt;br&gt;Location: 2651157 - 2651400" locus_tag="ctg1_2513" class="clusterblast-orf" id="dummy-13_q16_0_all"  />
<polygon points="296,40 298,40 303,35 298,30 296,30 296,40 " style="fill:white; stroke-width:1; stroke:black; " description="&lt;b&gt;ctg1_2514&lt;/b&gt;&lt;br&gt;ctg1 2514&lt;br&gt;Location: 2651411 - 2651780" locus_tag="ctg1_2514" class="clusterblast-orf" id="dummy-13_q17_0_all"  />
<polygon points="306,40 308,40 313,35 308,30 306,30 306,40 " style="fill:white; stroke-width:1; stroke:black; " description="&lt;b&gt;ctg1_2515&lt;/b&gt;&lt;br&gt;ctg1 2515&lt;br&gt;Location: 2651897 - 2652314" locus_tag="ctg1_2515" class="clusterblast-orf" id="dummy-13_q18_0_all"  />
<polygon points="313,40 319,40 324,35 319,30 313,30 313,40 " style="fill:white; stroke-width:1; stroke:black; " description="&lt;b&gt;ctg1_2516&lt;/b&gt;&lt;br&gt;ctg1 2516&lt;br&gt;Location: 2652310 - 2652904" locus_tag="ctg1_2516" class="clusterblast-orf" id="dummy-13_q19_0_all"  />
<polygon points="333,40 335,40 340,35 335,30 333,30 333,40 " style="fill:white; stroke-width:1; stroke:black; " description="&lt;b&gt;ctg1_2517&lt;/b&gt;&lt;br&gt;ctg1 2517&lt;br&gt;Location: 2653378 - 2653756" locus_tag="ctg1_2517" class="clusterblast-orf" id="dummy-13_q20_0_all"  />
<polygon points="341,40 343,40 348,35 343,30 341,30 341,40 " style="fill:white; stroke-width:1; stroke:black; " description="&lt;b&gt;ctg1_2518&lt;/b&gt;&lt;br&gt;ctg1 2518&lt;br&gt;Location: 2653766 - 2654159" locus_tag="ctg1_2518" class="clusterblast-orf" id="dummy-13_q21_0_all"  />
<polygon points="351,40 361,40 366,35 361,30 351,30 351,40 " style="fill:white; stroke-width:1; stroke:black; " description="&lt;b&gt;ctg1_2519&lt;/b&gt;&lt;br&gt;ctg1 2519&lt;br&gt;Location: 2654309 - 2655119" locus_tag="ctg1_2519" class="clusterblast-orf" id="dummy-13_q22_0_all"  />
<polygon points="369,35 374,30 395,30 395,40 374,40 369,35 " style="fill:#2ed815; stroke-width:1; stroke:black; " description="&lt;b&gt;ctg1_2520&lt;/b&gt;&lt;br&gt;ctg1 2520&lt;br&gt;Location: 2655267 - 2656671" locus_tag="ctg1_2520" class="clusterblast-orf" id="dummy-13_q23_0_all"  />
<polygon points="395,35 400,30 418,30 418,40 400,40 395,35 " style="fill:#158fd8; stroke-width:1; stroke:black; " description="&lt;b&gt;ctg1_2521&lt;/b&gt;&lt;br&gt;ctg1 2521&lt;br&gt;Location: 2656667 - 2657894" locus_tag="ctg1_2521" class="clusterblast-orf" id="dummy-13_q24_0_all"  />
<polygon points="422,35 427,30 444,30 444,40 427,40 422,35 " style="fill:#c015d8; stroke-width:1; stroke:black; " description="&lt;b&gt;ctg1_2522&lt;/b&gt;&lt;br&gt;ctg1 2522&lt;br&gt;Location: 2658110 - 2659298" locus_tag="ctg1_2522" class="clusterblast-orf" id="dummy-13_q25_0_all"  />
<polygon points="444,35 449,30 460,30 460,40 449,40 444,35 " style="fill:#d8a715; stroke-width:1; stroke:black; " description="&lt;b&gt;ctg1_2523&lt;/b&gt;&lt;br&gt;ctg1 2523&lt;br&gt;Location: 2659287 - 2660124" locus_tag="ctg1_2523" class="clusterblast-orf" id="dummy-13_q26_0_all"  />
<polygon points="460,35 465,30 486,30 486,40 465,40 460,35 " style="fill:#15d846; stroke-width:1; stroke:black; " description="&lt;b&gt;ctg1_2524&lt;/b&gt;&lt;br&gt;ctg1 2524&lt;br&gt;Location: 2660134 - 2661538" locus_tag="ctg1_2524" class="clusterblast-orf" id="dummy-13_q27_0_all"  />
<polygon points="486,35 491,30 492,30 492,40 491,40 486,35 " style="fill:#1546d8; stroke-width:1; stroke:black; " description="&lt;b&gt;ctg1_2525&lt;/b&gt;&lt;br&gt;ctg1 2525&lt;br&gt;Location: 2661549 - 2661837" locus_tag="ctg1_2525" class="clusterblast-orf" id="dummy-13_q28_0_all"  />
<polygon points="494,35 499,30 499,30 499,40 499,40 494,35 " style="fill:#77d815; stroke-width:1; stroke:black; " description="&lt;b&gt;ctg1_2526&lt;/b&gt;&lt;br&gt;ctg1 2526&lt;br&gt;Location: 2661943 - 2662237" locus_tag="ctg1_2526" class="clusterblast-orf" id="dummy-13_q29_0_all"  />
<polygon points="500,35 505,30 519,30 519,40 505,40 500,35 " style="fill:#d815a7; stroke-width:1; stroke:black; " description="&lt;b&gt;ctg1_2527&lt;/b&gt;&lt;br&gt;ctg1 2527&lt;br&gt;Location: 2662275 - 2663292" locus_tag="ctg1_2527" class="clusterblast-orf" id="dummy-13_q30_0_all"  />
<polygon points="519,35 524,30 534,30 534,40 524,40 519,35 " style="fill:#c0d815; stroke-width:1; stroke:black; " description="&lt;b&gt;ctg1_2528&lt;/b&gt;&lt;br&gt;ctg1 2528&lt;br&gt;Location: 2663288 - 2664092" locus_tag="ctg1_2528" class="clusterblast-orf" id="dummy-13_q31_0_all"  />
<polygon points="534,35 539,30 547,30 547,40 539,40 534,35 " style="fill:#15d88f; stroke-width:1; stroke:black; " description="&lt;b&gt;ctg1_2529&lt;/b&gt;&lt;br&gt;ctg1 2529&lt;br&gt;Location: 2664088 - 2664790" locus_tag="ctg1_2529" class="clusterblast-orf" id="dummy-13_q32_0_all"  />
<polygon points="547,35 552,30 555,30 555,40 552,40 547,35 " style="fill:#2e15d8; stroke-width:1; stroke:black; " description="&lt;b&gt;ctg1_2530&lt;/b&gt;&lt;br&gt;ctg1 2530&lt;br&gt;Location: 2664764 - 2665244" locus_tag="ctg1_2530" class="clusterblast-orf" id="dummy-13_q33_0_all"  />
<polygon points="556,35 561,30 562,30 562,40 561,40 556,35 " style="fill:#d8155e; stroke-width:1; stroke:black; " description="&lt;b&gt;ctg1_2531&lt;/b&gt;&lt;br&gt;ctg1 2531&lt;br&gt;Location: 2665256 - 2665592" locus_tag="ctg1_2531" class="clusterblast-orf" id="dummy-13_q34_0_all"  />
<polygon points="567,35 572,30 610,30 610,40 572,40 567,35 " style="fill:#d815a7; stroke-width:1; stroke:black; " description="&lt;b&gt;ctg1_2532&lt;/b&gt;&lt;br&gt;ctg1 2532&lt;br&gt;Location: 2665884 - 2668164" locus_tag="ctg1_2532" class="clusterblast-orf" id="dummy-13_q35_0_all"  />
<polygon points="616,40 628,40 633,35 628,30 616,30 616,40 " style="fill:white; stroke-width:1; stroke:black; " description="&lt;b&gt;ctg1_2533&lt;/b&gt;&lt;br&gt;ctg1 2533&lt;br&gt;Location: 2668452 - 2669403" locus_tag="ctg1_2533" class="clusterblast-orf" id="dummy-13_q36_0_all"  />
<polygon points="634,40 666,40 671,35 666,30 634,30 634,40 " style="fill:white; stroke-width:1; stroke:black; " description="&lt;b&gt;ctg1_2534&lt;/b&gt;&lt;br&gt;ctg1 2534&lt;br&gt;Location: 2669422 - 2671426" locus_tag="ctg1_2534" class="clusterblast-orf" id="dummy-13_q37_0_all"  />
<polygon points="673,35 678,30 693,30 693,40 678,40 673,35 " style="fill:white; stroke-width:1; stroke:black; " description="&lt;b&gt;ctg1_2535&lt;/b&gt;&lt;br&gt;ctg1 2535&lt;br&gt;Location: 2671520 - 2672564" locus_tag="ctg1_2535" class="clusterblast-orf" id="dummy-13_q38_0_all"  />
<polygon points="695,35 700,30 706,30 706,40 700,40 695,35 " style="fill:white; stroke-width:1; stroke:black; " description="&lt;b&gt;ctg1_2536&lt;/b&gt;&lt;br&gt;ctg1 2536&lt;br&gt;Location: 2672689 - 2673265" locus_tag="ctg1_2536" class="clusterblast-orf" id="dummy-13_q39_0_all"  />
<polygon points="707,35 712,30 744,30 744,40 712,40 707,35 " style="fill:white; stroke-width:1; stroke:black; " description="&lt;b&gt;ctg1_2537&lt;/b&gt;&lt;br&gt;ctg1 2537&lt;br&gt;Location: 2673332 - 2675312" locus_tag="ctg1_2537" class="clusterblast-orf" id="dummy-13_q40_0_all"  />
<polygon points="748,40 775,40 780,35 775,30 748,30 748,40 " style="fill:white; stroke-width:1; stroke:black; " description="&lt;b&gt;ctg1_2538&lt;/b&gt;&lt;br&gt;ctg1 2538&lt;br&gt;Location: 2675517 - 2677218" locus_tag="ctg1_2538" class="clusterblast-orf" id="dummy-13_q41_0_all"  />
</g>
<g label="MGC0000001" description="MGC0000001_c1: Trimethylamine synthesis C. sporogenes (33% of genes show similarity), TMA" class="clusterblast-cluster"  >
<text x="5" y="70" class="clusterblast-acc"  >
MGC0000001_c1: Trimethylamine synthesis C. sporogenes (33% of genes show similarity), TMA</text>
<line x1="10" y1="85" x2="778.0" y2="85" style="stroke-width:1; stroke:grey; "  />
</g>
<g id="a13_000"  >
<polygon points="336,85 337,80 337,90 336,85 " style="fill:white; stroke-width:1; stroke:black; " description="&lt;b&gt;CLOSPO_RS07645&lt;/b&gt;&lt;br&gt;hypothetical protein&lt;br&gt;Location: 5704 - 5637" locus_tag="CLOSPO_RS07645" class="clusterblast-orf" id="dummy-13_h13_3_0"  />
</g>
<g id="a13_001"  >
<polygon points="337,85 342,80 344,80 344,90 342,90 337,85 " style="fill:#d8155e; stroke-width:1; stroke:black; " description="&lt;b&gt;CLOSPO_RS07640&lt;/b&gt;&lt;br&gt;propanediol utilization protein PduU&lt;br&gt;Location: 5641 - 5287&lt;br&gt;&lt;br&gt;&lt;b&gt;BlastP hit with ctg1_2531&lt;/b&gt;&lt;br&gt;Percentage identity: 51&lt;br&gt;Percentage coverage: 97&lt;br&gt;BLAST bit score: 116&lt;br&gt;E-value: 6.11e-37" locus_tag="CLOSPO_RS07640" class="clusterblast-orf" id="dummy-13_h13_3_1"  />
</g>
<g id="a13_002"  >
<polygon points="345,85 350,80 362,80 362,90 350,90 345,85 " style="fill:white; stroke-width:1; stroke:black; " description="&lt;b&gt;CLOSPO_RS07635&lt;/b&gt;&lt;br&gt;choline TMA-lyase-activating enzyme&lt;br&gt;Location: 5248 - 4294" locus_tag="CLOSPO_RS07635" class="clusterblast-orf" id="dummy-13_h13_3_2"  />
</g>
<g id="a13_003"  >
<polygon points="366,85 371,80 413,80 413,90 371,90 366,85 " style="fill:white; stroke-width:1; stroke:black; " description="&lt;b&gt;CLOSPO_RS07630&lt;/b&gt;&lt;br&gt;choline trimethylamine-lyase&lt;br&gt;Location: 4113 - 1572" locus_tag="CLOSPO_RS07630" class="clusterblast-orf" id="dummy-13_h13_3_3"  />
</g>
<g id="a13_004"  >
<polygon points="414,85 419,80 442,80 442,90 419,90 414,85 " style="fill:white; stroke-width:1; stroke:black; " description="&lt;b&gt;CLOSPO_RS07625&lt;/b&gt;&lt;br&gt;acetaldehyde dehydrogenase&lt;br&gt;Location: 1523 - 41" locus_tag="CLOSPO_RS07625" class="clusterblast-orf" id="dummy-13_h13_3_4"  />
</g>
<g id="a13_005"  >
<polygon points="443,85 443,80 443,90 443,85 " style="fill:#77d815; stroke-width:1; stroke:black; " description="&lt;b&gt;CLOSPO_RS07620&lt;/b&gt;&lt;br&gt;hypothetical protein&lt;br&gt;Location: 4 - 0&lt;br&gt;&lt;br&gt;&lt;b&gt;BlastP hit with ctg1_2507&lt;/b&gt;&lt;br&gt;Percentage identity: 41&lt;br&gt;Percentage coverage: 54&lt;br&gt;BLAST bit score: 67&lt;br&gt;E-value: 3.55e-17&lt;br&gt;&lt;br&gt;&lt;b&gt;BlastP hit with ctg1_2526&lt;/b&gt;&lt;br&gt;Percentage identity: 54&lt;br&gt;Percentage coverage: 90&lt;br&gt;BLAST bit score: 82&lt;br&gt;E-value: 7.69e-24" locus_tag="CLOSPO_RS07620" class="clusterblast-orf" id="dummy-13_h13_3_5"  />
</g>
</svg>
