<svg xmlns="http://www.w3.org/2000/svg" xmlns:xlink="http://www.w3.org/1999/xlink" version="1.1" x="0" y="0" height="50" width="800" viewBox="0 0 800 50" preserveAspectRatio="none"  >
<g label="Query sequence" class="clusterblast-cluster"  >
<text x="5" y="20" class="clusterblast-acc"  >
Query sequence</text>
<line x1="10" y1="35" x2="778.0" y2="35" style="stroke-width:1; stroke:grey; "  />
<polygon points="0,35 5,30 32,30 32,40 5,40 0,35 " style="fill:white; stroke-width:1; stroke:black; " description="&lt;b&gt;ctg1_2405&lt;/b&gt;&lt;br&gt;ctg1 2405&lt;br&gt;Location: 2537294 - 2538227" locus_tag="ctg1_2405" class="clusterblast-orf" id="knownclusterblast-12_q0_0_all"  />
<polygon points="37,40 51,40 56,35 51,30 37,30 37,40 " style="fill:white; stroke-width:1; stroke:black; " description="&lt;b&gt;ctg1_2406&lt;/b&gt;&lt;br&gt;ctg1 2406&lt;br&gt;Location: 2538392 - 2538944" locus_tag="ctg1_2406" class="clusterblast-orf" id="knownclusterblast-12_q1_0_all"  />
<polygon points="58,35 63,30 86,30 86,40 63,40 58,35 " style="fill:white; stroke-width:1; stroke:black; " description="&lt;b&gt;ctg1_2407&lt;/b&gt;&lt;br&gt;ctg1 2407&lt;br&gt;Location: 2539014 - 2539836" locus_tag="ctg1_2407" class="clusterblast-orf" id="knownclusterblast-12_q2_0_all"  />
<polygon points="86,35 91,30 105,30 105,40 91,40 86,35 " style="fill:white; stroke-width:1; stroke:black; " description="&lt;b&gt;ctg1_2408&lt;/b&gt;&lt;br&gt;ctg1 2408&lt;br&gt;Location: 2539837 - 2540377" locus_tag="ctg1_2408" class="clusterblast-orf" id="knownclusterblast-12_q3_0_all"  />
<polygon points="104,35 109,30 121,30 121,40 109,40 104,35 " style="fill:white; stroke-width:1; stroke:black; " description="&lt;b&gt;ctg1_2409&lt;/b&gt;&lt;br&gt;ctg1 2409&lt;br&gt;Location: 2540373 - 2540862" locus_tag="ctg1_2409" class="clusterblast-orf" id="knownclusterblast-12_q4_0_all"  />
<polygon points="121,35 126,30 138,30 138,40 126,40 121,35 " style="fill:white; stroke-width:1; stroke:black; " description="&lt;b&gt;ctg1_2410&lt;/b&gt;&lt;br&gt;ctg1 2410&lt;br&gt;Location: 2540858 - 2541371" locus_tag="ctg1_2410" class="clusterblast-orf" id="knownclusterblast-12_q5_0_all"  />
<polygon points="138,35 143,30 164,30 164,40 143,40 138,35 " style="fill:white; stroke-width:1; stroke:black; " description="&lt;b&gt;ctg1_2411&lt;/b&gt;&lt;br&gt;ctg1 2411&lt;br&gt;Location: 2541370 - 2542123" locus_tag="ctg1_2411" class="clusterblast-orf" id="knownclusterblast-12_q6_0_all"  />
<polygon points="165,35 170,30 195,30 195,40 170,40 165,35 " style="fill:white; stroke-width:1; stroke:black; " description="&lt;b&gt;ctg1_2412&lt;/b&gt;&lt;br&gt;ctg1 2412&lt;br&gt;Location: 2542142 - 2543039" locus_tag="ctg1_2412" class="clusterblast-orf" id="knownclusterblast-12_q7_0_all"  />
<polygon points="195,35 200,30 254,30 254,40 200,40 195,35 " style="fill:white; stroke-width:1; stroke:black; " description="&lt;b&gt;ctg1_2413&lt;/b&gt;&lt;br&gt;ctg1 2413&lt;br&gt;Location: 2543051 - 2544788" locus_tag="ctg1_2413" class="clusterblast-orf" id="knownclusterblast-12_q8_0_all"  />
<polygon points="257,35 262,30 276,30 276,40 262,40 257,35 " style="fill:white; stroke-width:1; stroke:black; " description="&lt;b&gt;ctg1_2414&lt;/b&gt;&lt;br&gt;ctg1 2414&lt;br&gt;Location: 2544869 - 2545433" locus_tag="ctg1_2414" class="clusterblast-orf" id="knownclusterblast-12_q9_0_all"  />
<polygon points="300,35 305,30 316,30 316,40 305,40 300,35 " style="fill:white; stroke-width:1; stroke:black; " description="&lt;b&gt;ctg1_2415&lt;/b&gt;&lt;br&gt;ctg1 2415&lt;br&gt;Location: 2546113 - 2546599" locus_tag="ctg1_2415" class="clusterblast-orf" id="knownclusterblast-12_q10_0_all"  />
<polygon points="323,35 328,30 396,30 396,40 328,40 323,35 " style="fill:white; stroke-width:1; stroke:black; " description="&lt;b&gt;ctg1_2416&lt;/b&gt;&lt;br&gt;ctg1 2416&lt;br&gt;Location: 2546801 - 2548946" locus_tag="ctg1_2416" class="clusterblast-orf" id="knownclusterblast-12_q11_0_all"  />
<polygon points="396,35 401,30 440,30 440,40 401,40 396,35 " style="fill:white; stroke-width:1; stroke:black; " description="&lt;b&gt;ctg1_2417&lt;/b&gt;&lt;br&gt;ctg1 2417&lt;br&gt;Location: 2548945 - 2550256" locus_tag="ctg1_2417" class="clusterblast-orf" id="knownclusterblast-12_q12_0_all"  />
<polygon points="446,35 451,30 456,30 456,40 451,40 446,35 " style="fill:white; stroke-width:1; stroke:black; " description="&lt;b&gt;ctg1_2418&lt;/b&gt;&lt;br&gt;ctg1 2418&lt;br&gt;Location: 2550436 - 2550721" locus_tag="ctg1_2418" class="clusterblast-orf" id="knownclusterblast-12_q13_0_all"  />
<polygon points="469,40 509,40 514,35 509,30 469,30 469,40 " style="fill:white; stroke-width:1; stroke:black; " description="&lt;b&gt;ctg1_2419&lt;/b&gt;&lt;br&gt;ctg1 2419&lt;br&gt;Location: 2551092 - 2552433" locus_tag="ctg1_2419" class="clusterblast-orf" id="knownclusterblast-12_q14_0_all"  />
<polygon points="527,40 558,40 563,35 558,30 527,30 527,40 " style="fill:white; stroke-width:1; stroke:black; " description="&lt;b&gt;ctg1_2420&lt;/b&gt;&lt;br&gt;ctg1 2420&lt;br&gt;Location: 2552798 - 2553857" locus_tag="ctg1_2420" class="clusterblast-orf" id="knownclusterblast-12_q15_0_all"  />
<polygon points="569,35 574,30 594,30 594,40 574,40 569,35 " style="fill:white; stroke-width:1; stroke:black; " description="&lt;b&gt;ctg1_2421&lt;/b&gt;&lt;br&gt;ctg1 2421&lt;br&gt;Location: 2554038 - 2554794" locus_tag="ctg1_2421" class="clusterblast-orf" id="knownclusterblast-12_q16_0_all"  />
<polygon points="604,40 631,40 636,35 631,30 604,30 604,40 " style="fill:white; stroke-width:1; stroke:black; " description="&lt;b&gt;ctg1_2422&lt;/b&gt;&lt;br&gt;ctg1 2422&lt;br&gt;Location: 2555087 - 2556020" locus_tag="ctg1_2422" class="clusterblast-orf" id="knownclusterblast-12_q17_0_all"  />
<polygon points="647,40 681,40 686,35 681,30 647,30 647,40 " style="fill:white; stroke-width:1; stroke:black; " description="&lt;b&gt;ctg1_2423&lt;/b&gt;&lt;br&gt;ctg1 2423&lt;br&gt;Location: 2556331 - 2557489" locus_tag="ctg1_2423" class="clusterblast-orf" id="knownclusterblast-12_q18_0_all"  />
<polygon points="703,40 730,40 735,35 730,30 703,30 703,40 " style="fill:white; stroke-width:1; stroke:black; " description="&lt;b&gt;ctg1_2424&lt;/b&gt;&lt;br&gt;ctg1 2424&lt;br&gt;Location: 2558000 - 2558921" locus_tag="ctg1_2424" class="clusterblast-orf" id="knownclusterblast-12_q19_0_all"  />
<polygon points="735,40 775,40 780,35 775,30 735,30 735,40 " style="fill:white; stroke-width:1; stroke:black; " description="&lt;b&gt;ctg1_2425&lt;/b&gt;&lt;br&gt;ctg1 2425&lt;br&gt;Location: 2558917 - 2560249" locus_tag="ctg1_2425" class="clusterblast-orf" id="knownclusterblast-12_q20_0_all"  />
</g>
</svg>
