<svg xmlns="http://www.w3.org/2000/svg" xmlns:xlink="http://www.w3.org/1999/xlink" version="1.1" x="0" y="0" height="230" width="800" viewBox="0 0 800 230" preserveAspectRatio="none"  >
<g label="Query sequence" class="clusterblast-cluster"  >
<text x="5" y="20" class="clusterblast-acc"  >
Query sequence</text>
<line x1="10" y1="35" x2="778.0" y2="35" style="stroke-width:1; stroke:grey; "  />
<polygon points="0,40 33,40 38,35 33,30 0,30 0,40 " style="fill:white; stroke-width:1; stroke:black; " description="&lt;b&gt;ctg1_2945&lt;/b&gt;&lt;br&gt;ctg1 2945&lt;br&gt;Location: 3123258 - 3124707" locus_tag="ctg1_2945" class="clusterblast-orf" id="dummy-14_q0_0_all"  />
<polygon points="38,40 42,35 38,30 38,40 " style="fill:white; stroke-width:1; stroke:black; " description="&lt;b&gt;ctg1_2946&lt;/b&gt;&lt;br&gt;ctg1 2946&lt;br&gt;Location: 3124708 - 3124834" locus_tag="ctg1_2946" class="clusterblast-orf" id="dummy-14_q1_0_all"  />
<polygon points="45,40 55,40 60,35 55,30 45,30 45,40 " style="fill:white; stroke-width:1; stroke:black; " description="&lt;b&gt;ctg1_2947&lt;/b&gt;&lt;br&gt;ctg1 2947&lt;br&gt;Location: 3124956 - 3125505" locus_tag="ctg1_2947" class="clusterblast-orf" id="dummy-14_q2_0_all"  />
<polygon points="61,35 66,30 101,30 101,40 66,40 61,35 " style="fill:white; stroke-width:1; stroke:black; " description="&lt;b&gt;ctg1_2948&lt;/b&gt;&lt;br&gt;ctg1 2948&lt;br&gt;Location: 3125548 - 3127066" locus_tag="ctg1_2948" class="clusterblast-orf" id="dummy-14_q3_0_all"  />
<polygon points="101,35 106,30 125,30 125,40 106,40 101,35 " style="fill:white; stroke-width:1; stroke:black; " description="&lt;b&gt;ctg1_2949&lt;/b&gt;&lt;br&gt;ctg1 2949&lt;br&gt;Location: 3127075 - 3127957" locus_tag="ctg1_2949" class="clusterblast-orf" id="dummy-14_q4_0_all"  />
<polygon points="133,35 138,30 179,30 179,40 138,40 133,35 " style="fill:white; stroke-width:1; stroke:black; " description="&lt;b&gt;ctg1_2950&lt;/b&gt;&lt;br&gt;ctg1 2950&lt;br&gt;Location: 3128264 - 3129998" locus_tag="ctg1_2950" class="clusterblast-orf" id="dummy-14_q5_0_all"  />
<polygon points="179,35 184,30 198,30 198,40 184,40 179,35 " style="fill:white; stroke-width:1; stroke:black; " description="&lt;b&gt;ctg1_2951&lt;/b&gt;&lt;br&gt;ctg1 2951&lt;br&gt;Location: 3130003 - 3130714" locus_tag="ctg1_2951" class="clusterblast-orf" id="dummy-14_q6_0_all"  />
<polygon points="199,35 204,30 223,30 223,40 204,40 199,35 " style="fill:white; stroke-width:1; stroke:black; " description="&lt;b&gt;ctg1_2952&lt;/b&gt;&lt;br&gt;ctg1 2952&lt;br&gt;Location: 3130738 - 3131635" locus_tag="ctg1_2952" class="clusterblast-orf" id="dummy-14_q7_0_all"  />
<polygon points="226,40 235,40 240,35 235,30 226,30 226,40 " style="fill:white; stroke-width:1; stroke:black; " description="&lt;b&gt;ctg1_2953&lt;/b&gt;&lt;br&gt;ctg1 2953&lt;br&gt;Location: 3131746 - 3132268" locus_tag="ctg1_2953" class="clusterblast-orf" id="dummy-14_q8_0_all"  />
<polygon points="241,35 246,30 252,30 252,40 246,40 241,35 " style="fill:white; stroke-width:1; stroke:black; " description="&lt;b&gt;ctg1_2954&lt;/b&gt;&lt;br&gt;ctg1 2954&lt;br&gt;Location: 3132307 - 3132715" locus_tag="ctg1_2954" class="clusterblast-orf" id="dummy-14_q9_0_all"  />
<polygon points="251,35 256,30 258,30 258,40 256,40 251,35 " style="fill:white; stroke-width:1; stroke:black; " description="&lt;b&gt;ctg1_2955&lt;/b&gt;&lt;br&gt;ctg1 2955&lt;br&gt;Location: 3132695 - 3132962" locus_tag="ctg1_2955" class="clusterblast-orf" id="dummy-14_q10_0_all"  />
<polygon points="265,40 286,40 291,35 286,30 265,30 265,40 " style="fill:white; stroke-width:1; stroke:black; " description="&lt;b&gt;ctg1_2956&lt;/b&gt;&lt;br&gt;ctg1 2956&lt;br&gt;Location: 3133204 - 3134185" locus_tag="ctg1_2956" class="clusterblast-orf" id="dummy-14_q11_0_all"  />
<polygon points="296,35 301,30 314,30 314,40 301,40 296,35 " style="fill:white; stroke-width:1; stroke:black; " description="&lt;b&gt;ctg1_2957&lt;/b&gt;&lt;br&gt;ctg1 2957&lt;br&gt;Location: 3134380 - 3135040" locus_tag="ctg1_2957" class="clusterblast-orf" id="dummy-14_q12_0_all"  />
<polygon points="318,35 323,30 326,30 326,40 323,40 318,35 " style="fill:white; stroke-width:1; stroke:black; " description="&lt;b&gt;ctg1_2958&lt;/b&gt;&lt;br&gt;ctg1 2958&lt;br&gt;Location: 3135203 - 3135515" locus_tag="ctg1_2958" class="clusterblast-orf" id="dummy-14_q13_0_all"  />
<polygon points="327,40 361,40 366,35 361,30 327,30 327,40 " style="fill:white; stroke-width:1; stroke:black; " description="&lt;b&gt;ctg1_2959&lt;/b&gt;&lt;br&gt;ctg1 2959&lt;br&gt;Location: 3135559 - 3136993" locus_tag="ctg1_2959" class="clusterblast-orf" id="dummy-14_q14_0_all"  />
<polygon points="367,35 372,30 387,30 387,40 372,40 367,35 " style="fill:white; stroke-width:1; stroke:black; " description="&lt;b&gt;ctg1_2960&lt;/b&gt;&lt;br&gt;ctg1 2960&lt;br&gt;Location: 3137049 - 3137793" locus_tag="ctg1_2960" class="clusterblast-orf" id="dummy-14_q15_0_all"  />
<polygon points="394,35 399,30 471,30 471,40 399,40 394,35 " style="fill:#d81515; stroke-width:1; stroke:black; " description="&lt;b&gt;ctg1_2961&lt;/b&gt;&lt;br&gt;ctg1 2961&lt;br&gt;Location: 3138059 - 3140933" locus_tag="ctg1_2961" class="clusterblast-orf" id="dummy-14_q16_0_all"  />
<polygon points="474,35 479,30 484,30 484,40 479,40 474,35 " style="fill:#15d815; stroke-width:1; stroke:black; " description="&lt;b&gt;ctg1_2962&lt;/b&gt;&lt;br&gt;ctg1 2962&lt;br&gt;Location: 3141051 - 3141441" locus_tag="ctg1_2962" class="clusterblast-orf" id="dummy-14_q17_0_all"  />
<polygon points="485,35 490,30 514,30 514,40 490,40 485,35 " style="fill:#1515d8; stroke-width:1; stroke:black; " description="&lt;b&gt;ctg1_2963&lt;/b&gt;&lt;br&gt;ctg1 2963&lt;br&gt;Location: 3141464 - 3142559" locus_tag="ctg1_2963" class="clusterblast-orf" id="dummy-14_q18_0_all"  />
<polygon points="526,35 531,30 558,30 558,40 531,40 526,35 " style="fill:white; stroke-width:1; stroke:black; " description="&lt;b&gt;ctg1_2964&lt;/b&gt;&lt;br&gt;ctg1 2964&lt;br&gt;Location: 3143006 - 3144209" locus_tag="ctg1_2964" class="clusterblast-orf" id="dummy-14_q19_0_all"  />
<polygon points="558,35 563,30 590,30 590,40 563,40 558,35 " style="fill:white; stroke-width:1; stroke:black; " description="&lt;b&gt;ctg1_2965&lt;/b&gt;&lt;br&gt;ctg1 2965&lt;br&gt;Location: 3144231 - 3145410" locus_tag="ctg1_2965" class="clusterblast-orf" id="dummy-14_q20_0_all"  />
<polygon points="590,35 595,30 625,30 625,40 595,40 590,35 " style="fill:white; stroke-width:1; stroke:black; " description="&lt;b&gt;ctg1_2966&lt;/b&gt;&lt;br&gt;ctg1 2966&lt;br&gt;Location: 3145406 - 3146732" locus_tag="ctg1_2966" class="clusterblast-orf" id="dummy-14_q21_0_all"  />
<polygon points="626,35 631,30 641,30 641,40 631,40 626,35 " style="fill:white; stroke-width:1; stroke:black; " description="&lt;b&gt;ctg1_2967&lt;/b&gt;&lt;br&gt;ctg1 2967&lt;br&gt;Location: 3146757 - 3147336" locus_tag="ctg1_2967" class="clusterblast-orf" id="dummy-14_q22_0_all"  />
<polygon points="646,40 649,40 654,35 649,30 646,30 646,40 " style="fill:white; stroke-width:1; stroke:black; " description="&lt;b&gt;ctg1_2968&lt;/b&gt;&lt;br&gt;ctg1 2968&lt;br&gt;Location: 3147503 - 3147833" locus_tag="ctg1_2968" class="clusterblast-orf" id="dummy-14_q23_0_all"  />
<polygon points="661,40 672,40 677,35 672,30 661,30 661,40 " style="fill:white; stroke-width:1; stroke:black; " description="&lt;b&gt;ctg1_2969&lt;/b&gt;&lt;br&gt;ctg1 2969&lt;br&gt;Location: 3148078 - 3148681" locus_tag="ctg1_2969" class="clusterblast-orf" id="dummy-14_q24_0_all"  />
<polygon points="687,35 692,30 720,30 720,40 692,40 687,35 " style="fill:white; stroke-width:1; stroke:black; " description="&lt;b&gt;ctg1_2970&lt;/b&gt;&lt;br&gt;ctg1 2970&lt;br&gt;Location: 3149069 - 3150302" locus_tag="ctg1_2970" class="clusterblast-orf" id="dummy-14_q25_0_all"  />
<polygon points="727,35 732,30 745,30 745,40 732,40 727,35 " style="fill:white; stroke-width:1; stroke:black; " description="&lt;b&gt;ctg1_2971&lt;/b&gt;&lt;br&gt;ctg1 2971&lt;br&gt;Location: 3150557 - 3151217" locus_tag="ctg1_2971" class="clusterblast-orf" id="dummy-14_q26_0_all"  />
<polygon points="746,35 751,30 752,30 752,40 751,40 746,35 " style="fill:white; stroke-width:1; stroke:black; " description="&lt;b&gt;ctg1_2972&lt;/b&gt;&lt;br&gt;ctg1 2972&lt;br&gt;Location: 3151272 - 3151503" locus_tag="ctg1_2972" class="clusterblast-orf" id="dummy-14_q27_0_all"  />
<polygon points="756,40 775,40 780,35 775,30 756,30 756,40 " style="fill:white; stroke-width:1; stroke:black; " description="&lt;b&gt;ctg1_2973&lt;/b&gt;&lt;br&gt;ctg1 2973&lt;br&gt;Location: 3151644 - 3152538" locus_tag="ctg1_2973" class="clusterblast-orf" id="dummy-14_q28_0_all"  />
</g>
<g label="MGC00000027" description="MGC00000027_c1: Glycine cleavage C. sticklandii (80% of genes show similarity), GLY" class="clusterblast-cluster"  >
<text x="5" y="70" class="clusterblast-acc"  >
MGC00000027_c1: Glycine cleavage C. sticklandii (80% of genes show similarity), GLY</text>
<line x1="10" y1="85" x2="778.0" y2="85" style="stroke-width:1; stroke:grey; "  />
</g>
<g id="a14_000"  >
<polygon points="314,90 341,90 346,85 341,80 314,80 314,90 " style="fill:white; stroke-width:1; stroke:black; " description="&lt;b&gt;CLOST_RS02280&lt;/b&gt;&lt;br&gt;pyridoxal phosphate-dependent aminotransferase&lt;br&gt;Location: 23799 - 22614" locus_tag="CLOST_RS02280" class="clusterblast-orf" id="dummy-14_h14_1_0"  />
</g>
<g id="a14_001"  >
<polygon points="348,85 353,80 386,80 386,90 353,90 348,85 " style="fill:#d81515; stroke-width:1; stroke:black; " description="&lt;b&gt;CLOST_RS02275&lt;/b&gt;&lt;br&gt;glycine dehydrogenase subunit 2&lt;br&gt;Location: 22559 - 21101&lt;br&gt;&lt;br&gt;&lt;b&gt;BlastP hit with ctg1_2961&lt;/b&gt;&lt;br&gt;Percentage identity: 40&lt;br&gt;Percentage coverage: 48&lt;br&gt;BLAST bit score: 311&lt;br&gt;E-value: 5.33e-98" locus_tag="CLOST_RS02275" class="clusterblast-orf" id="dummy-14_h14_1_1"  />
</g>
<g id="a14_002"  >
<polygon points="386,85 391,80 422,80 422,90 391,90 386,85 " style="fill:#d81515; stroke-width:1; stroke:black; " description="&lt;b&gt;CLOST_RS02270&lt;/b&gt;&lt;br&gt;aminomethyl-transferring glycine dehydrogenase&lt;br&gt;Location: 21105 - 19761&lt;br&gt;&lt;br&gt;&lt;b&gt;BlastP hit with ctg1_2961&lt;/b&gt;&lt;br&gt;Percentage identity: 33&lt;br&gt;Percentage coverage: 46&lt;br&gt;BLAST bit score: 187&lt;br&gt;E-value: 1.59e-53" locus_tag="CLOST_RS02270" class="clusterblast-orf" id="dummy-14_h14_1_2"  />
</g>
<g id="a14_003"  >
<polygon points="422,85 427,80 432,80 432,90 427,90 422,85 " style="fill:#15d815; stroke-width:1; stroke:black; " description="&lt;b&gt;CLOST_RS02265&lt;/b&gt;&lt;br&gt;glycine cleavage system protein H&lt;br&gt;Location: 19758 - 19377&lt;br&gt;&lt;br&gt;&lt;b&gt;BlastP hit with ctg1_2962&lt;/b&gt;&lt;br&gt;Percentage identity: 43&lt;br&gt;Percentage coverage: 96&lt;br&gt;BLAST bit score: 98&lt;br&gt;E-value: 2.06e-29" locus_tag="CLOST_RS02265" class="clusterblast-orf" id="dummy-14_h14_1_3"  />
</g>
<g id="a14_004"  >
<polygon points="435,85 440,80 464,80 464,90 440,90 435,85 " style="fill:#1515d8; stroke-width:1; stroke:black; " description="&lt;b&gt;CLOST_RS02260&lt;/b&gt;&lt;br&gt;glycine cleavage system protein T&lt;br&gt;Location: 19266 - 18168&lt;br&gt;&lt;br&gt;&lt;b&gt;BlastP hit with ctg1_2963&lt;/b&gt;&lt;br&gt;Percentage identity: 36&lt;br&gt;Percentage coverage: 101&lt;br&gt;BLAST bit score: 223&lt;br&gt;E-value: 6.2e-72" locus_tag="CLOST_RS02260" class="clusterblast-orf" id="dummy-14_h14_1_4"  />
</g>
</svg>
