<svg xmlns="http://www.w3.org/2000/svg" xmlns:xlink="http://www.w3.org/1999/xlink" version="1.1" x="0" y="0" height="230" width="800" viewBox="0 0 800 230" preserveAspectRatio="none"  >
<g label="Query sequence" class="clusterblast-cluster"  >
<text x="5" y="20" class="clusterblast-acc"  >
Query sequence</text>
<line x1="10" y1="35" x2="778.0" y2="35" style="stroke-width:1; stroke:grey; "  />
<polygon points="0,40 16,40 21,35 16,30 0,30 0,40 " style="fill:white; stroke-width:1; stroke:black; " description="&lt;b&gt;ctg1_3149&lt;/b&gt;&lt;br&gt;ctg1 3149&lt;br&gt;Location: 3342418 - 3343195" locus_tag="ctg1_3149" class="clusterblast-orf" id="dummy-16_q0_0_all"  />
<polygon points="31,40 44,40 49,35 44,30 31,30 31,40 " style="fill:white; stroke-width:1; stroke:black; " description="&lt;b&gt;ctg1_3150&lt;/b&gt;&lt;br&gt;ctg1 3150&lt;br&gt;Location: 3343539 - 3344202" locus_tag="ctg1_3150" class="clusterblast-orf" id="dummy-16_q1_0_all"  />
<polygon points="49,40 55,40 60,35 55,30 49,30 49,40 " style="fill:white; stroke-width:1; stroke:black; " description="&lt;b&gt;ctg1_3151&lt;/b&gt;&lt;br&gt;ctg1 3151&lt;br&gt;Location: 3344205 - 3344589" locus_tag="ctg1_3151" class="clusterblast-orf" id="dummy-16_q2_0_all"  />
<polygon points="64,40 69,40 74,35 69,30 64,30 64,40 " style="fill:white; stroke-width:1; stroke:black; " description="&lt;b&gt;ctg1_3152&lt;/b&gt;&lt;br&gt;ctg1 3152&lt;br&gt;Location: 3344735 - 3345104" locus_tag="ctg1_3152" class="clusterblast-orf" id="dummy-16_q3_0_all"  />
<polygon points="75,40 78,40 83,35 78,30 75,30 75,40 " style="fill:white; stroke-width:1; stroke:black; " description="&lt;b&gt;ctg1_3153&lt;/b&gt;&lt;br&gt;ctg1 3153&lt;br&gt;Location: 3345141 - 3345447" locus_tag="ctg1_3153" class="clusterblast-orf" id="dummy-16_q4_0_all"  />
<polygon points="83,40 90,40 95,35 90,30 83,30 83,40 " style="fill:white; stroke-width:1; stroke:black; " description="&lt;b&gt;ctg1_3154&lt;/b&gt;&lt;br&gt;ctg1 3154&lt;br&gt;Location: 3345449 - 3345854" locus_tag="ctg1_3154" class="clusterblast-orf" id="dummy-16_q5_0_all"  />
<polygon points="94,40 98,40 103,35 98,30 94,30 94,40 " style="fill:white; stroke-width:1; stroke:black; " description="&lt;b&gt;ctg1_3155&lt;/b&gt;&lt;br&gt;ctg1 3155&lt;br&gt;Location: 3345843 - 3346143" locus_tag="ctg1_3155" class="clusterblast-orf" id="dummy-16_q6_0_all"  />
<polygon points="105,40 114,40 119,35 114,30 105,30 105,40 " style="fill:white; stroke-width:1; stroke:black; " description="&lt;b&gt;ctg1_3156&lt;/b&gt;&lt;br&gt;ctg1 3156&lt;br&gt;Location: 3346238 - 3346721" locus_tag="ctg1_3156" class="clusterblast-orf" id="dummy-16_q7_0_all"  />
<polygon points="120,40 143,40 148,35 143,30 120,30 120,40 " style="fill:white; stroke-width:1; stroke:black; " description="&lt;b&gt;ctg1_3157&lt;/b&gt;&lt;br&gt;ctg1 3157&lt;br&gt;Location: 3346790 - 3347777" locus_tag="ctg1_3157" class="clusterblast-orf" id="dummy-16_q8_0_all"  />
<polygon points="156,40 161,40 166,35 161,30 156,30 156,40 " style="fill:white; stroke-width:1; stroke:black; " description="&lt;b&gt;ctg1_3158&lt;/b&gt;&lt;br&gt;ctg1 3158&lt;br&gt;Location: 3348070 - 3348436" locus_tag="ctg1_3158" class="clusterblast-orf" id="dummy-16_q9_0_all"  />
<polygon points="173,40 177,40 182,35 177,30 173,30 173,40 " style="fill:white; stroke-width:1; stroke:black; " description="&lt;b&gt;ctg1_3159&lt;/b&gt;&lt;br&gt;ctg1 3159&lt;br&gt;Location: 3348677 - 3349034" locus_tag="ctg1_3159" class="clusterblast-orf" id="dummy-16_q10_0_all"  />
<polygon points="184,35 189,30 209,30 209,40 189,40 184,35 " style="fill:white; stroke-width:1; stroke:black; " description="&lt;b&gt;ctg1_3160&lt;/b&gt;&lt;br&gt;ctg1 3160&lt;br&gt;Location: 3349084 - 3349981" locus_tag="ctg1_3160" class="clusterblast-orf" id="dummy-16_q11_0_all"  />
<polygon points="211,40 226,40 231,35 226,30 211,30 211,40 " style="fill:white; stroke-width:1; stroke:black; " description="&lt;b&gt;ctg1_3161&lt;/b&gt;&lt;br&gt;ctg1 3161&lt;br&gt;Location: 3350085 - 3350787" locus_tag="ctg1_3161" class="clusterblast-orf" id="dummy-16_q12_0_all"  />
<polygon points="231,40 231,40 236,35 231,30 231,30 231,40 " style="fill:white; stroke-width:1; stroke:black; " description="&lt;b&gt;ctg1_3162&lt;/b&gt;&lt;br&gt;ctg1 3162&lt;br&gt;Location: 3350809 - 3350974" locus_tag="ctg1_3162" class="clusterblast-orf" id="dummy-16_q13_0_all"  />
<polygon points="240,35 245,30 276,30 276,40 245,40 240,35 " style="fill:#d81515; stroke-width:1; stroke:black; " description="&lt;b&gt;ctg1_3163&lt;/b&gt;&lt;br&gt;ctg1 3163&lt;br&gt;Location: 3351107 - 3352418" locus_tag="ctg1_3163" class="clusterblast-orf" id="dummy-16_q14_0_all"  />
<polygon points="277,35 282,30 313,30 313,40 282,40 277,35 " style="fill:#15d815; stroke-width:1; stroke:black; " description="&lt;b&gt;ctg1_3164&lt;/b&gt;&lt;br&gt;ctg1 3164&lt;br&gt;Location: 3352445 - 3353777" locus_tag="ctg1_3164" class="clusterblast-orf" id="dummy-16_q15_0_all"  />
<polygon points="321,35 326,30 359,30 359,40 326,40 321,35 " style="fill:#1597d8; stroke-width:1; stroke:black; " description="&lt;b&gt;ctg1_3165&lt;/b&gt;&lt;br&gt;ctg1 3165&lt;br&gt;Location: 3354051 - 3355416" locus_tag="ctg1_3165" class="clusterblast-orf" id="dummy-16_q16_0_all"  />
<polygon points="361,35 366,30 371,30 371,40 366,40 361,35 " style="fill:#9715d8; stroke-width:1; stroke:black; " description="&lt;b&gt;ctg1_3166&lt;/b&gt;&lt;br&gt;ctg1 3166&lt;br&gt;Location: 3355487 - 3355877" locus_tag="ctg1_3166" class="clusterblast-orf" id="dummy-16_q17_0_all"  />
<polygon points="372,35 377,30 435,30 435,40 377,40 372,35 " style="fill:#d89715; stroke-width:1; stroke:black; " description="&lt;b&gt;ctg1_3167&lt;/b&gt;&lt;br&gt;ctg1 3167&lt;br&gt;Location: 3355890 - 3358185" locus_tag="ctg1_3167" class="clusterblast-orf" id="dummy-16_q18_0_all"  />
<polygon points="436,35 441,30 469,30 469,40 441,40 436,35 " style="fill:#15d897; stroke-width:1; stroke:black; " description="&lt;b&gt;ctg1_3168&lt;/b&gt;&lt;br&gt;ctg1 3168&lt;br&gt;Location: 3358218 - 3359427" locus_tag="ctg1_3168" class="clusterblast-orf" id="dummy-16_q19_0_all"  />
<polygon points="470,35 475,30 507,30 507,40 475,40 470,35 " style="fill:#1515d8; stroke-width:1; stroke:black; " description="&lt;b&gt;ctg1_3169&lt;/b&gt;&lt;br&gt;ctg1 3169&lt;br&gt;Location: 3359452 - 3360784" locus_tag="ctg1_3169" class="clusterblast-orf" id="dummy-16_q20_0_all"  />
<polygon points="507,35 512,30 535,30 535,40 512,40 507,35 " style="fill:#d81597; stroke-width:1; stroke:black; " description="&lt;b&gt;ctg1_3170&lt;/b&gt;&lt;br&gt;ctg1 3170&lt;br&gt;Location: 3360805 - 3361795" locus_tag="ctg1_3170" class="clusterblast-orf" id="dummy-16_q21_0_all"  />
<polygon points="537,35 542,30 563,30 563,40 542,40 537,35 " style="fill:#97d815; stroke-width:1; stroke:black; " description="&lt;b&gt;ctg1_3171&lt;/b&gt;&lt;br&gt;ctg1 3171&lt;br&gt;Location: 3361893 - 3362832" locus_tag="ctg1_3171" class="clusterblast-orf" id="dummy-16_q22_0_all"  />
<polygon points="585,40 595,40 600,35 595,30 585,30 585,40 " style="fill:white; stroke-width:1; stroke:black; " description="&lt;b&gt;ctg1_3172&lt;/b&gt;&lt;br&gt;ctg1 3172&lt;br&gt;Location: 3363620 - 3364160" locus_tag="ctg1_3172" class="clusterblast-orf" id="dummy-16_q23_0_all"  />
<polygon points="601,40 628,40 633,35 628,30 601,30 601,40 " style="fill:white; stroke-width:1; stroke:black; " description="&lt;b&gt;ctg1_3173&lt;/b&gt;&lt;br&gt;ctg1 3173&lt;br&gt;Location: 3364181 - 3365369" locus_tag="ctg1_3173" class="clusterblast-orf" id="dummy-16_q24_0_all"  />
<polygon points="662,35 667,30 693,30 693,40 667,40 662,35 " style="fill:white; stroke-width:1; stroke:black; " description="&lt;b&gt;ctg1_3174&lt;/b&gt;&lt;br&gt;ctg1 3174&lt;br&gt;Location: 3366391 - 3367537" locus_tag="ctg1_3174" class="clusterblast-orf" id="dummy-16_q25_0_all"  />
<polygon points="696,35 701,30 720,30 720,40 701,40 696,35 " style="fill:white; stroke-width:1; stroke:black; " description="&lt;b&gt;ctg1_3175&lt;/b&gt;&lt;br&gt;ctg1 3175&lt;br&gt;Location: 3367633 - 3368524" locus_tag="ctg1_3175" class="clusterblast-orf" id="dummy-16_q26_0_all"  />
<polygon points="721,35 726,30 743,30 743,40 726,40 721,35 " style="fill:white; stroke-width:1; stroke:black; " description="&lt;b&gt;ctg1_3176&lt;/b&gt;&lt;br&gt;ctg1 3176&lt;br&gt;Location: 3368553 - 3369324" locus_tag="ctg1_3176" class="clusterblast-orf" id="dummy-16_q27_0_all"  />
<polygon points="743,35 748,30 780,30 780,40 748,40 743,35 " style="fill:white; stroke-width:1; stroke:black; " description="&lt;b&gt;ctg1_3177&lt;/b&gt;&lt;br&gt;ctg1 3177&lt;br&gt;Location: 3369339 - 3370674" locus_tag="ctg1_3177" class="clusterblast-orf" id="dummy-16_q28_0_all"  />
</g>
<g label="MGC00000030" description="MGC00000030_c1: Threonine to propionate E. coli (90% of genes show similarity), PROP" class="clusterblast-cluster"  >
<text x="5" y="70" class="clusterblast-acc"  >
MGC00000030_c1: Threonine to propionate E. coli (90% of genes show similarity), PROP</text>
<line x1="10" y1="85" x2="778.0" y2="85" style="stroke-width:1; stroke:grey; "  />
</g>
<g id="a16_000"  >
<polygon points="228,85 233,80 264,80 264,90 233,90 228,85 " style="fill:#d81515; stroke-width:1; stroke:black; " description="&lt;b&gt;L960_3808&lt;/b&gt;&lt;br&gt;hypothetical protein&lt;br&gt;Location: 21726 - 20415&lt;br&gt;&lt;br&gt;&lt;b&gt;BlastP hit with ctg1_3163&lt;/b&gt;&lt;br&gt;Percentage identity: 100&lt;br&gt;Percentage coverage: 100&lt;br&gt;BLAST bit score: 815&lt;br&gt;E-value: 1.07e-302" locus_tag="L960_3808" class="clusterblast-orf" id="dummy-16_h16_1_0"  />
</g>
<g id="a16_001"  >
<polygon points="265,85 270,80 301,80 301,90 270,90 265,85 " style="fill:#15d815; stroke-width:1; stroke:black; " description="&lt;b&gt;L960_3807&lt;/b&gt;&lt;br&gt;serine transporter family protein&lt;br&gt;Location: 20388 - 19056&lt;br&gt;&lt;br&gt;&lt;b&gt;BlastP hit with ctg1_3164&lt;/b&gt;&lt;br&gt;Percentage identity: 100&lt;br&gt;Percentage coverage: 100&lt;br&gt;BLAST bit score: 832&lt;br&gt;E-value: 2.57e-309" locus_tag="L960_3807" class="clusterblast-orf" id="dummy-16_h16_1_1"  />
</g>
<g id="a16_002"  >
<polygon points="309,85 314,80 345,80 345,90 314,90 309,85 " style="fill:#1597d8; stroke-width:1; stroke:black; " description="&lt;b&gt;L960_3806&lt;/b&gt;&lt;br&gt;L-serine dehydratase 3&lt;br&gt;Location: 18782 - 17483&lt;br&gt;&lt;br&gt;&lt;b&gt;BlastP hit with ctg1_3165&lt;/b&gt;&lt;br&gt;Percentage identity: 100&lt;br&gt;Percentage coverage: 95&lt;br&gt;BLAST bit score: 853&lt;br&gt;E-value: 1.09e-317" locus_tag="L960_3806" class="clusterblast-orf" id="dummy-16_h16_1_2"  />
</g>
<g id="a16_003"  >
<polygon points="349,85 354,80 359,80 359,90 354,90 349,85 " style="fill:#9715d8; stroke-width:1; stroke:black; " description="&lt;b&gt;L960_3805&lt;/b&gt;&lt;br&gt;hypothetical protein&lt;br&gt;Location: 17346 - 16956&lt;br&gt;&lt;br&gt;&lt;b&gt;BlastP hit with ctg1_3166&lt;/b&gt;&lt;br&gt;Percentage identity: 100&lt;br&gt;Percentage coverage: 100&lt;br&gt;BLAST bit score: 252&lt;br&gt;E-value: 3.05e-90" locus_tag="L960_3805" class="clusterblast-orf" id="dummy-16_h16_1_3"  />
</g>
<g id="a16_004"  >
<polygon points="360,85 365,80 423,80 423,90 365,90 360,85 " style="fill:#d89715; stroke-width:1; stroke:black; " description="&lt;b&gt;L960_3804&lt;/b&gt;&lt;br&gt;pyruvate formate-lyase 4/2-ketobutyrate formate-lyase&lt;br&gt;Location: 16943 - 14648&lt;br&gt;&lt;br&gt;&lt;b&gt;BlastP hit with ctg1_3167&lt;/b&gt;&lt;br&gt;Percentage identity: 100&lt;br&gt;Percentage coverage: 100&lt;br&gt;BLAST bit score: 1528&lt;br&gt;E-value: 0.0" locus_tag="L960_3804" class="clusterblast-orf" id="dummy-16_h16_1_4"  />
</g>
<g id="a16_005"  >
<polygon points="424,85 429,80 457,80 457,90 429,90 424,85 " style="fill:#15d897; stroke-width:1; stroke:black; " description="&lt;b&gt;L960_3803&lt;/b&gt;&lt;br&gt;propionate/acetate kinase&lt;br&gt;Location: 14615 - 13406&lt;br&gt;&lt;br&gt;&lt;b&gt;BlastP hit with ctg1_3168&lt;/b&gt;&lt;br&gt;Percentage identity: 100&lt;br&gt;Percentage coverage: 100&lt;br&gt;BLAST bit score: 787&lt;br&gt;E-value: 7.08e-293" locus_tag="L960_3803" class="clusterblast-orf" id="dummy-16_h16_1_5"  />
</g>
<g id="a16_006"  >
<polygon points="458,85 463,80 495,80 495,90 463,90 458,85 " style="fill:#1515d8; stroke-width:1; stroke:black; " description="&lt;b&gt;L960_3802&lt;/b&gt;&lt;br&gt;threonine/serine transporter TdcC&lt;br&gt;Location: 13381 - 12049&lt;br&gt;&lt;br&gt;&lt;b&gt;BlastP hit with ctg1_3169&lt;/b&gt;&lt;br&gt;Percentage identity: 100&lt;br&gt;Percentage coverage: 100&lt;br&gt;BLAST bit score: 848&lt;br&gt;E-value: 7.19e-316" locus_tag="L960_3802" class="clusterblast-orf" id="dummy-16_h16_1_6"  />
</g>
<g id="a16_007"  >
<polygon points="495,85 500,80 515,80 515,90 500,90 495,85 " style="fill:#d81597; stroke-width:1; stroke:black; " description="&lt;b&gt;L960_3801&lt;/b&gt;&lt;br&gt;tdcB&lt;br&gt;Location: 12028 - 11323&lt;br&gt;&lt;br&gt;&lt;b&gt;BlastP hit with ctg1_3170&lt;/b&gt;&lt;br&gt;Percentage identity: 100&lt;br&gt;Percentage coverage: 71&lt;br&gt;BLAST bit score: 456&lt;br&gt;E-value: 4.08e-166" locus_tag="L960_3801" class="clusterblast-orf" id="dummy-16_h16_1_7"  />
</g>
<g id="a16_008"  >
<polygon points="514,85 519,80 523,80 523,90 519,90 514,85 " style="fill:white; stroke-width:1; stroke:black; " description="&lt;b&gt;L960_3800&lt;/b&gt;&lt;br&gt;threonine ammonia-lyase&lt;br&gt;Location: 11343 - 11037" locus_tag="L960_3800" class="clusterblast-orf" id="dummy-16_h16_1_8"  />
</g>
<g id="a16_009"  >
<polygon points="525,85 530,80 551,80 551,90 530,90 525,85 " style="fill:#97d815; stroke-width:1; stroke:black; " description="&lt;b&gt;L960_3799&lt;/b&gt;&lt;br&gt;DNA-binding transcriptional activator TdcA&lt;br&gt;Location: 10939 - 10000&lt;br&gt;&lt;br&gt;&lt;b&gt;BlastP hit with ctg1_3171&lt;/b&gt;&lt;br&gt;Percentage identity: 100&lt;br&gt;Percentage coverage: 100&lt;br&gt;BLAST bit score: 598&lt;br&gt;E-value: 2.19e-221" locus_tag="L960_3799" class="clusterblast-orf" id="dummy-16_h16_1_9"  />
</g>
</svg>
