<svg xmlns="http://www.w3.org/2000/svg" xmlns:xlink="http://www.w3.org/1999/xlink" version="1.1" x="0" y="0" height="100" width="800" viewBox="0 0 800 100" preserveAspectRatio="none"  >
<g label="Query sequence" class="clusterblast-cluster"  >
<text x="5" y="20" class="clusterblast-acc"  >
Query sequence</text>
<line x1="10" y1="35" x2="778.0" y2="35" style="stroke-width:1; stroke:grey; "  />
<polygon points="0,35 5,30 18,30 18,40 5,40 0,35 " style="fill:#d81515; stroke-width:1; stroke:black; " description="&lt;b&gt;ctg1_2986&lt;/b&gt;&lt;br&gt;ctg1 2986&lt;br&gt;Location: 3166577 - 3167087" locus_tag="ctg1_2986" class="clusterblast-orf" id="knownclusterblast-15_q0_0_all"  />
<polygon points="18,35 23,30 52,30 52,40 23,40 18,35 " style="fill:white; stroke-width:1; stroke:black; " description="&lt;b&gt;ctg1_2987&lt;/b&gt;&lt;br&gt;ctg1 2987&lt;br&gt;Location: 3167108 - 3168074" locus_tag="ctg1_2987" class="clusterblast-orf" id="knownclusterblast-15_q1_0_all"  />
<polygon points="52,35 57,30 97,30 97,40 57,40 52,35 " style="fill:white; stroke-width:1; stroke:black; " description="&lt;b&gt;ctg1_2988&lt;/b&gt;&lt;br&gt;ctg1 2988&lt;br&gt;Location: 3168070 - 3169348" locus_tag="ctg1_2988" class="clusterblast-orf" id="knownclusterblast-15_q2_0_all"  />
<polygon points="97,35 102,30 142,30 142,40 102,40 97,35 " style="fill:white; stroke-width:1; stroke:black; " description="&lt;b&gt;ctg1_2989&lt;/b&gt;&lt;br&gt;ctg1 2989&lt;br&gt;Location: 3169362 - 3170652" locus_tag="ctg1_2989" class="clusterblast-orf" id="knownclusterblast-15_q3_0_all"  />
<polygon points="143,40 173,40 178,35 173,30 143,30 143,40 " style="fill:white; stroke-width:1; stroke:black; " description="&lt;b&gt;ctg1_2990&lt;/b&gt;&lt;br&gt;ctg1 2990&lt;br&gt;Location: 3170686 - 3171667" locus_tag="ctg1_2990" class="clusterblast-orf" id="knownclusterblast-15_q4_0_all"  />
<polygon points="179,35 184,30 188,30 188,40 184,40 179,35 " style="fill:white; stroke-width:1; stroke:black; " description="&lt;b&gt;ctg1_2991&lt;/b&gt;&lt;br&gt;ctg1 2991&lt;br&gt;Location: 3171704 - 3171950" locus_tag="ctg1_2991" class="clusterblast-orf" id="knownclusterblast-15_q5_0_all"  />
<polygon points="189,35 194,30 204,30 204,40 194,40 189,35 " style="fill:white; stroke-width:1; stroke:black; " description="&lt;b&gt;ctg1_2992&lt;/b&gt;&lt;br&gt;ctg1 2992&lt;br&gt;Location: 3171977 - 3172421" locus_tag="ctg1_2992" class="clusterblast-orf" id="knownclusterblast-15_q6_0_all"  />
<polygon points="215,35 220,30 285,30 285,40 220,40 215,35 " style="fill:white; stroke-width:1; stroke:black; " description="&lt;b&gt;ctg1_2993&lt;/b&gt;&lt;br&gt;ctg1 2993&lt;br&gt;Location: 3172734 - 3174726" locus_tag="ctg1_2993" class="clusterblast-orf" id="knownclusterblast-15_q7_0_all"  />
<polygon points="294,40 316,40 321,35 316,30 294,30 294,40 " style="fill:white; stroke-width:1; stroke:black; " description="&lt;b&gt;ctg1_2994&lt;/b&gt;&lt;br&gt;ctg1 2994&lt;br&gt;Location: 3175003 - 3175762" locus_tag="ctg1_2994" class="clusterblast-orf" id="knownclusterblast-15_q8_0_all"  />
<polygon points="328,35 333,30 360,30 360,40 333,40 328,35 " style="fill:#15d815; stroke-width:1; stroke:black; " description="&lt;b&gt;ctg1_2995&lt;/b&gt;&lt;br&gt;ctg1 2995&lt;br&gt;Location: 3175967 - 3176888" locus_tag="ctg1_2995" class="clusterblast-orf" id="knownclusterblast-15_q9_0_all"  />
<polygon points="365,35 370,30 434,30 434,40 370,40 365,35 " style="fill:#1515d8; stroke-width:1; stroke:black; " description="&lt;b&gt;ctg1_2996&lt;/b&gt;&lt;br&gt;ctg1 2996&lt;br&gt;Location: 3177025 - 3179002" locus_tag="ctg1_2996" class="clusterblast-orf" id="knownclusterblast-15_q10_0_all"  />
<polygon points="451,35 456,30 460,30 460,40 456,40 451,35 " style="fill:white; stroke-width:1; stroke:black; " description="&lt;b&gt;ctg1_2997&lt;/b&gt;&lt;br&gt;ctg1 2997&lt;br&gt;Location: 3179489 - 3179741" locus_tag="ctg1_2997" class="clusterblast-orf" id="knownclusterblast-15_q11_0_all"  />
<polygon points="462,40 497,40 502,35 497,30 462,30 462,40 " style="fill:white; stroke-width:1; stroke:black; " description="&lt;b&gt;ctg1_2998&lt;/b&gt;&lt;br&gt;ctg1 2998&lt;br&gt;Location: 3179796 - 3180951" locus_tag="ctg1_2998" class="clusterblast-orf" id="knownclusterblast-15_q12_0_all"  />
<polygon points="517,40 561,40 566,35 561,30 517,30 517,40 " style="fill:white; stroke-width:1; stroke:black; " description="&lt;b&gt;ctg1_2999&lt;/b&gt;&lt;br&gt;ctg1 2999&lt;br&gt;Location: 3181374 - 3182769" locus_tag="ctg1_2999" class="clusterblast-orf" id="knownclusterblast-15_q13_0_all"  />
<polygon points="570,40 581,40 586,35 581,30 570,30 570,40 " style="fill:white; stroke-width:1; stroke:black; " description="&lt;b&gt;ctg1_3000&lt;/b&gt;&lt;br&gt;ctg1 3000&lt;br&gt;Location: 3182887 - 3183343" locus_tag="ctg1_3000" class="clusterblast-orf" id="knownclusterblast-15_q14_0_all"  />
<polygon points="589,40 609,40 614,35 609,30 589,30 589,40 " style="fill:white; stroke-width:1; stroke:black; " description="&lt;b&gt;ctg1_3001&lt;/b&gt;&lt;br&gt;ctg1 3001&lt;br&gt;Location: 3183437 - 3184145" locus_tag="ctg1_3001" class="clusterblast-orf" id="knownclusterblast-15_q15_0_all"  />
<polygon points="617,40 637,40 642,35 637,30 617,30 617,40 " style="fill:white; stroke-width:1; stroke:black; " description="&lt;b&gt;ctg1_3002&lt;/b&gt;&lt;br&gt;ctg1 3002&lt;br&gt;Location: 3184224 - 3184956" locus_tag="ctg1_3002" class="clusterblast-orf" id="knownclusterblast-15_q16_0_all"  />
<polygon points="643,40 671,40 676,35 671,30 643,30 643,40 " style="fill:white; stroke-width:1; stroke:black; " description="&lt;b&gt;ctg1_3003&lt;/b&gt;&lt;br&gt;ctg1 3003&lt;br&gt;Location: 3184968 - 3185919" locus_tag="ctg1_3003" class="clusterblast-orf" id="knownclusterblast-15_q17_0_all"  />
<polygon points="677,40 694,40 699,35 694,30 677,30 677,40 " style="fill:white; stroke-width:1; stroke:black; " description="&lt;b&gt;ctg1_3004&lt;/b&gt;&lt;br&gt;ctg1 3004&lt;br&gt;Location: 3185955 - 3186591" locus_tag="ctg1_3004" class="clusterblast-orf" id="knownclusterblast-15_q18_0_all"  />
<polygon points="699,40 709,40 714,35 709,30 699,30 699,40 " style="fill:white; stroke-width:1; stroke:black; " description="&lt;b&gt;ctg1_3005&lt;/b&gt;&lt;br&gt;ctg1 3005&lt;br&gt;Location: 3186590 - 3187007" locus_tag="ctg1_3005" class="clusterblast-orf" id="knownclusterblast-15_q19_0_all"  />
<polygon points="720,35 725,30 755,30 755,40 725,40 720,35 " style="fill:white; stroke-width:1; stroke:black; " description="&lt;b&gt;ctg1_3006&lt;/b&gt;&lt;br&gt;ctg1 3006&lt;br&gt;Location: 3187190 - 3188171" locus_tag="ctg1_3006" class="clusterblast-orf" id="knownclusterblast-15_q20_0_all"  />
<polygon points="755,40 775,40 780,35 775,30 755,30 755,40 " style="fill:white; stroke-width:1; stroke:black; " description="&lt;b&gt;ctg1_3007&lt;/b&gt;&lt;br&gt;ctg1 3007&lt;br&gt;Location: 3188188 - 3188893" locus_tag="ctg1_3007" class="clusterblast-orf" id="knownclusterblast-15_q21_0_all"  />
</g>
<g label="MGC00000052" description="MGC00000052_c1: Arginine2putrescine E. coli (75% of genes show similarity), PUTR" class="clusterblast-cluster"  >
<text x="5" y="70" class="clusterblast-acc"  >
MGC00000052_c1: Arginine2putrescine E. coli (75% of genes show similarity), PUTR</text>
<line x1="10" y1="85" x2="778.0" y2="85" style="stroke-width:1; stroke:grey; "  />
</g>
<g id="a15_000"  >
<polygon points="157,85 162,80 175,80 175,90 162,90 157,85 " style="fill:#d81515; stroke-width:1; stroke:black; " description="&lt;b&gt;E2348C_RS17060&lt;/b&gt;&lt;br&gt;mannitol repressor&lt;br&gt;Location: 0 - 510&lt;br&gt;&lt;br&gt;&lt;b&gt;BlastP hit with ctg1_2986&lt;/b&gt;&lt;br&gt;Percentage identity: 98&lt;br&gt;Percentage coverage: 100&lt;br&gt;BLAST bit score: 333&lt;br&gt;E-value: 4.07e-121" locus_tag="E2348C_RS17060" class="clusterblast-orf" id="knownclusterblast-15_all_15_1_0"  />
</g>
<g id="a15_001"  >
<polygon points="485,85 490,80 517,80 517,90 490,90 485,85 " style="fill:#15d815; stroke-width:1; stroke:black; " description="&lt;b&gt;E2348C_RS17100&lt;/b&gt;&lt;br&gt;agmatinase&lt;br&gt;Location: 9380 - 10301&lt;br&gt;&lt;br&gt;&lt;b&gt;BlastP hit with ctg1_2995&lt;/b&gt;&lt;br&gt;Percentage identity: 100&lt;br&gt;Percentage coverage: 100&lt;br&gt;BLAST bit score: 625&lt;br&gt;E-value: 4.16e-232" locus_tag="E2348C_RS17100" class="clusterblast-orf" id="knownclusterblast-15_all_15_1_1"  />
</g>
<g id="a15_002"  >
<polygon points="522,85 527,80 548,80 548,90 527,90 522,85 " style="fill:white; stroke-width:1; stroke:black; " description="&lt;b&gt;E2348C_RS17105&lt;/b&gt;&lt;br&gt;hypothetical protein&lt;br&gt;Location: 10436 - 11168" locus_tag="E2348C_RS17105" class="clusterblast-orf" id="knownclusterblast-15_all_15_1_2"  />
</g>
<g id="a15_003"  >
<polygon points="553,85 558,80 622,80 622,90 558,90 553,85 " style="fill:#1515d8; stroke-width:1; stroke:black; " description="&lt;b&gt;E2348C_RS17110&lt;/b&gt;&lt;br&gt;arginine decarboxylase&lt;br&gt;Location: 11313 - 13290&lt;br&gt;&lt;br&gt;&lt;b&gt;BlastP hit with ctg1_2996&lt;/b&gt;&lt;br&gt;Percentage identity: 100&lt;br&gt;Percentage coverage: 100&lt;br&gt;BLAST bit score: 1312&lt;br&gt;E-value: 0.0" locus_tag="E2348C_RS17110" class="clusterblast-orf" id="knownclusterblast-15_all_15_1_3"  />
</g>
</svg>
