<svg xmlns="http://www.w3.org/2000/svg" xmlns:xlink="http://www.w3.org/1999/xlink" version="1.1" x="0" y="0" height="50" width="800" viewBox="0 0 800 50" preserveAspectRatio="none"  >
<g label="Query sequence" class="clusterblast-cluster"  >
<text x="5" y="20" class="clusterblast-acc"  >
Query sequence</text>
<line x1="10" y1="35" x2="778.0" y2="35" style="stroke-width:1; stroke:grey; "  />
<polygon points="0,35 5,30 37,30 37,40 5,40 0,35 " style="fill:white; stroke-width:1; stroke:black; " description="&lt;b&gt;ctg1_4106&lt;/b&gt;&lt;br&gt;ctg1 4106&lt;br&gt;Location: 4379501 - 4380794" locus_tag="ctg1_4106" class="clusterblast-orf" id="knownclusterblast-19_q0_0_all"  />
<polygon points="42,35 47,30 89,30 89,40 47,40 42,35 " style="fill:white; stroke-width:1; stroke:black; " description="&lt;b&gt;ctg1_4107&lt;/b&gt;&lt;br&gt;ctg1 4107&lt;br&gt;Location: 4380971 - 4382621" locus_tag="ctg1_4107" class="clusterblast-orf" id="knownclusterblast-19_q1_0_all"  />
<polygon points="89,35 94,30 98,30 98,40 94,40 89,35 " style="fill:white; stroke-width:1; stroke:black; " description="&lt;b&gt;ctg1_4108&lt;/b&gt;&lt;br&gt;ctg1 4108&lt;br&gt;Location: 4382617 - 4382932" locus_tag="ctg1_4108" class="clusterblast-orf" id="knownclusterblast-19_q2_0_all"  />
<polygon points="103,35 108,30 159,30 159,40 108,40 103,35 " style="fill:white; stroke-width:1; stroke:black; " description="&lt;b&gt;ctg1_4109&lt;/b&gt;&lt;br&gt;ctg1 4109&lt;br&gt;Location: 4383131 - 4385090" locus_tag="ctg1_4109" class="clusterblast-orf" id="knownclusterblast-19_q3_0_all"  />
<polygon points="170,40 206,40 211,35 206,30 170,30 170,40 " style="fill:white; stroke-width:1; stroke:black; " description="&lt;b&gt;ctg1_4110&lt;/b&gt;&lt;br&gt;ctg1 4110&lt;br&gt;Location: 4385482 - 4386919" locus_tag="ctg1_4110" class="clusterblast-orf" id="knownclusterblast-19_q4_0_all"  />
<polygon points="213,40 214,40 219,35 214,30 213,30 213,40 " style="fill:white; stroke-width:1; stroke:black; " description="&lt;b&gt;ctg1_4111&lt;/b&gt;&lt;br&gt;ctg1 4111&lt;br&gt;Location: 4386963 - 4387197" locus_tag="ctg1_4111" class="clusterblast-orf" id="knownclusterblast-19_q5_0_all"  />
<polygon points="220,40 223,40 228,35 223,30 220,30 220,40 " style="fill:white; stroke-width:1; stroke:black; " description="&lt;b&gt;ctg1_4112&lt;/b&gt;&lt;br&gt;ctg1 4112&lt;br&gt;Location: 4387230 - 4387506" locus_tag="ctg1_4112" class="clusterblast-orf" id="knownclusterblast-19_q6_0_all"  />
<polygon points="229,40 235,40 240,35 235,30 229,30 229,40 " style="fill:white; stroke-width:1; stroke:black; " description="&lt;b&gt;ctg1_4113&lt;/b&gt;&lt;br&gt;ctg1 4113&lt;br&gt;Location: 4387550 - 4387928" locus_tag="ctg1_4113" class="clusterblast-orf" id="knownclusterblast-19_q7_0_all"  />
<polygon points="243,40 246,40 251,35 246,30 243,30 243,40 " style="fill:white; stroke-width:1; stroke:black; " description="&lt;b&gt;ctg1_4114&lt;/b&gt;&lt;br&gt;ctg1 4114&lt;br&gt;Location: 4388028 - 4388307" locus_tag="ctg1_4114" class="clusterblast-orf" id="knownclusterblast-19_q8_0_all"  />
<polygon points="251,40 265,40 270,35 265,30 251,30 251,40 " style="fill:white; stroke-width:1; stroke:black; " description="&lt;b&gt;ctg1_4115&lt;/b&gt;&lt;br&gt;ctg1 4115&lt;br&gt;Location: 4388303 - 4388975" locus_tag="ctg1_4115" class="clusterblast-orf" id="knownclusterblast-19_q9_0_all"  />
<polygon points="270,40 292,40 297,35 292,30 270,30 270,40 " style="fill:white; stroke-width:1; stroke:black; " description="&lt;b&gt;ctg1_4116&lt;/b&gt;&lt;br&gt;ctg1 4116&lt;br&gt;Location: 4388971 - 4389928" locus_tag="ctg1_4116" class="clusterblast-orf" id="knownclusterblast-19_q10_0_all"  />
<polygon points="300,40 342,40 347,35 342,30 300,30 300,40 " style="fill:white; stroke-width:1; stroke:black; " description="&lt;b&gt;ctg1_4117&lt;/b&gt;&lt;br&gt;ctg1 4117&lt;br&gt;Location: 4390043 - 4391666" locus_tag="ctg1_4117" class="clusterblast-orf" id="knownclusterblast-19_q11_0_all"  />
<polygon points="346,40 352,40 357,35 352,30 346,30 346,40 " style="fill:white; stroke-width:1; stroke:black; " description="&lt;b&gt;ctg1_4118&lt;/b&gt;&lt;br&gt;ctg1 4118&lt;br&gt;Location: 4391658 - 4392042" locus_tag="ctg1_4118" class="clusterblast-orf" id="knownclusterblast-19_q12_0_all"  />
<polygon points="357,40 369,40 374,35 369,30 357,30 357,40 " style="fill:white; stroke-width:1; stroke:black; " description="&lt;b&gt;ctg1_4119&lt;/b&gt;&lt;br&gt;ctg1 4119&lt;br&gt;Location: 4392038 - 4392635" locus_tag="ctg1_4119" class="clusterblast-orf" id="knownclusterblast-19_q13_0_all"  />
<polygon points="384,40 416,40 421,35 416,30 384,30 384,40 " style="fill:white; stroke-width:1; stroke:black; " description="&lt;b&gt;ctg1_4120&lt;/b&gt;&lt;br&gt;ctg1 4120&lt;br&gt;Location: 4392976 - 4394290" locus_tag="ctg1_4120" class="clusterblast-orf" id="knownclusterblast-19_q14_0_all"  />
<polygon points="436,35 441,30 456,30 456,40 441,40 436,35 " style="fill:white; stroke-width:1; stroke:black; " description="&lt;b&gt;ctg1_4121&lt;/b&gt;&lt;br&gt;ctg1 4121&lt;br&gt;Location: 4394820 - 4395510" locus_tag="ctg1_4121" class="clusterblast-orf" id="knownclusterblast-19_q15_0_all"  />
<polygon points="459,35 464,30 507,30 507,40 464,40 459,35 " style="fill:white; stroke-width:1; stroke:black; " description="&lt;b&gt;ctg1_4122&lt;/b&gt;&lt;br&gt;ctg1 4122&lt;br&gt;Location: 4395603 - 4397283" locus_tag="ctg1_4122" class="clusterblast-orf" id="knownclusterblast-19_q16_0_all"  />
<polygon points="508,35 513,30 520,30 520,40 513,40 508,35 " style="fill:white; stroke-width:1; stroke:black; " description="&lt;b&gt;ctg1_4123&lt;/b&gt;&lt;br&gt;ctg1 4123&lt;br&gt;Location: 4397331 - 4397751" locus_tag="ctg1_4123" class="clusterblast-orf" id="knownclusterblast-19_q17_0_all"  />
<polygon points="526,35 531,30 567,30 567,40 531,40 526,35 " style="fill:white; stroke-width:1; stroke:black; " description="&lt;b&gt;ctg1_4124&lt;/b&gt;&lt;br&gt;ctg1 4124&lt;br&gt;Location: 4397948 - 4399415" locus_tag="ctg1_4124" class="clusterblast-orf" id="knownclusterblast-19_q18_0_all"  />
<polygon points="567,35 572,30 626,30 626,40 572,40 567,35 " style="fill:white; stroke-width:1; stroke:black; " description="&lt;b&gt;ctg1_4125&lt;/b&gt;&lt;br&gt;ctg1 4125&lt;br&gt;Location: 4399411 - 4401463" locus_tag="ctg1_4125" class="clusterblast-orf" id="knownclusterblast-19_q19_0_all"  />
<polygon points="626,35 631,30 655,30 655,40 631,40 626,35 " style="fill:white; stroke-width:1; stroke:black; " description="&lt;b&gt;ctg1_4126&lt;/b&gt;&lt;br&gt;ctg1 4126&lt;br&gt;Location: 4401462 - 4402494" locus_tag="ctg1_4126" class="clusterblast-orf" id="knownclusterblast-19_q20_0_all"  />
<polygon points="656,35 661,30 664,30 664,40 661,40 656,35 " style="fill:white; stroke-width:1; stroke:black; " description="&lt;b&gt;ctg1_4127&lt;/b&gt;&lt;br&gt;ctg1 4127&lt;br&gt;Location: 4402512 - 4402788" locus_tag="ctg1_4127" class="clusterblast-orf" id="knownclusterblast-19_q21_0_all"  />
<polygon points="670,35 675,30 726,30 726,40 675,40 670,35 " style="fill:white; stroke-width:1; stroke:black; " description="&lt;b&gt;ctg1_4128&lt;/b&gt;&lt;br&gt;ctg1 4128&lt;br&gt;Location: 4402996 - 4404982" locus_tag="ctg1_4128" class="clusterblast-orf" id="knownclusterblast-19_q22_0_all"  />
<polygon points="734,35 739,30 760,30 760,40 739,40 734,35 " style="fill:white; stroke-width:1; stroke:black; " description="&lt;b&gt;ctg1_4129&lt;/b&gt;&lt;br&gt;ctg1 4129&lt;br&gt;Location: 4405254 - 4406184" locus_tag="ctg1_4129" class="clusterblast-orf" id="knownclusterblast-19_q23_0_all"  />
<polygon points="760,35 765,30 780,30 780,40 765,40 760,35 " style="fill:white; stroke-width:1; stroke:black; " description="&lt;b&gt;ctg1_4130&lt;/b&gt;&lt;br&gt;ctg1 4130&lt;br&gt;Location: 4406167 - 4406863" locus_tag="ctg1_4130" class="clusterblast-orf" id="knownclusterblast-19_q24_0_all"  />
</g>
</svg>
