<svg xmlns="http://www.w3.org/2000/svg" xmlns:xlink="http://www.w3.org/1999/xlink" version="1.1" x="0" y="0" height="230" width="800" viewBox="0 0 800 230" preserveAspectRatio="none"  >
<g label="Query sequence" class="clusterblast-cluster"  >
<text x="5" y="20" class="clusterblast-acc"  >
Query sequence</text>
<line x1="10" y1="35" x2="778.0" y2="35" style="stroke-width:1; stroke:grey; "  />
<polygon points="0,40 11,40 16,35 11,30 0,30 0,40 " style="fill:white; stroke-width:1; stroke:black; " description="&lt;b&gt;ctg1_2497&lt;/b&gt;&lt;br&gt;ctg1 2497&lt;br&gt;Location: 2635559 - 2636456" locus_tag="ctg1_2497" class="clusterblast-orf" id="dummy-13_q0_0_all"  />
<polygon points="17,40 38,40 43,35 38,30 17,30 17,40 " style="fill:white; stroke-width:1; stroke:black; " description="&lt;b&gt;ctg1_2498&lt;/b&gt;&lt;br&gt;ctg1 2498&lt;br&gt;Location: 2636459 - 2637884" locus_tag="ctg1_2498" class="clusterblast-orf" id="dummy-13_q1_0_all"  />
<polygon points="43,40 63,40 68,35 63,30 43,30 43,40 " style="fill:white; stroke-width:1; stroke:black; " description="&lt;b&gt;ctg1_2499&lt;/b&gt;&lt;br&gt;ctg1 2499&lt;br&gt;Location: 2637888 - 2639193" locus_tag="ctg1_2499" class="clusterblast-orf" id="dummy-13_q2_0_all"  />
<polygon points="72,35 77,30 89,30 89,40 77,40 72,35 " style="fill:white; stroke-width:1; stroke:black; " description="&lt;b&gt;ctg1_2500&lt;/b&gt;&lt;br&gt;ctg1 2500&lt;br&gt;Location: 2639432 - 2640332" locus_tag="ctg1_2500" class="clusterblast-orf" id="dummy-13_q3_0_all"  />
<polygon points="91,35 96,30 102,30 102,40 96,40 91,35 " style="fill:white; stroke-width:1; stroke:black; " description="&lt;b&gt;ctg1_2501&lt;/b&gt;&lt;br&gt;ctg1 2501&lt;br&gt;Location: 2640427 - 2641003" locus_tag="ctg1_2501" class="clusterblast-orf" id="dummy-13_q4_0_all"  />
<polygon points="103,35 108,30 111,30 111,40 108,40 103,35 " style="fill:white; stroke-width:1; stroke:black; " description="&lt;b&gt;ctg1_2502&lt;/b&gt;&lt;br&gt;ctg1 2502&lt;br&gt;Location: 2641063 - 2641513" locus_tag="ctg1_2502" class="clusterblast-orf" id="dummy-13_q5_0_all"  />
<polygon points="111,35 116,30 119,30 119,40 116,40 111,35 " style="fill:white; stroke-width:1; stroke:black; " description="&lt;b&gt;ctg1_2503&lt;/b&gt;&lt;br&gt;ctg1 2503&lt;br&gt;Location: 2641499 - 2641925" locus_tag="ctg1_2503" class="clusterblast-orf" id="dummy-13_q6_0_all"  />
<polygon points="123,40 134,40 139,35 134,30 123,30 123,40 " style="fill:white; stroke-width:1; stroke:black; " description="&lt;b&gt;ctg1_2504&lt;/b&gt;&lt;br&gt;ctg1 2504&lt;br&gt;Location: 2642138 - 2643008" locus_tag="ctg1_2504" class="clusterblast-orf" id="dummy-13_q7_0_all"  />
<polygon points="139,40 151,40 156,35 151,30 139,30 139,40 " style="fill:white; stroke-width:1; stroke:black; " description="&lt;b&gt;ctg1_2505&lt;/b&gt;&lt;br&gt;ctg1 2505&lt;br&gt;Location: 2643011 - 2643911" locus_tag="ctg1_2505" class="clusterblast-orf" id="dummy-13_q8_0_all"  />
<polygon points="156,35 161,30 176,30 176,40 161,40 156,35 " style="fill:#d81515; stroke-width:1; stroke:black; " description="&lt;b&gt;ctg1_2506&lt;/b&gt;&lt;br&gt;ctg1 2506&lt;br&gt;Location: 2643916 - 2644969" locus_tag="ctg1_2506" class="clusterblast-orf" id="dummy-13_q9_0_all"  />
<polygon points="177,35 182,30 186,30 186,40 182,40 177,35 " style="fill:#77d815; stroke-width:1; stroke:black; " description="&lt;b&gt;ctg1_2507&lt;/b&gt;&lt;br&gt;ctg1 2507&lt;br&gt;Location: 2645014 - 2645515" locus_tag="ctg1_2507" class="clusterblast-orf" id="dummy-13_q10_0_all"  />
<polygon points="186,35 191,30 199,30 199,40 191,40 186,35 " style="fill:#15d8d8; stroke-width:1; stroke:black; " description="&lt;b&gt;ctg1_2508&lt;/b&gt;&lt;br&gt;ctg1 2508&lt;br&gt;Location: 2645527 - 2646187" locus_tag="ctg1_2508" class="clusterblast-orf" id="dummy-13_q11_0_all"  />
<polygon points="199,35 204,30 215,30 215,40 204,40 199,35 " style="fill:#7715d8; stroke-width:1; stroke:black; " description="&lt;b&gt;ctg1_2509&lt;/b&gt;&lt;br&gt;ctg1 2509&lt;br&gt;Location: 2646196 - 2647084" locus_tag="ctg1_2509" class="clusterblast-orf" id="dummy-13_q12_0_all"  />
<polygon points="216,35 221,30 241,30 241,40 221,40 216,35 " style="fill:#d85e15; stroke-width:1; stroke:black; " description="&lt;b&gt;ctg1_2510&lt;/b&gt;&lt;br&gt;ctg1 2510&lt;br&gt;Location: 2647104 - 2648466" locus_tag="ctg1_2510" class="clusterblast-orf" id="dummy-13_q13_0_all"  />
<polygon points="245,40 262,40 267,35 262,30 245,30 245,40 " style="fill:white; stroke-width:1; stroke:black; " description="&lt;b&gt;ctg1_2511&lt;/b&gt;&lt;br&gt;ctg1 2511&lt;br&gt;Location: 2648644 - 2649853" locus_tag="ctg1_2511" class="clusterblast-orf" id="dummy-13_q14_0_all"  />
<polygon points="273,40 278,40 283,35 278,30 273,30 273,40 " style="fill:white; stroke-width:1; stroke:black; " description="&lt;b&gt;ctg1_2512&lt;/b&gt;&lt;br&gt;ctg1 2512&lt;br&gt;Location: 2650157 - 2650685" locus_tag="ctg1_2512" class="clusterblast-orf" id="dummy-13_q15_0_all"  />
<polygon points="292,40 296,35 292,30 292,40 " style="fill:white; stroke-width:1; stroke:black; " description="&lt;b&gt;ctg1_2513&lt;/b&gt;&lt;br&gt;ctg1 2513&lt;br&gt;Location: 2651157 - 2651400" locus_tag="ctg1_2513" class="clusterblast-orf" id="dummy-13_q16_0_all"  />
<polygon points="296,40 298,40 303,35 298,30 296,30 296,40 " style="fill:white; stroke-width:1; stroke:black; " description="&lt;b&gt;ctg1_2514&lt;/b&gt;&lt;br&gt;ctg1 2514&lt;br&gt;Location: 2651411 - 2651780" locus_tag="ctg1_2514" class="clusterblast-orf" id="dummy-13_q17_0_all"  />
<polygon points="306,40 308,40 313,35 308,30 306,30 306,40 " style="fill:white; stroke-width:1; stroke:black; " description="&lt;b&gt;ctg1_2515&lt;/b&gt;&lt;br&gt;ctg1 2515&lt;br&gt;Location: 2651897 - 2652314" locus_tag="ctg1_2515" class="clusterblast-orf" id="dummy-13_q18_0_all"  />
<polygon points="313,40 319,40 324,35 319,30 313,30 313,40 " style="fill:white; stroke-width:1; stroke:black; " description="&lt;b&gt;ctg1_2516&lt;/b&gt;&lt;br&gt;ctg1 2516&lt;br&gt;Location: 2652310 - 2652904" locus_tag="ctg1_2516" class="clusterblast-orf" id="dummy-13_q19_0_all"  />
<polygon points="333,40 335,40 340,35 335,30 333,30 333,40 " style="fill:white; stroke-width:1; stroke:black; " description="&lt;b&gt;ctg1_2517&lt;/b&gt;&lt;br&gt;ctg1 2517&lt;br&gt;Location: 2653378 - 2653756" locus_tag="ctg1_2517" class="clusterblast-orf" id="dummy-13_q20_0_all"  />
<polygon points="341,40 343,40 348,35 343,30 341,30 341,40 " style="fill:white; stroke-width:1; stroke:black; " description="&lt;b&gt;ctg1_2518&lt;/b&gt;&lt;br&gt;ctg1 2518&lt;br&gt;Location: 2653766 - 2654159" locus_tag="ctg1_2518" class="clusterblast-orf" id="dummy-13_q21_0_all"  />
<polygon points="351,40 361,40 366,35 361,30 351,30 351,40 " style="fill:white; stroke-width:1; stroke:black; " description="&lt;b&gt;ctg1_2519&lt;/b&gt;&lt;br&gt;ctg1 2519&lt;br&gt;Location: 2654309 - 2655119" locus_tag="ctg1_2519" class="clusterblast-orf" id="dummy-13_q22_0_all"  />
<polygon points="369,35 374,30 395,30 395,40 374,40 369,35 " style="fill:#2ed815; stroke-width:1; stroke:black; " description="&lt;b&gt;ctg1_2520&lt;/b&gt;&lt;br&gt;ctg1 2520&lt;br&gt;Location: 2655267 - 2656671" locus_tag="ctg1_2520" class="clusterblast-orf" id="dummy-13_q23_0_all"  />
<polygon points="395,35 400,30 418,30 418,40 400,40 395,35 " style="fill:#158fd8; stroke-width:1; stroke:black; " description="&lt;b&gt;ctg1_2521&lt;/b&gt;&lt;br&gt;ctg1 2521&lt;br&gt;Location: 2656667 - 2657894" locus_tag="ctg1_2521" class="clusterblast-orf" id="dummy-13_q24_0_all"  />
<polygon points="422,35 427,30 444,30 444,40 427,40 422,35 " style="fill:#c015d8; stroke-width:1; stroke:black; " description="&lt;b&gt;ctg1_2522&lt;/b&gt;&lt;br&gt;ctg1 2522&lt;br&gt;Location: 2658110 - 2659298" locus_tag="ctg1_2522" class="clusterblast-orf" id="dummy-13_q25_0_all"  />
<polygon points="444,35 449,30 460,30 460,40 449,40 444,35 " style="fill:#d8a715; stroke-width:1; stroke:black; " description="&lt;b&gt;ctg1_2523&lt;/b&gt;&lt;br&gt;ctg1 2523&lt;br&gt;Location: 2659287 - 2660124" locus_tag="ctg1_2523" class="clusterblast-orf" id="dummy-13_q26_0_all"  />
<polygon points="460,35 465,30 486,30 486,40 465,40 460,35 " style="fill:#15d846; stroke-width:1; stroke:black; " description="&lt;b&gt;ctg1_2524&lt;/b&gt;&lt;br&gt;ctg1 2524&lt;br&gt;Location: 2660134 - 2661538" locus_tag="ctg1_2524" class="clusterblast-orf" id="dummy-13_q27_0_all"  />
<polygon points="486,35 491,30 492,30 492,40 491,40 486,35 " style="fill:#1546d8; stroke-width:1; stroke:black; " description="&lt;b&gt;ctg1_2525&lt;/b&gt;&lt;br&gt;ctg1 2525&lt;br&gt;Location: 2661549 - 2661837" locus_tag="ctg1_2525" class="clusterblast-orf" id="dummy-13_q28_0_all"  />
<polygon points="494,35 499,30 499,30 499,40 499,40 494,35 " style="fill:#77d815; stroke-width:1; stroke:black; " description="&lt;b&gt;ctg1_2526&lt;/b&gt;&lt;br&gt;ctg1 2526&lt;br&gt;Location: 2661943 - 2662237" locus_tag="ctg1_2526" class="clusterblast-orf" id="dummy-13_q29_0_all"  />
<polygon points="500,35 505,30 519,30 519,40 505,40 500,35 " style="fill:#d815a7; stroke-width:1; stroke:black; " description="&lt;b&gt;ctg1_2527&lt;/b&gt;&lt;br&gt;ctg1 2527&lt;br&gt;Location: 2662275 - 2663292" locus_tag="ctg1_2527" class="clusterblast-orf" id="dummy-13_q30_0_all"  />
<polygon points="519,35 524,30 534,30 534,40 524,40 519,35 " style="fill:#c0d815; stroke-width:1; stroke:black; " description="&lt;b&gt;ctg1_2528&lt;/b&gt;&lt;br&gt;ctg1 2528&lt;br&gt;Location: 2663288 - 2664092" locus_tag="ctg1_2528" class="clusterblast-orf" id="dummy-13_q31_0_all"  />
<polygon points="534,35 539,30 547,30 547,40 539,40 534,35 " style="fill:#15d88f; stroke-width:1; stroke:black; " description="&lt;b&gt;ctg1_2529&lt;/b&gt;&lt;br&gt;ctg1 2529&lt;br&gt;Location: 2664088 - 2664790" locus_tag="ctg1_2529" class="clusterblast-orf" id="dummy-13_q32_0_all"  />
<polygon points="547,35 552,30 555,30 555,40 552,40 547,35 " style="fill:#2e15d8; stroke-width:1; stroke:black; " description="&lt;b&gt;ctg1_2530&lt;/b&gt;&lt;br&gt;ctg1 2530&lt;br&gt;Location: 2664764 - 2665244" locus_tag="ctg1_2530" class="clusterblast-orf" id="dummy-13_q33_0_all"  />
<polygon points="556,35 561,30 562,30 562,40 561,40 556,35 " style="fill:#d8155e; stroke-width:1; stroke:black; " description="&lt;b&gt;ctg1_2531&lt;/b&gt;&lt;br&gt;ctg1 2531&lt;br&gt;Location: 2665256 - 2665592" locus_tag="ctg1_2531" class="clusterblast-orf" id="dummy-13_q34_0_all"  />
<polygon points="567,35 572,30 610,30 610,40 572,40 567,35 " style="fill:#d815a7; stroke-width:1; stroke:black; " description="&lt;b&gt;ctg1_2532&lt;/b&gt;&lt;br&gt;ctg1 2532&lt;br&gt;Location: 2665884 - 2668164" locus_tag="ctg1_2532" class="clusterblast-orf" id="dummy-13_q35_0_all"  />
<polygon points="616,40 628,40 633,35 628,30 616,30 616,40 " style="fill:white; stroke-width:1; stroke:black; " description="&lt;b&gt;ctg1_2533&lt;/b&gt;&lt;br&gt;ctg1 2533&lt;br&gt;Location: 2668452 - 2669403" locus_tag="ctg1_2533" class="clusterblast-orf" id="dummy-13_q36_0_all"  />
<polygon points="634,40 666,40 671,35 666,30 634,30 634,40 " style="fill:white; stroke-width:1; stroke:black; " description="&lt;b&gt;ctg1_2534&lt;/b&gt;&lt;br&gt;ctg1 2534&lt;br&gt;Location: 2669422 - 2671426" locus_tag="ctg1_2534" class="clusterblast-orf" id="dummy-13_q37_0_all"  />
<polygon points="673,35 678,30 693,30 693,40 678,40 673,35 " style="fill:white; stroke-width:1; stroke:black; " description="&lt;b&gt;ctg1_2535&lt;/b&gt;&lt;br&gt;ctg1 2535&lt;br&gt;Location: 2671520 - 2672564" locus_tag="ctg1_2535" class="clusterblast-orf" id="dummy-13_q38_0_all"  />
<polygon points="695,35 700,30 706,30 706,40 700,40 695,35 " style="fill:white; stroke-width:1; stroke:black; " description="&lt;b&gt;ctg1_2536&lt;/b&gt;&lt;br&gt;ctg1 2536&lt;br&gt;Location: 2672689 - 2673265" locus_tag="ctg1_2536" class="clusterblast-orf" id="dummy-13_q39_0_all"  />
<polygon points="707,35 712,30 744,30 744,40 712,40 707,35 " style="fill:white; stroke-width:1; stroke:black; " description="&lt;b&gt;ctg1_2537&lt;/b&gt;&lt;br&gt;ctg1 2537&lt;br&gt;Location: 2673332 - 2675312" locus_tag="ctg1_2537" class="clusterblast-orf" id="dummy-13_q40_0_all"  />
<polygon points="748,40 775,40 780,35 775,30 748,30 748,40 " style="fill:white; stroke-width:1; stroke:black; " description="&lt;b&gt;ctg1_2538&lt;/b&gt;&lt;br&gt;ctg1 2538&lt;br&gt;Location: 2675517 - 2677218" locus_tag="ctg1_2538" class="clusterblast-orf" id="dummy-13_q41_0_all"  />
</g>
<g label="MGC00000010" description="MGC00000010_c1: Propanediol degradation S. enterica (25% of genes show similarity), PDU" class="clusterblast-cluster"  >
<text x="5" y="70" class="clusterblast-acc"  >
MGC00000010_c1: Propanediol degradation S. enterica (25% of genes show similarity), PDU</text>
<line x1="10" y1="85" x2="778.0" y2="85" style="stroke-width:1; stroke:grey; "  />
</g>
<g id="a13_000"  >
<polygon points="208,90 211,85 208,80 208,90 " style="fill:white; stroke-width:1; stroke:black; " description="&lt;b&gt;STM2059&lt;/b&gt;&lt;br&gt;hypothetical protein&lt;br&gt;Location: 19638 - 19470" locus_tag="STM2059" class="clusterblast-orf" id="dummy-13_h13_2_0"  />
</g>
<g id="a13_001"  >
<polygon points="211,85 216,80 228,80 228,90 216,90 211,85 " style="fill:white; stroke-width:1; stroke:black; " description="&lt;b&gt;STM2058&lt;/b&gt;&lt;br&gt;L-threonine kinase&lt;br&gt;Location: 19437 - 18534" locus_tag="STM2058" class="clusterblast-orf" id="dummy-13_h13_2_1"  />
</g>
<g id="a13_002"  >
<polygon points="229,85 234,80 252,80 252,90 234,90 229,85 " style="fill:white; stroke-width:1; stroke:black; " description="&lt;b&gt;STM2057&lt;/b&gt;&lt;br&gt;propionate kinase&lt;br&gt;Location: 18477 - 17262" locus_tag="STM2057" class="clusterblast-orf" id="dummy-13_h13_2_2"  />
</g>
<g id="a13_003"  >
<polygon points="252,85 257,80 260,80 260,90 257,90 252,85 " style="fill:white; stroke-width:1; stroke:black; " description="&lt;b&gt;STM2056&lt;/b&gt;&lt;br&gt;propanediol utilization protein PduV&lt;br&gt;Location: 17278 - 16825" locus_tag="STM2056" class="clusterblast-orf" id="dummy-13_h13_2_3"  />
</g>
<g id="a13_004"  >
<polygon points="260,85 265,80 267,80 267,90 265,90 260,85 " style="fill:#d8155e; stroke-width:1; stroke:black; " description="&lt;b&gt;STM2055&lt;/b&gt;&lt;br&gt;propanediol utilization polyhedral body protein PduU&lt;br&gt;Location: 16821 - 16470&lt;br&gt;&lt;br&gt;&lt;b&gt;BlastP hit with ctg1_2531&lt;/b&gt;&lt;br&gt;Percentage identity: 57&lt;br&gt;Percentage coverage: 98&lt;br&gt;BLAST bit score: 128&lt;br&gt;E-value: 8.08e-42" locus_tag="STM2055" class="clusterblast-orf" id="dummy-13_h13_2_4"  />
</g>
<g id="a13_005"  >
<polygon points="267,85 272,80 277,80 277,90 272,90 267,85 " style="fill:white; stroke-width:1; stroke:black; " description="&lt;b&gt;STM2054&lt;/b&gt;&lt;br&gt;propanediol utilization polyhedral body protein PduT&lt;br&gt;Location: 16471 - 15916" locus_tag="STM2054" class="clusterblast-orf" id="dummy-13_h13_2_5"  />
</g>
<g id="a13_006"  >
<polygon points="277,85 282,80 303,80 303,90 282,90 277,85 " style="fill:white; stroke-width:1; stroke:black; " description="&lt;b&gt;STM2053&lt;/b&gt;&lt;br&gt;propanediol utilization polyhedral body protein PduS&lt;br&gt;Location: 15914 - 14558" locus_tag="STM2053" class="clusterblast-orf" id="dummy-13_h13_2_6"  />
</g>
<g id="a13_007"  >
<polygon points="303,85 308,80 324,80 324,90 308,90 303,85 " style="fill:#c015d8; stroke-width:1; stroke:black; " description="&lt;b&gt;STM2052&lt;/b&gt;&lt;br&gt;propanol dehydrogenase&lt;br&gt;Location: 14562 - 13449&lt;br&gt;&lt;br&gt;&lt;b&gt;BlastP hit with ctg1_2522&lt;/b&gt;&lt;br&gt;Percentage identity: 38&lt;br&gt;Percentage coverage: 96&lt;br&gt;BLAST bit score: 193&lt;br&gt;E-value: 6.75e-60" locus_tag="STM2052" class="clusterblast-orf" id="dummy-13_h13_2_7"  />
</g>
<g id="a13_008"  >
<polygon points="324,85 329,80 350,80 350,90 329,90 324,85 " style="fill:#15d846; stroke-width:1; stroke:black; " description="&lt;b&gt;STM2051&lt;/b&gt;&lt;br&gt;CoA-dependent propionaldehyde dehydrogenase&lt;br&gt;Location: 13438 - 12043&lt;br&gt;&lt;br&gt;&lt;b&gt;BlastP hit with ctg1_2524&lt;/b&gt;&lt;br&gt;Percentage identity: 46&lt;br&gt;Percentage coverage: 101&lt;br&gt;BLAST bit score: 365&lt;br&gt;E-value: 1.48e-124" locus_tag="STM2051" class="clusterblast-orf" id="dummy-13_h13_2_8"  />
</g>
<g id="a13_009"  >
<polygon points="350,85 355,80 369,80 369,90 355,90 350,85 " style="fill:white; stroke-width:1; stroke:black; " description="&lt;b&gt;STM2050&lt;/b&gt;&lt;br&gt;propanediol utilization protein PduO&lt;br&gt;Location: 12047 - 11036" locus_tag="STM2050" class="clusterblast-orf" id="dummy-13_h13_2_9"  />
</g>
<g id="a13_0010"  >
<polygon points="369,85 374,80 374,80 374,90 374,90 369,85 " style="fill:#1546d8; stroke-width:1; stroke:black; " description="&lt;b&gt;STM2049&lt;/b&gt;&lt;br&gt;propanediol utilization polyhedral body protein PduN&lt;br&gt;Location: 11027 - 10751&lt;br&gt;&lt;br&gt;&lt;b&gt;BlastP hit with ctg1_2525&lt;/b&gt;&lt;br&gt;Percentage identity: 44&lt;br&gt;Percentage coverage: 92&lt;br&gt;BLAST bit score: 67&lt;br&gt;E-value: 6.17e-18" locus_tag="STM2049" class="clusterblast-orf" id="dummy-13_h13_2_10"  />
</g>
<g id="a13_0011"  >
<polygon points="374,85 379,80 383,80 383,90 379,90 374,85 " style="fill:white; stroke-width:1; stroke:black; " description="&lt;b&gt;STM2048&lt;/b&gt;&lt;br&gt;propanediol utilization protein PduM&lt;br&gt;Location: 10748 - 10256" locus_tag="STM2048" class="clusterblast-orf" id="dummy-13_h13_2_11"  />
</g>
<g id="a13_0012"  >
<polygon points="383,85 388,80 395,80 395,90 388,90 383,85 " style="fill:white; stroke-width:1; stroke:black; " description="&lt;b&gt;STM2047&lt;/b&gt;&lt;br&gt;phosphate propanoyltransferase&lt;br&gt;Location: 10260 - 9627" locus_tag="STM2047" class="clusterblast-orf" id="dummy-13_h13_2_12"  />
</g>
<g id="a13_0013"  >
<polygon points="395,85 400,80 404,80 404,90 400,90 395,85 " style="fill:white; stroke-width:1; stroke:black; " description="&lt;b&gt;STM2046&lt;/b&gt;&lt;br&gt;propanediol utilization polyhedral body protein PduK&lt;br&gt;Location: 9628 - 9166" locus_tag="STM2046" class="clusterblast-orf" id="dummy-13_h13_2_13"  />
</g>
<g id="a13_0014"  >
<polygon points="404,85 409,80 409,80 409,90 409,90 404,85 " style="fill:#77d815; stroke-width:1; stroke:black; " description="&lt;b&gt;STM2045&lt;/b&gt;&lt;br&gt;propanediol utilization polyhedral body protein PduJ&lt;br&gt;Location: 9142 - 8866&lt;br&gt;&lt;br&gt;&lt;b&gt;BlastP hit with ctg1_2507&lt;/b&gt;&lt;br&gt;Percentage identity: 49&lt;br&gt;Percentage coverage: 52&lt;br&gt;BLAST bit score: 78&lt;br&gt;E-value: 1.78e-21&lt;br&gt;&lt;br&gt;&lt;b&gt;BlastP hit with ctg1_2526&lt;/b&gt;&lt;br&gt;Percentage identity: 65&lt;br&gt;Percentage coverage: 88&lt;br&gt;BLAST bit score: 105&lt;br&gt;E-value: 3.04e-33" locus_tag="STM2045" class="clusterblast-orf" id="dummy-13_h13_2_14"  />
</g>
<g id="a13_0015"  >
<polygon points="410,85 415,80 416,80 416,90 415,90 410,85 " style="fill:white; stroke-width:1; stroke:black; " description="&lt;b&gt;STM2044&lt;/b&gt;&lt;br&gt;propanediol dehydratase reactivation protein&lt;br&gt;Location: 8848 - 8497" locus_tag="STM2044" class="clusterblast-orf" id="dummy-13_h13_2_15"  />
</g>
<g id="a13_0016"  >
<polygon points="416,85 421,80 450,80 450,90 421,90 416,85 " style="fill:white; stroke-width:1; stroke:black; " description="&lt;b&gt;STM2043&lt;/b&gt;&lt;br&gt;propanediol dehydratase reactivation protein&lt;br&gt;Location: 8508 - 6675" locus_tag="STM2043" class="clusterblast-orf" id="dummy-13_h13_2_16"  />
</g>
<g id="a13_0017"  >
<polygon points="451,85 456,80 460,80 460,90 456,90 451,85 " style="fill:white; stroke-width:1; stroke:black; " description="&lt;b&gt;STM2042&lt;/b&gt;&lt;br&gt;propanediol dehydratase small subunit&lt;br&gt;Location: 6666 - 6144" locus_tag="STM2042" class="clusterblast-orf" id="dummy-13_h13_2_17"  />
</g>
<g id="a13_0018"  >
<polygon points="461,85 466,80 473,80 473,90 466,90 461,85 " style="fill:white; stroke-width:1; stroke:black; " description="&lt;b&gt;STM2041&lt;/b&gt;&lt;br&gt;propanediol dehydratase medium subunit&lt;br&gt;Location: 6130 - 5455" locus_tag="STM2041" class="clusterblast-orf" id="dummy-13_h13_2_18"  />
</g>
<g id="a13_0019"  >
<polygon points="473,85 478,80 505,80 505,90 478,90 473,85 " style="fill:white; stroke-width:1; stroke:black; " description="&lt;b&gt;STM2040&lt;/b&gt;&lt;br&gt;propanediol dehydratase large subunit&lt;br&gt;Location: 5445 - 3780" locus_tag="STM2040" class="clusterblast-orf" id="dummy-13_h13_2_19"  />
</g>
<g id="a13_0020"  >
<polygon points="505,85 510,80 520,80 520,90 510,90 505,85 " style="fill:white; stroke-width:1; stroke:black; " description="&lt;b&gt;STM2039&lt;/b&gt;&lt;br&gt;propanediol utilization polyhedral body protein PduB&lt;br&gt;Location: 3762 - 2949" locus_tag="STM2039" class="clusterblast-orf" id="dummy-13_h13_2_20"  />
</g>
<g id="a13_0021"  >
<polygon points="520,85 525,80 525,80 525,90 525,90 520,85 " style="fill:#77d815; stroke-width:1; stroke:black; " description="&lt;b&gt;STM2038&lt;/b&gt;&lt;br&gt;propanediol utilization polyhedral body protein PduA&lt;br&gt;Location: 2953 - 2668&lt;br&gt;&lt;br&gt;&lt;b&gt;BlastP hit with ctg1_2507&lt;/b&gt;&lt;br&gt;Percentage identity: 46&lt;br&gt;Percentage coverage: 51&lt;br&gt;BLAST bit score: 74&lt;br&gt;E-value: 1.2e-19&lt;br&gt;&lt;br&gt;&lt;b&gt;BlastP hit with ctg1_2526&lt;/b&gt;&lt;br&gt;Percentage identity: 66&lt;br&gt;Percentage coverage: 92&lt;br&gt;BLAST bit score: 113&lt;br&gt;E-value: 2.1e-36" locus_tag="STM2038" class="clusterblast-orf" id="dummy-13_h13_2_21"  />
</g>
<g id="a13_0022"  >
<polygon points="535,90 545,90 550,85 545,80 535,80 535,90 " style="fill:white; stroke-width:1; stroke:black; " description="&lt;b&gt;STM2037&lt;/b&gt;&lt;br&gt;propanediol diffusion facilitator&lt;br&gt;Location: 2144 - 1349" locus_tag="STM2037" class="clusterblast-orf" id="dummy-13_h13_2_22"  />
</g>
<g id="a13_0023"  >
<polygon points="554,90 566,90 571,85 566,80 554,80 554,90 " style="fill:white; stroke-width:1; stroke:black; " description="&lt;b&gt;STM2036&lt;/b&gt;&lt;br&gt;transcriptional regulator PocR&lt;br&gt;Location: 1133 - 221" locus_tag="STM2036" class="clusterblast-orf" id="dummy-13_h13_2_23"  />
</g>
</svg>
