<svg xmlns="http://www.w3.org/2000/svg" xmlns:xlink="http://www.w3.org/1999/xlink" version="1.1" x="0" y="0" height="50" width="800" viewBox="0 0 800 50" preserveAspectRatio="none"  >
<g label="Query sequence" class="clusterblast-cluster"  >
<text x="5" y="20" class="clusterblast-acc"  >
Query sequence</text>
<line x1="10" y1="35" x2="778.0" y2="35" style="stroke-width:1; stroke:grey; "  />
<polygon points="0,40 66,40 71,35 66,30 0,30 0,40 " style="fill:white; stroke-width:1; stroke:black; " description="&lt;b&gt;ctg1_91&lt;/b&gt;&lt;br&gt;ctg1 91&lt;br&gt;Location: 99798 - 101691" locus_tag="ctg1_91" class="clusterblast-orf" id="knownclusterblast-2_q0_0_all"  />
<polygon points="84,40 133,40 138,35 133,30 84,30 84,40 " style="fill:white; stroke-width:1; stroke:black; " description="&lt;b&gt;ctg1_92&lt;/b&gt;&lt;br&gt;ctg1 92&lt;br&gt;Location: 102015 - 103440" locus_tag="ctg1_92" class="clusterblast-orf" id="knownclusterblast-2_q1_0_all"  />
<polygon points="140,35 145,30 210,30 210,40 145,40 140,35 " style="fill:white; stroke-width:1; stroke:black; " description="&lt;b&gt;ctg1_93&lt;/b&gt;&lt;br&gt;ctg1 93&lt;br&gt;Location: 103510 - 105364" locus_tag="ctg1_93" class="clusterblast-orf" id="knownclusterblast-2_q2_0_all"  />
<polygon points="224,40 317,40 322,35 317,30 224,30 224,40 " style="fill:white; stroke-width:1; stroke:black; " description="&lt;b&gt;ctg1_94&lt;/b&gt;&lt;br&gt;ctg1 94&lt;br&gt;Location: 105718 - 108316" locus_tag="ctg1_94" class="clusterblast-orf" id="knownclusterblast-2_q3_0_all"  />
<polygon points="329,40 338,40 343,35 338,30 329,30 329,40 " style="fill:white; stroke-width:1; stroke:black; " description="&lt;b&gt;ctg1_95&lt;/b&gt;&lt;br&gt;ctg1 95&lt;br&gt;Location: 108491 - 108854" locus_tag="ctg1_95" class="clusterblast-orf" id="knownclusterblast-2_q4_0_all"  />
<polygon points="344,35 349,30 374,30 374,40 349,40 344,35 " style="fill:white; stroke-width:1; stroke:black; " description="&lt;b&gt;ctg1_96&lt;/b&gt;&lt;br&gt;ctg1 96&lt;br&gt;Location: 108891 - 109686" locus_tag="ctg1_96" class="clusterblast-orf" id="knownclusterblast-2_q5_0_all"  />
<polygon points="375,35 380,30 407,30 407,40 380,40 375,35 " style="fill:white; stroke-width:1; stroke:black; " description="&lt;b&gt;ctg1_97&lt;/b&gt;&lt;br&gt;ctg1 97&lt;br&gt;Location: 109701 - 110568" locus_tag="ctg1_97" class="clusterblast-orf" id="knownclusterblast-2_q6_0_all"  />
<polygon points="411,35 416,30 423,30 423,40 416,40 411,35 " style="fill:white; stroke-width:1; stroke:black; " description="&lt;b&gt;ctg1_98&lt;/b&gt;&lt;br&gt;ctg1 98&lt;br&gt;Location: 110673 - 110982" locus_tag="ctg1_98" class="clusterblast-orf" id="knownclusterblast-2_q7_0_all"  />
<polygon points="431,40 484,40 489,35 484,30 431,30 431,40 " style="fill:white; stroke-width:1; stroke:black; " description="&lt;b&gt;ctg1_99&lt;/b&gt;&lt;br&gt;ctg1 99&lt;br&gt;Location: 111186 - 112737" locus_tag="ctg1_99" class="clusterblast-orf" id="knownclusterblast-2_q8_0_all"  />
<polygon points="497,35 502,30 587,30 587,40 502,40 497,35 " style="fill:white; stroke-width:1; stroke:black; " description="&lt;b&gt;ctg1_100&lt;/b&gt;&lt;br&gt;ctg1 100&lt;br&gt;Location: 112938 - 115329" locus_tag="ctg1_100" class="clusterblast-orf" id="knownclusterblast-2_q9_0_all"  />
<polygon points="595,40 611,40 616,35 611,30 595,30 595,40 " style="fill:white; stroke-width:1; stroke:black; " description="&lt;b&gt;ctg1_101&lt;/b&gt;&lt;br&gt;ctg1 101&lt;br&gt;Location: 115534 - 116071" locus_tag="ctg1_101" class="clusterblast-orf" id="knownclusterblast-2_q10_0_all"  />
<polygon points="617,35 622,30 642,30 642,40 622,40 617,35 " style="fill:white; stroke-width:1; stroke:black; " description="&lt;b&gt;ctg1_102&lt;/b&gt;&lt;br&gt;ctg1 102&lt;br&gt;Location: 116111 - 116774" locus_tag="ctg1_102" class="clusterblast-orf" id="knownclusterblast-2_q11_0_all"  />
<polygon points="646,40 676,40 681,35 676,30 646,30 646,40 " style="fill:white; stroke-width:1; stroke:black; " description="&lt;b&gt;ctg1_103&lt;/b&gt;&lt;br&gt;ctg1 103&lt;br&gt;Location: 116882 - 117809" locus_tag="ctg1_103" class="clusterblast-orf" id="knownclusterblast-2_q12_0_all"  />
<polygon points="681,40 705,40 710,35 705,30 681,30 681,40 " style="fill:white; stroke-width:1; stroke:black; " description="&lt;b&gt;ctg1_104&lt;/b&gt;&lt;br&gt;ctg1 104&lt;br&gt;Location: 117805 - 118576" locus_tag="ctg1_104" class="clusterblast-orf" id="knownclusterblast-2_q13_0_all"  />
<polygon points="714,40 726,40 731,35 726,30 714,30 714,40 " style="fill:white; stroke-width:1; stroke:black; " description="&lt;b&gt;ctg1_105&lt;/b&gt;&lt;br&gt;ctg1 105&lt;br&gt;Location: 118680 - 119121" locus_tag="ctg1_105" class="clusterblast-orf" id="knownclusterblast-2_q14_0_all"  />
<polygon points="733,40 775,40 780,35 775,30 733,30 733,40 " style="fill:white; stroke-width:1; stroke:black; " description="&lt;b&gt;ctg1_106&lt;/b&gt;&lt;br&gt;ctg1 106&lt;br&gt;Location: 119184 - 120414" locus_tag="ctg1_106" class="clusterblast-orf" id="knownclusterblast-2_q15_0_all"  />
</g>
</svg>
