<svg xmlns="http://www.w3.org/2000/svg" xmlns:xlink="http://www.w3.org/1999/xlink" version="1.1" x="0" y="0" height="100" width="800" viewBox="0 0 800 100" preserveAspectRatio="none"  >
<g label="Query sequence" class="clusterblast-cluster"  >
<text x="5" y="20" class="clusterblast-acc"  >
Query sequence</text>
<line x1="10" y1="35" x2="778.0" y2="35" style="stroke-width:1; stroke:grey; "  />
<polygon points="81,35 86,30 138,30 138,40 86,40 81,35 " style="fill:white; stroke-width:1; stroke:black; " description="&lt;b&gt;ctg78_1&lt;/b&gt;&lt;br&gt;ctg78 1&lt;br&gt;Location: 131 - 1553" locus_tag="ctg78_1" class="clusterblast-orf" id="knownclusterblast-1_q0_0_all"  />
<polygon points="138,35 143,30 164,30 164,40 143,40 138,35 " style="fill:white; stroke-width:1; stroke:black; " description="&lt;b&gt;ctg78_2&lt;/b&gt;&lt;br&gt;ctg78 2&lt;br&gt;Location: 1563 - 2196" locus_tag="ctg78_2" class="clusterblast-orf" id="knownclusterblast-1_q1_0_all"  />
<polygon points="164,35 169,30 207,30 207,40 169,40 164,35 " style="fill:white; stroke-width:1; stroke:black; " description="&lt;b&gt;ctg78_3&lt;/b&gt;&lt;br&gt;ctg78 3&lt;br&gt;Location: 2206 - 3277" locus_tag="ctg78_3" class="clusterblast-orf" id="knownclusterblast-1_q2_0_all"  />
<polygon points="232,40 356,40 361,35 356,30 232,30 232,40 " style="fill:white; stroke-width:1; stroke:black; " description="&lt;b&gt;ctg78_4&lt;/b&gt;&lt;br&gt;ctg78 4&lt;br&gt;Location: 3887 - 7106" locus_tag="ctg78_4" class="clusterblast-orf" id="knownclusterblast-1_q3_0_all"  />
<polygon points="360,35 365,30 381,30 381,40 365,40 360,35 " style="fill:white; stroke-width:1; stroke:black; " description="&lt;b&gt;ctg78_5&lt;/b&gt;&lt;br&gt;ctg78 5&lt;br&gt;Location: 7083 - 7614" locus_tag="ctg78_5" class="clusterblast-orf" id="knownclusterblast-1_q4_0_all"  />
<polygon points="381,35 386,30 396,30 396,40 386,40 381,35 " style="fill:white; stroke-width:1; stroke:black; " description="&lt;b&gt;ctg78_6&lt;/b&gt;&lt;br&gt;ctg78 6&lt;br&gt;Location: 7614 - 7968" locus_tag="ctg78_6" class="clusterblast-orf" id="knownclusterblast-1_q5_0_all"  />
<polygon points="396,35 401,30 443,30 443,40 401,40 396,35 " style="fill:#d81515; stroke-width:1; stroke:black; " description="&lt;b&gt;ctg78_7&lt;/b&gt;&lt;br&gt;ctg78 7&lt;br&gt;Location: 7988 - 9152" locus_tag="ctg78_7" class="clusterblast-orf" id="knownclusterblast-1_q6_0_all"  />
<polygon points="444,35 449,30 458,30 458,40 449,40 444,35 " style="fill:#4dd815; stroke-width:1; stroke:black; " description="&lt;b&gt;ctg78_8&lt;/b&gt;&lt;br&gt;ctg78 8&lt;br&gt;Location: 9173 - 9512" locus_tag="ctg78_8" class="clusterblast-orf" id="knownclusterblast-1_q7_0_all"  />
<polygon points="483,40 545,40 550,35 545,30 483,30 483,40 " style="fill:#1585d8; stroke-width:1; stroke:black; " description="&lt;b&gt;ctg78_9&lt;/b&gt;&lt;br&gt;ctg78 9&lt;br&gt;Location: 10132 - 11800" locus_tag="ctg78_9" class="clusterblast-orf" id="knownclusterblast-1_q8_0_all"  />
<polygon points="550,40 569,40 574,35 569,30 550,30 550,40 " style="fill:#d815bc; stroke-width:1; stroke:black; " description="&lt;b&gt;ctg78_10&lt;/b&gt;&lt;br&gt;ctg78 10&lt;br&gt;Location: 11812 - 12397" locus_tag="ctg78_10" class="clusterblast-orf" id="knownclusterblast-1_q9_0_all"  />
<polygon points="574,40 586,40 591,35 586,30 574,30 574,40 " style="fill:#d8bc15; stroke-width:1; stroke:black; " description="&lt;b&gt;ctg78_11&lt;/b&gt;&lt;br&gt;ctg78 11&lt;br&gt;Location: 12399 - 12825" locus_tag="ctg78_11" class="clusterblast-orf" id="knownclusterblast-1_q10_0_all"  />
<polygon points="591,40 660,40 665,35 660,30 591,30 591,40 " style="fill:#15d885; stroke-width:1; stroke:black; " description="&lt;b&gt;ctg78_12&lt;/b&gt;&lt;br&gt;ctg78 12&lt;br&gt;Location: 12837 - 14661" locus_tag="ctg78_12" class="clusterblast-orf" id="knownclusterblast-1_q11_0_all"  />
<polygon points="667,40 694,40 699,35 694,30 667,30 667,40 " style="fill:#4d15d8; stroke-width:1; stroke:black; " description="&lt;b&gt;ctg78_13&lt;/b&gt;&lt;br&gt;ctg78 13&lt;br&gt;Location: 14714 - 15518" locus_tag="ctg78_13" class="clusterblast-orf" id="knownclusterblast-1_q12_0_all"  />
</g>
<g label="MGC00000010" description="MGC00000010_c1: Propanediol degradation S. enterica (29% of genes show similarity), PDU" class="clusterblast-cluster"  >
<text x="5" y="70" class="clusterblast-acc"  >
MGC00000010_c1: Propanediol degradation S. enterica (29% of genes show similarity), PDU</text>
<line x1="10" y1="85" x2="778.0" y2="85" style="stroke-width:1; stroke:grey; "  />
</g>
<g id="a1_000"  >
<polygon points="0,85 5,80 36,80 36,90 5,90 0,85 " style="fill:white; stroke-width:1; stroke:black; " description="&lt;b&gt;STM2036&lt;/b&gt;&lt;br&gt;transcriptional regulator PocR&lt;br&gt;Location: 221 - 1133" locus_tag="STM2036" class="clusterblast-orf" id="knownclusterblast-1_all_1_1_0"  />
</g>
<g id="a1_001"  >
<polygon points="45,85 50,80 77,80 77,90 50,90 45,85 " style="fill:#4d15d8; stroke-width:1; stroke:black; " description="&lt;b&gt;STM2037&lt;/b&gt;&lt;br&gt;propanediol diffusion facilitator&lt;br&gt;Location: 1349 - 2144&lt;br&gt;&lt;br&gt;&lt;b&gt;BlastP hit with ctg78_13&lt;/b&gt;&lt;br&gt;Percentage identity: 68&lt;br&gt;Percentage coverage: 96&lt;br&gt;BLAST bit score: 367&lt;br&gt;E-value: 3.18e-131" locus_tag="STM2037" class="clusterblast-orf" id="knownclusterblast-1_all_1_1_1"  />
</g>
<g id="a1_002"  >
<polygon points="98,90 104,90 109,85 104,80 98,80 98,90 " style="fill:white; stroke-width:1; stroke:black; " description="&lt;b&gt;STM2038&lt;/b&gt;&lt;br&gt;propanediol utilization polyhedral body protein PduA&lt;br&gt;Location: 2668 - 2953" locus_tag="STM2038" class="clusterblast-orf" id="knownclusterblast-1_all_1_1_2"  />
</g>
<g id="a1_003"  >
<polygon points="109,90 137,90 142,85 137,80 109,80 109,90 " style="fill:white; stroke-width:1; stroke:black; " description="&lt;b&gt;STM2039&lt;/b&gt;&lt;br&gt;propanediol utilization polyhedral body protein PduB&lt;br&gt;Location: 2949 - 3762" locus_tag="STM2039" class="clusterblast-orf" id="knownclusterblast-1_all_1_1_3"  />
</g>
<g id="a1_004"  >
<polygon points="142,90 204,90 209,85 204,80 142,80 142,90 " style="fill:#1585d8; stroke-width:1; stroke:black; " description="&lt;b&gt;STM2040&lt;/b&gt;&lt;br&gt;propanediol dehydratase large subunit&lt;br&gt;Location: 3780 - 5445&lt;br&gt;&lt;br&gt;&lt;b&gt;BlastP hit with ctg78_9&lt;/b&gt;&lt;br&gt;Percentage identity: 71&lt;br&gt;Percentage coverage: 100&lt;br&gt;BLAST bit score: 783&lt;br&gt;E-value: 4.09e-286" locus_tag="STM2040" class="clusterblast-orf" id="knownclusterblast-1_all_1_1_4"  />
</g>
<g id="a1_005"  >
<polygon points="210,90 232,90 237,85 232,80 210,80 210,90 " style="fill:#d815bc; stroke-width:1; stroke:black; " description="&lt;b&gt;STM2041&lt;/b&gt;&lt;br&gt;propanediol dehydratase medium subunit&lt;br&gt;Location: 5455 - 6130&lt;br&gt;&lt;br&gt;&lt;b&gt;BlastP hit with ctg78_10&lt;/b&gt;&lt;br&gt;Percentage identity: 63&lt;br&gt;Percentage coverage: 90&lt;br&gt;BLAST bit score: 219&lt;br&gt;E-value: 5.7e-75" locus_tag="STM2041" class="clusterblast-orf" id="knownclusterblast-1_all_1_1_5"  />
</g>
<g id="a1_006"  >
<polygon points="237,90 253,90 258,85 253,80 237,80 237,90 " style="fill:#d8bc15; stroke-width:1; stroke:black; " description="&lt;b&gt;STM2042&lt;/b&gt;&lt;br&gt;propanediol dehydratase small subunit&lt;br&gt;Location: 6144 - 6666&lt;br&gt;&lt;br&gt;&lt;b&gt;BlastP hit with ctg78_11&lt;/b&gt;&lt;br&gt;Percentage identity: 55&lt;br&gt;Percentage coverage: 97&lt;br&gt;BLAST bit score: 138&lt;br&gt;E-value: 2.23e-44" locus_tag="STM2042" class="clusterblast-orf" id="knownclusterblast-1_all_1_1_6"  />
</g>
<g id="a1_007"  >
<polygon points="259,90 327,90 332,85 327,80 259,80 259,90 " style="fill:#15d885; stroke-width:1; stroke:black; " description="&lt;b&gt;STM2043&lt;/b&gt;&lt;br&gt;propanediol dehydratase reactivation protein&lt;br&gt;Location: 6675 - 8508&lt;br&gt;&lt;br&gt;&lt;b&gt;BlastP hit with ctg78_12&lt;/b&gt;&lt;br&gt;Percentage identity: 60&lt;br&gt;Percentage coverage: 100&lt;br&gt;BLAST bit score: 685&lt;br&gt;E-value: 8.41e-246" locus_tag="STM2043" class="clusterblast-orf" id="knownclusterblast-1_all_1_1_7"  />
</g>
<g id="a1_008"  >
<polygon points="332,90 341,90 346,85 341,80 332,80 332,90 " style="fill:white; stroke-width:1; stroke:black; " description="&lt;b&gt;STM2044&lt;/b&gt;&lt;br&gt;propanediol dehydratase reactivation protein&lt;br&gt;Location: 8497 - 8848" locus_tag="STM2044" class="clusterblast-orf" id="knownclusterblast-1_all_1_1_8"  />
</g>
<g id="a1_009"  >
<polygon points="347,90 353,90 358,85 353,80 347,80 347,90 " style="fill:white; stroke-width:1; stroke:black; " description="&lt;b&gt;STM2045&lt;/b&gt;&lt;br&gt;propanediol utilization polyhedral body protein PduJ&lt;br&gt;Location: 8866 - 9142" locus_tag="STM2045" class="clusterblast-orf" id="knownclusterblast-1_all_1_1_9"  />
</g>
<g id="a1_0010"  >
<polygon points="359,90 372,90 377,85 372,80 359,80 359,90 " style="fill:white; stroke-width:1; stroke:black; " description="&lt;b&gt;STM2046&lt;/b&gt;&lt;br&gt;propanediol utilization polyhedral body protein PduK&lt;br&gt;Location: 9166 - 9628" locus_tag="STM2046" class="clusterblast-orf" id="knownclusterblast-1_all_1_1_10"  />
</g>
<g id="a1_0011"  >
<polygon points="377,90 398,90 403,85 398,80 377,80 377,90 " style="fill:white; stroke-width:1; stroke:black; " description="&lt;b&gt;STM2047&lt;/b&gt;&lt;br&gt;phosphate propanoyltransferase&lt;br&gt;Location: 9627 - 10260" locus_tag="STM2047" class="clusterblast-orf" id="knownclusterblast-1_all_1_1_11"  />
</g>
<g id="a1_0012"  >
<polygon points="403,90 417,90 422,85 417,80 403,80 403,90 " style="fill:white; stroke-width:1; stroke:black; " description="&lt;b&gt;STM2048&lt;/b&gt;&lt;br&gt;propanediol utilization protein PduM&lt;br&gt;Location: 10256 - 10748" locus_tag="STM2048" class="clusterblast-orf" id="knownclusterblast-1_all_1_1_12"  />
</g>
<g id="a1_0013"  >
<polygon points="423,90 429,90 434,85 429,80 423,80 423,90 " style="fill:white; stroke-width:1; stroke:black; " description="&lt;b&gt;STM2049&lt;/b&gt;&lt;br&gt;propanediol utilization polyhedral body protein PduN&lt;br&gt;Location: 10751 - 11027" locus_tag="STM2049" class="clusterblast-orf" id="knownclusterblast-1_all_1_1_13"  />
</g>
<g id="a1_0014"  >
<polygon points="434,90 470,90 475,85 470,80 434,80 434,90 " style="fill:#4dd815; stroke-width:1; stroke:black; " description="&lt;b&gt;STM2050&lt;/b&gt;&lt;br&gt;propanediol utilization protein PduO&lt;br&gt;Location: 11036 - 12047&lt;br&gt;&lt;br&gt;&lt;b&gt;BlastP hit with ctg78_8&lt;/b&gt;&lt;br&gt;Percentage identity: 43&lt;br&gt;Percentage coverage: 95&lt;br&gt;BLAST bit score: 91&lt;br&gt;E-value: 5.08e-25" locus_tag="STM2050" class="clusterblast-orf" id="knownclusterblast-1_all_1_1_14"  />
</g>
<g id="a1_0015"  >
<polygon points="474,90 525,90 530,85 525,80 474,80 474,90 " style="fill:white; stroke-width:1; stroke:black; " description="&lt;b&gt;STM2051&lt;/b&gt;&lt;br&gt;CoA-dependent propionaldehyde dehydrogenase&lt;br&gt;Location: 12043 - 13438" locus_tag="STM2051" class="clusterblast-orf" id="knownclusterblast-1_all_1_1_15"  />
</g>
<g id="a1_0016"  >
<polygon points="531,90 571,90 576,85 571,80 531,80 531,90 " style="fill:#d81515; stroke-width:1; stroke:black; " description="&lt;b&gt;STM2052&lt;/b&gt;&lt;br&gt;propanol dehydrogenase&lt;br&gt;Location: 13449 - 14562&lt;br&gt;&lt;br&gt;&lt;b&gt;BlastP hit with ctg78_7&lt;/b&gt;&lt;br&gt;Percentage identity: 34&lt;br&gt;Percentage coverage: 96&lt;br&gt;BLAST bit score: 167&lt;br&gt;E-value: 5.3e-50" locus_tag="STM2052" class="clusterblast-orf" id="knownclusterblast-1_all_1_1_16"  />
</g>
<g id="a1_0017"  >
<polygon points="575,90 625,90 630,85 625,80 575,80 575,90 " style="fill:white; stroke-width:1; stroke:black; " description="&lt;b&gt;STM2053&lt;/b&gt;&lt;br&gt;propanediol utilization polyhedral body protein PduS&lt;br&gt;Location: 14558 - 15914" locus_tag="STM2053" class="clusterblast-orf" id="knownclusterblast-1_all_1_1_17"  />
</g>
<g id="a1_0018"  >
<polygon points="630,90 647,90 652,85 647,80 630,80 630,90 " style="fill:white; stroke-width:1; stroke:black; " description="&lt;b&gt;STM2054&lt;/b&gt;&lt;br&gt;propanediol utilization polyhedral body protein PduT&lt;br&gt;Location: 15916 - 16471" locus_tag="STM2054" class="clusterblast-orf" id="knownclusterblast-1_all_1_1_18"  />
</g>
<g id="a1_0019"  >
<polygon points="652,90 661,90 666,85 661,80 652,80 652,90 " style="fill:white; stroke-width:1; stroke:black; " description="&lt;b&gt;STM2055&lt;/b&gt;&lt;br&gt;propanediol utilization polyhedral body protein PduU&lt;br&gt;Location: 16470 - 16821" locus_tag="STM2055" class="clusterblast-orf" id="knownclusterblast-1_all_1_1_19"  />
</g>
<g id="a1_0020"  >
<polygon points="666,90 680,90 685,85 680,80 666,80 666,90 " style="fill:white; stroke-width:1; stroke:black; " description="&lt;b&gt;STM2056&lt;/b&gt;&lt;br&gt;propanediol utilization protein PduV&lt;br&gt;Location: 16825 - 17278" locus_tag="STM2056" class="clusterblast-orf" id="knownclusterblast-1_all_1_1_20"  />
</g>
<g id="a1_0021"  >
<polygon points="684,90 728,90 733,85 728,80 684,80 684,90 " style="fill:white; stroke-width:1; stroke:black; " description="&lt;b&gt;STM2057&lt;/b&gt;&lt;br&gt;propionate kinase&lt;br&gt;Location: 17262 - 18477" locus_tag="STM2057" class="clusterblast-orf" id="knownclusterblast-1_all_1_1_21"  />
</g>
<g id="a1_0022"  >
<polygon points="735,90 766,90 771,85 766,80 735,80 735,90 " style="fill:white; stroke-width:1; stroke:black; " description="&lt;b&gt;STM2058&lt;/b&gt;&lt;br&gt;L-threonine kinase&lt;br&gt;Location: 18534 - 19437" locus_tag="STM2058" class="clusterblast-orf" id="knownclusterblast-1_all_1_1_22"  />
</g>
<g id="a1_0023"  >
<polygon points="773,85 778,80 780,80 780,90 778,90 773,85 " style="fill:white; stroke-width:1; stroke:black; " description="&lt;b&gt;STM2059&lt;/b&gt;&lt;br&gt;hypothetical protein&lt;br&gt;Location: 19470 - 19638" locus_tag="STM2059" class="clusterblast-orf" id="knownclusterblast-1_all_1_1_23"  />
</g>
</svg>
