<svg xmlns="http://www.w3.org/2000/svg" xmlns:xlink="http://www.w3.org/1999/xlink" version="1.1" x="0" y="0" height="230" width="800" viewBox="0 0 800 230" preserveAspectRatio="none"  >
<g label="Query sequence" class="clusterblast-cluster"  >
<text x="5" y="20" class="clusterblast-acc"  >
Query sequence</text>
<line x1="10" y1="35" x2="778.0" y2="35" style="stroke-width:1; stroke:grey; "  />
<polygon points="0,35 5,30 12,30 12,40 5,40 0,35 " style="fill:white; stroke-width:1; stroke:black; " description="&lt;b&gt;ctg121_38&lt;/b&gt;&lt;br&gt;ctg121 38&lt;br&gt;Location: 38748 - 39276" locus_tag="ctg121_38" class="clusterblast-orf" id="dummy-1_q0_0_all"  />
<polygon points="27,40 31,40 36,35 31,30 27,30 27,40 " style="fill:white; stroke-width:1; stroke:black; " description="&lt;b&gt;ctg121_39&lt;/b&gt;&lt;br&gt;ctg121 39&lt;br&gt;Location: 39927 - 40335" locus_tag="ctg121_39" class="clusterblast-orf" id="dummy-1_q1_0_all"  />
<polygon points="39,35 44,30 60,30 60,40 44,40 39,35 " style="fill:white; stroke-width:1; stroke:black; " description="&lt;b&gt;ctg121_40&lt;/b&gt;&lt;br&gt;ctg121 40&lt;br&gt;Location: 40456 - 41359" locus_tag="ctg121_40" class="clusterblast-orf" id="dummy-1_q2_0_all"  />
<polygon points="64,35 69,30 87,30 87,40 69,40 64,35 " style="fill:white; stroke-width:1; stroke:black; " description="&lt;b&gt;ctg121_41&lt;/b&gt;&lt;br&gt;ctg121 41&lt;br&gt;Location: 41556 - 42570" locus_tag="ctg121_41" class="clusterblast-orf" id="dummy-1_q3_0_all"  />
<polygon points="89,35 94,30 110,30 110,40 94,40 89,35 " style="fill:white; stroke-width:1; stroke:black; " description="&lt;b&gt;ctg121_42&lt;/b&gt;&lt;br&gt;ctg121 42&lt;br&gt;Location: 42659 - 43562" locus_tag="ctg121_42" class="clusterblast-orf" id="dummy-1_q4_0_all"  />
<polygon points="113,40 118,40 123,35 118,30 113,30 113,40 " style="fill:white; stroke-width:1; stroke:black; " description="&lt;b&gt;ctg121_43&lt;/b&gt;&lt;br&gt;ctg121 43&lt;br&gt;Location: 43674 - 44133" locus_tag="ctg121_43" class="clusterblast-orf" id="dummy-1_q5_0_all"  />
<polygon points="124,40 139,40 144,35 139,30 124,30 124,40 " style="fill:white; stroke-width:1; stroke:black; " description="&lt;b&gt;ctg121_44&lt;/b&gt;&lt;br&gt;ctg121 44&lt;br&gt;Location: 44175 - 45018" locus_tag="ctg121_44" class="clusterblast-orf" id="dummy-1_q6_0_all"  />
<polygon points="172,35 177,30 182,30 182,40 177,40 172,35 " style="fill:white; stroke-width:1; stroke:black; " description="&lt;b&gt;ctg121_45&lt;/b&gt;&lt;br&gt;ctg121 45&lt;br&gt;Location: 46260 - 46704" locus_tag="ctg121_45" class="clusterblast-orf" id="dummy-1_q7_0_all"  />
<polygon points="185,40 202,40 207,35 202,30 185,30 185,40 " style="fill:white; stroke-width:1; stroke:black; " description="&lt;b&gt;ctg121_46&lt;/b&gt;&lt;br&gt;ctg121 46&lt;br&gt;Location: 46811 - 47792" locus_tag="ctg121_46" class="clusterblast-orf" id="dummy-1_q8_0_all"  />
<polygon points="208,35 213,30 223,30 223,40 213,40 208,35 " style="fill:#d81515; stroke-width:1; stroke:black; " description="&lt;b&gt;ctg121_47&lt;/b&gt;&lt;br&gt;ctg121 47&lt;br&gt;Location: 47807 - 48485" locus_tag="ctg121_47" class="clusterblast-orf" id="dummy-1_q9_0_all"  />
<polygon points="223,35 228,30 239,30 239,40 228,40 223,35 " style="fill:#77d815; stroke-width:1; stroke:black; " description="&lt;b&gt;ctg121_48&lt;/b&gt;&lt;br&gt;ctg121 48&lt;br&gt;Location: 48484 - 49195" locus_tag="ctg121_48" class="clusterblast-orf" id="dummy-1_q10_0_all"  />
<polygon points="239,35 244,30 275,30 275,40 244,40 239,35 " style="fill:#15d8d8; stroke-width:1; stroke:black; " description="&lt;b&gt;ctg121_49&lt;/b&gt;&lt;br&gt;ctg121 49&lt;br&gt;Location: 49191 - 50727" locus_tag="ctg121_49" class="clusterblast-orf" id="dummy-1_q11_0_all"  />
<polygon points="274,35 279,30 360,30 360,40 279,40 274,35 " style="fill:#7715d8; stroke-width:1; stroke:black; " description="&lt;b&gt;ctg121_50&lt;/b&gt;&lt;br&gt;ctg121 50&lt;br&gt;Location: 50723 - 54467" locus_tag="ctg121_50" class="clusterblast-orf" id="dummy-1_q12_0_all"  />
<polygon points="370,35 375,30 401,30 401,40 375,40 370,35 " style="fill:white; stroke-width:1; stroke:black; " description="&lt;b&gt;ctg121_51&lt;/b&gt;&lt;br&gt;ctg121 51&lt;br&gt;Location: 54872 - 56261" locus_tag="ctg121_51" class="clusterblast-orf" id="dummy-1_q13_0_all"  />
<polygon points="409,40 444,40 449,35 444,30 409,30 409,40 " style="fill:white; stroke-width:1; stroke:black; " description="&lt;b&gt;ctg121_52&lt;/b&gt;&lt;br&gt;ctg121 52&lt;br&gt;Location: 56572 - 58351" locus_tag="ctg121_52" class="clusterblast-orf" id="dummy-1_q14_0_all"  />
<polygon points="450,40 460,40 465,35 460,30 450,30 450,40 " style="fill:white; stroke-width:1; stroke:black; " description="&lt;b&gt;ctg121_53&lt;/b&gt;&lt;br&gt;ctg121 53&lt;br&gt;Location: 58361 - 59012" locus_tag="ctg121_53" class="clusterblast-orf" id="dummy-1_q15_0_all"  />
<polygon points="464,35 469,30 496,30 496,40 469,40 464,35 " style="fill:white; stroke-width:1; stroke:black; " description="&lt;b&gt;ctg121_54&lt;/b&gt;&lt;br&gt;ctg121 54&lt;br&gt;Location: 59008 - 60391" locus_tag="ctg121_54" class="clusterblast-orf" id="dummy-1_q16_0_all"  />
<polygon points="500,35 505,30 559,30 559,40 505,40 500,35 " style="fill:white; stroke-width:1; stroke:black; " description="&lt;b&gt;ctg121_55&lt;/b&gt;&lt;br&gt;ctg121 55&lt;br&gt;Location: 60542 - 63143" locus_tag="ctg121_55" class="clusterblast-orf" id="dummy-1_q17_0_all"  />
<polygon points="559,35 564,30 590,30 590,40 564,40 559,35 " style="fill:white; stroke-width:1; stroke:black; " description="&lt;b&gt;ctg121_56&lt;/b&gt;&lt;br&gt;ctg121 56&lt;br&gt;Location: 63142 - 64492" locus_tag="ctg121_56" class="clusterblast-orf" id="dummy-1_q18_0_all"  />
<polygon points="591,35 596,30 655,30 655,40 596,40 591,35 " style="fill:white; stroke-width:1; stroke:black; " description="&lt;b&gt;ctg121_57&lt;/b&gt;&lt;br&gt;ctg121 57&lt;br&gt;Location: 64514 - 67331" locus_tag="ctg121_57" class="clusterblast-orf" id="dummy-1_q19_0_all"  />
<polygon points="656,35 661,30 674,30 674,40 661,40 656,35 " style="fill:white; stroke-width:1; stroke:black; " description="&lt;b&gt;ctg121_58&lt;/b&gt;&lt;br&gt;ctg121 58&lt;br&gt;Location: 67341 - 68130" locus_tag="ctg121_58" class="clusterblast-orf" id="dummy-1_q20_0_all"  />
<polygon points="674,35 679,30 694,30 694,40 679,40 674,35 " style="fill:white; stroke-width:1; stroke:black; " description="&lt;b&gt;ctg121_59&lt;/b&gt;&lt;br&gt;ctg121 59&lt;br&gt;Location: 68139 - 69024" locus_tag="ctg121_59" class="clusterblast-orf" id="dummy-1_q21_0_all"  />
<polygon points="694,35 699,30 723,30 723,40 699,40 694,35 " style="fill:white; stroke-width:1; stroke:black; " description="&lt;b&gt;ctg121_60&lt;/b&gt;&lt;br&gt;ctg121 60&lt;br&gt;Location: 69025 - 70282" locus_tag="ctg121_60" class="clusterblast-orf" id="dummy-1_q22_0_all"  />
<polygon points="729,35 734,30 759,30 759,40 734,40 729,35 " style="fill:white; stroke-width:1; stroke:black; " description="&lt;b&gt;ctg121_61&lt;/b&gt;&lt;br&gt;ctg121 61&lt;br&gt;Location: 70524 - 71850" locus_tag="ctg121_61" class="clusterblast-orf" id="dummy-1_q23_0_all"  />
<polygon points="761,40 764,40 769,35 764,30 761,30 761,40 " style="fill:white; stroke-width:1; stroke:black; " description="&lt;b&gt;ctg121_62&lt;/b&gt;&lt;br&gt;ctg121 62&lt;br&gt;Location: 71917 - 72271" locus_tag="ctg121_62" class="clusterblast-orf" id="dummy-1_q24_0_all"  />
<polygon points="774,40 775,40 780,35 775,30 774,30 774,40 " style="fill:white; stroke-width:1; stroke:black; " description="&lt;b&gt;ctg121_63&lt;/b&gt;&lt;br&gt;ctg121 63&lt;br&gt;Location: 72508 - 72751" locus_tag="ctg121_63" class="clusterblast-orf" id="dummy-1_q25_0_all"  />
</g>
<g label="MGC00000045" description="MGC00000045_c1: Nitrate reductase E. coli (80% of genes show similarity), NIR" class="clusterblast-cluster"  >
<text x="5" y="70" class="clusterblast-acc"  >
MGC00000045_c1: Nitrate reductase E. coli (80% of genes show similarity), NIR</text>
<line x1="10" y1="85" x2="778.0" y2="85" style="stroke-width:1; stroke:grey; "  />
</g>
<g id="a1_000"  >
<polygon points="203,85 208,80 218,80 218,90 208,90 203,85 " style="fill:#d81515; stroke-width:1; stroke:black; " description="&lt;b&gt;b1227&lt;/b&gt;&lt;br&gt;nitrate reductase A subunit gamma&lt;br&gt;Location: 16289 - 15611&lt;br&gt;&lt;br&gt;&lt;b&gt;BlastP hit with ctg121_47&lt;/b&gt;&lt;br&gt;Percentage identity: 91&lt;br&gt;Percentage coverage: 100&lt;br&gt;BLAST bit score: 414&lt;br&gt;E-value: 2.78e-151" locus_tag="b1227" class="clusterblast-orf" id="dummy-1_h1_1_0"  />
</g>
<g id="a1_001"  >
<polygon points="218,85 223,80 235,80 235,90 223,90 218,85 " style="fill:#77d815; stroke-width:1; stroke:black; " description="&lt;b&gt;b1226&lt;/b&gt;&lt;br&gt;nitrate reductase 1 molybdenum cofactor assembly chaperone&lt;br&gt;Location: 15612 - 14901&lt;br&gt;&lt;br&gt;&lt;b&gt;BlastP hit with ctg121_48&lt;/b&gt;&lt;br&gt;Percentage identity: 86&lt;br&gt;Percentage coverage: 100&lt;br&gt;BLAST bit score: 400&lt;br&gt;E-value: 1.97e-145" locus_tag="b1226" class="clusterblast-orf" id="dummy-1_h1_1_1"  />
</g>
<g id="a1_002"  >
<polygon points="234,85 239,80 270,80 270,90 239,90 234,85 " style="fill:#15d8d8; stroke-width:1; stroke:black; " description="&lt;b&gt;b1225&lt;/b&gt;&lt;br&gt;nitrate reductase A subunit beta&lt;br&gt;Location: 14905 - 13366&lt;br&gt;&lt;br&gt;&lt;b&gt;BlastP hit with ctg121_49&lt;/b&gt;&lt;br&gt;Percentage identity: 93&lt;br&gt;Percentage coverage: 100&lt;br&gt;BLAST bit score: 996&lt;br&gt;E-value: 0.0" locus_tag="b1225" class="clusterblast-orf" id="dummy-1_h1_1_2"  />
</g>
<g id="a1_003"  >
<polygon points="270,85 275,80 356,80 356,90 275,90 270,85 " style="fill:#7715d8; stroke-width:1; stroke:black; " description="&lt;b&gt;b1224&lt;/b&gt;&lt;br&gt;nitrate reductase A subunit alpha&lt;br&gt;Location: 13370 - 9626&lt;br&gt;&lt;br&gt;&lt;b&gt;BlastP hit with ctg121_50&lt;/b&gt;&lt;br&gt;Percentage identity: 94&lt;br&gt;Percentage coverage: 100&lt;br&gt;BLAST bit score: 2472&lt;br&gt;E-value: 0.0" locus_tag="b1224" class="clusterblast-orf" id="dummy-1_h1_1_3"  />
</g>
<g id="a1_004"  >
<polygon points="574,90 576,85 574,80 574,90 " style="fill:white; stroke-width:1; stroke:black; " description="&lt;b&gt;b4423&lt;/b&gt;&lt;br&gt;small toxic polypeptide LdrC&lt;br&gt;Location: 108 - 0" locus_tag="b4423" class="clusterblast-orf" id="dummy-1_h1_1_4"  />
</g>
</svg>
