<svg xmlns="http://www.w3.org/2000/svg" xmlns:xlink="http://www.w3.org/1999/xlink" version="1.1" x="0" y="0" height="230" width="800" viewBox="0 0 800 230" preserveAspectRatio="none"  >
<g label="Query sequence" class="clusterblast-cluster"  >
<text x="5" y="20" class="clusterblast-acc"  >
Query sequence</text>
<line x1="10" y1="35" x2="778.0" y2="35" style="stroke-width:1; stroke:grey; "  />
<polygon points="0,40 40,40 45,35 40,30 0,30 0,40 " style="fill:white; stroke-width:1; stroke:black; " description="&lt;b&gt;ctg56_20&lt;/b&gt;&lt;br&gt;ctg56 20&lt;br&gt;Location: 22500 - 23892" locus_tag="ctg56_20" class="clusterblast-orf" id="dummy-1_q0_0_all"  />
<polygon points="55,40 97,40 102,35 97,30 55,30 55,40 " style="fill:white; stroke-width:1; stroke:black; " description="&lt;b&gt;ctg56_21&lt;/b&gt;&lt;br&gt;ctg56 21&lt;br&gt;Location: 24178 - 25618" locus_tag="ctg56_21" class="clusterblast-orf" id="dummy-1_q1_0_all"  />
<polygon points="102,40 127,40 132,35 127,30 102,30 102,40 " style="fill:white; stroke-width:1; stroke:black; " description="&lt;b&gt;ctg56_22&lt;/b&gt;&lt;br&gt;ctg56 22&lt;br&gt;Location: 25611 - 26541" locus_tag="ctg56_22" class="clusterblast-orf" id="dummy-1_q2_0_all"  />
<polygon points="132,40 154,40 159,35 154,30 132,30 132,40 " style="fill:white; stroke-width:1; stroke:black; " description="&lt;b&gt;ctg56_23&lt;/b&gt;&lt;br&gt;ctg56 23&lt;br&gt;Location: 26537 - 27353" locus_tag="ctg56_23" class="clusterblast-orf" id="dummy-1_q3_0_all"  />
<polygon points="159,40 179,40 184,35 179,30 159,30 159,40 " style="fill:white; stroke-width:1; stroke:black; " description="&lt;b&gt;ctg56_24&lt;/b&gt;&lt;br&gt;ctg56 24&lt;br&gt;Location: 27369 - 28116" locus_tag="ctg56_24" class="clusterblast-orf" id="dummy-1_q4_0_all"  />
<polygon points="197,40 225,40 230,35 225,30 197,30 197,40 " style="fill:white; stroke-width:1; stroke:black; " description="&lt;b&gt;ctg56_25&lt;/b&gt;&lt;br&gt;ctg56 25&lt;br&gt;Location: 28527 - 29541" locus_tag="ctg56_25" class="clusterblast-orf" id="dummy-1_q5_0_all"  />
<polygon points="230,40 251,40 256,35 251,30 230,30 230,40 " style="fill:white; stroke-width:1; stroke:black; " description="&lt;b&gt;ctg56_26&lt;/b&gt;&lt;br&gt;ctg56 26&lt;br&gt;Location: 29533 - 30334" locus_tag="ctg56_26" class="clusterblast-orf" id="dummy-1_q6_0_all"  />
<polygon points="257,35 261,30 261,40 257,35 " style="fill:white; stroke-width:1; stroke:black; " description="&lt;b&gt;ctg56_27&lt;/b&gt;&lt;br&gt;ctg56 27&lt;br&gt;Location: 30371 - 30494" locus_tag="ctg56_27" class="clusterblast-orf" id="dummy-1_q7_0_all"  />
<polygon points="282,40 307,40 312,35 307,30 282,30 282,40 " style="fill:#d81515; stroke-width:1; stroke:black; " description="&lt;b&gt;ctg56_28&lt;/b&gt;&lt;br&gt;ctg56 28&lt;br&gt;Location: 31111 - 32053" locus_tag="ctg56_28" class="clusterblast-orf" id="dummy-1_q8_0_all"  />
<polygon points="320,40 343,40 348,35 343,30 320,30 320,40 " style="fill:#15d863; stroke-width:1; stroke:black; " description="&lt;b&gt;ctg56_29&lt;/b&gt;&lt;br&gt;ctg56 29&lt;br&gt;Location: 32296 - 33136" locus_tag="ctg56_29" class="clusterblast-orf" id="dummy-1_q9_0_all"  />
<polygon points="349,40 387,40 392,35 387,30 349,30 349,40 " style="fill:#1563d8; stroke-width:1; stroke:black; " description="&lt;b&gt;ctg56_30&lt;/b&gt;&lt;br&gt;ctg56 30&lt;br&gt;Location: 33161 - 34493" locus_tag="ctg56_30" class="clusterblast-orf" id="dummy-1_q10_0_all"  />
<polygon points="393,40 428,40 433,35 428,30 393,30 393,40 " style="fill:#b115d8; stroke-width:1; stroke:black; " description="&lt;b&gt;ctg56_31&lt;/b&gt;&lt;br&gt;ctg56 31&lt;br&gt;Location: 34520 - 35729" locus_tag="ctg56_31" class="clusterblast-orf" id="dummy-1_q11_0_all"  />
<polygon points="434,40 504,40 509,35 504,30 434,30 434,40 " style="fill:#b1d815; stroke-width:1; stroke:black; " description="&lt;b&gt;ctg56_32&lt;/b&gt;&lt;br&gt;ctg56 32&lt;br&gt;Location: 35751 - 38052" locus_tag="ctg56_32" class="clusterblast-orf" id="dummy-1_q12_0_all"  />
<polygon points="523,40 554,40 559,35 554,30 523,30 523,40 " style="fill:white; stroke-width:1; stroke:black; " description="&lt;b&gt;ctg56_33&lt;/b&gt;&lt;br&gt;ctg56 33&lt;br&gt;Location: 38482 - 39598" locus_tag="ctg56_33" class="clusterblast-orf" id="dummy-1_q13_0_all"  />
<polygon points="563,40 588,40 593,35 588,30 563,30 563,40 " style="fill:white; stroke-width:1; stroke:black; " description="&lt;b&gt;ctg56_34&lt;/b&gt;&lt;br&gt;ctg56 34&lt;br&gt;Location: 39707 - 40622" locus_tag="ctg56_34" class="clusterblast-orf" id="dummy-1_q14_0_all"  />
<polygon points="593,40 630,40 635,35 630,30 593,30 593,40 " style="fill:white; stroke-width:1; stroke:black; " description="&lt;b&gt;ctg56_35&lt;/b&gt;&lt;br&gt;ctg56 35&lt;br&gt;Location: 40631 - 41918" locus_tag="ctg56_35" class="clusterblast-orf" id="dummy-1_q15_0_all"  />
<polygon points="635,40 659,40 664,35 659,30 635,30 635,40 " style="fill:white; stroke-width:1; stroke:black; " description="&lt;b&gt;ctg56_36&lt;/b&gt;&lt;br&gt;ctg56 36&lt;br&gt;Location: 41914 - 42790" locus_tag="ctg56_36" class="clusterblast-orf" id="dummy-1_q16_0_all"  />
<polygon points="664,40 682,40 687,35 682,30 664,30 664,40 " style="fill:white; stroke-width:1; stroke:black; " description="&lt;b&gt;ctg56_37&lt;/b&gt;&lt;br&gt;ctg56 37&lt;br&gt;Location: 42786 - 43506" locus_tag="ctg56_37" class="clusterblast-orf" id="dummy-1_q17_0_all"  />
<polygon points="687,35 692,30 717,30 717,40 692,40 687,35 " style="fill:white; stroke-width:1; stroke:black; " description="&lt;b&gt;ctg56_38&lt;/b&gt;&lt;br&gt;ctg56 38&lt;br&gt;Location: 43511 - 44405" locus_tag="ctg56_38" class="clusterblast-orf" id="dummy-1_q18_0_all"  />
<polygon points="726,40 775,40 780,35 775,30 726,30 726,40 " style="fill:white; stroke-width:1; stroke:black; " description="&lt;b&gt;ctg56_39&lt;/b&gt;&lt;br&gt;ctg56 39&lt;br&gt;Location: 44688 - 46332" locus_tag="ctg56_39" class="clusterblast-orf" id="dummy-1_q19_0_all"  />
</g>
<g label="MGC00000030" description="MGC00000030_c1: Threonine to propionate E. coli (50% of genes show similarity), PROP" class="clusterblast-cluster"  >
<text x="5" y="70" class="clusterblast-acc"  >
MGC00000030_c1: Threonine to propionate E. coli (50% of genes show similarity), PROP</text>
<line x1="10" y1="85" x2="778.0" y2="85" style="stroke-width:1; stroke:grey; "  />
</g>
<g id="a1_000"  >
<polygon points="198,90 223,90 228,85 223,80 198,80 198,90 " style="fill:#d81515; stroke-width:1; stroke:black; " description="&lt;b&gt;L960_3799&lt;/b&gt;&lt;br&gt;DNA-binding transcriptional activator TdcA&lt;br&gt;Location: 10000 - 10939&lt;br&gt;&lt;br&gt;&lt;b&gt;BlastP hit with ctg56_28&lt;/b&gt;&lt;br&gt;Percentage identity: 76&lt;br&gt;Percentage coverage: 99&lt;br&gt;BLAST bit score: 468&lt;br&gt;E-value: 1.42e-169" locus_tag="L960_3799" class="clusterblast-orf" id="dummy-1_h1_1_0"  />
</g>
<g id="a1_001"  >
<polygon points="232,90 237,90 242,85 237,80 232,80 232,90 " style="fill:white; stroke-width:1; stroke:black; " description="&lt;b&gt;L960_3800&lt;/b&gt;&lt;br&gt;threonine ammonia-lyase&lt;br&gt;Location: 11037 - 11343" locus_tag="L960_3800" class="clusterblast-orf" id="dummy-1_h1_1_1"  />
</g>
<g id="a1_002"  >
<polygon points="241,90 259,90 264,85 259,80 241,80 241,90 " style="fill:#15d863; stroke-width:1; stroke:black; " description="&lt;b&gt;L960_3801&lt;/b&gt;&lt;br&gt;tdcB&lt;br&gt;Location: 11323 - 12028&lt;br&gt;&lt;br&gt;&lt;b&gt;BlastP hit with ctg56_29&lt;/b&gt;&lt;br&gt;Percentage identity: 90&lt;br&gt;Percentage coverage: 84&lt;br&gt;BLAST bit score: 424&lt;br&gt;E-value: 2.54e-154" locus_tag="L960_3801" class="clusterblast-orf" id="dummy-1_h1_1_2"  />
</g>
<g id="a1_003"  >
<polygon points="265,90 303,90 308,85 303,80 265,80 265,90 " style="fill:#1563d8; stroke-width:1; stroke:black; " description="&lt;b&gt;L960_3802&lt;/b&gt;&lt;br&gt;threonine/serine transporter TdcC&lt;br&gt;Location: 12049 - 13381&lt;br&gt;&lt;br&gt;&lt;b&gt;BlastP hit with ctg56_30&lt;/b&gt;&lt;br&gt;Percentage identity: 91&lt;br&gt;Percentage coverage: 100&lt;br&gt;BLAST bit score: 788&lt;br&gt;E-value: 6.02e-292" locus_tag="L960_3802" class="clusterblast-orf" id="dummy-1_h1_1_3"  />
</g>
<g id="a1_004"  >
<polygon points="309,90 344,90 349,85 344,80 309,80 309,90 " style="fill:#b115d8; stroke-width:1; stroke:black; " description="&lt;b&gt;L960_3803&lt;/b&gt;&lt;br&gt;propionate/acetate kinase&lt;br&gt;Location: 13406 - 14615&lt;br&gt;&lt;br&gt;&lt;b&gt;BlastP hit with ctg56_31&lt;/b&gt;&lt;br&gt;Percentage identity: 76&lt;br&gt;Percentage coverage: 100&lt;br&gt;BLAST bit score: 601&lt;br&gt;E-value: 2.63e-219" locus_tag="L960_3803" class="clusterblast-orf" id="dummy-1_h1_1_4"  />
</g>
<g id="a1_005"  >
<polygon points="350,90 420,90 425,85 420,80 350,80 350,90 " style="fill:#b1d815; stroke-width:1; stroke:black; " description="&lt;b&gt;L960_3804&lt;/b&gt;&lt;br&gt;pyruvate formate-lyase 4/2-ketobutyrate formate-lyase&lt;br&gt;Location: 14648 - 16943&lt;br&gt;&lt;br&gt;&lt;b&gt;BlastP hit with ctg56_32&lt;/b&gt;&lt;br&gt;Percentage identity: 88&lt;br&gt;Percentage coverage: 100&lt;br&gt;BLAST bit score: 1358&lt;br&gt;E-value: 0.0" locus_tag="L960_3804" class="clusterblast-orf" id="dummy-1_h1_1_5"  />
</g>
<g id="a1_006"  >
<polygon points="425,90 433,90 438,85 433,80 425,80 425,90 " style="fill:white; stroke-width:1; stroke:black; " description="&lt;b&gt;L960_3805&lt;/b&gt;&lt;br&gt;hypothetical protein&lt;br&gt;Location: 16956 - 17346" locus_tag="L960_3805" class="clusterblast-orf" id="dummy-1_h1_1_6"  />
</g>
<g id="a1_007"  >
<polygon points="443,90 480,90 485,85 480,80 443,80 443,90 " style="fill:white; stroke-width:1; stroke:black; " description="&lt;b&gt;L960_3806&lt;/b&gt;&lt;br&gt;L-serine dehydratase 3&lt;br&gt;Location: 17483 - 18782" locus_tag="L960_3806" class="clusterblast-orf" id="dummy-1_h1_1_7"  />
</g>
<g id="a1_008"  >
<polygon points="494,90 533,90 538,85 533,80 494,80 494,90 " style="fill:white; stroke-width:1; stroke:black; " description="&lt;b&gt;L960_3807&lt;/b&gt;&lt;br&gt;serine transporter family protein&lt;br&gt;Location: 19056 - 20388" locus_tag="L960_3807" class="clusterblast-orf" id="dummy-1_h1_1_8"  />
</g>
<g id="a1_009"  >
<polygon points="538,90 576,90 581,85 576,80 538,80 538,90 " style="fill:white; stroke-width:1; stroke:black; " description="&lt;b&gt;L960_3808&lt;/b&gt;&lt;br&gt;hypothetical protein&lt;br&gt;Location: 20415 - 21726" locus_tag="L960_3808" class="clusterblast-orf" id="dummy-1_h1_1_9"  />
</g>
</svg>
