<svg xmlns="http://www.w3.org/2000/svg" xmlns:xlink="http://www.w3.org/1999/xlink" version="1.1" x="0" y="0" height="200" width="800" viewBox="0 0 800 200" preserveAspectRatio="none"  >
<g label="Query sequence" class="clusterblast-cluster"  >
<text x="5" y="20" class="clusterblast-acc"  >
Query sequence</text>
<line x1="10" y1="35" x2="778.0" y2="35" style="stroke-width:1; stroke:grey; "  />
<polygon points="0,40 42,40 47,35 42,30 0,30 0,40 " style="fill:white; stroke-width:1; stroke:black; " description="&lt;b&gt;ctg146_13&lt;/b&gt;&lt;br&gt;ctg146 13&lt;br&gt;Location: 13923 - 15906" locus_tag="ctg146_13" class="clusterblast-orf" id="knownclusterblast-1_q0_0_all"  />
<polygon points="49,40 58,40 63,35 58,30 49,30 49,40 " style="fill:white; stroke-width:1; stroke:black; " description="&lt;b&gt;ctg146_14&lt;/b&gt;&lt;br&gt;ctg146 14&lt;br&gt;Location: 15964 - 16561" locus_tag="ctg146_14" class="clusterblast-orf" id="knownclusterblast-1_q1_0_all"  />
<polygon points="64,40 84,40 89,35 84,30 64,30 64,40 " style="fill:white; stroke-width:1; stroke:black; " description="&lt;b&gt;ctg146_15&lt;/b&gt;&lt;br&gt;ctg146 15&lt;br&gt;Location: 16624 - 17671" locus_tag="ctg146_15" class="clusterblast-orf" id="knownclusterblast-1_q2_0_all"  />
<polygon points="89,35 94,30 137,30 137,40 94,40 89,35 " style="fill:white; stroke-width:1; stroke:black; " description="&lt;b&gt;ctg146_16&lt;/b&gt;&lt;br&gt;ctg146 16&lt;br&gt;Location: 17660 - 19655" locus_tag="ctg146_16" class="clusterblast-orf" id="knownclusterblast-1_q3_0_all"  />
<polygon points="137,35 142,30 160,30 160,40 142,40 137,35 " style="fill:white; stroke-width:1; stroke:black; " description="&lt;b&gt;ctg146_17&lt;/b&gt;&lt;br&gt;ctg146 17&lt;br&gt;Location: 19671 - 20628" locus_tag="ctg146_17" class="clusterblast-orf" id="knownclusterblast-1_q4_0_all"  />
<polygon points="167,40 217,40 222,35 217,30 167,30 167,40 " style="fill:#d81515; stroke-width:1; stroke:black; " description="&lt;b&gt;ctg146_18&lt;/b&gt;&lt;br&gt;ctg146 18&lt;br&gt;Location: 20922 - 23202" locus_tag="ctg146_18" class="clusterblast-orf" id="knownclusterblast-1_q5_0_all"  />
<polygon points="230,40 233,40 238,35 233,30 230,30 230,40 " style="fill:#77d815; stroke-width:1; stroke:black; " description="&lt;b&gt;ctg146_19&lt;/b&gt;&lt;br&gt;ctg146 19&lt;br&gt;Location: 23532 - 23868" locus_tag="ctg146_19" class="clusterblast-orf" id="knownclusterblast-1_q6_0_all"  />
<polygon points="238,40 244,40 249,35 244,30 238,30 238,40 " style="fill:#15d8d8; stroke-width:1; stroke:black; " description="&lt;b&gt;ctg146_20&lt;/b&gt;&lt;br&gt;ctg146 20&lt;br&gt;Location: 23880 - 24360" locus_tag="ctg146_20" class="clusterblast-orf" id="knownclusterblast-1_q7_0_all"  />
<polygon points="249,40 260,40 265,35 260,30 249,30 249,40 " style="fill:#7715d8; stroke-width:1; stroke:black; " description="&lt;b&gt;ctg146_21&lt;/b&gt;&lt;br&gt;ctg146 21&lt;br&gt;Location: 24337 - 25027" locus_tag="ctg146_21" class="clusterblast-orf" id="knownclusterblast-1_q8_0_all"  />
<polygon points="265,40 280,40 285,35 280,30 265,30 265,40 " style="fill:#d85e15; stroke-width:1; stroke:black; " description="&lt;b&gt;ctg146_22&lt;/b&gt;&lt;br&gt;ctg146 22&lt;br&gt;Location: 25023 - 25830" locus_tag="ctg146_22" class="clusterblast-orf" id="knownclusterblast-1_q9_0_all"  />
<polygon points="284,40 304,40 309,35 304,30 284,30 284,40 " style="fill:#d81515; stroke-width:1; stroke:black; " description="&lt;b&gt;ctg146_23&lt;/b&gt;&lt;br&gt;ctg146 23&lt;br&gt;Location: 25819 - 26836" locus_tag="ctg146_23" class="clusterblast-orf" id="knownclusterblast-1_q10_0_all"  />
<polygon points="310,40 312,40 317,35 312,30 310,30 310,40 " style="fill:#2ed815; stroke-width:1; stroke:black; " description="&lt;b&gt;ctg146_24&lt;/b&gt;&lt;br&gt;ctg146 24&lt;br&gt;Location: 26874 - 27165" locus_tag="ctg146_24" class="clusterblast-orf" id="knownclusterblast-1_q11_0_all"  />
<polygon points="320,40 321,40 326,35 321,30 320,30 320,40 " style="fill:#158fd8; stroke-width:1; stroke:black; " description="&lt;b&gt;ctg146_25&lt;/b&gt;&lt;br&gt;ctg146 25&lt;br&gt;Location: 27293 - 27581" locus_tag="ctg146_25" class="clusterblast-orf" id="knownclusterblast-1_q12_0_all"  />
<polygon points="327,40 355,40 360,35 355,30 327,30 327,40 " style="fill:#c015d8; stroke-width:1; stroke:black; " description="&lt;b&gt;ctg146_26&lt;/b&gt;&lt;br&gt;ctg146 26&lt;br&gt;Location: 27592 - 28996" locus_tag="ctg146_26" class="clusterblast-orf" id="knownclusterblast-1_q13_0_all"  />
<polygon points="361,40 376,40 381,35 376,30 361,30 361,40 " style="fill:#d8a715; stroke-width:1; stroke:black; " description="&lt;b&gt;ctg146_27&lt;/b&gt;&lt;br&gt;ctg146 27&lt;br&gt;Location: 29005 - 29845" locus_tag="ctg146_27" class="clusterblast-orf" id="knownclusterblast-1_q14_0_all"  />
<polygon points="380,40 404,40 409,35 404,30 380,30 380,40 " style="fill:#15d846; stroke-width:1; stroke:black; " description="&lt;b&gt;ctg146_28&lt;/b&gt;&lt;br&gt;ctg146 28&lt;br&gt;Location: 29834 - 31022" locus_tag="ctg146_28" class="clusterblast-orf" id="knownclusterblast-1_q15_0_all"  />
<polygon points="414,40 438,40 443,35 438,30 414,30 414,40 " style="fill:#1546d8; stroke-width:1; stroke:black; " description="&lt;b&gt;ctg146_29&lt;/b&gt;&lt;br&gt;ctg146 29&lt;br&gt;Location: 31221 - 32454" locus_tag="ctg146_29" class="clusterblast-orf" id="knownclusterblast-1_q16_0_all"  />
<polygon points="443,40 472,40 477,35 472,30 443,30 443,40 " style="fill:#d815a7; stroke-width:1; stroke:black; " description="&lt;b&gt;ctg146_30&lt;/b&gt;&lt;br&gt;ctg146 30&lt;br&gt;Location: 32450 - 33854" locus_tag="ctg146_30" class="clusterblast-orf" id="knownclusterblast-1_q17_0_all"  />
<polygon points="477,40 504,40 509,35 504,30 477,30 477,40 " style="fill:#c0d815; stroke-width:1; stroke:black; " description="&lt;b&gt;ctg146_31&lt;/b&gt;&lt;br&gt;ctg146 31&lt;br&gt;Location: 33865 - 35227" locus_tag="ctg146_31" class="clusterblast-orf" id="knownclusterblast-1_q18_0_all"  />
<polygon points="510,40 530,40 535,35 530,30 510,30 510,40 " style="fill:#15d88f; stroke-width:1; stroke:black; " description="&lt;b&gt;ctg146_32&lt;/b&gt;&lt;br&gt;ctg146 32&lt;br&gt;Location: 35247 - 36294" locus_tag="ctg146_32" class="clusterblast-orf" id="knownclusterblast-1_q19_0_all"  />
<polygon points="535,40 546,40 551,35 546,30 535,30 535,40 " style="fill:#2e15d8; stroke-width:1; stroke:black; " description="&lt;b&gt;ctg146_33&lt;/b&gt;&lt;br&gt;ctg146 33&lt;br&gt;Location: 36303 - 36963" locus_tag="ctg146_33" class="clusterblast-orf" id="knownclusterblast-1_q20_0_all"  />
<polygon points="551,40 558,40 563,35 558,30 551,30 551,40 " style="fill:#2ed815; stroke-width:1; stroke:black; " description="&lt;b&gt;ctg146_34&lt;/b&gt;&lt;br&gt;ctg146 34&lt;br&gt;Location: 36974 - 37460" locus_tag="ctg146_34" class="clusterblast-orf" id="knownclusterblast-1_q21_0_all"  />
<polygon points="567,40 584,40 589,35 584,30 567,30 567,40 " style="fill:#d8155e; stroke-width:1; stroke:black; " description="&lt;b&gt;ctg146_35&lt;/b&gt;&lt;br&gt;ctg146 35&lt;br&gt;Location: 37622 - 38558" locus_tag="ctg146_35" class="clusterblast-orf" id="knownclusterblast-1_q22_0_all"  />
<polygon points="590,35 595,30 612,30 612,40 595,40 590,35 " style="fill:white; stroke-width:1; stroke:black; " description="&lt;b&gt;ctg146_36&lt;/b&gt;&lt;br&gt;ctg146 36&lt;br&gt;Location: 38601 - 39501" locus_tag="ctg146_36" class="clusterblast-orf" id="knownclusterblast-1_q23_0_all"  />
<polygon points="612,35 617,30 633,30 633,40 617,40 612,35 " style="fill:white; stroke-width:1; stroke:black; " description="&lt;b&gt;ctg146_37&lt;/b&gt;&lt;br&gt;ctg146 37&lt;br&gt;Location: 39500 - 40373" locus_tag="ctg146_37" class="clusterblast-orf" id="knownclusterblast-1_q24_0_all"  />
<polygon points="638,40 643,40 648,35 643,30 638,30 638,40 " style="fill:white; stroke-width:1; stroke:black; " description="&lt;b&gt;ctg146_38&lt;/b&gt;&lt;br&gt;ctg146 38&lt;br&gt;Location: 40584 - 41010" locus_tag="ctg146_38" class="clusterblast-orf" id="knownclusterblast-1_q25_0_all"  />
<polygon points="647,40 653,40 658,35 653,30 647,30 647,40 " style="fill:white; stroke-width:1; stroke:black; " description="&lt;b&gt;ctg146_39&lt;/b&gt;&lt;br&gt;ctg146 39&lt;br&gt;Location: 40996 - 41446" locus_tag="ctg146_39" class="clusterblast-orf" id="knownclusterblast-1_q26_0_all"  />
<polygon points="660,40 668,40 673,35 668,30 660,30 660,40 " style="fill:white; stroke-width:1; stroke:black; " description="&lt;b&gt;ctg146_40&lt;/b&gt;&lt;br&gt;ctg146 40&lt;br&gt;Location: 41507 - 42083" locus_tag="ctg146_40" class="clusterblast-orf" id="knownclusterblast-1_q27_0_all"  />
<polygon points="676,40 697,40 702,35 697,30 676,30 676,40 " style="fill:white; stroke-width:1; stroke:black; " description="&lt;b&gt;ctg146_41&lt;/b&gt;&lt;br&gt;ctg146 41&lt;br&gt;Location: 42177 - 43278" locus_tag="ctg146_41" class="clusterblast-orf" id="knownclusterblast-1_q28_0_all"  />
<polygon points="715,40 734,40 739,35 734,30 715,30 715,40 " style="fill:white; stroke-width:1; stroke:black; " description="&lt;b&gt;ctg146_42&lt;/b&gt;&lt;br&gt;ctg146 42&lt;br&gt;Location: 43801 - 44818" locus_tag="ctg146_42" class="clusterblast-orf" id="knownclusterblast-1_q29_0_all"  />
<polygon points="739,40 754,40 759,35 754,30 739,30 739,40 " style="fill:white; stroke-width:1; stroke:black; " description="&lt;b&gt;ctg146_43&lt;/b&gt;&lt;br&gt;ctg146 43&lt;br&gt;Location: 44817 - 45651" locus_tag="ctg146_43" class="clusterblast-orf" id="knownclusterblast-1_q30_0_all"  />
<polygon points="759,40 775,40 780,35 775,30 759,30 759,40 " style="fill:white; stroke-width:1; stroke:black; " description="&lt;b&gt;ctg146_44&lt;/b&gt;&lt;br&gt;ctg146 44&lt;br&gt;Location: 45650 - 46526" locus_tag="ctg146_44" class="clusterblast-orf" id="knownclusterblast-1_q31_0_all"  />
</g>
<g label="MGC0000003" description="MGC0000003_c1: Ethanolamine degradation S. typhimurium (94% of genes show similarity), EUT" class="clusterblast-cluster"  >
<text x="5" y="70" class="clusterblast-acc"  >
MGC0000003_c1: Ethanolamine degradation S. typhimurium (94% of genes show similarity), EUT</text>
<line x1="10" y1="85" x2="778.0" y2="85" style="stroke-width:1; stroke:grey; "  />
</g>
<g id="a1_000"  >
<polygon points="172,90 221,90 226,85 221,80 172,80 172,90 " style="fill:#d81515; stroke-width:1; stroke:black; " description="&lt;b&gt;STM2472&lt;/b&gt;&lt;br&gt;malic enzyme&lt;br&gt;Location: 18301 - 16021&lt;br&gt;&lt;br&gt;&lt;b&gt;BlastP hit with ctg146_18&lt;/b&gt;&lt;br&gt;Percentage identity: 93&lt;br&gt;Percentage coverage: 100&lt;br&gt;BLAST bit score: 1382&lt;br&gt;E-value: 0.0&lt;br&gt;&lt;br&gt;&lt;b&gt;BlastP hit with ctg146_23&lt;/b&gt;&lt;br&gt;Percentage identity: 33&lt;br&gt;Percentage coverage: 98&lt;br&gt;BLAST bit score: 134&lt;br&gt;E-value: 1.48e-36" locus_tag="STM2472" class="clusterblast-orf" id="knownclusterblast-1_all_1_1_0"  />
</g>
<g id="a1_001"  >
<polygon points="231,90 237,90 242,85 237,80 231,80 231,90 " style="fill:white; stroke-width:1; stroke:black; " description="&lt;b&gt;STM2471&lt;/b&gt;&lt;br&gt;insertion sequence element IS200 transposase&lt;br&gt;Location: 15832 - 15373" locus_tag="STM2471" class="clusterblast-orf" id="knownclusterblast-1_all_1_1_1"  />
</g>
<g id="a1_002"  >
<polygon points="253,90 256,90 261,85 256,80 253,80 253,90 " style="fill:#77d815; stroke-width:1; stroke:black; " description="&lt;b&gt;STM2470&lt;/b&gt;&lt;br&gt;carboxysome structural protein EutS&lt;br&gt;Location: 14893 - 14557&lt;br&gt;&lt;br&gt;&lt;b&gt;BlastP hit with ctg146_19&lt;/b&gt;&lt;br&gt;Percentage identity: 93&lt;br&gt;Percentage coverage: 100&lt;br&gt;BLAST bit score: 207&lt;br&gt;E-value: 5.65e-73" locus_tag="STM2470" class="clusterblast-orf" id="knownclusterblast-1_all_1_1_2"  />
</g>
<g id="a1_003"  >
<polygon points="262,90 268,90 273,85 268,80 262,80 262,90 " style="fill:#15d8d8; stroke-width:1; stroke:black; " description="&lt;b&gt;STM2469&lt;/b&gt;&lt;br&gt;ethanolamine utilization protein EutP&lt;br&gt;Location: 14545 - 14065&lt;br&gt;&lt;br&gt;&lt;b&gt;BlastP hit with ctg146_20&lt;/b&gt;&lt;br&gt;Percentage identity: 77&lt;br&gt;Percentage coverage: 99&lt;br&gt;BLAST bit score: 249&lt;br&gt;E-value: 3.29e-88" locus_tag="STM2469" class="clusterblast-orf" id="knownclusterblast-1_all_1_1_3"  />
</g>
<g id="a1_004"  >
<polygon points="273,90 284,90 289,85 284,80 273,80 273,90 " style="fill:#7715d8; stroke-width:1; stroke:black; " description="&lt;b&gt;STM2468&lt;/b&gt;&lt;br&gt;ethanolamine utilization protein EutQ&lt;br&gt;Location: 14088 - 13398&lt;br&gt;&lt;br&gt;&lt;b&gt;BlastP hit with ctg146_21&lt;/b&gt;&lt;br&gt;Percentage identity: 87&lt;br&gt;Percentage coverage: 100&lt;br&gt;BLAST bit score: 397&lt;br&gt;E-value: 2.72e-144" locus_tag="STM2468" class="clusterblast-orf" id="knownclusterblast-1_all_1_1_4"  />
</g>
<g id="a1_005"  >
<polygon points="289,90 303,90 308,85 303,80 289,80 289,90 " style="fill:#d85e15; stroke-width:1; stroke:black; " description="&lt;b&gt;STM2467&lt;/b&gt;&lt;br&gt;cobalamin adenosyltransferase EutT&lt;br&gt;Location: 13402 - 12598&lt;br&gt;&lt;br&gt;&lt;b&gt;BlastP hit with ctg146_22&lt;/b&gt;&lt;br&gt;Percentage identity: 81&lt;br&gt;Percentage coverage: 99&lt;br&gt;BLAST bit score: 424&lt;br&gt;E-value: 5.4e-154" locus_tag="STM2467" class="clusterblast-orf" id="knownclusterblast-1_all_1_1_5"  />
</g>
<g id="a1_006"  >
<polygon points="308,90 327,90 332,85 327,80 308,80 308,90 " style="fill:#d81515; stroke-width:1; stroke:black; " description="&lt;b&gt;STM2466&lt;/b&gt;&lt;br&gt;phosphotransacetylase EutD&lt;br&gt;Location: 12602 - 11585&lt;br&gt;&lt;br&gt;&lt;b&gt;BlastP hit with ctg146_18&lt;/b&gt;&lt;br&gt;Percentage identity: 32&lt;br&gt;Percentage coverage: 43&lt;br&gt;BLAST bit score: 152&lt;br&gt;E-value: 1.24e-42&lt;br&gt;&lt;br&gt;&lt;b&gt;BlastP hit with ctg146_23&lt;/b&gt;&lt;br&gt;Percentage identity: 82&lt;br&gt;Percentage coverage: 100&lt;br&gt;BLAST bit score: 539&lt;br&gt;E-value: 6.65e-197" locus_tag="STM2466" class="clusterblast-orf" id="knownclusterblast-1_all_1_1_6"  />
</g>
<g id="a1_007"  >
<polygon points="333,90 335,90 340,85 335,80 333,80 333,90 " style="fill:#2ed815; stroke-width:1; stroke:black; " description="&lt;b&gt;STM2465&lt;/b&gt;&lt;br&gt;carboxysome structural protein EutM&lt;br&gt;Location: 11545 - 11254&lt;br&gt;&lt;br&gt;&lt;b&gt;BlastP hit with ctg146_24&lt;/b&gt;&lt;br&gt;Percentage identity: 99&lt;br&gt;Percentage coverage: 100&lt;br&gt;BLAST bit score: 174&lt;br&gt;E-value: 1.24e-60&lt;br&gt;&lt;br&gt;&lt;b&gt;BlastP hit with ctg146_34&lt;/b&gt;&lt;br&gt;Percentage identity: 47&lt;br&gt;Percentage coverage: 53&lt;br&gt;BLAST bit score: 74&lt;br&gt;E-value: 7.8e-20" locus_tag="STM2465" class="clusterblast-orf" id="knownclusterblast-1_all_1_1_7"  />
</g>
<g id="a1_008"  >
<polygon points="343,90 345,90 350,85 345,80 343,80 343,90 " style="fill:#158fd8; stroke-width:1; stroke:black; " description="&lt;b&gt;STM2464&lt;/b&gt;&lt;br&gt;microcompartment shell protein EutN&lt;br&gt;Location: 11142 - 10854&lt;br&gt;&lt;br&gt;&lt;b&gt;BlastP hit with ctg146_25&lt;/b&gt;&lt;br&gt;Percentage identity: 82&lt;br&gt;Percentage coverage: 100&lt;br&gt;BLAST bit score: 158&lt;br&gt;E-value: 2.93e-54" locus_tag="STM2464" class="clusterblast-orf" id="knownclusterblast-1_all_1_1_8"  />
</g>
<g id="a1_009"  >
<polygon points="350,90 379,90 384,85 379,80 350,80 350,90 " style="fill:#c015d8; stroke-width:1; stroke:black; " description="&lt;b&gt;STM2463&lt;/b&gt;&lt;br&gt;aldehyde oxidoreductase EutE&lt;br&gt;Location: 10843 - 9439&lt;br&gt;&lt;br&gt;&lt;b&gt;BlastP hit with ctg146_26&lt;/b&gt;&lt;br&gt;Percentage identity: 95&lt;br&gt;Percentage coverage: 100&lt;br&gt;BLAST bit score: 840&lt;br&gt;E-value: 7.4e-312" locus_tag="STM2463" class="clusterblast-orf" id="knownclusterblast-1_all_1_1_9"  />
</g>
<g id="a1_0010"  >
<polygon points="384,90 399,90 404,85 399,80 384,80 384,90 " style="fill:#d8a715; stroke-width:1; stroke:black; " description="&lt;b&gt;STM2462&lt;/b&gt;&lt;br&gt;ethanolamine utilization protein EutJ&lt;br&gt;Location: 9429 - 8589&lt;br&gt;&lt;br&gt;&lt;b&gt;BlastP hit with ctg146_27&lt;/b&gt;&lt;br&gt;Percentage identity: 91&lt;br&gt;Percentage coverage: 100&lt;br&gt;BLAST bit score: 516&lt;br&gt;E-value: 7.1e-190" locus_tag="STM2462" class="clusterblast-orf" id="knownclusterblast-1_all_1_1_10"  />
</g>
<g id="a1_0011"  >
<polygon points="404,90 427,90 432,85 427,80 404,80 404,90 " style="fill:#15d846; stroke-width:1; stroke:black; " description="&lt;b&gt;STM2461&lt;/b&gt;&lt;br&gt;ethanol dehydrogenase EutG&lt;br&gt;Location: 8600 - 7412&lt;br&gt;&lt;br&gt;&lt;b&gt;BlastP hit with ctg146_28&lt;/b&gt;&lt;br&gt;Percentage identity: 85&lt;br&gt;Percentage coverage: 100&lt;br&gt;BLAST bit score: 637&lt;br&gt;E-value: 5.35e-234" locus_tag="STM2461" class="clusterblast-orf" id="knownclusterblast-1_all_1_1_11"  />
</g>
<g id="a1_0012"  >
<polygon points="435,90 460,90 465,85 460,80 435,80 435,90 " style="fill:#1546d8; stroke-width:1; stroke:black; " description="&lt;b&gt;STM2460&lt;/b&gt;&lt;br&gt;ethanolamine transporter EutH&lt;br&gt;Location: 7293 - 6066&lt;br&gt;&lt;br&gt;&lt;b&gt;BlastP hit with ctg146_29&lt;/b&gt;&lt;br&gt;Percentage identity: 93&lt;br&gt;Percentage coverage: 100&lt;br&gt;BLAST bit score: 720&lt;br&gt;E-value: 4.01e-266" locus_tag="STM2460" class="clusterblast-orf" id="knownclusterblast-1_all_1_1_12"  />
</g>
<g id="a1_0013"  >
<polygon points="464,90 493,90 498,85 493,80 464,80 464,90 " style="fill:#d815a7; stroke-width:1; stroke:black; " description="&lt;b&gt;STM2459&lt;/b&gt;&lt;br&gt;ethanolamine utilization protein EutA&lt;br&gt;Location: 6070 - 4666&lt;br&gt;&lt;br&gt;&lt;b&gt;BlastP hit with ctg146_30&lt;/b&gt;&lt;br&gt;Percentage identity: 89&lt;br&gt;Percentage coverage: 100&lt;br&gt;BLAST bit score: 790&lt;br&gt;E-value: 9.46e-292" locus_tag="STM2459" class="clusterblast-orf" id="knownclusterblast-1_all_1_1_13"  />
</g>
<g id="a1_0014"  >
<polygon points="498,90 526,90 531,85 526,80 498,80 498,90 " style="fill:#c0d815; stroke-width:1; stroke:black; " description="&lt;b&gt;STM2458&lt;/b&gt;&lt;br&gt;ethanolamine ammonia-lyase large subunit EutB&lt;br&gt;Location: 4655 - 3293&lt;br&gt;&lt;br&gt;&lt;b&gt;BlastP hit with ctg146_31&lt;/b&gt;&lt;br&gt;Percentage identity: 97&lt;br&gt;Percentage coverage: 100&lt;br&gt;BLAST bit score: 877&lt;br&gt;E-value: 0.0" locus_tag="STM2458" class="clusterblast-orf" id="knownclusterblast-1_all_1_1_14"  />
</g>
<g id="a1_0015"  >
<polygon points="531,90 548,90 553,85 548,80 531,80 531,90 " style="fill:#15d88f; stroke-width:1; stroke:black; " description="&lt;b&gt;STM2457&lt;/b&gt;&lt;br&gt;ethanolamine ammonia-lyase small subunit EutC&lt;br&gt;Location: 3275 - 2378&lt;br&gt;&lt;br&gt;&lt;b&gt;BlastP hit with ctg146_32&lt;/b&gt;&lt;br&gt;Percentage identity: 78&lt;br&gt;Percentage coverage: 100&lt;br&gt;BLAST bit score: 492&lt;br&gt;E-value: 6.05e-179" locus_tag="STM2457" class="clusterblast-orf" id="knownclusterblast-1_all_1_1_15"  />
</g>
<g id="a1_0016"  >
<polygon points="553,90 564,90 569,85 564,80 553,80 553,90 " style="fill:#2e15d8; stroke-width:1; stroke:black; " description="&lt;b&gt;STM2456&lt;/b&gt;&lt;br&gt;carboxysome structural protein EutL&lt;br&gt;Location: 2369 - 1709&lt;br&gt;&lt;br&gt;&lt;b&gt;BlastP hit with ctg146_33&lt;/b&gt;&lt;br&gt;Percentage identity: 96&lt;br&gt;Percentage coverage: 100&lt;br&gt;BLAST bit score: 397&lt;br&gt;E-value: 8.96e-145" locus_tag="STM2456" class="clusterblast-orf" id="knownclusterblast-1_all_1_1_16"  />
</g>
<g id="a1_0017"  >
<polygon points="569,90 576,90 581,85 576,80 569,80 569,90 " style="fill:#2ed815; stroke-width:1; stroke:black; " description="&lt;b&gt;STM2455&lt;/b&gt;&lt;br&gt;carboxysome structural protein EutK&lt;br&gt;Location: 1697 - 1202&lt;br&gt;&lt;br&gt;&lt;b&gt;BlastP hit with ctg146_24&lt;/b&gt;&lt;br&gt;Percentage identity: 48&lt;br&gt;Percentage coverage: 86&lt;br&gt;BLAST bit score: 73&lt;br&gt;E-value: 1.39e-19&lt;br&gt;&lt;br&gt;&lt;b&gt;BlastP hit with ctg146_34&lt;/b&gt;&lt;br&gt;Percentage identity: 82&lt;br&gt;Percentage coverage: 102&lt;br&gt;BLAST bit score: 235&lt;br&gt;E-value: 1.29e-82" locus_tag="STM2455" class="clusterblast-orf" id="knownclusterblast-1_all_1_1_17"  />
</g>
<g id="a1_0018"  >
<polygon points="582,90 602,90 607,85 602,80 582,80 582,90 " style="fill:#d8155e; stroke-width:1; stroke:black; " description="&lt;b&gt;STM2454&lt;/b&gt;&lt;br&gt;HTH-type transcriptional regulator EutR&lt;br&gt;Location: 1155 - 102&lt;br&gt;&lt;br&gt;&lt;b&gt;BlastP hit with ctg146_35&lt;/b&gt;&lt;br&gt;Percentage identity: 88&lt;br&gt;Percentage coverage: 100&lt;br&gt;BLAST bit score: 564&lt;br&gt;E-value: 3.12e-207" locus_tag="STM2454" class="clusterblast-orf" id="knownclusterblast-1_all_1_1_18"  />
</g>
<g label="MGC00000010" description="MGC00000010_c1: Propanediol degradation S. enterica (25% of genes show similarity), PDU" class="clusterblast-cluster"  >
<text x="5" y="120" class="clusterblast-acc"  >
MGC00000010_c1: Propanediol degradation S. enterica (25% of genes show similarity), PDU</text>
<line x1="10" y1="135" x2="778.0" y2="135" style="stroke-width:1; stroke:grey; "  />
</g>
<g id="a1_000"  >
<polygon points="157,135 162,130 179,130 179,140 162,140 157,135 " style="fill:white; stroke-width:1; stroke:black; " description="&lt;b&gt;STM2036&lt;/b&gt;&lt;br&gt;transcriptional regulator PocR&lt;br&gt;Location: 221 - 1133" locus_tag="STM2036" class="clusterblast-orf" id="knownclusterblast-1_all_1_2_0"  />
</g>
<g id="a1_001"  >
<polygon points="184,135 189,130 203,130 203,140 189,140 184,135 " style="fill:white; stroke-width:1; stroke:black; " description="&lt;b&gt;STM2037&lt;/b&gt;&lt;br&gt;propanediol diffusion facilitator&lt;br&gt;Location: 1349 - 2144" locus_tag="STM2037" class="clusterblast-orf" id="knownclusterblast-1_all_1_2_1"  />
</g>
<g id="a1_002"  >
<polygon points="216,140 218,140 223,135 218,130 216,130 216,140 " style="fill:#2ed815; stroke-width:1; stroke:black; " description="&lt;b&gt;STM2038&lt;/b&gt;&lt;br&gt;propanediol utilization polyhedral body protein PduA&lt;br&gt;Location: 2668 - 2953&lt;br&gt;&lt;br&gt;&lt;b&gt;BlastP hit with ctg146_24&lt;/b&gt;&lt;br&gt;Percentage identity: 69&lt;br&gt;Percentage coverage: 90&lt;br&gt;BLAST bit score: 112&lt;br&gt;E-value: 4.08e-36&lt;br&gt;&lt;br&gt;&lt;b&gt;BlastP hit with ctg146_34&lt;/b&gt;&lt;br&gt;Percentage identity: 47&lt;br&gt;Percentage coverage: 53&lt;br&gt;BLAST bit score: 76&lt;br&gt;E-value: 9.36e-21" locus_tag="STM2038" class="clusterblast-orf" id="knownclusterblast-1_all_1_2_2"  />
</g>
<g id="a1_003"  >
<polygon points="222,140 237,140 242,135 237,130 222,130 222,140 " style="fill:white; stroke-width:1; stroke:black; " description="&lt;b&gt;STM2039&lt;/b&gt;&lt;br&gt;propanediol utilization polyhedral body protein PduB&lt;br&gt;Location: 2949 - 3762" locus_tag="STM2039" class="clusterblast-orf" id="knownclusterblast-1_all_1_2_3"  />
</g>
<g id="a1_004"  >
<polygon points="242,140 277,140 282,135 277,130 242,130 242,140 " style="fill:white; stroke-width:1; stroke:black; " description="&lt;b&gt;STM2040&lt;/b&gt;&lt;br&gt;propanediol dehydratase large subunit&lt;br&gt;Location: 3780 - 5445" locus_tag="STM2040" class="clusterblast-orf" id="knownclusterblast-1_all_1_2_4"  />
</g>
<g id="a1_005"  >
<polygon points="282,140 294,140 299,135 294,130 282,130 282,140 " style="fill:white; stroke-width:1; stroke:black; " description="&lt;b&gt;STM2041&lt;/b&gt;&lt;br&gt;propanediol dehydratase medium subunit&lt;br&gt;Location: 5455 - 6130" locus_tag="STM2041" class="clusterblast-orf" id="knownclusterblast-1_all_1_2_5"  />
</g>
<g id="a1_006"  >
<polygon points="299,140 306,140 311,135 306,130 299,130 299,140 " style="fill:white; stroke-width:1; stroke:black; " description="&lt;b&gt;STM2042&lt;/b&gt;&lt;br&gt;propanediol dehydratase small subunit&lt;br&gt;Location: 6144 - 6666" locus_tag="STM2042" class="clusterblast-orf" id="knownclusterblast-1_all_1_2_6"  />
</g>
<g id="a1_007"  >
<polygon points="312,140 350,140 355,135 350,130 312,130 312,140 " style="fill:white; stroke-width:1; stroke:black; " description="&lt;b&gt;STM2043&lt;/b&gt;&lt;br&gt;propanediol dehydratase reactivation protein&lt;br&gt;Location: 6675 - 8508" locus_tag="STM2043" class="clusterblast-orf" id="knownclusterblast-1_all_1_2_7"  />
</g>
<g id="a1_008"  >
<polygon points="355,140 359,140 364,135 359,130 355,130 355,140 " style="fill:white; stroke-width:1; stroke:black; " description="&lt;b&gt;STM2044&lt;/b&gt;&lt;br&gt;propanediol dehydratase reactivation protein&lt;br&gt;Location: 8497 - 8848" locus_tag="STM2044" class="clusterblast-orf" id="knownclusterblast-1_all_1_2_8"  />
</g>
<g id="a1_009"  >
<polygon points="364,140 366,140 371,135 366,130 364,130 364,140 " style="fill:#2ed815; stroke-width:1; stroke:black; " description="&lt;b&gt;STM2045&lt;/b&gt;&lt;br&gt;propanediol utilization polyhedral body protein PduJ&lt;br&gt;Location: 8866 - 9142&lt;br&gt;&lt;br&gt;&lt;b&gt;BlastP hit with ctg146_24&lt;/b&gt;&lt;br&gt;Percentage identity: 66&lt;br&gt;Percentage coverage: 91&lt;br&gt;BLAST bit score: 107&lt;br&gt;E-value: 7.19e-34&lt;br&gt;&lt;br&gt;&lt;b&gt;BlastP hit with ctg146_34&lt;/b&gt;&lt;br&gt;Percentage identity: 48&lt;br&gt;Percentage coverage: 54&lt;br&gt;BLAST bit score: 77&lt;br&gt;E-value: 6.12e-21" locus_tag="STM2045" class="clusterblast-orf" id="knownclusterblast-1_all_1_2_9"  />
</g>
<g id="a1_0010"  >
<polygon points="371,140 377,140 382,135 377,130 371,130 371,140 " style="fill:white; stroke-width:1; stroke:black; " description="&lt;b&gt;STM2046&lt;/b&gt;&lt;br&gt;propanediol utilization polyhedral body protein PduK&lt;br&gt;Location: 9166 - 9628" locus_tag="STM2046" class="clusterblast-orf" id="knownclusterblast-1_all_1_2_10"  />
</g>
<g id="a1_0011"  >
<polygon points="382,140 392,140 397,135 392,130 382,130 382,140 " style="fill:white; stroke-width:1; stroke:black; " description="&lt;b&gt;STM2047&lt;/b&gt;&lt;br&gt;phosphate propanoyltransferase&lt;br&gt;Location: 9627 - 10260" locus_tag="STM2047" class="clusterblast-orf" id="knownclusterblast-1_all_1_2_11"  />
</g>
<g id="a1_0012"  >
<polygon points="397,140 404,140 409,135 404,130 397,130 397,140 " style="fill:white; stroke-width:1; stroke:black; " description="&lt;b&gt;STM2048&lt;/b&gt;&lt;br&gt;propanediol utilization protein PduM&lt;br&gt;Location: 10256 - 10748" locus_tag="STM2048" class="clusterblast-orf" id="knownclusterblast-1_all_1_2_12"  />
</g>
<g id="a1_0013"  >
<polygon points="409,140 411,140 416,135 411,130 409,130 409,140 " style="fill:#158fd8; stroke-width:1; stroke:black; " description="&lt;b&gt;STM2049&lt;/b&gt;&lt;br&gt;propanediol utilization polyhedral body protein PduN&lt;br&gt;Location: 10751 - 11027&lt;br&gt;&lt;br&gt;&lt;b&gt;BlastP hit with ctg146_25&lt;/b&gt;&lt;br&gt;Percentage identity: 48&lt;br&gt;Percentage coverage: 92&lt;br&gt;BLAST bit score: 64&lt;br&gt;E-value: 4.99e-17" locus_tag="STM2049" class="clusterblast-orf" id="knownclusterblast-1_all_1_2_13"  />
</g>
<g id="a1_0014"  >
<polygon points="416,140 435,140 440,135 435,130 416,130 416,140 " style="fill:white; stroke-width:1; stroke:black; " description="&lt;b&gt;STM2050&lt;/b&gt;&lt;br&gt;propanediol utilization protein PduO&lt;br&gt;Location: 11036 - 12047" locus_tag="STM2050" class="clusterblast-orf" id="knownclusterblast-1_all_1_2_14"  />
</g>
<g id="a1_0015"  >
<polygon points="440,140 468,140 473,135 468,130 440,130 440,140 " style="fill:#c015d8; stroke-width:1; stroke:black; " description="&lt;b&gt;STM2051&lt;/b&gt;&lt;br&gt;CoA-dependent propionaldehyde dehydrogenase&lt;br&gt;Location: 12043 - 13438&lt;br&gt;&lt;br&gt;&lt;b&gt;BlastP hit with ctg146_26&lt;/b&gt;&lt;br&gt;Percentage identity: 45&lt;br&gt;Percentage coverage: 101&lt;br&gt;BLAST bit score: 371&lt;br&gt;E-value: 8.14e-127" locus_tag="STM2051" class="clusterblast-orf" id="knownclusterblast-1_all_1_2_15"  />
</g>
<g id="a1_0016"  >
<polygon points="474,140 495,140 500,135 495,130 474,130 474,140 " style="fill:#15d846; stroke-width:1; stroke:black; " description="&lt;b&gt;STM2052&lt;/b&gt;&lt;br&gt;propanol dehydrogenase&lt;br&gt;Location: 13449 - 14562&lt;br&gt;&lt;br&gt;&lt;b&gt;BlastP hit with ctg146_28&lt;/b&gt;&lt;br&gt;Percentage identity: 39&lt;br&gt;Percentage coverage: 97&lt;br&gt;BLAST bit score: 194&lt;br&gt;E-value: 2.43e-60" locus_tag="STM2052" class="clusterblast-orf" id="knownclusterblast-1_all_1_2_16"  />
</g>
<g id="a1_0017"  >
<polygon points="500,140 528,140 533,135 528,130 500,130 500,140 " style="fill:white; stroke-width:1; stroke:black; " description="&lt;b&gt;STM2053&lt;/b&gt;&lt;br&gt;propanediol utilization polyhedral body protein PduS&lt;br&gt;Location: 14558 - 15914" locus_tag="STM2053" class="clusterblast-orf" id="knownclusterblast-1_all_1_2_17"  />
</g>
<g id="a1_0018"  >
<polygon points="533,140 541,140 546,135 541,130 533,130 533,140 " style="fill:white; stroke-width:1; stroke:black; " description="&lt;b&gt;STM2054&lt;/b&gt;&lt;br&gt;propanediol utilization polyhedral body protein PduT&lt;br&gt;Location: 15916 - 16471" locus_tag="STM2054" class="clusterblast-orf" id="knownclusterblast-1_all_1_2_18"  />
</g>
<g id="a1_0019"  >
<polygon points="546,140 549,140 554,135 549,130 546,130 546,140 " style="fill:#77d815; stroke-width:1; stroke:black; " description="&lt;b&gt;STM2055&lt;/b&gt;&lt;br&gt;propanediol utilization polyhedral body protein PduU&lt;br&gt;Location: 16470 - 16821&lt;br&gt;&lt;br&gt;&lt;b&gt;BlastP hit with ctg146_19&lt;/b&gt;&lt;br&gt;Percentage identity: 55&lt;br&gt;Percentage coverage: 98&lt;br&gt;BLAST bit score: 122&lt;br&gt;E-value: 1.55e-39" locus_tag="STM2055" class="clusterblast-orf" id="knownclusterblast-1_all_1_2_19"  />
</g>
<g id="a1_0020"  >
<polygon points="554,140 560,140 565,135 560,130 554,130 554,140 " style="fill:white; stroke-width:1; stroke:black; " description="&lt;b&gt;STM2056&lt;/b&gt;&lt;br&gt;propanediol utilization protein PduV&lt;br&gt;Location: 16825 - 17278" locus_tag="STM2056" class="clusterblast-orf" id="knownclusterblast-1_all_1_2_20"  />
</g>
<g id="a1_0021"  >
<polygon points="565,140 589,140 594,135 589,130 565,130 565,140 " style="fill:white; stroke-width:1; stroke:black; " description="&lt;b&gt;STM2057&lt;/b&gt;&lt;br&gt;propionate kinase&lt;br&gt;Location: 17262 - 18477" locus_tag="STM2057" class="clusterblast-orf" id="knownclusterblast-1_all_1_2_21"  />
</g>
<g id="a1_0022"  >
<polygon points="595,140 612,140 617,135 612,130 595,130 595,140 " style="fill:white; stroke-width:1; stroke:black; " description="&lt;b&gt;STM2058&lt;/b&gt;&lt;br&gt;L-threonine kinase&lt;br&gt;Location: 18534 - 19437" locus_tag="STM2058" class="clusterblast-orf" id="knownclusterblast-1_all_1_2_22"  />
</g>
<g id="a1_0023"  >
<polygon points="618,135 622,130 622,140 618,135 " style="fill:white; stroke-width:1; stroke:black; " description="&lt;b&gt;STM2059&lt;/b&gt;&lt;br&gt;hypothetical protein&lt;br&gt;Location: 19470 - 19638" locus_tag="STM2059" class="clusterblast-orf" id="knownclusterblast-1_all_1_2_23"  />
</g>
<g label="MGC0000001" description="MGC0000001_c1: Trimethylamine synthesis C. sporogenes (33% of genes show similarity), TMA" class="clusterblast-cluster"  >
<text x="5" y="170" class="clusterblast-acc"  >
MGC0000001_c1: Trimethylamine synthesis C. sporogenes (33% of genes show similarity), TMA</text>
<line x1="10" y1="185" x2="778.0" y2="185" style="stroke-width:1; stroke:grey; "  />
</g>
<g id="a1_000"  >
<polygon points="321,190 321,185 321,180 321,190 " style="fill:#2ed815; stroke-width:1; stroke:black; " description="&lt;b&gt;CLOSPO_RS07620&lt;/b&gt;&lt;br&gt;hypothetical protein&lt;br&gt;Location: 0 - 4&lt;br&gt;&lt;br&gt;&lt;b&gt;BlastP hit with ctg146_24&lt;/b&gt;&lt;br&gt;Percentage identity: 55&lt;br&gt;Percentage coverage: 90&lt;br&gt;BLAST bit score: 83&lt;br&gt;E-value: 3.68e-24&lt;br&gt;&lt;br&gt;&lt;b&gt;BlastP hit with ctg146_34&lt;/b&gt;&lt;br&gt;Percentage identity: 44&lt;br&gt;Percentage coverage: 54&lt;br&gt;BLAST bit score: 66&lt;br&gt;E-value: 1.23e-16" locus_tag="CLOSPO_RS07620" class="clusterblast-orf" id="knownclusterblast-1_all_1_3_0"  />
</g>
<g id="a1_001"  >
<polygon points="322,190 353,190 358,185 353,180 322,180 322,190 " style="fill:white; stroke-width:1; stroke:black; " description="&lt;b&gt;CLOSPO_RS07625&lt;/b&gt;&lt;br&gt;acetaldehyde dehydrogenase&lt;br&gt;Location: 41 - 1523" locus_tag="CLOSPO_RS07625" class="clusterblast-orf" id="knownclusterblast-1_all_1_3_1"  />
</g>
<g id="a1_002"  >
<polygon points="359,190 415,190 420,185 415,180 359,180 359,190 " style="fill:white; stroke-width:1; stroke:black; " description="&lt;b&gt;CLOSPO_RS07630&lt;/b&gt;&lt;br&gt;choline trimethylamine-lyase&lt;br&gt;Location: 1572 - 4113" locus_tag="CLOSPO_RS07630" class="clusterblast-orf" id="knownclusterblast-1_all_1_3_2"  />
</g>
<g id="a1_003"  >
<polygon points="424,190 442,190 447,185 442,180 424,180 424,190 " style="fill:white; stroke-width:1; stroke:black; " description="&lt;b&gt;CLOSPO_RS07635&lt;/b&gt;&lt;br&gt;choline TMA-lyase-activating enzyme&lt;br&gt;Location: 4294 - 5248" locus_tag="CLOSPO_RS07635" class="clusterblast-orf" id="knownclusterblast-1_all_1_3_3"  />
</g>
<g id="a1_004"  >
<polygon points="448,190 451,190 456,185 451,180 448,180 448,190 " style="fill:#77d815; stroke-width:1; stroke:black; " description="&lt;b&gt;CLOSPO_RS07640&lt;/b&gt;&lt;br&gt;propanediol utilization protein PduU&lt;br&gt;Location: 5287 - 5641&lt;br&gt;&lt;br&gt;&lt;b&gt;BlastP hit with ctg146_19&lt;/b&gt;&lt;br&gt;Percentage identity: 51&lt;br&gt;Percentage coverage: 97&lt;br&gt;BLAST bit score: 114&lt;br&gt;E-value: 3.52e-36" locus_tag="CLOSPO_RS07640" class="clusterblast-orf" id="knownclusterblast-1_all_1_3_4"  />
</g>
<g id="a1_005"  >
<polygon points="456,190 458,185 456,180 456,190 " style="fill:white; stroke-width:1; stroke:black; " description="&lt;b&gt;CLOSPO_RS07645&lt;/b&gt;&lt;br&gt;hypothetical protein&lt;br&gt;Location: 5637 - 5704" locus_tag="CLOSPO_RS07645" class="clusterblast-orf" id="knownclusterblast-1_all_1_3_5"  />
</g>
</svg>
