<svg xmlns="http://www.w3.org/2000/svg" xmlns:xlink="http://www.w3.org/1999/xlink" version="1.1" x="0" y="0" height="230" width="800" viewBox="0 0 800 230" preserveAspectRatio="none"  >
<g label="Query sequence" class="clusterblast-cluster"  >
<text x="5" y="20" class="clusterblast-acc"  >
Query sequence</text>
<line x1="10" y1="35" x2="778.0" y2="35" style="stroke-width:1; stroke:grey; "  />
<polygon points="0,40 2,35 0,30 0,40 " style="fill:white; stroke-width:1; stroke:black; " description="&lt;b&gt;ctg147_1&lt;/b&gt;&lt;br&gt;ctg147 1&lt;br&gt;Location: 2 - 137" locus_tag="ctg147_1" class="clusterblast-orf" id="dummy-1_q0_0_all"  />
<polygon points="8,40 10,40 15,35 10,30 8,30 8,40 " style="fill:white; stroke-width:1; stroke:black; " description="&lt;b&gt;ctg147_2&lt;/b&gt;&lt;br&gt;ctg147 2&lt;br&gt;Location: 426 - 777" locus_tag="ctg147_2" class="clusterblast-orf" id="dummy-1_q1_0_all"  />
<polygon points="16,35 21,30 37,30 37,40 21,40 16,35 " style="fill:white; stroke-width:1; stroke:black; " description="&lt;b&gt;ctg147_3&lt;/b&gt;&lt;br&gt;ctg147 3&lt;br&gt;Location: 817 - 1942" locus_tag="ctg147_3" class="clusterblast-orf" id="dummy-1_q2_0_all"  />
<polygon points="37,35 42,30 91,30 91,40 42,40 37,35 " style="fill:white; stroke-width:1; stroke:black; " description="&lt;b&gt;ctg147_4&lt;/b&gt;&lt;br&gt;ctg147 4&lt;br&gt;Location: 1941 - 4686" locus_tag="ctg147_4" class="clusterblast-orf" id="dummy-1_q3_0_all"  />
<polygon points="90,35 95,30 114,30 114,40 95,40 90,35 " style="fill:white; stroke-width:1; stroke:black; " description="&lt;b&gt;ctg147_5&lt;/b&gt;&lt;br&gt;ctg147 5&lt;br&gt;Location: 4682 - 5897" locus_tag="ctg147_5" class="clusterblast-orf" id="dummy-1_q4_0_all"  />
<polygon points="120,35 125,30 140,30 140,40 125,40 120,35 " style="fill:white; stroke-width:1; stroke:black; " description="&lt;b&gt;ctg147_6&lt;/b&gt;&lt;br&gt;ctg147 6&lt;br&gt;Location: 6203 - 7211" locus_tag="ctg147_6" class="clusterblast-orf" id="dummy-1_q5_0_all"  />
<polygon points="143,35 148,30 150,30 150,40 148,40 143,35 " style="fill:white; stroke-width:1; stroke:black; " description="&lt;b&gt;ctg147_7&lt;/b&gt;&lt;br&gt;ctg147 7&lt;br&gt;Location: 7411 - 7741" locus_tag="ctg147_7" class="clusterblast-orf" id="dummy-1_q6_0_all"  />
<polygon points="150,35 155,30 158,30 158,40 155,40 150,35 " style="fill:white; stroke-width:1; stroke:black; " description="&lt;b&gt;ctg147_8&lt;/b&gt;&lt;br&gt;ctg147 8&lt;br&gt;Location: 7758 - 8172" locus_tag="ctg147_8" class="clusterblast-orf" id="dummy-1_q7_0_all"  />
<polygon points="159,35 164,30 172,30 172,40 164,40 159,35 " style="fill:white; stroke-width:1; stroke:black; " description="&lt;b&gt;ctg147_9&lt;/b&gt;&lt;br&gt;ctg147 9&lt;br&gt;Location: 8203 - 8872" locus_tag="ctg147_9" class="clusterblast-orf" id="dummy-1_q8_0_all"  />
<polygon points="172,35 177,30 184,30 184,40 177,40 172,35 " style="fill:#d81515; stroke-width:1; stroke:black; " description="&lt;b&gt;ctg147_10&lt;/b&gt;&lt;br&gt;ctg147 10&lt;br&gt;Location: 8884 - 9505" locus_tag="ctg147_10" class="clusterblast-orf" id="dummy-1_q9_0_all"  />
<polygon points="184,35 189,30 192,30 192,40 189,40 184,35 " style="fill:#15d815; stroke-width:1; stroke:black; " description="&lt;b&gt;ctg147_11&lt;/b&gt;&lt;br&gt;ctg147 11&lt;br&gt;Location: 9501 - 9900" locus_tag="ctg147_11" class="clusterblast-orf" id="dummy-1_q10_0_all"  />
<polygon points="192,35 197,30 214,30 214,40 197,40 192,35 " style="fill:#1515d8; stroke-width:1; stroke:black; " description="&lt;b&gt;ctg147_12&lt;/b&gt;&lt;br&gt;ctg147 12&lt;br&gt;Location: 9912 - 11034" locus_tag="ctg147_12" class="clusterblast-orf" id="dummy-1_q11_0_all"  />
<polygon points="214,35 219,30 280,30 280,40 219,40 214,35 " style="fill:#d815d8; stroke-width:1; stroke:black; " description="&lt;b&gt;ctg147_13&lt;/b&gt;&lt;br&gt;ctg147 13&lt;br&gt;Location: 11064 - 14451" locus_tag="ctg147_13" class="clusterblast-orf" id="dummy-1_q12_0_all"  />
<polygon points="283,35 288,30 305,30 305,40 288,40 283,35 " style="fill:#d8d815; stroke-width:1; stroke:black; " description="&lt;b&gt;ctg147_14&lt;/b&gt;&lt;br&gt;ctg147 14&lt;br&gt;Location: 14582 - 15764" locus_tag="ctg147_14" class="clusterblast-orf" id="dummy-1_q13_0_all"  />
<polygon points="306,35 311,30 311,30 311,40 311,40 306,35 " style="fill:white; stroke-width:1; stroke:black; " description="&lt;b&gt;ctg147_15&lt;/b&gt;&lt;br&gt;ctg147 15&lt;br&gt;Location: 15772 - 16039" locus_tag="ctg147_15" class="clusterblast-orf" id="dummy-1_q14_0_all"  />
<polygon points="311,35 316,30 342,30 342,40 316,40 311,35 " style="fill:#15d8d8; stroke-width:1; stroke:black; " description="&lt;b&gt;ctg147_16&lt;/b&gt;&lt;br&gt;ctg147 16&lt;br&gt;Location: 16064 - 17666" locus_tag="ctg147_16" class="clusterblast-orf" id="dummy-1_q15_0_all"  />
<polygon points="343,35 348,30 349,30 349,40 348,40 343,35 " style="fill:#15d815; stroke-width:1; stroke:black; " description="&lt;b&gt;ctg147_17&lt;/b&gt;&lt;br&gt;ctg147 17&lt;br&gt;Location: 17719 - 17998" locus_tag="ctg147_17" class="clusterblast-orf" id="dummy-1_q16_0_all"  />
<polygon points="349,35 354,30 355,30 355,40 354,40 349,35 " style="fill:#15d815; stroke-width:1; stroke:black; " description="&lt;b&gt;ctg147_18&lt;/b&gt;&lt;br&gt;ctg147 18&lt;br&gt;Location: 18010 - 18295" locus_tag="ctg147_18" class="clusterblast-orf" id="dummy-1_q17_0_all"  />
<polygon points="356,35 361,30 361,30 361,40 361,40 356,35 " style="fill:#15d815; stroke-width:1; stroke:black; " description="&lt;b&gt;ctg147_19&lt;/b&gt;&lt;br&gt;ctg147 19&lt;br&gt;Location: 18377 - 18626" locus_tag="ctg147_19" class="clusterblast-orf" id="dummy-1_q18_0_all"  />
<polygon points="370,35 375,30 380,30 380,40 375,40 370,35 " style="fill:white; stroke-width:1; stroke:black; " description="&lt;b&gt;ctg147_20&lt;/b&gt;&lt;br&gt;ctg147 20&lt;br&gt;Location: 19072 - 19591" locus_tag="ctg147_20" class="clusterblast-orf" id="dummy-1_q19_0_all"  />
<polygon points="380,35 385,30 395,30 395,40 385,40 380,35 " style="fill:white; stroke-width:1; stroke:black; " description="&lt;b&gt;ctg147_21&lt;/b&gt;&lt;br&gt;ctg147 21&lt;br&gt;Location: 19587 - 20391" locus_tag="ctg147_21" class="clusterblast-orf" id="dummy-1_q20_0_all"  />
<polygon points="396,35 401,30 407,30 407,40 401,40 396,35 " style="fill:white; stroke-width:1; stroke:black; " description="&lt;b&gt;ctg147_22&lt;/b&gt;&lt;br&gt;ctg147 22&lt;br&gt;Location: 20412 - 20997" locus_tag="ctg147_22" class="clusterblast-orf" id="dummy-1_q21_0_all"  />
<polygon points="410,35 415,30 425,30 425,40 415,40 410,35 " style="fill:white; stroke-width:1; stroke:black; " description="&lt;b&gt;ctg147_23&lt;/b&gt;&lt;br&gt;ctg147 23&lt;br&gt;Location: 21138 - 21921" locus_tag="ctg147_23" class="clusterblast-orf" id="dummy-1_q22_0_all"  />
<polygon points="427,40 441,40 446,35 441,30 427,30 427,40 " style="fill:white; stroke-width:1; stroke:black; " description="&lt;b&gt;ctg147_24&lt;/b&gt;&lt;br&gt;ctg147 24&lt;br&gt;Location: 22007 - 23000" locus_tag="ctg147_24" class="clusterblast-orf" id="dummy-1_q23_0_all"  />
<polygon points="446,40 449,40 454,35 449,30 446,30 446,40 " style="fill:white; stroke-width:1; stroke:black; " description="&lt;b&gt;ctg147_25&lt;/b&gt;&lt;br&gt;ctg147 25&lt;br&gt;Location: 22993 - 23413" locus_tag="ctg147_25" class="clusterblast-orf" id="dummy-1_q24_0_all"  />
<polygon points="455,35 460,30 483,30 483,40 460,40 455,35 " style="fill:white; stroke-width:1; stroke:black; " description="&lt;b&gt;ctg147_26&lt;/b&gt;&lt;br&gt;ctg147 26&lt;br&gt;Location: 23484 - 24897" locus_tag="ctg147_26" class="clusterblast-orf" id="dummy-1_q25_0_all"  />
<polygon points="486,40 489,35 486,30 486,40 " style="fill:white; stroke-width:1; stroke:black; " description="&lt;b&gt;ctg147_27&lt;/b&gt;&lt;br&gt;ctg147 27&lt;br&gt;Location: 25074 - 25239" locus_tag="ctg147_27" class="clusterblast-orf" id="dummy-1_q26_0_all"  />
<polygon points="492,40 497,40 502,35 497,30 492,30 492,40 " style="fill:white; stroke-width:1; stroke:black; " description="&lt;b&gt;ctg147_28&lt;/b&gt;&lt;br&gt;ctg147 28&lt;br&gt;Location: 25403 - 25868" locus_tag="ctg147_28" class="clusterblast-orf" id="dummy-1_q27_0_all"  />
<polygon points="502,40 517,40 522,35 517,30 502,30 502,40 " style="fill:white; stroke-width:1; stroke:black; " description="&lt;b&gt;ctg147_29&lt;/b&gt;&lt;br&gt;ctg147 29&lt;br&gt;Location: 25874 - 26942" locus_tag="ctg147_29" class="clusterblast-orf" id="dummy-1_q28_0_all"  />
<polygon points="522,40 538,40 543,35 538,30 522,30 522,40 " style="fill:white; stroke-width:1; stroke:black; " description="&lt;b&gt;ctg147_30&lt;/b&gt;&lt;br&gt;ctg147 30&lt;br&gt;Location: 26931 - 27996" locus_tag="ctg147_30" class="clusterblast-orf" id="dummy-1_q29_0_all"  />
<polygon points="543,35 548,30 548,30 548,40 548,40 543,35 " style="fill:white; stroke-width:1; stroke:black; " description="&lt;b&gt;ctg147_31&lt;/b&gt;&lt;br&gt;ctg147 31&lt;br&gt;Location: 27992 - 28247" locus_tag="ctg147_31" class="clusterblast-orf" id="dummy-1_q30_0_all"  />
<polygon points="548,35 553,30 561,30 561,40 553,40 548,35 " style="fill:white; stroke-width:1; stroke:black; " description="&lt;b&gt;ctg147_32&lt;/b&gt;&lt;br&gt;ctg147 32&lt;br&gt;Location: 28243 - 28939" locus_tag="ctg147_32" class="clusterblast-orf" id="dummy-1_q31_0_all"  />
<polygon points="564,35 569,30 587,30 587,40 569,40 564,35 " style="fill:white; stroke-width:1; stroke:black; " description="&lt;b&gt;ctg147_33&lt;/b&gt;&lt;br&gt;ctg147 33&lt;br&gt;Location: 29112 - 30264" locus_tag="ctg147_33" class="clusterblast-orf" id="dummy-1_q32_0_all"  />
<polygon points="589,35 593,30 593,40 589,35 " style="fill:white; stroke-width:1; stroke:black; " description="&lt;b&gt;ctg147_34&lt;/b&gt;&lt;br&gt;ctg147 34&lt;br&gt;Location: 30361 - 30601" locus_tag="ctg147_34" class="clusterblast-orf" id="dummy-1_q33_0_all"  />
<polygon points="594,35 599,30 618,30 618,40 599,40 594,35 " style="fill:white; stroke-width:1; stroke:black; " description="&lt;b&gt;ctg147_35&lt;/b&gt;&lt;br&gt;ctg147 35&lt;br&gt;Location: 30626 - 31868" locus_tag="ctg147_35" class="clusterblast-orf" id="dummy-1_q34_0_all"  />
<polygon points="619,35 624,30 644,30 644,40 624,40 619,35 " style="fill:white; stroke-width:1; stroke:black; " description="&lt;b&gt;ctg147_36&lt;/b&gt;&lt;br&gt;ctg147 36&lt;br&gt;Location: 31921 - 33214" locus_tag="ctg147_36" class="clusterblast-orf" id="dummy-1_q35_0_all"  />
<polygon points="644,35 649,30 657,30 657,40 649,40 644,35 " style="fill:white; stroke-width:1; stroke:black; " description="&lt;b&gt;ctg147_37&lt;/b&gt;&lt;br&gt;ctg147 37&lt;br&gt;Location: 33206 - 33869" locus_tag="ctg147_37" class="clusterblast-orf" id="dummy-1_q36_0_all"  />
<polygon points="658,35 663,30 673,30 673,40 663,40 658,35 " style="fill:white; stroke-width:1; stroke:black; " description="&lt;b&gt;ctg147_38&lt;/b&gt;&lt;br&gt;ctg147 38&lt;br&gt;Location: 33916 - 34732" locus_tag="ctg147_38" class="clusterblast-orf" id="dummy-1_q37_0_all"  />
<polygon points="678,40 691,40 696,35 691,30 678,30 678,40 " style="fill:white; stroke-width:1; stroke:black; " description="&lt;b&gt;ctg147_39&lt;/b&gt;&lt;br&gt;ctg147 39&lt;br&gt;Location: 34947 - 35874" locus_tag="ctg147_39" class="clusterblast-orf" id="dummy-1_q38_0_all"  />
<polygon points="699,35 704,30 736,30 736,40 704,40 699,35 " style="fill:white; stroke-width:1; stroke:black; " description="&lt;b&gt;ctg147_40&lt;/b&gt;&lt;br&gt;ctg147 40&lt;br&gt;Location: 36054 - 37962" locus_tag="ctg147_40" class="clusterblast-orf" id="dummy-1_q39_0_all"  />
<polygon points="736,35 741,30 761,30 761,40 741,40 736,35 " style="fill:white; stroke-width:1; stroke:black; " description="&lt;b&gt;ctg147_41&lt;/b&gt;&lt;br&gt;ctg147 41&lt;br&gt;Location: 37974 - 39219" locus_tag="ctg147_41" class="clusterblast-orf" id="dummy-1_q40_0_all"  />
<polygon points="761,35 766,30 780,30 780,40 766,40 761,35 " style="fill:white; stroke-width:1; stroke:black; " description="&lt;b&gt;ctg147_42&lt;/b&gt;&lt;br&gt;ctg147 42&lt;br&gt;Location: 39220 - 40207" locus_tag="ctg147_42" class="clusterblast-orf" id="dummy-1_q41_0_all"  />
</g>
<g label="MGC00000039" description="MGC00000039_c1: Hydroxy-L-proline2proline C. difficile (66% of genes show similarity), PRO" class="clusterblast-cluster"  >
<text x="5" y="70" class="clusterblast-acc"  >
MGC00000039_c1: Hydroxy-L-proline2proline C. difficile (66% of genes show similarity), PRO</text>
<line x1="10" y1="85" x2="778.0" y2="85" style="stroke-width:1; stroke:grey; "  />
</g>
<g id="a1_000"  >
<polygon points="347,85 352,80 362,80 362,90 352,90 347,85 " style="fill:white; stroke-width:1; stroke:black; " description="&lt;b&gt;ctg22_33&lt;/b&gt;&lt;br&gt;NA&lt;br&gt;Location: 14411 - 13607" locus_tag="ctg22_33" class="clusterblast-orf" id="dummy-1_h1_4_0"  />
</g>
<g id="a1_001"  >
<polygon points="369,85 374,80 415,80 415,90 374,90 369,85 " style="fill:#d815d8; stroke-width:1; stroke:black; " description="&lt;b&gt;ctg22_32&lt;/b&gt;&lt;br&gt;NA&lt;br&gt;Location: 13283 - 10913&lt;br&gt;&lt;br&gt;&lt;b&gt;BlastP hit with ctg147_13&lt;/b&gt;&lt;br&gt;Percentage identity: 34&lt;br&gt;Percentage coverage: 71&lt;br&gt;BLAST bit score: 390&lt;br&gt;E-value: 1.03e-122" locus_tag="ctg22_32" class="clusterblast-orf" id="dummy-1_h1_4_1"  />
</g>
<g id="a1_002"  >
<polygon points="415,85 420,80 432,80 432,90 420,90 415,85 " style="fill:#1515d8; stroke-width:1; stroke:black; " description="&lt;b&gt;ctg22_31&lt;/b&gt;&lt;br&gt;NA&lt;br&gt;Location: 10909 - 10000&lt;br&gt;&lt;br&gt;&lt;b&gt;BlastP hit with ctg147_12&lt;/b&gt;&lt;br&gt;Percentage identity: 34&lt;br&gt;Percentage coverage: 82&lt;br&gt;BLAST bit score: 192&lt;br&gt;E-value: 1.15e-60" locus_tag="ctg22_31" class="clusterblast-orf" id="dummy-1_h1_4_2"  />
</g>
</svg>
