<svg xmlns="http://www.w3.org/2000/svg" xmlns:xlink="http://www.w3.org/1999/xlink" version="1.1" x="0" y="0" height="100" width="800" viewBox="0 0 800 100" preserveAspectRatio="none"  >
<g label="Query sequence" class="clusterblast-cluster"  >
<text x="5" y="20" class="clusterblast-acc"  >
Query sequence</text>
<line x1="10" y1="35" x2="778.0" y2="35" style="stroke-width:1; stroke:grey; "  />
<polygon points="0,35 2,30 2,40 0,35 " style="fill:white; stroke-width:1; stroke:black; " description="&lt;b&gt;ctg33_1&lt;/b&gt;&lt;br&gt;ctg33 1&lt;br&gt;Location: 0 - 84" locus_tag="ctg33_1" class="clusterblast-orf" id="knownclusterblast-1_q0_0_all"  />
<polygon points="9,40 24,40 29,35 24,30 9,30 9,40 " style="fill:white; stroke-width:1; stroke:black; " description="&lt;b&gt;ctg33_2&lt;/b&gt;&lt;br&gt;ctg33 2&lt;br&gt;Location: 362 - 1121" locus_tag="ctg33_2" class="clusterblast-orf" id="knownclusterblast-1_q1_0_all"  />
<polygon points="39,40 68,40 73,35 68,30 39,30 39,40 " style="fill:white; stroke-width:1; stroke:black; " description="&lt;b&gt;ctg33_3&lt;/b&gt;&lt;br&gt;ctg33 3&lt;br&gt;Location: 1498 - 2767" locus_tag="ctg33_3" class="clusterblast-orf" id="knownclusterblast-1_q2_0_all"  />
<polygon points="77,35 82,30 120,30 120,40 82,40 77,35 " style="fill:white; stroke-width:1; stroke:black; " description="&lt;b&gt;ctg33_4&lt;/b&gt;&lt;br&gt;ctg33 4&lt;br&gt;Location: 2903 - 4544" locus_tag="ctg33_4" class="clusterblast-orf" id="knownclusterblast-1_q3_0_all"  />
<polygon points="120,35 125,30 159,30 159,40 125,40 120,35 " style="fill:white; stroke-width:1; stroke:black; " description="&lt;b&gt;ctg33_5&lt;/b&gt;&lt;br&gt;ctg33 5&lt;br&gt;Location: 4557 - 6027" locus_tag="ctg33_5" class="clusterblast-orf" id="knownclusterblast-1_q4_0_all"  />
<polygon points="160,35 165,30 180,30 180,40 165,40 160,35 " style="fill:white; stroke-width:1; stroke:black; " description="&lt;b&gt;ctg33_6&lt;/b&gt;&lt;br&gt;ctg33 6&lt;br&gt;Location: 6042 - 6810" locus_tag="ctg33_6" class="clusterblast-orf" id="knownclusterblast-1_q5_0_all"  />
<polygon points="180,35 185,30 201,30 201,40 185,40 180,35 " style="fill:white; stroke-width:1; stroke:black; " description="&lt;b&gt;ctg33_7&lt;/b&gt;&lt;br&gt;ctg33 7&lt;br&gt;Location: 6816 - 7611" locus_tag="ctg33_7" class="clusterblast-orf" id="knownclusterblast-1_q6_0_all"  />
<polygon points="201,35 206,30 221,30 221,40 206,40 201,35 " style="fill:white; stroke-width:1; stroke:black; " description="&lt;b&gt;ctg33_8&lt;/b&gt;&lt;br&gt;ctg33 8&lt;br&gt;Location: 7594 - 8368" locus_tag="ctg33_8" class="clusterblast-orf" id="knownclusterblast-1_q7_0_all"  />
<polygon points="222,35 227,30 234,30 234,40 227,40 222,35 " style="fill:white; stroke-width:1; stroke:black; " description="&lt;b&gt;ctg33_9&lt;/b&gt;&lt;br&gt;ctg33 9&lt;br&gt;Location: 8374 - 8851" locus_tag="ctg33_9" class="clusterblast-orf" id="knownclusterblast-1_q8_0_all"  />
<polygon points="236,35 241,30 269,30 269,40 241,40 236,35 " style="fill:white; stroke-width:1; stroke:black; " description="&lt;b&gt;ctg33_10&lt;/b&gt;&lt;br&gt;ctg33 10&lt;br&gt;Location: 8915 - 10172" locus_tag="ctg33_10" class="clusterblast-orf" id="knownclusterblast-1_q9_0_all"  />
<polygon points="270,35 275,30 302,30 302,40 275,40 270,35 " style="fill:white; stroke-width:1; stroke:black; " description="&lt;b&gt;ctg33_11&lt;/b&gt;&lt;br&gt;ctg33 11&lt;br&gt;Location: 10198 - 11395" locus_tag="ctg33_11" class="clusterblast-orf" id="knownclusterblast-1_q10_0_all"  />
<polygon points="301,35 306,30 326,30 326,40 306,40 301,35 " style="fill:white; stroke-width:1; stroke:black; " description="&lt;b&gt;ctg33_12&lt;/b&gt;&lt;br&gt;ctg33 12&lt;br&gt;Location: 11391 - 12318" locus_tag="ctg33_12" class="clusterblast-orf" id="knownclusterblast-1_q11_0_all"  />
<polygon points="328,35 333,30 349,30 349,40 333,40 328,35 " style="fill:white; stroke-width:1; stroke:black; " description="&lt;b&gt;ctg33_13&lt;/b&gt;&lt;br&gt;ctg33 13&lt;br&gt;Location: 12406 - 13195" locus_tag="ctg33_13" class="clusterblast-orf" id="knownclusterblast-1_q12_0_all"  />
<polygon points="350,35 355,30 369,30 369,40 355,40 350,35 " style="fill:white; stroke-width:1; stroke:black; " description="&lt;b&gt;ctg33_14&lt;/b&gt;&lt;br&gt;ctg33 14&lt;br&gt;Location: 13208 - 13958" locus_tag="ctg33_14" class="clusterblast-orf" id="knownclusterblast-1_q13_0_all"  />
<polygon points="369,35 374,30 396,30 396,40 374,40 369,35 " style="fill:white; stroke-width:1; stroke:black; " description="&lt;b&gt;ctg33_15&lt;/b&gt;&lt;br&gt;ctg33 15&lt;br&gt;Location: 13957 - 14980" locus_tag="ctg33_15" class="clusterblast-orf" id="knownclusterblast-1_q14_0_all"  />
<polygon points="397,35 402,30 405,30 405,40 402,40 397,35 " style="fill:white; stroke-width:1; stroke:black; " description="&lt;b&gt;ctg33_16&lt;/b&gt;&lt;br&gt;ctg33 16&lt;br&gt;Location: 14990 - 15299" locus_tag="ctg33_16" class="clusterblast-orf" id="knownclusterblast-1_q15_0_all"  />
<polygon points="405,35 410,30 413,30 413,40 410,40 405,35 " style="fill:white; stroke-width:1; stroke:black; " description="&lt;b&gt;ctg33_17&lt;/b&gt;&lt;br&gt;ctg33 17&lt;br&gt;Location: 15295 - 15619" locus_tag="ctg33_17" class="clusterblast-orf" id="knownclusterblast-1_q16_0_all"  />
<polygon points="425,40 452,40 457,35 452,30 425,30 425,40 " style="fill:white; stroke-width:1; stroke:black; " description="&lt;b&gt;ctg33_18&lt;/b&gt;&lt;br&gt;ctg33 18&lt;br&gt;Location: 16046 - 17267" locus_tag="ctg33_18" class="clusterblast-orf" id="knownclusterblast-1_q17_0_all"  />
<polygon points="460,35 465,30 485,30 485,40 465,40 460,35 " style="fill:#d81515; stroke-width:1; stroke:black; " description="&lt;b&gt;ctg33_19&lt;/b&gt;&lt;br&gt;ctg33 19&lt;br&gt;Location: 17394 - 18315" locus_tag="ctg33_19" class="clusterblast-orf" id="knownclusterblast-1_q18_0_all"  />
<polygon points="491,35 496,30 543,30 543,40 496,40 491,35 " style="fill:#15d8d8; stroke-width:1; stroke:black; " description="&lt;b&gt;ctg33_20&lt;/b&gt;&lt;br&gt;ctg33 20&lt;br&gt;Location: 18548 - 20525" locus_tag="ctg33_20" class="clusterblast-orf" id="knownclusterblast-1_q19_0_all"  />
<polygon points="566,40 591,40 596,35 591,30 566,30 566,40 " style="fill:white; stroke-width:1; stroke:black; " description="&lt;b&gt;ctg33_21&lt;/b&gt;&lt;br&gt;ctg33 21&lt;br&gt;Location: 21366 - 22521" locus_tag="ctg33_21" class="clusterblast-orf" id="knownclusterblast-1_q20_0_all"  />
<polygon points="607,40 638,40 643,35 638,30 607,30 607,40 " style="fill:white; stroke-width:1; stroke:black; " description="&lt;b&gt;ctg33_22&lt;/b&gt;&lt;br&gt;ctg33 22&lt;br&gt;Location: 22940 - 24296" locus_tag="ctg33_22" class="clusterblast-orf" id="knownclusterblast-1_q21_0_all"  />
<polygon points="646,40 653,40 658,35 653,30 646,30 646,40 " style="fill:white; stroke-width:1; stroke:black; " description="&lt;b&gt;ctg33_23&lt;/b&gt;&lt;br&gt;ctg33 23&lt;br&gt;Location: 24415 - 24874" locus_tag="ctg33_23" class="clusterblast-orf" id="knownclusterblast-1_q22_0_all"  />
<polygon points="664,40 675,40 680,35 675,30 664,30 664,40 " style="fill:white; stroke-width:1; stroke:black; " description="&lt;b&gt;ctg33_24&lt;/b&gt;&lt;br&gt;ctg33 24&lt;br&gt;Location: 25079 - 25676" locus_tag="ctg33_24" class="clusterblast-orf" id="knownclusterblast-1_q23_0_all"  />
<polygon points="682,40 696,40 701,35 696,30 682,30 682,40 " style="fill:white; stroke-width:1; stroke:black; " description="&lt;b&gt;ctg33_25&lt;/b&gt;&lt;br&gt;ctg33 25&lt;br&gt;Location: 25767 - 26499" locus_tag="ctg33_25" class="clusterblast-orf" id="knownclusterblast-1_q24_0_all"  />
<polygon points="702,40 722,40 727,35 722,30 702,30 702,40 " style="fill:white; stroke-width:1; stroke:black; " description="&lt;b&gt;ctg33_26&lt;/b&gt;&lt;br&gt;ctg33 26&lt;br&gt;Location: 26519 - 27470" locus_tag="ctg33_26" class="clusterblast-orf" id="knownclusterblast-1_q25_0_all"  />
<polygon points="735,40 745,40 750,35 745,30 735,30 735,40 " style="fill:white; stroke-width:1; stroke:black; " description="&lt;b&gt;ctg33_27&lt;/b&gt;&lt;br&gt;ctg33 27&lt;br&gt;Location: 27769 - 28333" locus_tag="ctg33_27" class="clusterblast-orf" id="knownclusterblast-1_q26_0_all"  />
<polygon points="750,40 756,40 761,35 756,30 750,30 750,40 " style="fill:white; stroke-width:1; stroke:black; " description="&lt;b&gt;ctg33_28&lt;/b&gt;&lt;br&gt;ctg33 28&lt;br&gt;Location: 28332 - 28749" locus_tag="ctg33_28" class="clusterblast-orf" id="knownclusterblast-1_q27_0_all"  />
<polygon points="762,35 767,30 780,30 780,40 767,40 762,35 " style="fill:white; stroke-width:1; stroke:black; " description="&lt;b&gt;ctg33_29&lt;/b&gt;&lt;br&gt;ctg33 29&lt;br&gt;Location: 28801 - 29455" locus_tag="ctg33_29" class="clusterblast-orf" id="knownclusterblast-1_q28_0_all"  />
</g>
<g label="MGC00000052" description="MGC00000052_c1: Arginine2putrescine E. coli (50% of genes show similarity), PUTR" class="clusterblast-cluster"  >
<text x="5" y="70" class="clusterblast-acc"  >
MGC00000052_c1: Arginine2putrescine E. coli (50% of genes show similarity), PUTR</text>
<line x1="10" y1="85" x2="778.0" y2="85" style="stroke-width:1; stroke:grey; "  />
</g>
<g id="a1_000"  >
<polygon points="214,85 219,80 227,80 227,90 219,90 214,85 " style="fill:white; stroke-width:1; stroke:black; " description="&lt;b&gt;E2348C_RS17060&lt;/b&gt;&lt;br&gt;mannitol repressor&lt;br&gt;Location: 0 - 510" locus_tag="E2348C_RS17060" class="clusterblast-orf" id="knownclusterblast-1_all_1_1_0"  />
</g>
<g id="a1_001"  >
<polygon points="462,85 467,80 486,80 486,90 467,90 462,85 " style="fill:#d81515; stroke-width:1; stroke:black; " description="&lt;b&gt;E2348C_RS17100&lt;/b&gt;&lt;br&gt;agmatinase&lt;br&gt;Location: 9380 - 10301&lt;br&gt;&lt;br&gt;&lt;b&gt;BlastP hit with ctg33_19&lt;/b&gt;&lt;br&gt;Percentage identity: 98&lt;br&gt;Percentage coverage: 100&lt;br&gt;BLAST bit score: 615&lt;br&gt;E-value: 5.44e-228" locus_tag="E2348C_RS17100" class="clusterblast-orf" id="knownclusterblast-1_all_1_1_1"  />
</g>
<g id="a1_002"  >
<polygon points="490,85 495,80 509,80 509,90 495,90 490,85 " style="fill:white; stroke-width:1; stroke:black; " description="&lt;b&gt;E2348C_RS17105&lt;/b&gt;&lt;br&gt;hypothetical protein&lt;br&gt;Location: 10436 - 11168" locus_tag="E2348C_RS17105" class="clusterblast-orf" id="knownclusterblast-1_all_1_1_2"  />
</g>
<g id="a1_003"  >
<polygon points="513,85 518,80 565,80 565,90 518,90 513,85 " style="fill:#15d8d8; stroke-width:1; stroke:black; " description="&lt;b&gt;E2348C_RS17110&lt;/b&gt;&lt;br&gt;arginine decarboxylase&lt;br&gt;Location: 11313 - 13290&lt;br&gt;&lt;br&gt;&lt;b&gt;BlastP hit with ctg33_20&lt;/b&gt;&lt;br&gt;Percentage identity: 95&lt;br&gt;Percentage coverage: 100&lt;br&gt;BLAST bit score: 1254&lt;br&gt;E-value: 0.0" locus_tag="E2348C_RS17110" class="clusterblast-orf" id="knownclusterblast-1_all_1_1_3"  />
</g>
</svg>
