<svg xmlns="http://www.w3.org/2000/svg" xmlns:xlink="http://www.w3.org/1999/xlink" version="1.1" x="0" y="0" height="50" width="800" viewBox="0 0 800 50" preserveAspectRatio="none"  >
<g label="Query sequence" class="clusterblast-cluster"  >
<text x="5" y="20" class="clusterblast-acc"  >
Query sequence</text>
<line x1="10" y1="35" x2="778.0" y2="35" style="stroke-width:1; stroke:grey; "  />
<polygon points="0,40 0,40 5,35 0,30 0,30 0,40 " style="fill:white; stroke-width:1; stroke:black; " description="&lt;b&gt;ctg137_18&lt;/b&gt;&lt;br&gt;ctg137 18&lt;br&gt;Location: 17491 - 17632" locus_tag="ctg137_18" class="clusterblast-orf" id="knownclusterblast-1_q0_0_all"  />
<polygon points="9,35 14,30 20,30 20,40 14,40 9,35 " style="fill:white; stroke-width:1; stroke:black; " description="&lt;b&gt;ctg137_19&lt;/b&gt;&lt;br&gt;ctg137 19&lt;br&gt;Location: 17751 - 18081" locus_tag="ctg137_19" class="clusterblast-orf" id="knownclusterblast-1_q1_0_all"  />
<polygon points="39,35 44,30 72,30 72,40 44,40 39,35 " style="fill:white; stroke-width:1; stroke:black; " description="&lt;b&gt;ctg137_20&lt;/b&gt;&lt;br&gt;ctg137 20&lt;br&gt;Location: 18617 - 19553" locus_tag="ctg137_20" class="clusterblast-orf" id="knownclusterblast-1_q2_0_all"  />
<polygon points="81,40 128,40 133,35 128,30 81,30 81,40 " style="fill:white; stroke-width:1; stroke:black; " description="&lt;b&gt;ctg137_21&lt;/b&gt;&lt;br&gt;ctg137 21&lt;br&gt;Location: 19806 - 21315" locus_tag="ctg137_21" class="clusterblast-orf" id="knownclusterblast-1_q3_0_all"  />
<polygon points="146,35 151,30 151,30 151,40 151,40 146,35 " style="fill:white; stroke-width:1; stroke:black; " description="&lt;b&gt;ctg137_22&lt;/b&gt;&lt;br&gt;ctg137 22&lt;br&gt;Location: 21670 - 21826" locus_tag="ctg137_22" class="clusterblast-orf" id="knownclusterblast-1_q4_0_all"  />
<polygon points="156,40 162,40 167,35 162,30 156,30 156,40 " style="fill:white; stroke-width:1; stroke:black; " description="&lt;b&gt;ctg137_23&lt;/b&gt;&lt;br&gt;ctg137 23&lt;br&gt;Location: 21955 - 22261" locus_tag="ctg137_23" class="clusterblast-orf" id="knownclusterblast-1_q5_0_all"  />
<polygon points="176,40 201,40 206,35 201,30 176,30 176,40 " style="fill:white; stroke-width:1; stroke:black; " description="&lt;b&gt;ctg137_24&lt;/b&gt;&lt;br&gt;ctg137 24&lt;br&gt;Location: 22541 - 23390" locus_tag="ctg137_24" class="clusterblast-orf" id="knownclusterblast-1_q6_0_all"  />
<polygon points="208,40 228,40 233,35 228,30 208,30 208,40 " style="fill:white; stroke-width:1; stroke:black; " description="&lt;b&gt;ctg137_25&lt;/b&gt;&lt;br&gt;ctg137 25&lt;br&gt;Location: 23452 - 24175" locus_tag="ctg137_25" class="clusterblast-orf" id="knownclusterblast-1_q7_0_all"  />
<polygon points="234,35 239,30 307,30 307,40 239,40 234,35 " style="fill:white; stroke-width:1; stroke:black; " description="&lt;b&gt;ctg137_26&lt;/b&gt;&lt;br&gt;ctg137 26&lt;br&gt;Location: 24179 - 26291" locus_tag="ctg137_26" class="clusterblast-orf" id="knownclusterblast-1_q8_0_all"  />
<polygon points="308,40 313,40 318,35 313,30 308,30 308,40 " style="fill:white; stroke-width:1; stroke:black; " description="&lt;b&gt;ctg137_27&lt;/b&gt;&lt;br&gt;ctg137 27&lt;br&gt;Location: 26313 - 26595" locus_tag="ctg137_27" class="clusterblast-orf" id="knownclusterblast-1_q9_0_all"  />
<polygon points="320,40 325,40 330,35 325,30 320,30 320,40 " style="fill:white; stroke-width:1; stroke:black; " description="&lt;b&gt;ctg137_28&lt;/b&gt;&lt;br&gt;ctg137 28&lt;br&gt;Location: 26646 - 26928" locus_tag="ctg137_28" class="clusterblast-orf" id="knownclusterblast-1_q10_0_all"  />
<polygon points="337,35 342,30 392,30 392,40 342,40 337,35 " style="fill:white; stroke-width:1; stroke:black; " description="&lt;b&gt;ctg137_29&lt;/b&gt;&lt;br&gt;ctg137 29&lt;br&gt;Location: 27131 - 28727" locus_tag="ctg137_29" class="clusterblast-orf" id="knownclusterblast-1_q11_0_all"  />
<polygon points="394,40 420,40 425,35 420,30 394,30 394,40 " style="fill:white; stroke-width:1; stroke:black; " description="&lt;b&gt;ctg137_30&lt;/b&gt;&lt;br&gt;ctg137 30&lt;br&gt;Location: 28759 - 29650" locus_tag="ctg137_30" class="clusterblast-orf" id="knownclusterblast-1_q12_0_all"  />
<polygon points="425,35 430,30 477,30 477,40 430,40 425,35 " style="fill:white; stroke-width:1; stroke:black; " description="&lt;b&gt;ctg137_31&lt;/b&gt;&lt;br&gt;ctg137 31&lt;br&gt;Location: 29646 - 31134" locus_tag="ctg137_31" class="clusterblast-orf" id="knownclusterblast-1_q13_0_all"  />
<polygon points="484,35 489,30 548,30 548,40 489,40 484,35 " style="fill:white; stroke-width:1; stroke:black; " description="&lt;b&gt;ctg137_32&lt;/b&gt;&lt;br&gt;ctg137 32&lt;br&gt;Location: 31335 - 33186" locus_tag="ctg137_32" class="clusterblast-orf" id="knownclusterblast-1_q14_0_all"  />
<polygon points="550,35 555,30 583,30 583,40 555,40 550,35 " style="fill:white; stroke-width:1; stroke:black; " description="&lt;b&gt;ctg137_33&lt;/b&gt;&lt;br&gt;ctg137 33&lt;br&gt;Location: 33246 - 34176" locus_tag="ctg137_33" class="clusterblast-orf" id="knownclusterblast-1_q15_0_all"  />
<polygon points="583,35 588,30 592,30 592,40 588,40 583,35 " style="fill:white; stroke-width:1; stroke:black; " description="&lt;b&gt;ctg137_34&lt;/b&gt;&lt;br&gt;ctg137 34&lt;br&gt;Location: 34192 - 34450" locus_tag="ctg137_34" class="clusterblast-orf" id="knownclusterblast-1_q16_0_all"  />
<polygon points="592,35 597,30 633,30 633,40 597,40 592,35 " style="fill:white; stroke-width:1; stroke:black; " description="&lt;b&gt;ctg137_35&lt;/b&gt;&lt;br&gt;ctg137 35&lt;br&gt;Location: 34446 - 35607" locus_tag="ctg137_35" class="clusterblast-orf" id="knownclusterblast-1_q17_0_all"  />
<polygon points="664,35 669,30 673,30 673,40 669,40 664,35 " style="fill:white; stroke-width:1; stroke:black; " description="&lt;b&gt;ctg137_36&lt;/b&gt;&lt;br&gt;ctg137 36&lt;br&gt;Location: 36500 - 36758" locus_tag="ctg137_36" class="clusterblast-orf" id="knownclusterblast-1_q18_0_all"  />
<polygon points="683,35 688,30 697,30 697,40 688,40 683,35 " style="fill:white; stroke-width:1; stroke:black; " description="&lt;b&gt;ctg137_37&lt;/b&gt;&lt;br&gt;ctg137 37&lt;br&gt;Location: 37031 - 37430" locus_tag="ctg137_37" class="clusterblast-orf" id="knownclusterblast-1_q19_0_all"  />
<polygon points="699,35 703,30 703,40 699,35 " style="fill:white; stroke-width:1; stroke:black; " description="&lt;b&gt;ctg137_38&lt;/b&gt;&lt;br&gt;ctg137 38&lt;br&gt;Location: 37505 - 37610" locus_tag="ctg137_38" class="clusterblast-orf" id="knownclusterblast-1_q20_0_all"  />
<polygon points="728,35 733,30 740,30 740,40 733,40 728,35 " style="fill:white; stroke-width:1; stroke:black; " description="&lt;b&gt;ctg137_39&lt;/b&gt;&lt;br&gt;ctg137 39&lt;br&gt;Location: 38342 - 38681" locus_tag="ctg137_39" class="clusterblast-orf" id="knownclusterblast-1_q21_0_all"  />
<polygon points="744,40 768,40 773,35 768,30 744,30 744,40 " style="fill:white; stroke-width:1; stroke:black; " description="&lt;b&gt;ctg137_40&lt;/b&gt;&lt;br&gt;ctg137 40&lt;br&gt;Location: 38799 - 39621" locus_tag="ctg137_40" class="clusterblast-orf" id="knownclusterblast-1_q22_0_all"  />
<polygon points="773,35 778,30 780,30 780,40 778,40 773,35 " style="fill:white; stroke-width:1; stroke:black; " description="&lt;b&gt;ctg137_41&lt;/b&gt;&lt;br&gt;ctg137 41&lt;br&gt;Location: 39624 - 39813" locus_tag="ctg137_41" class="clusterblast-orf" id="knownclusterblast-1_q23_0_all"  />
</g>
</svg>
