<svg xmlns="http://www.w3.org/2000/svg" xmlns:xlink="http://www.w3.org/1999/xlink" version="1.1" x="0" y="0" height="50" width="800" viewBox="0 0 800 50" preserveAspectRatio="none"  >
<g label="Query sequence" class="clusterblast-cluster"  >
<text x="5" y="20" class="clusterblast-acc"  >
Query sequence</text>
<line x1="10" y1="35" x2="778.0" y2="35" style="stroke-width:1; stroke:grey; "  />
<polygon points="0,35 5,30 26,30 26,40 5,40 0,35 " style="fill:white; stroke-width:1; stroke:black; " description="&lt;b&gt;ctg20_1&lt;/b&gt;&lt;br&gt;ctg20 1&lt;br&gt;Location: 74 - 608" locus_tag="ctg20_1" class="clusterblast-orf" id="knownclusterblast-1_q0_0_all"  />
<polygon points="26,35 31,30 96,30 96,40 31,40 26,35 " style="fill:white; stroke-width:1; stroke:black; " description="&lt;b&gt;ctg20_2&lt;/b&gt;&lt;br&gt;ctg20 2&lt;br&gt;Location: 619 - 2071" locus_tag="ctg20_2" class="clusterblast-orf" id="knownclusterblast-1_q1_0_all"  />
<polygon points="98,35 103,30 128,30 128,40 103,40 98,35 " style="fill:white; stroke-width:1; stroke:black; " description="&lt;b&gt;ctg20_3&lt;/b&gt;&lt;br&gt;ctg20 3&lt;br&gt;Location: 2109 - 2724" locus_tag="ctg20_3" class="clusterblast-orf" id="knownclusterblast-1_q2_0_all"  />
<polygon points="128,35 133,30 192,30 192,40 133,40 128,35 " style="fill:white; stroke-width:1; stroke:black; " description="&lt;b&gt;ctg20_4&lt;/b&gt;&lt;br&gt;ctg20 4&lt;br&gt;Location: 2723 - 4055" locus_tag="ctg20_4" class="clusterblast-orf" id="knownclusterblast-1_q3_0_all"  />
<polygon points="202,40 302,40 307,35 302,30 202,30 202,40 " style="fill:white; stroke-width:1; stroke:black; " description="&lt;b&gt;ctg20_5&lt;/b&gt;&lt;br&gt;ctg20 5&lt;br&gt;Location: 4246 - 6436" locus_tag="ctg20_5" class="clusterblast-orf" id="knownclusterblast-1_q4_0_all"  />
<polygon points="308,40 359,40 364,35 359,30 308,30 308,40 " style="fill:white; stroke-width:1; stroke:black; " description="&lt;b&gt;ctg20_6&lt;/b&gt;&lt;br&gt;ctg20 6&lt;br&gt;Location: 6445 - 7609" locus_tag="ctg20_6" class="clusterblast-orf" id="knownclusterblast-1_q5_0_all"  />
<polygon points="369,35 374,30 403,30 403,40 374,40 369,35 " style="fill:white; stroke-width:1; stroke:black; " description="&lt;b&gt;ctg20_7&lt;/b&gt;&lt;br&gt;ctg20 7&lt;br&gt;Location: 7715 - 8417" locus_tag="ctg20_7" class="clusterblast-orf" id="knownclusterblast-1_q6_0_all"  />
<polygon points="405,35 410,30 477,30 477,40 410,40 405,35 " style="fill:white; stroke-width:1; stroke:black; " description="&lt;b&gt;ctg20_8&lt;/b&gt;&lt;br&gt;ctg20 8&lt;br&gt;Location: 8466 - 9942" locus_tag="ctg20_8" class="clusterblast-orf" id="knownclusterblast-1_q7_0_all"  />
<polygon points="485,40 504,40 509,35 504,30 485,30 485,40 " style="fill:white; stroke-width:1; stroke:black; " description="&lt;b&gt;ctg20_9&lt;/b&gt;&lt;br&gt;ctg20 9&lt;br&gt;Location: 10120 - 10609" locus_tag="ctg20_9" class="clusterblast-orf" id="knownclusterblast-1_q8_0_all"  />
<polygon points="509,35 514,30 558,30 558,40 514,40 509,35 " style="fill:white; stroke-width:1; stroke:black; " description="&lt;b&gt;ctg20_10&lt;/b&gt;&lt;br&gt;ctg20 10&lt;br&gt;Location: 10605 - 11622" locus_tag="ctg20_10" class="clusterblast-orf" id="knownclusterblast-1_q9_0_all"  />
<polygon points="556,35 561,30 593,30 593,40 561,40 556,35 " style="fill:white; stroke-width:1; stroke:black; " description="&lt;b&gt;ctg20_11&lt;/b&gt;&lt;br&gt;ctg20 11&lt;br&gt;Location: 11572 - 12352" locus_tag="ctg20_11" class="clusterblast-orf" id="knownclusterblast-1_q10_0_all"  />
<polygon points="593,35 598,30 619,30 619,40 598,40 593,35 " style="fill:white; stroke-width:1; stroke:black; " description="&lt;b&gt;ctg20_12&lt;/b&gt;&lt;br&gt;ctg20 12&lt;br&gt;Location: 12354 - 12891" locus_tag="ctg20_12" class="clusterblast-orf" id="knownclusterblast-1_q11_0_all"  />
<polygon points="638,35 643,30 717,30 717,40 643,40 638,35 " style="fill:white; stroke-width:1; stroke:black; " description="&lt;b&gt;ctg20_13&lt;/b&gt;&lt;br&gt;ctg20 13&lt;br&gt;Location: 13275 - 14916" locus_tag="ctg20_13" class="clusterblast-orf" id="knownclusterblast-1_q12_0_all"  />
<polygon points="717,35 722,30 746,30 746,40 722,40 717,35 " style="fill:white; stroke-width:1; stroke:black; " description="&lt;b&gt;ctg20_14&lt;/b&gt;&lt;br&gt;ctg20 14&lt;br&gt;Location: 14912 - 15518" locus_tag="ctg20_14" class="clusterblast-orf" id="knownclusterblast-1_q13_0_all"  />
<polygon points="747,35 752,30 780,30 780,40 752,40 747,35 " style="fill:white; stroke-width:1; stroke:black; " description="&lt;b&gt;ctg20_15&lt;/b&gt;&lt;br&gt;ctg20 15&lt;br&gt;Location: 15531 - 16218" locus_tag="ctg20_15" class="clusterblast-orf" id="knownclusterblast-1_q14_0_all"  />
</g>
</svg>
