<svg xmlns="http://www.w3.org/2000/svg" xmlns:xlink="http://www.w3.org/1999/xlink" version="1.1" x="0" y="0" height="200" width="800" viewBox="0 0 800 200" preserveAspectRatio="none"  >
<g label="Query sequence" class="clusterblast-cluster"  >
<text x="5" y="20" class="clusterblast-acc"  >
Query sequence</text>
<line x1="10" y1="35" x2="778.0" y2="35" style="stroke-width:1; stroke:grey; "  />
<polygon points="0,35 5,30 15,30 15,40 5,40 0,35 " style="fill:white; stroke-width:1; stroke:black; " description="&lt;b&gt;ctg147_79&lt;/b&gt;&lt;br&gt;ctg147 79&lt;br&gt;Location: 83333 - 83621" locus_tag="ctg147_79" class="clusterblast-orf" id="knownclusterblast-2_q0_0_all"  />
<polygon points="22,35 27,30 107,30 107,40 27,40 22,35 " style="fill:white; stroke-width:1; stroke:black; " description="&lt;b&gt;ctg147_80&lt;/b&gt;&lt;br&gt;ctg147 80&lt;br&gt;Location: 83772 - 85446" locus_tag="ctg147_80" class="clusterblast-orf" id="knownclusterblast-2_q1_0_all"  />
<polygon points="114,35 119,30 149,30 149,40 119,40 114,35 " style="fill:white; stroke-width:1; stroke:black; " description="&lt;b&gt;ctg147_81&lt;/b&gt;&lt;br&gt;ctg147 81&lt;br&gt;Location: 85579 - 86263" locus_tag="ctg147_81" class="clusterblast-orf" id="knownclusterblast-2_q2_0_all"  />
<polygon points="158,35 163,30 223,30 223,40 163,40 158,35 " style="fill:white; stroke-width:1; stroke:black; " description="&lt;b&gt;ctg147_82&lt;/b&gt;&lt;br&gt;ctg147 82&lt;br&gt;Location: 86437 - 87721" locus_tag="ctg147_82" class="clusterblast-orf" id="knownclusterblast-2_q3_0_all"  />
<polygon points="226,35 231,30 282,30 282,40 231,40 226,35 " style="fill:white; stroke-width:1; stroke:black; " description="&lt;b&gt;ctg147_83&lt;/b&gt;&lt;br&gt;ctg147 83&lt;br&gt;Location: 87794 - 88883" locus_tag="ctg147_83" class="clusterblast-orf" id="knownclusterblast-2_q4_0_all"  />
<polygon points="297,35 302,30 332,30 332,40 302,40 297,35 " style="fill:white; stroke-width:1; stroke:black; " description="&lt;b&gt;ctg147_84&lt;/b&gt;&lt;br&gt;ctg147 84&lt;br&gt;Location: 89177 - 89870" locus_tag="ctg147_84" class="clusterblast-orf" id="knownclusterblast-2_q5_0_all"  />
<polygon points="338,40 422,40 427,35 422,30 338,30 338,40 " style="fill:white; stroke-width:1; stroke:black; " description="&lt;b&gt;ctg147_85&lt;/b&gt;&lt;br&gt;ctg147 85&lt;br&gt;Location: 89985 - 91746" locus_tag="ctg147_85" class="clusterblast-orf" id="knownclusterblast-2_q6_0_all"  />
<polygon points="449,40 485,40 490,35 485,30 449,30 449,40 " style="fill:white; stroke-width:1; stroke:black; " description="&lt;b&gt;ctg147_86&lt;/b&gt;&lt;br&gt;ctg147 86&lt;br&gt;Location: 92173 - 92989" locus_tag="ctg147_86" class="clusterblast-orf" id="knownclusterblast-2_q7_0_all"  />
<polygon points="493,40 603,40 608,35 603,30 493,30 493,40 " style="fill:#d81515; stroke-width:1; stroke:black; " description="&lt;b&gt;ctg147_87&lt;/b&gt;&lt;br&gt;ctg147 87&lt;br&gt;Location: 93040 - 95323" locus_tag="ctg147_87" class="clusterblast-orf" id="knownclusterblast-2_q8_0_all"  />
<polygon points="618,40 651,40 656,35 651,30 618,30 618,40 " style="fill:#15d8d8; stroke-width:1; stroke:black; " description="&lt;b&gt;ctg147_88&lt;/b&gt;&lt;br&gt;ctg147 88&lt;br&gt;Location: 95514 - 96255" locus_tag="ctg147_88" class="clusterblast-orf" id="knownclusterblast-2_q9_0_all"  />
<polygon points="664,35 669,30 722,30 722,40 669,40 664,35 " style="fill:white; stroke-width:1; stroke:black; " description="&lt;b&gt;ctg147_89&lt;/b&gt;&lt;br&gt;ctg147 89&lt;br&gt;Location: 96417 - 97566" locus_tag="ctg147_89" class="clusterblast-orf" id="knownclusterblast-2_q10_0_all"  />
<polygon points="736,35 741,30 780,30 780,40 741,40 736,35 " style="fill:white; stroke-width:1; stroke:black; " description="&lt;b&gt;ctg147_90&lt;/b&gt;&lt;br&gt;ctg147 90&lt;br&gt;Location: 97840 - 98704" locus_tag="ctg147_90" class="clusterblast-orf" id="knownclusterblast-2_q11_0_all"  />
</g>
<g label="MGC00000044" description="MGC00000044_c1: Pyruvate to acetate-formate E. coli (100% of genes show similarity), PFL_acetate" class="clusterblast-cluster"  >
<text x="5" y="70" class="clusterblast-acc"  >
MGC00000044_c1: Pyruvate to acetate-formate E. coli (100% of genes show similarity), PFL_acetate</text>
<line x1="10" y1="85" x2="778.0" y2="85" style="stroke-width:1; stroke:grey; "  />
</g>
<g id="a2_000"  >
<polygon points="308,90 419,90 424,85 419,80 308,80 308,90 " style="fill:#d81515; stroke-width:1; stroke:black; " description="&lt;b&gt;b0903&lt;/b&gt;&lt;br&gt;pyruvate formate-lyase&lt;br&gt;Location: 13215 - 10932&lt;br&gt;&lt;br&gt;&lt;b&gt;BlastP hit with ctg147_87&lt;/b&gt;&lt;br&gt;Percentage identity: 96&lt;br&gt;Percentage coverage: 100&lt;br&gt;BLAST bit score: 1462&lt;br&gt;E-value: 0.0" locus_tag="b0903" class="clusterblast-orf" id="knownclusterblast-2_all_2_1_0"  />
</g>
<g id="a2_001"  >
<polygon points="433,90 466,90 471,85 466,80 433,80 433,90 " style="fill:#15d8d8; stroke-width:1; stroke:black; " description="&lt;b&gt;b0902&lt;/b&gt;&lt;br&gt;pyruvate formate-lyase activating enzyme&lt;br&gt;Location: 10741 - 10000&lt;br&gt;&lt;br&gt;&lt;b&gt;BlastP hit with ctg147_88&lt;/b&gt;&lt;br&gt;Percentage identity: 97&lt;br&gt;Percentage coverage: 100&lt;br&gt;BLAST bit score: 511&lt;br&gt;E-value: 7.55e-189" locus_tag="b0902" class="clusterblast-orf" id="knownclusterblast-2_all_2_1_1"  />
</g>
<g label="MGC00000031" description="MGC00000031_c1: Pyruvate to acetate and formate C. acetobutylicum (100% of genes show similarity), PFL_acetate" class="clusterblast-cluster"  >
<text x="5" y="120" class="clusterblast-acc"  >
MGC00000031_c1: Pyruvate to acetate and formate C. acetobutylicum (100% of genes show similarity), PFL_acetate</text>
<line x1="10" y1="135" x2="778.0" y2="135" style="stroke-width:1; stroke:grey; "  />
</g>
<g id="a2_000"  >
<polygon points="314,140 423,140 428,135 423,130 314,130 314,140 " style="fill:#d81515; stroke-width:1; stroke:black; " description="&lt;b&gt;CA_C0980&lt;/b&gt;&lt;br&gt;Pyruvate-formate lyase&lt;br&gt;Location: 10000 - 12232&lt;br&gt;&lt;br&gt;&lt;b&gt;BlastP hit with ctg147_87&lt;/b&gt;&lt;br&gt;Percentage identity: 60&lt;br&gt;Percentage coverage: 98&lt;br&gt;BLAST bit score: 895&lt;br&gt;E-value: 0.0" locus_tag="CA_C0980" class="clusterblast-orf" id="knownclusterblast-2_all_2_2_0"  />
</g>
<g id="a2_001"  >
<polygon points="428,140 459,140 464,135 459,130 428,130 428,140 " style="fill:#15d8d8; stroke-width:1; stroke:black; " description="&lt;b&gt;CA_C0981&lt;/b&gt;&lt;br&gt;Pyruvate-formate-lyase-activating enzyme&lt;br&gt;Location: 12242 - 12956&lt;br&gt;&lt;br&gt;&lt;b&gt;BlastP hit with ctg147_88&lt;/b&gt;&lt;br&gt;Percentage identity: 44&lt;br&gt;Percentage coverage: 98&lt;br&gt;BLAST bit score: 215&lt;br&gt;E-value: 2.7e-72" locus_tag="CA_C0981" class="clusterblast-orf" id="knownclusterblast-2_all_2_2_1"  />
</g>
<g label="MGC00000034" description="MGC00000034_c1: Pyruvate to acetate-formate B. thetaiotaomicron (100% of genes show similarity), PFL_acetate" class="clusterblast-cluster"  >
<text x="5" y="170" class="clusterblast-acc"  >
MGC00000034_c1: Pyruvate to acetate-formate B. thetaiotaomicron (100% of genes show similarity), PFL_acetate</text>
<line x1="10" y1="185" x2="778.0" y2="185" style="stroke-width:1; stroke:grey; "  />
</g>
<g id="a2_000"  >
<polygon points="314,190 422,190 427,185 422,180 314,180 314,190 " style="fill:#d81515; stroke-width:1; stroke:black; " description="&lt;b&gt;BT_4738&lt;/b&gt;&lt;br&gt;formate acetyltransferase&lt;br&gt;Location: 12971 - 10742&lt;br&gt;&lt;br&gt;&lt;b&gt;BlastP hit with ctg147_87&lt;/b&gt;&lt;br&gt;Percentage identity: 58&lt;br&gt;Percentage coverage: 98&lt;br&gt;BLAST bit score: 819&lt;br&gt;E-value: 4.23e-294" locus_tag="BT_4738" class="clusterblast-orf" id="knownclusterblast-2_all_2_3_0"  />
</g>
<g id="a2_001"  >
<polygon points="428,190 460,190 465,185 460,180 428,180 428,190 " style="fill:#15d8d8; stroke-width:1; stroke:black; " description="&lt;b&gt;BT_4737&lt;/b&gt;&lt;br&gt;pyruvate formate-lyase activating enzyme&lt;br&gt;Location: 10729 - 10000&lt;br&gt;&lt;br&gt;&lt;b&gt;BlastP hit with ctg147_88&lt;/b&gt;&lt;br&gt;Percentage identity: 43&lt;br&gt;Percentage coverage: 96&lt;br&gt;BLAST bit score: 208&lt;br&gt;E-value: 2.36e-69" locus_tag="BT_4737" class="clusterblast-orf" id="knownclusterblast-2_all_2_3_1"  />
</g>
</svg>
