<svg xmlns="http://www.w3.org/2000/svg" xmlns:xlink="http://www.w3.org/1999/xlink" version="1.1" x="0" y="0" height="100" width="800" viewBox="0 0 800 100" preserveAspectRatio="none"  >
<g label="Query sequence" class="clusterblast-cluster"  >
<text x="5" y="20" class="clusterblast-acc"  >
Query sequence</text>
<line x1="10" y1="35" x2="778.0" y2="35" style="stroke-width:1; stroke:grey; "  />
<polygon points="0,35 5,30 90,30 90,40 5,40 0,35 " style="fill:white; stroke-width:1; stroke:black; " description="&lt;b&gt;ctg105_1&lt;/b&gt;&lt;br&gt;ctg105 1&lt;br&gt;Location: 375 - 1758" locus_tag="ctg105_1" class="clusterblast-orf" id="knownclusterblast-1_q0_0_all"  />
<polygon points="105,35 110,30 203,30 203,40 110,40 105,35 " style="fill:#d81515; stroke-width:1; stroke:black; " description="&lt;b&gt;ctg105_2&lt;/b&gt;&lt;br&gt;ctg105 2&lt;br&gt;Location: 1985 - 3512" locus_tag="ctg105_2" class="clusterblast-orf" id="knownclusterblast-1_q1_0_all"  />
<polygon points="203,35 208,30 313,30 313,40 208,40 203,35 " style="fill:#15d863; stroke-width:1; stroke:black; " description="&lt;b&gt;ctg105_3&lt;/b&gt;&lt;br&gt;ctg105 3&lt;br&gt;Location: 3508 - 5197" locus_tag="ctg105_3" class="clusterblast-orf" id="knownclusterblast-1_q2_0_all"  />
<polygon points="322,35 327,30 369,30 369,40 327,40 322,35 " style="fill:#1563d8; stroke-width:1; stroke:black; " description="&lt;b&gt;ctg105_4&lt;/b&gt;&lt;br&gt;ctg105 4&lt;br&gt;Location: 5339 - 6065" locus_tag="ctg105_4" class="clusterblast-orf" id="knownclusterblast-1_q3_0_all"  />
<polygon points="373,35 378,30 417,30 417,40 378,40 373,35 " style="fill:#b115d8; stroke-width:1; stroke:black; " description="&lt;b&gt;ctg105_5&lt;/b&gt;&lt;br&gt;ctg105 5&lt;br&gt;Location: 6126 - 6810" locus_tag="ctg105_5" class="clusterblast-orf" id="knownclusterblast-1_q4_0_all"  />
<polygon points="418,35 423,30 442,30 442,40 423,40 418,35 " style="fill:#b115d8; stroke-width:1; stroke:black; " description="&lt;b&gt;ctg105_6&lt;/b&gt;&lt;br&gt;ctg105 6&lt;br&gt;Location: 6823 - 7198" locus_tag="ctg105_6" class="clusterblast-orf" id="knownclusterblast-1_q5_0_all"  />
<polygon points="442,35 447,30 528,30 528,40 447,40 442,35 " style="fill:#b1d815; stroke-width:1; stroke:black; " description="&lt;b&gt;ctg105_7&lt;/b&gt;&lt;br&gt;ctg105 7&lt;br&gt;Location: 7194 - 8514" locus_tag="ctg105_7" class="clusterblast-orf" id="knownclusterblast-1_q6_0_all"  />
<polygon points="538,40 616,40 621,35 616,30 538,30 538,40 " style="fill:white; stroke-width:1; stroke:black; " description="&lt;b&gt;ctg105_8&lt;/b&gt;&lt;br&gt;ctg105 8&lt;br&gt;Location: 8668 - 9952" locus_tag="ctg105_8" class="clusterblast-orf" id="knownclusterblast-1_q7_0_all"  />
<polygon points="639,35 644,30 780,30 780,40 644,40 639,35 " style="fill:white; stroke-width:1; stroke:black; " description="&lt;b&gt;ctg105_9&lt;/b&gt;&lt;br&gt;ctg105 9&lt;br&gt;Location: 10225 - 12409" locus_tag="ctg105_9" class="clusterblast-orf" id="knownclusterblast-1_q8_0_all"  />
</g>
<g label="MGC00000029" description="MGC00000029_c1: Histidine to glutamate K. pneumoniae (100% of genes show similarity), GLU" class="clusterblast-cluster"  >
<text x="5" y="70" class="clusterblast-acc"  >
MGC00000029_c1: Histidine to glutamate K. pneumoniae (100% of genes show similarity), GLU</text>
<line x1="10" y1="85" x2="778.0" y2="85" style="stroke-width:1; stroke:grey; "  />
</g>
<g id="a1_000"  >
<polygon points="185,85 190,80 284,80 284,90 190,90 185,85 " style="fill:#d81515; stroke-width:1; stroke:black; " description="&lt;b&gt;KPN_RS04290&lt;/b&gt;&lt;br&gt;histidine ammonia-lyase&lt;br&gt;Location: 16312 - 14785&lt;br&gt;&lt;br&gt;&lt;b&gt;BlastP hit with ctg105_2&lt;/b&gt;&lt;br&gt;Percentage identity: 99&lt;br&gt;Percentage coverage: 100&lt;br&gt;BLAST bit score: 964&lt;br&gt;E-value: 0.0" locus_tag="KPN_RS04290" class="clusterblast-orf" id="knownclusterblast-1_all_1_1_0"  />
</g>
<g id="a1_001"  >
<polygon points="284,85 289,80 393,80 393,90 289,90 284,85 " style="fill:#15d863; stroke-width:1; stroke:black; " description="&lt;b&gt;KPN_RS04285&lt;/b&gt;&lt;br&gt;urocanate hydratase&lt;br&gt;Location: 14789 - 13100&lt;br&gt;&lt;br&gt;&lt;b&gt;BlastP hit with ctg105_3&lt;/b&gt;&lt;br&gt;Percentage identity: 100&lt;br&gt;Percentage coverage: 100&lt;br&gt;BLAST bit score: 1135&lt;br&gt;E-value: 0.0" locus_tag="KPN_RS04285" class="clusterblast-orf" id="knownclusterblast-1_all_1_1_1"  />
</g>
<g id="a1_002"  >
<polygon points="402,85 407,80 449,80 449,90 407,90 402,85 " style="fill:#1563d8; stroke-width:1; stroke:black; " description="&lt;b&gt;KPN_RS04280&lt;/b&gt;&lt;br&gt;histidine utilization repressor&lt;br&gt;Location: 12958 - 12232&lt;br&gt;&lt;br&gt;&lt;b&gt;BlastP hit with ctg105_4&lt;/b&gt;&lt;br&gt;Percentage identity: 100&lt;br&gt;Percentage coverage: 100&lt;br&gt;BLAST bit score: 486&lt;br&gt;E-value: 2.94e-179" locus_tag="KPN_RS04280" class="clusterblast-orf" id="knownclusterblast-1_all_1_1_2"  />
</g>
<g id="a1_003"  >
<polygon points="453,85 458,80 515,80 515,90 458,90 453,85 " style="fill:#b115d8; stroke-width:1; stroke:black; " description="&lt;b&gt;KPN_RS04275&lt;/b&gt;&lt;br&gt;formimidoylglutamase&lt;br&gt;Location: 12171 - 11214&lt;br&gt;&lt;br&gt;&lt;b&gt;BlastP hit with ctg105_5&lt;/b&gt;&lt;br&gt;Percentage identity: 98&lt;br&gt;Percentage coverage: 100&lt;br&gt;BLAST bit score: 445&lt;br&gt;E-value: 3.85e-162&lt;br&gt;&lt;br&gt;&lt;b&gt;BlastP hit with ctg105_6&lt;/b&gt;&lt;br&gt;Percentage identity: 99&lt;br&gt;Percentage coverage: 56&lt;br&gt;BLAST bit score: 147&lt;br&gt;E-value: 1.34e-46" locus_tag="KPN_RS04275" class="clusterblast-orf" id="knownclusterblast-1_all_1_1_3"  />
</g>
<g id="a1_004"  >
<polygon points="515,85 520,80 594,80 594,90 520,90 515,85 " style="fill:#b1d815; stroke-width:1; stroke:black; " description="&lt;b&gt;KPN_RS04270&lt;/b&gt;&lt;br&gt;imidazolonepropionase&lt;br&gt;Location: 11218 - 10000&lt;br&gt;&lt;br&gt;&lt;b&gt;BlastP hit with ctg105_7&lt;/b&gt;&lt;br&gt;Percentage identity: 100&lt;br&gt;Percentage coverage: 92&lt;br&gt;BLAST bit score: 810&lt;br&gt;E-value: 2.52e-301" locus_tag="KPN_RS04270" class="clusterblast-orf" id="knownclusterblast-1_all_1_1_4"  />
</g>
</svg>
