<svg xmlns="http://www.w3.org/2000/svg" xmlns:xlink="http://www.w3.org/1999/xlink" version="1.1" x="0" y="0" height="230" width="800" viewBox="0 0 800 230" preserveAspectRatio="none"  >
<g label="Query sequence" class="clusterblast-cluster"  >
<text x="5" y="20" class="clusterblast-acc"  >
Query sequence</text>
<line x1="10" y1="35" x2="778.0" y2="35" style="stroke-width:1; stroke:grey; "  />
<polygon points="0,35 5,30 18,30 18,40 5,40 0,35 " style="fill:white; stroke-width:1; stroke:black; " description="&lt;b&gt;ctg117_32&lt;/b&gt;&lt;br&gt;ctg117 32&lt;br&gt;Location: 32406 - 33180" locus_tag="ctg117_32" class="clusterblast-orf" id="dummy-1_q0_0_all"  />
<polygon points="18,35 23,30 32,30 32,40 23,40 18,35 " style="fill:white; stroke-width:1; stroke:black; " description="&lt;b&gt;ctg117_33&lt;/b&gt;&lt;br&gt;ctg117 33&lt;br&gt;Location: 33172 - 33742" locus_tag="ctg117_33" class="clusterblast-orf" id="dummy-1_q1_0_all"  />
<polygon points="32,35 37,30 46,30 46,40 37,40 32,35 " style="fill:white; stroke-width:1; stroke:black; " description="&lt;b&gt;ctg117_34&lt;/b&gt;&lt;br&gt;ctg117 34&lt;br&gt;Location: 33731 - 34337" locus_tag="ctg117_34" class="clusterblast-orf" id="dummy-1_q2_0_all"  />
<polygon points="46,35 51,30 67,30 67,40 51,40 46,35 " style="fill:white; stroke-width:1; stroke:black; " description="&lt;b&gt;ctg117_35&lt;/b&gt;&lt;br&gt;ctg117 35&lt;br&gt;Location: 34330 - 35206" locus_tag="ctg117_35" class="clusterblast-orf" id="dummy-1_q3_0_all"  />
<polygon points="67,35 72,30 76,30 76,40 72,40 67,35 " style="fill:white; stroke-width:1; stroke:black; " description="&lt;b&gt;ctg117_36&lt;/b&gt;&lt;br&gt;ctg117 36&lt;br&gt;Location: 35199 - 35568" locus_tag="ctg117_36" class="clusterblast-orf" id="dummy-1_q4_0_all"  />
<polygon points="76,35 81,30 91,30 91,40 81,40 76,35 " style="fill:white; stroke-width:1; stroke:black; " description="&lt;b&gt;ctg117_37&lt;/b&gt;&lt;br&gt;ctg117 37&lt;br&gt;Location: 35564 - 36200" locus_tag="ctg117_37" class="clusterblast-orf" id="dummy-1_q5_0_all"  />
<polygon points="91,35 96,30 115,30 115,40 96,40 91,35 " style="fill:white; stroke-width:1; stroke:black; " description="&lt;b&gt;ctg117_38&lt;/b&gt;&lt;br&gt;ctg117 38&lt;br&gt;Location: 36210 - 37170" locus_tag="ctg117_38" class="clusterblast-orf" id="dummy-1_q6_0_all"  />
<polygon points="114,35 119,30 148,30 148,40 119,40 114,35 " style="fill:white; stroke-width:1; stroke:black; " description="&lt;b&gt;ctg117_39&lt;/b&gt;&lt;br&gt;ctg117 39&lt;br&gt;Location: 37166 - 38543" locus_tag="ctg117_39" class="clusterblast-orf" id="dummy-1_q7_0_all"  />
<polygon points="161,35 166,30 183,30 183,40 166,40 161,35 " style="fill:#d81515; stroke-width:1; stroke:black; " description="&lt;b&gt;ctg117_40&lt;/b&gt;&lt;br&gt;ctg117 40&lt;br&gt;Location: 39094 - 40006" locus_tag="ctg117_40" class="clusterblast-orf" id="dummy-1_q8_0_all"  />
<polygon points="188,35 193,30 207,30 207,40 193,40 188,35 " style="fill:#4dd815; stroke-width:1; stroke:black; " description="&lt;b&gt;ctg117_41&lt;/b&gt;&lt;br&gt;ctg117 41&lt;br&gt;Location: 40209 - 41019" locus_tag="ctg117_41" class="clusterblast-orf" id="dummy-1_q9_0_all"  />
<polygon points="220,40 222,40 227,35 222,30 220,30 220,40 " style="fill:#15bcd8; stroke-width:1; stroke:black; " description="&lt;b&gt;ctg117_42&lt;/b&gt;&lt;br&gt;ctg117 42&lt;br&gt;Location: 41543 - 41828" locus_tag="ctg117_42" class="clusterblast-orf" id="dummy-1_q10_0_all"  />
<polygon points="227,40 241,40 246,35 241,30 227,30 227,40 " style="fill:#8515d8; stroke-width:1; stroke:black; " description="&lt;b&gt;ctg117_43&lt;/b&gt;&lt;br&gt;ctg117 43&lt;br&gt;Location: 41824 - 42637" locus_tag="ctg117_43" class="clusterblast-orf" id="dummy-1_q11_0_all"  />
<polygon points="247,40 282,40 287,35 282,30 247,30 247,40 " style="fill:#d84d15; stroke-width:1; stroke:black; " description="&lt;b&gt;ctg117_44&lt;/b&gt;&lt;br&gt;ctg117 44&lt;br&gt;Location: 42655 - 44320" locus_tag="ctg117_44" class="clusterblast-orf" id="dummy-1_q12_0_all"  />
<polygon points="287,40 299,40 304,35 299,30 287,30 287,40 " style="fill:#15d815; stroke-width:1; stroke:black; " description="&lt;b&gt;ctg117_45&lt;/b&gt;&lt;br&gt;ctg117 45&lt;br&gt;Location: 44330 - 45020" locus_tag="ctg117_45" class="clusterblast-orf" id="dummy-1_q13_0_all"  />
<polygon points="304,40 312,40 317,35 312,30 304,30 304,40 " style="fill:#1585d8; stroke-width:1; stroke:black; " description="&lt;b&gt;ctg117_46&lt;/b&gt;&lt;br&gt;ctg117 46&lt;br&gt;Location: 45034 - 45559" locus_tag="ctg117_46" class="clusterblast-orf" id="dummy-1_q14_0_all"  />
<polygon points="317,40 356,40 361,35 356,30 317,30 317,40 " style="fill:#bc15d8; stroke-width:1; stroke:black; " description="&lt;b&gt;ctg117_47&lt;/b&gt;&lt;br&gt;ctg117 47&lt;br&gt;Location: 45571 - 47404" locus_tag="ctg117_47" class="clusterblast-orf" id="dummy-1_q15_0_all"  />
<polygon points="361,40 364,40 369,35 364,30 361,30 361,40 " style="fill:#d88515; stroke-width:1; stroke:black; " description="&lt;b&gt;ctg117_48&lt;/b&gt;&lt;br&gt;ctg117 48&lt;br&gt;Location: 47393 - 47744" locus_tag="ctg117_48" class="clusterblast-orf" id="dummy-1_q16_0_all"  />
<polygon points="370,40 371,40 376,35 371,30 370,30 370,40 " style="fill:#15bcd8; stroke-width:1; stroke:black; " description="&lt;b&gt;ctg117_49&lt;/b&gt;&lt;br&gt;ctg117 49&lt;br&gt;Location: 47762 - 48038" locus_tag="ctg117_49" class="clusterblast-orf" id="dummy-1_q17_0_all"  />
<polygon points="377,40 383,40 388,35 383,30 377,30 377,40 " style="fill:#15d84d; stroke-width:1; stroke:black; " description="&lt;b&gt;ctg117_50&lt;/b&gt;&lt;br&gt;ctg117 50&lt;br&gt;Location: 48059 - 48506" locus_tag="ctg117_50" class="clusterblast-orf" id="dummy-1_q18_0_all"  />
<polygon points="388,40 398,40 403,35 398,30 388,30 388,40 " style="fill:#154dd8; stroke-width:1; stroke:black; " description="&lt;b&gt;ctg117_51&lt;/b&gt;&lt;br&gt;ctg117 51&lt;br&gt;Location: 48505 - 49138" locus_tag="ctg117_51" class="clusterblast-orf" id="dummy-1_q19_0_all"  />
<polygon points="403,40 412,40 417,35 412,30 403,30 403,40 " style="fill:#d815bc; stroke-width:1; stroke:black; " description="&lt;b&gt;ctg117_52&lt;/b&gt;&lt;br&gt;ctg117 52&lt;br&gt;Location: 49134 - 49725" locus_tag="ctg117_52" class="clusterblast-orf" id="dummy-1_q20_0_all"  />
<polygon points="417,40 419,40 424,35 419,30 417,30 417,40 " style="fill:#d8bc15; stroke-width:1; stroke:black; " description="&lt;b&gt;ctg117_53&lt;/b&gt;&lt;br&gt;ctg117 53&lt;br&gt;Location: 49742 - 50018" locus_tag="ctg117_53" class="clusterblast-orf" id="dummy-1_q21_0_all"  />
<polygon points="424,40 444,40 449,35 444,30 424,30 424,40 " style="fill:#15d885; stroke-width:1; stroke:black; " description="&lt;b&gt;ctg117_54&lt;/b&gt;&lt;br&gt;ctg117 54&lt;br&gt;Location: 50028 - 51045" locus_tag="ctg117_54" class="clusterblast-orf" id="dummy-1_q22_0_all"  />
<polygon points="449,40 477,40 482,35 477,30 449,30 449,40 " style="fill:#1515d8; stroke-width:1; stroke:black; " description="&lt;b&gt;ctg117_55&lt;/b&gt;&lt;br&gt;ctg117 55&lt;br&gt;Location: 51041 - 52430" locus_tag="ctg117_55" class="clusterblast-orf" id="dummy-1_q23_0_all"  />
<polygon points="482,40 504,40 509,35 504,30 482,30 482,40 " style="fill:#d81585; stroke-width:1; stroke:black; " description="&lt;b&gt;ctg117_56&lt;/b&gt;&lt;br&gt;ctg117 56&lt;br&gt;Location: 52441 - 53554" locus_tag="ctg117_56" class="clusterblast-orf" id="dummy-1_q24_0_all"  />
<polygon points="509,40 537,40 542,35 537,30 509,30 509,40 " style="fill:#bcd815; stroke-width:1; stroke:black; " description="&lt;b&gt;ctg117_57&lt;/b&gt;&lt;br&gt;ctg117 57&lt;br&gt;Location: 53550 - 54903" locus_tag="ctg117_57" class="clusterblast-orf" id="dummy-1_q25_0_all"  />
<polygon points="542,40 550,40 555,35 550,30 542,30 542,40 " style="fill:#15bcd8; stroke-width:1; stroke:black; " description="&lt;b&gt;ctg117_58&lt;/b&gt;&lt;br&gt;ctg117 58&lt;br&gt;Location: 54905 - 55460" locus_tag="ctg117_58" class="clusterblast-orf" id="dummy-1_q26_0_all"  />
<polygon points="555,40 559,40 564,35 559,30 555,30 555,40 " style="fill:#15d8bc; stroke-width:1; stroke:black; " description="&lt;b&gt;ctg117_59&lt;/b&gt;&lt;br&gt;ctg117 59&lt;br&gt;Location: 55459 - 55810" locus_tag="ctg117_59" class="clusterblast-orf" id="dummy-1_q27_0_all"  />
<polygon points="564,40 569,40 574,35 569,30 564,30 564,40 " style="fill:#4d15d8; stroke-width:1; stroke:black; " description="&lt;b&gt;ctg117_60&lt;/b&gt;&lt;br&gt;ctg117 60&lt;br&gt;Location: 55814 - 56255" locus_tag="ctg117_60" class="clusterblast-orf" id="dummy-1_q28_0_all"  />
<polygon points="574,40 598,40 603,35 598,30 574,30 574,40 " style="fill:#d8154d; stroke-width:1; stroke:black; " description="&lt;b&gt;ctg117_61&lt;/b&gt;&lt;br&gt;ctg117 61&lt;br&gt;Location: 56251 - 57466" locus_tag="ctg117_61" class="clusterblast-orf" id="dummy-1_q29_0_all"  />
<polygon points="605,40 621,40 626,35 621,30 605,30 605,40 " style="fill:#85d815; stroke-width:1; stroke:black; " description="&lt;b&gt;ctg117_62&lt;/b&gt;&lt;br&gt;ctg117 62&lt;br&gt;Location: 57521 - 58424" locus_tag="ctg117_62" class="clusterblast-orf" id="dummy-1_q30_0_all"  />
<polygon points="627,35 632,30 653,30 653,40 632,40 627,35 " style="fill:white; stroke-width:1; stroke:black; " description="&lt;b&gt;ctg117_63&lt;/b&gt;&lt;br&gt;ctg117 63&lt;br&gt;Location: 58427 - 59504" locus_tag="ctg117_63" class="clusterblast-orf" id="dummy-1_q31_0_all"  />
<polygon points="653,35 658,30 683,30 683,40 658,40 653,35 " style="fill:white; stroke-width:1; stroke:black; " description="&lt;b&gt;ctg117_64&lt;/b&gt;&lt;br&gt;ctg117 64&lt;br&gt;Location: 59521 - 60775" locus_tag="ctg117_64" class="clusterblast-orf" id="dummy-1_q32_0_all"  />
<polygon points="689,40 716,40 721,35 716,30 689,30 689,40 " style="fill:white; stroke-width:1; stroke:black; " description="&lt;b&gt;ctg117_65&lt;/b&gt;&lt;br&gt;ctg117 65&lt;br&gt;Location: 61002 - 62334" locus_tag="ctg117_65" class="clusterblast-orf" id="dummy-1_q33_0_all"  />
<polygon points="726,40 729,40 734,35 729,30 726,30 726,40 " style="fill:white; stroke-width:1; stroke:black; " description="&lt;b&gt;ctg117_66&lt;/b&gt;&lt;br&gt;ctg117 66&lt;br&gt;Location: 62563 - 62884" locus_tag="ctg117_66" class="clusterblast-orf" id="dummy-1_q34_0_all"  />
<polygon points="735,35 740,30 780,30 780,40 740,40 735,35 " style="fill:white; stroke-width:1; stroke:black; " description="&lt;b&gt;ctg117_67&lt;/b&gt;&lt;br&gt;ctg117 67&lt;br&gt;Location: 62941 - 64786" locus_tag="ctg117_67" class="clusterblast-orf" id="dummy-1_q35_0_all"  />
</g>
<g label="MGC0000003" description="MGC0000003_c1: Ethanolamine degradation S. typhimurium (31% of genes show similarity), EUT" class="clusterblast-cluster"  >
<text x="5" y="70" class="clusterblast-acc"  >
MGC0000003_c1: Ethanolamine degradation S. typhimurium (31% of genes show similarity), EUT</text>
<line x1="10" y1="85" x2="778.0" y2="85" style="stroke-width:1; stroke:grey; "  />
</g>
<g id="a1_000"  >
<polygon points="170,90 220,90 225,85 220,80 170,80 170,90 " style="fill:white; stroke-width:1; stroke:black; " description="&lt;b&gt;STM2472&lt;/b&gt;&lt;br&gt;malic enzyme&lt;br&gt;Location: 18301 - 16021" locus_tag="STM2472" class="clusterblast-orf" id="dummy-1_h1_2_0"  />
</g>
<g id="a1_001"  >
<polygon points="230,90 236,90 241,85 236,80 230,80 230,90 " style="fill:white; stroke-width:1; stroke:black; " description="&lt;b&gt;STM2471&lt;/b&gt;&lt;br&gt;insertion sequence element IS200 transposase&lt;br&gt;Location: 15832 - 15373" locus_tag="STM2471" class="clusterblast-orf" id="dummy-1_h1_2_1"  />
</g>
<g id="a1_002"  >
<polygon points="252,90 255,90 260,85 255,80 252,80 252,90 " style="fill:#15d8bc; stroke-width:1; stroke:black; " description="&lt;b&gt;STM2470&lt;/b&gt;&lt;br&gt;carboxysome structural protein EutS&lt;br&gt;Location: 14893 - 14557&lt;br&gt;&lt;br&gt;&lt;b&gt;BlastP hit with ctg117_59&lt;/b&gt;&lt;br&gt;Percentage identity: 61&lt;br&gt;Percentage coverage: 93&lt;br&gt;BLAST bit score: 129&lt;br&gt;E-value: 4.19e-42" locus_tag="STM2470" class="clusterblast-orf" id="dummy-1_h1_2_2"  />
</g>
<g id="a1_003"  >
<polygon points="261,90 267,90 272,85 267,80 261,80 261,90 " style="fill:white; stroke-width:1; stroke:black; " description="&lt;b&gt;STM2469&lt;/b&gt;&lt;br&gt;ethanolamine utilization protein EutP&lt;br&gt;Location: 14545 - 14065" locus_tag="STM2469" class="clusterblast-orf" id="dummy-1_h1_2_3"  />
</g>
<g id="a1_004"  >
<polygon points="272,90 283,90 288,85 283,80 272,80 272,90 " style="fill:white; stroke-width:1; stroke:black; " description="&lt;b&gt;STM2468&lt;/b&gt;&lt;br&gt;ethanolamine utilization protein EutQ&lt;br&gt;Location: 14088 - 13398" locus_tag="STM2468" class="clusterblast-orf" id="dummy-1_h1_2_4"  />
</g>
<g id="a1_005"  >
<polygon points="288,90 303,90 308,85 303,80 288,80 288,90 " style="fill:white; stroke-width:1; stroke:black; " description="&lt;b&gt;STM2467&lt;/b&gt;&lt;br&gt;cobalamin adenosyltransferase EutT&lt;br&gt;Location: 13402 - 12598" locus_tag="STM2467" class="clusterblast-orf" id="dummy-1_h1_2_5"  />
</g>
<g id="a1_006"  >
<polygon points="308,90 327,90 332,85 327,80 308,80 308,90 " style="fill:white; stroke-width:1; stroke:black; " description="&lt;b&gt;STM2466&lt;/b&gt;&lt;br&gt;phosphotransacetylase EutD&lt;br&gt;Location: 12602 - 11585" locus_tag="STM2466" class="clusterblast-orf" id="dummy-1_h1_2_6"  />
</g>
<g id="a1_007"  >
<polygon points="333,90 335,90 340,85 335,80 333,80 333,90 " style="fill:#15bcd8; stroke-width:1; stroke:black; " description="&lt;b&gt;STM2465&lt;/b&gt;&lt;br&gt;carboxysome structural protein EutM&lt;br&gt;Location: 11545 - 11254&lt;br&gt;&lt;br&gt;&lt;b&gt;BlastP hit with ctg117_42&lt;/b&gt;&lt;br&gt;Percentage identity: 66&lt;br&gt;Percentage coverage: 99&lt;br&gt;BLAST bit score: 111&lt;br&gt;E-value: 1.14e-35&lt;br&gt;&lt;br&gt;&lt;b&gt;BlastP hit with ctg117_49&lt;/b&gt;&lt;br&gt;Percentage identity: 63&lt;br&gt;Percentage coverage: 96&lt;br&gt;BLAST bit score: 106&lt;br&gt;E-value: 9.67e-34" locus_tag="STM2465" class="clusterblast-orf" id="dummy-1_h1_2_7"  />
</g>
<g id="a1_008"  >
<polygon points="343,90 345,90 350,85 345,80 343,80 343,90 " style="fill:#d8bc15; stroke-width:1; stroke:black; " description="&lt;b&gt;STM2464&lt;/b&gt;&lt;br&gt;microcompartment shell protein EutN&lt;br&gt;Location: 11142 - 10854&lt;br&gt;&lt;br&gt;&lt;b&gt;BlastP hit with ctg117_53&lt;/b&gt;&lt;br&gt;Percentage identity: 45&lt;br&gt;Percentage coverage: 98&lt;br&gt;BLAST bit score: 66&lt;br&gt;E-value: 8.37e-18" locus_tag="STM2464" class="clusterblast-orf" id="dummy-1_h1_2_8"  />
</g>
<g id="a1_009"  >
<polygon points="350,90 379,90 384,85 379,80 350,80 350,90 " style="fill:#1515d8; stroke-width:1; stroke:black; " description="&lt;b&gt;STM2463&lt;/b&gt;&lt;br&gt;aldehyde oxidoreductase EutE&lt;br&gt;Location: 10843 - 9439&lt;br&gt;&lt;br&gt;&lt;b&gt;BlastP hit with ctg117_55&lt;/b&gt;&lt;br&gt;Percentage identity: 47&lt;br&gt;Percentage coverage: 102&lt;br&gt;BLAST bit score: 390&lt;br&gt;E-value: 2.19e-134" locus_tag="STM2463" class="clusterblast-orf" id="dummy-1_h1_2_9"  />
</g>
<g id="a1_0010"  >
<polygon points="384,90 399,90 404,85 399,80 384,80 384,90 " style="fill:white; stroke-width:1; stroke:black; " description="&lt;b&gt;STM2462&lt;/b&gt;&lt;br&gt;ethanolamine utilization protein EutJ&lt;br&gt;Location: 9429 - 8589" locus_tag="STM2462" class="clusterblast-orf" id="dummy-1_h1_2_10"  />
</g>
<g id="a1_0011"  >
<polygon points="404,90 428,90 433,85 428,80 404,80 404,90 " style="fill:#d81585; stroke-width:1; stroke:black; " description="&lt;b&gt;STM2461&lt;/b&gt;&lt;br&gt;ethanol dehydrogenase EutG&lt;br&gt;Location: 8600 - 7412&lt;br&gt;&lt;br&gt;&lt;b&gt;BlastP hit with ctg117_56&lt;/b&gt;&lt;br&gt;Percentage identity: 37&lt;br&gt;Percentage coverage: 104&lt;br&gt;BLAST bit score: 191&lt;br&gt;E-value: 4.85e-59" locus_tag="STM2461" class="clusterblast-orf" id="dummy-1_h1_2_11"  />
</g>
<g id="a1_0012"  >
<polygon points="435,90 460,90 465,85 460,80 435,80 435,90 " style="fill:white; stroke-width:1; stroke:black; " description="&lt;b&gt;STM2460&lt;/b&gt;&lt;br&gt;ethanolamine transporter EutH&lt;br&gt;Location: 7293 - 6066" locus_tag="STM2460" class="clusterblast-orf" id="dummy-1_h1_2_12"  />
</g>
<g id="a1_0013"  >
<polygon points="465,90 494,90 499,85 494,80 465,80 465,90 " style="fill:white; stroke-width:1; stroke:black; " description="&lt;b&gt;STM2459&lt;/b&gt;&lt;br&gt;ethanolamine utilization protein EutA&lt;br&gt;Location: 6070 - 4666" locus_tag="STM2459" class="clusterblast-orf" id="dummy-1_h1_2_13"  />
</g>
<g id="a1_0014"  >
<polygon points="499,90 527,90 532,85 527,80 499,80 499,90 " style="fill:white; stroke-width:1; stroke:black; " description="&lt;b&gt;STM2458&lt;/b&gt;&lt;br&gt;ethanolamine ammonia-lyase large subunit EutB&lt;br&gt;Location: 4655 - 3293" locus_tag="STM2458" class="clusterblast-orf" id="dummy-1_h1_2_14"  />
</g>
<g id="a1_0015"  >
<polygon points="532,90 549,90 554,85 549,80 532,80 532,90 " style="fill:white; stroke-width:1; stroke:black; " description="&lt;b&gt;STM2457&lt;/b&gt;&lt;br&gt;ethanolamine ammonia-lyase small subunit EutC&lt;br&gt;Location: 3275 - 2378" locus_tag="STM2457" class="clusterblast-orf" id="dummy-1_h1_2_15"  />
</g>
<g id="a1_0016"  >
<polygon points="554,90 565,90 570,85 565,80 554,80 554,90 " style="fill:white; stroke-width:1; stroke:black; " description="&lt;b&gt;STM2456&lt;/b&gt;&lt;br&gt;carboxysome structural protein EutL&lt;br&gt;Location: 2369 - 1709" locus_tag="STM2456" class="clusterblast-orf" id="dummy-1_h1_2_16"  />
</g>
<g id="a1_0017"  >
<polygon points="570,90 577,90 582,85 577,80 570,80 570,90 " style="fill:#15bcd8; stroke-width:1; stroke:black; " description="&lt;b&gt;STM2455&lt;/b&gt;&lt;br&gt;carboxysome structural protein EutK&lt;br&gt;Location: 1697 - 1202&lt;br&gt;&lt;br&gt;&lt;b&gt;BlastP hit with ctg117_42&lt;/b&gt;&lt;br&gt;Percentage identity: 44&lt;br&gt;Percentage coverage: 89&lt;br&gt;BLAST bit score: 68&lt;br&gt;E-value: 7.97e-18&lt;br&gt;&lt;br&gt;&lt;b&gt;BlastP hit with ctg117_49&lt;/b&gt;&lt;br&gt;Percentage identity: 48&lt;br&gt;Percentage coverage: 96&lt;br&gt;BLAST bit score: 79&lt;br&gt;E-value: 6.59e-22" locus_tag="STM2455" class="clusterblast-orf" id="dummy-1_h1_2_17"  />
</g>
<g id="a1_0018"  >
<polygon points="583,90 604,90 609,85 604,80 583,80 583,90 " style="fill:white; stroke-width:1; stroke:black; " description="&lt;b&gt;STM2454&lt;/b&gt;&lt;br&gt;HTH-type transcriptional regulator EutR&lt;br&gt;Location: 1155 - 102" locus_tag="STM2454" class="clusterblast-orf" id="dummy-1_h1_2_18"  />
</g>
</svg>
