<svg xmlns="http://www.w3.org/2000/svg" xmlns:xlink="http://www.w3.org/1999/xlink" version="1.1" x="0" y="0" height="50" width="800" viewBox="0 0 800 50" preserveAspectRatio="none"  >
<g label="Query sequence" class="clusterblast-cluster"  >
<text x="5" y="20" class="clusterblast-acc"  >
Query sequence</text>
<line x1="10" y1="35" x2="778.0" y2="35" style="stroke-width:1; stroke:grey; "  />
<polygon points="0,40 39,40 44,35 39,30 0,30 0,40 " style="fill:white; stroke-width:1; stroke:black; " description="&lt;b&gt;ctg1_3989&lt;/b&gt;&lt;br&gt;ctg1 3989&lt;br&gt;Location: 4283569 - 4285219" locus_tag="ctg1_3989" class="clusterblast-orf" id="knownclusterblast-19_q0_0_all"  />
<polygon points="48,35 53,30 83,30 83,40 53,40 48,35 " style="fill:white; stroke-width:1; stroke:black; " description="&lt;b&gt;ctg1_3990&lt;/b&gt;&lt;br&gt;ctg1 3990&lt;br&gt;Location: 4285372 - 4286665" locus_tag="ctg1_3990" class="clusterblast-orf" id="knownclusterblast-19_q1_0_all"  />
<polygon points="88,35 93,30 133,30 133,40 93,40 88,35 " style="fill:white; stroke-width:1; stroke:black; " description="&lt;b&gt;ctg1_3991&lt;/b&gt;&lt;br&gt;ctg1 3991&lt;br&gt;Location: 4286842 - 4288492" locus_tag="ctg1_3991" class="clusterblast-orf" id="knownclusterblast-19_q2_0_all"  />
<polygon points="132,35 137,30 141,30 141,40 137,40 132,35 " style="fill:white; stroke-width:1; stroke:black; " description="&lt;b&gt;ctg1_3992&lt;/b&gt;&lt;br&gt;ctg1 3992&lt;br&gt;Location: 4288488 - 4288803" locus_tag="ctg1_3992" class="clusterblast-orf" id="knownclusterblast-19_q3_0_all"  />
<polygon points="146,35 151,30 199,30 199,40 151,40 146,35 " style="fill:white; stroke-width:1; stroke:black; " description="&lt;b&gt;ctg1_3993&lt;/b&gt;&lt;br&gt;ctg1 3993&lt;br&gt;Location: 4289002 - 4290961" locus_tag="ctg1_3993" class="clusterblast-orf" id="knownclusterblast-19_q4_0_all"  />
<polygon points="210,40 244,40 249,35 244,30 210,30 210,40 " style="fill:white; stroke-width:1; stroke:black; " description="&lt;b&gt;ctg1_3994&lt;/b&gt;&lt;br&gt;ctg1 3994&lt;br&gt;Location: 4291353 - 4292790" locus_tag="ctg1_3994" class="clusterblast-orf" id="knownclusterblast-19_q5_0_all"  />
<polygon points="250,40 260,40 265,35 260,30 250,30 250,40 " style="fill:white; stroke-width:1; stroke:black; " description="&lt;b&gt;ctg1_3995&lt;/b&gt;&lt;br&gt;ctg1 3995&lt;br&gt;Location: 4292834 - 4293401" locus_tag="ctg1_3995" class="clusterblast-orf" id="knownclusterblast-19_q6_0_all"  />
<polygon points="265,40 278,40 283,35 278,30 265,30 265,40 " style="fill:white; stroke-width:1; stroke:black; " description="&lt;b&gt;ctg1_3996&lt;/b&gt;&lt;br&gt;ctg1 3996&lt;br&gt;Location: 4293397 - 4294069" locus_tag="ctg1_3996" class="clusterblast-orf" id="knownclusterblast-19_q7_0_all"  />
<polygon points="283,40 304,40 309,35 304,30 283,30 283,40 " style="fill:white; stroke-width:1; stroke:black; " description="&lt;b&gt;ctg1_3997&lt;/b&gt;&lt;br&gt;ctg1 3997&lt;br&gt;Location: 4294065 - 4295022" locus_tag="ctg1_3997" class="clusterblast-orf" id="knownclusterblast-19_q8_0_all"  />
<polygon points="312,40 351,40 356,35 351,30 312,30 312,40 " style="fill:white; stroke-width:1; stroke:black; " description="&lt;b&gt;ctg1_3998&lt;/b&gt;&lt;br&gt;ctg1 3998&lt;br&gt;Location: 4295137 - 4296760" locus_tag="ctg1_3998" class="clusterblast-orf" id="knownclusterblast-19_q9_0_all"  />
<polygon points="355,40 361,40 366,35 361,30 355,30 355,40 " style="fill:white; stroke-width:1; stroke:black; " description="&lt;b&gt;ctg1_3999&lt;/b&gt;&lt;br&gt;ctg1 3999&lt;br&gt;Location: 4296752 - 4297136" locus_tag="ctg1_3999" class="clusterblast-orf" id="knownclusterblast-19_q10_0_all"  />
<polygon points="366,40 377,40 382,35 377,30 366,30 366,40 " style="fill:white; stroke-width:1; stroke:black; " description="&lt;b&gt;ctg1_4000&lt;/b&gt;&lt;br&gt;ctg1 4000&lt;br&gt;Location: 4297132 - 4297729" locus_tag="ctg1_4000" class="clusterblast-orf" id="knownclusterblast-19_q11_0_all"  />
<polygon points="391,40 421,40 426,35 421,30 391,30 391,40 " style="fill:white; stroke-width:1; stroke:black; " description="&lt;b&gt;ctg1_4001&lt;/b&gt;&lt;br&gt;ctg1 4001&lt;br&gt;Location: 4298070 - 4299384" locus_tag="ctg1_4001" class="clusterblast-orf" id="knownclusterblast-19_q12_0_all"  />
<polygon points="441,35 446,30 459,30 459,40 446,40 441,35 " style="fill:white; stroke-width:1; stroke:black; " description="&lt;b&gt;ctg1_4002&lt;/b&gt;&lt;br&gt;ctg1 4002&lt;br&gt;Location: 4299914 - 4300604" locus_tag="ctg1_4002" class="clusterblast-orf" id="knownclusterblast-19_q13_0_all"  />
<polygon points="462,35 467,30 507,30 507,40 467,40 462,35 " style="fill:white; stroke-width:1; stroke:black; " description="&lt;b&gt;ctg1_4003&lt;/b&gt;&lt;br&gt;ctg1 4003&lt;br&gt;Location: 4300697 - 4302377" locus_tag="ctg1_4003" class="clusterblast-orf" id="knownclusterblast-19_q14_0_all"  />
<polygon points="509,35 514,30 520,30 520,40 514,40 509,35 " style="fill:white; stroke-width:1; stroke:black; " description="&lt;b&gt;ctg1_4004&lt;/b&gt;&lt;br&gt;ctg1 4004&lt;br&gt;Location: 4302425 - 4302845" locus_tag="ctg1_4004" class="clusterblast-orf" id="knownclusterblast-19_q15_0_all"  />
<polygon points="525,35 530,30 565,30 565,40 530,40 525,35 " style="fill:white; stroke-width:1; stroke:black; " description="&lt;b&gt;ctg1_4005&lt;/b&gt;&lt;br&gt;ctg1 4005&lt;br&gt;Location: 4303042 - 4304509" locus_tag="ctg1_4005" class="clusterblast-orf" id="knownclusterblast-19_q16_0_all"  />
<polygon points="565,35 570,30 620,30 620,40 570,40 565,35 " style="fill:white; stroke-width:1; stroke:black; " description="&lt;b&gt;ctg1_4006&lt;/b&gt;&lt;br&gt;ctg1 4006&lt;br&gt;Location: 4304505 - 4306557" locus_tag="ctg1_4006" class="clusterblast-orf" id="knownclusterblast-19_q17_0_all"  />
<polygon points="620,35 625,30 648,30 648,40 625,40 620,35 " style="fill:white; stroke-width:1; stroke:black; " description="&lt;b&gt;ctg1_4007&lt;/b&gt;&lt;br&gt;ctg1 4007&lt;br&gt;Location: 4306556 - 4307588" locus_tag="ctg1_4007" class="clusterblast-orf" id="knownclusterblast-19_q18_0_all"  />
<polygon points="648,35 653,30 656,30 656,40 653,40 648,35 " style="fill:white; stroke-width:1; stroke:black; " description="&lt;b&gt;ctg1_4008&lt;/b&gt;&lt;br&gt;ctg1 4008&lt;br&gt;Location: 4307606 - 4307882" locus_tag="ctg1_4008" class="clusterblast-orf" id="knownclusterblast-19_q19_0_all"  />
<polygon points="661,35 666,30 715,30 715,40 666,40 661,35 " style="fill:white; stroke-width:1; stroke:black; " description="&lt;b&gt;ctg1_4009&lt;/b&gt;&lt;br&gt;ctg1 4009&lt;br&gt;Location: 4308090 - 4310076" locus_tag="ctg1_4009" class="clusterblast-orf" id="knownclusterblast-19_q20_0_all"  />
<polygon points="725,40 746,40 751,35 746,30 725,30 725,40 " style="fill:white; stroke-width:1; stroke:black; " description="&lt;b&gt;ctg1_4010&lt;/b&gt;&lt;br&gt;ctg1 4010&lt;br&gt;Location: 4310430 - 4311411" locus_tag="ctg1_4010" class="clusterblast-orf" id="knownclusterblast-19_q21_0_all"  />
<polygon points="752,35 757,30 780,30 780,40 757,40 752,35 " style="fill:white; stroke-width:1; stroke:black; " description="&lt;b&gt;ctg1_4011&lt;/b&gt;&lt;br&gt;ctg1 4011&lt;br&gt;Location: 4311448 - 4312477" locus_tag="ctg1_4011" class="clusterblast-orf" id="knownclusterblast-19_q22_0_all"  />
</g>
</svg>
