<svg xmlns="http://www.w3.org/2000/svg" xmlns:xlink="http://www.w3.org/1999/xlink" version="1.1" x="0" y="0" height="100" width="800" viewBox="0 0 800 100" preserveAspectRatio="none"  >
<g label="Query sequence" class="clusterblast-cluster"  >
<text x="5" y="20" class="clusterblast-acc"  >
Query sequence</text>
<line x1="10" y1="35" x2="778.0" y2="35" style="stroke-width:1; stroke:grey; "  />
<polygon points="0,40 23,40 28,35 23,30 0,30 0,40 " style="fill:white; stroke-width:1; stroke:black; " description="&lt;b&gt;ctg1_3306&lt;/b&gt;&lt;br&gt;ctg1 3306&lt;br&gt;Location: 3542408 - 3543233" locus_tag="ctg1_3306" class="clusterblast-orf" id="knownclusterblast-17_q0_0_all"  />
<polygon points="29,40 35,40 40,35 35,30 29,30 29,40 " style="fill:white; stroke-width:1; stroke:black; " description="&lt;b&gt;ctg1_3307&lt;/b&gt;&lt;br&gt;ctg1 3307&lt;br&gt;Location: 3543242 - 3543557" locus_tag="ctg1_3307" class="clusterblast-orf" id="knownclusterblast-17_q1_0_all"  />
<polygon points="50,40 61,40 66,35 61,30 50,30 50,40 " style="fill:white; stroke-width:1; stroke:black; " description="&lt;b&gt;ctg1_3308&lt;/b&gt;&lt;br&gt;ctg1 3308&lt;br&gt;Location: 3543857 - 3544304" locus_tag="ctg1_3308" class="clusterblast-orf" id="knownclusterblast-17_q2_0_all"  />
<polygon points="66,40 111,40 116,35 111,30 66,30 66,40 " style="fill:white; stroke-width:1; stroke:black; " description="&lt;b&gt;ctg1_3309&lt;/b&gt;&lt;br&gt;ctg1 3309&lt;br&gt;Location: 3544314 - 3545766" locus_tag="ctg1_3309" class="clusterblast-orf" id="knownclusterblast-17_q3_0_all"  />
<polygon points="116,40 148,40 153,35 148,30 116,30 116,40 " style="fill:white; stroke-width:1; stroke:black; " description="&lt;b&gt;ctg1_3310&lt;/b&gt;&lt;br&gt;ctg1 3310&lt;br&gt;Location: 3545755 - 3546826" locus_tag="ctg1_3310" class="clusterblast-orf" id="knownclusterblast-17_q4_0_all"  />
<polygon points="153,40 209,40 214,35 209,30 153,30 153,40 " style="fill:white; stroke-width:1; stroke:black; " description="&lt;b&gt;ctg1_3311&lt;/b&gt;&lt;br&gt;ctg1 3311&lt;br&gt;Location: 3546825 - 3548574" locus_tag="ctg1_3311" class="clusterblast-orf" id="knownclusterblast-17_q5_0_all"  />
<polygon points="215,35 220,30 252,30 252,40 220,40 215,35 " style="fill:white; stroke-width:1; stroke:black; " description="&lt;b&gt;ctg1_3312&lt;/b&gt;&lt;br&gt;ctg1 3312&lt;br&gt;Location: 3548623 - 3549679" locus_tag="ctg1_3312" class="clusterblast-orf" id="knownclusterblast-17_q6_0_all"  />
<polygon points="257,35 262,30 286,30 286,40 262,40 257,35 " style="fill:white; stroke-width:1; stroke:black; " description="&lt;b&gt;ctg1_3313&lt;/b&gt;&lt;br&gt;ctg1 3313&lt;br&gt;Location: 3549831 - 3550665" locus_tag="ctg1_3313" class="clusterblast-orf" id="knownclusterblast-17_q7_0_all"  />
<polygon points="293,40 308,40 313,35 308,30 293,30 293,40 " style="fill:#d81515; stroke-width:1; stroke:black; " description="&lt;b&gt;ctg1_3314&lt;/b&gt;&lt;br&gt;ctg1 3314&lt;br&gt;Location: 3550858 - 3551446" locus_tag="ctg1_3314" class="clusterblast-orf" id="knownclusterblast-17_q8_0_all"  />
<polygon points="315,40 394,40 399,35 394,30 315,30 315,40 " style="fill:#d81515; stroke-width:1; stroke:black; " description="&lt;b&gt;ctg1_3315&lt;/b&gt;&lt;br&gt;ctg1 3315&lt;br&gt;Location: 3551494 - 3553909" locus_tag="ctg1_3315" class="clusterblast-orf" id="knownclusterblast-17_q9_0_all"  />
<polygon points="399,40 425,40 430,35 425,30 399,30 399,40 " style="fill:#15d815; stroke-width:1; stroke:black; " description="&lt;b&gt;ctg1_3316&lt;/b&gt;&lt;br&gt;ctg1 3316&lt;br&gt;Location: 3553921 - 3554824" locus_tag="ctg1_3316" class="clusterblast-orf" id="knownclusterblast-17_q10_0_all"  />
<polygon points="430,40 447,40 452,35 447,30 430,30 430,40 " style="fill:#1515d8; stroke-width:1; stroke:black; " description="&lt;b&gt;ctg1_3317&lt;/b&gt;&lt;br&gt;ctg1 3317&lt;br&gt;Location: 3554820 - 3555456" locus_tag="ctg1_3317" class="clusterblast-orf" id="knownclusterblast-17_q11_0_all"  />
<polygon points="452,40 479,40 484,35 479,30 452,30 452,40 " style="fill:white; stroke-width:1; stroke:black; " description="&lt;b&gt;ctg1_3318&lt;/b&gt;&lt;br&gt;ctg1 3318&lt;br&gt;Location: 3555452 - 3556382" locus_tag="ctg1_3318" class="clusterblast-orf" id="knownclusterblast-17_q12_0_all"  />
<polygon points="489,35 494,30 496,30 496,40 494,40 489,35 " style="fill:white; stroke-width:1; stroke:black; " description="&lt;b&gt;ctg1_3319&lt;/b&gt;&lt;br&gt;ctg1 3319&lt;br&gt;Location: 3556529 - 3556712" locus_tag="ctg1_3319" class="clusterblast-orf" id="knownclusterblast-17_q13_0_all"  />
<polygon points="496,35 501,30 504,30 504,40 501,40 496,35 " style="fill:white; stroke-width:1; stroke:black; " description="&lt;b&gt;ctg1_3320&lt;/b&gt;&lt;br&gt;ctg1 3320&lt;br&gt;Location: 3556711 - 3556954" locus_tag="ctg1_3320" class="clusterblast-orf" id="knownclusterblast-17_q14_0_all"  />
<polygon points="512,35 517,30 519,30 519,40 517,40 512,35 " style="fill:white; stroke-width:1; stroke:black; " description="&lt;b&gt;ctg1_3321&lt;/b&gt;&lt;br&gt;ctg1 3321&lt;br&gt;Location: 3557171 - 3557390" locus_tag="ctg1_3321" class="clusterblast-orf" id="knownclusterblast-17_q15_0_all"  />
<polygon points="531,35 535,30 535,40 531,35 " style="fill:white; stroke-width:1; stroke:black; " description="&lt;b&gt;ctg1_3322&lt;/b&gt;&lt;br&gt;ctg1 3322&lt;br&gt;Location: 3557724 - 3557832" locus_tag="ctg1_3322" class="clusterblast-orf" id="knownclusterblast-17_q16_0_all"  />
<polygon points="549,35 554,30 581,30 581,40 554,40 549,35 " style="fill:white; stroke-width:1; stroke:black; " description="&lt;b&gt;ctg1_3323&lt;/b&gt;&lt;br&gt;ctg1 3323&lt;br&gt;Location: 3558242 - 3559184" locus_tag="ctg1_3323" class="clusterblast-orf" id="knownclusterblast-17_q17_0_all"  />
<polygon points="583,35 588,30 598,30 598,40 588,40 583,35 " style="fill:white; stroke-width:1; stroke:black; " description="&lt;b&gt;ctg1_3324&lt;/b&gt;&lt;br&gt;ctg1 3324&lt;br&gt;Location: 3559228 - 3559666" locus_tag="ctg1_3324" class="clusterblast-orf" id="knownclusterblast-17_q18_0_all"  />
<polygon points="598,35 603,30 628,30 628,40 603,40 598,35 " style="fill:white; stroke-width:1; stroke:black; " description="&lt;b&gt;ctg1_3325&lt;/b&gt;&lt;br&gt;ctg1 3325&lt;br&gt;Location: 3559662 - 3560535" locus_tag="ctg1_3325" class="clusterblast-orf" id="knownclusterblast-17_q19_0_all"  />
<polygon points="628,35 633,30 649,30 649,40 633,40 628,35 " style="fill:white; stroke-width:1; stroke:black; " description="&lt;b&gt;ctg1_3326&lt;/b&gt;&lt;br&gt;ctg1 3326&lt;br&gt;Location: 3560528 - 3561128" locus_tag="ctg1_3326" class="clusterblast-orf" id="knownclusterblast-17_q20_0_all"  />
<polygon points="652,35 657,30 679,30 679,40 657,40 652,35 " style="fill:white; stroke-width:1; stroke:black; " description="&lt;b&gt;ctg1_3327&lt;/b&gt;&lt;br&gt;ctg1 3327&lt;br&gt;Location: 3561226 - 3562012" locus_tag="ctg1_3327" class="clusterblast-orf" id="knownclusterblast-17_q21_0_all"  />
<polygon points="681,35 686,30 712,30 712,40 686,40 681,35 " style="fill:white; stroke-width:1; stroke:black; " description="&lt;b&gt;ctg1_3328&lt;/b&gt;&lt;br&gt;ctg1 3328&lt;br&gt;Location: 3562045 - 3562942" locus_tag="ctg1_3328" class="clusterblast-orf" id="knownclusterblast-17_q22_0_all"  />
<polygon points="717,40 744,40 749,35 744,30 717,30 717,40 " style="fill:white; stroke-width:1; stroke:black; " description="&lt;b&gt;ctg1_3329&lt;/b&gt;&lt;br&gt;ctg1 3329&lt;br&gt;Location: 3563109 - 3564006" locus_tag="ctg1_3329" class="clusterblast-orf" id="knownclusterblast-17_q23_0_all"  />
<polygon points="749,40 775,40 780,35 775,30 749,30 749,40 " style="fill:white; stroke-width:1; stroke:black; " description="&lt;b&gt;ctg1_3330&lt;/b&gt;&lt;br&gt;ctg1 3330&lt;br&gt;Location: 3564029 - 3564908" locus_tag="ctg1_3330" class="clusterblast-orf" id="knownclusterblast-17_q24_0_all"  />
</g>
<g label="MGC00000049" description="MGC00000049_c1: Formate dehydrogenase E. coli (100% of genes show similarity), FORM" class="clusterblast-cluster"  >
<text x="5" y="70" class="clusterblast-acc"  >
MGC00000049_c1: Formate dehydrogenase E. coli (100% of genes show similarity), FORM</text>
<line x1="10" y1="85" x2="778.0" y2="85" style="stroke-width:1; stroke:grey; "  />
</g>
<g id="a17_000"  >
<polygon points="310,90 411,90 416,85 411,80 310,80 310,90 " style="fill:#d81515; stroke-width:1; stroke:black; " description="&lt;b&gt;b3894&lt;/b&gt;&lt;br&gt;formate dehydrogenase O subunit alpha&lt;br&gt;Location: 14598 - 11547&lt;br&gt;&lt;br&gt;&lt;b&gt;BlastP hit with ctg1_3314&lt;/b&gt;&lt;br&gt;Percentage identity: 100&lt;br&gt;Percentage coverage: 100&lt;br&gt;BLAST bit score: 398&lt;br&gt;E-value: 1.62e-135&lt;br&gt;&lt;br&gt;&lt;b&gt;BlastP hit with ctg1_3315&lt;/b&gt;&lt;br&gt;Percentage identity: 100&lt;br&gt;Percentage coverage: 100&lt;br&gt;BLAST bit score: 1676&lt;br&gt;E-value: 0.0" locus_tag="b3894" class="clusterblast-orf" id="knownclusterblast-17_all_17_1_0"  />
</g>
<g id="a17_001"  >
<polygon points="416,90 442,90 447,85 442,80 416,80 416,90 " style="fill:#15d815; stroke-width:1; stroke:black; " description="&lt;b&gt;b3893&lt;/b&gt;&lt;br&gt;formate dehydrogenase O subunit beta&lt;br&gt;Location: 11535 - 10632&lt;br&gt;&lt;br&gt;&lt;b&gt;BlastP hit with ctg1_3316&lt;/b&gt;&lt;br&gt;Percentage identity: 100&lt;br&gt;Percentage coverage: 100&lt;br&gt;BLAST bit score: 634&lt;br&gt;E-value: 5.7e-236" locus_tag="b3893" class="clusterblast-orf" id="knownclusterblast-17_all_17_1_1"  />
</g>
<g id="a17_002"  >
<polygon points="447,90 464,90 469,85 464,80 447,80 447,90 " style="fill:#1515d8; stroke-width:1; stroke:black; " description="&lt;b&gt;b3892&lt;/b&gt;&lt;br&gt;formate dehydrogenase O subunit gamma&lt;br&gt;Location: 10636 - 10000&lt;br&gt;&lt;br&gt;&lt;b&gt;BlastP hit with ctg1_3317&lt;/b&gt;&lt;br&gt;Percentage identity: 100&lt;br&gt;Percentage coverage: 100&lt;br&gt;BLAST bit score: 423&lt;br&gt;E-value: 2.96e-155" locus_tag="b3892" class="clusterblast-orf" id="knownclusterblast-17_all_17_1_2"  />
</g>
</svg>
