<svg xmlns="http://www.w3.org/2000/svg" xmlns:xlink="http://www.w3.org/1999/xlink" version="1.1" x="0" y="0" height="230" width="800" viewBox="0 0 800 230" preserveAspectRatio="none"  >
<g label="Query sequence" class="clusterblast-cluster"  >
<text x="5" y="20" class="clusterblast-acc"  >
Query sequence</text>
<line x1="10" y1="35" x2="778.0" y2="35" style="stroke-width:1; stroke:grey; "  />
<polygon points="0,40 9,40 14,35 9,30 0,30 0,40 " style="fill:white; stroke-width:1; stroke:black; " description="&lt;b&gt;ctg1_1434&lt;/b&gt;&lt;br&gt;ctg1 1434&lt;br&gt;Location: 1527960 - 1528578" locus_tag="ctg1_1434" class="clusterblast-orf" id="dummy-7_q0_0_all"  />
<polygon points="16,40 16,40 21,35 16,30 16,30 16,40 " style="fill:white; stroke-width:1; stroke:black; " description="&lt;b&gt;ctg1_1435&lt;/b&gt;&lt;br&gt;ctg1 1435&lt;br&gt;Location: 1528653 - 1528866" locus_tag="ctg1_1435" class="clusterblast-orf" id="dummy-7_q1_0_all"  />
<polygon points="38,40 80,40 85,35 80,30 38,30 38,40 " style="fill:white; stroke-width:1; stroke:black; " description="&lt;b&gt;ctg1_1436&lt;/b&gt;&lt;br&gt;ctg1 1436&lt;br&gt;Location: 1529603 - 1531652" locus_tag="ctg1_1436" class="clusterblast-orf" id="dummy-7_q2_0_all"  />
<polygon points="85,40 91,40 96,35 91,30 85,30 85,40 " style="fill:white; stroke-width:1; stroke:black; " description="&lt;b&gt;ctg1_1437&lt;/b&gt;&lt;br&gt;ctg1 1437&lt;br&gt;Location: 1531635 - 1532118" locus_tag="ctg1_1437" class="clusterblast-orf" id="dummy-7_q3_0_all"  />
<polygon points="100,40 113,40 118,35 113,30 100,30 100,40 " style="fill:white; stroke-width:1; stroke:black; " description="&lt;b&gt;ctg1_1438&lt;/b&gt;&lt;br&gt;ctg1 1438&lt;br&gt;Location: 1532299 - 1533046" locus_tag="ctg1_1438" class="clusterblast-orf" id="dummy-7_q4_0_all"  />
<polygon points="129,40 150,40 155,35 150,30 129,30 129,40 " style="fill:white; stroke-width:1; stroke:black; " description="&lt;b&gt;ctg1_1439&lt;/b&gt;&lt;br&gt;ctg1 1439&lt;br&gt;Location: 1533529 - 1534666" locus_tag="ctg1_1439" class="clusterblast-orf" id="dummy-7_q5_0_all"  />
<polygon points="157,40 158,40 163,35 158,30 157,30 157,40 " style="fill:white; stroke-width:1; stroke:black; " description="&lt;b&gt;ctg1_1440&lt;/b&gt;&lt;br&gt;ctg1 1440&lt;br&gt;Location: 1534765 - 1534999" locus_tag="ctg1_1440" class="clusterblast-orf" id="dummy-7_q6_0_all"  />
<polygon points="163,35 168,30 176,30 176,40 168,40 163,35 " style="fill:white; stroke-width:1; stroke:black; " description="&lt;b&gt;ctg1_1441&lt;/b&gt;&lt;br&gt;ctg1 1441&lt;br&gt;Location: 1534995 - 1535565" locus_tag="ctg1_1441" class="clusterblast-orf" id="dummy-7_q7_0_all"  />
<polygon points="180,40 195,40 200,35 195,30 180,30 180,40 " style="fill:white; stroke-width:1; stroke:black; " description="&lt;b&gt;ctg1_1442&lt;/b&gt;&lt;br&gt;ctg1 1442&lt;br&gt;Location: 1535737 - 1536583" locus_tag="ctg1_1442" class="clusterblast-orf" id="dummy-7_q8_0_all"  />
<polygon points="202,35 207,30 222,30 222,40 207,40 202,35 " style="fill:white; stroke-width:1; stroke:black; " description="&lt;b&gt;ctg1_1443&lt;/b&gt;&lt;br&gt;ctg1 1443&lt;br&gt;Location: 1536678 - 1537572" locus_tag="ctg1_1443" class="clusterblast-orf" id="dummy-7_q9_0_all"  />
<polygon points="224,35 229,30 240,30 240,40 229,40 224,35 " style="fill:#d81515; stroke-width:1; stroke:black; " description="&lt;b&gt;ctg1_1444&lt;/b&gt;&lt;br&gt;ctg1 1444&lt;br&gt;Location: 1537650 - 1538331" locus_tag="ctg1_1444" class="clusterblast-orf" id="dummy-7_q10_0_all"  />
<polygon points="240,35 245,30 256,30 256,40 245,40 240,35 " style="fill:#4dd815; stroke-width:1; stroke:black; " description="&lt;b&gt;ctg1_1445&lt;/b&gt;&lt;br&gt;ctg1 1445&lt;br&gt;Location: 1538327 - 1539023" locus_tag="ctg1_1445" class="clusterblast-orf" id="dummy-7_q11_0_all"  />
<polygon points="256,35 261,30 292,30 292,40 261,40 256,35 " style="fill:#1585d8; stroke-width:1; stroke:black; " description="&lt;b&gt;ctg1_1446&lt;/b&gt;&lt;br&gt;ctg1 1446&lt;br&gt;Location: 1539022 - 1540567" locus_tag="ctg1_1446" class="clusterblast-orf" id="dummy-7_q12_0_all"  />
<polygon points="292,35 297,30 378,30 378,40 297,40 292,35 " style="fill:#d815bc; stroke-width:1; stroke:black; " description="&lt;b&gt;ctg1_1447&lt;/b&gt;&lt;br&gt;ctg1 1447&lt;br&gt;Location: 1540563 - 1544304" locus_tag="ctg1_1447" class="clusterblast-orf" id="dummy-7_q13_0_all"  />
<polygon points="380,35 385,30 412,30 412,40 385,40 380,35 " style="fill:white; stroke-width:1; stroke:black; " description="&lt;b&gt;ctg1_1448&lt;/b&gt;&lt;br&gt;ctg1 1448&lt;br&gt;Location: 1544385 - 1545774" locus_tag="ctg1_1448" class="clusterblast-orf" id="dummy-7_q14_0_all"  />
<polygon points="420,35 425,30 428,30 428,40 425,40 420,35 " style="fill:white; stroke-width:1; stroke:black; " description="&lt;b&gt;ctg1_1449&lt;/b&gt;&lt;br&gt;ctg1 1449&lt;br&gt;Location: 1546097 - 1546433" locus_tag="ctg1_1449" class="clusterblast-orf" id="dummy-7_q15_0_all"  />
<polygon points="429,35 434,30 450,30 450,40 434,40 429,35 " style="fill:white; stroke-width:1; stroke:black; " description="&lt;b&gt;ctg1_1450&lt;/b&gt;&lt;br&gt;ctg1 1450&lt;br&gt;Location: 1546471 - 1547392" locus_tag="ctg1_1450" class="clusterblast-orf" id="dummy-7_q16_0_all"  />
<polygon points="451,35 456,30 458,30 458,40 456,40 451,35 " style="fill:white; stroke-width:1; stroke:black; " description="&lt;b&gt;ctg1_1451&lt;/b&gt;&lt;br&gt;ctg1 1451&lt;br&gt;Location: 1547451 - 1547742" locus_tag="ctg1_1451" class="clusterblast-orf" id="dummy-7_q17_0_all"  />
<polygon points="464,35 469,30 483,30 483,40 469,40 464,35 " style="fill:white; stroke-width:1; stroke:black; " description="&lt;b&gt;ctg1_1452&lt;/b&gt;&lt;br&gt;ctg1 1452&lt;br&gt;Location: 1548001 - 1548826" locus_tag="ctg1_1452" class="clusterblast-orf" id="dummy-7_q18_0_all"  />
<polygon points="490,40 498,40 503,35 498,30 490,30 490,40 " style="fill:#d8bc15; stroke-width:1; stroke:black; " description="&lt;b&gt;ctg1_1453&lt;/b&gt;&lt;br&gt;ctg1 1453&lt;br&gt;Location: 1549114 - 1549702" locus_tag="ctg1_1453" class="clusterblast-orf" id="dummy-7_q19_0_all"  />
<polygon points="505,40 555,40 560,35 555,30 505,30 505,40 " style="fill:#d8bc15; stroke-width:1; stroke:black; " description="&lt;b&gt;ctg1_1454&lt;/b&gt;&lt;br&gt;ctg1 1454&lt;br&gt;Location: 1549750 - 1552162" locus_tag="ctg1_1454" class="clusterblast-orf" id="dummy-7_q20_0_all"  />
<polygon points="561,40 576,40 581,35 576,30 561,30 561,40 " style="fill:#15d885; stroke-width:1; stroke:black; " description="&lt;b&gt;ctg1_1455&lt;/b&gt;&lt;br&gt;ctg1 1455&lt;br&gt;Location: 1552174 - 1553059" locus_tag="ctg1_1455" class="clusterblast-orf" id="dummy-7_q21_0_all"  />
<polygon points="581,40 591,40 596,35 591,30 581,30 581,40 " style="fill:#4d15d8; stroke-width:1; stroke:black; " description="&lt;b&gt;ctg1_1456&lt;/b&gt;&lt;br&gt;ctg1 1456&lt;br&gt;Location: 1553051 - 1553705" locus_tag="ctg1_1456" class="clusterblast-orf" id="dummy-7_q22_0_all"  />
<polygon points="606,35 611,30 612,30 612,40 611,40 606,35 " style="fill:white; stroke-width:1; stroke:black; " description="&lt;b&gt;ctg1_1457&lt;/b&gt;&lt;br&gt;ctg1 1457&lt;br&gt;Location: 1554111 - 1554396" locus_tag="ctg1_1457" class="clusterblast-orf" id="dummy-7_q23_0_all"  />
<polygon points="616,35 621,30 639,30 639,40 621,40 616,35 " style="fill:white; stroke-width:1; stroke:black; " description="&lt;b&gt;ctg1_1458&lt;/b&gt;&lt;br&gt;ctg1 1458&lt;br&gt;Location: 1554541 - 1555552" locus_tag="ctg1_1458" class="clusterblast-orf" id="dummy-7_q24_0_all"  />
<polygon points="642,35 647,30 681,30 681,40 647,40 642,35 " style="fill:white; stroke-width:1; stroke:black; " description="&lt;b&gt;ctg1_1459&lt;/b&gt;&lt;br&gt;ctg1 1459&lt;br&gt;Location: 1555685 - 1557383" locus_tag="ctg1_1459" class="clusterblast-orf" id="dummy-7_q25_0_all"  />
<polygon points="685,35 688,30 688,40 685,35 " style="fill:white; stroke-width:1; stroke:black; " description="&lt;b&gt;ctg1_1460&lt;/b&gt;&lt;br&gt;ctg1 1460&lt;br&gt;Location: 1557539 - 1557677" locus_tag="ctg1_1460" class="clusterblast-orf" id="dummy-7_q26_0_all"  />
<polygon points="691,35 696,30 696,30 696,40 696,40 691,35 " style="fill:white; stroke-width:1; stroke:black; " description="&lt;b&gt;ctg1_1461&lt;/b&gt;&lt;br&gt;ctg1 1461&lt;br&gt;Location: 1557778 - 1557994" locus_tag="ctg1_1461" class="clusterblast-orf" id="dummy-7_q27_0_all"  />
<polygon points="704,40 709,40 714,35 709,30 704,30 704,40 " style="fill:white; stroke-width:1; stroke:black; " description="&lt;b&gt;ctg1_1462&lt;/b&gt;&lt;br&gt;ctg1 1462&lt;br&gt;Location: 1558338 - 1558770" locus_tag="ctg1_1462" class="clusterblast-orf" id="dummy-7_q28_0_all"  />
<polygon points="715,35 720,30 736,30 736,40 720,40 715,35 " style="fill:white; stroke-width:1; stroke:black; " description="&lt;b&gt;ctg1_1463&lt;/b&gt;&lt;br&gt;ctg1 1463&lt;br&gt;Location: 1558825 - 1559752" locus_tag="ctg1_1463" class="clusterblast-orf" id="dummy-7_q29_0_all"  />
<polygon points="736,35 741,30 759,30 759,40 741,40 736,35 " style="fill:white; stroke-width:1; stroke:black; " description="&lt;b&gt;ctg1_1464&lt;/b&gt;&lt;br&gt;ctg1 1464&lt;br&gt;Location: 1559744 - 1560731" locus_tag="ctg1_1464" class="clusterblast-orf" id="dummy-7_q30_0_all"  />
<polygon points="759,35 764,30 780,30 780,40 764,40 759,35 " style="fill:white; stroke-width:1; stroke:black; " description="&lt;b&gt;ctg1_1465&lt;/b&gt;&lt;br&gt;ctg1 1465&lt;br&gt;Location: 1560727 - 1561624" locus_tag="ctg1_1465" class="clusterblast-orf" id="dummy-7_q31_0_all"  />
</g>
<g label="MGC00000049" description="MGC00000049_c1: Formate dehydrogenase E. coli (100% of genes show similarity), FORM" class="clusterblast-cluster"  >
<text x="5" y="70" class="clusterblast-acc"  >
MGC00000049_c1: Formate dehydrogenase E. coli (100% of genes show similarity), FORM</text>
<line x1="10" y1="85" x2="778.0" y2="85" style="stroke-width:1; stroke:grey; "  />
</g>
<g id="a7_000"  >
<polygon points="336,90 402,90 407,85 402,80 336,80 336,90 " style="fill:#d8bc15; stroke-width:1; stroke:black; " description="&lt;b&gt;b3894&lt;/b&gt;&lt;br&gt;formate dehydrogenase O subunit alpha&lt;br&gt;Location: 14598 - 11547&lt;br&gt;&lt;br&gt;&lt;b&gt;BlastP hit with ctg1_1453&lt;/b&gt;&lt;br&gt;Percentage identity: 82&lt;br&gt;Percentage coverage: 100&lt;br&gt;BLAST bit score: 344&lt;br&gt;E-value: 9.31e-115&lt;br&gt;&lt;br&gt;&lt;b&gt;BlastP hit with ctg1_1454&lt;/b&gt;&lt;br&gt;Percentage identity: 75&lt;br&gt;Percentage coverage: 100&lt;br&gt;BLAST bit score: 1298&lt;br&gt;E-value: 0.0" locus_tag="b3894" class="clusterblast-orf" id="dummy-7_h7_2_0"  />
</g>
<g id="a7_001"  >
<polygon points="407,90 423,90 428,85 423,80 407,80 407,90 " style="fill:#15d885; stroke-width:1; stroke:black; " description="&lt;b&gt;b3893&lt;/b&gt;&lt;br&gt;formate dehydrogenase O subunit beta&lt;br&gt;Location: 11535 - 10632&lt;br&gt;&lt;br&gt;&lt;b&gt;BlastP hit with ctg1_1455&lt;/b&gt;&lt;br&gt;Percentage identity: 78&lt;br&gt;Percentage coverage: 100&lt;br&gt;BLAST bit score: 498&lt;br&gt;E-value: 5.75e-182" locus_tag="b3893" class="clusterblast-orf" id="dummy-7_h7_2_1"  />
</g>
<g id="a7_002"  >
<polygon points="428,90 438,90 443,85 438,80 428,80 428,90 " style="fill:#4d15d8; stroke-width:1; stroke:black; " description="&lt;b&gt;b3892&lt;/b&gt;&lt;br&gt;formate dehydrogenase O subunit gamma&lt;br&gt;Location: 10636 - 10000&lt;br&gt;&lt;br&gt;&lt;b&gt;BlastP hit with ctg1_1456&lt;/b&gt;&lt;br&gt;Percentage identity: 48&lt;br&gt;Percentage coverage: 97&lt;br&gt;BLAST bit score: 215&lt;br&gt;E-value: 4.13e-73" locus_tag="b3892" class="clusterblast-orf" id="dummy-7_h7_2_2"  />
</g>
</svg>
