<svg xmlns="http://www.w3.org/2000/svg" xmlns:xlink="http://www.w3.org/1999/xlink" version="1.1" x="0" y="0" height="230" width="800" viewBox="0 0 800 230" preserveAspectRatio="none"  >
<g label="Query sequence" class="clusterblast-cluster"  >
<text x="5" y="20" class="clusterblast-acc"  >
Query sequence</text>
<line x1="10" y1="35" x2="778.0" y2="35" style="stroke-width:1; stroke:grey; "  />
<polygon points="0,40 15,40 20,35 15,30 0,30 0,40 " style="fill:white; stroke-width:1; stroke:black; " description="&lt;b&gt;ctg1_2400&lt;/b&gt;&lt;br&gt;ctg1 2400&lt;br&gt;Location: 2551218 - 2552115" locus_tag="ctg1_2400" class="clusterblast-orf" id="dummy-13_q0_0_all"  />
<polygon points="20,40 47,40 52,35 47,30 20,30 20,40 " style="fill:white; stroke-width:1; stroke:black; " description="&lt;b&gt;ctg1_2401&lt;/b&gt;&lt;br&gt;ctg1 2401&lt;br&gt;Location: 2552118 - 2553543" locus_tag="ctg1_2401" class="clusterblast-orf" id="dummy-13_q1_0_all"  />
<polygon points="52,40 76,40 81,35 76,30 52,30 52,40 " style="fill:white; stroke-width:1; stroke:black; " description="&lt;b&gt;ctg1_2402&lt;/b&gt;&lt;br&gt;ctg1 2402&lt;br&gt;Location: 2553547 - 2554852" locus_tag="ctg1_2402" class="clusterblast-orf" id="dummy-13_q2_0_all"  />
<polygon points="86,35 91,30 106,30 106,40 91,40 86,35 " style="fill:white; stroke-width:1; stroke:black; " description="&lt;b&gt;ctg1_2403&lt;/b&gt;&lt;br&gt;ctg1 2403&lt;br&gt;Location: 2555091 - 2555991" locus_tag="ctg1_2403" class="clusterblast-orf" id="dummy-13_q3_0_all"  />
<polygon points="109,35 114,30 122,30 122,40 114,40 109,35 " style="fill:white; stroke-width:1; stroke:black; " description="&lt;b&gt;ctg1_2404&lt;/b&gt;&lt;br&gt;ctg1 2404&lt;br&gt;Location: 2556086 - 2556662" locus_tag="ctg1_2404" class="clusterblast-orf" id="dummy-13_q4_0_all"  />
<polygon points="123,35 128,30 133,30 133,40 128,40 123,35 " style="fill:white; stroke-width:1; stroke:black; " description="&lt;b&gt;ctg1_2405&lt;/b&gt;&lt;br&gt;ctg1 2405&lt;br&gt;Location: 2556722 - 2557172" locus_tag="ctg1_2405" class="clusterblast-orf" id="dummy-13_q5_0_all"  />
<polygon points="133,35 138,30 142,30 142,40 138,40 133,35 " style="fill:white; stroke-width:1; stroke:black; " description="&lt;b&gt;ctg1_2406&lt;/b&gt;&lt;br&gt;ctg1 2406&lt;br&gt;Location: 2557158 - 2557584" locus_tag="ctg1_2406" class="clusterblast-orf" id="dummy-13_q6_0_all"  />
<polygon points="147,40 161,40 166,35 161,30 147,30 147,40 " style="fill:white; stroke-width:1; stroke:black; " description="&lt;b&gt;ctg1_2407&lt;/b&gt;&lt;br&gt;ctg1 2407&lt;br&gt;Location: 2557797 - 2558667" locus_tag="ctg1_2407" class="clusterblast-orf" id="dummy-13_q7_0_all"  />
<polygon points="166,40 182,40 187,35 182,30 166,30 166,40 " style="fill:white; stroke-width:1; stroke:black; " description="&lt;b&gt;ctg1_2408&lt;/b&gt;&lt;br&gt;ctg1 2408&lt;br&gt;Location: 2558670 - 2559570" locus_tag="ctg1_2408" class="clusterblast-orf" id="dummy-13_q8_0_all"  />
<polygon points="187,35 192,30 210,30 210,40 192,40 187,35 " style="fill:#d81515; stroke-width:1; stroke:black; " description="&lt;b&gt;ctg1_2409&lt;/b&gt;&lt;br&gt;ctg1 2409&lt;br&gt;Location: 2559575 - 2560628" locus_tag="ctg1_2409" class="clusterblast-orf" id="dummy-13_q9_0_all"  />
<polygon points="211,35 216,30 222,30 222,40 216,40 211,35 " style="fill:#77d815; stroke-width:1; stroke:black; " description="&lt;b&gt;ctg1_2410&lt;/b&gt;&lt;br&gt;ctg1 2410&lt;br&gt;Location: 2560673 - 2561174" locus_tag="ctg1_2410" class="clusterblast-orf" id="dummy-13_q10_0_all"  />
<polygon points="223,35 228,30 237,30 237,40 228,40 223,35 " style="fill:#15d8d8; stroke-width:1; stroke:black; " description="&lt;b&gt;ctg1_2411&lt;/b&gt;&lt;br&gt;ctg1 2411&lt;br&gt;Location: 2561186 - 2561846" locus_tag="ctg1_2411" class="clusterblast-orf" id="dummy-13_q11_0_all"  />
<polygon points="238,35 243,30 258,30 258,40 243,40 238,35 " style="fill:#7715d8; stroke-width:1; stroke:black; " description="&lt;b&gt;ctg1_2412&lt;/b&gt;&lt;br&gt;ctg1 2412&lt;br&gt;Location: 2561855 - 2562743" locus_tag="ctg1_2412" class="clusterblast-orf" id="dummy-13_q12_0_all"  />
<polygon points="258,35 263,30 288,30 288,40 263,40 258,35 " style="fill:#d85e15; stroke-width:1; stroke:black; " description="&lt;b&gt;ctg1_2413&lt;/b&gt;&lt;br&gt;ctg1 2413&lt;br&gt;Location: 2562763 - 2564125" locus_tag="ctg1_2413" class="clusterblast-orf" id="dummy-13_q13_0_all"  />
<polygon points="289,35 294,30 320,30 320,40 294,40 289,35 " style="fill:#2ed815; stroke-width:1; stroke:black; " description="&lt;b&gt;ctg1_2414&lt;/b&gt;&lt;br&gt;ctg1 2414&lt;br&gt;Location: 2564136 - 2565540" locus_tag="ctg1_2414" class="clusterblast-orf" id="dummy-13_q14_0_all"  />
<polygon points="320,35 325,30 347,30 347,40 325,40 320,35 " style="fill:#158fd8; stroke-width:1; stroke:black; " description="&lt;b&gt;ctg1_2415&lt;/b&gt;&lt;br&gt;ctg1 2415&lt;br&gt;Location: 2565536 - 2566763" locus_tag="ctg1_2415" class="clusterblast-orf" id="dummy-13_q15_0_all"  />
<polygon points="352,35 357,30 379,30 379,40 357,40 352,35 " style="fill:#c015d8; stroke-width:1; stroke:black; " description="&lt;b&gt;ctg1_2416&lt;/b&gt;&lt;br&gt;ctg1 2416&lt;br&gt;Location: 2566979 - 2568167" locus_tag="ctg1_2416" class="clusterblast-orf" id="dummy-13_q16_0_all"  />
<polygon points="379,35 384,30 397,30 397,40 384,40 379,35 " style="fill:#d8a715; stroke-width:1; stroke:black; " description="&lt;b&gt;ctg1_2417&lt;/b&gt;&lt;br&gt;ctg1 2417&lt;br&gt;Location: 2568156 - 2568993" locus_tag="ctg1_2417" class="clusterblast-orf" id="dummy-13_q17_0_all"  />
<polygon points="398,35 403,30 429,30 429,40 403,40 398,35 " style="fill:#15d846; stroke-width:1; stroke:black; " description="&lt;b&gt;ctg1_2418&lt;/b&gt;&lt;br&gt;ctg1 2418&lt;br&gt;Location: 2569003 - 2570407" locus_tag="ctg1_2418" class="clusterblast-orf" id="dummy-13_q18_0_all"  />
<polygon points="429,35 434,30 436,30 436,40 434,40 429,35 " style="fill:#1546d8; stroke-width:1; stroke:black; " description="&lt;b&gt;ctg1_2419&lt;/b&gt;&lt;br&gt;ctg1 2419&lt;br&gt;Location: 2570418 - 2570706" locus_tag="ctg1_2419" class="clusterblast-orf" id="dummy-13_q19_0_all"  />
<polygon points="438,35 443,30 445,30 445,40 443,40 438,35 " style="fill:#77d815; stroke-width:1; stroke:black; " description="&lt;b&gt;ctg1_2420&lt;/b&gt;&lt;br&gt;ctg1 2420&lt;br&gt;Location: 2570812 - 2571106" locus_tag="ctg1_2420" class="clusterblast-orf" id="dummy-13_q20_0_all"  />
<polygon points="445,35 450,30 468,30 468,40 450,40 445,35 " style="fill:#d815a7; stroke-width:1; stroke:black; " description="&lt;b&gt;ctg1_2421&lt;/b&gt;&lt;br&gt;ctg1 2421&lt;br&gt;Location: 2571144 - 2572161" locus_tag="ctg1_2421" class="clusterblast-orf" id="dummy-13_q21_0_all"  />
<polygon points="468,35 473,30 486,30 486,40 473,40 468,35 " style="fill:#c0d815; stroke-width:1; stroke:black; " description="&lt;b&gt;ctg1_2422&lt;/b&gt;&lt;br&gt;ctg1 2422&lt;br&gt;Location: 2572157 - 2572961" locus_tag="ctg1_2422" class="clusterblast-orf" id="dummy-13_q22_0_all"  />
<polygon points="486,35 491,30 502,30 502,40 491,40 486,35 " style="fill:#15d88f; stroke-width:1; stroke:black; " description="&lt;b&gt;ctg1_2423&lt;/b&gt;&lt;br&gt;ctg1 2423&lt;br&gt;Location: 2572957 - 2573659" locus_tag="ctg1_2423" class="clusterblast-orf" id="dummy-13_q23_0_all"  />
<polygon points="501,35 506,30 512,30 512,40 506,40 501,35 " style="fill:#2e15d8; stroke-width:1; stroke:black; " description="&lt;b&gt;ctg1_2424&lt;/b&gt;&lt;br&gt;ctg1 2424&lt;br&gt;Location: 2573633 - 2574113" locus_tag="ctg1_2424" class="clusterblast-orf" id="dummy-13_q24_0_all"  />
<polygon points="512,35 517,30 520,30 520,40 517,40 512,35 " style="fill:#d8155e; stroke-width:1; stroke:black; " description="&lt;b&gt;ctg1_2425&lt;/b&gt;&lt;br&gt;ctg1 2425&lt;br&gt;Location: 2574125 - 2574461" locus_tag="ctg1_2425" class="clusterblast-orf" id="dummy-13_q25_0_all"  />
<polygon points="526,35 531,30 577,30 577,40 531,40 526,35 " style="fill:#d815a7; stroke-width:1; stroke:black; " description="&lt;b&gt;ctg1_2426&lt;/b&gt;&lt;br&gt;ctg1 2426&lt;br&gt;Location: 2574753 - 2577033" locus_tag="ctg1_2426" class="clusterblast-orf" id="dummy-13_q26_0_all"  />
<polygon points="584,40 600,40 605,35 600,30 584,30 584,40 " style="fill:white; stroke-width:1; stroke:black; " description="&lt;b&gt;ctg1_2427&lt;/b&gt;&lt;br&gt;ctg1 2427&lt;br&gt;Location: 2577321 - 2578272" locus_tag="ctg1_2427" class="clusterblast-orf" id="dummy-13_q27_0_all"  />
<polygon points="605,40 645,40 650,35 645,30 605,30 605,40 " style="fill:white; stroke-width:1; stroke:black; " description="&lt;b&gt;ctg1_2428&lt;/b&gt;&lt;br&gt;ctg1 2428&lt;br&gt;Location: 2578291 - 2580295" locus_tag="ctg1_2428" class="clusterblast-orf" id="dummy-13_q28_0_all"  />
<polygon points="652,35 657,30 676,30 676,40 657,40 652,35 " style="fill:white; stroke-width:1; stroke:black; " description="&lt;b&gt;ctg1_2429&lt;/b&gt;&lt;br&gt;ctg1 2429&lt;br&gt;Location: 2580389 - 2581433" locus_tag="ctg1_2429" class="clusterblast-orf" id="dummy-13_q29_0_all"  />
<polygon points="678,35 683,30 691,30 691,40 683,40 678,35 " style="fill:white; stroke-width:1; stroke:black; " description="&lt;b&gt;ctg1_2430&lt;/b&gt;&lt;br&gt;ctg1 2430&lt;br&gt;Location: 2581558 - 2582134" locus_tag="ctg1_2430" class="clusterblast-orf" id="dummy-13_q30_0_all"  />
<polygon points="693,35 698,30 737,30 737,40 698,40 693,35 " style="fill:white; stroke-width:1; stroke:black; " description="&lt;b&gt;ctg1_2431&lt;/b&gt;&lt;br&gt;ctg1 2431&lt;br&gt;Location: 2582201 - 2584181" locus_tag="ctg1_2431" class="clusterblast-orf" id="dummy-13_q31_0_all"  />
<polygon points="742,40 775,40 780,35 775,30 742,30 742,40 " style="fill:white; stroke-width:1; stroke:black; " description="&lt;b&gt;ctg1_2432&lt;/b&gt;&lt;br&gt;ctg1 2432&lt;br&gt;Location: 2584386 - 2586087" locus_tag="ctg1_2432" class="clusterblast-orf" id="dummy-13_q32_0_all"  />
</g>
<g label="MGC0000001" description="MGC0000001_c1: Trimethylamine synthesis C. sporogenes (33% of genes show similarity), TMA" class="clusterblast-cluster"  >
<text x="5" y="70" class="clusterblast-acc"  >
MGC0000001_c1: Trimethylamine synthesis C. sporogenes (33% of genes show similarity), TMA</text>
<line x1="10" y1="85" x2="778.0" y2="85" style="stroke-width:1; stroke:grey; "  />
</g>
<g id="a13_000"  >
<polygon points="326,85 327,80 327,90 326,85 " style="fill:white; stroke-width:1; stroke:black; " description="&lt;b&gt;CLOSPO_RS07645&lt;/b&gt;&lt;br&gt;hypothetical protein&lt;br&gt;Location: 5704 - 5637" locus_tag="CLOSPO_RS07645" class="clusterblast-orf" id="dummy-13_h13_3_0"  />
</g>
<g id="a13_001"  >
<polygon points="327,85 332,80 335,80 335,90 332,90 327,85 " style="fill:#d8155e; stroke-width:1; stroke:black; " description="&lt;b&gt;CLOSPO_RS07640&lt;/b&gt;&lt;br&gt;propanediol utilization protein PduU&lt;br&gt;Location: 5641 - 5287&lt;br&gt;&lt;br&gt;&lt;b&gt;BlastP hit with ctg1_2425&lt;/b&gt;&lt;br&gt;Percentage identity: 51&lt;br&gt;Percentage coverage: 97&lt;br&gt;BLAST bit score: 116&lt;br&gt;E-value: 6.11e-37" locus_tag="CLOSPO_RS07640" class="clusterblast-orf" id="dummy-13_h13_3_1"  />
</g>
<g id="a13_002"  >
<polygon points="336,85 341,80 357,80 357,90 341,90 336,85 " style="fill:white; stroke-width:1; stroke:black; " description="&lt;b&gt;CLOSPO_RS07635&lt;/b&gt;&lt;br&gt;choline TMA-lyase-activating enzyme&lt;br&gt;Location: 5248 - 4294" locus_tag="CLOSPO_RS07635" class="clusterblast-orf" id="dummy-13_h13_3_2"  />
</g>
<g id="a13_003"  >
<polygon points="361,85 366,80 418,80 418,90 366,90 361,85 " style="fill:white; stroke-width:1; stroke:black; " description="&lt;b&gt;CLOSPO_RS07630&lt;/b&gt;&lt;br&gt;choline trimethylamine-lyase&lt;br&gt;Location: 4113 - 1572" locus_tag="CLOSPO_RS07630" class="clusterblast-orf" id="dummy-13_h13_3_3"  />
</g>
<g id="a13_004"  >
<polygon points="419,85 424,80 452,80 452,90 424,90 419,85 " style="fill:white; stroke-width:1; stroke:black; " description="&lt;b&gt;CLOSPO_RS07625&lt;/b&gt;&lt;br&gt;acetaldehyde dehydrogenase&lt;br&gt;Location: 1523 - 41" locus_tag="CLOSPO_RS07625" class="clusterblast-orf" id="dummy-13_h13_3_4"  />
</g>
<g id="a13_005"  >
<polygon points="453,85 453,80 453,90 453,85 " style="fill:#77d815; stroke-width:1; stroke:black; " description="&lt;b&gt;CLOSPO_RS07620&lt;/b&gt;&lt;br&gt;hypothetical protein&lt;br&gt;Location: 4 - 0&lt;br&gt;&lt;br&gt;&lt;b&gt;BlastP hit with ctg1_2410&lt;/b&gt;&lt;br&gt;Percentage identity: 41&lt;br&gt;Percentage coverage: 54&lt;br&gt;BLAST bit score: 67&lt;br&gt;E-value: 3.55e-17&lt;br&gt;&lt;br&gt;&lt;b&gt;BlastP hit with ctg1_2420&lt;/b&gt;&lt;br&gt;Percentage identity: 54&lt;br&gt;Percentage coverage: 90&lt;br&gt;BLAST bit score: 82&lt;br&gt;E-value: 7.69e-24" locus_tag="CLOSPO_RS07620" class="clusterblast-orf" id="dummy-13_h13_3_5"  />
</g>
</svg>
