<svg xmlns="http://www.w3.org/2000/svg" xmlns:xlink="http://www.w3.org/1999/xlink" version="1.1" x="0" y="0" height="100" width="800" viewBox="0 0 800 100" preserveAspectRatio="none"  >
<g label="Query sequence" class="clusterblast-cluster"  >
<text x="5" y="20" class="clusterblast-acc"  >
Query sequence</text>
<line x1="10" y1="35" x2="778.0" y2="35" style="stroke-width:1; stroke:grey; "  />
<polygon points="0,40 15,40 20,35 15,30 0,30 0,40 " style="fill:white; stroke-width:1; stroke:black; " description="&lt;b&gt;ctg1_3034&lt;/b&gt;&lt;br&gt;ctg1 3034&lt;br&gt;Location: 3245307 - 3246084" locus_tag="ctg1_3034" class="clusterblast-orf" id="knownclusterblast-16_q0_0_all"  />
<polygon points="29,40 42,40 47,35 42,30 29,30 29,40 " style="fill:white; stroke-width:1; stroke:black; " description="&lt;b&gt;ctg1_3035&lt;/b&gt;&lt;br&gt;ctg1 3035&lt;br&gt;Location: 3246428 - 3247091" locus_tag="ctg1_3035" class="clusterblast-orf" id="knownclusterblast-16_q1_0_all"  />
<polygon points="47,40 52,40 57,35 52,30 47,30 47,40 " style="fill:white; stroke-width:1; stroke:black; " description="&lt;b&gt;ctg1_3036&lt;/b&gt;&lt;br&gt;ctg1 3036&lt;br&gt;Location: 3247094 - 3247478" locus_tag="ctg1_3036" class="clusterblast-orf" id="knownclusterblast-16_q2_0_all"  />
<polygon points="61,40 66,40 71,35 66,30 61,30 61,40 " style="fill:white; stroke-width:1; stroke:black; " description="&lt;b&gt;ctg1_3037&lt;/b&gt;&lt;br&gt;ctg1 3037&lt;br&gt;Location: 3247624 - 3247993" locus_tag="ctg1_3037" class="clusterblast-orf" id="knownclusterblast-16_q3_0_all"  />
<polygon points="72,40 75,40 80,35 75,30 72,30 72,40 " style="fill:white; stroke-width:1; stroke:black; " description="&lt;b&gt;ctg1_3038&lt;/b&gt;&lt;br&gt;ctg1 3038&lt;br&gt;Location: 3248030 - 3248336" locus_tag="ctg1_3038" class="clusterblast-orf" id="knownclusterblast-16_q4_0_all"  />
<polygon points="80,40 86,40 91,35 86,30 80,30 80,40 " style="fill:white; stroke-width:1; stroke:black; " description="&lt;b&gt;ctg1_3039&lt;/b&gt;&lt;br&gt;ctg1 3039&lt;br&gt;Location: 3248338 - 3248743" locus_tag="ctg1_3039" class="clusterblast-orf" id="knownclusterblast-16_q5_0_all"  />
<polygon points="90,40 93,40 98,35 93,30 90,30 90,40 " style="fill:white; stroke-width:1; stroke:black; " description="&lt;b&gt;ctg1_3040&lt;/b&gt;&lt;br&gt;ctg1 3040&lt;br&gt;Location: 3248732 - 3249032" locus_tag="ctg1_3040" class="clusterblast-orf" id="knownclusterblast-16_q6_0_all"  />
<polygon points="101,40 109,40 114,35 109,30 101,30 101,40 " style="fill:white; stroke-width:1; stroke:black; " description="&lt;b&gt;ctg1_3041&lt;/b&gt;&lt;br&gt;ctg1 3041&lt;br&gt;Location: 3249127 - 3249610" locus_tag="ctg1_3041" class="clusterblast-orf" id="knownclusterblast-16_q7_0_all"  />
<polygon points="116,40 137,40 142,35 137,30 116,30 116,40 " style="fill:white; stroke-width:1; stroke:black; " description="&lt;b&gt;ctg1_3042&lt;/b&gt;&lt;br&gt;ctg1 3042&lt;br&gt;Location: 3249679 - 3250666" locus_tag="ctg1_3042" class="clusterblast-orf" id="knownclusterblast-16_q8_0_all"  />
<polygon points="149,40 154,40 159,35 154,30 149,30 149,40 " style="fill:white; stroke-width:1; stroke:black; " description="&lt;b&gt;ctg1_3043&lt;/b&gt;&lt;br&gt;ctg1 3043&lt;br&gt;Location: 3250959 - 3251325" locus_tag="ctg1_3043" class="clusterblast-orf" id="knownclusterblast-16_q9_0_all"  />
<polygon points="166,40 170,40 175,35 170,30 166,30 166,40 " style="fill:white; stroke-width:1; stroke:black; " description="&lt;b&gt;ctg1_3044&lt;/b&gt;&lt;br&gt;ctg1 3044&lt;br&gt;Location: 3251566 - 3251923" locus_tag="ctg1_3044" class="clusterblast-orf" id="knownclusterblast-16_q10_0_all"  />
<polygon points="176,35 181,30 200,30 200,40 181,40 176,35 " style="fill:white; stroke-width:1; stroke:black; " description="&lt;b&gt;ctg1_3045&lt;/b&gt;&lt;br&gt;ctg1 3045&lt;br&gt;Location: 3251973 - 3252870" locus_tag="ctg1_3045" class="clusterblast-orf" id="knownclusterblast-16_q11_0_all"  />
<polygon points="203,40 216,40 221,35 216,30 203,30 203,40 " style="fill:white; stroke-width:1; stroke:black; " description="&lt;b&gt;ctg1_3046&lt;/b&gt;&lt;br&gt;ctg1 3046&lt;br&gt;Location: 3252974 - 3253676" locus_tag="ctg1_3046" class="clusterblast-orf" id="knownclusterblast-16_q12_0_all"  />
<polygon points="222,40 226,35 222,30 222,40 " style="fill:white; stroke-width:1; stroke:black; " description="&lt;b&gt;ctg1_3047&lt;/b&gt;&lt;br&gt;ctg1 3047&lt;br&gt;Location: 3253698 - 3253863" locus_tag="ctg1_3047" class="clusterblast-orf" id="knownclusterblast-16_q13_0_all"  />
<polygon points="230,35 235,30 265,30 265,40 235,40 230,35 " style="fill:#d81515; stroke-width:1; stroke:black; " description="&lt;b&gt;ctg1_3048&lt;/b&gt;&lt;br&gt;ctg1 3048&lt;br&gt;Location: 3253996 - 3255307" locus_tag="ctg1_3048" class="clusterblast-orf" id="knownclusterblast-16_q14_0_all"  />
<polygon points="265,35 270,30 301,30 301,40 270,40 265,35 " style="fill:#15d815; stroke-width:1; stroke:black; " description="&lt;b&gt;ctg1_3049&lt;/b&gt;&lt;br&gt;ctg1 3049&lt;br&gt;Location: 3255334 - 3256666" locus_tag="ctg1_3049" class="clusterblast-orf" id="knownclusterblast-16_q15_0_all"  />
<polygon points="308,35 313,30 344,30 344,40 313,40 308,35 " style="fill:#1597d8; stroke-width:1; stroke:black; " description="&lt;b&gt;ctg1_3050&lt;/b&gt;&lt;br&gt;ctg1 3050&lt;br&gt;Location: 3256940 - 3258305" locus_tag="ctg1_3050" class="clusterblast-orf" id="knownclusterblast-16_q16_0_all"  />
<polygon points="346,35 351,30 356,30 356,40 351,40 346,35 " style="fill:#9715d8; stroke-width:1; stroke:black; " description="&lt;b&gt;ctg1_3051&lt;/b&gt;&lt;br&gt;ctg1 3051&lt;br&gt;Location: 3258376 - 3258766" locus_tag="ctg1_3051" class="clusterblast-orf" id="knownclusterblast-16_q17_0_all"  />
<polygon points="357,35 362,30 417,30 417,40 362,40 357,35 " style="fill:#d89715; stroke-width:1; stroke:black; " description="&lt;b&gt;ctg1_3052&lt;/b&gt;&lt;br&gt;ctg1 3052&lt;br&gt;Location: 3258779 - 3261074" locus_tag="ctg1_3052" class="clusterblast-orf" id="knownclusterblast-16_q18_0_all"  />
<polygon points="421,40 442,40 447,35 442,30 421,30 421,40 " style="fill:white; stroke-width:1; stroke:black; " description="&lt;b&gt;ctg1_3053&lt;/b&gt;&lt;br&gt;ctg1 3053&lt;br&gt;Location: 3261201 - 3262182" locus_tag="ctg1_3053" class="clusterblast-orf" id="knownclusterblast-16_q19_0_all"  />
<polygon points="448,35 453,30 482,30 482,40 453,40 448,35 " style="fill:#15d897; stroke-width:1; stroke:black; " description="&lt;b&gt;ctg1_3054&lt;/b&gt;&lt;br&gt;ctg1 3054&lt;br&gt;Location: 3262219 - 3263515" locus_tag="ctg1_3054" class="clusterblast-orf" id="knownclusterblast-16_q20_0_all"  />
<polygon points="483,35 488,30 518,30 518,40 488,40 483,35 " style="fill:#1515d8; stroke-width:1; stroke:black; " description="&lt;b&gt;ctg1_3055&lt;/b&gt;&lt;br&gt;ctg1 3055&lt;br&gt;Location: 3263540 - 3264872" locus_tag="ctg1_3055" class="clusterblast-orf" id="knownclusterblast-16_q21_0_all"  />
<polygon points="518,35 523,30 545,30 545,40 523,40 518,35 " style="fill:#d81597; stroke-width:1; stroke:black; " description="&lt;b&gt;ctg1_3056&lt;/b&gt;&lt;br&gt;ctg1 3056&lt;br&gt;Location: 3264893 - 3265883" locus_tag="ctg1_3056" class="clusterblast-orf" id="knownclusterblast-16_q22_0_all"  />
<polygon points="547,35 552,30 572,30 572,40 552,40 547,35 " style="fill:#97d815; stroke-width:1; stroke:black; " description="&lt;b&gt;ctg1_3057&lt;/b&gt;&lt;br&gt;ctg1 3057&lt;br&gt;Location: 3265981 - 3266920" locus_tag="ctg1_3057" class="clusterblast-orf" id="knownclusterblast-16_q23_0_all"  />
<polygon points="593,40 602,40 607,35 602,30 593,30 593,40 " style="fill:white; stroke-width:1; stroke:black; " description="&lt;b&gt;ctg1_3058&lt;/b&gt;&lt;br&gt;ctg1 3058&lt;br&gt;Location: 3267708 - 3268248" locus_tag="ctg1_3058" class="clusterblast-orf" id="knownclusterblast-16_q24_0_all"  />
<polygon points="608,40 634,40 639,35 634,30 608,30 608,40 " style="fill:white; stroke-width:1; stroke:black; " description="&lt;b&gt;ctg1_3059&lt;/b&gt;&lt;br&gt;ctg1 3059&lt;br&gt;Location: 3268269 - 3269457" locus_tag="ctg1_3059" class="clusterblast-orf" id="knownclusterblast-16_q25_0_all"  />
<polygon points="666,35 671,30 697,30 697,40 671,40 666,35 " style="fill:white; stroke-width:1; stroke:black; " description="&lt;b&gt;ctg1_3060&lt;/b&gt;&lt;br&gt;ctg1 3060&lt;br&gt;Location: 3270479 - 3271625" locus_tag="ctg1_3060" class="clusterblast-orf" id="knownclusterblast-16_q26_0_all"  />
<polygon points="699,35 704,30 723,30 723,40 704,40 699,35 " style="fill:white; stroke-width:1; stroke:black; " description="&lt;b&gt;ctg1_3061&lt;/b&gt;&lt;br&gt;ctg1 3061&lt;br&gt;Location: 3271721 - 3272612" locus_tag="ctg1_3061" class="clusterblast-orf" id="knownclusterblast-16_q27_0_all"  />
<polygon points="724,35 729,30 744,30 744,40 729,40 724,35 " style="fill:white; stroke-width:1; stroke:black; " description="&lt;b&gt;ctg1_3062&lt;/b&gt;&lt;br&gt;ctg1 3062&lt;br&gt;Location: 3272641 - 3273412" locus_tag="ctg1_3062" class="clusterblast-orf" id="knownclusterblast-16_q28_0_all"  />
<polygon points="744,35 749,30 780,30 780,40 749,40 744,35 " style="fill:white; stroke-width:1; stroke:black; " description="&lt;b&gt;ctg1_3063&lt;/b&gt;&lt;br&gt;ctg1 3063&lt;br&gt;Location: 3273427 - 3274762" locus_tag="ctg1_3063" class="clusterblast-orf" id="knownclusterblast-16_q29_0_all"  />
</g>
<g label="MGC00000030" description="MGC00000030_c1: Threonine to propionate E. coli (90% of genes show similarity), PROP" class="clusterblast-cluster"  >
<text x="5" y="70" class="clusterblast-acc"  >
MGC00000030_c1: Threonine to propionate E. coli (90% of genes show similarity), PROP</text>
<line x1="10" y1="85" x2="778.0" y2="85" style="stroke-width:1; stroke:grey; "  />
</g>
<g id="a16_000"  >
<polygon points="234,85 239,80 269,80 269,90 239,90 234,85 " style="fill:#d81515; stroke-width:1; stroke:black; " description="&lt;b&gt;L960_3808&lt;/b&gt;&lt;br&gt;hypothetical protein&lt;br&gt;Location: 21726 - 20415&lt;br&gt;&lt;br&gt;&lt;b&gt;BlastP hit with ctg1_3048&lt;/b&gt;&lt;br&gt;Percentage identity: 100&lt;br&gt;Percentage coverage: 100&lt;br&gt;BLAST bit score: 815&lt;br&gt;E-value: 1.07e-302" locus_tag="L960_3808" class="clusterblast-orf" id="knownclusterblast-16_all_16_1_0"  />
</g>
<g id="a16_001"  >
<polygon points="270,85 275,80 305,80 305,90 275,90 270,85 " style="fill:#15d815; stroke-width:1; stroke:black; " description="&lt;b&gt;L960_3807&lt;/b&gt;&lt;br&gt;serine transporter family protein&lt;br&gt;Location: 20388 - 19056&lt;br&gt;&lt;br&gt;&lt;b&gt;BlastP hit with ctg1_3049&lt;/b&gt;&lt;br&gt;Percentage identity: 100&lt;br&gt;Percentage coverage: 100&lt;br&gt;BLAST bit score: 832&lt;br&gt;E-value: 2.57e-309" locus_tag="L960_3807" class="clusterblast-orf" id="knownclusterblast-16_all_16_1_1"  />
</g>
<g id="a16_002"  >
<polygon points="312,85 317,80 347,80 347,90 317,90 312,85 " style="fill:#1597d8; stroke-width:1; stroke:black; " description="&lt;b&gt;L960_3806&lt;/b&gt;&lt;br&gt;L-serine dehydratase 3&lt;br&gt;Location: 18782 - 17483&lt;br&gt;&lt;br&gt;&lt;b&gt;BlastP hit with ctg1_3050&lt;/b&gt;&lt;br&gt;Percentage identity: 100&lt;br&gt;Percentage coverage: 95&lt;br&gt;BLAST bit score: 853&lt;br&gt;E-value: 1.09e-317" locus_tag="L960_3806" class="clusterblast-orf" id="knownclusterblast-16_all_16_1_2"  />
</g>
<g id="a16_003"  >
<polygon points="350,85 355,80 361,80 361,90 355,90 350,85 " style="fill:#9715d8; stroke-width:1; stroke:black; " description="&lt;b&gt;L960_3805&lt;/b&gt;&lt;br&gt;hypothetical protein&lt;br&gt;Location: 17346 - 16956&lt;br&gt;&lt;br&gt;&lt;b&gt;BlastP hit with ctg1_3051&lt;/b&gt;&lt;br&gt;Percentage identity: 100&lt;br&gt;Percentage coverage: 100&lt;br&gt;BLAST bit score: 252&lt;br&gt;E-value: 3.05e-90" locus_tag="L960_3805" class="clusterblast-orf" id="knownclusterblast-16_all_16_1_3"  />
</g>
<g id="a16_004"  >
<polygon points="361,85 366,80 422,80 422,90 366,90 361,85 " style="fill:#d89715; stroke-width:1; stroke:black; " description="&lt;b&gt;L960_3804&lt;/b&gt;&lt;br&gt;pyruvate formate-lyase 4/2-ketobutyrate formate-lyase&lt;br&gt;Location: 16943 - 14648&lt;br&gt;&lt;br&gt;&lt;b&gt;BlastP hit with ctg1_3052&lt;/b&gt;&lt;br&gt;Percentage identity: 100&lt;br&gt;Percentage coverage: 100&lt;br&gt;BLAST bit score: 1528&lt;br&gt;E-value: 0.0" locus_tag="L960_3804" class="clusterblast-orf" id="knownclusterblast-16_all_16_1_4"  />
</g>
<g id="a16_005"  >
<polygon points="423,85 428,80 455,80 455,90 428,90 423,85 " style="fill:#15d897; stroke-width:1; stroke:black; " description="&lt;b&gt;L960_3803&lt;/b&gt;&lt;br&gt;propionate/acetate kinase&lt;br&gt;Location: 14615 - 13406&lt;br&gt;&lt;br&gt;&lt;b&gt;BlastP hit with ctg1_3054&lt;/b&gt;&lt;br&gt;Percentage identity: 99&lt;br&gt;Percentage coverage: 93&lt;br&gt;BLAST bit score: 773&lt;br&gt;E-value: 6.95e-287" locus_tag="L960_3803" class="clusterblast-orf" id="knownclusterblast-16_all_16_1_5"  />
</g>
<g id="a16_006"  >
<polygon points="455,85 460,80 490,80 490,90 460,90 455,85 " style="fill:#1515d8; stroke-width:1; stroke:black; " description="&lt;b&gt;L960_3802&lt;/b&gt;&lt;br&gt;threonine/serine transporter TdcC&lt;br&gt;Location: 13381 - 12049&lt;br&gt;&lt;br&gt;&lt;b&gt;BlastP hit with ctg1_3055&lt;/b&gt;&lt;br&gt;Percentage identity: 100&lt;br&gt;Percentage coverage: 100&lt;br&gt;BLAST bit score: 848&lt;br&gt;E-value: 7.19e-316" locus_tag="L960_3802" class="clusterblast-orf" id="knownclusterblast-16_all_16_1_6"  />
</g>
<g id="a16_007"  >
<polygon points="491,85 496,80 510,80 510,90 496,90 491,85 " style="fill:#d81597; stroke-width:1; stroke:black; " description="&lt;b&gt;L960_3801&lt;/b&gt;&lt;br&gt;tdcB&lt;br&gt;Location: 12028 - 11323&lt;br&gt;&lt;br&gt;&lt;b&gt;BlastP hit with ctg1_3056&lt;/b&gt;&lt;br&gt;Percentage identity: 100&lt;br&gt;Percentage coverage: 71&lt;br&gt;BLAST bit score: 456&lt;br&gt;E-value: 4.08e-166" locus_tag="L960_3801" class="clusterblast-orf" id="knownclusterblast-16_all_16_1_7"  />
</g>
<g id="a16_008"  >
<polygon points="509,85 514,80 517,80 517,90 514,90 509,85 " style="fill:white; stroke-width:1; stroke:black; " description="&lt;b&gt;L960_3800&lt;/b&gt;&lt;br&gt;threonine ammonia-lyase&lt;br&gt;Location: 11343 - 11037" locus_tag="L960_3800" class="clusterblast-orf" id="knownclusterblast-16_all_16_1_8"  />
</g>
<g id="a16_009"  >
<polygon points="520,85 525,80 545,80 545,90 525,90 520,85 " style="fill:#97d815; stroke-width:1; stroke:black; " description="&lt;b&gt;L960_3799&lt;/b&gt;&lt;br&gt;DNA-binding transcriptional activator TdcA&lt;br&gt;Location: 10939 - 10000&lt;br&gt;&lt;br&gt;&lt;b&gt;BlastP hit with ctg1_3057&lt;/b&gt;&lt;br&gt;Percentage identity: 100&lt;br&gt;Percentage coverage: 100&lt;br&gt;BLAST bit score: 598&lt;br&gt;E-value: 2.19e-221" locus_tag="L960_3799" class="clusterblast-orf" id="knownclusterblast-16_all_16_1_9"  />
</g>
</svg>
