<svg xmlns="http://www.w3.org/2000/svg" xmlns:xlink="http://www.w3.org/1999/xlink" version="1.1" x="0" y="0" height="100" width="800" viewBox="0 0 800 100" preserveAspectRatio="none"  >
<g label="Query sequence" class="clusterblast-cluster"  >
<text x="5" y="20" class="clusterblast-acc"  >
Query sequence</text>
<line x1="10" y1="35" x2="778.0" y2="35" style="stroke-width:1; stroke:grey; "  />
<polygon points="0,35 3,30 3,40 0,35 " style="fill:#d81515; stroke-width:1; stroke:black; " description="&lt;b&gt;ctg1_1191&lt;/b&gt;&lt;br&gt;ctg1 1191&lt;br&gt;Location: 1271814 - 1271922" locus_tag="ctg1_1191" class="clusterblast-orf" id="knownclusterblast-5_q0_0_all"  />
<polygon points="16,35 21,30 50,30 50,40 21,40 16,35 " style="fill:white; stroke-width:1; stroke:black; " description="&lt;b&gt;ctg1_1192&lt;/b&gt;&lt;br&gt;ctg1 1192&lt;br&gt;Location: 1272325 - 1273426" locus_tag="ctg1_1192" class="clusterblast-orf" id="knownclusterblast-5_q1_0_all"  />
<polygon points="58,40 60,40 65,35 60,30 58,30 58,40 " style="fill:white; stroke-width:1; stroke:black; " description="&lt;b&gt;ctg1_1193&lt;/b&gt;&lt;br&gt;ctg1 1193&lt;br&gt;Location: 1273695 - 1273926" locus_tag="ctg1_1193" class="clusterblast-orf" id="knownclusterblast-5_q2_0_all"  />
<polygon points="70,40 87,40 92,35 87,30 70,30 70,40 " style="fill:white; stroke-width:1; stroke:black; " description="&lt;b&gt;ctg1_1194&lt;/b&gt;&lt;br&gt;ctg1 1194&lt;br&gt;Location: 1274062 - 1274779" locus_tag="ctg1_1194" class="clusterblast-orf" id="knownclusterblast-5_q3_0_all"  />
<polygon points="93,35 98,30 104,30 104,40 98,40 93,35 " style="fill:white; stroke-width:1; stroke:black; " description="&lt;b&gt;ctg1_1195&lt;/b&gt;&lt;br&gt;ctg1 1195&lt;br&gt;Location: 1274822 - 1275176" locus_tag="ctg1_1195" class="clusterblast-orf" id="knownclusterblast-5_q4_0_all"  />
<polygon points="110,40 148,40 153,35 148,30 110,30 110,40 " style="fill:white; stroke-width:1; stroke:black; " description="&lt;b&gt;ctg1_1196&lt;/b&gt;&lt;br&gt;ctg1 1196&lt;br&gt;Location: 1275360 - 1276755" locus_tag="ctg1_1196" class="clusterblast-orf" id="knownclusterblast-5_q5_0_all"  />
<polygon points="153,35 158,30 174,30 174,40 158,40 153,35 " style="fill:white; stroke-width:1; stroke:black; " description="&lt;b&gt;ctg1_1197&lt;/b&gt;&lt;br&gt;ctg1 1197&lt;br&gt;Location: 1276755 - 1277406" locus_tag="ctg1_1197" class="clusterblast-orf" id="knownclusterblast-5_q6_0_all"  />
<polygon points="173,35 178,30 229,30 229,40 178,40 173,35 " style="fill:white; stroke-width:1; stroke:black; " description="&lt;b&gt;ctg1_1198&lt;/b&gt;&lt;br&gt;ctg1 1198&lt;br&gt;Location: 1277398 - 1279195" locus_tag="ctg1_1198" class="clusterblast-orf" id="knownclusterblast-5_q7_0_all"  />
<polygon points="230,40 232,40 237,35 232,30 230,30 230,40 " style="fill:white; stroke-width:1; stroke:black; " description="&lt;b&gt;ctg1_1199&lt;/b&gt;&lt;br&gt;ctg1 1199&lt;br&gt;Location: 1279220 - 1279439" locus_tag="ctg1_1199" class="clusterblast-orf" id="knownclusterblast-5_q8_0_all"  />
<polygon points="240,40 278,40 283,35 278,30 240,30 240,40 " style="fill:white; stroke-width:1; stroke:black; " description="&lt;b&gt;ctg1_1200&lt;/b&gt;&lt;br&gt;ctg1 1200&lt;br&gt;Location: 1279533 - 1280925" locus_tag="ctg1_1200" class="clusterblast-orf" id="knownclusterblast-5_q9_0_all"  />
<polygon points="299,40 411,40 416,35 411,30 299,30 299,40 " style="fill:#15d863; stroke-width:1; stroke:black; " description="&lt;b&gt;ctg1_1201&lt;/b&gt;&lt;br&gt;ctg1 1201&lt;br&gt;Location: 1281440 - 1285184" locus_tag="ctg1_1201" class="clusterblast-orf" id="knownclusterblast-5_q10_0_all"  />
<polygon points="415,40 458,40 463,35 458,30 415,30 415,40 " style="fill:#1563d8; stroke-width:1; stroke:black; " description="&lt;b&gt;ctg1_1202&lt;/b&gt;&lt;br&gt;ctg1 1202&lt;br&gt;Location: 1285180 - 1286719" locus_tag="ctg1_1202" class="clusterblast-orf" id="knownclusterblast-5_q11_0_all"  />
<polygon points="463,40 480,40 485,35 480,30 463,30 463,40 " style="fill:#b115d8; stroke-width:1; stroke:black; " description="&lt;b&gt;ctg1_1203&lt;/b&gt;&lt;br&gt;ctg1 1203&lt;br&gt;Location: 1286715 - 1287426" locus_tag="ctg1_1203" class="clusterblast-orf" id="knownclusterblast-5_q12_0_all"  />
<polygon points="485,40 501,40 506,35 501,30 485,30 485,40 " style="fill:#b1d815; stroke-width:1; stroke:black; " description="&lt;b&gt;ctg1_1204&lt;/b&gt;&lt;br&gt;ctg1 1204&lt;br&gt;Location: 1287425 - 1288103" locus_tag="ctg1_1204" class="clusterblast-orf" id="knownclusterblast-5_q13_0_all"  />
<polygon points="523,40 536,40 541,35 536,30 523,30 523,40 " style="fill:white; stroke-width:1; stroke:black; " description="&lt;b&gt;ctg1_1205&lt;/b&gt;&lt;br&gt;ctg1 1205&lt;br&gt;Location: 1288641 - 1289208" locus_tag="ctg1_1205" class="clusterblast-orf" id="knownclusterblast-5_q14_0_all"  />
<polygon points="545,35 550,30 572,30 572,40 550,40 545,35 " style="fill:white; stroke-width:1; stroke:black; " description="&lt;b&gt;ctg1_1206&lt;/b&gt;&lt;br&gt;ctg1 1206&lt;br&gt;Location: 1289358 - 1290201" locus_tag="ctg1_1206" class="clusterblast-orf" id="knownclusterblast-5_q15_0_all"  />
<polygon points="573,35 578,30 587,30 587,40 578,40 573,35 " style="fill:white; stroke-width:1; stroke:black; " description="&lt;b&gt;ctg1_1207&lt;/b&gt;&lt;br&gt;ctg1 1207&lt;br&gt;Location: 1290250 - 1290709" locus_tag="ctg1_1207" class="clusterblast-orf" id="knownclusterblast-5_q16_0_all"  />
<polygon points="590,40 614,40 619,35 614,30 590,30 590,40 " style="fill:white; stroke-width:1; stroke:black; " description="&lt;b&gt;ctg1_1208&lt;/b&gt;&lt;br&gt;ctg1 1208&lt;br&gt;Location: 1290782 - 1291727" locus_tag="ctg1_1208" class="clusterblast-orf" id="knownclusterblast-5_q17_0_all"  />
<polygon points="622,40 648,40 653,35 648,30 622,30 622,40 " style="fill:white; stroke-width:1; stroke:black; " description="&lt;b&gt;ctg1_1209&lt;/b&gt;&lt;br&gt;ctg1 1209&lt;br&gt;Location: 1291818 - 1292832" locus_tag="ctg1_1209" class="clusterblast-orf" id="knownclusterblast-5_q18_0_all"  />
<polygon points="660,40 683,40 688,35 683,30 660,30 660,40 " style="fill:white; stroke-width:1; stroke:black; " description="&lt;b&gt;ctg1_1210&lt;/b&gt;&lt;br&gt;ctg1 1210&lt;br&gt;Location: 1293033 - 1293942" locus_tag="ctg1_1210" class="clusterblast-orf" id="knownclusterblast-5_q19_0_all"  />
<polygon points="692,35 697,30 705,30 705,40 697,40 692,35 " style="fill:white; stroke-width:1; stroke:black; " description="&lt;b&gt;ctg1_1211&lt;/b&gt;&lt;br&gt;ctg1 1211&lt;br&gt;Location: 1294085 - 1294499" locus_tag="ctg1_1211" class="clusterblast-orf" id="knownclusterblast-5_q20_0_all"  />
<polygon points="724,40 738,40 743,35 738,30 724,30 724,40 " style="fill:white; stroke-width:1; stroke:black; " description="&lt;b&gt;ctg1_1212&lt;/b&gt;&lt;br&gt;ctg1 1212&lt;br&gt;Location: 1295103 - 1295721" locus_tag="ctg1_1212" class="clusterblast-orf" id="knownclusterblast-5_q21_0_all"  />
<polygon points="752,35 757,30 770,30 770,40 757,40 752,35 " style="fill:white; stroke-width:1; stroke:black; " description="&lt;b&gt;ctg1_1213&lt;/b&gt;&lt;br&gt;ctg1 1213&lt;br&gt;Location: 1296002 - 1296593" locus_tag="ctg1_1213" class="clusterblast-orf" id="knownclusterblast-5_q22_0_all"  />
<polygon points="774,35 779,30 780,30 780,40 779,40 774,35 " style="fill:white; stroke-width:1; stroke:black; " description="&lt;b&gt;ctg1_1214&lt;/b&gt;&lt;br&gt;ctg1 1214&lt;br&gt;Location: 1296713 - 1296899" locus_tag="ctg1_1214" class="clusterblast-orf" id="knownclusterblast-5_q23_0_all"  />
</g>
<g label="MGC00000045" description="MGC00000045_c1: Nitrate reductase E. coli (100% of genes show similarity), NIR" class="clusterblast-cluster"  >
<text x="5" y="70" class="clusterblast-acc"  >
MGC00000045_c1: Nitrate reductase E. coli (100% of genes show similarity), NIR</text>
<line x1="10" y1="85" x2="778.0" y2="85" style="stroke-width:1; stroke:grey; "  />
</g>
<g id="a5_000"  >
<polygon points="136,85 140,80 140,90 136,85 " style="fill:#d81515; stroke-width:1; stroke:black; " description="&lt;b&gt;b4423&lt;/b&gt;&lt;br&gt;small toxic polypeptide LdrC&lt;br&gt;Location: 0 - 108&lt;br&gt;&lt;br&gt;&lt;b&gt;BlastP hit with ctg1_1191&lt;/b&gt;&lt;br&gt;Percentage identity: 100&lt;br&gt;Percentage coverage: 100&lt;br&gt;BLAST bit score: 77&lt;br&gt;E-value: 1.12e-23" locus_tag="b4423" class="clusterblast-orf" id="knownclusterblast-5_all_5_1_0"  />
</g>
<g id="a5_001"  >
<polygon points="436,90 547,90 552,85 547,80 436,80 436,90 " style="fill:#15d863; stroke-width:1; stroke:black; " description="&lt;b&gt;b1224&lt;/b&gt;&lt;br&gt;nitrate reductase A subunit alpha&lt;br&gt;Location: 9626 - 13370&lt;br&gt;&lt;br&gt;&lt;b&gt;BlastP hit with ctg1_1201&lt;/b&gt;&lt;br&gt;Percentage identity: 100&lt;br&gt;Percentage coverage: 100&lt;br&gt;BLAST bit score: 2603&lt;br&gt;E-value: 0.0" locus_tag="b1224" class="clusterblast-orf" id="knownclusterblast-5_all_5_1_1"  />
</g>
<g id="a5_002"  >
<polygon points="552,90 595,90 600,85 595,80 552,80 552,90 " style="fill:#1563d8; stroke-width:1; stroke:black; " description="&lt;b&gt;b1225&lt;/b&gt;&lt;br&gt;nitrate reductase A subunit beta&lt;br&gt;Location: 13366 - 14905&lt;br&gt;&lt;br&gt;&lt;b&gt;BlastP hit with ctg1_1202&lt;/b&gt;&lt;br&gt;Percentage identity: 100&lt;br&gt;Percentage coverage: 100&lt;br&gt;BLAST bit score: 1067&lt;br&gt;E-value: 0.0" locus_tag="b1225" class="clusterblast-orf" id="knownclusterblast-5_all_5_1_2"  />
</g>
<g id="a5_003"  >
<polygon points="600,90 617,90 622,85 617,80 600,80 600,90 " style="fill:#b115d8; stroke-width:1; stroke:black; " description="&lt;b&gt;b1226&lt;/b&gt;&lt;br&gt;nitrate reductase 1 molybdenum cofactor assembly chaperone&lt;br&gt;Location: 14901 - 15612&lt;br&gt;&lt;br&gt;&lt;b&gt;BlastP hit with ctg1_1203&lt;/b&gt;&lt;br&gt;Percentage identity: 100&lt;br&gt;Percentage coverage: 100&lt;br&gt;BLAST bit score: 460&lt;br&gt;E-value: 4.67e-169" locus_tag="b1226" class="clusterblast-orf" id="knownclusterblast-5_all_5_1_3"  />
</g>
<g id="a5_004"  >
<polygon points="622,90 638,90 643,85 638,80 622,80 622,90 " style="fill:#b1d815; stroke-width:1; stroke:black; " description="&lt;b&gt;b1227&lt;/b&gt;&lt;br&gt;nitrate reductase A subunit gamma&lt;br&gt;Location: 15611 - 16289&lt;br&gt;&lt;br&gt;&lt;b&gt;BlastP hit with ctg1_1204&lt;/b&gt;&lt;br&gt;Percentage identity: 100&lt;br&gt;Percentage coverage: 100&lt;br&gt;BLAST bit score: 449&lt;br&gt;E-value: 2.62e-165" locus_tag="b1227" class="clusterblast-orf" id="knownclusterblast-5_all_5_1_4"  />
</g>
</svg>
