<svg xmlns="http://www.w3.org/2000/svg" xmlns:xlink="http://www.w3.org/1999/xlink" version="1.1" x="0" y="0" height="230" width="800" viewBox="0 0 800 230" preserveAspectRatio="none"  >
<g label="Query sequence" class="clusterblast-cluster"  >
<text x="5" y="20" class="clusterblast-acc"  >
Query sequence</text>
<line x1="10" y1="35" x2="778.0" y2="35" style="stroke-width:1; stroke:grey; "  />
<polygon points="0,35 5,30 7,30 7,40 5,40 0,35 " style="fill:white; stroke-width:1; stroke:black; " description="&lt;b&gt;ctg1_2241&lt;/b&gt;&lt;br&gt;ctg1 2241&lt;br&gt;Location: 2385391 - 2385697" locus_tag="ctg1_2241" class="clusterblast-orf" id="dummy-11_q0_0_all"  />
<polygon points="8,35 13,30 19,30 19,40 13,40 8,35 " style="fill:white; stroke-width:1; stroke:black; " description="&lt;b&gt;ctg1_2242&lt;/b&gt;&lt;br&gt;ctg1 2242&lt;br&gt;Location: 2385751 - 2386213" locus_tag="ctg1_2242" class="clusterblast-orf" id="dummy-11_q1_0_all"  />
<polygon points="21,40 37,40 42,35 37,30 21,30 21,40 " style="fill:white; stroke-width:1; stroke:black; " description="&lt;b&gt;ctg1_2243&lt;/b&gt;&lt;br&gt;ctg1 2243&lt;br&gt;Location: 2386277 - 2387195" locus_tag="ctg1_2243" class="clusterblast-orf" id="dummy-11_q2_0_all"  />
<polygon points="47,40 70,40 75,35 70,30 47,30 47,40 " style="fill:white; stroke-width:1; stroke:black; " description="&lt;b&gt;ctg1_2244&lt;/b&gt;&lt;br&gt;ctg1 2244&lt;br&gt;Location: 2387385 - 2388594" locus_tag="ctg1_2244" class="clusterblast-orf" id="dummy-11_q3_0_all"  />
<polygon points="77,35 82,30 117,30 117,40 82,40 77,35 " style="fill:white; stroke-width:1; stroke:black; " description="&lt;b&gt;ctg1_2245&lt;/b&gt;&lt;br&gt;ctg1 2245&lt;br&gt;Location: 2388664 - 2390392" locus_tag="ctg1_2245" class="clusterblast-orf" id="dummy-11_q4_0_all"  />
<polygon points="120,40 138,40 143,35 138,30 120,30 120,40 " style="fill:white; stroke-width:1; stroke:black; " description="&lt;b&gt;ctg1_2246&lt;/b&gt;&lt;br&gt;ctg1 2246&lt;br&gt;Location: 2390529 - 2391501" locus_tag="ctg1_2246" class="clusterblast-orf" id="dummy-11_q5_0_all"  />
<polygon points="146,40 153,40 158,35 153,30 146,30 146,40 " style="fill:white; stroke-width:1; stroke:black; " description="&lt;b&gt;ctg1_2247&lt;/b&gt;&lt;br&gt;ctg1 2247&lt;br&gt;Location: 2391603 - 2392107" locus_tag="ctg1_2247" class="clusterblast-orf" id="dummy-11_q6_0_all"  />
<polygon points="164,35 169,30 181,30 181,40 169,40 164,35 " style="fill:white; stroke-width:1; stroke:black; " description="&lt;b&gt;ctg1_2248&lt;/b&gt;&lt;br&gt;ctg1 2248&lt;br&gt;Location: 2392379 - 2393096" locus_tag="ctg1_2248" class="clusterblast-orf" id="dummy-11_q7_0_all"  />
<polygon points="186,40 191,40 196,35 191,30 186,30 186,40 " style="fill:white; stroke-width:1; stroke:black; " description="&lt;b&gt;ctg1_2249&lt;/b&gt;&lt;br&gt;ctg1 2249&lt;br&gt;Location: 2393304 - 2393727" locus_tag="ctg1_2249" class="clusterblast-orf" id="dummy-11_q8_0_all"  />
<polygon points="197,40 212,40 217,35 212,30 197,30 197,40 " style="fill:white; stroke-width:1; stroke:black; " description="&lt;b&gt;ctg1_2250&lt;/b&gt;&lt;br&gt;ctg1 2250&lt;br&gt;Location: 2393785 - 2394634" locus_tag="ctg1_2250" class="clusterblast-orf" id="dummy-11_q9_0_all"  />
<polygon points="219,35 224,30 253,30 253,40 224,40 219,35 " style="fill:#d81515; stroke-width:1; stroke:black; " description="&lt;b&gt;ctg1_2251&lt;/b&gt;&lt;br&gt;ctg1 2251&lt;br&gt;Location: 2394717 - 2396175" locus_tag="ctg1_2251" class="clusterblast-orf" id="dummy-11_q10_0_all"  />
<polygon points="253,35 258,30 289,30 289,40 258,40 253,35 " style="fill:#33d815; stroke-width:1; stroke:black; " description="&lt;b&gt;ctg1_2252&lt;/b&gt;&lt;br&gt;ctg1 2252&lt;br&gt;Location: 2396181 - 2397711" locus_tag="ctg1_2252" class="clusterblast-orf" id="dummy-11_q11_0_all"  />
<polygon points="293,35 298,30 336,30 336,40 298,40 293,35 " style="fill:#15abd8; stroke-width:1; stroke:black; " description="&lt;b&gt;ctg1_2253&lt;/b&gt;&lt;br&gt;ctg1 2253&lt;br&gt;Location: 2397874 - 2399716" locus_tag="ctg1_2253" class="clusterblast-orf" id="dummy-11_q12_0_all"  />
<polygon points="336,35 341,30 343,30 343,40 341,40 336,35 " style="fill:#8d15d8; stroke-width:1; stroke:black; " description="&lt;b&gt;ctg1_2254&lt;/b&gt;&lt;br&gt;ctg1 2254&lt;br&gt;Location: 2399712 - 2400015" locus_tag="ctg1_2254" class="clusterblast-orf" id="dummy-11_q13_0_all"  />
<polygon points="343,35 348,30 356,30 356,40 348,40 343,35 " style="fill:#d86f15; stroke-width:1; stroke:black; " description="&lt;b&gt;ctg1_2255&lt;/b&gt;&lt;br&gt;ctg1 2255&lt;br&gt;Location: 2400011 - 2400566" locus_tag="ctg1_2255" class="clusterblast-orf" id="dummy-11_q14_0_all"  />
<polygon points="357,35 362,30 369,30 369,40 362,40 357,35 " style="fill:#15d851; stroke-width:1; stroke:black; " description="&lt;b&gt;ctg1_2256&lt;/b&gt;&lt;br&gt;ctg1 2256&lt;br&gt;Location: 2400577 - 2401120" locus_tag="ctg1_2256" class="clusterblast-orf" id="dummy-11_q15_0_all"  />
<polygon points="370,35 375,30 393,30 393,40 375,40 370,35 " style="fill:#1551d8; stroke-width:1; stroke:black; " description="&lt;b&gt;ctg1_2257&lt;/b&gt;&lt;br&gt;ctg1 2257&lt;br&gt;Location: 2401134 - 2402112" locus_tag="ctg1_2257" class="clusterblast-orf" id="dummy-11_q16_0_all"  />
<polygon points="393,35 398,30 457,30 457,40 398,40 393,35 " style="fill:#d815c9; stroke-width:1; stroke:black; " description="&lt;b&gt;ctg1_2258&lt;/b&gt;&lt;br&gt;ctg1 2258&lt;br&gt;Location: 2402108 - 2404835" locus_tag="ctg1_2258" class="clusterblast-orf" id="dummy-11_q17_0_all"  />
<polygon points="458,35 463,30 489,30 489,40 463,40 458,35 " style="fill:#d8c915; stroke-width:1; stroke:black; " description="&lt;b&gt;ctg1_2259&lt;/b&gt;&lt;br&gt;ctg1 2259&lt;br&gt;Location: 2404887 - 2406225" locus_tag="ctg1_2259" class="clusterblast-orf" id="dummy-11_q18_0_all"  />
<polygon points="489,35 494,30 501,30 501,40 494,40 489,35 " style="fill:#15d8ab; stroke-width:1; stroke:black; " description="&lt;b&gt;ctg1_2260&lt;/b&gt;&lt;br&gt;ctg1 2260&lt;br&gt;Location: 2406221 - 2406722" locus_tag="ctg1_2260" class="clusterblast-orf" id="dummy-11_q19_0_all"  />
<polygon points="501,35 506,30 544,30 544,40 506,40 501,35 " style="fill:#3315d8; stroke-width:1; stroke:black; " description="&lt;b&gt;ctg1_2261&lt;/b&gt;&lt;br&gt;ctg1 2261&lt;br&gt;Location: 2406724 - 2408527" locus_tag="ctg1_2261" class="clusterblast-orf" id="dummy-11_q20_0_all"  />
<polygon points="546,35 551,30 561,30 561,40 551,40 546,35 " style="fill:#d8156f; stroke-width:1; stroke:black; " description="&lt;b&gt;ctg1_2262&lt;/b&gt;&lt;br&gt;ctg1 2262&lt;br&gt;Location: 2408620 - 2409283" locus_tag="ctg1_2262" class="clusterblast-orf" id="dummy-11_q21_0_all"  />
<polygon points="562,35 567,30 572,30 572,40 567,40 562,35 " style="fill:#8dd815; stroke-width:1; stroke:black; " description="&lt;b&gt;ctg1_2263&lt;/b&gt;&lt;br&gt;ctg1 2263&lt;br&gt;Location: 2409298 - 2409742" locus_tag="ctg1_2263" class="clusterblast-orf" id="dummy-11_q22_0_all"  />
<polygon points="578,40 582,35 578,30 578,40 " style="fill:white; stroke-width:1; stroke:black; " description="&lt;b&gt;ctg1_2264&lt;/b&gt;&lt;br&gt;ctg1 2264&lt;br&gt;Location: 2410004 - 2410169" locus_tag="ctg1_2264" class="clusterblast-orf" id="dummy-11_q23_0_all"  />
<polygon points="587,35 592,30 609,30 609,40 592,40 587,35 " style="fill:white; stroke-width:1; stroke:black; " description="&lt;b&gt;ctg1_2265&lt;/b&gt;&lt;br&gt;ctg1 2265&lt;br&gt;Location: 2410372 - 2411311" locus_tag="ctg1_2265" class="clusterblast-orf" id="dummy-11_q24_0_all"  />
<polygon points="613,35 618,30 622,30 622,40 618,40 613,35 " style="fill:white; stroke-width:1; stroke:black; " description="&lt;b&gt;ctg1_2266&lt;/b&gt;&lt;br&gt;ctg1 2266&lt;br&gt;Location: 2411472 - 2411850" locus_tag="ctg1_2266" class="clusterblast-orf" id="dummy-11_q25_0_all"  />
<polygon points="623,35 628,30 629,30 629,40 628,40 623,35 " style="fill:white; stroke-width:1; stroke:black; " description="&lt;b&gt;ctg1_2267&lt;/b&gt;&lt;br&gt;ctg1 2267&lt;br&gt;Location: 2411894 - 2412170" locus_tag="ctg1_2267" class="clusterblast-orf" id="dummy-11_q26_0_all"  />
<polygon points="649,40 672,40 677,35 672,30 649,30 649,40 " style="fill:white; stroke-width:1; stroke:black; " description="&lt;b&gt;ctg1_2268&lt;/b&gt;&lt;br&gt;ctg1 2268&lt;br&gt;Location: 2413006 - 2414224" locus_tag="ctg1_2268" class="clusterblast-orf" id="dummy-11_q27_0_all"  />
<polygon points="679,40 688,40 693,35 688,30 679,30 679,40 " style="fill:white; stroke-width:1; stroke:black; " description="&lt;b&gt;ctg1_2269&lt;/b&gt;&lt;br&gt;ctg1 2269&lt;br&gt;Location: 2414307 - 2414907" locus_tag="ctg1_2269" class="clusterblast-orf" id="dummy-11_q28_0_all"  />
<polygon points="695,35 700,30 738,30 738,40 700,40 695,35 " style="fill:white; stroke-width:1; stroke:black; " description="&lt;b&gt;ctg1_2270&lt;/b&gt;&lt;br&gt;ctg1 2270&lt;br&gt;Location: 2414965 - 2416798" locus_tag="ctg1_2270" class="clusterblast-orf" id="dummy-11_q29_0_all"  />
<polygon points="740,35 745,30 755,30 755,40 745,40 740,35 " style="fill:white; stroke-width:1; stroke:black; " description="&lt;b&gt;ctg1_2271&lt;/b&gt;&lt;br&gt;ctg1 2271&lt;br&gt;Location: 2416884 - 2417535" locus_tag="ctg1_2271" class="clusterblast-orf" id="dummy-11_q30_0_all"  />
<polygon points="755,35 760,30 767,30 767,40 760,40 755,35 " style="fill:white; stroke-width:1; stroke:black; " description="&lt;b&gt;ctg1_2272&lt;/b&gt;&lt;br&gt;ctg1 2272&lt;br&gt;Location: 2417545 - 2418040" locus_tag="ctg1_2272" class="clusterblast-orf" id="dummy-11_q31_0_all"  />
<polygon points="769,35 774,30 780,30 780,40 774,40 769,35 " style="fill:white; stroke-width:1; stroke:black; " description="&lt;b&gt;ctg1_2273&lt;/b&gt;&lt;br&gt;ctg1 2273&lt;br&gt;Location: 2418122 - 2418578" locus_tag="ctg1_2273" class="clusterblast-orf" id="dummy-11_q32_0_all"  />
</g>
<g label="MGC00000036" description="MGC00000036_c1: Ech complex T. phaeum (28% of genes show similarity), ECH" class="clusterblast-cluster"  >
<text x="5" y="70" class="clusterblast-acc"  >
MGC00000036_c1: Ech complex T. phaeum (28% of genes show similarity), ECH</text>
<line x1="10" y1="85" x2="778.0" y2="85" style="stroke-width:1; stroke:grey; "  />
</g>
<g id="a11_000"  >
<polygon points="213,85 218,80 236,80 236,90 218,90 213,85 " style="fill:white; stroke-width:1; stroke:black; " description="&lt;b&gt;Tph_c21210&lt;/b&gt;&lt;br&gt;stage II sporulation protein P&lt;br&gt;Location: 0 - 966" locus_tag="Tph_c21210" class="clusterblast-orf" id="dummy-11_h11_3_0"  />
</g>
<g id="a11_001"  >
<polygon points="446,85 451,80 454,80 454,90 451,90 446,85 " style="fill:white; stroke-width:1; stroke:black; " description="&lt;b&gt;Tph_c21310&lt;/b&gt;&lt;br&gt;putative ech hydrogenase subunit F&lt;br&gt;Location: 9909 - 10260" locus_tag="Tph_c21310" class="clusterblast-orf" id="dummy-11_h11_3_1"  />
</g>
<g id="a11_002"  >
<polygon points="455,85 460,80 480,80 480,90 460,90 455,85 " style="fill:white; stroke-width:1; stroke:black; " description="&lt;b&gt;Tph_c21320&lt;/b&gt;&lt;br&gt;putative ech hydrogenase subunit E&lt;br&gt;Location: 10289 - 11372" locus_tag="Tph_c21320" class="clusterblast-orf" id="dummy-11_h11_3_2"  />
</g>
<g id="a11_003"  >
<polygon points="480,85 485,80 489,80 489,90 485,90 480,85 " style="fill:white; stroke-width:1; stroke:black; " description="&lt;b&gt;Tph_c21330&lt;/b&gt;&lt;br&gt;putative ech hydrogenase subunit D&lt;br&gt;Location: 11372 - 11750" locus_tag="Tph_c21330" class="clusterblast-orf" id="dummy-11_h11_3_3"  />
</g>
<g id="a11_004"  >
<polygon points="489,85 494,80 499,80 499,90 494,90 489,85 " style="fill:#d8156f; stroke-width:1; stroke:black; " description="&lt;b&gt;Tph_c21340&lt;/b&gt;&lt;br&gt;putative ech hydrogenase subunit C&lt;br&gt;Location: 11746 - 12184&lt;br&gt;&lt;br&gt;&lt;b&gt;BlastP hit with ctg1_2262&lt;/b&gt;&lt;br&gt;Percentage identity: 41&lt;br&gt;Percentage coverage: 59&lt;br&gt;BLAST bit score: 101&lt;br&gt;E-value: 2.66e-29" locus_tag="Tph_c21340" class="clusterblast-orf" id="dummy-11_h11_3_4"  />
</g>
<g id="a11_005"  >
<polygon points="499,85 504,80 520,80 520,90 504,90 499,85 " style="fill:white; stroke-width:1; stroke:black; " description="&lt;b&gt;Tph_c21350&lt;/b&gt;&lt;br&gt;putative ech hydrogenase subunit B&lt;br&gt;Location: 12184 - 13045" locus_tag="Tph_c21350" class="clusterblast-orf" id="dummy-11_h11_3_5"  />
</g>
<g id="a11_006"  >
<polygon points="519,85 524,80 566,80 566,90 524,90 519,85 " style="fill:#15abd8; stroke-width:1; stroke:black; " description="&lt;b&gt;Tph_c21360&lt;/b&gt;&lt;br&gt;putative ech hydrogenase subunit A&lt;br&gt;Location: 13041 - 15027&lt;br&gt;&lt;br&gt;&lt;b&gt;BlastP hit with ctg1_2253&lt;/b&gt;&lt;br&gt;Percentage identity: 35&lt;br&gt;Percentage coverage: 53&lt;br&gt;BLAST bit score: 139&lt;br&gt;E-value: 1.83e-36" locus_tag="Tph_c21360" class="clusterblast-orf" id="dummy-11_h11_3_6"  />
</g>
</svg>
