<svg xmlns="http://www.w3.org/2000/svg" xmlns:xlink="http://www.w3.org/1999/xlink" version="1.1" x="0" y="0" height="230" width="800" viewBox="0 0 800 230" preserveAspectRatio="none"  >
<g label="Query sequence" class="clusterblast-cluster"  >
<text x="5" y="20" class="clusterblast-acc"  >
Query sequence</text>
<line x1="10" y1="35" x2="778.0" y2="35" style="stroke-width:1; stroke:grey; "  />
<polygon points="0,40 6,40 11,35 6,30 0,30 0,40 " style="fill:white; stroke-width:1; stroke:black; " description="&lt;b&gt;ctg1_4069&lt;/b&gt;&lt;br&gt;ctg1 4069&lt;br&gt;Location: 4375367 - 4375661" locus_tag="ctg1_4069" class="clusterblast-orf" id="dummy-20_q0_0_all"  />
<polygon points="12,40 67,40 72,35 67,30 12,30 12,40 " style="fill:white; stroke-width:1; stroke:black; " description="&lt;b&gt;ctg1_4070&lt;/b&gt;&lt;br&gt;ctg1 4070&lt;br&gt;Location: 4375704 - 4377351" locus_tag="ctg1_4070" class="clusterblast-orf" id="dummy-20_q1_0_all"  />
<polygon points="77,40 85,40 90,35 85,30 77,30 77,40 " style="fill:white; stroke-width:1; stroke:black; " description="&lt;b&gt;ctg1_4071&lt;/b&gt;&lt;br&gt;ctg1 4071&lt;br&gt;Location: 4377488 - 4377842" locus_tag="ctg1_4071" class="clusterblast-orf" id="dummy-20_q2_0_all"  />
<polygon points="97,35 102,30 129,30 129,40 102,40 97,35 " style="fill:white; stroke-width:1; stroke:black; " description="&lt;b&gt;ctg1_4072&lt;/b&gt;&lt;br&gt;ctg1 4072&lt;br&gt;Location: 4378044 - 4378914" locus_tag="ctg1_4072" class="clusterblast-orf" id="dummy-20_q3_0_all"  />
<polygon points="143,35 148,30 180,30 180,40 148,40 143,35 " style="fill:white; stroke-width:1; stroke:black; " description="&lt;b&gt;ctg1_4073&lt;/b&gt;&lt;br&gt;ctg1 4073&lt;br&gt;Location: 4379308 - 4380337" locus_tag="ctg1_4073" class="clusterblast-orf" id="dummy-20_q4_0_all"  />
<polygon points="182,40 198,40 203,35 198,30 182,30 182,40 " style="fill:white; stroke-width:1; stroke:black; " description="&lt;b&gt;ctg1_4074&lt;/b&gt;&lt;br&gt;ctg1 4074&lt;br&gt;Location: 4380378 - 4380945" locus_tag="ctg1_4074" class="clusterblast-orf" id="dummy-20_q5_0_all"  />
<polygon points="204,40 204,40 209,35 204,30 204,30 204,40 " style="fill:white; stroke-width:1; stroke:black; " description="&lt;b&gt;ctg1_4075&lt;/b&gt;&lt;br&gt;ctg1 4075&lt;br&gt;Location: 4380996 - 4381122" locus_tag="ctg1_4075" class="clusterblast-orf" id="dummy-20_q6_0_all"  />
<polygon points="213,40 213,40 218,35 213,30 213,30 213,40 " style="fill:white; stroke-width:1; stroke:black; " description="&lt;b&gt;ctg1_4076&lt;/b&gt;&lt;br&gt;ctg1 4076&lt;br&gt;Location: 4381232 - 4381379" locus_tag="ctg1_4076" class="clusterblast-orf" id="dummy-20_q7_0_all"  />
<polygon points="225,40 231,40 236,35 231,30 225,30 225,40 " style="fill:white; stroke-width:1; stroke:black; " description="&lt;b&gt;ctg1_4077&lt;/b&gt;&lt;br&gt;ctg1 4077&lt;br&gt;Location: 4381554 - 4381872" locus_tag="ctg1_4077" class="clusterblast-orf" id="dummy-20_q8_0_all"  />
<polygon points="236,35 241,30 256,30 256,40 241,40 236,35 " style="fill:white; stroke-width:1; stroke:black; " description="&lt;b&gt;ctg1_4078&lt;/b&gt;&lt;br&gt;ctg1 4078&lt;br&gt;Location: 4381868 - 4382402" locus_tag="ctg1_4078" class="clusterblast-orf" id="dummy-20_q9_0_all"  />
<polygon points="259,35 264,30 300,30 300,40 264,40 259,35 " style="fill:white; stroke-width:1; stroke:black; " description="&lt;b&gt;ctg1_4079&lt;/b&gt;&lt;br&gt;ctg1 4079&lt;br&gt;Location: 4382490 - 4383624" locus_tag="ctg1_4079" class="clusterblast-orf" id="dummy-20_q10_0_all"  />
<polygon points="302,35 307,30 315,30 315,40 307,40 302,35 " style="fill:white; stroke-width:1; stroke:black; " description="&lt;b&gt;ctg1_4080&lt;/b&gt;&lt;br&gt;ctg1 4080&lt;br&gt;Location: 4383686 - 4384046" locus_tag="ctg1_4080" class="clusterblast-orf" id="dummy-20_q11_0_all"  />
<polygon points="316,35 321,30 330,30 330,40 321,40 316,35 " style="fill:white; stroke-width:1; stroke:black; " description="&lt;b&gt;ctg1_4081&lt;/b&gt;&lt;br&gt;ctg1 4081&lt;br&gt;Location: 4384056 - 4384452" locus_tag="ctg1_4081" class="clusterblast-orf" id="dummy-20_q12_0_all"  />
<polygon points="330,35 335,30 357,30 357,40 335,40 330,35 " style="fill:#d81515; stroke-width:1; stroke:black; " description="&lt;b&gt;ctg1_4082&lt;/b&gt;&lt;br&gt;ctg1 4082&lt;br&gt;Location: 4384462 - 4385197" locus_tag="ctg1_4082" class="clusterblast-orf" id="dummy-20_q13_0_all"  />
<polygon points="357,35 362,30 423,30 423,40 362,40 357,35 " style="fill:#15d8d8; stroke-width:1; stroke:black; " description="&lt;b&gt;ctg1_4083&lt;/b&gt;&lt;br&gt;ctg1 4083&lt;br&gt;Location: 4385189 - 4386998" locus_tag="ctg1_4083" class="clusterblast-orf" id="dummy-20_q14_0_all"  />
<polygon points="434,40 465,40 470,35 465,30 434,30 434,40 " style="fill:white; stroke-width:1; stroke:black; " description="&lt;b&gt;ctg1_4084&lt;/b&gt;&lt;br&gt;ctg1 4084&lt;br&gt;Location: 4387322 - 4388300" locus_tag="ctg1_4084" class="clusterblast-orf" id="dummy-20_q15_0_all"  />
<polygon points="479,40 527,40 532,35 527,30 479,30 479,40 " style="fill:white; stroke-width:1; stroke:black; " description="&lt;b&gt;ctg1_4085&lt;/b&gt;&lt;br&gt;ctg1 4085&lt;br&gt;Location: 4388563 - 4390021" locus_tag="ctg1_4085" class="clusterblast-orf" id="dummy-20_q16_0_all"  />
<polygon points="534,40 541,40 546,35 541,30 534,30 534,40 " style="fill:white; stroke-width:1; stroke:black; " description="&lt;b&gt;ctg1_4086&lt;/b&gt;&lt;br&gt;ctg1 4086&lt;br&gt;Location: 4390072 - 4390387" locus_tag="ctg1_4086" class="clusterblast-orf" id="dummy-20_q17_0_all"  />
<polygon points="546,40 552,40 557,35 552,30 546,30 546,40 " style="fill:white; stroke-width:1; stroke:black; " description="&lt;b&gt;ctg1_4087&lt;/b&gt;&lt;br&gt;ctg1 4087&lt;br&gt;Location: 4390395 - 4390698" locus_tag="ctg1_4087" class="clusterblast-orf" id="dummy-20_q18_0_all"  />
<polygon points="558,35 563,30 679,30 679,40 563,40 558,35 " style="fill:white; stroke-width:1; stroke:black; " description="&lt;b&gt;ctg1_4088&lt;/b&gt;&lt;br&gt;ctg1 4088&lt;br&gt;Location: 4390726 - 4394050" locus_tag="ctg1_4088" class="clusterblast-orf" id="dummy-20_q19_0_all"  />
<polygon points="680,35 685,30 715,30 715,40 685,40 680,35 " style="fill:white; stroke-width:1; stroke:black; " description="&lt;b&gt;ctg1_4089&lt;/b&gt;&lt;br&gt;ctg1 4089&lt;br&gt;Location: 4394071 - 4395040" locus_tag="ctg1_4089" class="clusterblast-orf" id="dummy-20_q20_0_all"  />
<polygon points="718,35 723,30 757,30 757,40 723,40 718,35 " style="fill:white; stroke-width:1; stroke:black; " description="&lt;b&gt;ctg1_4090&lt;/b&gt;&lt;br&gt;ctg1 4090&lt;br&gt;Location: 4395136 - 4396189" locus_tag="ctg1_4090" class="clusterblast-orf" id="dummy-20_q21_0_all"  />
<polygon points="760,40 775,40 780,35 775,30 760,30 760,40 " style="fill:white; stroke-width:1; stroke:black; " description="&lt;b&gt;ctg1_4091&lt;/b&gt;&lt;br&gt;ctg1 4091&lt;br&gt;Location: 4396283 - 4396829" locus_tag="ctg1_4091" class="clusterblast-orf" id="dummy-20_q22_0_all"  />
</g>
<g label="MGC00000057" description="MGC00000057_c1: Fumarate2succinate fum red E. coli (100% of genes show similarity), SUC" class="clusterblast-cluster"  >
<text x="5" y="70" class="clusterblast-acc"  >
MGC00000057_c1: Fumarate2succinate fum red E. coli (100% of genes show similarity), SUC</text>
<line x1="10" y1="85" x2="778.0" y2="85" style="stroke-width:1; stroke:grey; "  />
</g>
<g id="a20_000"  >
<polygon points="343,85 348,80 370,80 370,90 348,90 343,85 " style="fill:#d81515; stroke-width:1; stroke:black; " description="&lt;b&gt;HMPREF9550_01585&lt;/b&gt;&lt;br&gt;fumarate reductase iron-sulfur subunit&lt;br&gt;Location: 10000 - 10735&lt;br&gt;&lt;br&gt;&lt;b&gt;BlastP hit with ctg1_4082&lt;/b&gt;&lt;br&gt;Percentage identity: 100&lt;br&gt;Percentage coverage: 100&lt;br&gt;BLAST bit score: 509&lt;br&gt;E-value: 1.85e-188" locus_tag="HMPREF9550_01585" class="clusterblast-orf" id="dummy-20_h20_1_0"  />
</g>
<g id="a20_001"  >
<polygon points="370,85 375,80 436,80 436,90 375,90 370,85 " style="fill:#15d8d8; stroke-width:1; stroke:black; " description="&lt;b&gt;HMPREF9550_01586&lt;/b&gt;&lt;br&gt;fumarate reductase, flavoprotein subunit&lt;br&gt;Location: 10727 - 12536&lt;br&gt;&lt;br&gt;&lt;b&gt;BlastP hit with ctg1_4083&lt;/b&gt;&lt;br&gt;Percentage identity: 100&lt;br&gt;Percentage coverage: 100&lt;br&gt;BLAST bit score: 1207&lt;br&gt;E-value: 0.0" locus_tag="HMPREF9550_01586" class="clusterblast-orf" id="dummy-20_h20_1_1"  />
</g>
</svg>
