<svg xmlns="http://www.w3.org/2000/svg" xmlns:xlink="http://www.w3.org/1999/xlink" version="1.1" x="0" y="0" height="50" width="800" viewBox="0 0 800 50" preserveAspectRatio="none"  >
<g label="Query sequence" class="clusterblast-cluster"  >
<text x="5" y="20" class="clusterblast-acc"  >
Query sequence</text>
<line x1="10" y1="35" x2="778.0" y2="35" style="stroke-width:1; stroke:grey; "  />
<polygon points="0,35 5,30 8,30 8,40 5,40 0,35 " style="fill:white; stroke-width:1; stroke:black; " description="&lt;b&gt;ctg1_4247&lt;/b&gt;&lt;br&gt;ctg1 4247&lt;br&gt;Location: 4559062 - 4559257" locus_tag="ctg1_4247" class="clusterblast-orf" id="knownclusterblast-21_q0_0_all"  />
<polygon points="10,40 33,40 38,35 33,30 10,30 10,40 " style="fill:white; stroke-width:1; stroke:black; " description="&lt;b&gt;ctg1_4248&lt;/b&gt;&lt;br&gt;ctg1 4248&lt;br&gt;Location: 4559303 - 4560029" locus_tag="ctg1_4248" class="clusterblast-orf" id="knownclusterblast-21_q1_0_all"  />
<polygon points="44,35 49,30 77,30 77,40 49,40 44,35 " style="fill:white; stroke-width:1; stroke:black; " description="&lt;b&gt;ctg1_4249&lt;/b&gt;&lt;br&gt;ctg1 4249&lt;br&gt;Location: 4560169 - 4561000" locus_tag="ctg1_4249" class="clusterblast-orf" id="knownclusterblast-21_q2_0_all"  />
<polygon points="87,40 91,35 87,30 87,40 " style="fill:white; stroke-width:1; stroke:black; " description="&lt;b&gt;ctg1_4250&lt;/b&gt;&lt;br&gt;ctg1 4250&lt;br&gt;Location: 4561253 - 4561355" locus_tag="ctg1_4250" class="clusterblast-orf" id="knownclusterblast-21_q3_0_all"  />
<polygon points="104,40 115,40 120,35 115,30 104,30 104,40 " style="fill:white; stroke-width:1; stroke:black; " description="&lt;b&gt;ctg1_4251&lt;/b&gt;&lt;br&gt;ctg1 4251&lt;br&gt;Location: 4561672 - 4562065" locus_tag="ctg1_4251" class="clusterblast-orf" id="knownclusterblast-21_q4_0_all"  />
<polygon points="119,35 124,30 156,30 156,40 124,40 119,35 " style="fill:white; stroke-width:1; stroke:black; " description="&lt;b&gt;ctg1_4252&lt;/b&gt;&lt;br&gt;ctg1 4252&lt;br&gt;Location: 4562057 - 4562969" locus_tag="ctg1_4252" class="clusterblast-orf" id="knownclusterblast-21_q5_0_all"  />
<polygon points="158,35 163,30 205,30 205,40 163,40 158,35 " style="fill:white; stroke-width:1; stroke:black; " description="&lt;b&gt;ctg1_4253&lt;/b&gt;&lt;br&gt;ctg1 4253&lt;br&gt;Location: 4563033 - 4564206" locus_tag="ctg1_4253" class="clusterblast-orf" id="knownclusterblast-21_q6_0_all"  />
<polygon points="206,35 211,30 224,30 224,40 211,40 206,35 " style="fill:white; stroke-width:1; stroke:black; " description="&lt;b&gt;ctg1_4254&lt;/b&gt;&lt;br&gt;ctg1 4254&lt;br&gt;Location: 4564218 - 4564680" locus_tag="ctg1_4254" class="clusterblast-orf" id="knownclusterblast-21_q7_0_all"  />
<polygon points="224,35 229,30 251,30 251,40 229,40 224,35 " style="fill:white; stroke-width:1; stroke:black; " description="&lt;b&gt;ctg1_4255&lt;/b&gt;&lt;br&gt;ctg1 4255&lt;br&gt;Location: 4564676 - 4565360" locus_tag="ctg1_4255" class="clusterblast-orf" id="knownclusterblast-21_q8_0_all"  />
<polygon points="261,40 278,40 283,35 278,30 261,30 261,40 " style="fill:white; stroke-width:1; stroke:black; " description="&lt;b&gt;ctg1_4256&lt;/b&gt;&lt;br&gt;ctg1 4256&lt;br&gt;Location: 4565609 - 4566164" locus_tag="ctg1_4256" class="clusterblast-orf" id="knownclusterblast-21_q9_0_all"  />
<polygon points="284,35 289,30 331,30 331,40 289,40 284,35 " style="fill:white; stroke-width:1; stroke:black; " description="&lt;b&gt;ctg1_4257&lt;/b&gt;&lt;br&gt;ctg1 4257&lt;br&gt;Location: 4566176 - 4567355" locus_tag="ctg1_4257" class="clusterblast-orf" id="knownclusterblast-21_q10_0_all"  />
<polygon points="333,35 338,30 372,30 372,40 338,40 333,35 " style="fill:white; stroke-width:1; stroke:black; " description="&lt;b&gt;ctg1_4258&lt;/b&gt;&lt;br&gt;ctg1 4258&lt;br&gt;Location: 4567422 - 4568394" locus_tag="ctg1_4258" class="clusterblast-orf" id="knownclusterblast-21_q11_0_all"  />
<polygon points="370,35 375,30 381,30 381,40 375,40 370,35 " style="fill:white; stroke-width:1; stroke:black; " description="&lt;b&gt;ctg1_4259&lt;/b&gt;&lt;br&gt;ctg1 4259&lt;br&gt;Location: 4568347 - 4568605" locus_tag="ctg1_4259" class="clusterblast-orf" id="knownclusterblast-21_q12_0_all"  />
<polygon points="381,35 386,30 411,30 411,40 386,40 381,35 " style="fill:white; stroke-width:1; stroke:black; " description="&lt;b&gt;ctg1_4260&lt;/b&gt;&lt;br&gt;ctg1 4260&lt;br&gt;Location: 4568601 - 4569369" locus_tag="ctg1_4260" class="clusterblast-orf" id="knownclusterblast-21_q13_0_all"  />
<polygon points="412,35 417,30 457,30 457,40 417,40 412,35 " style="fill:white; stroke-width:1; stroke:black; " description="&lt;b&gt;ctg1_4261&lt;/b&gt;&lt;br&gt;ctg1 4261&lt;br&gt;Location: 4569378 - 4570530" locus_tag="ctg1_4261" class="clusterblast-orf" id="knownclusterblast-21_q14_0_all"  />
<polygon points="462,35 467,30 513,30 513,40 467,40 462,35 " style="fill:white; stroke-width:1; stroke:black; " description="&lt;b&gt;ctg1_4262&lt;/b&gt;&lt;br&gt;ctg1 4262&lt;br&gt;Location: 4570645 - 4571926" locus_tag="ctg1_4262" class="clusterblast-orf" id="knownclusterblast-21_q15_0_all"  />
<polygon points="515,35 520,30 564,30 564,40 520,40 515,35 " style="fill:white; stroke-width:1; stroke:black; " description="&lt;b&gt;ctg1_4263&lt;/b&gt;&lt;br&gt;ctg1 4263&lt;br&gt;Location: 4571966 - 4573199" locus_tag="ctg1_4263" class="clusterblast-orf" id="knownclusterblast-21_q16_0_all"  />
<polygon points="583,40 590,40 595,35 590,30 583,30 583,40 " style="fill:white; stroke-width:1; stroke:black; " description="&lt;b&gt;ctg1_4264&lt;/b&gt;&lt;br&gt;ctg1 4264&lt;br&gt;Location: 4573677 - 4573989" locus_tag="ctg1_4264" class="clusterblast-orf" id="knownclusterblast-21_q17_0_all"  />
<polygon points="597,40 615,40 620,35 615,30 597,30 597,40 " style="fill:white; stroke-width:1; stroke:black; " description="&lt;b&gt;ctg1_4265&lt;/b&gt;&lt;br&gt;ctg1 4265&lt;br&gt;Location: 4574037 - 4574598" locus_tag="ctg1_4265" class="clusterblast-orf" id="knownclusterblast-21_q18_0_all"  />
<polygon points="629,35 634,30 686,30 686,40 634,40 629,35 " style="fill:white; stroke-width:1; stroke:black; " description="&lt;b&gt;ctg1_4266&lt;/b&gt;&lt;br&gt;ctg1 4266&lt;br&gt;Location: 4574841 - 4576254" locus_tag="ctg1_4266" class="clusterblast-orf" id="knownclusterblast-21_q19_0_all"  />
<polygon points="693,40 694,40 699,35 694,30 693,30 693,40 " style="fill:white; stroke-width:1; stroke:black; " description="&lt;b&gt;ctg1_4267&lt;/b&gt;&lt;br&gt;ctg1 4267&lt;br&gt;Location: 4576430 - 4576595" locus_tag="ctg1_4267" class="clusterblast-orf" id="knownclusterblast-21_q20_0_all"  />
<polygon points="719,40 775,40 780,35 775,30 719,30 719,40 " style="fill:white; stroke-width:1; stroke:black; " description="&lt;b&gt;ctg1_4268&lt;/b&gt;&lt;br&gt;ctg1 4268&lt;br&gt;Location: 4577093 - 4578611" locus_tag="ctg1_4268" class="clusterblast-orf" id="knownclusterblast-21_q21_0_all"  />
</g>
</svg>
