<svg xmlns="http://www.w3.org/2000/svg" xmlns:xlink="http://www.w3.org/1999/xlink" version="1.1" x="0" y="0" height="150" width="800" viewBox="0 0 800 150" preserveAspectRatio="none"  >
<g label="Query sequence" class="clusterblast-cluster"  >
<text x="5" y="20" class="clusterblast-acc"  >
Query sequence</text>
<line x1="10" y1="35" x2="778.0" y2="35" style="stroke-width:1; stroke:grey; "  />
<polygon points="0,40 9,40 14,35 9,30 0,30 0,40 " style="fill:white; stroke-width:1; stroke:black; " description="&lt;b&gt;ctg1_93&lt;/b&gt;&lt;br&gt;ctg1 93&lt;br&gt;Location: 99434 - 100100" locus_tag="ctg1_93" class="clusterblast-orf" id="knownclusterblast-2_q0_0_all"  />
<polygon points="16,35 21,30 62,30 62,40 21,40 16,35 " style="fill:white; stroke-width:1; stroke:black; " description="&lt;b&gt;ctg1_94&lt;/b&gt;&lt;br&gt;ctg1 94&lt;br&gt;Location: 100166 - 102332" locus_tag="ctg1_94" class="clusterblast-orf" id="knownclusterblast-2_q1_0_all"  />
<polygon points="67,40 85,40 90,35 85,30 67,30 67,40 " style="fill:white; stroke-width:1; stroke:black; " description="&lt;b&gt;ctg1_95&lt;/b&gt;&lt;br&gt;ctg1 95&lt;br&gt;Location: 102550 - 103612" locus_tag="ctg1_95" class="clusterblast-orf" id="knownclusterblast-2_q2_0_all"  />
<polygon points="93,40 93,40 98,35 93,30 93,30 93,40 " style="fill:white; stroke-width:1; stroke:black; " description="&lt;b&gt;ctg1_96&lt;/b&gt;&lt;br&gt;ctg1 96&lt;br&gt;Location: 103756 - 103978" locus_tag="ctg1_96" class="clusterblast-orf" id="knownclusterblast-2_q3_0_all"  />
<polygon points="100,35 105,30 132,30 132,40 105,40 100,35 " style="fill:white; stroke-width:1; stroke:black; " description="&lt;b&gt;ctg1_97&lt;/b&gt;&lt;br&gt;ctg1 97&lt;br&gt;Location: 104054 - 105548" locus_tag="ctg1_97" class="clusterblast-orf" id="knownclusterblast-2_q4_0_all"  />
<polygon points="143,40 152,40 157,35 152,30 143,30 143,40 " style="fill:white; stroke-width:1; stroke:black; " description="&lt;b&gt;ctg1_98&lt;/b&gt;&lt;br&gt;ctg1 98&lt;br&gt;Location: 106060 - 106693" locus_tag="ctg1_98" class="clusterblast-orf" id="knownclusterblast-2_q5_0_all"  />
<polygon points="163,40 176,40 181,35 176,30 163,30 163,40 " style="fill:white; stroke-width:1; stroke:black; " description="&lt;b&gt;ctg1_99&lt;/b&gt;&lt;br&gt;ctg1 99&lt;br&gt;Location: 106976 - 107822" locus_tag="ctg1_99" class="clusterblast-orf" id="knownclusterblast-2_q6_0_all"  />
<polygon points="182,35 187,30 201,30 201,40 187,40 182,35 " style="fill:white; stroke-width:1; stroke:black; " description="&lt;b&gt;ctg1_100&lt;/b&gt;&lt;br&gt;ctg1 100&lt;br&gt;Location: 107857 - 108751" locus_tag="ctg1_100" class="clusterblast-orf" id="knownclusterblast-2_q7_0_all"  />
<polygon points="204,35 209,30 218,30 218,40 209,40 204,35 " style="fill:#d81515; stroke-width:1; stroke:black; " description="&lt;b&gt;ctg1_101&lt;/b&gt;&lt;br&gt;ctg1 101&lt;br&gt;Location: 108856 - 109537" locus_tag="ctg1_101" class="clusterblast-orf" id="knownclusterblast-2_q8_0_all"  />
<polygon points="218,35 223,30 233,30 233,40 223,40 218,35 " style="fill:#4dd815; stroke-width:1; stroke:black; " description="&lt;b&gt;ctg1_102&lt;/b&gt;&lt;br&gt;ctg1 102&lt;br&gt;Location: 109533 - 110229" locus_tag="ctg1_102" class="clusterblast-orf" id="knownclusterblast-2_q9_0_all"  />
<polygon points="233,35 238,30 267,30 267,40 238,40 233,35 " style="fill:#1585d8; stroke-width:1; stroke:black; " description="&lt;b&gt;ctg1_103&lt;/b&gt;&lt;br&gt;ctg1 103&lt;br&gt;Location: 110228 - 111773" locus_tag="ctg1_103" class="clusterblast-orf" id="knownclusterblast-2_q10_0_all"  />
<polygon points="267,35 272,30 348,30 348,40 272,40 267,35 " style="fill:#d815bc; stroke-width:1; stroke:black; " description="&lt;b&gt;ctg1_104&lt;/b&gt;&lt;br&gt;ctg1 104&lt;br&gt;Location: 111769 - 115510" locus_tag="ctg1_104" class="clusterblast-orf" id="knownclusterblast-2_q11_0_all"  />
<polygon points="350,35 355,30 380,30 380,40 355,40 350,35 " style="fill:white; stroke-width:1; stroke:black; " description="&lt;b&gt;ctg1_105&lt;/b&gt;&lt;br&gt;ctg1 105&lt;br&gt;Location: 115601 - 116990" locus_tag="ctg1_105" class="clusterblast-orf" id="knownclusterblast-2_q12_0_all"  />
<polygon points="384,35 389,30 397,30 397,40 389,40 384,35 " style="fill:white; stroke-width:1; stroke:black; " description="&lt;b&gt;ctg1_106&lt;/b&gt;&lt;br&gt;ctg1 106&lt;br&gt;Location: 117204 - 117795" locus_tag="ctg1_106" class="clusterblast-orf" id="knownclusterblast-2_q13_0_all"  />
<polygon points="399,40 426,40 431,35 426,30 399,30 399,40 " style="fill:white; stroke-width:1; stroke:black; " description="&lt;b&gt;ctg1_107&lt;/b&gt;&lt;br&gt;ctg1 107&lt;br&gt;Location: 117899 - 119387" locus_tag="ctg1_107" class="clusterblast-orf" id="knownclusterblast-2_q14_0_all"  />
<polygon points="432,35 437,30 442,30 442,40 437,40 432,35 " style="fill:white; stroke-width:1; stroke:black; " description="&lt;b&gt;ctg1_108&lt;/b&gt;&lt;br&gt;ctg1 108&lt;br&gt;Location: 119411 - 119852" locus_tag="ctg1_108" class="clusterblast-orf" id="knownclusterblast-2_q15_0_all"  />
<polygon points="443,35 448,30 467,30 467,40 448,40 443,35 " style="fill:white; stroke-width:1; stroke:black; " description="&lt;b&gt;ctg1_109&lt;/b&gt;&lt;br&gt;ctg1 109&lt;br&gt;Location: 119935 - 121024" locus_tag="ctg1_109" class="clusterblast-orf" id="knownclusterblast-2_q16_0_all"  />
<polygon points="478,35 483,30 497,30 497,40 483,40 478,35 " style="fill:white; stroke-width:1; stroke:black; " description="&lt;b&gt;ctg1_110&lt;/b&gt;&lt;br&gt;ctg1 110&lt;br&gt;Location: 121548 - 122430" locus_tag="ctg1_110" class="clusterblast-orf" id="knownclusterblast-2_q17_0_all"  />
<polygon points="503,40 511,40 516,35 511,30 503,30 503,40 " style="fill:#d8bc15; stroke-width:1; stroke:black; " description="&lt;b&gt;ctg1_111&lt;/b&gt;&lt;br&gt;ctg1 111&lt;br&gt;Location: 122707 - 123295" locus_tag="ctg1_111" class="clusterblast-orf" id="knownclusterblast-2_q18_0_all"  />
<polygon points="517,40 564,40 569,35 564,30 517,30 517,40 " style="fill:#d8bc15; stroke-width:1; stroke:black; " description="&lt;b&gt;ctg1_112&lt;/b&gt;&lt;br&gt;ctg1 112&lt;br&gt;Location: 123343 - 125755" locus_tag="ctg1_112" class="clusterblast-orf" id="knownclusterblast-2_q19_0_all"  />
<polygon points="570,40 584,40 589,35 584,30 570,30 570,40 " style="fill:#15d885; stroke-width:1; stroke:black; " description="&lt;b&gt;ctg1_113&lt;/b&gt;&lt;br&gt;ctg1 113&lt;br&gt;Location: 125768 - 126653" locus_tag="ctg1_113" class="clusterblast-orf" id="knownclusterblast-2_q20_0_all"  />
<polygon points="589,40 598,40 603,35 598,30 589,30 589,40 " style="fill:#4d15d8; stroke-width:1; stroke:black; " description="&lt;b&gt;ctg1_114&lt;/b&gt;&lt;br&gt;ctg1 114&lt;br&gt;Location: 126645 - 127302" locus_tag="ctg1_114" class="clusterblast-orf" id="knownclusterblast-2_q21_0_all"  />
<polygon points="605,35 610,30 627,30 627,40 610,40 605,35 " style="fill:white; stroke-width:1; stroke:black; " description="&lt;b&gt;ctg1_115&lt;/b&gt;&lt;br&gt;ctg1 115&lt;br&gt;Location: 127392 - 128403" locus_tag="ctg1_115" class="clusterblast-orf" id="knownclusterblast-2_q22_0_all"  />
<polygon points="633,35 638,30 669,30 669,40 638,40 633,35 " style="fill:white; stroke-width:1; stroke:black; " description="&lt;b&gt;ctg1_116&lt;/b&gt;&lt;br&gt;ctg1 116&lt;br&gt;Location: 128688 - 130386" locus_tag="ctg1_116" class="clusterblast-orf" id="knownclusterblast-2_q23_0_all"  />
<polygon points="673,35 676,30 676,40 673,35 " style="fill:white; stroke-width:1; stroke:black; " description="&lt;b&gt;ctg1_117&lt;/b&gt;&lt;br&gt;ctg1 117&lt;br&gt;Location: 130562 - 130706" locus_tag="ctg1_117" class="clusterblast-orf" id="knownclusterblast-2_q24_0_all"  />
<polygon points="678,35 683,30 683,30 683,40 683,40 678,35 " style="fill:white; stroke-width:1; stroke:black; " description="&lt;b&gt;ctg1_118&lt;/b&gt;&lt;br&gt;ctg1 118&lt;br&gt;Location: 130800 - 131016" locus_tag="ctg1_118" class="clusterblast-orf" id="knownclusterblast-2_q25_0_all"  />
<polygon points="694,40 699,40 704,35 699,30 694,30 694,40 " style="fill:white; stroke-width:1; stroke:black; " description="&lt;b&gt;ctg1_119&lt;/b&gt;&lt;br&gt;ctg1 119&lt;br&gt;Location: 131528 - 131960" locus_tag="ctg1_119" class="clusterblast-orf" id="knownclusterblast-2_q26_0_all"  />
<polygon points="711,40 713,40 718,35 713,30 711,30 711,40 " style="fill:white; stroke-width:1; stroke:black; " description="&lt;b&gt;ctg1_120&lt;/b&gt;&lt;br&gt;ctg1 120&lt;br&gt;Location: 132309 - 132639" locus_tag="ctg1_120" class="clusterblast-orf" id="knownclusterblast-2_q27_0_all"  />
<polygon points="721,40 733,40 738,35 733,30 721,30 721,40 " style="fill:white; stroke-width:1; stroke:black; " description="&lt;b&gt;ctg1_121&lt;/b&gt;&lt;br&gt;ctg1 121&lt;br&gt;Location: 132781 - 133567" locus_tag="ctg1_121" class="clusterblast-orf" id="knownclusterblast-2_q28_0_all"  />
<polygon points="741,40 775,40 780,35 775,30 741,30 741,40 " style="fill:white; stroke-width:1; stroke:black; " description="&lt;b&gt;ctg1_122&lt;/b&gt;&lt;br&gt;ctg1 122&lt;br&gt;Location: 133695 - 135480" locus_tag="ctg1_122" class="clusterblast-orf" id="knownclusterblast-2_q29_0_all"  />
</g>
<g label="MGC00000045" description="MGC00000045_c1: Nitrate reductase E. coli (80% of genes show similarity), NIR" class="clusterblast-cluster"  >
<text x="5" y="70" class="clusterblast-acc"  >
MGC00000045_c1: Nitrate reductase E. coli (80% of genes show similarity), NIR</text>
<line x1="10" y1="85" x2="778.0" y2="85" style="stroke-width:1; stroke:grey; "  />
</g>
<g id="a2_000"  >
<polygon points="213,85 218,80 228,80 228,90 218,90 213,85 " style="fill:#d81515; stroke-width:1; stroke:black; " description="&lt;b&gt;b1227&lt;/b&gt;&lt;br&gt;nitrate reductase A subunit gamma&lt;br&gt;Location: 16289 - 15611&lt;br&gt;&lt;br&gt;&lt;b&gt;BlastP hit with ctg1_101&lt;/b&gt;&lt;br&gt;Percentage identity: 73&lt;br&gt;Percentage coverage: 99&lt;br&gt;BLAST bit score: 333&lt;br&gt;E-value: 2.01e-119" locus_tag="b1227" class="clusterblast-orf" id="knownclusterblast-2_all_2_1_0"  />
</g>
<g id="a2_001"  >
<polygon points="228,85 233,80 243,80 243,90 233,90 228,85 " style="fill:#4dd815; stroke-width:1; stroke:black; " description="&lt;b&gt;b1226&lt;/b&gt;&lt;br&gt;nitrate reductase 1 molybdenum cofactor assembly chaperone&lt;br&gt;Location: 15612 - 14901&lt;br&gt;&lt;br&gt;&lt;b&gt;BlastP hit with ctg1_102&lt;/b&gt;&lt;br&gt;Percentage identity: 57&lt;br&gt;Percentage coverage: 101&lt;br&gt;BLAST bit score: 246&lt;br&gt;E-value: 1.14e-84" locus_tag="b1226" class="clusterblast-orf" id="knownclusterblast-2_all_2_1_1"  />
</g>
<g id="a2_002"  >
<polygon points="243,85 248,80 277,80 277,90 248,90 243,85 " style="fill:#1585d8; stroke-width:1; stroke:black; " description="&lt;b&gt;b1225&lt;/b&gt;&lt;br&gt;nitrate reductase A subunit beta&lt;br&gt;Location: 14905 - 13366&lt;br&gt;&lt;br&gt;&lt;b&gt;BlastP hit with ctg1_103&lt;/b&gt;&lt;br&gt;Percentage identity: 80&lt;br&gt;Percentage coverage: 98&lt;br&gt;BLAST bit score: 877&lt;br&gt;E-value: 0.0" locus_tag="b1225" class="clusterblast-orf" id="knownclusterblast-2_all_2_1_2"  />
</g>
<g id="a2_003"  >
<polygon points="276,85 281,80 357,80 357,90 281,90 276,85 " style="fill:#d815bc; stroke-width:1; stroke:black; " description="&lt;b&gt;b1224&lt;/b&gt;&lt;br&gt;nitrate reductase A subunit alpha&lt;br&gt;Location: 13370 - 9626&lt;br&gt;&lt;br&gt;&lt;b&gt;BlastP hit with ctg1_104&lt;/b&gt;&lt;br&gt;Percentage identity: 79&lt;br&gt;Percentage coverage: 100&lt;br&gt;BLAST bit score: 2154&lt;br&gt;E-value: 0.0" locus_tag="b1224" class="clusterblast-orf" id="knownclusterblast-2_all_2_1_3"  />
</g>
<g id="a2_004"  >
<polygon points="563,90 566,85 563,80 563,90 " style="fill:white; stroke-width:1; stroke:black; " description="&lt;b&gt;b4423&lt;/b&gt;&lt;br&gt;small toxic polypeptide LdrC&lt;br&gt;Location: 108 - 0" locus_tag="b4423" class="clusterblast-orf" id="knownclusterblast-2_all_2_1_4"  />
</g>
<g label="MGC00000049" description="MGC00000049_c1: Formate dehydrogenase E. coli (100% of genes show similarity), FORM" class="clusterblast-cluster"  >
<text x="5" y="120" class="clusterblast-acc"  >
MGC00000049_c1: Formate dehydrogenase E. coli (100% of genes show similarity), FORM</text>
<line x1="10" y1="135" x2="778.0" y2="135" style="stroke-width:1; stroke:grey; "  />
</g>
<g id="a2_000"  >
<polygon points="340,140 401,140 406,135 401,130 340,130 340,140 " style="fill:#d8bc15; stroke-width:1; stroke:black; " description="&lt;b&gt;b3894&lt;/b&gt;&lt;br&gt;formate dehydrogenase O subunit alpha&lt;br&gt;Location: 14598 - 11547&lt;br&gt;&lt;br&gt;&lt;b&gt;BlastP hit with ctg1_111&lt;/b&gt;&lt;br&gt;Percentage identity: 82&lt;br&gt;Percentage coverage: 100&lt;br&gt;BLAST bit score: 345&lt;br&gt;E-value: 2.42e-115&lt;br&gt;&lt;br&gt;&lt;b&gt;BlastP hit with ctg1_112&lt;/b&gt;&lt;br&gt;Percentage identity: 77&lt;br&gt;Percentage coverage: 100&lt;br&gt;BLAST bit score: 1315&lt;br&gt;E-value: 0.0" locus_tag="b3894" class="clusterblast-orf" id="knownclusterblast-2_all_2_2_0"  />
</g>
<g id="a2_001"  >
<polygon points="406,140 421,140 426,135 421,130 406,130 406,140 " style="fill:#15d885; stroke-width:1; stroke:black; " description="&lt;b&gt;b3893&lt;/b&gt;&lt;br&gt;formate dehydrogenase O subunit beta&lt;br&gt;Location: 11535 - 10632&lt;br&gt;&lt;br&gt;&lt;b&gt;BlastP hit with ctg1_113&lt;/b&gt;&lt;br&gt;Percentage identity: 75&lt;br&gt;Percentage coverage: 100&lt;br&gt;BLAST bit score: 494&lt;br&gt;E-value: 1.92e-180" locus_tag="b3893" class="clusterblast-orf" id="knownclusterblast-2_all_2_2_1"  />
</g>
<g id="a2_002"  >
<polygon points="425,140 434,140 439,135 434,130 425,130 425,140 " style="fill:#4d15d8; stroke-width:1; stroke:black; " description="&lt;b&gt;b3892&lt;/b&gt;&lt;br&gt;formate dehydrogenase O subunit gamma&lt;br&gt;Location: 10636 - 10000&lt;br&gt;&lt;br&gt;&lt;b&gt;BlastP hit with ctg1_114&lt;/b&gt;&lt;br&gt;Percentage identity: 48&lt;br&gt;Percentage coverage: 97&lt;br&gt;BLAST bit score: 216&lt;br&gt;E-value: 1.5e-73" locus_tag="b3892" class="clusterblast-orf" id="knownclusterblast-2_all_2_2_2"  />
</g>
</svg>
