<svg xmlns="http://www.w3.org/2000/svg" xmlns:xlink="http://www.w3.org/1999/xlink" version="1.1" x="0" y="0" height="100" width="800" viewBox="0 0 800 100" preserveAspectRatio="none"  >
<g label="Query sequence" class="clusterblast-cluster"  >
<text x="5" y="20" class="clusterblast-acc"  >
Query sequence</text>
<line x1="10" y1="35" x2="778.0" y2="35" style="stroke-width:1; stroke:grey; "  />
<polygon points="0,35 5,30 11,30 11,40 5,40 0,35 " style="fill:white; stroke-width:1; stroke:black; " description="&lt;b&gt;ctg5_322&lt;/b&gt;&lt;br&gt;ctg5 322&lt;br&gt;Location: 355236 - 355569" locus_tag="ctg5_322" class="clusterblast-orf" id="knownclusterblast-3_q0_0_all"  />
<polygon points="13,40 21,40 26,35 21,30 13,30 13,40 " style="fill:white; stroke-width:1; stroke:black; " description="&lt;b&gt;ctg5_323&lt;/b&gt;&lt;br&gt;ctg5 323&lt;br&gt;Location: 355640 - 356018" locus_tag="ctg5_323" class="clusterblast-orf" id="knownclusterblast-3_q1_0_all"  />
<polygon points="67,40 87,40 92,35 87,30 67,30 67,40 " style="fill:white; stroke-width:1; stroke:black; " description="&lt;b&gt;ctg5_324&lt;/b&gt;&lt;br&gt;ctg5 324&lt;br&gt;Location: 357227 - 357980" locus_tag="ctg5_324" class="clusterblast-orf" id="knownclusterblast-3_q2_0_all"  />
<polygon points="100,35 105,30 117,30 117,40 105,40 100,35 " style="fill:white; stroke-width:1; stroke:black; " description="&lt;b&gt;ctg5_325&lt;/b&gt;&lt;br&gt;ctg5 325&lt;br&gt;Location: 358227 - 358719" locus_tag="ctg5_325" class="clusterblast-orf" id="knownclusterblast-3_q3_0_all"  />
<polygon points="117,35 122,30 127,30 127,40 122,40 117,35 " style="fill:white; stroke-width:1; stroke:black; " description="&lt;b&gt;ctg5_326&lt;/b&gt;&lt;br&gt;ctg5 326&lt;br&gt;Location: 358715 - 359009" locus_tag="ctg5_326" class="clusterblast-orf" id="knownclusterblast-3_q4_0_all"  />
<polygon points="154,40 178,40 183,35 178,30 154,30 154,40 " style="fill:white; stroke-width:1; stroke:black; " description="&lt;b&gt;ctg5_327&lt;/b&gt;&lt;br&gt;ctg5 327&lt;br&gt;Location: 359811 - 360687" locus_tag="ctg5_327" class="clusterblast-orf" id="knownclusterblast-3_q5_0_all"  />
<polygon points="183,40 187,40 192,35 187,30 183,30 183,40 " style="fill:white; stroke-width:1; stroke:black; " description="&lt;b&gt;ctg5_328&lt;/b&gt;&lt;br&gt;ctg5 328&lt;br&gt;Location: 360698 - 360971" locus_tag="ctg5_328" class="clusterblast-orf" id="knownclusterblast-3_q6_0_all"  />
<polygon points="198,40 205,40 210,35 205,30 198,30 198,40 " style="fill:white; stroke-width:1; stroke:black; " description="&lt;b&gt;ctg5_329&lt;/b&gt;&lt;br&gt;ctg5 329&lt;br&gt;Location: 361123 - 361486" locus_tag="ctg5_329" class="clusterblast-orf" id="knownclusterblast-3_q7_0_all"  />
<polygon points="220,35 225,30 249,30 249,40 225,40 220,35 " style="fill:white; stroke-width:1; stroke:black; " description="&lt;b&gt;ctg5_330&lt;/b&gt;&lt;br&gt;ctg5 330&lt;br&gt;Location: 361779 - 362640" locus_tag="ctg5_330" class="clusterblast-orf" id="knownclusterblast-3_q8_0_all"  />
<polygon points="260,40 302,40 307,35 302,30 260,30 260,40 " style="fill:white; stroke-width:1; stroke:black; " description="&lt;b&gt;ctg5_331&lt;/b&gt;&lt;br&gt;ctg5 331&lt;br&gt;Location: 362988 - 364389" locus_tag="ctg5_331" class="clusterblast-orf" id="knownclusterblast-3_q9_0_all"  />
<polygon points="310,35 315,30 330,30 330,40 315,40 310,35 " style="fill:white; stroke-width:1; stroke:black; " description="&lt;b&gt;ctg5_332&lt;/b&gt;&lt;br&gt;ctg5 332&lt;br&gt;Location: 364472 - 365066" locus_tag="ctg5_332" class="clusterblast-orf" id="knownclusterblast-3_q10_0_all"  />
<polygon points="333,35 338,30 359,30 359,40 338,40 333,35 " style="fill:white; stroke-width:1; stroke:black; " description="&lt;b&gt;ctg5_333&lt;/b&gt;&lt;br&gt;ctg5 333&lt;br&gt;Location: 365141 - 365915" locus_tag="ctg5_333" class="clusterblast-orf" id="knownclusterblast-3_q11_0_all"  />
<polygon points="358,35 363,30 379,30 379,40 363,40 358,35 " style="fill:#d81515; stroke-width:1; stroke:black; " description="&lt;b&gt;ctg5_334&lt;/b&gt;&lt;br&gt;ctg5 334&lt;br&gt;Location: 365907 - 366534" locus_tag="ctg5_334" class="clusterblast-orf" id="knownclusterblast-3_q12_0_all"  />
<polygon points="380,35 385,30 461,30 461,40 385,40 380,35 " style="fill:#15d8d8; stroke-width:1; stroke:black; " description="&lt;b&gt;ctg5_335&lt;/b&gt;&lt;br&gt;ctg5 335&lt;br&gt;Location: 366547 - 368977" locus_tag="ctg5_335" class="clusterblast-orf" id="knownclusterblast-3_q13_0_all"  />
<polygon points="473,40 523,40 528,35 523,30 473,30 473,40 " style="fill:white; stroke-width:1; stroke:black; " description="&lt;b&gt;ctg5_336&lt;/b&gt;&lt;br&gt;ctg5 336&lt;br&gt;Location: 369332 - 370964" locus_tag="ctg5_336" class="clusterblast-orf" id="knownclusterblast-3_q14_0_all"  />
<polygon points="528,40 547,40 552,35 547,30 528,30 528,40 " style="fill:white; stroke-width:1; stroke:black; " description="&lt;b&gt;ctg5_337&lt;/b&gt;&lt;br&gt;ctg5 337&lt;br&gt;Location: 370960 - 371680" locus_tag="ctg5_337" class="clusterblast-orf" id="knownclusterblast-3_q15_0_all"  />
<polygon points="563,40 567,40 572,35 567,30 563,30 563,40 " style="fill:white; stroke-width:1; stroke:black; " description="&lt;b&gt;ctg5_338&lt;/b&gt;&lt;br&gt;ctg5 338&lt;br&gt;Location: 371996 - 372263" locus_tag="ctg5_338" class="clusterblast-orf" id="knownclusterblast-3_q16_0_all"  />
<polygon points="577,40 617,40 622,35 617,30 577,30 577,40 " style="fill:white; stroke-width:1; stroke:black; " description="&lt;b&gt;ctg5_339&lt;/b&gt;&lt;br&gt;ctg5 339&lt;br&gt;Location: 372409 - 373750" locus_tag="ctg5_339" class="clusterblast-orf" id="knownclusterblast-3_q17_0_all"  />
<polygon points="625,40 675,40 680,35 675,30 625,30 625,40 " style="fill:white; stroke-width:1; stroke:black; " description="&lt;b&gt;ctg5_340&lt;/b&gt;&lt;br&gt;ctg5 340&lt;br&gt;Location: 373845 - 375492" locus_tag="ctg5_340" class="clusterblast-orf" id="knownclusterblast-3_q18_0_all"  />
<polygon points="684,35 689,30 732,30 732,40 689,40 684,35 " style="fill:white; stroke-width:1; stroke:black; " description="&lt;b&gt;ctg5_341&lt;/b&gt;&lt;br&gt;ctg5 341&lt;br&gt;Location: 375589 - 377020" locus_tag="ctg5_341" class="clusterblast-orf" id="knownclusterblast-3_q19_0_all"  />
<polygon points="734,35 739,30 780,30 780,40 739,40 734,35 " style="fill:white; stroke-width:1; stroke:black; " description="&lt;b&gt;ctg5_342&lt;/b&gt;&lt;br&gt;ctg5 342&lt;br&gt;Location: 377103 - 378456" locus_tag="ctg5_342" class="clusterblast-orf" id="knownclusterblast-3_q20_0_all"  />
</g>
<g label="MGC00000046" description="MGC00000046_c1: DMSO-TMAO reducatse E. coli (75% of genes show similarity), DMSAO-TMAO" class="clusterblast-cluster"  >
<text x="5" y="70" class="clusterblast-acc"  >
MGC00000046_c1: DMSO-TMAO reducatse E. coli (75% of genes show similarity), DMSAO-TMAO</text>
<line x1="10" y1="85" x2="778.0" y2="85" style="stroke-width:1; stroke:grey; "  />
</g>
<g id="a3_000"  >
<polygon points="282,85 287,80 311,80 311,90 287,90 282,85 " style="fill:white; stroke-width:1; stroke:black; " description="&lt;b&gt;b1590&lt;/b&gt;&lt;br&gt;putative menaquinol dehydrogenase&lt;br&gt;Location: 16395 - 15540" locus_tag="b1590" class="clusterblast-orf" id="knownclusterblast-3_all_3_1_0"  />
</g>
<g id="a3_001"  >
<polygon points="311,85 316,80 332,80 332,90 316,90 311,85 " style="fill:#d81515; stroke-width:1; stroke:black; " description="&lt;b&gt;b1589&lt;/b&gt;&lt;br&gt;putative oxidoreductase YnfG&lt;br&gt;Location: 15539 - 14921&lt;br&gt;&lt;br&gt;&lt;b&gt;BlastP hit with ctg5_334&lt;/b&gt;&lt;br&gt;Percentage identity: 60&lt;br&gt;Percentage coverage: 98&lt;br&gt;BLAST bit score: 287&lt;br&gt;E-value: 9.17e-102" locus_tag="b1589" class="clusterblast-orf" id="knownclusterblast-3_all_3_1_1"  />
</g>
<g id="a3_002"  >
<polygon points="332,85 337,80 413,80 413,90 337,90 332,85 " style="fill:#15d8d8; stroke-width:1; stroke:black; " description="&lt;b&gt;b1588&lt;/b&gt;&lt;br&gt;putative selenate reductase YnfF&lt;br&gt;Location: 14911 - 12487&lt;br&gt;&lt;br&gt;&lt;b&gt;BlastP hit with ctg5_335&lt;/b&gt;&lt;br&gt;Percentage identity: 49&lt;br&gt;Percentage coverage: 99&lt;br&gt;BLAST bit score: 725&lt;br&gt;E-value: 1.92e-255" locus_tag="b1588" class="clusterblast-orf" id="knownclusterblast-3_all_3_1_2"  />
</g>
<g id="a3_003"  >
<polygon points="415,85 420,80 497,80 497,90 420,90 415,85 " style="fill:#15d8d8; stroke-width:1; stroke:black; " description="&lt;b&gt;b1587&lt;/b&gt;&lt;br&gt;putative selenate reductase YnfE&lt;br&gt;Location: 12427 - 10000&lt;br&gt;&lt;br&gt;&lt;b&gt;BlastP hit with ctg5_335&lt;/b&gt;&lt;br&gt;Percentage identity: 53&lt;br&gt;Percentage coverage: 94&lt;br&gt;BLAST bit score: 753&lt;br&gt;E-value: 2.64e-266" locus_tag="b1587" class="clusterblast-orf" id="knownclusterblast-3_all_3_1_3"  />
</g>
</svg>
