<svg xmlns="http://www.w3.org/2000/svg" xmlns:xlink="http://www.w3.org/1999/xlink" version="1.1" x="0" y="0" height="200" width="800" viewBox="0 0 800 200" preserveAspectRatio="none"  >
<g label="Query sequence" class="clusterblast-cluster"  >
<text x="5" y="20" class="clusterblast-acc"  >
Query sequence</text>
<line x1="10" y1="35" x2="778.0" y2="35" style="stroke-width:1; stroke:grey; "  />
<polygon points="0,40 6,40 11,35 6,30 0,30 0,40 " style="fill:#d81515; stroke-width:1; stroke:black; " description="&lt;b&gt;ctg19_1&lt;/b&gt;&lt;br&gt;ctg19 1&lt;br&gt;Location: 389 - 725" locus_tag="ctg19_1" class="clusterblast-orf" id="knownclusterblast-1_q0_0_all"  />
<polygon points="11,40 22,40 27,35 22,30 11,30 11,40 " style="fill:#77d815; stroke-width:1; stroke:black; " description="&lt;b&gt;ctg19_2&lt;/b&gt;&lt;br&gt;ctg19 2&lt;br&gt;Location: 737 - 1217" locus_tag="ctg19_2" class="clusterblast-orf" id="knownclusterblast-1_q1_0_all"  />
<polygon points="27,40 45,40 50,35 45,30 27,30 27,40 " style="fill:#15d8d8; stroke-width:1; stroke:black; " description="&lt;b&gt;ctg19_3&lt;/b&gt;&lt;br&gt;ctg19 3&lt;br&gt;Location: 1194 - 1884" locus_tag="ctg19_3" class="clusterblast-orf" id="knownclusterblast-1_q2_0_all"  />
<polygon points="49,40 71,40 76,35 71,30 49,30 49,40 " style="fill:#7715d8; stroke-width:1; stroke:black; " description="&lt;b&gt;ctg19_4&lt;/b&gt;&lt;br&gt;ctg19 4&lt;br&gt;Location: 1880 - 2684" locus_tag="ctg19_4" class="clusterblast-orf" id="knownclusterblast-1_q3_0_all"  />
<polygon points="76,40 105,40 110,35 105,30 76,30 76,40 " style="fill:#d85e15; stroke-width:1; stroke:black; " description="&lt;b&gt;ctg19_5&lt;/b&gt;&lt;br&gt;ctg19 5&lt;br&gt;Location: 2680 - 3697" locus_tag="ctg19_5" class="clusterblast-orf" id="knownclusterblast-1_q4_0_all"  />
<polygon points="111,40 116,40 121,35 116,30 111,30 111,40 " style="fill:#2ed815; stroke-width:1; stroke:black; " description="&lt;b&gt;ctg19_6&lt;/b&gt;&lt;br&gt;ctg19 6&lt;br&gt;Location: 3737 - 4028" locus_tag="ctg19_6" class="clusterblast-orf" id="knownclusterblast-1_q5_0_all"  />
<polygon points="125,40 129,40 134,35 129,30 125,30 125,40 " style="fill:#158fd8; stroke-width:1; stroke:black; " description="&lt;b&gt;ctg19_7&lt;/b&gt;&lt;br&gt;ctg19 7&lt;br&gt;Location: 4140 - 4428" locus_tag="ctg19_7" class="clusterblast-orf" id="knownclusterblast-1_q6_0_all"  />
<polygon points="135,40 176,40 181,35 176,30 135,30 135,40 " style="fill:#c015d8; stroke-width:1; stroke:black; " description="&lt;b&gt;ctg19_8&lt;/b&gt;&lt;br&gt;ctg19 8&lt;br&gt;Location: 4439 - 5843" locus_tag="ctg19_8" class="clusterblast-orf" id="knownclusterblast-1_q7_0_all"  />
<polygon points="182,40 205,40 210,35 205,30 182,30 182,40 " style="fill:#d8a715; stroke-width:1; stroke:black; " description="&lt;b&gt;ctg19_9&lt;/b&gt;&lt;br&gt;ctg19 9&lt;br&gt;Location: 5853 - 6693" locus_tag="ctg19_9" class="clusterblast-orf" id="knownclusterblast-1_q8_0_all"  />
<polygon points="209,40 244,40 249,35 244,30 209,30 209,40 " style="fill:#15d846; stroke-width:1; stroke:black; " description="&lt;b&gt;ctg19_10&lt;/b&gt;&lt;br&gt;ctg19 10&lt;br&gt;Location: 6682 - 7870" locus_tag="ctg19_10" class="clusterblast-orf" id="knownclusterblast-1_q9_0_all"  />
<polygon points="253,40 289,40 294,35 289,30 253,30 253,40 " style="fill:#1546d8; stroke-width:1; stroke:black; " description="&lt;b&gt;ctg19_11&lt;/b&gt;&lt;br&gt;ctg19 11&lt;br&gt;Location: 7989 - 9216" locus_tag="ctg19_11" class="clusterblast-orf" id="knownclusterblast-1_q10_0_all"  />
<polygon points="294,40 335,40 340,35 335,30 294,30 294,40 " style="fill:#d815a7; stroke-width:1; stroke:black; " description="&lt;b&gt;ctg19_12&lt;/b&gt;&lt;br&gt;ctg19 12&lt;br&gt;Location: 9212 - 10616" locus_tag="ctg19_12" class="clusterblast-orf" id="knownclusterblast-1_q11_0_all"  />
<polygon points="341,40 381,40 386,35 381,30 341,30 341,40 " style="fill:#c0d815; stroke-width:1; stroke:black; " description="&lt;b&gt;ctg19_13&lt;/b&gt;&lt;br&gt;ctg19 13&lt;br&gt;Location: 10627 - 11989" locus_tag="ctg19_13" class="clusterblast-orf" id="knownclusterblast-1_q12_0_all"  />
<polygon points="387,40 412,40 417,35 412,30 387,30 387,40 " style="fill:#15d88f; stroke-width:1; stroke:black; " description="&lt;b&gt;ctg19_14&lt;/b&gt;&lt;br&gt;ctg19 14&lt;br&gt;Location: 12007 - 12904" locus_tag="ctg19_14" class="clusterblast-orf" id="knownclusterblast-1_q13_0_all"  />
<polygon points="417,40 434,40 439,35 434,30 417,30 417,40 " style="fill:#2e15d8; stroke-width:1; stroke:black; " description="&lt;b&gt;ctg19_15&lt;/b&gt;&lt;br&gt;ctg19 15&lt;br&gt;Location: 12913 - 13573" locus_tag="ctg19_15" class="clusterblast-orf" id="knownclusterblast-1_q14_0_all"  />
<polygon points="439,40 451,40 456,35 451,30 439,30 439,40 " style="fill:#2ed815; stroke-width:1; stroke:black; " description="&lt;b&gt;ctg19_16&lt;/b&gt;&lt;br&gt;ctg19 16&lt;br&gt;Location: 13585 - 14080" locus_tag="ctg19_16" class="clusterblast-orf" id="knownclusterblast-1_q15_0_all"  />
<polygon points="460,40 487,40 492,35 487,30 460,30 460,40 " style="fill:#d8155e; stroke-width:1; stroke:black; " description="&lt;b&gt;ctg19_17&lt;/b&gt;&lt;br&gt;ctg19 17&lt;br&gt;Location: 14211 - 15180" locus_tag="ctg19_17" class="clusterblast-orf" id="knownclusterblast-1_q16_0_all"  />
<polygon points="499,35 504,30 541,30 541,40 504,40 499,35 " style="fill:white; stroke-width:1; stroke:black; " description="&lt;b&gt;ctg19_18&lt;/b&gt;&lt;br&gt;ctg19 18&lt;br&gt;Location: 15379 - 16657" locus_tag="ctg19_18" class="clusterblast-orf" id="knownclusterblast-1_q17_0_all"  />
<polygon points="546,35 551,30 557,30 557,40 551,40 546,35 " style="fill:white; stroke-width:1; stroke:black; " description="&lt;b&gt;ctg19_19&lt;/b&gt;&lt;br&gt;ctg19 19&lt;br&gt;Location: 16785 - 17115" locus_tag="ctg19_19" class="clusterblast-orf" id="knownclusterblast-1_q18_0_all"  />
<polygon points="557,35 562,30 587,30 587,40 562,40 557,35 " style="fill:white; stroke-width:1; stroke:black; " description="&lt;b&gt;ctg19_20&lt;/b&gt;&lt;br&gt;ctg19 20&lt;br&gt;Location: 17135 - 18035" locus_tag="ctg19_20" class="clusterblast-orf" id="knownclusterblast-1_q19_0_all"  />
<polygon points="587,35 592,30 616,30 616,40 592,40 587,35 " style="fill:white; stroke-width:1; stroke:black; " description="&lt;b&gt;ctg19_21&lt;/b&gt;&lt;br&gt;ctg19 21&lt;br&gt;Location: 18037 - 18907" locus_tag="ctg19_21" class="clusterblast-orf" id="knownclusterblast-1_q20_0_all"  />
<polygon points="623,40 633,40 638,35 633,30 623,30 623,40 " style="fill:white; stroke-width:1; stroke:black; " description="&lt;b&gt;ctg19_22&lt;/b&gt;&lt;br&gt;ctg19 22&lt;br&gt;Location: 19119 - 19545" locus_tag="ctg19_22" class="clusterblast-orf" id="knownclusterblast-1_q21_0_all"  />
<polygon points="637,40 647,40 652,35 647,30 637,30 637,40 " style="fill:white; stroke-width:1; stroke:black; " description="&lt;b&gt;ctg19_23&lt;/b&gt;&lt;br&gt;ctg19 23&lt;br&gt;Location: 19531 - 19981" locus_tag="ctg19_23" class="clusterblast-orf" id="knownclusterblast-1_q22_0_all"  />
<polygon points="654,40 668,40 673,35 668,30 654,30 654,40 " style="fill:white; stroke-width:1; stroke:black; " description="&lt;b&gt;ctg19_24&lt;/b&gt;&lt;br&gt;ctg19 24&lt;br&gt;Location: 20042 - 20618" locus_tag="ctg19_24" class="clusterblast-orf" id="knownclusterblast-1_q23_0_all"  />
<polygon points="677,40 701,40 706,35 701,30 677,30 677,40 " style="fill:white; stroke-width:1; stroke:black; " description="&lt;b&gt;ctg19_25&lt;/b&gt;&lt;br&gt;ctg19 25&lt;br&gt;Location: 20712 - 21612" locus_tag="ctg19_25" class="clusterblast-orf" id="knownclusterblast-1_q24_0_all"  />
<polygon points="704,35 709,30 710,30 710,40 709,40 704,35 " style="fill:white; stroke-width:1; stroke:black; " description="&lt;b&gt;ctg19_26&lt;/b&gt;&lt;br&gt;ctg19 26&lt;br&gt;Location: 21547 - 21715" locus_tag="ctg19_26" class="clusterblast-orf" id="knownclusterblast-1_q25_0_all"  />
<polygon points="714,40 736,40 741,35 736,30 714,30 714,40 " style="fill:white; stroke-width:1; stroke:black; " description="&lt;b&gt;ctg19_27&lt;/b&gt;&lt;br&gt;ctg19 27&lt;br&gt;Location: 21849 - 22641" locus_tag="ctg19_27" class="clusterblast-orf" id="knownclusterblast-1_q26_0_all"  />
<polygon points="746,40 775,40 780,35 775,30 746,30 746,40 " style="fill:white; stroke-width:1; stroke:black; " description="&lt;b&gt;ctg19_28&lt;/b&gt;&lt;br&gt;ctg19 28&lt;br&gt;Location: 22798 - 23815" locus_tag="ctg19_28" class="clusterblast-orf" id="knownclusterblast-1_q27_0_all"  />
</g>
<g label="MGC0000003" description="MGC0000003_c1: Ethanolamine degradation S. typhimurium (94% of genes show similarity), EUT" class="clusterblast-cluster"  >
<text x="5" y="70" class="clusterblast-acc"  >
MGC0000003_c1: Ethanolamine degradation S. typhimurium (94% of genes show similarity), EUT</text>
<line x1="10" y1="85" x2="778.0" y2="85" style="stroke-width:1; stroke:grey; "  />
</g>
<g id="a1_000"  >
<polygon points="87,90 157,90 162,85 157,80 87,80 87,90 " style="fill:#d85e15; stroke-width:1; stroke:black; " description="&lt;b&gt;STM2472&lt;/b&gt;&lt;br&gt;malic enzyme&lt;br&gt;Location: 18301 - 16021&lt;br&gt;&lt;br&gt;&lt;b&gt;BlastP hit with ctg19_5&lt;/b&gt;&lt;br&gt;Percentage identity: 32&lt;br&gt;Percentage coverage: 96&lt;br&gt;BLAST bit score: 147&lt;br&gt;E-value: 3.13e-41" locus_tag="STM2472" class="clusterblast-orf" id="knownclusterblast-1_all_1_1_0"  />
</g>
<g id="a1_001"  >
<polygon points="169,90 179,90 184,85 179,80 169,80 169,90 " style="fill:white; stroke-width:1; stroke:black; " description="&lt;b&gt;STM2471&lt;/b&gt;&lt;br&gt;insertion sequence element IS200 transposase&lt;br&gt;Location: 15832 - 15373" locus_tag="STM2471" class="clusterblast-orf" id="knownclusterblast-1_all_1_1_1"  />
</g>
<g id="a1_002"  >
<polygon points="200,90 206,90 211,85 206,80 200,80 200,90 " style="fill:#d81515; stroke-width:1; stroke:black; " description="&lt;b&gt;STM2470&lt;/b&gt;&lt;br&gt;carboxysome structural protein EutS&lt;br&gt;Location: 14893 - 14557&lt;br&gt;&lt;br&gt;&lt;b&gt;BlastP hit with ctg19_1&lt;/b&gt;&lt;br&gt;Percentage identity: 100&lt;br&gt;Percentage coverage: 100&lt;br&gt;BLAST bit score: 219&lt;br&gt;E-value: 1.05e-77" locus_tag="STM2470" class="clusterblast-orf" id="knownclusterblast-1_all_1_1_2"  />
</g>
<g id="a1_003"  >
<polygon points="212,90 223,90 228,85 223,80 212,80 212,90 " style="fill:#77d815; stroke-width:1; stroke:black; " description="&lt;b&gt;STM2469&lt;/b&gt;&lt;br&gt;ethanolamine utilization protein EutP&lt;br&gt;Location: 14545 - 14065&lt;br&gt;&lt;br&gt;&lt;b&gt;BlastP hit with ctg19_2&lt;/b&gt;&lt;br&gt;Percentage identity: 100&lt;br&gt;Percentage coverage: 100&lt;br&gt;BLAST bit score: 323&lt;br&gt;E-value: 1.76e-117" locus_tag="STM2469" class="clusterblast-orf" id="knownclusterblast-1_all_1_1_3"  />
</g>
<g id="a1_004"  >
<polygon points="227,90 245,90 250,85 245,80 227,80 227,90 " style="fill:#15d8d8; stroke-width:1; stroke:black; " description="&lt;b&gt;STM2468&lt;/b&gt;&lt;br&gt;ethanolamine utilization protein EutQ&lt;br&gt;Location: 14088 - 13398&lt;br&gt;&lt;br&gt;&lt;b&gt;BlastP hit with ctg19_3&lt;/b&gt;&lt;br&gt;Percentage identity: 100&lt;br&gt;Percentage coverage: 100&lt;br&gt;BLAST bit score: 445&lt;br&gt;E-value: 1.69e-163" locus_tag="STM2468" class="clusterblast-orf" id="knownclusterblast-1_all_1_1_4"  />
</g>
<g id="a1_005"  >
<polygon points="250,90 271,90 276,85 271,80 250,80 250,90 " style="fill:#7715d8; stroke-width:1; stroke:black; " description="&lt;b&gt;STM2467&lt;/b&gt;&lt;br&gt;cobalamin adenosyltransferase EutT&lt;br&gt;Location: 13402 - 12598&lt;br&gt;&lt;br&gt;&lt;b&gt;BlastP hit with ctg19_4&lt;/b&gt;&lt;br&gt;Percentage identity: 100&lt;br&gt;Percentage coverage: 100&lt;br&gt;BLAST bit score: 530&lt;br&gt;E-value: 9.14e-196" locus_tag="STM2467" class="clusterblast-orf" id="knownclusterblast-1_all_1_1_5"  />
</g>
<g id="a1_006"  >
<polygon points="276,90 305,90 310,85 305,80 276,80 276,90 " style="fill:#d85e15; stroke-width:1; stroke:black; " description="&lt;b&gt;STM2466&lt;/b&gt;&lt;br&gt;phosphotransacetylase EutD&lt;br&gt;Location: 12602 - 11585&lt;br&gt;&lt;br&gt;&lt;b&gt;BlastP hit with ctg19_5&lt;/b&gt;&lt;br&gt;Percentage identity: 100&lt;br&gt;Percentage coverage: 100&lt;br&gt;BLAST bit score: 649&lt;br&gt;E-value: 1.25e-240" locus_tag="STM2466" class="clusterblast-orf" id="knownclusterblast-1_all_1_1_6"  />
</g>
<g id="a1_007"  >
<polygon points="311,90 316,90 321,85 316,80 311,80 311,90 " style="fill:#2ed815; stroke-width:1; stroke:black; " description="&lt;b&gt;STM2465&lt;/b&gt;&lt;br&gt;carboxysome structural protein EutM&lt;br&gt;Location: 11545 - 11254&lt;br&gt;&lt;br&gt;&lt;b&gt;BlastP hit with ctg19_6&lt;/b&gt;&lt;br&gt;Percentage identity: 100&lt;br&gt;Percentage coverage: 100&lt;br&gt;BLAST bit score: 179&lt;br&gt;E-value: 2.59e-62&lt;br&gt;&lt;br&gt;&lt;b&gt;BlastP hit with ctg19_16&lt;/b&gt;&lt;br&gt;Percentage identity: 48&lt;br&gt;Percentage coverage: 51&lt;br&gt;BLAST bit score: 76&lt;br&gt;E-value: 1.07e-20" locus_tag="STM2465" class="clusterblast-orf" id="knownclusterblast-1_all_1_1_7"  />
</g>
<g id="a1_008"  >
<polygon points="325,90 329,90 334,85 329,80 325,80 325,90 " style="fill:#158fd8; stroke-width:1; stroke:black; " description="&lt;b&gt;STM2464&lt;/b&gt;&lt;br&gt;microcompartment shell protein EutN&lt;br&gt;Location: 11142 - 10854&lt;br&gt;&lt;br&gt;&lt;b&gt;BlastP hit with ctg19_7&lt;/b&gt;&lt;br&gt;Percentage identity: 100&lt;br&gt;Percentage coverage: 100&lt;br&gt;BLAST bit score: 190&lt;br&gt;E-value: 9.06e-67" locus_tag="STM2464" class="clusterblast-orf" id="knownclusterblast-1_all_1_1_8"  />
</g>
<g id="a1_009"  >
<polygon points="335,90 377,90 382,85 377,80 335,80 335,90 " style="fill:#c015d8; stroke-width:1; stroke:black; " description="&lt;b&gt;STM2463&lt;/b&gt;&lt;br&gt;aldehyde oxidoreductase EutE&lt;br&gt;Location: 10843 - 9439&lt;br&gt;&lt;br&gt;&lt;b&gt;BlastP hit with ctg19_8&lt;/b&gt;&lt;br&gt;Percentage identity: 100&lt;br&gt;Percentage coverage: 100&lt;br&gt;BLAST bit score: 884&lt;br&gt;E-value: 0.0" locus_tag="STM2463" class="clusterblast-orf" id="knownclusterblast-1_all_1_1_9"  />
</g>
<g id="a1_0010"  >
<polygon points="382,90 405,90 410,85 405,80 382,80 382,90 " style="fill:#d8a715; stroke-width:1; stroke:black; " description="&lt;b&gt;STM2462&lt;/b&gt;&lt;br&gt;ethanolamine utilization protein EutJ&lt;br&gt;Location: 9429 - 8589&lt;br&gt;&lt;br&gt;&lt;b&gt;BlastP hit with ctg19_9&lt;/b&gt;&lt;br&gt;Percentage identity: 100&lt;br&gt;Percentage coverage: 100&lt;br&gt;BLAST bit score: 566&lt;br&gt;E-value: 7.61e-210" locus_tag="STM2462" class="clusterblast-orf" id="knownclusterblast-1_all_1_1_10"  />
</g>
<g id="a1_0011"  >
<polygon points="410,90 444,90 449,85 444,80 410,80 410,90 " style="fill:#15d846; stroke-width:1; stroke:black; " description="&lt;b&gt;STM2461&lt;/b&gt;&lt;br&gt;ethanol dehydrogenase EutG&lt;br&gt;Location: 8600 - 7412&lt;br&gt;&lt;br&gt;&lt;b&gt;BlastP hit with ctg19_10&lt;/b&gt;&lt;br&gt;Percentage identity: 100&lt;br&gt;Percentage coverage: 100&lt;br&gt;BLAST bit score: 756&lt;br&gt;E-value: 4.5e-281" locus_tag="STM2461" class="clusterblast-orf" id="knownclusterblast-1_all_1_1_11"  />
</g>
<g id="a1_0012"  >
<polygon points="453,90 489,90 494,85 489,80 453,80 453,90 " style="fill:#1546d8; stroke-width:1; stroke:black; " description="&lt;b&gt;STM2460&lt;/b&gt;&lt;br&gt;ethanolamine transporter EutH&lt;br&gt;Location: 7293 - 6066&lt;br&gt;&lt;br&gt;&lt;b&gt;BlastP hit with ctg19_11&lt;/b&gt;&lt;br&gt;Percentage identity: 100&lt;br&gt;Percentage coverage: 100&lt;br&gt;BLAST bit score: 765&lt;br&gt;E-value: 5.51e-284" locus_tag="STM2460" class="clusterblast-orf" id="knownclusterblast-1_all_1_1_12"  />
</g>
<g id="a1_0013"  >
<polygon points="494,90 535,90 540,85 535,80 494,80 494,90 " style="fill:#d815a7; stroke-width:1; stroke:black; " description="&lt;b&gt;STM2459&lt;/b&gt;&lt;br&gt;ethanolamine utilization protein EutA&lt;br&gt;Location: 6070 - 4666&lt;br&gt;&lt;br&gt;&lt;b&gt;BlastP hit with ctg19_12&lt;/b&gt;&lt;br&gt;Percentage identity: 100&lt;br&gt;Percentage coverage: 100&lt;br&gt;BLAST bit score: 896&lt;br&gt;E-value: 0.0" locus_tag="STM2459" class="clusterblast-orf" id="knownclusterblast-1_all_1_1_13"  />
</g>
<g id="a1_0014"  >
<polygon points="541,90 581,90 586,85 581,80 541,80 541,90 " style="fill:#c0d815; stroke-width:1; stroke:black; " description="&lt;b&gt;STM2458&lt;/b&gt;&lt;br&gt;ethanolamine ammonia-lyase large subunit EutB&lt;br&gt;Location: 4655 - 3293&lt;br&gt;&lt;br&gt;&lt;b&gt;BlastP hit with ctg19_13&lt;/b&gt;&lt;br&gt;Percentage identity: 100&lt;br&gt;Percentage coverage: 100&lt;br&gt;BLAST bit score: 902&lt;br&gt;E-value: 0.0" locus_tag="STM2458" class="clusterblast-orf" id="knownclusterblast-1_all_1_1_14"  />
</g>
<g id="a1_0015"  >
<polygon points="587,90 612,90 617,85 612,80 587,80 587,90 " style="fill:#15d88f; stroke-width:1; stroke:black; " description="&lt;b&gt;STM2457&lt;/b&gt;&lt;br&gt;ethanolamine ammonia-lyase small subunit EutC&lt;br&gt;Location: 3275 - 2378&lt;br&gt;&lt;br&gt;&lt;b&gt;BlastP hit with ctg19_14&lt;/b&gt;&lt;br&gt;Percentage identity: 100&lt;br&gt;Percentage coverage: 100&lt;br&gt;BLAST bit score: 576&lt;br&gt;E-value: 7.29e-213" locus_tag="STM2457" class="clusterblast-orf" id="knownclusterblast-1_all_1_1_15"  />
</g>
<g id="a1_0016"  >
<polygon points="617,90 634,90 639,85 634,80 617,80 617,90 " style="fill:#2e15d8; stroke-width:1; stroke:black; " description="&lt;b&gt;STM2456&lt;/b&gt;&lt;br&gt;carboxysome structural protein EutL&lt;br&gt;Location: 2369 - 1709&lt;br&gt;&lt;br&gt;&lt;b&gt;BlastP hit with ctg19_15&lt;/b&gt;&lt;br&gt;Percentage identity: 100&lt;br&gt;Percentage coverage: 100&lt;br&gt;BLAST bit score: 415&lt;br&gt;E-value: 8.71e-152" locus_tag="STM2456" class="clusterblast-orf" id="knownclusterblast-1_all_1_1_16"  />
</g>
<g id="a1_0017"  >
<polygon points="639,90 651,90 656,85 651,80 639,80 639,90 " style="fill:#2ed815; stroke-width:1; stroke:black; " description="&lt;b&gt;STM2455&lt;/b&gt;&lt;br&gt;carboxysome structural protein EutK&lt;br&gt;Location: 1697 - 1202&lt;br&gt;&lt;br&gt;&lt;b&gt;BlastP hit with ctg19_6&lt;/b&gt;&lt;br&gt;Percentage identity: 48&lt;br&gt;Percentage coverage: 86&lt;br&gt;BLAST bit score: 72&lt;br&gt;E-value: 1.96e-19&lt;br&gt;&lt;br&gt;&lt;b&gt;BlastP hit with ctg19_16&lt;/b&gt;&lt;br&gt;Percentage identity: 100&lt;br&gt;Percentage coverage: 100&lt;br&gt;BLAST bit score: 309&lt;br&gt;E-value: 7.95e-112" locus_tag="STM2455" class="clusterblast-orf" id="knownclusterblast-1_all_1_1_17"  />
</g>
<g id="a1_0018"  >
<polygon points="657,90 687,90 692,85 687,80 657,80 657,90 " style="fill:#d8155e; stroke-width:1; stroke:black; " description="&lt;b&gt;STM2454&lt;/b&gt;&lt;br&gt;HTH-type transcriptional regulator EutR&lt;br&gt;Location: 1155 - 102&lt;br&gt;&lt;br&gt;&lt;b&gt;BlastP hit with ctg19_17&lt;/b&gt;&lt;br&gt;Percentage identity: 100&lt;br&gt;Percentage coverage: 100&lt;br&gt;BLAST bit score: 649&lt;br&gt;E-value: 2.07e-240" locus_tag="STM2454" class="clusterblast-orf" id="knownclusterblast-1_all_1_1_18"  />
</g>
<g label="MGC00000010" description="MGC00000010_c1: Propanediol degradation S. enterica (25% of genes show similarity), PDU" class="clusterblast-cluster"  >
<text x="5" y="120" class="clusterblast-acc"  >
MGC00000010_c1: Propanediol degradation S. enterica (25% of genes show similarity), PDU</text>
<line x1="10" y1="135" x2="778.0" y2="135" style="stroke-width:1; stroke:grey; "  />
</g>
<g id="a1_000"  >
<polygon points="66,135 71,130 97,130 97,140 71,140 66,135 " style="fill:white; stroke-width:1; stroke:black; " description="&lt;b&gt;STM2036&lt;/b&gt;&lt;br&gt;transcriptional regulator PocR&lt;br&gt;Location: 221 - 1133" locus_tag="STM2036" class="clusterblast-orf" id="knownclusterblast-1_all_1_2_0"  />
</g>
<g id="a1_001"  >
<polygon points="104,135 109,130 130,130 130,140 109,140 104,135 " style="fill:white; stroke-width:1; stroke:black; " description="&lt;b&gt;STM2037&lt;/b&gt;&lt;br&gt;propanediol diffusion facilitator&lt;br&gt;Location: 1349 - 2144" locus_tag="STM2037" class="clusterblast-orf" id="knownclusterblast-1_all_1_2_1"  />
</g>
<g id="a1_002"  >
<polygon points="148,140 152,140 157,135 152,130 148,130 148,140 " style="fill:#2ed815; stroke-width:1; stroke:black; " description="&lt;b&gt;STM2038&lt;/b&gt;&lt;br&gt;propanediol utilization polyhedral body protein PduA&lt;br&gt;Location: 2668 - 2953&lt;br&gt;&lt;br&gt;&lt;b&gt;BlastP hit with ctg19_6&lt;/b&gt;&lt;br&gt;Percentage identity: 67&lt;br&gt;Percentage coverage: 90&lt;br&gt;BLAST bit score: 111&lt;br&gt;E-value: 1.66e-35&lt;br&gt;&lt;br&gt;&lt;b&gt;BlastP hit with ctg19_16&lt;/b&gt;&lt;br&gt;Percentage identity: 44&lt;br&gt;Percentage coverage: 52&lt;br&gt;BLAST bit score: 74&lt;br&gt;E-value: 1.14e-19" locus_tag="STM2038" class="clusterblast-orf" id="knownclusterblast-1_all_1_2_2"  />
</g>
<g id="a1_003"  >
<polygon points="157,140 179,140 184,135 179,130 157,130 157,140 " style="fill:white; stroke-width:1; stroke:black; " description="&lt;b&gt;STM2039&lt;/b&gt;&lt;br&gt;propanediol utilization polyhedral body protein PduB&lt;br&gt;Location: 2949 - 3762" locus_tag="STM2039" class="clusterblast-orf" id="knownclusterblast-1_all_1_2_3"  />
</g>
<g id="a1_004"  >
<polygon points="185,140 235,140 240,135 235,130 185,130 185,140 " style="fill:white; stroke-width:1; stroke:black; " description="&lt;b&gt;STM2040&lt;/b&gt;&lt;br&gt;propanediol dehydratase large subunit&lt;br&gt;Location: 3780 - 5445" locus_tag="STM2040" class="clusterblast-orf" id="knownclusterblast-1_all_1_2_4"  />
</g>
<g id="a1_005"  >
<polygon points="240,140 258,140 263,135 258,130 240,130 240,140 " style="fill:white; stroke-width:1; stroke:black; " description="&lt;b&gt;STM2041&lt;/b&gt;&lt;br&gt;propanediol dehydratase medium subunit&lt;br&gt;Location: 5455 - 6130" locus_tag="STM2041" class="clusterblast-orf" id="knownclusterblast-1_all_1_2_5"  />
</g>
<g id="a1_006"  >
<polygon points="263,140 276,140 281,135 276,130 263,130 263,140 " style="fill:white; stroke-width:1; stroke:black; " description="&lt;b&gt;STM2042&lt;/b&gt;&lt;br&gt;propanediol dehydratase small subunit&lt;br&gt;Location: 6144 - 6666" locus_tag="STM2042" class="clusterblast-orf" id="knownclusterblast-1_all_1_2_6"  />
</g>
<g id="a1_007"  >
<polygon points="281,140 337,140 342,135 337,130 281,130 281,140 " style="fill:white; stroke-width:1; stroke:black; " description="&lt;b&gt;STM2043&lt;/b&gt;&lt;br&gt;propanediol dehydratase reactivation protein&lt;br&gt;Location: 6675 - 8508" locus_tag="STM2043" class="clusterblast-orf" id="knownclusterblast-1_all_1_2_7"  />
</g>
<g id="a1_008"  >
<polygon points="342,140 348,140 353,135 348,130 342,130 342,140 " style="fill:white; stroke-width:1; stroke:black; " description="&lt;b&gt;STM2044&lt;/b&gt;&lt;br&gt;propanediol dehydratase reactivation protein&lt;br&gt;Location: 8497 - 8848" locus_tag="STM2044" class="clusterblast-orf" id="knownclusterblast-1_all_1_2_8"  />
</g>
<g id="a1_009"  >
<polygon points="354,140 358,140 363,135 358,130 354,130 354,140 " style="fill:#2ed815; stroke-width:1; stroke:black; " description="&lt;b&gt;STM2045&lt;/b&gt;&lt;br&gt;propanediol utilization polyhedral body protein PduJ&lt;br&gt;Location: 8866 - 9142&lt;br&gt;&lt;br&gt;&lt;b&gt;BlastP hit with ctg19_6&lt;/b&gt;&lt;br&gt;Percentage identity: 64&lt;br&gt;Percentage coverage: 91&lt;br&gt;BLAST bit score: 105&lt;br&gt;E-value: 2.92e-33&lt;br&gt;&lt;br&gt;&lt;b&gt;BlastP hit with ctg19_16&lt;/b&gt;&lt;br&gt;Percentage identity: 48&lt;br&gt;Percentage coverage: 53&lt;br&gt;BLAST bit score: 79&lt;br&gt;E-value: 5.95e-22" locus_tag="STM2045" class="clusterblast-orf" id="knownclusterblast-1_all_1_2_9"  />
</g>
<g id="a1_0010"  >
<polygon points="364,140 374,140 379,135 374,130 364,130 364,140 " style="fill:white; stroke-width:1; stroke:black; " description="&lt;b&gt;STM2046&lt;/b&gt;&lt;br&gt;propanediol utilization polyhedral body protein PduK&lt;br&gt;Location: 9166 - 9628" locus_tag="STM2046" class="clusterblast-orf" id="knownclusterblast-1_all_1_2_10"  />
</g>
<g id="a1_0011"  >
<polygon points="379,140 395,140 400,135 395,130 379,130 379,140 " style="fill:white; stroke-width:1; stroke:black; " description="&lt;b&gt;STM2047&lt;/b&gt;&lt;br&gt;phosphate propanoyltransferase&lt;br&gt;Location: 9627 - 10260" locus_tag="STM2047" class="clusterblast-orf" id="knownclusterblast-1_all_1_2_11"  />
</g>
<g id="a1_0012"  >
<polygon points="400,140 412,140 417,135 412,130 400,130 400,140 " style="fill:white; stroke-width:1; stroke:black; " description="&lt;b&gt;STM2048&lt;/b&gt;&lt;br&gt;propanediol utilization protein PduM&lt;br&gt;Location: 10256 - 10748" locus_tag="STM2048" class="clusterblast-orf" id="knownclusterblast-1_all_1_2_12"  />
</g>
<g id="a1_0013"  >
<polygon points="417,140 421,140 426,135 421,130 417,130 417,140 " style="fill:#158fd8; stroke-width:1; stroke:black; " description="&lt;b&gt;STM2049&lt;/b&gt;&lt;br&gt;propanediol utilization polyhedral body protein PduN&lt;br&gt;Location: 10751 - 11027&lt;br&gt;&lt;br&gt;&lt;b&gt;BlastP hit with ctg19_7&lt;/b&gt;&lt;br&gt;Percentage identity: 46&lt;br&gt;Percentage coverage: 92&lt;br&gt;BLAST bit score: 67&lt;br&gt;E-value: 6.17e-18" locus_tag="STM2049" class="clusterblast-orf" id="knownclusterblast-1_all_1_2_13"  />
</g>
<g id="a1_0014"  >
<polygon points="426,140 455,140 460,135 455,130 426,130 426,140 " style="fill:white; stroke-width:1; stroke:black; " description="&lt;b&gt;STM2050&lt;/b&gt;&lt;br&gt;propanediol utilization protein PduO&lt;br&gt;Location: 11036 - 12047" locus_tag="STM2050" class="clusterblast-orf" id="knownclusterblast-1_all_1_2_14"  />
</g>
<g id="a1_0015"  >
<polygon points="460,140 501,140 506,135 501,130 460,130 460,140 " style="fill:#c015d8; stroke-width:1; stroke:black; " description="&lt;b&gt;STM2051&lt;/b&gt;&lt;br&gt;CoA-dependent propionaldehyde dehydrogenase&lt;br&gt;Location: 12043 - 13438&lt;br&gt;&lt;br&gt;&lt;b&gt;BlastP hit with ctg19_8&lt;/b&gt;&lt;br&gt;Percentage identity: 46&lt;br&gt;Percentage coverage: 102&lt;br&gt;BLAST bit score: 371&lt;br&gt;E-value: 5.75e-127" locus_tag="STM2051" class="clusterblast-orf" id="knownclusterblast-1_all_1_2_15"  />
</g>
<g id="a1_0016"  >
<polygon points="507,140 539,140 544,135 539,130 507,130 507,140 " style="fill:#15d846; stroke-width:1; stroke:black; " description="&lt;b&gt;STM2052&lt;/b&gt;&lt;br&gt;propanol dehydrogenase&lt;br&gt;Location: 13449 - 14562&lt;br&gt;&lt;br&gt;&lt;b&gt;BlastP hit with ctg19_10&lt;/b&gt;&lt;br&gt;Percentage identity: 37&lt;br&gt;Percentage coverage: 97&lt;br&gt;BLAST bit score: 181&lt;br&gt;E-value: 3.47e-55" locus_tag="STM2052" class="clusterblast-orf" id="knownclusterblast-1_all_1_2_16"  />
</g>
<g id="a1_0017"  >
<polygon points="544,140 584,140 589,135 584,130 544,130 544,140 " style="fill:white; stroke-width:1; stroke:black; " description="&lt;b&gt;STM2053&lt;/b&gt;&lt;br&gt;propanediol utilization polyhedral body protein PduS&lt;br&gt;Location: 14558 - 15914" locus_tag="STM2053" class="clusterblast-orf" id="knownclusterblast-1_all_1_2_17"  />
</g>
<g id="a1_0018"  >
<polygon points="589,140 602,140 607,135 602,130 589,130 589,140 " style="fill:white; stroke-width:1; stroke:black; " description="&lt;b&gt;STM2054&lt;/b&gt;&lt;br&gt;propanediol utilization polyhedral body protein PduT&lt;br&gt;Location: 15916 - 16471" locus_tag="STM2054" class="clusterblast-orf" id="knownclusterblast-1_all_1_2_18"  />
</g>
<g id="a1_0019"  >
<polygon points="607,140 614,140 619,135 614,130 607,130 607,140 " style="fill:#d81515; stroke-width:1; stroke:black; " description="&lt;b&gt;STM2055&lt;/b&gt;&lt;br&gt;propanediol utilization polyhedral body protein PduU&lt;br&gt;Location: 16470 - 16821&lt;br&gt;&lt;br&gt;&lt;b&gt;BlastP hit with ctg19_1&lt;/b&gt;&lt;br&gt;Percentage identity: 58&lt;br&gt;Percentage coverage: 98&lt;br&gt;BLAST bit score: 128&lt;br&gt;E-value: 1.15e-41" locus_tag="STM2055" class="clusterblast-orf" id="knownclusterblast-1_all_1_2_19"  />
</g>
<g id="a1_0020"  >
<polygon points="619,140 629,140 634,135 629,130 619,130 619,140 " style="fill:white; stroke-width:1; stroke:black; " description="&lt;b&gt;STM2056&lt;/b&gt;&lt;br&gt;propanediol utilization protein PduV&lt;br&gt;Location: 16825 - 17278" locus_tag="STM2056" class="clusterblast-orf" id="knownclusterblast-1_all_1_2_20"  />
</g>
<g id="a1_0021"  >
<polygon points="634,140 669,140 674,135 669,130 634,130 634,140 " style="fill:white; stroke-width:1; stroke:black; " description="&lt;b&gt;STM2057&lt;/b&gt;&lt;br&gt;propionate kinase&lt;br&gt;Location: 17262 - 18477" locus_tag="STM2057" class="clusterblast-orf" id="knownclusterblast-1_all_1_2_21"  />
</g>
<g id="a1_0022"  >
<polygon points="676,140 701,140 706,135 701,130 676,130 676,140 " style="fill:white; stroke-width:1; stroke:black; " description="&lt;b&gt;STM2058&lt;/b&gt;&lt;br&gt;L-threonine kinase&lt;br&gt;Location: 18534 - 19437" locus_tag="STM2058" class="clusterblast-orf" id="knownclusterblast-1_all_1_2_22"  />
</g>
<g id="a1_0023"  >
<polygon points="707,135 712,130 713,130 713,140 712,140 707,135 " style="fill:white; stroke-width:1; stroke:black; " description="&lt;b&gt;STM2059&lt;/b&gt;&lt;br&gt;hypothetical protein&lt;br&gt;Location: 19470 - 19638" locus_tag="STM2059" class="clusterblast-orf" id="knownclusterblast-1_all_1_2_23"  />
</g>
<g label="MGC0000001" description="MGC0000001_c1: Trimethylamine synthesis C. sporogenes (33% of genes show similarity), TMA" class="clusterblast-cluster"  >
<text x="5" y="170" class="clusterblast-acc"  >
MGC0000001_c1: Trimethylamine synthesis C. sporogenes (33% of genes show similarity), TMA</text>
<line x1="10" y1="185" x2="778.0" y2="185" style="stroke-width:1; stroke:grey; "  />
</g>
<g id="a1_000"  >
<polygon points="295,190 295,185 295,180 295,190 " style="fill:#2ed815; stroke-width:1; stroke:black; " description="&lt;b&gt;CLOSPO_RS07620&lt;/b&gt;&lt;br&gt;hypothetical protein&lt;br&gt;Location: 0 - 4&lt;br&gt;&lt;br&gt;&lt;b&gt;BlastP hit with ctg19_6&lt;/b&gt;&lt;br&gt;Percentage identity: 55&lt;br&gt;Percentage coverage: 90&lt;br&gt;BLAST bit score: 82&lt;br&gt;E-value: 1.05e-23&lt;br&gt;&lt;br&gt;&lt;b&gt;BlastP hit with ctg19_16&lt;/b&gt;&lt;br&gt;Percentage identity: 42&lt;br&gt;Percentage coverage: 55&lt;br&gt;BLAST bit score: 66&lt;br&gt;E-value: 9.41e-17" locus_tag="CLOSPO_RS07620" class="clusterblast-orf" id="knownclusterblast-1_all_1_3_0"  />
</g>
<g id="a1_001"  >
<polygon points="296,190 340,190 345,185 340,180 296,180 296,190 " style="fill:white; stroke-width:1; stroke:black; " description="&lt;b&gt;CLOSPO_RS07625&lt;/b&gt;&lt;br&gt;acetaldehyde dehydrogenase&lt;br&gt;Location: 41 - 1523" locus_tag="CLOSPO_RS07625" class="clusterblast-orf" id="knownclusterblast-1_all_1_3_1"  />
</g>
<g id="a1_002"  >
<polygon points="347,190 426,190 431,185 426,180 347,180 347,190 " style="fill:white; stroke-width:1; stroke:black; " description="&lt;b&gt;CLOSPO_RS07630&lt;/b&gt;&lt;br&gt;choline trimethylamine-lyase&lt;br&gt;Location: 1572 - 4113" locus_tag="CLOSPO_RS07630" class="clusterblast-orf" id="knownclusterblast-1_all_1_3_2"  />
</g>
<g id="a1_003"  >
<polygon points="438,190 464,190 469,185 464,180 438,180 438,190 " style="fill:white; stroke-width:1; stroke:black; " description="&lt;b&gt;CLOSPO_RS07635&lt;/b&gt;&lt;br&gt;choline TMA-lyase-activating enzyme&lt;br&gt;Location: 4294 - 5248" locus_tag="CLOSPO_RS07635" class="clusterblast-orf" id="knownclusterblast-1_all_1_3_3"  />
</g>
<g id="a1_004"  >
<polygon points="471,190 477,190 482,185 477,180 471,180 471,190 " style="fill:#d81515; stroke-width:1; stroke:black; " description="&lt;b&gt;CLOSPO_RS07640&lt;/b&gt;&lt;br&gt;propanediol utilization protein PduU&lt;br&gt;Location: 5287 - 5641&lt;br&gt;&lt;br&gt;&lt;b&gt;BlastP hit with ctg19_1&lt;/b&gt;&lt;br&gt;Percentage identity: 51&lt;br&gt;Percentage coverage: 99&lt;br&gt;BLAST bit score: 115&lt;br&gt;E-value: 1.23e-36" locus_tag="CLOSPO_RS07640" class="clusterblast-orf" id="knownclusterblast-1_all_1_3_4"  />
</g>
<g id="a1_005"  >
<polygon points="482,190 484,185 482,180 482,190 " style="fill:white; stroke-width:1; stroke:black; " description="&lt;b&gt;CLOSPO_RS07645&lt;/b&gt;&lt;br&gt;hypothetical protein&lt;br&gt;Location: 5637 - 5704" locus_tag="CLOSPO_RS07645" class="clusterblast-orf" id="knownclusterblast-1_all_1_3_5"  />
</g>
</svg>
