<svg xmlns="http://www.w3.org/2000/svg" xmlns:xlink="http://www.w3.org/1999/xlink" version="1.1" x="0" y="0" height="100" width="800" viewBox="0 0 800 100" preserveAspectRatio="none"  >
<g label="Query sequence" class="clusterblast-cluster"  >
<text x="5" y="20" class="clusterblast-acc"  >
Query sequence</text>
<line x1="10" y1="35" x2="778.0" y2="35" style="stroke-width:1; stroke:grey; "  />
<polygon points="0,40 57,40 62,35 57,30 0,30 0,40 " style="fill:white; stroke-width:1; stroke:black; " description="&lt;b&gt;ctg3_460&lt;/b&gt;&lt;br&gt;ctg3 460&lt;br&gt;Location: 494554 - 496333" locus_tag="ctg3_460" class="clusterblast-orf" id="knownclusterblast-2_q0_0_all"  />
<polygon points="69,40 93,40 98,35 93,30 69,30 69,40 " style="fill:white; stroke-width:1; stroke:black; " description="&lt;b&gt;ctg3_461&lt;/b&gt;&lt;br&gt;ctg3 461&lt;br&gt;Location: 496525 - 497359" locus_tag="ctg3_461" class="clusterblast-orf" id="knownclusterblast-2_q1_0_all"  />
<polygon points="99,40 162,40 167,35 162,30 99,30 99,40 " style="fill:white; stroke-width:1; stroke:black; " description="&lt;b&gt;ctg3_462&lt;/b&gt;&lt;br&gt;ctg3 462&lt;br&gt;Location: 497362 - 499312" locus_tag="ctg3_462" class="clusterblast-orf" id="knownclusterblast-2_q2_0_all"  />
<polygon points="170,40 174,35 170,30 170,40 " style="fill:white; stroke-width:1; stroke:black; " description="&lt;b&gt;ctg3_463&lt;/b&gt;&lt;br&gt;ctg3 463&lt;br&gt;Location: 499379 - 499517" locus_tag="ctg3_463" class="clusterblast-orf" id="knownclusterblast-2_q3_0_all"  />
<polygon points="176,40 199,40 204,35 199,30 176,30 176,40 " style="fill:white; stroke-width:1; stroke:black; " description="&lt;b&gt;ctg3_464&lt;/b&gt;&lt;br&gt;ctg3 464&lt;br&gt;Location: 499565 - 500357" locus_tag="ctg3_464" class="clusterblast-orf" id="knownclusterblast-2_q4_0_all"  />
<polygon points="206,35 211,30 243,30 243,40 211,40 206,35 " style="fill:white; stroke-width:1; stroke:black; " description="&lt;b&gt;ctg3_465&lt;/b&gt;&lt;br&gt;ctg3 465&lt;br&gt;Location: 500411 - 501458" locus_tag="ctg3_465" class="clusterblast-orf" id="knownclusterblast-2_q5_0_all"  />
<polygon points="247,35 252,30 293,30 293,40 252,40 247,35 " style="fill:white; stroke-width:1; stroke:black; " description="&lt;b&gt;ctg3_466&lt;/b&gt;&lt;br&gt;ctg3 466&lt;br&gt;Location: 501594 - 502878" locus_tag="ctg3_466" class="clusterblast-orf" id="knownclusterblast-2_q6_0_all"  />
<polygon points="296,40 300,40 305,35 300,30 296,30 296,40 " style="fill:white; stroke-width:1; stroke:black; " description="&lt;b&gt;ctg3_467&lt;/b&gt;&lt;br&gt;ctg3 467&lt;br&gt;Location: 502978 - 503224" locus_tag="ctg3_467" class="clusterblast-orf" id="knownclusterblast-2_q7_0_all"  />
<polygon points="319,40 328,40 333,35 328,30 319,30 319,40 " style="fill:white; stroke-width:1; stroke:black; " description="&lt;b&gt;ctg3_468&lt;/b&gt;&lt;br&gt;ctg3 468&lt;br&gt;Location: 503632 - 504022" locus_tag="ctg3_468" class="clusterblast-orf" id="knownclusterblast-2_q8_0_all"  />
<polygon points="333,40 340,40 345,35 340,30 333,30 333,40 " style="fill:white; stroke-width:1; stroke:black; " description="&lt;b&gt;ctg3_469&lt;/b&gt;&lt;br&gt;ctg3 469&lt;br&gt;Location: 504015 - 504363" locus_tag="ctg3_469" class="clusterblast-orf" id="knownclusterblast-2_q9_0_all"  />
<polygon points="345,40 402,40 407,35 402,30 345,30 345,40 " style="fill:#d81515; stroke-width:1; stroke:black; " description="&lt;b&gt;ctg3_470&lt;/b&gt;&lt;br&gt;ctg3 470&lt;br&gt;Location: 504362 - 506129" locus_tag="ctg3_470" class="clusterblast-orf" id="knownclusterblast-2_q10_0_all"  />
<polygon points="407,40 428,40 433,35 428,30 407,30 407,40 " style="fill:#15d8d8; stroke-width:1; stroke:black; " description="&lt;b&gt;ctg3_471&lt;/b&gt;&lt;br&gt;ctg3 471&lt;br&gt;Location: 506145 - 506862" locus_tag="ctg3_471" class="clusterblast-orf" id="knownclusterblast-2_q11_0_all"  />
<polygon points="451,40 545,40 550,35 545,30 451,30 451,40 " style="fill:white; stroke-width:1; stroke:black; " description="&lt;b&gt;ctg3_472&lt;/b&gt;&lt;br&gt;ctg3 472&lt;br&gt;Location: 507385 - 510187" locus_tag="ctg3_472" class="clusterblast-orf" id="knownclusterblast-2_q12_0_all"  />
<polygon points="550,40 588,40 593,35 588,30 550,30 550,40 " style="fill:white; stroke-width:1; stroke:black; " description="&lt;b&gt;ctg3_473&lt;/b&gt;&lt;br&gt;ctg3 473&lt;br&gt;Location: 510201 - 511410" locus_tag="ctg3_473" class="clusterblast-orf" id="knownclusterblast-2_q13_0_all"  />
<polygon points="597,40 634,40 639,35 634,30 597,30 597,40 " style="fill:white; stroke-width:1; stroke:black; " description="&lt;b&gt;ctg3_474&lt;/b&gt;&lt;br&gt;ctg3 474&lt;br&gt;Location: 511551 - 512718" locus_tag="ctg3_474" class="clusterblast-orf" id="knownclusterblast-2_q14_0_all"  />
<polygon points="638,40 664,40 669,35 664,30 638,30 638,40 " style="fill:white; stroke-width:1; stroke:black; " description="&lt;b&gt;ctg3_475&lt;/b&gt;&lt;br&gt;ctg3 475&lt;br&gt;Location: 512717 - 513587" locus_tag="ctg3_475" class="clusterblast-orf" id="knownclusterblast-2_q15_0_all"  />
<polygon points="670,40 674,35 670,30 670,40 " style="fill:white; stroke-width:1; stroke:black; " description="&lt;b&gt;ctg3_476&lt;/b&gt;&lt;br&gt;ctg3 476&lt;br&gt;Location: 513615 - 513741" locus_tag="ctg3_476" class="clusterblast-orf" id="knownclusterblast-2_q16_0_all"  />
<polygon points="725,40 775,40 780,35 775,30 725,30 725,40 " style="fill:white; stroke-width:1; stroke:black; " description="&lt;b&gt;ctg3_477&lt;/b&gt;&lt;br&gt;ctg3 477&lt;br&gt;Location: 515169 - 516738" locus_tag="ctg3_477" class="clusterblast-orf" id="knownclusterblast-2_q17_0_all"  />
</g>
<g label="MGC00000058" description="MGC00000058_c1: Fumarate2succinate suc dh E. coli (100% of genes show similarity), SUC" class="clusterblast-cluster"  >
<text x="5" y="70" class="clusterblast-acc"  >
MGC00000058_c1: Fumarate2succinate suc dh E. coli (100% of genes show similarity), SUC</text>
<line x1="10" y1="85" x2="778.0" y2="85" style="stroke-width:1; stroke:grey; "  />
</g>
<g id="a2_000"  >
<polygon points="346,90 403,90 408,85 403,80 346,80 346,90 " style="fill:#d81515; stroke-width:1; stroke:black; " description="&lt;b&gt;HMPREF9550_01793&lt;/b&gt;&lt;br&gt;succinate dehydrogenase, flavoprotein subunit&lt;br&gt;Location: 12499 - 10732&lt;br&gt;&lt;br&gt;&lt;b&gt;BlastP hit with ctg3_470&lt;/b&gt;&lt;br&gt;Percentage identity: 98&lt;br&gt;Percentage coverage: 100&lt;br&gt;BLAST bit score: 1165&lt;br&gt;E-value: 0.0" locus_tag="HMPREF9550_01793" class="clusterblast-orf" id="knownclusterblast-2_all_2_1_0"  />
</g>
<g id="a2_001"  >
<polygon points="408,90 428,90 433,85 428,80 408,80 408,90 " style="fill:#15d8d8; stroke-width:1; stroke:black; " description="&lt;b&gt;HMPREF9550_01792&lt;/b&gt;&lt;br&gt;succinate dehydrogenase iron-sulfur subunit&lt;br&gt;Location: 10717 - 10000&lt;br&gt;&lt;br&gt;&lt;b&gt;BlastP hit with ctg3_471&lt;/b&gt;&lt;br&gt;Percentage identity: 97&lt;br&gt;Percentage coverage: 100&lt;br&gt;BLAST bit score: 487&lt;br&gt;E-value: 8.14e-180" locus_tag="HMPREF9550_01792" class="clusterblast-orf" id="knownclusterblast-2_all_2_1_1"  />
</g>
</svg>
