<svg xmlns="http://www.w3.org/2000/svg" xmlns:xlink="http://www.w3.org/1999/xlink" version="1.1" x="0" y="0" height="230" width="800" viewBox="0 0 800 230" preserveAspectRatio="none"  >
<g label="Query sequence" class="clusterblast-cluster"  >
<text x="5" y="20" class="clusterblast-acc"  >
Query sequence</text>
<line x1="10" y1="35" x2="778.0" y2="35" style="stroke-width:1; stroke:grey; "  />
<polygon points="0,40 48,40 53,35 48,30 0,30 0,40 " style="fill:white; stroke-width:1; stroke:black; " description="&lt;b&gt;ctg43_181&lt;/b&gt;&lt;br&gt;ctg43 181&lt;br&gt;Location: 206646 - 208923" locus_tag="ctg43_181" class="clusterblast-orf" id="dummy-1_q0_0_all"  />
<polygon points="54,40 62,40 67,35 62,30 54,30 54,40 " style="fill:white; stroke-width:1; stroke:black; " description="&lt;b&gt;ctg43_182&lt;/b&gt;&lt;br&gt;ctg43 182&lt;br&gt;Location: 208937 - 209516" locus_tag="ctg43_182" class="clusterblast-orf" id="dummy-1_q1_0_all"  />
<polygon points="67,40 80,40 85,35 80,30 67,30 67,40 " style="fill:white; stroke-width:1; stroke:black; " description="&lt;b&gt;ctg43_183&lt;/b&gt;&lt;br&gt;ctg43 183&lt;br&gt;Location: 209512 - 210277" locus_tag="ctg43_183" class="clusterblast-orf" id="dummy-1_q2_0_all"  />
<polygon points="88,40 111,40 116,35 111,30 88,30 88,40 " style="fill:white; stroke-width:1; stroke:black; " description="&lt;b&gt;ctg43_184&lt;/b&gt;&lt;br&gt;ctg43 184&lt;br&gt;Location: 210400 - 211573" locus_tag="ctg43_184" class="clusterblast-orf" id="dummy-1_q3_0_all"  />
<polygon points="119,40 125,40 130,35 125,30 119,30 119,40 " style="fill:white; stroke-width:1; stroke:black; " description="&lt;b&gt;ctg43_185&lt;/b&gt;&lt;br&gt;ctg43 185&lt;br&gt;Location: 211725 - 212193" locus_tag="ctg43_185" class="clusterblast-orf" id="dummy-1_q4_0_all"  />
<polygon points="133,40 153,40 158,35 153,30 133,30 133,40 " style="fill:white; stroke-width:1; stroke:black; " description="&lt;b&gt;ctg43_186&lt;/b&gt;&lt;br&gt;ctg43 186&lt;br&gt;Location: 212311 - 213370" locus_tag="ctg43_186" class="clusterblast-orf" id="dummy-1_q5_0_all"  />
<polygon points="163,40 166,40 171,35 166,30 163,30 163,40 " style="fill:#d81515; stroke-width:1; stroke:black; " description="&lt;b&gt;ctg43_187&lt;/b&gt;&lt;br&gt;ctg43 187&lt;br&gt;Location: 213614 - 213950" locus_tag="ctg43_187" class="clusterblast-orf" id="dummy-1_q6_0_all"  />
<polygon points="172,35 177,30 193,30 193,40 177,40 172,35 " style="fill:#5cd815; stroke-width:1; stroke:black; " description="&lt;b&gt;ctg43_188&lt;/b&gt;&lt;br&gt;ctg43 188&lt;br&gt;Location: 213983 - 214850" locus_tag="ctg43_188" class="clusterblast-orf" id="dummy-1_q7_0_all"  />
<polygon points="195,35 200,30 223,30 223,40 200,40 195,35 " style="fill:#15a3d8; stroke-width:1; stroke:black; " description="&lt;b&gt;ctg43_189&lt;/b&gt;&lt;br&gt;ctg43 189&lt;br&gt;Location: 214943 - 216158" locus_tag="ctg43_189" class="clusterblast-orf" id="dummy-1_q8_0_all"  />
<polygon points="223,35 228,30 234,30 234,40 228,40 223,35 " style="fill:#9115d8; stroke-width:1; stroke:black; " description="&lt;b&gt;ctg43_190&lt;/b&gt;&lt;br&gt;ctg43 190&lt;br&gt;Location: 216142 - 216595" locus_tag="ctg43_190" class="clusterblast-orf" id="dummy-1_q9_0_all"  />
<polygon points="234,35 239,30 242,30 242,40 239,40 234,35 " style="fill:#d84a15; stroke-width:1; stroke:black; " description="&lt;b&gt;ctg43_191&lt;/b&gt;&lt;br&gt;ctg43 191&lt;br&gt;Location: 216599 - 216950" locus_tag="ctg43_191" class="clusterblast-orf" id="dummy-1_q10_0_all"  />
<polygon points="242,35 247,30 255,30 255,40 247,40 242,35 " style="fill:#27d815; stroke-width:1; stroke:black; " description="&lt;b&gt;ctg43_192&lt;/b&gt;&lt;br&gt;ctg43 192&lt;br&gt;Location: 216949 - 217504" locus_tag="ctg43_192" class="clusterblast-orf" id="dummy-1_q11_0_all"  />
<polygon points="255,35 260,30 287,30 287,40 260,40 255,35 " style="fill:#156ed8; stroke-width:1; stroke:black; " description="&lt;b&gt;ctg43_193&lt;/b&gt;&lt;br&gt;ctg43 193&lt;br&gt;Location: 217506 - 218862" locus_tag="ctg43_193" class="clusterblast-orf" id="dummy-1_q12_0_all"  />
<polygon points="287,35 292,30 313,30 313,40 292,40 287,35 " style="fill:#c715d8; stroke-width:1; stroke:black; " description="&lt;b&gt;ctg43_194&lt;/b&gt;&lt;br&gt;ctg43 194&lt;br&gt;Location: 218858 - 219971" locus_tag="ctg43_194" class="clusterblast-orf" id="dummy-1_q13_0_all"  />
<polygon points="313,35 318,30 346,30 346,40 318,40 313,35 " style="fill:#d88015; stroke-width:1; stroke:black; " description="&lt;b&gt;ctg43_195&lt;/b&gt;&lt;br&gt;ctg43 195&lt;br&gt;Location: 219982 - 221377" locus_tag="ctg43_195" class="clusterblast-orf" id="dummy-1_q14_0_all"  />
<polygon points="346,35 351,30 370,30 370,40 351,40 346,35 " style="fill:#15d839; stroke-width:1; stroke:black; " description="&lt;b&gt;ctg43_196&lt;/b&gt;&lt;br&gt;ctg43 196&lt;br&gt;Location: 221373 - 222384" locus_tag="ctg43_196" class="clusterblast-orf" id="dummy-1_q15_0_all"  />
<polygon points="370,35 375,30 376,30 376,40 375,40 370,35 " style="fill:#1539d8; stroke-width:1; stroke:black; " description="&lt;b&gt;ctg43_197&lt;/b&gt;&lt;br&gt;ctg43 197&lt;br&gt;Location: 222393 - 222669" locus_tag="ctg43_197" class="clusterblast-orf" id="dummy-1_q16_0_all"  />
<polygon points="376,35 381,30 388,30 388,40 381,40 376,35 " style="fill:#d815b5; stroke-width:1; stroke:black; " description="&lt;b&gt;ctg43_198&lt;/b&gt;&lt;br&gt;ctg43 198&lt;br&gt;Location: 222672 - 223164" locus_tag="ctg43_198" class="clusterblast-orf" id="dummy-1_q17_0_all"  />
<polygon points="388,35 393,30 403,30 403,40 393,40 388,35 " style="fill:#d8b515; stroke-width:1; stroke:black; " description="&lt;b&gt;ctg43_199&lt;/b&gt;&lt;br&gt;ctg43 199&lt;br&gt;Location: 223160 - 223793" locus_tag="ctg43_199" class="clusterblast-orf" id="dummy-1_q18_0_all"  />
<polygon points="403,35 408,30 414,30 414,40 408,40 403,35 " style="fill:#15d86e; stroke-width:1; stroke:black; " description="&lt;b&gt;ctg43_200&lt;/b&gt;&lt;br&gt;ctg43 200&lt;br&gt;Location: 223792 - 224254" locus_tag="ctg43_200" class="clusterblast-orf" id="dummy-1_q19_0_all"  />
<polygon points="414,35 419,30 421,30 421,40 419,40 414,35 " style="fill:#27d815; stroke-width:1; stroke:black; " description="&lt;b&gt;ctg43_201&lt;/b&gt;&lt;br&gt;ctg43 201&lt;br&gt;Location: 224278 - 224554" locus_tag="ctg43_201" class="clusterblast-orf" id="dummy-1_q20_0_all"  />
<polygon points="421,35 426,30 429,30 429,40 426,40 421,35 " style="fill:#2715d8; stroke-width:1; stroke:black; " description="&lt;b&gt;ctg43_202&lt;/b&gt;&lt;br&gt;ctg43 202&lt;br&gt;Location: 224572 - 224923" locus_tag="ctg43_202" class="clusterblast-orf" id="dummy-1_q21_0_all"  />
<polygon points="429,35 434,30 472,30 472,40 434,40 429,35 " style="fill:#d81580; stroke-width:1; stroke:black; " description="&lt;b&gt;ctg43_203&lt;/b&gt;&lt;br&gt;ctg43 203&lt;br&gt;Location: 224912 - 226745" locus_tag="ctg43_203" class="clusterblast-orf" id="dummy-1_q22_0_all"  />
<polygon points="472,35 477,30 485,30 485,40 477,40 472,35 " style="fill:#c7d815; stroke-width:1; stroke:black; " description="&lt;b&gt;ctg43_204&lt;/b&gt;&lt;br&gt;ctg43 204&lt;br&gt;Location: 226754 - 227276" locus_tag="ctg43_204" class="clusterblast-orf" id="dummy-1_q23_0_all"  />
<polygon points="485,35 490,30 501,30 501,40 490,40 485,35 " style="fill:#15d8a3; stroke-width:1; stroke:black; " description="&lt;b&gt;ctg43_205&lt;/b&gt;&lt;br&gt;ctg43 205&lt;br&gt;Location: 227290 - 227965" locus_tag="ctg43_205" class="clusterblast-orf" id="dummy-1_q24_0_all"  />
<polygon points="501,35 506,30 540,30 540,40 506,40 501,35 " style="fill:#5c15d8; stroke-width:1; stroke:black; " description="&lt;b&gt;ctg43_206&lt;/b&gt;&lt;br&gt;ctg43 206&lt;br&gt;Location: 227975 - 229640" locus_tag="ctg43_206" class="clusterblast-orf" id="dummy-1_q25_0_all"  />
<polygon points="541,35 546,30 560,30 560,40 546,40 541,35 " style="fill:#d8154a; stroke-width:1; stroke:black; " description="&lt;b&gt;ctg43_207&lt;/b&gt;&lt;br&gt;ctg43 207&lt;br&gt;Location: 229658 - 230471" locus_tag="ctg43_207" class="clusterblast-orf" id="dummy-1_q26_0_all"  />
<polygon points="560,35 565,30 566,30 566,40 565,40 560,35 " style="fill:#27d815; stroke-width:1; stroke:black; " description="&lt;b&gt;ctg43_208&lt;/b&gt;&lt;br&gt;ctg43 208&lt;br&gt;Location: 230467 - 230752" locus_tag="ctg43_208" class="clusterblast-orf" id="dummy-1_q27_0_all"  />
<polygon points="572,40 592,40 597,35 592,30 572,30 572,40 " style="fill:#91d815; stroke-width:1; stroke:black; " description="&lt;b&gt;ctg43_209&lt;/b&gt;&lt;br&gt;ctg43 209&lt;br&gt;Location: 230988 - 232071" locus_tag="ctg43_209" class="clusterblast-orf" id="dummy-1_q28_0_all"  />
<polygon points="602,40 619,40 624,35 619,30 602,30 602,40 " style="fill:#15d8d8; stroke-width:1; stroke:black; " description="&lt;b&gt;ctg43_210&lt;/b&gt;&lt;br&gt;ctg43 210&lt;br&gt;Location: 232287 - 233199" locus_tag="ctg43_210" class="clusterblast-orf" id="dummy-1_q29_0_all"  />
<polygon points="638,40 665,40 670,35 665,30 638,30 638,40 " style="fill:white; stroke-width:1; stroke:black; " description="&lt;b&gt;ctg43_211&lt;/b&gt;&lt;br&gt;ctg43 211&lt;br&gt;Location: 233796 - 235176" locus_tag="ctg43_211" class="clusterblast-orf" id="dummy-1_q30_0_all"  />
<polygon points="670,40 688,40 693,35 688,30 670,30 670,40 " style="fill:white; stroke-width:1; stroke:black; " description="&lt;b&gt;ctg43_212&lt;/b&gt;&lt;br&gt;ctg43 212&lt;br&gt;Location: 235172 - 236132" locus_tag="ctg43_212" class="clusterblast-orf" id="dummy-1_q31_0_all"  />
<polygon points="693,40 703,40 708,35 703,30 693,30 693,40 " style="fill:white; stroke-width:1; stroke:black; " description="&lt;b&gt;ctg43_213&lt;/b&gt;&lt;br&gt;ctg43 213&lt;br&gt;Location: 236142 - 236775" locus_tag="ctg43_213" class="clusterblast-orf" id="dummy-1_q32_0_all"  />
<polygon points="708,40 730,40 735,35 730,30 708,30 708,40 " style="fill:white; stroke-width:1; stroke:black; " description="&lt;b&gt;ctg43_214&lt;/b&gt;&lt;br&gt;ctg43 214&lt;br&gt;Location: 236774 - 237914" locus_tag="ctg43_214" class="clusterblast-orf" id="dummy-1_q33_0_all"  />
<polygon points="734,40 744,40 749,35 744,30 734,30 734,40 " style="fill:white; stroke-width:1; stroke:black; " description="&lt;b&gt;ctg43_215&lt;/b&gt;&lt;br&gt;ctg43 215&lt;br&gt;Location: 237907 - 238513" locus_tag="ctg43_215" class="clusterblast-orf" id="dummy-1_q34_0_all"  />
<polygon points="749,40 757,40 762,35 757,30 749,30 749,40 " style="fill:white; stroke-width:1; stroke:black; " description="&lt;b&gt;ctg43_216&lt;/b&gt;&lt;br&gt;ctg43 216&lt;br&gt;Location: 238541 - 239081" locus_tag="ctg43_216" class="clusterblast-orf" id="dummy-1_q35_0_all"  />
<polygon points="762,40 775,40 780,35 775,30 762,30 762,40 " style="fill:white; stroke-width:1; stroke:black; " description="&lt;b&gt;ctg43_217&lt;/b&gt;&lt;br&gt;ctg43 217&lt;br&gt;Location: 239064 - 239838" locus_tag="ctg43_217" class="clusterblast-orf" id="dummy-1_q36_0_all"  />
</g>
<g label="MGC0000003" description="MGC0000003_c1: Ethanolamine degradation S. typhimurium (31% of genes show similarity), EUT" class="clusterblast-cluster"  >
<text x="5" y="70" class="clusterblast-acc"  >
MGC0000003_c1: Ethanolamine degradation S. typhimurium (31% of genes show similarity), EUT</text>
<line x1="10" y1="85" x2="778.0" y2="85" style="stroke-width:1; stroke:grey; "  />
</g>
<g id="a1_000"  >
<polygon points="176,85 181,80 200,80 200,90 181,90 176,85 " style="fill:white; stroke-width:1; stroke:black; " description="&lt;b&gt;STM2454&lt;/b&gt;&lt;br&gt;HTH-type transcriptional regulator EutR&lt;br&gt;Location: 102 - 1155" locus_tag="STM2454" class="clusterblast-orf" id="dummy-1_h1_2_0"  />
</g>
<g id="a1_001"  >
<polygon points="202,85 207,80 213,80 213,90 207,90 202,85 " style="fill:#27d815; stroke-width:1; stroke:black; " description="&lt;b&gt;STM2455&lt;/b&gt;&lt;br&gt;carboxysome structural protein EutK&lt;br&gt;Location: 1202 - 1697&lt;br&gt;&lt;br&gt;&lt;b&gt;BlastP hit with ctg43_201&lt;/b&gt;&lt;br&gt;Percentage identity: 48&lt;br&gt;Percentage coverage: 96&lt;br&gt;BLAST bit score: 77&lt;br&gt;E-value: 3.7e-21&lt;br&gt;&lt;br&gt;&lt;b&gt;BlastP hit with ctg43_208&lt;/b&gt;&lt;br&gt;Percentage identity: 44&lt;br&gt;Percentage coverage: 89&lt;br&gt;BLAST bit score: 68&lt;br&gt;E-value: 1.12e-17" locus_tag="STM2455" class="clusterblast-orf" id="dummy-1_h1_2_1"  />
</g>
<g id="a1_002"  >
<polygon points="213,85 218,80 229,80 229,90 218,90 213,85 " style="fill:white; stroke-width:1; stroke:black; " description="&lt;b&gt;STM2456&lt;/b&gt;&lt;br&gt;carboxysome structural protein EutL&lt;br&gt;Location: 1709 - 2369" locus_tag="STM2456" class="clusterblast-orf" id="dummy-1_h1_2_2"  />
</g>
<g id="a1_003"  >
<polygon points="229,85 234,80 250,80 250,90 234,90 229,85 " style="fill:white; stroke-width:1; stroke:black; " description="&lt;b&gt;STM2457&lt;/b&gt;&lt;br&gt;ethanolamine ammonia-lyase small subunit EutC&lt;br&gt;Location: 2378 - 3275" locus_tag="STM2457" class="clusterblast-orf" id="dummy-1_h1_2_3"  />
</g>
<g id="a1_004"  >
<polygon points="251,85 256,80 283,80 283,90 256,90 251,85 " style="fill:white; stroke-width:1; stroke:black; " description="&lt;b&gt;STM2458&lt;/b&gt;&lt;br&gt;ethanolamine ammonia-lyase large subunit EutB&lt;br&gt;Location: 3293 - 4655" locus_tag="STM2458" class="clusterblast-orf" id="dummy-1_h1_2_4"  />
</g>
<g id="a1_005"  >
<polygon points="283,85 288,80 316,80 316,90 288,90 283,85 " style="fill:white; stroke-width:1; stroke:black; " description="&lt;b&gt;STM2459&lt;/b&gt;&lt;br&gt;ethanolamine utilization protein EutA&lt;br&gt;Location: 4666 - 6070" locus_tag="STM2459" class="clusterblast-orf" id="dummy-1_h1_2_5"  />
</g>
<g id="a1_006"  >
<polygon points="316,85 321,80 345,80 345,90 321,90 316,85 " style="fill:white; stroke-width:1; stroke:black; " description="&lt;b&gt;STM2460&lt;/b&gt;&lt;br&gt;ethanolamine transporter EutH&lt;br&gt;Location: 6066 - 7293" locus_tag="STM2460" class="clusterblast-orf" id="dummy-1_h1_2_6"  />
</g>
<g id="a1_007"  >
<polygon points="347,85 352,80 375,80 375,90 352,90 347,85 " style="fill:#c715d8; stroke-width:1; stroke:black; " description="&lt;b&gt;STM2461&lt;/b&gt;&lt;br&gt;ethanol dehydrogenase EutG&lt;br&gt;Location: 7412 - 8600&lt;br&gt;&lt;br&gt;&lt;b&gt;BlastP hit with ctg43_194&lt;/b&gt;&lt;br&gt;Percentage identity: 37&lt;br&gt;Percentage coverage: 104&lt;br&gt;BLAST bit score: 189&lt;br&gt;E-value: 2.65e-58" locus_tag="STM2461" class="clusterblast-orf" id="dummy-1_h1_2_7"  />
</g>
<g id="a1_008"  >
<polygon points="375,85 380,80 395,80 395,90 380,90 375,85 " style="fill:white; stroke-width:1; stroke:black; " description="&lt;b&gt;STM2462&lt;/b&gt;&lt;br&gt;ethanolamine utilization protein EutJ&lt;br&gt;Location: 8589 - 9429" locus_tag="STM2462" class="clusterblast-orf" id="dummy-1_h1_2_8"  />
</g>
<g id="a1_009"  >
<polygon points="395,85 400,80 428,80 428,90 400,90 395,85 " style="fill:#d88015; stroke-width:1; stroke:black; " description="&lt;b&gt;STM2463&lt;/b&gt;&lt;br&gt;aldehyde oxidoreductase EutE&lt;br&gt;Location: 9439 - 10843&lt;br&gt;&lt;br&gt;&lt;b&gt;BlastP hit with ctg43_195&lt;/b&gt;&lt;br&gt;Percentage identity: 45&lt;br&gt;Percentage coverage: 102&lt;br&gt;BLAST bit score: 376&lt;br&gt;E-value: 8.89e-129" locus_tag="STM2463" class="clusterblast-orf" id="dummy-1_h1_2_9"  />
</g>
<g id="a1_0010"  >
<polygon points="428,85 433,80 435,80 435,90 433,90 428,85 " style="fill:#1539d8; stroke-width:1; stroke:black; " description="&lt;b&gt;STM2464&lt;/b&gt;&lt;br&gt;microcompartment shell protein EutN&lt;br&gt;Location: 10854 - 11142&lt;br&gt;&lt;br&gt;&lt;b&gt;BlastP hit with ctg43_197&lt;/b&gt;&lt;br&gt;Percentage identity: 46&lt;br&gt;Percentage coverage: 96&lt;br&gt;BLAST bit score: 66&lt;br&gt;E-value: 8.37e-18" locus_tag="STM2464" class="clusterblast-orf" id="dummy-1_h1_2_10"  />
</g>
<g id="a1_0011"  >
<polygon points="438,85 443,80 445,80 445,90 443,90 438,85 " style="fill:#27d815; stroke-width:1; stroke:black; " description="&lt;b&gt;STM2465&lt;/b&gt;&lt;br&gt;carboxysome structural protein EutM&lt;br&gt;Location: 11254 - 11545&lt;br&gt;&lt;br&gt;&lt;b&gt;BlastP hit with ctg43_201&lt;/b&gt;&lt;br&gt;Percentage identity: 64&lt;br&gt;Percentage coverage: 96&lt;br&gt;BLAST bit score: 107&lt;br&gt;E-value: 6.81e-34&lt;br&gt;&lt;br&gt;&lt;b&gt;BlastP hit with ctg43_208&lt;/b&gt;&lt;br&gt;Percentage identity: 67&lt;br&gt;Percentage coverage: 91&lt;br&gt;BLAST bit score: 109&lt;br&gt;E-value: 6.59e-35" locus_tag="STM2465" class="clusterblast-orf" id="dummy-1_h1_2_11"  />
</g>
<g id="a1_0012"  >
<polygon points="445,85 450,80 469,80 469,90 450,90 445,85 " style="fill:white; stroke-width:1; stroke:black; " description="&lt;b&gt;STM2466&lt;/b&gt;&lt;br&gt;phosphotransacetylase EutD&lt;br&gt;Location: 11585 - 12602" locus_tag="STM2466" class="clusterblast-orf" id="dummy-1_h1_2_12"  />
</g>
<g id="a1_0013"  >
<polygon points="469,85 474,80 488,80 488,90 474,90 469,85 " style="fill:white; stroke-width:1; stroke:black; " description="&lt;b&gt;STM2467&lt;/b&gt;&lt;br&gt;cobalamin adenosyltransferase EutT&lt;br&gt;Location: 12598 - 13402" locus_tag="STM2467" class="clusterblast-orf" id="dummy-1_h1_2_13"  />
</g>
<g id="a1_0014"  >
<polygon points="488,85 493,80 504,80 504,90 493,90 488,85 " style="fill:white; stroke-width:1; stroke:black; " description="&lt;b&gt;STM2468&lt;/b&gt;&lt;br&gt;ethanolamine utilization protein EutQ&lt;br&gt;Location: 13398 - 14088" locus_tag="STM2468" class="clusterblast-orf" id="dummy-1_h1_2_14"  />
</g>
<g id="a1_0015"  >
<polygon points="504,85 509,80 515,80 515,90 509,90 504,85 " style="fill:white; stroke-width:1; stroke:black; " description="&lt;b&gt;STM2469&lt;/b&gt;&lt;br&gt;ethanolamine utilization protein EutP&lt;br&gt;Location: 14065 - 14545" locus_tag="STM2469" class="clusterblast-orf" id="dummy-1_h1_2_15"  />
</g>
<g id="a1_0016"  >
<polygon points="515,85 520,80 523,80 523,90 520,90 515,85 " style="fill:#d84a15; stroke-width:1; stroke:black; " description="&lt;b&gt;STM2470&lt;/b&gt;&lt;br&gt;carboxysome structural protein EutS&lt;br&gt;Location: 14557 - 14893&lt;br&gt;&lt;br&gt;&lt;b&gt;BlastP hit with ctg43_191&lt;/b&gt;&lt;br&gt;Percentage identity: 58&lt;br&gt;Percentage coverage: 93&lt;br&gt;BLAST bit score: 125&lt;br&gt;E-value: 1.98e-40" locus_tag="STM2470" class="clusterblast-orf" id="dummy-1_h1_2_16"  />
</g>
<g id="a1_0017"  >
<polygon points="535,85 540,80 545,80 545,90 540,90 535,85 " style="fill:white; stroke-width:1; stroke:black; " description="&lt;b&gt;STM2471&lt;/b&gt;&lt;br&gt;insertion sequence element IS200 transposase&lt;br&gt;Location: 15373 - 15832" locus_tag="STM2471" class="clusterblast-orf" id="dummy-1_h1_2_17"  />
</g>
<g id="a1_0018"  >
<polygon points="550,85 555,80 603,80 603,90 555,90 550,85 " style="fill:white; stroke-width:1; stroke:black; " description="&lt;b&gt;STM2472&lt;/b&gt;&lt;br&gt;malic enzyme&lt;br&gt;Location: 16021 - 18301" locus_tag="STM2472" class="clusterblast-orf" id="dummy-1_h1_2_18"  />
</g>
</svg>
