<svg xmlns="http://www.w3.org/2000/svg" xmlns:xlink="http://www.w3.org/1999/xlink" version="1.1" x="0" y="0" height="230" width="800" viewBox="0 0 800 230" preserveAspectRatio="none"  >
<g label="Query sequence" class="clusterblast-cluster"  >
<text x="5" y="20" class="clusterblast-acc"  >
Query sequence</text>
<line x1="10" y1="35" x2="778.0" y2="35" style="stroke-width:1; stroke:grey; "  />
<polygon points="0,40 13,40 18,35 13,30 0,30 0,40 " style="fill:white; stroke-width:1; stroke:black; " description="&lt;b&gt;ctg45_56&lt;/b&gt;&lt;br&gt;ctg45 56&lt;br&gt;Location: 56364 - 57051" locus_tag="ctg45_56" class="clusterblast-orf" id="dummy-1_q0_0_all"  />
<polygon points="19,35 24,30 31,30 31,40 24,40 19,35 " style="fill:white; stroke-width:1; stroke:black; " description="&lt;b&gt;ctg45_57&lt;/b&gt;&lt;br&gt;ctg45 57&lt;br&gt;Location: 57097 - 57514" locus_tag="ctg45_57" class="clusterblast-orf" id="dummy-1_q1_0_all"  />
<polygon points="31,35 36,30 46,30 46,40 36,40 31,35 " style="fill:white; stroke-width:1; stroke:black; " description="&lt;b&gt;ctg45_58&lt;/b&gt;&lt;br&gt;ctg45 58&lt;br&gt;Location: 57513 - 58077" locus_tag="ctg45_58" class="clusterblast-orf" id="dummy-1_q2_0_all"  />
<polygon points="51,35 56,30 77,30 77,40 56,40 51,35 " style="fill:white; stroke-width:1; stroke:black; " description="&lt;b&gt;ctg45_59&lt;/b&gt;&lt;br&gt;ctg45 59&lt;br&gt;Location: 58292 - 59240" locus_tag="ctg45_59" class="clusterblast-orf" id="dummy-1_q3_0_all"  />
<polygon points="77,35 82,30 97,30 97,40 82,40 77,35 " style="fill:white; stroke-width:1; stroke:black; " description="&lt;b&gt;ctg45_60&lt;/b&gt;&lt;br&gt;ctg45 60&lt;br&gt;Location: 59259 - 59991" locus_tag="ctg45_60" class="clusterblast-orf" id="dummy-1_q4_0_all"  />
<polygon points="99,35 104,30 118,30 118,40 104,40 99,35 " style="fill:white; stroke-width:1; stroke:black; " description="&lt;b&gt;ctg45_61&lt;/b&gt;&lt;br&gt;ctg45 61&lt;br&gt;Location: 60067 - 60775" locus_tag="ctg45_61" class="clusterblast-orf" id="dummy-1_q5_0_all"  />
<polygon points="120,35 125,30 134,30 134,40 125,40 120,35 " style="fill:white; stroke-width:1; stroke:black; " description="&lt;b&gt;ctg45_62&lt;/b&gt;&lt;br&gt;ctg45 62&lt;br&gt;Location: 60869 - 61367" locus_tag="ctg45_62" class="clusterblast-orf" id="dummy-1_q6_0_all"  />
<polygon points="136,35 141,30 173,30 173,40 141,40 136,35 " style="fill:white; stroke-width:1; stroke:black; " description="&lt;b&gt;ctg45_63&lt;/b&gt;&lt;br&gt;ctg45 63&lt;br&gt;Location: 61445 - 62840" locus_tag="ctg45_63" class="clusterblast-orf" id="dummy-1_q7_0_all"  />
<polygon points="187,35 192,30 217,30 217,40 192,40 187,35 " style="fill:white; stroke-width:1; stroke:black; " description="&lt;b&gt;ctg45_64&lt;/b&gt;&lt;br&gt;ctg45 64&lt;br&gt;Location: 63332 - 64487" locus_tag="ctg45_64" class="clusterblast-orf" id="dummy-1_q8_0_all"  />
<polygon points="219,40 222,40 227,35 222,30 219,30 219,40 " style="fill:white; stroke-width:1; stroke:black; " description="&lt;b&gt;ctg45_65&lt;/b&gt;&lt;br&gt;ctg45 65&lt;br&gt;Location: 64542 - 64842" locus_tag="ctg45_65" class="clusterblast-orf" id="dummy-1_q9_0_all"  />
<polygon points="239,40 287,40 292,35 287,30 239,30 239,40 " style="fill:#d81515; stroke-width:1; stroke:black; " description="&lt;b&gt;ctg45_66&lt;/b&gt;&lt;br&gt;ctg45 66&lt;br&gt;Location: 65276 - 67253" locus_tag="ctg45_66" class="clusterblast-orf" id="dummy-1_q10_0_all"  />
<polygon points="295,40 310,40 315,35 310,30 295,30 295,40 " style="fill:#15d815; stroke-width:1; stroke:black; " description="&lt;b&gt;ctg45_67&lt;/b&gt;&lt;br&gt;ctg45 67&lt;br&gt;Location: 67396 - 68128" locus_tag="ctg45_67" class="clusterblast-orf" id="dummy-1_q11_0_all"  />
<polygon points="320,40 336,40 341,35 336,30 320,30 320,40 " style="fill:white; stroke-width:1; stroke:black; " description="&lt;b&gt;ctg45_68&lt;/b&gt;&lt;br&gt;ctg45 68&lt;br&gt;Location: 68332 - 69082" locus_tag="ctg45_68" class="clusterblast-orf" id="dummy-1_q12_0_all"  />
<polygon points="374,40 408,40 413,35 408,30 374,30 374,40 " style="fill:white; stroke-width:1; stroke:black; " description="&lt;b&gt;ctg45_69&lt;/b&gt;&lt;br&gt;ctg45 69&lt;br&gt;Location: 70323 - 71796" locus_tag="ctg45_69" class="clusterblast-orf" id="dummy-1_q13_0_all"  />
<polygon points="413,40 436,40 441,35 436,30 413,30 413,40 " style="fill:white; stroke-width:1; stroke:black; " description="&lt;b&gt;ctg45_70&lt;/b&gt;&lt;br&gt;ctg45 70&lt;br&gt;Location: 71798 - 72815" locus_tag="ctg45_70" class="clusterblast-orf" id="dummy-1_q14_0_all"  />
<polygon points="441,40 463,40 468,35 463,30 441,30 441,40 " style="fill:white; stroke-width:1; stroke:black; " description="&lt;b&gt;ctg45_71&lt;/b&gt;&lt;br&gt;ctg45 71&lt;br&gt;Location: 72828 - 73836" locus_tag="ctg45_71" class="clusterblast-orf" id="dummy-1_q15_0_all"  />
<polygon points="469,40 477,40 482,35 477,30 469,30 469,40 " style="fill:white; stroke-width:1; stroke:black; " description="&lt;b&gt;ctg45_72&lt;/b&gt;&lt;br&gt;ctg45 72&lt;br&gt;Location: 73874 - 74348" locus_tag="ctg45_72" class="clusterblast-orf" id="dummy-1_q16_0_all"  />
<polygon points="489,40 508,40 513,35 508,30 489,30 489,40 " style="fill:white; stroke-width:1; stroke:black; " description="&lt;b&gt;ctg45_73&lt;/b&gt;&lt;br&gt;ctg45 73&lt;br&gt;Location: 74627 - 75518" locus_tag="ctg45_73" class="clusterblast-orf" id="dummy-1_q17_0_all"  />
<polygon points="519,40 538,40 543,35 538,30 519,30 519,40 " style="fill:#1515d8; stroke-width:1; stroke:black; " description="&lt;b&gt;ctg45_74&lt;/b&gt;&lt;br&gt;ctg45 74&lt;br&gt;Location: 75722 - 76643" locus_tag="ctg45_74" class="clusterblast-orf" id="dummy-1_q18_0_all"  />
<polygon points="546,35 551,30 566,30 566,40 551,40 546,35 " style="fill:white; stroke-width:1; stroke:black; " description="&lt;b&gt;ctg45_75&lt;/b&gt;&lt;br&gt;ctg45 75&lt;br&gt;Location: 76743 - 77502" locus_tag="ctg45_75" class="clusterblast-orf" id="dummy-1_q19_0_all"  />
<polygon points="574,40 622,40 627,35 622,30 574,30 574,40 " style="fill:white; stroke-width:1; stroke:black; " description="&lt;b&gt;ctg45_76&lt;/b&gt;&lt;br&gt;ctg45 76&lt;br&gt;Location: 77777 - 79769" locus_tag="ctg45_76" class="clusterblast-orf" id="dummy-1_q20_0_all"  />
<polygon points="628,35 633,30 646,30 646,40 633,40 628,35 " style="fill:white; stroke-width:1; stroke:black; " description="&lt;b&gt;ctg45_77&lt;/b&gt;&lt;br&gt;ctg45 77&lt;br&gt;Location: 79812 - 80469" locus_tag="ctg45_77" class="clusterblast-orf" id="dummy-1_q21_0_all"  />
<polygon points="646,35 651,30 664,30 664,40 651,40 646,35 " style="fill:white; stroke-width:1; stroke:black; " description="&lt;b&gt;ctg45_78&lt;/b&gt;&lt;br&gt;ctg45 78&lt;br&gt;Location: 80462 - 81140" locus_tag="ctg45_78" class="clusterblast-orf" id="dummy-1_q22_0_all"  />
<polygon points="663,35 668,30 682,30 682,40 668,40 663,35 " style="fill:white; stroke-width:1; stroke:black; " description="&lt;b&gt;ctg45_79&lt;/b&gt;&lt;br&gt;ctg45 79&lt;br&gt;Location: 81127 - 81835" locus_tag="ctg45_79" class="clusterblast-orf" id="dummy-1_q23_0_all"  />
<polygon points="682,35 687,30 698,30 698,40 687,40 682,35 " style="fill:white; stroke-width:1; stroke:black; " description="&lt;b&gt;ctg45_80&lt;/b&gt;&lt;br&gt;ctg45 80&lt;br&gt;Location: 81835 - 82414" locus_tag="ctg45_80" class="clusterblast-orf" id="dummy-1_q24_0_all"  />
<polygon points="699,35 704,30 710,30 710,40 704,40 699,35 " style="fill:white; stroke-width:1; stroke:black; " description="&lt;b&gt;ctg45_81&lt;/b&gt;&lt;br&gt;ctg45 81&lt;br&gt;Location: 82439 - 82865" locus_tag="ctg45_81" class="clusterblast-orf" id="dummy-1_q25_0_all"  />
<polygon points="720,40 743,40 748,35 743,30 720,30 720,40 " style="fill:white; stroke-width:1; stroke:black; " description="&lt;b&gt;ctg45_82&lt;/b&gt;&lt;br&gt;ctg45 82&lt;br&gt;Location: 83238 - 84285" locus_tag="ctg45_82" class="clusterblast-orf" id="dummy-1_q26_0_all"  />
<polygon points="749,40 775,40 780,35 775,30 749,30 749,40 " style="fill:white; stroke-width:1; stroke:black; " description="&lt;b&gt;ctg45_83&lt;/b&gt;&lt;br&gt;ctg45 83&lt;br&gt;Location: 84306 - 85470" locus_tag="ctg45_83" class="clusterblast-orf" id="dummy-1_q27_0_all"  />
</g>
<g label="MGC00000052" description="MGC00000052_c1: Arginine2putrescine E. coli (75% of genes show similarity), PUTR" class="clusterblast-cluster"  >
<text x="5" y="70" class="clusterblast-acc"  >
MGC00000052_c1: Arginine2putrescine E. coli (75% of genes show similarity), PUTR</text>
<line x1="10" y1="85" x2="778.0" y2="85" style="stroke-width:1; stroke:grey; "  />
</g>
<g id="a1_000"  >
<polygon points="211,90 259,90 264,85 259,80 211,80 211,90 " style="fill:#d81515; stroke-width:1; stroke:black; " description="&lt;b&gt;E2348C_RS17110&lt;/b&gt;&lt;br&gt;arginine decarboxylase&lt;br&gt;Location: 13290 - 11313&lt;br&gt;&lt;br&gt;&lt;b&gt;BlastP hit with ctg45_66&lt;/b&gt;&lt;br&gt;Percentage identity: 97&lt;br&gt;Percentage coverage: 100&lt;br&gt;BLAST bit score: 1280&lt;br&gt;E-value: 0.0" locus_tag="E2348C_RS17110" class="clusterblast-orf" id="dummy-1_h1_1_0"  />
</g>
<g id="a1_001"  >
<polygon points="268,90 283,90 288,85 283,80 268,80 268,90 " style="fill:#15d815; stroke-width:1; stroke:black; " description="&lt;b&gt;E2348C_RS17105&lt;/b&gt;&lt;br&gt;hypothetical protein&lt;br&gt;Location: 11168 - 10436&lt;br&gt;&lt;br&gt;&lt;b&gt;BlastP hit with ctg45_67&lt;/b&gt;&lt;br&gt;Percentage identity: 74&lt;br&gt;Percentage coverage: 100&lt;br&gt;BLAST bit score: 364&lt;br&gt;E-value: 4.87e-131" locus_tag="E2348C_RS17105" class="clusterblast-orf" id="dummy-1_h1_1_1"  />
</g>
<g id="a1_002"  >
<polygon points="292,90 311,90 316,85 311,80 292,80 292,90 " style="fill:#1515d8; stroke-width:1; stroke:black; " description="&lt;b&gt;E2348C_RS17100&lt;/b&gt;&lt;br&gt;agmatinase&lt;br&gt;Location: 10301 - 9380&lt;br&gt;&lt;br&gt;&lt;b&gt;BlastP hit with ctg45_74&lt;/b&gt;&lt;br&gt;Percentage identity: 98&lt;br&gt;Percentage coverage: 100&lt;br&gt;BLAST bit score: 618&lt;br&gt;E-value: 2.31e-229" locus_tag="E2348C_RS17100" class="clusterblast-orf" id="dummy-1_h1_1_2"  />
</g>
<g id="a1_003"  >
<polygon points="554,90 563,90 568,85 563,80 554,80 554,90 " style="fill:white; stroke-width:1; stroke:black; " description="&lt;b&gt;E2348C_RS17060&lt;/b&gt;&lt;br&gt;mannitol repressor&lt;br&gt;Location: 510 - 0" locus_tag="E2348C_RS17060" class="clusterblast-orf" id="dummy-1_h1_1_3"  />
</g>
</svg>
