<svg xmlns="http://www.w3.org/2000/svg" xmlns:xlink="http://www.w3.org/1999/xlink" version="1.1" x="0" y="0" height="100" width="800" viewBox="0 0 800 100" preserveAspectRatio="none"  >
<g label="Query sequence" class="clusterblast-cluster"  >
<text x="5" y="20" class="clusterblast-acc"  >
Query sequence</text>
<line x1="10" y1="35" x2="778.0" y2="35" style="stroke-width:1; stroke:grey; "  />
<polygon points="0,40 48,40 53,35 48,30 0,30 0,40 " style="fill:white; stroke-width:1; stroke:black; " description="&lt;b&gt;ctg45_216&lt;/b&gt;&lt;br&gt;ctg45 216&lt;br&gt;Location: 240580 - 242020" locus_tag="ctg45_216" class="clusterblast-orf" id="knownclusterblast-3_q0_0_all"  />
<polygon points="53,40 70,40 75,35 70,30 53,30 53,40 " style="fill:white; stroke-width:1; stroke:black; " description="&lt;b&gt;ctg45_217&lt;/b&gt;&lt;br&gt;ctg45 217&lt;br&gt;Location: 242006 - 242612" locus_tag="ctg45_217" class="clusterblast-orf" id="knownclusterblast-3_q1_0_all"  />
<polygon points="77,40 84,40 89,35 84,30 77,30 77,40 " style="fill:white; stroke-width:1; stroke:black; " description="&lt;b&gt;ctg45_218&lt;/b&gt;&lt;br&gt;ctg45 218&lt;br&gt;Location: 242662 - 242986" locus_tag="ctg45_218" class="clusterblast-orf" id="knownclusterblast-3_q2_0_all"  />
<polygon points="96,40 102,40 107,35 102,30 96,30 96,40 " style="fill:white; stroke-width:1; stroke:black; " description="&lt;b&gt;ctg45_219&lt;/b&gt;&lt;br&gt;ctg45 219&lt;br&gt;Location: 243176 - 243488" locus_tag="ctg45_219" class="clusterblast-orf" id="knownclusterblast-3_q3_0_all"  />
<polygon points="108,40 129,40 134,35 129,30 108,30 108,40 " style="fill:white; stroke-width:1; stroke:black; " description="&lt;b&gt;ctg45_220&lt;/b&gt;&lt;br&gt;ctg45 220&lt;br&gt;Location: 243506 - 244217" locus_tag="ctg45_220" class="clusterblast-orf" id="knownclusterblast-3_q4_0_all"  />
<polygon points="134,40 147,40 152,35 147,30 134,30 134,40 " style="fill:white; stroke-width:1; stroke:black; " description="&lt;b&gt;ctg45_221&lt;/b&gt;&lt;br&gt;ctg45 221&lt;br&gt;Location: 244216 - 244696" locus_tag="ctg45_221" class="clusterblast-orf" id="knownclusterblast-3_q5_0_all"  />
<polygon points="152,40 186,40 191,35 186,30 152,30 152,40 " style="fill:white; stroke-width:1; stroke:black; " description="&lt;b&gt;ctg45_222&lt;/b&gt;&lt;br&gt;ctg45 222&lt;br&gt;Location: 244692 - 245742" locus_tag="ctg45_222" class="clusterblast-orf" id="knownclusterblast-3_q6_0_all"  />
<polygon points="190,40 213,40 218,35 213,30 190,30 190,40 " style="fill:white; stroke-width:1; stroke:black; " description="&lt;b&gt;ctg45_223&lt;/b&gt;&lt;br&gt;ctg45 223&lt;br&gt;Location: 245722 - 246484" locus_tag="ctg45_223" class="clusterblast-orf" id="knownclusterblast-3_q7_0_all"  />
<polygon points="218,40 236,40 241,35 236,30 218,30 218,40 " style="fill:white; stroke-width:1; stroke:black; " description="&lt;b&gt;ctg45_224&lt;/b&gt;&lt;br&gt;ctg45 224&lt;br&gt;Location: 246477 - 247104" locus_tag="ctg45_224" class="clusterblast-orf" id="knownclusterblast-3_q8_0_all"  />
<polygon points="247,40 284,40 289,35 284,30 247,30 247,40 " style="fill:white; stroke-width:1; stroke:black; " description="&lt;b&gt;ctg45_225&lt;/b&gt;&lt;br&gt;ctg45 225&lt;br&gt;Location: 247279 - 248413" locus_tag="ctg45_225" class="clusterblast-orf" id="knownclusterblast-3_q9_0_all"  />
<polygon points="292,40 323,40 328,35 323,30 292,30 292,40 " style="fill:white; stroke-width:1; stroke:black; " description="&lt;b&gt;ctg45_226&lt;/b&gt;&lt;br&gt;ctg45 226&lt;br&gt;Location: 248475 - 249468" locus_tag="ctg45_226" class="clusterblast-orf" id="knownclusterblast-3_q10_0_all"  />
<polygon points="330,35 335,30 339,30 339,40 335,40 330,35 " style="fill:white; stroke-width:1; stroke:black; " description="&lt;b&gt;ctg45_227&lt;/b&gt;&lt;br&gt;ctg45 227&lt;br&gt;Location: 249512 - 249749" locus_tag="ctg45_227" class="clusterblast-orf" id="knownclusterblast-3_q11_0_all"  />
<polygon points="339,35 344,30 392,30 392,40 344,40 339,35 " style="fill:#d81515; stroke-width:1; stroke:black; " description="&lt;b&gt;ctg45_228&lt;/b&gt;&lt;br&gt;ctg45 228&lt;br&gt;Location: 249759 - 251187" locus_tag="ctg45_228" class="clusterblast-orf" id="knownclusterblast-3_q12_0_all"  />
<polygon points="392,35 397,30 414,30 414,40 397,40 392,35 " style="fill:#15d8d8; stroke-width:1; stroke:black; " description="&lt;b&gt;ctg45_229&lt;/b&gt;&lt;br&gt;ctg45 229&lt;br&gt;Location: 251186 - 251780" locus_tag="ctg45_229" class="clusterblast-orf" id="knownclusterblast-3_q13_0_all"  />
<polygon points="420,40 430,40 435,35 430,30 420,30 420,40 " style="fill:white; stroke-width:1; stroke:black; " description="&lt;b&gt;ctg45_230&lt;/b&gt;&lt;br&gt;ctg45 230&lt;br&gt;Location: 251950 - 252355" locus_tag="ctg45_230" class="clusterblast-orf" id="knownclusterblast-3_q14_0_all"  />
<polygon points="436,35 441,30 464,30 464,40 441,40 436,35 " style="fill:white; stroke-width:1; stroke:black; " description="&lt;b&gt;ctg45_231&lt;/b&gt;&lt;br&gt;ctg45 231&lt;br&gt;Location: 252373 - 253138" locus_tag="ctg45_231" class="clusterblast-orf" id="knownclusterblast-3_q15_0_all"  />
<polygon points="471,40 500,40 505,35 500,30 471,30 471,40 " style="fill:white; stroke-width:1; stroke:black; " description="&lt;b&gt;ctg45_232&lt;/b&gt;&lt;br&gt;ctg45 232&lt;br&gt;Location: 253334 - 254258" locus_tag="ctg45_232" class="clusterblast-orf" id="knownclusterblast-3_q16_0_all"  />
<polygon points="505,40 547,40 552,35 547,30 505,30 505,40 " style="fill:white; stroke-width:1; stroke:black; " description="&lt;b&gt;ctg45_233&lt;/b&gt;&lt;br&gt;ctg45 233&lt;br&gt;Location: 254251 - 255514" locus_tag="ctg45_233" class="clusterblast-orf" id="knownclusterblast-3_q17_0_all"  />
<polygon points="552,40 570,40 575,35 570,30 552,30 552,40 " style="fill:white; stroke-width:1; stroke:black; " description="&lt;b&gt;ctg45_234&lt;/b&gt;&lt;br&gt;ctg45 234&lt;br&gt;Location: 255510 - 256149" locus_tag="ctg45_234" class="clusterblast-orf" id="knownclusterblast-3_q18_0_all"  />
<polygon points="575,40 599,40 604,35 599,30 575,30 575,40 " style="fill:white; stroke-width:1; stroke:black; " description="&lt;b&gt;ctg45_235&lt;/b&gt;&lt;br&gt;ctg45 235&lt;br&gt;Location: 256153 - 256930" locus_tag="ctg45_235" class="clusterblast-orf" id="knownclusterblast-3_q19_0_all"  />
<polygon points="606,40 636,40 641,35 636,30 606,30 606,40 " style="fill:white; stroke-width:1; stroke:black; " description="&lt;b&gt;ctg45_236&lt;/b&gt;&lt;br&gt;ctg45 236&lt;br&gt;Location: 256969 - 257920" locus_tag="ctg45_236" class="clusterblast-orf" id="knownclusterblast-3_q20_0_all"  />
<polygon points="641,40 691,40 696,35 691,30 641,30 641,40 " style="fill:white; stroke-width:1; stroke:black; " description="&lt;b&gt;ctg45_237&lt;/b&gt;&lt;br&gt;ctg45 237&lt;br&gt;Location: 257916 - 259413" locus_tag="ctg45_237" class="clusterblast-orf" id="knownclusterblast-3_q21_0_all"  />
<polygon points="697,35 702,30 731,30 731,40 702,40 697,35 " style="fill:white; stroke-width:1; stroke:black; " description="&lt;b&gt;ctg45_238&lt;/b&gt;&lt;br&gt;ctg45 238&lt;br&gt;Location: 259454 - 260366" locus_tag="ctg45_238" class="clusterblast-orf" id="knownclusterblast-3_q22_0_all"  />
<polygon points="735,40 775,40 780,35 775,30 735,30 735,40 " style="fill:white; stroke-width:1; stroke:black; " description="&lt;b&gt;ctg45_239&lt;/b&gt;&lt;br&gt;ctg45 239&lt;br&gt;Location: 260474 - 261683" locus_tag="ctg45_239" class="clusterblast-orf" id="knownclusterblast-3_q23_0_all"  />
</g>
<g label="MGC00000059" description="MGC00000059_c1: hydroxybenzoate2phenol K. pneumoniae (100% of genes show similarity), PHE" class="clusterblast-cluster"  >
<text x="5" y="70" class="clusterblast-acc"  >
MGC00000059_c1: hydroxybenzoate2phenol K. pneumoniae (100% of genes show similarity), PHE</text>
<line x1="10" y1="85" x2="778.0" y2="85" style="stroke-width:1; stroke:grey; "  />
</g>
<g id="a3_000"  >
<polygon points="352,85 357,80 405,80 405,90 357,90 352,85 " style="fill:#d81515; stroke-width:1; stroke:black; " description="&lt;b&gt;DBZ61_07575&lt;/b&gt;&lt;br&gt;UbiD family decarboxylase&lt;br&gt;Location: 12021 - 10593&lt;br&gt;&lt;br&gt;&lt;b&gt;BlastP hit with ctg45_228&lt;/b&gt;&lt;br&gt;Percentage identity: 98&lt;br&gt;Percentage coverage: 100&lt;br&gt;BLAST bit score: 945&lt;br&gt;E-value: 0.0" locus_tag="DBZ61_07575" class="clusterblast-orf" id="knownclusterblast-3_all_3_1_0"  />
</g>
<g id="a3_001"  >
<polygon points="405,85 410,80 427,80 427,90 410,90 405,85 " style="fill:#15d8d8; stroke-width:1; stroke:black; " description="&lt;b&gt;DBZ61_07570&lt;/b&gt;&lt;br&gt;UbiX family flavin prenyltransferase&lt;br&gt;Location: 10594 - 10000&lt;br&gt;&lt;br&gt;&lt;b&gt;BlastP hit with ctg45_229&lt;/b&gt;&lt;br&gt;Percentage identity: 84&lt;br&gt;Percentage coverage: 99&lt;br&gt;BLAST bit score: 327&lt;br&gt;E-value: 1.32e-117" locus_tag="DBZ61_07570" class="clusterblast-orf" id="knownclusterblast-3_all_3_1_1"  />
</g>
</svg>
