<svg xmlns="http://www.w3.org/2000/svg" xmlns:xlink="http://www.w3.org/1999/xlink" version="1.1" x="0" y="0" height="100" width="800" viewBox="0 0 800 100" preserveAspectRatio="none"  >
<g label="Query sequence" class="clusterblast-cluster"  >
<text x="5" y="20" class="clusterblast-acc"  >
Query sequence</text>
<line x1="10" y1="35" x2="778.0" y2="35" style="stroke-width:1; stroke:grey; "  />
<polygon points="0,35 5,30 30,30 30,40 5,40 0,35 " style="fill:white; stroke-width:1; stroke:black; " description="&lt;b&gt;ctg48_29&lt;/b&gt;&lt;br&gt;ctg48 29&lt;br&gt;Location: 32547 - 33444" locus_tag="ctg48_29" class="clusterblast-orf" id="knownclusterblast-1_q0_0_all"  />
<polygon points="35,40 60,40 65,35 60,30 35,30 35,40 " style="fill:white; stroke-width:1; stroke:black; " description="&lt;b&gt;ctg48_30&lt;/b&gt;&lt;br&gt;ctg48 30&lt;br&gt;Location: 33608 - 34505" locus_tag="ctg48_30" class="clusterblast-orf" id="knownclusterblast-1_q1_0_all"  />
<polygon points="66,40 87,40 92,35 87,30 66,30 66,40 " style="fill:white; stroke-width:1; stroke:black; " description="&lt;b&gt;ctg48_31&lt;/b&gt;&lt;br&gt;ctg48 31&lt;br&gt;Location: 34538 - 35342" locus_tag="ctg48_31" class="clusterblast-orf" id="knownclusterblast-1_q2_0_all"  />
<polygon points="99,40 114,40 119,35 114,30 99,30 99,40 " style="fill:white; stroke-width:1; stroke:black; " description="&lt;b&gt;ctg48_32&lt;/b&gt;&lt;br&gt;ctg48 32&lt;br&gt;Location: 35532 - 36132" locus_tag="ctg48_32" class="clusterblast-orf" id="knownclusterblast-1_q3_0_all"  />
<polygon points="121,40 142,40 147,35 142,30 121,30 121,40 " style="fill:white; stroke-width:1; stroke:black; " description="&lt;b&gt;ctg48_33&lt;/b&gt;&lt;br&gt;ctg48 33&lt;br&gt;Location: 36218 - 36998" locus_tag="ctg48_33" class="clusterblast-orf" id="knownclusterblast-1_q4_0_all"  />
<polygon points="147,40 157,40 162,35 157,30 147,30 147,40 " style="fill:white; stroke-width:1; stroke:black; " description="&lt;b&gt;ctg48_34&lt;/b&gt;&lt;br&gt;ctg48 34&lt;br&gt;Location: 36994 - 37432" locus_tag="ctg48_34" class="clusterblast-orf" id="knownclusterblast-1_q5_0_all"  />
<polygon points="163,40 189,40 194,35 189,30 163,30 163,40 " style="fill:white; stroke-width:1; stroke:black; " description="&lt;b&gt;ctg48_35&lt;/b&gt;&lt;br&gt;ctg48 35&lt;br&gt;Location: 37476 - 38418" locus_tag="ctg48_35" class="clusterblast-orf" id="knownclusterblast-1_q6_0_all"  />
<polygon points="195,35 200,30 210,30 210,40 200,40 195,35 " style="fill:white; stroke-width:1; stroke:black; " description="&lt;b&gt;ctg48_36&lt;/b&gt;&lt;br&gt;ctg48 36&lt;br&gt;Location: 38432 - 38879" locus_tag="ctg48_36" class="clusterblast-orf" id="knownclusterblast-1_q7_0_all"  />
<polygon points="209,35 214,30 220,30 220,40 214,40 209,35 " style="fill:white; stroke-width:1; stroke:black; " description="&lt;b&gt;ctg48_37&lt;/b&gt;&lt;br&gt;ctg48 37&lt;br&gt;Location: 38875 - 39187" locus_tag="ctg48_37" class="clusterblast-orf" id="knownclusterblast-1_q8_0_all"  />
<polygon points="223,35 228,30 253,30 253,40 228,40 223,35 " style="fill:white; stroke-width:1; stroke:black; " description="&lt;b&gt;ctg48_38&lt;/b&gt;&lt;br&gt;ctg48 38&lt;br&gt;Location: 39272 - 40202" locus_tag="ctg48_38" class="clusterblast-orf" id="knownclusterblast-1_q9_0_all"  />
<polygon points="261,40 266,40 271,35 266,30 261,30 261,40 " style="fill:white; stroke-width:1; stroke:black; " description="&lt;b&gt;ctg48_39&lt;/b&gt;&lt;br&gt;ctg48 39&lt;br&gt;Location: 40419 - 40731" locus_tag="ctg48_39" class="clusterblast-orf" id="knownclusterblast-1_q10_0_all"  />
<polygon points="271,40 276,40 281,35 276,30 271,30 271,40 " style="fill:white; stroke-width:1; stroke:black; " description="&lt;b&gt;ctg48_40&lt;/b&gt;&lt;br&gt;ctg48 40&lt;br&gt;Location: 40731 - 41022" locus_tag="ctg48_40" class="clusterblast-orf" id="knownclusterblast-1_q11_0_all"  />
<polygon points="282,35 287,30 313,30 313,40 287,40 282,35 " style="fill:white; stroke-width:1; stroke:black; " description="&lt;b&gt;ctg48_41&lt;/b&gt;&lt;br&gt;ctg48 41&lt;br&gt;Location: 41068 - 41998" locus_tag="ctg48_41" class="clusterblast-orf" id="knownclusterblast-1_q12_0_all"  />
<polygon points="313,35 318,30 334,30 334,40 318,40 313,35 " style="fill:#d81515; stroke-width:1; stroke:black; " description="&lt;b&gt;ctg48_42&lt;/b&gt;&lt;br&gt;ctg48 42&lt;br&gt;Location: 41994 - 42630" locus_tag="ctg48_42" class="clusterblast-orf" id="knownclusterblast-1_q13_0_all"  />
<polygon points="334,35 339,30 364,30 364,40 339,40 334,35 " style="fill:#15d815; stroke-width:1; stroke:black; " description="&lt;b&gt;ctg48_43&lt;/b&gt;&lt;br&gt;ctg48 43&lt;br&gt;Location: 42626 - 43529" locus_tag="ctg48_43" class="clusterblast-orf" id="knownclusterblast-1_q14_0_all"  />
<polygon points="364,35 369,30 444,30 444,40 369,40 364,35 " style="fill:#1515d8; stroke-width:1; stroke:black; " description="&lt;b&gt;ctg48_44&lt;/b&gt;&lt;br&gt;ctg48 44&lt;br&gt;Location: 43541 - 45956" locus_tag="ctg48_44" class="clusterblast-orf" id="knownclusterblast-1_q15_0_all"  />
<polygon points="446,35 451,30 465,30 465,40 451,40 446,35 " style="fill:#1515d8; stroke-width:1; stroke:black; " description="&lt;b&gt;ctg48_45&lt;/b&gt;&lt;br&gt;ctg48 45&lt;br&gt;Location: 46004 - 46592" locus_tag="ctg48_45" class="clusterblast-orf" id="knownclusterblast-1_q16_0_all"  />
<polygon points="473,40 494,40 499,35 494,30 473,30 473,40 " style="fill:white; stroke-width:1; stroke:black; " description="&lt;b&gt;ctg48_46&lt;/b&gt;&lt;br&gt;ctg48 46&lt;br&gt;Location: 46819 - 47623" locus_tag="ctg48_46" class="clusterblast-orf" id="knownclusterblast-1_q17_0_all"  />
<polygon points="508,35 513,30 542,30 542,40 513,40 508,35 " style="fill:white; stroke-width:1; stroke:black; " description="&lt;b&gt;ctg48_47&lt;/b&gt;&lt;br&gt;ctg48 47&lt;br&gt;Location: 47890 - 48922" locus_tag="ctg48_47" class="clusterblast-orf" id="knownclusterblast-1_q18_0_all"  />
<polygon points="548,40 580,40 585,35 580,30 548,30 548,40 " style="fill:white; stroke-width:1; stroke:black; " description="&lt;b&gt;ctg48_48&lt;/b&gt;&lt;br&gt;ctg48 48&lt;br&gt;Location: 49104 - 50205" locus_tag="ctg48_48" class="clusterblast-orf" id="knownclusterblast-1_q19_0_all"  />
<polygon points="596,35 601,30 607,30 607,40 601,40 596,35 " style="fill:white; stroke-width:1; stroke:black; " description="&lt;b&gt;ctg48_49&lt;/b&gt;&lt;br&gt;ctg48 49&lt;br&gt;Location: 50559 - 50883" locus_tag="ctg48_49" class="clusterblast-orf" id="knownclusterblast-1_q20_0_all"  />
<polygon points="607,35 612,30 629,30 629,40 612,40 607,35 " style="fill:white; stroke-width:1; stroke:black; " description="&lt;b&gt;ctg48_50&lt;/b&gt;&lt;br&gt;ctg48 50&lt;br&gt;Location: 50882 - 51542" locus_tag="ctg48_50" class="clusterblast-orf" id="knownclusterblast-1_q21_0_all"  />
<polygon points="632,40 646,40 651,35 646,30 632,30 632,40 " style="fill:white; stroke-width:1; stroke:black; " description="&lt;b&gt;ctg48_51&lt;/b&gt;&lt;br&gt;ctg48 51&lt;br&gt;Location: 51642 - 52191" locus_tag="ctg48_51" class="clusterblast-orf" id="knownclusterblast-1_q22_0_all"  />
<polygon points="653,35 658,30 664,30 664,40 658,40 653,35 " style="fill:white; stroke-width:1; stroke:black; " description="&lt;b&gt;ctg48_52&lt;/b&gt;&lt;br&gt;ctg48 52&lt;br&gt;Location: 52279 - 52594" locus_tag="ctg48_52" class="clusterblast-orf" id="knownclusterblast-1_q23_0_all"  />
<polygon points="664,35 669,30 702,30 702,40 669,40 664,35 " style="fill:white; stroke-width:1; stroke:black; " description="&lt;b&gt;ctg48_53&lt;/b&gt;&lt;br&gt;ctg48 53&lt;br&gt;Location: 52590 - 53739" locus_tag="ctg48_53" class="clusterblast-orf" id="knownclusterblast-1_q24_0_all"  />
<polygon points="706,35 711,30 733,30 733,40 711,40 706,35 " style="fill:white; stroke-width:1; stroke:black; " description="&lt;b&gt;ctg48_54&lt;/b&gt;&lt;br&gt;ctg48 54&lt;br&gt;Location: 53865 - 54693" locus_tag="ctg48_54" class="clusterblast-orf" id="knownclusterblast-1_q25_0_all"  />
<polygon points="738,35 743,30 780,30 780,40 743,40 738,35 " style="fill:white; stroke-width:1; stroke:black; " description="&lt;b&gt;ctg48_55&lt;/b&gt;&lt;br&gt;ctg48 55&lt;br&gt;Location: 54835 - 56095" locus_tag="ctg48_55" class="clusterblast-orf" id="knownclusterblast-1_q26_0_all"  />
</g>
<g label="MGC00000049" description="MGC00000049_c1: Formate dehydrogenase E. coli (100% of genes show similarity), FORM" class="clusterblast-cluster"  >
<text x="5" y="70" class="clusterblast-acc"  >
MGC00000049_c1: Formate dehydrogenase E. coli (100% of genes show similarity), FORM</text>
<line x1="10" y1="85" x2="778.0" y2="85" style="stroke-width:1; stroke:grey; "  />
</g>
<g id="a1_000"  >
<polygon points="313,85 318,80 334,80 334,90 318,90 313,85 " style="fill:#d81515; stroke-width:1; stroke:black; " description="&lt;b&gt;b3892&lt;/b&gt;&lt;br&gt;formate dehydrogenase O subunit gamma&lt;br&gt;Location: 10000 - 10636&lt;br&gt;&lt;br&gt;&lt;b&gt;BlastP hit with ctg48_42&lt;/b&gt;&lt;br&gt;Percentage identity: 96&lt;br&gt;Percentage coverage: 100&lt;br&gt;BLAST bit score: 412&lt;br&gt;E-value: 7.83e-151" locus_tag="b3892" class="clusterblast-orf" id="knownclusterblast-1_all_1_1_0"  />
</g>
<g id="a1_001"  >
<polygon points="334,85 339,80 364,80 364,90 339,90 334,85 " style="fill:#15d815; stroke-width:1; stroke:black; " description="&lt;b&gt;b3893&lt;/b&gt;&lt;br&gt;formate dehydrogenase O subunit beta&lt;br&gt;Location: 10632 - 11535&lt;br&gt;&lt;br&gt;&lt;b&gt;BlastP hit with ctg48_43&lt;/b&gt;&lt;br&gt;Percentage identity: 93&lt;br&gt;Percentage coverage: 100&lt;br&gt;BLAST bit score: 608&lt;br&gt;E-value: 1.89e-225" locus_tag="b3893" class="clusterblast-orf" id="knownclusterblast-1_all_1_1_1"  />
</g>
<g id="a1_002"  >
<polygon points="365,85 370,80 466,80 466,90 370,90 365,85 " style="fill:#1515d8; stroke-width:1; stroke:black; " description="&lt;b&gt;b3894&lt;/b&gt;&lt;br&gt;formate dehydrogenase O subunit alpha&lt;br&gt;Location: 11547 - 14598&lt;br&gt;&lt;br&gt;&lt;b&gt;BlastP hit with ctg48_44&lt;/b&gt;&lt;br&gt;Percentage identity: 93&lt;br&gt;Percentage coverage: 100&lt;br&gt;BLAST bit score: 1578&lt;br&gt;E-value: 0.0&lt;br&gt;&lt;br&gt;&lt;b&gt;BlastP hit with ctg48_45&lt;/b&gt;&lt;br&gt;Percentage identity: 97&lt;br&gt;Percentage coverage: 100&lt;br&gt;BLAST bit score: 388&lt;br&gt;E-value: 1.13e-131" locus_tag="b3894" class="clusterblast-orf" id="knownclusterblast-1_all_1_1_2"  />
</g>
</svg>
