<svg xmlns="http://www.w3.org/2000/svg" xmlns:xlink="http://www.w3.org/1999/xlink" version="1.1" x="0" y="0" height="100" width="800" viewBox="0 0 800 100" preserveAspectRatio="none"  >
<g label="Query sequence" class="clusterblast-cluster"  >
<text x="5" y="20" class="clusterblast-acc"  >
Query sequence</text>
<line x1="10" y1="35" x2="778.0" y2="35" style="stroke-width:1; stroke:grey; "  />
<polygon points="0,35 5,30 24,30 24,40 5,40 0,35 " style="fill:white; stroke-width:1; stroke:black; " description="&lt;b&gt;ctg45_88&lt;/b&gt;&lt;br&gt;ctg45 88&lt;br&gt;Location: 89678 - 90572" locus_tag="ctg45_88" class="clusterblast-orf" id="knownclusterblast-2_q0_0_all"  />
<polygon points="28,40 41,40 46,35 41,30 28,30 28,40 " style="fill:white; stroke-width:1; stroke:black; " description="&lt;b&gt;ctg45_89&lt;/b&gt;&lt;br&gt;ctg45 89&lt;br&gt;Location: 90725 - 91385" locus_tag="ctg45_89" class="clusterblast-orf" id="knownclusterblast-2_q1_0_all"  />
<polygon points="53,40 81,40 86,35 81,30 53,30 53,40 " style="fill:white; stroke-width:1; stroke:black; " description="&lt;b&gt;ctg45_90&lt;/b&gt;&lt;br&gt;ctg45 90&lt;br&gt;Location: 91650 - 92883" locus_tag="ctg45_90" class="clusterblast-orf" id="knownclusterblast-2_q2_0_all"  />
<polygon points="96,35 101,30 113,30 113,40 101,40 96,35 " style="fill:white; stroke-width:1; stroke:black; " description="&lt;b&gt;ctg45_91&lt;/b&gt;&lt;br&gt;ctg45 91&lt;br&gt;Location: 93263 - 93860" locus_tag="ctg45_91" class="clusterblast-orf" id="knownclusterblast-2_q3_0_all"  />
<polygon points="119,35 124,30 128,30 128,40 124,40 119,35 " style="fill:white; stroke-width:1; stroke:black; " description="&lt;b&gt;ctg45_92&lt;/b&gt;&lt;br&gt;ctg45 92&lt;br&gt;Location: 94105 - 94435" locus_tag="ctg45_92" class="clusterblast-orf" id="knownclusterblast-2_q4_0_all"  />
<polygon points="133,40 143,40 148,35 143,30 133,30 133,40 " style="fill:white; stroke-width:1; stroke:black; " description="&lt;b&gt;ctg45_93&lt;/b&gt;&lt;br&gt;ctg45 93&lt;br&gt;Location: 94601 - 95180" locus_tag="ctg45_93" class="clusterblast-orf" id="knownclusterblast-2_q5_0_all"  />
<polygon points="149,40 179,40 184,35 179,30 149,30 149,40 " style="fill:white; stroke-width:1; stroke:black; " description="&lt;b&gt;ctg45_94&lt;/b&gt;&lt;br&gt;ctg45 94&lt;br&gt;Location: 95205 - 96522" locus_tag="ctg45_94" class="clusterblast-orf" id="knownclusterblast-2_q6_0_all"  />
<polygon points="184,40 211,40 216,35 211,30 184,30 184,40 " style="fill:white; stroke-width:1; stroke:black; " description="&lt;b&gt;ctg45_95&lt;/b&gt;&lt;br&gt;ctg45 95&lt;br&gt;Location: 96518 - 97697" locus_tag="ctg45_95" class="clusterblast-orf" id="knownclusterblast-2_q7_0_all"  />
<polygon points="220,40 247,40 252,35 247,30 220,30 220,40 " style="fill:white; stroke-width:1; stroke:black; " description="&lt;b&gt;ctg45_96&lt;/b&gt;&lt;br&gt;ctg45 96&lt;br&gt;Location: 97822 - 99025" locus_tag="ctg45_96" class="clusterblast-orf" id="knownclusterblast-2_q8_0_all"  />
<polygon points="264,40 289,40 294,35 289,30 264,30 264,40 " style="fill:#d81515; stroke-width:1; stroke:black; " description="&lt;b&gt;ctg45_97&lt;/b&gt;&lt;br&gt;ctg45 97&lt;br&gt;Location: 99479 - 100574" locus_tag="ctg45_97" class="clusterblast-orf" id="knownclusterblast-2_q9_0_all"  />
<polygon points="294,40 300,40 305,35 300,30 294,30 294,40 " style="fill:#15d815; stroke-width:1; stroke:black; " description="&lt;b&gt;ctg45_98&lt;/b&gt;&lt;br&gt;ctg45 98&lt;br&gt;Location: 100599 - 100989" locus_tag="ctg45_98" class="clusterblast-orf" id="knownclusterblast-2_q10_0_all"  />
<polygon points="309,40 382,40 387,35 382,30 309,30 309,40 " style="fill:#1515d8; stroke-width:1; stroke:black; " description="&lt;b&gt;ctg45_99&lt;/b&gt;&lt;br&gt;ctg45 99&lt;br&gt;Location: 101151 - 104025" locus_tag="ctg45_99" class="clusterblast-orf" id="knownclusterblast-2_q11_0_all"  />
<polygon points="399,40 418,40 423,35 418,30 399,30 399,40 " style="fill:white; stroke-width:1; stroke:black; " description="&lt;b&gt;ctg45_100&lt;/b&gt;&lt;br&gt;ctg45 100&lt;br&gt;Location: 104480 - 105374" locus_tag="ctg45_100" class="clusterblast-orf" id="knownclusterblast-2_q12_0_all"  />
<polygon points="425,35 430,30 463,30 463,40 430,40 425,35 " style="fill:white; stroke-width:1; stroke:black; " description="&lt;b&gt;ctg45_101&lt;/b&gt;&lt;br&gt;ctg45 101&lt;br&gt;Location: 105421 - 106855" locus_tag="ctg45_101" class="clusterblast-orf" id="knownclusterblast-2_q13_0_all"  />
<polygon points="466,40 471,40 476,35 471,30 466,30 466,40 " style="fill:white; stroke-width:1; stroke:black; " description="&lt;b&gt;ctg45_102&lt;/b&gt;&lt;br&gt;ctg45 102&lt;br&gt;Location: 106944 - 107325" locus_tag="ctg45_102" class="clusterblast-orf" id="knownclusterblast-2_q14_0_all"  />
<polygon points="480,40 493,40 498,35 493,30 480,30 480,40 " style="fill:white; stroke-width:1; stroke:black; " description="&lt;b&gt;ctg45_103&lt;/b&gt;&lt;br&gt;ctg45 103&lt;br&gt;Location: 107488 - 108148" locus_tag="ctg45_103" class="clusterblast-orf" id="knownclusterblast-2_q15_0_all"  />
<polygon points="498,40 498,40 503,35 498,30 498,30 498,40 " style="fill:white; stroke-width:1; stroke:black; " description="&lt;b&gt;ctg45_104&lt;/b&gt;&lt;br&gt;ctg45 104&lt;br&gt;Location: 108155 - 108347" locus_tag="ctg45_104" class="clusterblast-orf" id="knownclusterblast-2_q16_0_all"  />
<polygon points="501,35 506,30 528,30 528,40 506,40 501,35 " style="fill:white; stroke-width:1; stroke:black; " description="&lt;b&gt;ctg45_105&lt;/b&gt;&lt;br&gt;ctg45 105&lt;br&gt;Location: 108263 - 109244" locus_tag="ctg45_105" class="clusterblast-orf" id="knownclusterblast-2_q17_0_all"  />
<polygon points="534,40 537,40 542,35 537,30 534,30 534,40 " style="fill:white; stroke-width:1; stroke:black; " description="&lt;b&gt;ctg45_106&lt;/b&gt;&lt;br&gt;ctg45 106&lt;br&gt;Location: 109493 - 109760" locus_tag="ctg45_106" class="clusterblast-orf" id="knownclusterblast-2_q18_0_all"  />
<polygon points="541,40 547,40 552,35 547,30 541,30 541,40 " style="fill:white; stroke-width:1; stroke:black; " description="&lt;b&gt;ctg45_107&lt;/b&gt;&lt;br&gt;ctg45 107&lt;br&gt;Location: 109740 - 110154" locus_tag="ctg45_107" class="clusterblast-orf" id="knownclusterblast-2_q19_0_all"  />
<polygon points="554,35 559,30 568,30 568,40 559,40 554,35 " style="fill:white; stroke-width:1; stroke:black; " description="&lt;b&gt;ctg45_108&lt;/b&gt;&lt;br&gt;ctg45 108&lt;br&gt;Location: 110206 - 110728" locus_tag="ctg45_108" class="clusterblast-orf" id="knownclusterblast-2_q20_0_all"  />
<polygon points="571,40 590,40 595,35 590,30 571,30 571,40 " style="fill:white; stroke-width:1; stroke:black; " description="&lt;b&gt;ctg45_109&lt;/b&gt;&lt;br&gt;ctg45 109&lt;br&gt;Location: 110840 - 111737" locus_tag="ctg45_109" class="clusterblast-orf" id="knownclusterblast-2_q21_0_all"  />
<polygon points="596,40 610,40 615,35 610,30 596,30 596,40 " style="fill:white; stroke-width:1; stroke:black; " description="&lt;b&gt;ctg45_110&lt;/b&gt;&lt;br&gt;ctg45 110&lt;br&gt;Location: 111760 - 112474" locus_tag="ctg45_110" class="clusterblast-orf" id="knownclusterblast-2_q22_0_all"  />
<polygon points="615,40 657,40 662,35 657,30 615,30 615,40 " style="fill:white; stroke-width:1; stroke:black; " description="&lt;b&gt;ctg45_111&lt;/b&gt;&lt;br&gt;ctg45 111&lt;br&gt;Location: 112479 - 114213" locus_tag="ctg45_111" class="clusterblast-orf" id="knownclusterblast-2_q23_0_all"  />
<polygon points="670,40 689,40 694,35 689,30 670,30 670,40 " style="fill:white; stroke-width:1; stroke:black; " description="&lt;b&gt;ctg45_112&lt;/b&gt;&lt;br&gt;ctg45 112&lt;br&gt;Location: 114534 - 115416" locus_tag="ctg45_112" class="clusterblast-orf" id="knownclusterblast-2_q24_0_all"  />
<polygon points="694,40 730,40 735,35 730,30 694,30 694,40 " style="fill:white; stroke-width:1; stroke:black; " description="&lt;b&gt;ctg45_113&lt;/b&gt;&lt;br&gt;ctg45 113&lt;br&gt;Location: 115425 - 116943" locus_tag="ctg45_113" class="clusterblast-orf" id="knownclusterblast-2_q25_0_all"  />
<polygon points="737,35 742,30 752,30 752,40 742,40 737,35 " style="fill:white; stroke-width:1; stroke:black; " description="&lt;b&gt;ctg45_114&lt;/b&gt;&lt;br&gt;ctg45 114&lt;br&gt;Location: 117018 - 117564" locus_tag="ctg45_114" class="clusterblast-orf" id="knownclusterblast-2_q26_0_all"  />
<polygon points="759,40 775,40 780,35 775,30 759,30 759,40 " style="fill:white; stroke-width:1; stroke:black; " description="&lt;b&gt;ctg45_115&lt;/b&gt;&lt;br&gt;ctg45 115&lt;br&gt;Location: 117828 - 118587" locus_tag="ctg45_115" class="clusterblast-orf" id="knownclusterblast-2_q27_0_all"  />
</g>
<g label="MGC00000027" description="MGC00000027_c1: Glycine cleavage C. sticklandii (80% of genes show similarity), GLY" class="clusterblast-cluster"  >
<text x="5" y="70" class="clusterblast-acc"  >
MGC00000027_c1: Glycine cleavage C. sticklandii (80% of genes show similarity), GLY</text>
<line x1="10" y1="85" x2="778.0" y2="85" style="stroke-width:1; stroke:grey; "  />
</g>
<g id="a2_000"  >
<polygon points="314,90 338,90 343,85 338,80 314,80 314,90 " style="fill:#d81515; stroke-width:1; stroke:black; " description="&lt;b&gt;CLOST_RS02260&lt;/b&gt;&lt;br&gt;glycine cleavage system protein T&lt;br&gt;Location: 18168 - 19266&lt;br&gt;&lt;br&gt;&lt;b&gt;BlastP hit with ctg45_97&lt;/b&gt;&lt;br&gt;Percentage identity: 36&lt;br&gt;Percentage coverage: 101&lt;br&gt;BLAST bit score: 224&lt;br&gt;E-value: 2.21e-72" locus_tag="CLOST_RS02260" class="clusterblast-orf" id="knownclusterblast-2_all_2_1_0"  />
</g>
<g id="a2_001"  >
<polygon points="346,90 351,90 356,85 351,80 346,80 346,90 " style="fill:#15d815; stroke-width:1; stroke:black; " description="&lt;b&gt;CLOST_RS02265&lt;/b&gt;&lt;br&gt;glycine cleavage system protein H&lt;br&gt;Location: 19377 - 19758&lt;br&gt;&lt;br&gt;&lt;b&gt;BlastP hit with ctg45_98&lt;/b&gt;&lt;br&gt;Percentage identity: 43&lt;br&gt;Percentage coverage: 96&lt;br&gt;BLAST bit score: 99&lt;br&gt;E-value: 1.03e-29" locus_tag="CLOST_RS02265" class="clusterblast-orf" id="knownclusterblast-2_all_2_1_1"  />
</g>
<g id="a2_002"  >
<polygon points="357,90 388,90 393,85 388,80 357,80 357,90 " style="fill:#1515d8; stroke-width:1; stroke:black; " description="&lt;b&gt;CLOST_RS02270&lt;/b&gt;&lt;br&gt;aminomethyl-transferring glycine dehydrogenase&lt;br&gt;Location: 19761 - 21105&lt;br&gt;&lt;br&gt;&lt;b&gt;BlastP hit with ctg45_99&lt;/b&gt;&lt;br&gt;Percentage identity: 33&lt;br&gt;Percentage coverage: 47&lt;br&gt;BLAST bit score: 194&lt;br&gt;E-value: 6.11e-56" locus_tag="CLOST_RS02270" class="clusterblast-orf" id="knownclusterblast-2_all_2_1_2"  />
</g>
<g id="a2_003"  >
<polygon points="393,90 427,90 432,85 427,80 393,80 393,90 " style="fill:#1515d8; stroke-width:1; stroke:black; " description="&lt;b&gt;CLOST_RS02275&lt;/b&gt;&lt;br&gt;glycine dehydrogenase subunit 2&lt;br&gt;Location: 21101 - 22559&lt;br&gt;&lt;br&gt;&lt;b&gt;BlastP hit with ctg45_99&lt;/b&gt;&lt;br&gt;Percentage identity: 40&lt;br&gt;Percentage coverage: 47&lt;br&gt;BLAST bit score: 315&lt;br&gt;E-value: 2.67e-99" locus_tag="CLOST_RS02275" class="clusterblast-orf" id="knownclusterblast-2_all_2_1_3"  />
</g>
<g id="a2_004"  >
<polygon points="433,85 438,80 465,80 465,90 438,90 433,85 " style="fill:white; stroke-width:1; stroke:black; " description="&lt;b&gt;CLOST_RS02280&lt;/b&gt;&lt;br&gt;pyridoxal phosphate-dependent aminotransferase&lt;br&gt;Location: 22614 - 23799" locus_tag="CLOST_RS02280" class="clusterblast-orf" id="knownclusterblast-2_all_2_1_4"  />
</g>
</svg>
