<svg xmlns="http://www.w3.org/2000/svg" xmlns:xlink="http://www.w3.org/1999/xlink" version="1.1" x="0" y="0" height="230" width="800" viewBox="0 0 800 230" preserveAspectRatio="none"  >
<g label="Query sequence" class="clusterblast-cluster"  >
<text x="5" y="20" class="clusterblast-acc"  >
Query sequence</text>
<line x1="10" y1="35" x2="778.0" y2="35" style="stroke-width:1; stroke:grey; "  />
<polygon points="0,35 5,30 85,30 85,40 5,40 0,35 " style="fill:white; stroke-width:1; stroke:black; " description="&lt;b&gt;ctg7_166&lt;/b&gt;&lt;br&gt;ctg7 166&lt;br&gt;Location: 191230 - 193120" locus_tag="ctg7_166" class="clusterblast-orf" id="dummy-2_q0_0_all"  />
<polygon points="126,40 134,40 139,35 134,30 126,30 126,40 " style="fill:white; stroke-width:1; stroke:black; " description="&lt;b&gt;ctg7_167&lt;/b&gt;&lt;br&gt;ctg7 167&lt;br&gt;Location: 194017 - 194308" locus_tag="ctg7_167" class="clusterblast-orf" id="dummy-2_q1_0_all"  />
<polygon points="149,35 154,30 168,30 168,40 154,40 149,35 " style="fill:white; stroke-width:1; stroke:black; " description="&lt;b&gt;ctg7_168&lt;/b&gt;&lt;br&gt;ctg7 168&lt;br&gt;Location: 194531 - 194948" locus_tag="ctg7_168" class="clusterblast-orf" id="dummy-2_q2_0_all"  />
<polygon points="181,35 186,30 191,30 191,40 186,40 181,35 " style="fill:white; stroke-width:1; stroke:black; " description="&lt;b&gt;ctg7_169&lt;/b&gt;&lt;br&gt;ctg7 169&lt;br&gt;Location: 195241 - 195472" locus_tag="ctg7_169" class="clusterblast-orf" id="dummy-2_q3_0_all"  />
<polygon points="195,35 200,30 256,30 256,40 200,40 195,35 " style="fill:white; stroke-width:1; stroke:black; " description="&lt;b&gt;ctg7_170&lt;/b&gt;&lt;br&gt;ctg7 170&lt;br&gt;Location: 195560 - 196901" locus_tag="ctg7_170" class="clusterblast-orf" id="dummy-2_q4_0_all"  />
<polygon points="262,35 267,30 275,30 275,40 267,40 262,35 " style="fill:white; stroke-width:1; stroke:black; " description="&lt;b&gt;ctg7_171&lt;/b&gt;&lt;br&gt;ctg7 171&lt;br&gt;Location: 197047 - 197335" locus_tag="ctg7_171" class="clusterblast-orf" id="dummy-2_q5_0_all"  />
<polygon points="275,35 280,30 333,30 333,40 280,40 275,35 " style="fill:white; stroke-width:1; stroke:black; " description="&lt;b&gt;ctg7_172&lt;/b&gt;&lt;br&gt;ctg7 172&lt;br&gt;Location: 197331 - 198618" locus_tag="ctg7_172" class="clusterblast-orf" id="dummy-2_q6_0_all"  />
<polygon points="335,35 340,30 378,30 378,40 340,40 335,35 " style="fill:white; stroke-width:1; stroke:black; " description="&lt;b&gt;ctg7_173&lt;/b&gt;&lt;br&gt;ctg7 173&lt;br&gt;Location: 198667 - 199609" locus_tag="ctg7_173" class="clusterblast-orf" id="dummy-2_q7_0_all"  />
<polygon points="378,35 383,30 413,30 413,40 383,40 378,35 " style="fill:white; stroke-width:1; stroke:black; " description="&lt;b&gt;ctg7_174&lt;/b&gt;&lt;br&gt;ctg7 174&lt;br&gt;Location: 199624 - 200395" locus_tag="ctg7_174" class="clusterblast-orf" id="dummy-2_q8_0_all"  />
<polygon points="435,40 498,40 503,35 498,30 435,30 435,40 " style="fill:#d81515; stroke-width:1; stroke:black; " description="&lt;b&gt;ctg7_175&lt;/b&gt;&lt;br&gt;ctg7 175&lt;br&gt;Location: 200875 - 202393" locus_tag="ctg7_175" class="clusterblast-orf" id="dummy-2_q9_0_all"  />
<polygon points="505,40 551,40 556,35 551,30 505,30 505,40 " style="fill:#15d815; stroke-width:1; stroke:black; " description="&lt;b&gt;ctg7_176&lt;/b&gt;&lt;br&gt;ctg7 176&lt;br&gt;Location: 202427 - 203570" locus_tag="ctg7_176" class="clusterblast-orf" id="dummy-2_q10_0_all"  />
<polygon points="561,40 611,40 616,35 611,30 561,30 561,40 " style="fill:#1515d8; stroke-width:1; stroke:black; " description="&lt;b&gt;ctg7_177&lt;/b&gt;&lt;br&gt;ctg7 177&lt;br&gt;Location: 203681 - 204899" locus_tag="ctg7_177" class="clusterblast-orf" id="dummy-2_q11_0_all"  />
<polygon points="619,40 684,40 689,35 684,30 619,30 619,40 " style="fill:#d815d8; stroke-width:1; stroke:black; " description="&lt;b&gt;ctg7_178&lt;/b&gt;&lt;br&gt;ctg7 178&lt;br&gt;Location: 204961 - 206515" locus_tag="ctg7_178" class="clusterblast-orf" id="dummy-2_q12_0_all"  />
<polygon points="691,40 722,40 727,35 722,30 691,30 691,40 " style="fill:#d8d815; stroke-width:1; stroke:black; " description="&lt;b&gt;ctg7_179&lt;/b&gt;&lt;br&gt;ctg7 179&lt;br&gt;Location: 206568 - 207354" locus_tag="ctg7_179" class="clusterblast-orf" id="dummy-2_q13_0_all"  />
<polygon points="732,40 754,40 759,35 754,30 732,30 732,40 " style="fill:#15d8d8; stroke-width:1; stroke:black; " description="&lt;b&gt;ctg7_180&lt;/b&gt;&lt;br&gt;ctg7 180&lt;br&gt;Location: 207462 - 208059" locus_tag="ctg7_180" class="clusterblast-orf" id="dummy-2_q14_0_all"  />
<polygon points="762,35 767,30 780,30 780,40 767,40 762,35 " style="fill:white; stroke-width:1; stroke:black; " description="&lt;b&gt;ctg7_181&lt;/b&gt;&lt;br&gt;ctg7 181&lt;br&gt;Location: 208135 - 208531" locus_tag="ctg7_181" class="clusterblast-orf" id="dummy-2_q15_0_all"  />
</g>
<g label="MGC00000018" description="MGC00000018_c1: Carnitine caiTABCDE E. coli (100% of genes show similarity), CAR" class="clusterblast-cluster"  >
<text x="5" y="70" class="clusterblast-acc"  >
MGC00000018_c1: Carnitine caiTABCDE E. coli (100% of genes show similarity), CAR</text>
<line x1="10" y1="85" x2="778.0" y2="85" style="stroke-width:1; stroke:grey; "  />
</g>
<g id="a2_000"  >
<polygon points="228,90 292,90 297,85 292,80 228,80 228,90 " style="fill:#d81515; stroke-width:1; stroke:black; " description="&lt;b&gt;C_RS00230&lt;/b&gt;&lt;br&gt;L-carnitine/gamma-butyrobetaine antiporter&lt;br&gt;Location: 17149 - 15634&lt;br&gt;&lt;br&gt;&lt;b&gt;BlastP hit with ctg7_175&lt;/b&gt;&lt;br&gt;Percentage identity: 96&lt;br&gt;Percentage coverage: 100&lt;br&gt;BLAST bit score: 991&lt;br&gt;E-value: 0.0" locus_tag="C_RS00230" class="clusterblast-orf" id="dummy-2_h2_1_0"  />
</g>
<g id="a2_001"  >
<polygon points="298,90 345,90 350,85 345,80 298,80 298,90 " style="fill:#15d815; stroke-width:1; stroke:black; " description="&lt;b&gt;C_RS00225&lt;/b&gt;&lt;br&gt;crotonobetainyl-CoA dehydrogenase&lt;br&gt;Location: 15604 - 14461&lt;br&gt;&lt;br&gt;&lt;b&gt;BlastP hit with ctg7_176&lt;/b&gt;&lt;br&gt;Percentage identity: 98&lt;br&gt;Percentage coverage: 100&lt;br&gt;BLAST bit score: 755&lt;br&gt;E-value: 5.68e-281" locus_tag="C_RS00225" class="clusterblast-orf" id="dummy-2_h2_1_1"  />
</g>
<g id="a2_002"  >
<polygon points="355,90 405,90 410,85 405,80 355,80 355,90 " style="fill:#1515d8; stroke-width:1; stroke:black; " description="&lt;b&gt;C_RS00220&lt;/b&gt;&lt;br&gt;L-carnitine CoA-transferase&lt;br&gt;Location: 14334 - 13116&lt;br&gt;&lt;br&gt;&lt;b&gt;BlastP hit with ctg7_177&lt;/b&gt;&lt;br&gt;Percentage identity: 95&lt;br&gt;Percentage coverage: 100&lt;br&gt;BLAST bit score: 811&lt;br&gt;E-value: 1.57e-302" locus_tag="C_RS00220" class="clusterblast-orf" id="dummy-2_h2_1_2"  />
</g>
<g id="a2_003"  >
<polygon points="413,90 478,90 483,85 478,80 413,80 413,90 " style="fill:#d815d8; stroke-width:1; stroke:black; " description="&lt;b&gt;C_RS00215&lt;/b&gt;&lt;br&gt;ATP-dependent acyl-CoA ligase&lt;br&gt;Location: 13044 - 11490&lt;br&gt;&lt;br&gt;&lt;b&gt;BlastP hit with ctg7_178&lt;/b&gt;&lt;br&gt;Percentage identity: 84&lt;br&gt;Percentage coverage: 100&lt;br&gt;BLAST bit score: 906&lt;br&gt;E-value: 0.0" locus_tag="C_RS00215" class="clusterblast-orf" id="dummy-2_h2_1_3"  />
</g>
<g id="a2_004"  >
<polygon points="488,90 519,90 524,85 519,80 488,80 488,90 " style="fill:#d8d815; stroke-width:1; stroke:black; " description="&lt;b&gt;C_RS00210&lt;/b&gt;&lt;br&gt;carnitinyl-CoA dehydratase&lt;br&gt;Location: 11382 - 10596&lt;br&gt;&lt;br&gt;&lt;b&gt;BlastP hit with ctg7_179&lt;/b&gt;&lt;br&gt;Percentage identity: 94&lt;br&gt;Percentage coverage: 100&lt;br&gt;BLAST bit score: 487&lt;br&gt;E-value: 4.8e-179" locus_tag="C_RS00210" class="clusterblast-orf" id="dummy-2_h2_1_4"  />
</g>
<g id="a2_005"  >
<polygon points="524,90 546,90 551,85 546,80 524,80 524,90 " style="fill:#15d8d8; stroke-width:1; stroke:black; " description="&lt;b&gt;C_RS00205&lt;/b&gt;&lt;br&gt;carnitine operon protein CaiE&lt;br&gt;Location: 10591 - 10000&lt;br&gt;&lt;br&gt;&lt;b&gt;BlastP hit with ctg7_180&lt;/b&gt;&lt;br&gt;Percentage identity: 84&lt;br&gt;Percentage coverage: 98&lt;br&gt;BLAST bit score: 323&lt;br&gt;E-value: 4.42e-116" locus_tag="C_RS00205" class="clusterblast-orf" id="dummy-2_h2_1_5"  />
</g>
</svg>
