<svg xmlns="http://www.w3.org/2000/svg" xmlns:xlink="http://www.w3.org/1999/xlink" version="1.1" x="0" y="0" height="230" width="800" viewBox="0 0 800 230" preserveAspectRatio="none"  >
<g label="Query sequence" class="clusterblast-cluster"  >
<text x="5" y="20" class="clusterblast-acc"  >
Query sequence</text>
<line x1="10" y1="35" x2="778.0" y2="35" style="stroke-width:1; stroke:grey; "  />
<polygon points="0,40 15,40 20,35 15,30 0,30 0,40 " style="fill:white; stroke-width:1; stroke:black; " description="&lt;b&gt;ctg19_170&lt;/b&gt;&lt;br&gt;ctg19 170&lt;br&gt;Location: 175566 - 176172" locus_tag="ctg19_170" class="clusterblast-orf" id="dummy-4_q0_0_all"  />
<polygon points="22,35 27,30 36,30 36,40 27,40 22,35 " style="fill:white; stroke-width:1; stroke:black; " description="&lt;b&gt;ctg19_171&lt;/b&gt;&lt;br&gt;ctg19 171&lt;br&gt;Location: 176216 - 176642" locus_tag="ctg19_171" class="clusterblast-orf" id="dummy-4_q1_0_all"  />
<polygon points="44,40 58,40 63,35 58,30 44,30 44,40 " style="fill:white; stroke-width:1; stroke:black; " description="&lt;b&gt;ctg19_172&lt;/b&gt;&lt;br&gt;ctg19 172&lt;br&gt;Location: 176896 - 177463" locus_tag="ctg19_172" class="clusterblast-orf" id="dummy-4_q2_0_all"  />
<polygon points="67,40 102,40 107,35 102,30 67,30 67,40 " style="fill:white; stroke-width:1; stroke:black; " description="&lt;b&gt;ctg19_173&lt;/b&gt;&lt;br&gt;ctg19 173&lt;br&gt;Location: 177577 - 178774" locus_tag="ctg19_173" class="clusterblast-orf" id="dummy-4_q3_0_all"  />
<polygon points="115,40 136,40 141,35 136,30 115,30 115,40 " style="fill:white; stroke-width:1; stroke:black; " description="&lt;b&gt;ctg19_174&lt;/b&gt;&lt;br&gt;ctg19 174&lt;br&gt;Location: 179023 - 179806" locus_tag="ctg19_174" class="clusterblast-orf" id="dummy-4_q4_0_all"  />
<polygon points="142,40 177,40 182,35 177,30 142,30 142,40 " style="fill:white; stroke-width:1; stroke:black; " description="&lt;b&gt;ctg19_175&lt;/b&gt;&lt;br&gt;ctg19 175&lt;br&gt;Location: 179819 - 181025" locus_tag="ctg19_175" class="clusterblast-orf" id="dummy-4_q5_0_all"  />
<polygon points="184,40 222,40 227,35 222,30 184,30 184,40 " style="fill:white; stroke-width:1; stroke:black; " description="&lt;b&gt;ctg19_176&lt;/b&gt;&lt;br&gt;ctg19 176&lt;br&gt;Location: 181080 - 182370" locus_tag="ctg19_176" class="clusterblast-orf" id="dummy-4_q6_0_all"  />
<polygon points="228,40 250,40 255,35 250,30 228,30 228,40 " style="fill:white; stroke-width:1; stroke:black; " description="&lt;b&gt;ctg19_177&lt;/b&gt;&lt;br&gt;ctg19 177&lt;br&gt;Location: 182395 - 183199" locus_tag="ctg19_177" class="clusterblast-orf" id="dummy-4_q7_0_all"  />
<polygon points="255,40 256,40 261,35 256,30 255,30 255,40 " style="fill:white; stroke-width:1; stroke:black; " description="&lt;b&gt;ctg19_178&lt;/b&gt;&lt;br&gt;ctg19 178&lt;br&gt;Location: 183204 - 183381" locus_tag="ctg19_178" class="clusterblast-orf" id="dummy-4_q8_0_all"  />
<polygon points="264,35 269,30 299,30 299,40 269,40 264,35 " style="fill:white; stroke-width:1; stroke:black; " description="&lt;b&gt;ctg19_179&lt;/b&gt;&lt;br&gt;ctg19 179&lt;br&gt;Location: 183490 - 184513" locus_tag="ctg19_179" class="clusterblast-orf" id="dummy-4_q9_0_all"  />
<polygon points="313,35 318,30 353,30 353,40 318,40 313,35 " style="fill:#d81515; stroke-width:1; stroke:black; " description="&lt;b&gt;ctg19_180&lt;/b&gt;&lt;br&gt;ctg19 180&lt;br&gt;Location: 184938 - 186129" locus_tag="ctg19_180" class="clusterblast-orf" id="dummy-4_q10_0_all"  />
<polygon points="352,35 357,30 395,30 395,40 357,40 352,35 " style="fill:#15d815; stroke-width:1; stroke:black; " description="&lt;b&gt;ctg19_181&lt;/b&gt;&lt;br&gt;ctg19 181&lt;br&gt;Location: 186125 - 187385" locus_tag="ctg19_181" class="clusterblast-orf" id="dummy-4_q11_0_all"  />
<polygon points="394,35 399,30 449,30 449,40 399,40 394,35 " style="fill:#1515d8; stroke-width:1; stroke:black; " description="&lt;b&gt;ctg19_182&lt;/b&gt;&lt;br&gt;ctg19 182&lt;br&gt;Location: 187374 - 189003" locus_tag="ctg19_182" class="clusterblast-orf" id="dummy-4_q12_0_all"  />
<polygon points="458,40 498,40 503,35 498,30 458,30 458,40 " style="fill:white; stroke-width:1; stroke:black; " description="&lt;b&gt;ctg19_183&lt;/b&gt;&lt;br&gt;ctg19 183&lt;br&gt;Location: 189275 - 190634" locus_tag="ctg19_183" class="clusterblast-orf" id="dummy-4_q13_0_all"  />
<polygon points="503,40 534,40 539,35 534,30 503,30 503,40 " style="fill:white; stroke-width:1; stroke:black; " description="&lt;b&gt;ctg19_184&lt;/b&gt;&lt;br&gt;ctg19 184&lt;br&gt;Location: 190638 - 191709" locus_tag="ctg19_184" class="clusterblast-orf" id="dummy-4_q14_0_all"  />
<polygon points="543,35 548,30 572,30 572,40 548,40 543,35 " style="fill:white; stroke-width:1; stroke:black; " description="&lt;b&gt;ctg19_185&lt;/b&gt;&lt;br&gt;ctg19 185&lt;br&gt;Location: 191824 - 192703" locus_tag="ctg19_185" class="clusterblast-orf" id="dummy-4_q15_0_all"  />
<polygon points="577,40 612,40 617,35 612,30 577,30 577,40 " style="fill:white; stroke-width:1; stroke:black; " description="&lt;b&gt;ctg19_186&lt;/b&gt;&lt;br&gt;ctg19 186&lt;br&gt;Location: 192837 - 194055" locus_tag="ctg19_186" class="clusterblast-orf" id="dummy-4_q16_0_all"  />
<polygon points="617,35 622,30 626,30 626,40 622,40 617,35 " style="fill:white; stroke-width:1; stroke:black; " description="&lt;b&gt;ctg19_187&lt;/b&gt;&lt;br&gt;ctg19 187&lt;br&gt;Location: 194056 - 194311" locus_tag="ctg19_187" class="clusterblast-orf" id="dummy-4_q17_0_all"  />
<polygon points="626,35 631,30 664,30 664,40 631,40 626,35 " style="fill:white; stroke-width:1; stroke:black; " description="&lt;b&gt;ctg19_188&lt;/b&gt;&lt;br&gt;ctg19 188&lt;br&gt;Location: 194310 - 195441" locus_tag="ctg19_188" class="clusterblast-orf" id="dummy-4_q18_0_all"  />
<polygon points="667,35 672,30 744,30 744,40 672,40 667,35 " style="fill:white; stroke-width:1; stroke:black; " description="&lt;b&gt;ctg19_189&lt;/b&gt;&lt;br&gt;ctg19 189&lt;br&gt;Location: 195553 - 197839" locus_tag="ctg19_189" class="clusterblast-orf" id="dummy-4_q19_0_all"  />
<polygon points="755,35 760,30 780,30 780,40 760,40 755,35 " style="fill:white; stroke-width:1; stroke:black; " description="&lt;b&gt;ctg19_190&lt;/b&gt;&lt;br&gt;ctg19 190&lt;br&gt;Location: 198194 - 198923" locus_tag="ctg19_190" class="clusterblast-orf" id="dummy-4_q20_0_all"  />
</g>
<g label="MGC00000047" description="MGC00000047_c1: GlycerolP to glyceroneP E. coli (100% of genes show similarity), GLYP" class="clusterblast-cluster"  >
<text x="5" y="70" class="clusterblast-acc"  >
MGC00000047_c1: GlycerolP to glyceroneP E. coli (100% of genes show similarity), GLYP</text>
<line x1="10" y1="85" x2="778.0" y2="85" style="stroke-width:1; stroke:grey; "  />
</g>
<g id="a4_000"  >
<polygon points="322,85 327,80 361,80 361,90 327,90 322,85 " style="fill:#d81515; stroke-width:1; stroke:black; " description="&lt;b&gt;b2243&lt;/b&gt;&lt;br&gt;anaerobic glycerol-3-phosphate dehydrogenase subunit C&lt;br&gt;Location: 14065 - 12874&lt;br&gt;&lt;br&gt;&lt;b&gt;BlastP hit with ctg19_180&lt;/b&gt;&lt;br&gt;Percentage identity: 92&lt;br&gt;Percentage coverage: 100&lt;br&gt;BLAST bit score: 754&lt;br&gt;E-value: 2.82e-280" locus_tag="b2243" class="clusterblast-orf" id="dummy-4_h4_1_0"  />
</g>
<g id="a4_001"  >
<polygon points="361,85 366,80 403,80 403,90 366,90 361,85 " style="fill:#15d815; stroke-width:1; stroke:black; " description="&lt;b&gt;b2242&lt;/b&gt;&lt;br&gt;anaerobic glycerol-3-phosphate dehydrogenase subunit B&lt;br&gt;Location: 12878 - 11618&lt;br&gt;&lt;br&gt;&lt;b&gt;BlastP hit with ctg19_181&lt;/b&gt;&lt;br&gt;Percentage identity: 81&lt;br&gt;Percentage coverage: 100&lt;br&gt;BLAST bit score: 693&lt;br&gt;E-value: 3.96e-255" locus_tag="b2242" class="clusterblast-orf" id="dummy-4_h4_1_1"  />
</g>
<g id="a4_002"  >
<polygon points="403,85 408,80 457,80 457,90 408,90 403,85 " style="fill:#1515d8; stroke-width:1; stroke:black; " description="&lt;b&gt;b2241&lt;/b&gt;&lt;br&gt;anaerobic glycerol-3-phosphate dehydrogenase subunit A&lt;br&gt;Location: 11629 - 10000&lt;br&gt;&lt;br&gt;&lt;b&gt;BlastP hit with ctg19_182&lt;/b&gt;&lt;br&gt;Percentage identity: 93&lt;br&gt;Percentage coverage: 100&lt;br&gt;BLAST bit score: 1013&lt;br&gt;E-value: 0.0" locus_tag="b2241" class="clusterblast-orf" id="dummy-4_h4_1_2"  />
</g>
</svg>
