<svg xmlns="http://www.w3.org/2000/svg" xmlns:xlink="http://www.w3.org/1999/xlink" version="1.1" x="0" y="0" height="230" width="800" viewBox="0 0 800 230" preserveAspectRatio="none"  >
<g label="Query sequence" class="clusterblast-cluster"  >
<text x="5" y="20" class="clusterblast-acc"  >
Query sequence</text>
<line x1="10" y1="35" x2="778.0" y2="35" style="stroke-width:1; stroke:grey; "  />
<polygon points="0,35 5,30 27,30 27,40 5,40 0,35 " style="fill:white; stroke-width:1; stroke:black; " description="&lt;b&gt;ctg19_130&lt;/b&gt;&lt;br&gt;ctg19 130&lt;br&gt;Location: 130098 - 131301" locus_tag="ctg19_130" class="clusterblast-orf" id="dummy-3_q0_0_all"  />
<polygon points="35,40 40,40 45,35 40,30 35,30 35,40 " style="fill:white; stroke-width:1; stroke:black; " description="&lt;b&gt;ctg19_131&lt;/b&gt;&lt;br&gt;ctg19 131&lt;br&gt;Location: 131640 - 132096" locus_tag="ctg19_131" class="clusterblast-orf" id="dummy-3_q1_0_all"  />
<polygon points="47,40 53,40 58,35 53,30 47,30 47,40 " style="fill:white; stroke-width:1; stroke:black; " description="&lt;b&gt;ctg19_132&lt;/b&gt;&lt;br&gt;ctg19 132&lt;br&gt;Location: 132178 - 132673" locus_tag="ctg19_132" class="clusterblast-orf" id="dummy-3_q2_0_all"  />
<polygon points="59,40 69,40 74,35 69,30 59,30 59,40 " style="fill:white; stroke-width:1; stroke:black; " description="&lt;b&gt;ctg19_133&lt;/b&gt;&lt;br&gt;ctg19 133&lt;br&gt;Location: 132683 - 133343" locus_tag="ctg19_133" class="clusterblast-orf" id="dummy-3_q3_0_all"  />
<polygon points="75,40 112,40 117,35 112,30 75,30 75,40 " style="fill:white; stroke-width:1; stroke:black; " description="&lt;b&gt;ctg19_134&lt;/b&gt;&lt;br&gt;ctg19 134&lt;br&gt;Location: 133419 - 135246" locus_tag="ctg19_134" class="clusterblast-orf" id="dummy-3_q4_0_all"  />
<polygon points="119,35 124,30 133,30 133,40 124,40 119,35 " style="fill:white; stroke-width:1; stroke:black; " description="&lt;b&gt;ctg19_135&lt;/b&gt;&lt;br&gt;ctg19 135&lt;br&gt;Location: 135337 - 135937" locus_tag="ctg19_135" class="clusterblast-orf" id="dummy-3_q5_0_all"  />
<polygon points="135,35 140,30 162,30 162,40 140,40 135,35 " style="fill:white; stroke-width:1; stroke:black; " description="&lt;b&gt;ctg19_136&lt;/b&gt;&lt;br&gt;ctg19 136&lt;br&gt;Location: 136030 - 137245" locus_tag="ctg19_136" class="clusterblast-orf" id="dummy-3_q6_0_all"  />
<polygon points="184,40 200,40 205,35 200,30 184,30 184,40 " style="fill:white; stroke-width:1; stroke:black; " description="&lt;b&gt;ctg19_137&lt;/b&gt;&lt;br&gt;ctg19 137&lt;br&gt;Location: 138176 - 139115" locus_tag="ctg19_137" class="clusterblast-orf" id="dummy-3_q7_0_all"  />
<polygon points="219,40 224,40 229,35 224,30 219,30 219,40 " style="fill:#d81515; stroke-width:1; stroke:black; " description="&lt;b&gt;ctg19_138&lt;/b&gt;&lt;br&gt;ctg19 138&lt;br&gt;Location: 139741 - 140185" locus_tag="ctg19_138" class="clusterblast-orf" id="dummy-3_q8_0_all"  />
<polygon points="230,40 240,40 245,35 240,30 230,30 230,40 " style="fill:#33d815; stroke-width:1; stroke:black; " description="&lt;b&gt;ctg19_139&lt;/b&gt;&lt;br&gt;ctg19 139&lt;br&gt;Location: 140200 - 140863" locus_tag="ctg19_139" class="clusterblast-orf" id="dummy-3_q9_0_all"  />
<polygon points="247,40 283,40 288,35 283,30 247,30 247,40 " style="fill:#15abd8; stroke-width:1; stroke:black; " description="&lt;b&gt;ctg19_140&lt;/b&gt;&lt;br&gt;ctg19 140&lt;br&gt;Location: 140949 - 142752" locus_tag="ctg19_140" class="clusterblast-orf" id="dummy-3_q10_0_all"  />
<polygon points="288,40 294,40 299,35 294,30 288,30 288,40 " style="fill:#8d15d8; stroke-width:1; stroke:black; " description="&lt;b&gt;ctg19_141&lt;/b&gt;&lt;br&gt;ctg19 141&lt;br&gt;Location: 142754 - 143255" locus_tag="ctg19_141" class="clusterblast-orf" id="dummy-3_q11_0_all"  />
<polygon points="299,40 325,40 330,35 325,30 299,30 299,40 " style="fill:#d86f15; stroke-width:1; stroke:black; " description="&lt;b&gt;ctg19_142&lt;/b&gt;&lt;br&gt;ctg19 142&lt;br&gt;Location: 143251 - 144589" locus_tag="ctg19_142" class="clusterblast-orf" id="dummy-3_q12_0_all"  />
<polygon points="330,40 387,40 392,35 387,30 330,30 330,40 " style="fill:#15d851; stroke-width:1; stroke:black; " description="&lt;b&gt;ctg19_143&lt;/b&gt;&lt;br&gt;ctg19 143&lt;br&gt;Location: 144619 - 147346" locus_tag="ctg19_143" class="clusterblast-orf" id="dummy-3_q13_0_all"  />
<polygon points="392,40 409,40 414,35 409,30 392,30 392,40 " style="fill:#1551d8; stroke-width:1; stroke:black; " description="&lt;b&gt;ctg19_144&lt;/b&gt;&lt;br&gt;ctg19 144&lt;br&gt;Location: 147342 - 148320" locus_tag="ctg19_144" class="clusterblast-orf" id="dummy-3_q14_0_all"  />
<polygon points="415,40 422,40 427,35 422,30 415,30 415,40 " style="fill:#d815c9; stroke-width:1; stroke:black; " description="&lt;b&gt;ctg19_145&lt;/b&gt;&lt;br&gt;ctg19 145&lt;br&gt;Location: 148334 - 148877" locus_tag="ctg19_145" class="clusterblast-orf" id="dummy-3_q15_0_all"  />
<polygon points="427,40 435,40 440,35 435,30 427,30 427,40 " style="fill:#d8c915; stroke-width:1; stroke:black; " description="&lt;b&gt;ctg19_146&lt;/b&gt;&lt;br&gt;ctg19 146&lt;br&gt;Location: 148887 - 149442" locus_tag="ctg19_146" class="clusterblast-orf" id="dummy-3_q16_0_all"  />
<polygon points="440,40 442,40 447,35 442,30 440,30 440,40 " style="fill:#15d8ab; stroke-width:1; stroke:black; " description="&lt;b&gt;ctg19_147&lt;/b&gt;&lt;br&gt;ctg19 147&lt;br&gt;Location: 149438 - 149741" locus_tag="ctg19_147" class="clusterblast-orf" id="dummy-3_q17_0_all"  />
<polygon points="447,40 484,40 489,35 484,30 447,30 447,40 " style="fill:#3315d8; stroke-width:1; stroke:black; " description="&lt;b&gt;ctg19_148&lt;/b&gt;&lt;br&gt;ctg19 148&lt;br&gt;Location: 149737 - 151579" locus_tag="ctg19_148" class="clusterblast-orf" id="dummy-3_q18_0_all"  />
<polygon points="496,40 526,40 531,35 526,30 496,30 496,40 " style="fill:#d8156f; stroke-width:1; stroke:black; " description="&lt;b&gt;ctg19_149&lt;/b&gt;&lt;br&gt;ctg19 149&lt;br&gt;Location: 151892 - 153422" locus_tag="ctg19_149" class="clusterblast-orf" id="dummy-3_q19_0_all"  />
<polygon points="531,40 559,40 564,35 559,30 531,30 531,40 " style="fill:#8dd815; stroke-width:1; stroke:black; " description="&lt;b&gt;ctg19_150&lt;/b&gt;&lt;br&gt;ctg19 150&lt;br&gt;Location: 153428 - 154886" locus_tag="ctg19_150" class="clusterblast-orf" id="dummy-3_q20_0_all"  />
<polygon points="584,40 620,40 625,35 620,30 584,30 584,40 " style="fill:white; stroke-width:1; stroke:black; " description="&lt;b&gt;ctg19_151&lt;/b&gt;&lt;br&gt;ctg19 151&lt;br&gt;Location: 155773 - 157555" locus_tag="ctg19_151" class="clusterblast-orf" id="dummy-3_q21_0_all"  />
<polygon points="626,35 631,30 648,30 648,40 631,40 626,35 " style="fill:white; stroke-width:1; stroke:black; " description="&lt;b&gt;ctg19_152&lt;/b&gt;&lt;br&gt;ctg19 152&lt;br&gt;Location: 157595 - 158597" locus_tag="ctg19_152" class="clusterblast-orf" id="dummy-3_q22_0_all"  />
<polygon points="650,35 655,30 668,30 668,40 655,40 650,35 " style="fill:white; stroke-width:1; stroke:black; " description="&lt;b&gt;ctg19_153&lt;/b&gt;&lt;br&gt;ctg19 153&lt;br&gt;Location: 158662 - 159442" locus_tag="ctg19_153" class="clusterblast-orf" id="dummy-3_q23_0_all"  />
<polygon points="672,40 678,40 683,35 678,30 672,30 672,40 " style="fill:white; stroke-width:1; stroke:black; " description="&lt;b&gt;ctg19_154&lt;/b&gt;&lt;br&gt;ctg19 154&lt;br&gt;Location: 159639 - 160101" locus_tag="ctg19_154" class="clusterblast-orf" id="dummy-3_q24_0_all"  />
<polygon points="684,40 686,40 691,35 686,30 684,30 684,40 " style="fill:white; stroke-width:1; stroke:black; " description="&lt;b&gt;ctg19_155&lt;/b&gt;&lt;br&gt;ctg19 155&lt;br&gt;Location: 160155 - 160461" locus_tag="ctg19_155" class="clusterblast-orf" id="dummy-3_q25_0_all"  />
<polygon points="693,40 718,40 723,35 718,30 693,30 693,40 " style="fill:white; stroke-width:1; stroke:black; " description="&lt;b&gt;ctg19_156&lt;/b&gt;&lt;br&gt;ctg19 156&lt;br&gt;Location: 160561 - 161857" locus_tag="ctg19_156" class="clusterblast-orf" id="dummy-3_q26_0_all"  />
<polygon points="725,40 758,40 763,35 758,30 725,30 725,40 " style="fill:white; stroke-width:1; stroke:black; " description="&lt;b&gt;ctg19_157&lt;/b&gt;&lt;br&gt;ctg19 157&lt;br&gt;Location: 161942 - 163613" locus_tag="ctg19_157" class="clusterblast-orf" id="dummy-3_q27_0_all"  />
<polygon points="762,40 775,40 780,35 775,30 762,30 762,40 " style="fill:white; stroke-width:1; stroke:black; " description="&lt;b&gt;ctg19_158&lt;/b&gt;&lt;br&gt;ctg19 158&lt;br&gt;Location: 163609 - 164368" locus_tag="ctg19_158" class="clusterblast-orf" id="dummy-3_q28_0_all"  />
</g>
<g label="MGC00000048" description="MGC00000048_c1: NADH dehydrogenase I E. coli (100% of genes show similarity), NADHD" class="clusterblast-cluster"  >
<text x="5" y="70" class="clusterblast-acc"  >
MGC00000048_c1: NADH dehydrogenase I E. coli (100% of genes show similarity), NADHD</text>
<line x1="10" y1="85" x2="778.0" y2="85" style="stroke-width:1; stroke:grey; "  />
</g>
<g id="a3_000"  >
<polygon points="219,90 224,90 229,85 224,80 219,80 219,90 " style="fill:#d81515; stroke-width:1; stroke:black; " description="&lt;b&gt;b2288&lt;/b&gt;&lt;br&gt;NADH:quinone oxidoreductase subunit A&lt;br&gt;Location: 25025 - 24581&lt;br&gt;&lt;br&gt;&lt;b&gt;BlastP hit with ctg19_138&lt;/b&gt;&lt;br&gt;Percentage identity: 98&lt;br&gt;Percentage coverage: 100&lt;br&gt;BLAST bit score: 283&lt;br&gt;E-value: 3.65e-102" locus_tag="b2288" class="clusterblast-orf" id="dummy-3_h3_1_0"  />
</g>
<g id="a3_001"  >
<polygon points="229,90 239,90 244,85 239,80 229,80 229,90 " style="fill:#33d815; stroke-width:1; stroke:black; " description="&lt;b&gt;b2287&lt;/b&gt;&lt;br&gt;NADH:quinone oxidoreductase subunit B&lt;br&gt;Location: 24566 - 23903&lt;br&gt;&lt;br&gt;&lt;b&gt;BlastP hit with ctg19_139&lt;/b&gt;&lt;br&gt;Percentage identity: 99&lt;br&gt;Percentage coverage: 100&lt;br&gt;BLAST bit score: 448&lt;br&gt;E-value: 5.11e-165" locus_tag="b2287" class="clusterblast-orf" id="dummy-3_h3_1_1"  />
</g>
<g id="a3_002"  >
<polygon points="246,90 282,90 287,85 282,80 246,80 246,90 " style="fill:#15abd8; stroke-width:1; stroke:black; " description="&lt;b&gt;b2286&lt;/b&gt;&lt;br&gt;NADH:quinone oxidoreductase subunit CD&lt;br&gt;Location: 23798 - 22007&lt;br&gt;&lt;br&gt;&lt;b&gt;BlastP hit with ctg19_140&lt;/b&gt;&lt;br&gt;Percentage identity: 95&lt;br&gt;Percentage coverage: 99&lt;br&gt;BLAST bit score: 1177&lt;br&gt;E-value: 0.0" locus_tag="b2286" class="clusterblast-orf" id="dummy-3_h3_1_2"  />
</g>
<g id="a3_003"  >
<polygon points="287,90 294,90 299,85 294,80 287,80 287,90 " style="fill:#8d15d8; stroke-width:1; stroke:black; " description="&lt;b&gt;b2285&lt;/b&gt;&lt;br&gt;NADH:quinone oxidoreductase subunit E&lt;br&gt;Location: 22005 - 21504&lt;br&gt;&lt;br&gt;&lt;b&gt;BlastP hit with ctg19_141&lt;/b&gt;&lt;br&gt;Percentage identity: 97&lt;br&gt;Percentage coverage: 100&lt;br&gt;BLAST bit score: 331&lt;br&gt;E-value: 1.88e-120" locus_tag="b2285" class="clusterblast-orf" id="dummy-3_h3_1_3"  />
</g>
<g id="a3_004"  >
<polygon points="299,90 324,90 329,85 324,80 299,80 299,90 " style="fill:#d86f15; stroke-width:1; stroke:black; " description="&lt;b&gt;b2284&lt;/b&gt;&lt;br&gt;NADH:quinone oxidoreductase subunit F&lt;br&gt;Location: 21508 - 20170&lt;br&gt;&lt;br&gt;&lt;b&gt;BlastP hit with ctg19_142&lt;/b&gt;&lt;br&gt;Percentage identity: 99&lt;br&gt;Percentage coverage: 100&lt;br&gt;BLAST bit score: 915&lt;br&gt;E-value: 0.0" locus_tag="b2284" class="clusterblast-orf" id="dummy-3_h3_1_4"  />
</g>
<g id="a3_005"  >
<polygon points="330,90 387,90 392,85 387,80 330,80 330,90 " style="fill:#15d851; stroke-width:1; stroke:black; " description="&lt;b&gt;b2283&lt;/b&gt;&lt;br&gt;NADH:quinone oxidoreductase subunit G&lt;br&gt;Location: 20118 - 17391&lt;br&gt;&lt;br&gt;&lt;b&gt;BlastP hit with ctg19_143&lt;/b&gt;&lt;br&gt;Percentage identity: 95&lt;br&gt;Percentage coverage: 100&lt;br&gt;BLAST bit score: 1753&lt;br&gt;E-value: 0.0" locus_tag="b2283" class="clusterblast-orf" id="dummy-3_h3_1_5"  />
</g>
<g id="a3_006"  >
<polygon points="392,90 409,90 414,85 409,80 392,80 392,90 " style="fill:#1551d8; stroke-width:1; stroke:black; " description="&lt;b&gt;b2282&lt;/b&gt;&lt;br&gt;NADH:quinone oxidoreductase subunit H&lt;br&gt;Location: 17395 - 16417&lt;br&gt;&lt;br&gt;&lt;b&gt;BlastP hit with ctg19_144&lt;/b&gt;&lt;br&gt;Percentage identity: 96&lt;br&gt;Percentage coverage: 100&lt;br&gt;BLAST bit score: 623&lt;br&gt;E-value: 1.06e-230" locus_tag="b2282" class="clusterblast-orf" id="dummy-3_h3_1_6"  />
</g>
<g id="a3_007"  >
<polygon points="415,90 422,90 427,85 422,80 415,80 415,90 " style="fill:#d815c9; stroke-width:1; stroke:black; " description="&lt;b&gt;b2281&lt;/b&gt;&lt;br&gt;NADH:quinone oxidoreductase subunit I&lt;br&gt;Location: 16403 - 15860&lt;br&gt;&lt;br&gt;&lt;b&gt;BlastP hit with ctg19_145&lt;/b&gt;&lt;br&gt;Percentage identity: 99&lt;br&gt;Percentage coverage: 100&lt;br&gt;BLAST bit score: 342&lt;br&gt;E-value: 4.15e-124" locus_tag="b2281" class="clusterblast-orf" id="dummy-3_h3_1_7"  />
</g>
<g id="a3_008"  >
<polygon points="427,90 435,90 440,85 435,80 427,80 427,90 " style="fill:#d8c915; stroke-width:1; stroke:black; " description="&lt;b&gt;b2280&lt;/b&gt;&lt;br&gt;NADH:quinone oxidoreductase subunit J&lt;br&gt;Location: 15849 - 15294&lt;br&gt;&lt;br&gt;&lt;b&gt;BlastP hit with ctg19_146&lt;/b&gt;&lt;br&gt;Percentage identity: 97&lt;br&gt;Percentage coverage: 100&lt;br&gt;BLAST bit score: 325&lt;br&gt;E-value: 2.02e-117" locus_tag="b2280" class="clusterblast-orf" id="dummy-3_h3_1_8"  />
</g>
<g id="a3_009"  >
<polygon points="440,90 442,90 447,85 442,80 440,80 440,90 " style="fill:#15d8ab; stroke-width:1; stroke:black; " description="&lt;b&gt;b2279&lt;/b&gt;&lt;br&gt;NADH:quinone oxidoreductase subunit K&lt;br&gt;Location: 15298 - 14995&lt;br&gt;&lt;br&gt;&lt;b&gt;BlastP hit with ctg19_147&lt;/b&gt;&lt;br&gt;Percentage identity: 99&lt;br&gt;Percentage coverage: 100&lt;br&gt;BLAST bit score: 176&lt;br&gt;E-value: 4.05e-61" locus_tag="b2279" class="clusterblast-orf" id="dummy-3_h3_1_9"  />
</g>
<g id="a3_0010"  >
<polygon points="447,90 484,90 489,85 484,80 447,80 447,90 " style="fill:#3315d8; stroke-width:1; stroke:black; " description="&lt;b&gt;b2278&lt;/b&gt;&lt;br&gt;NADH:quinone oxidoreductase subunit L&lt;br&gt;Location: 14999 - 13157&lt;br&gt;&lt;br&gt;&lt;b&gt;BlastP hit with ctg19_148&lt;/b&gt;&lt;br&gt;Percentage identity: 95&lt;br&gt;Percentage coverage: 100&lt;br&gt;BLAST bit score: 1152&lt;br&gt;E-value: 0.0" locus_tag="b2278" class="clusterblast-orf" id="dummy-3_h3_1_10"  />
</g>
<g id="a3_0011"  >
<polygon points="492,90 522,90 527,85 522,80 492,80 492,90 " style="fill:#d8156f; stroke-width:1; stroke:black; " description="&lt;b&gt;b2277&lt;/b&gt;&lt;br&gt;NADH:quinone oxidoreductase subunit M&lt;br&gt;Location: 12994 - 11464&lt;br&gt;&lt;br&gt;&lt;b&gt;BlastP hit with ctg19_149&lt;/b&gt;&lt;br&gt;Percentage identity: 97&lt;br&gt;Percentage coverage: 100&lt;br&gt;BLAST bit score: 968&lt;br&gt;E-value: 0.0" locus_tag="b2277" class="clusterblast-orf" id="dummy-3_h3_1_11"  />
</g>
<g id="a3_0012"  >
<polygon points="527,90 555,90 560,85 555,80 527,80 527,90 " style="fill:#8dd815; stroke-width:1; stroke:black; " description="&lt;b&gt;b2276&lt;/b&gt;&lt;br&gt;NADH:quinone oxidoreductase subunit N&lt;br&gt;Location: 11458 - 10000&lt;br&gt;&lt;br&gt;&lt;b&gt;BlastP hit with ctg19_150&lt;/b&gt;&lt;br&gt;Percentage identity: 95&lt;br&gt;Percentage coverage: 100&lt;br&gt;BLAST bit score: 879&lt;br&gt;E-value: 0.0" locus_tag="b2276" class="clusterblast-orf" id="dummy-3_h3_1_12"  />
</g>
</svg>
