<svg xmlns="http://www.w3.org/2000/svg" xmlns:xlink="http://www.w3.org/1999/xlink" version="1.1" x="0" y="0" height="230" width="800" viewBox="0 0 800 230" preserveAspectRatio="none"  >
<g label="Query sequence" class="clusterblast-cluster"  >
<text x="5" y="20" class="clusterblast-acc"  >
Query sequence</text>
<line x1="10" y1="35" x2="778.0" y2="35" style="stroke-width:1; stroke:grey; "  />
<polygon points="0,35 5,30 53,30 53,40 5,40 0,35 " style="fill:white; stroke-width:1; stroke:black; " description="&lt;b&gt;ctg1_218&lt;/b&gt;&lt;br&gt;ctg1 218&lt;br&gt;Location: 232364 - 234011" locus_tag="ctg1_218" class="clusterblast-orf" id="dummy-4_q0_0_all"  />
<polygon points="59,40 91,40 96,35 91,30 59,30 59,40 " style="fill:white; stroke-width:1; stroke:black; " description="&lt;b&gt;ctg1_219&lt;/b&gt;&lt;br&gt;ctg1 219&lt;br&gt;Location: 234210 - 235386" locus_tag="ctg1_219" class="clusterblast-orf" id="dummy-4_q1_0_all"  />
<polygon points="100,40 143,40 148,35 143,30 100,30 100,40 " style="fill:white; stroke-width:1; stroke:black; " description="&lt;b&gt;ctg1_220&lt;/b&gt;&lt;br&gt;ctg1 220&lt;br&gt;Location: 235488 - 236997" locus_tag="ctg1_220" class="clusterblast-orf" id="dummy-4_q2_0_all"  />
<polygon points="171,40 198,40 203,35 198,30 171,30 171,40 " style="fill:white; stroke-width:1; stroke:black; " description="&lt;b&gt;ctg1_221&lt;/b&gt;&lt;br&gt;ctg1 221&lt;br&gt;Location: 237700 - 238702" locus_tag="ctg1_221" class="clusterblast-orf" id="dummy-4_q3_0_all"  />
<polygon points="205,35 210,30 238,30 238,40 210,40 205,35 " style="fill:white; stroke-width:1; stroke:black; " description="&lt;b&gt;ctg1_222&lt;/b&gt;&lt;br&gt;ctg1 222&lt;br&gt;Location: 238776 - 239817" locus_tag="ctg1_222" class="clusterblast-orf" id="dummy-4_q4_0_all"  />
<polygon points="258,40 260,40 265,35 260,30 258,30 258,40 " style="fill:white; stroke-width:1; stroke:black; " description="&lt;b&gt;ctg1_223&lt;/b&gt;&lt;br&gt;ctg1 223&lt;br&gt;Location: 240447 - 240663" locus_tag="ctg1_223" class="clusterblast-orf" id="dummy-4_q5_0_all"  />
<polygon points="268,40 277,40 282,35 277,30 268,30 268,40 " style="fill:white; stroke-width:1; stroke:black; " description="&lt;b&gt;ctg1_224&lt;/b&gt;&lt;br&gt;ctg1 224&lt;br&gt;Location: 240751 - 241192" locus_tag="ctg1_224" class="clusterblast-orf" id="dummy-4_q6_0_all"  />
<polygon points="285,40 298,40 303,35 298,30 285,30 285,40 " style="fill:#d81515; stroke-width:1; stroke:black; " description="&lt;b&gt;ctg1_225&lt;/b&gt;&lt;br&gt;ctg1 225&lt;br&gt;Location: 241268 - 241850" locus_tag="ctg1_225" class="clusterblast-orf" id="dummy-4_q7_0_all"  />
<polygon points="303,40 317,40 322,35 317,30 303,30 303,40 " style="fill:#15d815; stroke-width:1; stroke:black; " description="&lt;b&gt;ctg1_226&lt;/b&gt;&lt;br&gt;ctg1 226&lt;br&gt;Location: 241849 - 242428" locus_tag="ctg1_226" class="clusterblast-orf" id="dummy-4_q8_0_all"  />
<polygon points="321,40 387,40 392,35 387,30 321,30 321,40 " style="fill:#1515d8; stroke-width:1; stroke:black; " description="&lt;b&gt;ctg1_227&lt;/b&gt;&lt;br&gt;ctg1 227&lt;br&gt;Location: 242420 - 244628" locus_tag="ctg1_227" class="clusterblast-orf" id="dummy-4_q9_0_all"  />
<polygon points="392,40 421,40 426,35 421,30 392,30 392,40 " style="fill:white; stroke-width:1; stroke:black; " description="&lt;b&gt;ctg1_228&lt;/b&gt;&lt;br&gt;ctg1 228&lt;br&gt;Location: 244628 - 245687" locus_tag="ctg1_228" class="clusterblast-orf" id="dummy-4_q10_0_all"  />
<polygon points="426,40 441,40 446,35 441,30 426,30 426,40 " style="fill:white; stroke-width:1; stroke:black; " description="&lt;b&gt;ctg1_229&lt;/b&gt;&lt;br&gt;ctg1 229&lt;br&gt;Location: 245690 - 246311" locus_tag="ctg1_229" class="clusterblast-orf" id="dummy-4_q11_0_all"  />
<polygon points="446,40 463,40 468,35 463,30 446,30 446,40 " style="fill:#d81515; stroke-width:1; stroke:black; " description="&lt;b&gt;ctg1_230&lt;/b&gt;&lt;br&gt;ctg1 230&lt;br&gt;Location: 246313 - 247006" locus_tag="ctg1_230" class="clusterblast-orf" id="dummy-4_q12_0_all"  />
<polygon points="468,40 483,40 488,35 483,30 468,30 468,40 " style="fill:white; stroke-width:1; stroke:black; " description="&lt;b&gt;ctg1_231&lt;/b&gt;&lt;br&gt;ctg1 231&lt;br&gt;Location: 247005 - 247641" locus_tag="ctg1_231" class="clusterblast-orf" id="dummy-4_q13_0_all"  />
<polygon points="508,40 551,40 556,35 551,30 508,30 508,40 " style="fill:white; stroke-width:1; stroke:black; " description="&lt;b&gt;ctg1_232&lt;/b&gt;&lt;br&gt;ctg1 232&lt;br&gt;Location: 248242 - 249748" locus_tag="ctg1_232" class="clusterblast-orf" id="dummy-4_q14_0_all"  />
<polygon points="559,40 574,40 579,35 574,30 559,30 559,40 " style="fill:white; stroke-width:1; stroke:black; " description="&lt;b&gt;ctg1_233&lt;/b&gt;&lt;br&gt;ctg1 233&lt;br&gt;Location: 249852 - 250458" locus_tag="ctg1_233" class="clusterblast-orf" id="dummy-4_q15_0_all"  />
<polygon points="580,35 585,30 608,30 608,40 585,40 580,35 " style="fill:white; stroke-width:1; stroke:black; " description="&lt;b&gt;ctg1_234&lt;/b&gt;&lt;br&gt;ctg1 234&lt;br&gt;Location: 250516 - 251377" locus_tag="ctg1_234" class="clusterblast-orf" id="dummy-4_q16_0_all"  />
<polygon points="610,35 615,30 651,30 651,40 615,40 610,35 " style="fill:white; stroke-width:1; stroke:black; " description="&lt;b&gt;ctg1_235&lt;/b&gt;&lt;br&gt;ctg1 235&lt;br&gt;Location: 251436 - 252711" locus_tag="ctg1_235" class="clusterblast-orf" id="dummy-4_q17_0_all"  />
<polygon points="655,35 660,30 676,30 676,40 660,40 655,35 " style="fill:white; stroke-width:1; stroke:black; " description="&lt;b&gt;ctg1_236&lt;/b&gt;&lt;br&gt;ctg1 236&lt;br&gt;Location: 252837 - 253494" locus_tag="ctg1_236" class="clusterblast-orf" id="dummy-4_q18_0_all"  />
<polygon points="678,35 683,30 689,30 689,40 683,40 678,35 " style="fill:white; stroke-width:1; stroke:black; " description="&lt;b&gt;ctg1_237&lt;/b&gt;&lt;br&gt;ctg1 237&lt;br&gt;Location: 253552 - 253915" locus_tag="ctg1_237" class="clusterblast-orf" id="dummy-4_q19_0_all"  />
<polygon points="691,35 696,30 727,30 727,40 696,40 691,35 " style="fill:white; stroke-width:1; stroke:black; " description="&lt;b&gt;ctg1_238&lt;/b&gt;&lt;br&gt;ctg1 238&lt;br&gt;Location: 253969 - 255091" locus_tag="ctg1_238" class="clusterblast-orf" id="dummy-4_q20_0_all"  />
<polygon points="735,40 745,40 750,35 745,30 735,30 735,40 " style="fill:white; stroke-width:1; stroke:black; " description="&lt;b&gt;ctg1_239&lt;/b&gt;&lt;br&gt;ctg1 239&lt;br&gt;Location: 255362 - 255830" locus_tag="ctg1_239" class="clusterblast-orf" id="dummy-4_q21_0_all"  />
<polygon points="752,35 757,30 766,30 766,40 757,40 752,35 " style="fill:white; stroke-width:1; stroke:black; " description="&lt;b&gt;ctg1_240&lt;/b&gt;&lt;br&gt;ctg1 240&lt;br&gt;Location: 255877 - 256312" locus_tag="ctg1_240" class="clusterblast-orf" id="dummy-4_q22_0_all"  />
<polygon points="772,40 775,40 780,35 775,30 772,30 772,40 " style="fill:white; stroke-width:1; stroke:black; " description="&lt;b&gt;ctg1_241&lt;/b&gt;&lt;br&gt;ctg1 241&lt;br&gt;Location: 256512 - 256749" locus_tag="ctg1_241" class="clusterblast-orf" id="dummy-4_q23_0_all"  />
</g>
<g label="MGC00000037" description="MGC00000037_c1: Rnf complex C. sporogenes (66% of genes show similarity), RNF" class="clusterblast-cluster"  >
<text x="5" y="70" class="clusterblast-acc"  >
MGC00000037_c1: Rnf complex C. sporogenes (66% of genes show similarity), RNF</text>
<line x1="10" y1="85" x2="778.0" y2="85" style="stroke-width:1; stroke:grey; "  />
</g>
<g id="a4_000"  >
<polygon points="310,90 348,90 353,85 348,80 310,80 310,90 " style="fill:#1515d8; stroke-width:1; stroke:black; " description="&lt;b&gt;CLOSPO_00573&lt;/b&gt;&lt;br&gt;electron transport complex, RnfABCDGE type, C subunit&lt;br&gt;Location: 14950 - 13606&lt;br&gt;&lt;br&gt;&lt;b&gt;BlastP hit with ctg1_227&lt;/b&gt;&lt;br&gt;Percentage identity: 40&lt;br&gt;Percentage coverage: 53&lt;br&gt;BLAST bit score: 271&lt;br&gt;E-value: 2.17e-85" locus_tag="CLOSPO_00573" class="clusterblast-orf" id="dummy-4_h4_1_0"  />
</g>
<g id="a4_001"  >
<polygon points="354,90 379,90 384,85 379,80 354,80 354,90 " style="fill:white; stroke-width:1; stroke:black; " description="&lt;b&gt;CLOSPO_00572&lt;/b&gt;&lt;br&gt;electron transport complex, RnfABCDGE type, D subunit&lt;br&gt;Location: 13584 - 12651" locus_tag="CLOSPO_00572" class="clusterblast-orf" id="dummy-4_h4_1_1"  />
</g>
<g id="a4_002"  >
<polygon points="384,90 397,90 402,85 397,80 384,80 384,90 " style="fill:white; stroke-width:1; stroke:black; " description="&lt;b&gt;CLOSPO_00571&lt;/b&gt;&lt;br&gt;electron transport complex, RnfABCDGE type, G subunit&lt;br&gt;Location: 12652 - 12079" locus_tag="CLOSPO_00571" class="clusterblast-orf" id="dummy-4_h4_1_2"  />
</g>
<g id="a4_003"  >
<polygon points="402,90 416,90 421,85 416,80 402,80 402,90 " style="fill:#d81515; stroke-width:1; stroke:black; " description="&lt;b&gt;CLOSPO_00570&lt;/b&gt;&lt;br&gt;electron transport complex, RnfABCDGE type, E subunit&lt;br&gt;Location: 12080 - 11480&lt;br&gt;&lt;br&gt;&lt;b&gt;BlastP hit with ctg1_230&lt;/b&gt;&lt;br&gt;Percentage identity: 42&lt;br&gt;Percentage coverage: 93&lt;br&gt;BLAST bit score: 151&lt;br&gt;E-value: 7.83e-48" locus_tag="CLOSPO_00570" class="clusterblast-orf" id="dummy-4_h4_1_3"  />
</g>
<g id="a4_004"  >
<polygon points="423,90 437,90 442,85 437,80 423,80 423,90 " style="fill:#d81515; stroke-width:1; stroke:black; " description="&lt;b&gt;CLOSPO_00569&lt;/b&gt;&lt;br&gt;electron transport complex, RnfABCDGE type, A subunit&lt;br&gt;Location: 11438 - 10847&lt;br&gt;&lt;br&gt;&lt;b&gt;BlastP hit with ctg1_225&lt;/b&gt;&lt;br&gt;Percentage identity: 55&lt;br&gt;Percentage coverage: 96&lt;br&gt;BLAST bit score: 190&lt;br&gt;E-value: 7.59e-64&lt;br&gt;&lt;br&gt;&lt;b&gt;BlastP hit with ctg1_230&lt;/b&gt;&lt;br&gt;Percentage identity: 32&lt;br&gt;Percentage coverage: 67&lt;br&gt;BLAST bit score: 65&lt;br&gt;E-value: 1e-14" locus_tag="CLOSPO_00569" class="clusterblast-orf" id="dummy-4_h4_1_4"  />
</g>
<g id="a4_005"  >
<polygon points="442,90 464,90 469,85 464,80 442,80 442,90 " style="fill:#15d815; stroke-width:1; stroke:black; " description="&lt;b&gt;CLOSPO_00568&lt;/b&gt;&lt;br&gt;electron transport complex, RnfABCDGE type, B subunit&lt;br&gt;Location: 10834 - 10000&lt;br&gt;&lt;br&gt;&lt;b&gt;BlastP hit with ctg1_226&lt;/b&gt;&lt;br&gt;Percentage identity: 38&lt;br&gt;Percentage coverage: 82&lt;br&gt;BLAST bit score: 94&lt;br&gt;E-value: 2.09e-25" locus_tag="CLOSPO_00568" class="clusterblast-orf" id="dummy-4_h4_1_5"  />
</g>
</svg>
