<svg xmlns="http://www.w3.org/2000/svg" xmlns:xlink="http://www.w3.org/1999/xlink" version="1.1" x="0" y="0" height="50" width="800" viewBox="0 0 800 50" preserveAspectRatio="none"  >
<g label="Query sequence" class="clusterblast-cluster"  >
<text x="5" y="20" class="clusterblast-acc"  >
Query sequence</text>
<line x1="10" y1="35" x2="778.0" y2="35" style="stroke-width:1; stroke:grey; "  />
<polygon points="0,40 36,40 41,35 36,30 0,30 0,40 " style="fill:white; stroke-width:1; stroke:black; " description="&lt;b&gt;ctg7_76&lt;/b&gt;&lt;br&gt;ctg7 76&lt;br&gt;Location: 84015 - 85095" locus_tag="ctg7_76" class="clusterblast-orf" id="knownclusterblast-1_q0_0_all"  />
<polygon points="45,35 50,30 75,30 75,40 50,40 45,35 " style="fill:white; stroke-width:1; stroke:black; " description="&lt;b&gt;ctg7_77&lt;/b&gt;&lt;br&gt;ctg7 77&lt;br&gt;Location: 85211 - 85982" locus_tag="ctg7_77" class="clusterblast-orf" id="knownclusterblast-1_q1_0_all"  />
<polygon points="75,35 80,30 110,30 110,40 80,40 75,35 " style="fill:white; stroke-width:1; stroke:black; " description="&lt;b&gt;ctg7_78&lt;/b&gt;&lt;br&gt;ctg7 78&lt;br&gt;Location: 85978 - 86905" locus_tag="ctg7_78" class="clusterblast-orf" id="knownclusterblast-1_q2_0_all"  />
<polygon points="114,40 134,40 139,35 134,30 114,30 114,40 " style="fill:white; stroke-width:1; stroke:black; " description="&lt;b&gt;ctg7_79&lt;/b&gt;&lt;br&gt;ctg7 79&lt;br&gt;Location: 87013 - 87676" locus_tag="ctg7_79" class="clusterblast-orf" id="knownclusterblast-1_q3_0_all"  />
<polygon points="142,35 147,30 162,30 162,40 147,40 142,35 " style="fill:white; stroke-width:1; stroke:black; " description="&lt;b&gt;ctg7_80&lt;/b&gt;&lt;br&gt;ctg7 80&lt;br&gt;Location: 87733 - 88270" locus_tag="ctg7_80" class="clusterblast-orf" id="knownclusterblast-1_q4_0_all"  />
<polygon points="170,40 256,40 261,35 256,30 170,30 170,40 " style="fill:white; stroke-width:1; stroke:black; " description="&lt;b&gt;ctg7_81&lt;/b&gt;&lt;br&gt;ctg7 81&lt;br&gt;Location: 88475 - 90866" locus_tag="ctg7_81" class="clusterblast-orf" id="knownclusterblast-1_q5_0_all"  />
<polygon points="264,35 269,30 325,30 325,40 269,40 264,35 " style="fill:white; stroke-width:1; stroke:black; " description="&lt;b&gt;ctg7_82&lt;/b&gt;&lt;br&gt;ctg7 82&lt;br&gt;Location: 90943 - 92554" locus_tag="ctg7_82" class="clusterblast-orf" id="knownclusterblast-1_q6_0_all"  />
<polygon points="332,40 341,40 346,35 341,30 332,30 332,40 " style="fill:white; stroke-width:1; stroke:black; " description="&lt;b&gt;ctg7_83&lt;/b&gt;&lt;br&gt;ctg7 83&lt;br&gt;Location: 92716 - 93103" locus_tag="ctg7_83" class="clusterblast-orf" id="knownclusterblast-1_q7_0_all"  />
<polygon points="350,40 378,40 383,35 378,30 350,30 350,40 " style="fill:white; stroke-width:1; stroke:black; " description="&lt;b&gt;ctg7_84&lt;/b&gt;&lt;br&gt;ctg7 84&lt;br&gt;Location: 93209 - 94070" locus_tag="ctg7_84" class="clusterblast-orf" id="knownclusterblast-1_q8_0_all"  />
<polygon points="384,40 409,40 414,35 409,30 384,30 384,40 " style="fill:white; stroke-width:1; stroke:black; " description="&lt;b&gt;ctg7_85&lt;/b&gt;&lt;br&gt;ctg7 85&lt;br&gt;Location: 94090 - 94885" locus_tag="ctg7_85" class="clusterblast-orf" id="knownclusterblast-1_q9_0_all"  />
<polygon points="415,35 420,30 445,30 445,40 420,40 415,35 " style="fill:white; stroke-width:1; stroke:black; " description="&lt;b&gt;ctg7_86&lt;/b&gt;&lt;br&gt;ctg7 86&lt;br&gt;Location: 94914 - 95682" locus_tag="ctg7_86" class="clusterblast-orf" id="knownclusterblast-1_q10_0_all"  />
<polygon points="445,35 450,30 483,30 483,40 450,40 445,35 " style="fill:white; stroke-width:1; stroke:black; " description="&lt;b&gt;ctg7_87&lt;/b&gt;&lt;br&gt;ctg7 87&lt;br&gt;Location: 95691 - 96675" locus_tag="ctg7_87" class="clusterblast-orf" id="knownclusterblast-1_q11_0_all"  />
<polygon points="482,35 487,30 531,30 531,40 487,40 482,35 " style="fill:white; stroke-width:1; stroke:black; " description="&lt;b&gt;ctg7_88&lt;/b&gt;&lt;br&gt;ctg7 88&lt;br&gt;Location: 96664 - 97936" locus_tag="ctg7_88" class="clusterblast-orf" id="knownclusterblast-1_q12_0_all"  />
<polygon points="530,35 535,30 567,30 567,40 535,40 530,35 " style="fill:white; stroke-width:1; stroke:black; " description="&lt;b&gt;ctg7_89&lt;/b&gt;&lt;br&gt;ctg7 89&lt;br&gt;Location: 97932 - 98886" locus_tag="ctg7_89" class="clusterblast-orf" id="knownclusterblast-1_q13_0_all"  />
<polygon points="576,35 581,30 590,30 590,40 581,40 576,35 " style="fill:white; stroke-width:1; stroke:black; " description="&lt;b&gt;ctg7_90&lt;/b&gt;&lt;br&gt;ctg7 90&lt;br&gt;Location: 99120 - 99483" locus_tag="ctg7_90" class="clusterblast-orf" id="knownclusterblast-1_q14_0_all"  />
<polygon points="599,40 626,40 631,35 626,30 599,30 599,40 " style="fill:white; stroke-width:1; stroke:black; " description="&lt;b&gt;ctg7_91&lt;/b&gt;&lt;br&gt;ctg7 91&lt;br&gt;Location: 99728 - 100571" locus_tag="ctg7_91" class="clusterblast-orf" id="knownclusterblast-1_q15_0_all"  />
<polygon points="633,35 638,30 732,30 732,40 638,40 633,35 " style="fill:white; stroke-width:1; stroke:black; " description="&lt;b&gt;ctg7_92&lt;/b&gt;&lt;br&gt;ctg7 92&lt;br&gt;Location: 100631 - 103229" locus_tag="ctg7_92" class="clusterblast-orf" id="knownclusterblast-1_q16_0_all"  />
<polygon points="747,40 775,40 780,35 775,30 747,30 747,40 " style="fill:white; stroke-width:1; stroke:black; " description="&lt;b&gt;ctg7_93&lt;/b&gt;&lt;br&gt;ctg7 93&lt;br&gt;Location: 103617 - 104475" locus_tag="ctg7_93" class="clusterblast-orf" id="knownclusterblast-1_q17_0_all"  />
</g>
</svg>
