<svg xmlns="http://www.w3.org/2000/svg" xmlns:xlink="http://www.w3.org/1999/xlink" version="1.1" x="0" y="0" height="230" width="800" viewBox="0 0 800 230" preserveAspectRatio="none"  >
<g label="Query sequence" class="clusterblast-cluster"  >
<text x="5" y="20" class="clusterblast-acc"  >
Query sequence</text>
<line x1="10" y1="35" x2="778.0" y2="35" style="stroke-width:1; stroke:grey; "  />
<polygon points="0,40 39,40 44,35 39,30 0,30 0,40 " style="fill:white; stroke-width:1; stroke:black; " description="&lt;b&gt;ctg5_174&lt;/b&gt;&lt;br&gt;ctg5 174&lt;br&gt;Location: 199606 - 201118" locus_tag="ctg5_174" class="clusterblast-orf" id="dummy-1_q0_0_all"  />
<polygon points="47,40 56,40 61,35 56,30 47,30 47,40 " style="fill:white; stroke-width:1; stroke:black; " description="&lt;b&gt;ctg5_175&lt;/b&gt;&lt;br&gt;ctg5 175&lt;br&gt;Location: 201215 - 201698" locus_tag="ctg5_175" class="clusterblast-orf" id="dummy-1_q1_0_all"  />
<polygon points="61,40 138,40 143,35 138,30 61,30 61,40 " style="fill:white; stroke-width:1; stroke:black; " description="&lt;b&gt;ctg5_176&lt;/b&gt;&lt;br&gt;ctg5 176&lt;br&gt;Location: 201697 - 204553" locus_tag="ctg5_176" class="clusterblast-orf" id="dummy-1_q2_0_all"  />
<polygon points="148,35 153,30 182,30 182,40 153,40 148,35 " style="fill:white; stroke-width:1; stroke:black; " description="&lt;b&gt;ctg5_177&lt;/b&gt;&lt;br&gt;ctg5 177&lt;br&gt;Location: 204694 - 205882" locus_tag="ctg5_177" class="clusterblast-orf" id="dummy-1_q3_0_all"  />
<polygon points="188,40 197,40 202,35 197,30 188,30 188,40 " style="fill:white; stroke-width:1; stroke:black; " description="&lt;b&gt;ctg5_178&lt;/b&gt;&lt;br&gt;ctg5 178&lt;br&gt;Location: 206076 - 206580" locus_tag="ctg5_178" class="clusterblast-orf" id="dummy-1_q4_0_all"  />
<polygon points="205,40 215,40 220,35 215,30 205,30 205,40 " style="fill:white; stroke-width:1; stroke:black; " description="&lt;b&gt;ctg5_179&lt;/b&gt;&lt;br&gt;ctg5 179&lt;br&gt;Location: 206686 - 207175" locus_tag="ctg5_179" class="clusterblast-orf" id="dummy-1_q5_0_all"  />
<polygon points="226,35 231,30 249,30 249,40 231,40 226,35 " style="fill:white; stroke-width:1; stroke:black; " description="&lt;b&gt;ctg5_180&lt;/b&gt;&lt;br&gt;ctg5 180&lt;br&gt;Location: 207408 - 208173" locus_tag="ctg5_180" class="clusterblast-orf" id="dummy-1_q6_0_all"  />
<polygon points="250,35 255,30 262,30 262,40 255,40 250,35 " style="fill:white; stroke-width:1; stroke:black; " description="&lt;b&gt;ctg5_181&lt;/b&gt;&lt;br&gt;ctg5 181&lt;br&gt;Location: 208232 - 208649" locus_tag="ctg5_181" class="clusterblast-orf" id="dummy-1_q7_0_all"  />
<polygon points="267,40 291,40 296,35 291,30 267,30 267,40 " style="fill:#d81515; stroke-width:1; stroke:black; " description="&lt;b&gt;ctg5_182&lt;/b&gt;&lt;br&gt;ctg5 182&lt;br&gt;Location: 208814 - 209819" locus_tag="ctg5_182" class="clusterblast-orf" id="dummy-1_q8_0_all"  />
<polygon points="298,35 303,30 312,30 312,40 303,40 298,35 " style="fill:white; stroke-width:1; stroke:black; " description="&lt;b&gt;ctg5_183&lt;/b&gt;&lt;br&gt;ctg5 183&lt;br&gt;Location: 209892 - 210345" locus_tag="ctg5_183" class="clusterblast-orf" id="dummy-1_q9_0_all"  />
<polygon points="331,40 362,40 367,35 362,30 331,30 331,40 " style="fill:#15d815; stroke-width:1; stroke:black; " description="&lt;b&gt;ctg5_184&lt;/b&gt;&lt;br&gt;ctg5 184&lt;br&gt;Location: 211020 - 212241" locus_tag="ctg5_184" class="clusterblast-orf" id="dummy-1_q10_0_all"  />
<polygon points="367,40 389,40 394,35 389,30 367,30 367,40 " style="fill:#1515d8; stroke-width:1; stroke:black; " description="&lt;b&gt;ctg5_185&lt;/b&gt;&lt;br&gt;ctg5 185&lt;br&gt;Location: 212251 - 213184" locus_tag="ctg5_185" class="clusterblast-orf" id="dummy-1_q11_0_all"  />
<polygon points="397,40 421,40 426,35 421,30 397,30 397,40 " style="fill:#d81515; stroke-width:1; stroke:black; " description="&lt;b&gt;ctg5_186&lt;/b&gt;&lt;br&gt;ctg5 186&lt;br&gt;Location: 213295 - 214300" locus_tag="ctg5_186" class="clusterblast-orf" id="dummy-1_q12_0_all"  />
<polygon points="428,40 464,40 469,35 464,30 428,30 428,40 " style="fill:white; stroke-width:1; stroke:black; " description="&lt;b&gt;ctg5_187&lt;/b&gt;&lt;br&gt;ctg5 187&lt;br&gt;Location: 214355 - 215759" locus_tag="ctg5_187" class="clusterblast-orf" id="dummy-1_q13_0_all"  />
<polygon points="474,40 483,40 488,35 483,30 474,30 474,40 " style="fill:white; stroke-width:1; stroke:black; " description="&lt;b&gt;ctg5_188&lt;/b&gt;&lt;br&gt;ctg5 188&lt;br&gt;Location: 215945 - 216434" locus_tag="ctg5_188" class="clusterblast-orf" id="dummy-1_q14_0_all"  />
<polygon points="491,40 494,35 491,30 491,40 " style="fill:white; stroke-width:1; stroke:black; " description="&lt;b&gt;ctg5_189&lt;/b&gt;&lt;br&gt;ctg5 189&lt;br&gt;Location: 216523 - 216625" locus_tag="ctg5_189" class="clusterblast-orf" id="dummy-1_q15_0_all"  />
<polygon points="495,40 517,40 522,35 517,30 495,30 495,40 " style="fill:white; stroke-width:1; stroke:black; " description="&lt;b&gt;ctg5_190&lt;/b&gt;&lt;br&gt;ctg5 190&lt;br&gt;Location: 216660 - 217596" locus_tag="ctg5_190" class="clusterblast-orf" id="dummy-1_q16_0_all"  />
<polygon points="523,40 531,40 536,35 531,30 523,30 523,40 " style="fill:white; stroke-width:1; stroke:black; " description="&lt;b&gt;ctg5_191&lt;/b&gt;&lt;br&gt;ctg5 191&lt;br&gt;Location: 217608 - 218070" locus_tag="ctg5_191" class="clusterblast-orf" id="dummy-1_q17_0_all"  />
<polygon points="538,40 544,40 549,35 544,30 538,30 538,40 " style="fill:white; stroke-width:1; stroke:black; " description="&lt;b&gt;ctg5_192&lt;/b&gt;&lt;br&gt;ctg5 192&lt;br&gt;Location: 218146 - 218533" locus_tag="ctg5_192" class="clusterblast-orf" id="dummy-1_q18_0_all"  />
<polygon points="552,40 560,40 565,35 560,30 552,30 552,40 " style="fill:white; stroke-width:1; stroke:black; " description="&lt;b&gt;ctg5_193&lt;/b&gt;&lt;br&gt;ctg5 193&lt;br&gt;Location: 218607 - 219054" locus_tag="ctg5_193" class="clusterblast-orf" id="dummy-1_q19_0_all"  />
<polygon points="568,35 573,30 647,30 647,40 573,40 568,35 " style="fill:white; stroke-width:1; stroke:black; " description="&lt;b&gt;ctg5_194&lt;/b&gt;&lt;br&gt;ctg5 194&lt;br&gt;Location: 219169 - 221878" locus_tag="ctg5_194" class="clusterblast-orf" id="dummy-1_q20_0_all"  />
<polygon points="658,40 680,40 685,35 680,30 658,30 658,40 " style="fill:white; stroke-width:1; stroke:black; " description="&lt;b&gt;ctg5_195&lt;/b&gt;&lt;br&gt;ctg5 195&lt;br&gt;Location: 222261 - 223209" locus_tag="ctg5_195" class="clusterblast-orf" id="dummy-1_q21_0_all"  />
<polygon points="689,40 701,40 706,35 701,30 689,30 689,40 " style="fill:white; stroke-width:1; stroke:black; " description="&lt;b&gt;ctg5_196&lt;/b&gt;&lt;br&gt;ctg5 196&lt;br&gt;Location: 223346 - 223928" locus_tag="ctg5_196" class="clusterblast-orf" id="dummy-1_q22_0_all"  />
<polygon points="705,40 725,40 730,35 725,30 705,30 705,40 " style="fill:white; stroke-width:1; stroke:black; " description="&lt;b&gt;ctg5_197&lt;/b&gt;&lt;br&gt;ctg5 197&lt;br&gt;Location: 223888 - 224764" locus_tag="ctg5_197" class="clusterblast-orf" id="dummy-1_q23_0_all"  />
<polygon points="732,40 775,40 780,35 775,30 732,30 732,40 " style="fill:white; stroke-width:1; stroke:black; " description="&lt;b&gt;ctg5_198&lt;/b&gt;&lt;br&gt;ctg5 198&lt;br&gt;Location: 224813 - 226466" locus_tag="ctg5_198" class="clusterblast-orf" id="dummy-1_q24_0_all"  />
</g>
<g label="MGC00000023" description="MGC00000023_c1: Arginine to hydrogen carbonate P. aeruginosa (100% of genes show similarity), ARG" class="clusterblast-cluster"  >
<text x="5" y="70" class="clusterblast-acc"  >
MGC00000023_c1: Arginine to hydrogen carbonate P. aeruginosa (100% of genes show similarity), ARG</text>
<line x1="10" y1="85" x2="778.0" y2="85" style="stroke-width:1; stroke:grey; "  />
</g>
<g id="a1_000"  >
<polygon points="341,90 373,90 378,85 373,80 341,80 341,90 " style="fill:#15d815; stroke-width:1; stroke:black; " description="&lt;b&gt;BGV84_RS26785&lt;/b&gt;&lt;br&gt;arginine deiminase&lt;br&gt;Location: 10000 - 11257&lt;br&gt;&lt;br&gt;&lt;b&gt;BlastP hit with ctg5_184&lt;/b&gt;&lt;br&gt;Percentage identity: 47&lt;br&gt;Percentage coverage: 100&lt;br&gt;BLAST bit score: 375&lt;br&gt;E-value: 3.41e-130" locus_tag="BGV84_RS26785" class="clusterblast-orf" id="dummy-1_h1_1_0"  />
</g>
<g id="a1_001"  >
<polygon points="380,90 404,90 409,85 404,80 380,80 380,90 " style="fill:#d81515; stroke-width:1; stroke:black; " description="&lt;b&gt;BGV84_RS26790&lt;/b&gt;&lt;br&gt;ornithine carbamoyltransferase&lt;br&gt;Location: 11336 - 12347&lt;br&gt;&lt;br&gt;&lt;b&gt;BlastP hit with ctg5_182&lt;/b&gt;&lt;br&gt;Percentage identity: 60&lt;br&gt;Percentage coverage: 99&lt;br&gt;BLAST bit score: 396&lt;br&gt;E-value: 1e-140&lt;br&gt;&lt;br&gt;&lt;b&gt;BlastP hit with ctg5_186&lt;/b&gt;&lt;br&gt;Percentage identity: 64&lt;br&gt;Percentage coverage: 101&lt;br&gt;BLAST bit score: 442&lt;br&gt;E-value: 8.28e-159" locus_tag="BGV84_RS26790" class="clusterblast-orf" id="dummy-1_h1_1_1"  />
</g>
<g id="a1_002"  >
<polygon points="411,90 433,90 438,85 433,80 411,80 411,90 " style="fill:#1515d8; stroke-width:1; stroke:black; " description="&lt;b&gt;BGV84_RS26795&lt;/b&gt;&lt;br&gt;carbamate kinase&lt;br&gt;Location: 12407 - 13340&lt;br&gt;&lt;br&gt;&lt;b&gt;BlastP hit with ctg5_185&lt;/b&gt;&lt;br&gt;Percentage identity: 55&lt;br&gt;Percentage coverage: 99&lt;br&gt;BLAST bit score: 322&lt;br&gt;E-value: 3.28e-112" locus_tag="BGV84_RS26795" class="clusterblast-orf" id="dummy-1_h1_1_2"  />
</g>
</svg>
