<svg xmlns="http://www.w3.org/2000/svg" xmlns:xlink="http://www.w3.org/1999/xlink" version="1.1" x="0" y="0" height="50" width="800" viewBox="0 0 800 50" preserveAspectRatio="none"  >
<g label="Query sequence" class="clusterblast-cluster"  >
<text x="5" y="20" class="clusterblast-acc"  >
Query sequence</text>
<line x1="10" y1="35" x2="778.0" y2="35" style="stroke-width:1; stroke:grey; "  />
<polygon points="0,40 2,40 7,35 2,30 0,30 0,40 " style="fill:white; stroke-width:1; stroke:black; " description="&lt;b&gt;ctg3_343&lt;/b&gt;&lt;br&gt;ctg3 343&lt;br&gt;Location: 369280 - 369478" locus_tag="ctg3_343" class="clusterblast-orf" id="knownclusterblast-1_q0_0_all"  />
<polygon points="8,35 13,30 45,30 45,40 13,40 8,35 " style="fill:white; stroke-width:1; stroke:black; " description="&lt;b&gt;ctg3_344&lt;/b&gt;&lt;br&gt;ctg3 344&lt;br&gt;Location: 369513 - 370602" locus_tag="ctg3_344" class="clusterblast-orf" id="knownclusterblast-1_q1_0_all"  />
<polygon points="49,40 84,40 89,35 84,30 49,30 49,40 " style="fill:white; stroke-width:1; stroke:black; " description="&lt;b&gt;ctg3_345&lt;/b&gt;&lt;br&gt;ctg3 345&lt;br&gt;Location: 370728 - 371889" locus_tag="ctg3_345" class="clusterblast-orf" id="knownclusterblast-1_q2_0_all"  />
<polygon points="89,35 94,30 110,30 110,40 94,40 89,35 " style="fill:white; stroke-width:1; stroke:black; " description="&lt;b&gt;ctg3_346&lt;/b&gt;&lt;br&gt;ctg3 346&lt;br&gt;Location: 371889 - 372507" locus_tag="ctg3_346" class="clusterblast-orf" id="knownclusterblast-1_q3_0_all"  />
<polygon points="109,35 114,30 151,30 151,40 114,40 109,35 " style="fill:white; stroke-width:1; stroke:black; " description="&lt;b&gt;ctg3_347&lt;/b&gt;&lt;br&gt;ctg3 347&lt;br&gt;Location: 372479 - 373715" locus_tag="ctg3_347" class="clusterblast-orf" id="knownclusterblast-1_q4_0_all"  />
<polygon points="156,35 161,30 187,30 187,40 161,40 156,35 " style="fill:white; stroke-width:1; stroke:black; " description="&lt;b&gt;ctg3_348&lt;/b&gt;&lt;br&gt;ctg3 348&lt;br&gt;Location: 373880 - 374783" locus_tag="ctg3_348" class="clusterblast-orf" id="knownclusterblast-1_q5_0_all"  />
<polygon points="198,35 203,30 223,30 223,40 203,40 198,35 " style="fill:white; stroke-width:1; stroke:black; " description="&lt;b&gt;ctg3_349&lt;/b&gt;&lt;br&gt;ctg3 349&lt;br&gt;Location: 375099 - 375846" locus_tag="ctg3_349" class="clusterblast-orf" id="knownclusterblast-1_q6_0_all"  />
<polygon points="238,40 252,40 257,35 252,30 238,30 238,40 " style="fill:white; stroke-width:1; stroke:black; " description="&lt;b&gt;ctg3_350&lt;/b&gt;&lt;br&gt;ctg3 350&lt;br&gt;Location: 376286 - 376850" locus_tag="ctg3_350" class="clusterblast-orf" id="knownclusterblast-1_q7_0_all"  />
<polygon points="266,40 314,40 319,35 314,30 266,30 266,40 " style="fill:white; stroke-width:1; stroke:black; " description="&lt;b&gt;ctg3_351&lt;/b&gt;&lt;br&gt;ctg3 351&lt;br&gt;Location: 377091 - 378657" locus_tag="ctg3_351" class="clusterblast-orf" id="knownclusterblast-1_q8_0_all"  />
<polygon points="318,35 323,30 323,30 323,40 323,40 318,35 " style="fill:white; stroke-width:1; stroke:black; " description="&lt;b&gt;ctg3_352&lt;/b&gt;&lt;br&gt;ctg3 352&lt;br&gt;Location: 378629 - 378779" locus_tag="ctg3_352" class="clusterblast-orf" id="knownclusterblast-1_q9_0_all"  />
<polygon points="330,40 344,40 349,35 344,30 330,30 330,40 " style="fill:white; stroke-width:1; stroke:black; " description="&lt;b&gt;ctg3_353&lt;/b&gt;&lt;br&gt;ctg3 353&lt;br&gt;Location: 378988 - 379549" locus_tag="ctg3_353" class="clusterblast-orf" id="knownclusterblast-1_q10_0_all"  />
<polygon points="349,40 421,40 426,35 421,30 349,30 349,40 " style="fill:white; stroke-width:1; stroke:black; " description="&lt;b&gt;ctg3_354&lt;/b&gt;&lt;br&gt;ctg3 354&lt;br&gt;Location: 379541 - 381821" locus_tag="ctg3_354" class="clusterblast-orf" id="knownclusterblast-1_q11_0_all"  />
<polygon points="426,40 434,40 439,35 434,30 426,30 426,40 " style="fill:white; stroke-width:1; stroke:black; " description="&lt;b&gt;ctg3_355&lt;/b&gt;&lt;br&gt;ctg3 355&lt;br&gt;Location: 381817 - 382177" locus_tag="ctg3_355" class="clusterblast-orf" id="knownclusterblast-1_q12_0_all"  />
<polygon points="439,40 460,40 465,35 460,30 439,30 439,40 " style="fill:white; stroke-width:1; stroke:black; " description="&lt;b&gt;ctg3_356&lt;/b&gt;&lt;br&gt;ctg3 356&lt;br&gt;Location: 382176 - 382944" locus_tag="ctg3_356" class="clusterblast-orf" id="knownclusterblast-1_q13_0_all"  />
<polygon points="467,35 472,30 482,30 482,40 472,40 467,35 " style="fill:white; stroke-width:1; stroke:black; " description="&lt;b&gt;ctg3_357&lt;/b&gt;&lt;br&gt;ctg3 357&lt;br&gt;Location: 383011 - 383440" locus_tag="ctg3_357" class="clusterblast-orf" id="knownclusterblast-1_q14_0_all"  />
<polygon points="489,40 526,40 531,35 526,30 489,30 489,40 " style="fill:white; stroke-width:1; stroke:black; " description="&lt;b&gt;ctg3_358&lt;/b&gt;&lt;br&gt;ctg3 358&lt;br&gt;Location: 383662 - 384901" locus_tag="ctg3_358" class="clusterblast-orf" id="knownclusterblast-1_q15_0_all"  />
<polygon points="534,35 539,30 548,30 548,40 539,40 534,35 " style="fill:white; stroke-width:1; stroke:black; " description="&lt;b&gt;ctg3_359&lt;/b&gt;&lt;br&gt;ctg3 359&lt;br&gt;Location: 384983 - 385394" locus_tag="ctg3_359" class="clusterblast-orf" id="knownclusterblast-1_q16_0_all"  />
<polygon points="556,35 561,30 583,30 583,40 561,40 556,35 " style="fill:white; stroke-width:1; stroke:black; " description="&lt;b&gt;ctg3_360&lt;/b&gt;&lt;br&gt;ctg3 360&lt;br&gt;Location: 385628 - 386435" locus_tag="ctg3_360" class="clusterblast-orf" id="knownclusterblast-1_q17_0_all"  />
<polygon points="587,35 592,30 637,30 637,40 592,40 587,35 " style="fill:white; stroke-width:1; stroke:black; " description="&lt;b&gt;ctg3_361&lt;/b&gt;&lt;br&gt;ctg3 361&lt;br&gt;Location: 386544 - 388008" locus_tag="ctg3_361" class="clusterblast-orf" id="knownclusterblast-1_q18_0_all"  />
<polygon points="638,35 643,30 669,30 669,40 643,40 638,35 " style="fill:white; stroke-width:1; stroke:black; " description="&lt;b&gt;ctg3_362&lt;/b&gt;&lt;br&gt;ctg3 362&lt;br&gt;Location: 388045 - 388942" locus_tag="ctg3_362" class="clusterblast-orf" id="knownclusterblast-1_q19_0_all"  />
<polygon points="668,35 673,30 686,30 686,40 673,40 668,35 " style="fill:white; stroke-width:1; stroke:black; " description="&lt;b&gt;ctg3_363&lt;/b&gt;&lt;br&gt;ctg3 363&lt;br&gt;Location: 388913 - 389465" locus_tag="ctg3_363" class="clusterblast-orf" id="knownclusterblast-1_q20_0_all"  />
<polygon points="687,35 692,30 739,30 739,40 692,40 687,35 " style="fill:white; stroke-width:1; stroke:black; " description="&lt;b&gt;ctg3_364&lt;/b&gt;&lt;br&gt;ctg3 364&lt;br&gt;Location: 389468 - 390998" locus_tag="ctg3_364" class="clusterblast-orf" id="knownclusterblast-1_q21_0_all"  />
<polygon points="739,35 744,30 770,30 770,40 744,40 739,35 " style="fill:white; stroke-width:1; stroke:black; " description="&lt;b&gt;ctg3_365&lt;/b&gt;&lt;br&gt;ctg3 365&lt;br&gt;Location: 391007 - 391916" locus_tag="ctg3_365" class="clusterblast-orf" id="knownclusterblast-1_q22_0_all"  />
<polygon points="770,35 775,30 780,30 780,40 775,40 770,35 " style="fill:white; stroke-width:1; stroke:black; " description="&lt;b&gt;ctg3_366&lt;/b&gt;&lt;br&gt;ctg3 366&lt;br&gt;Location: 391912 - 392209" locus_tag="ctg3_366" class="clusterblast-orf" id="knownclusterblast-1_q23_0_all"  />
</g>
</svg>
