<svg xmlns="http://www.w3.org/2000/svg" xmlns:xlink="http://www.w3.org/1999/xlink" version="1.1" x="0" y="0" height="230" width="800" viewBox="0 0 800 230" preserveAspectRatio="none"  >
<g label="Query sequence" class="clusterblast-cluster"  >
<text x="5" y="20" class="clusterblast-acc"  >
Query sequence</text>
<line x1="10" y1="35" x2="778.0" y2="35" style="stroke-width:1; stroke:grey; "  />
<polygon points="0,35 5,30 7,30 7,40 5,40 0,35 " style="fill:white; stroke-width:1; stroke:black; " description="&lt;b&gt;ctg38_45&lt;/b&gt;&lt;br&gt;ctg38 45&lt;br&gt;Location: 70858 - 71080" locus_tag="ctg38_45" class="clusterblast-orf" id="dummy-1_q0_0_all"  />
<polygon points="10,35 15,30 59,30 59,40 15,40 10,35 " style="fill:white; stroke-width:1; stroke:black; " description="&lt;b&gt;ctg38_46&lt;/b&gt;&lt;br&gt;ctg38 46&lt;br&gt;Location: 71168 - 72641" locus_tag="ctg38_46" class="clusterblast-orf" id="dummy-1_q1_0_all"  />
<polygon points="63,35 68,30 102,30 102,40 68,40 63,35 " style="fill:white; stroke-width:1; stroke:black; " description="&lt;b&gt;ctg38_47&lt;/b&gt;&lt;br&gt;ctg38 47&lt;br&gt;Location: 72759 - 73938" locus_tag="ctg38_47" class="clusterblast-orf" id="dummy-1_q2_0_all"  />
<polygon points="102,35 107,30 123,30 123,40 107,40 102,35 " style="fill:white; stroke-width:1; stroke:black; " description="&lt;b&gt;ctg38_48&lt;/b&gt;&lt;br&gt;ctg38 48&lt;br&gt;Location: 73948 - 74569" locus_tag="ctg38_48" class="clusterblast-orf" id="dummy-1_q3_0_all"  />
<polygon points="123,35 128,30 166,30 166,40 128,40 123,35 " style="fill:white; stroke-width:1; stroke:black; " description="&lt;b&gt;ctg38_49&lt;/b&gt;&lt;br&gt;ctg38 49&lt;br&gt;Location: 74582 - 75857" locus_tag="ctg38_49" class="clusterblast-orf" id="dummy-1_q4_0_all"  />
<polygon points="169,35 174,30 206,30 206,40 174,40 169,35 " style="fill:white; stroke-width:1; stroke:black; " description="&lt;b&gt;ctg38_50&lt;/b&gt;&lt;br&gt;ctg38 50&lt;br&gt;Location: 75967 - 77086" locus_tag="ctg38_50" class="clusterblast-orf" id="dummy-1_q5_0_all"  />
<polygon points="207,35 212,30 241,30 241,40 212,40 207,35 " style="fill:white; stroke-width:1; stroke:black; " description="&lt;b&gt;ctg38_51&lt;/b&gt;&lt;br&gt;ctg38 51&lt;br&gt;Location: 77112 - 78117" locus_tag="ctg38_51" class="clusterblast-orf" id="dummy-1_q6_0_all"  />
<polygon points="250,35 255,30 289,30 289,40 255,40 250,35 " style="fill:white; stroke-width:1; stroke:black; " description="&lt;b&gt;ctg38_52&lt;/b&gt;&lt;br&gt;ctg38 52&lt;br&gt;Location: 78408 - 79575" locus_tag="ctg38_52" class="clusterblast-orf" id="dummy-1_q7_0_all"  />
<polygon points="296,35 301,30 310,30 310,40 301,40 296,35 " style="fill:white; stroke-width:1; stroke:black; " description="&lt;b&gt;ctg38_53&lt;/b&gt;&lt;br&gt;ctg38 53&lt;br&gt;Location: 79781 - 80213" locus_tag="ctg38_53" class="clusterblast-orf" id="dummy-1_q8_0_all"  />
<polygon points="314,35 319,30 343,30 343,40 319,40 314,35 " style="fill:white; stroke-width:1; stroke:black; " description="&lt;b&gt;ctg38_54&lt;/b&gt;&lt;br&gt;ctg38 54&lt;br&gt;Location: 80333 - 81197" locus_tag="ctg38_54" class="clusterblast-orf" id="dummy-1_q9_0_all"  />
<polygon points="343,35 348,30 370,30 370,40 348,40 343,35 " style="fill:white; stroke-width:1; stroke:black; " description="&lt;b&gt;ctg38_55&lt;/b&gt;&lt;br&gt;ctg38 55&lt;br&gt;Location: 81196 - 82006" locus_tag="ctg38_55" class="clusterblast-orf" id="dummy-1_q10_0_all"  />
<polygon points="369,35 374,30 390,30 390,40 374,40 369,35 " style="fill:#d81515; stroke-width:1; stroke:black; " description="&lt;b&gt;ctg38_56&lt;/b&gt;&lt;br&gt;ctg38 56&lt;br&gt;Location: 81998 - 82628" locus_tag="ctg38_56" class="clusterblast-orf" id="dummy-1_q11_0_all"  />
<polygon points="390,35 395,30 469,30 469,40 395,40 390,35 " style="fill:#15d8d8; stroke-width:1; stroke:black; " description="&lt;b&gt;ctg38_57&lt;/b&gt;&lt;br&gt;ctg38 57&lt;br&gt;Location: 82624 - 85003" locus_tag="ctg38_57" class="clusterblast-orf" id="dummy-1_q12_0_all"  />
<polygon points="474,35 479,30 551,30 551,40 479,40 474,35 " style="fill:white; stroke-width:1; stroke:black; " description="&lt;b&gt;ctg38_58&lt;/b&gt;&lt;br&gt;ctg38 58&lt;br&gt;Location: 85158 - 87474" locus_tag="ctg38_58" class="clusterblast-orf" id="dummy-1_q13_0_all"  />
<polygon points="551,35 556,30 715,30 715,40 556,40 551,35 " style="fill:white; stroke-width:1; stroke:black; " description="&lt;b&gt;ctg38_59&lt;/b&gt;&lt;br&gt;ctg38 59&lt;br&gt;Location: 87474 - 92409" locus_tag="ctg38_59" class="clusterblast-orf" id="dummy-1_q14_0_all"  />
<polygon points="722,40 744,40 749,35 744,30 722,30 722,40 " style="fill:white; stroke-width:1; stroke:black; " description="&lt;b&gt;ctg38_60&lt;/b&gt;&lt;br&gt;ctg38 60&lt;br&gt;Location: 92617 - 93460" locus_tag="ctg38_60" class="clusterblast-orf" id="dummy-1_q15_0_all"  />
<polygon points="749,35 754,30 756,30 756,40 754,40 749,35 " style="fill:white; stroke-width:1; stroke:black; " description="&lt;b&gt;ctg38_61&lt;/b&gt;&lt;br&gt;ctg38 61&lt;br&gt;Location: 93439 - 93664" locus_tag="ctg38_61" class="clusterblast-orf" id="dummy-1_q16_0_all"  />
<polygon points="758,40 775,40 780,35 775,30 758,30 758,40 " style="fill:white; stroke-width:1; stroke:black; " description="&lt;b&gt;ctg38_62&lt;/b&gt;&lt;br&gt;ctg38 62&lt;br&gt;Location: 93706 - 94375" locus_tag="ctg38_62" class="clusterblast-orf" id="dummy-1_q17_0_all"  />
</g>
<g label="MGC00000046" description="MGC00000046_c1: DMSO-TMAO reducatse E. coli (75% of genes show similarity), DMSAO-TMAO" class="clusterblast-cluster"  >
<text x="5" y="70" class="clusterblast-acc"  >
MGC00000046_c1: DMSO-TMAO reducatse E. coli (75% of genes show similarity), DMSAO-TMAO</text>
<line x1="10" y1="85" x2="778.0" y2="85" style="stroke-width:1; stroke:grey; "  />
</g>
<g id="a1_000"  >
<polygon points="283,85 288,80 312,80 312,90 288,90 283,85 " style="fill:white; stroke-width:1; stroke:black; " description="&lt;b&gt;b1590&lt;/b&gt;&lt;br&gt;putative menaquinol dehydrogenase&lt;br&gt;Location: 16395 - 15540" locus_tag="b1590" class="clusterblast-orf" id="dummy-1_h1_1_0"  />
</g>
<g id="a1_001"  >
<polygon points="312,85 317,80 332,80 332,90 317,90 312,85 " style="fill:#d81515; stroke-width:1; stroke:black; " description="&lt;b&gt;b1589&lt;/b&gt;&lt;br&gt;putative oxidoreductase YnfG&lt;br&gt;Location: 15539 - 14921&lt;br&gt;&lt;br&gt;&lt;b&gt;BlastP hit with ctg38_56&lt;/b&gt;&lt;br&gt;Percentage identity: 55&lt;br&gt;Percentage coverage: 92&lt;br&gt;BLAST bit score: 225&lt;br&gt;E-value: 2.86e-77" locus_tag="b1589" class="clusterblast-orf" id="dummy-1_h1_1_1"  />
</g>
<g id="a1_002"  >
<polygon points="333,85 338,80 413,80 413,90 338,90 333,85 " style="fill:#15d8d8; stroke-width:1; stroke:black; " description="&lt;b&gt;b1588&lt;/b&gt;&lt;br&gt;putative selenate reductase YnfF&lt;br&gt;Location: 14911 - 12487&lt;br&gt;&lt;br&gt;&lt;b&gt;BlastP hit with ctg38_57&lt;/b&gt;&lt;br&gt;Percentage identity: 43&lt;br&gt;Percentage coverage: 102&lt;br&gt;BLAST bit score: 563&lt;br&gt;E-value: 1.28e-192" locus_tag="b1588" class="clusterblast-orf" id="dummy-1_h1_1_2"  />
</g>
<g id="a1_003"  >
<polygon points="415,85 420,80 496,80 496,90 420,90 415,85 " style="fill:#15d8d8; stroke-width:1; stroke:black; " description="&lt;b&gt;b1587&lt;/b&gt;&lt;br&gt;putative selenate reductase YnfE&lt;br&gt;Location: 12427 - 10000&lt;br&gt;&lt;br&gt;&lt;b&gt;BlastP hit with ctg38_57&lt;/b&gt;&lt;br&gt;Percentage identity: 40&lt;br&gt;Percentage coverage: 102&lt;br&gt;BLAST bit score: 549&lt;br&gt;E-value: 6.54e-187" locus_tag="b1587" class="clusterblast-orf" id="dummy-1_h1_1_3"  />
</g>
</svg>
