<svg xmlns="http://www.w3.org/2000/svg" xmlns:xlink="http://www.w3.org/1999/xlink" version="1.1" x="0" y="0" height="50" width="800" viewBox="0 0 800 50" preserveAspectRatio="none"  >
<g label="Query sequence" class="clusterblast-cluster"  >
<text x="5" y="20" class="clusterblast-acc"  >
Query sequence</text>
<line x1="10" y1="35" x2="778.0" y2="35" style="stroke-width:1; stroke:grey; "  />
<polygon points="0,40 44,40 49,35 44,30 0,30 0,40 " style="fill:white; stroke-width:1; stroke:black; " description="&lt;b&gt;ctg19_71&lt;/b&gt;&lt;br&gt;ctg19 71&lt;br&gt;Location: 68735 - 70742" locus_tag="ctg19_71" class="clusterblast-orf" id="knownclusterblast-2_q0_0_all"  />
<polygon points="49,40 74,40 79,35 74,30 49,30 49,40 " style="fill:white; stroke-width:1; stroke:black; " description="&lt;b&gt;ctg19_72&lt;/b&gt;&lt;br&gt;ctg19 72&lt;br&gt;Location: 70731 - 71979" locus_tag="ctg19_72" class="clusterblast-orf" id="knownclusterblast-2_q1_0_all"  />
<polygon points="86,40 104,40 109,35 104,30 86,30 86,40 " style="fill:white; stroke-width:1; stroke:black; " description="&lt;b&gt;ctg19_73&lt;/b&gt;&lt;br&gt;ctg19 73&lt;br&gt;Location: 72246 - 73185" locus_tag="ctg19_73" class="clusterblast-orf" id="knownclusterblast-2_q2_0_all"  />
<polygon points="116,35 121,30 139,30 139,40 121,40 116,35 " style="fill:white; stroke-width:1; stroke:black; " description="&lt;b&gt;ctg19_74&lt;/b&gt;&lt;br&gt;ctg19 74&lt;br&gt;Location: 73491 - 74433" locus_tag="ctg19_74" class="clusterblast-orf" id="knownclusterblast-2_q3_0_all"  />
<polygon points="147,40 160,40 165,35 160,30 147,30 147,40 " style="fill:white; stroke-width:1; stroke:black; " description="&lt;b&gt;ctg19_75&lt;/b&gt;&lt;br&gt;ctg19 75&lt;br&gt;Location: 74721 - 75477" locus_tag="ctg19_75" class="clusterblast-orf" id="knownclusterblast-2_q4_0_all"  />
<polygon points="167,35 172,30 199,30 199,40 172,40 167,35 " style="fill:white; stroke-width:1; stroke:black; " description="&lt;b&gt;ctg19_76&lt;/b&gt;&lt;br&gt;ctg19 76&lt;br&gt;Location: 75537 - 76845" locus_tag="ctg19_76" class="clusterblast-orf" id="knownclusterblast-2_q5_0_all"  />
<polygon points="208,40 210,40 215,35 210,30 208,30 208,40 " style="fill:white; stroke-width:1; stroke:black; " description="&lt;b&gt;ctg19_77&lt;/b&gt;&lt;br&gt;ctg19 77&lt;br&gt;Location: 77215 - 77500" locus_tag="ctg19_77" class="clusterblast-orf" id="knownclusterblast-2_q6_0_all"  />
<polygon points="219,40 246,40 251,35 246,30 219,30 219,40 " style="fill:white; stroke-width:1; stroke:black; " description="&lt;b&gt;ctg19_78&lt;/b&gt;&lt;br&gt;ctg19 78&lt;br&gt;Location: 77677 - 78988" locus_tag="ctg19_78" class="clusterblast-orf" id="knownclusterblast-2_q7_0_all"  />
<polygon points="251,40 299,40 304,35 299,30 251,30 251,40 " style="fill:white; stroke-width:1; stroke:black; " description="&lt;b&gt;ctg19_79&lt;/b&gt;&lt;br&gt;ctg19 79&lt;br&gt;Location: 78987 - 81135" locus_tag="ctg19_79" class="clusterblast-orf" id="knownclusterblast-2_q8_0_all"  />
<polygon points="311,40 316,40 321,35 316,30 311,30 311,40 " style="fill:white; stroke-width:1; stroke:black; " description="&lt;b&gt;ctg19_80&lt;/b&gt;&lt;br&gt;ctg19 80&lt;br&gt;Location: 81442 - 81829" locus_tag="ctg19_80" class="clusterblast-orf" id="knownclusterblast-2_q9_0_all"  />
<polygon points="323,35 328,30 337,30 337,40 328,40 323,35 " style="fill:white; stroke-width:1; stroke:black; " description="&lt;b&gt;ctg19_81&lt;/b&gt;&lt;br&gt;ctg19 81&lt;br&gt;Location: 81928 - 82480" locus_tag="ctg19_81" class="clusterblast-orf" id="knownclusterblast-2_q10_0_all"  />
<polygon points="341,40 359,40 364,35 359,30 341,30 341,40 " style="fill:white; stroke-width:1; stroke:black; " description="&lt;b&gt;ctg19_82&lt;/b&gt;&lt;br&gt;ctg19 82&lt;br&gt;Location: 82645 - 83578" locus_tag="ctg19_82" class="clusterblast-orf" id="knownclusterblast-2_q11_0_all"  />
<polygon points="365,40 386,40 391,35 386,30 365,30 365,40 " style="fill:white; stroke-width:1; stroke:black; " description="&lt;b&gt;ctg19_83&lt;/b&gt;&lt;br&gt;ctg19 83&lt;br&gt;Location: 83613 - 84699" locus_tag="ctg19_83" class="clusterblast-orf" id="knownclusterblast-2_q12_0_all"  />
<polygon points="391,40 406,40 411,35 406,30 391,30 391,40 " style="fill:white; stroke-width:1; stroke:black; " description="&lt;b&gt;ctg19_84&lt;/b&gt;&lt;br&gt;ctg19 84&lt;br&gt;Location: 84702 - 85527" locus_tag="ctg19_84" class="clusterblast-orf" id="knownclusterblast-2_q13_0_all"  />
<polygon points="411,40 426,40 431,35 426,30 411,30 411,40 " style="fill:white; stroke-width:1; stroke:black; " description="&lt;b&gt;ctg19_85&lt;/b&gt;&lt;br&gt;ctg19 85&lt;br&gt;Location: 85526 - 86336" locus_tag="ctg19_85" class="clusterblast-orf" id="knownclusterblast-2_q14_0_all"  />
<polygon points="431,40 440,40 445,35 440,30 431,30 431,40 " style="fill:white; stroke-width:1; stroke:black; " description="&lt;b&gt;ctg19_86&lt;/b&gt;&lt;br&gt;ctg19 86&lt;br&gt;Location: 86335 - 86884" locus_tag="ctg19_86" class="clusterblast-orf" id="knownclusterblast-2_q15_0_all"  />
<polygon points="445,40 447,40 452,35 447,30 445,30 445,40 " style="fill:white; stroke-width:1; stroke:black; " description="&lt;b&gt;ctg19_87&lt;/b&gt;&lt;br&gt;ctg19 87&lt;br&gt;Location: 86916 - 87192" locus_tag="ctg19_87" class="clusterblast-orf" id="knownclusterblast-2_q16_0_all"  />
<polygon points="454,35 459,30 503,30 503,40 459,40 454,35 " style="fill:white; stroke-width:1; stroke:black; " description="&lt;b&gt;ctg19_88&lt;/b&gt;&lt;br&gt;ctg19 88&lt;br&gt;Location: 87243 - 89244" locus_tag="ctg19_88" class="clusterblast-orf" id="knownclusterblast-2_q17_0_all"  />
<polygon points="506,40 531,40 536,35 531,30 506,30 506,40 " style="fill:white; stroke-width:1; stroke:black; " description="&lt;b&gt;ctg19_89&lt;/b&gt;&lt;br&gt;ctg19 89&lt;br&gt;Location: 89403 - 90618" locus_tag="ctg19_89" class="clusterblast-orf" id="knownclusterblast-2_q18_0_all"  />
<polygon points="539,40 550,40 555,35 550,30 539,30 539,40 " style="fill:white; stroke-width:1; stroke:black; " description="&lt;b&gt;ctg19_90&lt;/b&gt;&lt;br&gt;ctg19 90&lt;br&gt;Location: 90715 - 91372" locus_tag="ctg19_90" class="clusterblast-orf" id="knownclusterblast-2_q19_0_all"  />
<polygon points="556,35 561,30 569,30 569,40 561,40 556,35 " style="fill:white; stroke-width:1; stroke:black; " description="&lt;b&gt;ctg19_91&lt;/b&gt;&lt;br&gt;ctg19 91&lt;br&gt;Location: 91438 - 91957" locus_tag="ctg19_91" class="clusterblast-orf" id="knownclusterblast-2_q20_0_all"  />
<polygon points="569,35 574,30 578,30 578,40 574,40 569,35 " style="fill:white; stroke-width:1; stroke:black; " description="&lt;b&gt;ctg19_92&lt;/b&gt;&lt;br&gt;ctg19 92&lt;br&gt;Location: 91956 - 92325" locus_tag="ctg19_92" class="clusterblast-orf" id="knownclusterblast-2_q21_0_all"  />
<polygon points="582,35 587,30 588,30 588,40 587,40 582,35 " style="fill:white; stroke-width:1; stroke:black; " description="&lt;b&gt;ctg19_93&lt;/b&gt;&lt;br&gt;ctg19 93&lt;br&gt;Location: 92493 - 92742" locus_tag="ctg19_93" class="clusterblast-orf" id="knownclusterblast-2_q22_0_all"  />
<polygon points="593,40 597,40 602,35 597,30 593,30 593,40 " style="fill:white; stroke-width:1; stroke:black; " description="&lt;b&gt;ctg19_94&lt;/b&gt;&lt;br&gt;ctg19 94&lt;br&gt;Location: 92914 - 93289" locus_tag="ctg19_94" class="clusterblast-orf" id="knownclusterblast-2_q23_0_all"  />
<polygon points="606,40 630,40 635,35 630,30 606,30 606,40 " style="fill:white; stroke-width:1; stroke:black; " description="&lt;b&gt;ctg19_95&lt;/b&gt;&lt;br&gt;ctg19 95&lt;br&gt;Location: 93468 - 94647" locus_tag="ctg19_95" class="clusterblast-orf" id="knownclusterblast-2_q24_0_all"  />
<polygon points="635,35 640,30 659,30 659,40 640,40 635,35 " style="fill:white; stroke-width:1; stroke:black; " description="&lt;b&gt;ctg19_96&lt;/b&gt;&lt;br&gt;ctg19 96&lt;br&gt;Location: 94643 - 95645" locus_tag="ctg19_96" class="clusterblast-orf" id="knownclusterblast-2_q25_0_all"  />
<polygon points="662,40 685,40 690,35 685,30 662,30 662,40 " style="fill:white; stroke-width:1; stroke:black; " description="&lt;b&gt;ctg19_97&lt;/b&gt;&lt;br&gt;ctg19 97&lt;br&gt;Location: 95748 - 96885" locus_tag="ctg19_97" class="clusterblast-orf" id="knownclusterblast-2_q26_0_all"  />
<polygon points="692,40 711,40 716,35 711,30 692,30 692,40 " style="fill:white; stroke-width:1; stroke:black; " description="&lt;b&gt;ctg19_98&lt;/b&gt;&lt;br&gt;ctg19 98&lt;br&gt;Location: 96952 - 97966" locus_tag="ctg19_98" class="clusterblast-orf" id="knownclusterblast-2_q27_0_all"  />
<polygon points="716,40 731,40 736,35 731,30 716,30 716,40 " style="fill:white; stroke-width:1; stroke:black; " description="&lt;b&gt;ctg19_99&lt;/b&gt;&lt;br&gt;ctg19 99&lt;br&gt;Location: 97965 - 98778" locus_tag="ctg19_99" class="clusterblast-orf" id="knownclusterblast-2_q28_0_all"  />
<polygon points="737,40 749,40 754,35 749,30 737,30 737,40 " style="fill:white; stroke-width:1; stroke:black; " description="&lt;b&gt;ctg19_100&lt;/b&gt;&lt;br&gt;ctg19 100&lt;br&gt;Location: 98826 - 99486" locus_tag="ctg19_100" class="clusterblast-orf" id="knownclusterblast-2_q29_0_all"  />
<polygon points="757,40 775,40 780,35 775,30 757,30 757,40 " style="fill:white; stroke-width:1; stroke:black; " description="&lt;b&gt;ctg19_101&lt;/b&gt;&lt;br&gt;ctg19 101&lt;br&gt;Location: 99635 - 100550" locus_tag="ctg19_101" class="clusterblast-orf" id="knownclusterblast-2_q30_0_all"  />
</g>
</svg>
