<svg xmlns="http://www.w3.org/2000/svg" xmlns:xlink="http://www.w3.org/1999/xlink" version="1.1" x="0" y="0" height="230" width="800" viewBox="0 0 800 230" preserveAspectRatio="none"  >
<g label="Query sequence" class="clusterblast-cluster"  >
<text x="5" y="20" class="clusterblast-acc"  >
Query sequence</text>
<line x1="10" y1="35" x2="778.0" y2="35" style="stroke-width:1; stroke:grey; "  />
<polygon points="0,35 5,30 13,30 13,40 5,40 0,35 " style="fill:#d81515; stroke-width:1; stroke:black; " description="&lt;b&gt;ctg1_290&lt;/b&gt;&lt;br&gt;ctg1 290&lt;br&gt;Location: 295797 - 296181" locus_tag="ctg1_290" class="clusterblast-orf" id="dummy-5_q0_0_all"  />
<polygon points="27,40 116,40 121,35 116,30 27,30 27,40 " style="fill:#67d815; stroke-width:1; stroke:black; " description="&lt;b&gt;ctg1_291&lt;/b&gt;&lt;br&gt;ctg1 291&lt;br&gt;Location: 296599 - 299362" locus_tag="ctg1_291" class="clusterblast-orf" id="dummy-5_q1_0_all"  />
<polygon points="122,40 139,40 144,35 139,30 122,30 122,40 " style="fill:#15b9d8; stroke-width:1; stroke:black; " description="&lt;b&gt;ctg1_292&lt;/b&gt;&lt;br&gt;ctg1 292&lt;br&gt;Location: 299392 - 300031" locus_tag="ctg1_292" class="clusterblast-orf" id="dummy-5_q2_0_all"  />
<polygon points="150,40 169,40 174,35 169,30 150,30 150,40 " style="fill:#a515d8; stroke-width:1; stroke:black; " description="&lt;b&gt;ctg1_293&lt;/b&gt;&lt;br&gt;ctg1 293&lt;br&gt;Location: 300209 - 300938" locus_tag="ctg1_293" class="clusterblast-orf" id="dummy-5_q3_0_all"  />
<polygon points="180,40 208,40 213,35 208,30 180,30 180,40 " style="fill:#d85315; stroke-width:1; stroke:black; " description="&lt;b&gt;ctg1_294&lt;/b&gt;&lt;br&gt;ctg1 294&lt;br&gt;Location: 301110 - 302070" locus_tag="ctg1_294" class="clusterblast-orf" id="dummy-5_q4_0_all"  />
<polygon points="216,35 221,30 223,30 223,40 221,40 216,35 " style="fill:#2ad815; stroke-width:1; stroke:black; " description="&lt;b&gt;ctg1_295&lt;/b&gt;&lt;br&gt;ctg1 295&lt;br&gt;Location: 302165 - 302378" locus_tag="ctg1_295" class="clusterblast-orf" id="dummy-5_q5_0_all"  />
<polygon points="226,35 231,30 248,30 248,40 231,40 226,35 " style="fill:#157cd8; stroke-width:1; stroke:black; " description="&lt;b&gt;ctg1_296&lt;/b&gt;&lt;br&gt;ctg1 296&lt;br&gt;Location: 302475 - 303096" locus_tag="ctg1_296" class="clusterblast-orf" id="dummy-5_q6_0_all"  />
<polygon points="247,35 252,30 307,30 307,40 252,40 247,35 " style="fill:#d815ce; stroke-width:1; stroke:black; " description="&lt;b&gt;ctg1_297&lt;/b&gt;&lt;br&gt;ctg1 297&lt;br&gt;Location: 303070 - 304849" locus_tag="ctg1_297" class="clusterblast-orf" id="dummy-5_q7_0_all"  />
<polygon points="313,40 333,40 338,35 333,30 313,30 313,40 " style="fill:#d89015; stroke-width:1; stroke:black; " description="&lt;b&gt;ctg1_298&lt;/b&gt;&lt;br&gt;ctg1 298&lt;br&gt;Location: 305030 - 305765" locus_tag="ctg1_298" class="clusterblast-orf" id="dummy-5_q8_0_all"  />
<polygon points="338,40 368,40 373,35 368,30 338,30 338,40 " style="fill:#15d83e; stroke-width:1; stroke:black; " description="&lt;b&gt;ctg1_299&lt;/b&gt;&lt;br&gt;ctg1 299&lt;br&gt;Location: 305765 - 306788" locus_tag="ctg1_299" class="clusterblast-orf" id="dummy-5_q9_0_all"  />
<polygon points="373,40 472,40 477,35 472,30 373,30 373,40 " style="fill:#153ed8; stroke-width:1; stroke:black; " description="&lt;b&gt;ctg1_300&lt;/b&gt;&lt;br&gt;ctg1 300&lt;br&gt;Location: 306780 - 309843" locus_tag="ctg1_300" class="clusterblast-orf" id="dummy-5_q10_0_all"  />
<polygon points="487,40 524,40 529,35 524,30 487,30 487,40 " style="fill:#d81590; stroke-width:1; stroke:black; " description="&lt;b&gt;ctg1_301&lt;/b&gt;&lt;br&gt;ctg1 301&lt;br&gt;Location: 310165 - 311392" locus_tag="ctg1_301" class="clusterblast-orf" id="dummy-5_q11_0_all"  />
<polygon points="529,40 550,40 555,35 550,30 529,30 529,40 " style="fill:#d8ce15; stroke-width:1; stroke:black; " description="&lt;b&gt;ctg1_302&lt;/b&gt;&lt;br&gt;ctg1 302&lt;br&gt;Location: 311403 - 312141" locus_tag="ctg1_302" class="clusterblast-orf" id="dummy-5_q12_0_all"  />
<polygon points="556,40 582,40 587,35 582,30 556,30 556,40 " style="fill:#15d87c; stroke-width:1; stroke:black; " description="&lt;b&gt;ctg1_303&lt;/b&gt;&lt;br&gt;ctg1 303&lt;br&gt;Location: 312199 - 313093" locus_tag="ctg1_303" class="clusterblast-orf" id="dummy-5_q13_0_all"  />
<polygon points="588,40 628,40 633,35 628,30 588,30 588,40 " style="fill:#2a15d8; stroke-width:1; stroke:black; " description="&lt;b&gt;ctg1_304&lt;/b&gt;&lt;br&gt;ctg1 304&lt;br&gt;Location: 313114 - 314458" locus_tag="ctg1_304" class="clusterblast-orf" id="dummy-5_q14_0_all"  />
<polygon points="647,40 690,40 695,35 690,30 647,30 647,40 " style="fill:#d81553; stroke-width:1; stroke:black; " description="&lt;b&gt;ctg1_305&lt;/b&gt;&lt;br&gt;ctg1 305&lt;br&gt;Location: 314859 - 316272" locus_tag="ctg1_305" class="clusterblast-orf" id="dummy-5_q15_0_all"  />
<polygon points="705,40 708,40 713,35 708,30 705,30 705,40 " style="fill:#a5d815; stroke-width:1; stroke:black; " description="&lt;b&gt;ctg1_306&lt;/b&gt;&lt;br&gt;ctg1 306&lt;br&gt;Location: 316582 - 316819" locus_tag="ctg1_306" class="clusterblast-orf" id="dummy-5_q16_0_all"  />
<polygon points="714,40 719,40 724,35 719,30 714,30 714,40 " style="fill:#a5d815; stroke-width:1; stroke:black; " description="&lt;b&gt;ctg1_307&lt;/b&gt;&lt;br&gt;ctg1 307&lt;br&gt;Location: 316838 - 317141" locus_tag="ctg1_307" class="clusterblast-orf" id="dummy-5_q17_0_all"  />
<polygon points="726,35 731,30 760,30 760,40 731,40 726,35 " style="fill:#15d8b9; stroke-width:1; stroke:black; " description="&lt;b&gt;ctg1_308&lt;/b&gt;&lt;br&gt;ctg1 308&lt;br&gt;Location: 317207 - 318209" locus_tag="ctg1_308" class="clusterblast-orf" id="dummy-5_q18_0_all"  />
<polygon points="766,35 771,30 780,30 780,40 771,40 766,35 " style="fill:#6715d8; stroke-width:1; stroke:black; " description="&lt;b&gt;ctg1_309&lt;/b&gt;&lt;br&gt;ctg1 309&lt;br&gt;Location: 318363 - 318780" locus_tag="ctg1_309" class="clusterblast-orf" id="dummy-5_q19_0_all"  />
</g>
<g label="MGC00000042" description="MGC00000042_c1: Tetrathionate to thiosulfate S. enterica (100% of genes show similarity), THIOS" class="clusterblast-cluster"  >
<text x="5" y="70" class="clusterblast-acc"  >
MGC00000042_c1: Tetrathionate to thiosulfate S. enterica (100% of genes show similarity), THIOS</text>
<line x1="10" y1="85" x2="778.0" y2="85" style="stroke-width:1; stroke:grey; "  />
</g>
<g id="a5_000"  >
<polygon points="0,85 5,80 13,80 13,90 5,90 0,85 " style="fill:#d81515; stroke-width:1; stroke:black; " description="&lt;b&gt;STM1393&lt;/b&gt;&lt;br&gt;pathogenicity island chaperone protein SpiC&lt;br&gt;Location: 22983 - 22581&lt;br&gt;&lt;br&gt;&lt;b&gt;BlastP hit with ctg1_290&lt;/b&gt;&lt;br&gt;Percentage identity: 100&lt;br&gt;Percentage coverage: 100&lt;br&gt;BLAST bit score: 258&lt;br&gt;E-value: 1.16e-92" locus_tag="STM1393" class="clusterblast-orf" id="dummy-5_h5_1_0"  />
</g>
<g id="a5_001"  >
<polygon points="27,90 115,90 120,85 115,80 27,80 27,90 " style="fill:#67d815; stroke-width:1; stroke:black; " description="&lt;b&gt;STM1392&lt;/b&gt;&lt;br&gt;hybrid sensor histidine kinase/response regulator&lt;br&gt;Location: 22181 - 19418&lt;br&gt;&lt;br&gt;&lt;b&gt;BlastP hit with ctg1_291&lt;/b&gt;&lt;br&gt;Percentage identity: 100&lt;br&gt;Percentage coverage: 100&lt;br&gt;BLAST bit score: 1797&lt;br&gt;E-value: 0.0" locus_tag="STM1392" class="clusterblast-orf" id="dummy-5_h5_1_1"  />
</g>
<g id="a5_002"  >
<polygon points="122,90 138,90 143,85 138,80 122,80 122,90 " style="fill:#15b9d8; stroke-width:1; stroke:black; " description="&lt;b&gt;STM1391&lt;/b&gt;&lt;br&gt;DNA-binding response regulator&lt;br&gt;Location: 19388 - 18749&lt;br&gt;&lt;br&gt;&lt;b&gt;BlastP hit with ctg1_292&lt;/b&gt;&lt;br&gt;Percentage identity: 100&lt;br&gt;Percentage coverage: 100&lt;br&gt;BLAST bit score: 424&lt;br&gt;E-value: 1.12e-155" locus_tag="STM1391" class="clusterblast-orf" id="dummy-5_h5_1_2"  />
</g>
<g id="a5_003"  >
<polygon points="149,90 169,90 174,85 169,80 149,80 149,90 " style="fill:#a515d8; stroke-width:1; stroke:black; " description="&lt;b&gt;STM1390&lt;/b&gt;&lt;br&gt;helix-turn-helix-type transcriptional regulator&lt;br&gt;Location: 18571 - 17842&lt;br&gt;&lt;br&gt;&lt;b&gt;BlastP hit with ctg1_293&lt;/b&gt;&lt;br&gt;Percentage identity: 99&lt;br&gt;Percentage coverage: 100&lt;br&gt;BLAST bit score: 491&lt;br&gt;E-value: 4.71e-181" locus_tag="STM1390" class="clusterblast-orf" id="dummy-5_h5_1_3"  />
</g>
<g id="a5_004"  >
<polygon points="180,90 207,90 212,85 207,80 180,80 180,90 " style="fill:#d85315; stroke-width:1; stroke:black; " description="&lt;b&gt;STM1389&lt;/b&gt;&lt;br&gt;hypothetical protein&lt;br&gt;Location: 17670 - 16710&lt;br&gt;&lt;br&gt;&lt;b&gt;BlastP hit with ctg1_294&lt;/b&gt;&lt;br&gt;Percentage identity: 100&lt;br&gt;Percentage coverage: 100&lt;br&gt;BLAST bit score: 657&lt;br&gt;E-value: 3.61e-244" locus_tag="STM1389" class="clusterblast-orf" id="dummy-5_h5_1_4"  />
</g>
<g id="a5_005"  >
<polygon points="216,85 221,80 223,80 223,90 221,90 216,85 " style="fill:#2ad815; stroke-width:1; stroke:black; " description="&lt;b&gt;STM1388&lt;/b&gt;&lt;br&gt;hypothetical protein&lt;br&gt;Location: 16615 - 16402&lt;br&gt;&lt;br&gt;&lt;b&gt;BlastP hit with ctg1_295&lt;/b&gt;&lt;br&gt;Percentage identity: 100&lt;br&gt;Percentage coverage: 100&lt;br&gt;BLAST bit score: 135&lt;br&gt;E-value: 7.11e-46" locus_tag="STM1388" class="clusterblast-orf" id="dummy-5_h5_1_5"  />
</g>
<g id="a5_006"  >
<polygon points="226,85 231,80 247,80 247,90 231,90 226,85 " style="fill:#157cd8; stroke-width:1; stroke:black; " description="&lt;b&gt;STM1387&lt;/b&gt;&lt;br&gt;DNA-binding response regulator&lt;br&gt;Location: 16305 - 15684&lt;br&gt;&lt;br&gt;&lt;b&gt;BlastP hit with ctg1_296&lt;/b&gt;&lt;br&gt;Percentage identity: 100&lt;br&gt;Percentage coverage: 100&lt;br&gt;BLAST bit score: 398&lt;br&gt;E-value: 1.16e-145" locus_tag="STM1387" class="clusterblast-orf" id="dummy-5_h5_1_6"  />
</g>
<g id="a5_007"  >
<polygon points="246,85 251,80 307,80 307,90 251,90 246,85 " style="fill:#d815ce; stroke-width:1; stroke:black; " description="&lt;b&gt;STM1386&lt;/b&gt;&lt;br&gt;tetrathionate reductase complex: sensory transduction histidine kinase&lt;br&gt;Location: 15710 - 13931&lt;br&gt;&lt;br&gt;&lt;b&gt;BlastP hit with ctg1_297&lt;/b&gt;&lt;br&gt;Percentage identity: 100&lt;br&gt;Percentage coverage: 100&lt;br&gt;BLAST bit score: 1152&lt;br&gt;E-value: 0.0" locus_tag="STM1386" class="clusterblast-orf" id="dummy-5_h5_1_7"  />
</g>
<g id="a5_008"  >
<polygon points="312,90 333,90 338,85 333,80 312,80 312,90 " style="fill:#d89015; stroke-width:1; stroke:black; " description="&lt;b&gt;STM1385&lt;/b&gt;&lt;br&gt;tetrathionate reductase complex, subunit B&lt;br&gt;Location: 13768 - 13015&lt;br&gt;&lt;br&gt;&lt;b&gt;BlastP hit with ctg1_298&lt;/b&gt;&lt;br&gt;Percentage identity: 100&lt;br&gt;Percentage coverage: 100&lt;br&gt;BLAST bit score: 512&lt;br&gt;E-value: 2.81e-189" locus_tag="STM1385" class="clusterblast-orf" id="dummy-5_h5_1_8"  />
</g>
<g id="a5_009"  >
<polygon points="338,90 368,90 373,85 368,80 338,80 338,90 " style="fill:#15d83e; stroke-width:1; stroke:black; " description="&lt;b&gt;STM1384&lt;/b&gt;&lt;br&gt;tetrathionate reductase subunit C&lt;br&gt;Location: 13015 - 11992&lt;br&gt;&lt;br&gt;&lt;b&gt;BlastP hit with ctg1_299&lt;/b&gt;&lt;br&gt;Percentage identity: 100&lt;br&gt;Percentage coverage: 100&lt;br&gt;BLAST bit score: 684&lt;br&gt;E-value: 2.79e-254" locus_tag="STM1384" class="clusterblast-orf" id="dummy-5_h5_1_9"  />
</g>
<g id="a5_0010"  >
<polygon points="372,90 471,90 476,85 471,80 372,80 372,90 " style="fill:#153ed8; stroke-width:1; stroke:black; " description="&lt;b&gt;STM1383&lt;/b&gt;&lt;br&gt;tetrathionate reductase subunit A&lt;br&gt;Location: 12000 - 8937&lt;br&gt;&lt;br&gt;&lt;b&gt;BlastP hit with ctg1_300&lt;/b&gt;&lt;br&gt;Percentage identity: 100&lt;br&gt;Percentage coverage: 100&lt;br&gt;BLAST bit score: 2071&lt;br&gt;E-value: 0.0" locus_tag="STM1383" class="clusterblast-orf" id="dummy-5_h5_1_10"  />
</g>
<g id="a5_0011"  >
<polygon points="487,90 524,90 529,85 524,80 487,80 487,90 " style="fill:#d81590; stroke-width:1; stroke:black; " description="&lt;b&gt;STM1382&lt;/b&gt;&lt;br&gt;hypothetical protein&lt;br&gt;Location: 8615 - 7388&lt;br&gt;&lt;br&gt;&lt;b&gt;BlastP hit with ctg1_301&lt;/b&gt;&lt;br&gt;Percentage identity: 100&lt;br&gt;Percentage coverage: 100&lt;br&gt;BLAST bit score: 778&lt;br&gt;E-value: 2.55e-289" locus_tag="STM1382" class="clusterblast-orf" id="dummy-5_h5_1_11"  />
</g>
<g id="a5_0012"  >
<polygon points="529,90 549,90 554,85 549,80 529,80 529,90 " style="fill:#d8ce15; stroke-width:1; stroke:black; " description="&lt;b&gt;STM1381&lt;/b&gt;&lt;br&gt;hypothetical protein&lt;br&gt;Location: 7377 - 6639&lt;br&gt;&lt;br&gt;&lt;b&gt;BlastP hit with ctg1_302&lt;/b&gt;&lt;br&gt;Percentage identity: 100&lt;br&gt;Percentage coverage: 100&lt;br&gt;BLAST bit score: 513&lt;br&gt;E-value: 8.5e-190" locus_tag="STM1381" class="clusterblast-orf" id="dummy-5_h5_1_12"  />
</g>
<g id="a5_0013"  >
<polygon points="556,90 581,90 586,85 581,80 556,80 556,90 " style="fill:#15d87c; stroke-width:1; stroke:black; " description="&lt;b&gt;STM1380&lt;/b&gt;&lt;br&gt;hydrolase&lt;br&gt;Location: 6581 - 5687&lt;br&gt;&lt;br&gt;&lt;b&gt;BlastP hit with ctg1_303&lt;/b&gt;&lt;br&gt;Percentage identity: 100&lt;br&gt;Percentage coverage: 100&lt;br&gt;BLAST bit score: 612&lt;br&gt;E-value: 2.22e-227" locus_tag="STM1380" class="clusterblast-orf" id="dummy-5_h5_1_13"  />
</g>
<g id="a5_0014"  >
<polygon points="587,90 628,90 633,85 628,80 587,80 587,90 " style="fill:#2a15d8; stroke-width:1; stroke:black; " description="&lt;b&gt;STM1379&lt;/b&gt;&lt;br&gt;putative amino acid permease&lt;br&gt;Location: 5666 - 4322&lt;br&gt;&lt;br&gt;&lt;b&gt;BlastP hit with ctg1_304&lt;/b&gt;&lt;br&gt;Percentage identity: 100&lt;br&gt;Percentage coverage: 100&lt;br&gt;BLAST bit score: 830&lt;br&gt;E-value: 1.43e-308" locus_tag="STM1379" class="clusterblast-orf" id="dummy-5_h5_1_14"  />
</g>
<g id="a5_0015"  >
<polygon points="646,90 689,90 694,85 689,80 646,80 646,90 " style="fill:#d81553; stroke-width:1; stroke:black; " description="&lt;b&gt;STM1378&lt;/b&gt;&lt;br&gt;pyruvate kinase&lt;br&gt;Location: 3921 - 2508&lt;br&gt;&lt;br&gt;&lt;b&gt;BlastP hit with ctg1_305&lt;/b&gt;&lt;br&gt;Percentage identity: 100&lt;br&gt;Percentage coverage: 100&lt;br&gt;BLAST bit score: 894&lt;br&gt;E-value: 0.0" locus_tag="STM1378" class="clusterblast-orf" id="dummy-5_h5_1_15"  />
</g>
<g id="a5_0016"  >
<polygon points="705,90 708,90 713,85 708,80 705,80 705,90 " style="fill:#a5d815; stroke-width:1; stroke:black; " description="&lt;b&gt;STM1377&lt;/b&gt;&lt;br&gt;murein lipoprotein&lt;br&gt;Location: 2198 - 1961&lt;br&gt;&lt;br&gt;&lt;b&gt;BlastP hit with ctg1_306&lt;/b&gt;&lt;br&gt;Percentage identity: 100&lt;br&gt;Percentage coverage: 100&lt;br&gt;BLAST bit score: 107&lt;br&gt;E-value: 1.2e-34&lt;br&gt;&lt;br&gt;&lt;b&gt;BlastP hit with ctg1_307&lt;/b&gt;&lt;br&gt;Percentage identity: 82&lt;br&gt;Percentage coverage: 79&lt;br&gt;BLAST bit score: 84&lt;br&gt;E-value: 7.84e-25" locus_tag="STM1377" class="clusterblast-orf" id="dummy-5_h5_1_16"  />
</g>
<g id="a5_0017"  >
<polygon points="716,90 719,90 724,85 719,80 716,80 716,90 " style="fill:#a5d815; stroke-width:1; stroke:black; " description="&lt;b&gt;STM1376&lt;/b&gt;&lt;br&gt;hypothetical protein&lt;br&gt;Location: 1879 - 1639&lt;br&gt;&lt;br&gt;&lt;b&gt;BlastP hit with ctg1_306&lt;/b&gt;&lt;br&gt;Percentage identity: 89&lt;br&gt;Percentage coverage: 92&lt;br&gt;BLAST bit score: 82&lt;br&gt;E-value: 2e-24&lt;br&gt;&lt;br&gt;&lt;b&gt;BlastP hit with ctg1_307&lt;/b&gt;&lt;br&gt;Percentage identity: 100&lt;br&gt;Percentage coverage: 79&lt;br&gt;BLAST bit score: 108&lt;br&gt;E-value: 1.04e-34" locus_tag="STM1376" class="clusterblast-orf" id="dummy-5_h5_1_17"  />
</g>
<g id="a5_0018"  >
<polygon points="726,85 731,80 760,80 760,90 731,90 726,85 " style="fill:#15d8b9; stroke-width:1; stroke:black; " description="&lt;b&gt;STM1375&lt;/b&gt;&lt;br&gt;murein L,D-transpeptidase&lt;br&gt;Location: 1573 - 571&lt;br&gt;&lt;br&gt;&lt;b&gt;BlastP hit with ctg1_308&lt;/b&gt;&lt;br&gt;Percentage identity: 100&lt;br&gt;Percentage coverage: 100&lt;br&gt;BLAST bit score: 658&lt;br&gt;E-value: 2.65e-244" locus_tag="STM1375" class="clusterblast-orf" id="dummy-5_h5_1_18"  />
</g>
<g id="a5_0019"  >
<polygon points="765,85 770,80 779,80 779,90 770,90 765,85 " style="fill:#6715d8; stroke-width:1; stroke:black; " description="&lt;b&gt;STM1374&lt;/b&gt;&lt;br&gt;cysteine desufuration protein SufE&lt;br&gt;Location: 417 - 0&lt;br&gt;&lt;br&gt;&lt;b&gt;BlastP hit with ctg1_309&lt;/b&gt;&lt;br&gt;Percentage identity: 100&lt;br&gt;Percentage coverage: 100&lt;br&gt;BLAST bit score: 277&lt;br&gt;E-value: 7.26e-100" locus_tag="STM1374" class="clusterblast-orf" id="dummy-5_h5_1_19"  />
</g>
</svg>
