<svg xmlns="http://www.w3.org/2000/svg" xmlns:xlink="http://www.w3.org/1999/xlink" version="1.1" x="0" y="0" height="230" width="800" viewBox="0 0 800 230" preserveAspectRatio="none"  >
<g label="Query sequence" class="clusterblast-cluster"  >
<text x="5" y="20" class="clusterblast-acc"  >
Query sequence</text>
<line x1="10" y1="35" x2="778.0" y2="35" style="stroke-width:1; stroke:grey; "  />
<polygon points="39,40 59,40 64,35 59,30 39,30 39,40 " style="fill:white; stroke-width:1; stroke:black; " description="&lt;b&gt;ctg64_1&lt;/b&gt;&lt;br&gt;ctg64 1&lt;br&gt;Location: 394 - 973" locus_tag="ctg64_1" class="clusterblast-orf" id="dummy-1_q0_0_all"  />
<polygon points="65,40 95,40 100,35 95,30 65,30 65,40 " style="fill:white; stroke-width:1; stroke:black; " description="&lt;b&gt;ctg64_2&lt;/b&gt;&lt;br&gt;ctg64 2&lt;br&gt;Location: 995 - 1814" locus_tag="ctg64_2" class="clusterblast-orf" id="dummy-1_q1_0_all"  />
<polygon points="100,40 118,40 123,35 118,30 100,30 100,40 " style="fill:white; stroke-width:1; stroke:black; " description="&lt;b&gt;ctg64_3&lt;/b&gt;&lt;br&gt;ctg64 3&lt;br&gt;Location: 1813 - 2332" locus_tag="ctg64_3" class="clusterblast-orf" id="dummy-1_q2_0_all"  />
<polygon points="145,40 152,40 157,35 152,30 145,30 145,40 " style="fill:#d81515; stroke-width:1; stroke:black; " description="&lt;b&gt;ctg64_4&lt;/b&gt;&lt;br&gt;ctg64 4&lt;br&gt;Location: 2851 - 3130" locus_tag="ctg64_4" class="clusterblast-orf" id="dummy-1_q3_0_all"  />
<polygon points="157,40 165,40 170,35 165,30 157,30 157,40 " style="fill:#d81515; stroke-width:1; stroke:black; " description="&lt;b&gt;ctg64_5&lt;/b&gt;&lt;br&gt;ctg64 5&lt;br&gt;Location: 3147 - 3432" locus_tag="ctg64_5" class="clusterblast-orf" id="dummy-1_q4_0_all"  />
<polygon points="170,40 177,40 182,35 177,30 170,30 170,40 " style="fill:#d81515; stroke-width:1; stroke:black; " description="&lt;b&gt;ctg64_6&lt;/b&gt;&lt;br&gt;ctg64 6&lt;br&gt;Location: 3446 - 3725" locus_tag="ctg64_6" class="clusterblast-orf" id="dummy-1_q5_0_all"  />
<polygon points="185,40 248,40 253,35 248,30 185,30 185,40 " style="fill:#4dd815; stroke-width:1; stroke:black; " description="&lt;b&gt;ctg64_7&lt;/b&gt;&lt;br&gt;ctg64 7&lt;br&gt;Location: 3778 - 5365" locus_tag="ctg64_7" class="clusterblast-orf" id="dummy-1_q6_0_all"  />
<polygon points="254,40 260,40 265,35 260,30 254,30 254,40 " style="fill:#1585d8; stroke-width:1; stroke:black; " description="&lt;b&gt;ctg64_8&lt;/b&gt;&lt;br&gt;ctg64 8&lt;br&gt;Location: 5391 - 5649" locus_tag="ctg64_8" class="clusterblast-orf" id="dummy-1_q7_0_all"  />
<polygon points="265,40 310,40 315,35 310,30 265,30 265,40 " style="fill:#d815bc; stroke-width:1; stroke:black; " description="&lt;b&gt;ctg64_9&lt;/b&gt;&lt;br&gt;ctg64 9&lt;br&gt;Location: 5664 - 6819" locus_tag="ctg64_9" class="clusterblast-orf" id="dummy-1_q8_0_all"  />
<polygon points="316,40 456,40 461,35 456,30 316,30 316,40 " style="fill:#d8bc15; stroke-width:1; stroke:black; " description="&lt;b&gt;ctg64_10&lt;/b&gt;&lt;br&gt;ctg64 10&lt;br&gt;Location: 6845 - 10232" locus_tag="ctg64_10" class="clusterblast-orf" id="dummy-1_q9_0_all"  />
<polygon points="463,40 499,40 504,35 499,30 463,30 463,40 " style="fill:#15d885; stroke-width:1; stroke:black; " description="&lt;b&gt;ctg64_11&lt;/b&gt;&lt;br&gt;ctg64 11&lt;br&gt;Location: 10283 - 11231" locus_tag="ctg64_11" class="clusterblast-orf" id="dummy-1_q10_0_all"  />
<polygon points="504,40 519,40 524,35 519,30 504,30 504,40 " style="fill:#d81515; stroke-width:1; stroke:black; " description="&lt;b&gt;ctg64_12&lt;/b&gt;&lt;br&gt;ctg64 12&lt;br&gt;Location: 11242 - 11707" locus_tag="ctg64_12" class="clusterblast-orf" id="dummy-1_q11_0_all"  />
<polygon points="524,40 546,40 551,35 546,30 524,30 524,40 " style="fill:#4d15d8; stroke-width:1; stroke:black; " description="&lt;b&gt;ctg64_13&lt;/b&gt;&lt;br&gt;ctg64 13&lt;br&gt;Location: 11703 - 12324" locus_tag="ctg64_13" class="clusterblast-orf" id="dummy-1_q12_0_all"  />
<polygon points="551,40 575,40 580,35 575,30 551,30 551,40 " style="fill:white; stroke-width:1; stroke:black; " description="&lt;b&gt;ctg64_14&lt;/b&gt;&lt;br&gt;ctg64 14&lt;br&gt;Location: 12335 - 13001" locus_tag="ctg64_14" class="clusterblast-orf" id="dummy-1_q13_0_all"  />
<polygon points="581,40 593,40 598,35 593,30 581,30 581,40 " style="fill:white; stroke-width:1; stroke:black; " description="&lt;b&gt;ctg64_15&lt;/b&gt;&lt;br&gt;ctg64 15&lt;br&gt;Location: 13033 - 13435" locus_tag="ctg64_15" class="clusterblast-orf" id="dummy-1_q14_0_all"  />
<polygon points="599,40 608,40 613,35 608,30 599,30 599,40 " style="fill:white; stroke-width:1; stroke:black; " description="&lt;b&gt;ctg64_16&lt;/b&gt;&lt;br&gt;ctg64 16&lt;br&gt;Location: 13450 - 13780" locus_tag="ctg64_16" class="clusterblast-orf" id="dummy-1_q15_0_all"  />
<polygon points="641,35 646,30 682,30 682,40 646,40 641,35 " style="fill:white; stroke-width:1; stroke:black; " description="&lt;b&gt;ctg64_17&lt;/b&gt;&lt;br&gt;ctg64 17&lt;br&gt;Location: 14432 - 15377" locus_tag="ctg64_17" class="clusterblast-orf" id="dummy-1_q16_0_all"  />
<polygon points="691,40 735,40 740,35 735,30 691,30 691,40 " style="fill:white; stroke-width:1; stroke:black; " description="&lt;b&gt;ctg64_18&lt;/b&gt;&lt;br&gt;ctg64 18&lt;br&gt;Location: 15594 - 16746" locus_tag="ctg64_18" class="clusterblast-orf" id="dummy-1_q17_0_all"  />
</g>
<g label="MGC0000003" description="MGC0000003_c1: Ethanolamine degradation S. typhimurium (15% of genes show similarity), EUT" class="clusterblast-cluster"  >
<text x="5" y="70" class="clusterblast-acc"  >
MGC0000003_c1: Ethanolamine degradation S. typhimurium (15% of genes show similarity), EUT</text>
<line x1="10" y1="85" x2="778.0" y2="85" style="stroke-width:1; stroke:grey; "  />
</g>
<g id="a1_000"  >
<polygon points="0,90 92,90 97,85 92,80 0,80 0,90 " style="fill:white; stroke-width:1; stroke:black; " description="&lt;b&gt;STM2472&lt;/b&gt;&lt;br&gt;malic enzyme&lt;br&gt;Location: 18301 - 16021" locus_tag="STM2472" class="clusterblast-orf" id="dummy-1_h1_3_0"  />
</g>
<g id="a1_001"  >
<polygon points="105,90 120,90 125,85 120,80 105,80 105,90 " style="fill:white; stroke-width:1; stroke:black; " description="&lt;b&gt;STM2471&lt;/b&gt;&lt;br&gt;insertion sequence element IS200 transposase&lt;br&gt;Location: 15832 - 15373" locus_tag="STM2471" class="clusterblast-orf" id="dummy-1_h1_3_1"  />
</g>
<g id="a1_002"  >
<polygon points="146,90 155,90 160,85 155,80 146,80 146,90 " style="fill:white; stroke-width:1; stroke:black; " description="&lt;b&gt;STM2470&lt;/b&gt;&lt;br&gt;carboxysome structural protein EutS&lt;br&gt;Location: 14893 - 14557" locus_tag="STM2470" class="clusterblast-orf" id="dummy-1_h1_3_2"  />
</g>
<g id="a1_003"  >
<polygon points="160,90 176,90 181,85 176,80 160,80 160,90 " style="fill:white; stroke-width:1; stroke:black; " description="&lt;b&gt;STM2469&lt;/b&gt;&lt;br&gt;ethanolamine utilization protein EutP&lt;br&gt;Location: 14545 - 14065" locus_tag="STM2469" class="clusterblast-orf" id="dummy-1_h1_3_3"  />
</g>
<g id="a1_004"  >
<polygon points="180,90 205,90 210,85 205,80 180,80 180,90 " style="fill:white; stroke-width:1; stroke:black; " description="&lt;b&gt;STM2468&lt;/b&gt;&lt;br&gt;ethanolamine utilization protein EutQ&lt;br&gt;Location: 14088 - 13398" locus_tag="STM2468" class="clusterblast-orf" id="dummy-1_h1_3_4"  />
</g>
<g id="a1_005"  >
<polygon points="209,90 239,90 244,85 239,80 209,80 209,90 " style="fill:white; stroke-width:1; stroke:black; " description="&lt;b&gt;STM2467&lt;/b&gt;&lt;br&gt;cobalamin adenosyltransferase EutT&lt;br&gt;Location: 13402 - 12598" locus_tag="STM2467" class="clusterblast-orf" id="dummy-1_h1_3_5"  />
</g>
<g id="a1_006"  >
<polygon points="244,90 282,90 287,85 282,80 244,80 244,90 " style="fill:white; stroke-width:1; stroke:black; " description="&lt;b&gt;STM2466&lt;/b&gt;&lt;br&gt;phosphotransacetylase EutD&lt;br&gt;Location: 12602 - 11585" locus_tag="STM2466" class="clusterblast-orf" id="dummy-1_h1_3_6"  />
</g>
<g id="a1_007"  >
<polygon points="289,90 297,90 302,85 297,80 289,80 289,90 " style="fill:#d81515; stroke-width:1; stroke:black; " description="&lt;b&gt;STM2465&lt;/b&gt;&lt;br&gt;carboxysome structural protein EutM&lt;br&gt;Location: 11545 - 11254&lt;br&gt;&lt;br&gt;&lt;b&gt;BlastP hit with ctg64_4&lt;/b&gt;&lt;br&gt;Percentage identity: 56&lt;br&gt;Percentage coverage: 91&lt;br&gt;BLAST bit score: 94&lt;br&gt;E-value: 1.06e-28&lt;br&gt;&lt;br&gt;&lt;b&gt;BlastP hit with ctg64_5&lt;/b&gt;&lt;br&gt;Percentage identity: 61&lt;br&gt;Percentage coverage: 89&lt;br&gt;BLAST bit score: 99&lt;br&gt;E-value: 1.2e-30&lt;br&gt;&lt;br&gt;&lt;b&gt;BlastP hit with ctg64_6&lt;/b&gt;&lt;br&gt;Percentage identity: 62&lt;br&gt;Percentage coverage: 91&lt;br&gt;BLAST bit score: 100&lt;br&gt;E-value: 2.74e-31&lt;br&gt;&lt;br&gt;&lt;b&gt;BlastP hit with ctg64_12&lt;/b&gt;&lt;br&gt;Percentage identity: 44&lt;br&gt;Percentage coverage: 51&lt;br&gt;BLAST bit score: 59&lt;br&gt;E-value: 4.15e-14" locus_tag="STM2465" class="clusterblast-orf" id="dummy-1_h1_3_7"  />
</g>
<g id="a1_008"  >
<polygon points="306,90 314,90 319,85 314,80 306,80 306,90 " style="fill:white; stroke-width:1; stroke:black; " description="&lt;b&gt;STM2464&lt;/b&gt;&lt;br&gt;microcompartment shell protein EutN&lt;br&gt;Location: 11142 - 10854" locus_tag="STM2464" class="clusterblast-orf" id="dummy-1_h1_3_8"  />
</g>
<g id="a1_009"  >
<polygon points="319,90 374,90 379,85 374,80 319,80 319,90 " style="fill:white; stroke-width:1; stroke:black; " description="&lt;b&gt;STM2463&lt;/b&gt;&lt;br&gt;aldehyde oxidoreductase EutE&lt;br&gt;Location: 10843 - 9439" locus_tag="STM2463" class="clusterblast-orf" id="dummy-1_h1_3_9"  />
</g>
<g id="a1_0010"  >
<polygon points="380,90 411,90 416,85 411,80 380,80 380,90 " style="fill:white; stroke-width:1; stroke:black; " description="&lt;b&gt;STM2462&lt;/b&gt;&lt;br&gt;ethanolamine utilization protein EutJ&lt;br&gt;Location: 9429 - 8589" locus_tag="STM2462" class="clusterblast-orf" id="dummy-1_h1_3_10"  />
</g>
<g id="a1_0011"  >
<polygon points="415,90 461,90 466,85 461,80 415,80 415,90 " style="fill:#d815bc; stroke-width:1; stroke:black; " description="&lt;b&gt;STM2461&lt;/b&gt;&lt;br&gt;ethanol dehydrogenase EutG&lt;br&gt;Location: 8600 - 7412&lt;br&gt;&lt;br&gt;&lt;b&gt;BlastP hit with ctg64_9&lt;/b&gt;&lt;br&gt;Percentage identity: 34&lt;br&gt;Percentage coverage: 93&lt;br&gt;BLAST bit score: 196&lt;br&gt;E-value: 4.41e-61" locus_tag="STM2461" class="clusterblast-orf" id="dummy-1_h1_3_11"  />
</g>
<g id="a1_0012"  >
<polygon points="471,90 519,90 524,85 519,80 471,80 471,90 " style="fill:white; stroke-width:1; stroke:black; " description="&lt;b&gt;STM2460&lt;/b&gt;&lt;br&gt;ethanolamine transporter EutH&lt;br&gt;Location: 7293 - 6066" locus_tag="STM2460" class="clusterblast-orf" id="dummy-1_h1_3_12"  />
</g>
<g id="a1_0013"  >
<polygon points="524,90 579,90 584,85 579,80 524,80 524,90 " style="fill:white; stroke-width:1; stroke:black; " description="&lt;b&gt;STM2459&lt;/b&gt;&lt;br&gt;ethanolamine utilization protein EutA&lt;br&gt;Location: 6070 - 4666" locus_tag="STM2459" class="clusterblast-orf" id="dummy-1_h1_3_13"  />
</g>
<g id="a1_0014"  >
<polygon points="584,90 638,90 643,85 638,80 584,80 584,90 " style="fill:white; stroke-width:1; stroke:black; " description="&lt;b&gt;STM2458&lt;/b&gt;&lt;br&gt;ethanolamine ammonia-lyase large subunit EutB&lt;br&gt;Location: 4655 - 3293" locus_tag="STM2458" class="clusterblast-orf" id="dummy-1_h1_3_14"  />
</g>
<g id="a1_0015"  >
<polygon points="644,90 677,90 682,85 677,80 644,80 644,90 " style="fill:white; stroke-width:1; stroke:black; " description="&lt;b&gt;STM2457&lt;/b&gt;&lt;br&gt;ethanolamine ammonia-lyase small subunit EutC&lt;br&gt;Location: 3275 - 2378" locus_tag="STM2457" class="clusterblast-orf" id="dummy-1_h1_3_15"  />
</g>
<g id="a1_0016"  >
<polygon points="682,90 706,90 711,85 706,80 682,80 682,90 " style="fill:white; stroke-width:1; stroke:black; " description="&lt;b&gt;STM2456&lt;/b&gt;&lt;br&gt;carboxysome structural protein EutL&lt;br&gt;Location: 2369 - 1709" locus_tag="STM2456" class="clusterblast-orf" id="dummy-1_h1_3_16"  />
</g>
<g id="a1_0017"  >
<polygon points="711,90 727,90 732,85 727,80 711,80 711,90 " style="fill:#d81515; stroke-width:1; stroke:black; " description="&lt;b&gt;STM2455&lt;/b&gt;&lt;br&gt;carboxysome structural protein EutK&lt;br&gt;Location: 1697 - 1202&lt;br&gt;&lt;br&gt;&lt;b&gt;BlastP hit with ctg64_5&lt;/b&gt;&lt;br&gt;Percentage identity: 43&lt;br&gt;Percentage coverage: 96&lt;br&gt;BLAST bit score: 74&lt;br&gt;E-value: 4.61e-20&lt;br&gt;&lt;br&gt;&lt;b&gt;BlastP hit with ctg64_6&lt;/b&gt;&lt;br&gt;Percentage identity: 46&lt;br&gt;Percentage coverage: 91&lt;br&gt;BLAST bit score: 74&lt;br&gt;E-value: 6.04e-20" locus_tag="STM2455" class="clusterblast-orf" id="dummy-1_h1_3_17"  />
</g>
<g id="a1_0018"  >
<polygon points="734,90 775,90 780,85 775,80 734,80 734,90 " style="fill:white; stroke-width:1; stroke:black; " description="&lt;b&gt;STM2454&lt;/b&gt;&lt;br&gt;HTH-type transcriptional regulator EutR&lt;br&gt;Location: 1155 - 102" locus_tag="STM2454" class="clusterblast-orf" id="dummy-1_h1_3_18"  />
</g>
</svg>
