<svg xmlns="http://www.w3.org/2000/svg" xmlns:xlink="http://www.w3.org/1999/xlink" version="1.1" x="0" y="0" height="230" width="800" viewBox="0 0 800 230" preserveAspectRatio="none"  >
<g label="Query sequence" class="clusterblast-cluster"  >
<text x="5" y="20" class="clusterblast-acc"  >
Query sequence</text>
<line x1="10" y1="35" x2="778.0" y2="35" style="stroke-width:1; stroke:grey; "  />
<polygon points="0,35 5,30 9,30 9,40 5,40 0,35 " style="fill:white; stroke-width:1; stroke:black; " description="&lt;b&gt;ctg94_11&lt;/b&gt;&lt;br&gt;ctg94 11&lt;br&gt;Location: 7785 - 8031" locus_tag="ctg94_11" class="clusterblast-orf" id="dummy-1_q0_0_all"  />
<polygon points="9,35 14,30 14,30 14,40 14,40 9,35 " style="fill:white; stroke-width:1; stroke:black; " description="&lt;b&gt;ctg94_12&lt;/b&gt;&lt;br&gt;ctg94 12&lt;br&gt;Location: 8046 - 8166" locus_tag="ctg94_12" class="clusterblast-orf" id="dummy-1_q1_0_all"  />
<polygon points="14,35 19,30 26,30 26,40 19,40 14,35 " style="fill:white; stroke-width:1; stroke:black; " description="&lt;b&gt;ctg94_13&lt;/b&gt;&lt;br&gt;ctg94 13&lt;br&gt;Location: 8176 - 8494" locus_tag="ctg94_13" class="clusterblast-orf" id="dummy-1_q2_0_all"  />
<polygon points="24,35 29,30 71,30 71,40 29,40 24,35 " style="fill:white; stroke-width:1; stroke:black; " description="&lt;b&gt;ctg94_14&lt;/b&gt;&lt;br&gt;ctg94 14&lt;br&gt;Location: 8432 - 9719" locus_tag="ctg94_14" class="clusterblast-orf" id="dummy-1_q3_0_all"  />
<polygon points="72,40 82,40 87,35 82,30 72,30 72,40 " style="fill:white; stroke-width:1; stroke:black; " description="&lt;b&gt;ctg94_15&lt;/b&gt;&lt;br&gt;ctg94 15&lt;br&gt;Location: 9746 - 10163" locus_tag="ctg94_15" class="clusterblast-orf" id="dummy-1_q4_0_all"  />
<polygon points="93,35 98,30 108,30 108,40 98,40 93,35 " style="fill:white; stroke-width:1; stroke:black; " description="&lt;b&gt;ctg94_16&lt;/b&gt;&lt;br&gt;ctg94 16&lt;br&gt;Location: 10339 - 10744" locus_tag="ctg94_16" class="clusterblast-orf" id="dummy-1_q5_0_all"  />
<polygon points="107,35 112,30 123,30 123,40 112,40 107,35 " style="fill:white; stroke-width:1; stroke:black; " description="&lt;b&gt;ctg94_17&lt;/b&gt;&lt;br&gt;ctg94 17&lt;br&gt;Location: 10703 - 11168" locus_tag="ctg94_17" class="clusterblast-orf" id="dummy-1_q6_0_all"  />
<polygon points="132,40 134,40 139,35 134,30 132,30 132,40 " style="fill:white; stroke-width:1; stroke:black; " description="&lt;b&gt;ctg94_18&lt;/b&gt;&lt;br&gt;ctg94 18&lt;br&gt;Location: 11399 - 11588" locus_tag="ctg94_18" class="clusterblast-orf" id="dummy-1_q7_0_all"  />
<polygon points="147,35 152,30 167,30 167,40 152,40 147,35 " style="fill:white; stroke-width:1; stroke:black; " description="&lt;b&gt;ctg94_19&lt;/b&gt;&lt;br&gt;ctg94 19&lt;br&gt;Location: 11807 - 12359" locus_tag="ctg94_19" class="clusterblast-orf" id="dummy-1_q8_0_all"  />
<polygon points="168,40 173,40 178,35 173,30 168,30 168,40 " style="fill:white; stroke-width:1; stroke:black; " description="&lt;b&gt;ctg94_20&lt;/b&gt;&lt;br&gt;ctg94 20&lt;br&gt;Location: 12374 - 12665" locus_tag="ctg94_20" class="clusterblast-orf" id="dummy-1_q9_0_all"  />
<polygon points="178,40 180,40 185,35 180,30 178,30 178,40 " style="fill:white; stroke-width:1; stroke:black; " description="&lt;b&gt;ctg94_21&lt;/b&gt;&lt;br&gt;ctg94 21&lt;br&gt;Location: 12661 - 12859" locus_tag="ctg94_21" class="clusterblast-orf" id="dummy-1_q10_0_all"  />
<polygon points="188,35 193,30 208,30 208,40 193,40 188,35 " style="fill:white; stroke-width:1; stroke:black; " description="&lt;b&gt;ctg94_22&lt;/b&gt;&lt;br&gt;ctg94 22&lt;br&gt;Location: 12925 - 13477" locus_tag="ctg94_22" class="clusterblast-orf" id="dummy-1_q11_0_all"  />
<polygon points="217,35 222,30 227,30 227,40 222,40 217,35 " style="fill:white; stroke-width:1; stroke:black; " description="&lt;b&gt;ctg94_23&lt;/b&gt;&lt;br&gt;ctg94 23&lt;br&gt;Location: 13715 - 13988" locus_tag="ctg94_23" class="clusterblast-orf" id="dummy-1_q12_0_all"  />
<polygon points="227,40 236,40 241,35 236,30 227,30 227,40 " style="fill:white; stroke-width:1; stroke:black; " description="&lt;b&gt;ctg94_24&lt;/b&gt;&lt;br&gt;ctg94 24&lt;br&gt;Location: 13997 - 14378" locus_tag="ctg94_24" class="clusterblast-orf" id="dummy-1_q13_0_all"  />
<polygon points="241,35 246,30 260,30 260,40 246,40 241,35 " style="fill:white; stroke-width:1; stroke:black; " description="&lt;b&gt;ctg94_25&lt;/b&gt;&lt;br&gt;ctg94 25&lt;br&gt;Location: 14374 - 14908" locus_tag="ctg94_25" class="clusterblast-orf" id="dummy-1_q14_0_all"  />
<polygon points="263,35 268,30 300,30 300,40 268,40 263,35 " style="fill:white; stroke-width:1; stroke:black; " description="&lt;b&gt;ctg94_26&lt;/b&gt;&lt;br&gt;ctg94 26&lt;br&gt;Location: 14996 - 16001" locus_tag="ctg94_26" class="clusterblast-orf" id="dummy-1_q15_0_all"  />
<polygon points="303,40 306,40 311,35 306,30 303,30 303,40 " style="fill:white; stroke-width:1; stroke:black; " description="&lt;b&gt;ctg94_27&lt;/b&gt;&lt;br&gt;ctg94 27&lt;br&gt;Location: 16080 - 16305" locus_tag="ctg94_27" class="clusterblast-orf" id="dummy-1_q16_0_all"  />
<polygon points="311,35 316,30 324,30 324,40 316,40 311,35 " style="fill:white; stroke-width:1; stroke:black; " description="&lt;b&gt;ctg94_28&lt;/b&gt;&lt;br&gt;ctg94 28&lt;br&gt;Location: 16301 - 16661" locus_tag="ctg94_28" class="clusterblast-orf" id="dummy-1_q17_0_all"  />
<polygon points="325,35 330,30 339,30 339,40 330,40 325,35 " style="fill:white; stroke-width:1; stroke:black; " description="&lt;b&gt;ctg94_29&lt;/b&gt;&lt;br&gt;ctg94 29&lt;br&gt;Location: 16671 - 17067" locus_tag="ctg94_29" class="clusterblast-orf" id="dummy-1_q18_0_all"  />
<polygon points="339,35 344,30 366,30 366,40 344,40 339,35 " style="fill:#d81515; stroke-width:1; stroke:black; " description="&lt;b&gt;ctg94_30&lt;/b&gt;&lt;br&gt;ctg94 30&lt;br&gt;Location: 17077 - 17812" locus_tag="ctg94_30" class="clusterblast-orf" id="dummy-1_q19_0_all"  />
<polygon points="366,35 371,30 432,30 432,40 371,40 366,35 " style="fill:#15d8d8; stroke-width:1; stroke:black; " description="&lt;b&gt;ctg94_31&lt;/b&gt;&lt;br&gt;ctg94 31&lt;br&gt;Location: 17804 - 19613" locus_tag="ctg94_31" class="clusterblast-orf" id="dummy-1_q20_0_all"  />
<polygon points="449,40 475,40 480,35 475,30 449,30 449,40 " style="fill:white; stroke-width:1; stroke:black; " description="&lt;b&gt;ctg94_32&lt;/b&gt;&lt;br&gt;ctg94 32&lt;br&gt;Location: 20063 - 20915" locus_tag="ctg94_32" class="clusterblast-orf" id="dummy-1_q21_0_all"  />
<polygon points="486,40 538,40 543,35 538,30 486,30 486,40 " style="fill:white; stroke-width:1; stroke:black; " description="&lt;b&gt;ctg94_33&lt;/b&gt;&lt;br&gt;ctg94 33&lt;br&gt;Location: 21091 - 22636" locus_tag="ctg94_33" class="clusterblast-orf" id="dummy-1_q22_0_all"  />
<polygon points="548,35 553,30 670,30 670,40 553,40 548,35 " style="fill:white; stroke-width:1; stroke:black; " description="&lt;b&gt;ctg94_34&lt;/b&gt;&lt;br&gt;ctg94 34&lt;br&gt;Location: 22786 - 26110" locus_tag="ctg94_34" class="clusterblast-orf" id="dummy-1_q23_0_all"  />
<polygon points="670,35 675,30 706,30 706,40 675,40 670,35 " style="fill:white; stroke-width:1; stroke:black; " description="&lt;b&gt;ctg94_35&lt;/b&gt;&lt;br&gt;ctg94 35&lt;br&gt;Location: 26131 - 27100" locus_tag="ctg94_35" class="clusterblast-orf" id="dummy-1_q24_0_all"  />
<polygon points="709,35 714,30 736,30 736,40 714,40 709,35 " style="fill:white; stroke-width:1; stroke:black; " description="&lt;b&gt;ctg94_36&lt;/b&gt;&lt;br&gt;ctg94 36&lt;br&gt;Location: 27196 - 27934" locus_tag="ctg94_36" class="clusterblast-orf" id="dummy-1_q25_0_all"  />
<polygon points="737,40 745,40 750,35 745,30 737,30 737,40 " style="fill:white; stroke-width:1; stroke:black; " description="&lt;b&gt;ctg94_37&lt;/b&gt;&lt;br&gt;ctg94 37&lt;br&gt;Location: 27946 - 28318" locus_tag="ctg94_37" class="clusterblast-orf" id="dummy-1_q26_0_all"  />
<polygon points="750,40 766,40 771,35 766,30 750,30 750,40 " style="fill:white; stroke-width:1; stroke:black; " description="&lt;b&gt;ctg94_38&lt;/b&gt;&lt;br&gt;ctg94 38&lt;br&gt;Location: 28304 - 28889" locus_tag="ctg94_38" class="clusterblast-orf" id="dummy-1_q27_0_all"  />
<polygon points="775,35 780,30 780,30 780,40 780,40 775,35 " style="fill:white; stroke-width:1; stroke:black; " description="&lt;b&gt;ctg94_39&lt;/b&gt;&lt;br&gt;ctg94 39&lt;br&gt;Location: 28991 - 29129" locus_tag="ctg94_39" class="clusterblast-orf" id="dummy-1_q28_0_all"  />
</g>
<g label="MGC00000057" description="MGC00000057_c1: Fumarate2succinate fum red E. coli (100% of genes show similarity), SUC" class="clusterblast-cluster"  >
<text x="5" y="70" class="clusterblast-acc"  >
MGC00000057_c1: Fumarate2succinate fum red E. coli (100% of genes show similarity), SUC</text>
<line x1="10" y1="85" x2="778.0" y2="85" style="stroke-width:1; stroke:grey; "  />
</g>
<g id="a1_000"  >
<polygon points="343,85 348,80 370,80 370,90 348,90 343,85 " style="fill:#d81515; stroke-width:1; stroke:black; " description="&lt;b&gt;HMPREF9550_01585&lt;/b&gt;&lt;br&gt;fumarate reductase iron-sulfur subunit&lt;br&gt;Location: 10000 - 10735&lt;br&gt;&lt;br&gt;&lt;b&gt;BlastP hit with ctg94_30&lt;/b&gt;&lt;br&gt;Percentage identity: 100&lt;br&gt;Percentage coverage: 100&lt;br&gt;BLAST bit score: 509&lt;br&gt;E-value: 1.85e-188" locus_tag="HMPREF9550_01585" class="clusterblast-orf" id="dummy-1_h1_1_0"  />
</g>
<g id="a1_001"  >
<polygon points="370,85 375,80 436,80 436,90 375,90 370,85 " style="fill:#15d8d8; stroke-width:1; stroke:black; " description="&lt;b&gt;HMPREF9550_01586&lt;/b&gt;&lt;br&gt;fumarate reductase, flavoprotein subunit&lt;br&gt;Location: 10727 - 12536&lt;br&gt;&lt;br&gt;&lt;b&gt;BlastP hit with ctg94_31&lt;/b&gt;&lt;br&gt;Percentage identity: 100&lt;br&gt;Percentage coverage: 100&lt;br&gt;BLAST bit score: 1206&lt;br&gt;E-value: 0.0" locus_tag="HMPREF9550_01586" class="clusterblast-orf" id="dummy-1_h1_1_1"  />
</g>
</svg>
