<svg xmlns="http://www.w3.org/2000/svg" xmlns:xlink="http://www.w3.org/1999/xlink" version="1.1" x="0" y="0" height="230" width="800" viewBox="0 0 800 230" preserveAspectRatio="none"  >
<g label="Query sequence" class="clusterblast-cluster"  >
<text x="5" y="20" class="clusterblast-acc"  >
Query sequence</text>
<line x1="10" y1="35" x2="778.0" y2="35" style="stroke-width:1; stroke:grey; "  />
<polygon points="0,40 18,40 23,35 18,30 0,30 0,40 " style="fill:white; stroke-width:1; stroke:black; " description="&lt;b&gt;ctg61_61&lt;/b&gt;&lt;br&gt;ctg61 61&lt;br&gt;Location: 60211 - 60814" locus_tag="ctg61_61" class="clusterblast-orf" id="dummy-2_q0_0_all"  />
<polygon points="24,35 29,30 40,30 40,40 29,40 24,35 " style="fill:white; stroke-width:1; stroke:black; " description="&lt;b&gt;ctg61_62&lt;/b&gt;&lt;br&gt;ctg61 62&lt;br&gt;Location: 60852 - 61278" locus_tag="ctg61_62" class="clusterblast-orf" id="dummy-2_q1_0_all"  />
<polygon points="51,40 66,40 71,35 66,30 51,30 51,40 " style="fill:white; stroke-width:1; stroke:black; " description="&lt;b&gt;ctg61_63&lt;/b&gt;&lt;br&gt;ctg61 63&lt;br&gt;Location: 61556 - 62099" locus_tag="ctg61_63" class="clusterblast-orf" id="dummy-2_q2_0_all"  />
<polygon points="75,40 116,40 121,35 116,30 75,30 75,40 " style="fill:white; stroke-width:1; stroke:black; " description="&lt;b&gt;ctg61_64&lt;/b&gt;&lt;br&gt;ctg61 64&lt;br&gt;Location: 62198 - 63401" locus_tag="ctg61_64" class="clusterblast-orf" id="dummy-2_q3_0_all"  />
<polygon points="129,40 153,40 158,35 153,30 129,30 129,40 " style="fill:white; stroke-width:1; stroke:black; " description="&lt;b&gt;ctg61_65&lt;/b&gt;&lt;br&gt;ctg61 65&lt;br&gt;Location: 63620 - 64403" locus_tag="ctg61_65" class="clusterblast-orf" id="dummy-2_q4_0_all"  />
<polygon points="159,40 200,40 205,35 200,30 159,30 159,40 " style="fill:white; stroke-width:1; stroke:black; " description="&lt;b&gt;ctg61_66&lt;/b&gt;&lt;br&gt;ctg61 66&lt;br&gt;Location: 64417 - 65623" locus_tag="ctg61_66" class="clusterblast-orf" id="dummy-2_q5_0_all"  />
<polygon points="207,40 250,40 255,35 250,30 207,30 207,40 " style="fill:white; stroke-width:1; stroke:black; " description="&lt;b&gt;ctg61_67&lt;/b&gt;&lt;br&gt;ctg61 67&lt;br&gt;Location: 65679 - 66969" locus_tag="ctg61_67" class="clusterblast-orf" id="dummy-2_q6_0_all"  />
<polygon points="256,40 281,40 286,35 281,30 256,30 256,40 " style="fill:white; stroke-width:1; stroke:black; " description="&lt;b&gt;ctg61_68&lt;/b&gt;&lt;br&gt;ctg61 68&lt;br&gt;Location: 66986 - 67790" locus_tag="ctg61_68" class="clusterblast-orf" id="dummy-2_q7_0_all"  />
<polygon points="288,35 293,30 295,30 295,40 293,40 288,35 " style="fill:white; stroke-width:1; stroke:black; " description="&lt;b&gt;ctg61_69&lt;/b&gt;&lt;br&gt;ctg61 69&lt;br&gt;Location: 67830 - 68016" locus_tag="ctg61_69" class="clusterblast-orf" id="dummy-2_q8_0_all"  />
<polygon points="295,35 300,30 332,30 332,40 300,40 295,35 " style="fill:white; stroke-width:1; stroke:black; " description="&lt;b&gt;ctg61_70&lt;/b&gt;&lt;br&gt;ctg61 70&lt;br&gt;Location: 68028 - 68988" locus_tag="ctg61_70" class="clusterblast-orf" id="dummy-2_q9_0_all"  />
<polygon points="339,35 344,30 384,30 384,40 344,40 339,35 " style="fill:#d81515; stroke-width:1; stroke:black; " description="&lt;b&gt;ctg61_71&lt;/b&gt;&lt;br&gt;ctg61 71&lt;br&gt;Location: 69180 - 70371" locus_tag="ctg61_71" class="clusterblast-orf" id="dummy-2_q10_0_all"  />
<polygon points="391,35 396,30 436,30 436,40 396,40 391,35 " style="fill:#15d815; stroke-width:1; stroke:black; " description="&lt;b&gt;ctg61_72&lt;/b&gt;&lt;br&gt;ctg61 72&lt;br&gt;Location: 70546 - 71743" locus_tag="ctg61_72" class="clusterblast-orf" id="dummy-2_q11_0_all"  />
<polygon points="436,35 441,30 497,30 497,40 441,40 436,35 " style="fill:#1515d8; stroke-width:1; stroke:black; " description="&lt;b&gt;ctg61_73&lt;/b&gt;&lt;br&gt;ctg61 73&lt;br&gt;Location: 71732 - 73361" locus_tag="ctg61_73" class="clusterblast-orf" id="dummy-2_q12_0_all"  />
<polygon points="507,40 554,40 559,35 554,30 507,30 507,40 " style="fill:white; stroke-width:1; stroke:black; " description="&lt;b&gt;ctg61_74&lt;/b&gt;&lt;br&gt;ctg61 74&lt;br&gt;Location: 73633 - 74992" locus_tag="ctg61_74" class="clusterblast-orf" id="dummy-2_q13_0_all"  />
<polygon points="559,40 595,40 600,35 595,30 559,30 559,40 " style="fill:white; stroke-width:1; stroke:black; " description="&lt;b&gt;ctg61_75&lt;/b&gt;&lt;br&gt;ctg61 75&lt;br&gt;Location: 74996 - 76073" locus_tag="ctg61_75" class="clusterblast-orf" id="dummy-2_q14_0_all"  />
<polygon points="607,40 627,40 632,35 627,30 607,30 607,40 " style="fill:white; stroke-width:1; stroke:black; " description="&lt;b&gt;ctg61_76&lt;/b&gt;&lt;br&gt;ctg61 76&lt;br&gt;Location: 76275 - 76926" locus_tag="ctg61_76" class="clusterblast-orf" id="dummy-2_q15_0_all"  />
<polygon points="634,35 639,30 644,30 644,40 639,40 634,35 " style="fill:white; stroke-width:1; stroke:black; " description="&lt;b&gt;ctg61_77&lt;/b&gt;&lt;br&gt;ctg61 77&lt;br&gt;Location: 76979 - 77234" locus_tag="ctg61_77" class="clusterblast-orf" id="dummy-2_q16_0_all"  />
<polygon points="644,35 649,30 686,30 686,40 649,40 644,35 " style="fill:white; stroke-width:1; stroke:black; " description="&lt;b&gt;ctg61_78&lt;/b&gt;&lt;br&gt;ctg61 78&lt;br&gt;Location: 77233 - 78364" locus_tag="ctg61_78" class="clusterblast-orf" id="dummy-2_q17_0_all"  />
<polygon points="693,35 698,30 780,30 780,40 698,40 693,35 " style="fill:white; stroke-width:1; stroke:black; " description="&lt;b&gt;ctg61_79&lt;/b&gt;&lt;br&gt;ctg61 79&lt;br&gt;Location: 78553 - 80839" locus_tag="ctg61_79" class="clusterblast-orf" id="dummy-2_q18_0_all"  />
</g>
<g label="MGC00000047" description="MGC00000047_c1: GlycerolP to glyceroneP E. coli (100% of genes show similarity), GLYP" class="clusterblast-cluster"  >
<text x="5" y="70" class="clusterblast-acc"  >
MGC00000047_c1: GlycerolP to glyceroneP E. coli (100% of genes show similarity), GLYP</text>
<line x1="10" y1="85" x2="778.0" y2="85" style="stroke-width:1; stroke:grey; "  />
</g>
<g id="a2_000"  >
<polygon points="313,85 318,80 358,80 358,90 318,90 313,85 " style="fill:#d81515; stroke-width:1; stroke:black; " description="&lt;b&gt;b2243&lt;/b&gt;&lt;br&gt;anaerobic glycerol-3-phosphate dehydrogenase subunit C&lt;br&gt;Location: 14065 - 12874&lt;br&gt;&lt;br&gt;&lt;b&gt;BlastP hit with ctg61_71&lt;/b&gt;&lt;br&gt;Percentage identity: 100&lt;br&gt;Percentage coverage: 100&lt;br&gt;BLAST bit score: 785&lt;br&gt;E-value: 2.56e-292" locus_tag="b2243" class="clusterblast-orf" id="dummy-2_h2_1_0"  />
</g>
<g id="a2_001"  >
<polygon points="358,85 363,80 405,80 405,90 363,90 358,85 " style="fill:#15d815; stroke-width:1; stroke:black; " description="&lt;b&gt;b2242&lt;/b&gt;&lt;br&gt;anaerobic glycerol-3-phosphate dehydrogenase subunit B&lt;br&gt;Location: 12878 - 11618&lt;br&gt;&lt;br&gt;&lt;b&gt;BlastP hit with ctg61_72&lt;/b&gt;&lt;br&gt;Percentage identity: 97&lt;br&gt;Percentage coverage: 83&lt;br&gt;BLAST bit score: 654&lt;br&gt;E-value: 5.88e-240" locus_tag="b2242" class="clusterblast-orf" id="dummy-2_h2_1_1"  />
</g>
<g id="a2_002"  >
<polygon points="405,85 410,80 466,80 466,90 410,90 405,85 " style="fill:#1515d8; stroke-width:1; stroke:black; " description="&lt;b&gt;b2241&lt;/b&gt;&lt;br&gt;anaerobic glycerol-3-phosphate dehydrogenase subunit A&lt;br&gt;Location: 11629 - 10000&lt;br&gt;&lt;br&gt;&lt;b&gt;BlastP hit with ctg61_73&lt;/b&gt;&lt;br&gt;Percentage identity: 99&lt;br&gt;Percentage coverage: 100&lt;br&gt;BLAST bit score: 1070&lt;br&gt;E-value: 0.0" locus_tag="b2241" class="clusterblast-orf" id="dummy-2_h2_1_2"  />
</g>
</svg>
