<svg xmlns="http://www.w3.org/2000/svg" xmlns:xlink="http://www.w3.org/1999/xlink" version="1.1" x="0" y="0" height="230" width="800" viewBox="0 0 800 230" preserveAspectRatio="none"  >
<g label="Query sequence" class="clusterblast-cluster"  >
<text x="5" y="20" class="clusterblast-acc"  >
Query sequence</text>
<line x1="10" y1="35" x2="778.0" y2="35" style="stroke-width:1; stroke:grey; "  />
<polygon points="0,40 23,40 28,35 23,30 0,30 0,40 " style="fill:white; stroke-width:1; stroke:black; " description="&lt;b&gt;ctg64_1&lt;/b&gt;&lt;br&gt;ctg64 1&lt;br&gt;Location: 394 - 973" locus_tag="ctg64_1" class="clusterblast-orf" id="dummy-1_q0_0_all"  />
<polygon points="29,40 63,40 68,35 63,30 29,30 29,40 " style="fill:white; stroke-width:1; stroke:black; " description="&lt;b&gt;ctg64_2&lt;/b&gt;&lt;br&gt;ctg64 2&lt;br&gt;Location: 995 - 1814" locus_tag="ctg64_2" class="clusterblast-orf" id="dummy-1_q1_0_all"  />
<polygon points="68,40 87,40 92,35 87,30 68,30 68,40 " style="fill:white; stroke-width:1; stroke:black; " description="&lt;b&gt;ctg64_3&lt;/b&gt;&lt;br&gt;ctg64 3&lt;br&gt;Location: 1813 - 2332" locus_tag="ctg64_3" class="clusterblast-orf" id="dummy-1_q2_0_all"  />
<polygon points="117,40 125,40 130,35 125,30 117,30 117,40 " style="fill:#d81515; stroke-width:1; stroke:black; " description="&lt;b&gt;ctg64_4&lt;/b&gt;&lt;br&gt;ctg64 4&lt;br&gt;Location: 2851 - 3130" locus_tag="ctg64_4" class="clusterblast-orf" id="dummy-1_q3_0_all"  />
<polygon points="131,40 140,40 145,35 140,30 131,30 131,40 " style="fill:#d81515; stroke-width:1; stroke:black; " description="&lt;b&gt;ctg64_5&lt;/b&gt;&lt;br&gt;ctg64 5&lt;br&gt;Location: 3147 - 3432" locus_tag="ctg64_5" class="clusterblast-orf" id="dummy-1_q4_0_all"  />
<polygon points="146,40 154,40 159,35 154,30 146,30 146,40 " style="fill:#d81515; stroke-width:1; stroke:black; " description="&lt;b&gt;ctg64_6&lt;/b&gt;&lt;br&gt;ctg64 6&lt;br&gt;Location: 3446 - 3725" locus_tag="ctg64_6" class="clusterblast-orf" id="dummy-1_q5_0_all"  />
<polygon points="161,40 232,40 237,35 232,30 161,30 161,40 " style="fill:#4dd815; stroke-width:1; stroke:black; " description="&lt;b&gt;ctg64_7&lt;/b&gt;&lt;br&gt;ctg64 7&lt;br&gt;Location: 3778 - 5365" locus_tag="ctg64_7" class="clusterblast-orf" id="dummy-1_q6_0_all"  />
<polygon points="238,40 246,40 251,35 246,30 238,30 238,40 " style="fill:#1585d8; stroke-width:1; stroke:black; " description="&lt;b&gt;ctg64_8&lt;/b&gt;&lt;br&gt;ctg64 8&lt;br&gt;Location: 5391 - 5649" locus_tag="ctg64_8" class="clusterblast-orf" id="dummy-1_q7_0_all"  />
<polygon points="251,40 301,40 306,35 301,30 251,30 251,40 " style="fill:#d815bc; stroke-width:1; stroke:black; " description="&lt;b&gt;ctg64_9&lt;/b&gt;&lt;br&gt;ctg64 9&lt;br&gt;Location: 5664 - 6819" locus_tag="ctg64_9" class="clusterblast-orf" id="dummy-1_q8_0_all"  />
<polygon points="308,40 464,40 469,35 464,30 308,30 308,40 " style="fill:#d8bc15; stroke-width:1; stroke:black; " description="&lt;b&gt;ctg64_10&lt;/b&gt;&lt;br&gt;ctg64 10&lt;br&gt;Location: 6845 - 10232" locus_tag="ctg64_10" class="clusterblast-orf" id="dummy-1_q9_0_all"  />
<polygon points="472,40 512,40 517,35 512,30 472,30 472,40 " style="fill:#15d885; stroke-width:1; stroke:black; " description="&lt;b&gt;ctg64_11&lt;/b&gt;&lt;br&gt;ctg64 11&lt;br&gt;Location: 10283 - 11231" locus_tag="ctg64_11" class="clusterblast-orf" id="dummy-1_q10_0_all"  />
<polygon points="517,40 535,40 540,35 535,30 517,30 517,40 " style="fill:#d81515; stroke-width:1; stroke:black; " description="&lt;b&gt;ctg64_12&lt;/b&gt;&lt;br&gt;ctg64 12&lt;br&gt;Location: 11242 - 11707" locus_tag="ctg64_12" class="clusterblast-orf" id="dummy-1_q11_0_all"  />
<polygon points="539,40 564,40 569,35 564,30 539,30 539,40 " style="fill:#4d15d8; stroke-width:1; stroke:black; " description="&lt;b&gt;ctg64_13&lt;/b&gt;&lt;br&gt;ctg64 13&lt;br&gt;Location: 11703 - 12324" locus_tag="ctg64_13" class="clusterblast-orf" id="dummy-1_q12_0_all"  />
<polygon points="570,40 596,40 601,35 596,30 570,30 570,40 " style="fill:white; stroke-width:1; stroke:black; " description="&lt;b&gt;ctg64_14&lt;/b&gt;&lt;br&gt;ctg64 14&lt;br&gt;Location: 12335 - 13001" locus_tag="ctg64_14" class="clusterblast-orf" id="dummy-1_q13_0_all"  />
<polygon points="603,40 617,40 622,35 617,30 603,30 603,40 " style="fill:white; stroke-width:1; stroke:black; " description="&lt;b&gt;ctg64_15&lt;/b&gt;&lt;br&gt;ctg64 15&lt;br&gt;Location: 13033 - 13435" locus_tag="ctg64_15" class="clusterblast-orf" id="dummy-1_q14_0_all"  />
<polygon points="623,40 633,40 638,35 633,30 623,30 623,40 " style="fill:white; stroke-width:1; stroke:black; " description="&lt;b&gt;ctg64_16&lt;/b&gt;&lt;br&gt;ctg64 16&lt;br&gt;Location: 13450 - 13780" locus_tag="ctg64_16" class="clusterblast-orf" id="dummy-1_q15_0_all"  />
<polygon points="670,35 675,30 715,30 715,40 675,40 670,35 " style="fill:white; stroke-width:1; stroke:black; " description="&lt;b&gt;ctg64_17&lt;/b&gt;&lt;br&gt;ctg64 17&lt;br&gt;Location: 14432 - 15377" locus_tag="ctg64_17" class="clusterblast-orf" id="dummy-1_q16_0_all"  />
<polygon points="725,40 775,40 780,35 775,30 725,30 725,40 " style="fill:white; stroke-width:1; stroke:black; " description="&lt;b&gt;ctg64_18&lt;/b&gt;&lt;br&gt;ctg64 18&lt;br&gt;Location: 15594 - 16746" locus_tag="ctg64_18" class="clusterblast-orf" id="dummy-1_q17_0_all"  />
</g>
<g label="MGC00000043" description="MGC00000043_c1: Phenylacetate to toluene Acidobacteria bacterium (100% of genes show similarity), TOL" class="clusterblast-cluster"  >
<text x="5" y="70" class="clusterblast-acc"  >
MGC00000043_c1: Phenylacetate to toluene Acidobacteria bacterium (100% of genes show similarity), TOL</text>
<line x1="10" y1="85" x2="778.0" y2="85" style="stroke-width:1; stroke:grey; "  />
</g>
<g id="a1_000"  >
<polygon points="303,90 419,90 424,85 419,80 303,80 303,90 " style="fill:#d8bc15; stroke-width:1; stroke:black; " description="&lt;b&gt;CXZ00_12390&lt;/b&gt;&lt;br&gt;Phenylacetate decarboxylase&lt;br&gt;Location: 13611 - 11091&lt;br&gt;&lt;br&gt;&lt;b&gt;BlastP hit with ctg64_10&lt;/b&gt;&lt;br&gt;Percentage identity: 32&lt;br&gt;Percentage coverage: 54&lt;br&gt;BLAST bit score: 281&lt;br&gt;E-value: 1.62e-82" locus_tag="CXZ00_12390" class="clusterblast-orf" id="dummy-1_h1_5_0"  />
</g>
<g id="a1_001"  >
<polygon points="430,90 471,90 476,85 471,80 430,80 430,90 " style="fill:#15d885; stroke-width:1; stroke:black; " description="&lt;b&gt;CXZ00_12385&lt;/b&gt;&lt;br&gt;Phenylacetate decarboxylase activating enzyme&lt;br&gt;Location: 10948 - 10000&lt;br&gt;&lt;br&gt;&lt;b&gt;BlastP hit with ctg64_11&lt;/b&gt;&lt;br&gt;Percentage identity: 40&lt;br&gt;Percentage coverage: 97&lt;br&gt;BLAST bit score: 227&lt;br&gt;E-value: 9.56e-75" locus_tag="CXZ00_12385" class="clusterblast-orf" id="dummy-1_h1_5_1"  />
</g>
</svg>
