<svg xmlns="http://www.w3.org/2000/svg" xmlns:xlink="http://www.w3.org/1999/xlink" version="1.1" x="0" y="0" height="300" width="800" viewBox="0 0 800 300" preserveAspectRatio="none"  >
<g label="Query sequence" class="clusterblast-cluster"  >
<text x="5" y="20" class="clusterblast-acc"  >
Query sequence</text>
<line x1="10" y1="35" x2="778.0" y2="35" style="stroke-width:1; stroke:grey; "  />
<polygon points="61,40 80,40 85,35 80,30 61,30 61,40 " style="fill:white; stroke-width:1; stroke:black; " description="&lt;b&gt;ctg64_1&lt;/b&gt;&lt;br&gt;ctg64 1&lt;br&gt;Location: 394 - 973" locus_tag="ctg64_1" class="clusterblast-orf" id="knownclusterblast-1_q0_0_all"  />
<polygon points="86,40 113,40 118,35 113,30 86,30 86,40 " style="fill:white; stroke-width:1; stroke:black; " description="&lt;b&gt;ctg64_2&lt;/b&gt;&lt;br&gt;ctg64 2&lt;br&gt;Location: 995 - 1814" locus_tag="ctg64_2" class="clusterblast-orf" id="knownclusterblast-1_q1_0_all"  />
<polygon points="118,40 134,40 139,35 134,30 118,30 118,40 " style="fill:white; stroke-width:1; stroke:black; " description="&lt;b&gt;ctg64_3&lt;/b&gt;&lt;br&gt;ctg64 3&lt;br&gt;Location: 1813 - 2332" locus_tag="ctg64_3" class="clusterblast-orf" id="knownclusterblast-1_q2_0_all"  />
<polygon points="160,40 166,40 171,35 166,30 160,30 160,40 " style="fill:#d81515; stroke-width:1; stroke:black; " description="&lt;b&gt;ctg64_4&lt;/b&gt;&lt;br&gt;ctg64 4&lt;br&gt;Location: 2851 - 3130" locus_tag="ctg64_4" class="clusterblast-orf" id="knownclusterblast-1_q3_0_all"  />
<polygon points="172,40 178,40 183,35 178,30 172,30 172,40 " style="fill:#d81515; stroke-width:1; stroke:black; " description="&lt;b&gt;ctg64_5&lt;/b&gt;&lt;br&gt;ctg64 5&lt;br&gt;Location: 3147 - 3432" locus_tag="ctg64_5" class="clusterblast-orf" id="knownclusterblast-1_q4_0_all"  />
<polygon points="184,40 190,40 195,35 190,30 184,30 184,40 " style="fill:#d81515; stroke-width:1; stroke:black; " description="&lt;b&gt;ctg64_6&lt;/b&gt;&lt;br&gt;ctg64 6&lt;br&gt;Location: 3446 - 3725" locus_tag="ctg64_6" class="clusterblast-orf" id="knownclusterblast-1_q5_0_all"  />
<polygon points="197,40 256,40 261,35 256,30 197,30 197,40 " style="fill:#4dd815; stroke-width:1; stroke:black; " description="&lt;b&gt;ctg64_7&lt;/b&gt;&lt;br&gt;ctg64 7&lt;br&gt;Location: 3778 - 5365" locus_tag="ctg64_7" class="clusterblast-orf" id="knownclusterblast-1_q6_0_all"  />
<polygon points="262,40 268,40 273,35 268,30 262,30 262,40 " style="fill:#1585d8; stroke-width:1; stroke:black; " description="&lt;b&gt;ctg64_8&lt;/b&gt;&lt;br&gt;ctg64 8&lt;br&gt;Location: 5391 - 5649" locus_tag="ctg64_8" class="clusterblast-orf" id="knownclusterblast-1_q7_0_all"  />
<polygon points="273,40 315,40 320,35 315,30 273,30 273,40 " style="fill:#d815bc; stroke-width:1; stroke:black; " description="&lt;b&gt;ctg64_9&lt;/b&gt;&lt;br&gt;ctg64 9&lt;br&gt;Location: 5664 - 6819" locus_tag="ctg64_9" class="clusterblast-orf" id="knownclusterblast-1_q8_0_all"  />
<polygon points="321,40 452,40 457,35 452,30 321,30 321,40 " style="fill:#d8bc15; stroke-width:1; stroke:black; " description="&lt;b&gt;ctg64_10&lt;/b&gt;&lt;br&gt;ctg64 10&lt;br&gt;Location: 6845 - 10232" locus_tag="ctg64_10" class="clusterblast-orf" id="knownclusterblast-1_q9_0_all"  />
<polygon points="459,40 492,40 497,35 492,30 459,30 459,40 " style="fill:#15d885; stroke-width:1; stroke:black; " description="&lt;b&gt;ctg64_11&lt;/b&gt;&lt;br&gt;ctg64 11&lt;br&gt;Location: 10283 - 11231" locus_tag="ctg64_11" class="clusterblast-orf" id="knownclusterblast-1_q10_0_all"  />
<polygon points="497,40 511,40 516,35 511,30 497,30 497,40 " style="fill:#d81515; stroke-width:1; stroke:black; " description="&lt;b&gt;ctg64_12&lt;/b&gt;&lt;br&gt;ctg64 12&lt;br&gt;Location: 11242 - 11707" locus_tag="ctg64_12" class="clusterblast-orf" id="knownclusterblast-1_q11_0_all"  />
<polygon points="516,40 536,40 541,35 536,30 516,30 516,40 " style="fill:#4d15d8; stroke-width:1; stroke:black; " description="&lt;b&gt;ctg64_13&lt;/b&gt;&lt;br&gt;ctg64 13&lt;br&gt;Location: 11703 - 12324" locus_tag="ctg64_13" class="clusterblast-orf" id="knownclusterblast-1_q12_0_all"  />
<polygon points="541,40 563,40 568,35 563,30 541,30 541,40 " style="fill:white; stroke-width:1; stroke:black; " description="&lt;b&gt;ctg64_14&lt;/b&gt;&lt;br&gt;ctg64 14&lt;br&gt;Location: 12335 - 13001" locus_tag="ctg64_14" class="clusterblast-orf" id="knownclusterblast-1_q13_0_all"  />
<polygon points="569,40 580,40 585,35 580,30 569,30 569,40 " style="fill:white; stroke-width:1; stroke:black; " description="&lt;b&gt;ctg64_15&lt;/b&gt;&lt;br&gt;ctg64 15&lt;br&gt;Location: 13033 - 13435" locus_tag="ctg64_15" class="clusterblast-orf" id="knownclusterblast-1_q14_0_all"  />
<polygon points="586,40 594,40 599,35 594,30 586,30 586,40 " style="fill:white; stroke-width:1; stroke:black; " description="&lt;b&gt;ctg64_16&lt;/b&gt;&lt;br&gt;ctg64 16&lt;br&gt;Location: 13450 - 13780" locus_tag="ctg64_16" class="clusterblast-orf" id="knownclusterblast-1_q15_0_all"  />
<polygon points="625,35 630,30 663,30 663,40 630,40 625,35 " style="fill:white; stroke-width:1; stroke:black; " description="&lt;b&gt;ctg64_17&lt;/b&gt;&lt;br&gt;ctg64 17&lt;br&gt;Location: 14432 - 15377" locus_tag="ctg64_17" class="clusterblast-orf" id="knownclusterblast-1_q16_0_all"  />
<polygon points="672,40 713,40 718,35 713,30 672,30 672,40 " style="fill:white; stroke-width:1; stroke:black; " description="&lt;b&gt;ctg64_18&lt;/b&gt;&lt;br&gt;ctg64 18&lt;br&gt;Location: 15594 - 16746" locus_tag="ctg64_18" class="clusterblast-orf" id="knownclusterblast-1_q17_0_all"  />
</g>
<g label="MGC0000001" description="MGC0000001_c1: Trimethylamine synthesis C. sporogenes (66% of genes show similarity), TMA" class="clusterblast-cluster"  >
<text x="5" y="70" class="clusterblast-acc"  >
MGC0000001_c1: Trimethylamine synthesis C. sporogenes (66% of genes show similarity), TMA</text>
<line x1="10" y1="85" x2="778.0" y2="85" style="stroke-width:1; stroke:grey; "  />
</g>
<g id="a1_000"  >
<polygon points="275,90 275,85 275,80 275,90 " style="fill:#d81515; stroke-width:1; stroke:black; " description="&lt;b&gt;CLOSPO_RS07620&lt;/b&gt;&lt;br&gt;hypothetical protein&lt;br&gt;Location: 0 - 4&lt;br&gt;&lt;br&gt;&lt;b&gt;BlastP hit with ctg64_4&lt;/b&gt;&lt;br&gt;Percentage identity: 56&lt;br&gt;Percentage coverage: 98&lt;br&gt;BLAST bit score: 99&lt;br&gt;E-value: 1.32e-30&lt;br&gt;&lt;br&gt;&lt;b&gt;BlastP hit with ctg64_5&lt;/b&gt;&lt;br&gt;Percentage identity: 59&lt;br&gt;Percentage coverage: 100&lt;br&gt;BLAST bit score: 103&lt;br&gt;E-value: 1.5e-32&lt;br&gt;&lt;br&gt;&lt;b&gt;BlastP hit with ctg64_6&lt;/b&gt;&lt;br&gt;Percentage identity: 60&lt;br&gt;Percentage coverage: 98&lt;br&gt;BLAST bit score: 98&lt;br&gt;E-value: 3.77e-30&lt;br&gt;&lt;br&gt;&lt;b&gt;BlastP hit with ctg64_12&lt;/b&gt;&lt;br&gt;Percentage identity: 43&lt;br&gt;Percentage coverage: 51&lt;br&gt;BLAST bit score: 62&lt;br&gt;E-value: 3.12e-15" locus_tag="CLOSPO_RS07620" class="clusterblast-orf" id="knownclusterblast-1_all_1_1_0"  />
</g>
<g id="a1_001"  >
<polygon points="277,90 331,90 336,85 331,80 277,80 277,90 " style="fill:#4dd815; stroke-width:1; stroke:black; " description="&lt;b&gt;CLOSPO_RS07625&lt;/b&gt;&lt;br&gt;acetaldehyde dehydrogenase&lt;br&gt;Location: 41 - 1523&lt;br&gt;&lt;br&gt;&lt;b&gt;BlastP hit with ctg64_7&lt;/b&gt;&lt;br&gt;Percentage identity: 53&lt;br&gt;Percentage coverage: 86&lt;br&gt;BLAST bit score: 464&lt;br&gt;E-value: 7.32e-162" locus_tag="CLOSPO_RS07625" class="clusterblast-orf" id="knownclusterblast-1_all_1_1_1"  />
</g>
<g id="a1_002"  >
<polygon points="338,90 435,90 440,85 435,80 338,80 338,90 " style="fill:#d8bc15; stroke-width:1; stroke:black; " description="&lt;b&gt;CLOSPO_RS07630&lt;/b&gt;&lt;br&gt;choline trimethylamine-lyase&lt;br&gt;Location: 1572 - 4113&lt;br&gt;&lt;br&gt;&lt;b&gt;BlastP hit with ctg64_10&lt;/b&gt;&lt;br&gt;Percentage identity: 63&lt;br&gt;Percentage coverage: 75&lt;br&gt;BLAST bit score: 1087&lt;br&gt;E-value: 0.0" locus_tag="CLOSPO_RS07630" class="clusterblast-orf" id="knownclusterblast-1_all_1_1_2"  />
</g>
<g id="a1_003"  >
<polygon points="447,90 481,90 486,85 481,80 447,80 447,90 " style="fill:#15d885; stroke-width:1; stroke:black; " description="&lt;b&gt;CLOSPO_RS07635&lt;/b&gt;&lt;br&gt;choline TMA-lyase-activating enzyme&lt;br&gt;Location: 4294 - 5248&lt;br&gt;&lt;br&gt;&lt;b&gt;BlastP hit with ctg64_11&lt;/b&gt;&lt;br&gt;Percentage identity: 48&lt;br&gt;Percentage coverage: 98&lt;br&gt;BLAST bit score: 319&lt;br&gt;E-value: 5.72e-111" locus_tag="CLOSPO_RS07635" class="clusterblast-orf" id="knownclusterblast-1_all_1_1_3"  />
</g>
<g id="a1_004"  >
<polygon points="487,90 497,90 502,85 497,80 487,80 487,90 " style="fill:white; stroke-width:1; stroke:black; " description="&lt;b&gt;CLOSPO_RS07640&lt;/b&gt;&lt;br&gt;propanediol utilization protein PduU&lt;br&gt;Location: 5287 - 5641" locus_tag="CLOSPO_RS07640" class="clusterblast-orf" id="knownclusterblast-1_all_1_1_4"  />
</g>
<g id="a1_005"  >
<polygon points="501,90 504,85 501,80 501,90 " style="fill:white; stroke-width:1; stroke:black; " description="&lt;b&gt;CLOSPO_RS07645&lt;/b&gt;&lt;br&gt;hypothetical protein&lt;br&gt;Location: 5637 - 5704" locus_tag="CLOSPO_RS07645" class="clusterblast-orf" id="knownclusterblast-1_all_1_1_5"  />
</g>
<g label="MGC00000010" description="MGC00000010_c1: Propanediol degradation S. enterica (25% of genes show similarity), PDU" class="clusterblast-cluster"  >
<text x="5" y="120" class="clusterblast-acc"  >
MGC00000010_c1: Propanediol degradation S. enterica (25% of genes show similarity), PDU</text>
<line x1="10" y1="135" x2="778.0" y2="135" style="stroke-width:1; stroke:grey; "  />
</g>
<g id="a1_000"  >
<polygon points="0,135 5,130 36,130 36,140 5,140 0,135 " style="fill:white; stroke-width:1; stroke:black; " description="&lt;b&gt;STM2036&lt;/b&gt;&lt;br&gt;transcriptional regulator PocR&lt;br&gt;Location: 221 - 1133" locus_tag="STM2036" class="clusterblast-orf" id="knownclusterblast-1_all_1_2_0"  />
</g>
<g id="a1_001"  >
<polygon points="45,135 50,130 77,130 77,140 50,140 45,135 " style="fill:white; stroke-width:1; stroke:black; " description="&lt;b&gt;STM2037&lt;/b&gt;&lt;br&gt;propanediol diffusion facilitator&lt;br&gt;Location: 1349 - 2144" locus_tag="STM2037" class="clusterblast-orf" id="knownclusterblast-1_all_1_2_1"  />
</g>
<g id="a1_002"  >
<polygon points="98,140 104,140 109,135 104,130 98,130 98,140 " style="fill:#d81515; stroke-width:1; stroke:black; " description="&lt;b&gt;STM2038&lt;/b&gt;&lt;br&gt;propanediol utilization polyhedral body protein PduA&lt;br&gt;Location: 2668 - 2953&lt;br&gt;&lt;br&gt;&lt;b&gt;BlastP hit with ctg64_4&lt;/b&gt;&lt;br&gt;Percentage identity: 64&lt;br&gt;Percentage coverage: 95&lt;br&gt;BLAST bit score: 109&lt;br&gt;E-value: 8.17e-35&lt;br&gt;&lt;br&gt;&lt;b&gt;BlastP hit with ctg64_5&lt;/b&gt;&lt;br&gt;Percentage identity: 64&lt;br&gt;Percentage coverage: 90&lt;br&gt;BLAST bit score: 106&lt;br&gt;E-value: 1.46e-33&lt;br&gt;&lt;br&gt;&lt;b&gt;BlastP hit with ctg64_6&lt;/b&gt;&lt;br&gt;Percentage identity: 67&lt;br&gt;Percentage coverage: 92&lt;br&gt;BLAST bit score: 110&lt;br&gt;E-value: 2.01e-35&lt;br&gt;&lt;br&gt;&lt;b&gt;BlastP hit with ctg64_12&lt;/b&gt;&lt;br&gt;Percentage identity: 45&lt;br&gt;Percentage coverage: 55&lt;br&gt;BLAST bit score: 66&lt;br&gt;E-value: 5.93e-17" locus_tag="STM2038" class="clusterblast-orf" id="knownclusterblast-1_all_1_2_2"  />
</g>
<g id="a1_003"  >
<polygon points="109,140 137,140 142,135 137,130 109,130 109,140 " style="fill:white; stroke-width:1; stroke:black; " description="&lt;b&gt;STM2039&lt;/b&gt;&lt;br&gt;propanediol utilization polyhedral body protein PduB&lt;br&gt;Location: 2949 - 3762" locus_tag="STM2039" class="clusterblast-orf" id="knownclusterblast-1_all_1_2_3"  />
</g>
<g id="a1_004"  >
<polygon points="142,140 204,140 209,135 204,130 142,130 142,140 " style="fill:white; stroke-width:1; stroke:black; " description="&lt;b&gt;STM2040&lt;/b&gt;&lt;br&gt;propanediol dehydratase large subunit&lt;br&gt;Location: 3780 - 5445" locus_tag="STM2040" class="clusterblast-orf" id="knownclusterblast-1_all_1_2_4"  />
</g>
<g id="a1_005"  >
<polygon points="210,140 232,140 237,135 232,130 210,130 210,140 " style="fill:white; stroke-width:1; stroke:black; " description="&lt;b&gt;STM2041&lt;/b&gt;&lt;br&gt;propanediol dehydratase medium subunit&lt;br&gt;Location: 5455 - 6130" locus_tag="STM2041" class="clusterblast-orf" id="knownclusterblast-1_all_1_2_5"  />
</g>
<g id="a1_006"  >
<polygon points="237,140 253,140 258,135 253,130 237,130 237,140 " style="fill:white; stroke-width:1; stroke:black; " description="&lt;b&gt;STM2042&lt;/b&gt;&lt;br&gt;propanediol dehydratase small subunit&lt;br&gt;Location: 6144 - 6666" locus_tag="STM2042" class="clusterblast-orf" id="knownclusterblast-1_all_1_2_6"  />
</g>
<g id="a1_007"  >
<polygon points="259,140 327,140 332,135 327,130 259,130 259,140 " style="fill:white; stroke-width:1; stroke:black; " description="&lt;b&gt;STM2043&lt;/b&gt;&lt;br&gt;propanediol dehydratase reactivation protein&lt;br&gt;Location: 6675 - 8508" locus_tag="STM2043" class="clusterblast-orf" id="knownclusterblast-1_all_1_2_7"  />
</g>
<g id="a1_008"  >
<polygon points="332,140 341,140 346,135 341,130 332,130 332,140 " style="fill:white; stroke-width:1; stroke:black; " description="&lt;b&gt;STM2044&lt;/b&gt;&lt;br&gt;propanediol dehydratase reactivation protein&lt;br&gt;Location: 8497 - 8848" locus_tag="STM2044" class="clusterblast-orf" id="knownclusterblast-1_all_1_2_8"  />
</g>
<g id="a1_009"  >
<polygon points="347,140 353,140 358,135 353,130 347,130 347,140 " style="fill:#d81515; stroke-width:1; stroke:black; " description="&lt;b&gt;STM2045&lt;/b&gt;&lt;br&gt;propanediol utilization polyhedral body protein PduJ&lt;br&gt;Location: 8866 - 9142&lt;br&gt;&lt;br&gt;&lt;b&gt;BlastP hit with ctg64_4&lt;/b&gt;&lt;br&gt;Percentage identity: 66&lt;br&gt;Percentage coverage: 97&lt;br&gt;BLAST bit score: 112&lt;br&gt;E-value: 3.19e-36&lt;br&gt;&lt;br&gt;&lt;b&gt;BlastP hit with ctg64_5&lt;/b&gt;&lt;br&gt;Percentage identity: 66&lt;br&gt;Percentage coverage: 93&lt;br&gt;BLAST bit score: 109&lt;br&gt;E-value: 5.71e-35&lt;br&gt;&lt;br&gt;&lt;b&gt;BlastP hit with ctg64_6&lt;/b&gt;&lt;br&gt;Percentage identity: 67&lt;br&gt;Percentage coverage: 93&lt;br&gt;BLAST bit score: 110&lt;br&gt;E-value: 2.62e-35&lt;br&gt;&lt;br&gt;&lt;b&gt;BlastP hit with ctg64_12&lt;/b&gt;&lt;br&gt;Percentage identity: 49&lt;br&gt;Percentage coverage: 50&lt;br&gt;BLAST bit score: 72&lt;br&gt;E-value: 2.23e-19" locus_tag="STM2045" class="clusterblast-orf" id="knownclusterblast-1_all_1_2_9"  />
</g>
<g id="a1_0010"  >
<polygon points="359,140 372,140 377,135 372,130 359,130 359,140 " style="fill:white; stroke-width:1; stroke:black; " description="&lt;b&gt;STM2046&lt;/b&gt;&lt;br&gt;propanediol utilization polyhedral body protein PduK&lt;br&gt;Location: 9166 - 9628" locus_tag="STM2046" class="clusterblast-orf" id="knownclusterblast-1_all_1_2_10"  />
</g>
<g id="a1_0011"  >
<polygon points="377,140 398,140 403,135 398,130 377,130 377,140 " style="fill:#4d15d8; stroke-width:1; stroke:black; " description="&lt;b&gt;STM2047&lt;/b&gt;&lt;br&gt;phosphate propanoyltransferase&lt;br&gt;Location: 9627 - 10260&lt;br&gt;&lt;br&gt;&lt;b&gt;BlastP hit with ctg64_13&lt;/b&gt;&lt;br&gt;Percentage identity: 58&lt;br&gt;Percentage coverage: 87&lt;br&gt;BLAST bit score: 188&lt;br&gt;E-value: 1.54e-62" locus_tag="STM2047" class="clusterblast-orf" id="knownclusterblast-1_all_1_2_11"  />
</g>
<g id="a1_0012"  >
<polygon points="403,140 417,140 422,135 417,130 403,130 403,140 " style="fill:white; stroke-width:1; stroke:black; " description="&lt;b&gt;STM2048&lt;/b&gt;&lt;br&gt;propanediol utilization protein PduM&lt;br&gt;Location: 10256 - 10748" locus_tag="STM2048" class="clusterblast-orf" id="knownclusterblast-1_all_1_2_12"  />
</g>
<g id="a1_0013"  >
<polygon points="423,140 429,140 434,135 429,130 423,130 423,140 " style="fill:#1585d8; stroke-width:1; stroke:black; " description="&lt;b&gt;STM2049&lt;/b&gt;&lt;br&gt;propanediol utilization polyhedral body protein PduN&lt;br&gt;Location: 10751 - 11027&lt;br&gt;&lt;br&gt;&lt;b&gt;BlastP hit with ctg64_8&lt;/b&gt;&lt;br&gt;Percentage identity: 48&lt;br&gt;Percentage coverage: 71&lt;br&gt;BLAST bit score: 47&lt;br&gt;E-value: 3.03e-10" locus_tag="STM2049" class="clusterblast-orf" id="knownclusterblast-1_all_1_2_13"  />
</g>
<g id="a1_0014"  >
<polygon points="434,140 470,140 475,135 470,130 434,130 434,140 " style="fill:white; stroke-width:1; stroke:black; " description="&lt;b&gt;STM2050&lt;/b&gt;&lt;br&gt;propanediol utilization protein PduO&lt;br&gt;Location: 11036 - 12047" locus_tag="STM2050" class="clusterblast-orf" id="knownclusterblast-1_all_1_2_14"  />
</g>
<g id="a1_0015"  >
<polygon points="474,140 525,140 530,135 525,130 474,130 474,140 " style="fill:white; stroke-width:1; stroke:black; " description="&lt;b&gt;STM2051&lt;/b&gt;&lt;br&gt;CoA-dependent propionaldehyde dehydrogenase&lt;br&gt;Location: 12043 - 13438" locus_tag="STM2051" class="clusterblast-orf" id="knownclusterblast-1_all_1_2_15"  />
</g>
<g id="a1_0016"  >
<polygon points="531,140 571,140 576,135 571,130 531,130 531,140 " style="fill:#d815bc; stroke-width:1; stroke:black; " description="&lt;b&gt;STM2052&lt;/b&gt;&lt;br&gt;propanol dehydrogenase&lt;br&gt;Location: 13449 - 14562&lt;br&gt;&lt;br&gt;&lt;b&gt;BlastP hit with ctg64_9&lt;/b&gt;&lt;br&gt;Percentage identity: 43&lt;br&gt;Percentage coverage: 98&lt;br&gt;BLAST bit score: 263&lt;br&gt;E-value: 5.13e-87" locus_tag="STM2052" class="clusterblast-orf" id="knownclusterblast-1_all_1_2_16"  />
</g>
<g id="a1_0017"  >
<polygon points="575,140 625,140 630,135 625,130 575,130 575,140 " style="fill:white; stroke-width:1; stroke:black; " description="&lt;b&gt;STM2053&lt;/b&gt;&lt;br&gt;propanediol utilization polyhedral body protein PduS&lt;br&gt;Location: 14558 - 15914" locus_tag="STM2053" class="clusterblast-orf" id="knownclusterblast-1_all_1_2_17"  />
</g>
<g id="a1_0018"  >
<polygon points="630,140 647,140 652,135 647,130 630,130 630,140 " style="fill:#d81515; stroke-width:1; stroke:black; " description="&lt;b&gt;STM2054&lt;/b&gt;&lt;br&gt;propanediol utilization polyhedral body protein PduT&lt;br&gt;Location: 15916 - 16471&lt;br&gt;&lt;br&gt;&lt;b&gt;BlastP hit with ctg64_4&lt;/b&gt;&lt;br&gt;Percentage identity: 41&lt;br&gt;Percentage coverage: 87&lt;br&gt;BLAST bit score: 46&lt;br&gt;E-value: 3.01e-09&lt;br&gt;&lt;br&gt;&lt;b&gt;BlastP hit with ctg64_5&lt;/b&gt;&lt;br&gt;Percentage identity: 41&lt;br&gt;Percentage coverage: 85&lt;br&gt;BLAST bit score: 42&lt;br&gt;E-value: 6.05e-08&lt;br&gt;&lt;br&gt;&lt;b&gt;BlastP hit with ctg64_6&lt;/b&gt;&lt;br&gt;Percentage identity: 42&lt;br&gt;Percentage coverage: 89&lt;br&gt;BLAST bit score: 46&lt;br&gt;E-value: 2.17e-09" locus_tag="STM2054" class="clusterblast-orf" id="knownclusterblast-1_all_1_2_18"  />
</g>
<g id="a1_0019"  >
<polygon points="652,140 661,140 666,135 661,130 652,130 652,140 " style="fill:white; stroke-width:1; stroke:black; " description="&lt;b&gt;STM2055&lt;/b&gt;&lt;br&gt;propanediol utilization polyhedral body protein PduU&lt;br&gt;Location: 16470 - 16821" locus_tag="STM2055" class="clusterblast-orf" id="knownclusterblast-1_all_1_2_19"  />
</g>
<g id="a1_0020"  >
<polygon points="666,140 680,140 685,135 680,130 666,130 666,140 " style="fill:white; stroke-width:1; stroke:black; " description="&lt;b&gt;STM2056&lt;/b&gt;&lt;br&gt;propanediol utilization protein PduV&lt;br&gt;Location: 16825 - 17278" locus_tag="STM2056" class="clusterblast-orf" id="knownclusterblast-1_all_1_2_20"  />
</g>
<g id="a1_0021"  >
<polygon points="684,140 728,140 733,135 728,130 684,130 684,140 " style="fill:white; stroke-width:1; stroke:black; " description="&lt;b&gt;STM2057&lt;/b&gt;&lt;br&gt;propionate kinase&lt;br&gt;Location: 17262 - 18477" locus_tag="STM2057" class="clusterblast-orf" id="knownclusterblast-1_all_1_2_21"  />
</g>
<g id="a1_0022"  >
<polygon points="735,140 766,140 771,135 766,130 735,130 735,140 " style="fill:white; stroke-width:1; stroke:black; " description="&lt;b&gt;STM2058&lt;/b&gt;&lt;br&gt;L-threonine kinase&lt;br&gt;Location: 18534 - 19437" locus_tag="STM2058" class="clusterblast-orf" id="knownclusterblast-1_all_1_2_22"  />
</g>
<g id="a1_0023"  >
<polygon points="773,135 778,130 780,130 780,140 778,140 773,135 " style="fill:white; stroke-width:1; stroke:black; " description="&lt;b&gt;STM2059&lt;/b&gt;&lt;br&gt;hypothetical protein&lt;br&gt;Location: 19470 - 19638" locus_tag="STM2059" class="clusterblast-orf" id="knownclusterblast-1_all_1_2_23"  />
</g>
<g label="MGC0000003" description="MGC0000003_c1: Ethanolamine degradation S. typhimurium (15% of genes show similarity), EUT" class="clusterblast-cluster"  >
<text x="5" y="170" class="clusterblast-acc"  >
MGC0000003_c1: Ethanolamine degradation S. typhimurium (15% of genes show similarity), EUT</text>
<line x1="10" y1="185" x2="778.0" y2="185" style="stroke-width:1; stroke:grey; "  />
</g>
<g id="a1_000"  >
<polygon points="24,190 111,190 116,185 111,180 24,180 24,190 " style="fill:white; stroke-width:1; stroke:black; " description="&lt;b&gt;STM2472&lt;/b&gt;&lt;br&gt;malic enzyme&lt;br&gt;Location: 18301 - 16021" locus_tag="STM2472" class="clusterblast-orf" id="knownclusterblast-1_all_1_3_0"  />
</g>
<g id="a1_001"  >
<polygon points="123,190 137,190 142,185 137,180 123,180 123,190 " style="fill:white; stroke-width:1; stroke:black; " description="&lt;b&gt;STM2471&lt;/b&gt;&lt;br&gt;insertion sequence element IS200 transposase&lt;br&gt;Location: 15832 - 15373" locus_tag="STM2471" class="clusterblast-orf" id="knownclusterblast-1_all_1_3_1"  />
</g>
<g id="a1_002"  >
<polygon points="161,190 169,190 174,185 169,180 161,180 161,190 " style="fill:white; stroke-width:1; stroke:black; " description="&lt;b&gt;STM2470&lt;/b&gt;&lt;br&gt;carboxysome structural protein EutS&lt;br&gt;Location: 14893 - 14557" locus_tag="STM2470" class="clusterblast-orf" id="knownclusterblast-1_all_1_3_2"  />
</g>
<g id="a1_003"  >
<polygon points="175,190 189,190 194,185 189,180 175,180 175,190 " style="fill:white; stroke-width:1; stroke:black; " description="&lt;b&gt;STM2469&lt;/b&gt;&lt;br&gt;ethanolamine utilization protein EutP&lt;br&gt;Location: 14545 - 14065" locus_tag="STM2469" class="clusterblast-orf" id="knownclusterblast-1_all_1_3_3"  />
</g>
<g id="a1_004"  >
<polygon points="193,190 216,190 221,185 216,180 193,180 193,190 " style="fill:white; stroke-width:1; stroke:black; " description="&lt;b&gt;STM2468&lt;/b&gt;&lt;br&gt;ethanolamine utilization protein EutQ&lt;br&gt;Location: 14088 - 13398" locus_tag="STM2468" class="clusterblast-orf" id="knownclusterblast-1_all_1_3_4"  />
</g>
<g id="a1_005"  >
<polygon points="221,190 248,190 253,185 248,180 221,180 221,190 " style="fill:white; stroke-width:1; stroke:black; " description="&lt;b&gt;STM2467&lt;/b&gt;&lt;br&gt;cobalamin adenosyltransferase EutT&lt;br&gt;Location: 13402 - 12598" locus_tag="STM2467" class="clusterblast-orf" id="knownclusterblast-1_all_1_3_5"  />
</g>
<g id="a1_006"  >
<polygon points="253,190 289,190 294,185 289,180 253,180 253,190 " style="fill:white; stroke-width:1; stroke:black; " description="&lt;b&gt;STM2466&lt;/b&gt;&lt;br&gt;phosphotransacetylase EutD&lt;br&gt;Location: 12602 - 11585" locus_tag="STM2466" class="clusterblast-orf" id="knownclusterblast-1_all_1_3_6"  />
</g>
<g id="a1_007"  >
<polygon points="295,190 302,190 307,185 302,180 295,180 295,190 " style="fill:#d81515; stroke-width:1; stroke:black; " description="&lt;b&gt;STM2465&lt;/b&gt;&lt;br&gt;carboxysome structural protein EutM&lt;br&gt;Location: 11545 - 11254&lt;br&gt;&lt;br&gt;&lt;b&gt;BlastP hit with ctg64_4&lt;/b&gt;&lt;br&gt;Percentage identity: 56&lt;br&gt;Percentage coverage: 91&lt;br&gt;BLAST bit score: 94&lt;br&gt;E-value: 1.06e-28&lt;br&gt;&lt;br&gt;&lt;b&gt;BlastP hit with ctg64_5&lt;/b&gt;&lt;br&gt;Percentage identity: 61&lt;br&gt;Percentage coverage: 89&lt;br&gt;BLAST bit score: 99&lt;br&gt;E-value: 1.2e-30&lt;br&gt;&lt;br&gt;&lt;b&gt;BlastP hit with ctg64_6&lt;/b&gt;&lt;br&gt;Percentage identity: 62&lt;br&gt;Percentage coverage: 91&lt;br&gt;BLAST bit score: 100&lt;br&gt;E-value: 2.74e-31&lt;br&gt;&lt;br&gt;&lt;b&gt;BlastP hit with ctg64_12&lt;/b&gt;&lt;br&gt;Percentage identity: 44&lt;br&gt;Percentage coverage: 51&lt;br&gt;BLAST bit score: 59&lt;br&gt;E-value: 4.15e-14" locus_tag="STM2465" class="clusterblast-orf" id="knownclusterblast-1_all_1_3_7"  />
</g>
<g id="a1_008"  >
<polygon points="312,190 318,190 323,185 318,180 312,180 312,190 " style="fill:white; stroke-width:1; stroke:black; " description="&lt;b&gt;STM2464&lt;/b&gt;&lt;br&gt;microcompartment shell protein EutN&lt;br&gt;Location: 11142 - 10854" locus_tag="STM2464" class="clusterblast-orf" id="knownclusterblast-1_all_1_3_8"  />
</g>
<g id="a1_009"  >
<polygon points="324,190 375,190 380,185 375,180 324,180 324,190 " style="fill:white; stroke-width:1; stroke:black; " description="&lt;b&gt;STM2463&lt;/b&gt;&lt;br&gt;aldehyde oxidoreductase EutE&lt;br&gt;Location: 10843 - 9439" locus_tag="STM2463" class="clusterblast-orf" id="knownclusterblast-1_all_1_3_9"  />
</g>
<g id="a1_0010"  >
<polygon points="380,190 409,190 414,185 409,180 380,180 380,190 " style="fill:white; stroke-width:1; stroke:black; " description="&lt;b&gt;STM2462&lt;/b&gt;&lt;br&gt;ethanolamine utilization protein EutJ&lt;br&gt;Location: 9429 - 8589" locus_tag="STM2462" class="clusterblast-orf" id="knownclusterblast-1_all_1_3_10"  />
</g>
<g id="a1_0011"  >
<polygon points="414,190 456,190 461,185 456,180 414,180 414,190 " style="fill:#d815bc; stroke-width:1; stroke:black; " description="&lt;b&gt;STM2461&lt;/b&gt;&lt;br&gt;ethanol dehydrogenase EutG&lt;br&gt;Location: 8600 - 7412&lt;br&gt;&lt;br&gt;&lt;b&gt;BlastP hit with ctg64_9&lt;/b&gt;&lt;br&gt;Percentage identity: 34&lt;br&gt;Percentage coverage: 93&lt;br&gt;BLAST bit score: 196&lt;br&gt;E-value: 4.41e-61" locus_tag="STM2461" class="clusterblast-orf" id="knownclusterblast-1_all_1_3_11"  />
</g>
<g id="a1_0012"  >
<polygon points="466,190 510,190 515,185 510,180 466,180 466,190 " style="fill:white; stroke-width:1; stroke:black; " description="&lt;b&gt;STM2460&lt;/b&gt;&lt;br&gt;ethanolamine transporter EutH&lt;br&gt;Location: 7293 - 6066" locus_tag="STM2460" class="clusterblast-orf" id="knownclusterblast-1_all_1_3_12"  />
</g>
<g id="a1_0013"  >
<polygon points="515,190 567,190 572,185 567,180 515,180 515,190 " style="fill:white; stroke-width:1; stroke:black; " description="&lt;b&gt;STM2459&lt;/b&gt;&lt;br&gt;ethanolamine utilization protein EutA&lt;br&gt;Location: 6070 - 4666" locus_tag="STM2459" class="clusterblast-orf" id="knownclusterblast-1_all_1_3_13"  />
</g>
<g id="a1_0014"  >
<polygon points="572,190 622,190 627,185 622,180 572,180 572,190 " style="fill:white; stroke-width:1; stroke:black; " description="&lt;b&gt;STM2458&lt;/b&gt;&lt;br&gt;ethanolamine ammonia-lyase large subunit EutB&lt;br&gt;Location: 4655 - 3293" locus_tag="STM2458" class="clusterblast-orf" id="knownclusterblast-1_all_1_3_14"  />
</g>
<g id="a1_0015"  >
<polygon points="628,190 659,190 664,185 659,180 628,180 628,190 " style="fill:white; stroke-width:1; stroke:black; " description="&lt;b&gt;STM2457&lt;/b&gt;&lt;br&gt;ethanolamine ammonia-lyase small subunit EutC&lt;br&gt;Location: 3275 - 2378" locus_tag="STM2457" class="clusterblast-orf" id="knownclusterblast-1_all_1_3_15"  />
</g>
<g id="a1_0016"  >
<polygon points="664,190 685,190 690,185 685,180 664,180 664,190 " style="fill:white; stroke-width:1; stroke:black; " description="&lt;b&gt;STM2456&lt;/b&gt;&lt;br&gt;carboxysome structural protein EutL&lt;br&gt;Location: 2369 - 1709" locus_tag="STM2456" class="clusterblast-orf" id="knownclusterblast-1_all_1_3_16"  />
</g>
<g id="a1_0017"  >
<polygon points="691,190 706,190 711,185 706,180 691,180 691,190 " style="fill:#d81515; stroke-width:1; stroke:black; " description="&lt;b&gt;STM2455&lt;/b&gt;&lt;br&gt;carboxysome structural protein EutK&lt;br&gt;Location: 1697 - 1202&lt;br&gt;&lt;br&gt;&lt;b&gt;BlastP hit with ctg64_5&lt;/b&gt;&lt;br&gt;Percentage identity: 43&lt;br&gt;Percentage coverage: 96&lt;br&gt;BLAST bit score: 74&lt;br&gt;E-value: 4.61e-20&lt;br&gt;&lt;br&gt;&lt;b&gt;BlastP hit with ctg64_6&lt;/b&gt;&lt;br&gt;Percentage identity: 46&lt;br&gt;Percentage coverage: 91&lt;br&gt;BLAST bit score: 74&lt;br&gt;E-value: 6.04e-20" locus_tag="STM2455" class="clusterblast-orf" id="knownclusterblast-1_all_1_3_17"  />
</g>
<g id="a1_0018"  >
<polygon points="713,190 750,190 755,185 750,180 713,180 713,190 " style="fill:white; stroke-width:1; stroke:black; " description="&lt;b&gt;STM2454&lt;/b&gt;&lt;br&gt;HTH-type transcriptional regulator EutR&lt;br&gt;Location: 1155 - 102" locus_tag="STM2454" class="clusterblast-orf" id="knownclusterblast-1_all_1_3_18"  />
</g>
<g label="MGC00000039" description="MGC00000039_c1: Hydroxy-L-proline2proline C. difficile (66% of genes show similarity), PRO" class="clusterblast-cluster"  >
<text x="5" y="220" class="clusterblast-acc"  >
MGC00000039_c1: Hydroxy-L-proline2proline C. difficile (66% of genes show similarity), PRO</text>
<line x1="10" y1="235" x2="778.0" y2="235" style="stroke-width:1; stroke:grey; "  />
</g>
<g id="a1_000"  >
<polygon points="301,240 332,240 337,235 332,230 301,230 301,240 " style="fill:#15d885; stroke-width:1; stroke:black; " description="&lt;b&gt;ctg22_31&lt;/b&gt;&lt;br&gt;NA&lt;br&gt;Location: 10000 - 10909&lt;br&gt;&lt;br&gt;&lt;b&gt;BlastP hit with ctg64_11&lt;/b&gt;&lt;br&gt;Percentage identity: 35&lt;br&gt;Percentage coverage: 97&lt;br&gt;BLAST bit score: 195&lt;br&gt;E-value: 1.3e-62" locus_tag="ctg22_31" class="clusterblast-orf" id="knownclusterblast-1_all_1_4_0"  />
</g>
<g id="a1_001"  >
<polygon points="338,240 428,240 433,235 428,230 338,230 338,240 " style="fill:#d8bc15; stroke-width:1; stroke:black; " description="&lt;b&gt;ctg22_32&lt;/b&gt;&lt;br&gt;NA&lt;br&gt;Location: 10913 - 13283&lt;br&gt;&lt;br&gt;&lt;b&gt;BlastP hit with ctg64_10&lt;/b&gt;&lt;br&gt;Percentage identity: 34&lt;br&gt;Percentage coverage: 71&lt;br&gt;BLAST bit score: 389&lt;br&gt;E-value: 5.4e-122" locus_tag="ctg22_32" class="clusterblast-orf" id="knownclusterblast-1_all_1_4_1"  />
</g>
<g id="a1_002"  >
<polygon points="446,240 473,240 478,235 473,230 446,230 446,240 " style="fill:white; stroke-width:1; stroke:black; " description="&lt;b&gt;ctg22_33&lt;/b&gt;&lt;br&gt;NA&lt;br&gt;Location: 13607 - 14411" locus_tag="ctg22_33" class="clusterblast-orf" id="knownclusterblast-1_all_1_4_2"  />
</g>
<g label="MGC00000043" description="MGC00000043_c1: Phenylacetate to toluene Acidobacteria bacterium (100% of genes show similarity), TOL" class="clusterblast-cluster"  >
<text x="5" y="270" class="clusterblast-acc"  >
MGC00000043_c1: Phenylacetate to toluene Acidobacteria bacterium (100% of genes show similarity), TOL</text>
<line x1="10" y1="285" x2="778.0" y2="285" style="stroke-width:1; stroke:grey; "  />
</g>
<g id="a1_000"  >
<polygon points="317,290 413,290 418,285 413,280 317,280 317,290 " style="fill:#d8bc15; stroke-width:1; stroke:black; " description="&lt;b&gt;CXZ00_12390&lt;/b&gt;&lt;br&gt;Phenylacetate decarboxylase&lt;br&gt;Location: 13611 - 11091&lt;br&gt;&lt;br&gt;&lt;b&gt;BlastP hit with ctg64_10&lt;/b&gt;&lt;br&gt;Percentage identity: 32&lt;br&gt;Percentage coverage: 54&lt;br&gt;BLAST bit score: 281&lt;br&gt;E-value: 1.62e-82" locus_tag="CXZ00_12390" class="clusterblast-orf" id="knownclusterblast-1_all_1_5_0"  />
</g>
<g id="a1_001"  >
<polygon points="424,290 457,290 462,285 457,280 424,280 424,290 " style="fill:#15d885; stroke-width:1; stroke:black; " description="&lt;b&gt;CXZ00_12385&lt;/b&gt;&lt;br&gt;Phenylacetate decarboxylase activating enzyme&lt;br&gt;Location: 10948 - 10000&lt;br&gt;&lt;br&gt;&lt;b&gt;BlastP hit with ctg64_11&lt;/b&gt;&lt;br&gt;Percentage identity: 40&lt;br&gt;Percentage coverage: 97&lt;br&gt;BLAST bit score: 227&lt;br&gt;E-value: 9.56e-75" locus_tag="CXZ00_12385" class="clusterblast-orf" id="knownclusterblast-1_all_1_5_1"  />
</g>
</svg>
