<svg xmlns="http://www.w3.org/2000/svg" xmlns:xlink="http://www.w3.org/1999/xlink" version="1.1" x="0" y="0" height="100" width="800" viewBox="0 0 800 100" preserveAspectRatio="none"  >
<g label="Query sequence" class="clusterblast-cluster"  >
<text x="5" y="20" class="clusterblast-acc"  >
Query sequence</text>
<line x1="10" y1="35" x2="778.0" y2="35" style="stroke-width:1; stroke:grey; "  />
<polygon points="0,35 5,30 24,30 24,40 5,40 0,35 " style="fill:white; stroke-width:1; stroke:black; " description="&lt;b&gt;ctg11_116&lt;/b&gt;&lt;br&gt;ctg11 116&lt;br&gt;Location: 119978 - 120872" locus_tag="ctg11_116" class="clusterblast-orf" id="knownclusterblast-2_q0_0_all"  />
<polygon points="28,40 30,40 35,35 30,30 28,30 28,40 " style="fill:white; stroke-width:1; stroke:black; " description="&lt;b&gt;ctg11_117&lt;/b&gt;&lt;br&gt;ctg11 117&lt;br&gt;Location: 121012 - 121243" locus_tag="ctg11_117" class="clusterblast-orf" id="knownclusterblast-2_q1_0_all"  />
<polygon points="36,40 49,40 54,35 49,30 36,30 36,40 " style="fill:white; stroke-width:1; stroke:black; " description="&lt;b&gt;ctg11_118&lt;/b&gt;&lt;br&gt;ctg11 118&lt;br&gt;Location: 121298 - 121958" locus_tag="ctg11_118" class="clusterblast-orf" id="knownclusterblast-2_q2_0_all"  />
<polygon points="61,40 91,40 96,35 91,30 61,30 61,40 " style="fill:white; stroke-width:1; stroke:black; " description="&lt;b&gt;ctg11_119&lt;/b&gt;&lt;br&gt;ctg11 119&lt;br&gt;Location: 122213 - 123446" locus_tag="ctg11_119" class="clusterblast-orf" id="knownclusterblast-2_q3_0_all"  />
<polygon points="106,35 111,30 127,30 127,40 111,40 106,35 " style="fill:white; stroke-width:1; stroke:black; " description="&lt;b&gt;ctg11_120&lt;/b&gt;&lt;br&gt;ctg11 120&lt;br&gt;Location: 123835 - 124582" locus_tag="ctg11_120" class="clusterblast-orf" id="knownclusterblast-2_q4_0_all"  />
<polygon points="130,35 135,30 139,30 139,40 135,40 130,35 " style="fill:white; stroke-width:1; stroke:black; " description="&lt;b&gt;ctg11_121&lt;/b&gt;&lt;br&gt;ctg11 121&lt;br&gt;Location: 124683 - 125013" locus_tag="ctg11_121" class="clusterblast-orf" id="knownclusterblast-2_q5_0_all"  />
<polygon points="143,40 154,40 159,35 154,30 143,30 143,40 " style="fill:white; stroke-width:1; stroke:black; " description="&lt;b&gt;ctg11_122&lt;/b&gt;&lt;br&gt;ctg11 122&lt;br&gt;Location: 125174 - 125759" locus_tag="ctg11_122" class="clusterblast-orf" id="knownclusterblast-2_q6_0_all"  />
<polygon points="160,40 192,40 197,35 192,30 160,30 160,40 " style="fill:white; stroke-width:1; stroke:black; " description="&lt;b&gt;ctg11_123&lt;/b&gt;&lt;br&gt;ctg11 123&lt;br&gt;Location: 125784 - 127110" locus_tag="ctg11_123" class="clusterblast-orf" id="knownclusterblast-2_q7_0_all"  />
<polygon points="197,40 224,40 229,35 224,30 197,30 197,40 " style="fill:white; stroke-width:1; stroke:black; " description="&lt;b&gt;ctg11_124&lt;/b&gt;&lt;br&gt;ctg11 124&lt;br&gt;Location: 127106 - 128285" locus_tag="ctg11_124" class="clusterblast-orf" id="knownclusterblast-2_q8_0_all"  />
<polygon points="230,40 258,40 263,35 258,30 230,30 230,40 " style="fill:white; stroke-width:1; stroke:black; " description="&lt;b&gt;ctg11_125&lt;/b&gt;&lt;br&gt;ctg11 125&lt;br&gt;Location: 128307 - 129510" locus_tag="ctg11_125" class="clusterblast-orf" id="knownclusterblast-2_q9_0_all"  />
<polygon points="275,40 300,40 305,35 300,30 275,30 275,40 " style="fill:#d81515; stroke-width:1; stroke:black; " description="&lt;b&gt;ctg11_126&lt;/b&gt;&lt;br&gt;ctg11 126&lt;br&gt;Location: 129957 - 131052" locus_tag="ctg11_126" class="clusterblast-orf" id="knownclusterblast-2_q10_0_all"  />
<polygon points="306,40 312,40 317,35 312,30 306,30 306,40 " style="fill:#15d815; stroke-width:1; stroke:black; " description="&lt;b&gt;ctg11_127&lt;/b&gt;&lt;br&gt;ctg11 127&lt;br&gt;Location: 131075 - 131465" locus_tag="ctg11_127" class="clusterblast-orf" id="knownclusterblast-2_q11_0_all"  />
<polygon points="320,40 394,40 399,35 394,30 320,30 320,40 " style="fill:#1515d8; stroke-width:1; stroke:black; " description="&lt;b&gt;ctg11_128&lt;/b&gt;&lt;br&gt;ctg11 128&lt;br&gt;Location: 131582 - 134456" locus_tag="ctg11_128" class="clusterblast-orf" id="knownclusterblast-2_q12_0_all"  />
<polygon points="404,35 409,30 444,30 444,40 409,40 404,35 " style="fill:white; stroke-width:1; stroke:black; " description="&lt;b&gt;ctg11_129&lt;/b&gt;&lt;br&gt;ctg11 129&lt;br&gt;Location: 134621 - 136055" locus_tag="ctg11_129" class="clusterblast-orf" id="knownclusterblast-2_q13_0_all"  />
<polygon points="445,40 448,40 453,35 448,30 445,30 445,40 " style="fill:white; stroke-width:1; stroke:black; " description="&lt;b&gt;ctg11_130&lt;/b&gt;&lt;br&gt;ctg11 130&lt;br&gt;Location: 136099 - 136411" locus_tag="ctg11_130" class="clusterblast-orf" id="knownclusterblast-2_q14_0_all"  />
<polygon points="458,40 471,40 476,35 471,30 458,30 458,40 " style="fill:white; stroke-width:1; stroke:black; " description="&lt;b&gt;ctg11_131&lt;/b&gt;&lt;br&gt;ctg11 131&lt;br&gt;Location: 136574 - 137234" locus_tag="ctg11_131" class="clusterblast-orf" id="knownclusterblast-2_q15_0_all"  />
<polygon points="478,35 483,30 505,30 505,40 483,40 478,35 " style="fill:white; stroke-width:1; stroke:black; " description="&lt;b&gt;ctg11_132&lt;/b&gt;&lt;br&gt;ctg11 132&lt;br&gt;Location: 137310 - 138291" locus_tag="ctg11_132" class="clusterblast-orf" id="knownclusterblast-2_q16_0_all"  />
<polygon points="512,40 514,40 519,35 514,30 512,30 512,40 " style="fill:white; stroke-width:1; stroke:black; " description="&lt;b&gt;ctg11_133&lt;/b&gt;&lt;br&gt;ctg11 133&lt;br&gt;Location: 138533 - 138800" locus_tag="ctg11_133" class="clusterblast-orf" id="knownclusterblast-2_q17_0_all"  />
<polygon points="519,40 525,40 530,35 525,30 519,30 519,40 " style="fill:white; stroke-width:1; stroke:black; " description="&lt;b&gt;ctg11_134&lt;/b&gt;&lt;br&gt;ctg11 134&lt;br&gt;Location: 138780 - 139188" locus_tag="ctg11_134" class="clusterblast-orf" id="knownclusterblast-2_q18_0_all"  />
<polygon points="531,35 536,30 546,30 546,40 536,40 531,35 " style="fill:white; stroke-width:1; stroke:black; " description="&lt;b&gt;ctg11_135&lt;/b&gt;&lt;br&gt;ctg11 135&lt;br&gt;Location: 139227 - 139749" locus_tag="ctg11_135" class="clusterblast-orf" id="knownclusterblast-2_q19_0_all"  />
<polygon points="549,40 568,40 573,35 568,30 549,30 549,40 " style="fill:white; stroke-width:1; stroke:black; " description="&lt;b&gt;ctg11_136&lt;/b&gt;&lt;br&gt;ctg11 136&lt;br&gt;Location: 139860 - 140757" locus_tag="ctg11_136" class="clusterblast-orf" id="knownclusterblast-2_q20_0_all"  />
<polygon points="574,40 589,40 594,35 589,30 574,30 574,40 " style="fill:white; stroke-width:1; stroke:black; " description="&lt;b&gt;ctg11_137&lt;/b&gt;&lt;br&gt;ctg11 137&lt;br&gt;Location: 140781 - 141492" locus_tag="ctg11_137" class="clusterblast-orf" id="knownclusterblast-2_q21_0_all"  />
<polygon points="594,40 637,40 642,35 637,30 594,30 594,40 " style="fill:white; stroke-width:1; stroke:black; " description="&lt;b&gt;ctg11_138&lt;/b&gt;&lt;br&gt;ctg11 138&lt;br&gt;Location: 141497 - 143231" locus_tag="ctg11_138" class="clusterblast-orf" id="knownclusterblast-2_q22_0_all"  />
<polygon points="650,40 669,40 674,35 669,30 650,30 650,40 " style="fill:white; stroke-width:1; stroke:black; " description="&lt;b&gt;ctg11_139&lt;/b&gt;&lt;br&gt;ctg11 139&lt;br&gt;Location: 143538 - 144420" locus_tag="ctg11_139" class="clusterblast-orf" id="knownclusterblast-2_q23_0_all"  />
<polygon points="675,40 712,40 717,35 712,30 675,30 675,40 " style="fill:white; stroke-width:1; stroke:black; " description="&lt;b&gt;ctg11_140&lt;/b&gt;&lt;br&gt;ctg11 140&lt;br&gt;Location: 144429 - 145947" locus_tag="ctg11_140" class="clusterblast-orf" id="knownclusterblast-2_q24_0_all"  />
<polygon points="718,35 723,30 733,30 733,40 723,40 718,35 " style="fill:white; stroke-width:1; stroke:black; " description="&lt;b&gt;ctg11_141&lt;/b&gt;&lt;br&gt;ctg11 141&lt;br&gt;Location: 145989 - 146538" locus_tag="ctg11_141" class="clusterblast-orf" id="knownclusterblast-2_q25_0_all"  />
<polygon points="736,35 740,30 740,40 736,35 " style="fill:white; stroke-width:1; stroke:black; " description="&lt;b&gt;ctg11_142&lt;/b&gt;&lt;br&gt;ctg11 142&lt;br&gt;Location: 146660 - 146786" locus_tag="ctg11_142" class="clusterblast-orf" id="knownclusterblast-2_q26_0_all"  />
<polygon points="740,35 745,30 780,30 780,40 745,40 740,35 " style="fill:white; stroke-width:1; stroke:black; " description="&lt;b&gt;ctg11_143&lt;/b&gt;&lt;br&gt;ctg11 143&lt;br&gt;Location: 146787 - 148236" locus_tag="ctg11_143" class="clusterblast-orf" id="knownclusterblast-2_q27_0_all"  />
</g>
<g label="MGC00000027" description="MGC00000027_c1: Glycine cleavage C. sticklandii (80% of genes show similarity), GLY" class="clusterblast-cluster"  >
<text x="5" y="70" class="clusterblast-acc"  >
MGC00000027_c1: Glycine cleavage C. sticklandii (80% of genes show similarity), GLY</text>
<line x1="10" y1="85" x2="778.0" y2="85" style="stroke-width:1; stroke:grey; "  />
</g>
<g id="a2_000"  >
<polygon points="312,90 337,90 342,85 337,80 312,80 312,90 " style="fill:#d81515; stroke-width:1; stroke:black; " description="&lt;b&gt;CLOST_RS02260&lt;/b&gt;&lt;br&gt;glycine cleavage system protein T&lt;br&gt;Location: 18168 - 19266&lt;br&gt;&lt;br&gt;&lt;b&gt;BlastP hit with ctg11_126&lt;/b&gt;&lt;br&gt;Percentage identity: 36&lt;br&gt;Percentage coverage: 101&lt;br&gt;BLAST bit score: 223&lt;br&gt;E-value: 6.2e-72" locus_tag="CLOST_RS02260" class="clusterblast-orf" id="knownclusterblast-2_all_2_1_0"  />
</g>
<g id="a2_001"  >
<polygon points="345,90 351,90 356,85 351,80 345,80 345,90 " style="fill:#15d815; stroke-width:1; stroke:black; " description="&lt;b&gt;CLOST_RS02265&lt;/b&gt;&lt;br&gt;glycine cleavage system protein H&lt;br&gt;Location: 19377 - 19758&lt;br&gt;&lt;br&gt;&lt;b&gt;BlastP hit with ctg11_127&lt;/b&gt;&lt;br&gt;Percentage identity: 43&lt;br&gt;Percentage coverage: 96&lt;br&gt;BLAST bit score: 97&lt;br&gt;E-value: 4.14e-29" locus_tag="CLOST_RS02265" class="clusterblast-orf" id="knownclusterblast-2_all_2_1_1"  />
</g>
<g id="a2_002"  >
<polygon points="356,90 388,90 393,85 388,80 356,80 356,90 " style="fill:#1515d8; stroke-width:1; stroke:black; " description="&lt;b&gt;CLOST_RS02270&lt;/b&gt;&lt;br&gt;aminomethyl-transferring glycine dehydrogenase&lt;br&gt;Location: 19761 - 21105&lt;br&gt;&lt;br&gt;&lt;b&gt;BlastP hit with ctg11_128&lt;/b&gt;&lt;br&gt;Percentage identity: 33&lt;br&gt;Percentage coverage: 46&lt;br&gt;BLAST bit score: 188&lt;br&gt;E-value: 8.61e-54" locus_tag="CLOST_RS02270" class="clusterblast-orf" id="knownclusterblast-2_all_2_1_2"  />
</g>
<g id="a2_003"  >
<polygon points="393,90 428,90 433,85 428,80 393,80 393,90 " style="fill:#1515d8; stroke-width:1; stroke:black; " description="&lt;b&gt;CLOST_RS02275&lt;/b&gt;&lt;br&gt;glycine dehydrogenase subunit 2&lt;br&gt;Location: 21101 - 22559&lt;br&gt;&lt;br&gt;&lt;b&gt;BlastP hit with ctg11_128&lt;/b&gt;&lt;br&gt;Percentage identity: 40&lt;br&gt;Percentage coverage: 48&lt;br&gt;BLAST bit score: 311&lt;br&gt;E-value: 3.82e-98" locus_tag="CLOST_RS02275" class="clusterblast-orf" id="knownclusterblast-2_all_2_1_3"  />
</g>
<g id="a2_004"  >
<polygon points="434,85 439,80 467,80 467,90 439,90 434,85 " style="fill:white; stroke-width:1; stroke:black; " description="&lt;b&gt;CLOST_RS02280&lt;/b&gt;&lt;br&gt;pyridoxal phosphate-dependent aminotransferase&lt;br&gt;Location: 22614 - 23799" locus_tag="CLOST_RS02280" class="clusterblast-orf" id="knownclusterblast-2_all_2_1_4"  />
</g>
</svg>
