<svg xmlns="http://www.w3.org/2000/svg" xmlns:xlink="http://www.w3.org/1999/xlink" version="1.1" x="0" y="0" height="230" width="800" viewBox="0 0 800 230" preserveAspectRatio="none"  >
<g label="Query sequence" class="clusterblast-cluster"  >
<text x="5" y="20" class="clusterblast-acc"  >
Query sequence</text>
<line x1="10" y1="35" x2="778.0" y2="35" style="stroke-width:1; stroke:grey; "  />
<polygon points="0,35 5,30 48,30 48,40 5,40 0,35 " style="fill:white; stroke-width:1; stroke:black; " description="&lt;b&gt;ctg125_107&lt;/b&gt;&lt;br&gt;ctg125 107&lt;br&gt;Location: 109082 - 110315" locus_tag="ctg125_107" class="clusterblast-orf" id="dummy-1_q0_0_all"  />
<polygon points="58,40 92,40 97,35 92,30 58,30 58,40 " style="fill:white; stroke-width:1; stroke:black; " description="&lt;b&gt;ctg125_108&lt;/b&gt;&lt;br&gt;ctg125 108&lt;br&gt;Location: 110569 - 111553" locus_tag="ctg125_108" class="clusterblast-orf" id="dummy-1_q1_0_all"  />
<polygon points="107,40 109,40 114,35 109,30 107,30 107,40 " style="fill:white; stroke-width:1; stroke:black; " description="&lt;b&gt;ctg125_109&lt;/b&gt;&lt;br&gt;ctg125 109&lt;br&gt;Location: 111827 - 112001" locus_tag="ctg125_109" class="clusterblast-orf" id="dummy-1_q2_0_all"  />
<polygon points="115,40 164,40 169,35 164,30 115,30 115,40 " style="fill:white; stroke-width:1; stroke:black; " description="&lt;b&gt;ctg125_110&lt;/b&gt;&lt;br&gt;ctg125 110&lt;br&gt;Location: 112030 - 113404" locus_tag="ctg125_110" class="clusterblast-orf" id="dummy-1_q3_0_all"  />
<polygon points="174,35 179,30 211,30 211,40 179,40 174,35 " style="fill:white; stroke-width:1; stroke:black; " description="&lt;b&gt;ctg125_111&lt;/b&gt;&lt;br&gt;ctg125 111&lt;br&gt;Location: 113532 - 114468" locus_tag="ctg125_111" class="clusterblast-orf" id="dummy-1_q4_0_all"  />
<polygon points="284,35 289,30 294,30 294,40 289,40 284,35 " style="fill:white; stroke-width:1; stroke:black; " description="&lt;b&gt;ctg125_112&lt;/b&gt;&lt;br&gt;ctg125 112&lt;br&gt;Location: 116336 - 116606" locus_tag="ctg125_112" class="clusterblast-orf" id="dummy-1_q5_0_all"  />
<polygon points="302,35 307,30 319,30 319,40 307,40 302,35 " style="fill:white; stroke-width:1; stroke:black; " description="&lt;b&gt;ctg125_113&lt;/b&gt;&lt;br&gt;ctg125 113&lt;br&gt;Location: 116793 - 117228" locus_tag="ctg125_113" class="clusterblast-orf" id="dummy-1_q6_0_all"  />
<polygon points="327,35 332,30 372,30 372,40 332,40 327,35 " style="fill:white; stroke-width:1; stroke:black; " description="&lt;b&gt;ctg125_114&lt;/b&gt;&lt;br&gt;ctg125 114&lt;br&gt;Location: 117449 - 118583" locus_tag="ctg125_114" class="clusterblast-orf" id="dummy-1_q7_0_all"  />
<polygon points="386,35 391,30 524,30 524,40 391,40 386,35 " style="fill:#d81515; stroke-width:1; stroke:black; " description="&lt;b&gt;ctg125_115&lt;/b&gt;&lt;br&gt;ctg125 115&lt;br&gt;Location: 118948 - 122473" locus_tag="ctg125_115" class="clusterblast-orf" id="dummy-1_q8_0_all"  />
<polygon points="534,40 540,40 545,35 540,30 534,30 534,40 " style="fill:white; stroke-width:1; stroke:black; " description="&lt;b&gt;ctg125_116&lt;/b&gt;&lt;br&gt;ctg125 116&lt;br&gt;Location: 122746 - 123013" locus_tag="ctg125_116" class="clusterblast-orf" id="dummy-1_q9_0_all"  />
<polygon points="545,35 550,30 561,30 561,40 550,40 545,35 " style="fill:white; stroke-width:1; stroke:black; " description="&lt;b&gt;ctg125_117&lt;/b&gt;&lt;br&gt;ctg125 117&lt;br&gt;Location: 123009 - 123432" locus_tag="ctg125_117" class="clusterblast-orf" id="dummy-1_q10_0_all"  />
<polygon points="566,35 571,30 604,30 604,40 571,40 566,35 " style="fill:white; stroke-width:1; stroke:black; " description="&lt;b&gt;ctg125_118&lt;/b&gt;&lt;br&gt;ctg125 118&lt;br&gt;Location: 123542 - 124532" locus_tag="ctg125_118" class="clusterblast-orf" id="dummy-1_q11_0_all"  />
<polygon points="612,40 711,40 716,35 711,30 612,30 612,40 " style="fill:white; stroke-width:1; stroke:black; " description="&lt;b&gt;ctg125_119&lt;/b&gt;&lt;br&gt;ctg125 119&lt;br&gt;Location: 124739 - 127379" locus_tag="ctg125_119" class="clusterblast-orf" id="dummy-1_q12_0_all"  />
<polygon points="716,40 718,40 723,35 718,30 716,30 716,40 " style="fill:white; stroke-width:1; stroke:black; " description="&lt;b&gt;ctg125_120&lt;/b&gt;&lt;br&gt;ctg125 120&lt;br&gt;Location: 127375 - 127561" locus_tag="ctg125_120" class="clusterblast-orf" id="dummy-1_q13_0_all"  />
<polygon points="723,40 731,40 736,35 731,30 723,30 723,40 " style="fill:white; stroke-width:1; stroke:black; " description="&lt;b&gt;ctg125_121&lt;/b&gt;&lt;br&gt;ctg125 121&lt;br&gt;Location: 127568 - 127895" locus_tag="ctg125_121" class="clusterblast-orf" id="dummy-1_q14_0_all"  />
<polygon points="751,40 775,40 780,35 775,30 751,30 751,40 " style="fill:white; stroke-width:1; stroke:black; " description="&lt;b&gt;ctg125_122&lt;/b&gt;&lt;br&gt;ctg125 122&lt;br&gt;Location: 128270 - 129020" locus_tag="ctg125_122" class="clusterblast-orf" id="dummy-1_q15_0_all"  />
</g>
<g label="MGC00000033" description="MGC00000033_c1: PFOR II pathway B. thetaiotaomicron (100% of genes show similarity), PFORII" class="clusterblast-cluster"  >
<text x="5" y="70" class="clusterblast-acc"  >
MGC00000033_c1: PFOR II pathway B. thetaiotaomicron (100% of genes show similarity), PFORII</text>
<line x1="10" y1="85" x2="778.0" y2="85" style="stroke-width:1; stroke:grey; "  />
</g>
<g id="a1_000"  >
<polygon points="320,85 325,80 459,80 459,90 325,90 320,85 " style="fill:#d81515; stroke-width:1; stroke:black; " description="&lt;b&gt;BT_1747&lt;/b&gt;&lt;br&gt;pyruvate-flavodoxin oxidoreductase&lt;br&gt;Location: 13558 - 10000&lt;br&gt;&lt;br&gt;&lt;b&gt;BlastP hit with ctg125_115&lt;/b&gt;&lt;br&gt;Percentage identity: 48&lt;br&gt;Percentage coverage: 101&lt;br&gt;BLAST bit score: 1045&lt;br&gt;E-value: 0.0" locus_tag="BT_1747" class="clusterblast-orf" id="dummy-1_h1_1_0"  />
</g>
</svg>
