<svg xmlns="http://www.w3.org/2000/svg" xmlns:xlink="http://www.w3.org/1999/xlink" version="1.1" x="0" y="0" height="230" width="800" viewBox="0 0 800 230" preserveAspectRatio="none"  >
<g label="Query sequence" class="clusterblast-cluster"  >
<text x="5" y="20" class="clusterblast-acc"  >
Query sequence</text>
<line x1="10" y1="35" x2="778.0" y2="35" style="stroke-width:1; stroke:grey; "  />
<polygon points="0,35 5,30 19,30 19,40 5,40 0,35 " style="fill:white; stroke-width:1; stroke:black; " description="&lt;b&gt;ctg55_239&lt;/b&gt;&lt;br&gt;ctg55 239&lt;br&gt;Location: 233228 - 233912" locus_tag="ctg55_239" class="clusterblast-orf" id="dummy-1_q0_0_all"  />
<polygon points="24,35 29,30 45,30 45,40 29,40 24,35 " style="fill:white; stroke-width:1; stroke:black; " description="&lt;b&gt;ctg55_240&lt;/b&gt;&lt;br&gt;ctg55 240&lt;br&gt;Location: 234084 - 234849" locus_tag="ctg55_240" class="clusterblast-orf" id="dummy-1_q1_0_all"  />
<polygon points="50,35 55,30 86,30 86,40 55,40 50,35 " style="fill:white; stroke-width:1; stroke:black; " description="&lt;b&gt;ctg55_241&lt;/b&gt;&lt;br&gt;ctg55 241&lt;br&gt;Location: 235018 - 236302" locus_tag="ctg55_241" class="clusterblast-orf" id="dummy-1_q2_0_all"  />
<polygon points="88,35 93,30 119,30 119,40 93,40 88,35 " style="fill:white; stroke-width:1; stroke:black; " description="&lt;b&gt;ctg55_242&lt;/b&gt;&lt;br&gt;ctg55 242&lt;br&gt;Location: 236372 - 237461" locus_tag="ctg55_242" class="clusterblast-orf" id="dummy-1_q3_0_all"  />
<polygon points="124,35 129,30 144,30 144,40 129,40 124,35 " style="fill:white; stroke-width:1; stroke:black; " description="&lt;b&gt;ctg55_243&lt;/b&gt;&lt;br&gt;ctg55 243&lt;br&gt;Location: 237659 - 238352" locus_tag="ctg55_243" class="clusterblast-orf" id="dummy-1_q4_0_all"  />
<polygon points="148,40 192,40 197,35 192,30 148,30 148,40 " style="fill:white; stroke-width:1; stroke:black; " description="&lt;b&gt;ctg55_244&lt;/b&gt;&lt;br&gt;ctg55 244&lt;br&gt;Location: 238481 - 240242" locus_tag="ctg55_244" class="clusterblast-orf" id="dummy-1_q5_0_all"  />
<polygon points="201,40 228,40 233,35 228,30 201,30 201,40 " style="fill:white; stroke-width:1; stroke:black; " description="&lt;b&gt;ctg55_245&lt;/b&gt;&lt;br&gt;ctg55 245&lt;br&gt;Location: 240374 - 241505" locus_tag="ctg55_245" class="clusterblast-orf" id="dummy-1_q6_0_all"  />
<polygon points="234,40 293,40 298,35 293,30 234,30 234,40 " style="fill:#d81515; stroke-width:1; stroke:black; " description="&lt;b&gt;ctg55_246&lt;/b&gt;&lt;br&gt;ctg55 246&lt;br&gt;Location: 241559 - 243842" locus_tag="ctg55_246" class="clusterblast-orf" id="dummy-1_q7_0_all"  />
<polygon points="304,40 320,40 325,35 320,30 304,30 304,40 " style="fill:#15d863; stroke-width:1; stroke:black; " description="&lt;b&gt;ctg55_247&lt;/b&gt;&lt;br&gt;ctg55 247&lt;br&gt;Location: 244033 - 244774" locus_tag="ctg55_247" class="clusterblast-orf" id="dummy-1_q8_0_all"  />
<polygon points="327,35 332,30 359,30 359,40 332,40 327,35 " style="fill:white; stroke-width:1; stroke:black; " description="&lt;b&gt;ctg55_248&lt;/b&gt;&lt;br&gt;ctg55 248&lt;br&gt;Location: 244870 - 245995" locus_tag="ctg55_248" class="clusterblast-orf" id="dummy-1_q9_0_all"  />
<polygon points="368,40 381,40 386,35 381,30 368,30 368,40 " style="fill:white; stroke-width:1; stroke:black; " description="&lt;b&gt;ctg55_249&lt;/b&gt;&lt;br&gt;ctg55 249&lt;br&gt;Location: 246332 - 246959" locus_tag="ctg55_249" class="clusterblast-orf" id="dummy-1_q10_0_all"  />
<polygon points="390,35 395,30 415,30 415,40 395,40 390,35 " style="fill:#1563d8; stroke-width:1; stroke:black; " description="&lt;b&gt;ctg55_250&lt;/b&gt;&lt;br&gt;ctg55 250&lt;br&gt;Location: 247115 - 247979" locus_tag="ctg55_250" class="clusterblast-orf" id="dummy-1_q11_0_all"  />
<polygon points="415,35 420,30 432,30 432,40 420,40 415,35 " style="fill:#b115d8; stroke-width:1; stroke:black; " description="&lt;b&gt;ctg55_251&lt;/b&gt;&lt;br&gt;ctg55 251&lt;br&gt;Location: 247980 - 248598" locus_tag="ctg55_251" class="clusterblast-orf" id="dummy-1_q12_0_all"  />
<polygon points="432,35 437,30 501,30 501,40 437,40 432,35 " style="fill:#b1d815; stroke-width:1; stroke:black; " description="&lt;b&gt;ctg55_252&lt;/b&gt;&lt;br&gt;ctg55 252&lt;br&gt;Location: 248608 - 251053" locus_tag="ctg55_252" class="clusterblast-orf" id="dummy-1_q13_0_all"  />
<polygon points="508,35 513,30 544,30 544,40 513,40 508,35 " style="fill:white; stroke-width:1; stroke:black; " description="&lt;b&gt;ctg55_253&lt;/b&gt;&lt;br&gt;ctg55 253&lt;br&gt;Location: 251291 - 252584" locus_tag="ctg55_253" class="clusterblast-orf" id="dummy-1_q14_0_all"  />
<polygon points="547,35 552,30 585,30 585,40 552,40 547,35 " style="fill:white; stroke-width:1; stroke:black; " description="&lt;b&gt;ctg55_254&lt;/b&gt;&lt;br&gt;ctg55 254&lt;br&gt;Location: 252674 - 254018" locus_tag="ctg55_254" class="clusterblast-orf" id="dummy-1_q15_0_all"  />
<polygon points="585,35 590,30 602,30 602,40 590,40 585,35 " style="fill:white; stroke-width:1; stroke:black; " description="&lt;b&gt;ctg55_255&lt;/b&gt;&lt;br&gt;ctg55 255&lt;br&gt;Location: 254028 - 254640" locus_tag="ctg55_255" class="clusterblast-orf" id="dummy-1_q16_0_all"  />
<polygon points="607,35 612,30 720,30 720,40 612,40 607,35 " style="fill:white; stroke-width:1; stroke:black; " description="&lt;b&gt;ctg55_256&lt;/b&gt;&lt;br&gt;ctg55 256&lt;br&gt;Location: 254798 - 258818" locus_tag="ctg55_256" class="clusterblast-orf" id="dummy-1_q17_0_all"  />
<polygon points="723,35 728,30 737,30 737,40 728,40 723,35 " style="fill:white; stroke-width:1; stroke:black; " description="&lt;b&gt;ctg55_257&lt;/b&gt;&lt;br&gt;ctg55 257&lt;br&gt;Location: 258952 - 259447" locus_tag="ctg55_257" class="clusterblast-orf" id="dummy-1_q18_0_all"  />
<polygon points="750,40 775,40 780,35 775,30 750,30 750,40 " style="fill:white; stroke-width:1; stroke:black; " description="&lt;b&gt;ctg55_258&lt;/b&gt;&lt;br&gt;ctg55 258&lt;br&gt;Location: 259885 - 260956" locus_tag="ctg55_258" class="clusterblast-orf" id="dummy-1_q19_0_all"  />
</g>
<g label="MGC00000044" description="MGC00000044_c1: Pyruvate to acetate-formate E. coli (100% of genes show similarity), PFL_acetate" class="clusterblast-cluster"  >
<text x="5" y="70" class="clusterblast-acc"  >
MGC00000044_c1: Pyruvate to acetate-formate E. coli (100% of genes show similarity), PFL_acetate</text>
<line x1="10" y1="85" x2="778.0" y2="85" style="stroke-width:1; stroke:grey; "  />
</g>
<g id="a1_000"  >
<polygon points="344,90 403,90 408,85 403,80 344,80 344,90 " style="fill:#d81515; stroke-width:1; stroke:black; " description="&lt;b&gt;b0903&lt;/b&gt;&lt;br&gt;pyruvate formate-lyase&lt;br&gt;Location: 13215 - 10932&lt;br&gt;&lt;br&gt;&lt;b&gt;BlastP hit with ctg55_246&lt;/b&gt;&lt;br&gt;Percentage identity: 100&lt;br&gt;Percentage coverage: 100&lt;br&gt;BLAST bit score: 1518&lt;br&gt;E-value: 0.0" locus_tag="b0903" class="clusterblast-orf" id="dummy-1_h1_2_0"  />
</g>
<g id="a1_001"  >
<polygon points="414,90 430,90 435,85 430,80 414,80 414,90 " style="fill:#15d863; stroke-width:1; stroke:black; " description="&lt;b&gt;b0902&lt;/b&gt;&lt;br&gt;pyruvate formate-lyase activating enzyme&lt;br&gt;Location: 10741 - 10000&lt;br&gt;&lt;br&gt;&lt;b&gt;BlastP hit with ctg55_247&lt;/b&gt;&lt;br&gt;Percentage identity: 100&lt;br&gt;Percentage coverage: 100&lt;br&gt;BLAST bit score: 521&lt;br&gt;E-value: 5.76e-193" locus_tag="b0902" class="clusterblast-orf" id="dummy-1_h1_2_1"  />
</g>
</svg>
