<svg xmlns="http://www.w3.org/2000/svg" xmlns:xlink="http://www.w3.org/1999/xlink" version="1.1" x="0" y="0" height="50" width="800" viewBox="0 0 800 50" preserveAspectRatio="none"  >
<g label="Query sequence" class="clusterblast-cluster"  >
<text x="5" y="20" class="clusterblast-acc"  >
Query sequence</text>
<line x1="10" y1="35" x2="778.0" y2="35" style="stroke-width:1; stroke:grey; "  />
<polygon points="0,40 71,40 76,35 71,30 0,30 0,40 " style="fill:white; stroke-width:1; stroke:black; " description="&lt;b&gt;ctg52_148&lt;/b&gt;&lt;br&gt;ctg52 148&lt;br&gt;Location: 166252 - 168145" locus_tag="ctg52_148" class="clusterblast-orf" id="knownclusterblast-2_q0_0_all"  />
<polygon points="89,40 141,40 146,35 141,30 89,30 89,40 " style="fill:white; stroke-width:1; stroke:black; " description="&lt;b&gt;ctg52_149&lt;/b&gt;&lt;br&gt;ctg52 149&lt;br&gt;Location: 168478 - 169903" locus_tag="ctg52_149" class="clusterblast-orf" id="knownclusterblast-2_q1_0_all"  />
<polygon points="156,35 161,30 226,30 226,40 161,40 156,35 " style="fill:white; stroke-width:1; stroke:black; " description="&lt;b&gt;ctg52_150&lt;/b&gt;&lt;br&gt;ctg52 150&lt;br&gt;Location: 170144 - 171902" locus_tag="ctg52_150" class="clusterblast-orf" id="knownclusterblast-2_q2_0_all"  />
<polygon points="241,40 340,40 345,35 340,30 241,30 241,40 " style="fill:white; stroke-width:1; stroke:black; " description="&lt;b&gt;ctg52_151&lt;/b&gt;&lt;br&gt;ctg52 151&lt;br&gt;Location: 172255 - 174853" locus_tag="ctg52_151" class="clusterblast-orf" id="knownclusterblast-2_q3_0_all"  />
<polygon points="352,40 361,40 366,35 361,30 352,30 352,40 " style="fill:white; stroke-width:1; stroke:black; " description="&lt;b&gt;ctg52_152&lt;/b&gt;&lt;br&gt;ctg52 152&lt;br&gt;Location: 175027 - 175390" locus_tag="ctg52_152" class="clusterblast-orf" id="knownclusterblast-2_q4_0_all"  />
<polygon points="368,35 373,30 400,30 400,40 373,40 368,35 " style="fill:white; stroke-width:1; stroke:black; " description="&lt;b&gt;ctg52_153&lt;/b&gt;&lt;br&gt;ctg52 153&lt;br&gt;Location: 175427 - 176222" locus_tag="ctg52_153" class="clusterblast-orf" id="knownclusterblast-2_q5_0_all"  />
<polygon points="400,35 405,30 435,30 435,40 405,40 400,35 " style="fill:white; stroke-width:1; stroke:black; " description="&lt;b&gt;ctg52_154&lt;/b&gt;&lt;br&gt;ctg52 154&lt;br&gt;Location: 176237 - 177104" locus_tag="ctg52_154" class="clusterblast-orf" id="knownclusterblast-2_q6_0_all"  />
<polygon points="439,35 444,30 451,30 451,40 444,40 439,35 " style="fill:white; stroke-width:1; stroke:black; " description="&lt;b&gt;ctg52_155&lt;/b&gt;&lt;br&gt;ctg52 155&lt;br&gt;Location: 177209 - 177518" locus_tag="ctg52_155" class="clusterblast-orf" id="knownclusterblast-2_q7_0_all"  />
<polygon points="460,40 517,40 522,35 517,30 460,30 460,40 " style="fill:white; stroke-width:1; stroke:black; " description="&lt;b&gt;ctg52_156&lt;/b&gt;&lt;br&gt;ctg52 156&lt;br&gt;Location: 177722 - 179273" locus_tag="ctg52_156" class="clusterblast-orf" id="knownclusterblast-2_q8_0_all"  />
<polygon points="532,35 537,30 628,30 628,40 537,40 532,35 " style="fill:white; stroke-width:1; stroke:black; " description="&lt;b&gt;ctg52_157&lt;/b&gt;&lt;br&gt;ctg52 157&lt;br&gt;Location: 179529 - 181920" locus_tag="ctg52_157" class="clusterblast-orf" id="knownclusterblast-2_q9_0_all"  />
<polygon points="636,40 653,40 658,35 653,30 636,30 636,40 " style="fill:white; stroke-width:1; stroke:black; " description="&lt;b&gt;ctg52_158&lt;/b&gt;&lt;br&gt;ctg52 158&lt;br&gt;Location: 182113 - 182662" locus_tag="ctg52_158" class="clusterblast-orf" id="knownclusterblast-2_q10_0_all"  />
<polygon points="659,35 664,30 686,30 686,40 664,40 659,35 " style="fill:white; stroke-width:1; stroke:black; " description="&lt;b&gt;ctg52_159&lt;/b&gt;&lt;br&gt;ctg52 159&lt;br&gt;Location: 182702 - 183365" locus_tag="ctg52_159" class="clusterblast-orf" id="knownclusterblast-2_q11_0_all"  />
<polygon points="690,40 722,40 727,35 722,30 690,30 690,40 " style="fill:white; stroke-width:1; stroke:black; " description="&lt;b&gt;ctg52_160&lt;/b&gt;&lt;br&gt;ctg52 160&lt;br&gt;Location: 183473 - 184400" locus_tag="ctg52_160" class="clusterblast-orf" id="knownclusterblast-2_q12_0_all"  />
<polygon points="727,40 753,40 758,35 753,30 727,30 727,40 " style="fill:white; stroke-width:1; stroke:black; " description="&lt;b&gt;ctg52_161&lt;/b&gt;&lt;br&gt;ctg52 161&lt;br&gt;Location: 184396 - 185167" locus_tag="ctg52_161" class="clusterblast-orf" id="knownclusterblast-2_q13_0_all"  />
<polygon points="762,40 775,40 780,35 775,30 762,30 762,40 " style="fill:white; stroke-width:1; stroke:black; " description="&lt;b&gt;ctg52_162&lt;/b&gt;&lt;br&gt;ctg52 162&lt;br&gt;Location: 185271 - 185712" locus_tag="ctg52_162" class="clusterblast-orf" id="knownclusterblast-2_q14_0_all"  />
</g>
</svg>
