<svg xmlns="http://www.w3.org/2000/svg" xmlns:xlink="http://www.w3.org/1999/xlink" version="1.1" x="0" y="0" height="50" width="800" viewBox="0 0 800 50" preserveAspectRatio="none"  >
<g label="Query sequence" class="clusterblast-cluster"  >
<text x="5" y="20" class="clusterblast-acc"  >
Query sequence</text>
<line x1="10" y1="35" x2="778.0" y2="35" style="stroke-width:1; stroke:grey; "  />
<polygon points="0,35 5,30 32,30 32,40 5,40 0,35 " style="fill:white; stroke-width:1; stroke:black; " description="&lt;b&gt;ctg44_19&lt;/b&gt;&lt;br&gt;ctg44 19&lt;br&gt;Location: 16575 - 17508" locus_tag="ctg44_19" class="clusterblast-orf" id="knownclusterblast-1_q0_0_all"  />
<polygon points="37,40 51,40 56,35 51,30 37,30 37,40 " style="fill:white; stroke-width:1; stroke:black; " description="&lt;b&gt;ctg44_20&lt;/b&gt;&lt;br&gt;ctg44 20&lt;br&gt;Location: 17673 - 18225" locus_tag="ctg44_20" class="clusterblast-orf" id="knownclusterblast-1_q1_0_all"  />
<polygon points="67,35 72,30 96,30 96,40 72,40 67,35 " style="fill:white; stroke-width:1; stroke:black; " description="&lt;b&gt;ctg44_21&lt;/b&gt;&lt;br&gt;ctg44 21&lt;br&gt;Location: 18544 - 19402" locus_tag="ctg44_21" class="clusterblast-orf" id="knownclusterblast-1_q2_0_all"  />
<polygon points="96,35 101,30 114,30 114,40 101,40 96,35 " style="fill:white; stroke-width:1; stroke:black; " description="&lt;b&gt;ctg44_22&lt;/b&gt;&lt;br&gt;ctg44 22&lt;br&gt;Location: 19403 - 19931" locus_tag="ctg44_22" class="clusterblast-orf" id="knownclusterblast-1_q3_0_all"  />
<polygon points="114,35 119,30 130,30 130,40 119,40 114,35 " style="fill:white; stroke-width:1; stroke:black; " description="&lt;b&gt;ctg44_23&lt;/b&gt;&lt;br&gt;ctg44 23&lt;br&gt;Location: 19927 - 20407" locus_tag="ctg44_23" class="clusterblast-orf" id="knownclusterblast-1_q4_0_all"  />
<polygon points="130,35 135,30 147,30 147,40 135,40 130,35 " style="fill:white; stroke-width:1; stroke:black; " description="&lt;b&gt;ctg44_24&lt;/b&gt;&lt;br&gt;ctg44 24&lt;br&gt;Location: 20403 - 20907" locus_tag="ctg44_24" class="clusterblast-orf" id="knownclusterblast-1_q5_0_all"  />
<polygon points="147,35 152,30 173,30 173,40 152,40 147,35 " style="fill:white; stroke-width:1; stroke:black; " description="&lt;b&gt;ctg44_25&lt;/b&gt;&lt;br&gt;ctg44 25&lt;br&gt;Location: 20923 - 21676" locus_tag="ctg44_25" class="clusterblast-orf" id="knownclusterblast-1_q6_0_all"  />
<polygon points="174,35 179,30 264,30 264,40 179,40 174,35 " style="fill:white; stroke-width:1; stroke:black; " description="&lt;b&gt;ctg44_26&lt;/b&gt;&lt;br&gt;ctg44 26&lt;br&gt;Location: 21695 - 24344" locus_tag="ctg44_26" class="clusterblast-orf" id="knownclusterblast-1_q7_0_all"  />
<polygon points="266,35 271,30 285,30 285,40 271,40 266,35 " style="fill:white; stroke-width:1; stroke:black; " description="&lt;b&gt;ctg44_27&lt;/b&gt;&lt;br&gt;ctg44 27&lt;br&gt;Location: 24424 - 24991" locus_tag="ctg44_27" class="clusterblast-orf" id="knownclusterblast-1_q8_0_all"  />
<polygon points="305,35 310,30 321,30 321,40 310,40 305,35 " style="fill:white; stroke-width:1; stroke:black; " description="&lt;b&gt;ctg44_28&lt;/b&gt;&lt;br&gt;ctg44 28&lt;br&gt;Location: 25557 - 26028" locus_tag="ctg44_28" class="clusterblast-orf" id="knownclusterblast-1_q9_0_all"  />
<polygon points="319,35 324,30 327,30 327,40 324,40 319,35 " style="fill:white; stroke-width:1; stroke:black; " description="&lt;b&gt;ctg44_29&lt;/b&gt;&lt;br&gt;ctg44 29&lt;br&gt;Location: 25973 - 26222" locus_tag="ctg44_29" class="clusterblast-orf" id="knownclusterblast-1_q10_0_all"  />
<polygon points="332,35 337,30 404,30 404,40 337,40 332,35 " style="fill:white; stroke-width:1; stroke:black; " description="&lt;b&gt;ctg44_30&lt;/b&gt;&lt;br&gt;ctg44 30&lt;br&gt;Location: 26348 - 28493" locus_tag="ctg44_30" class="clusterblast-orf" id="knownclusterblast-1_q11_0_all"  />
<polygon points="404,35 409,30 449,30 449,40 409,40 404,35 " style="fill:white; stroke-width:1; stroke:black; " description="&lt;b&gt;ctg44_31&lt;/b&gt;&lt;br&gt;ctg44 31&lt;br&gt;Location: 28492 - 29803" locus_tag="ctg44_31" class="clusterblast-orf" id="knownclusterblast-1_q12_0_all"  />
<polygon points="458,35 463,30 468,30 468,40 463,40 458,35 " style="fill:white; stroke-width:1; stroke:black; " description="&lt;b&gt;ctg44_32&lt;/b&gt;&lt;br&gt;ctg44 32&lt;br&gt;Location: 30085 - 30370" locus_tag="ctg44_32" class="clusterblast-orf" id="knownclusterblast-1_q13_0_all"  />
<polygon points="481,40 521,40 526,35 521,30 481,30 481,40 " style="fill:white; stroke-width:1; stroke:black; " description="&lt;b&gt;ctg44_33&lt;/b&gt;&lt;br&gt;ctg44 33&lt;br&gt;Location: 30741 - 32082" locus_tag="ctg44_33" class="clusterblast-orf" id="knownclusterblast-1_q14_0_all"  />
<polygon points="528,35 533,30 554,30 554,40 533,40 528,35 " style="fill:white; stroke-width:1; stroke:black; " description="&lt;b&gt;ctg44_34&lt;/b&gt;&lt;br&gt;ctg44 34&lt;br&gt;Location: 32143 - 32899" locus_tag="ctg44_34" class="clusterblast-orf" id="knownclusterblast-1_q15_0_all"  />
<polygon points="564,40 590,40 595,35 590,30 564,30 564,40 " style="fill:white; stroke-width:1; stroke:black; " description="&lt;b&gt;ctg44_35&lt;/b&gt;&lt;br&gt;ctg44 35&lt;br&gt;Location: 33192 - 34125" locus_tag="ctg44_35" class="clusterblast-orf" id="knownclusterblast-1_q16_0_all"  />
<polygon points="598,35 602,30 602,40 598,35 " style="fill:white; stroke-width:1; stroke:black; " description="&lt;b&gt;ctg44_36&lt;/b&gt;&lt;br&gt;ctg44 36&lt;br&gt;Location: 34206 - 34332" locus_tag="ctg44_36" class="clusterblast-orf" id="knownclusterblast-1_q17_0_all"  />
<polygon points="615,35 620,30 651,30 651,40 620,40 615,35 " style="fill:white; stroke-width:1; stroke:black; " description="&lt;b&gt;ctg44_37&lt;/b&gt;&lt;br&gt;ctg44 37&lt;br&gt;Location: 34714 - 35776" locus_tag="ctg44_37" class="clusterblast-orf" id="knownclusterblast-1_q18_0_all"  />
<polygon points="660,35 665,30 691,30 691,40 665,40 660,35 " style="fill:white; stroke-width:1; stroke:black; " description="&lt;b&gt;ctg44_38&lt;/b&gt;&lt;br&gt;ctg44 38&lt;br&gt;Location: 36030 - 36948" locus_tag="ctg44_38" class="clusterblast-orf" id="knownclusterblast-1_q19_0_all"  />
<polygon points="694,40 697,35 694,30 694,40 " style="fill:white; stroke-width:1; stroke:black; " description="&lt;b&gt;ctg44_39&lt;/b&gt;&lt;br&gt;ctg44 39&lt;br&gt;Location: 37026 - 37122" locus_tag="ctg44_39" class="clusterblast-orf" id="knownclusterblast-1_q20_0_all"  />
<polygon points="699,40 742,40 747,35 742,30 699,30 699,40 " style="fill:white; stroke-width:1; stroke:black; " description="&lt;b&gt;ctg44_40&lt;/b&gt;&lt;br&gt;ctg44 40&lt;br&gt;Location: 37163 - 38597" locus_tag="ctg44_40" class="clusterblast-orf" id="knownclusterblast-1_q21_0_all"  />
<polygon points="747,35 752,30 780,30 780,40 752,40 747,35 " style="fill:white; stroke-width:1; stroke:black; " description="&lt;b&gt;ctg44_41&lt;/b&gt;&lt;br&gt;ctg44 41&lt;br&gt;Location: 38604 - 39558" locus_tag="ctg44_41" class="clusterblast-orf" id="knownclusterblast-1_q22_0_all"  />
</g>
</svg>
