<svg xmlns="http://www.w3.org/2000/svg" xmlns:xlink="http://www.w3.org/1999/xlink" version="1.1" x="0" y="0" height="100" width="800" viewBox="0 0 800 100" preserveAspectRatio="none"  >
<g label="Query sequence" class="clusterblast-cluster"  >
<text x="5" y="20" class="clusterblast-acc"  >
Query sequence</text>
<line x1="10" y1="35" x2="778.0" y2="35" style="stroke-width:1; stroke:grey; "  />
<polygon points="0,35 5,30 51,30 51,40 5,40 0,35 " style="fill:#d81515; stroke-width:1; stroke:black; " description="&lt;b&gt;ctg6_1&lt;/b&gt;&lt;br&gt;ctg6 1&lt;br&gt;Location: 30 - 747" locus_tag="ctg6_1" class="clusterblast-orf" id="knownclusterblast-1_q0_0_all"  />
<polygon points="52,35 57,30 147,30 147,40 57,40 52,35 " style="fill:#15d8d8; stroke-width:1; stroke:black; " description="&lt;b&gt;ctg6_2&lt;/b&gt;&lt;br&gt;ctg6 2&lt;br&gt;Location: 762 - 2094" locus_tag="ctg6_2" class="clusterblast-orf" id="knownclusterblast-1_q1_0_all"  />
<polygon points="145,35 150,30 186,30 186,40 150,40 145,35 " style="fill:#15d8d8; stroke-width:1; stroke:black; " description="&lt;b&gt;ctg6_3&lt;/b&gt;&lt;br&gt;ctg6 3&lt;br&gt;Location: 2066 - 2636" locus_tag="ctg6_3" class="clusterblast-orf" id="knownclusterblast-1_q2_0_all"  />
<polygon points="186,35 191,30 211,30 211,40 191,40 186,35 " style="fill:white; stroke-width:1; stroke:black; " description="&lt;b&gt;ctg6_4&lt;/b&gt;&lt;br&gt;ctg6 4&lt;br&gt;Location: 2635 - 2983" locus_tag="ctg6_4" class="clusterblast-orf" id="knownclusterblast-1_q3_0_all"  />
<polygon points="210,35 215,30 238,30 238,40 215,40 210,35 " style="fill:white; stroke-width:1; stroke:black; " description="&lt;b&gt;ctg6_5&lt;/b&gt;&lt;br&gt;ctg6 5&lt;br&gt;Location: 2976 - 3366" locus_tag="ctg6_5" class="clusterblast-orf" id="knownclusterblast-1_q4_0_all"  />
<polygon points="266,40 269,40 274,35 269,30 266,30 266,40 " style="fill:white; stroke-width:1; stroke:black; " description="&lt;b&gt;ctg6_6&lt;/b&gt;&lt;br&gt;ctg6 6&lt;br&gt;Location: 3761 - 3869" locus_tag="ctg6_6" class="clusterblast-orf" id="knownclusterblast-1_q5_0_all"  />
<polygon points="288,40 375,40 380,35 375,30 288,30 288,40 " style="fill:white; stroke-width:1; stroke:black; " description="&lt;b&gt;ctg6_7&lt;/b&gt;&lt;br&gt;ctg6 7&lt;br&gt;Location: 4074 - 5358" locus_tag="ctg6_7" class="clusterblast-orf" id="knownclusterblast-1_q6_0_all"  />
<polygon points="390,40 403,40 408,35 403,30 390,30 390,40 " style="fill:white; stroke-width:1; stroke:black; " description="&lt;b&gt;ctg6_8&lt;/b&gt;&lt;br&gt;ctg6 8&lt;br&gt;Location: 5505 - 5748" locus_tag="ctg6_8" class="clusterblast-orf" id="knownclusterblast-1_q7_0_all"  />
<polygon points="428,40 498,40 503,35 498,30 428,30 428,40 " style="fill:white; stroke-width:1; stroke:black; " description="&lt;b&gt;ctg6_9&lt;/b&gt;&lt;br&gt;ctg6 9&lt;br&gt;Location: 6031 - 7078" locus_tag="ctg6_9" class="clusterblast-orf" id="knownclusterblast-1_q8_0_all"  />
<polygon points="502,35 507,30 559,30 559,40 507,40 502,35 " style="fill:white; stroke-width:1; stroke:black; " description="&lt;b&gt;ctg6_10&lt;/b&gt;&lt;br&gt;ctg6 10&lt;br&gt;Location: 7074 - 7866" locus_tag="ctg6_10" class="clusterblast-orf" id="knownclusterblast-1_q9_0_all"  />
<polygon points="561,35 566,30 614,30 614,40 566,40 561,35 " style="fill:white; stroke-width:1; stroke:black; " description="&lt;b&gt;ctg6_11&lt;/b&gt;&lt;br&gt;ctg6 11&lt;br&gt;Location: 7901 - 8636" locus_tag="ctg6_11" class="clusterblast-orf" id="knownclusterblast-1_q10_0_all"  />
<polygon points="613,35 618,30 679,30 679,40 618,40 613,35 " style="fill:white; stroke-width:1; stroke:black; " description="&lt;b&gt;ctg6_12&lt;/b&gt;&lt;br&gt;ctg6 12&lt;br&gt;Location: 8625 - 9558" locus_tag="ctg6_12" class="clusterblast-orf" id="knownclusterblast-1_q11_0_all"  />
<polygon points="679,35 684,30 726,30 726,40 684,40 679,35 " style="fill:white; stroke-width:1; stroke:black; " description="&lt;b&gt;ctg6_13&lt;/b&gt;&lt;br&gt;ctg6 13&lt;br&gt;Location: 9551 - 10208" locus_tag="ctg6_13" class="clusterblast-orf" id="knownclusterblast-1_q12_0_all"  />
<polygon points="727,35 732,30 780,30 780,40 732,40 727,35 " style="fill:white; stroke-width:1; stroke:black; " description="&lt;b&gt;ctg6_14&lt;/b&gt;&lt;br&gt;ctg6 14&lt;br&gt;Location: 10230 - 10974" locus_tag="ctg6_14" class="clusterblast-orf" id="knownclusterblast-1_q13_0_all"  />
</g>
<g label="MGC00000058" description="MGC00000058_c1: Fumarate2succinate suc dh E. coli (100% of genes show similarity), SUC" class="clusterblast-cluster"  >
<text x="5" y="70" class="clusterblast-acc"  >
MGC00000058_c1: Fumarate2succinate suc dh E. coli (100% of genes show similarity), SUC</text>
<line x1="10" y1="85" x2="778.0" y2="85" style="stroke-width:1; stroke:grey; "  />
</g>
<g id="a1_000"  >
<polygon points="300,85 305,80 352,80 352,90 305,90 300,85 " style="fill:#d81515; stroke-width:1; stroke:black; " description="&lt;b&gt;HMPREF9550_01792&lt;/b&gt;&lt;br&gt;succinate dehydrogenase iron-sulfur subunit&lt;br&gt;Location: 10000 - 10717&lt;br&gt;&lt;br&gt;&lt;b&gt;BlastP hit with ctg6_1&lt;/b&gt;&lt;br&gt;Percentage identity: 100&lt;br&gt;Percentage coverage: 100&lt;br&gt;BLAST bit score: 496&lt;br&gt;E-value: 1.78e-183" locus_tag="HMPREF9550_01792" class="clusterblast-orf" id="knownclusterblast-1_all_1_1_0"  />
</g>
<g id="a1_001"  >
<polygon points="353,85 358,80 479,80 479,90 358,90 353,85 " style="fill:#15d8d8; stroke-width:1; stroke:black; " description="&lt;b&gt;HMPREF9550_01793&lt;/b&gt;&lt;br&gt;succinate dehydrogenase, flavoprotein subunit&lt;br&gt;Location: 10732 - 12499&lt;br&gt;&lt;br&gt;&lt;b&gt;BlastP hit with ctg6_2&lt;/b&gt;&lt;br&gt;Percentage identity: 100&lt;br&gt;Percentage coverage: 100&lt;br&gt;BLAST bit score: 892&lt;br&gt;E-value: 0.0&lt;br&gt;&lt;br&gt;&lt;b&gt;BlastP hit with ctg6_3&lt;/b&gt;&lt;br&gt;Percentage identity: 100&lt;br&gt;Percentage coverage: 75&lt;br&gt;BLAST bit score: 286&lt;br&gt;E-value: 1.32e-96" locus_tag="HMPREF9550_01793" class="clusterblast-orf" id="knownclusterblast-1_all_1_1_1"  />
</g>
</svg>
