<svg xmlns="http://www.w3.org/2000/svg" xmlns:xlink="http://www.w3.org/1999/xlink" version="1.1" x="0" y="0" height="50" width="800" viewBox="0 0 800 50" preserveAspectRatio="none"  >
<g label="Query sequence" class="clusterblast-cluster"  >
<text x="5" y="20" class="clusterblast-acc"  >
Query sequence</text>
<line x1="10" y1="35" x2="778.0" y2="35" style="stroke-width:1; stroke:grey; "  />
<polygon points="0,35 5,30 48,30 48,40 5,40 0,35 " style="fill:white; stroke-width:1; stroke:black; " description="&lt;b&gt;ctg1_2284&lt;/b&gt;&lt;br&gt;ctg1 2284&lt;br&gt;Location: 2488284 - 2490120" locus_tag="ctg1_2284" class="clusterblast-orf" id="knownclusterblast-6_q0_0_all"  />
<polygon points="52,40 83,40 88,35 83,30 52,30 52,40 " style="fill:white; stroke-width:1; stroke:black; " description="&lt;b&gt;ctg1_2285&lt;/b&gt;&lt;br&gt;ctg1 2285&lt;br&gt;Location: 2490298 - 2491657" locus_tag="ctg1_2285" class="clusterblast-orf" id="knownclusterblast-6_q1_0_all"  />
<polygon points="90,40 111,40 116,35 111,30 90,30 90,40 " style="fill:white; stroke-width:1; stroke:black; " description="&lt;b&gt;ctg1_2286&lt;/b&gt;&lt;br&gt;ctg1 2286&lt;br&gt;Location: 2491720 - 2492734" locus_tag="ctg1_2286" class="clusterblast-orf" id="knownclusterblast-6_q2_0_all"  />
<polygon points="117,40 150,40 155,35 150,30 117,30 117,40 " style="fill:white; stroke-width:1; stroke:black; " description="&lt;b&gt;ctg1_2287&lt;/b&gt;&lt;br&gt;ctg1 2287&lt;br&gt;Location: 2492755 - 2494216" locus_tag="ctg1_2287" class="clusterblast-orf" id="knownclusterblast-6_q3_0_all"  />
<polygon points="162,40 189,40 194,35 189,30 162,30 162,40 " style="fill:white; stroke-width:1; stroke:black; " description="&lt;b&gt;ctg1_2288&lt;/b&gt;&lt;br&gt;ctg1 2288&lt;br&gt;Location: 2494480 - 2495686" locus_tag="ctg1_2288" class="clusterblast-orf" id="knownclusterblast-6_q4_0_all"  />
<polygon points="194,40 198,35 194,30 194,40 " style="fill:white; stroke-width:1; stroke:black; " description="&lt;b&gt;ctg1_2289&lt;/b&gt;&lt;br&gt;ctg1 2289&lt;br&gt;Location: 2495689 - 2495848" locus_tag="ctg1_2289" class="clusterblast-orf" id="knownclusterblast-6_q5_0_all"  />
<polygon points="201,35 206,30 228,30 228,40 206,40 201,35 " style="fill:white; stroke-width:1; stroke:black; " description="&lt;b&gt;ctg1_2290&lt;/b&gt;&lt;br&gt;ctg1 2290&lt;br&gt;Location: 2495969 - 2497013" locus_tag="ctg1_2290" class="clusterblast-orf" id="knownclusterblast-6_q6_0_all"  />
<polygon points="238,40 247,40 252,35 247,30 238,30 238,40 " style="fill:white; stroke-width:1; stroke:black; " description="&lt;b&gt;ctg1_2291&lt;/b&gt;&lt;br&gt;ctg1 2291&lt;br&gt;Location: 2497392 - 2497908" locus_tag="ctg1_2291" class="clusterblast-orf" id="knownclusterblast-6_q7_0_all"  />
<polygon points="255,40 280,40 285,35 280,30 255,30 255,40 " style="fill:white; stroke-width:1; stroke:black; " description="&lt;b&gt;ctg1_2292&lt;/b&gt;&lt;br&gt;ctg1 2292&lt;br&gt;Location: 2498016 - 2499192" locus_tag="ctg1_2292" class="clusterblast-orf" id="knownclusterblast-6_q8_0_all"  />
<polygon points="289,40 295,40 300,35 295,30 289,30 289,40 " style="fill:white; stroke-width:1; stroke:black; " description="&lt;b&gt;ctg1_2293&lt;/b&gt;&lt;br&gt;ctg1 2293&lt;br&gt;Location: 2499321 - 2499765" locus_tag="ctg1_2293" class="clusterblast-orf" id="knownclusterblast-6_q9_0_all"  />
<polygon points="302,35 307,30 311,30 311,40 307,40 302,35 " style="fill:white; stroke-width:1; stroke:black; " description="&lt;b&gt;ctg1_2294&lt;/b&gt;&lt;br&gt;ctg1 2294&lt;br&gt;Location: 2499816 - 2500170" locus_tag="ctg1_2294" class="clusterblast-orf" id="knownclusterblast-6_q10_0_all"  />
<polygon points="313,35 318,30 326,30 326,40 318,40 313,35 " style="fill:white; stroke-width:1; stroke:black; " description="&lt;b&gt;ctg1_2295&lt;/b&gt;&lt;br&gt;ctg1 2295&lt;br&gt;Location: 2500251 - 2500737" locus_tag="ctg1_2295" class="clusterblast-orf" id="knownclusterblast-6_q11_0_all"  />
<polygon points="326,35 331,30 369,30 369,40 331,40 326,35 " style="fill:white; stroke-width:1; stroke:black; " description="&lt;b&gt;ctg1_2296&lt;/b&gt;&lt;br&gt;ctg1 2296&lt;br&gt;Location: 2500729 - 2502373" locus_tag="ctg1_2296" class="clusterblast-orf" id="knownclusterblast-6_q12_0_all"  />
<polygon points="373,35 378,30 436,30 436,40 378,40 373,35 " style="fill:white; stroke-width:1; stroke:black; " description="&lt;b&gt;ctg1_2297&lt;/b&gt;&lt;br&gt;ctg1 2297&lt;br&gt;Location: 2502539 - 2504945" locus_tag="ctg1_2297" class="clusterblast-orf" id="knownclusterblast-6_q13_0_all"  />
<polygon points="441,35 446,30 473,30 473,40 446,40 441,35 " style="fill:white; stroke-width:1; stroke:black; " description="&lt;b&gt;ctg1_2298&lt;/b&gt;&lt;br&gt;ctg1 2298&lt;br&gt;Location: 2505119 - 2506373" locus_tag="ctg1_2298" class="clusterblast-orf" id="knownclusterblast-6_q14_0_all"  />
<polygon points="477,35 482,30 506,30 506,40 482,40 477,35 " style="fill:white; stroke-width:1; stroke:black; " description="&lt;b&gt;ctg1_2299&lt;/b&gt;&lt;br&gt;ctg1 2299&lt;br&gt;Location: 2506507 - 2507614" locus_tag="ctg1_2299" class="clusterblast-orf" id="knownclusterblast-6_q15_0_all"  />
<polygon points="512,40 533,40 538,35 533,30 512,30 512,40 " style="fill:white; stroke-width:1; stroke:black; " description="&lt;b&gt;ctg1_2300&lt;/b&gt;&lt;br&gt;ctg1 2300&lt;br&gt;Location: 2507840 - 2508851" locus_tag="ctg1_2300" class="clusterblast-orf" id="knownclusterblast-6_q16_0_all"  />
<polygon points="543,40 569,40 574,35 569,30 543,30 543,40 " style="fill:white; stroke-width:1; stroke:black; " description="&lt;b&gt;ctg1_2301&lt;/b&gt;&lt;br&gt;ctg1 2301&lt;br&gt;Location: 2509020 - 2510226" locus_tag="ctg1_2301" class="clusterblast-orf" id="knownclusterblast-6_q17_0_all"  />
<polygon points="575,40 575,40 580,35 575,30 575,30 575,40 " style="fill:white; stroke-width:1; stroke:black; " description="&lt;b&gt;ctg1_2302&lt;/b&gt;&lt;br&gt;ctg1 2302&lt;br&gt;Location: 2510244 - 2510442" locus_tag="ctg1_2302" class="clusterblast-orf" id="knownclusterblast-6_q18_0_all"  />
<polygon points="581,40 626,40 631,35 626,30 581,30 581,40 " style="fill:white; stroke-width:1; stroke:black; " description="&lt;b&gt;ctg1_2303&lt;/b&gt;&lt;br&gt;ctg1 2303&lt;br&gt;Location: 2510489 - 2512376" locus_tag="ctg1_2303" class="clusterblast-orf" id="knownclusterblast-6_q19_0_all"  />
<polygon points="635,40 637,40 642,35 637,30 635,30 635,40 " style="fill:white; stroke-width:1; stroke:black; " description="&lt;b&gt;ctg1_2304&lt;/b&gt;&lt;br&gt;ctg1 2304&lt;br&gt;Location: 2512541 - 2512799" locus_tag="ctg1_2304" class="clusterblast-orf" id="knownclusterblast-6_q20_0_all"  />
<polygon points="642,40 660,40 665,35 660,30 642,30 642,40 " style="fill:white; stroke-width:1; stroke:black; " description="&lt;b&gt;ctg1_2305&lt;/b&gt;&lt;br&gt;ctg1 2305&lt;br&gt;Location: 2512814 - 2513675" locus_tag="ctg1_2305" class="clusterblast-orf" id="knownclusterblast-6_q21_0_all"  />
<polygon points="665,35 670,30 676,30 676,40 670,40 665,35 " style="fill:white; stroke-width:1; stroke:black; " description="&lt;b&gt;ctg1_2306&lt;/b&gt;&lt;br&gt;ctg1 2306&lt;br&gt;Location: 2513704 - 2514124" locus_tag="ctg1_2306" class="clusterblast-orf" id="knownclusterblast-6_q22_0_all"  />
<polygon points="677,35 682,30 708,30 708,40 682,40 677,35 " style="fill:white; stroke-width:1; stroke:black; " description="&lt;b&gt;ctg1_2307&lt;/b&gt;&lt;br&gt;ctg1 2307&lt;br&gt;Location: 2514136 - 2515348" locus_tag="ctg1_2307" class="clusterblast-orf" id="knownclusterblast-6_q23_0_all"  />
<polygon points="712,40 724,40 729,35 724,30 712,30 712,40 " style="fill:white; stroke-width:1; stroke:black; " description="&lt;b&gt;ctg1_2308&lt;/b&gt;&lt;br&gt;ctg1 2308&lt;br&gt;Location: 2515488 - 2516118" locus_tag="ctg1_2308" class="clusterblast-orf" id="knownclusterblast-6_q24_0_all"  />
<polygon points="732,40 761,40 766,35 761,30 732,30 732,40 " style="fill:white; stroke-width:1; stroke:black; " description="&lt;b&gt;ctg1_2309&lt;/b&gt;&lt;br&gt;ctg1 2309&lt;br&gt;Location: 2516251 - 2517562" locus_tag="ctg1_2309" class="clusterblast-orf" id="knownclusterblast-6_q25_0_all"  />
<polygon points="768,35 773,30 780,30 780,40 773,40 768,35 " style="fill:white; stroke-width:1; stroke:black; " description="&lt;b&gt;ctg1_2310&lt;/b&gt;&lt;br&gt;ctg1 2310&lt;br&gt;Location: 2517628 - 2518072" locus_tag="ctg1_2310" class="clusterblast-orf" id="knownclusterblast-6_q26_0_all"  />
</g>
</svg>
