<svg xmlns="http://www.w3.org/2000/svg" xmlns:xlink="http://www.w3.org/1999/xlink" version="1.1" x="0" y="0" height="230" width="800" viewBox="0 0 800 230" preserveAspectRatio="none"  >
<g label="Query sequence" class="clusterblast-cluster"  >
<text x="5" y="20" class="clusterblast-acc"  >
Query sequence</text>
<line x1="10" y1="35" x2="778.0" y2="35" style="stroke-width:1; stroke:grey; "  />
<polygon points="0,40 10,40 15,35 10,30 0,30 0,40 " style="fill:white; stroke-width:1; stroke:black; " description="&lt;b&gt;ctg1_2850&lt;/b&gt;&lt;br&gt;ctg1 2850&lt;br&gt;Location: 3074185 - 3074701" locus_tag="ctg1_2850" class="clusterblast-orf" id="dummy-7_q0_0_all"  />
<polygon points="16,40 52,40 57,35 52,30 16,30 16,40 " style="fill:white; stroke-width:1; stroke:black; " description="&lt;b&gt;ctg1_2851&lt;/b&gt;&lt;br&gt;ctg1 2851&lt;br&gt;Location: 3074717 - 3076082" locus_tag="ctg1_2851" class="clusterblast-orf" id="dummy-7_q1_0_all"  />
<polygon points="57,40 61,40 66,35 61,30 57,30 57,40 " style="fill:white; stroke-width:1; stroke:black; " description="&lt;b&gt;ctg1_2852&lt;/b&gt;&lt;br&gt;ctg1 2852&lt;br&gt;Location: 3076094 - 3076397" locus_tag="ctg1_2852" class="clusterblast-orf" id="dummy-7_q2_0_all"  />
<polygon points="65,40 107,40 112,35 107,30 65,30 65,40 " style="fill:white; stroke-width:1; stroke:black; " description="&lt;b&gt;ctg1_2853&lt;/b&gt;&lt;br&gt;ctg1 2853&lt;br&gt;Location: 3076339 - 3077914" locus_tag="ctg1_2853" class="clusterblast-orf" id="dummy-7_q3_0_all"  />
<polygon points="119,35 124,30 128,30 128,40 124,40 119,35 " style="fill:white; stroke-width:1; stroke:black; " description="&lt;b&gt;ctg1_2854&lt;/b&gt;&lt;br&gt;ctg1 2854&lt;br&gt;Location: 3078140 - 3078434" locus_tag="ctg1_2854" class="clusterblast-orf" id="dummy-7_q4_0_all"  />
<polygon points="155,40 168,40 173,35 168,30 155,30 155,40 " style="fill:white; stroke-width:1; stroke:black; " description="&lt;b&gt;ctg1_2855&lt;/b&gt;&lt;br&gt;ctg1 2855&lt;br&gt;Location: 3079331 - 3079955" locus_tag="ctg1_2855" class="clusterblast-orf" id="dummy-7_q5_0_all"  />
<polygon points="173,35 178,30 197,30 197,40 178,40 173,35 " style="fill:white; stroke-width:1; stroke:black; " description="&lt;b&gt;ctg1_2856&lt;/b&gt;&lt;br&gt;ctg1 2856&lt;br&gt;Location: 3079941 - 3080742" locus_tag="ctg1_2856" class="clusterblast-orf" id="dummy-7_q6_0_all"  />
<polygon points="198,35 203,30 217,30 217,40 203,40 198,35 " style="fill:white; stroke-width:1; stroke:black; " description="&lt;b&gt;ctg1_2857&lt;/b&gt;&lt;br&gt;ctg1 2857&lt;br&gt;Location: 3080765 - 3081404" locus_tag="ctg1_2857" class="clusterblast-orf" id="dummy-7_q7_0_all"  />
<polygon points="220,35 225,30 275,30 275,40 225,40 220,35 " style="fill:white; stroke-width:1; stroke:black; " description="&lt;b&gt;ctg1_2858&lt;/b&gt;&lt;br&gt;ctg1 2858&lt;br&gt;Location: 3081503 - 3083330" locus_tag="ctg1_2858" class="clusterblast-orf" id="dummy-7_q8_0_all"  />
<polygon points="282,35 287,30 311,30 311,40 287,40 282,35 " style="fill:#d81515; stroke-width:1; stroke:black; " description="&lt;b&gt;ctg1_2859&lt;/b&gt;&lt;br&gt;ctg1 2859&lt;br&gt;Location: 3083585 - 3084539" locus_tag="ctg1_2859" class="clusterblast-orf" id="dummy-7_q9_0_all"  />
<polygon points="310,35 315,30 347,30 347,40 315,40 310,35 " style="fill:#15d863; stroke-width:1; stroke:black; " description="&lt;b&gt;ctg1_2860&lt;/b&gt;&lt;br&gt;ctg1 2860&lt;br&gt;Location: 3084516 - 3085722" locus_tag="ctg1_2860" class="clusterblast-orf" id="dummy-7_q10_0_all"  />
<polygon points="348,35 353,30 391,30 391,40 353,40 348,35 " style="fill:white; stroke-width:1; stroke:black; " description="&lt;b&gt;ctg1_2861&lt;/b&gt;&lt;br&gt;ctg1 2861&lt;br&gt;Location: 3085773 - 3087186" locus_tag="ctg1_2861" class="clusterblast-orf" id="dummy-7_q11_0_all"  />
<polygon points="393,35 398,30 439,30 439,40 398,40 393,35 " style="fill:#1563d8; stroke-width:1; stroke:black; " description="&lt;b&gt;ctg1_2862&lt;/b&gt;&lt;br&gt;ctg1 2862&lt;br&gt;Location: 3087250 - 3088789" locus_tag="ctg1_2862" class="clusterblast-orf" id="dummy-7_q12_0_all"  />
<polygon points="442,35 447,30 492,30 492,40 447,40 442,35 " style="fill:#b115d8; stroke-width:1; stroke:black; " description="&lt;b&gt;ctg1_2863&lt;/b&gt;&lt;br&gt;ctg1 2863&lt;br&gt;Location: 3088876 - 3090553" locus_tag="ctg1_2863" class="clusterblast-orf" id="dummy-7_q13_0_all"  />
<polygon points="500,35 505,30 517,30 517,40 505,40 500,35 " style="fill:white; stroke-width:1; stroke:black; " description="&lt;b&gt;ctg1_2864&lt;/b&gt;&lt;br&gt;ctg1 2864&lt;br&gt;Location: 3090804 - 3091380" locus_tag="ctg1_2864" class="clusterblast-orf" id="dummy-7_q14_0_all"  />
<polygon points="517,35 522,30 539,30 539,40 522,40 517,35 " style="fill:#b1d815; stroke-width:1; stroke:black; " description="&lt;b&gt;ctg1_2865&lt;/b&gt;&lt;br&gt;ctg1 2865&lt;br&gt;Location: 3091376 - 3092129" locus_tag="ctg1_2865" class="clusterblast-orf" id="dummy-7_q15_0_all"  />
<polygon points="550,40 578,40 583,35 578,30 550,30 550,40 " style="fill:white; stroke-width:1; stroke:black; " description="&lt;b&gt;ctg1_2866&lt;/b&gt;&lt;br&gt;ctg1 2866&lt;br&gt;Location: 3092482 - 3093595" locus_tag="ctg1_2866" class="clusterblast-orf" id="dummy-7_q16_0_all"  />
<polygon points="584,35 589,30 621,30 621,40 589,40 584,35 " style="fill:white; stroke-width:1; stroke:black; " description="&lt;b&gt;ctg1_2867&lt;/b&gt;&lt;br&gt;ctg1 2867&lt;br&gt;Location: 3093629 - 3094859" locus_tag="ctg1_2867" class="clusterblast-orf" id="dummy-7_q17_0_all"  />
<polygon points="627,35 632,30 647,30 647,40 632,40 627,35 " style="fill:white; stroke-width:1; stroke:black; " description="&lt;b&gt;ctg1_2868&lt;/b&gt;&lt;br&gt;ctg1 2868&lt;br&gt;Location: 3095043 - 3095724" locus_tag="ctg1_2868" class="clusterblast-orf" id="dummy-7_q18_0_all"  />
<polygon points="652,35 657,30 694,30 694,40 657,40 652,35 " style="fill:white; stroke-width:1; stroke:black; " description="&lt;b&gt;ctg1_2869&lt;/b&gt;&lt;br&gt;ctg1 2869&lt;br&gt;Location: 3095888 - 3097277" locus_tag="ctg1_2869" class="clusterblast-orf" id="dummy-7_q19_0_all"  />
<polygon points="705,40 739,40 744,35 739,30 705,30 705,40 " style="fill:white; stroke-width:1; stroke:black; " description="&lt;b&gt;ctg1_2870&lt;/b&gt;&lt;br&gt;ctg1 2870&lt;br&gt;Location: 3097633 - 3098941" locus_tag="ctg1_2870" class="clusterblast-orf" id="dummy-7_q20_0_all"  />
<polygon points="744,40 758,40 763,35 758,30 744,30 744,40 " style="fill:white; stroke-width:1; stroke:black; " description="&lt;b&gt;ctg1_2871&lt;/b&gt;&lt;br&gt;ctg1 2871&lt;br&gt;Location: 3098927 - 3099560" locus_tag="ctg1_2871" class="clusterblast-orf" id="dummy-7_q21_0_all"  />
<polygon points="763,40 775,40 780,35 775,30 763,30 763,40 " style="fill:white; stroke-width:1; stroke:black; " description="&lt;b&gt;ctg1_2872&lt;/b&gt;&lt;br&gt;ctg1 2872&lt;br&gt;Location: 3099577 - 3100126" locus_tag="ctg1_2872" class="clusterblast-orf" id="dummy-7_q22_0_all"  />
</g>
<g label="MGC00000029" description="MGC00000029_c1: Histidine to glutamate K. pneumoniae (100% of genes show similarity), GLU" class="clusterblast-cluster"  >
<text x="5" y="70" class="clusterblast-acc"  >
MGC00000029_c1: Histidine to glutamate K. pneumoniae (100% of genes show similarity), GLU</text>
<line x1="10" y1="85" x2="778.0" y2="85" style="stroke-width:1; stroke:grey; "  />
</g>
<g id="a7_000"  >
<polygon points="295,85 300,80 341,80 341,90 300,90 295,85 " style="fill:#1563d8; stroke-width:1; stroke:black; " description="&lt;b&gt;KPN_RS04290&lt;/b&gt;&lt;br&gt;histidine ammonia-lyase&lt;br&gt;Location: 16312 - 14785&lt;br&gt;&lt;br&gt;&lt;b&gt;BlastP hit with ctg1_2862&lt;/b&gt;&lt;br&gt;Percentage identity: 76&lt;br&gt;Percentage coverage: 97&lt;br&gt;BLAST bit score: 731&lt;br&gt;E-value: 2.43e-267" locus_tag="KPN_RS04290" class="clusterblast-orf" id="dummy-7_h7_1_0"  />
</g>
<g id="a7_001"  >
<polygon points="340,85 345,80 391,80 391,90 345,90 340,85 " style="fill:#b115d8; stroke-width:1; stroke:black; " description="&lt;b&gt;KPN_RS04285&lt;/b&gt;&lt;br&gt;urocanate hydratase&lt;br&gt;Location: 14789 - 13100&lt;br&gt;&lt;br&gt;&lt;b&gt;BlastP hit with ctg1_2863&lt;/b&gt;&lt;br&gt;Percentage identity: 87&lt;br&gt;Percentage coverage: 99&lt;br&gt;BLAST bit score: 993&lt;br&gt;E-value: 0.0" locus_tag="KPN_RS04285" class="clusterblast-orf" id="dummy-7_h7_1_1"  />
</g>
<g id="a7_002"  >
<polygon points="395,85 400,80 417,80 417,90 400,90 395,85 " style="fill:#b1d815; stroke-width:1; stroke:black; " description="&lt;b&gt;KPN_RS04280&lt;/b&gt;&lt;br&gt;histidine utilization repressor&lt;br&gt;Location: 12958 - 12232&lt;br&gt;&lt;br&gt;&lt;b&gt;BlastP hit with ctg1_2865&lt;/b&gt;&lt;br&gt;Percentage identity: 59&lt;br&gt;Percentage coverage: 92&lt;br&gt;BLAST bit score: 286&lt;br&gt;E-value: 4.47e-100" locus_tag="KPN_RS04280" class="clusterblast-orf" id="dummy-7_h7_1_2"  />
</g>
<g id="a7_003"  >
<polygon points="419,85 424,80 448,80 448,90 424,90 419,85 " style="fill:#d81515; stroke-width:1; stroke:black; " description="&lt;b&gt;KPN_RS04275&lt;/b&gt;&lt;br&gt;formimidoylglutamase&lt;br&gt;Location: 12171 - 11214&lt;br&gt;&lt;br&gt;&lt;b&gt;BlastP hit with ctg1_2859&lt;/b&gt;&lt;br&gt;Percentage identity: 42&lt;br&gt;Percentage coverage: 99&lt;br&gt;BLAST bit score: 215&lt;br&gt;E-value: 3.57e-70" locus_tag="KPN_RS04275" class="clusterblast-orf" id="dummy-7_h7_1_3"  />
</g>
<g id="a7_004"  >
<polygon points="448,85 453,80 484,80 484,90 453,90 448,85 " style="fill:#15d863; stroke-width:1; stroke:black; " description="&lt;b&gt;KPN_RS04270&lt;/b&gt;&lt;br&gt;imidazolonepropionase&lt;br&gt;Location: 11218 - 10000&lt;br&gt;&lt;br&gt;&lt;b&gt;BlastP hit with ctg1_2860&lt;/b&gt;&lt;br&gt;Percentage identity: 54&lt;br&gt;Percentage coverage: 99&lt;br&gt;BLAST bit score: 401&lt;br&gt;E-value: 1.91e-140" locus_tag="KPN_RS04270" class="clusterblast-orf" id="dummy-7_h7_1_4"  />
</g>
</svg>
