<svg xmlns="http://www.w3.org/2000/svg" xmlns:xlink="http://www.w3.org/1999/xlink" version="1.1" x="0" y="0" height="230" width="800" viewBox="0 0 800 230" preserveAspectRatio="none"  >
<g label="Query sequence" class="clusterblast-cluster"  >
<text x="5" y="20" class="clusterblast-acc"  >
Query sequence</text>
<line x1="10" y1="35" x2="778.0" y2="35" style="stroke-width:1; stroke:grey; "  />
<polygon points="0,35 5,30 29,30 29,40 5,40 0,35 " style="fill:white; stroke-width:1; stroke:black; " description="&lt;b&gt;ctg1_13&lt;/b&gt;&lt;br&gt;ctg1 13&lt;br&gt;Location: 13525 - 14809" locus_tag="ctg1_13" class="clusterblast-orf" id="dummy-1_q0_0_all"  />
<polygon points="32,35 35,30 35,40 32,35 " style="fill:white; stroke-width:1; stroke:black; " description="&lt;b&gt;ctg1_14&lt;/b&gt;&lt;br&gt;ctg1 14&lt;br&gt;Location: 14947 - 15082" locus_tag="ctg1_14" class="clusterblast-orf" id="dummy-1_q1_0_all"  />
<polygon points="37,35 42,30 101,30 101,40 42,40 37,35 " style="fill:white; stroke-width:1; stroke:black; " description="&lt;b&gt;ctg1_15&lt;/b&gt;&lt;br&gt;ctg1 15&lt;br&gt;Location: 15138 - 17973" locus_tag="ctg1_15" class="clusterblast-orf" id="dummy-1_q2_0_all"  />
<polygon points="113,40 125,40 130,35 125,30 113,30 113,40 " style="fill:white; stroke-width:1; stroke:black; " description="&lt;b&gt;ctg1_16&lt;/b&gt;&lt;br&gt;ctg1 16&lt;br&gt;Location: 18505 - 19222" locus_tag="ctg1_16" class="clusterblast-orf" id="dummy-1_q3_0_all"  />
<polygon points="130,40 163,40 168,35 163,30 130,30 130,40 " style="fill:white; stroke-width:1; stroke:black; " description="&lt;b&gt;ctg1_17&lt;/b&gt;&lt;br&gt;ctg1 17&lt;br&gt;Location: 19254 - 20886" locus_tag="ctg1_17" class="clusterblast-orf" id="dummy-1_q4_0_all"  />
<polygon points="168,35 173,30 176,30 176,40 173,40 168,35 " style="fill:white; stroke-width:1; stroke:black; " description="&lt;b&gt;ctg1_18&lt;/b&gt;&lt;br&gt;ctg1 18&lt;br&gt;Location: 20907 - 21261" locus_tag="ctg1_18" class="clusterblast-orf" id="dummy-1_q5_0_all"  />
<polygon points="178,35 183,30 211,30 211,40 183,40 178,35 " style="fill:white; stroke-width:1; stroke:black; " description="&lt;b&gt;ctg1_19&lt;/b&gt;&lt;br&gt;ctg1 19&lt;br&gt;Location: 21353 - 22772" locus_tag="ctg1_19" class="clusterblast-orf" id="dummy-1_q6_0_all"  />
<polygon points="220,40 228,40 233,35 228,30 220,30 220,40 " style="fill:#d81515; stroke-width:1; stroke:black; " description="&lt;b&gt;ctg1_20&lt;/b&gt;&lt;br&gt;ctg1 20&lt;br&gt;Location: 23197 - 23749" locus_tag="ctg1_20" class="clusterblast-orf" id="dummy-1_q7_0_all"  />
<polygon points="233,40 243,40 248,35 243,30 233,30 233,40 " style="fill:#33d815; stroke-width:1; stroke:black; " description="&lt;b&gt;ctg1_21&lt;/b&gt;&lt;br&gt;ctg1 21&lt;br&gt;Location: 23755 - 24433" locus_tag="ctg1_21" class="clusterblast-orf" id="dummy-1_q8_0_all"  />
<polygon points="250,40 286,40 291,35 286,30 250,30 250,40 " style="fill:#15abd8; stroke-width:1; stroke:black; " description="&lt;b&gt;ctg1_22&lt;/b&gt;&lt;br&gt;ctg1 22&lt;br&gt;Location: 24517 - 26305" locus_tag="ctg1_22" class="clusterblast-orf" id="dummy-1_q9_0_all"  />
<polygon points="291,40 298,40 303,35 298,30 291,30 291,40 " style="fill:#8d15d8; stroke-width:1; stroke:black; " description="&lt;b&gt;ctg1_23&lt;/b&gt;&lt;br&gt;ctg1 23&lt;br&gt;Location: 26318 - 26828" locus_tag="ctg1_23" class="clusterblast-orf" id="dummy-1_q10_0_all"  />
<polygon points="303,40 328,40 333,35 328,30 303,30 303,40 " style="fill:#d86f15; stroke-width:1; stroke:black; " description="&lt;b&gt;ctg1_24&lt;/b&gt;&lt;br&gt;ctg1 24&lt;br&gt;Location: 26824 - 28156" locus_tag="ctg1_24" class="clusterblast-orf" id="dummy-1_q11_0_all"  />
<polygon points="334,40 390,40 395,35 390,30 334,30 334,40 " style="fill:#15d851; stroke-width:1; stroke:black; " description="&lt;b&gt;ctg1_25&lt;/b&gt;&lt;br&gt;ctg1 25&lt;br&gt;Location: 28167 - 30852" locus_tag="ctg1_25" class="clusterblast-orf" id="dummy-1_q12_0_all"  />
<polygon points="395,40 413,40 418,35 413,30 395,30 395,40 " style="fill:#1551d8; stroke-width:1; stroke:black; " description="&lt;b&gt;ctg1_26&lt;/b&gt;&lt;br&gt;ctg1 26&lt;br&gt;Location: 30855 - 31872" locus_tag="ctg1_26" class="clusterblast-orf" id="dummy-1_q13_0_all"  />
<polygon points="419,40 420,40 425,35 420,30 419,30 419,40 " style="fill:#d815c9; stroke-width:1; stroke:black; " description="&lt;b&gt;ctg1_27&lt;/b&gt;&lt;br&gt;ctg1 27&lt;br&gt;Location: 31890 - 32187" locus_tag="ctg1_27" class="clusterblast-orf" id="dummy-1_q14_0_all"  />
<polygon points="425,40 425,40 430,35 425,30 425,30 425,40 " style="fill:#d815c9; stroke-width:1; stroke:black; " description="&lt;b&gt;ctg1_28&lt;/b&gt;&lt;br&gt;ctg1 28&lt;br&gt;Location: 32179 - 32413" locus_tag="ctg1_28" class="clusterblast-orf" id="dummy-1_q15_0_all"  />
<polygon points="430,40 437,40 442,35 437,30 430,30 430,40 " style="fill:#d8c915; stroke-width:1; stroke:black; " description="&lt;b&gt;ctg1_29&lt;/b&gt;&lt;br&gt;ctg1 29&lt;br&gt;Location: 32409 - 32931" locus_tag="ctg1_29" class="clusterblast-orf" id="dummy-1_q16_0_all"  />
<polygon points="442,40 444,40 449,35 444,30 442,30 442,40 " style="fill:#15d8ab; stroke-width:1; stroke:black; " description="&lt;b&gt;ctg1_30&lt;/b&gt;&lt;br&gt;ctg1 30&lt;br&gt;Location: 32930 - 33239" locus_tag="ctg1_30" class="clusterblast-orf" id="dummy-1_q17_0_all"  />
<polygon points="449,40 487,40 492,35 487,30 449,30 449,40 " style="fill:#3315d8; stroke-width:1; stroke:black; " description="&lt;b&gt;ctg1_31&lt;/b&gt;&lt;br&gt;ctg1 31&lt;br&gt;Location: 33235 - 35125" locus_tag="ctg1_31" class="clusterblast-orf" id="dummy-1_q18_0_all"  />
<polygon points="492,40 524,40 529,35 524,30 492,30 492,40 " style="fill:#d8156f; stroke-width:1; stroke:black; " description="&lt;b&gt;ctg1_32&lt;/b&gt;&lt;br&gt;ctg1 32&lt;br&gt;Location: 35126 - 36725" locus_tag="ctg1_32" class="clusterblast-orf" id="dummy-1_q19_0_all"  />
<polygon points="529,40 558,40 563,35 558,30 529,30 529,40 " style="fill:#8dd815; stroke-width:1; stroke:black; " description="&lt;b&gt;ctg1_33&lt;/b&gt;&lt;br&gt;ctg1 33&lt;br&gt;Location: 36727 - 38221" locus_tag="ctg1_33" class="clusterblast-orf" id="dummy-1_q20_0_all"  />
<polygon points="565,40 575,40 580,35 575,30 565,30 565,40 " style="fill:white; stroke-width:1; stroke:black; " description="&lt;b&gt;ctg1_34&lt;/b&gt;&lt;br&gt;ctg1 34&lt;br&gt;Location: 38321 - 38957" locus_tag="ctg1_34" class="clusterblast-orf" id="dummy-1_q21_0_all"  />
<polygon points="582,40 584,40 589,35 584,30 582,30 582,40 " style="fill:white; stroke-width:1; stroke:black; " description="&lt;b&gt;ctg1_35&lt;/b&gt;&lt;br&gt;ctg1 35&lt;br&gt;Location: 39073 - 39367" locus_tag="ctg1_35" class="clusterblast-orf" id="dummy-1_q22_0_all"  />
<polygon points="590,35 595,30 610,30 610,40 595,40 590,35 " style="fill:white; stroke-width:1; stroke:black; " description="&lt;b&gt;ctg1_36&lt;/b&gt;&lt;br&gt;ctg1 36&lt;br&gt;Location: 39386 - 40271" locus_tag="ctg1_36" class="clusterblast-orf" id="dummy-1_q23_0_all"  />
<polygon points="612,40 624,40 629,35 624,30 612,30 612,40 " style="fill:white; stroke-width:1; stroke:black; " description="&lt;b&gt;ctg1_37&lt;/b&gt;&lt;br&gt;ctg1 37&lt;br&gt;Location: 40357 - 41119" locus_tag="ctg1_37" class="clusterblast-orf" id="dummy-1_q24_0_all"  />
<polygon points="630,35 635,30 640,30 640,40 635,40 630,35 " style="fill:white; stroke-width:1; stroke:black; " description="&lt;b&gt;ctg1_38&lt;/b&gt;&lt;br&gt;ctg1 38&lt;br&gt;Location: 41167 - 41590" locus_tag="ctg1_38" class="clusterblast-orf" id="dummy-1_q25_0_all"  />
<polygon points="646,40 647,40 652,35 647,30 646,30 646,40 " style="fill:white; stroke-width:1; stroke:black; " description="&lt;b&gt;ctg1_39&lt;/b&gt;&lt;br&gt;ctg1 39&lt;br&gt;Location: 41877 - 42105" locus_tag="ctg1_39" class="clusterblast-orf" id="dummy-1_q26_0_all"  />
<polygon points="657,40 691,40 696,35 691,30 657,30 657,40 " style="fill:white; stroke-width:1; stroke:black; " description="&lt;b&gt;ctg1_40&lt;/b&gt;&lt;br&gt;ctg1 40&lt;br&gt;Location: 42330 - 44034" locus_tag="ctg1_40" class="clusterblast-orf" id="dummy-1_q27_0_all"  />
<polygon points="698,40 702,35 698,30 698,40 " style="fill:white; stroke-width:1; stroke:black; " description="&lt;b&gt;ctg1_41&lt;/b&gt;&lt;br&gt;ctg1 41&lt;br&gt;Location: 44160 - 44331" locus_tag="ctg1_41" class="clusterblast-orf" id="dummy-1_q28_0_all"  />
<polygon points="703,35 708,30 730,30 730,40 708,40 703,35 " style="fill:white; stroke-width:1; stroke:black; " description="&lt;b&gt;ctg1_42&lt;/b&gt;&lt;br&gt;ctg1 42&lt;br&gt;Location: 44343 - 45543" locus_tag="ctg1_42" class="clusterblast-orf" id="dummy-1_q29_0_all"  />
<polygon points="733,35 738,30 753,30 753,40 738,40 733,35 " style="fill:white; stroke-width:1; stroke:black; " description="&lt;b&gt;ctg1_43&lt;/b&gt;&lt;br&gt;ctg1 43&lt;br&gt;Location: 45660 - 46542" locus_tag="ctg1_43" class="clusterblast-orf" id="dummy-1_q30_0_all"  />
<polygon points="754,35 759,30 780,30 780,40 759,40 754,35 " style="fill:white; stroke-width:1; stroke:black; " description="&lt;b&gt;ctg1_44&lt;/b&gt;&lt;br&gt;ctg1 44&lt;br&gt;Location: 46607 - 47726" locus_tag="ctg1_44" class="clusterblast-orf" id="dummy-1_q31_0_all"  />
</g>
<g label="MGC00000036" description="MGC00000036_c1: Ech complex T. phaeum (28% of genes show similarity), ECH" class="clusterblast-cluster"  >
<text x="5" y="70" class="clusterblast-acc"  >
MGC00000036_c1: Ech complex T. phaeum (28% of genes show similarity), ECH</text>
<line x1="10" y1="85" x2="778.0" y2="85" style="stroke-width:1; stroke:grey; "  />
</g>
<g id="a1_000"  >
<polygon points="218,90 258,90 263,85 258,80 218,80 218,90 " style="fill:#3315d8; stroke-width:1; stroke:black; " description="&lt;b&gt;Tph_c21360&lt;/b&gt;&lt;br&gt;putative ech hydrogenase subunit A&lt;br&gt;Location: 15027 - 13041&lt;br&gt;&lt;br&gt;&lt;b&gt;BlastP hit with ctg1_31&lt;/b&gt;&lt;br&gt;Percentage identity: 36&lt;br&gt;Percentage coverage: 46&lt;br&gt;BLAST bit score: 136&lt;br&gt;E-value: 1.65e-35" locus_tag="Tph_c21360" class="clusterblast-orf" id="dummy-1_h1_3_0"  />
</g>
<g id="a1_001"  >
<polygon points="263,90 278,90 283,85 278,80 263,80 263,90 " style="fill:white; stroke-width:1; stroke:black; " description="&lt;b&gt;Tph_c21350&lt;/b&gt;&lt;br&gt;putative ech hydrogenase subunit B&lt;br&gt;Location: 13045 - 12184" locus_tag="Tph_c21350" class="clusterblast-orf" id="dummy-1_h1_3_1"  />
</g>
<g id="a1_002"  >
<polygon points="283,90 288,90 293,85 288,80 283,80 283,90 " style="fill:#33d815; stroke-width:1; stroke:black; " description="&lt;b&gt;Tph_c21340&lt;/b&gt;&lt;br&gt;putative ech hydrogenase subunit C&lt;br&gt;Location: 12184 - 11746&lt;br&gt;&lt;br&gt;&lt;b&gt;BlastP hit with ctg1_21&lt;/b&gt;&lt;br&gt;Percentage identity: 43&lt;br&gt;Percentage coverage: 55&lt;br&gt;BLAST bit score: 103&lt;br&gt;E-value: 3.89e-30" locus_tag="Tph_c21340" class="clusterblast-orf" id="dummy-1_h1_3_2"  />
</g>
<g id="a1_003"  >
<polygon points="293,90 297,90 302,85 297,80 293,80 293,90 " style="fill:white; stroke-width:1; stroke:black; " description="&lt;b&gt;Tph_c21330&lt;/b&gt;&lt;br&gt;putative ech hydrogenase subunit D&lt;br&gt;Location: 11750 - 11372" locus_tag="Tph_c21330" class="clusterblast-orf" id="dummy-1_h1_3_3"  />
</g>
<g id="a1_004"  >
<polygon points="302,90 321,90 326,85 321,80 302,80 302,90 " style="fill:white; stroke-width:1; stroke:black; " description="&lt;b&gt;Tph_c21320&lt;/b&gt;&lt;br&gt;putative ech hydrogenase subunit E&lt;br&gt;Location: 11372 - 10289" locus_tag="Tph_c21320" class="clusterblast-orf" id="dummy-1_h1_3_4"  />
</g>
<g id="a1_005"  >
<polygon points="327,90 330,90 335,85 330,80 327,80 327,90 " style="fill:white; stroke-width:1; stroke:black; " description="&lt;b&gt;Tph_c21310&lt;/b&gt;&lt;br&gt;putative ech hydrogenase subunit F&lt;br&gt;Location: 10260 - 9909" locus_tag="Tph_c21310" class="clusterblast-orf" id="dummy-1_h1_3_5"  />
</g>
<g id="a1_006"  >
<polygon points="539,90 556,90 561,85 556,80 539,80 539,90 " style="fill:white; stroke-width:1; stroke:black; " description="&lt;b&gt;Tph_c21210&lt;/b&gt;&lt;br&gt;stage II sporulation protein P&lt;br&gt;Location: 966 - 0" locus_tag="Tph_c21210" class="clusterblast-orf" id="dummy-1_h1_3_6"  />
</g>
</svg>
