<svg xmlns="http://www.w3.org/2000/svg" xmlns:xlink="http://www.w3.org/1999/xlink" version="1.1" x="0" y="0" height="50" width="800" viewBox="0 0 800 50" preserveAspectRatio="none"  >
<g label="Query sequence" class="clusterblast-cluster"  >
<text x="5" y="20" class="clusterblast-acc"  >
Query sequence</text>
<line x1="10" y1="35" x2="778.0" y2="35" style="stroke-width:1; stroke:grey; "  />
<polygon points="0,35 5,30 98,30 98,40 5,40 0,35 " style="fill:white; stroke-width:1; stroke:black; " description="&lt;b&gt;ctg1_1284&lt;/b&gt;&lt;br&gt;ctg1 1284&lt;br&gt;Location: 1381061 - 1385348" locus_tag="ctg1_1284" class="clusterblast-orf" id="knownclusterblast-4_q0_0_all"  />
<polygon points="100,35 105,30 114,30 114,40 105,40 100,35 " style="fill:white; stroke-width:1; stroke:black; " description="&lt;b&gt;ctg1_1285&lt;/b&gt;&lt;br&gt;ctg1 1285&lt;br&gt;Location: 1385424 - 1386051" locus_tag="ctg1_1285" class="clusterblast-orf" id="knownclusterblast-4_q1_0_all"  />
<polygon points="130,35 135,30 151,30 151,40 135,40 130,35 " style="fill:white; stroke-width:1; stroke:black; " description="&lt;b&gt;ctg1_1286&lt;/b&gt;&lt;br&gt;ctg1 1286&lt;br&gt;Location: 1386741 - 1387644" locus_tag="ctg1_1286" class="clusterblast-orf" id="knownclusterblast-4_q2_0_all"  />
<polygon points="153,35 158,30 190,30 190,40 158,40 153,35 " style="fill:white; stroke-width:1; stroke:black; " description="&lt;b&gt;ctg1_1287&lt;/b&gt;&lt;br&gt;ctg1 1287&lt;br&gt;Location: 1387718 - 1389359" locus_tag="ctg1_1287" class="clusterblast-orf" id="knownclusterblast-4_q3_0_all"  />
<polygon points="194,35 199,30 225,30 225,40 199,40 194,35 " style="fill:white; stroke-width:1; stroke:black; " description="&lt;b&gt;ctg1_1288&lt;/b&gt;&lt;br&gt;ctg1 1288&lt;br&gt;Location: 1389497 - 1390871" locus_tag="ctg1_1288" class="clusterblast-orf" id="knownclusterblast-4_q4_0_all"  />
<polygon points="229,35 234,30 271,30 271,40 234,40 229,35 " style="fill:white; stroke-width:1; stroke:black; " description="&lt;b&gt;ctg1_1289&lt;/b&gt;&lt;br&gt;ctg1 1289&lt;br&gt;Location: 1391028 - 1392852" locus_tag="ctg1_1289" class="clusterblast-orf" id="knownclusterblast-4_q5_0_all"  />
<polygon points="271,35 276,30 282,30 282,40 276,40 271,35 " style="fill:white; stroke-width:1; stroke:black; " description="&lt;b&gt;ctg1_1290&lt;/b&gt;&lt;br&gt;ctg1 1290&lt;br&gt;Location: 1392855 - 1393323" locus_tag="ctg1_1290" class="clusterblast-orf" id="knownclusterblast-4_q6_0_all"  />
<polygon points="282,35 287,30 303,30 303,40 287,40 282,35 " style="fill:white; stroke-width:1; stroke:black; " description="&lt;b&gt;ctg1_1291&lt;/b&gt;&lt;br&gt;ctg1 1291&lt;br&gt;Location: 1393325 - 1394237" locus_tag="ctg1_1291" class="clusterblast-orf" id="knownclusterblast-4_q7_0_all"  />
<polygon points="304,35 309,30 321,30 321,40 309,40 304,35 " style="fill:white; stroke-width:1; stroke:black; " description="&lt;b&gt;ctg1_1292&lt;/b&gt;&lt;br&gt;ctg1 1292&lt;br&gt;Location: 1394281 - 1395037" locus_tag="ctg1_1292" class="clusterblast-orf" id="knownclusterblast-4_q8_0_all"  />
<polygon points="321,35 326,30 339,30 339,40 326,40 321,35 " style="fill:white; stroke-width:1; stroke:black; " description="&lt;b&gt;ctg1_1293&lt;/b&gt;&lt;br&gt;ctg1 1293&lt;br&gt;Location: 1395049 - 1395814" locus_tag="ctg1_1293" class="clusterblast-orf" id="knownclusterblast-4_q9_0_all"  />
<polygon points="343,40 359,40 364,35 359,30 343,30 343,40 " style="fill:white; stroke-width:1; stroke:black; " description="&lt;b&gt;ctg1_1294&lt;/b&gt;&lt;br&gt;ctg1 1294&lt;br&gt;Location: 1395992 - 1396928" locus_tag="ctg1_1294" class="clusterblast-orf" id="knownclusterblast-4_q10_0_all"  />
<polygon points="366,40 375,40 380,35 375,30 366,30 366,40 " style="fill:white; stroke-width:1; stroke:black; " description="&lt;b&gt;ctg1_1295&lt;/b&gt;&lt;br&gt;ctg1 1295&lt;br&gt;Location: 1397021 - 1397591" locus_tag="ctg1_1295" class="clusterblast-orf" id="knownclusterblast-4_q11_0_all"  />
<polygon points="383,40 401,40 406,35 401,30 383,30 383,40 " style="fill:white; stroke-width:1; stroke:black; " description="&lt;b&gt;ctg1_1296&lt;/b&gt;&lt;br&gt;ctg1 1296&lt;br&gt;Location: 1397731 - 1398751" locus_tag="ctg1_1296" class="clusterblast-orf" id="knownclusterblast-4_q12_0_all"  />
<polygon points="408,35 413,30 416,30 416,40 413,40 408,35 " style="fill:white; stroke-width:1; stroke:black; " description="&lt;b&gt;ctg1_1297&lt;/b&gt;&lt;br&gt;ctg1 1297&lt;br&gt;Location: 1398808 - 1399177" locus_tag="ctg1_1297" class="clusterblast-orf" id="knownclusterblast-4_q13_0_all"  />
<polygon points="425,40 433,40 438,35 433,30 425,30 425,40 " style="fill:white; stroke-width:1; stroke:black; " description="&lt;b&gt;ctg1_1298&lt;/b&gt;&lt;br&gt;ctg1 1298&lt;br&gt;Location: 1399584 - 1400133" locus_tag="ctg1_1298" class="clusterblast-orf" id="knownclusterblast-4_q14_0_all"  />
<polygon points="442,40 464,40 469,35 464,30 442,30 442,40 " style="fill:white; stroke-width:1; stroke:black; " description="&lt;b&gt;ctg1_1299&lt;/b&gt;&lt;br&gt;ctg1 1299&lt;br&gt;Location: 1400289 - 1401495" locus_tag="ctg1_1299" class="clusterblast-orf" id="knownclusterblast-4_q15_0_all"  />
<polygon points="471,35 476,30 487,30 487,40 476,40 471,35 " style="fill:white; stroke-width:1; stroke:black; " description="&lt;b&gt;ctg1_1300&lt;/b&gt;&lt;br&gt;ctg1 1300&lt;br&gt;Location: 1401589 - 1402282" locus_tag="ctg1_1300" class="clusterblast-orf" id="knownclusterblast-4_q16_0_all"  />
<polygon points="491,40 496,40 501,35 496,30 491,30 491,40 " style="fill:white; stroke-width:1; stroke:black; " description="&lt;b&gt;ctg1_1301&lt;/b&gt;&lt;br&gt;ctg1 1301&lt;br&gt;Location: 1402436 - 1402853" locus_tag="ctg1_1301" class="clusterblast-orf" id="knownclusterblast-4_q17_0_all"  />
<polygon points="506,35 511,30 530,30 530,40 511,40 506,35 " style="fill:white; stroke-width:1; stroke:black; " description="&lt;b&gt;ctg1_1302&lt;/b&gt;&lt;br&gt;ctg1 1302&lt;br&gt;Location: 1403078 - 1404146" locus_tag="ctg1_1302" class="clusterblast-orf" id="knownclusterblast-4_q18_0_all"  />
<polygon points="531,35 536,30 559,30 559,40 536,40 531,35 " style="fill:white; stroke-width:1; stroke:black; " description="&lt;b&gt;ctg1_1303&lt;/b&gt;&lt;br&gt;ctg1 1303&lt;br&gt;Location: 1404161 - 1405400" locus_tag="ctg1_1303" class="clusterblast-orf" id="knownclusterblast-4_q19_0_all"  />
<polygon points="563,35 568,30 582,30 582,40 568,40 563,35 " style="fill:white; stroke-width:1; stroke:black; " description="&lt;b&gt;ctg1_1304&lt;/b&gt;&lt;br&gt;ctg1 1304&lt;br&gt;Location: 1405556 - 1406387" locus_tag="ctg1_1304" class="clusterblast-orf" id="knownclusterblast-4_q20_0_all"  />
<polygon points="589,40 605,40 610,35 605,30 589,30 589,40 " style="fill:white; stroke-width:1; stroke:black; " description="&lt;b&gt;ctg1_1305&lt;/b&gt;&lt;br&gt;ctg1 1305&lt;br&gt;Location: 1406715 - 1407612" locus_tag="ctg1_1305" class="clusterblast-orf" id="knownclusterblast-4_q21_0_all"  />
<polygon points="613,35 618,30 639,30 639,40 618,40 613,35 " style="fill:white; stroke-width:1; stroke:black; " description="&lt;b&gt;ctg1_1306&lt;/b&gt;&lt;br&gt;ctg1 1306&lt;br&gt;Location: 1407755 - 1408871" locus_tag="ctg1_1306" class="clusterblast-orf" id="knownclusterblast-4_q22_0_all"  />
<polygon points="642,35 647,30 676,30 676,40 647,40 642,35 " style="fill:white; stroke-width:1; stroke:black; " description="&lt;b&gt;ctg1_1307&lt;/b&gt;&lt;br&gt;ctg1 1307&lt;br&gt;Location: 1409032 - 1410478" locus_tag="ctg1_1307" class="clusterblast-orf" id="knownclusterblast-4_q23_0_all"  />
<polygon points="690,35 695,30 726,30 726,40 695,40 690,35 " style="fill:white; stroke-width:1; stroke:black; " description="&lt;b&gt;ctg1_1308&lt;/b&gt;&lt;br&gt;ctg1 1308&lt;br&gt;Location: 1411105 - 1412680" locus_tag="ctg1_1308" class="clusterblast-orf" id="knownclusterblast-4_q24_0_all"  />
<polygon points="727,35 732,30 750,30 750,40 732,40 727,35 " style="fill:white; stroke-width:1; stroke:black; " description="&lt;b&gt;ctg1_1309&lt;/b&gt;&lt;br&gt;ctg1 1309&lt;br&gt;Location: 1412690 - 1413689" locus_tag="ctg1_1309" class="clusterblast-orf" id="knownclusterblast-4_q25_0_all"  />
<polygon points="750,35 755,30 780,30 780,40 755,40 750,35 " style="fill:white; stroke-width:1; stroke:black; " description="&lt;b&gt;ctg1_1310&lt;/b&gt;&lt;br&gt;ctg1 1310&lt;br&gt;Location: 1413699 - 1415004" locus_tag="ctg1_1310" class="clusterblast-orf" id="knownclusterblast-4_q26_0_all"  />
</g>
</svg>
