<svg xmlns="http://www.w3.org/2000/svg" xmlns:xlink="http://www.w3.org/1999/xlink" version="1.1" x="0" y="0" height="50" width="800" viewBox="0 0 800 50" preserveAspectRatio="none"  >
<g label="Query sequence" class="clusterblast-cluster"  >
<text x="5" y="20" class="clusterblast-acc"  >
Query sequence</text>
<line x1="10" y1="35" x2="778.0" y2="35" style="stroke-width:1; stroke:grey; "  />
<polygon points="0,40 9,40 14,35 9,30 0,30 0,40 " style="fill:white; stroke-width:1; stroke:black; " description="&lt;b&gt;ctg1_3408&lt;/b&gt;&lt;br&gt;ctg1 3408&lt;br&gt;Location: 3678502 - 3679243" locus_tag="ctg1_3408" class="clusterblast-orf" id="knownclusterblast-8_q0_0_all"  />
<polygon points="14,40 27,40 32,35 27,30 14,30 14,40 " style="fill:white; stroke-width:1; stroke:black; " description="&lt;b&gt;ctg1_3409&lt;/b&gt;&lt;br&gt;ctg1 3409&lt;br&gt;Location: 3679245 - 3680172" locus_tag="ctg1_3409" class="clusterblast-orf" id="knownclusterblast-8_q1_0_all"  />
<polygon points="32,40 57,40 62,35 57,30 32,30 32,40 " style="fill:white; stroke-width:1; stroke:black; " description="&lt;b&gt;ctg1_3410&lt;/b&gt;&lt;br&gt;ctg1 3410&lt;br&gt;Location: 3680173 - 3681709" locus_tag="ctg1_3410" class="clusterblast-orf" id="knownclusterblast-8_q2_0_all"  />
<polygon points="62,40 66,40 71,35 66,30 62,30 62,40 " style="fill:white; stroke-width:1; stroke:black; " description="&lt;b&gt;ctg1_3411&lt;/b&gt;&lt;br&gt;ctg1 3411&lt;br&gt;Location: 3681718 - 3682147" locus_tag="ctg1_3411" class="clusterblast-orf" id="knownclusterblast-8_q3_0_all"  />
<polygon points="71,40 78,40 83,35 78,30 71,30 71,40 " style="fill:white; stroke-width:1; stroke:black; " description="&lt;b&gt;ctg1_3412&lt;/b&gt;&lt;br&gt;ctg1 3412&lt;br&gt;Location: 3682146 - 3682776" locus_tag="ctg1_3412" class="clusterblast-orf" id="knownclusterblast-8_q4_0_all"  />
<polygon points="82,40 122,40 127,35 122,30 82,30 82,40 " style="fill:white; stroke-width:1; stroke:black; " description="&lt;b&gt;ctg1_3413&lt;/b&gt;&lt;br&gt;ctg1 3413&lt;br&gt;Location: 3682750 - 3685066" locus_tag="ctg1_3413" class="clusterblast-orf" id="knownclusterblast-8_q5_0_all"  />
<polygon points="128,40 148,40 153,35 148,30 128,30 128,40 " style="fill:white; stroke-width:1; stroke:black; " description="&lt;b&gt;ctg1_3414&lt;/b&gt;&lt;br&gt;ctg1 3414&lt;br&gt;Location: 3685095 - 3686376" locus_tag="ctg1_3414" class="clusterblast-orf" id="knownclusterblast-8_q6_0_all"  />
<polygon points="153,40 159,40 164,35 159,30 153,30 153,40 " style="fill:white; stroke-width:1; stroke:black; " description="&lt;b&gt;ctg1_3415&lt;/b&gt;&lt;br&gt;ctg1 3415&lt;br&gt;Location: 3686378 - 3686924" locus_tag="ctg1_3415" class="clusterblast-orf" id="knownclusterblast-8_q7_0_all"  />
<polygon points="163,40 182,40 187,35 182,30 163,30 163,40 " style="fill:white; stroke-width:1; stroke:black; " description="&lt;b&gt;ctg1_3416&lt;/b&gt;&lt;br&gt;ctg1 3416&lt;br&gt;Location: 3686920 - 3688123" locus_tag="ctg1_3416" class="clusterblast-orf" id="knownclusterblast-8_q8_0_all"  />
<polygon points="187,40 190,40 195,35 190,30 187,30 187,40 " style="fill:white; stroke-width:1; stroke:black; " description="&lt;b&gt;ctg1_3417&lt;/b&gt;&lt;br&gt;ctg1 3417&lt;br&gt;Location: 3688122 - 3688548" locus_tag="ctg1_3417" class="clusterblast-orf" id="knownclusterblast-8_q9_0_all"  />
<polygon points="196,40 205,40 210,35 205,30 196,30 196,40 " style="fill:white; stroke-width:1; stroke:black; " description="&lt;b&gt;ctg1_3418&lt;/b&gt;&lt;br&gt;ctg1 3418&lt;br&gt;Location: 3688571 - 3689297" locus_tag="ctg1_3418" class="clusterblast-orf" id="knownclusterblast-8_q10_0_all"  />
<polygon points="210,40 229,40 234,35 229,30 210,30 210,40 " style="fill:white; stroke-width:1; stroke:black; " description="&lt;b&gt;ctg1_3419&lt;/b&gt;&lt;br&gt;ctg1 3419&lt;br&gt;Location: 3689296 - 3690523" locus_tag="ctg1_3419" class="clusterblast-orf" id="knownclusterblast-8_q11_0_all"  />
<polygon points="234,40 237,40 242,35 237,30 234,30 234,40 " style="fill:white; stroke-width:1; stroke:black; " description="&lt;b&gt;ctg1_3420&lt;/b&gt;&lt;br&gt;ctg1 3420&lt;br&gt;Location: 3690534 - 3690969" locus_tag="ctg1_3420" class="clusterblast-orf" id="knownclusterblast-8_q12_0_all"  />
<polygon points="243,40 251,40 256,35 251,30 243,30 243,40 " style="fill:white; stroke-width:1; stroke:black; " description="&lt;b&gt;ctg1_3421&lt;/b&gt;&lt;br&gt;ctg1 3421&lt;br&gt;Location: 3690994 - 3691651" locus_tag="ctg1_3421" class="clusterblast-orf" id="knownclusterblast-8_q13_0_all"  />
<polygon points="257,35 262,30 266,30 266,40 262,40 257,35 " style="fill:white; stroke-width:1; stroke:black; " description="&lt;b&gt;ctg1_3422&lt;/b&gt;&lt;br&gt;ctg1 3422&lt;br&gt;Location: 3691721 - 3692180" locus_tag="ctg1_3422" class="clusterblast-orf" id="knownclusterblast-8_q14_0_all"  />
<polygon points="266,35 271,30 271,30 271,40 271,40 266,35 " style="fill:white; stroke-width:1; stroke:black; " description="&lt;b&gt;ctg1_3423&lt;/b&gt;&lt;br&gt;ctg1 3423&lt;br&gt;Location: 3692207 - 3692465" locus_tag="ctg1_3423" class="clusterblast-orf" id="knownclusterblast-8_q15_0_all"  />
<polygon points="272,35 277,30 280,30 280,40 277,40 272,35 " style="fill:white; stroke-width:1; stroke:black; " description="&lt;b&gt;ctg1_3424&lt;/b&gt;&lt;br&gt;ctg1 3424&lt;br&gt;Location: 3692476 - 3692893" locus_tag="ctg1_3424" class="clusterblast-orf" id="knownclusterblast-8_q16_0_all"  />
<polygon points="282,35 287,30 302,30 302,40 287,40 282,35 " style="fill:white; stroke-width:1; stroke:black; " description="&lt;b&gt;ctg1_3425&lt;/b&gt;&lt;br&gt;ctg1 3425&lt;br&gt;Location: 3692991 - 3694053" locus_tag="ctg1_3425" class="clusterblast-orf" id="knownclusterblast-8_q17_0_all"  />
<polygon points="305,40 311,40 316,35 311,30 305,30 305,40 " style="fill:white; stroke-width:1; stroke:black; " description="&lt;b&gt;ctg1_3426&lt;/b&gt;&lt;br&gt;ctg1 3426&lt;br&gt;Location: 3694178 - 3694745" locus_tag="ctg1_3426" class="clusterblast-orf" id="knownclusterblast-8_q18_0_all"  />
<polygon points="319,40 328,40 333,35 328,30 319,30 319,40 " style="fill:white; stroke-width:1; stroke:black; " description="&lt;b&gt;ctg1_3427&lt;/b&gt;&lt;br&gt;ctg1 3427&lt;br&gt;Location: 3694900 - 3695632" locus_tag="ctg1_3427" class="clusterblast-orf" id="knownclusterblast-8_q19_0_all"  />
<polygon points="334,40 346,40 351,35 346,30 334,30 334,40 " style="fill:white; stroke-width:1; stroke:black; " description="&lt;b&gt;ctg1_3428&lt;/b&gt;&lt;br&gt;ctg1 3428&lt;br&gt;Location: 3695706 - 3696573" locus_tag="ctg1_3428" class="clusterblast-orf" id="knownclusterblast-8_q20_0_all"  />
<polygon points="353,35 358,30 380,30 380,40 358,40 353,35 " style="fill:white; stroke-width:1; stroke:black; " description="&lt;b&gt;ctg1_3429&lt;/b&gt;&lt;br&gt;ctg1 3429&lt;br&gt;Location: 3696641 - 3698048" locus_tag="ctg1_3429" class="clusterblast-orf" id="knownclusterblast-8_q21_0_all"  />
<polygon points="380,35 385,30 419,30 419,40 385,40 380,35 " style="fill:white; stroke-width:1; stroke:black; " description="&lt;b&gt;ctg1_3430&lt;/b&gt;&lt;br&gt;ctg1 3430&lt;br&gt;Location: 3698058 - 3700053" locus_tag="ctg1_3430" class="clusterblast-orf" id="knownclusterblast-8_q22_0_all"  />
<polygon points="419,35 424,30 445,30 445,40 424,40 419,35 " style="fill:white; stroke-width:1; stroke:black; " description="&lt;b&gt;ctg1_3431&lt;/b&gt;&lt;br&gt;ctg1 3431&lt;br&gt;Location: 3700055 - 3701396" locus_tag="ctg1_3431" class="clusterblast-orf" id="knownclusterblast-8_q23_0_all"  />
<polygon points="447,35 452,30 467,30 467,40 452,40 447,35 " style="fill:white; stroke-width:1; stroke:black; " description="&lt;b&gt;ctg1_3432&lt;/b&gt;&lt;br&gt;ctg1 3432&lt;br&gt;Location: 3701503 - 3702493" locus_tag="ctg1_3432" class="clusterblast-orf" id="knownclusterblast-8_q24_0_all"  />
<polygon points="467,35 472,30 477,30 477,40 472,40 467,35 " style="fill:white; stroke-width:1; stroke:black; " description="&lt;b&gt;ctg1_3433&lt;/b&gt;&lt;br&gt;ctg1 3433&lt;br&gt;Location: 3702511 - 3703021" locus_tag="ctg1_3433" class="clusterblast-orf" id="knownclusterblast-8_q25_0_all"  />
<polygon points="477,35 482,30 528,30 528,40 482,40 477,35 " style="fill:white; stroke-width:1; stroke:black; " description="&lt;b&gt;ctg1_3434&lt;/b&gt;&lt;br&gt;ctg1 3434&lt;br&gt;Location: 3703048 - 3705673" locus_tag="ctg1_3434" class="clusterblast-orf" id="knownclusterblast-8_q26_0_all"  />
<polygon points="539,40 567,40 572,35 567,30 539,30 539,40 " style="fill:white; stroke-width:1; stroke:black; " description="&lt;b&gt;ctg1_3435&lt;/b&gt;&lt;br&gt;ctg1 3435&lt;br&gt;Location: 3706207 - 3707932" locus_tag="ctg1_3435" class="clusterblast-orf" id="knownclusterblast-8_q27_0_all"  />
<polygon points="572,40 577,40 582,35 577,30 572,30 572,40 " style="fill:white; stroke-width:1; stroke:black; " description="&lt;b&gt;ctg1_3436&lt;/b&gt;&lt;br&gt;ctg1 3436&lt;br&gt;Location: 3707931 - 3708423" locus_tag="ctg1_3436" class="clusterblast-orf" id="knownclusterblast-8_q28_0_all"  />
<polygon points="583,40 597,40 602,35 597,30 583,30 583,40 " style="fill:white; stroke-width:1; stroke:black; " description="&lt;b&gt;ctg1_3437&lt;/b&gt;&lt;br&gt;ctg1 3437&lt;br&gt;Location: 3708455 - 3709472" locus_tag="ctg1_3437" class="clusterblast-orf" id="knownclusterblast-8_q29_0_all"  />
<polygon points="609,40 644,40 649,35 644,30 609,30 609,40 " style="fill:white; stroke-width:1; stroke:black; " description="&lt;b&gt;ctg1_3438&lt;/b&gt;&lt;br&gt;ctg1 3438&lt;br&gt;Location: 3709798 - 3711853" locus_tag="ctg1_3438" class="clusterblast-orf" id="knownclusterblast-8_q30_0_all"  />
<polygon points="656,35 660,30 660,40 656,35 " style="fill:white; stroke-width:1; stroke:black; " description="&lt;b&gt;ctg1_3439&lt;/b&gt;&lt;br&gt;ctg1 3439&lt;br&gt;Location: 3712209 - 3712461" locus_tag="ctg1_3439" class="clusterblast-orf" id="knownclusterblast-8_q31_0_all"  />
<polygon points="662,35 667,30 668,30 668,40 667,40 662,35 " style="fill:white; stroke-width:1; stroke:black; " description="&lt;b&gt;ctg1_3440&lt;/b&gt;&lt;br&gt;ctg1 3440&lt;br&gt;Location: 3712549 - 3712828" locus_tag="ctg1_3440" class="clusterblast-orf" id="knownclusterblast-8_q32_0_all"  />
<polygon points="674,40 686,40 691,35 686,30 674,30 674,40 " style="fill:white; stroke-width:1; stroke:black; " description="&lt;b&gt;ctg1_3441&lt;/b&gt;&lt;br&gt;ctg1 3441&lt;br&gt;Location: 3713154 - 3714018" locus_tag="ctg1_3441" class="clusterblast-orf" id="knownclusterblast-8_q33_0_all"  />
<polygon points="695,40 721,40 726,35 721,30 695,30 695,40 " style="fill:white; stroke-width:1; stroke:black; " description="&lt;b&gt;ctg1_3442&lt;/b&gt;&lt;br&gt;ctg1 3442&lt;br&gt;Location: 3714240 - 3715833" locus_tag="ctg1_3442" class="clusterblast-orf" id="knownclusterblast-8_q34_0_all"  />
<polygon points="727,40 739,40 744,35 739,30 727,30 727,40 " style="fill:white; stroke-width:1; stroke:black; " description="&lt;b&gt;ctg1_3443&lt;/b&gt;&lt;br&gt;ctg1 3443&lt;br&gt;Location: 3715902 - 3716745" locus_tag="ctg1_3443" class="clusterblast-orf" id="knownclusterblast-8_q35_0_all"  />
<polygon points="746,40 759,40 764,35 759,30 746,30 746,40 " style="fill:white; stroke-width:1; stroke:black; " description="&lt;b&gt;ctg1_3444&lt;/b&gt;&lt;br&gt;ctg1 3444&lt;br&gt;Location: 3716832 - 3717777" locus_tag="ctg1_3444" class="clusterblast-orf" id="knownclusterblast-8_q36_0_all"  />
<polygon points="764,40 775,40 780,35 775,30 764,30 764,40 " style="fill:white; stroke-width:1; stroke:black; " description="&lt;b&gt;ctg1_3445&lt;/b&gt;&lt;br&gt;ctg1 3445&lt;br&gt;Location: 3717776 - 3718589" locus_tag="ctg1_3445" class="clusterblast-orf" id="knownclusterblast-8_q37_0_all"  />
</g>
</svg>
